<svg height="512pt" viewBox="-53 0 512 512" width="512pt" xmlns="http://www.w3.org/2000/svg"><path d="m391.933594 512h-376.933594c-8.285156 0-15-6.714844-15-15v-405.460938c0-8.28125 6.714844-15 15-15h376.933594c8.28125 0 15 6.71875 15 15v405.460938c0 8.285156-6.71875 15-15 15zm0 0" fill="#fed2a4"/><path d="m391.933594 76.539062h-188.46875v435.460938h188.46875c8.28125 0 15-6.714844 15-15v-405.460938c0-8.285156-6.71875-15-15-15zm0 0" fill="#f6a96c"/><path d="m329.730469 449.773438h-252.527344c-8.285156 0-15-6.714844-15-15v-281.007813c0-8.28125 6.714844-15 15-15h252.527344c8.28125 0 15 6.71875 15 15v281.007813c0 8.285156-6.71875 15-15 15zm0 0" fill="#fff"/><path d="m329.730469 138.765625h-126.265625v311.007813h126.265625c8.28125 0 15-6.714844 15-15v-281.007813c0-8.285156-6.71875-15-15-15zm0 0" fill="#d9e7ec"/><path d="m145.863281 379.296875h-8.628906c-8.285156 0-15-6.714844-15-15s6.714844-15 15-15h8.628906c8.285157 0 15 6.714844 15 15s-6.714843 15-15 15zm0 0" fill="#ef5f3c"/><path d="m269.695312 379.296875h-67.832031c-8.28125 0-15-6.714844-15-15s6.71875-15 15-15h67.832031c8.285157 0 15 6.714844 15 15s-6.714843 15-15 15zm0 0" fill="#0abab5"/><path d="m269.695312 349.296875h-66.230468v30h66.230468c8.285157 0 15-6.714844 15-15s-6.714843-15-15-15zm0 0" fill="#024e41"/><path d="m145.863281 309.269531h-8.628906c-8.285156 0-15-6.714843-15-15 0-8.285156 6.714844-15 15-15h8.628906c8.285157 0 15 6.714844 15 15 0 8.285157-6.714843 15-15 15zm0 0" fill="#ef5f3c"/><path d="m269.695312 309.269531h-67.832031c-8.28125 0-15-6.714843-15-15 0-8.285156 6.71875-15 15-15h67.832031c8.285157 0 15 6.714844 15 15 0 8.285157-6.714843 15-15 15zm0 0" fill="#0abab5"/><path d="m269.695312 279.269531h-66.230468v30h66.230468c8.285157 0 15-6.714843 15-15 0-8.285156-6.714843-15-15-15zm0 0" fill="#024e41"/><path d="m145.863281 239.242188h-8.628906c-8.285156 0-15-6.714844-15-15 0-8.28125 6.714844-15 15-15h8.628906c8.285157 0 15 6.71875 15 15 0 8.285156-6.714843 15-15 15zm0 0" fill="#ef5f3c"/><path d="m269.695312 239.242188h-67.832031c-8.28125 0-15-6.714844-15-15 0-8.28125 6.71875-15 15-15h67.832031c8.285157 0 15 6.71875 15 15 0 8.285156-6.714843 15-15 15zm0 0" fill="#0abab5"/><path d="m269.695312 209.242188h-66.230468v30h66.230468c8.285157 0 15-6.714844 15-15 0-8.285157-6.714843-15-15-15zm0 0" fill="#024e41"/><path d="m283.320312 168.765625h-159.710937c-8.285156 0-15-6.714844-15-15v-88.03125c0-8.285156 6.714844-15 15-15h10.339844c1.800781-28.304687 23.449219-50.734375 49.796875-50.734375h39.4375c26.351562 0 47.996094 22.429688 49.800781 50.734375h10.335937c8.285157 0 15 6.714844 15 15v88.03125c0 8.285156-6.714843 15-15 15zm0 0" fill="#0abab5"/><path d="m283.320312 50.734375h-10.335937c-1.804687-28.304687-23.449219-50.734375-49.800781-50.734375h-19.71875v168.765625h79.855468c8.285157 0 15-6.714844 15-15v-88.03125c0-8.285156-6.714843-15-15-15zm0 0" fill="#024e41"/><path d="m203.652344 74.695312h-.371094c-8.285156 0-15-6.714843-15-15 0-8.28125 6.714844-15 15-15h.371094c8.28125 0 15 6.71875 15 15 0 8.285157-6.71875 15-15 15zm0 0" fill="#fff"/><path d="m203.652344 44.695312h-.1875v30h.1875c8.28125 0 15-6.714843 15-15 0-8.28125-6.71875-15-15-15zm0 0" fill="#d9e7ec"/></svg>