<svg height="512pt" viewBox="-70 0 512 512" width="512pt" xmlns="http://www.w3.org/2000/svg"><path d="m324.789062 512h-277.523437c-26.0625 0-47.265625-21.257812-47.265625-47.390625v-267.808594c0-30.644531 24.730469-55.574219 55.125-55.574219 10.769531 0 19.53125-8.9375 19.53125-19.917968v-29.464844c0-8.28125 6.714844-15 15-15h192.738281c8.285157 0 15 6.71875 15 15v29.464844c0 10.980468 8.761719 19.917968 19.53125 19.917968 30.394531 0 55.125 24.929688 55.125 55.574219v267.808594c0 26.132813-21.203125 47.390625-47.261719 47.390625zm0 0" fill="#d9f2ff"/><path d="m316.925781 141.226562c-10.769531 0-19.53125-8.9375-19.53125-19.917968v-29.464844c0-8.28125-6.714843-15-15-15h-96.367187v435.15625h138.761718c26.058594 0 47.261719-21.257812 47.261719-47.390625v-267.808594c0-30.644531-24.726562-55.574219-55.125-55.574219zm0 0" fill="#a2d8f4"/><path d="m251.90625 436.488281h-131.761719c-25.070312 0-45.46875-20.398437-45.46875-45.46875v-150.074219c0-25.070312 20.398438-45.46875 45.46875-45.46875h131.761719c25.074219 0 45.46875 20.398438 45.46875 45.46875v150.074219c0 25.070313-20.394531 45.46875-45.46875 45.46875zm0 0" fill="#fff3de"/><path d="m251.90625 195.476562h-65.878906v241.011719h65.878906c25.074219 0 45.46875-20.398437 45.46875-45.46875v-150.074219c0-25.070312-20.394531-45.46875-45.46875-45.46875zm0 0" fill="#ffe5c2"/><path d="m231.554688 300.980469h-30.527344v-30.8125c0-8.285157-6.71875-15-15-15-8.285156 0-15 6.714843-15 15v30.8125h-30.53125c-8.28125 0-15 6.71875-15 15 0 8.285156 6.71875 15 15 15h30.53125v30.816406c0 8.285156 6.714844 15 15 15 8.28125 0 15-6.714844 15-15v-30.816406h30.527344c8.285156 0 15-6.714844 15-15 0-8.28125-6.714844-15-15-15zm0 0" fill="#ef5f3c"/><path d="m231.554688 300.980469h-30.527344v-30.8125c0-8.285157-6.71875-15-15-15v121.628906c8.28125 0 15-6.714844 15-15v-30.816406h30.527344c8.285156 0 15-6.714844 15-15 0-8.28125-6.714844-15-15-15zm0 0" fill="#ec380b"/><path d="m304.238281 93.574219h-236.425781c-25.070312 0-45.46875-17.847657-45.46875-39.785157v-14.003906c0-21.9375 20.398438-39.785156 45.46875-39.785156h236.425781c25.070313 0 45.46875 17.847656 45.46875 39.785156v14.003906c0 21.9375-20.398437 39.785157-45.46875 39.785157zm0 0" fill="#d9e7ec"/><path d="m304.238281 0h-118.210937v93.574219h118.210937c25.070313 0 45.46875-17.847657 45.46875-39.785157v-14.003906c0-21.9375-20.398437-39.785156-45.46875-39.785156zm0 0" fill="#c5d3dd"/><path d="m245.703125 0h30v93.574219h-30zm0 0" fill="#b6c4cf"/><path d="m171.027344 0h30v93.574219h-30zm0 0" fill="#c5d3dd"/><path d="m186.027344 0h15v93.574219h-15zm0 0" fill="#b6c4cf"/><path d="m96.351562 0h30v93.574219h-30zm0 0" fill="#c5d3dd"/></svg>