<svg height="512pt" viewBox="-53 0 512 512" width="512pt" xmlns="http://www.w3.org/2000/svg"><path d="m355.691406 512h-305.015625c-27.941406 0-50.675781-22.8125-50.675781-50.851562v-410.296876c0-28.039062 22.734375-50.851562 50.675781-50.851562h305.015625c27.941406 0 50.675782 22.8125 50.675782 50.851562v410.296876c0 28.039062-22.734376 50.851562-50.675782 50.851562zm0 0" fill="#cfdde2"/><path d="m355.691406 0h-152.59375v512h152.59375c27.941406 0 50.675782-22.8125 50.675782-50.851562v-410.296876c0-28.039062-22.734376-50.851562-50.675782-50.851562zm0 0" fill="#9facba"/><path d="m203.183594 449.027344c-8.285156 0-15-6.742188-15-15.054688v-355.945312c0-8.3125 6.714844-15.054688 15-15.054688s15 6.742188 15 15.054688v355.945312c0 8.3125-6.714844 15.054688-15 15.054688zm0 0" fill="#e8f8fc"/><path d="m203.183594 62.972656c-.027344 0-.054688.003906-.085938.003906v386.042969c.03125 0 .058594.003907.085938.003907 8.285156 0 15-6.738282 15-15.050782v-355.945312c0-8.3125-6.714844-15.054688-15-15.054688zm0 0" fill="#cfdde2"/><path d="m109.078125 434.695312c-27.0625 0-49.078125-22.09375-49.078125-49.25s22.015625-49.246093 49.078125-49.246093 49.082031 22.089843 49.082031 49.246093-22.015625 49.25-49.082031 49.25zm0 0" fill="#fff3de"/><path d="m297.289062 434.695312c-27.0625 0-49.078124-22.09375-49.078124-49.25s22.015624-49.246093 49.078124-49.246093 49.078126 22.089843 49.078126 49.246093-22.015626 49.25-49.078126 49.25zm0 0" fill="#ffe5c2"/><path d="m109.078125 306.253906c-27.0625 0-49.078125-22.09375-49.078125-49.25s22.015625-49.25 49.078125-49.25 49.082031 22.09375 49.082031 49.25-22.015625 49.25-49.082031 49.25zm0 0" fill="#fff3de"/><path d="m297.289062 306.253906c-27.0625 0-49.078124-22.09375-49.078124-49.25s22.015624-49.25 49.078124-49.25 49.078126 22.09375 49.078126 49.25-22.015626 49.25-49.078126 49.25zm0 0" fill="#ffe5c2"/><path d="m109.078125 175.804688c-27.0625 0-49.078125-22.09375-49.078125-49.25s22.015625-49.25 49.078125-49.25 49.082031 22.09375 49.082031 49.25-22.015625 49.25-49.082031 49.25zm0 0" fill="#fff3de"/><path d="m297.289062 175.804688c-27.0625 0-49.078124-22.09375-49.078124-49.25s22.015624-49.25 49.078124-49.25 49.078126 22.09375 49.078126 49.25-22.015626 49.25-49.078126 49.25zm0 0" fill="#ffe5c2"/><path d="m109.078125 434.695312c-27.0625 0-49.078125-22.09375-49.078125-49.25s22.015625-49.246093 49.078125-49.246093 49.082031 22.089843 49.082031 49.246093-22.015625 49.25-49.082031 49.25zm0-68.394531c-10.519531 0-19.078125 8.589844-19.078125 19.144531 0 10.558594 8.558594 19.148438 19.078125 19.148438 10.523437 0 19.082031-8.589844 19.082031-19.148438 0-10.554687-8.558594-19.144531-19.082031-19.144531zm0 0" fill="#fffbf5"/><path d="m297.289062 434.695312c-27.0625 0-49.078124-22.09375-49.078124-49.25s22.015624-49.246093 49.078124-49.246093 49.078126 22.089843 49.078126 49.246093-22.015626 49.25-49.078126 49.25zm0-68.394531c-10.519531 0-19.078124 8.589844-19.078124 19.144531 0 10.558594 8.558593 19.148438 19.078124 19.148438 10.519532 0 19.078126-8.589844 19.078126-19.148438 0-10.554687-8.558594-19.144531-19.078126-19.144531zm0 0" fill="#fff3de"/><path d="m109.078125 306.253906c-27.0625 0-49.078125-22.09375-49.078125-49.25s22.015625-49.25 49.078125-49.25 49.082031 22.09375 49.082031 49.25-22.015625 49.25-49.082031 49.25zm0-68.394531c-10.519531 0-19.078125 8.585937-19.078125 19.144531s8.558594 19.144532 19.078125 19.144532c10.523437 0 19.082031-8.585938 19.082031-19.144532s-8.558594-19.144531-19.082031-19.144531zm0 0" fill="#fffbf5"/><path d="m297.289062 306.253906c-27.0625 0-49.078124-22.09375-49.078124-49.25s22.015624-49.25 49.078124-49.25 49.078126 22.09375 49.078126 49.25-22.015626 49.25-49.078126 49.25zm0-68.394531c-10.519531 0-19.078124 8.585937-19.078124 19.144531s8.558593 19.144532 19.078124 19.144532c10.519532 0 19.078126-8.585938 19.078126-19.144532s-8.558594-19.144531-19.078126-19.144531zm0 0" fill="#fff3de"/><path d="m109.078125 175.804688c-27.0625 0-49.078125-22.09375-49.078125-49.25s22.015625-49.25 49.078125-49.25 49.082031 22.09375 49.082031 49.25-22.015625 49.25-49.082031 49.25zm0-68.398438c-10.519531 0-19.078125 8.589844-19.078125 19.148438 0 10.554687 8.558594 19.144531 19.078125 19.144531 10.523437 0 19.082031-8.589844 19.082031-19.144531 0-10.558594-8.558594-19.148438-19.082031-19.148438zm0 0" fill="#fffbf5"/><path d="m297.289062 175.804688c-27.0625 0-49.078124-22.09375-49.078124-49.25s22.015624-49.25 49.078124-49.25 49.078126 22.09375 49.078126 49.25-22.015626 49.25-49.078126 49.25zm0-68.398438c-10.519531 0-19.078124 8.589844-19.078124 19.148438 0 10.554687 8.558593 19.144531 19.078124 19.144531 10.519532 0 19.078126-8.589844 19.078126-19.144531 0-10.558594-8.558594-19.148438-19.078126-19.148438zm0 0" fill="#fff3de"/></svg>