<svg height="512pt" viewBox="0 -69 512.001 512" width="512pt" xmlns="http://www.w3.org/2000/svg"><path d="m256 374.894531c-2.414062 0-4.824219-.578125-7.019531-1.734375-2.308594-1.21875-57.191407-30.300781-112.867188-74.121094-77.152343-60.726562-116.085937-118.09375-115.722656-170.507812.238281-34.359375 13.671875-66.621094 37.824219-90.839844 24.242187-24.304687 56.492187-37.691406 90.808594-37.691406 43.554687 0 83.496093 22.160156 106.976562 57.382812 23.480469-35.222656 63.421875-57.382812 106.972656-57.382812 34.632813 0 67.144532 13.53125 91.542969 38.101562 24.15625 24.320313 37.328125 56.511719 37.09375 90.640626-.363281 52.316406-39.492187 109.609374-116.296875 170.28125-55.472656 43.816406-109.960938 72.898437-112.253906 74.113281-2.207032 1.171875-4.632813 1.757812-7.058594 1.757812zm0 0" fill="#ef5f3c"/><path d="m454.519531 38.101562c-24.402343-24.570312-56.910156-38.101562-91.542969-38.101562-43.554687 0-83.496093 22.160156-106.976562 57.382812v317.511719c2.425781 0 4.851562-.585937 7.058594-1.757812 2.292968-1.214844 56.78125-30.296875 112.253906-74.113281 76.804688-60.671876 115.933594-117.964844 116.296875-170.28125.238281-34.128907-12.9375-66.320313-37.089844-90.640626zm0 0" fill="#ec380b"/><path d="m496.941406 236.4375h-149.640625c-4.9375 0-9.558593-2.421875-12.375-6.476562l-36.546875-52.695313-52.042968 54.511719c-5.957032 6.238281-16.296876 6.085937-22.074219-.3125l-50.839844-56.355469-29.910156 28.578125c-2.800781 2.679688-6.527344 4.175781-10.402344 4.175781h-118.050781c-8.316406 0-15.058594-6.742187-15.058594-15.058593 0-8.316407 6.742188-15.058594 15.058594-15.058594h112.011718l36.75-35.117188c6.046876-5.78125 15.976563-5.410156 21.582032.800782l50.355468 55.816406 53.585938-56.128906c6.480469-6.789063 17.917969-5.890626 23.265625 1.816406l42.574219 61.386718h141.761718c8.3125 0 15.054688 6.742188 15.054688 15.058594 0 8.3125-6.742188 15.058594-15.058594 15.058594zm0 0" fill="#6adbd8"/><path d="m496.941406 206.320312h-141.761718l-42.574219-61.382812c-5.34375-7.707031-16.78125-8.609375-23.261719-1.820312l-33.34375 34.925781v43.609375l42.378906-44.386719 36.546875 52.695313c2.816407 4.054687 7.4375 6.476562 12.375 6.476562h149.640625c8.316406 0 15.058594-6.742188 15.058594-15.058594s-6.742188-15.058594-15.058594-15.058594zm0 0" fill="#0abab5"/></svg>