<svg height="512pt" viewBox="0 0 512 512" width="512pt" xmlns="http://www.w3.org/2000/svg"><path d="m333.273438 316.914062c-12.085938 0-23.574219-.960937-34.117188-2.890624-31.628906-5.796876-52.085938-20.039063-57.609375-40.101563-.253906-.925781-.417969-1.871094-.492187-2.824219l-.007813-.101562c-.148437-1.917969.074219-3.847656.652344-5.683594l24.667969-77.914062c6.140624-19.386719 18.371093-34.535157 34.441406-42.644532 14.921875-7.53125 32.390625-8.519531 49.199218-2.777344l150.90625 51.542969c4.695313 1.601563 8.296876 5.429688 9.613282 10.214844 3.355468 12.195313.933594 25.703125-7.003906 39.054687-17.605469 29.617188-59.09375 55.152344-108.273438 66.644532-21.230469 4.964844-42.386719 7.480468-61.976562 7.480468zm0 0" fill="#3acbc7"/><g fill="#00abe9"><path d="m317.441406 256.652344c-8.28125 0-15 6.71875-15 15v42.929687c9.386719 1.515625 19.460938 2.285157 30 2.324219v-45.253906c0-8.28125-6.714844-15-15-15zm0 0"/><path d="m377.5 253.652344c-8.28125 0-15 6.714844-15 15v46.511718c9.863281-1.144531 19.914062-2.847656 30-5.105468v-41.40625c0-8.285156-6.714844-15-15-15zm0 0"/><path d="m437.558594 233.636719c-8.285156 0-15 6.714843-15 15v52.710937c10.660156-3.855468 20.722656-8.375 30-13.429687v-39.285157c0-8.28125-6.714844-14.996093-15-14.996093zm0 0"/></g><path d="m178.722656 316.90625c-19.589844 0-40.742187-2.515625-61.976562-7.476562-49.179688-11.492188-90.667969-37.03125-108.273438-66.648438-7.9375-13.351562-10.359375-26.855469-7.003906-39.054688 1.316406-4.785156 4.917969-8.609374 9.613281-10.214843l150.90625-51.542969c16.808594-5.738281 34.277344-4.753906 49.199219 2.777344 16.070312 8.113281 28.300781 23.257812 34.4375 42.644531l24.671875 77.914063c.578125 1.835937.800781 3.765624.652344 5.683593l-.007813.101563c-.074218.957031-.238281 1.902344-.492187 2.824218-5.523438 20.066407-25.980469 34.308594-57.605469 40.101563-10.542969 1.933594-22.035156 2.890625-34.121094 2.890625zm77.265625-46.972656h.011719zm0 0" fill="#c9fcfb"/><path d="m209.554688 314.574219v-42.925781c0-8.285157-6.714844-15-15-15-8.285157 0-15 6.714843-15 15v45.25c10.539062-.039063 20.617187-.808594 30-2.324219zm0 0" fill="#66c0ee"/><path d="m149.496094 315.15625v-46.511719c0-8.285156-6.714844-15-15-15-8.28125 0-15 6.714844-15 15v41.40625c10.085937 2.257813 20.140625 3.960938 30 5.105469zm0 0" fill="#66c0ee"/><path d="m74.441406 233.628906c-8.285156 0-15 6.714844-15 15v39.28125c9.273438 5.054688 19.339844 9.574219 30 13.429688v-52.710938c0-8.285156-6.714844-15-15-15zm0 0" fill="#66c0ee"/><path d="m196.777344 407.4375c8.285156 0 15-6.714844 15-15 0-16.417969 6.085937-19.125 12.660156-22.851562 9.5-5.382813 43.09375-5.230469 53.847656-3.871094 8.210938 1.039062 15.722656-4.769532 16.773438-12.976563 1.046875-8.210937-4.738282-15.71875-12.949219-16.777343-.375-.050782-22.371094-1.195313-33.699219-.992188-16.261718.289062-29.304687 3.15625-38.765625 8.515625-18.488281 10.480469-27.867187 24.957031-27.867187 48.953125 0 8.285156 6.71875 15 15 15zm0 0" fill="#ffe5c2"/><path d="m209.644531 343.484375c9.460938-5.359375 22.503907-8.226563 38.765625-8.515625 2.203125-.039062 4.816406-.027344 7.589844.015625v29.980469c-12.527344.25-26.070312 1.507812-31.5625 4.621094-6.574219 3.726562-12.660156 6.433593-12.660156 22.851562 0 8.285156-6.714844 15-15 15-8.28125 0-15-6.714844-15-15 0-23.996094 9.378906-38.472656 27.867187-48.953125zm0 0" fill="#fed2a4"/><path d="m255.996094 511.074219c-8.285156 0-15-6.714844-15-15v-379.355469c0-8.285156 6.714844-15 15-15s15 6.714844 15 15v379.355469c0 8.285156-6.714844 15-15 15zm0 0" fill="#99ecea"/><path d="m256 101.71875v409.355469c8.28125-.003907 14.996094-6.71875 14.996094-15v-379.355469c0-8.28125-6.714844-14.996094-14.996094-15zm0 0" fill="#6adbd8"/><path d="m255.675781 512c18.46875 0 36.089844-4.128906 49.621094-11.628906 16.097656-8.925782 25.332031-22.285156 25.332031-36.65625 0-8.285156-6.71875-15-15-15-8.285156 0-15 6.714844-15 15 0 3-3.878906 7.089844-9.878906 10.417968-9.019531 5-21.804688 7.867188-35.074219 7.867188-27.84375 0-44.898437-11.804688-44.949219-18.257812.03125-11.644532 7.835938-15.777344 14.519532-15.777344 14.898437 0 31.78125 0 49.957031-2.601563 15.566406-2.226562 28.226563-7.894531 37.621094-16.847656 11.214843-10.679687 17.144531-25.796875 17.144531-43.714844 0-8.285156-6.714844-15-15-15s-15 6.714844-15 15c0 11.46875-3.007812 27.144531-29.011719 30.863281-14.910156 2.136719-28.351562 2.300782-45.710937 2.300782-25.308594 0-44.410156 19.601562-44.519532 45.632812v.117188.101562.199219c.230469 27.378906 32.375 47.984375 74.949219 47.984375zm0 0" fill="#fed2a4"/><path d="m225.242188 417.960938c11.183593 0 20.742187-.070313 30.113281-.6875v30.054687c-10.703125.636719-20.796875.636719-30.113281.636719-6.683594 0-14.484376 4.132812-14.515626 15.777344.046876 6.429687 16.976563 18.164062 44.628907 18.253906v30c-42.414063-.105469-74.398438-20.671875-74.628907-47.980469 0-.066406 0-.132813 0-.199219v-.101562c0-.039063 0-.078125 0-.117188.105469-26.03125 19.207032-45.636718 44.515626-45.636718zm0 0" fill="#ffbd86"/><path d="m255.226562 131.667969c-36.304687 0-65.839843-29.535157-65.839843-65.832031 0-36.300782 29.535156-65.835938 65.839843-65.835938 36.304688 0 65.839844 29.53125 65.839844 65.835938 0 36.300781-29.535156 65.832031-65.839844 65.832031zm0 0" fill="#c9fcfb"/><path d="m256 .0195312v131.6289068c35.945312-.417969 65.066406-29.773438 65.066406-65.8125 0-36.042969-29.121094-65.398438-65.066406-65.8164068zm0 0" fill="#99ecea"/></svg>