<svg height="512pt" viewBox="-52 0 512 512" width="512pt" xmlns="http://www.w3.org/2000/svg"><path d="m235.726562 405.335938h-63.03125c-71.359374 0-129.414062-57.992188-129.414062-129.273438v-129.667969c0-80.722656 65.742188-146.394531 146.554688-146.394531h28.75c80.8125 0 146.554687 65.671875 146.554687 146.394531v129.667969c0 71.28125-58.054687 129.273438-129.414063 129.273438zm0 0" fill="#f89a76"/><path d="m218.585938 0h-14.375v405.335938h31.515624c71.359376 0 129.414063-57.992188 129.414063-129.273438v-129.667969c0-80.722656-65.742187-146.394531-146.554687-146.394531zm0 0" fill="#ef5f3c"/><path d="m393.421875 512h-378.421875c-8.285156 0-15-6.707031-15-14.984375v-11.207031c0-95.867188 78.078125-173.859375 174.050781-173.859375h60.320313c95.972656 0 174.050781 77.992187 174.050781 173.859375v11.207031c0 8.277344-6.714844 14.984375-15 14.984375zm0 0" fill="#99ecea"/><path d="m234.371094 311.949219h-30.160156v200.050781h189.210937c8.285156 0 15-6.707031 15-14.984375v-11.207031c0-95.867188-78.078125-173.859375-174.050781-173.859375zm0 0" fill="#6adbd8"/><path d="m121.503906 403.546875c8.28125 0 15-6.707031 15-14.980469v-72.53125c-10.375 2.289063-20.40625 5.492188-30 9.542969v62.988281c0 8.273438 6.714844 14.980469 15 14.980469zm0 0" fill="#024e41"/><path d="m121.503906 460.269531c-23.925781 0-43.394531-19.445312-43.394531-43.34375 0-23.898437 19.464844-43.34375 43.394531-43.34375 23.925782 0 43.390625 19.441407 43.390625 43.34375 0 23.898438-19.464843 43.34375-43.390625 43.34375zm0 0" fill="#e8f8fc"/><path d="m296.714844 422.394531c8.28125 0 15-6.710937 15-14.984375v-77.320312c-9.542969-4.746094-19.570313-8.652344-30-11.601563v88.921875c0 8.273438 6.714844 14.984375 15 14.984375zm0 0" fill="#00abe9"/><path d="m346.480469 512v-55.066406c0-30.054688-20.175781-54.507813-44.980469-54.507813h-9.574219c-24.804687 0-44.980469 24.453125-44.980469 54.507813v55.066406h30v-55.066406c0-14.046875 7.910157-24.539063 14.980469-24.539063h9.574219c7.074219 0 14.980469 10.492188 14.980469 24.539063v55.066406zm0 0" fill="#006da6"/><path d="m204.210938 382.1875c-30.5 0-55.316407-24.785156-55.316407-55.253906v-40.273438c0-8.273437 6.714844-14.984375 15-14.984375h80.632813c8.285156 0 15 6.710938 15 14.984375v40.273438c0 30.46875-24.8125 55.253906-55.316406 55.253906zm0 0" fill="#ffe5c2"/><path d="m244.527344 271.675781h-40.316406v110.511719c30.5 0 55.316406-24.785156 55.316406-55.253906v-40.273438c0-8.273437-6.714844-14.984375-15-14.984375zm0 0" fill="#fed2a4"/><path d="m204.210938 303.394531c-59.253907 0-107.464844-48.148437-107.464844-107.332031v-14.933594c0-5.019531.363281-10.109375 1.082031-15.125.472656-3.324218 4.207031-5.257812 7.207031-3.742187 7.152344 3.601562 15.1875 5.433593 23.878906 5.433593 17.910157 0 36.570313-7.839843 51.195313-21.503906 19.558594-18.269531 28.808594-44.238281 23.566406-66.160156-.867187-3.617188 2.148438-5.6875 5.0625-6.132812 27.652344 1.164062 53.527344 12.863281 72.863281 32.945312 19.390626 20.140625 30.070313 46.519531 30.070313 74.285156v14.933594c.003906 59.183594-48.207031 107.332031-107.460937 107.332031zm0 0" fill="#fff3de"/><path d="m281.601562 106.84375c-19.335937-20.082031-45.210937-31.78125-72.863281-32.945312-4.753906.789062-6.261719 3.703124-4.527343 8.699218 1.226562 6.585938 1.1875 13.535156 0 20.449219v200.347656c59.257812 0 107.464843-48.148437 107.464843-107.332031v-14.933594c0-27.765625-10.683593-54.148437-30.074219-74.285156zm0 0" fill="#ffe5c2"/><path d="m204.210938 214.546875c-37.691407 0-71.746094 11.3125-96.097657 29.515625 17.667969 35.148438 54.105469 59.332031 96.097657 59.332031 41.992187 0 78.425781-24.183593 96.097656-59.332031-24.351563-18.203125-58.40625-29.515625-96.097656-29.515625zm0 0" fill="#6adbd8"/><path d="m204.210938 214.546875v88.847656c41.992187 0 78.425781-24.183593 96.097656-59.332031-24.351563-18.203125-58.40625-29.515625-96.097656-29.515625zm0 0" fill="#3acbc7"/></svg>