<svg height="512pt" viewBox="0 -53 512.00024 512" width="512pt" xmlns="http://www.w3.org/2000/svg"><path d="m231.855469 395.144531c-8.285157 0-15-6.714843-15-15v-87.679687c0-8.285156 6.714843-15 15-15 8.285156 0 15 6.714844 15 15v87.679687c0 8.285157-6.714844 15-15 15zm0 0" fill="#d9e7ec"/><path d="m410.84375 395.144531c-8.285156 0-15-6.714843-15-15v-87.679687c0-8.285156 6.714844-15 15-15s15 6.714844 15 15v87.679687c0 8.285157-6.714844 15-15 15zm0 0" fill="#d9e7ec"/><path d="m434.066406 405.035156h-233.910156c-27.488281 0-53.421875-9.074218-74.988281-26.238281-6.480469-5.160156-7.554688-14.597656-2.394531-21.078125 5.160156-6.480469 14.597656-7.550781 21.078124-2.394531 16.199219 12.894531 35.671876 19.710937 56.304688 19.710937h233.910156c19.574219 0 38.238282-6.191406 53.972656-17.914062 6.644532-4.949219 16.039063-3.570313 20.988282 3.070312 4.949218 6.644532 3.574218 16.039063-3.066406 20.988282-20.953126 15.609374-45.816407 23.855468-71.894532 23.855468zm0 0" fill="#b6c4cf"/><path d="m509.027344 360.191406c-4.949219-6.640625-14.34375-8.019531-20.988282-3.070312-15.734374 11.722656-34.398437 17.914062-53.972656 17.914062h-139.316406v30h139.316406c26.078125 0 50.9375-8.246094 71.894532-23.851562 6.640624-4.953125 8.015624-14.347656 3.066406-20.992188zm0 0" fill="#9facba"/><path d="m440.632812.0429688h-145.765624c-.269532-.015625-.539063-.0429688-.8125-.0429688-.273438 0-.542969.0273438-.8125.0429688h-144.375c-8.285157 0-15 6.7148432-15 15.0000002 0 8.28125 6.714843 15 15 15h130.1875v44.589843c0 8.285157 6.714843 15 15 15 8.285156 0 15-6.714843 15-15v-44.589843h131.578124c8.28125 0 15-6.71875 15-15 0-8.285157-6.71875-15.0000002-15-15.0000002zm0 0" fill="#b6c4cf"/><path d="m440.632812.0429688h-145.765624c-.039063-.0039063-.078126-.0039063-.117188-.0078126v89.5624998c7.960938-.363281 14.304688-6.914062 14.304688-14.964844v-44.589843h131.578124c8.28125 0 15-6.71875 15-15 0-8.285157-6.71875-15.0000002-15-15.0000002zm0 0" fill="#9facba"/><path d="m427.851562 307.480469h-215.949218c-45.753906 0-82.980469-34.402344-82.980469-76.6875v-65.226563s-101.398437-15.726562-103.523437-17.53125c-15.214844-6.761718-25.398438-22.027344-25.398438-39.023437v-65.996094c0-14.9375 12.140625-27.089844 27.058594-27.089844 28.855468 0 52.960937 20.769531 58.199218 48.167969l256.699219-.3125c93.117188 0 169.875 69.371094 170.042969 154.636719v12.375c-.167969 42.285156-38.390625 76.6875-84.148438 76.6875zm0 0" fill="#99ecea"/><path d="m341.957031 63.78125h-47.207031v243.699219h133.101562c45.757813 0 83.980469-34.402344 84.148438-76.6875v-12.375c-.167969-85.265625-76.925781-154.636719-170.042969-154.636719zm0 0" fill="#3acbc7"/><path d="m445.867188 224.265625h-102.382813c-8.28125 0-15-6.714844-15-15v-67.921875c0-8.28125 6.71875-15 15-15h20.085937c26.214844 0 50.992188 10.363281 69.765626 29.179688 14.050781 14.085937 23.472656 31.667968 27.25 50.847656.863281 4.398437-.285157 8.957031-3.132813 12.421875-2.851563 3.464843-7.101563 5.472656-11.585937 5.472656zm0 0" fill="#d9f2ff"/><path d="m265.808594 160.308594h-16.339844v-16.417969c0-8.28125-6.71875-15-15-15-8.285156 0-15 6.71875-15 15v16.417969h-16.34375c-8.28125 0-15 6.714844-15 15 0 8.28125 6.71875 15 15 15h16.34375v16.414062c0 8.28125 6.714844 15 15 15 8.28125 0 15-6.71875 15-15v-16.414062h16.339844c8.285156 0 15-6.71875 15-15 0-8.285156-6.714844-15-15-15zm0 0" fill="#ef5f3c"/></svg>