<svg height="512pt" viewBox="0 -24 512 512" width="512pt" xmlns="http://www.w3.org/2000/svg"><g fill="#a2d8f4"><path d="m496.988281 159.382812h-26.539062c-8.289063 0-15.011719-6.71875-15.011719-15.011718 0-8.289063 6.722656-15.011719 15.011719-15.011719h26.539062c8.289063 0 15.011719 6.722656 15.011719 15.011719 0 8.292968-6.722656 15.011718-15.011719 15.011718zm0 0"/><path d="m367.628906 56.558594c-8.292968 0-15.011718-6.71875-15.011718-15.011719v-26.535156c0-8.289063 6.71875-15.011719 15.011718-15.011719 8.289063 0 15.011719 6.722656 15.011719 15.011719v26.539062c0 8.289063-6.722656 15.007813-15.011719 15.007813zm0 0"/><path d="m482.488281 53.609375-18.765625 18.761719c-5.863281 5.863281-15.367187 5.863281-21.230468 0-5.859376-5.863282-5.859376-15.367188 0-21.230469l18.765624-18.761719c5.863282-5.863281 15.367188-5.863281 21.230469 0 5.859375 5.863282 5.859375 15.367188 0 21.230469zm0 0"/></g><path d="m482.488281 32.378906-39.996093 39.992188c5.863281 5.863281 15.367187 5.863281 21.230468 0l18.761719-18.761719c5.863281-5.863281 5.863281-15.367187.003906-21.230469zm0 0" fill="#66c0ee"/><path d="m362.480469 208.902344c-3.84375 0-7.683594-1.464844-10.613281-4.398438l-42.726563-42.726562c-2.816406-2.8125-4.398437-6.632813-4.398437-10.613282 0-3.980468 1.582031-7.800781 4.398437-10.613281l51.183594-51.183593c2.816406-2.816407 6.632812-4.398438 10.613281-4.398438s7.800781 1.582031 10.613281 4.398438l42.726563 42.726562c5.863281 5.863281 5.863281 15.367188 0 21.230469l-51.183594 51.183593c-2.929688 2.929688-6.769531 4.394532-10.613281 4.394532zm0 0" fill="#99ecea"/><path d="m424.277344 132.09375-19.929688-19.929688-72.414062 72.410157 19.929687 19.933593c2.933594 2.929688 6.773438 4.394532 10.617188 4.394532 3.839843 0 7.683593-1.464844 10.613281-4.394532l51.183594-51.183593c5.863281-5.863281 5.863281-15.367188 0-21.230469zm0 0" fill="#6adbd8"/><path d="m231.808594 99.734375h-69.289063c-8.292969 0-15.011719-6.71875-15.011719-15.011719v-60.082031c0-8.292969 6.71875-15.011719 15.011719-15.011719h69.289063c8.289062 0 15.011718 6.71875 15.011718 15.011719v60.082031c0 8.292969-6.722656 15.011719-15.011718 15.011719zm0 0" fill="#008adf"/><path d="m231.808594 9.628906h-34.644532v90.105469h34.644532c8.289062 0 15.011718-6.71875 15.011718-15.011719v-60.082031c0-8.292969-6.722656-15.011719-15.011718-15.011719zm0 0" fill="#006da6"/><path d="m261.828125 39.652344h-129.332031c-8.292969 0-15.011719-6.722656-15.011719-15.011719 0-8.292969 6.71875-15.011719 15.011719-15.011719h129.335937c8.289063 0 15.011719 6.71875 15.011719 15.011719-.003906 8.289063-6.722656 15.011719-15.015625 15.011719zm0 0" fill="#006da6"/><path d="m261.828125 9.628906h-64.664063v30.023438h64.664063c8.292969 0 15.011719-6.722656 15.011719-15.011719 0-8.292969-6.71875-15.011719-15.011719-15.011719zm0 0" fill="#003554"/><path d="m197.164062 463.960938c-108.71875 0-197.164062-88.449219-197.164062-197.164063s88.445312-197.160156 197.164062-197.160156c108.714844 0 197.160157 88.445312 197.160157 197.160156 0 108.71875-88.445313 197.164063-197.160157 197.164063zm0 0" fill="#e8f8fc"/><path d="m197.164062 69.636719v394.324219c108.714844 0 197.164063-88.445313 197.164063-197.164063 0-108.714844-88.449219-197.160156-197.164063-197.160156zm0 0" fill="#d9e7ec"/><path d="m197.164062 463.960938c-108.71875 0-197.164062-88.449219-197.164062-197.164063s88.445312-197.160156 197.164062-197.160156c108.714844 0 197.160157 88.445312 197.160157 197.160156 0 108.71875-88.445313 197.164063-197.160157 197.164063zm0-364.300782c-92.160156 0-167.140624 74.976563-167.140624 167.136719s74.980468 167.140625 167.140624 167.140625c92.160157 0 167.136719-74.980469 167.136719-167.140625s-74.976562-167.136719-167.136719-167.136719zm0 0" fill="#ef5f3c"/><path d="m197.164062 69.636719v30.023437c92.160157 0 167.140626 74.976563 167.140626 167.136719s-74.980469 167.140625-167.140626 167.140625v30.023438c108.714844 0 197.164063-88.445313 197.164063-197.164063 0-108.714844-88.449219-197.160156-197.164063-197.160156zm0 0" fill="#ec380b"/><path d="m133.320312 217.964844c-3.84375 0-7.6875-1.464844-10.617187-4.398438l-20.921875-20.917968c-5.863281-5.863282-5.863281-15.371094 0-21.230469 5.863281-5.863281 15.367188-5.863281 21.230469 0l20.921875 20.921875c5.863281 5.859375 5.863281 15.367187 0 21.226562-2.929688 2.933594-6.773438 4.398438-10.613282 4.398438zm0 0" fill="#0abab5"/><path d="m281.929688 366.574219c-3.84375 0-7.683594-1.464844-10.613282-4.394531l-20.925781-20.921876c-5.859375-5.863281-5.859375-15.367187 0-21.230468 5.863281-5.863282 15.367187-5.863282 21.230469 0l20.921875 20.921875c5.863281 5.863281 5.863281 15.367187 0 21.230469-2.929688 2.929687-6.773438 4.394531-10.613281 4.394531zm0 0" fill="#2b7a77"/><path d="m112.394531 366.574219c-3.839843 0-7.679687-1.464844-10.613281-4.394531-5.863281-5.863282-5.863281-15.367188 0-21.230469l20.921875-20.921875c5.863281-5.863282 15.367187-5.863282 21.230469 0 5.859375 5.859375 5.859375 15.367187 0 21.230468l-20.925782 20.921876c-2.925781 2.929687-6.769531 4.394531-10.613281 4.394531zm0 0" fill="#0abab5"/><path d="m261.007812 217.964844c-3.84375 0-7.6875-1.464844-10.617187-4.398438-5.863281-5.859375-5.863281-15.367187 0-21.226562l20.921875-20.921875c5.863281-5.863281 15.371094-5.863281 21.230469 0 5.863281 5.863281 5.863281 15.367187 0 21.230469l-20.921875 20.917968c-2.929688 2.933594-6.773438 4.398438-10.613282 4.398438zm0 0" fill="#2b7a77"/><path d="m106.875 281.808594h-29.589844c-8.289062 0-15.011718-6.71875-15.011718-15.011719 0-8.289063 6.722656-15.011719 15.011718-15.011719h29.589844c8.289062 0 15.011719 6.722656 15.011719 15.011719 0 8.292969-6.722657 15.011719-15.011719 15.011719zm0 0" fill="#0abab5"/><path d="m317.039062 281.808594h-29.585937c-8.289063 0-15.011719-6.71875-15.011719-15.011719 0-8.289063 6.722656-15.011719 15.011719-15.011719h29.585937c8.292969 0 15.011719 6.722656 15.011719 15.011719 0 8.292969-6.71875 15.011719-15.011719 15.011719zm0 0" fill="#2b7a77"/><path d="m197.164062 401.6875c-8.292968 0-15.011718-6.722656-15.011718-15.011719v-29.589843c0-8.289063 6.71875-15.011719 15.011718-15.011719 8.289063 0 15.011719 6.722656 15.011719 15.011719v29.589843c0 8.289063-6.722656 15.011719-15.011719 15.011719zm0 0" fill="#0abab5"/><path d="m197.164062 342.074219v59.613281c8.289063 0 15.011719-6.722656 15.011719-15.011719v-29.589843c0-8.289063-6.722656-15.011719-15.011719-15.011719zm0 0" fill="#024e41"/><path d="m197.164062 191.519531c-8.292968 0-15.011718-6.71875-15.011718-15.011719v-29.589843c0-8.289063 6.71875-15.011719 15.011718-15.011719 8.289063 0 15.011719 6.722656 15.011719 15.011719v29.589843c0 8.292969-6.722656 15.011719-15.011719 15.011719zm0 0" fill="#0abab5"/><path d="m197.164062 131.90625v59.613281c8.289063 0 15.011719-6.71875 15.011719-15.011719v-29.589843c0-8.289063-6.722656-15.011719-15.011719-15.011719zm0 0" fill="#024e41"/><path d="m226.109375 251.785156h-13.933594v-13.933594c0-8.292968-6.722656-15.011718-15.011719-15.011718-8.292968 0-15.011718 6.71875-15.011718 15.011718v13.933594h-13.9375c-8.289063 0-15.011719 6.722656-15.011719 15.011719 0 8.292969 6.722656 15.011719 15.011719 15.011719h13.9375v13.9375c0 8.289062 6.71875 15.011718 15.011718 15.011718 8.289063 0 15.011719-6.722656 15.011719-15.011718v-13.9375h13.933594c8.289063 0 15.011719-6.71875 15.011719-15.011719 0-8.289063-6.722656-15.011719-15.011719-15.011719zm0 0" fill="#f89a76"/><path d="m226.109375 251.785156h-13.933594v-13.933594c0-8.292968-6.722656-15.011718-15.011719-15.011718v87.917968c8.289063 0 15.011719-6.722656 15.011719-15.011718v-13.9375h13.933594c8.289063 0 15.011719-6.71875 15.011719-15.011719 0-8.289063-6.722656-15.011719-15.011719-15.011719zm0 0" fill="#ef5f3c"/></svg>