<svg height="512pt" viewBox="0 0 512 512" width="512pt" xmlns="http://www.w3.org/2000/svg"><path d="m381.832031 512c-5.226562 0-10.457031-1.027344-15.457031-3.085938-10.613281-4.371093-18.839844-12.792968-23.160156-23.71875l-29.789063-75.320312c-1.539062.074219-3.078125.109375-4.605469.109375-20.996093 0-41.511718-6.738281-58.660156-19.128906-9.503906 2.953125-19.339844 4.445312-29.335937 4.445312-27.875 0-54.648438-12-73.914063-32.648437-13.675781 6.738281-28.628906 10.253906-43.910156 10.253906-56.796875 0-103-48.21875-103-107.492188 0-13.09375 2.230469-25.839843 6.640625-37.976562-4.410156-12.136719-6.640625-24.882812-6.640625-37.976562 0-25.472657 8.691406-50.171876 24.472656-69.554688 13.8125-16.964844 32.308594-29.011719 52.765625-34.523438 16.199219-39.058593 53.179688-64.738281 94.503907-64.738281 4.484374 0 8.964843.304688 13.398437.90625 17.78125-13.949219 39.464844-21.550781 61.835937-21.550781 20.269532 0 39.53125 6 56.246094 17.445312 11.972656-4.941406 24.605469-7.4375 37.675782-7.4375 38.878906 0 74.003906 22.601563 91.578124 58.242188 21.066407 5.140625 40.171876 17.15625 54.464844 34.410156 16.148438 19.5 25.042969 44.453125 25.042969 70.261719 0 23.730469-7.4375 46.523437-21.121094 65.199219 5.878907 13.742187 8.957031 28.710937 8.957031 43.835937 0 23.621094-7.207031 46.039063-20.84375 64.824219-10.023437 13.8125-23.246093 24.957031-38.171874 32.351562l21.757812 55.015626c8.582031 21.695312-1.429688 46.792968-22.308594 55.945312l-42.128906 18.460938c-5.238281 2.292968-10.761719 3.445312-16.292969 3.445312zm0 0" fill="#ffe5c2"/><path d="m511.984375 172.921875c0-25.808594-8.894531-50.761719-25.042969-70.261719-14.292968-17.253906-33.398437-29.269531-54.464844-34.410156-17.574218-35.640625-52.699218-58.242188-91.578124-58.242188-13.070313 0-25.703126 2.5-37.675782 7.4375-14.214844-9.734374-30.277344-15.511718-47.230468-17.027343v394.335937c15.878906 9.890625 34.164062 15.230469 52.828124 15.230469 1.527344 0 3.066407-.035156 4.605469-.109375l29.789063 75.320312c4.320312 10.925782 12.546875 19.347657 23.160156 23.71875 5 2.058594 10.230469 3.085938 15.457031 3.085938 5.53125 0 11.054688-1.148438 16.296875-3.445312l42.125-18.460938c20.882813-9.152344 30.890625-34.25 22.3125-55.945312l-21.757812-55.015626c14.921875-7.394531 28.144531-18.535156 38.171875-32.351562 13.632812-18.785156 20.839843-41.203125 20.839843-64.824219 0-15.125-3.074218-30.09375-8.957031-43.835937 13.683594-18.675782 21.121094-41.46875 21.121094-65.199219zm0 0" fill="#fed2a4"/><path d="m490.359375 217.246094c-16.3125-16.554688-35.164063-27.996094-56.035156-34.011719-35.6875-10.28125-64.898438-.871094-66.125-.464844-7.867188 2.601563-12.171875 11.101563-9.570313 18.964844 2.601563 7.863281 11.042969 12.144531 18.910156 9.542969.222657-.070313 22.816407-7.058594 49.847657 1.1875 30.433593 9.289062 54.710937 33.527344 72.382812 72.171875.019531-.890625.050781-1.785157.050781-2.683594 0-15.121094-3.074218-30.089844-8.957031-43.835937 2.800781-3.820313 5.324219-7.820313 7.589844-11.960938-2.625-3.113281-5.316406-6.09375-8.09375-8.910156zm0 0" fill="#f6a96c"/><path d="m154.980469 343.890625c-9.238281-31.609375-5.195313-57.652344 12.019531-77.40625 5.441406-6.246094 4.789062-15.722656-1.457031-21.164063-6.242188-5.441406-15.71875-4.792968-21.160157 1.453126-24.203124 27.773437-30.40625 64.5625-17.941406 106.390624 1.617188 5.433594 3.453125 10.609376 5.378906 15.449219 5.160157-1.570312 10.207032-3.554687 15.089844-5.960937 7.339844 7.867187 15.777344 14.476562 24.945313 19.652344-4.628907-7.84375-12.035157-21.859376-16.875-38.414063zm0 0" fill="#ffbd86"/><path d="m303.222656 17.445312c-6.464844-4.425781-13.3125-8.03125-20.453125-10.792968-26.777343 22.769531-55.707031 64.640625-41.476562 134.808594 1.441406 7.117187 7.695312 12.023437 14.683593 12.023437.988282 0 1.992188-.097656 2.996094-.300781 8.121094-1.644532 13.367188-9.5625 11.722656-17.679688-9.011718-44.4375 1.335938-79.878906 30.75-105.347656 10.734376-9.292969 22.25-15.667969 31.484376-19.828125-10.246094.8125-20.183594 3.191406-29.707032 7.117187zm0 0" fill="#ffbd86"/><path d="m303.222656 17.445312c-6.464844-4.425781-13.3125-8.03125-20.453125-10.792968-9.300781 7.90625-18.855469 18.121094-26.777343 31.023437v115.808594c.984374 0 1.980468-.101563 2.980468-.300781 8.121094-1.648438 13.367188-9.5625 11.71875-17.683594-9.007812-44.433594 1.335938-79.875 30.753906-105.34375 10.734376-9.296875 22.25-15.671875 31.484376-19.828125-10.246094.8125-20.183594 3.191406-29.707032 7.117187zm0 0" fill="#f6a96c"/></svg>