<svg height="512pt" viewBox="-142 0 512 512" width="512pt" xmlns="http://www.w3.org/2000/svg"><path d="m202.597656 474.941406h-177.71875c-8.289062 0-15.007812-6.722656-15.007812-15.011718 0-8.289063 6.71875-15.007813 15.007812-15.007813h177.71875c8.289063 0 15.007813 6.71875 15.007813 15.007813 0 8.289062-6.71875 15.011718-15.007813 15.011718zm0 0" fill="#fed2a4"/><path d="m202.597656 444.921875h-88.859375v30.019531h88.859375c8.289063 0 15.007813-6.722656 15.007813-15.011718 0-8.289063-6.71875-15.007813-15.007813-15.007813zm0 0" fill="#ffbd86"/><path d="m202.597656 309.304688h-177.71875c-8.289062 0-15.007812-6.722657-15.007812-15.011719 0-8.289063 6.71875-15.007813 15.007812-15.007813h177.71875c8.289063 0 15.007813 6.71875 15.007813 15.007813 0 8.289062-6.71875 15.011719-15.007813 15.011719zm0 0" fill="#fed2a4"/><path d="m202.597656 279.285156h-88.859375v30.019532h88.859375c8.289063 0 15.007813-6.722657 15.007813-15.011719 0-8.289063-6.71875-15.007813-15.007813-15.007813zm0 0" fill="#ffbd86"/><path d="m202.597656 235.183594h-177.71875c-8.289062 0-15.007812-6.71875-15.007812-15.007813 0-8.289062 6.71875-15.011719 15.007812-15.011719h177.71875c8.289063 0 15.007813 6.722657 15.007813 15.011719 0 8.289063-6.71875 15.007813-15.007813 15.007813zm0 0" fill="#fed2a4"/><path d="m202.597656 205.164062h-88.859375v30.019532h88.859375c8.289063 0 15.007813-6.71875 15.007813-15.007813 0-8.289062-6.71875-15.011719-15.007813-15.011719zm0 0" fill="#ffbd86"/><path d="m202.597656 67.078125h-177.71875c-8.289062 0-15.007812-6.71875-15.007812-15.011719 0-8.289062 6.71875-15.007812 15.007812-15.007812h177.71875c8.289063 0 15.007813 6.71875 15.007813 15.007812 0 8.292969-6.71875 15.011719-15.007813 15.011719zm0 0" fill="#fed2a4"/><path d="m202.597656 37.058594h-88.859375v30.019531h88.859375c8.289063 0 15.007813-6.71875 15.007813-15.011719 0-8.289062-6.71875-15.007812-15.007813-15.007812zm0 0" fill="#ffbd86"/><path d="m227.480469 257.234375c0-54.683594-54.441407-99.804687-85.53125-121.113281 31.089843-21.308594 85.53125-66.429688 85.53125-121.109375 0-8.292969-6.722657-15.011719-15.011719-15.011719s-15.007812 6.71875-15.007812 15.011719c0 28.832031-23.878907 56.179687-43.914063 74.050781-15.386719 13.722656-31 24.128906-39.808594 29.597656-8.808593-5.472656-24.417969-15.875-39.804687-29.597656-20.035156-17.871094-43.914063-45.21875-43.914063-74.050781 0-8.292969-6.71875-15.011719-15.007812-15.011719-8.292969 0-15.011719 6.71875-15.011719 15.011719 0 54.679687 54.4375 99.800781 85.53125 121.109375-31.09375 21.308594-85.53125 66.429687-85.53125 121.113281 0 53.648437 52.398438 98.089844 83.742188 119.875-31.34375 21.789063-83.742188 66.234375-83.742188 119.878906 0 8.289063 6.71875 15.011719 15.011719 15.011719 8.289062 0 15.007812-6.722656 15.007812-15.011719 0-28.832031 23.878907-56.183593 43.914063-74.050781 15.371094-13.710938 30.964844-24.109375 39.777344-29.582031h.027343.042969c8.710938 5.40625 24.050781 15.625 39.359375 29.21875 20.21875 17.953125 44.320313 45.4375 44.320313 74.414062 0 8.289063 6.71875 15.011719 15.007812 15.011719s15.011719-6.722656 15.011719-15.011719c0-53.648437-52.398438-98.089843-83.742188-119.878906 31.34375-21.785156 83.742188-66.226563 83.742188-119.875zm-73.933594 74.050781c-15.371094 13.710938-30.96875 24.105469-39.777344 29.582032-.019531 0-.039062 0-.058593 0-8.816407-5.476563-24.40625-15.875-39.777344-29.582032-20.03125-17.867187-43.914063-45.21875-43.914063-74.050781s23.878907-56.183594 43.914063-74.050781c15.390625-13.730469 31.007812-24.136719 39.8125-29.605469 8.703125 5.398437 24.066406 15.632813 39.394531 29.238281 20.21875 17.957032 44.320313 45.441406 44.320313 74.417969 0 28.832031-23.882813 56.183594-43.914063 74.050781zm0 0" fill="#008adf"/><path d="m227.480469 257.234375c0-54.683594-54.441407-99.804687-85.53125-121.113281 31.089843-21.308594 85.53125-66.429688 85.53125-121.109375 0-8.292969-6.722657-15.011719-15.011719-15.011719s-15.007812 6.71875-15.007812 15.011719c0 28.832031-23.878907 56.179687-43.914063 74.050781-15.386719 13.722656-31 24.128906-39.808594 29.597656v34.921875c.003907 0 .007813-.003906.007813-.003906 8.703125 5.398437 24.066406 15.632813 39.394531 29.242187 20.21875 17.953126 44.320313 45.4375 44.320313 74.414063 0 28.832031-23.878907 56.183594-43.914063 74.050781-15.371094 13.710938-30.96875 24.109375-39.777344 29.582032-.011719 0-.019531 0-.03125 0v32.488281h.042969c8.710938 5.40625 24.050781 15.628906 39.359375 29.21875 20.21875 17.953125 44.320313 45.4375 44.320313 74.414062 0 8.292969 6.71875 15.011719 15.007812 15.011719s15.011719-6.71875 15.011719-15.011719c0-53.644531-52.398438-98.089843-83.742188-119.875 31.34375-21.789062 83.742188-66.230469 83.742188-119.878906zm0 0" fill="#006da6"/></svg>