<svg id="Capa_1" enable-background="new 0 0 512 512" height="512" viewBox="0 0 512 512" width="512" xmlns="http://www.w3.org/2000/svg"><path d="m512 256c0 140.7-115.3 256-256 256s-256-115.3-256-256 115.3-256 256-256 256 115.3 256 256z" fill="#ffda2d"/><path d="m512 256c0 140.7-115.3 256-256 256v-512c140.7 0 256 115.3 256 256z" fill="#fdbf00"/><path d="m436 421c-32.065 0-60.615-20.449-71.03-50.874-9.844-28.755-24.741-49.951-44.282-62.974l-13.008-8.672c-5.493-3.662-7.954-10.503-6.035-16.831s7.749-10.649 14.355-10.649h116.792c38.203 0 72.382 26.88 78.197 62.505 7.554 46.558-29.16 87.495-74.989 87.495z" fill="#76e2f8"/><path d="m166 235.8c-25.576 0-51.138-9.727-70.605-29.194-5.859-5.859-5.859-15.352 0-21.211s15.352-5.859 21.211 0c27.246 27.246 71.543 27.246 98.789 0 5.859-5.859 15.352-5.859 21.211 0s5.859 15.352 0 21.211c-19.468 19.467-45.03 29.194-70.606 29.194z" fill="#725d57"/><path d="m346 235.8c-25.576 0-51.138-9.727-70.605-29.194-5.859-5.859-5.859-15.352 0-21.211s15.352-5.859 21.211 0c27.246 27.246 71.543 27.246 98.789 0 5.859-5.859 15.352-5.859 21.211 0s5.859 15.352 0 21.211c-19.468 19.467-45.03 29.194-70.606 29.194z" fill="#53433f"/><path d="m316 406h.293zm-60-75c-41.4 0-75 33.6-75 75 0 5.7 3.3 10.8 8.401 13.5 20.698 10.5 43.799 15.599 66.599 15.599s45.901-5.099 66.599-15.599c5.101-2.7 8.401-7.8 8.401-13.5 0-41.4-33.6-75-75-75z" fill="#ff641a"/><path d="m331 406c0 5.7-3.3 10.8-8.401 13.5-20.698 10.5-43.799 15.599-66.599 15.599v-104.099c41.4 0 75 33.6 75 75z" fill="#f03800"/></svg>