<svg id="Capa_1" enable-background="new 0 0 512 512" height="512" viewBox="0 0 512 512" width="512" xmlns="http://www.w3.org/2000/svg"><path d="m512 256c0 140.7-115.3 256-256 256s-256-115.3-256-256c0-5.099.601-9.901.901-15l30.099-15-26.8-15c21.299-119.099 126.4-211 251.8-211s230.501 91.901 251.8 211l-26.8 15 30.099 15c.3 5.099.901 9.901.901 15z" fill="#ffda2d"/><path d="m512 256c0 140.7-115.3 256-256 256v-512c125.4 0 230.501 91.901 251.8 211l-26.8 15 30.099 15c.3 5.099.901 9.901.901 15z" fill="#fdbf00"/><path d="m302.5 226c0 8.401-6.599 15-15 15h-63c-8.401 0-15-6.599-15-15s6.599-15 15-15h63c8.401 0 15 6.599 15 15z" fill="#53433f"/><path d="m91 211h-86.785c-1.756 9.816-2.86 19.832-3.455 30h90.24z" fill="#53433f"/><path d="m421 211v30h90.24c-.595-10.168-1.699-20.184-3.455-30z" fill="#3e322e"/><path d="m302.5 226c0 8.401-6.599 15-15 15h-31.5v-30h31.5c8.401 0 15 6.599 15 15z" fill="#3e322e"/><path d="m289.3 376c7.2 8.101 11.7 18.3 11.7 30 0 24.901-20.099 45-45 45-8.401 0-15-6.599-15-15s6.599-15 15-15 15-6.599 15-15-6.599-15-15-15-15-6.599-15-15 6.599-15 15-15 15-6.599 15-15-6.599-15-15-15-15-6.599-15-15 6.599-15 15-15c24.901 0 45 20.099 45 45 0 11.7-4.501 21.899-11.7 30z" fill="#725d57"/><path d="m464.5 346c-12.599 0-21.901 4.799-28.5 11.1-6.599-6.301-15.901-11.1-28.5-11.1-26.1 0-46.5 21.599-46.5 49.501 0 30.298 22.5 49.799 56.4 78.9l8.699 7.5c3.001 2.699 6.301 3.898 9.901 3.898s6.899-1.199 9.901-3.898c47.999-41.701 66.099-60.901 66.099-86.4 0-27.902-21.4-49.501-47.5-49.501z" fill="#ff641a"/><path d="m512 395.501c0 25.499-18.1 44.7-66.099 86.4-3.001 2.699-6.301 3.898-9.901 3.898v-128.699c6.599-6.301 15.901-11.1 28.5-11.1 26.1 0 47.5 21.599 47.5 49.501z" fill="#f03800"/><path d="m289.3 376c7.2 8.101 11.7 18.3 11.7 30 0 24.901-20.099 45-45 45v-30c8.401 0 15-6.599 15-15s-6.599-15-15-15v-30c8.401 0 15-6.599 15-15s-6.599-15-15-15v-30c24.901 0 45 20.099 45 45 0 11.7-4.501 21.899-11.7 30z" fill="#53433f"/><path d="m151 301c-49.629 0-90-40.371-90-90s40.371-90 90-90 90 40.371 90 90-40.371 90-90 90z" fill="#725d57"/><path d="m151 151c-33.091 0-60 26.909-60 60s26.909 60 60 60 60-26.909 60-60-26.909-60-60-60z" fill="#fff7cc"/><path d="m166 226c-8.291 0-15-6.709-15-15 0 8.291-6.709 15-15 15s-15-6.709-15-15c0-16.538 13.462-30 30-30s30 13.462 30 30c0 8.291-6.709 15-15 15z" fill="#725d57"/><path d="m361 301c-49.629 0-90-40.371-90-90s40.371-90 90-90 90 40.371 90 90-40.371 90-90 90z" fill="#53433f"/><path d="m361 151c-33.091 0-60 26.909-60 60s26.909 60 60 60 60-26.909 60-60-26.909-60-60-60z" fill="#ffe6b3"/><path d="m376 226c-8.291 0-15-6.709-15-15 0 8.291-6.709 15-15 15s-15-6.709-15-15c0-16.538 13.462-30 30-30s30 13.462 30 30c0 8.291-6.709 15-15 15z" fill="#53433f"/></svg>