<svg id="Capa_1" enable-background="new 0 0 512 512" height="512" viewBox="0 0 512 512" width="512" xmlns="http://www.w3.org/2000/svg"><path d="m512 256c0 140.7-115.3 256-256 256s-256-115.3-256-256 115.3-256 256-256 256 115.3 256 256z" fill="#ffda2d"/><path d="m512 256c0 140.7-115.3 256-256 256v-512c140.7 0 256 115.3 256 256z" fill="#fdbf00"/><path d="m136 181c-8.291 0-15-6.709-15-15s6.709-15 15-15c24.814 0 45-20.186 45-45 0-8.291 6.709-15 15-15s15 6.709 15 15c0 41.353-33.647 75-75 75z" fill="#725d57"/><path d="m376 181c-41.353 0-75-33.647-75-75 0-8.291 6.709-15 15-15s15 6.709 15 15c0 24.814 20.186 45 45 45 8.291 0 15 6.709 15 15s-6.709 15-15 15z" fill="#53433f"/><path d="m289.3 376c7.2 8.101 11.7 18.3 11.7 30 0 24.901-20.099 45-45 45-8.401 0-15-6.599-15-15s6.599-15 15-15 15-6.599 15-15-6.599-15-15-15-15-6.599-15-15 6.599-15 15-15 15-6.599 15-15-6.599-15-15-15-15-6.599-15-15 6.599-15 15-15c24.901 0 45 20.099 45 45 0 11.7-4.501 21.899-11.7 30z" fill="#725d57"/><path d="m215.395 236.605c-10.693-10.693-28.096-10.693-38.789 0-5.859 5.859-15.352 5.859-21.211 0s-5.859-15.352 0-21.211c22.383-22.383 58.828-22.383 81.211 0 5.859 5.859 5.859 15.352 0 21.211-5.86 5.86-15.352 5.86-21.211 0z" fill="#725d57"/><path d="m335.395 236.605c-10.693-10.693-28.096-10.693-38.789 0-5.859 5.859-15.352 5.859-21.211 0s-5.859-15.352 0-21.211c22.383-22.383 58.828-22.383 81.211 0 5.859 5.859 5.859 15.352 0 21.211-5.86 5.86-15.352 5.86-21.211 0z" fill="#53433f"/><path d="m465.5 346c-12.599 0-22.901 4.799-29.5 11.1-6.599-6.301-15.901-11.1-28.5-11.1-26.1 0-46.5 21.599-46.5 49.501 0 30.298 22.5 49.799 56.4 78.9l8.699 7.5c3.001 2.699 6.301 3.898 9.901 3.898s6.899-1.199 9.901-3.898c47.999-41.701 66.099-60.901 66.099-86.4 0-27.902-20.4-49.501-46.5-49.501z" fill="#ff641a"/><path d="m512 395.501c0 25.499-18.1 44.7-66.099 86.4-3.001 2.699-6.301 3.898-9.901 3.898v-128.699c6.599-6.301 16.901-11.1 29.5-11.1 26.1 0 46.5 21.599 46.5 49.501z" fill="#f03800"/><path d="m289.3 376c7.2 8.101 11.7 18.3 11.7 30 0 24.901-20.099 45-45 45v-30c8.401 0 15-6.599 15-15s-6.599-15-15-15v-30c8.401 0 15-6.599 15-15s-6.599-15-15-15v-30c24.901 0 45 20.099 45 45 0 11.7-4.501 21.899-11.7 30z" fill="#53433f"/></svg>