<svg id="Capa_1" enable-background="new 0 0 512 512" height="512" viewBox="0 0 512 512" width="512" xmlns="http://www.w3.org/2000/svg"><path d="m512 256c0 140.7-115.3 256-256 256s-256-115.3-256-256 115.3-256 256-256 256 115.3 256 256z" fill="#ffda2d"/><path d="m512 256c0 140.7-115.3 256-256 256v-512c140.7 0 256 115.3 256 256z" fill="#fdbf00"/><g fill="#725d57"><path d="m166 301c-24.814 0-45-20.186-45-45s20.186-45 45-45 45 20.186 45 45-20.186 45-45 45z"/><path d="m331 376c0 8.401-6.599 15-15 15h-120c-8.401 0-15-6.599-15-15s6.599-15 15-15h120c8.401 0 15 6.599 15 15z"/><path d="m153.578 181h-47.578c-8.291 0-15-6.709-15-15s6.709-15 15-15h47.578c23.013 0 45.542-9.331 61.816-25.605 5.859-5.859 15.352-5.859 21.211 0s5.859 15.352 0 21.211c-21.855 21.855-52.119 34.394-83.027 34.394z"/></g><path d="m346 301c-25.239 0-45-26.353-45-60s19.761-60 45-60 45 26.353 45 60-19.761 60-45 60z" fill="#53433f"/><path d="m331 376c0 8.401-6.599 15-15 15h-60v-30h60c8.401 0 15 6.599 15 15z" fill="#53433f"/><path d="m275.395 116.605c-5.859-5.859-5.859-15.366 0-21.211 22.207-22.177 51.679-34.394 83.027-34.394h26.338c8.291 0 15 6.709 15 15s-6.709 15-15 15h-26.338c-23.35 0-45.293 9.097-61.816 25.605-5.86 5.86-15.352 5.86-21.211 0z" fill="#53433f"/></svg>