<svg id="Capa_1" enable-background="new 0 0 512 512" height="512" viewBox="0 0 512 512" width="512" xmlns="http://www.w3.org/2000/svg"><path d="m512 256c0 140.7-115.3 256-256 256s-256-115.3-256-256 115.3-256 256-256 256 115.3 256 256z" fill="#ffda2d"/><path d="m512 256c0 140.7-115.3 256-256 256v-512c140.7 0 256 115.3 256 256z" fill="#fdbf00"/><path d="m106 181c-8.291 0-15-6.709-15-15s6.709-15 15-15c24.814 0 45-20.186 45-45 0-8.291 6.709-15 15-15s15 6.709 15 15c0 41.353-33.647 75-75 75z" fill="#725d57"/><path d="m406 181c-41.353 0-75-33.647-75-75 0-8.291 6.709-15 15-15s15 6.709 15 15c0 24.814 20.186 45 45 45 8.291 0 15 6.709 15 15s-6.709 15-15 15z" fill="#53433f"/><path d="m125.395 326.605c-5.859-5.859-5.859-15.352 0-21.211 19.805-19.805 46.523-31.963 74.355-34.072-15.366-19.028-38.525-30.322-63.75-30.322-8.291 0-15-6.709-15-15s6.709-15 15-15c76.834 0 100.75 65.289 103.418 68.291 4.998 9.966-2.31 21.709-13.418 21.709h-17.578c-23.013 0-45.542 9.331-61.816 25.605-5.86 5.86-15.352 5.86-21.211 0z" fill="#725d57"/><path d="m365.395 326.605c-16.275-16.274-38.804-25.605-61.817-25.605h-17.578c-11.107 0-18.417-11.743-13.418-21.709 2.67-3.004 26.626-68.291 103.418-68.291 8.291 0 15 6.709 15 15s-6.709 15-15 15c-25.225 0-48.384 11.294-63.75 30.322 27.832 2.109 54.551 14.268 74.355 34.072 5.859 5.859 5.859 15.352 0 21.211-5.859 5.86-15.351 5.86-21.21 0z" fill="#53433f"/><path d="m326.499 416.499c-5.7 6-15.298 6-20.999 0-13.5-13.498-31.501-20.099-49.5-20.099s-36 6.601-49.501 20.099c-5.7 6-15.298 6-20.999 0-6-5.7-6-15.298 0-20.999 19.5-19.5 45.001-29.1 70.5-29.1s51 9.6 70.499 29.101c6.001 5.7 6.001 15.298 0 20.998z" fill="#725d57"/><path d="m326.499 416.499c-5.7 6-15.298 6-20.999 0-13.5-13.498-31.501-20.099-49.5-20.099v-30c25.499 0 51 9.6 70.499 29.101 6.001 5.7 6.001 15.298 0 20.998z" fill="#53433f"/></svg>