<svg id="Capa_1" enable-background="new 0 0 512 512" height="512" viewBox="0 0 512 512" width="512" xmlns="http://www.w3.org/2000/svg"><path d="m512 256c0 140.7-115.3 256-256 256s-256-115.3-256-256 115.3-256 256-256 256 115.3 256 256z" fill="#ffda2d"/><path d="m512 256c0 140.7-115.3 256-256 256v-512c140.7 0 256 115.3 256 256z" fill="#fdbf00"/><path d="m197.802 134.184c-16.963-17.021-46.641-17.021-63.604 0-5.859 5.859-15.366 5.845-21.226.015-5.859-5.859-5.859-15.352-.015-21.226 28.33-28.33 77.754-28.33 106.084 0 5.845 5.874 5.845 15.366-.015 21.226-5.868 5.839-15.365 5.844-21.224-.015z" fill="#725d57"/><path d="m377.802 134.184c-16.963-17.021-46.641-17.021-63.604 0-5.859 5.859-15.366 5.845-21.226.015-5.859-5.859-5.859-15.352-.015-21.226 28.33-28.33 77.754-28.33 106.084 0 5.845 5.874 5.845 15.366-.015 21.226-5.868 5.839-15.365 5.844-21.224-.015z" fill="#53433f"/><path d="m166 271c-25.239 0-45-26.353-45-60s19.761-60 45-60 45 26.353 45 60-19.761 60-45 60z" fill="#725d57"/><path d="m346 271c-25.239 0-45-26.353-45-60s19.761-60 45-60 45 26.353 45 60-19.761 60-45 60z" fill="#53433f"/><path d="m331 346v16.8h-150v-16.8c0-41.4 33.6-75 75-75s75 33.6 75 75z" fill="#f03800"/><path d="m331 346v16.8h-75v-91.8c41.4 0 75 33.6 75 75z" fill="#cd0000"/><path d="m256 331c-29.399 0-56.1 12.001-75 31.8v13.2c0 41.4 33.6 75 75 75s75-33.6 75-75v-13.2c-18.9-19.799-45.601-31.8-75-31.8z" fill="#ff641a"/><path d="m331 362.8v13.2c0 41.4-33.6 75-75 75v-120c29.399 0 56.1 12.001 75 31.8z" fill="#f03800"/></svg>