<svg id="Capa_1" enable-background="new 0 0 512 512" height="512" viewBox="0 0 512 512" width="512" xmlns="http://www.w3.org/2000/svg"><path d="m512 256c0 140.7-115.3 256-256 256s-256-115.3-256-256 115.3-256 256-256 256 115.3 256 256z" fill="#ffda2d"/><path d="m512 256c0 140.7-115.3 256-256 256v-512c140.7 0 256 115.3 256 256z" fill="#fdbf00"/><path d="m125.395 236.605c-5.859-5.859-5.859-15.352 0-21.211 19.805-19.805 46.523-31.963 74.355-34.072-15.366-19.028-38.525-30.322-63.75-30.322-8.291 0-15-6.709-15-15s6.709-15 15-15c76.834 0 100.75 65.289 103.418 68.291 4.998 9.966-2.31 21.709-13.418 21.709h-17.578c-23.013 0-45.542 9.331-61.816 25.605-5.86 5.86-15.352 5.86-21.211 0z" fill="#725d57"/><path d="m365.395 236.605c-16.275-16.274-38.804-25.605-61.817-25.605h-17.578c-11.107 0-18.417-11.743-13.418-21.709 2.67-3.004 26.626-68.291 103.418-68.291 8.291 0 15 6.709 15 15s-6.709 15-15 15c-25.225 0-48.384 11.294-63.75 30.322 27.832 2.109 54.551 14.268 74.355 34.072 5.859 5.859 5.859 15.352 0 21.211-5.859 5.86-15.351 5.86-21.21 0z" fill="#53433f"/><path d="m391 286c0 37.2-15 72.1-39.6 96.4-24.3 24.6-58.2 39.6-95.4 39.6-74.7 0-135-61.3-135-136 0-8.401 6.599-15 15-15h240c8.401 0 15 6.599 15 15z" fill="#f03800"/><path d="m391 286c0 37.2-15 72.1-39.6 96.4-24.3 24.6-58.2 39.6-95.4 39.6v-151h120c8.401 0 15 6.599 15 15z" fill="#cd0000"/><path d="m286 332c-11.4 0-21.899 4.499-30 11.4-8.101-6.901-18.6-11.4-30-11.4-24.901 0-45 20.099-45 45v60c0 41.4 33.6 75 75 75s75-33.6 75-75v-60c0-24.901-20.099-45-45-45z" fill="#ff641a"/><path d="m331 377v60c0 41.4-33.6 75-75 75v-168.6c8.101-6.901 18.6-11.4 30-11.4 24.901 0 45 20.099 45 45z" fill="#f03800"/></svg>