<svg id="Capa_1" enable-background="new 0 0 512 512" height="512" viewBox="0 0 512 512" width="512" xmlns="http://www.w3.org/2000/svg"><path d="m512 256c0 140.7-115.3 256-256 256s-256-115.3-256-256 115.3-256 256-256 256 115.3 256 256z" fill="#ffda2d"/><path d="m512 256c0 140.7-115.3 256-256 256v-512c140.7 0 256 115.3 256 256z" fill="#fdbf00"/><path d="m346 211c-24.814 0-45-20.186-45-45s20.186-45 45-45 45 20.186 45 45-20.186 45-45 45z" fill="#ffe6b3"/><path d="m196 211c-8.291 0-15-6.709-15-15 0-8.276-6.724-15-15-15s-15 6.724-15 15c0 8.291-6.709 15-15 15s-15-6.709-15-15c0-24.814 20.186-45 45-45s45 20.186 45 45c0 8.291-6.709 15-15 15z" fill="#725d57"/><path d="m391 286c0 37.2-15 72.1-39.6 96.4-24.3 24.6-58.2 39.6-95.4 39.6-74.7 0-135-61.3-135-136 0-8.401 6.599-15 15-15h240c8.401 0 15 6.599 15 15z" fill="#f03800"/><path d="m391 286c0 37.2-15 72.1-39.6 96.4-24.3 24.6-58.2 39.6-95.4 39.6v-151h120c8.401 0 15 6.599 15 15z" fill="#cd0000"/><path d="m286 332c-11.4 0-21.899 4.499-30 11.4-8.101-6.901-18.6-11.4-30-11.4-24.901 0-45 20.099-45 45v60c0 41.4 33.6 75 75 75s75-33.6 75-75v-60c0-24.901-20.099-45-45-45z" fill="#ff641a"/><path d="m331 377v60c0 41.4-33.6 75-75 75v-168.6c8.101-6.901 18.6-11.4 30-11.4 24.901 0 45 20.099 45 45z" fill="#f03800"/><circle cx="346" cy="166" fill="#53433f" r="15"/></svg>