<svg id="Capa_1" enable-background="new 0 0 511.937 511.937" height="512" viewBox="0 0 511.937 511.937" width="512" xmlns="http://www.w3.org/2000/svg"><path d="m438.312 438.249c-99.49 99.49-263.134 97.49-362.624-2s-101.49-263.134-2-362.624 263.134-97.49 362.624 2 101.49 263.134 2 362.624z" fill="#ffda2d"/><path d="m438.312 438.249c-99.49 99.49-263.134 97.49-362.624-2l360.624-360.624c99.49 99.49 101.49 263.134 2 362.624z" fill="#fdbf00"/><path d="m347.005 393.611c-64.701 42.639-153.585 33.093-207.678-21.001s-63.64-142.977-21.001-207.678c2.545-3.817 6.576-6.151 11.031-6.787 4.454-.212 8.909 1.273 12.09 4.454l207.89 207.89c3.181 3.181 4.666 7.636 4.454 12.09-.634 4.456-2.969 8.486-6.786 11.032z" fill="#ff641a"/><path d="m277.213 192.298c-5.863-5.863-5.863-15.351 0-21.213 11.694-11.694 11.694-30.732 0-42.426s-30.732-11.694-42.426 0c-5.863 5.863-15.351 5.863-21.213 0-5.863-5.863-5.863-15.351 0-21.213 23.399-23.399 61.454-23.399 84.853 0s23.399 61.454 0 84.853c-5.863 5.861-15.351 5.861-21.214-.001z" fill="#725d57"/><path d="m383.279 298.364c-5.863-5.863-5.863-15.351 0-21.213 11.694-11.694 11.694-30.732 0-42.426s-30.732-11.694-42.426 0c-5.863 5.863-15.351 5.863-21.213 0-5.863-5.863-5.863-15.351 0-21.213 23.399-23.399 61.454-23.399 84.853 0s23.399 61.454 0 84.853c-5.863 5.861-15.351 5.861-21.214-.001z" fill="#53433f"/><path d="m347.005 393.611c-64.701 42.639-153.585 33.093-207.678-21.001l106.066-106.066 103.945 103.945c3.181 3.181 4.666 7.636 4.454 12.09-.635 4.456-2.97 8.486-6.787 11.032z" fill="#f03800"/><path d="m135 331.937h-45v60l17.139 11.144c4.424 11.05 15.231 18.856 27.861 18.856 16.569 0 30-13.433 30-30v-30c0-16.569-13.431-30-30-30z" fill="#ffe6b3"/><path d="m90 511.937c16.569 0 30-13.431 30-30 0-16.567-13.431-30-30-30 16.569 0 30-13.431 30-30 0-16.567-13.431-30-30-30 16.569 0 30-13.431 30-30 0-16.567-13.431-30-30-30h-60c-16.569 0-30 13.431-30 30v120c0 16.569 13.431 30 30 30z" fill="#fff7cc"/></svg>