<svg id="Capa_1" enable-background="new 0 0 512 512" height="512" viewBox="0 0 512 512" width="512" xmlns="http://www.w3.org/2000/svg"><path d="m512 257c0 140.7-115.3 255-256 255s-256-114.3-256-255 115.3-257 256-257 256 116.3 256 257z" fill="#ffda2d"/><path d="m512 257c0 140.7-115.3 255-256 255v-512c140.7 0 256 116.3 256 257z" fill="#fdbf00"/><path d="m347.5 317.3c-4.2 7.2-13.5 9.3-20.4 4.799-21.301-13.2-46.199-19.799-71.1-19.799-24.6 0-49.501 6.599-70.8 19.799-7.2 4.501-16.5 2.401-20.7-4.799-4.501-6.901-2.1-16.201 4.799-20.7 26.1-16.201 56.4-24.001 86.7-24.001 30.601 0 60.601 7.8 86.7 24.001 7.201 4.499 9.301 13.799 4.801 20.7z" fill="#725d57"/><path d="m217.68 179.48-90-60c-6.899-4.6-8.76-13.901-4.16-20.801 4.556-6.914 13.857-8.76 20.801-4.16l90 60c6.899 4.6 8.76 13.901 4.16 20.801-4.522 6.794-13.786 8.811-20.801 4.16z" fill="#725d57"/><path d="m273.52 175.32c-4.6-6.899-2.739-16.201 4.16-20.801l90-60c6.885-4.6 16.201-2.754 20.801 4.16 4.6 6.899 2.739 16.201-4.16 20.801l-90 60c-7.02 4.653-16.281 2.632-20.801-4.16z" fill="#53433f"/><path d="m125.395 237.605c-5.859-5.859-5.859-15.352 0-21.211s15.352-5.859 21.211 0c10.693 10.693 28.096 10.693 38.789 0 5.859-5.859 15.352-5.859 21.211 0s5.859 15.352 0 21.211c-22.383 22.383-58.828 22.384-81.211 0z" fill="#725d57"/><path d="m305.395 237.605c-5.859-5.859-5.859-15.352 0-21.211s15.352-5.859 21.211 0c10.693 10.693 28.096 10.693 38.789 0 5.859-5.859 15.352-5.859 21.211 0s5.859 15.352 0 21.211c-22.383 22.383-58.828 22.384-81.211 0z" fill="#53433f"/><path d="m347.5 317.3c-4.2 7.2-13.5 9.3-20.4 4.799-21.301-13.2-46.199-19.799-71.1-19.799v-29.702c30.601 0 60.601 7.8 86.7 24.001 7.2 4.5 9.3 13.8 4.8 20.701z" fill="#53433f"/><path d="m451 485.823c-16.025 0-31.099-6.24-42.422-17.578-.439-.439-.879-.894-1.304-1.348-22.544 13.418-53.892 9.8-72.949-9.258-23.379-23.379-23.379-61.436 0-84.844 3.838-3.838 8.13-7.104 12.788-9.741l-25.898-46.626c-3.252-5.845-2.227-13.154 2.505-17.886 4.746-4.717 12.056-5.757 17.886-2.505l46.626 25.898c2.637-4.644 5.889-8.95 9.741-12.788 23.364-23.379 62.421-23.379 85.844 0 11.338 11.338 17.578 26.396 17.578 42.422 0 10.913-2.886 21.387-8.32 30.527.454.425.908.864 1.348 1.304 11.337 11.339 17.577 26.398 17.577 42.423 0 16.04-6.24 31.099-17.578 42.422-11.323 11.338-27.397 17.578-43.422 17.578z" fill="#ffe6b3"/><path d="m61 485.823c-16.025 0-32.099-6.24-43.422-17.578-11.338-11.338-17.578-26.396-17.578-42.422 0-16.04 6.24-31.099 17.578-42.422.571-.571 1.143-1.128 1.729-1.67-13.828-23.774-10.503-53.203 8.877-72.583 22.676-22.676 63.197-22.676 85.844 0 3.853 3.838 7.104 8.13 9.741 12.788l46.626-25.898c5.845-3.252 13.154-2.212 17.886 2.505 4.731 4.731 5.757 12.041 2.505 17.886l-25.898 46.626c4.658 2.637 8.95 5.903 12.788 9.741 23.379 23.379 23.379 61.436 0 84.844-19.028 19.072-50.391 22.69-72.949 9.258-.425.454-.864.908-1.304 1.348-11.324 11.337-26.398 17.577-42.423 17.577zm53.364-49.057h.308zm-.337-.337.19.19z" fill="#fff7cc"/></svg>