<svg id="Capa_1" enable-background="new 0 0 512 512" height="512" viewBox="0 0 512 512" width="512" xmlns="http://www.w3.org/2000/svg"><path d="m512 256c0 140.7-115.3 256-256 256s-256-115.3-256-256 115.3-256 256-256 256 115.3 256 256z" fill="#ffda2d"/><path d="m512 256c0 140.7-115.3 256-256 256v-512c140.7 0 256 115.3 256 256z" fill="#fdbf00"/><path d="m256 241c-57.9 0-105 47.1-105 105 0 24.899 20.099 45 45 45h120c24.901 0 45-20.101 45-45 0-57.9-47.1-105-105-105z" fill="#ff641a"/><path d="" style="fill:none;stroke:#000;stroke-width:30;stroke-linecap:round;stroke-linejoin:round;stroke-miterlimit:10"/><path d="m361 346c0 24.899-20.099 45-45 45h-60v-150c57.9 0 105 47.1 105 105z" fill="#f03800"/><path d="m391 456.014v-305.014h-60v305.014c-14.502 4.189-30 13.213-30 25.986 0 18.53 31.143 30 60 30s60-11.47 60-30c0-12.773-15.498-21.797-30-25.986z" fill="#76e2f8"/><path d="m181 456.014v-305.014h-60v305.014c-14.502 4.189-30 13.213-30 25.986 0 18.53 31.143 30 60 30s60-11.47 60-30c0-12.773-15.498-21.797-30-25.986z" fill="#a8ebfa"/><path d="m215.395 176.605c-27.246-27.246-71.543-27.246-98.789 0-5.859 5.859-15.352 5.859-21.211 0s-5.859-15.352 0-21.211c38.936-38.936 102.275-38.936 141.211 0 5.859 5.859 5.859 15.352 0 21.211-5.86 5.86-15.352 5.86-21.211 0z" fill="#725d57"/><path d="m395.395 176.605c-27.246-27.246-71.543-27.246-98.789 0-5.859 5.859-15.352 5.859-21.211 0s-5.859-15.352 0-21.211c38.936-38.936 102.275-38.936 141.211 0 5.859 5.859 5.859 15.352 0 21.211-5.86 5.86-15.352 5.86-21.211 0z" fill="#53433f"/></svg>