<svg id="Capa_1" enable-background="new 0 0 512.003 512.003" height="512" viewBox="0 0 512.003 512.003" width="512" xmlns="http://www.w3.org/2000/svg"><path d="m512.003 256.002c0 140.7-115.3 256-256 256s-256-115.3-256-256 115.3-256 256-256 256 115.299 256 256z" fill="#ffda2d"/><path d="m512.003 256.002c0 140.7-115.3 256-256 256v-512c140.7 0 256 115.299 256 256z" fill="#fdbf00"/><path d="m331.003 376.002c0 41.4-33.6 75-75 75s-75-33.6-75-75 33.6-75 75-75 75 33.599 75 75z" fill="#ff641a"/><path d="m331.003 376.002c0 41.4-33.6 75-75 75v-150c41.4 0 75 33.599 75 75z" fill="#f03800"/><path d="m215.398 206.607c-10.693-10.693-28.096-10.693-38.789 0-5.859 5.859-15.352 5.859-21.211 0s-5.859-15.352 0-21.211c22.383-22.383 58.828-22.383 81.211 0 5.859 5.859 5.859 15.352 0 21.211-5.86 5.859-15.352 5.86-21.211 0z" fill="#725d57"/><path d="m335.398 206.607c-10.693-10.693-28.096-10.693-38.789 0-5.859 5.859-15.352 5.859-21.211 0s-5.859-15.352 0-21.211c22.383-22.383 58.828-22.383 81.211 0 5.859 5.859 5.859 15.352 0 21.211-5.86 5.859-15.352 5.86-21.211 0z" fill="#53433f"/><path d="m76.003 181.002c-6.138 0-11.646-3.735-13.931-9.434l-61-151c-2.226-5.566-.922-11.924 3.326-16.172 4.262-4.263 10.605-5.508 16.171-3.325l151 61c5.698 2.285 9.434 7.793 9.434 13.931 0 57.89-47.109 105-105 105z" fill="#979fef"/><path d="m512.003 316.002c0 49.499-41.499 90-91 90h-165c-16.5 0-30-13.5-30-30s13.5-30 30-30h165c-33.6 0-59.7-27.9-60-59.101 0 0 0-.3 0-.599v-.3c0-37.5 34.501-66.901 72.9-58.5 43.5 6.3 78.1 43.8 78.1 88.5z" fill="#a8ebfa"/><path d="m512.003 316.002c0 49.499-41.499 90-91 90h-165v-60h165c-33.6 0-59.7-27.9-60-59.101 0 0 0-.3 0-.599v-.3c0-37.5 34.501-66.901 72.9-58.5 43.5 6.3 78.1 43.8 78.1 88.5z" fill="#76e2f8"/></svg>