<svg id="Capa_1" enable-background="new 0 0 512 512" height="512" viewBox="0 0 512 512" width="512" xmlns="http://www.w3.org/2000/svg"><path d="m512 257c0 47.699-13.5 92.399-36.301 130.8l-70.499 29.7-149.2-.601-135.099-.599-85.501-30.3c-22.2-37.801-35.4-81.9-35.4-129 0-140.7 115.3-257 256-257s256 116.3 256 257z" fill="#ffda2d"/><path d="m512 257c0 47.699-13.5 92.399-36.301 130.8l-70.499 29.7-149.2-.601v-416.899c140.7 0 256 116.3 256 257z" fill="#fdbf00"/><path d="m256 182c-41.4 0-76 33.6-76 75s34.6 75 76 75 76-33.6 76-75-34.6-75-76-75z" fill="#ff641a"/><path d="m195 152h-15v-15c0-8.291-6.709-15-15-15s-15 6.709-15 15v15h-15c-8.291 0-15 6.709-15 15s6.709 15 15 15h15v15c0 8.291 6.709 15 15 15s15-6.709 15-15v-15h15c8.291 0 15-6.709 15-15s-6.709-15-15-15z" fill="#725d57"/><path d="m377 152h-15v-15c0-8.291-6.709-15-15-15s-15 6.709-15 15v15h-15c-8.291 0-15 6.709-15 15s6.709 15 15 15h15v15c0 8.291 6.709 15 15 15s15-6.709 15-15v-15h15c8.291 0 15-6.709 15-15s-6.709-15-15-15z" fill="#53433f"/><path d="m256 332v-150c41.4 0 76 33.6 76 75s-34.6 75-76 75z" fill="#f03800"/><path d="m489.8 356.3c-29.699 84.3-125.5 155.7-233.8 155.7-87.599 0-173.5-46.201-220.6-126-5.099-9.6-9.6-19.2-13.2-29.7-9.901-31.201 6.301-63.9 36.899-75 30.601-10.8 66 6.299 76.802 36.599 16.8 48.001 69.399 74.101 120.099 74.101s103.299-26.1 120.099-74.101c10.801-30.3 46.201-47.1 76.802-36.599 30.599 11.1 46.8 43.799 36.899 75z" fill="#fff7cc"/><path d="m489.8 356.3c-29.699 84.3-125.5 155.7-233.8 155.7v-120c50.7 0 103.299-26.1 120.099-74.101 10.801-30.3 46.201-47.1 76.802-36.599 30.599 11.1 46.8 43.799 36.899 75z" fill="#ffe6b3"/><path d="m446.901 343.1c-27.602 77.699-108.401 123.9-190.901 123.9s-163.299-46.201-190.901-123.9c-2.699-7.8 1.5-16.5 9.3-19.2 7.5-2.699 16.201 1.199 18.9 9 23.401 65.999 93.101 104.1 162.701 104.1s139.3-38.101 162.7-104.101c2.699-7.8 11.1-11.699 18.9-9 7.801 2.701 11.999 11.401 9.301 19.201z" fill="#725d57"/><path d="m446.901 343.1c-27.602 77.699-108.401 123.9-190.901 123.9v-30c69.6 0 139.3-38.101 162.7-104.101 2.699-7.8 11.1-11.699 18.9-9 7.801 2.701 11.999 11.401 9.301 19.201z" fill="#53433f"/></svg>