<svg id="Capa_1" enable-background="new 0 0 512 512" height="512" viewBox="0 0 512 512" width="512" xmlns="http://www.w3.org/2000/svg"><path d="m512 256c0 140.7-115.3 256-256 256s-256-115.3-256-256 115.3-256 256-256 256 115.3 256 256z" fill="#ffda2d"/><path d="m512 256c0 140.7-115.3 256-256 256v-512c140.7 0 256 115.3 256 256z" fill="#fdbf00"/><path d="m417.7 288.999c-8.701 42.301-33.9 78.001-67.5 101.701h-188.4c-33.6-23.7-58.799-59.4-67.5-101.701-.899-4.499.3-9 3.001-12.599 2.999-3.3 7.2-5.4 11.699-5.4h294.001c4.499 0 8.699 2.1 11.699 5.4 2.7 3.6 3.899 8.1 3 12.599z" fill="#f03800"/><path d="m417.7 288.999c-8.701 42.301-33.9 78.001-67.5 101.701h-94.2v-119.7h147.001c4.499 0 8.699 2.1 11.699 5.4 2.7 3.6 3.899 8.1 3 12.599z" fill="#cd0000"/><path d="m350.2 390.7c-27 18.9-59.401 30.3-94.2 30.3s-67.2-11.4-94.2-30.3c16.8-35.4 52.5-59.7 94.2-59.7s77.401 24.3 94.2 59.7z" fill="#ff641a"/><path d="m350.2 390.7c-27 18.9-59.401 30.3-94.2 30.3v-90c41.7 0 77.401 24.3 94.2 59.7z" fill="#f03800"/><path d="m215.395 206.605c-27.246-27.246-71.543-27.246-98.789 0-5.859 5.859-15.352 5.859-21.211 0s-5.859-15.352 0-21.211c38.936-38.936 102.275-38.936 141.211 0 5.859 5.859 5.859 15.352 0 21.211-5.86 5.86-15.352 5.86-21.211 0z" fill="#725d57"/><path d="m395.395 206.605c-27.246-27.246-71.543-27.246-98.789 0-5.859 5.859-15.352 5.859-21.211 0s-5.859-15.352 0-21.211c38.936-38.936 102.275-38.936 141.211 0 5.859 5.859 5.859 15.352 0 21.211-5.86 5.86-15.352 5.86-21.211 0z" fill="#53433f"/><path d="m61 361c-33.091 0-61-26.909-61-60 0-16.582 6.621-32.007 18.633-43.462l77.025-72.393c4.336-4.131 10.737-5.288 16.245-2.93 5.523 2.359 9.097 7.779 9.097 13.785v105c0 33.091-26.909 60-60 60z" fill="#a8ebfa"/><path d="m451 361c-33.091 0-60-26.909-60-60v-105c0-6.006 3.574-11.426 9.097-13.784 5.493-2.373 11.895-1.216 16.245 2.93l76.025 72.393c12.012 11.454 19.633 26.879 19.633 43.461 0 33.091-27.909 60-61 60z" fill="#76e2f8"/></svg>