<svg id="Capa_1" enable-background="new 0 0 512 512" height="512" viewBox="0 0 512 512" width="512" xmlns="http://www.w3.org/2000/svg"><path d="m512 256c0 140.7-115.3 256-256 256s-256-115.3-256-256 115.3-256 256-256 256 115.3 256 256z" fill="#ffda2d"/><path d="m512 256c0 140.7-115.3 256-256 256v-512c140.7 0 256 115.3 256 256z" fill="#fdbf00"/><path d="m391 286c0 37.2-15 71.1-39.6 95.4-24.3 24.6-58.2 39.6-95.4 39.6-74.7 0-135-60.3-135-135 0-8.401 6.599-15 15-15h240c8.401 0 15 6.599 15 15z" fill="#f03800"/><path d="m391 286c0 37.2-15 71.1-39.6 95.4-24.3 24.6-58.2 39.6-95.4 39.6v-150h120c8.401 0 15 6.599 15 15z" fill="#cd0000"/><path d="m166 241c-41.353 0-75-33.647-75-75s33.647-75 75-75 75 33.647 75 75-33.647 75-75 75z" fill="#fff7cc"/><circle cx="166" cy="181" fill="#725d57" r="15"/><path d="m346 241c-41.353 0-75-33.647-75-75s33.647-75 75-75 75 33.647 75 75-33.647 75-75 75z" fill="#ffe6b3"/><circle cx="346" cy="151" fill="#53433f" r="15"/><path d="m256 331c-11.4 0-21.899 4.499-30 11.4-8.101-6.901-18.6-11.4-30-11.4-24.901 0-45 20.099-45 45v60c0 41.4 33.6 76 75 76 10.499 0 20.7-2.1 30-6.301 26.4-11.4 45-38.8 45-69.699v-60c0-24.901-20.099-45-45-45z" fill="#ff641a"/><path d="m301 376v60c0 30.899-18.6 58.299-45 69.699v-174.699c24.901 0 45 20.099 45 45z" fill="#f03800"/></svg>