<svg id="Capa_1" enable-background="new 0 0 512 512" height="512" viewBox="0 0 512 512" width="512" xmlns="http://www.w3.org/2000/svg"><path d="m512 256c0 140.7-115.3 256-256 256s-256-115.3-256-256 115.3-256 256-256 256 115.3 256 256z" fill="#ffda2d"/><path d="m512 256c0 140.7-115.3 256-256 256v-512c140.7 0 256 115.3 256 256z" fill="#fdbf00"/><path d="m451 451c0 44.099-106.8 59.2-180 60.7l-15-29.7-15 29.7c-73.2-1.5-180-16.601-180-60.7 0-24 30.3-41.4 90-51.901v-38.099l30-30h150l30 30v38.099c59.7 10.501 90 27.901 90 51.901z" fill="#b9dd39"/><path d="m451 451c0 44.099-106.8 59.2-180 60.7l-15-29.7v-151h75l30 30v38.099c59.7 10.501 90 27.901 90 51.901z" fill="#90cc1c"/><path d="m125.395 236.605c-5.859-5.859-5.859-15.352 0-21.211 19.805-19.805 46.523-31.963 74.355-34.072-15.366-19.028-38.525-30.322-63.75-30.322-8.291 0-15-6.709-15-15s6.709-15 15-15c76.834 0 100.75 65.289 103.418 68.291 4.998 9.966-2.31 21.709-13.418 21.709h-17.578c-23.013 0-45.542 9.331-61.816 25.605-5.86 5.86-15.352 5.86-21.211 0z" fill="#725d57"/><path d="m365.395 236.605c-16.275-16.274-38.804-25.605-61.817-25.605h-17.578c-11.107 0-18.417-11.743-13.418-21.709 2.67-3.004 26.626-68.291 103.418-68.291 8.291 0 15 6.709 15 15s-6.709 15-15 15c-25.225 0-48.384 11.294-63.75 30.322 27.832 2.109 54.551 14.268 74.355 34.072 5.859 5.859 5.859 15.352 0 21.211-5.859 5.86-15.351 5.86-21.21 0z" fill="#53433f"/><path d="m271 466v45.7c-5.099.3-10.201.3-15 .3s-9.901 0-15-.3v-45.7c0-8.401 6.599-15 15-15s15 6.599 15 15z" fill="#90cc1c"/><path d="m226 421c-8.291 0-15-6.709-15-15v-60c0-8.291 6.709-15 15-15s15 6.709 15 15v60c0 8.291-6.709 15-15 15z" fill="#90cc1c"/><path d="m286 421c-8.291 0-15-6.709-15-15v-60c0-8.291 6.709-15 15-15s15 6.709 15 15v60c0 8.291-6.709 15-15 15z" fill="#6b0"/><path d="m361 346v15h-210v-15c0-57.9 47.1-105 105-105 28.801 0 55.201 11.7 74.099 30.899 19.201 18.9 30.901 45.3 30.901 74.101z" fill="#ff641a"/><path d="m361 346v15h-105v-120c28.801 0 55.201 11.7 74.099 30.899 19.201 18.9 30.901 45.3 30.901 74.101z" fill="#f03800"/><path d="m271 466v45.7c-5.099.3-10.201.3-15 .3v-61c8.401 0 15 6.599 15 15z" fill="#6b0"/></svg>