<svg id="Capa_1" enable-background="new 0 0 512 512" height="512" viewBox="0 0 512 512" width="512" xmlns="http://www.w3.org/2000/svg"><path d="m438.401 433.9-28.2 1.5 5.4 19.2c-43.5 35.099-99 57.4-159.6 57.4s-116.1-22.301-159.6-57.4l5.4-19.2-29.2-1.5c-44.701-45.901-72.601-108.6-72.601-177.9 0-16.8 1.8-33.001 4.799-48.9l21-10.501-12.599-20.7c33.6-101.399 130-175.899 242.8-175.899s209.2 74.5 242.8 175.899l-27.599 35.7 36-4.499c2.999 15.899 4.799 32.1 4.799 48.9 0 69.3-28.9 131.999-73.599 177.9z" fill="#ffda2d"/><path d="m438.401 433.9-28.2 1.5 5.4 19.2c-43.5 35.099-99 57.4-159.6 57.4v-512c112.8 0 209.2 74.5 242.8 175.899l-27.599 35.7 36-4.499c2.998 15.899 4.798 32.1 4.798 48.9 0 69.3-28.9 131.999-73.599 177.9z" fill="#fdbf00"/><path d="m136 151c-8.291 0-15-6.709-15-15s6.709-15 15-15c24.814 0 45-20.186 45-45 0-8.291 6.709-15 15-15s15 6.709 15 15c0 41.353-33.647 75-75 75z" fill="#725d57"/><path d="m376 151c-41.353 0-75-33.647-75-75 0-8.291 6.709-15 15-15s15 6.709 15 15c0 24.814 20.186 45 45 45 8.291 0 15 6.709 15 15s-6.709 15-15 15z" fill="#53433f"/><path d="m196 210.971c-14.707 0-29.414-5.596-40.605-16.787-5.859-5.859-5.859-15.352 0-21.211s15.352-5.859 21.211 0c10.693 10.693 28.096 10.693 38.789 0 5.859-5.859 15.352-5.859 21.211 0s5.859 15.352 0 21.211c-11.192 11.191-25.899 16.787-40.606 16.787z" fill="#725d57"/><path d="m316 210.971c-14.707 0-29.414-5.596-40.605-16.787-5.859-5.859-5.859-15.352 0-21.211s15.352-5.859 21.211 0c10.693 10.693 28.096 10.693 38.789 0 5.859-5.859 15.352-5.859 21.211 0s5.859 15.352 0 21.211c-11.192 11.191-25.899 16.787-40.606 16.787z" fill="#53433f"/><path d="m347.201 384.408c-4.98 6.621-3.633 16.025 3.003 20.991l65.522 49.14c7.939-6.4 15.476-13.253 22.593-20.543l-70.128-52.592c-6.62-4.965-16.009-3.617-20.99 3.004z" fill="#ffca80"/><path d="m350.204 286.601c-6.636 4.966-7.983 14.37-3.003 20.991 2.944 3.94 7.441 6.006 12.012 6.006 3.135 0 6.284-.981 8.979-3.003l138.998-103.495c-2.084-10.693-4.9-21.105-8.276-31.278z" fill="#ffca80"/><path d="m152.787 313.598c4.57 0 9.067-2.065 12.012-6.006 4.98-6.621 3.633-16.025-3.003-20.991l-148.708-110.781c-3.376 10.172-6.196 20.585-8.278 31.278l138.997 103.497c2.696 2.021 5.845 3.003 8.98 3.003z" fill="#ffe6b3"/><path d="m164.799 384.408c-4.98-6.65-14.399-7.998-20.991-3.003l-71.128 52.594c7.117 7.289 15.652 14.141 23.593 20.541l65.522-49.14c6.637-4.966 7.984-14.371 3.004-20.992z" fill="#ffe6b3"/><path d="m385.901 274.9c-8.702-7.8-70.502-33.9-129.901-33.9-69.3 0-125.099 30.599-127.2 31.8-10.8 6-37.8 40.8-37.8 73.2 0 39.3 33.6 69.899 35.099 71.1 8.702 7.8 70.502 33.9 129.901 33.9 69.3 0 125.099-30.601 127.2-31.8 10.8-6 37.8-40.801 37.8-73.2 0-39.3-33.6-69.901-35.099-71.1z" fill="#fff7cc"/><path d="m421 346c0 32.399-27.001 67.2-37.8 73.2-2.1 1.199-57.9 31.8-127.2 31.8v-210c59.399 0 121.199 26.1 129.901 33.9 1.499 1.199 35.099 31.8 35.099 71.1z" fill="#ffe6b3"/></svg>