<svg id="Capa_1" enable-background="new 0 0 512 512" height="512" viewBox="0 0 512 512" width="512" xmlns="http://www.w3.org/2000/svg"><path d="m512 256c0 140.7-115.3 256-256 256s-256-115.3-256-256 115.3-256 256-256 256 115.3 256 256z" fill="#ffda2d"/><path d="m512 256c0 140.7-115.3 256-256 256v-512c140.7 0 256 115.3 256 256z" fill="#fdbf00"/><path d="m398.998 173.002c-28.359-28.389-77.637-28.389-105.996 0-5.859 5.859-15.352 5.859-21.211 0-5.859-5.845-5.859-15.352 0-21.211 39.668-39.697 108.75-39.697 148.418 0 5.859 5.859 5.859 15.366 0 21.211-5.859 5.859-15.351 5.859-21.211 0z" fill="#53433f"/><path d="m346 271c-24.814 0-45-20.186-45-45s20.186-45 45-45 45 20.186 45 45-20.186 45-45 45z" fill="#53433f"/><path d="m326.499 386.499c-5.7 6-15.298 6-20.999 0-13.5-13.5-31.501-20.099-49.5-20.099s-36 6.599-49.501 20.099c-5.7 6-15.298 6-20.999 0-6-5.7-6-15.3 0-21 19.5-19.499 45.001-29.099 70.5-29.099s51 9.6 70.499 29.099c6.001 5.7 6.001 15.3 0 21z" fill="#725d57"/><path d="m326.499 386.499c-5.7 6-15.298 6-20.999 0-13.5-13.5-31.501-20.099-49.5-20.099v-30c25.499 0 51 9.6 70.499 29.099 6.001 5.7 6.001 15.3 0 21z" fill="#53433f"/><path d="m106 211h-30c-8.291 0-15 6.709-15 15v271c0 8.291 6.709 15 15 15s15-6.709 15-15v-256h15c8.291 0 15-6.709 15-15s-6.709-15-15-15z" fill="#725d57"/><path d="m166 301c-41.353 0-75-33.647-75-75s33.647-75 75-75 75 33.647 75 75-33.647 75-75 75z" fill="#725d57"/><path d="m166 181c-24.814 0-45 20.186-45 45s20.186 45 45 45 45-20.186 45-45-20.186-45-45-45z" fill="#fff7cc"/></svg>