<svg id="Capa_1" enable-background="new 0 0 512 512" height="512" viewBox="0 0 512 512" width="512" xmlns="http://www.w3.org/2000/svg"><path d="m512 256c0 140.7-115.3 256-256 256s-256-115.3-256-256 115.3-256 256-256 256 115.3 256 256z" fill="#ffda2d"/><path d="m512 256c0 140.7-115.3 256-256 256v-512c140.7 0 256 115.3 256 256z" fill="#fdbf00"/><path d="m166 223.393c-14.707 0-29.414-5.596-40.605-16.787-5.859-5.859-5.859-15.352 0-21.211s15.352-5.859 21.211 0c10.693 10.693 28.096 10.693 38.789 0 5.859-5.859 15.352-5.859 21.211 0s5.859 15.352 0 21.211c-11.192 11.191-25.899 16.787-40.606 16.787z" fill="#725d57"/><path d="m346 223.393c-14.707 0-29.414-5.596-40.605-16.787-5.859-5.859-5.859-15.352 0-21.211s15.352-5.859 21.211 0c10.693 10.693 28.096 10.693 38.789 0 5.859-5.859 15.352-5.859 21.211 0s5.859 15.352 0 21.211c-11.192 11.191-25.899 16.787-40.606 16.787z" fill="#53433f"/><path d="m401.8 310.6-112.8 99.6-33-33.301-3.6-3.6c-29.399-29.099-29.399-76.8 0-105.899 1.199-1.201 2.401-2.401 3.6-3.301 28.801-25.199 75.3-24 102.299 3.301z" fill="#ff641a"/><path d="m401.8 310.6-112.8 99.6-33-33.301v-112.8c28.801-25.199 75.3-24 102.299 3.301z" fill="#f03800"/><path d="m343.642 379.853-48.853-48.853c-5.859-5.859-5.859-15.352 0-21.211s15.352-5.859 21.211 0l48.853 48.853c5.859 5.859 5.859 15.352 0 21.211-5.86 5.859-15.352 5.859-21.211 0z" fill="#cd0000"/><path d="m421 256c0 90.899-74.099 165-165 165s-165-74.101-165-165c0-8.401 6.599-15 15-15s15 6.599 15 15c0 74.399 60.601 135 135 135s135-60.601 135-135c0-8.401 6.599-15 15-15s15 6.599 15 15z" fill="#725d57"/><path d="m421 256c0 90.899-74.099 165-165 165v-30c74.399 0 135-60.601 135-135 0-8.401 6.599-15 15-15s15 6.599 15 15z" fill="#53433f"/></svg>