<svg id="Capa_1" enable-background="new 0 0 512 512" height="512" viewBox="0 0 512 512" width="512" xmlns="http://www.w3.org/2000/svg"><path d="m512 256c0 140.7-115.3 256-256 256s-256-115.3-256-256 115.3-256 256-256 256 115.3 256 256z" fill="#ffda2d"/><path d="m512 256c0 140.7-115.3 256-256 256v-512c140.7 0 256 115.3 256 256z" fill="#fdbf00"/><path d="m197.802 134.184c-16.963-17.021-46.641-17.021-63.604 0-5.859 5.859-15.366 5.845-21.226.015-5.859-5.859-5.859-15.352-.015-21.226 28.33-28.33 77.754-28.33 106.084 0 5.845 5.874 5.845 15.366-.015 21.226-5.868 5.839-15.365 5.844-21.224-.015z" fill="#725d57"/><path d="m377.802 134.184c-16.963-17.021-46.641-17.021-63.604 0-5.859 5.859-15.366 5.845-21.226.015-5.859-5.859-5.859-15.352-.015-21.226 28.33-28.33 77.754-28.33 106.084 0 5.845 5.874 5.845 15.366-.015 21.226-5.868 5.839-15.365 5.844-21.224-.015z" fill="#53433f"/><path d="m166 241c-24.814 0-45-20.186-45-45s20.186-45 45-45 45 20.186 45 45-20.186 45-45 45z" fill="#725d57"/><path d="m346 241c-24.814 0-45-20.186-45-45s20.186-45 45-45 45 20.186 45 45-20.186 45-45 45z" fill="#53433f"/><path d="m412.899 361c-11.999 15-27.599 30-41.4 41.7-15 12.299-34.499 17.699-53.099 15.599-19.2-2.4-36-11.999-47.4-27.299-4.2-5.7-9.3-10.8-15-14.7-12.9-9.901-28.801-15.3-45-15.3l45-11.7 69.3-18.3z" fill="#fff7cc"/><path d="m412.899 361c-11.999 15-27.599 30-41.4 41.7-15 12.299-34.499 17.699-53.099 15.599-19.2-2.4-36-11.999-47.4-27.299-4.2-5.7-9.3-10.8-15-14.7v-27l69.3-18.3z" fill="#ffe6b3"/><path d="m417.7 355c-1.5 1.8-3.3 3.9-4.801 6h-306.899v-.3c-14.099.3-20.099-16.8-9.901-25.8 2.701-2.701 72.302-63.9 159.901-63.9s157.2 61.199 159.901 63.9c6 5.1 6.599 13.799 1.799 20.1z" fill="#ff641a"/><path d="m417.7 355c-1.5 1.8-3.3 3.9-4.801 6h-156.899v-90c87.599 0 157.2 61.199 159.901 63.9 6 5.1 6.599 13.799 1.799 20.1z" fill="#f03800"/></svg>