<svg id="Capa_1" enable-background="new 0 0 512 512" height="512" viewBox="0 0 512 512" width="512" xmlns="http://www.w3.org/2000/svg"><path d="m512 256c0 140.7-115.3 256-256 256s-256-115.3-256-256 115.3-256 256-256 256 115.3 256 256z" fill="#ffda2d"/><path d="m512 256c0 140.7-115.3 256-256 256v-512c140.7 0 256 115.3 256 256z" fill="#fdbf00"/><path d="m166 331c-41.353 0-75-33.647-75-75v-30c0-8.291 6.709-15 15-15h120c8.291 0 15 6.709 15 15v30c0 41.353-33.647 75-75 75z" fill="#725d57"/><path d="m91.454 169.633c-2.021-8.027 2.871-16.172 10.913-18.179l120-30c7.954-2.051 16.172 2.871 18.179 10.913 2.021 8.027-2.871 16.172-10.913 18.179l-120 30c-7.938 2.008-16.158-2.794-18.179-10.913z" fill="#725d57"/><path d="m402.367 180.546-120-30c-8.042-2.007-12.935-10.151-10.913-18.179 1.992-8.042 10.063-12.993 18.179-10.913l120 30c8.042 2.007 12.935 10.151 10.913 18.179-2.018 8.108-10.23 12.924-18.179 10.913z" fill="#53433f"/><path d="m331 376c0 8.399-6.599 15-15 15h-120c-8.401 0-15-6.601-15-15 0-8.401 6.599-15 15-15h120c8.401 0 15 6.599 15 15z" fill="#725d57"/><path d="m331 376c0 8.399-6.599 15-15 15h-60v-30h60c8.401 0 15 6.599 15 15z" fill="#53433f"/><path d="m181 241-15 15-15-15h-30v15c0 24.853 20.147 45 45 45s45-20.147 45-45v-15z" fill="#fff7cc"/><path d="m166 271c8.291 0 15-6.709 15-15v-15h-30v15c0 8.291 6.709 15 15 15z" fill="#725d57"/><path d="m346 331c-41.353 0-75-33.647-75-75v-30c0-8.291 6.709-15 15-15h120c8.291 0 15 6.709 15 15v30c0 41.353-33.647 75-75 75z" fill="#53433f"/><path d="m361 241-15 15-15-15h-30v15c0 24.853 20.147 45 45 45s45-20.147 45-45v-15z" fill="#ffe6b3"/><path d="m346 271c8.291 0 15-6.709 15-15v-15h-30v15c0 8.291 6.709 15 15 15z" fill="#53433f"/></svg>