<svg id="Capa_1" enable-background="new 0 0 512 512" height="512" viewBox="0 0 512 512" width="512" xmlns="http://www.w3.org/2000/svg"><path d="m512 256c0 140.7-115.3 256-256 256s-256-115.3-256-256 115.3-256 256-256 256 115.3 256 256z" fill="#ffda2d"/><path d="m512 256c0 140.7-115.3 256-256 256v-512c140.7 0 256 115.3 256 256z" fill="#fdbf00"/><path d="m125.395 266.605c-5.859-5.859-5.859-15.352 0-21.211 19.805-19.805 46.523-31.963 74.355-34.072-15.366-19.028-38.525-30.322-63.75-30.322-8.291 0-15-6.709-15-15s6.709-15 15-15c76.834 0 100.75 65.289 103.418 68.291 4.998 9.966-2.31 21.709-13.418 21.709h-17.578c-23.013 0-45.542 9.331-61.816 25.605-5.86 5.86-15.352 5.86-21.211 0z" fill="#725d57"/><path d="m365.395 266.605c-16.275-16.274-38.804-25.605-61.817-25.605h-17.578c-11.107 0-18.417-11.743-13.418-21.709 2.67-3.004 26.626-68.291 103.418-68.291 8.291 0 15 6.709 15 15s-6.709 15-15 15c-25.225 0-48.384 11.294-63.75 30.322 27.832 2.109 54.551 14.268 74.355 34.072 5.859 5.859 5.859 15.352 0 21.211-5.859 5.86-15.351 5.86-21.21 0z" fill="#53433f"/><path d="m416.499 356.499c-5.7 6-15.298 6-20.999 0-10.801-10.499-28.2-10.499-39.001 0-11.1 11.4-25.8 16.8-40.499 16.8s-29.399-5.4-40.499-16.8c-5.402-5.099-12.301-7.8-19.501-7.8s-14.099 2.701-19.501 7.8c-22.2 22.5-58.799 22.5-80.999 0-10.801-10.499-28.2-10.499-39.001 0-5.7 6-16.298 6-21.999 0-6-5.7-6-15.3 0-21 22.2-22.5 59.799-22.5 81.999 0 10.501 10.201 28.5 10.201 39.001 0 11.1-11.1 25.8-16.8 40.499-16.8s29.399 5.7 40.499 16.8c10.501 10.201 28.5 10.201 39.001 0 22.2-22.5 58.799-22.5 80.999 0 6.002 5.7 6.002 15.3.001 21z" fill="#725d57"/><path d="m84 143.5-26.1-45c-2.699-4.501-7.8-6.901-12.9-6.901s-10.201 2.4-12.9 6.901l-26.1 45c-3.9 6.899-6 14.7-6 22.5 0 24.899 20.099 45 45 45s45-20.101 45-45c0-7.8-2.1-15.601-6-22.5z" fill="#a8ebfa"/><path d="m90 166c0 24.899-20.099 45-45 45v-119.401c5.099 0 10.201 2.401 12.9 6.901l26.1 45c3.9 6.899 6 14.7 6 22.5z" fill="#76e2f8"/><path d="m416.499 356.499c-5.7 6-15.298 6-20.999 0-10.801-10.499-28.2-10.499-39.001 0-11.1 11.4-25.8 16.8-40.499 16.8s-29.399-5.4-40.499-16.8c-5.402-5.099-12.301-7.8-19.501-7.8v-30c14.7 0 29.399 5.7 40.499 16.8 10.501 10.201 28.5 10.201 39.001 0 22.2-22.5 58.799-22.5 80.999 0 6.001 5.7 6.001 15.3 0 21z" fill="#53433f"/></svg>