<svg id="Capa_1" enable-background="new 0 0 512 512" height="512" viewBox="0 0 512 512" width="512" xmlns="http://www.w3.org/2000/svg"><path d="m512 256c0 140.7-115.3 256-256 256s-256-115.3-256-256 115.3-256 256-256 256 115.3 256 256z" fill="#ffda2d"/><path d="m512 256c0 140.7-115.3 256-256 256v-512c140.7 0 256 115.3 256 256z" fill="#fdbf00"/><path d="m205.463 247.504-39.199-20.61-39.199 20.61c-5.039 2.695-11.162 2.241-15.806-1.143-4.614-3.354-6.929-9.038-5.962-14.663l7.485-43.667-31.729-30.923c-4.087-3.984-5.552-9.946-3.794-15.366 1.772-5.435 6.46-9.39 12.114-10.21l43.828-6.372 19.614-39.727c5.039-10.254 21.855-10.254 26.895 0l19.614 39.727 43.828 6.372c5.654.82 10.342 4.775 12.114 10.21 1.758 5.42.293 11.382-3.794 15.366l-31.729 30.923 7.485 43.667c.967 5.625-1.348 11.309-5.962 14.663-4.646 3.376-10.761 3.799-15.803 1.143z" fill="#fff7cc"/><path d="m384.936 247.504-39.199-20.61-39.199 20.61c-5.054 2.695-11.163 2.241-15.806-1.143-4.614-3.354-6.929-9.038-5.962-14.663l7.485-43.667-31.729-30.923c-4.087-3.984-5.552-9.946-3.794-15.366 1.772-5.435 6.46-9.39 12.114-10.21l43.828-6.372 19.614-39.727c5.039-10.254 21.855-10.254 26.895 0l19.614 39.727 43.828 6.372c5.654.82 10.342 4.775 12.114 10.21 1.758 5.42.293 11.382-3.794 15.366l-31.729 30.923 7.485 43.667c.967 5.625-1.348 11.309-5.962 14.663-4.646 3.376-10.761 3.799-15.803 1.143z" fill="#ffe6b3"/><path d="m417.7 288.999c-8.701 42.301-33.9 78.001-67.5 101.701h-188.4c-33.6-23.7-58.799-59.4-67.5-101.701-.899-4.499.3-9 3.001-12.599 2.999-3.3 7.2-5.4 11.699-5.4h294.001c4.499 0 8.699 2.1 11.699 5.4 2.7 3.6 3.899 8.1 3 12.599z" fill="#f03800"/><path d="m417.7 288.999c-8.701 42.301-33.9 78.001-67.5 101.701h-94.2v-119.7h147.001c4.499 0 8.699 2.1 11.699 5.4 2.7 3.6 3.899 8.1 3 12.599z" fill="#cd0000"/><path d="m350.2 390.7c-27 18.9-59.401 30.3-94.2 30.3s-67.2-11.4-94.2-30.3c16.8-35.4 52.5-59.7 94.2-59.7s77.401 24.3 94.2 59.7z" fill="#ff641a"/><path d="m350.2 390.7c-27 18.9-59.401 30.3-94.2 30.3v-90c41.7 0 77.401 24.3 94.2 59.7z" fill="#f03800"/></svg>