<svg id="Capa_1" enable-background="new 0 0 512 512" height="512" viewBox="0 0 512 512" width="512" xmlns="http://www.w3.org/2000/svg"><path d="m512 256c0 140.7-115.3 256-256 256s-256-115.3-256-256 115.3-256 256-256 256 115.3 256 256z" fill="#ffda2d"/><path d="m512 256c0 140.7-115.3 256-256 256v-512c140.7 0 256 115.3 256 256z" fill="#fdbf00"/><path d="m196 241-45 45c0 24.814 20.186 45 45 45s45-20.186 45-45-20.186-45-45-45z" fill="#725d57"/><path d="m360.008 272.743-43.008-31.743c-24.814 0-45 20.186-45 45s20.186 45 45 45 45-20.186 45-45c0-4.541-.674-8.994-1.992-13.257z" fill="#53433f"/><path d="m332 406c0 8.399-6.599 15-15 15h-121c-8.401 0-15-6.601-15-15 0-8.401 6.599-15 15-15h121c8.401 0 15 6.599 15 15z" fill="#725d57"/><path d="m332 406c0 8.399-6.599 15-15 15h-61v-30h61c8.401 0 15 6.599 15 15z" fill="#53433f"/><path d="m407 0c-57.9 0-105 48.1-105 106s47.1 105 105 105 105-47.1 105-105-47.1-106-105-106z" fill="#b9b6ec"/><path d="m512 106c0 57.9-47.1 105-105 105v-211c57.9 0 105 48.1 105 106z" fill="#979fef"/><path d="m407 30c-41.4 0-75 34.6-75 76s33.6 75 75 75 75-33.6 75-75-33.6-76-75-76z" fill="#fff7cc"/><path d="m482 106c0 41.4-33.6 75-75 75v-151c41.4 0 75 34.6 75 76z" fill="#ffe6b3"/><path d="m452 106c0 8.399-6.599 15-15 15h-30c-8.401 0-15-6.601-15-15v-30c0-8.401 6.599-15 15-15s15 6.599 15 15v15h15c8.401 0 15 6.599 15 15z" fill="#725d57"/><path d="m452 106c0 8.399-6.599 15-15 15h-30v-60c8.401 0 15 6.599 15 15v15h15c8.401 0 15 6.599 15 15z" fill="#53433f"/><path d="m136 301c-8.291 0-15-6.709-15-15s6.709-15 15-15c24.814 0 45-20.186 45-45 0-8.291 6.709-15 15-15s15 6.709 15 15c0 41.353-33.647 75-75 75z" fill="#725d57"/><path d="m377 301c-41.353 0-75-33.647-75-75 0-8.291 6.709-15 15-15s15 6.709 15 15c0 24.814 20.186 45 45 45 8.291 0 15 6.709 15 15s-6.709 15-15 15z" fill="#53433f"/></svg>