<svg id="Capa_1" enable-background="new 0 0 512 512" height="512" viewBox="0 0 512 512" width="512" xmlns="http://www.w3.org/2000/svg"><path d="m512 256c0 140.7-115.3 256-256 256s-256-115.3-256-256 115.3-256 256-256 256 115.3 256 256z" fill="#ffda2d"/><path d="m512 256c0 140.7-115.3 256-256 256v-512c140.7 0 256 115.3 256 256z" fill="#fdbf00"/><path d="m512 64.9c0 45.3-44.399 74.7-95.4 118.799-2.701 2.401-6 3.6-9.6 3.6h-.3c-3.3 0-6.899-1.199-9.901-3.6-52.798-45.899-95.4-73.799-95.4-118.799 0-35.7 26.4-64.9 60.3-64.9 12.301 0 22.2 3.9 30.3 9.3l15 38.2 15-38.8c8.102-5.1 17.702-8.7 30.001-8.7 33.6 0 60 29.2 60 64.9z" fill="#ff641a"/><path d="m452 74.5c.3 4.499-1.199 9-4.501 11.999l-30 30c-2.699 3.001-6.599 4.501-10.499 4.501s-7.8-1.5-10.499-4.501c-6-5.7-6-15.3 0-21l10.499-10.8 6.599-6.599-6.599-4.501-8.699-6c-4.501-3.299-4.801-6.599-6.301-9.899 0 0 0 0 0-.3v-48.1c5.7 3.6 10.8 8.399 14.7 13.2l.3-.3c3.9-5.099 9-9.6 15-13.5v38.8l23.401 16.199c3.898 2.4 5.998 6.601 6.599 10.801z" fill="#f03800"/><path d="m512 64.9c0 45.3-44.399 74.7-95.4 118.799-2.701 2.401-6 3.6-9.6 3.6v-139.799l15-38.8c8.101-5.1 17.701-8.7 30-8.7 33.6 0 60 29.2 60 64.9z" fill="#f03800"/><path d="m452 74.5c.3 4.499-1.199 9-4.501 11.999l-30 30c-2.699 3.001-6.599 4.501-10.499 4.501v-36.301l6.599-6.599-6.599-4.501v-51.399c3.9-5.099 9-9.6 15-13.5v38.8l23.401 16.199c3.898 2.4 5.998 6.601 6.599 10.801z" fill="#cd0000"/><path d="m123.681 332.436c-4.731-6.797-3.047-16.157 3.75-20.889 19.702-13.696 41.309-24.141 64.248-31.04 7.91-2.417 16.289 2.139 18.691 10.049 2.373 7.939-2.124 16.304-10.049 18.691-19.907 5.977-38.657 15.044-55.752 26.938-6.726 4.686-16.123 3.1-20.888-3.749z" fill="#725d57"/><path d="m368.431 336.186c-17.095-11.895-35.845-20.962-55.752-26.938-7.925-2.388-12.422-10.752-10.049-18.691 2.388-7.91 10.737-12.466 18.691-10.049 22.939 6.899 44.546 17.344 64.248 31.04 6.797 4.731 8.481 14.092 3.75 20.889-4.756 6.834-14.15 8.443-20.888 3.749z" fill="#53433f"/><path d="m386 417.999c-6.599 5.101-15.899 3.9-21-2.999-25.8-34.2-66.099-54-108.999-54s-82.2 19.799-107.999 54c-5.101 6.599-14.401 8.101-21 2.999-6.601-4.799-8.101-14.399-3.001-20.999 31.5-42 79.799-66 131.999-66s101.499 24 133.001 66c5.099 6.599 3.6 16.2-3.001 20.999z" fill="#725d57"/><path d="m106 271c-8.291 0-15-6.709-15-15s6.709-15 15-15c24.814 0 45-20.186 45-45 0-8.291 6.709-15 15-15s15 6.709 15 15c0 41.353-33.647 75-75 75z" fill="#725d57"/><g fill="#53433f"><path d="m407 271c-41.353 0-75-33.647-75-75 0-8.291 6.709-15 15-15s15 6.709 15 15c0 24.814 20.186 45 45 45 8.291 0 15 6.709 15 15s-6.709 15-15 15z"/><path d="m386 417.999c-6.599 5.101-15.899 3.9-21-2.999-25.8-34.2-66.099-54-108.999-54v-30c52.2 0 101.499 24 133.001 66 5.098 6.599 3.599 16.2-3.002 20.999z"/></g></svg>