<svg id="Capa_1" enable-background="new 0 0 512 512" height="512" viewBox="0 0 512 512" width="512" xmlns="http://www.w3.org/2000/svg"><path d="m512 256c0 140.7-115.3 256-256 256s-256-115.3-256-256 115.3-256 256-256 256 115.3 256 256z" fill="#ffda2d"/><path d="m512 256c0 140.7-115.3 256-256 256v-512c140.7 0 256 115.3 256 256z" fill="#fdbf00"/><path d="m121.791 143.002c-5.859-5.845-5.859-15.352 0-21.211 19.833-19.849 46.187-30.791 74.209-30.791 8.291 0 15 6.709 15 15s-6.709 15-15 15c-19.995 0-38.818 7.808-52.998 22.002-5.859 5.859-15.351 5.859-21.211 0z" fill="#725d57"/><path d="m196 241c-24.814 0-45-20.186-45-45s20.186-45 45-45 45 20.186 45 45-20.186 45-45 45z" fill="#725d57"/><path d="m369.998 143.002c-14.18-14.194-33.003-22.002-52.998-22.002-8.291 0-15-6.709-15-15s6.709-15 15-15c28.022 0 54.374 10.942 74.209 30.791 5.859 5.859 5.859 15.366 0 21.211-5.859 5.859-15.351 5.859-21.211 0z" fill="#53433f"/><path d="m317 241c-24.814 0-46-20.186-46-45s21.186-45 46-45 45 20.186 45 45-20.186 45-45 45z" fill="#53433f"/><path d="m392 391v75c0 24.899-20.099 46-45 46s-45-21.101-45-46v-15.601c-15.3 1.5-31.901-.601-46-5.7-13.2-5.099-25.201-12.9-35.4-23.101l-30.901-30.598 48.9-30h110.801z" fill="#fff7cc"/><path d="m392 391v75c0 24.899-20.099 46-45 46s-45-21.101-45-46v-15.601c-15.3 1.5-31.901-.601-46-5.7v-83.699h93.401z" fill="#ffe6b3"/><path d="m392 286v105h-202.301l-64.199-64.501c-4.501-4.2-5.7-10.499-3.301-16.199 2.401-5.7 7.801-9.3 13.801-9.3h112.8c2.401 0 4.799 0 7.2-.3 39.3-.901 79.3-10.8 114.401-28.2 4.499-2.1 9.899-2.1 14.399.601 4.499 2.998 7.2 7.798 7.2 12.899z" fill="#ff641a"/><path d="m392 286v105h-136v-90.3c39.3-.901 79.3-10.8 114.401-28.2 4.499-2.1 9.899-2.1 14.399.601 4.499 2.998 7.2 7.798 7.2 12.899z" fill="#f03800"/></svg>