<svg id="Capa_1" enable-background="new 0 0 512 512" height="512" viewBox="0 0 512 512" width="512" xmlns="http://www.w3.org/2000/svg"><path d="m512 256c0 140.7-115.3 256-256 256s-256-115.3-256-256 115.3-256 256-256 256 115.3 256 256z" fill="#ffda2d"/><path d="m512 256c0 140.7-115.3 256-256 256v-512c140.7 0 256 115.3 256 256z" fill="#fdbf00"/><path d="m196 241c-24.814 0-45-20.186-45-45s20.186-45 45-45 45 20.186 45 45-20.186 45-45 45z" fill="#725d57"/><path d="m316 241c-24.814 0-45-20.186-45-45s20.186-45 45-45 46 20.186 46 45-21.186 45-46 45z" fill="#53433f"/><path d="m418.7 288.999c-8.701 42.301-33.9 78.001-67.5 101.701h-189.4c-33.6-23.7-58.799-59.4-67.5-101.701-.899-4.499.3-9 3.001-12.599 2.999-3.3 7.2-5.4 11.699-5.4h295.001c4.499 0 8.699 2.1 11.699 5.4 2.7 3.6 3.899 8.1 3 12.599z" fill="#f03800"/><path d="m418.7 288.999c-8.701 42.301-33.9 78.001-67.5 101.701h-95.2v-119.7h148.001c4.499 0 8.699 2.1 11.699 5.4 2.7 3.6 3.899 8.1 3 12.599z" fill="#cd0000"/><path d="m351.2 390.7c-27 18.9-60.401 30.3-95.2 30.3s-67.2-11.4-94.2-30.3c16.8-35.4 52.5-59.7 94.2-59.7s78.401 24.3 95.2 59.7z" fill="#ff641a"/><path d="m351.2 390.7c-27 18.9-60.401 30.3-95.2 30.3v-90c41.7 0 78.401 24.3 95.2 59.7z" fill="#f03800"/><path d="m452 166v30c0 8.399-6.599 15-15 15s-15-6.601-15-15v-30c0-8.401 6.599-15 15-15s15 6.599 15 15z" fill="#ffe6b3"/><path d="m452 166v30c0 8.399-6.599 15-15 15v-60c8.401 0 15 6.599 15 15z" fill="#ffca80"/><path d="m484.1 16.8c-13.2-11.1-29.699-16.8-47.1-16.8-5.4 0-10.8.599-16.199 1.8-27.001 5.7-49.801 28.599-56.4 55.3-6.901 28.2 2.1 57.299 23.699 75.899 2.401 2.1 3.9 5.7 3.9 9.901v23.1c0 8.399 6.599 15 15 15h60c8.401 0 15-6.601 15-15v-23.101c0-4.2 1.8-8.101 4.799-10.8 15.901-14.1 25.201-34.5 25.201-56.099 0-22.8-10.201-44.801-27.9-59.2z" fill="#fff7cc"/><path d="m512 76c0 21.599-9.3 41.999-25.201 56.1-2.999 2.699-4.799 6.599-4.799 10.8v23.1c0 8.399-6.599 15-15 15h-30v-181c17.401 0 33.9 5.7 47.1 16.8 17.699 14.399 27.9 36.4 27.9 59.2z" fill="#ffe6b3"/></svg>