<svg id="Capa_1" enable-background="new 0 0 512 512" height="512" viewBox="0 0 512 512" width="512" xmlns="http://www.w3.org/2000/svg"><path d="m512 256c0 140.7-115.3 256-256 256s-256-115.3-256-256c0-26.1 3.9-51.301 11.4-75l34.6-15-23.2-15c40.199-88.2 130-151 233.2-151s193.001 62.8 233.2 151l-22.2 15 33.6 15c7.5 23.699 11.4 48.9 11.4 75z" fill="#ffda2d"/><path d="m512 256c0 140.7-115.3 256-256 256v-512c103.2 0 193.001 62.8 233.2 151l-22.2 15 33.6 15c7.5 23.699 11.4 48.9 11.4 75z" fill="#fdbf00"/><path d="m500.726 181c-3.18-10.327-7.167-20.277-11.58-30h-38.146-105c-27.732 0-51.98 15.144-64.957 37.584-7.154-4.79-15.764-7.584-25.043-7.584s-17.889 2.794-25.043 7.584c-12.977-22.44-37.225-37.584-64.957-37.584h-105-38.147c-4.413 9.723-8.399 19.673-11.58 30h49.727v15c0 57.891 47.109 105 105 105 41.353 0 75-33.647 75-75 0-8.401 6.599-15 15-15s15 6.599 15 15c0 41.353 33.647 75 75 75 57.891 0 105-47.109 105-105v-15z" fill="#725d57"/><path d="m271 226c0 41.353 33.647 75 75 75 57.891 0 105-47.109 105-105v-15h49.726c-3.18-10.327-7.167-20.277-11.58-30h-38.146-105c-27.732 0-51.98 15.144-64.957 37.584-7.154-4.79-15.764-7.584-25.043-7.584v30c8.401 0 15 6.599 15 15z" fill="#3e322e"/><path d="m372.7 372.7c-31.201 31.2-72.601 48.3-116.7 48.3s-85.499-17.1-116.7-48.3c-5.7-6-5.7-15.3 0-21.301 6-6 15.3-6 21.301 0 25.498 25.5 59.399 39.601 95.399 39.601s69.901-14.101 95.4-39.6c6-6 15.3-6 21.301 0 5.7 6 5.7 15.3-.001 21.3z" fill="#725d57"/><path d="m372.7 372.7c-31.201 31.2-72.601 48.3-116.7 48.3v-30c36 0 69.901-14.101 95.4-39.6 6-6 15.3-6 21.301 0 5.7 6 5.7 15.3-.001 21.3z" fill="#53433f"/></svg>