<svg id="Capa_1" enable-background="new 0 0 512 512" height="512" viewBox="0 0 512 512" width="512" xmlns="http://www.w3.org/2000/svg"><path d="m512 256c0 140.7-115.3 256-256 256s-256-115.3-256-256 115.3-256 256-256 256 115.3 256 256z" fill="#ffda2d"/><path d="m512 256c0 140.7-115.3 256-256 256v-512c140.7 0 256 115.3 256 256z" fill="#fdbf00"/><path d="m165 241c-24.814 0-45-20.186-45-45s20.186-45 45-45 45 20.186 45 45-20.186 45-45 45z" fill="#725d57"/><path d="m347 241c-24.814 0-45-20.186-45-45s20.186-45 45-45 45 20.186 45 45-20.186 45-45 45z" fill="#53433f"/><path d="m84 113.5-26.1-45c-2.699-4.501-7.8-6.901-12.9-6.901s-10.201 2.4-12.9 6.901l-26.1 45c-3.9 6.899-6 14.7-6 22.5 0 24.899 20.099 45 45 45s45-20.101 45-45c0-7.8-2.1-15.601-6-22.5z" fill="#a8ebfa"/><path d="m90 136c0 24.899-20.099 45-45 45v-119.401c5.099 0 10.201 2.401 12.9 6.901l26.1 45c3.9 6.899 6 14.7 6 22.5z" fill="#76e2f8"/><path d="m506 353.5-26.1-45c-2.699-4.501-7.8-6.901-12.9-6.901s-10.201 2.401-12.9 6.901l-26.1 45c-3.9 6.899-6 14.7-6 22.5 0 24.899 20.099 45 45 45s45-20.101 45-45c0-7.8-2.1-15.601-6-22.5z" fill="#a8ebfa"/><path d="m512 376c0 24.899-20.099 45-45 45v-119.401c5.099 0 10.201 2.401 12.9 6.901l26.1 45c3.9 6.899 6 14.7 6 22.5z" fill="#76e2f8"/><path d="m416.901 327.1c-1.5 1.5-38.401 33.9-84.901 33.9-32.999 0-62.199-16.201-76-26.1-6-4.2-9.3-7.2-9.901-7.8-.3 0-31-26.1-66.099-26.1s-64.799 26.1-65.099 26.1c-6 5.7-15.601 5.099-21-1.201-5.7-5.999-5.099-15.599 1.199-20.999 1.499-1.501 38.4-33.9 84.9-33.9 32.999 0 62.199 16.199 76 26.1 6 4.2 9.3 7.2 9.901 7.8.3 0 31 26.1 66.099 26.1s64.799-26.1 65.099-26.1c6-5.7 15.601-5.101 21 1.199 5.701 6.001 5.1 15.601-1.198 21.001z" fill="#725d57"/><path d="m416.901 327.1c-1.5 1.5-38.401 33.9-84.901 33.9-32.999 0-62.199-16.201-76-26.1v-37.8c6 4.2 9.3 7.2 9.901 7.8.3 0 31 26.1 66.099 26.1s64.799-26.1 65.099-26.1c6-5.7 15.601-5.101 21 1.199 5.701 6.001 5.1 15.601-1.198 21.001z" fill="#53433f"/></svg>