<svg id="Capa_1" enable-background="new 0 0 512 512" height="512" viewBox="0 0 512 512" width="512" xmlns="http://www.w3.org/2000/svg"><path d="m512 256c0 140.7-115.3 256-256 256s-256-115.3-256-256 115.3-256 256-256 256 115.3 256 256z" fill="#ffda2d"/><path d="m512 256c0 140.7-115.3 256-256 256v-512c140.7 0 256 115.3 256 256z" fill="#fdbf00"/><g fill="#725d57"><path d="m512 406c0 71.999-65.2 106-136.901 106-46.8 0-95.4-15.3-119.099-46.5-23.699 31.2-72.299 46.5-119.099 46.5-71.701 0-136.901-34.001-136.901-106 0-6 3.6-11.4 9.3-13.801s12.001-1.199 16.199 3.3c9.901 9.6 31.201 23.101 44.101 23.101 12.599 0 18.1-7.2 27.7-27.599 11.699-25.501 27.9-60 83.699-60 31.199 0 58.801 16.199 75 40.499 16.199-24.3 43.801-40.499 75-40.499 55.8 0 72.001 34.499 83.699 60 9.6 20.4 14.101 27.599 26.7 27.599 12.9 0 35.2-13.5 45.101-23.101 4.199-4.499 10.499-5.7 16.199-3.3s9.302 7.801 9.302 13.801z"/><path d="m415 129.699c-40.8-40.8-107.401-40.8-148.5 0l-10.5 10.8-10.499-10.8c-41.1-40.8-107.701-40.8-148.5 0-4.501 4.501-5.7 10.8-3.3 16.5 2.399 5.4 7.798 9.3 13.799 9.3 23.101 0 45.601 9.3 61.8 25.501 12.301 12.299 28.2 18.3 44.401 18.3 15.298 0 30.298-5.7 42.299-16.8 12.001 11.1 27.001 16.8 42.299 16.8 16.201 0 32.1-6 44.401-18.3 16.199-16.201 38.699-25.501 61.8-25.501 6 0 11.4-3.9 13.799-9.3 2.401-5.7 1.201-11.999-3.299-16.5z"/><path d="m166 271c-24.814 0-45-20.186-45-45 0-8.291 6.709-15 15-15s15 6.709 15 15c0 8.276 6.724 15 15 15s15-6.724 15-15c0-8.291 6.709-15 15-15s15 6.709 15 15c0 24.814-20.186 45-45 45z"/></g><path d="m346 271c-24.814 0-45-20.186-45-45 0-8.291 6.709-15 15-15s15 6.709 15 15c0 8.276 6.724 15 15 15s15-6.724 15-15c0-8.291 6.709-15 15-15s15 6.709 15 15c0 24.814-20.186 45-45 45z" fill="#53433f"/><path d="m298.299 199.3c-15.298 0-30.298-5.7-42.299-16.8v-42.001l10.499-10.8c41.1-40.8 107.701-40.8 148.5 0 4.501 4.501 5.7 10.8 3.3 16.5-2.399 5.4-7.798 9.3-13.799 9.3-23.101 0-45.601 9.3-61.8 25.501-12.301 12.299-28.2 18.3-44.401 18.3z" fill="#53433f"/><path d="m512 406c0 71.999-65.2 106-136.901 106-46.8 0-95.4-15.3-119.099-46.5v-94.001c16.199-24.3 43.801-40.499 75-40.499 55.8 0 72.001 34.499 83.699 60 9.6 20.4 14.101 27.599 26.7 27.599 12.9 0 35.2-13.5 45.101-23.101 4.199-4.499 10.499-5.7 16.199-3.3s9.301 7.802 9.301 13.802z" fill="#53433f"/></svg>