<svg id="Capa_1" enable-background="new 0 0 512 512" height="512" viewBox="0 0 512 512" width="512" xmlns="http://www.w3.org/2000/svg"><path d="m512 256c0 140.7-115.3 256-256 256s-256-115.3-256-256 115.3-256 256-256 256 115.3 256 256z" fill="#ffda2d"/><path d="m512 256c0 140.7-115.3 256-256 256v-512c140.7 0 256 115.3 256 256z" fill="#fdbf00"/><path d="m437.816 326.605c-5.859-5.859-15.352-5.859-21.211 0s-15.352 5.859-21.211 0c-5.845-5.845-5.845-15.366 0-21.211 5.859-5.859 5.859-15.352 0-21.211s-15.352-5.859-21.211 0c-13.775 13.775-16.732 34.318-8.881 51.004-25.632 35.173-65.635 55.813-109.302 55.813s-83.67-20.64-109.302-55.812c7.851-16.687 4.894-37.229-8.881-51.004-5.859-5.859-15.352-5.859-21.211 0s-5.859 15.352 0 21.211c5.845 5.845 5.845 15.366 0 21.211-5.859 5.859-15.352 5.859-21.211 0s-15.352-5.859-21.211 0-5.859 15.352 0 21.211c13.833 13.833 34.501 16.743 51.221 8.771 31.092 40.566 78.999 64.412 130.595 64.412s99.502-23.846 130.595-64.412c16.73 7.977 37.399 5.051 51.221-8.771 5.86-5.86 5.86-15.352 0-21.212z" fill="#725d57"/><path d="m386.595 356.588c16.73 7.977 37.399 5.051 51.221-8.771 5.859-5.859 5.859-15.352 0-21.211s-15.352-5.859-21.211 0-15.352 5.859-21.211 0c-5.845-5.845-5.845-15.366 0-21.211 5.859-5.859 5.859-15.352 0-21.211s-15.352-5.859-21.211 0c-13.775 13.775-16.732 34.318-8.881 51.004-25.632 35.172-65.635 55.812-109.302 55.812v30c51.596 0 99.502-23.846 130.595-64.412z" fill="#53433f"/><path d="m125.395 236.605c-5.859-5.859-5.859-15.352 0-21.211 19.805-19.805 46.523-31.963 74.355-34.072-15.366-19.028-38.525-30.322-63.75-30.322-8.291 0-15-6.709-15-15s6.709-15 15-15c76.834 0 100.75 65.289 103.418 68.291 4.998 9.966-2.31 21.709-13.418 21.709h-17.578c-23.013 0-45.542 9.331-61.816 25.605-5.86 5.86-15.352 5.86-21.211 0z" fill="#725d57"/><path d="m346 241c-24.814 0-45-20.186-45-45s20.186-45 45-45 45 20.186 45 45-20.186 45-45 45z" fill="#53433f"/></svg>