<svg id="Capa_1" enable-background="new 0 0 512 512" height="512" viewBox="0 0 512 512" width="512" xmlns="http://www.w3.org/2000/svg"><path d="m512 256c0 140.7-115.3 256-256 256s-256-115.3-256-256 115.3-256 256-256 256 115.3 256 256z" fill="#ffda2d"/><path d="m512 256c0 140.7-115.3 256-256 256v-512c140.7 0 256 115.3 256 256z" fill="#fdbf00"/><path d="m286 376c0 8.399-6.599 15-15 15-5.4 0-10.499 1.5-15 4.2-9 5.099-15 14.7-15 25.8 0 8.399-6.599 15-15 15s-15-6.601-15-15c0-27.9 19.2-51.301 45-57.9 4.799-1.501 9.901-2.1 15-2.1 8.401 0 15 6.599 15 15z" fill="#725d57"/><path d="m166 211c-24.814 0-45-20.186-45-45s20.186-45 45-45 45 20.186 45 45-20.186 45-45 45z" fill="#725d57"/><path d="m346 211c-24.814 0-45-20.186-45-45s20.186-45 45-45 45 20.186 45 45-20.186 45-45 45z" fill="#53433f"/><path d="m406 241h-77.578c-29.396 0-56.164-14.471-72.422-38.456v128.456h150c24.814 0 46-20.186 46-45s-21.186-45-46-45z" fill="#ff9100"/><path d="m286 376c0 8.399-6.599 15-15 15-5.4 0-10.499 1.5-15 4.2v-32.1c4.799-1.501 9.901-2.1 15-2.1 8.401 0 15 6.599 15 15z" fill="#53433f"/></svg>