<svg id="Capa_1" enable-background="new 0 0 512 512" height="512" viewBox="0 0 512 512" width="512" xmlns="http://www.w3.org/2000/svg"><path d="m512 256c0 140.7-115.3 256-256 256s-256-115.3-256-256 115.3-256 256-256 256 115.3 256 256z" fill="#ffda2d"/><path d="m512 256c0 140.7-115.3 256-256 256v-512c140.7 0 256 115.3 256 256z" fill="#fdbf00"/><path d="m407.816 254.184c-17.549-17.549-46.084-17.549-63.633 0l-82.134 82.134 84.097 43.169 61.67-61.67c17.549-17.549 17.549-46.085 0-63.633z" fill="#ffe6b3"/><path d="m397.68 178.48-90-60c-6.899-4.6-8.76-13.901-4.16-20.801 4.57-6.899 13.872-8.774 20.801-4.16l90 60c6.899 4.6 8.76 13.901 4.16 20.801-4.522 6.794-13.786 8.811-20.801 4.16z" fill="#53433f"/><path d="m208.48 97.68c-4.6-6.899-13.887-8.774-20.801-4.16l-90 60c-6.899 4.6-8.76 13.901-4.16 20.801 4.522 6.794 13.785 8.81 20.801 4.16l90-60c6.9-4.6 8.76-13.902 4.16-20.801z" fill="#725d57"/><path d="m226 181c-8.291 0-15 6.709-15 15 0 8.276-6.724 15-15 15s-15-6.724-15-15c0-8.291-6.709-15-15-15s-15 6.709-15 15c0 24.814 20.186 45 45 45s45-20.186 45-45c0-8.291-6.709-15-15-15z" fill="#725d57"/><path d="m316 241c-24.814 0-45-20.186-45-45 0-8.291 6.709-15 15-15s15 6.709 15 15c0 8.276 6.724 15 15 15s15-6.724 15-15c0-8.291 6.709-15 15-15s15 6.709 15 15c0 24.814-20.186 45-45 45z" fill="#53433f"/><path d="m386.605 275.395c-5.859-5.859-15.352-5.859-21.211 0l-73.9 73.9 33.441 8.981 61.67-61.67c5.845-5.845 5.845-15.367 0-21.211z" fill="#f03800"/><path d="m385 417.999c-6.599 5.101-15.899 3.9-21-2.999-25.8-34.2-65.099-54-107.999-54s-82.2 19.799-107.999 54c-5.101 6.599-14.401 8.101-21 2.999-6.601-4.799-8.101-14.399-3.001-20.999 31.5-42 79.799-66 131.999-66s100.499 24 132.001 66c5.099 6.599 3.6 16.2-3.001 20.999z" fill="#725d57"/><path d="m385 417.999c-6.599 5.101-15.899 3.9-21-2.999-25.8-34.2-65.099-54-107.999-54v-30c52.2 0 100.499 24 132.001 66 5.098 6.599 3.599 16.2-3.002 20.999z" fill="#53433f"/></svg>