<svg id="Capa_1" enable-background="new 0 0 512 512" height="512" viewBox="0 0 512 512" width="512" xmlns="http://www.w3.org/2000/svg"><path d="m512 256c0 140.7-115.3 256-256 256s-256-115.3-256-256 115.3-256 256-256 256 115.3 256 256z" fill="#ffda2d"/><path d="m512 256c0 140.7-115.3 256-256 256v-512c140.7 0 256 115.3 256 256z" fill="#fdbf00"/><path d="m125.395 236.605c-5.859-5.859-5.859-15.352 0-21.211 19.805-19.805 46.523-31.963 74.355-34.072-15.366-19.028-38.525-30.322-63.75-30.322-8.291 0-15-6.709-15-15s6.709-15 15-15c76.834 0 100.75 65.289 103.418 68.291 4.998 9.966-2.31 21.709-13.418 21.709h-17.578c-23.013 0-45.542 9.331-61.816 25.605-5.86 5.86-15.352 5.86-21.211 0z" fill="#725d57"/><path d="m347 241c-24.814 0-45-20.186-45-45s20.186-45 45-45 45 20.186 45 45-20.186 45-45 45z" fill="#53433f"/><path d="m418.7 318.999c-8.701 42.301-33.9 78.001-67.5 101.701h-189.4c-33.6-23.7-58.799-59.4-67.5-101.701-.899-4.499.3-9 3.001-12.599 2.999-3.3 7.2-5.4 11.699-5.4h295.001c4.499 0 8.699 2.1 11.699 5.4 2.7 3.6 3.899 8.1 3 12.599z" fill="#f03800"/><path d="m418.7 318.999c-8.701 42.301-33.9 78.001-67.5 101.701h-95.2v-119.7h148.001c4.499 0 8.699 2.1 11.699 5.4 2.7 3.6 3.899 8.1 3 12.599z" fill="#cd0000"/><path d="m351.2 420.7c-27 18.9-60.401 30.3-95.2 30.3s-67.2-11.4-94.2-30.3c16.8-35.4 52.5-59.7 94.2-59.7s78.401 24.3 95.2 59.7z" fill="#ff641a"/><path d="m351.2 420.7c-27 18.9-60.401 30.3-95.2 30.3v-90c41.7 0 78.401 24.3 95.2 59.7z" fill="#f03800"/><path d="m482 241c-16.569 0-30 13.431-30 30v90h60v-90c0-16.569-13.431-30-30-30z" fill="#ffe6b3"/><path d="m422 512c-16.569 0-30-14.431-30-31 0-16.567 13.431-30 30-30-16.569 0-30-13.431-30-30 0-16.567 13.431-30 30-30-16.569 0-30-13.431-30-30 0-16.567 13.431-30 30-30h60c16.569 0 30 13.431 30 30v120c0 16.569-13.431 31-30 31z" fill="#fff7cc"/></svg>