<svg id="Capa_1" enable-background="new 0 0 512 512" height="512" viewBox="0 0 512 512" width="512" xmlns="http://www.w3.org/2000/svg"><path d="m512 256c0 140.7-115.3 256-256 256s-256-115.3-256-256 115.3-256 256-256 256 115.3 256 256z" fill="#ffda2d"/><path d="m512 256c0 140.7-115.3 256-256 256v-512c140.7 0 256 115.3 256 256z" fill="#fdbf00"/><path d="m386 387.999c-6.599 5.101-15.899 3.9-21-2.999-25.8-34.2-66.099-54-108.999-54s-82.2 19.799-107.999 54c-5.101 6.599-14.401 8.101-21 2.999-6.601-4.799-8.101-14.399-3.001-20.999 31.5-42 79.799-66 131.999-66s101.499 24 133.001 66c5.099 6.599 3.6 16.2-3.001 20.999z" fill="#725d57"/><path d="m196 241c-24.814 0-45-20.186-45-45s20.186-45 45-45 45 20.186 45 45-20.186 45-45 45z" fill="#725d57"/><path d="m317 241c-24.814 0-46-20.186-46-45s21.186-45 46-45 45 20.186 45 45-20.186 45-45 45z" fill="#53433f"/><path d="m482 512c-16.569 0-30-13.431-30-30v-91h60v91c0 16.569-13.431 30-30 30z" fill="#ffe6b3"/><path d="m422 241c-16.569 0-30 13.431-30 30 0 16.567 13.431 30 30 30-16.569 0-30 13.431-30 30 0 16.567 13.431 30 30 30-16.569 0-30 13.431-30 30 0 16.567 13.431 30 30 30h60c16.569 0 30-13.431 30-30v-120c0-16.569-13.431-30-30-30z" fill="#fff7cc"/><path d="m386 387.999c-6.599 5.101-15.899 3.9-21-2.999-25.8-34.2-66.099-54-108.999-54v-30c52.2 0 101.499 24 133.001 66 5.098 6.599 3.599 16.2-3.002 20.999z" fill="#53433f"/></svg>