<svg id="Capa_1" enable-background="new 0 0 512 512" height="512" viewBox="0 0 512 512" width="512" xmlns="http://www.w3.org/2000/svg"><path d="m511.5 256c0 140.7-115.3 256-256 256s-255-115.3-255-256 114.3-256 255-256 256 115.3 256 256z" fill="#ffda2d"/><path d="m511.5 256c0 140.7-115.3 256-256 256v-512c140.7 0 256 115.3 256 256z" fill="#fdbf00"/><path d="m450.5 226c0 57.9-47.1 105-105 105-27.599 0-53.699-10.501-73.2-30-7.5-6.901-12.9-15.3-16.8-24.3-3.9 9-9.3 17.399-16.8 24.3-19.501 19.499-45.601 30-73.2 30-57.9 0-105-47.1-105-105s47.1-105 105-105c8.401 0 15 6.599 15 15 0 8.399-6.599 15-15 15-41.4 0-75 33.6-75 75s33.6 75 75 75c19.799 0 38.401-7.5 52.5-21.301 8.699-8.699 13.5-20.099 13.5-32.1 0-24.899-20.099-45-45-45-12.001 0-23.401 4.501-31.8 12.9-3.001 3.001-4.501 6.901-4.501 10.801 0 12.9 18.9 19.499 27.001 9 4.799-6.301 14.399-7.8 21-2.701 6.599 5.101 7.798 14.7 2.699 21.301-8.699 11.1-21.598 17.4-35.699 17.4-24.901 0-45-20.101-45-45 0-12.001 4.801-23.401 13.2-31.8 14.101-14.101 33.001-21.901 53.101-21.901 30.899 0 57.599 18.9 69 45.601 11.4-26.7 38.101-45.601 69-45.601 20.099 0 39 7.8 53.101 21.901 8.399 8.399 13.2 19.799 13.2 31.8 0 24.899-20.099 45-45 45-15.901 0-30.601-8.401-38.701-21.901-4.199-7.2-1.8-16.199 5.101-20.7 7.2-4.199 16.5-1.8 20.7 5.4 2.699 4.501 7.5 7.202 12.9 7.202 8.101 0 15-6.901 15-15 0-3.9-1.5-7.8-4.501-10.801-8.399-8.399-19.799-12.9-31.8-12.9-24.901 0-45 20.101-45 45 0 12.001 4.801 23.401 13.5 32.1 14.098 13.8 32.7 21.3 52.499 21.3 41.4 0 75-33.6 75-75s-33.6-75-75-75c-8.401 0-15-6.601-15-15 0-8.401 6.599-15 15-15 57.9 0 105 47.1 105 105z" fill="#725d57"/><path d="m355.999 416.499c-5.7 6-15.298 6-20.999 0l-19.501-19.2-19.501 19.2c-5.7 6-15.298 6-20.999 0l-19.501-19.2-19.501 19.2c-5.7 6-15.298 6-20.999 0l-19.501-19.2-19.501 19.2c-5.7 6-15.298 6-20.999 0-6-5.7-6-15.3 0-21l30-30c5.7-5.999 15.298-5.999 20.999 0l19.501 19.2 19.501-19.2c2.702-2.999 6.602-4.499 10.502-4.499s7.8 1.5 10.499 4.499l19.501 19.2 19.501-19.2c5.7-5.999 15.298-5.999 20.999 0l30 30c6 5.7 6 15.3-.001 21z" fill="#725d57"/><g fill="#53433f"><path d="m355.999 395.499c6 5.7 6 15.3 0 21-5.7 6-15.298 6-20.999 0l-19.501-19.2-19.501 19.2c-5.7 6-15.298 6-20.999 0l-19.501-19.2v-36.299c3.9 0 7.8 1.5 10.499 4.499l19.501 19.2 19.501-19.2c5.7-5.999 15.298-5.999 20.999 0z"/><path d="m450.5 226c0 57.9-47.1 105-105 105-27.599 0-53.699-10.501-73.2-30-7.5-6.901-12.9-15.3-16.8-24.3v-58.5c11.4-26.7 38.101-45.601 69-45.601 20.099 0 39 7.8 53.101 21.901 8.399 8.399 13.2 19.799 13.2 31.8 0 24.899-20.099 45-45 45-15.901 0-30.601-8.401-38.701-21.901-4.199-7.2-1.8-16.199 5.101-20.7 7.2-4.199 16.5-1.8 20.7 5.4 2.699 4.501 7.5 7.202 12.9 7.202 8.101 0 15-6.901 15-15 0-3.9-1.5-7.8-4.501-10.801-8.399-8.399-19.799-12.9-31.8-12.9-24.901 0-45 20.101-45 45 0 12.001 4.801 23.401 13.5 32.1 14.099 13.8 32.701 21.3 52.5 21.3 41.4 0 75-33.6 75-75s-33.6-75-75-75c-8.401 0-15-6.601-15-15 0-8.401 6.599-15 15-15 57.9 0 105 47.1 105 105z"/></g></svg>