<svg id="Capa_1" enable-background="new 0 0 512 512" height="512" viewBox="0 0 512 512" width="512" xmlns="http://www.w3.org/2000/svg"><path d="m96.536 352.536c-53.23 0-96.536-43.306-96.536-96.536s43.306-96.536 96.536-96.536c8.284 0 15 6.716 15 15s-6.716 15-15 15c-36.688 0-66.536 29.848-66.536 66.536s29.848 66.536 66.536 66.536c8.284 0 15 6.716 15 15s-6.716 15-15 15z" fill="#f2f4f7"/><path d="m415.464 352.536c-8.284 0-15-6.716-15-15s6.716-15 15-15c36.688 0 66.536-29.848 66.536-66.536s-29.848-66.536-66.536-66.536c-8.284 0-15-6.716-15-15s6.716-15 15-15c53.23 0 96.536 43.306 96.536 96.536s-43.306 96.536-96.536 96.536z" fill="#c7e7ff"/><path d="m126.536 127.491h258.928c24.813 0 45 20.187 45 45v167.018c0 24.813-20.187 45-45 45h-258.928c-24.813 0-45-20.187-45-45v-167.018c0-24.813 20.187-45 45-45z" fill="#a3d3ff"/><path d="m256 384.509h129.464c24.813 0 45-20.187 45-45v-167.018c0-24.813-20.187-45-45-45h-129.464z" fill="#69a5ff"/><path d="m354.162 211.798h-196.324c-8.284 0-15-6.716-15-15s6.716-15 15-15h196.323c8.284 0 15 6.716 15 15s-6.715 15-14.999 15z" fill="#69a5ff"/><path d="m256 211.798h98.162c8.284 0 15-6.716 15-15s-6.716-15-15-15h-98.162z" fill="#4d86db"/><path d="m354.162 271h-196.324c-8.284 0-15-6.716-15-15s6.716-15 15-15h196.323c8.284 0 15 6.716 15 15s-6.715 15-14.999 15z" fill="#69a5ff"/><path d="m256 271h98.162c8.284 0 15-6.716 15-15s-6.716-15-15-15h-98.162z" fill="#4d86db"/><path d="m354.162 330.202h-196.324c-8.284 0-15-6.716-15-15s6.716-15 15-15h196.323c8.284 0 15 6.716 15 15s-6.715 15-14.999 15z" fill="#69a5ff"/><path d="m256 330.202h98.162c8.284 0 15-6.716 15-15s-6.716-15-15-15h-98.162z" fill="#4d86db"/></svg>