<svg id="Capa_1" enable-background="new 0 0 512 512" height="512" viewBox="0 0 512 512" width="512" xmlns="http://www.w3.org/2000/svg"><path d="m202.203 127.735v-82.735c0-24.813 20.187-45 45-45h17.595c24.813 0 45 20.187 45 45v82.735z" fill="#ffc573"/><path d="m309.797 45c0-24.813-20.187-45-45-45h-9.962v127.735h54.962z" fill="#ffa34c"/><path d="m278.771 512h-45.543c-7.172 0-13.341-5.078-14.72-12.116l-16.026-81.808c-.186-.95-.28-1.916-.28-2.884v-200.096c0-8.284 6.716-15 15-15h77.595c8.284 0 15 6.716 15 15v200.096c0 .968-.094 1.934-.28 2.884l-16.026 81.808c-1.378 7.038-7.547 12.116-14.72 12.116zm16.026-96.808h.01z" fill="#f2f4f7"/><path d="m294.797 200.096h-39.962v311.904h23.937c7.172 0 13.341-5.078 14.72-12.116l16.026-81.808c.186-.95.28-1.916.28-2.884v-200.096c-.001-8.284-6.716-15-15.001-15z" fill="#c7e7ff"/><path d="m328.343 230.096h-144.686c-8.284 0-15-6.716-15-15v-87.361c0-8.284 6.716-15 15-15h144.687c8.284 0 15 6.716 15 15v87.361c-.001 8.284-6.717 15-15.001 15z" fill="#a3d3ff"/><g fill="#8dc4eb"><path d="m277.439 247.202c-8.284 0-15 6.716-15 15s6.716 15 15 15h32.358v-30z"/><path d="m277.439 306.403c-8.284 0-15 6.716-15 15s6.716 15 15 15h32.358v-30z"/><path d="m277.439 365.604c-8.284 0-15 6.716-15 15s6.716 15 15 15h32.358v-30z"/></g><path d="m328.343 112.735h-73.508v117.361h73.508c8.284 0 15-6.716 15-15v-87.361c0-8.284-6.716-15-15-15z" fill="#69a5ff"/></svg>