<svg id="Capa_1" enable-background="new 0 0 512 512" height="512" viewBox="0 0 512 512" width="512" xmlns="http://www.w3.org/2000/svg"><path d="m413.281 512h-314.562c-8.284 0-15-6.716-15-15v-337.313c0-8.284 6.716-15 15-15h314.563c8.284 0 15 6.716 15 15v337.313c-.001 8.284-6.717 15-15.001 15z" fill="#f2f4f7"/><path d="m413.281 144.687h-157.281v367.313h157.281c8.284 0 15-6.716 15-15v-337.313c0-8.285-6.716-15-15-15z" fill="#c7e7ff"/><path d="m440.167 174.687h-368.334c-8.284 0-15-6.716-15-15v-114.687c0-24.813 20.187-45 45-45h308.334c24.813 0 45 20.187 45 45v114.687c0 8.284-6.716 15-15 15z" fill="#85d7ed"/><path d="m410.167 0h-154.167v174.687h184.167c8.284 0 15-6.716 15-15v-114.687c0-24.813-20.187-45-45-45z" fill="#48b6d4"/><g fill="#8dc4eb"><path d="m364.693 276.658c-8.284 0-15 6.716-15 15s6.716 15 15 15h63.588v-30z"/><path d="m364.693 350.029c-8.284 0-15 6.716-15 15s6.716 15 15 15h63.588v-30z"/><path d="m364.693 423.399c-8.284 0-15 6.716-15 15s6.716 15 15 15h63.588v-30z"/><path d="m364.693 203.288c-8.284 0-15 6.716-15 15s6.716 15 15 15h63.588v-30z"/></g></svg>