<svg id="Capa_1" enable-background="new 0 0 512 512" height="512" viewBox="0 0 512 512" width="512" xmlns="http://www.w3.org/2000/svg"><path d="m256 62.739c-8.284 0-15-6.716-15-15v-32.739c0-8.284 6.716-15 15-15s15 6.716 15 15v32.739c0 8.284-6.716 15-15 15z" fill="#8dc4eb"/><path d="m288.945 117.63h-65.891c-8.284 0-15-6.716-15-15v-54.891c0-8.284 6.716-15 15-15h65.891c8.284 0 15 6.716 15 15v54.892c0 8.284-6.716 14.999-15 14.999z" fill="#f2f4f7"/><path d="m288.945 32.739h-32.945v84.892h32.945c8.284 0 15-6.716 15-15v-54.892c0-8.284-6.716-15-15-15z" fill="#c7e7ff"/><path d="m328.344 512h-144.688c-8.284 0-15-6.716-15-15v-364.37c0-24.813 20.187-45 45-45h84.688c24.813 0 45 20.187 45 45v364.37c0 8.284-6.716 15-15 15z" fill="#ffa34c"/><path d="m298.344 87.63h-42.344v424.37h72.344c8.284 0 15-6.716 15-15v-364.37c0-24.813-20.187-45-45-45z" fill="#f08546"/></svg>