<svg id="Capa_1" enable-background="new 0 0 512 512" height="512" viewBox="0 0 512 512" width="512" xmlns="http://www.w3.org/2000/svg"><path d="m230.039 395.836c-5.834 0-11.378-3.43-13.795-9.141-.7-1.656-17.256-41.316-25.596-107.668-7.644-60.82-9.498-156.77 25.082-268.478 2.446-7.899 10.831-12.32 18.729-9.875 7.899 2.445 12.32 10.831 9.875 18.729-33 106.605-31.253 197.995-23.977 255.89 7.828 62.279 23.307 99.365 23.463 99.733 3.222 7.614-.338 16.4-7.954 19.622-1.902.806-3.881 1.188-5.827 1.188z" fill="#f2f4f7"/><path d="m281.961 395.836c-1.946 0-3.923-.382-5.828-1.188-7.613-3.221-11.173-12.002-7.957-19.614.336-.808 15.935-38.709 23.617-100.956 7.114-57.641 8.703-148.614-24.128-254.675-2.446-7.899 1.976-16.284 9.875-18.729 7.894-2.446 16.285 1.975 18.729 9.875 34.58 111.709 32.726 207.658 25.082 268.478-8.34 66.352-24.896 106.012-25.596 107.668-2.417 5.71-7.961 9.141-13.794 9.141z" fill="#c7e7ff"/><path d="m281.967 365.889h-51.935c-8.268 0-14.972 6.703-14.972 14.972v90.201c.001 22.573 18.367 40.938 40.94 40.938s40.939-18.365 40.939-40.939v-90.201c0-8.268-6.703-14.971-14.972-14.971z" fill="#ffa34c"/><path d="m281.967 365.889h-25.967v146.111c22.573 0 40.939-18.365 40.939-40.939v-90.201c0-8.268-6.703-14.971-14.972-14.971z" fill="#f08546"/></svg>