<svg id="Capa_1" enable-background="new 0 0 512 512" height="512" viewBox="0 0 512 512" width="512" xmlns="http://www.w3.org/2000/svg"><path d="m497 471.291h-133.961c20.201-11.086 38.952-25.097 55.699-41.844 46.329-46.33 71.844-107.927 71.844-173.447s-25.515-127.117-71.844-173.447c-46.329-46.329-107.927-71.844-173.446-71.844s-127.119 25.515-173.448 71.844c-46.329 46.33-71.844 107.927-71.844 173.447s25.515 127.117 71.844 173.447c46.329 46.329 107.928 71.844 173.447 71.844h251.709c8.284 0 15-6.716 15-15s-6.716-15-15-15zm-251.709-163.29c-28.719 0-52.001-23.282-52.001-52.001 0-28.72 23.282-52.001 52.001-52.001s52.001 23.281 52.001 52.001-23.282 52.001-52.001 52.001z" fill="#f2f4f7"/><path d="m497 471.291h-133.961c20.201-11.086 38.952-25.097 55.699-41.844 46.329-46.33 71.844-107.927 71.844-173.447s-25.515-127.117-71.844-173.447c-46.329-46.329-107.927-71.844-173.446-71.844v193.289c28.719 0 52.001 23.282 52.001 52.001 0 28.72-23.282 52.001-52.001 52.001v193.289h251.708c8.284 0 15-6.716 15-15s-6.716-14.998-15-14.998z" fill="#c7e7ff"/><path d="m245.291 93.071c-89.983 0-162.929 72.946-162.929 162.929s72.946 162.929 162.929 162.929 162.929-72.946 162.929-162.929-72.946-162.929-162.929-162.929zm0 214.93c-28.719 0-52.001-23.282-52.001-52.001 0-28.72 23.282-52.001 52.001-52.001s52.001 23.281 52.001 52.001-23.282 52.001-52.001 52.001z" fill="#85d7ed"/><path d="m245.291 418.929c89.983 0 162.929-72.946 162.929-162.929s-72.946-162.929-162.929-162.929v110.928c28.719 0 52.001 23.282 52.001 52.001 0 28.72-23.282 52.001-52.001 52.001z" fill="#48b6d4"/></svg>