<svg id="Capa_1" enable-background="new 0 0 512 512" height="512" viewBox="0 0 512 512" width="512" xmlns="http://www.w3.org/2000/svg"><path d="m34.473 201.834v72.656c0 57.916 47.118 105.033 105.033 105.033h232.988c57.915 0 105.033-47.118 105.033-105.033v-72.656z" fill="#f2f4f7"/><path d="m256 201.834v177.69h116.494c57.915 0 105.033-47.118 105.033-105.033v-72.656h-221.527z" fill="#c7e7ff"/><path d="m462.542 132.476h-413.084c-27.271 0-49.458 22.187-49.458 49.458s22.187 49.458 49.458 49.458h413.084c27.271 0 49.458-22.187 49.458-49.458s-22.187-49.458-49.458-49.458z" fill="#c7e7ff"/><path d="m462.542 132.476h-206.542v98.916h206.542c27.271 0 49.458-22.187 49.458-49.458s-22.187-49.458-49.458-49.458z" fill="#8dc4eb"/></svg>