<svg id="Capa_1" enable-background="new 0 0 512 512" height="512" viewBox="0 0 512 512" width="512" xmlns="http://www.w3.org/2000/svg"><path d="m231.979 0c-8.284 0-15 6.716-15 15v78.785c0 8.284 6.716 15 15 15s15-6.716 15-15v-78.785c0-8.284-6.716-15-15-15z" fill="#f2f4f7"/><path d="m264.925 78.785h-65.892c-8.284 0-15 6.716-15 15v55.01c0 8.284 6.716 15 15 15h65.892c8.284 0 15-6.716 15-15v-55.01c0-8.284-6.716-15-15-15z" fill="#85d7ed"/><path d="m264.925 78.785h-32.946v85.01h32.946c8.284 0 15-6.716 15-15v-55.01c0-8.284-6.716-15-15-15z" fill="#48b6d4"/><path d="m274.323 133.795h-84.687c-24.813 0-45 20.187-45 45v318.205c0 8.284 6.716 15 15 15h144.687c8.284 0 15-6.716 15-15v-318.205c0-24.813-20.187-45-45-45z" fill="#f2f4f7"/><path d="m274.323 133.795h-42.343v378.205h72.343c8.284 0 15-6.716 15-15v-318.205c0-24.813-20.187-45-45-45z" fill="#c7e7ff"/><path d="m360.087 25.397c-4.327-2.599-43.031-25.397-69.244-25.397h-105.759c-8.284 0-15 6.716-15 15s6.716 15 15 15h105.758c13.532 0 40.181 12.953 53.794 21.113 2.418 1.453 5.081 2.145 7.71 2.145 5.092 0 10.059-2.594 12.872-7.278 4.268-7.101 1.97-16.316-5.131-20.583z" fill="#85d7ed"/><path d="m360.087 25.397c-4.327-2.599-43.031-25.397-69.244-25.397h-58.863v30h58.863c13.532 0 40.181 12.953 53.794 21.113 2.418 1.453 5.081 2.145 7.71 2.145 5.092 0 10.059-2.594 12.872-7.278 4.267-7.101 1.969-16.316-5.132-20.583z" fill="#48b6d4"/></svg>