<svg id="Capa_1" enable-background="new 0 0 512 512" height="512" viewBox="0 0 512 512" width="512" xmlns="http://www.w3.org/2000/svg"><path d="m377.892 4.824c-2.839-3.075-6.835-4.824-11.021-4.824h-221.742c-4.186 0-8.182 1.749-11.021 4.824-2.84 3.076-4.265 7.198-3.931 11.371l4.209 52.652 25.404 317.821 8.915 111.527c.623 7.796 7.131 13.805 14.952 13.805h144.687c7.821 0 14.329-6.009 14.952-13.805l8.915-111.527 25.404-317.821 4.209-52.652c.333-4.173-1.092-8.295-3.932-11.371z" fill="#f2f4f7"/><path d="m381.823 16.195c.333-4.173-1.091-8.295-3.931-11.371-2.839-3.075-6.835-4.824-11.021-4.824h-221.742c-4.186 0-8.182 1.749-11.021 4.824-2.84 3.076-4.265 7.198-3.931 11.371l4.209 52.652h243.229z" fill="#ffa34c"/><path d="m134.385 68.847 25.405 317.821h192.42l25.405-317.821z" fill="#f2f4f7"/><path d="m168.705 498.195c.623 7.796 7.131 13.805 14.952 13.805h144.687c7.821 0 14.329-6.009 14.952-13.805l8.915-111.527h-192.421z" fill="#85d7ed"/><path d="m377.892 4.824c-2.839-3.075-6.835-4.824-11.021-4.824h-110.871v68.847h121.615l4.209-52.652c.333-4.173-1.092-8.295-3.932-11.371z" fill="#f08546"/><path d="m256 68.847v317.821h96.21l25.405-317.821z" fill="#c7e7ff"/><path d="m256 386.668v125.332h72.343c7.821 0 14.329-6.009 14.952-13.805l8.915-111.527z" fill="#48b6d4"/></svg>