<svg id="Capa_1" enable-background="new 0 0 512 512" height="512" viewBox="0 0 512 512" width="512" xmlns="http://www.w3.org/2000/svg"><path d="m365.699 0h-219.398c-43.297 0-78.521 35.225-78.521 78.521s35.225 78.521 78.521 78.521h219.398c43.297 0 78.521-35.225 78.521-78.521s-35.224-78.521-78.521-78.521z" fill="#85d7ed"/><path d="m365.699 0h-109.699v157.043h109.699c43.297 0 78.521-35.225 78.521-78.521s-35.224-78.522-78.521-78.522z" fill="#48b6d4"/><path d="m291.046 127.043h-70.092c-8.284 0-15 6.716-15 15v325.017c0 24.78 20.16 44.94 44.94 44.94h10.211c24.78 0 44.94-20.16 44.94-44.94v-325.017c.001-8.284-6.715-15-14.999-15z" fill="#ffa34c"/><path d="m291.046 127.043h-35.046v384.957h5.105c24.78 0 44.94-20.16 44.94-44.94v-325.017c.001-8.284-6.715-15-14.999-15z" fill="#f08546"/><path d="m185.698 0h140.604v157.043h-140.604z" fill="#f2f4f7"/><path d="m256 0h70.302v157.043h-70.302z" fill="#c7e7ff"/></svg>