<svg id="Capa_1" enable-background="new 0 0 512 512" height="512" viewBox="0 0 512 512" width="512" xmlns="http://www.w3.org/2000/svg"><path d="m390.206 0h-268.412c-24.813 0-45 20.187-45 45v422c0 24.813 20.187 45 45 45h268.412c24.813 0 45-20.187 45-45v-422c0-24.813-20.186-45-45-45z" fill="#f2f4f7"/><path d="m390.206 0h-134.206v512h134.206c24.813 0 45-20.187 45-45v-422c0-24.813-20.186-45-45-45z" fill="#c7e7ff"/><path d="m435.206 195.029v-30h-84.098v-60.987c0-8.284-6.716-15-15-15s-15 6.716-15 15v60.987h-50.108v-60.987c0-8.284-6.716-15-15-15s-15 6.716-15 15v60.987h-50.108v-60.987c0-8.284-6.716-15-15-15s-15 6.716-15 15v60.987h-84.098v30h84.098v45.971h-84.098v30h84.098v45.971h-84.098v30h84.098v60.987c0 8.284 6.716 15 15 15s15-6.716 15-15v-60.987h50.108v60.987c0 8.284 6.716 15 15 15s15-6.716 15-15v-60.987h50.108v60.987c0 8.284 6.716 15 15 15s15-6.716 15-15v-60.987h84.098v-30h-84.098v-45.971h84.098v-30h-84.098v-45.971zm-244.314 0h50.108v45.971h-50.108zm0 121.942v-45.971h50.108v45.971zm130.216 0h-50.108v-45.971h50.108zm0-75.971h-50.108v-45.971h50.108z" fill="#c7e7ff"/><path d="m435.206 195.029v-30h-84.098v-60.987c0-8.284-6.716-15-15-15s-15 6.716-15 15v60.987h-50.108v-60.987c0-8.284-6.716-15-15-15v333.916c8.284 0 15-6.716 15-15v-60.987h50.108v60.987c0 8.284 6.716 15 15 15s15-6.716 15-15v-60.987h84.098v-30h-84.098v-45.971h84.098v-30h-84.098v-45.971zm-114.098 121.942h-50.108v-45.971h50.108zm0-75.971h-50.108v-45.971h50.108z" fill="#8dc4eb"/></svg>