<svg id="Capa_1" enable-background="new 0 0 512 512" height="512" viewBox="0 0 512 512" width="512" xmlns="http://www.w3.org/2000/svg"><path d="m434.889 0h-357.778c-8.284 0-15 6.716-15 15v482c0 8.284 6.716 15 15 15h357.777c8.284 0 15-6.716 15-15v-482c.001-8.284-6.715-15-14.999-15z" fill="#f2f4f7"/><path d="m434.889 0h-178.889v512h178.889c8.284 0 15-6.716 15-15v-482c0-8.284-6.716-15-15-15z" fill="#c7e7ff"/><path d="m385.91 48.979h-259.82c-8.284 0-15 6.716-15 15v259.82c0 8.284 6.716 15 15 15h259.82c8.284 0 15-6.716 15-15v-259.82c0-8.285-6.716-15-15-15z" fill="#5a5a5a"/><path d="m385.91 48.979h-129.91v289.82h129.91c8.284 0 15-6.716 15-15v-259.82c0-8.285-6.716-15-15-15z" fill="#444"/><circle cx="342.865" cy="384.958" fill="#ffa34c" r="15"/><circle cx="386.046" cy="384.958" fill="#ff5b6e" r="15"/><path d="m400.91 181.886h-93.777c-4.959 0-9.598 2.451-12.392 6.548l-28.582 41.901-32.088-111.872c-1.688-5.886-6.785-10.154-12.875-10.784-6.085-.634-11.953 2.505-14.811 7.92l-34.975 66.287h-60.32v30h69.367c5.563 0 10.67-3.079 13.267-8l21.792-41.304 30.614 106.733c1.604 5.59 6.293 9.749 12.034 10.674.798.128 1.596.19 2.388.19 4.905 0 9.567-2.411 12.389-6.548l42.118-61.746h85.852v-29.999z" fill="#ffa34c"/><path d="m294.741 188.434-28.582 41.901-10.159-35.419v84.556c.701.223 1.423.398 2.164.518.798.128 1.596.19 2.388.19 4.905 0 9.567-2.411 12.389-6.548l42.118-61.746h85.852v-30h-93.777c-4.96 0-9.599 2.451-12.393 6.548z" fill="#f08546"/><path d="m299.414 399.958h-173.324c-8.284 0-15-6.716-15-15s6.716-15 15-15h173.324c8.284 0 15 6.716 15 15s-6.716 15-15 15z" fill="#c7e7ff"/><path d="m299.414 369.958h-43.414v30h43.414c8.284 0 15-6.716 15-15s-6.716-15-15-15z" fill="#8dc4eb"/></svg>