<svg id="Capa_1" enable-background="new 0 0 512 512" height="512" viewBox="0 0 512 512" width="512" xmlns="http://www.w3.org/2000/svg"><path d="m290.458 90.375h-68.916c-8.284 0-15-6.716-15-15v-25.917c0-27.271 22.187-49.458 49.458-49.458s49.458 22.187 49.458 49.458v25.917c0 8.284-6.716 15-15 15zm-53.916-30h38.916v-10.917c0-10.729-8.729-19.458-19.458-19.458s-19.458 8.729-19.458 19.458z" fill="#5a5a5a"/><path d="m256 0v30c10.729 0 19.458 8.729 19.458 19.458v10.917h-19.458v30h34.458c8.284 0 15-6.716 15-15v-25.917c0-27.271-22.187-49.458-49.458-49.458z" fill="#444"/><path d="m256 455.633c-8.284 0-15 6.716-15 15v26.367c0 8.284 6.716 15 15 15s15-6.716 15-15v-26.367c0-8.284-6.716-15-15-15z" fill="#4d86db"/><path d="m366.676 60.375h-221.352c-24.813 0-45 20.187-45 45v335.258c0 24.813 20.187 45 45 45h221.352c24.813 0 45-20.187 45-45v-335.258c0-24.813-20.187-45-45-45z" fill="#f2f4f7"/><path d="m366.676 60.375h-110.676v425.258h110.676c24.813 0 45-20.187 45-45v-335.258c0-24.813-20.187-45-45-45z" fill="#c7e7ff"/><g fill="#8dc4eb"><path d="m348.088 221.318c-8.284 0-15 6.716-15 15s6.716 15 15 15h63.588v-30z"/><path d="m348.088 294.688c-8.284 0-15 6.716-15 15s6.716 15 15 15h63.588v-30z"/><path d="m348.088 368.06c-8.284 0-15 6.716-15 15s6.716 15 15 15h63.588v-30z"/><path d="m348.088 147.948c-8.284 0-15 6.716-15 15s6.716 15 15 15h63.588v-30z"/></g></svg>