<svg id="Capa_1" enable-background="new 0 0 512 512" height="512" viewBox="0 0 512 512" width="512" xmlns="http://www.w3.org/2000/svg"><path d="m467 332c-8.284 0-15-6.716-15-15v-212c0-24.813-20.187-45-45-45h-212c-8.284 0-15-6.716-15-15s6.716-15 15-15h212c41.355 0 75 33.645 75 75v212c0 8.284-6.716 15-15 15z" fill="#4bb9ec"/><path d="m497 302h-60c-8.284 0-15 6.716-15 15v60c0 8.284 6.716 15 15 15h60c8.284 0 15-6.716 15-15v-60c0-8.284-6.716-15-15-15z" fill="#cdf"/><path d="m268.42 490.29h-206.84l30-60c2.54-5.08 7.74-8.29 13.42-8.29h120c5.68 0 10.88 3.21 13.42 8.29z" fill="#596c76"/><path d="m268.42 490.29h-103.42v-68.29h60c5.68 0 10.88 3.21 13.42 8.29z" fill="#465a61"/><path d="m210 45v60c0 8.28-6.72 15-15 15h-60c-8.28 0-15-6.72-15-15v-60c0-24.81 20.19-45 45-45s45 20.19 45 45z" fill="#4a696f"/><path d="m210 45v60c0 8.28-6.72 15-15 15h-30v-120c24.81 0 45 20.19 45 45z" fill="#596c76"/><path d="m512 377v120h-182v-120c0-8.28 6.72-15 15-15h152c8.28 0 15 6.72 15 15z" fill="#465a61"/><path d="m512 497c0 8.28-6.72 15-15 15h-482c-8.28 0-15-6.72-15-15s6.72-15 15-15h482c8.28 0 15 6.72 15 15z" fill="#4a696f"/><path d="m512 497c0 8.28-6.72 15-15 15h-332v-30h332c8.28 0 15 6.72 15 15z" fill="#596c76"/><path d="m300 287v90c0 41.36-33.65 75-75 75h-120c-41.35 0-75-33.64-75-75v-90c0-8.28 6.72-15 15-15h240c8.28 0 15 6.72 15 15z" fill="#4bb9ec"/><path d="m300 287v90c0 41.36-33.65 75-75 75h-60v-180h120c8.28 0 15 6.72 15 15z" fill="#0095ff"/><path d="m300 165v62c0 8.28-6.72 15-15 15h-240c-8.28 0-15-6.72-15-15v-62c0-41.36 33.65-75 75-75h120c41.35 0 75 33.64 75 75z" fill="#4bb9ec"/><path d="m225 90h-60v152h120c8.28 0 15-6.72 15-15v-62c0-41.36-33.65-75-75-75z" fill="#0095ff"/><path d="m285 212h-240c-24.81 0-45 20.19-45 45s20.19 45 45 45h240c24.81 0 45-20.19 45-45s-20.19-45-45-45z" fill="#76e2f8"/><path d="m330 257c0 24.81-20.19 45-45 45h-120v-90h120c24.81 0 45 20.19 45 45z" fill="#4bb9ec"/></svg>