<svg id="Capa_1" enable-background="new 0 0 512 512" height="512" viewBox="0 0 512 512" width="512" xmlns="http://www.w3.org/2000/svg"><path d="m136 0h-30c-16.569 0-30 13.431-30 30v452c0 16.569 13.431 30 30 30h30c16.569 0 30-13.431 30-30l17-211-17-241c0-16.569-13.431-30-30-30z" fill="#76e2f8"/><path d="m226 0h-30c-16.569 0-30 13.431-30 30v452c0 16.569 13.431 30 30 30h30c16.569 0 30-13.431 30-30l21-199-21-253c0-16.569-13.431-30-30-30z" fill="#a8ebfa"/><path d="m316 0h-30c-16.569 0-30 13.431-30 30v452c0 16.569 13.431 30 30 30h30c16.569 0 30-13.431 30-30l24-208-24-244c0-16.569-13.431-30-30-30z" fill="#76e2f8"/><path d="m406 0h-30c-16.569 0-30 13.431-30 30v452c0 16.569 13.431 30 30 30h30c16.569 0 30-13.431 30-30v-452c0-16.569-13.431-30-30-30z" fill="#4bb9ec"/><path d="m346 90h-180c-24.81 0-45 20.19-45 45v60c0 24.81 20.19 45 45 45h180c24.81 0 45-20.19 45-45v-60c0-24.81-20.19-45-45-45z" fill="#e6ffff"/><path d="m391 135v60c0 24.81-20.19 45-45 45h-90v-150h90c24.81 0 45 20.19 45 45z" fill="#d9f2ff"/><path d="m331 165c0 8.28-6.72 15-15 15h-120c-8.28 0-15-6.72-15-15s6.72-15 15-15h120c8.28 0 15 6.72 15 15z" fill="#d9f2ff"/><path d="m331 165c0 8.28-6.72 15-15 15h-60v-30h60c8.28 0 15 6.72 15 15z" fill="#cdf"/></svg>