<svg id="Capa_1" enable-background="new 0 0 512 512" height="512" viewBox="0 0 512 512" width="512" xmlns="http://www.w3.org/2000/svg"><path d="m226 0c8.28 0 15 6.72 15 15v45c0 8.28-6.72 15-15 15h-90c-8.28 0-15-6.72-15-15v-45c0-8.28 6.72-15 15-15z" fill="#ffda2d"/><path d="m226 0c8.28 0 15 6.72 15 15v45c0 8.28-6.72 15-15 15h-45v-75z" fill="#fdbf00"/><path d="m241 182-17 14s16 15 17 16v30l-14 15 14 15v30l-11 12 11 18v30l-13 14 13 16v30l-12 13 12 17v45h-120v-347c0-8.284 6.716-15 15-15h90c8.284 0 15 6.716 15 15z" fill="#ffda2d"/><path d="m241 182-17 14s16 15 17 16v30l-14 15 14 15v30l-11 12 11 18v30l-13 14 13 16v30l-12 13 12 17v45h-60v-362h45c8.284 0 15 6.716 15 15z" fill="#fdbf00"/><path d="m331 497c0 8.28-6.72 15-15 15h-210c-8.28 0-15-6.72-15-15s6.72-15 15-15h210c8.28 0 15 6.72 15 15z" fill="#4a696f"/><path d="m331 497c0 8.28-6.72 15-15 15h-135v-30h135c8.28 0 15 6.72 15 15z" fill="#465a61"/><g fill="#ff9100"><path d="m241 182v30h-45c-8.28 0-15-6.72-15-15s6.72-15 15-15z"/><path d="m241 242v30h-45c-8.28 0-15-6.72-15-15s6.72-15 15-15z"/><path d="m241 302v30h-45c-8.28 0-15-6.72-15-15s6.72-15 15-15z"/><path d="m241 362v30h-45c-8.28 0-15-6.72-15-15s6.72-15 15-15z"/><path d="m241 422v30h-45c-8.28 0-15-6.72-15-15s6.72-15 15-15z"/></g><path d="m346 272c-24.813 0-45-20.187-45-45s20.187-45 45-45 45 20.187 45 45-20.187 45-45 45z" fill="#76e2f8"/><path d="m346 182v90c24.813 0 45-20.187 45-45s-20.187-45-45-45z" fill="#4bb9ec"/><path d="m421 287c0-8.28-6.72-15-15-15h-120c-8.28 0-15 6.72-15 15v90c0 3.98 1.58 7.79 4.39 10.61l25.61 25.6v83.79c0 8.28 6.72 15 15 15h60c8.28 0 15-6.72 15-15v-83.79l25.61-25.6c2.81-2.82 4.39-6.63 4.39-10.61z" fill="#76e2f8"/><path d="m406 272c8.28 0 15 6.72 15 15v90c0 3.98-1.58 7.79-4.39 10.61l-25.61 25.6v83.79c0 8.28-6.72 15-15 15h-30v-240z" fill="#4bb9ec"/><path d="m271 75c0-8.28-6.72-15-15-15h-135v90h150z" fill="#4a696f"/><path d="m346 120h-75v-45c0-8.28-6.72-15-15-15h-75v90h90 75c8.284 0 15-6.716 15-15s-6.716-15-15-15z" fill="#465a61"/></svg>