<svg id="Capa_1" enable-background="new 0 0 512.867 512.867" height="512" viewBox="0 0 512.867 512.867" width="512" xmlns="http://www.w3.org/2000/svg"><path d="m451.434 75v180c0 24.81-20.19 45-45 45h-300c-24.81 0-45-20.19-45-45v-180c0-24.81 20.19-45 45-45h300c24.81 0 45 20.19 45 45z" fill="#ff9100"/><path d="m451.434 75v180c0 24.81-20.19 45-45 45h-150v-270h150c24.81 0 45 20.19 45 45z" fill="#ff641a"/><path d="m421.434 75v180c0 8.27-6.73 15-15 15h-300c-8.27 0-15-6.73-15-15v-180c0-8.27 6.73-15 15-15h300c8.27 0 15 6.73 15 15z" fill="#e6ffff"/><path d="m421.434 75v180c0 8.27-6.73 15-15 15h-150v-210h150c8.27 0 15 6.73 15 15z" fill="#d9f2ff"/><path d="m508.044 483.61c-36.153 36.153-92.964 38.298-131.6 9.22-35.453 26.76-84.699 26.663-120.01.01-35.313 26.655-84.559 26.748-120.01-.01-38.64 29.08-95.451 26.929-131.6-9.22-5.85-5.86-5.85-15.36 0-21.22 5.86-5.85 15.36-5.85 21.22 0 27.282 27.302 72.485 27.315 99.78 0 5.86-5.85 15.36-5.85 21.22 0 27.268 27.288 71.485 27.315 98.78 0 2.93-2.93 6.77-4.39 10.61-4.39s7.68 1.46 10.61 4.39c27.268 27.288 71.485 27.315 98.78 0 5.86-5.85 15.36-5.85 21.22 0 27.282 27.302 72.485 27.315 99.78 0 5.86-5.85 15.36-5.85 21.22 0 5.85 5.86 5.85 15.36 0 21.22z" fill="#76e2f8"/><path d="m508.044 423.61c-36.153 36.153-92.964 38.298-131.6 9.22-35.453 26.76-84.699 26.663-120.01.01-35.313 26.655-84.559 26.748-120.01-.01-38.64 29.08-95.451 26.929-131.6-9.22-5.85-5.86-5.85-15.36 0-21.22 5.86-5.85 15.36-5.85 21.22 0 27.282 27.302 72.485 27.315 99.78 0 5.86-5.85 15.36-5.85 21.22 0 27.268 27.288 71.485 27.315 98.78 0 2.93-2.93 6.77-4.39 10.61-4.39s7.68 1.46 10.61 4.39c27.268 27.288 71.485 27.315 98.78 0 5.86-5.85 15.36-5.85 21.22 0 27.282 27.302 72.485 27.315 99.78 0 5.86-5.85 15.36-5.85 21.22 0 5.85 5.86 5.85 15.36 0 21.22z" fill="#76e2f8"/><path d="m346.434 90c0 19.65-6.22 38.33-18 54.01-2.95 3.92-7.45 5.99-12.01 5.99-3.13 0-6.29-.98-8.99-3.01h-102c-6.62 4.98-16.02 3.64-21-2.98-11.78-15.68-18-34.36-18-54.01 0-49.63 40.37-90 90-90s90 40.37 90 90z" fill="#fdbf00"/><path d="m346.434 90c0 19.65-6.22 38.33-18 54.01-2.95 3.92-7.45 5.99-12.01 5.99-3.13 0-6.29-.98-8.99-3.01h-51v-146.99c49.63 0 90 40.37 90 90z" fill="#ff9100"/><path d="m350.074 180.45c-8.04-2.01-16.18 2.87-18.19 10.91l-12.16 48.64h-48.29v-45c0-8.28-6.72-15-15-15s-15 6.72-15 15v45h-48.29l-12.16-48.64c-2.01-8.04-10.15-12.92-18.19-10.91-8.03 2.01-12.92 10.15-10.91 18.19l30 120c1.67 6.68 7.67 11.36 14.55 11.36h120c6.88 0 12.88-4.68 14.55-11.36l30-120c2.01-8.04-2.88-16.18-10.91-18.19zm-108.64 119.55h-33.29l-7.5-30h40.79zm63.29 0h-33.29v-30h40.79z" fill="#596c76"/><path d="m350.074 180.45c-8.04-2.01-16.18 2.87-18.19 10.91l-12.16 48.64h-48.29v-45c0-8.28-6.72-15-15-15v150h60c6.88 0 12.88-4.68 14.55-11.36l30-120c2.01-8.04-2.88-16.18-10.91-18.19zm-45.35 119.55h-33.29v-30h40.79z" fill="#465a61"/><path d="m376.434 120h-240c-8.28 0-15 6.72-15 15v60c0 8.28 6.72 15 15 15h240c8.28 0 15-6.72 15-15v-60c0-8.28-6.72-15-15-15z" fill="#ff9100"/><path d="m391.434 135v60c0 8.28-6.72 15-15 15h-120v-90h120c8.28 0 15 6.72 15 15z" fill="#ff641a"/><g fill="#4bb9ec"><path d="m508.044 462.39c5.85 5.86 5.85 15.36 0 21.22-36.153 36.153-92.964 38.298-131.6 9.22-35.453 26.76-84.699 26.663-120.01.01v-34.84c3.84 0 7.68 1.46 10.61 4.39 27.268 27.288 71.485 27.315 98.78 0 5.86-5.85 15.36-5.85 21.22 0 27.282 27.302 72.485 27.315 99.78 0 5.86-5.85 15.36-5.85 21.22 0z"/><path d="m256.434 432.84v-34.84c3.84 0 7.68 1.46 10.61 4.39 27.268 27.288 71.485 27.315 98.78 0 5.86-5.85 15.36-5.85 21.22 0 27.282 27.302 72.485 27.315 99.78 0 5.86-5.85 15.36-5.85 21.22 0 5.85 5.86 5.85 15.36 0 21.22-36.153 36.153-92.964 38.298-131.6 9.22-35.453 26.76-84.699 26.663-120.01.01z"/></g></svg>