<svg id="Capa_1" enable-background="new 0 0 512.019 512.019" height="512" viewBox="0 0 512.019 512.019" width="512" xmlns="http://www.w3.org/2000/svg"><path d="m428.638 435.006c0 8.28-6.72 15-15 15h-124.8c-6.7 0-12.58-4.44-14.42-10.88l-14.04-49.12h-138.85c-8.29 0-15-6.72-15-15s6.71-15 15-15h130.28l-10.8-37.81-14.91-52.19h-85.09l12-60h134l8 30h68.34c8.28 0 15 6.72 15 15s-6.72 15-15 15h-106.05l8.57 30h113.48c8.28 0 15 6.72 15 15s-6.72 15-15 15h-104.91l8.57 30h113.48c8.29 0 15 6.72 15 15s-6.71 15-15 15h-104.91l8.57 30h113.49c8.28 0 15 6.72 15 15z" fill="#d9f2ff"/><path d="m428.638 435.006c0 8.28-6.72 15-15 15h-124.8c-6.7 0-12.58-4.44-14.42-10.88l-14.04-49.12h-19.37v-30h10.8l-10.8-37.81v-112.19h46l8 30h68.34c8.28 0 15 6.72 15 15s-6.72 15-15 15h-106.05l8.57 30h113.48c8.28 0 15 6.72 15 15s-6.72 15-15 15h-104.91l8.57 30h113.48c8.29 0 15 6.72 15 15s-6.71 15-15 15h-104.91l8.57 30h113.49c8.28 0 15 6.72 15 15z" fill="#cdf"/><path d="m398.378 482.006h-18.66c-67.62-237.85-61.97-217.99-77.32-272h35.98c8.29 0 15-6.72 15-15s-6.71-15-15-15h-44.51l-17.06-60h31.57c8.29 0 15-6.72 15-15s-6.71-15-15-15h-153.31l-11.86-77.28c-1.26-8.18-8.91-13.81-17.1-12.55s-13.81 8.92-12.55 17.11l27.23 177.44-57.14 299.47c-1.55 8.14 3.79 15.99 11.92 17.54 7.934 1.586 15.975-3.655 17.55-11.92l55.3-289.81h102.79c31.99 112.52 51.97 182.82 82.75 291.1 1.83 6.45 7.72 10.9 14.42 10.9h30c8.29 0 15-6.72 15-15s-6.71-15-15-15zm-229.5-302-9.21-60h85.96l17.05 60z" fill="#ff9100"/><path d="m413.378 497.006c0 8.28-6.71 15-15 15h-30c-6.7 0-12.59-4.45-14.42-10.9-30.78-108.28-50.76-178.58-82.75-291.1h-30.2v-30h21.67l-17.05-60h-4.62v-30h67.37c8.29 0 15 6.72 15 15s-6.71 15-15 15h-31.57l17.06 60h44.51c8.29 0 15 6.72 15 15s-6.71 15-15 15h-35.98c15.35 54.01 9.7 34.15 77.32 272h18.66c8.29 0 15 6.72 15 15z" fill="#ff641a"/></svg>