<svg id="Capa_1" enable-background="new 0 0 512 512" height="512" viewBox="0 0 512 512" width="512" xmlns="http://www.w3.org/2000/svg"><path d="m316 91h-120c-28.95 0-55.2 11.78-74.21 30.79s-30.79 45.26-30.79 74.21c0 24.81 20.19 45 45 45h240c24.81 0 45-20.19 45-45 0-57.9-47.1-105-105-105z" fill="#ffda2d"/><path d="m421 196c0 24.81-20.19 45-45 45h-135l-119.21-119.21c19.01-19.01 45.26-30.79 74.21-30.79h120c57.9 0 105 47.1 105 105z" fill="#fdbf00"/><path d="m376 271h-240c-24.81 0-45 20.19-45 45 0 41.35 33.65 75 75 75h180c12.98 0 25.2-3.31 35.86-9.14 23.3-12.74 39.14-37.49 39.14-65.86 0-24.81-20.19-45-45-45z" fill="#ffda2d"/><path d="m421 316c0 28.37-15.84 53.12-39.14 65.86l-110.86-110.86h105c24.81 0 45 20.19 45 45z" fill="#fdbf00"/><path d="m376 211h-240c-24.81 0-45 20.19-45 45s20.19 45 45 45h240c24.81 0 45-20.19 45-45s-20.19-45-45-45z" fill="#ff9100"/><path d="m421 256c0 24.81-20.19 45-45 45h-75l-90-90h165c24.81 0 45 20.19 45 45z" fill="#ff641a"/><path d="m256 0c-70.79 0-134.79 28.61-181.09 74.91h-.01c-46.3 46.31-74.9 110.31-74.9 181.09 0 141.61 114.43 256 256 256 70.79 0 134.79-28.61 181.09-74.91 46.31-46.3 74.91-110.3 74.91-181.09 0-141.61-114.43-256-256-256zm-226 256c0-57.098 21.059-109.182 55.859-148.921l319.08 319.08c-39.73 34.776-91.807 55.841-148.939 55.841-125.09 0-226-100.86-226-226zm396.16 148.94-319.082-319.082c39.729-34.792 91.798-55.858 148.922-55.858 125.09 0 226 100.86 226 226 0 57.125-21.05 109.202-55.84 148.94z" fill="#ff641a"/><path d="m512 256c0-141.61-114.43-256-256-256-70.79 0-134.79 28.61-181.09 74.91l362.18 362.18c46.31-46.3 74.91-110.3 74.91-181.09zm-30 0c0 57.125-21.05 109.202-55.84 148.94l-319.082-319.082c39.729-34.792 91.798-55.858 148.922-55.858 125.09 0 226 100.86 226 226z" fill="#f03800"/></svg>