<svg id="Capa_1" enable-background="new 0 0 512 512" height="512" viewBox="0 0 512 512" width="512" xmlns="http://www.w3.org/2000/svg"><path d="m301 75.91c0-8.284-6.716-15-15-15h-60c-8.284 0-15 6.716-15 15v60l47 13 43-13z" fill="#465a61"/><path d="m181 375.91v60c0 8.284 6.716 15 15 15h120c8.284 0 15-6.716 15-15v-60l-80-8z" fill="#596c76"/><path d="m331 255.91v120h-150v-120c0-19.95 8.19-38.96 22.14-52.86 2.45-2.44 5.07-4.73 7.86-6.83v-60.31h90v60.31c18.69 14.09 30 36.24 30 59.69z" fill="#76e2f8"/><path d="m331 255.91v75l-127.86-127.86c2.45-2.44 5.07-4.73 7.86-6.83v-60.31h90v60.31c18.69 14.09 30 36.24 30 59.69z" fill="#4bb9ec"/><path d="m256 0c-70.79 0-134.79 28.61-181.09 74.91h-.01c-46.3 46.31-74.9 110.31-74.9 181.09 0 141.61 114.43 256 256 256 70.79 0 134.79-28.61 181.09-74.91 46.31-46.3 74.91-110.3 74.91-181.09 0-141.61-114.43-256-256-256zm-226 256c0-57.098 21.059-109.182 55.859-148.921l319.08 319.08c-39.73 34.776-91.807 55.841-148.939 55.841-125.09 0-226-100.86-226-226zm396.16 148.94-319.082-319.082c39.729-34.792 91.798-55.858 148.922-55.858 125.09 0 226 100.86 226 226 0 57.125-21.05 109.202-55.84 148.94z" fill="#ff641a"/><path d="m512 256c0-141.61-114.43-256-256-256-70.79 0-134.79 28.61-181.09 74.91l362.18 362.18c46.31-46.3 74.91-110.3 74.91-181.09zm-30 0c0 57.125-21.05 109.202-55.84 148.94l-319.082-319.082c39.729-34.792 91.798-55.858 148.922-55.858 125.09 0 226 100.86 226 226z" fill="#f03800"/></svg>