<svg id="Capa_1" enable-background="new 0 0 512.867 512.867" height="512" viewBox="0 0 512.867 512.867" width="512" xmlns="http://www.w3.org/2000/svg"><path d="m256.434 0c-90.98 0-165 74.02-165 165 0 37.26 12.83 73.81 36.06 102.85l117.17 148.44c2.84 3.61 7.18 5.71 11.77 5.71s8.93-2.1 11.77-5.71l117.11-148.37c23.29-29.11 36.12-65.66 36.12-102.92 0-90.98-74.02-165-165-165z" fill="#ff9100"/><path d="m421.434 165c0 37.26-12.83 73.81-36.12 102.92l-117.11 148.37c-2.84 3.61-7.18 5.71-11.77 5.71v-422c90.98 0 165 74.02 165 165z" fill="#ff641a"/><path d="m256.434 60c-57.9 0-105 47.1-105 105s47.1 105 105 105 105-47.1 105-105-47.1-105-105-105z" fill="#e6ffff"/><path d="m361.434 165c0 57.9-47.1 105-105 105v-210c57.9 0 105 47.1 105 105z" fill="#d9f2ff"/><path d="m295.424 157.52-26-45.02c-2.68-4.64-7.63-7.5-12.99-7.5s-10.31 2.86-12.99 7.5l-26 45.02c-3.93 6.81-6.01 14.58-6.01 22.48 0 24.81 20.19 45 45 45s45-20.19 45-45c0-7.9-2.08-15.67-6.01-22.48z" fill="#76e2f8"/><path d="m301.434 180c0 24.81-20.19 45-45 45v-120c5.36 0 10.31 2.86 12.99 7.5l26 45.02c3.93 6.81 6.01 14.58 6.01 22.48z" fill="#4bb9ec"/><path d="m508.043 462.39c-5.86-5.85-15.36-5.85-21.22 0-27.295 27.315-72.498 27.302-99.78 0-2.82-2.81-6.63-4.39-10.61-4.39s-7.79 1.58-10.61 4.39c-27.295 27.315-71.512 27.288-98.78 0-2.82-2.81-6.63-4.39-10.61-4.39s-7.79 1.58-10.61 4.39c-27.295 27.315-71.512 27.288-98.78 0-2.82-2.81-6.63-4.39-10.61-4.39s-7.79 1.58-10.61 4.39c-27.295 27.315-72.498 27.302-99.78 0-5.86-5.85-15.36-5.85-21.22 0-5.85 5.86-5.85 15.36 0 21.22 36.15 36.15 92.96 38.3 131.6 9.22 35.447 26.755 84.693 26.667 120.01.01 35.312 26.653 84.557 26.75 120.01-.01 38.635 29.077 95.447 26.933 131.6-9.22 5.851-5.86 5.851-15.36 0-21.22z" fill="#76e2f8"/><path d="m508.043 402.39c-5.86-5.85-15.36-5.85-21.22 0-27.295 27.315-72.498 27.302-99.78 0-2.82-2.81-6.63-4.39-10.61-4.39s-7.79 1.58-10.61 4.39c-27.295 27.315-71.512 27.288-98.78 0-2.82-2.81-6.63-4.39-10.61-4.39s-7.79 1.58-10.61 4.39c-27.295 27.315-71.512 27.288-98.78 0-2.82-2.81-6.63-4.39-10.61-4.39s-7.79 1.58-10.61 4.39c-27.295 27.315-72.498 27.302-99.78 0-5.86-5.85-15.36-5.85-21.22 0-5.85 5.86-5.85 15.36 0 21.22 36.15 36.15 92.96 38.3 131.6 9.22 35.447 26.755 84.693 26.667 120.01.01 35.312 26.653 84.557 26.75 120.01-.01 38.635 29.077 95.447 26.933 131.6-9.22 5.851-5.86 5.851-15.36 0-21.22z" fill="#76e2f8"/><g fill="#4bb9ec"><path d="m508.043 462.39c-5.86-5.85-15.36-5.85-21.22 0-27.295 27.315-72.498 27.302-99.78 0-2.82-2.81-6.63-4.39-10.61-4.39s-7.79 1.58-10.61 4.39c-27.295 27.315-71.512 27.288-98.78 0-2.82-2.81-6.63-4.39-10.61-4.39v34.84c35.312 26.653 84.557 26.75 120.01-.01 38.635 29.077 95.447 26.933 131.6-9.22 5.851-5.86 5.851-15.36 0-21.22z"/><path d="m508.043 402.39c-5.86-5.85-15.36-5.85-21.22 0-27.295 27.315-72.498 27.302-99.78 0-2.82-2.81-6.63-4.39-10.61-4.39s-7.79 1.58-10.61 4.39c-27.295 27.315-71.512 27.288-98.78 0-2.82-2.81-6.63-4.39-10.61-4.39v34.84c35.312 26.653 84.557 26.75 120.01-.01 38.635 29.077 95.447 26.933 131.6-9.22 5.851-5.86 5.851-15.36 0-21.22z"/></g></svg>