<svg id="Capa_1" enable-background="new 0 0 512.02 512.02" height="512" viewBox="0 0 512.02 512.02" width="512" xmlns="http://www.w3.org/2000/svg"><path d="m505.34 243.365-47.49-31.66c-5.96-3.97-8.06-11.81-4.85-18.3l25.13-51.46c2.19-4.49 2-9.78-.51-14.11s-7.01-7.12-12.01-7.44l-56.96-3.67c-7.15-.46-12.89-6.2-13.35-13.43l-3.96-57.12c-.35-4.99-3.16-9.48-7.5-11.97-4.34-2.5-9.63-2.66-14.12-.44l-51.17 25.3c-6.378 3.157-14.194 1.164-18.27-4.95l-32-47.49c-2.75-4.09-7.34-6.56-12.27-6.61-.06-.01-.11-.01-.17-.01h-.03c-5 .01-9.67 2.51-12.45 6.68l-31.66 47.49c-3.956 5.935-11.729 8.113-18.3 4.86l-51.46-25.14c-4.49-2.19-9.78-2-14.11.51s-7.12 7.01-7.44 12l-3.67 56.97c-.46 7.15-6.2 12.89-13.43 13.35l-57.12 3.96c-4.99.35-9.48 3.16-11.97 7.5-2.5 4.34-2.66 9.63-.44 14.12l25.3 51.16c3.17 6.42 1.07 14.27-4.95 18.28l-47.49 32c-4.15 2.79-6.64 7.47-6.62 12.47.01 5 2.51 9.67 6.68 12.45l47.49 31.66c5.96 3.97 8.06 11.82 4.86 18.3l-25.14 51.46c-2.19 4.49-2 9.78.51 14.11s7.01 7.12 12 7.44l56.97 3.67c7.15.46 12.89 6.2 13.35 13.43l3.96 57.12c.35 4.99 3.16 9.48 7.5 11.97 4.34 2.5 9.63 2.66 14.12.44l51.16-25.29c6.403-3.201 14.241-1.118 18.24 4.88.01.01.01.02.02.03l31.83 47.49c2.79 4.15 7.46 6.64 12.46 6.64s9.67-2.49 12.46-6.64l31.85-47.52c3.915-5.873 11.663-8.152 18.3-4.85l51.46 25.13c4.5 2.19 9.79 2 14.11-.51 4.33-2.51 7.12-7.01 7.44-12l3.67-56.97c.46-7.15 6.2-12.89 13.42-13.35l57.13-3.96c4.99-.35 9.48-3.16 11.98-7.5 2.49-4.34 2.65-9.63.43-14.12l-25.3-51.16c-3.17-6.43-1.07-14.26 4.95-18.28l47.49-32c4.15-2.79 6.63-7.47 6.62-12.47s-2.52-9.67-6.68-12.45z" fill="#ffda2d"/><path d="m512.02 255.815c.01 5-2.47 9.68-6.62 12.47l-47.49 32c-6.02 4.02-8.12 11.85-4.95 18.28l25.3 51.16c2.22 4.49 2.06 9.78-.43 14.12-2.5 4.34-6.99 7.15-11.98 7.5l-57.13 3.96c-7.22.46-12.96 6.2-13.42 13.35l-3.67 56.97c-.32 4.99-3.11 9.49-7.44 12-4.32 2.51-9.61 2.7-14.11.51l-51.46-25.13c-6.642-3.305-14.387-1.019-18.3 4.85l-31.85 47.52c-2.79 4.15-7.46 6.64-12.46 6.64v-512c4.93.05 9.52 2.52 12.27 6.61l32 47.49c4.076 6.113 11.891 8.108 18.27 4.95l51.17-25.3c4.49-2.22 9.78-2.06 14.12.44 4.34 2.49 7.15 6.98 7.5 11.97l3.96 57.12c.46 7.23 6.2 12.97 13.35 13.43l56.96 3.67c5 .32 9.5 3.11 12.01 7.44s2.7 9.62.51 14.11l-25.13 51.46c-3.21 6.49-1.11 14.33 4.85 18.3l47.49 31.66c4.16 2.78 6.67 7.45 6.68 12.45z" fill="#fdbf00"/><path d="m256.01 406.015c-82.71 0-150-67.29-150-150s67.29-150 150-150 150 67.29 150 150-67.29 150-150 150z" fill="#fff261"/><path d="m256.01 106.015v300c82.71 0 150-67.29 150-150s-67.29-150-150-150z" fill="#ffda2d"/></svg>