<svg id="Capa_1" enable-background="new 0 0 511.995 511.995" height="512" viewBox="0 0 511.995 511.995" width="512" xmlns="http://www.w3.org/2000/svg"><path d="m135.998 345.572c-8.284 0-15-6.716-15-15v-120c0-8.284 6.716-15 15-15s15 6.716 15 15v120c0 8.285-6.716 15-15 15z" fill="#e6ffff"/><path d="m195.998 345.572c-8.284 0-15-6.716-15-15v-120c0-8.284 6.716-15 15-15s15 6.716 15 15v120c0 8.285-6.716 15-15 15z" fill="#e6ffff"/><path d="m270.997 210.572v120c0 8.28-6.72 15-15 15s-15-6.72-15-15v-120c0-8.28 6.72-15 15-15 8.281 0 15 6.72 15 15z" fill="#e6ffff"/><g fill="#d9f2ff"><path d="m270.997 210.572v120c0 8.28-6.72 15-15 15v-150c8.281 0 15 6.72 15 15z"/><path d="m315.997 345.572c-8.284 0-15-6.716-15-15v-120c0-8.284 6.716-15 15-15s15 6.716 15 15v120c0 8.285-6.715 15-15 15z"/><path d="m375.997 345.572c-8.284 0-15-6.716-15-15v-120c0-8.284 6.716-15 15-15s15 6.716 15 15v120c0 8.285-6.715 15-15 15z"/><path d="m450.997 330.572c0 8.28-6.72 15-15 15h-360c-8.28 0-15-6.72-15-15s6.72-15 15-15h360c8.281 0 15 6.72 15 15z"/><path d="m450.997 270.572c0 8.28-6.72 15-15 15h-360c-8.28 0-15-6.72-15-15s6.72-15 15-15h360c8.281 0 15 6.72 15 15z"/></g><path d="m450.997 330.572c0 8.28-6.72 15-15 15h-180v-30h180c8.281 0 15 6.72 15 15z" fill="#cdf"/><path d="m435.997 285.572h-180v-30h180c8.28 0 15 6.72 15 15s-6.719 15-15 15z" fill="#cdf"/><path d="m450.997 210.572v204.77c0 8.28-6.72 15-15 15s-15-6.72-15-15v-189.77h-330v189.85c0 8.28-6.72 15-15 15s-15-6.72-15-15v-204.85c0-8.28 6.72-15 15-15h360c8.281 0 15 6.72 15 15z" fill="#fdbf00"/><path d="m450.997 210.572v204.77c0 8.28-6.72 15-15 15s-15-6.72-15-15v-189.77h-165v-30h180c8.281 0 15 6.72 15 15z" fill="#ff9100"/><path d="m255.998 165.572c-41.355 0-75-33.645-75-75s33.645-75 75-75 75 33.645 75 75-33.646 75-75 75z" fill="#ff9100"/><path d="m255.998 15.572v150c41.355 0 75-33.645 75-75s-33.646-75-75-75z" fill="#ff641a"/><path d="m507.607 467.182c-18.86 18.86-44.12 29.24-71.11 29.24-22.2 0-43.23-7.03-60.49-20.02-17.21 12.99-38.07 20.02-60.01 20.02s-42.79-7.02-60-20.01c-17.21 12.99-38.06 20.01-60 20.01s-42.8-7.03-60.01-20.02c-17.26 12.99-38.29 20.02-60.49 20.02-26.99 0-52.25-10.38-71.11-29.24-5.85-5.86-5.85-15.36 0-21.22 5.86-5.85 15.36-5.85 21.22 0 13.19 13.2 30.91 20.46 49.89 20.46s36.7-7.26 49.89-20.46c5.86-5.85 15.36-5.85 21.22 0 13.19 13.2 30.73 20.46 49.39 20.46s36.2-7.26 49.39-20.46c2.93-2.93 6.77-4.39 10.61-4.39s7.68 1.46 10.61 4.39c13.19 13.2 30.73 20.46 49.39 20.46s36.2-7.26 49.39-20.46c5.86-5.85 15.36-5.85 21.22 0 13.19 13.2 30.91 20.46 49.89 20.46s36.7-7.26 49.89-20.46c5.86-5.85 15.36-5.85 21.22 0 5.851 5.86 5.851 15.36 0 21.22z" fill="#76e2f8"/><path d="m507.607 407.182c-18.86 18.86-44.12 29.24-71.11 29.24-22.2 0-43.23-7.03-60.49-20.02-17.21 12.99-38.07 20.02-60.01 20.02s-42.79-7.02-60-20.01c-17.21 12.99-38.06 20.01-60 20.01s-42.8-7.03-60.01-20.02c-17.26 12.99-38.29 20.02-60.49 20.02-26.99 0-52.25-10.38-71.11-29.24-5.85-5.86-5.85-15.36 0-21.22 5.86-5.85 15.36-5.85 21.22 0 13.19 13.2 30.91 20.46 49.89 20.46s36.7-7.26 49.89-20.46c5.86-5.85 15.36-5.85 21.22 0 13.19 13.2 30.73 20.46 49.39 20.46s36.2-7.26 49.39-20.46c2.93-2.93 6.77-4.39 10.61-4.39s7.68 1.46 10.61 4.39c13.19 13.2 30.73 20.46 49.39 20.46s36.2-7.26 49.39-20.46c5.86-5.85 15.36-5.85 21.22 0 13.19 13.2 30.91 20.46 49.89 20.46s36.7-7.26 49.89-20.46c5.86-5.85 15.36-5.85 21.22 0 5.851 5.86 5.851 15.36 0 21.22z" fill="#76e2f8"/><path d="m507.607 445.963c5.85 5.86 5.85 15.36 0 21.22-18.86 18.86-44.12 29.24-71.11 29.24-22.2 0-43.23-7.03-60.49-20.02-17.21 12.99-38.07 20.02-60.01 20.02s-42.79-7.02-60-20.01v-34.84c3.84 0 7.68 1.46 10.61 4.39 13.19 13.2 30.73 20.46 49.39 20.46s36.2-7.26 49.39-20.46c5.86-5.85 15.36-5.85 21.22 0 13.19 13.2 30.91 20.46 49.89 20.46s36.7-7.26 49.89-20.46c5.86-5.851 15.36-5.851 21.22 0z" fill="#4bb9ec"/><path d="m315.997 436.423c-21.94 0-42.79-7.02-60-20.01v-34.84c3.84 0 7.68 1.46 10.61 4.39 13.19 13.2 30.73 20.46 49.39 20.46s36.2-7.26 49.39-20.46c5.86-5.85 15.36-5.85 21.22 0 13.19 13.2 30.91 20.46 49.89 20.46s36.7-7.26 49.89-20.46c5.86-5.85 15.36-5.85 21.22 0 5.85 5.86 5.85 15.36 0 21.22-18.86 18.86-44.12 29.24-71.11 29.24-22.2 0-43.23-7.03-60.49-20.02-17.21 12.989-38.069 20.02-60.01 20.02z" fill="#4bb9ec"/></svg>