<svg id="Capa_1" enable-background="new 0 0 512 512" height="512" viewBox="0 0 512 512" width="512" xmlns="http://www.w3.org/2000/svg"><path d="m315.91 62h-119.91c-8.28 0-15 6.72-15 15 0 23.54 11.3 45.74 30 59.82v360.18c0 8.28 6.72 15 15 15h60c8.28 0 15-6.72 15-15v-360.42c17.53-13.83 28.77-35.65 29.89-58.86.417-8.541-6.399-15.72-14.98-15.72z" fill="#ff641a"/><path d="m330.89 77.72c-1.12 23.21-12.36 45.03-29.89 58.86v360.42c0 8.28-6.72 15-15 15h-30v-450h59.91c8.552 0 15.398 7.149 14.98 15.72z" fill="#f03800"/><path d="m31 437 92 14 103-14v-60l-103-14-92 14z" fill="#d9f2ff"/><path d="m31 257v60l92 14 103-14v-60l-99-12z" fill="#d9f2ff"/><path d="m481 257-94-14-101 14v60l101 8 94-8z" fill="#cdf"/><path d="m481 377-97-15-98 15v60l104 14 91-14z" fill="#cdf"/><path d="m31 497c0 8.284 6.716 15 15 15h180v-75h-195z" fill="#ff9100"/><path d="m31 317h195v60h-195z" fill="#ff9100"/><path d="m226 128.8c0-5.345-2.845-10.287-7.467-12.971-13.899-8.072-22.533-22.951-22.533-38.829v-62c0-8.284-6.716-15-15-15h-75c-8.284 0-15 6.716-15 15v122c0 24.813-20.187 45-45 45-8.284 0-15 6.716-15 15v60h195z" fill="#ff9100"/><g fill="#ff641a"><path d="m286 317h195v60h-195z"/><path d="m481 197c0-8.284-6.716-15-15-15-24.813 0-45-20.187-45-45v-122c0-8.284-6.716-15-15-15h-75c-8.284 0-15 6.716-15 15v58.79c0 16.701-8.393 33.408-22.793 42.163-4.475 2.721-7.207 7.579-7.207 12.817v128.23h195z"/><path d="m286 437v75h180c8.284 0 15-6.716 15-15v-60z"/></g></svg>