<svg id="Capa_1" enable-background="new 0 0 512 512" height="512" viewBox="0 0 512 512" width="512" xmlns="http://www.w3.org/2000/svg"><path d="m512 256c0 140.7-115.3 256-256 256s-256-115.3-256-256 115.3-256 256-256 256 115.3 256 256z" fill="#ffda2d"/><path d="m512 256c0 140.7-115.3 256-256 256v-512c140.7 0 256 115.3 256 256z" fill="#fdbf00"/><path d="m385 388.001c-6.599 5.099-15.899 3.9-21-3.001-25.8-34.2-65.099-54-107.999-54s-82.2 19.799-107.999 54c-5.101 6.601-14.401 8.101-21 3.001-6.601-4.801-8.101-14.401-3.001-21 31.5-42.001 79.799-66.001 131.999-66.001s100.499 24 132.001 66c5.099 6.599 3.6 16.2-3.001 21.001z" fill="#725d57"/><path d="m106 181c-8.291 0-15-6.709-15-15s6.709-15 15-15c24.814 0 45-20.186 45-45 0-8.291 6.709-15 15-15s15 6.709 15 15c0 41.353-33.647 75-75 75z" fill="#725d57"/><path d="m406 181c-41.353 0-75-33.647-75-75 0-8.291 6.709-15 15-15s15 6.709 15 15c0 24.814 20.186 45 45 45 8.291 0 15 6.709 15 15s-6.709 15-15 15z" fill="#53433f"/><path d="m196 271c-24.814 0-45-20.186-45-45s20.186-45 45-45 45 20.186 45 45-20.186 45-45 45z" fill="#725d57"/><g fill="#53433f"><path d="m316 271c-24.814 0-45-20.186-45-45s20.186-45 45-45 45 20.186 45 45-20.186 45-45 45z"/><path d="m385 388.001c-6.599 5.099-15.899 3.9-21-3.001-25.8-34.2-65.099-54-107.999-54v-30c52.2 0 100.499 24 132.001 66 5.098 6.599 3.599 16.2-3.002 21.001z"/></g></svg>