<svg id="Capa_1" enable-background="new 0 0 512 512" height="512" viewBox="0 0 512 512" width="512" xmlns="http://www.w3.org/2000/svg"><path d="m512 256c0 8.699-.3 17.401-1.199 26.1h-509.602c-.899-8.699-1.199-17.401-1.199-26.1 0-140.7 115.3-256 256-256s256 115.3 256 256z" fill="#b9b6ec"/><path d="m512 256c0 8.699-.3 17.401-1.199 26.1h-254.801v-282.1c140.7 0 256 115.3 256 256z" fill="#979fef"/><path d="m510.801 282.1c-13.2 128.401-122.8 229.9-254.801 229.9s-241.601-101.499-254.801-229.9c47.401-77.699 144.101-131.1 254.801-131.1s207.4 53.401 254.801 131.1z" fill="#ffda2d"/><path d="m510.801 282.1c-13.2 128.401-122.8 229.9-254.801 229.9v-361c110.7 0 207.4 53.401 254.801 131.1z" fill="#fdbf00"/><path d="m276.64 216.522c-15.279-41.931 1.695-80.454 30.732-90.996 31.04-11.396 67.866 11.089 82.017 49.951 15.279 41.931-1.695 80.454-30.732 90.996-31.137 11.361-67.738-10.673-82.017-49.951z" fill="#ffe6b3"/><path d="m153.344 266.474c-29.187-10.596-45.921-49.313-30.732-90.996 14.136-38.862 50.918-61.333 82.017-49.951 29.187 10.596 45.921 49.313 30.732 90.996-15.245 41.931-53.005 60.536-82.017 49.951z" fill="#ffe6b3"/><path d="m466 512h-60c-8.291 0-15-6.709-15-15v-100.536c0-36.548 14.238-70.913 40.078-96.753 13.652-13.638 34.223-17.52 52.021-10.151 17.827 7.382 28.901 23.964 28.901 43.256 0 12.334-4.995 24.39-13.711 33.105-10.503 10.504-16.289 24.478-16.289 39.332v91.747c0 8.291-7.709 15-16 15z" fill="#ff9100"/><path d="m106 512h-60c-8.291 0-16-6.709-16-15v-91.747c0-14.854-5.786-28.828-16.289-39.331-8.716-8.716-13.711-20.772-13.711-33.106 0-19.292 11.074-35.874 28.901-43.257 17.798-7.368 38.368-3.486 52.021 10.151 25.84 25.84 40.078 60.205 40.078 96.753v100.537c0 8.291-6.709 15-15 15z" fill="#fdbf00"/><path d="m331 346v16.8h-150v-16.8c0-41.4 33.6-75 75-75s75 33.6 75 75z" fill="#f03800"/><path d="m331 346v16.8h-75v-91.8c41.4 0 75 33.6 75 75z" fill="#cd0000"/><path d="m256 331c-29.399 0-56.1 12.001-75 31.8v13.2c0 41.4 33.6 75 75 75s75-33.6 75-75v-13.2c-18.9-19.799-45.601-31.8-75-31.8z" fill="#ff641a"/><path d="m331 362.8v13.2c0 41.4-33.6 75-75 75v-120c29.399 0 56.1 12.001 75 31.8z" fill="#f03800"/></svg>