<svg id="Capa_1" enable-background="new 0 0 512 512" height="512" viewBox="0 0 512 512" width="512" xmlns="http://www.w3.org/2000/svg"><path d="m512 256c0 140.7-115.3 256-256 256s-256-115.3-256-256 115.3-256 256-256 256 115.3 256 256z" fill="#ffda2d"/><path d="m512 256c0 140.7-115.3 256-256 256v-512c140.7 0 256 115.3 256 256z" fill="#fdbf00"/><path d="m166 241c-24.814 0-45-20.186-45-45s20.186-45 45-45 45 20.186 45 45-20.186 45-45 45z" fill="#725d57"/><path d="m346 241c-24.814 0-45-20.186-45-45s20.186-45 45-45 45 20.186 45 45-20.186 45-45 45z" fill="#53433f"/><path d="m166 391c-8.291 0-15-6.709-15-15v-30c0-8.291 6.709-15 15-15s15 6.709 15 15v30c0 8.291-6.709 15-15 15z" fill="#725d57"/><path d="m226 391c-8.291 0-15-6.709-15-15v-30c0-8.291 6.709-15 15-15s15 6.709 15 15v30c0 8.291-6.709 15-15 15z" fill="#725d57"/><path d="m286 391c-8.291 0-15-6.709-15-15v-30c0-8.291 6.709-15 15-15s15 6.709 15 15v30c0 8.291-6.709 15-15 15z" fill="#53433f"/><path d="m196 361c-8.291 0-15-6.709-15-15v-30c0-8.291 6.709-15 15-15s15 6.709 15 15v30c0 8.291-6.709 15-15 15z" fill="#725d57"/><path d="m271 316v30c0 8.399-6.599 15-15 15s-15-6.601-15-15v-30c0-8.401 6.599-15 15-15s15 6.599 15 15z" fill="#725d57"/><path d="m316 361c-8.291 0-15-6.709-15-15v-30c0-8.291 6.709-15 15-15s15 6.709 15 15v30c0 8.291-6.709 15-15 15z" fill="#53433f"/><path d="m271 316v30c0 8.399-6.599 15-15 15v-60c8.401 0 15 6.599 15 15z" fill="#53433f"/><path d="m391 346c0 8.399-6.599 15-15 15h-240c-8.401 0-15-6.601-15-15 0-8.401 6.599-15 15-15h240c8.401 0 15 6.599 15 15z" fill="#725d57"/><path d="m391 346c0 8.399-6.599 15-15 15h-120v-30h120c8.401 0 15 6.599 15 15z" fill="#53433f"/><path d="m399.408 512h-46.816c-13.535 0-26.221-6.006-34.805-16.479-8.584-10.459-11.982-25.082-9.316-38.354l16.934-84.697c4.819-24.038 26.103-41.47 50.595-41.47s45.776 17.432 50.596 41.47l16.934 84.697c2.666 13.271-.732 27.895-9.316 38.354-8.585 10.473-21.271 16.479-34.806 16.479z" fill="#ffe6b3"/><circle cx="376" cy="406" fill="#53433f" r="15"/></svg>