<svg id="Capa_1" enable-background="new 0 0 512 512" height="512" viewBox="0 0 512 512" width="512" xmlns="http://www.w3.org/2000/svg"><path d="m512 256c0 140.7-115.3 256-256 256s-256-115.3-256-256 115.3-256 256-256 256 115.3 256 256z" fill="#ffda2d"/><path d="m512 256c0 140.7-115.3 256-256 256v-512c140.7 0 256 115.3 256 256z" fill="#fdbf00"/><path d="m391 286c0 37.2-15 71.1-39.6 95.4-24.3 24.6-58.2 39.6-95.4 39.6-74.7 0-135-60.3-135-135 0-8.401 6.599-15 15-15h240c8.401 0 15 6.599 15 15z" fill="#f03800"/><path d="m391 286c0 37.2-15 71.1-39.6 95.4-24.3 24.6-58.2 39.6-95.4 39.6v-150h120c8.401 0 15 6.599 15 15z" fill="#cd0000"/><path d="m166 151c-8.276 0-15-6.724-15-15s6.724-15 15-15 15 6.724 15 15c0 8.291 6.709 15 15 15s15-6.709 15-15c0-19.53-12.578-36.024-30-42.237v-17.763c0-8.291-6.709-15-15-15s-15 6.709-15 15v17.763c-17.422 6.213-30 22.707-30 42.237 0 24.814 20.186 45 45 45 8.276 0 15 6.724 15 15s-6.724 15-15 15-15-6.724-15-15c0-8.291-6.709-15-15-15s-15 6.709-15 15c0 19.53 12.578 36.024 30 42.237v17.763c0 8.291 6.709 15 15 15s15-6.709 15-15v-17.763c17.422-6.213 30-22.707 30-42.237 0-24.814-20.186-45-45-45z" fill="#725d57"/><path d="m346 151c-8.276 0-15-6.724-15-15s6.724-15 15-15 15 6.724 15 15c0 8.291 6.709 15 15 15s15-6.709 15-15c0-19.53-12.578-36.024-30-42.237v-17.763c0-8.291-6.709-15-15-15s-15 6.709-15 15v17.763c-17.422 6.213-30 22.707-30 42.237 0 24.814 20.186 45 45 45 8.276 0 15 6.724 15 15s-6.724 15-15 15-15-6.724-15-15c0-8.291-6.709-15-15-15s-15 6.709-15 15c0 19.53 12.578 36.024 30 42.237v17.763c0 8.291 6.709 15 15 15s15-6.709 15-15v-17.763c17.422-6.213 30-22.707 30-42.237 0-24.814-20.186-45-45-45z" fill="#53433f"/><path d="m286 331c-11.4 0-21.899 4.499-30 11.4-8.101-6.901-18.6-11.4-30-11.4-24.901 0-45 20.099-45 45v60c0 41.4 33.6 76 75 76s75-34.6 75-76v-60c0-24.901-20.099-45-45-45z" fill="#ff641a"/><path d="m331 376v60c0 41.4-33.6 76-75 76v-169.6c8.101-6.901 18.6-11.4 30-11.4 24.901 0 45 20.099 45 45z" fill="#f03800"/></svg>