<svg id="Capa_1" enable-background="new 0 0 512 512" height="512" viewBox="0 0 512 512" width="512" xmlns="http://www.w3.org/2000/svg"><path d="m512 256c0 140.7-115.3 256-256 256s-256-115.3-256-256 115.3-256 256-256 256 115.3 256 256z" fill="#ffda2d"/><path d="m512 256c0 140.7-115.3 256-256 256v-512c140.7 0 256 115.3 256 256z" fill="#fdbf00"/><path d="m196 211c-24.814 0-45-20.186-45-45s20.186-45 45-45 45 20.186 45 45-20.186 45-45 45z" fill="#725d57"/><path d="m316 211c-24.814 0-45-20.186-45-45s20.186-45 45-45 45 20.186 45 45-20.186 45-45 45z" fill="#53433f"/><path d="m340.901 303.699-127.2 127.2c-6 5.7-15.3 5.7-21.301 0l-21.301-21.299c-5.7-6-5.7-15.3 0-21.301l127.2-127.2c6-5.7 15.3-5.7 21.301 0l21.301 21.301c5.7 5.999 5.7 15.3 0 21.299z" fill="#ffe6b3"/><path d="m340.901 303.699-84.901 84.9v-85.201l42.299-42.299c6-5.7 15.3-5.7 21.301 0l21.301 21.301c5.7 5.999 5.7 15.3 0 21.299z" fill="#ffca80"/><path d="m340.901 409.6-21.301 21.299c-6 5.7-15.3 5.7-21.301 0l-127.2-127.2c-5.7-5.999-5.7-15.3 0-21.299l21.301-21.301c6-5.7 15.3-5.7 21.301 0l127.2 127.2c5.7 6.001 5.7 15.3 0 21.301z" fill="#fff7cc"/><path d="m340.901 409.6-21.301 21.299c-6 5.7-15.3 5.7-21.301 0l-42.299-42.3v-85.201l84.901 84.901c5.7 6.001 5.7 15.3 0 21.301z" fill="#ffe6b3"/></svg>