<svg id="Capa_1" enable-background="new 0 0 512 512" height="512" viewBox="0 0 512 512" width="512" xmlns="http://www.w3.org/2000/svg"><path d="m512 256c0 140.7-115.3 256-256 256s-256-115.3-256-256 115.3-256 256-256 256 115.3 256 256z" fill="#ffda2d"/><path d="m512 256c0 140.7-115.3 256-256 256v-512c140.7 0 256 115.3 256 256z" fill="#fdbf00"/><path d="m123.681 332.436c-4.731-6.797-3.047-16.157 3.75-20.889 19.702-13.696 41.309-24.141 64.248-31.04 7.91-2.417 16.289 2.139 18.691 10.049 2.373 7.939-2.124 16.304-10.049 18.691-19.907 5.977-38.657 15.044-55.752 26.938-6.726 4.686-16.123 3.1-20.888-3.749z" fill="#725d57"/><path d="m367.431 336.186c-17.095-11.895-35.845-20.962-55.752-26.938-7.925-2.388-12.422-10.752-10.049-18.691 2.388-7.91 10.737-12.466 18.691-10.049 22.939 6.899 44.546 17.344 64.248 31.04 6.797 4.731 8.481 14.092 3.75 20.889-4.756 6.834-14.15 8.443-20.888 3.749z" fill="#53433f"/><path d="m385 417.999c-6.599 5.101-15.899 3.9-21-2.999-25.8-34.2-65.099-54-107.999-54s-82.2 19.799-107.999 54c-5.101 6.599-14.401 8.101-21 2.999-6.601-4.799-8.101-14.399-3.001-20.999 31.5-42 79.799-66 131.999-66s100.499 24 132.001 66c5.099 6.599 3.6 16.2-3.001 20.999z" fill="#725d57"/><path d="m106 271c-8.291 0-15-6.709-15-15s6.709-15 15-15c24.814 0 45-20.186 45-45 0-8.291 6.709-15 15-15s15 6.709 15 15c0 41.353-33.647 75-75 75z" fill="#725d57"/><path d="m406 271c-41.353 0-75-33.647-75-75 0-8.291 6.709-15 15-15s15 6.709 15 15c0 24.814 20.186 45 45 45 8.291 0 15 6.709 15 15s-6.709 15-15 15z" fill="#53433f"/><path d="m512 151c0 16.5-13.5 30-30 30h-151c-16.5 0-30-13.5-30-30s13.5-30 30-30h30c-16.5 0-30-13.5-30-30s13.5-30 30-30h1.8c4.799-24.3 21.301-45.101 43.2-54.701 9.3-3.9 19.501-6.299 30-6.299h15c8.401 0 15 6.599 15 15 0 8.399-6.599 15-15 15s-15 7.599-15 16c0 8.399 6.599 15 15 15 16.5 0 31 13.5 31 30s-14.5 30-31 30h31c16.5 0 30 13.5 30 30z" fill="#c6715a"/><path d="m512 151c0 16.5-13.5 30-30 30h-76v-174.701c9.3-3.9 19.501-6.299 30-6.299h15c8.401 0 15 6.599 15 15 0 8.399-6.599 15-15 15s-15 7.599-15 16c0 8.399 6.599 15 15 15 16.5 0 31 13.5 31 30s-14.5 30-31 30h31c16.5 0 30 13.5 30 30z" fill="#b35f49"/><path d="m385 417.999c-6.599 5.101-15.899 3.9-21-2.999-25.8-34.2-65.099-54-107.999-54v-30c52.2 0 100.499 24 132.001 66 5.098 6.599 3.599 16.2-3.002 20.999z" fill="#53433f"/></svg>