<svg id="Capa_1" enable-background="new 0 0 512 512" height="512" viewBox="0 0 512 512" width="512" xmlns="http://www.w3.org/2000/svg"><path d="m512 256c0 140.7-115.3 256-256 256s-256-115.3-256-256 115.3-256 256-256 256 115.3 256 256z" fill="#ffda2d"/><path d="m512 256c0 140.7-115.3 256-256 256v-512c140.7 0 256 115.3 256 256z" fill="#fdbf00"/><path d="m361 361c-16.538 0-30-13.462-30-30s13.462-30 30-30c8.291 0 15-6.709 15-15s-6.709-15-15-15c-25.191 0-46.784 15.602-55.666 37.646-16.04-5.012-32.686-7.646-49.334-7.646s-33.294 2.634-49.334 7.646c-8.882-22.044-30.475-37.646-55.666-37.646-8.291 0-15 6.709-15 15s6.709 15 15 15c16.538 0 30 13.462 30 30s-13.462 30-30 30c-8.291 0-15 6.709-15 15s6.709 15 15 15c30.365 0 55.508-22.664 59.447-51.965 14.623-5.291 29.981-8.035 45.553-8.035s30.93 2.744 45.553 8.035c3.94 29.301 29.082 51.965 59.447 51.965 8.291 0 15-6.709 15-15s-6.709-15-15-15z" fill="#725d57"/><path d="m301.553 339.035c3.94 29.301 29.082 51.965 59.447 51.965 8.291 0 15-6.709 15-15s-6.709-15-15-15c-16.538 0-30-13.462-30-30s13.462-30 30-30c8.291 0 15-6.709 15-15s-6.709-15-15-15c-25.191 0-46.784 15.602-55.666 37.646-16.04-5.012-32.686-7.646-49.334-7.646v30c15.572 0 30.93 2.744 45.553 8.035z" fill="#53433f"/><path d="m226 91c-8.291 0-15 6.709-15 15v30c0 8.276-6.724 15-15 15h-90c-8.291 0-15 6.709-15 15s6.709 15 15 15h17.58c-1.665 4.695-2.58 9.741-2.58 15 0 24.814 20.186 45 45 45s45-20.186 45-45c0-5.856-1.136-11.449-3.181-16.586 19.097-5.205 33.181-22.69 33.181-43.414v-30c0-8.291-6.709-15-15-15z" fill="#725d57"/><path d="m406 151h-90c-8.276 0-15-6.724-15-15v-30c0-8.291-6.709-15-15-15s-15 6.709-15 15v30c0 20.724 14.084 38.209 33.181 43.414-2.045 5.137-3.181 10.73-3.181 16.586 0 24.814 20.186 45 45 45s45-20.186 45-45c0-5.259-.915-10.305-2.58-15h17.58c8.291 0 15-6.709 15-15s-6.709-15-15-15z" fill="#53433f"/><path d="m286 376c0 8.399-6.599 15-15 15h-30c-8.401 0-15-6.601-15-15 0-8.401 6.599-15 15-15h30c8.401 0 15 6.599 15 15z" fill="#725d57"/><path d="m286 376c0 8.399-6.599 15-15 15h-15v-30h15c8.401 0 15 6.599 15 15z" fill="#53433f"/></svg>