<svg id="Capa_1" enable-background="new 0 0 512 512" height="512" viewBox="0 0 512 512" width="512" xmlns="http://www.w3.org/2000/svg"><path d="m512 256c0 140.7-115.3 256-256 256s-256-115.3-256-256 115.3-256 256-256 256 115.3 256 256z" fill="#ffda2d"/><path d="m512 256c0 140.7-115.3 256-256 256v-512c140.7 0 256 115.3 256 256z" fill="#fdbf00"/><path d="m166 241c-41.353 0-75 33.647-75 75 0 36.577 26.118 67.646 62.095 73.887.864.146 1.729.22 2.578.22l61.392-129.038c-13.902-12.935-32.051-20.069-51.065-20.069z" fill="#ff641a"/><path d="m376 271h-56.001l26.001 90h30c24.814 0 45-20.186 45-45s-20.186-45-45-45z" fill="#f03800"/><path d="m125.395 206.605c-5.859-5.859-5.859-15.352 0-21.211 19.805-19.805 46.523-31.963 74.355-34.072-15.366-19.028-38.525-30.322-63.75-30.322-8.291 0-15-6.709-15-15s6.709-15 15-15c76.834 0 100.75 65.289 103.418 68.291 4.998 9.966-2.31 21.709-13.418 21.709h-17.578c-23.013 0-45.542 9.331-61.816 25.605-5.86 5.86-15.352 5.86-21.211 0z" fill="#725d57"/><path d="m365.395 206.605c-16.275-16.274-38.804-25.605-61.817-25.605h-17.578c-11.107 0-18.417-11.743-13.418-21.709 2.67-3.004 26.626-68.291 103.418-68.291 8.291 0 15 6.709 15 15s-6.709 15-15 15c-25.225 0-48.384 11.294-63.75 30.322 27.832 2.109 54.551 14.268 74.355 34.072 5.859 5.859 5.859 15.352 0 21.211-5.859 5.86-15.351 5.86-21.21 0z" fill="#53433f"/><path d="m447.499 486.499c-37.5-37.798-67.299-85.3-84.099-135.7l-14.1-42.599c-13.5-40.201-51-67.2-93.3-67.2s-79.799 26.999-93.3 67.2l-14.101 42.599c-16.8 50.4-45.599 97.901-83.099 135.7-4.501 4.2-5.7 10.501-3.301 16.201 2.401 5.7 7.801 9.3 13.801 9.3h47.701c18.6 0 37.2-4.801 54-13.5 18.9 8.699 48.6 12.9 78.3 12.9s59.399-4.2 78.3-12.9c16.8 8.699 35.4 13.5 54 13.5h47.699c6 0 12.4-3.6 14.801-9.3 2.398-5.7 1.199-12.001-3.302-16.201z" fill="#fff7cc"/><path d="m450.801 502.7c-2.401 5.7-8.801 9.3-14.801 9.3h-47.701c-18.6 0-37.2-4.801-54-13.5-18.9 8.699-48.6 12.9-78.3 12.9v-270.4c42.299 0 79.799 26.999 93.3 67.2l14.101 42.599c16.8 50.4 46.599 97.901 84.099 135.7 4.501 4.2 5.7 10.501 3.302 16.201z" fill="#ffe6b3"/><path d="m186.624 450.286c-7.338-3.838-10.165-12.891-6.327-20.244 9.976-19.087 18.472-40.038 25.239-60.297 2.607-7.852 11.118-12.114 18.97-9.478 7.866 2.622 12.1 11.118 9.478 18.97-7.266 21.768-16.377 44.213-27.114 64.721-3.84 7.362-12.963 10.16-20.246 6.328z" fill="#ffe6b3"/><path d="m305.131 443.958c-10.723-20.493-19.849-42.938-27.114-64.735-2.622-7.852 1.611-16.348 9.478-18.97 7.822-2.622 16.348 1.626 18.97 9.478 6.782 20.273 15.264 41.239 25.239 60.312 3.838 7.354 1.011 16.406-6.329 20.244-7.271 3.827-16.4 1.042-20.244-6.329z" fill="#ffca80"/></svg>