<svg id="Capa_1" enable-background="new 0 0 512 512" height="512" viewBox="0 0 512 512" width="512" xmlns="http://www.w3.org/2000/svg"><path d="m512 256c0 140.7-115.3 256-256 256s-256-115.3-256-256 115.3-256 256-256 256 115.3 256 256z" fill="#ffda2d"/><path d="m512 256c0 140.7-115.3 256-256 256v-512c140.7 0 256 115.3 256 256z" fill="#fdbf00"/><path d="m121.791 173.002c-5.859-5.845-5.859-15.352 0-21.211 19.833-19.849 46.187-30.791 74.209-30.791 8.291 0 15 6.709 15 15s-6.709 15-15 15c-19.995 0-38.818 7.808-52.998 22.002-5.859 5.859-15.351 5.859-21.211 0z" fill="#725d57"/><path d="m226 241c-8.291 0-15-6.709-15-15 0-8.276-6.724-15-15-15s-15 6.724-15 15c0 8.291-6.709 15-15 15s-15-6.709-15-15c0-24.814 20.186-45 45-45s45 20.186 45 45c0 8.291-6.709 15-15 15z" fill="#725d57"/><path d="m368.998 173.002c-14.18-14.194-33.003-22.002-52.998-22.002-8.291 0-15-6.709-15-15s6.709-15 15-15c28.022 0 54.374 10.942 74.209 30.791 5.859 5.859 5.859 15.366 0 21.211-5.859 5.859-15.351 5.859-21.211 0z" fill="#53433f"/><path d="m346 241c-8.291 0-15-6.709-15-15 0-8.276-6.724-15-15-15s-15 6.724-15 15c0 8.291-6.709 15-15 15s-15-6.709-15-15c0-24.814 20.186-45 45-45s45 20.186 45 45c0 8.291-6.709 15-15 15z" fill="#53433f"/><path d="m136 361c-24.814 0-45-20.186-45-45s20.186-45 45-45 45 20.186 45 45-20.186 45-45 45z" fill="#ffa2c3"/><path d="m376 361c-24.814 0-45-20.186-45-45s20.186-45 45-45 45 20.186 45 45-20.186 45-45 45z" fill="#ff7cb9"/><path d="m326.499 386.499c-19.499 19.501-45 29.4-70.499 29.4s-51-9.899-70.499-29.399c-6-5.7-6-15.3 0-21 5.7-5.999 15.298-5.999 20.999 0 13.5 13.499 31.501 20.1 49.5 20.1s36-6.601 49.501-20.101c5.7-5.999 15.298-5.999 20.999 0 6 5.7 6 15.3-.001 21z" fill="#725d57"/><path d="m326.499 386.499c-19.499 19.501-45 29.4-70.499 29.4v-30.299c17.999 0 36-6.601 49.501-20.101 5.7-5.999 15.298-5.999 20.999 0 6 5.7 6 15.3-.001 21z" fill="#53433f"/></svg>