<svg height="512pt" viewBox="-116 0 512 512" width="512pt" xmlns="http://www.w3.org/2000/svg"><path d="m187.921875 47.789062v35.871094h-95.84375v-35.871094c0-26.347656 21.441406-47.789062 47.792969-47.789062h.257812c26.351563 0 47.792969 21.441406 47.792969 47.789062zm0 0" fill="#1765af"/><path d="m187.921875 83.660156h-47.921875v-83.660156h.128906c26.351563 0 47.792969 21.441406 47.792969 47.789062zm0 0" fill="#113a59"/><path d="m225.171875 87.898438v46.203124h-170.34375v-46.203124c0-10.617188 8.613281-19.238282 19.242187-19.238282h131.859376c10.628906 0 19.242187 8.621094 19.242187 19.238282zm0 0" fill="#4bf9ff"/><path d="m225.171875 134.101562h-85.171875v-65.441406h65.929688c10.628906 0 19.242187 8.621094 19.242187 19.238282zm0 0" fill="#10def4"/><path d="m280 214.160156-10 101.390625 10 101.390625v61.417969c0 18.550781-15.089844 33.640625-33.640625 33.640625h-212.71875c-18.550781 0-33.640625-15.089844-33.640625-33.640625v-61.417969l10-101.390625-10-101.390625v-61.421875c0-18.546875 15.089844-33.636719 33.640625-33.636719h212.71875c18.550781 0 33.640625 15.089844 33.640625 33.636719zm0 0" fill="#fff4f4"/><path d="m280 214.160156-10 101.390625 10 101.390625v61.417969c0 18.550781-15.089844 33.640625-33.640625 33.640625h-106.359375v-392.898438h106.359375c18.550781 0 33.640625 15.089844 33.640625 33.636719zm0 0" fill="#e7dfde"/><path d="m0 214.160156h280v202.78125h-280zm0 0" fill="#60e15b"/><path d="m140 214.160156h140v202.78125h-140zm0 0" fill="#00c579"/><path d="m196.5 294.738281-56.5 56.683594-1.199219 1.199219c-5.519531 5.527344-12.859375 8.578125-20.671875 8.578125-7.808594 0-15.148437-3.050781-20.667968-8.578125l-13.960938-14.011719c-5.851562-5.859375-5.828125-15.359375.039062-21.210937 5.859376-5.847657 15.359376-5.828126 21.210938.03125l13.378906 13.429687 21.871094-21.9375 35.25-35.363281c5.851562-5.867188 15.351562-5.878906 21.210938-.027344 5.867187 5.839844 5.890624 15.339844.039062 21.207031zm0 0" fill="#fff"/><path d="m196.5 294.738281-56.5 56.683594v-42.5l35.25-35.363281c5.851562-5.867188 15.351562-5.878906 21.210938-.027344 5.867187 5.839844 5.890624 15.339844.039062 21.207031zm0 0" fill="#dffbfb"/></svg>