<svg height="512pt" viewBox="-51 0 512 512" width="512pt" xmlns="http://www.w3.org/2000/svg"><path d="m186.839844 47.785156v59.933594h-95.878906v-59.933594c0-26.355468 21.4375-47.785156 47.789062-47.785156h.300781c26.347657 0 47.789063 21.429688 47.789063 47.785156zm0 0" fill="#1765af"/><path d="m186.839844 107.71875h-47.941406v-107.71875h.152343c26.347657 0 47.789063 21.429688 47.789063 47.785156zm0 0" fill="#113a59"/><path d="m388.421875 217.722656-120.453125-120.382812c-13.910156-13.898438-32.410156-21.558594-52.078125-21.558594h-139.410156c-42.171875 0-76.480469 34.285156-76.480469 76.441406v282.257813c0 42.695312 34.75 77.429687 77.460938 77.441406l61.589843.019531 193.449219.058594h.019531c20.691407 0 40.140625-8.050781 54.78125-22.667969 14.640625-14.628906 22.699219-34.085937 22.699219-54.773437v-164.769532c0-19.667968-7.660156-38.15625-21.578125-52.066406zm-51.8125 71.113282c-8.097656 8.089843-18.738281 12.136718-29.378906 12.136718-10.652344 0-21.28125-4.046875-29.390625-12.136718l-75-74.960938c-7.851563-7.847656-12.167969-18.277344-12.167969-29.378906 0-11.097656 4.316406-21.527344 12.167969-29.375 16.199218-16.1875 42.570312-16.1875 58.769531 0l75 74.960937c7.851563 7.839844 12.179687 18.277344 12.179687 29.378907 0 11.085937-4.328124 21.527343-12.179687 29.375zm0 0" fill="#ffef75"/><path d="m388.421875 217.722656-120.453125-120.382812c-13.910156-13.898438-32.410156-21.558594-52.078125-21.558594h-76.839844v436.160156l193.449219.058594h.019531c20.691407 0 40.140625-8.050781 54.78125-22.667969 14.640625-14.628906 22.699219-34.085937 22.699219-54.773437v-164.769532c0-19.667968-7.660156-38.15625-21.578125-52.066406zm-51.8125 71.113282c-8.097656 8.089843-18.738281 12.136718-29.378906 12.136718-10.652344 0-21.28125-4.046875-29.390625-12.136718l-75-74.960938c-7.851563-7.847656-12.167969-18.277344-12.167969-29.378906 0-11.097656 4.316406-21.527344 12.167969-29.375 16.199218-16.1875 42.570312-16.1875 58.769531 0l75 74.960937c7.851563 7.839844 12.179687 18.277344 12.179687 29.378907 0 11.085937-4.328124 21.527343-12.179687 29.375zm0 0" fill="#ffd92c"/><path d="m260.859375 338.941406v93.027344c0 11.039062-8.988281 20.019531-20.03125 20.019531h-160.96875c-11.050781 0-20.03125-8.980469-20.03125-20.019531v-178.148438c0-11.039062 8.980469-20.027343 20.03125-20.027343h75.800781c5.351563 0 10.378906 2.089843 14.160156 5.867187l85.167969 85.121094c3.78125 3.769531 5.871094 8.800781 5.871094 14.160156zm0 0" fill="#ff4e30"/><path d="m260.859375 338.941406v93.027344c0 11.039062-8.988281 20.019531-20.03125 20.019531h-101.929687v-218.195312h16.761718c5.351563 0 10.378906 2.089843 14.160156 5.867187l85.167969 85.121094c3.78125 3.769531 5.871094 8.800781 5.871094 14.160156zm0 0" fill="#ff2916"/></svg>