<svg height="512pt" viewBox="-44 0 512 512" width="512pt" xmlns="http://www.w3.org/2000/svg"><path d="m335.46875 158.71875h-84.828125c-13.0625 0-23.71875-10.378906-24.128906-23.289062 31.796875-7.191407 54.199219-35.820313 53.429687-68.519532-.421875-17.621094-7.582031-34.238281-20.160156-46.789062-12.570312-12.550782-29.210938-19.691406-46.851562-20.1015628-.550782-.0078124-1.101563-.0195312-1.648438-.0195312-18.101562.0117188-35.070312 6.898438-48.019531 19.550781-13.320313 13.007813-20.652344 30.410157-20.652344 49.007813 0 8.28125 6.71875 15 15 15s15-6.71875 15-15c0-10.449219 4.121094-20.230469 11.609375-27.546875 7.292969-7.121094 16.871094-11.03125 27.0625-11.011719.320312 0 .628906 0 .949219.011719 20.308593.476562 37.238281 17.347656 37.71875 37.609375.441406 18.609375-12.46875 34.878906-30.6875 38.679687-2.851563.589844-5.53125 1.609375-7.980469 2.96875-9.03125 4.992188-15 14.660157-15 25.402344 0 13.257813-10.832031 24.046875-24.140625 24.046875h-84.609375c-48.261719 0-87.53125 39.203125-87.53125 87.382812 0 48.167969 39.269531 87.367188 87.53125 87.367188h247.9375c48.261719 0 87.53125-39.199219 87.53125-87.367188 0-48.179687-39.269531-87.382812-87.53125-87.382812zm0 144.75h-247.9375c-31.722656 0-57.53125-25.738281-57.53125-57.367188 0-31.640624 25.808594-57.382812 57.53125-57.382812h84.609375c15.378906 0 29.28125-6.429688 39.140625-16.75l.109375-.109375c9.871094 10.378906 23.820313 16.859375 39.25 16.859375h84.828125c31.722656 0 57.53125 25.742188 57.53125 57.382812 0 31.628907-25.808594 57.367188-57.53125 57.367188zm0 0" fill="#1765af"/><path d="m423 246.101562c0 48.167969-39.269531 87.367188-87.53125 87.367188h-124.1875v-30h124.1875c31.722656 0 57.53125-25.738281 57.53125-57.367188 0-31.640624-25.808594-57.382812-57.53125-57.382812h-84.828125c-15.429687 0-29.378906-6.480469-39.25-16.859375l-.109375.109375v-62.699219c2.449219-1.359375 5.128906-2.378906 7.980469-2.96875 18.21875-3.800781 31.128906-20.070312 30.6875-38.679687-.480469-20.261719-17.410157-37.132813-37.71875-37.609375-.320313-.011719-.628907-.011719-.949219-.011719v-30c.546875 0 1.097656.0117188 1.648438.0195312 17.640624.4101568 34.28125 7.5507808 46.851562 20.1015628 12.578125 12.550781 19.738281 29.167968 20.160156 46.789062.769532 32.699219-21.632812 61.328125-53.429687 68.519532.410156 12.910156 11.066406 23.289062 24.128906 23.289062h84.828125c48.261719 0 87.53125 39.203125 87.53125 87.382812zm0 0" fill="#113a59"/><path d="m346.871094 283.621094v155.539062l-135.371094 31.839844-.21875-.050781-135.582031-31.789063v-155.539062c0-23.660156 19.25-42.910156 42.910156-42.910156h185.351563c23.660156 0 42.910156 19.25 42.910156 42.910156zm0 0" fill="#ffef75"/><path d="m346.871094 283.621094v155.539062l-135.371094 31.839844-.21875-.050781v-230.238281h92.679688c23.660156 0 42.910156 19.25 42.910156 42.910156zm0 0" fill="#ffd92c"/><path d="m346.871094 439.160156v29.929688c0 23.660156-19.25 42.910156-42.910156 42.910156h-185.351563c-23.660156 0-42.910156-19.25-42.910156-42.910156v-29.929688zm0 0" fill="#fff4f4"/><path d="m346.871094 439.160156v29.929688c0 23.660156-19.25 42.910156-42.910156 42.910156h-92.679688v-72.839844zm0 0" fill="#e7dfde"/></svg>