<svg height="512pt" viewBox="0 -30 512.00009 512" width="512pt" xmlns="http://www.w3.org/2000/svg"><path d="m492.363281 102.917969-22.191406 284.613281c-2.371094 33.339844-15.398437 50.457031-48.839844 50.457031h-330.664062c-33.441407 0-46.699219-23.019531-49.070313-56.367187l-21.429687-279.433594 15.339843-9.808594c.019532.167969.050782.351563.082032.519532 4.6875 30.851562 31.777344 54.058593 63.25 54.058593 35.058594 0 63.570312-28.519531 63.570312-63.578125 0-8.28125 6.71875-15.011718 15.011719-15.011718 8.289063 0 15 6.730468 15 15.011718 0 35.058594 28.519531 63.578125 63.578125 63.578125 35.0625 0 63.582031-28.519531 63.582031-63.578125 0-8.28125 6.710938-15.011718 15-15.011718 8.289063 0 15.011719 6.730468 15.011719 15.011718 0 35.058594 28.507812 63.578125 63.570312 63.578125 30.757813 0 57.1875-21.796875 62.871094-51.828125l.207032.101563zm0 0" fill="#4bf9ff"/><path d="m492.363281 102.917969-22.191406 284.613281c-2.371094 33.339844-15.398437 50.457031-48.839844 50.457031h-165.332031v-291.03125c35.058594 0 63.582031-28.519531 63.582031-63.578125 0-8.28125 6.710938-15.011718 15-15.011718 8.289063 0 15.007813 6.730468 15.007813 15.011718 0 35.058594 28.511718 63.578125 63.570312 63.578125 30.761719 0 57.191406-21.796875 62.871094-51.828125l.210938.101563zm0 0" fill="#10def4"/><path d="m511.960938 16.070312-26.777344 376.460938c-2.371094 33.347656-30.410156 59.46875-63.851563 59.46875h-330.664062c-33.441407 0-61.480469-26.121094-63.851563-59.46875l-26.7773435-376.460938c-.5820315-8.273437 5.6367185-15.453124 13.8984375-16.0312495 8.261719-.5820315 15.449219 5.6289065 16.039062 13.8984375l5.609376 78.960938 21.164062 297.5c1.257812 17.710937 16.160156 31.582031 33.917969 31.582031h330.664062c17.757813 0 32.660157-13.871094 33.917969-31.582031l20.992188-295.167969 5.777343-81.292969c.59375-8.269531 7.761719-14.488281 16.042969-13.8984375 8.261719.5781255 14.480469 7.7578125 13.898438 16.0312495zm0 0" fill="#1765af"/><path d="m317.65625 206.515625h-10.332031c-23.921875 0-43.386719 19.464844-43.386719 43.390625v77.425781c0 23.921875 19.464844 43.386719 43.386719 43.386719h10.332031c23.921875 0 43.382812-19.464844 43.382812-43.386719v-77.425781c0-23.925781-19.460937-43.390625-43.382812-43.390625zm13.371094 120.8125c0 7.375-6 13.375-13.371094 13.375h-10.332031c-7.371094 0-13.371094-6-13.371094-13.375v-77.425781c0-7.371094 6-13.371094 13.371094-13.371094h10.332031c7.371094 0 13.371094 6 13.371094 13.371094zm0 0" fill="#d2f9f9"/><path d="m248.414062 255.246094c0-26.871094-21.859374-48.730469-48.726562-48.730469h-33.71875c-8.289062 0-15.007812 6.71875-15.007812 15.007813 0 8.289062 6.71875 15.007812 15.007812 15.007812h33.71875c10.316406 0 18.714844 8.394531 18.714844 18.714844 0 10.296875-8.144532 18.363281-18.539063 18.363281-8.289062 0-15.007812 6.71875-15.007812 15.007813 0 8.289062 6.71875 15.007812 15.007812 15.007812 10.316407 0 18.710938 8.394531 18.710938 18.714844 0 10.316406-8.394531 18.714844-18.710938 18.714844h-33.71875c-8.289062 0-15.007812 6.71875-15.007812 15.007812s6.71875 15.007812 15.007812 15.007812h33.71875c26.867188 0 48.726563-21.863281 48.726563-48.730468 0-13.078125-5.179688-24.972656-13.597656-33.734375 8.3125-8.6875 13.421874-20.441407 13.421874-33.359375zm0 0" fill="#fff"/><path d="m511.960938 16.070312-26.777344 376.460938c-2.371094 33.347656-30.410156 59.46875-63.851563 59.46875h-165.332031v-30.019531h165.332031c17.761719 0 32.660157-13.871094 33.921875-31.582031l20.988282-295.167969 5.78125-81.292969c.589843-8.269531 7.757812-14.488281 16.039062-13.8984375 8.261719.5781255 14.480469 7.7578125 13.898438 16.0312495zm0 0" fill="#113a59"/></svg>