<svg height="512pt" viewBox="0 -30 512.00009 512" width="512pt" xmlns="http://www.w3.org/2000/svg"><path d="m492.363281 102.917969-22.191406 284.613281c-2.371094 33.339844-15.398437 50.457031-48.839844 50.457031h-330.664062c-33.441407 0-46.699219-23.019531-49.070313-56.367187l-21.429687-279.433594 15.339843-9.808594c.019532.167969.050782.351563.082032.519532 4.6875 30.851562 31.777344 54.058593 63.25 54.058593 35.058594 0 63.570312-28.519531 63.570312-63.578125 0-8.28125 6.71875-15.011718 15.011719-15.011718 8.289063 0 15 6.730468 15 15.011718 0 35.058594 28.519531 63.578125 63.578125 63.578125 35.0625 0 63.582031-28.519531 63.582031-63.578125 0-8.28125 6.710938-15.011718 15-15.011718 8.289063 0 15.011719 6.730468 15.011719 15.011718 0 35.058594 28.507812 63.578125 63.570312 63.578125 30.757813 0 57.1875-21.796875 62.871094-51.828125l.207032.101563zm0 0" fill="#4bf9ff"/><path d="m492.363281 102.917969-22.191406 284.613281c-2.371094 33.339844-15.398437 50.457031-48.839844 50.457031h-165.332031v-291.03125c35.058594 0 63.582031-28.519531 63.582031-63.578125 0-8.28125 6.710938-15.011718 15-15.011718 8.289063 0 15.007813 6.730468 15.007813 15.011718 0 35.058594 28.511718 63.578125 63.570312 63.578125 30.761719 0 57.191406-21.796875 62.871094-51.828125l.210938.101563zm0 0" fill="#10def4"/><path d="m511.960938 16.070312-26.777344 376.460938c-2.371094 33.347656-30.410156 59.46875-63.851563 59.46875h-330.664062c-33.441407 0-61.480469-26.121094-63.851563-59.46875l-26.7773435-376.460938c-.5820315-8.273437 5.6367185-15.453124 13.8984375-16.0312495 8.261719-.5820315 15.449219 5.6289065 16.039062 13.8984375l5.609376 78.960938 21.164062 297.5c1.257812 17.710937 16.160156 31.582031 33.917969 31.582031h330.664062c17.757813 0 32.660157-13.871094 33.917969-31.582031l20.992188-295.167969 5.777343-81.292969c.59375-8.269531 7.761719-14.488281 16.042969-13.8984375 8.261719.5781255 14.480469 7.7578125 13.898438 16.0312495zm0 0" fill="#1765af"/><path d="m317.65625 206.515625h-10.332031c-23.921875 0-43.386719 19.464844-43.386719 43.390625v77.425781c0 23.921875 19.464844 43.386719 43.386719 43.386719h10.332031c23.921875 0 43.382812-19.464844 43.382812-43.386719v-77.425781c0-23.925781-19.460937-43.390625-43.382812-43.390625zm13.371094 120.8125c0 7.375-6 13.375-13.371094 13.375h-10.332031c-7.371094 0-13.371094-6-13.371094-13.375v-77.425781c0-7.371094 6-13.371094 13.371094-13.371094h10.332031c7.371094 0 13.371094 6 13.371094 13.371094zm0 0" fill="#dffbfb"/><path d="m511.960938 16.070312-26.777344 376.460938c-2.371094 33.347656-30.410156 59.46875-63.851563 59.46875h-165.332031v-30.019531h165.332031c17.761719 0 32.660157-13.871094 33.921875-31.582031l20.988282-295.167969 5.78125-81.292969c.589843-8.269531 7.757812-14.488281 16.039062-13.8984375 8.261719.5781255 14.480469 7.7578125 13.898438 16.0312495zm0 0" fill="#113a59"/><path d="m202.0625 236.523438h31.890625c8.285156 0 15-6.71875 15-15 0-8.285157-6.714844-15-15-15h-31.890625c-27.679688 0-50.199219 22.519531-50.199219 50.203124v65.515626c0 26.726562 21.738281 48.46875 48.464844 48.46875h.15625c26.726563 0 48.46875-21.742188 48.46875-48.46875v-.15625c0-26.726563-21.742187-48.46875-48.46875-48.46875h-18.621094v-16.890626c0-11.140624 9.058594-20.203124 20.199219-20.203124zm16.890625 85.5625v.15625c0 10.1875-8.285156 18.46875-18.46875 18.46875h-.15625c-10.183594 0-18.464844-8.285157-18.464844-18.46875v-18.625h18.621094c10.183594 0 18.46875 8.285156 18.46875 18.46875zm0 0" fill="#fff"/></svg>