<svg height="512pt" viewBox="-16 0 512 512" width="512pt" xmlns="http://www.w3.org/2000/svg"><path d="m321.742188 200.289062v44.519532h-163.480469v-44.519532c0-24.339843 18.289062-44.5 41.839843-47.429687v-112.960937c0-22 17.898438-39.898438 39.902344-39.898438 22 0 39.890625 17.898438 39.890625 39.898438v112.960937c23.558594 2.929687 41.847657 23.089844 41.847657 47.429687zm0 0" fill="#1765af"/><path d="m321.742188 200.289062v44.519532h-81.738282v-244.808594c22 0 39.890625 17.898438 39.890625 39.898438v112.960937c23.558594 2.929687 41.847657 23.089844 41.847657 47.429687zm0 0" fill="#113a59"/><path d="m471.226562 416.21875c-19.269531 19.269531-40.53125 35.839844-63.300781 49.519531-4.339843 2.601563-22.582031-5.25-22.582031-5.25s.472656 17.433594-4.078125 19.613281c-39.140625 18.777344-81.902344 29.578126-126.261719 31.558594-4.980468.230469-15-19.660156-15-19.660156s-10.019531 19.890625-15 19.660156c-44.371094-1.988281-87.140625-12.789062-126.28125-31.570312-4.859375-2.320313-6.710937-18.789063-6.710937-18.789063s-15.910157 6.871094-19.949219 4.4375c-22.769531-13.679687-44.011719-30.238281-63.28125-49.507812-6.789062-6.800781-9.929688-16.511719-8.402344-26 1.53125-9.492188 7.570313-17.71875 16.160156-22.03125.25-.128907 27.179688-13.898438 53.640626-36.980469 41.183593-35.917969 49.824218-66.707031 49.824218-86.21875-.011718-7.988281 3.109375-15.53125 8.777344-21.210938 5.671875-5.660156 13.203125-8.777343 21.210938-8.777343h90.011718l90.003906-.011719c16.539063.011719 29.988282 13.46875 30 30 0 69.820312 102.460938 122.691406 103.5 123.21875 8.542969 4.292969 14.589844 12.53125 16.113282 22.019531 1.527344 9.480469-1.613282 19.191407-8.394532 25.980469zm0 0" fill="#ffc7de"/><path d="m471.226562 416.21875c-19.269531 19.269531-40.53125 35.839844-63.300781 49.519531-4.339843 2.601563-22.582031-5.25-22.582031-5.25s.472656 17.433594-4.078125 19.613281c-39.140625 18.777344-81.902344 29.578126-126.261719 31.558594-4.980468.230469-15-19.660156-15-19.660156v-276.988281l90-.011719c16.542969.011719 29.992188 13.46875 30.003906 30 0 69.820312 102.460938 122.691406 103.5 123.21875 8.539063 4.292969 14.589844 12.53125 16.109376 22.019531 1.53125 9.480469-1.609376 19.191407-8.390626 25.980469zm0 0" fill="#ff92aa"/><path d="m255.003906 407.449219v104.210937c-4.980468.230469-9.980468.339844-15 .339844-5.019531 0-10.019531-.109375-15-.339844v-104.210937c0-8.289063 6.707032-15 15-15 8.277344 0 15 6.710937 15 15zm0 0" fill="#ff92aa"/><path d="m407.925781 465.738281c-8.679687 5.210938-17.570312 10-26.660156 14.363281l-53.691406-73.671874c-4.878907-6.699219-3.410157-16.078126 3.289062-20.960938 6.691407-4.878906 16.082031-3.398438 20.953125 3.292969zm0 0" fill="#ff5996"/><path d="m152.410156 406.429688-53.691406 73.660156c-9.089844-4.351563-17.980469-9.140625-26.660156-14.351563l56.113281-76.976562c4.878906-6.691407 14.257813-8.171875 20.949219-3.292969 6.699218 4.882812 8.171875 14.261719 3.289062 20.960938zm0 0" fill="#ff92aa"/><path d="m255.003906 407.449219v104.210937c-4.980468.230469-9.980468.339844-15 .339844v-119.550781c8.277344 0 15 6.710937 15 15zm0 0" fill="#ff5996"/></svg>