<svg height="512pt" viewBox="0 -86 512.0007 512" width="512pt" xmlns="http://www.w3.org/2000/svg"><path d="m466.265625 85.449219h-216.53125l-13.398437 91.035156h229.929687c25.21875 0 45.734375-20.421875 45.734375-45.519531s-20.515625-45.515625-45.734375-45.515625zm0 0" fill="#113a59"/><path d="m251.488281 100.449219v15h-219.066406v-15c0-31.75 22.820313-58.269531 52.953125-64.078125 10.851562-22.109375 32.351562-36.371094 57.679688-36.371094 25.769531 0 49.472656 14.710938 60.109374 37.429688 28.113282 7.550781 48.324219 33.179687 48.324219 63.019531zm0 0" fill="#d2f9f9"/><path d="m251.488281 100.449219v15h-108.433593v-115.449219c25.769531 0 49.472656 14.710938 60.109374 37.429688 28.113282 7.550781 48.324219 33.179687 48.324219 63.019531zm0 0" fill="#4bf9ff"/><path d="m286.117188 85.449219-28.96875 211.011719c-3.402344 24.820312-24.960938 43.539062-50.144532 43.539062h-133.167968c-25.179688 0-46.742188-18.71875-50.140626-43.539062l-23.363281-170.179688c-1.410156-10.261719 1.691407-20.632812 8.511719-28.449219 6.859375-7.871093 16.800781-12.382812 27.269531-12.382812zm0 0" fill="#ffc7de"/><path d="m286.117188 85.449219-28.96875 211.011719c-3.402344 24.820312-24.960938 43.539062-50.144532 43.539062h-63.949218v-254.550781zm0 0" fill="#ff92aa"/><path d="m158.058594 157.625v51.621094c0 8.277344-6.71875 15-15 15-8.289063 0-15-6.722656-15-15v-51.621094c0-8.28125 6.710937-15 15-15 8.28125 0 15 6.71875 15 15zm0 0" fill="#fff"/><path d="m158.058594 249.554688v18.269531c0 8.28125-6.71875 15-15 15-8.289063 0-15-6.71875-15-15v-18.269531c0-8.28125 6.710937-15 15-15 8.28125 0 15 6.71875 15 15zm0 0" fill="#fff"/><g fill="#d2f9f9"><path d="m158.058594 157.625v51.621094c0 8.277344-6.71875 15-15 15v-81.621094c8.28125 0 15 6.71875 15 15zm0 0"/><path d="m158.058594 249.554688v18.269531c0 8.28125-6.71875 15-15 15v-48.269531c8.28125 0 15 6.71875 15 15zm0 0"/></g></svg>