<svg height="512pt" viewBox="-51 0 512 512" width="512pt" xmlns="http://www.w3.org/2000/svg"><path d="m410 122.289062v342.160157c0 26.222656-21.328125 47.550781-47.550781 47.550781h-314.910157c-26.21875 0-47.539062-21.328125-47.539062-47.550781v-342.160157l201.011719-20zm0 0" fill="#1765af"/><path d="m410 122.289062v342.160157c0 26.222656-21.328125 47.550781-47.550781 47.550781h-161.4375v-409.710938zm0 0" fill="#113a59"/><path d="m410 47.539062v74.75h-410v-74.75c0-26.21875 21.320312-47.539062 47.539062-47.539062h314.910157c26.222656 0 47.550781 21.320312 47.550781 47.539062zm0 0" fill="#d2f9f9"/><path d="m410 47.539062v74.75h-208.988281v-122.289062h161.4375c26.222656 0 47.550781 21.320312 47.550781 47.539062zm0 0" fill="#4bf9ff"/><path d="m205 163.929688c-1.339844 0-2.671875.019531-3.988281.058593-76.75 2.121094-138.53125 65.210938-138.53125 142.453125 0 21.199219 4.648437 41.328125 12.988281 59.429688l125.542969 19.378906 133.507812-19.378906c8.339844-18.101563 12.992188-38.230469 12.992188-59.429688 0-78.582031-63.933594-142.511718-142.511719-142.511718zm0 0" fill="#fff"/><path d="m205 163.929688c-1.339844 0-2.671875.019531-3.988281.058593v221.261719l133.507812-19.378906c8.339844-18.101563 12.992188-38.230469 12.992188-59.429688 0-78.582031-63.933594-142.511718-142.511719-142.511718zm0 0" fill="#d2f9f9"/><path d="m99.867188 48.15625h-42.195313c-8.285156 0-15 6.714844-15 15 0 8.28125 6.714844 15 15 15h42.195313c8.28125 0 15-6.71875 15-15 0-8.285156-6.71875-15-15-15zm0 0" fill="#10def4"/><g fill="#00c579"><path d="m251.011719 48.132812h-15c-8.285157 0-15 6.71875-15 15 0 8.285157 6.714843 15 15 15h15c8.28125 0 15-6.714843 15-15 0-8.28125-6.71875-15-15-15zm0 0"/><path d="m310.738281 48.15625h-15c-8.285156 0-15 6.714844-15 15 0 8.28125 6.714844 15 15 15h15c8.285157 0 15-6.71875 15-15 0-8.285156-6.714843-15-15-15zm0 0"/><path d="m370.011719 48.15625h-15c-8.285157 0-15 6.714844-15 15 0 8.28125 6.714843 15 15 15h15c8.28125 0 15-6.71875 15-15 0-8.285156-6.71875-15-15-15zm0 0"/></g><path d="m334.519531 365.871094c-22.570312 49-76.128906 83.089844-133.507812 83.089844-57.390625 0-102.972657-34.089844-125.542969-83.089844zm0 0" fill="#d2f9f9"/><path d="m261.488281 269.109375-57.699219 57.761719c-.878906.890625-1.808593 1.707031-2.777343 2.457031-5.089844 3.960937-11.320313 6.113281-17.882813 6.113281-7.800781 0-15.140625-3.042968-20.660156-8.570312l-13.957031-13.972656c-5.851563-5.859376-5.839844-15.359376.019531-21.21875 5.859375-5.851563 15.359375-5.839844 21.207031.019531l13.390625 13.410156 17.882813-17.898437 39.25-39.300782c5.859375-5.859375 15.347656-5.871094 21.207031-.011718 5.871094 5.851562 5.871094 15.351562.019531 21.210937zm0 0" fill="#60e15b"/><path d="m203.789062 326.871094c-.878906.890625-1.808593 1.707031-2.777343 2.457031v-42.117187l39.25-39.300782c5.859375-5.859375 15.347656-5.871094 21.207031-.011718 5.871094 5.851562 5.871094 15.351562.019531 21.210937zm0 0" fill="#00c579"/><path d="m334.519531 365.871094c-22.570312 49-76.128906 83.089844-133.507812 83.089844v-83.089844zm0 0" fill="#4bf9ff"/></svg>