<svg height="512pt" viewBox="0 -18 512 512" width="512pt" xmlns="http://www.w3.org/2000/svg"><path d="m100.550781 395.195312c-8.285156 0-15 6.714844-15 15v49.804688c0 8.285156 6.714844 15 15 15 8.285157 0 15-6.714844 15-15v-49.804688c0-8.285156-6.714843-15-15-15zm0 0" fill="#ffd92c"/><path d="m411.449219 395.195312c-8.285157 0-15 6.714844-15 15v49.804688c0 8.285156 6.714843 15 15 15 8.285156 0 15-6.714844 15-15v-49.804688c0-8.285156-6.714844-15-15-15zm0 0" fill="#fc0"/><path d="m474.140625 91.25v156.03125h-436.28125v-156.429688c21.78125-9.339843 44.480469-23.441406 63.75-35.570312l.390625-.25c40.539062-25.78125 86.550781-55.03125 154-55.03125 67.71875 0 116.050781 30.871094 156.359375 56.679688 18.710937 11.621093 40.878906 25.609374 61.78125 34.570312zm0 0" fill="#ffef75"/><path d="m474.140625 247.28125h-218.140625v-247.28125c67.71875 0 116.050781 30.871094 156.359375 56.679688 18.710937 11.621093 40.878906 25.609374 61.78125 34.570312zm0 0" fill="#ffd92c"/><path d="m192.816406 118.789062h-65.746094c-23.046874 0-41.796874 18.75-41.796874 41.796876v86.699218h149.339843v-86.699218c0-23.046876-18.75-41.796876-41.796875-41.796876zm0 0" fill="#fff"/><path d="m384.929688 118.789062h-65.746094c-23.046875 0-41.796875 18.75-41.796875 41.796876v86.699218h149.339843v-86.699218c0-23.046876-18.75-41.796876-41.796874-41.796876zm0 0" fill="#d2f9f9"/><path d="m489.140625 296.28125v87.601562c0 22.78125-18.53125 41.308594-41.3125 41.308594h-383.65625c-22.78125 0-41.3125-18.527344-41.3125-41.308594v-87.601562zm0 0" fill="#ffef75"/><path d="m489.140625 296.28125v87.601562c0 22.78125-18.53125 41.308594-41.3125 41.308594h-191.828125v-128.910156zm0 0" fill="#ffd92c"/><path d="m37.859375 46.296875c-8.285156 0-15 6.714844-15 15v170.988281c0 8.285156 6.714844 15 15 15s15-6.714844 15-15v-170.988281c0-8.285156-6.714844-15-15-15zm0 0" fill="#ffd92c"/><path d="m474.140625 46.296875c-8.285156 0-15 6.714844-15 15v170.988281c0 8.285156 6.714844 15 15 15s15-6.714844 15-15v-170.988281c0-8.285156-6.714844-15-15-15zm0 0" fill="#fc0"/><path d="m512 252.261719v39.039062c0 19.292969-15.691406 34.980469-34.980469 34.980469h-442.039062c-19.289063 0-34.980469-15.6875-34.980469-34.980469v-39.039062c0-19.28125 15.691406-34.980469 34.980469-34.980469h442.039062c19.289063 0 34.980469 15.699219 34.980469 34.980469zm0 0" fill="#60e15b"/><path d="m512 252.261719v39.039062c0 19.292969-15.691406 34.980469-34.980469 34.980469h-221.019531v-109h221.019531c19.289063 0 34.980469 15.699219 34.980469 34.980469zm0 0" fill="#00c579"/></svg>