<svg height="512pt" viewBox="-16 0 512 512" width="512pt" xmlns="http://www.w3.org/2000/svg"><path d="m240.011719 134.578125c0-92.085937-61.503907-134.578125-107.570313-134.578125-9.9375 0-17.996094 8.058594-17.996094 17.996094 0 79.085937 52.03125 108.335937 89.234376 119.617187zm0 0" fill="#4bf9ff"/><path d="m276.832031 137.699219c37.222657-11.214844 89.523438-40.414063 89.523438-119.703125 0-9.9375-8.054688-17.996094-17.996094-17.996094-44.738281 0-108.371094 44.855469-108.371094 134.578125zm0 0" fill="#10def4"/><path d="m480 452c0 33.078125-26.910156 60-60 60h-360c-33.078125 0-60-26.921875-60-60 0-19.589844 9.519531-38.179688 25.460938-49.730469 2.847656-2.058593 4.539062-5.558593 4.539062-9.339843v-60.257813c0-56.523437 22.238281-109.851563 62.621094-150.152344 39.757812-39.679687 92.089844-61.519531 147.390625-61.519531 56.007812.101562 109.046875 21.988281 148.617187 61.640625 39.582032 39.640625 61.371094 92.328125 61.371094 148.359375v61.929688c0 3.78125 1.699219 7.269531 4.550781 9.339843 15.9375 11.550781 25.449219 30.140625 25.449219 49.730469zm0 0" fill="#60e15b"/><path d="m480 452c0 33.078125-26.910156 60-60 60h-179.988281v-391c56.007812.101562 109.046875 21.988281 148.617187 61.640625 39.582032 39.640625 61.371094 92.328125 61.371094 148.359375v61.929688c0 3.78125 1.699219 7.269531 4.550781 9.339843 15.9375 11.550781 25.449219 30.140625 25.449219 49.730469zm0 0" fill="#00c579"/><path d="m335.660156 297.429688c0 8.289062-6.710937 15-15 15h-161.308594c-8.292968 0-15-6.710938-15-15 0-8.28125 6.707032-15 15-15h161.308594c8.289063 0 15 6.71875 15 15zm0 0" fill="#fff"/><path d="m305.660156 353.429688c0 8.289062-6.710937 15-15 15h-101.308594c-8.292968 0-15-6.710938-15-15 0-8.28125 6.707032-15 15-15h101.308594c8.289063 0 15 6.71875 15 15zm0 0" fill="#fff"/><g fill="#d2f9f9"><path d="m305.660156 353.429688c0 8.289062-6.710937 15-15 15h-50.648437v-30h50.648437c8.289063 0 15 6.71875 15 15zm0 0"/><path d="m335.660156 297.429688c0 8.289062-6.710937 15-15 15h-80.648437v-30h80.648437c8.289063 0 15 6.71875 15 15zm0 0"/></g></svg>