<svg height="512pt" viewBox="-69 0 512 512" width="512pt" xmlns="http://www.w3.org/2000/svg"><path d="m350.261719 139.539062-28.910157 331.332032c-2.191406 23.449218-21.621093 41.128906-45.191406 41.128906h-178.53125c-23.570312 0-43-17.679688-45.1875-41.128906l-28.910156-331.332032zm0 0" fill="#60e15b"/><path d="m350.261719 139.539062-28.910157 331.332032c-2.191406 23.449218-21.621093 41.128906-45.191406 41.128906h-89.261718v-372.460938zm0 0" fill="#00c579"/><path d="m343.898438 112.078125h-314.007813l21.5-81.65625c3.488281-17.671875 18.960937-30.421875 37.050781-30.421875h196.898438c18.089844 0 33.570312 12.75 37.050781 30.421875zm0 0" fill="#1765af"/><path d="m343.898438 112.078125h-157v-112.078125h98.441406c18.089844 0 33.570312 12.75 37.050781 30.421875zm0 0" fill="#113a59"/><path d="m373.78125 125.808594c0 24.113281-19.640625 43.730468-43.78125 43.730468h-286.21875c-24.140625 0-43.78125-19.617187-43.78125-43.730468 0-24.109375 19.640625-43.730469 43.78125-43.730469h286.21875c24.140625 0 43.78125 19.621094 43.78125 43.730469zm0 0" fill="#fff4f4"/><path d="m250.769531 280.339844-6.179687 17.210937c-3.539063 9.859375-13.03125 16.269531-23.210938 16.269531-1.570312 0-3.167968-.148437-4.757812-.46875l-16.839844-3.382812c-8.121094-1.617188-13.382812-9.527344-11.761719-17.648438 1.191407-5.910156 5.691407-10.300781 11.179688-11.640624l-4.179688-7.078126c-1.910156-3.300781-5.050781-3.660156-6.320312-3.660156-.429688 0-1.070313.039063-1.800781.21875-1.4375.359375-3.25 1.25-4.507813 3.441406-4.140625 7.167969-13.3125 9.628907-20.492187 5.488282-7.167969-4.140625-9.628907-13.308594-5.488282-20.480469 6.441406-11.167969 17.75-18.039063 30.488282-18.621094.601562-.039062 1.203124-.046875 1.800781-.046875 13.449219 0 25.511719 6.949219 32.261719 18.589844l4.1875 7.097656c3.929687-4.679687 10.492187-6.660156 16.582031-4.480468 7.789062 2.800781 11.839843 11.390624 9.039062 19.191406zm0 0" fill="#fff"/><path d="m250.898438 362.777344 3.222656 5.578125c1.921875 3.335937.640625 6.277343-.003906 7.386719-.785157 1.367187-2.652344 3.65625-6.308594 3.65625h-11.21875c2.144531-5.777344.5625-12.523438-4.425782-16.710938-6.347656-5.324219-15.808593-4.496094-21.132812 1.851562l-14.164062 16.882813c-6.332032 7.550781-6.300782 18.488281.070312 26.003906l14.144531 16.675781c2.96875 3.5 7.195313 5.296876 11.449219 5.296876 3.425781 0 6.875-1.167969 9.695312-3.558594 4.882813-4.144532 6.457032-10.738282 4.441407-16.441406h11.140625c13.472656 0 25.542968-6.972657 32.289062-18.652344 6.757813-11.699219 6.761719-25.679688.007813-37.382813l-3.222657-5.582031c-4.140624-7.175781-13.3125-9.632812-20.488281-5.492188-7.175781 4.140626-9.636719 13.3125-5.496093 20.488282zm0 0" fill="#d2f9f9"/><path d="m108.171875 343.449219-5.78125 9.769531-.085937.144531c-6.753907 11.707031-6.753907 25.683594.007812 37.386719 6.742188 11.679688 18.8125 18.648438 32.289062 18.648438h11.992188c8.285156 0 15-6.714844 15-15 0-8.28125-6.714844-15-15-15h-11.992188c-3.65625 0-5.523437-2.289063-6.3125-3.652344-.636718-1.105469-1.910156-4.023438-.03125-7.332032l5.59375-9.445312c2.796876 2.84375 6.660157 4.488281 10.699219 4.488281 1.570313 0 3.167969-.246093 4.734375-.769531 7.863282-2.617188 12.117188-11.109375 9.5-18.96875l-6.59375-19.835938c-3.097656-9.308593-12.390625-15.039062-22.082031-13.65625l-23.601563 3.378907c-8.199218 1.171875-13.894531 8.773437-12.722656 16.972656 1.050782 7.328125 7.234375 12.660156 14.386719 12.871094zm0 0" fill="#fff"/><path d="m250.769531 280.339844-6.179687 17.210937c-3.539063 9.859375-13.03125 16.269531-23.210938 16.269531-1.570312 0-3.167968-.148437-4.757812-.46875l-16.839844-3.382812c-8.121094-1.617188-13.382812-9.527344-11.761719-17.648438 1.191407-5.910156 5.691407-10.300781 11.179688-11.640624l-4.179688-7.078126c-1.910156-3.300781-5.050781-3.660156-6.320312-3.660156-.429688 0-1.070313.039063-1.800781.21875v-30.171875c.601562-.039062 1.203124-.046875 1.800781-.046875 13.449219 0 25.511719 6.949219 32.261719 18.589844l4.1875 7.097656c3.929687-4.679687 10.492187-6.660156 16.582031-4.480468 7.789062 2.800781 11.839843 11.390624 9.039062 19.191406zm0 0" fill="#d2f9f9"/><path d="m373.78125 125.808594c0 24.113281-19.640625 43.730468-43.78125 43.730468h-143.101562v-87.460937h143.101562c24.140625 0 43.78125 19.621094 43.78125 43.730469zm0 0" fill="#e7dfde"/></svg>