<svg height="512pt" viewBox="0 0 512 512.00075" width="512pt" xmlns="http://www.w3.org/2000/svg"><path d="m504.355469 174.46875c-10.191407-10.1875-26.714844-10.195312-36.914063 0l-111.84375 111.84375c-5.605468 5.605469-14.742187 6.128906-20.617187.792969-6.265625-5.699219-6.433594-15.417969-.515625-21.335938l113.816406-113.816406c9.269531-9.269531 9.261719-24.292969-.007812-33.566406-9.261719-9.261719-24.289063-9.269531-33.558594 0l-113.519532 113.519531c-5.609374 5.609375-15.386718 5.488281-21.257812.15625-6.273438-5.707031-5.804688-14.785156.113281-20.703125l113.816407-113.816406c9.269531-9.269531 9.269531-24.289063 0-33.558594l-.253907-.257813c-9.269531-9.269531-24.296875-9.277343-33.566406-.003906l-113.519531 113.515625c-5.605469 5.609375-14.75 6.125-20.621094.792969-6.269531-5.707031-6.433594-15.414062-.515625-21.332031l112.140625-112.140625c10.199219-10.195313 10.191406-26.722656 0-36.910156-10.195312-10.199219-26.714844-10.199219-36.910156 0l-142.257813 142.253906v-67.484375c0-16.191407-13.117187-29.308594-29.300781-29.304688-8.089844 0-15.421875 3.277344-20.726562 8.578125-5.300782 5.304688-8.574219 12.636719-8.574219 20.726563v126.089843l-39.535157 39.535157 80.652344 123.078125 123.078125 80.652344 240.398438-240.394532c10.195312-10.195312 10.195312-26.714844 0-36.910156zm0 0" fill="#4bf9ff"/><path d="m504.355469 211.378906-240.398438 240.398438-123.078125-80.65625 139.058594-139.058594c5.871094 5.332031 15.648438 5.453125 21.257812-.15625l113.519532-113.519531c9.269531-9.269531 24.296875-9.261719 33.558594 0 9.269531 9.269531 9.277343 24.296875.007812 33.566406l-113.816406 113.816406c-5.917969 5.917969-5.75 15.632813.515625 21.332031 5.875 5.339844 15.011719 4.816407 20.617187-.789062l111.84375-111.84375c10.199219-10.199219 26.722656-10.191406 36.910156 0 10.199219 10.195312 10.199219 26.714844.003907 36.910156zm0 0" fill="#10def4"/><path d="m60.226562 248.042969-48.324218 48.324219c-15.867188 15.867187-15.871094 41.589843 0 57.460937l146.273437 146.269531c15.867188 15.867188 41.589844 15.867188 57.457031 0l48.324219-48.324218zm0 0" fill="#60e15b"/><path d="m263.957031 451.777344-48.324219 48.324218c-15.867187 15.867188-41.589843 15.867188-57.457031 0l-73.136719-73.136718 77.054688-77.054688zm0 0" fill="#00c579"/></svg>