<svg height="512.00063pt" viewBox="0 0 512.00063 512.00063" width="512.00063pt" xmlns="http://www.w3.org/2000/svg"><path d="m497.328125 14.675781c-19.570313-19.570312-51.417969-19.570312-70.992187.003907l-242.253907 242.253906 70.984375 70.984375 242.253906-242.253907c19.574219-19.574218 19.574219-51.421874.007813-70.988281zm0 0" fill="#ffef75"/><path d="m255.066406 327.917969-35.492187-35.492188 277.753906-277.75c19.566406 19.566407 19.566406 51.414063-.007813 70.988281zm0 0" fill="#ffd92c"/><path d="m243.378906 268.625c-58.820312-58.820312-154.921875-58.441406-214.214844.855469l213.355469 213.359375c59.296875-59.296875 59.675781-155.394532.859375-214.214844zm0 0" fill="#ff4e30"/><path d="m242.519531 482.839844-106.675781-106.679688 107.535156-107.535156c58.816406 58.820312 58.4375 154.917969-.859375 214.214844zm0 0" fill="#ff2916"/><path d="m267.292969 507.609375c-5.855469 5.855469-15.359375 5.855469-21.214844 0l-241.6875-241.6875c-5.855469-5.855469-5.855469-15.359375 0-21.214844 5.863281-5.859375 15.359375-5.855469 21.214844 0l241.6875 241.6875c5.855469 5.855469 5.863281 15.351563 0 21.214844zm0 0" fill="#ff2916"/><path d="m267.292969 507.609375c-5.855469 5.855469-15.359375 5.855469-21.214844 0l-120.84375-120.84375 21.214844-21.214844 120.84375 120.84375c5.855469 5.855469 5.863281 15.351563 0 21.214844zm0 0" fill="#f70000"/></svg>