<svg height="512pt" viewBox="0 0 512.00126 512" width="512pt" xmlns="http://www.w3.org/2000/svg"><path d="m508.992188 352.390625c-9.410157-28.839844-37.660157-46.320313-66.019532-42.558594-1.921875-12.082031-7.152344-23.152343-15.210937-31.890625-10.820313-11.742187-25.71875-18.199218-41.960938-18.199218h-.007812c-16.242188 0-31.140625 6.457031-41.953125 18.199218-8.070313 8.738282-13.296875 19.808594-15.21875 31.890625-28.371094-3.75-56.609375 13.71875-66.019532 42.558594-5.019531 15.398437-3.730468 31.828125 3.640626 46.25 5.75 11.238281 14.667968 20.230469 25.597656 26-12.597656 25.871094-5.25 57.96875 18.773437 75.511719 12.867188 9.417968 28.238281 13.328125 43.277344 10.988281 12-1.871094 23.03125-7.539063 31.902344-16.261719l.007812-.007812c11.3125 11.140625 25.75 16.941406 40.449219 16.941406 11.902344 0 23.960938-3.792969 34.679688-11.621094 13.140624-9.539062 21.761718-23.582031 24.273437-39.5625 1.949219-12.417968.027344-24.886718-5.433594-36.007812 10.941407-5.78125 19.84375-14.75 25.582031-25.980469 7.371094-14.421875 8.660157-30.851563 3.640626-46.25zm0 0" fill="#60e15b"/><path d="m505.351562 398.640625c-5.738281 11.230469-14.640624 20.199219-25.582031 25.980469 5.460938 11.121094 7.382813 23.589844 5.433594 36.007812-2.511719 15.980469-11.132813 30.023438-24.273437 39.5625-10.71875 7.828125-22.777344 11.621094-34.679688 11.621094-14.699219 0-29.136719-5.800781-40.449219-16.941406l-.007812.007812v-235.136718h.007812c16.242188 0 31.140625 6.457031 41.960938 18.199218 8.058593 8.738282 13.289062 19.808594 15.210937 31.890625 28.359375-3.761719 56.609375 13.71875 66.019532 42.558594 5.019531 15.398437 3.730468 31.828125-3.640626 46.25zm0 0" fill="#00c579"/><path d="m385.800781 347.152344h-.007812c-25.160157 0-45.640625 20.46875-45.640625 45.628906 0 25.148438 20.480468 45.621094 45.640625 45.621094h.007812c25.171875-.011719 45.640625-20.472656 45.640625-45.621094 0-25.160156-20.46875-45.621094-45.640625-45.628906zm0 0" fill="#fff"/><path d="m286.230469 106.46875c-5.636719-17.296875-17.597657-31.597656-33.65625-40.257812-13.550781-7.320313-28.582031-9.820313-43.140625-7.332032-1.820313-14.578125-7.871094-27.957031-17.480469-38.398437-12.152344-13.167969-28.890625-20.4296878-47.140625-20.4296878s-34.988281 7.2617188-47.128906 20.4296878c-9.621094 10.441406-15.671875 23.820312-17.492188 38.398437-14.558594-2.488281-29.578125.011719-43.140625 7.332032-16.058593 8.660156-28.019531 22.960937-33.660156 40.257812-5.660156 17.34375-4.199219 35.832031 4.101563 52.070312 6.859374 13.402344 17.699218 23.960938 31.03125 30.390626-15.722657 29.492187-7.730469 66.960937 20.007812 87.222656 11.742188 8.597656 25.332031 13.109375 39.050781 13.109375 3.199219 0 6.410157-.242188 9.609375-.742188 14.28125-2.21875 27.351563-9.257812 37.621094-20.078125l.011719-.011718c22.988281 24.261718 58.578125 27.949218 86.21875 7.761718 14.800781-10.742187 24.5-26.550781 27.328125-44.53125 2.320312-14.820312-.238282-29.691406-7.25-42.75 13.339844-6.441406 24.171875-16.988281 31.011718-30.371094 8.300782-16.238281 9.757813-34.726562 4.097657-52.070312zm0 0" fill="#ffc7de"/><path d="m282.132812 158.539062c-6.839843 13.382813-17.671874 23.929688-31.011718 30.371094 7.011718 13.058594 9.570312 27.929688 7.25 42.75-2.828125 17.980469-12.527344 33.789063-27.328125 44.53125-27.640625 20.1875-63.230469 16.5-86.21875-7.761718l-.011719.011718v-268.3906248c18.25 0 34.988281 7.2617188 47.140625 20.4296878 9.609375 10.441406 15.660156 23.820312 17.480469 38.398437 14.558594-2.488281 29.589844.011719 43.140625 7.332032 16.058593 8.660156 28.019531 22.960937 33.65625 40.257812 5.660156 17.34375 4.203125 35.832031-4.097657 52.070312zm0 0" fill="#ff92aa"/><path d="m144.8125 102.082031c-27.988281 0-50.769531 22.769531-50.769531 50.75 0 27.988281 22.78125 50.75 50.769531 50.75 28 0 50.769531-22.761719 50.769531-50.75 0-27.980469-22.769531-50.75-50.769531-50.75zm0 0" fill="#fff"/><path d="m484.730469 73.429688c-32.628907 0-59.167969-26.210938-59.167969-58.429688 0-8.28125-6.722656-15-15-15-8.28125 0-15 6.71875-15 15 0 32.320312-26.542969 58.621094-59.171875 58.621094-8.277344 0-15 6.71875-15 15 0 8.289062 6.722656 15 15 15 32.628906 0 59.171875 26.210937 59.171875 58.429687 0 8.289063 6.71875 15 15 15 8.277344 0 15-6.710937 15-15 0-32.320312 26.539062-58.621093 59.167969-58.621093 8.28125 0 15-6.710938 15-15 0-8.277344-6.71875-15-15-15zm0 0" fill="#4bf9ff"/><path d="m152.441406 399.71875c-9.628906-13.449219-20.929687-25.898438-28.707031-33.976562-4.691406-4.863282-11.25-7.652344-18.011719-7.652344-6.75 0-13.308594 2.789062-18 7.652344-7.78125 8.078124-19.089844 20.527343-28.71875 33.976562-13.140625 18.371094-19.53125 33.492188-19.53125 46.222656 0 36.429688 29.71875 66.058594 66.25 66.058594 36.539063 0 66.261719-29.628906 66.261719-66.058594 0-12.730468-6.390625-27.851562-19.542969-46.222656zm0 0" fill="#4bf9ff"/><path d="m195.582031 152.832031c0 27.988281-22.769531 50.75-50.769531 50.75v-101.5c28 0 50.769531 22.769531 50.769531 50.75zm0 0" fill="#d2f9f9"/><path d="m431.441406 392.78125c0 25.148438-20.46875 45.609375-45.640625 45.621094v-91.25c25.171875.007812 45.640625 20.46875 45.640625 45.628906zm0 0" fill="#d2f9f9"/><g fill="#10def4"><path d="m171.984375 445.941406c0 36.429688-29.722656 66.058594-66.261719 66.058594v-153.910156c6.761719 0 13.320313 2.789062 18.011719 7.652344 7.777344 8.078124 19.078125 20.527343 28.707031 33.976562 13.152344 18.371094 19.542969 33.492188 19.542969 46.222656zm0 0"/><path d="m499.730469 88.429688c0 8.289062-6.71875 15-15 15-32.628907 0-59.167969 26.300781-59.167969 58.621093 0 8.289063-6.722656 15-15 15v-177.050781c8.277344 0 15 6.71875 15 15 0 32.21875 26.539062 58.429688 59.167969 58.429688 8.28125 0 15 6.722656 15 15zm0 0"/></g></svg>