<svg height="511pt" viewBox="0 -38 511.99904 511" width="511pt" xmlns="http://www.w3.org/2000/svg"><path d="m385.316406 79.179688-.058594 75.851562-.53125 1.949219c-6.25 22.757812-16.839843 46.75-31.46875 71.320312-1.167968 1.957031-1.789062 4.238281-1.789062 6.558594 0 1.921875.449219 3.851563 1.277344 5.582031 27.542968 57.417969 21.773437 125.308594-15.027344 177.207032-8.019531 11.3125-20.859375 17.851562-34.472656 17.851562-1.9375 0-3.878906-.128906-5.839844-.402344-15.847656-2.179687-29.046875-12.90625-34.449219-28-16.847656-47.136718-42.050781-75.519531-67.429687-75.96875-25.378906.449219-50.570313 28.832032-67.429688 75.96875-5.390625 15.09375-18.589844 25.820313-34.449218 28-15.699219 2.160156-31.140626-4.527344-40.300782-17.449218-36.808594-51.898438-42.570312-119.789063-15.058594-177.167969.859376-1.769531 1.300782-3.699219 1.300782-5.632813.007812-2.308594-.621094-4.589844-1.800782-6.578125-20.382812-34.199219-33.070312-67.859375-36.699218-97.308593-4.0625-32.921876 3.289062-59.820313 21.25-77.792969 15.929687-15.917969 39.167968-23.589844 67.238281-22.179688 24.988281 1.261719 54.050781 9.78125 84.039063 24.652344 6.75 3.328125 14.332031 5.140625 21.910156 5.238281 7.589844-.097656 15.171875-1.910156 21.929687-5.25 29.980469-14.859375 59.039063-23.378906 84.03125-24.640625 28.058594-1.410156 51.308594 6.261719 67.230469 22.179688 6.539062 6.542969 11.730469 14.351562 15.4375 23.230469zm0 0" fill="#fff4f4"/><path d="m385.316406 79.179688-.058594 75.851562-.53125 1.949219c-6.25 22.757812-16.839843 46.75-31.46875 71.320312-1.167968 1.957031-1.789062 4.238281-1.789062 6.558594 0 1.921875.449219 3.851563 1.277344 5.582031 27.542968 57.417969 21.773437 125.308594-15.027344 177.207032-8.019531 11.3125-20.859375 17.851562-34.472656 17.851562-1.9375 0-3.878906-.128906-5.839844-.402344-15.847656-2.179687-29.046875-12.90625-34.449219-28-16.847656-47.136718-42.050781-75.519531-67.429687-75.96875v-270.25c7.589844-.097656 15.171875-1.910156 21.929687-5.25 29.980469-14.859375 59.039063-23.378906 84.03125-24.640625 28.058594-1.410156 51.308594 6.261719 67.230469 22.179688 6.539062 6.542969 11.730469 14.351562 15.4375 23.230469zm0 0" fill="#f7efe9"/><path d="m497 101.980469c-48.199219 0-87.410156-38.796875-87.410156-86.480469 0-8.285156-6.714844-15-15-15-8.28125 0-15 6.714844-15 15 0 47.828125-39.210938 86.742188-87.40625 86.742188-8.285156 0-15 6.714843-15 15 0 8.285156 6.714844 15 15 15 48.195312 0 87.40625 38.792968 87.40625 86.476562 0 8.285156 6.71875 15 15 15 8.285156 0 15-6.714844 15-15 0-47.828125 39.210937-86.738281 87.410156-86.738281 8.28125 0 15-6.71875 15-15 0-8.285157-6.71875-15-15-15zm0 0" fill="#4bf9ff"/></svg>