<svg height="512pt" viewBox="-37 0 512 512" width="512pt" xmlns="http://www.w3.org/2000/svg"><path d="m401.855469 512c-20.246094 0-36.714844-16.46875-36.714844-36.714844v-29.675781c0-8.332031 6.753906-15.085937 15.085937-15.085937h43.253907c8.332031 0 15.089843 21.84375 15.089843 30.175781v14.585937c0 20.246094-16.472656 36.714844-36.714843 36.714844zm0 0" fill="#555a66"/><path d="m36.714844 512c-20.246094 0-36.714844-16.46875-36.714844-36.714844v-14.585937c0-8.332031 6.753906-30.175781 15.089844-30.175781h43.253906c8.332031 0 15.085938 6.753906 15.085938 15.085937v29.675781c0 20.246094-16.46875 36.714844-36.714844 36.714844zm0 0" fill="#555a66"/><path d="m219.285156 512c-20.246094 0-36.714844-16.46875-36.714844-36.714844v-29.675781c0-8.332031 6.753907-15.085937 15.085938-15.085937h43.253906c8.335938 0 15.089844 6.753906 15.089844 15.085937v29.675781c0 20.246094-16.46875 36.714844-36.714844 36.714844zm0 0" fill="#555a66"/><path d="m240.910156 430.523438h-21.625v81.476562c20.246094 0 36.714844-16.46875 36.714844-36.714844v-29.675781c0-8.332031-6.753906-15.085937-15.089844-15.085937zm0 0" fill="#353535"/><path d="m423.480469 430.523438h-21.625v81.476562c20.242187 0 36.714843-16.46875 36.714843-36.714844v-14.585937c0-8.332031-6.757812-30.175781-15.089843-30.175781zm0 0" fill="#353535"/><path d="m58.34375 430.523438h-21.628906v81.476562c20.246094 0 36.714844-16.46875 36.714844-36.714844v-29.675781c0-8.332031-6.753907-15.085937-15.085938-15.085937zm0 0" fill="#353535"/><path d="m404.621094 0h-151.386719c-18.75 0-33.949219 15.199219-33.949219 33.949219 0-18.75-15.199218-33.949219-33.949218-33.949219h-151.386719c-18.75 0-33.949219 15.199219-33.949219 33.949219v426.75h438.570312v-426.75c0-18.75-15.199218-33.949219-33.949218-33.949219zm0 0" fill="#0076fe"/><path d="m185.335938 0h-75.695313v460.699219h109.644531v-426.75c0-18.75-15.199218-33.949219-33.949218-33.949219zm0 0" fill="#0058be"/><path d="m404.621094 0h-75.695313v460.699219h109.644531v-426.75c0-18.75-15.199218-33.949219-33.949218-33.949219zm0 0" fill="#0058be"/><path d="m219.285156 415.433594h-219.285156v-370.167969h219.285156zm0 0" fill="#69d3ff"/><path d="m438.570312 415.433594h-219.285156v-370.167969h219.285156zm0 0" fill="#69d3ff"/><path d="m438.570312 415.433594h-109.644531v-370.167969h109.644531zm0 0" fill="#00b9fc"/><path d="m109.640625 45.265625h109.644531v370.167969h-109.644531zm0 0" fill="#00b9fc"/><path d="m146.191406 126.238281h-73.097656c-8.332031 0-15.085938-6.753906-15.085938-15.085937 0-8.332032 6.753907-15.089844 15.085938-15.089844h73.097656c8.332032 0 15.085938 6.757812 15.085938 15.089844 0 8.332031-6.753906 15.085937-15.085938 15.085937zm0 0" fill="#555a66"/><path d="m146.191406 178.699219h-73.097656c-8.332031 0-15.085938-6.753907-15.085938-15.085938 0-8.335937 6.753907-15.089843 15.085938-15.089843h73.097656c8.332032 0 15.085938 6.753906 15.085938 15.089843 0 8.332031-6.753906 15.085938-15.085938 15.085938zm0 0" fill="#555a66"/><path d="m146.191406 267.398438c-8.335937 0-15.089844-6.753907-15.089844-15.085938v-27.761719c0-8.332031 6.753907-15.089843 15.089844-15.089843 8.332032 0 15.085938 6.757812 15.085938 15.089843v27.761719c0 8.332031-6.753906 15.085938-15.085938 15.085938zm0 0" fill="#353535"/><path d="m365.472656 126.238281h-73.09375c-8.332031 0-15.089844-6.753906-15.089844-15.085937 0-8.332032 6.757813-15.089844 15.089844-15.089844h73.09375c8.335938 0 15.089844 6.757812 15.089844 15.089844 0 8.332031-6.753906 15.085937-15.089844 15.085937zm0 0" fill="#555a66"/><path d="m365.472656 178.699219h-73.09375c-8.332031 0-15.089844-6.753907-15.089844-15.085938 0-8.335937 6.757813-15.089843 15.089844-15.089843h73.09375c8.335938 0 15.089844 6.753906 15.089844 15.089843 0 8.332031-6.753906 15.085938-15.089844 15.085938zm0 0" fill="#555a66"/><g fill="#353535"><path d="m365.472656 267.398438c-8.332031 0-15.085937-6.753907-15.085937-15.085938v-27.761719c0-8.332031 6.753906-15.089843 15.085937-15.089843 8.335938 0 15.089844 6.757812 15.089844 15.089843v27.761719c0 8.332031-6.753906 15.085938-15.089844 15.085938zm0 0"/><path d="m146.191406 148.523438h-36.550781v30.175781h36.550781c8.332032 0 15.085938-6.753907 15.085938-15.085938 0-8.335937-6.753906-15.089843-15.085938-15.089843zm0 0"/><path d="m146.191406 96.0625h-36.550781v30.175781h36.550781c8.332032 0 15.085938-6.753906 15.085938-15.085937 0-8.332032-6.753906-15.089844-15.085938-15.089844zm0 0"/><path d="m365.472656 148.523438h-36.546875v30.175781h36.546875c8.335938 0 15.089844-6.753907 15.089844-15.085938 0-8.335937-6.753906-15.089843-15.089844-15.089843zm0 0"/><path d="m365.472656 96.0625h-36.546875v30.175781h36.546875c8.335938 0 15.089844-6.753906 15.089844-15.085937 0-8.332032-6.753906-15.089844-15.089844-15.089844zm0 0"/></g></svg>