<svg height="512pt" viewBox="-36 0 512 512" width="512pt" xmlns="http://www.w3.org/2000/svg"><path d="m354.296875 152.726562c7.304687-14.289062 11.113281-30.0625 11.113281-46.339843v-4c0-56.457031-45.933594-102.386719-102.390625-102.386719h-85.457031c-56.457031 0-102.390625 45.929688-102.390625 102.386719v4c0 16.347656 3.839844 32.179687 11.199219 46.519531-54.34375 41.609375-86.371094 105.957031-86.371094 174.914062 0 58.960938 23 114.363282 64.765625 155.996094 18.234375 18.175782 42.535156 28.183594 68.433594 28.183594h174.1875c25.851562 0 50.085937-9.941406 68.238281-27.996094 41.886719-41.65625 64.957031-97.121094 64.957031-156.183594 0-69.1875-31.996093-133.59375-86.285156-175.09375zm-65.535156-46.339843c0 14.195312-11.546875 25.742187-25.742188 25.742187h-85.457031c-14.195312 0-25.742188-11.546875-25.742188-25.742187v-3.996094c0-14.195313 11.546876-25.742187 25.742188-25.742187h85.457031c14.195313 0 25.742188 11.546874 25.742188 25.738281zm0 0" fill="#707789"/><path d="m354.296875 152.726562c7.304687-14.289062 11.113281-30.0625 11.113281-46.339843v-4c0-56.457031-45.933594-102.386719-102.390625-102.386719h-42.730469v76.648438h42.730469c14.195313 0 25.742188 11.546874 25.742188 25.738281v4c0 14.195312-11.546875 25.742187-25.742188 25.742187h-42.730469v379.871094h87.097657c25.851562 0 50.085937-9.941406 68.238281-27.996094 41.886719-41.65625 64.957031-97.121094 64.957031-156.183594 0-69.1875-31.996093-133.59375-86.285156-175.09375zm0 0" fill="#555a66"/><path d="m207.125 243.820312c-6.253906-5.707031-15.949219-5.265624-21.65625.988282l-32.53125 35.644531v-25.308594c0-8.46875-6.863281-15.332031-15.332031-15.332031-8.464844 0-15.328125 6.863281-15.328125 15.332031v64.839844.003906 64.839844c0 8.464844 6.863281 15.328125 15.328125 15.328125 8.46875 0 15.332031-6.863281 15.332031-15.328125v-25.308594l32.53125 35.644531c3.023438 3.3125 7.167969 4.992188 11.328125 4.992188 3.6875 0 7.386719-1.324219 10.328125-4.003906 6.253906-5.707032 6.695312-15.40625.988281-21.65625l-49.753906-54.507813 49.753906-54.507812c5.707031-6.257813 5.265625-15.953125-.988281-21.660157zm0 0" fill="#555a66"/><path d="m302.976562 316.625h-16.824218c-8.464844 0-15.328125 6.863281-15.328125 15.328125s6.863281 15.328125 15.328125 15.328125h1.492187v7.953125c0 7.867187-6.398437 14.265625-14.261719 14.265625-7.863281 0-14.261718-6.398438-14.261718-14.265625v-70.5c0-7.863281 6.398437-14.261719 14.261718-14.261719 7.863282 0 14.261719 6.398438 14.261719 14.261719 0 8.46875 6.863281 15.332031 15.332031 15.332031 8.464844 0 15.328126-6.863281 15.328126-15.332031 0-24.769531-20.152344-44.921875-44.921876-44.921875-24.769531 0-44.921874 20.152344-44.921874 44.921875v70.5c0 24.769531 20.152343 44.921875 44.921874 44.921875 24.769532 0 44.921876-20.152344 44.921876-44.921875v-23.28125c0-8.464844-6.863282-15.328125-15.328126-15.328125zm0 0" fill="#353535"/></svg>