<svg height="512pt" viewBox="-18 0 512 512.001" width="512pt" xmlns="http://www.w3.org/2000/svg"><path d="m114.902344 305.828125h-65.070313c-27.476562 0-49.832031-22.351563-49.832031-49.828125 0-13.308594 5.1875-25.824219 14.601562-35.238281 9.40625-9.410157 21.917969-14.589844 35.230469-14.589844h65.066407c8.324218 0 15.070312 6.746094 15.070312 15.066406v69.523438c0 8.320312-6.746094 15.066406-15.066406 15.066406zm0 0" fill="#00a0aa"/><path d="m425.421875 305.828125h-65.070313c-8.320312 0-15.070312-6.746094-15.070312-15.066406v-69.523438c0-8.320312 6.75-15.066406 15.070312-15.066406h65.070313c27.476563 0 49.832031 22.351563 49.832031 49.828125 0 13.308594-5.1875 25.824219-14.601562 35.238281-9.410156 9.410157-21.921875 14.589844-35.230469 14.589844zm0 0" fill="#108d91"/><path d="m199.953125 305.828125h-100.121094v-99.65625h100.121094zm0 0" fill="#64e1dc"/><path d="m375.421875 305.828125h-100.121094v-99.65625h100.121094zm0 0" fill="#00c8c8"/><path d="m237.625 512c-37.390625 0-67.8125-30.421875-67.8125-67.8125v-376.375c0-37.390625 30.421875-67.8125 67.8125-67.8125 18.109375 0 35.140625 7.054688 47.949219 19.867188 12.8125 12.808593 19.863281 29.835937 19.863281 47.945312v376.375c0 37.390625-30.417969 67.8125-67.8125 67.8125zm0 0" fill="#555a66"/><path d="m237.625 0c-.046875 0-.09375.00390625-.144531.00390625v511.99218775c.050781 0 .097656.003906.144531.003906 37.394531 0 67.8125-30.417969 67.8125-67.8125v-376.375c0-18.109375-7.050781-35.136719-19.863281-47.949219-12.808594-12.808593-29.839844-19.863281-47.949219-19.863281zm0 0" fill="#353535"/></svg>