<svg height="512pt" viewBox="0 -95 512 512" width="512pt" xmlns="http://www.w3.org/2000/svg"><path d="m412.5625 322.898438c-54.832031 0-99.4375-44.609376-99.4375-99.4375 0-54.832032 44.605469-99.4375 99.4375-99.4375 54.828125 0 99.4375 44.605468 99.4375 99.4375 0 54.828124-44.609375 99.4375-99.4375 99.4375zm0-168.5625c-38.113281 0-69.121094 31.007812-69.121094 69.125 0 38.113281 31.007813 69.121093 69.121094 69.121093s69.121094-31.007812 69.121094-69.121093c0-38.117188-31.007813-69.125-69.121094-69.125zm0 0" fill="#353535"/><path d="m412.566406 238.621094c-6.078125 0-11.8125-3.683594-14.140625-9.691406l-80.605469-208.300782c-1.804687-4.664062-1.191406-9.914062 1.632813-14.039062 2.828125-4.125 7.503906-6.589844 12.503906-6.589844h90.316407c8.371093 0 15.15625 6.785156 15.15625 15.15625v24.800781c0 16.941407-13.78125 30.722657-30.722657 30.722657-8.371093 0-15.15625-6.789063-15.15625-15.160157 0-8.371093 6.785157-15.15625 15.15625-15.15625.226563 0 .40625-.183593.40625-.40625v-9.640625h-53.035156l72.621094 187.671875c3.023437 7.808594-.859375 16.585938-8.664063 19.609375-1.800781.695313-3.652344 1.023438-5.46875 1.023438zm0 0" fill="#0076fe"/><path d="m99.4375 322.898438c-54.828125 0-99.4375-44.609376-99.4375-99.4375 0-54.832032 44.609375-99.4375 99.4375-99.4375 54.832031 0 99.4375 44.605468 99.4375 99.4375 0 54.828124-44.605469 99.4375-99.4375 99.4375zm0-168.5625c-38.113281 0-69.121094 31.007812-69.121094 69.125 0 38.113281 31.007813 69.121093 69.121094 69.121093s69.121094-31.007812 69.121094-69.121093c0-38.117188-31.007813-69.125-69.121094-69.125zm0 0" fill="#555a66"/><path d="m241 238.621094c-.101562 0-.203125 0-.300781-.003906h-141.261719c-5.21875 0-10.070312-2.683594-12.84375-7.109376-2.769531-4.421874-3.074219-9.957031-.796875-14.65625l88.183594-182.085937c3.648437-7.53125 12.714843-10.683594 20.25-7.035156 7.53125 3.652343 10.683593 12.714843 7.035156 20.25l-11.863281 24.492187h170.597656c5.949219 0 11.347656 3.476563 13.804688 8.898438 2.457031 5.417968 1.515624 11.773437-2.402344 16.246094l-118.785156 135.570312c-1.164063 1.390625-2.597657 2.59375-4.269532 3.523438-.003906 0-.007812.003906-.011718.003906-.128907.074218-.265626.144531-.398438.214844-.003906 0-.011719.003906-.015625.007812-2.214844 1.140625-4.585937 1.683594-6.921875 1.683594zm-117.378906-30.320313h92.097656l-48.28125-90.476562zm70.15625-105.515625 50.257812 94.191406 82.53125-94.191406zm0 0" fill="#69d3ff"/><path d="m360 72.472656h-99.828125v30.3125h66.394531l-66.394531 75.777344v46l111.226563-126.945312c3.921874-4.472657 4.863281-10.828126 2.40625-16.246094-2.457032-5.417969-7.855469-8.898438-13.804688-8.898438zm0 0" fill="#00b9fc"/><path d="m216.546875 56.53125h-57.851563c-8.371093 0-15.160156-6.785156-15.160156-15.15625s6.789063-15.160156 15.160156-15.160156h57.851563c8.371094 0 15.160156 6.789062 15.160156 15.160156s-6.785156 15.15625-15.160156 15.15625zm0 0" fill="#555a66"/></svg>