<svg height="512.001pt" viewBox="0 0 512.001 512.001" width="512.001pt" xmlns="http://www.w3.org/2000/svg"><path d="m512 256c0 141.386719-114.613281 256-256 256-141.382812 0-256-114.613281-256-256 0-141.382812 114.617188-256 256-256 141.386719 0 256 114.617188 256 256zm0 0" fill="#ffa426"/><path d="m512 256c0-141.382812-114.617188-256-256-256v512c141.382812 0 256-114.617188 256-256zm0 0" fill="#fa732d"/><path d="m460.699219 102.25c-6.214844-8.257812-12.921875-16.128906-20.070313-23.570312-36.992187 46.269531-58.554687 103-61.710937 162.15625h-107.753907v-240.378907c-5.019531-.292969-10.070312-.457031-15.164062-.457031-5.089844 0-10.144531.164062-15.164062.457031v240.378907h-107.753907c-3.15625-59.15625-24.722656-115.886719-61.710937-162.15625-7.148438 7.441406-13.855469 15.308593-20.070313 23.570312 30.5 40.023438 48.398438 88.285156 51.410157 138.585938h-102.253907c-.292969 5.019531-.457031 10.070312-.457031 15.164062 0 5.089844.164062 10.144531.457031 15.164062h102.253907c-3.007813 50.296876-20.910157 98.5625-51.410157 138.585938 6.214844 8.257812 12.921875 16.128906 20.070313 23.570312 36.992187-46.269531 58.554687-103 61.710937-162.15625h107.753907v240.378907c5.019531.292969 10.070312.457031 15.164062.457031 5.089844 0 10.144531-.164062 15.164062-.457031v-240.378907h107.75c3.160157 59.15625 24.722657 115.886719 61.714844 162.15625 7.148438-7.441406 13.851563-15.308593 20.066406-23.570312-30.496093-40.023438-48.398437-88.289062-51.40625-138.585938h102.25c.292969-5.019531.460938-10.074218.460938-15.164062 0-5.09375-.167969-10.144531-.460938-15.164062h-102.25c3.011719-50.296876 20.910157-98.5625 51.410157-138.585938zm0 0" fill="#555a66"/><path d="m271.164062 511.542969v-240.378907h107.753907c3.15625 59.15625 24.722656 115.886719 61.710937 162.15625 7.148438-7.441406 13.855469-15.308593 20.070313-23.570312-30.5-40.023438-48.402344-88.289062-51.410157-138.585938h102.253907c.292969-5.019531.457031-10.074218.457031-15.164062 0-5.09375-.164062-10.144531-.457031-15.164062h-102.253907c3.007813-50.300782 20.910157-98.5625 51.410157-138.585938-6.214844-8.261719-12.921875-16.132812-20.070313-23.574219-36.992187 46.273438-58.554687 103-61.710937 162.160157h-107.753907v-240.378907c-5.019531-.292969-10.070312-.457031-15.164062-.457031v512c5.09375 0 10.144531-.164062 15.164062-.457031zm0 0" fill="#353535"/></svg>