<svg height="512pt" viewBox="0 0 512.00139 512" width="512pt" xmlns="http://www.w3.org/2000/svg"><path d="m330.863281 288.242188-40.117187 2.507812-2.503906 40.113281c-.65625 10.476563-5.101563 20.328125-12.523438 27.746094-7.53125 7.53125-17.535156 11.988281-28.167969 12.546875l-45.308593 2.382812-41.144532 41.144532c-5.921875 5.921875-15.519531 5.921875-21.4375 0l-39.421875-39.421875c-5.921875-5.921875-5.921875-15.519531 0-21.4375l52.820313-52.824219c7.53125-7.53125 17.535156-11.984375 28.171875-12.546875l23.5-1.234375 2.484375-39.738281c1.351562-21.605469 18.660156-38.917969 40.269531-40.265625l39.738281-2.484375 1.234375-23.503907c.558594-10.632812 5.015625-20.640624 12.546875-28.167968l52.820313-52.824219c5.921875-5.921875 15.519531-5.921875 21.4375 0l39.425781 39.421875c5.917969 5.921875 5.917969 15.519531 0 21.4375l-41.144531 41.144531-2.386719 45.3125c-.574219 10.992188-5.253906 20.882813-12.542969 28.171875-7.1875 7.1875-16.914062 11.839844-27.75 12.519532zm0 0" fill="#f2f6fc"/><path d="m290.746094 290.75-2.503906 40.113281c-.65625 10.476563-5.101563 20.328125-12.523438 27.746094-7.53125 7.53125-17.535156 11.988281-28.167969 12.546875l-45.308593 2.382812-41.144532 41.144532c-5.921875 5.921875-15.519531 5.921875-21.4375 0l-39.421875-39.421875c-5.921875-5.921875-5.921875-15.519531 0-21.4375l52.820313-52.824219c7.53125-7.53125 17.535156-11.984375 28.171875-12.546875l23.5-1.234375 2.484375-39.738281c.675781-10.804688 5.339844-20.53125 12.539062-27.730469zm0 0" fill="#e5eaf5"/><path d="m44.3125 470.605469c-16.777344-16.777344-16.777344-44.082031 0-60.859375l13.78125-13.78125c5.921875-5.921875 15.519531-5.921875 21.4375 0l39.425781 39.421875c5.917969 5.917969 5.917969 15.515625 0 21.4375l-13.78125 13.78125c-16.78125 16.78125-44.082031 16.78125-60.863281 0zm0 0" fill="#e5eaf5"/><path d="m435.386719 118.957031-39.425781-39.421875c-5.917969-5.921875-5.917969-15.519531 0-21.441406l13.785156-13.78125c16.777344-16.777344 44.082031-16.777344 60.859375 0 16.777343 16.78125 16.777343 44.082031 0 60.863281l-13.78125 13.78125c-5.917969 5.917969-15.519531 5.917969-21.4375 0zm0 0" fill="#f2f6fc"/><path d="m139.546875 498.855469-126.402344-126.402344c-17.527343-17.527344-17.527343-46.050781 0-63.578125 17.53125-17.527344 46.050781-17.527344 63.578125 0l126.402344 126.402344c17.527344 17.527344 17.527344 46.050781 0 63.578125-17.527344 17.527343-46.046875 17.527343-63.578125 0zm0 0" fill="#555a66"/><path d="m435.277344 203.125-126.402344-126.398438c-17.527344-17.53125-17.527344-46.050781 0-63.578124 17.527344-17.53125 46.050781-17.53125 63.578125 0l126.402344 126.398437c17.527343 17.527344 17.527343 46.050781 0 63.578125-17.53125 17.53125-46.050781 17.53125-63.578125 0zm0 0" fill="#555a66"/><g fill="#353535"><path d="m308.875 13.148438 189.980469 189.976562c-17.53125 17.53125-46.050781 17.53125-63.578125 0l-126.402344-126.398438c-17.527344-17.53125-17.527344-46.050781 0-63.578124zm0 0"/><path d="m13.144531 308.875 189.980469 189.980469c-17.527344 17.527343-46.046875 17.527343-63.578125 0l-126.398437-126.402344c-17.53125-17.527344-17.53125-46.050781-.003907-63.578125zm0 0"/></g></svg>