<svg height="512pt" viewBox="-107 0 511 512" width="512pt" xmlns="http://www.w3.org/2000/svg"><path d="m188.285156 77.316406h-79.085937c-8.347657 0-15.113281-6.765625-15.113281-15.113281v-47.085937c0-8.347657 6.765624-15.117188 15.113281-15.117188h79.085937c8.347656 0 15.117188 6.769531 15.117188 15.117188v47.085937c0 8.347656-6.769532 15.113281-15.117188 15.113281zm0 0" fill="#f2f6fc"/><path d="m188.285156 0h-39.542968v77.316406h39.542968c8.347656 0 15.117188-6.765625 15.117188-15.113281v-47.085937c0-8.347657-6.769532-15.117188-15.117188-15.117188zm0 0" fill="#e5eaf5"/><path d="m250.597656 179.453125h-203.707031c-8.347656 0-15.117187-6.765625-15.117187-15.113281v-39.148438c0-43.066406 35.039062-78.105468 78.109374-78.105468h77.722657c43.066406 0 78.105469 35.039062 78.105469 78.105468v39.148438c0 8.347656-6.765626 15.113281-15.113282 15.113281zm0 0" fill="#e5eaf5"/><path d="m187.605469 47.085938h-38.863281v132.367187h101.855468c8.347656 0 15.113282-6.765625 15.113282-15.113281v-39.148438c0-43.066406-35.039063-78.105468-78.105469-78.105468zm0 0" fill="#cdd2e1"/><path d="m259.660156 223.875h-221.835937c-20.578125 0-37.324219-16.742188-37.324219-37.324219s16.746094-37.328125 37.324219-37.328125h221.835937c20.582032 0 37.328125 16.746094 37.328125 37.328125 0 20.578125-16.746093 37.324219-37.328125 37.324219zm0 0" fill="#f2f6fc"/><path d="m54.355469 316.921875c-8.347657 0-15.117188-6.765625-15.117188-15.113281v-40.640625c0-8.351563 6.769531-15.117188 15.117188-15.117188 8.347656 0 15.113281 6.765625 15.113281 15.117188v40.640625c0 8.347656-6.765625 15.113281-15.113281 15.113281zm0 0" fill="#e3fbff"/><path d="m117.28125 316.921875c-8.347656 0-15.117188-6.765625-15.117188-15.113281v-40.640625c0-8.351563 6.769532-15.117188 15.117188-15.117188s15.113281 6.765625 15.113281 15.117188v40.640625c0 8.347656-6.765625 15.113281-15.113281 15.113281zm0 0" fill="#e3fbff"/><path d="m180.207031 316.921875c-8.347656 0-15.117187-6.765625-15.117187-15.113281v-40.640625c0-8.351563 6.769531-15.117188 15.117187-15.117188 8.347657 0 15.113281 6.765625 15.113281 15.117188v40.640625c0 8.347656-6.765624 15.113281-15.113281 15.113281zm0 0" fill="#bff7ff"/><path d="m243.132812 316.921875c-8.347656 0-15.117187-6.765625-15.117187-15.113281v-40.640625c0-8.351563 6.769531-15.117188 15.117187-15.117188 8.347657 0 15.117188 6.765625 15.117188 15.117188v40.640625c0 8.347656-6.769531 15.113281-15.117188 15.113281zm0 0" fill="#bff7ff"/><path d="m54.355469 414.460938c-8.347657 0-15.117188-6.765626-15.117188-15.113282v-40.644531c0-8.347656 6.769531-15.113281 15.117188-15.113281 8.347656 0 15.113281 6.765625 15.113281 15.113281v40.644531c0 8.347656-6.765625 15.113282-15.113281 15.113282zm0 0" fill="#e3fbff"/><path d="m117.28125 414.460938c-8.347656 0-15.117188-6.765626-15.117188-15.113282v-40.644531c0-8.347656 6.769532-15.113281 15.117188-15.113281s15.113281 6.765625 15.113281 15.113281v40.644531c0 8.347656-6.765625 15.113282-15.113281 15.113282zm0 0" fill="#e3fbff"/><path d="m180.207031 414.460938c-8.347656 0-15.117187-6.765626-15.117187-15.113282v-40.644531c0-8.347656 6.769531-15.113281 15.117187-15.113281 8.347657 0 15.113281 6.765625 15.113281 15.113281v40.644531c0 8.347656-6.765624 15.113282-15.113281 15.113282zm0 0" fill="#bff7ff"/><path d="m243.132812 414.460938c-8.347656 0-15.117187-6.765626-15.117187-15.113282v-40.644531c0-8.347656 6.769531-15.113281 15.117187-15.113281 8.347657 0 15.117188 6.765625 15.117188 15.113281v40.644531c0 8.347656-6.769531 15.113282-15.117188 15.113282zm0 0" fill="#bff7ff"/><path d="m54.355469 512c-8.347657 0-15.117188-6.769531-15.117188-15.117188v-40.640624c0-8.347657 6.769531-15.113282 15.117188-15.113282 8.347656 0 15.113281 6.765625 15.113281 15.113282v40.640624c0 8.347657-6.765625 15.117188-15.113281 15.117188zm0 0" fill="#e3fbff"/><path d="m117.28125 512c-8.347656 0-15.117188-6.769531-15.117188-15.117188v-40.640624c0-8.347657 6.769532-15.113282 15.117188-15.113282s15.113281 6.765625 15.113281 15.113282v40.640624c0 8.347657-6.765625 15.117188-15.113281 15.117188zm0 0" fill="#e3fbff"/><path d="m180.207031 512c-8.347656 0-15.117187-6.769531-15.117187-15.117188v-40.640624c0-8.347657 6.769531-15.113282 15.117187-15.113282 8.347657 0 15.113281 6.765625 15.113281 15.113282v40.640624c0 8.347657-6.765624 15.117188-15.113281 15.117188zm0 0" fill="#bff7ff"/><path d="m243.132812 512c-8.347656 0-15.117187-6.769531-15.117187-15.117188v-40.640624c0-8.347657 6.769531-15.113282 15.117187-15.113282 8.347657 0 15.117188 6.765625 15.117188 15.113282v40.640624c0 8.347657-6.769531 15.117188-15.117188 15.117188zm0 0" fill="#bff7ff"/><path d="m259.660156 149.222656h-110.917968v74.652344h110.917968c20.582032 0 37.328125-16.742188 37.328125-37.324219s-16.746093-37.328125-37.328125-37.328125zm0 0" fill="#e5eaf5"/></svg>