<svg height="512pt" viewBox="0 0 512.00101 512" width="512pt" xmlns="http://www.w3.org/2000/svg"><path d="m256 512c-68.378906 0-132.667969-26.628906-181.019531-74.980469-48.351563-48.351562-74.980469-112.640625-74.980469-181.019531s26.628906-132.667969 74.980469-181.019531c48.351562-48.351563 112.640625-74.980469 181.019531-74.980469s132.667969 26.628906 181.019531 74.980469c48.351563 48.351562 74.980469 112.640625 74.980469 181.019531s-26.628906 132.667969-74.980469 181.019531c-48.351562 48.351563-112.640625 74.980469-181.019531 74.980469zm0 0" fill="#69d3ff"/><path d="m437.019531 437.019531c48.351563-48.351562 74.980469-112.640625 74.980469-181.019531s-26.628906-132.667969-74.980469-181.019531c-48.351562-48.351563-112.640625-74.980469-181.019531-74.980469v512c68.378906 0 132.667969-26.628906 181.019531-74.980469zm0 0" fill="#00b9fc"/><g fill="#0076fe"><path d="m0 256c0 5.066406.164062 10.101562.453125 15.117188h511.09375c.289063-5.015626.453125-10.050782.453125-15.117188 0-5.0625-.164062-10.101562-.453125-15.117188h-511.09375c-.289063 5.015626-.453125 10.054688-.453125 15.117188zm0 0"/><path d="m8.574219 189.949219h494.851562c-2.730469-10.300781-6.101562-20.394531-10.089843-30.238281h-474.671876c-3.988281 9.84375-7.359374 19.9375-10.089843 30.238281zm0 0"/><path d="m46.488281 108.777344h419.019531c-7.488281-10.613282-15.847656-20.714844-25.015624-30.234375h-368.984376c-9.167968 9.519531-17.527343 19.621093-25.019531 30.234375zm0 0"/><path d="m465.511719 403.222656h-419.023438c7.492188 10.613282 15.851563 20.714844 25.015625 30.238282h368.988282c9.167968-9.523438 17.527343-19.625 25.019531-30.238282zm0 0"/><path d="m18.664062 352.289062h474.671876c3.988281-9.839843 7.359374-19.933593 10.089843-30.234374h-494.851562c2.730469 10.296874 6.101562 20.394531 10.089843 30.234374zm0 0"/></g><path d="m256 433.460938h184.492188c9.167968-9.523438 17.527343-19.625 25.015624-30.238282h-209.507812zm0 0" fill="#0058be"/><path d="m256 352.289062h237.335938c3.988281-9.839843 7.359374-19.933593 10.089843-30.234374h-247.425781zm0 0" fill="#0058be"/><path d="m256 240.882812v30.234376h255.546875c.289063-5.015626.453125-10.050782.453125-15.117188 0-5.0625-.164062-10.101562-.453125-15.117188zm0 0" fill="#0058be"/><path d="m256 189.949219h247.425781c-2.730469-10.300781-6.101562-20.394531-10.089843-30.238281h-237.335938zm0 0" fill="#0058be"/><path d="m256 108.777344h209.511719c-7.492188-10.613282-15.851563-20.714844-25.015625-30.234375h-184.496094zm0 0" fill="#0058be"/></svg>