<svg height="512pt" viewBox="-39 0 512 512.00066" width="512pt" xmlns="http://www.w3.org/2000/svg"><path d="m203.4375 108.601562c-16.273438 0-41.730469-3.171874-59.113281-20.554687-25.820313-25.820313-20.292969-69.453125-19.578125-74.34375.964844-6.585937 6.136718-11.757813 12.722656-12.722656 4.890625-.714844 48.523438-6.242188 74.34375 19.578125 25.820312 25.816406 20.289062 69.453125 19.574219 74.339844-.960938 6.585937-6.132813 11.757812-12.722657 12.722656-1.59375.234375-7.332031.980468-15.226562.980468zm0 0" fill="#64e1dc"/><path d="m217.386719 180.289062c-8.320313 0-15.0625-6.742187-15.0625-15.058593v-65.871094c0-41.019531 33.371093-74.390625 74.390625-74.390625 8.316406 0 15.058594 6.742188 15.058594 15.058594s-6.742188 15.0625-15.058594 15.0625c-24.410156 0-44.269532 19.855468-44.269532 44.269531v65.871094c0 8.316406-6.742187 15.058593-15.058593 15.058593zm0 0" fill="#555a66"/><path d="m273.453125 512c-3.410156 0-6.800781-.277344-10.167969-.835938-13.8125-2.292968-26.59375-9.214843-37.996094-20.574218-4.433593-4.417969-11.378906-4.417969-15.8125 0-11.398437 11.359375-24.179687 18.28125-37.992187 20.574218-3.363281.558594-6.757813.835938-10.167969.835938-32.355468 0-66.449218-24.953125-97.09375-71.441406-29.824218-45.242188-52.472656-104.574219-62.136718-162.789063-6.082032-36.640625 1.242187-73.320312 20.632812-103.28125 19.675781-30.410156 49.359375-50.285156 83.589844-55.96875 34.957031-5.800781 70.046875 3.875 98.796875 27.257813 7.226562 5.878906 17.328125 5.878906 24.558593 0 28.746094-23.382813 63.839844-33.058594 98.796876-27.257813 34.230468 5.683594 63.914062 25.558594 83.589843 55.96875 19.386719 29.960938 26.714844 66.640625 20.632813 103.28125-9.664063 58.214844-32.3125 117.546875-62.136719 162.789063-30.644531 46.488281-64.742187 71.441406-97.09375 71.441406zm0 0" fill="#fa732d"/><path d="m328.460938 118.519531c-34.957032-5.800781-70.050782 3.878907-98.796876 27.257813-3.613281 2.941406-7.945312 4.410156-12.277343 4.410156v337.089844c2.84375 0 5.6875 1.105468 7.90625 3.3125 11.398437 11.359375 24.179687 18.28125 37.992187 20.574218 3.367188.558594 6.757813.835938 10.167969.835938 32.351563 0 66.449219-24.953125 97.09375-71.4375 29.824219-45.246094 52.472656-104.578125 62.136719-162.789062 6.082031-36.640626-1.242188-73.320313-20.632813-103.285157-19.675781-30.410156-49.359375-50.285156-83.589843-55.96875zm0 0" fill="#f03049"/><path d="m274.429688 443.09375c-6.820313 0-13.691407-1.832031-19.855469-5.613281-11.128907-6.828125-23.988281-10.433594-37.1875-10.433594v-216.636719c18.234375 0 36.09375-6.355468 50.285156-17.898437 8.625-7.011719 22.765625-15.375 41.171875-15.375 3.242188 0 6.527344.273437 9.757812.808593 23.335938 3.875 36.878907 20 42.875 29.265626 11.214844 17.335937 15.402344 38.890624 11.78125 60.695312-7.246093 43.640625-23.574218 89.644531-44.796874 126.21875-8.269532 14.246094-16.871094 26.421875-25.566407 36.1875-7.46875 8.378906-17.902343 12.78125-28.464843 12.78125zm0 0" fill="#fffd78"/><path d="m248.183594 272.445312c-10.519532-1.902343-21.492188 1.535157-30.105469 9.421876-.238281.214843-.464844.441406-.691406.664062v71.148438c4.261719 3.398437 9.28125 5.773437 14.894531 6.789062 1.988281.359375 3.96875.535156 5.929688.535156 18.488281 0 35.03125-15.542968 39.0625-37.855468 1.992187-11.019532.507812-22.152344-4.183594-31.34375-5.3125-10.402344-14.390625-17.460938-24.90625-19.359376zm0 0" fill="#555a66"/></svg>