<svg height="512pt" viewBox="0 0 512.00013 512" width="512pt" xmlns="http://www.w3.org/2000/svg"><path d="m485.375 26.621094c11.589844 11.589844 11.589844 30.375 0 41.964844l-416.789062 416.789062c-11.585938 11.589844-30.375 11.589844-41.960938 0-11.589844-11.585938-11.589844-30.375 0-41.960938l416.789062-416.792968c11.589844-11.585938 30.375-11.585938 41.960938 0zm0 0" fill="#f2f6fc"/><path d="m235.019531 235.019531-208.394531 208.394531c-11.589844 11.585938-11.589844 30.375 0 41.960938 11.585938 11.589844 30.375 11.589844 41.960938 0l208.394531-208.394531zm0 0" fill="#e5eaf5"/><path d="m503.308594 132.0625-123.371094-123.371094c-11.589844-11.589844-30.375-11.589844-41.964844 0-11.585937 11.585938-11.585937 30.375 0 41.960938-11.585937-11.585938-30.375-11.585938-41.960937 0-11.585938 11.589844-11.585938 30.375 0 41.964844l123.371093 123.371093c11.589844 11.585938 30.375 11.585938 41.964844 0 11.585938-11.589843 11.585938-30.375 0-41.964843 11.585938 11.589843 30.375 11.589843 41.960938 0 11.589844-11.585938 11.589844-30.375 0-41.960938zm0 0" fill="#555a66"/><path d="m337.972656 50.652344 123.375 123.371094c11.585938 11.589843 30.375 11.589843 41.960938 0l-165.335938-165.332032c-11.585937 11.585938-11.585937 30.375 0 41.960938zm0 0" fill="#353535"/><path d="m296.011719 92.617188 123.371093 123.371093c11.589844 11.585938 30.375 11.585938 41.964844 0l-165.335937-165.335937c-11.585938 11.589844-11.585938 30.375 0 41.964844zm0 0" fill="#353535"/><path d="m215.988281 419.382812-123.371093-123.371093c-11.589844-11.585938-30.375-11.585938-41.964844 0-11.585938 11.585937-11.585938 30.375 0 41.960937-11.585938-11.585937-30.375-11.585937-41.960938 0-11.585937 11.589844-11.585937 30.375 0 41.964844l123.371094 123.371094c11.589844 11.585937 30.375 11.585937 41.964844 0 11.585937-11.585938 11.585937-30.375 0-41.960938 11.585937 11.585938 30.375 11.585938 41.960937 0 11.585938-11.589844 11.585938-30.375 0-41.964844zm0 0" fill="#555a66"/><g fill="#353535"><path d="m50.652344 337.972656 123.375 123.375c11.585937 11.585938 30.375 11.585938 41.960937 0l-165.335937-165.335937c-11.585938 11.585937-11.585938 30.375 0 41.960937zm0 0"/><path d="m8.691406 379.9375 123.371094 123.371094c11.589844 11.585937 30.375 11.585937 41.964844 0l-165.335938-165.335938c-11.589844 11.589844-11.589844 30.375 0 41.964844zm0 0"/></g></svg>