<svg height="512pt" viewBox="0 -131 512 511" width="512pt" xmlns="http://www.w3.org/2000/svg"><path d="m417.160156 49.117188c-43.238281-31.351563-100.472656-48.617188-161.160156-48.617188s-117.921875 17.265625-161.160156 48.617188c-44.703125 32.417968-69.324219 75.980468-69.324219 122.664062 0 8.351562 6.769531 15.121094 15.121094 15.121094h430.730469c8.347656 0 15.117187-6.769532 15.117187-15.121094 0-46.683594-24.621094-90.246094-69.324219-122.664062zm0 0" fill="#ffa426"/><path d="m417.160156 49.117188c-41.316406-29.960938-95.421875-47.042969-153.101562-48.503907v186.289063h207.308594c8.347656 0 15.117187-6.769532 15.117187-15.121094 0-46.683594-24.621094-90.246094-69.324219-122.664062zm0 0" fill="#fa732d"/><path d="m444.324219 72.710938c-7.996094-8.371094-17.0625-16.269532-27.164063-23.59375-3.160156-2.292969-6.40625-4.5-9.714844-6.640626h-302.890624c-3.308594 2.140626-6.554688 4.347657-9.714844 6.640626-10.101563 7.324218-19.167969 15.222656-27.164063 23.59375zm0 0" fill="#fa732d"/><path d="m407.445312 42.476562h-143.386718v30.234376h180.265625c-7.996094-8.371094-17.0625-16.269532-27.164063-23.59375-3.160156-2.292969-6.40625-4.5-9.714844-6.640626zm0 0" fill="#f03049"/><path d="m30.816406 134.847656h450.367188c-3.035156-10.402344-7.34375-20.515625-12.882813-30.238281h-424.601562c-5.539063 9.71875-9.847657 19.832031-12.882813 30.238281zm0 0" fill="#fa732d"/><path d="m264.058594 134.847656h217.125c-3.035156-10.402344-7.34375-20.515625-12.882813-30.238281h-204.242187zm0 0" fill="#f03049"/><path d="m469.324219 166.742188h-426.648438c-23.53125 0-42.675781 19.144531-42.675781 42.679687v25.945313c0 8.351562 6.769531 15.121093 15.117188 15.121093h481.765624c8.347657 0 15.117188-6.769531 15.117188-15.121093v-25.945313c0-23.535156-19.144531-42.679687-42.675781-42.679687zm0 0" fill="#fa732d"/><path d="m469.324219 166.742188h-205.265625v83.746093h232.824218c8.347657 0 15.117188-6.769531 15.117188-15.121093v-25.945313c0-23.535156-19.144531-42.679687-42.675781-42.679687zm0 0" fill="#f03049"/></svg>