<svg height="512pt" viewBox="0 -2 512 512" width="512pt" xmlns="http://www.w3.org/2000/svg"><path d="m443.054688 507.210938h-278.648438c-75.960938 0-137.757812-61.800782-137.757812-137.761719v-221.226563c0-8.277344 6.710937-14.988281 14.988281-14.988281 8.277343 0 14.988281 6.710937 14.988281 14.988281v221.226563c0 59.433593 48.351562 107.785156 107.78125 107.785156h278.648438c21.484374 0 38.96875-17.480469 38.96875-38.96875s-17.484376-38.96875-38.96875-38.96875h-227.847657c-48.691406 0-88.300781-39.613281-88.300781-88.300781v-162.773438c0-8.277344 6.710938-14.988281 14.988281-14.988281 8.277344 0 14.988281 6.710937 14.988281 14.988281v162.773438c0 32.160156 26.164063 58.324218 58.324219 58.324218h227.847657c38.015624 0 68.945312 30.929688 68.945312 68.945313s-30.929688 68.945313-68.945312 68.945313zm0 0" fill="#0076fe"/><path d="m443.054688 369.320312h-173.730469v29.976563h173.730469c21.488281 0 38.96875 17.480469 38.96875 38.96875s-17.480469 38.96875-38.96875 38.96875h-173.730469v29.976563h173.730469c38.015624 0 68.945312-30.929688 68.945312-68.945313s-30.929688-68.945313-68.945312-68.945313zm0 0" fill="#0058be"/><path d="m154.671875 0h-25.558594c-15.910156 0-28.855469 12.945312-28.855469 28.855469v92.71875c0 22.957031 18.675782 41.636719 41.636719 41.636719 22.957031 0 41.632813-18.679688 41.632813-41.636719v-92.71875c0-15.910157-12.941406-28.855469-28.855469-28.855469zm0 0" fill="#fffd78"/><path d="m154.671875 0h-12.777344v163.210938c22.957031 0 41.632813-18.675782 41.632813-41.636719v-92.71875c0-15.910157-12.941406-28.855469-28.855469-28.855469zm0 0" fill="#ffe733"/><path d="m54.414062 0h-25.558593c-15.910157 0-28.855469 12.945312-28.855469 28.855469v92.71875c0 22.960937 18.675781 41.636719 41.636719 41.636719 22.957031 0 41.632812-18.675782 41.632812-41.636719v-92.71875c0-15.910157-12.945312-28.855469-28.855469-28.855469zm0 0" fill="#fffd78"/><path d="m54.414062 0h-12.777343v163.210938c22.957031 0 41.632812-18.675782 41.632812-41.636719v-92.71875c0-15.910157-12.945312-28.855469-28.855469-28.855469zm0 0" fill="#ffe733"/></svg>