<svg height="512pt" viewBox="0 0 512 512" width="512pt" xmlns="http://www.w3.org/2000/svg"><path d="m496.800781 240.800781h-33.65625c.363281 5.019531.558594 10.085938.558594 15.199219 0 114.792969-93.058594 207.847656-207.851563 207.847656-114.789062 0-207.847656-93.054687-207.847656-207.847656 0-5.113281.191406-10.179688.554688-15.199219h-33.359375c-8.394531 0-15.199219 6.804688-15.199219 15.199219 0 68.378906 26.628906 132.664062 74.980469 181.019531 48.355469 48.351563 112.640625 74.980469 181.019531 74.980469s132.664062-26.628906 181.019531-74.980469c48.351563-48.355469 74.980469-112.640625 74.980469-181.019531 0-8.394531-6.804688-15.199219-15.199219-15.199219zm0 0" fill="#0076fe"/><path d="m496.800781 240.800781h-33.65625c.363281 5.019531.558594 10.085938.558594 15.199219 0 114.792969-93.058594 207.847656-207.851563 207.847656v48.148438c.050782 0 .101563.003906.148438.003906 68.378906 0 132.664062-26.628906 181.019531-74.980469 48.351563-48.355469 74.980469-112.640625 74.980469-181.019531 0-8.394531-6.804688-15.199219-15.199219-15.199219zm0 0" fill="#0058be"/><path d="m437.019531 74.980469c-48.355469-48.351563-112.640625-74.980469-181.019531-74.980469s-132.667969 26.628906-181.019531 74.980469c-48.351563 48.355469-74.980469 112.640625-74.980469 181.019531h48.003906c0-114.792969 93.058594-207.847656 207.847656-207.847656 114.792969 0 207.851563 93.054687 207.851563 207.847656h48.296875c0-68.378906-26.628906-132.667969-74.980469-181.019531zm0 0" fill="#fffd78"/><path d="m437.019531 74.980469c-48.355469-48.351563-112.640625-74.980469-181.019531-74.980469-.050781 0-.097656.00390625-.148438.00390625v48.14843775c114.792969 0 207.851563 93.054687 207.851563 207.847656h48.296875c0-68.378906-26.628906-132.667969-74.980469-181.019531zm0 0" fill="#ffe733"/></svg>