<svg height="512pt" viewBox="0 -145 512 512" width="512pt" xmlns="http://www.w3.org/2000/svg"><path d="m39.933594 214.203125c-3.335938 0-6.730469-.417969-10.121094-1.285156-17.832031-4.554688-29.8125-19.976563-29.8125-38.378907v-89.578124l30.117188-15.054688v104.632812c0 6.65625 4.996093 8.648438 7.144531 9.199219 2.148437.546875 7.492187 1.191407 10.683593-4.648437l63.59375-116.402344c3.988282-7.300781 13.140626-9.984375 20.4375-5.996094 7.296876 3.988282 9.980469 13.136719 5.996094 20.433594l-63.597656 116.402344c-7.144531 13.078125-20.246094 20.675781-34.441406 20.675781zm0 0" fill="#707789"/><path d="m472.066406 214.203125c-14.195312 0-27.296875-7.597656-34.441406-20.675781l-63.597656-116.402344c-3.984375-7.296875-1.300782-16.445312 5.996094-20.433594 7.300781-3.988281 16.449218-1.304687 20.4375 5.996094l63.59375 116.402344c3.191406 5.839844 8.535156 5.195312 10.683593 4.648437 2.148438-.550781 7.144531-2.542969 7.144531-9.199219v-104.632812l30.117188 15.054688v89.578124c0 18.402344-11.980469 33.824219-29.8125 38.378907-3.390625.867187-6.789062 1.285156-10.121094 1.285156zm0 0" fill="#555a66"/><path d="m256 222.894531c-17.753906 0-33.03125-11.449219-38.015625-28.488281l-35.203125-120.269531c-2.335938-7.980469 2.242188-16.347657 10.222656-18.683594 7.980469-2.332031 16.347656 2.242187 18.683594 10.222656l35.199219 120.273438c1.804687 6.160156 6.972656 6.828125 9.113281 6.828125s7.308594-.667969 9.113281-6.828125l35.199219-120.273438c2.335938-7.980469 10.703125-12.550781 18.683594-10.222656 7.980468 2.335937 12.558594 10.703125 10.222656 18.683594l-35.203125 120.269531c-4.984375 17.039062-20.261719 28.488281-38.015625 28.488281zm0 0" fill="#707789"/><path d="m294.015625 194.40625 35.203125-120.269531c2.335938-7.980469-2.242188-16.347657-10.222656-18.683594-7.980469-2.328125-16.347656 2.242187-18.683594 10.222656l-35.199219 120.273438c-1.804687 6.160156-6.972656 6.824219-9.113281 6.824219v30.121093c17.753906 0 33.03125-11.449219 38.015625-28.488281zm0 0" fill="#555a66"/><path d="m512 54.84375-256 20.082031-256-20.082031v-7.839844c0-25.960937 21.046875-47.003906 47.003906-47.003906h417.992188c25.957031 0 47.003906 21.046875 47.003906 47.003906zm0 0" fill="#555a66"/><path d="m464.996094 0h-208.996094v74.925781l256-20.082031v-7.839844c0-25.957031-21.046875-47.003906-47.003906-47.003906zm0 0" fill="#353535"/><path d="m0 54.84375h512v30.117188h-512zm0 0" fill="#f2f6fc"/><path d="m256 54.84375h256v30.117188h-256zm0 0" fill="#e5eaf5"/></svg>