<svg height="512pt" viewBox="-57 0 512 512" width="512pt" xmlns="http://www.w3.org/2000/svg"><path d="m383.707031 458.613281h-184.234375c-8.414062 0-15.238281-6.820312-15.238281-15.238281v-374.75c0-8.417969 6.824219-15.238281 15.238281-15.238281h184.234375c8.414063 0 15.238281 6.820312 15.238281 15.238281v374.75c0 8.417969-6.820312 15.238281-15.238281 15.238281zm0 0" fill="#00b9fc"/><path d="m184.234375 256v187.375c0 8.417969 6.824219 15.238281 15.238281 15.238281h184.234375c8.414063 0 15.238281-6.820312 15.238281-15.238281v-187.375zm0 0" fill="#0076fe"/><path d="m398.945312 381.21875h-214.710937v-250.4375h214.710937zm0 0" fill="#69d3ff"/><path d="m184.234375 256h214.710937v125.21875h-214.710937zm0 0" fill="#00b9fc"/><path d="m199.472656 512h-184.234375c-8.414062 0-15.238281-6.824219-15.238281-15.238281v-481.523438c0-8.414062 6.824219-15.238281 15.238281-15.238281h184.234375c8.414063 0 15.238282 6.824219 15.238282 15.238281v481.523438c0 8.414062-6.824219 15.238281-15.238282 15.238281zm0 0" fill="#0076fe"/><path d="m15.238281 512h184.234375c8.414063 0 15.238282-6.824219 15.238282-15.238281v-240.761719h-214.710938v240.761719c0 8.414062 6.820312 15.238281 15.238281 15.238281zm0 0" fill="#0058be"/><path d="m153.300781 512h-91.890625v-512h91.890625zm0 0" fill="#00b9fc"/><path d="m61.410156 256h91.890625v256h-91.890625zm0 0" fill="#0076fe"/></svg>