<svg height="512pt" viewBox="-105 0 512 512" width="512pt" xmlns="http://www.w3.org/2000/svg"><path d="m227.078125 512h-151.570313c-21.96875 0-40.617187-17.144531-42.460937-39.03125l-22.496094-267.113281c-.355469-4.214844 1.074219-8.382813 3.933594-11.5 2.863281-3.113281 6.902344-4.886719 11.132813-4.886719h251.621093c4.234375 0 8.273438 1.777344 11.136719 4.894531 2.863281 3.117188 4.289062 7.292969 3.929688 11.511719l-22.773438 267.136719c-1.894531 22.226562-20.144531 38.988281-42.453125 38.988281zm0 0" fill="#64e1dc"/><path d="m277.238281 189.46875h-125.808593v322.53125h75.648437c22.308594 0 40.558594-16.761719 42.457031-38.988281l22.769532-267.140625c.359374-4.214844-1.066407-8.390625-3.929688-11.507813-2.863281-3.117187-6.902344-4.894531-11.136719-4.894531zm0 0" fill="#00c8c8"/><path d="m235.339844 103.058594c-8.347656 0-15.117188-6.765625-15.117188-15.117188v-72.824218c0-8.347657 6.769532-15.117188 15.117188-15.117188 8.351562 0 15.117187 6.769531 15.117187 15.117188v72.824218c0 8.351563-6.765625 15.117188-15.117187 15.117188zm0 0" fill="#00a0aa"/><path d="m256.703125 156.589844h-210.546875c-8.351562 0-15.121094-6.765625-15.121094-15.117188 0-57.21875 54.007813-103.765625 120.394532-103.765625 66.382812 0 120.390624 46.550781 120.390624 103.765625 0 8.351563-6.769531 15.117188-15.117187 15.117188zm0 0" fill="#f2f6fc"/><path d="m151.429688 37.707031v118.882813h105.273437c8.347656 0 15.117187-6.765625 15.117187-15.117188 0-57.214844-54.007812-103.765625-120.390624-103.765625zm0 0" fill="#e5eaf5"/><g fill="#00a0aa"><path d="m102.378906 249.941406h-88.175781l2.605469 30.238282h85.570312c8.347656 0 15.117188-6.769532 15.117188-15.117188 0-8.351562-6.769532-15.121094-15.117188-15.121094zm0 0"/><path d="m80.585938 310.414062h-61.230469l2.546875 30.238282h58.683594c8.347656 0 15.117187-6.769532 15.117187-15.117188 0-8.351562-6.769531-15.121094-15.117187-15.121094zm0 0"/><path d="m102.378906 370.886719h-77.929687l2.546875 30.238281h75.382812c8.347656 0 15.117188-6.769531 15.117188-15.121094 0-8.347656-6.769532-15.117187-15.117188-15.117187zm0 0"/><path d="m80.585938 431.359375h-51.042969l2.546875 30.238281h48.496094c8.347656 0 15.117187-6.769531 15.117187-15.121094 0-8.347656-6.769531-15.117187-15.117187-15.117187zm0 0"/></g><path d="m287.738281 219.707031h-272.621093c-8.347657 0-15.117188-6.769531-15.117188-15.117187v-35.785156c0-23.40625 19.042969-42.449219 42.449219-42.449219h217.957031c23.40625 0 42.449219 19.042969 42.449219 42.449219v35.785156c0 8.347656-6.769531 15.117187-15.117188 15.117187zm0 0" fill="#707789"/><path d="m260.40625 126.355469h-108.976562v93.351562h136.308593c8.347657 0 15.117188-6.769531 15.117188-15.117187v-35.785156c0-23.40625-19.042969-42.449219-42.449219-42.449219zm0 0" fill="#555a66"/></svg>