<svg height="512pt" viewBox="-20 0 512 512" width="512pt" xmlns="http://www.w3.org/2000/svg"><path d="m156.15625 512c-52.238281 0-94.738281-42.5-94.738281-94.738281v-284.449219c0-8.347656 6.769531-15.117188 15.117187-15.117188 8.351563 0 15.117188 6.769532 15.117188 15.117188v284.449219c0 35.566406 28.9375 64.503906 64.503906 64.503906 35.570312 0 64.503906-28.9375 64.503906-64.503906v-322.523438c0-52.238281 42.5-94.738281 94.742188-94.738281 52.238281 0 94.738281 42.5 94.738281 94.738281v284.449219c0 8.347656-6.765625 15.117188-15.117187 15.117188-8.347657 0-15.117188-6.769532-15.117188-15.117188v-284.449219c0-35.566406-28.9375-64.503906-64.503906-64.503906s-64.503906 28.9375-64.503906 64.503906v322.523438c0 52.238281-42.5 94.738281-94.742188 94.738281zm0 0" fill="#0076fe"/><path d="m315.402344 0c-33.355469 0-62.738282 17.328125-79.621094 43.453125v425.09375c9.558594-14.789063 15.117188-32.402344 15.117188-51.285156v-322.523438c0-35.566406 28.9375-64.503906 64.503906-64.503906s64.503906 28.9375 64.503906 64.503906v284.449219c0 8.347656 6.769531 15.117188 15.117188 15.117188 8.351562 0 15.117187-6.769532 15.117187-15.117188v-284.449219c0-52.238281-42.5-94.738281-94.738281-94.738281zm0 0" fill="#0058be"/><path d="m76.535156 168.089844c-42.199218 0-76.535156-34.335938-76.535156-76.539063v-35.335937c0-8.351563 6.769531-10.078125 15.117188-10.078125h122.835937c8.347656 0 15.117187 1.726562 15.117187 10.078125v35.339844c0 42.199218-34.332031 76.535156-76.535156 76.535156zm-46.300781-111.875v35.339844c0 25.527343 20.769531 46.296874 46.300781 46.296874s46.300782-20.769531 46.300782-46.296874v-35.339844zm0 0" fill="#f2f6fc"/><path d="m456.441406 465.863281h-122.835937c-8.347657 0-15.117188-10.078125-15.117188-10.078125v-35.339844c0-42.199218 34.335938-76.535156 76.535157-76.535156 42.203124 0 76.539062 34.332032 76.539062 76.535156v35.339844c-.003906 0-6.769531 10.078125-15.121094 10.078125zm-107.714844-10.078125h92.597657v-35.339844c0-25.527343-20.769531-46.296874-46.300781-46.296874s-46.300782 20.769531-46.300782 46.296874v35.339844zm0 0" fill="#f2f6fc"/><path d="m137.953125 46.136719h-61.417969v10.078125h46.300782v35.339844c0 25.527343-20.769532 46.296874-46.300782 46.296874v30.238282c42.203125 0 76.535156-34.332032 76.535156-76.535156v-35.339844c0-8.351563-6.765624-10.078125-15.117187-10.078125zm0 0" fill="#e5eaf5"/><path d="m153.070312 56.214844h-153.070312v-15.378906c0-22.550782 18.285156-40.835938 40.839844-40.835938h71.394531c22.554687 0 40.835937 18.285156 40.835937 40.835938zm0 0" fill="#fa732d"/><path d="m112.234375 0h-35.699219v56.214844h76.535156v-15.378906c0-22.550782-18.28125-40.835938-40.835937-40.835938zm0 0" fill="#f03049"/><path d="m441.324219 420.445312v35.339844h-46.300781v10.078125h61.417968c8.351563 0 15.117188-10.078125 15.117188-10.078125v-35.339844c0-42.199218-34.332032-76.535156-76.535156-76.535156v30.238282c25.53125 0 46.300781 20.769531 46.300781 46.296874zm0 0" fill="#e5eaf5"/><path d="m430.722656 512h-71.394531c-22.554687 0-40.839844-18.285156-40.839844-40.839844v-15.375h153.070313v15.375c0 22.554688-18.28125 40.839844-40.835938 40.839844zm0 0" fill="#fa732d"/><path d="m395.023438 512h35.699218c22.550782 0 40.835938-18.285156 40.835938-40.835938v-15.378906h-76.535156zm0 0" fill="#f03049"/></svg>