<svg height="512pt" viewBox="0 0 512 512" width="512pt" xmlns="http://www.w3.org/2000/svg"><path d="m256 0c-141.386719 0-256 114.613281-256 256s114.613281 256 256 256 256-114.613281 256-256-114.613281-256-256-256zm0 305c-27.0625 0-49-21.9375-49-49s21.9375-49 49-49 49 21.9375 49 49-21.9375 49-49 49zm0 0" fill="#555a66"/><path d="m305 256c0 27.0625-21.9375 49-49 49v207c141.386719 0 256-114.613281 256-256s-114.613281-256-256-256v207c27.0625 0 49 21.9375 49 49zm0 0" fill="#353535"/><path d="m118.148438 393.851562-43.167969 43.167969c-46.328125-46.324219-74.980469-110.328125-74.980469-181.019531s28.652344-134.695312 74.976562-181.019531l43.171876 43.167969zm0 0" fill="#9196aa"/><path d="m512 256c0 70.691406-28.652344 134.695312-74.976562 181.019531l-43.171876-43.167969v-275.703124l43.167969-43.167969c46.328125 46.324219 74.980469 110.328125 74.980469 181.019531zm0 0" fill="#707789"/><path d="m393.851562 118.148438c-35.277343-35.285157-84.015624-57.109376-137.851562-57.109376s-102.574219 21.824219-137.851562 57.109376c-35.285157 35.277343-57.109376 84.015624-57.109376 137.851562s21.824219 102.574219 57.109376 137.851562c35.277343 35.285157 84.015624 57.109376 137.851562 57.109376s102.574219-21.824219 137.851562-57.109376c35.285157-35.277343 57.109376-84.015624 57.109376-137.851562s-21.824219-102.574219-57.109376-137.851562zm-137.851562 186.851562c-27.0625 0-49-21.9375-49-49s21.9375-49 49-49 49 21.9375 49 49-21.9375 49-49 49zm0 0" fill="#707789"/><path d="m305 256c0 27.0625-21.9375 49-49 49v145.960938c53.835938 0 102.574219-21.824219 137.851562-57.109376 35.285157-35.277343 57.109376-84.015624 57.109376-137.851562s-21.824219-102.574219-57.109376-137.851562c-35.277343-35.285157-84.015624-57.109376-137.851562-57.109376v145.960938c27.0625 0 49 21.9375 49 49zm0 0" fill="#555a66"/><path d="m169.210938 357.789062c-3.839844 0-7.679688-1.464843-10.605469-4.394531-53.703125-53.703125-53.703125-141.085937 0-194.789062 5.855469-5.859375 15.355469-5.859375 21.210937 0 5.859375 5.855469 5.859375 15.355469 0 21.210937-42.003906 42.007813-42.003906 110.359375 0 152.367188 5.859375 5.855468 5.859375 15.351562 0 21.210937-2.925781 2.929688-6.765625 4.394531-10.605468 4.394531zm0 0" fill="#555a66"/><path d="m342.789062 357.789062c-3.839843 0-7.679687-1.464843-10.605468-4.394531-5.859375-5.855469-5.859375-15.355469 0-21.210937 42.003906-42.007813 42.003906-110.359375 0-152.367188-5.859375-5.855468-5.859375-15.355468 0-21.210937 5.855468-5.859375 15.355468-5.859375 21.210937 0 53.703125 53.703125 53.703125 141.085937 0 194.789062-2.925781 2.929688-6.765625 4.394531-10.605469 4.394531zm0 0" fill="#353535"/></svg>