<svg height="512pt" viewBox="-50 0 512 512" width="512pt" xmlns="http://www.w3.org/2000/svg"><path d="m237.074219 183.589844h-62.121094c-8.382813 0-15.179687-6.796875-15.179687-15.179688v-115.207031c0-8.382813 6.796874-15.179687 15.179687-15.179687h62.121094c8.382812 0 15.175781 6.796874 15.175781 15.179687v115.207031c0 8.382813-6.792969 15.179688-15.175781 15.179688zm0 0" fill="#555a66"/><path d="m237.074219 38.023438h-30.9375v145.566406h30.9375c8.382812 0 15.175781-6.796875 15.175781-15.179688v-115.207031c0-8.382813-6.792969-15.179687-15.175781-15.179687zm0 0" fill="#353535"/><path d="m270.183594 68.378906h-128.339844c-8.382812 0-15.175781-6.796875-15.175781-15.175781v-38.023437c0-8.382813 6.792969-15.179688 15.175781-15.179688h128.339844c8.382812 0 15.175781 6.796875 15.175781 15.179688v38.023437c0 8.378906-6.792969 15.175781-15.175781 15.175781zm0 0" fill="#707789"/><path d="m206.011719 99.972656c-113.59375 0-206.011719 92.417969-206.011719 206.015625 0 113.597657 92.417969 206.011719 206.011719 206.011719 113.597656 0 206.015625-92.417969 206.015625-206.011719 0-113.597656-92.417969-206.015625-206.015625-206.015625zm0 0" fill="#ffa426"/><path d="m270.183594 0h-64.171875v68.378906h64.171875c8.378906 0 15.175781-6.796875 15.175781-15.175781v-38.023437c0-8.382813-6.792969-15.179688-15.175781-15.179688zm0 0" fill="#555a66"/><path d="m412.027344 305.988281c0-113.597656-92.417969-206.015625-206.015625-206.015625v412.027344c113.597656 0 206.015625-92.417969 206.015625-206.011719zm0 0" fill="#fa732d"/><path d="m206.011719 163.921875c-78.335938 0-142.0625 63.730469-142.0625 142.066406 0 78.332031 63.726562 142.066407 142.0625 142.066407 78.335937 0 142.066406-63.730469 142.066406-142.066407 0-78.335937-63.730469-142.066406-142.066406-142.066406zm0 0" fill="#fff"/><path d="m348.078125 305.988281c0-78.335937-63.730469-142.066406-142.066406-142.066406v284.132813c78.335937 0 142.066406-63.730469 142.066406-142.066407zm0 0" fill="#f2f6fc"/><g fill="#555a66"><path d="m206.011719 321.164062c-8.378907 0-15.175781-6.796874-15.175781-15.175781v-52.761719c0-8.382812 6.796874-15.175781 15.175781-15.175781 8.382812 0 15.179687 6.792969 15.179687 15.175781v52.761719c0 8.382813-6.796875 15.175781-15.179687 15.175781zm0 0"/><path d="m206.011719 210.660156c-8.378907 0-15.175781-6.796875-15.175781-15.179687v-32.496094c0-8.382813 6.796874-15.175781 15.175781-15.175781 8.382812 0 15.179687 6.792968 15.179687 15.175781v32.496094c0 8.382812-6.796875 15.179687-15.179687 15.179687zm0 0"/><path d="m127.875 243.027344c-3.886719 0-7.769531-1.484375-10.734375-4.449219l-22.976563-22.976563c-5.929687-5.925781-5.929687-15.535156 0-21.464843 5.925782-5.925781 15.535157-5.925781 21.464844 0l22.976563 22.980469c5.929687 5.925781 5.929687 15.535156 0 21.460937-2.964844 2.964844-6.847657 4.449219-10.730469 4.449219zm0 0"/><path d="m95.507812 321.164062h-32.496093c-8.382813 0-15.175781-6.796874-15.175781-15.175781 0-8.382812 6.792968-15.179687 15.175781-15.179687h32.496093c8.382813 0 15.179688 6.796875 15.179688 15.179687 0 8.378907-6.796875 15.175781-15.179688 15.175781zm0 0"/><path d="m104.894531 422.28125c-3.882812 0-7.769531-1.480469-10.730469-4.445312-5.929687-5.925782-5.929687-15.535157 0-21.464844l22.976563-22.976563c5.925781-5.925781 15.539063-5.925781 21.464844 0 5.929687 5.925781 5.929687 15.535157 0 21.464844l-22.976563 22.976563c-2.964844 2.964843-6.847656 4.445312-10.734375 4.445312zm0 0"/><path d="m206.011719 464.167969c-8.378907 0-15.175781-6.796875-15.175781-15.179688v-32.496093c0-8.378907 6.796874-15.175782 15.175781-15.175782 8.382812 0 15.179687 6.796875 15.179687 15.175782v32.496093c0 8.382813-6.796875 15.179688-15.179687 15.179688zm0 0"/></g><path d="m307.132812 422.28125c-3.886718 0-7.769531-1.480469-10.734374-4.445312l-22.976563-22.976563c-5.929687-5.925781-5.929687-15.539063 0-21.464844 5.925781-5.925781 15.535156-5.925781 21.464844 0l22.976562 22.976563c5.929688 5.925781 5.929688 15.539062 0 21.464844-2.964843 2.964843-6.847656 4.445312-10.730469 4.445312zm0 0" fill="#353535"/><path d="m349.015625 321.164062h-32.496094c-8.382812 0-15.179687-6.796874-15.179687-15.175781 0-8.382812 6.796875-15.179687 15.179687-15.179687h32.496094c8.378906 0 15.175781 6.796875 15.175781 15.179687 0 8.378907-6.792968 15.175781-15.175781 15.175781zm0 0" fill="#353535"/><path d="m284.152344 243.027344c-3.882813 0-7.769532-1.484375-10.730469-4.449219-5.929687-5.925781-5.929687-15.535156 0-21.460937l22.976563-22.980469c5.925781-5.925781 15.539062-5.925781 21.464843 0 5.929688 5.925781 5.929688 15.539062 0 21.464843l-22.976562 22.976563c-2.964844 2.964844-6.847657 4.449219-10.734375 4.449219zm0 0" fill="#353535"/><path d="m206.011719 464.167969c-87.21875 0-158.179688-70.960938-158.179688-158.179688s70.960938-158.179687 158.179688-158.179687c87.222656 0 158.179687 70.957031 158.179687 158.179687 0 87.21875-70.957031 158.179688-158.179687 158.179688zm0-286.003907c-70.480469 0-127.824219 57.339844-127.824219 127.824219 0 70.480469 57.34375 127.824219 127.824219 127.824219 70.484375 0 127.824219-57.34375 127.824219-127.824219 0-70.484375-57.339844-127.824219-127.824219-127.824219zm0 0" fill="#707789"/><path d="m221.191406 448.988281v-32.496093c0-8.378907-6.796875-15.175782-15.179687-15.175782v62.851563c8.382812 0 15.179687-6.796875 15.179687-15.179688zm0 0" fill="#353535"/><path d="m221.191406 305.988281v-52.761719c0-8.382812-6.796875-15.175781-15.179687-15.175781v83.113281c8.382812 0 15.179687-6.792968 15.179687-15.175781zm0 0" fill="#353535"/><path d="m221.191406 195.480469v-32.496094c0-8.382813-6.796875-15.175781-15.179687-15.175781v62.851562c8.382812 0 15.179687-6.796875 15.179687-15.179687zm0 0" fill="#353535"/><path d="m333.835938 305.988281c0 70.480469-57.339844 127.824219-127.824219 127.824219v30.355469c87.222656 0 158.179687-70.960938 158.179687-158.179688 0-87.222656-70.957031-158.179687-158.179687-158.179687v30.355468c70.484375 0 127.824219 57.339844 127.824219 127.824219zm0 0" fill="#555a66"/></svg>