<svg height="511pt" viewBox="0 -67 511.99913 511" width="511pt" xmlns="http://www.w3.org/2000/svg"><path d="m449.15625 111.246094c-5.882812-5.878906-5.882812-15.414063 0-21.296875l27.238281-27.238281c7.335938-7.335938 7.335938-19.269532 0-26.605469-7.335937-7.335938-19.269531-7.335938-26.605469 0l-27.242187 27.238281c-5.878906 5.882812-15.414063 5.882812-21.296875 0-5.878906-5.878906-5.878906-15.414062 0-21.296875l27.238281-27.238281c19.082031-19.078125 50.125-19.078125 69.203125 0s19.078125 50.121094 0 69.199218l-27.238281 27.238282c-5.882813 5.882812-15.417969 5.882812-21.296875 0zm0 0" fill="#707789"/><path d="m497.691406 14.808594-21.296875 21.296875c7.332031 7.335937 7.332031 19.269531-.003906 26.605469l-27.238281 27.238281c-5.878906 5.882812-5.878906 15.417969 0 21.296875 5.882812 5.882812 15.417968 5.882812 21.296875 0l27.238281-27.238282c19.082031-19.078124 19.082031-50.121093.003906-69.199218zm0 0" fill="#555a66"/><path d="m4.410156 307.085938c-2.296875-2.300782-3.816406-5.308594-4.269531-8.597657-.640625-4.667969.9375-9.371093 4.269531-12.703125l93.949219-93.945312c3.128906-3.128906 7.472656-4.722656 11.882813-4.359375l24.316406 2 28.394531-28.398438-2-24.316406c-.363281-4.410156 1.230469-8.753906 4.359375-11.882813l58.886719-58.886718c61.289062-61.289063 161.011719-61.285156 222.300781 0 61.289062 61.289062 61.289062 161.015625 0 222.300781-57.699219 57.699219-161.144531 51.46875-222.832031.535156l-83.539063 83.539063c-4.777344 4.773437-12.144531 5.785156-18.027344 2.480468l-114.421874-65.289062c-1.210938-.679688-2.308594-1.515625-3.269532-2.476562zm0 0" fill="#fffd78"/><path d="m446.5 65.996094-222.832031 222.835937c61.6875 50.933594 156.996093 65.300781 222.832031-.535156 61.289062-61.285156 61.289062-161.011719 0-222.300781zm0 0" fill="#ffe733"/><path d="m277.738281 234.761719c-31.769531-31.769531-31.769531-83.457031 0-115.226563 31.765625-31.765625 83.457031-31.765625 115.222657 0 31.769531 31.769532 31.769531 83.457032 0 115.226563-31.765626 31.765625-83.457032 31.765625-115.222657 0zm0 0" fill="#ffe733"/><path d="m392.960938 119.535156-115.222657 115.226563c31.765625 31.765625 83.457031 31.765625 115.222657 0 31.769531-31.769531 31.769531-83.457031 0-115.226563zm0 0" fill="#ffc247"/></svg>