<svg height="512pt" viewBox="-86 0 512 512.00101" width="512pt" xmlns="http://www.w3.org/2000/svg"><path d="m324.503906 512h-309.300781c-8.394531 0-15.203125-6.808594-15.203125-15.203125v-281.121094c0-8.394531 6.808594-15.203125 15.203125-15.203125 19.859375 0 36.015625-16.152344 36.015625-36.011718v-149.257813c0-8.394531 6.804688-15.203125 15.203125-15.203125h52.484375c8.394531 0 15.203125 6.808594 15.203125 15.203125v149.527344c0 19.707031 16.035156 35.742187 35.742187 35.742187 19.710938 0 35.746094-16.03125 35.746094-35.742187v-149.527344c0-8.394531 6.804688-15.203125 15.203125-15.203125h52.488281c8.394532 0 15.203126 6.808594 15.203126 15.203125v149.257813c0 19.859374 16.152343 36.011718 36.011718 36.011718 8.394532 0 15.203125 6.808594 15.203125 15.203125v281.121094c0 8.394531-6.808593 15.203125-15.203125 15.203125zm0 0" fill="#e3fbff"/><path d="m324.503906 200.472656c-19.859375 0-36.011718-16.152344-36.011718-36.011718v-149.257813c0-8.394531-6.808594-15.203125-15.203126-15.203125h-52.488281c-8.398437 0-15.203125 6.808594-15.203125 15.203125v149.527344c0 19.707031-16.035156 35.742187-35.746094 35.742187v311.527344h154.652344c8.394532 0 15.203125-6.808594 15.203125-15.203125v-281.121094c0-8.394531-6.808593-15.203125-15.203125-15.203125zm0 0" fill="#bff7ff"/><path d="m134.109375 77.617188h-82.890625v-62.414063c0-8.394531 6.804688-15.203125 15.203125-15.203125h52.484375c8.394531 0 15.203125 6.808594 15.203125 15.203125zm0 0" fill="#0076fe"/><path d="m288.492188 77.617188h-82.894532v-62.414063c0-8.394531 6.804688-15.203125 15.203125-15.203125h52.488281c8.394532 0 15.203126 6.808594 15.203126 15.203125zm0 0" fill="#0058be"/><path d="m15.203125 200.472656c-8.394531 0-15.203125 6.808594-15.203125 15.203125v281.121094c0 8.394531 6.808594 15.203125 15.203125 15.203125h36.015625v-347.539062c0 19.855468-16.15625 36.011718-36.015625 36.011718zm0 0" fill="#0076fe"/><path d="m339.707031 496.796875v-281.121094c0-8.394531-6.808593-15.203125-15.203125-15.203125-19.859375 0-36.011718-16.152344-36.011718-36.011718v347.539062h36.011718c8.394532 0 15.203125-6.808594 15.203125-15.203125zm0 0" fill="#0058be"/></svg>