<svg height="512pt" viewBox="0 -16 512 512" width="512pt" xmlns="http://www.w3.org/2000/svg"><path d="m262.449219 274.375c-56.839844 0-103.082031 46.242188-103.082031 103.082031 0 56.839844 46.242187 103.082031 103.082031 103.082031 56.84375 0 103.085937-46.242187 103.085937-103.082031 0-56.839843-46.242187-103.082031-103.085937-103.082031zm0 138.710938c-19.675781 0-35.625-15.953126-35.625-35.628907s15.949219-35.625 35.625-35.625c19.679687 0 35.628906 15.949219 35.628906 35.625s-15.949219 35.628907-35.628906 35.628907zm0 0" fill="#555a66"/><path d="m262.449219 274.375v67.457031c19.679687 0 35.628906 15.949219 35.628906 35.625s-15.949219 35.628907-35.628906 35.628907v67.453124c56.84375 0 103.085937-46.242187 103.085937-103.082031 0-56.839843-46.242187-103.082031-103.085937-103.082031zm0 0" fill="#353535"/><path d="m496.851562 82.601562h-102.144531l-15.144531-10.097656-15.148438 10.097656h-28.257812l-15.148438-10.097656-15.148437 10.097656h-28.257813l-15.148437-10.097656-15.148437 10.097656h-232.15625c-8.367188 0-15.148438-6.78125-15.148438-15.148437v-52.304687c0-8.367188 6.78125-15.148438 15.148438-15.148438h232.15625l15.144531 10.097656 15.148437-10.097656h28.261719l15.144531 10.097656 15.148438-10.097656h28.257812l15.148438 10.097656 15.148437-10.097656h102.144531c8.367188 0 15.148438 6.78125 15.148438 15.148438v52.304687c0 8.367187-6.78125 15.148437-15.148438 15.148437zm0 0" fill="#707789"/><path d="m496.851562 0h-102.144531l-15.144531 10.097656-15.148438-10.097656h-28.257812l-15.148438 10.097656-15.148437-10.097656h-28.257813l-15.148437 41.300781 15.148437 41.300781h28.257813l15.148437-10.097656 15.148438 10.097656h28.257812l15.148438-10.097656 15.144531 10.097656h102.144531c8.367188 0 15.148438-6.78125 15.148438-15.148437v-52.304687c0-8.367188-6.78125-15.148438-15.148438-15.148438zm0 0" fill="#555a66"/><path d="m262.449219 380.394531c-8.363281 0-15.144531-6.78125-15.144531-15.148437v-365.246094h30.292968v365.246094c0 8.367187-6.78125 15.148437-15.148437 15.148437zm0 0" fill="#fffd78"/><g fill="#ffe733"><path d="m305.859375 0h30.292969v82.601562h-30.292969zm0 0"/><path d="m364.414062 0h30.292969v82.601562h-30.292969zm0 0"/><path d="m262.449219 380.394531c8.367187 0 15.148437-6.78125 15.148437-15.148437v-365.246094h-15.148437zm0 0"/></g></svg>