<svg height="512pt" viewBox="0 0 512 512.00098" width="512pt" xmlns="http://www.w3.org/2000/svg"><path d="m347.707031 231.914062-67.621093-67.617187c-4.023438-4.023437-5.457032-9.960937-3.71875-15.375l36.292968-112.984375c5.558594-17.304688 19.425782-30.1875 37.089844-34.460938 17.664062-4.273437 35.886719.851563 48.738281 13.703126l98.332031 98.332031c12.851563 12.851562 17.976563 31.070312 13.703126 48.738281-4.273438 17.664062-17.15625 31.53125-34.460938 37.089844l-112.984375 36.292968c-5.414063 1.738282-11.347656.304688-15.371094-3.71875zm-39.605469-82.53125 54.515626 54.515626 104.164062-33.457032c7.257812-2.332031 12.445312-7.917968 14.238281-15.328125 1.792969-7.40625-.273437-14.746093-5.660156-20.136719l-98.335937-98.332031c-5.386719-5.390625-12.726563-7.453125-20.136719-5.664062-7.40625 1.792969-12.996094 6.984375-15.324219 14.242187zm0 0" fill="#f2f6fc"/><path d="m496.820312 113.511719-49.167968-49.164063-21.460938 21.460938 49.167969 49.167968c5.386719 5.390626 7.453125 12.730469 5.660156 20.136719-1.792969 7.410157-6.984375 12.996094-14.238281 15.328125l-104.164062 33.457032-27.257813-27.257813-11.34375 11.347656 33.808594 33.808594c4.023437 4.023437-.160157 15.574219 5.253906 13.835937l112.984375-36.292968c17.304688-5.558594 30.1875-19.421875 34.460938-37.089844 4.273437-17.667969-.851563-35.886719-13.703126-48.738281zm0 0" fill="#e5eaf5"/><path d="m113.511719 496.820312-98.332031-98.332031c-12.851563-12.851562-17.972657-31.070312-13.703126-48.738281 4.273438-17.664062 17.15625-31.53125 34.460938-37.089844l112.984375-36.292968c5.414063-1.738282 1.230469 9.8125 5.253906 13.835937l67.621094 67.621094c4.023437 4.023437 15.574219-.160157 13.835937 5.253906l-36.292968 112.984375c-5.558594 17.304688-19.421875 30.1875-37.089844 34.460938-17.667969 4.273437-35.886719-.851563-48.738281-13.703126zm35.871093-188.71875-104.164062 33.457032c-7.257812 2.332031-12.445312 7.917968-14.238281 15.328125-1.792969 7.40625.273437 14.746093 5.660156 20.136719l98.335937 98.335937c5.390626 5.386719 12.730469 7.453125 20.136719 5.660156 7.410157-1.792969 12.996094-6.980469 15.328125-14.238281l33.457032-104.164062zm0 0" fill="#f2f6fc"/><path d="m235.632812 363.078125c1.738282-5.414063-9.8125-1.230469-13.835937-5.253906l-33.8125-33.808594-11.34375 11.34375 27.257813 27.257813-33.457032 104.164062c-2.332031 7.257812-7.917968 12.445312-15.328125 14.238281-7.40625 1.792969-14.746093-.273437-20.136719-5.660156l-49.167968-49.167969-21.460938 21.464844 49.164063 49.164062c12.851562 12.855469 31.074219 17.976563 48.738281 13.703126 17.667969-4.273438 31.53125-17.15625 37.089844-34.460938zm0 0" fill="#e5eaf5"/><path d="m362.261719 217.359375-67.617188-67.621094c-5.929687-5.925781-8.382812-13.082031-14.308593-7.15625l-137.503907 137.503907c-5.929687 5.925781 1.226563 8.382812 7.152344 14.308593l67.621094 67.621094c5.925781 5.925781 8.382812 13.082031 14.308593 7.152344l137.503907-137.5c5.925781-5.929688-1.230469-8.382813-7.15625-14.308594zm-187.234375 73.460937 116.039062-116.039062 12.34375 12.34375-116.039062 116.039062zm46.15625 46.152344-12.347656-12.34375 116.039062-116.039062 12.347656 12.34375zm0 0" fill="#fffd78"/><path d="m362.261719 217.359375-33.808594-33.8125-144.65625 144.660156 33.808594 33.808594c5.925781 5.925781 8.382812 13.082031 14.308593 7.152344l137.503907-137.5c5.925781-5.929688-1.230469-8.382813-7.15625-14.308594zm-141.078125 119.613281-12.347656-12.34375 116.039062-116.039062 12.347656 12.34375zm0 0" fill="#ffe733"/><path d="m385.394531 78.253906 48.351563 48.351563c15.082031 15.082031 39.625 15.082031 54.707031 0s15.082031-39.621094 0-54.703125l-48.351563-48.355469c-15.082031-15.082031-39.625-15.082031-54.707031 0s-15.082031 39.625 0 54.707031zm0 0" fill="#555a66"/><path d="m488.453125 71.902344-24.175781-24.175782-54.707032 54.703126 24.175782 24.175781c15.082031 15.082031 39.625 15.082031 54.707031 0s15.082031-39.621094 0-54.703125zm0 0" fill="#353535"/><path d="m126.605469 433.746094-48.351563-48.351563c-15.082031-15.082031-39.625-15.082031-54.703125 0-15.085937 15.082031-15.085937 39.625 0 54.707031l48.351563 48.351563c15.082031 15.082031 39.625 15.082031 54.707031 0 15.078125-15.082031 15.078125-39.625-.003906-54.707031zm0 0" fill="#555a66"/><path d="m126.605469 433.746094-24.175781-24.175782-54.703126 54.707032 24.175782 24.175781c15.082031 15.082031 39.621094 15.082031 54.703125 0s15.082031-39.625 0-54.707031zm0 0" fill="#353535"/><path d="m347.707031 231.914062-67.621093-67.617187c-5.925782-5.929687-5.925782-15.539063 0-21.464844 5.925781-5.929687 15.535156-5.929687 21.464843 0l67.617188 67.617188c5.929687 5.929687 5.929687 15.539062 0 21.464843-5.925781 5.925782-15.535157 5.925782-21.460938 0zm0 0" fill="#707789"/><path d="m210.449219 369.167969-67.617188-67.617188c-5.929687-5.929687-5.929687-15.539062 0-21.464843 5.925781-5.925782 15.535157-5.925782 21.460938 0l67.621093 67.621093c5.925782 5.925781 5.925782 15.535157 0 21.460938-5.925781 5.929687-15.535156 5.929687-21.464843 0zm0 0" fill="#707789"/><g fill="#555a66"><path d="m369.167969 210.449219-33.808594-33.808594-21.464844 21.464844 33.8125 33.808593c5.925781 5.925782 15.535157 5.925782 21.460938 0 5.929687-5.925781 5.929687-15.535156 0-21.464843zm0 0"/><path d="m231.914062 347.707031-33.808593-33.8125-21.464844 21.464844 33.808594 33.808594c5.929687 5.929687 15.539062 5.929687 21.464843 0 5.929688-5.925781 5.929688-15.535157 0-21.460938zm0 0"/></g></svg>