<svg height="512pt" viewBox="0 -142 512 512" width="512pt" xmlns="http://www.w3.org/2000/svg"><path d="m468.078125 228.671875h-38.027344c-18.03125 0-34.503906-11.300781-40.988281-28.128906l-13.140625-34.109375h-239.84375l-13.140625 34.109375c-6.484375 16.824219-22.957031 28.128906-40.988281 28.128906h-38.027344c-24.21875 0-43.921875-19.703125-43.921875-43.921875v-82.28125c0-36.433594 29.640625-66.074219 66.078125-66.074219h379.84375c36.4375 0 66.078125 29.640625 66.078125 66.074219v82.28125c0 24.21875-19.703125 43.921875-43.921875 43.921875zm0 0" fill="#0076fe"/><path d="m445.921875 36.394531h-189.921875v130.042969h119.921875l13.140625 34.105469c6.484375 16.828125 22.957031 28.132812 40.988281 28.132812h38.027344c24.21875 0 43.921875-19.703125 43.921875-43.921875v-82.28125c0-36.4375-29.640625-66.078125-66.078125-66.078125zm0 0" fill="#0058be"/><path d="m380.476562 0h-248.953124c-35.539063 0-64.449219 28.910156-64.449219 64.449219 0 21.335937 17.355469 38.691406 38.691406 38.691406h300.46875c21.335937 0 38.691406-17.355469 38.691406-38.691406 0-35.539063-28.910156-64.449219-64.449219-64.449219zm0 0" fill="#69d3ff"/><path d="m380.476562 0h-124.476562v103.144531h150.234375c21.335937 0 38.691406-17.359375 38.691406-38.695312 0-35.539063-28.910156-64.449219-64.449219-64.449219zm0 0" fill="#00b9fc"/></svg>