<svg height="512pt" viewBox="-68 0 512 512" width="512pt" xmlns="http://www.w3.org/2000/svg"><path d="m279.71875 255.980469h-183.332031c-7.5625 0-13.976563-5.5625-15.046875-13.050781l-20.8125-145.683594c-3.492188-24.464844 3.789062-49.203125 19.980468-67.871094 16.191407-18.667969 39.648438-29.375 64.359376-29.375h86.367187c24.714844 0 48.171875 10.707031 64.363281 29.375s23.472656 43.40625 19.976563 67.871094l-20.808594 145.683594c-1.070313 7.488281-7.484375 13.050781-15.046875 13.050781zm0 0" fill="#0076fe"/><path d="m231.234375 0h-43.746094v255.980469h92.230469c7.5625 0 13.976562-5.5625 15.046875-13.050781l20.808594-145.683594c3.496093-24.464844-3.785157-49.203125-19.976563-67.871094s-39.648437-29.375-64.363281-29.375zm0 0" fill="#0058be"/><path d="m153.746094 305.851562h-113.613282c-22.128906 0-40.132812-18.007812-40.132812-40.132812 0-22.128906 18.003906-40.132812 40.132812-40.132812h113.613282c8.394531 0 15.199218 6.804687 15.199218 15.195312v49.871094c0 8.394531-6.804687 15.199218-15.199218 15.199218zm0 0" fill="#555a66"/><path d="m335.972656 305.851562h-113.617187c-8.390625 0-15.195313-6.804687-15.195313-15.199218v-49.871094c0-8.394531 6.804688-15.195312 15.195313-15.195312h113.617187c22.128906 0 40.132813 18.003906 40.132813 40.128906 0 22.128906-18.003907 40.136718-40.132813 40.136718zm0 0" fill="#353535"/><path d="m153.746094 418.453125h-113.613282c-22.128906 0-40.132812-18.003906-40.132812-40.132813 0-22.125 18.003906-40.132812 40.132812-40.132812h113.613282c8.394531 0 15.199218 6.804688 15.199218 15.199219v49.871093c0 8.390626-6.804687 15.195313-15.199218 15.195313zm0 0" fill="#555a66"/><path d="m335.972656 418.453125h-113.617187c-8.390625 0-15.195313-6.804687-15.195313-15.195313v-49.871093c0-8.394531 6.804688-15.199219 15.195313-15.199219h113.617187c22.128906 0 40.132813 18.003906 40.132813 40.132812 0 22.128907-18.003907 40.132813-40.132813 40.132813zm0 0" fill="#353535"/><path d="m237.554688 501.867188h-99.003907v-276.28125h99.003907zm0 0" fill="#f2f6fc"/><path d="m187.488281 225.585938h50.066407v276.28125h-50.066407zm0 0" fill="#e5eaf5"/><path d="m297.003906 512h-217.902344c-8.394531 0-15.199218-6.804688-15.199218-15.199219 0-8.390625 6.804687-15.195312 15.199218-15.195312h217.902344c8.394532 0 15.199219 6.804687 15.199219 15.195312 0 8.394531-6.804687 15.199219-15.199219 15.199219zm0 0" fill="#707789"/><path d="m297.003906 481.605469h-109.515625v30.394531h109.515625c8.394532 0 15.199219-6.804688 15.199219-15.199219 0-8.390625-6.804687-15.195312-15.199219-15.195312zm0 0" fill="#555a66"/></svg>