<svg height="512pt" viewBox="-93 0 512 512" width="512pt" xmlns="http://www.w3.org/2000/svg"><path d="m163.09375 206.054688c-8.347656 0-15.117188-6.769532-15.117188-15.117188v-72.015625c0-8.347656 6.769532-15.117187 15.117188-15.117187 8.351562 0 15.121094 6.769531 15.121094 15.117187v72.015625c0 8.347656-6.769532 15.117188-15.121094 15.117188zm0 0" fill="#555a66"/><path d="m163.09375 512c-68.957031 0-125.058594-56.101562-125.058594-125.058594 0-48.476562 39.691406-150 80.132813-204.964844 2.851562-3.871093 7.371093-6.15625 12.179687-6.15625h65.496094c4.808594 0 9.328125 2.285157 12.175781 6.15625 40.445313 54.964844 80.136719 156.488282 80.136719 204.964844 0 68.957032-56.101562 125.058594-125.0625 125.058594zm0 0" fill="#fa732d"/><path d="m163.09375 512c-38.199219 0-58.183594-62.914062-58.183594-125.058594 0-47.046875 30.832032-211.121094 30.832032-211.121094h54.707031s30.832031 164.074219 30.832031 211.121094c0 62.144532-19.988281 125.058594-58.1875 125.058594zm0 0" fill="#f2f6fc"/><path d="m178.214844 190.9375v-72.015625c0-8.347656-6.769532-15.117187-15.121094-15.117187v102.25c8.351562 0 15.121094-6.769532 15.121094-15.117188zm0 0" fill="#353535"/><path d="m195.84375 175.820312h-32.75v336.179688c68.960938 0 125.0625-56.101562 125.0625-125.058594 0-48.476562-39.691406-150-80.136719-204.964844-2.847656-3.871093-7.367187-6.15625-12.175781-6.15625zm0 0" fill="#f03049"/><path d="m217.207031 134.039062h-108.222656c-8.347656 0-15.117187-6.769531-15.117187-15.117187v-51.902344c0-8.347656 6.769531-15.117187 15.117187-15.117187h108.222656c8.347657 0 15.117188 6.769531 15.117188 15.117187v51.902344c0 8.347656-6.769531 15.117187-15.117188 15.117187zm0 0" fill="#707789"/><path d="m163.09375 175.820312v336.179688c38.199219 0 58.1875-62.914062 58.1875-125.058594 0-47.046875-30.832031-211.121094-30.832031-211.121094zm0 0" fill="#e5eaf5"/><path d="m217.207031 51.902344h-54.113281v82.140625h54.113281c8.347657 0 15.117188-6.769531 15.117188-15.121094v-51.902344c0-8.347656-6.769531-15.117187-15.117188-15.117187zm0 0" fill="#555a66"/><path d="m281.625 82.140625h-237.058594c-24.574218 0-44.566406-19.992187-44.566406-44.566406v-22.457031c0-8.347657 6.769531-15.117188 15.117188-15.117188h295.953124c8.351563 0 15.117188 6.769531 15.117188 15.117188v22.457031c0 24.574219-19.992188 44.566406-44.5625 44.566406zm0 0" fill="#555a66"/><path d="m311.070312 0h-147.976562v82.140625h118.53125c24.570312 0 44.566406-19.992187 44.566406-44.566406v-22.457031c-.003906-8.347657-6.769531-15.117188-15.121094-15.117188zm0 0" fill="#353535"/></svg>