<svg height="512pt" viewBox="0 -50 512.00103 512" width="512pt" xmlns="http://www.w3.org/2000/svg"><path d="m388.078125 138.164062h-264.15625c-8.558594 0-15.496094-6.9375-15.496094-15.496093v-61.457031c0-8.558594 6.9375-15.496094 15.496094-15.496094h264.15625c8.558594 0 15.496094 6.9375 15.496094 15.496094v61.457031c0 8.558593-6.9375 15.496093-15.496094 15.496093zm0 0" fill="#555a66"/><path d="m388.078125 45.714844h-132.226563v92.449218h132.226563c8.558594 0 15.496094-6.9375 15.496094-15.496093v-61.457031c0-8.558594-6.9375-15.496094-15.496094-15.496094zm0 0" fill="#353535"/><path d="m99.625 183.878906h-59.832031c-21.941407 0-39.792969-17.851562-39.792969-39.792968v-104.292969c0-21.941407 17.851562-39.792969 39.792969-39.792969h59.832031c21.941406 0 39.792969 17.851562 39.792969 39.792969v104.292969c0 21.941406-17.851563 39.792968-39.792969 39.792968zm0 0" fill="#707789"/><path d="m472.207031 183.878906h-59.832031c-21.941406 0-39.792969-17.851562-39.792969-39.792968v-104.292969c0-21.941407 17.851563-39.792969 39.792969-39.792969h59.832031c21.941407 0 39.792969 17.851562 39.792969 39.792969v104.292969c0 21.941406-17.851562 39.792968-39.792969 39.792968zm0 0" fill="#555a66"/><path d="m388.078125 366.679688h-264.15625c-8.558594 0-15.496094-6.9375-15.496094-15.496094v-61.457032c0-8.558593 6.9375-15.496093 15.496094-15.496093h264.15625c8.558594 0 15.496094 6.9375 15.496094 15.496093v61.457032c0 8.558594-6.9375 15.496094-15.496094 15.496094zm0 0" fill="#555a66"/><path d="m388.078125 274.230469h-132.226563v92.449219h132.226563c8.558594 0 15.496094-6.9375 15.496094-15.496094v-61.457032c0-8.558593-6.9375-15.496093-15.496094-15.496093zm0 0" fill="#353535"/><path d="m99.625 412.394531h-59.832031c-21.941407 0-39.792969-17.851562-39.792969-39.792969v-104.292968c0-21.941406 17.851562-39.792969 39.792969-39.792969h59.832031c21.941406 0 39.792969 17.851563 39.792969 39.792969v104.292968c0 21.941407-17.851563 39.792969-39.792969 39.792969zm0 0" fill="#707789"/><path d="m472.207031 412.394531h-59.832031c-21.941406 0-39.792969-17.851562-39.792969-39.792969v-104.292968c0-21.941406 17.851563-39.792969 39.792969-39.792969h59.832031c21.941407 0 39.792969 17.851563 39.792969 39.792969v104.292968c0 21.941407-17.851562 39.792969-39.792969 39.792969zm0 0" fill="#555a66"/></svg>