<svg height="512pt" viewBox="0 0 512 512" width="512pt" xmlns="http://www.w3.org/2000/svg"><path d="m256 512c-68.378906 0-132.667969-26.628906-181.019531-74.980469-48.351563-48.351562-74.980469-112.640625-74.980469-181.019531s26.628906-132.667969 74.980469-181.019531c48.351562-48.351563 112.640625-74.980469 181.019531-74.980469s132.667969 26.628906 181.019531 74.980469c48.351563 48.351562 74.980469 112.640625 74.980469 181.019531s-26.628906 132.667969-74.980469 181.019531c-48.351562 48.351563-112.640625 74.980469-181.019531 74.980469zm0 0" fill="#f2f6fc"/><path d="m437.019531 437.019531c48.351563-48.351562 74.980469-112.640625 74.980469-181.019531s-26.628906-132.667969-74.980469-181.019531c-48.351562-48.351563-112.640625-74.980469-181.019531-74.980469v512c68.378906 0 132.667969-26.628906 181.019531-74.980469zm0 0" fill="#e5eaf5"/><g fill="#555a66"><path d="m297.582031 327.820312h-83.164062c-6.550781 0-12.355469-4.21875-14.378907-10.445312l-25.703124-79.097656c-2.023438-6.226563.195312-13.050782 5.492187-16.902344l67.285156-48.882812c5.296875-3.847657 12.472657-3.847657 17.773438 0l67.28125 48.882812c5.300781 3.851562 7.515625 10.675781 5.492187 16.902344l-25.699218 79.097656c-2.023438 6.226562-7.828126 10.445312-14.378907 10.445312zm0 0"/><path d="m256 114.382812c-3.117188 0-6.238281-.960937-8.886719-2.886718l-67.285156-48.882813c-5.296875-3.847656-7.515625-10.671875-5.492187-16.898437l9.160156-28.210938c1.613281-4.96875 5.679687-8.753906 10.75-10.007812 20.105468-4.972656 40.882812-7.496094 61.753906-7.496094s41.648438 2.523438 61.753906 7.496094c5.070313 1.253906 9.136719 5.039062 10.75 10.007812l9.160156 28.210938c2.023438 6.226562-.195312 13.050781-5.492187 16.898437l-67.285156 48.882813c-2.648438 1.925781-5.769531 2.886718-8.886719 2.886718zm0 0"/><path d="m39.648438 271.570312c-3.117188 0-6.238282-.960937-8.886719-2.886718l-23.9375-17.398438c-4.210938-3.0625-6.554688-8.078125-6.191407-13.273437 2.882813-41.59375 16.074219-82.242188 38.152344-117.554688 2.761719-4.417969 7.605469-7.101562 12.820313-7.101562h29.628906c6.550781 0 12.355469 4.21875 14.378906 10.445312l25.703125 79.085938c2.023438 6.230469-.195312 13.054687-5.492187 16.90625l-67.285157 48.890625c-2.652343 1.925781-5.769531 2.886718-8.890624 2.886718zm0 0"/><path d="m165.574219 494.453125c-1.917969 0-3.847657-.363281-5.679688-1.109375-38.503906-15.601562-73.050781-40.730469-99.90625-72.664062-3.359375-3.996094-4.421875-9.4375-2.804687-14.402344l9.148437-28.152344c2.027344-6.226562 7.832031-10.441406 14.378907-10.441406h83.160156c6.550781 0 12.355468 4.21875 14.378906 10.445312l25.699219 79.097656c2.023437 6.226563-.191407 13.050782-5.492188 16.902344l-23.996093 17.433594c-2.625 1.910156-5.742188 2.890625-8.886719 2.890625zm0 0"/></g><path d="m346.429688 494.453125c-3.148438 0-6.265626-.980469-8.886719-2.886719l-24-17.4375c-5.296875-3.847656-7.515625-10.671875-5.492188-16.902344l25.703125-79.097656c2.023438-6.226562 7.828125-10.445312 14.375-10.445312h83.160156c6.550782 0 12.355469 4.21875 14.378907 10.445312l9.152343 28.148438c1.613282 4.964844.550782 10.410156-2.808593 14.402344-26.851563 31.933593-61.398438 57.0625-99.90625 72.667968-1.832031.742188-3.761719 1.105469-5.675781 1.105469zm0 0" fill="#353535"/><path d="m472.351562 271.570312c-3.121093 0-6.238281-.960937-8.886718-2.886718l-67.285156-48.890625c-5.300782-3.851563-7.515626-10.675781-5.492188-16.90625l25.699219-79.085938c2.023437-6.230469 7.832031-10.445312 14.378906-10.445312h29.632813c5.210937 0 10.054687 2.683593 12.820312 7.101562 22.074219 35.3125 35.269531 75.960938 38.152344 117.554688.359375 5.195312-1.980469 10.210937-6.195313 13.273437l-23.9375 17.398438c-2.648437 1.925781-5.769531 2.886718-8.886719 2.886718zm0 0" fill="#353535"/><path d="m264.886719 111.496094 67.285156-48.882813c5.296875-3.847656 7.515625-10.671875 5.492187-16.898437l-9.160156-28.210938c-1.613281-4.96875-5.679687-8.753906-10.75-10.007812-20.105468-4.972656-40.882812-7.496094-61.753906-7.496094v114.382812c3.117188 0 6.238281-.960937 8.886719-2.886718zm0 0" fill="#353535"/><path d="m297.582031 327.820312c6.550781 0 12.355469-4.21875 14.378907-10.445312l25.699218-79.097656c2.027344-6.226563-.191406-13.050782-5.488281-16.902344l-67.285156-48.882812c-2.648438-1.925782-5.769531-2.886719-8.886719-2.886719v158.214843zm0 0" fill="#353535"/></svg>