<svg height="512pt" viewBox="-70 0 512 512.00188" width="512pt" xmlns="http://www.w3.org/2000/svg"><path d="m185.871094 512c-102.488282 0-185.871094-83.378906-185.871094-185.871094 0-99.992187 75.53125-266.292968 161.671875-323.523437 4.78125-3.179688 10.921875-3.46875 15.980469-.757813 5.0625 2.714844 8.21875 7.988282 8.21875 13.730469v116.089844l78.265625-62.6875c3.28125-3.28125 7.859375-4.9375 12.480469-4.496094 4.621093.4375 8.808593 2.914063 11.417968 6.75 23.328125 34.308594 44.890625 80.820313 60.707032 130.957031 14.617187 46.328125 23 91.503906 23 123.9375 0 102.492188-83.382813 185.871094-185.871094 185.871094zm0 0" fill="#ffa426"/><path d="m288.035156 71.238281c-2.609375-3.839843-6.796875-6.316406-11.417968-6.75-4.621094-.441406-9.199219 1.210938-12.480469 4.492188l-78.265625 62.6875v380.332031c102.488281 0 185.871094-83.378906 185.871094-185.871094 0-32.433594-8.382813-77.609375-23-123.9375-15.816407-50.136718-37.378907-96.644531-60.707032-130.953125zm0 0" fill="#fa732d"/><path d="m185.871094 512c-41.363282 0-75.011719-33.648438-75.011719-75.011719 0-6.003906 0-24.285156 31.4375-85.457031 14.917969-29.027344 29.589844-53.570312 30.210937-54.601562 2.8125-4.699219 7.886719-7.574219 13.363282-7.574219 5.476562 0 10.550781 2.875 13.363281 7.574219.617187 1.03125 15.289063 25.574218 30.210937 54.601562 31.4375 61.171875 31.4375 79.453125 31.4375 85.457031 0 41.363281-33.648437 75.011719-75.011718 75.011719zm0 0" fill="#fffd78"/><path d="m260.882812 436.988281c0-6.003906 0-24.285156-31.4375-85.457031-14.921874-29.023438-29.59375-53.570312-30.210937-54.601562-2.8125-4.695313-7.886719-7.574219-13.363281-7.574219v222.644531c41.363281 0 75.011718-33.648438 75.011718-75.011719zm0 0" fill="#ffe733"/></svg>