<svg height="512pt" viewBox="0 -17 512 511" width="512pt" xmlns="http://www.w3.org/2000/svg"><path d="m256 23.925781h205.679688v30.359375h-205.679688zm0 0" fill="#ffe733"/><path d="m358.839844 23.925781h102.839844v30.359375h-102.839844zm0 0" fill="#ffc247"/><path d="m50.320312 23.925781h205.679688v30.359375h-205.679688zm0 0" fill="#ffe733"/><path d="m153.160156 23.925781h102.839844v30.359375h-102.839844zm0 0" fill="#ffc247"/><path d="m50.320312 90.351562h205.679688v30.355469h-205.679688zm0 0" fill="#ffe733"/><path d="m153.160156 90.351562h102.839844v30.355469h-102.839844zm0 0" fill="#ffc247"/><path d="m50.320312 156.777344h205.679688v30.355468h-205.679688zm0 0" fill="#ffe733"/><path d="m153.160156 156.777344h102.839844v30.355468h-102.839844zm0 0" fill="#ffc247"/><g fill="#ffe733"><path d="m50.320312 223.199219h205.679688v30.355469h-205.679688zm0 0"/><path d="m50.320312 289.625h205.679688v30.355469h-205.679688zm0 0"/><path d="m50.320312 356.046875h205.679688v30.359375h-205.679688zm0 0"/></g><path d="m153.160156 223.199219h102.839844v30.355469h-102.839844zm0 0" fill="#ffc247"/><path d="m153.160156 289.625h102.839844v30.355469h-102.839844zm0 0" fill="#ffc247"/><path d="m153.160156 356.046875h102.839844v30.359375h-102.839844zm0 0" fill="#ffc247"/><path d="m50.320312 477.359375c-8.382812 0-15.179687-6.796875-15.179687-15.179687v-446.5c0-8.382813 6.796875-15.179688 15.179687-15.179688 8.378907 0 15.175782 6.796875 15.175782 15.179688v446.5c0 8.382812-6.792969 15.179687-15.175782 15.179687zm0 0" fill="#ffa426"/><path d="m256 477.359375c-8.382812 0-15.179688-6.796875-15.179688-15.179687v-446.5c0-8.382813 6.796876-15.179688 15.179688-15.179688s15.179688 6.796875 15.179688 15.179688v446.5c0 8.382812-6.796876 15.179687-15.179688 15.179687zm0 0" fill="#ffa426"/><path d="m461.679688 477.359375c-8.378907 0-15.175782-6.796875-15.175782-15.179687v-446.5c0-8.382813 6.796875-15.179688 15.175782-15.179688 8.382812 0 15.179687 6.796875 15.179687 15.179688v446.5c0 8.382812-6.796875 15.179687-15.179687 15.179687zm0 0" fill="#ffa426"/><path d="m85.460938 477.359375h-70.28125c-8.382813 0-15.179688-6.796875-15.179688-15.179687 0-8.382813 6.796875-15.175782 15.179688-15.175782h70.28125c8.382812 0 15.175781 6.792969 15.175781 15.175782 0 8.382812-6.792969 15.179687-15.175781 15.179687zm0 0" fill="#ffc247"/><path d="m291.140625 477.359375h-70.28125c-8.382813 0-15.179687-6.796875-15.179687-15.179687 0-8.382813 6.796874-15.175782 15.179687-15.175782h70.28125c8.382813 0 15.179687 6.792969 15.179687 15.175782 0 8.382812-6.796874 15.179687-15.179687 15.179687zm0 0" fill="#ffc247"/><path d="m496.820312 477.359375h-70.28125c-8.382812 0-15.175781-6.796875-15.175781-15.179687 0-8.382813 6.792969-15.175782 15.175781-15.175782h70.28125c8.382813 0 15.179688 6.792969 15.179688 15.175782 0 8.382812-6.796875 15.179687-15.179688 15.179687zm0 0" fill="#ffc247"/></svg>