<svg height="512pt" viewBox="-72 0 512 512" width="512pt" xmlns="http://www.w3.org/2000/svg"><path d="m307.351562 230.902344h-47.191406v-30.292969h47.191406c8.097657 0 15.714844-3.15625 21.449219-8.882813 5.722657-5.71875 8.875-13.335937 8.875-21.4375 0-16.714843-13.601562-30.3125-30.324219-30.3125h-35.566406v-30.296874h35.566406c33.425782 0 60.621094 27.191406 60.621094 60.609374 0 16.191407-6.304687 31.417969-17.757812 42.867188-11.460938 11.449219-26.683594 17.746094-42.863282 17.746094zm0 0" fill="#555a66"/><path d="m200.292969 83.59375h-60.097657c-8.363281 0-15.148437-6.78125-15.148437-15.144531v-23.25c0-24.925781 20.277344-45.199219 45.199219-45.199219s45.195312 20.273438 45.195312 45.199219v23.25c0 8.363281-6.78125 15.144531-15.148437 15.144531zm0 0" fill="#707789"/><path d="m170.246094 0v83.59375h30.046875c8.367187 0 15.148437-6.78125 15.148437-15.144531v-23.25c0-24.921875-20.273437-45.199219-45.195312-45.199219zm0 0" fill="#555a66"/><path d="m241.304688 383.878906h-142.117188c-7.597656 0-14.019531-5.628906-15.015625-13.160156l-30.5625-230.738281 116.640625-24.734375 115.578125 24.734375-29.496094 230.671875c-.96875 7.5625-7.402343 13.226562-15.027343 13.226562zm0 0" fill="#64e1dc"/><path d="m53.609375 139.980469-50.1875-61.945313c-3.703125-4.53125-4.46875-10.789062-1.960937-16.074218 2.507812-5.289063 7.835937-8.660157 13.6875-8.660157h264.5625c4.355468 0 8.496093 1.871094 11.371093 5.140625 2.875 3.265625 4.207031 7.613282 3.65625 11.929688l-8.910156 69.609375zm0 0" fill="#f2f6fc"/><path d="m281.242188 512h-221.988282c-14.273437 0-27.523437-7.089844-35.441406-18.96875s-9.367188-26.835938-3.878906-40.011719l28.109375-67.453125c8.097656-19.429687 26.929687-31.984375 47.980469-31.984375h148.449218c21.050782 0 39.878906 12.554688 47.976563 31.984375l28.109375 67.453125c5.492187 13.175781 4.042968 28.132813-3.875 40.011719-7.917969 11.878906-21.167969 18.96875-35.441406 18.96875zm0 0" fill="#e5eaf5"/><path d="m214.296875 447.9375h-88.097656c-8.367188 0-15.148438-6.78125-15.148438-15.144531 0-8.367188 6.78125-15.148438 15.148438-15.148438h88.097656c8.363281 0 15.148437 6.78125 15.148437 15.148438 0 8.363281-6.785156 15.144531-15.148437 15.144531zm0 0" fill="#707789"/><path d="m271.78125 115.246094h-101.535156v268.632812h71.058594c7.625 0 14.058593-5.664062 15.027343-13.226562l30.476563-238.339844c.550781-4.316406-.78125-8.660156-3.65625-11.929688-2.875-3.265624-7.015625-5.136718-11.371094-5.136718zm0 0" fill="#00c8c8"/><path d="m292.449219 385.566406c-8.097657-19.429687-26.925781-31.984375-47.976563-31.984375h-74.222656v158.417969h110.992188c14.273437 0 27.523437-7.089844 35.441406-18.96875 7.921875-11.878906 9.367187-26.835938 3.878906-40.011719zm0 0" fill="#cdd2e1"/><path d="m214.296875 417.644531h-44.050781v30.292969h44.050781c8.363281 0 15.148437-6.78125 15.148437-15.144531 0-8.367188-6.785156-15.148438-15.148437-15.148438zm0 0" fill="#555a66"/><path d="m279.710938 53.300781h-109.464844v86.679688h115.582031l8.90625-69.609375c.554687-4.316406-.777344-8.664063-3.652344-11.929688-2.875-3.269531-7.019531-5.140625-11.371093-5.140625zm0 0" fill="#e5eaf5"/></svg>