<svg height="512pt" viewBox="0 -23 512 512" width="512pt" xmlns="http://www.w3.org/2000/svg"><path d="m467.210938 465.074219h-16.691407c-24.695312 0-44.789062-20.09375-44.789062-44.796875v-12.949219c0-8.429687 6.835937-30.535156 15.269531-30.535156h75.730469c8.433593 0 15.269531 22.105469 15.269531 30.535156v12.949219c0 24.703125-20.089844 44.796875-44.789062 44.796875zm0 0" fill="#e5eaf5"/><path d="m512 420.277344v-12.949219c0-8.429687-6.835938-30.535156-15.269531-30.535156h-37.863281v88.28125h8.34375c24.699218 0 44.789062-20.09375 44.789062-44.796875zm0 0" fill="#cdd2e1"/><path d="m352.597656 191.445312c-44.699218 0-75.984375-36.367187-75.984375-81.070312v-29.300781c0-44.703125 31.285157-81.07031275 75.984375-81.07031275 8.433594 0 20.351563 6.83593775 20.351563 15.26953175v160.902343c0 8.433594-11.917969 15.269531-20.351563 15.269531zm0 0" fill="#e5eaf5"/><path d="m61.480469 465.074219h-16.691407c-24.699218 0-44.789062-20.09375-44.789062-44.796875v-12.949219c0-8.429687 6.835938-30.535156 15.269531-30.535156h75.730469c8.433594 0 15.269531 22.105469 15.269531 30.535156v12.949219c0 24.703125-20.09375 44.796875-44.789062 44.796875zm0 0" fill="#e5eaf5"/><path d="m91 376.792969h-37.867188v88.28125h8.347657c24.695312 0 44.789062-20.09375 44.789062-44.796875v-12.949219c0-8.429687-6.835937-30.535156-15.269531-30.535156zm0 0" fill="#cdd2e1"/><path d="m159.554688 191.445312c-8.433594 0-20.503907-6.835937-20.503907-15.269531v-160.902343c0-8.433594 11.917969-15.26953175 20.351563-15.26953175 44.699218 0 75.980468 36.36718775 75.980468 81.07031275v29.300781c.003907 44.703125-31.128906 81.070312-75.828124 81.070312zm0 0" fill="#cdd2e1"/><path d="m106.269531 407.332031h-106.269531v-281.132812c0-69.699219 56.5-126.199219 126.199219-126.199219h33.203125v191.445312h-53.132813zm0 0" fill="#f2f6fc"/><path d="m512 407.332031h-106.269531v-215.886719h-53.132813v-191.445312h33.214844c69.691406 0 126.1875 56.496094 126.1875 126.1875zm0 0" fill="#f2f6fc"/><g fill="#e5eaf5"><path d="m53.132812 23.289062v384.042969h53.136719v-215.886719h53.132813v-191.445312h-33.203125c-27.230469 0-52.445313 8.625-73.066407 23.289062zm0 0"/><path d="m458.867188 23.285156v384.046875h53.132812v-281.144531c0-42.464844-20.976562-80.03125-53.132812-102.902344zm0 0"/></g></svg>