<svg height="512pt" viewBox="0 -129 512.001 512" width="512pt" xmlns="http://www.w3.org/2000/svg"><path d="m104.683594 208.078125h-53.039063c-8.296875 0-15.027343-6.726563-15.027343-15.027344v-64.257812c0-60.78125 49.453124-110.234375 110.238281-110.234375h4.507812c8.296875 0 15.027344 6.726562 15.027344 15.023437v53.039063c0 8.296875-6.730469 15.027344-15.027344 15.027344-17.453125 0-31.65625 14.199218-31.65625 31.652343v59.75c0 8.300781-6.726562 15.027344-15.023437 15.027344zm0 0" fill="#f2f6fc"/><path d="m460.355469 208.078125h-53.035157c-8.300781 0-15.027343-6.726563-15.027343-15.027344v-59.75c0-17.453125-14.199219-31.652343-31.65625-31.652343-8.296875 0-15.023438-6.730469-15.023438-15.027344v-53.039063c0-8.296875 6.726563-15.023437 15.023438-15.023437h4.507812c60.785157 0 110.238281 49.453125 110.238281 110.234375v64.257812c0 8.300781-6.726562 15.027344-15.027343 15.027344zm0 0" fill="#e5eaf5"/><path d="m345.371094 120.207031h-178.742188c-16.703125 0-30.292968-13.589843-30.292968-30.292969v-59.621093c0-16.703125 13.589843-30.292969 30.292968-30.292969h178.742188c16.703125 0 30.292968 13.589844 30.292968 30.292969v59.621093c0 16.703126-13.589843 30.292969-30.292968 30.292969zm0 0" fill="#555a66"/><path d="m141.300781 253.800781h-126.273437c-8.300782 0-15.027344-6.726562-15.027344-15.027343v-12.707032c0-26.488281 18.703125-48.039062 41.695312-48.039062h72.9375c22.992188 0 41.695313 21.550781 41.695313 48.039062v12.707032c0 8.300781-6.730469 15.027343-15.027344 15.027343zm0 0" fill="#e5eaf5"/><path d="m496.972656 253.800781h-126.273437c-8.296875 0-15.023438-6.726562-15.023438-15.027343v-12.707032c0-26.488281 18.703125-48.039062 41.691407-48.039062h72.941406c22.988281 0 41.691406 21.550781 41.691406 48.039062v12.707032c0 8.300781-6.726562 15.027343-15.027344 15.027343zm0 0" fill="#cdd2e1"/><path d="m345.371094 0h-89.371094v120.207031h89.371094c16.703125 0 30.292968-13.589843 30.292968-30.292969v-59.621093c0-16.703125-13.589843-30.292969-30.292968-30.292969zm0 0" fill="#353535"/></svg>