<svg height="512pt" viewBox="-23 0 512 512" width="512pt" xmlns="http://www.w3.org/2000/svg"><path d="m232.636719 255.367188c-8.378907 0-15.175781-6.792969-15.175781-15.175782v-225.011718c0-8.382813 6.796874-15.179688 15.175781-15.179688 8.382812 0 15.179687 6.796875 15.179687 15.179688v225.011718c0 8.382813-6.796875 15.175782-15.179687 15.175782zm0 0" fill="#707789"/><path d="m247.816406 240.191406v-225.011718c0-8.382813-6.796875-15.179688-15.179687-15.179688v255.367188c8.382812 0 15.179687-6.792969 15.179687-15.175782zm0 0" fill="#555a66"/><path d="m299.742188 400.8125h-134.207032c-8.382812 0-15.179687-6.796875-15.179687-15.179688v-51.996093c0-8.382813 6.796875-15.179688 15.179687-15.179688h134.207032c8.382812 0 15.175781 6.796875 15.175781 15.179688v51.996093c0 8.382813-6.792969 15.179688-15.175781 15.179688zm0 0" fill="#707789"/><path d="m262.757812 296.824219h-60.238281c-8.382812 0-15.179687-6.796875-15.179687-15.179688v-11.332031c0-24.980469 20.320312-45.300781 45.296875-45.300781 24.976562 0 45.296875 20.320312 45.296875 45.300781v11.332031c0 8.382813-6.792969 15.179688-15.175782 15.179688zm-44.558593-30.355469h28.878906c-1.699219-6.382812-7.527344-11.101562-14.441406-11.101562-6.910157 0-12.738281 4.71875-14.4375 11.101562zm0 0" fill="#e5eaf5"/><path d="m150.355469 333.636719v-51.996094c0-8.378906 6.796875-15.175781 15.179687-15.175781h134.207032c8.382812 0 15.175781 6.796875 15.175781 15.175781v51.996094zm0 0" fill="#555a66"/><path d="m247.078125 266.46875h-14.441406v30.355469h30.121093c8.382813 0 15.175782-6.796875 15.175782-15.179688v-11.332031c0-24.980469-20.320313-45.300781-45.296875-45.300781v30.355469c6.914062 0 12.742187 4.71875 14.441406 11.101562zm0 0" fill="#cdd2e1"/><path d="m299.742188 318.460938h-67.105469v82.351562h67.105469c8.382812 0 15.175781-6.796875 15.175781-15.179688v-51.996093c0-8.382813-6.792969-15.175781-15.175781-15.175781zm0 0" fill="#555a66"/><path d="m299.742188 266.464844h-67.105469v67.171875h82.28125v-51.996094c0-8.378906-6.792969-15.175781-15.175781-15.175781zm0 0" fill="#353535"/><path d="m341.382812 15.179688h30.355469v481.640624h-30.355469zm0 0" fill="#555a66"/><path d="m93.539062 15.179688h30.355469v481.640624h-30.355469zm0 0" fill="#707789"/><path d="m429.019531 30.355469h-392.761719c-8.382812 0-15.179687-6.796875-15.179687-15.175781 0-8.382813 6.796875-15.179688 15.179687-15.179688h392.761719c8.382813 0 15.179688 6.796875 15.179688 15.179688 0 8.378906-6.796875 15.175781-15.179688 15.175781zm0 0" fill="#e5eaf5"/><path d="m429.019531 0h-196.382812v30.355469h196.382812c8.382813 0 15.179688-6.796875 15.179688-15.175781 0-8.382813-6.796875-15.179688-15.179688-15.179688zm0 0" fill="#cdd2e1"/><path d="m450.105469 207.941406c-4.332031.003906-8.628907-1.839844-11.632813-5.417968l-57.371094-68.355469h-296.925781l-57.371093 68.355469c-5.390626 6.417968-14.964844 7.257812-21.382813 1.867187-6.421875-5.386719-7.257813-14.960937-1.867187-21.382813l61.917968-73.777343c2.882813-3.433594 7.140625-5.417969 11.625-5.417969h311.082032c4.484374 0 8.742187 1.984375 11.625 5.417969l61.917968 73.777343c5.390625 6.421876 4.554688 15.996094-1.867187 21.382813-2.84375 2.386719-6.304688 3.550781-9.75 3.550781zm0 0" fill="#e5eaf5"/><path d="m429.019531 512h-392.761719c-8.382812 0-15.179687-6.796875-15.179687-15.179688 0-8.378906 6.796875-15.175781 15.179687-15.175781h392.761719c8.382813 0 15.179688 6.796875 15.179688 15.175781 0 8.382813-6.796875 15.179688-15.179688 15.179688zm0 0" fill="#e5eaf5"/><g fill="#cdd2e1"><path d="m429.019531 481.644531h-196.382812v30.355469h196.382812c8.382813 0 15.179688-6.796875 15.179688-15.179688 0-8.378906-6.796875-15.175781-15.179688-15.175781zm0 0"/><path d="m399.804688 109.230469c-2.886719-3.4375-7.140626-5.417969-11.625-5.417969h-155.542969v30.355469h148.464843l57.371094 68.355469c3.003906 3.578124 7.300782 5.421874 11.632813 5.417968 3.445312 0 6.90625-1.164062 9.75-3.550781 6.421875-5.386719 7.257812-14.960937 1.867187-21.382813zm0 0"/></g></svg>