<svg height="512pt" viewBox="-2 0 512 512" width="512pt" xmlns="http://www.w3.org/2000/svg"><path d="m507.878906 145.953125-253.9375 30.113281-253.941406-30.113281v-44.714844c0-29.546875 23.953125-53.5 53.496094-53.5h400.886718c29.546876 0 53.496094 23.953125 53.496094 53.5zm0 0" fill="#fa732d"/><path d="m454.382812 47.738281h-200.441406v128.328125l253.9375-30.113281v-44.714844c0-29.546875-23.949218-53.5-53.496094-53.5zm0 0" fill="#f03049"/><path d="m102.921875 101.503906c-8.316406 0-15.054687-6.742187-15.054687-15.058594v-71.390624c0-8.3125 6.738281-15.054688 15.054687-15.054688 8.3125 0 15.054687 6.742188 15.054687 15.054688v71.390624c0 8.316407-6.742187 15.058594-15.054687 15.058594zm0 0" fill="#555a66"/><path d="m203.601562 101.503906c-8.316406 0-15.058593-6.742187-15.058593-15.058594v-71.390624c0-8.3125 6.742187-15.054688 15.058593-15.054688 8.3125 0 15.054688 6.742188 15.054688 15.054688v71.390624c0 8.316407-6.742188 15.058594-15.054688 15.058594zm0 0" fill="#555a66"/><path d="m304.28125 101.503906c-8.316406 0-15.058594-6.742187-15.058594-15.058594v-71.390624c0-8.3125 6.742188-15.054688 15.058594-15.054688 8.3125 0 15.054688 6.742188 15.054688 15.054688v71.390624c0 8.316407-6.742188 15.058594-15.054688 15.058594zm0 0" fill="#353535"/><path d="m404.960938 101.503906c-8.316407 0-15.058594-6.742187-15.058594-15.058594v-71.390624c0-8.3125 6.742187-15.054688 15.058594-15.054688 8.3125 0 15.054687 6.742188 15.054687 15.054688v71.390624c0 8.316407-6.742187 15.058594-15.054687 15.058594zm0 0" fill="#353535"/><path d="m454.382812 512h-400.886718c-29.542969 0-53.496094-23.953125-53.496094-53.496094v-312.550781h507.878906v312.550781c0 29.542969-23.949218 53.496094-53.496094 53.496094zm0 0" fill="#f2f6fc"/><path d="m507.878906 145.953125h-253.9375v366.046875h200.441406c29.546876 0 53.496094-23.953125 53.496094-53.5zm0 0" fill="#e5eaf5"/><path d="m116.589844 231.703125 9.628906-9.628906c5.878906-5.878907 5.878906-15.414063 0-21.292969s-15.410156-5.878906-21.292969 0l-9.628906 9.628906-9.628906-9.628906c-5.878907-5.878906-15.410157-5.878906-21.292969 0-5.878906 5.878906-5.878906 15.410156 0 21.292969l9.632812 9.628906-9.632812 9.628906c-5.878906 5.878907-5.878906 15.410157 0 21.292969 2.941406 2.9375 6.792969 4.410156 10.648438 4.410156 3.851562 0 7.703124-1.472656 10.644531-4.410156l9.628906-9.632812 9.628906 9.632812c2.941407 2.9375 6.792969 4.410156 10.644531 4.410156 3.855469 0 7.707032-1.472656 10.648438-4.410156 5.878906-5.878906 5.878906-15.414062 0-21.292969zm0 0" fill="#fa732d"/><path d="m222.351562 231.703125 9.628907-9.628906c5.878906-5.878907 5.878906-15.414063 0-21.292969-5.878907-5.878906-15.410157-5.878906-21.292969 0l-9.628906 9.628906-9.628906-9.628906c-5.878907-5.878906-15.410157-5.878906-21.292969 0-5.878907 5.878906-5.878907 15.410156 0 21.292969l9.632812 9.628906-9.632812 9.628906c-5.878907 5.878907-5.878907 15.410157 0 21.292969 2.941406 2.9375 6.792969 4.410156 10.648437 4.410156 3.851563 0 7.703125-1.472656 10.644532-4.410156l9.628906-9.632812 9.628906 9.632812c2.941406 2.9375 6.792969 4.410156 10.644531 4.410156 3.855469 0 7.707031-1.472656 10.648438-4.410156 5.878906-5.878906 5.878906-15.414062 0-21.292969zm0 0" fill="#fa732d"/><path d="m328.113281 231.703125 9.628907-9.628906c5.878906-5.878907 5.878906-15.414063 0-21.292969-5.878907-5.878906-15.410157-5.878906-21.292969 0l-9.628907 9.628906-9.628906-9.628906c-5.878906-5.878906-15.410156-5.878906-21.292968 0-5.878907 5.878906-5.878907 15.410156 0 21.292969l9.632812 9.628906-9.632812 9.628906c-5.878907 5.878907-5.878907 15.410157 0 21.292969 2.941406 2.9375 6.792968 4.410156 10.648437 4.410156 3.851563 0 7.703125-1.472656 10.644531-4.410156l9.628906-9.632812 9.628907 9.632812c2.941406 2.9375 6.792969 4.410156 10.644531 4.410156 3.855469 0 7.707031-1.472656 10.648438-4.410156 5.878906-5.878906 5.878906-15.414062 0-21.292969zm0 0" fill="#f03049"/><path d="m433.875 231.703125 9.628906-9.628906c5.878906-5.878907 5.878906-15.414063 0-21.292969s-15.414062-5.878906-21.292968 0l-9.628907 9.628906-9.628906-9.628906c-5.878906-5.878906-15.414063-5.878906-21.292969 0s-5.878906 15.410156 0 21.292969l9.628906 9.628906-9.628906 9.628906c-5.878906 5.878907-5.878906 15.410157 0 21.292969 2.941406 2.9375 6.792969 4.410156 10.644532 4.410156 3.851562 0 7.707031-1.472656 10.648437-4.410156l9.628906-9.632812 9.628907 9.632812c2.9375 2.9375 6.792968 4.410156 10.644531 4.410156 3.851562 0 7.707031-1.472656 10.644531-4.410156 5.882812-5.878906 5.882812-15.414062 0-21.292969zm0 0" fill="#f03049"/><path d="m116.589844 323.957031 9.628906-9.628906c5.878906-5.878906 5.878906-15.410156 0-21.289063-5.878906-5.882812-15.410156-5.878906-21.292969 0l-9.628906 9.628907-9.628906-9.628907c-5.878907-5.878906-15.410157-5.878906-21.292969 0-5.878906 5.875-5.878906 15.410157 0 21.289063l9.632812 9.628906-9.632812 9.632813c-5.878906 5.878906-5.878906 15.410156 0 21.289062 2.941406 2.941406 6.792969 4.410156 10.648438 4.410156 3.851562 0 7.703124-1.46875 10.644531-4.410156l9.628906-9.628906 9.628906 9.628906c2.941407 2.941406 6.792969 4.410156 10.644531 4.410156 3.855469 0 7.707032-1.46875 10.648438-4.410156 5.878906-5.878906 5.878906-15.410156 0-21.289062zm0 0" fill="#fa732d"/><path d="m222.351562 323.957031 9.628907-9.628906c5.878906-5.878906 5.878906-15.410156 0-21.289063-5.878907-5.882812-15.410157-5.878906-21.292969 0l-9.628906 9.628907-9.628906-9.628907c-5.878907-5.878906-15.410157-5.878906-21.292969 0-5.878907 5.875-5.878907 15.410157 0 21.289063l9.632812 9.628906-9.632812 9.632813c-5.878907 5.878906-5.878907 15.410156 0 21.289062 2.941406 2.941406 6.792969 4.410156 10.648437 4.410156 3.851563 0 7.703125-1.46875 10.644532-4.410156l9.628906-9.628906 9.628906 9.628906c2.941406 2.941406 6.792969 4.410156 10.644531 4.410156 3.855469 0 7.707031-1.46875 10.648438-4.410156 5.878906-5.878906 5.878906-15.410156 0-21.289062zm0 0" fill="#fa732d"/><path d="m328.113281 323.957031 9.628907-9.628906c5.878906-5.878906 5.878906-15.410156 0-21.289063-5.878907-5.882812-15.410157-5.878906-21.292969 0l-9.628907 9.628907-9.628906-9.628907c-5.878906-5.878906-15.410156-5.878906-21.292968 0-5.878907 5.875-5.878907 15.410157 0 21.289063l9.632812 9.628906-9.632812 9.632813c-5.878907 5.878906-5.878907 15.410156 0 21.289062 2.941406 2.941406 6.792968 4.410156 10.648437 4.410156 3.851563 0 7.703125-1.46875 10.644531-4.410156l9.628906-9.628906 9.628907 9.628906c2.941406 2.941406 6.792969 4.410156 10.644531 4.410156 3.855469 0 7.707031-1.46875 10.648438-4.410156 5.878906-5.878906 5.878906-15.410156 0-21.289062zm0 0" fill="#f03049"/><path d="m433.875 323.957031 9.628906-9.628906c5.878906-5.878906 5.878906-15.410156 0-21.289063-5.878906-5.882812-15.414062-5.878906-21.292968 0l-9.628907 9.628907-9.628906-9.628907c-5.878906-5.878906-15.414063-5.878906-21.292969 0-5.878906 5.875-5.878906 15.410157 0 21.289063l9.628906 9.628906-9.628906 9.632813c-5.878906 5.878906-5.878906 15.410156 0 21.289062 2.941406 2.941406 6.792969 4.410156 10.644532 4.410156 3.851562 0 7.707031-1.46875 10.648437-4.410156l9.628906-9.628906 9.628907 9.628906c2.9375 2.941406 6.792968 4.410156 10.644531 4.410156 3.851562 0 7.707031-1.46875 10.644531-4.410156 5.882812-5.878906 5.882812-15.410156 0-21.289062zm0 0" fill="#f03049"/><path d="m116.589844 416.214844 9.628906-9.628906c5.878906-5.878907 5.878906-15.414063 0-21.292969-5.878906-5.878907-15.410156-5.878907-21.292969 0l-9.628906 9.628906-9.628906-9.628906c-5.878907-5.882813-15.410157-5.878907-21.292969 0-5.878906 5.878906-5.878906 15.410156 0 21.292969l9.632812 9.628906-9.632812 9.628906c-5.878906 5.878906-5.878906 15.414062 0 21.292969 2.941406 2.9375 6.792969 4.410156 10.648438 4.410156 3.851562 0 7.703124-1.472656 10.644531-4.410156l9.628906-9.628907 9.628906 9.628907c2.941407 2.941406 6.792969 4.410156 10.644531 4.410156 3.855469 0 7.707032-1.472656 10.648438-4.410156 5.878906-5.878907 5.878906-15.414063 0-21.292969zm0 0" fill="#fa732d"/><path d="m222.351562 416.214844 9.628907-9.628906c5.878906-5.878907 5.878906-15.414063 0-21.292969-5.878907-5.878907-15.410157-5.878907-21.292969 0l-9.628906 9.628906-9.628906-9.628906c-5.878907-5.882813-15.410157-5.878907-21.292969 0-5.878907 5.878906-5.878907 15.410156 0 21.292969l9.632812 9.628906-9.632812 9.628906c-5.878907 5.878906-5.878907 15.414062 0 21.292969 2.941406 2.9375 6.792969 4.410156 10.648437 4.410156 3.851563 0 7.703125-1.472656 10.644532-4.410156l9.628906-9.628907 9.628906 9.628907c2.941406 2.941406 6.792969 4.410156 10.644531 4.410156 3.855469 0 7.707031-1.472656 10.648438-4.410156 5.878906-5.878907 5.878906-15.414063 0-21.292969zm0 0" fill="#fa732d"/><g fill="#555a66"><path d="m327.097656 451.546875h-40.550781c-8.316406 0-15.054687-6.742187-15.054687-15.054687v-40.554688c0-8.3125 6.738281-15.054688 15.054687-15.054688h40.550781c8.3125 0 15.054688 6.742188 15.054688 15.054688v40.554688c0 8.3125-6.742188 15.054687-15.054688 15.054687zm0 0"/><path d="m432.859375 451.546875h-40.550781c-8.316406 0-15.058594-6.742187-15.058594-15.054687v-40.554688c0-8.3125 6.742188-15.054688 15.058594-15.054688h40.550781c8.3125 0 15.054687 6.742188 15.054687 15.054688v40.554688c0 8.3125-6.742187 15.054687-15.054687 15.054687zm0 0"/></g></svg>