<svg height="511pt" viewBox="1 1 511 511.9995" width="511pt" xmlns="http://www.w3.org/2000/svg"><path d="m105.761719 512c-3.863281 0-7.730469-1.476562-10.679688-4.425781l-90.160156-90.160157c-5.898437-5.894531-5.898437-15.457031 0-21.355468l377.6875-377.6875 111.519531 111.519531-377.6875 377.683594c-2.949218 2.949219-6.8125 4.425781-10.679687 4.425781zm0 0" fill="#fffd78"/><path d="m50.40625 462.898438 44.675781 44.675781c2.949219 2.949219 6.816407 4.425781 10.679688 4.425781s7.730469-1.476562 10.679687-4.425781l377.683594-377.683594-55.355469-55.355469zm0 0" fill="#ffe733"/><path d="m432.027344 159.289062c-20.191406 0-40.382813-7.6875-55.757813-23.058593-30.746093-30.746094-30.746093-80.773438 0-111.519531l10.367188-10.367188c19.125-19.125 50.246093-19.125 69.375 0l42.140625 42.144531c19.128906 19.125 19.128906 50.246094 0 69.375l-10.363282 10.367188c-15.375 15.371093-35.566406 23.058593-55.761718 23.058593zm0 0" fill="#f2f6fc"/><path d="m498.152344 56.488281-20.667969-20.667969-100.800781 100.800782c15.320312 15.105468 35.332031 22.667968 55.34375 22.667968 20.195312 0 40.386718-7.6875 55.761718-23.058593l10.363282-10.367188c19.128906-19.128906 19.128906-50.25 0-69.375zm0 0" fill="#e5eaf5"/><path d="m426.851562 100.75c7.898438 0 15.46875-6.945312 15.101563-15.101562-.367187-8.183594-6.632813-15.105469-15.101563-15.105469-7.898437 0-15.46875 6.949219-15.101562 15.105469.367188 8.179687 6.636719 15.101562 15.101562 15.101562zm0 0" fill="#fff"/><g fill="#555a66"><path d="m101.886719 410.609375c2.949219 2.949219 6.816406 4.425781 10.679687 4.425781 3.863282 0 7.730469-1.476562 10.679688-4.425781 5.894531-5.894531 5.894531-15.457031 0-21.355469l-55.761719-55.757812-21.355469 21.355468zm0 0"/><path d="m131.089844 351.355469c2.949218 2.949219 6.816406 4.421875 10.679687 4.421875s7.730469-1.472656 10.679688-4.421875c5.894531-5.898438 5.894531-15.460938 0-21.359375l-40.734375-40.730469-21.355469 21.355469zm0 0"/><path d="m190.347656 322.152344c2.949219 2.949218 6.8125 4.421875 10.679688 4.421875 3.863281 0 7.730468-1.472657 10.675781-4.421875 5.898437-5.898438 5.898437-15.460938 0-21.359375l-55.757813-55.757813-21.355468 21.355469zm0 0"/><path d="m219.550781 262.894531c2.949219 2.949219 6.8125 4.425781 10.679688 4.425781 3.863281 0 7.726562-1.476562 10.675781-4.425781 5.898438-5.894531 5.898438-15.457031 0-21.355469l-40.730469-40.734374-21.359375 21.359374zm0 0"/><path d="m278.808594 233.691406c2.949218 2.949219 6.8125 4.425782 10.675781 4.425782s7.730469-1.476563 10.679687-4.425782c5.898438-5.898437 5.898438-15.460937 0-21.355468l-55.757812-55.761719-21.359375 21.359375zm0 0"/><path d="m308.007812 174.433594c2.949219 2.949218 6.816407 4.425781 10.679688 4.425781s7.730469-1.476563 10.679688-4.425781c5.898437-5.894532 5.898437-15.457032 0-21.355469l-40.734376-40.734375-21.355468 21.359375zm0 0"/></g><path d="m437.835938 75.472656-21.171876 21.167969c2.636719 2.527344 6.15625 4.105469 10.1875 4.105469 7.902344 0 15.46875-6.945313 15.105469-15.101563-.175781-3.878906-1.6875-7.464843-4.121093-10.171875zm0 0" fill="#f2f6fc"/><path d="m212.089844 301.21875-21.316406 21.316406c2.890624 2.679688 6.566406 4.039063 10.253906 4.039063 3.863281 0 7.730468-1.472657 10.675781-4.421875 5.765625-5.761719 5.882813-15.011719.386719-20.933594zm0 0" fill="#353535"/><path d="m123.628906 389.675781-21.316406 21.316407c2.890625 2.683593 6.570312 4.042968 10.253906 4.042968 3.867188 0 7.730469-1.476562 10.679688-4.425781 5.761718-5.761719 5.878906-15.007813.382812-20.933594zm0 0" fill="#353535"/><path d="m300.546875 212.757812-21.316406 21.316407c2.894531 2.683593 6.570312 4.039062 10.253906 4.039062 3.867187 0 7.730469-1.472656 10.679687-4.421875 5.761719-5.761718 5.878907-15.011718.382813-20.933594zm0 0" fill="#353535"/></svg>