<svg height="512pt" viewBox="0 0 512.00134 512" width="512pt" xmlns="http://www.w3.org/2000/svg"><path d="m181.820312 474.246094c-3.855468 0-7.714843-1.472656-10.65625-4.414063l-128.996093-128.996093c-5.882813-5.882813-5.882813-15.425782 0-21.308594l277.359375-277.359375c5.882812-5.882813 15.425781-5.882813 21.308594 0l128.996093 128.996093c5.882813 5.882813 5.882813 15.425782 0 21.3125l-277.355469 277.355469c-2.945312 2.941407-6.800781 4.414063-10.65625 4.414063zm0 0" fill="#ffa426"/><path d="m469.832031 171.164062-64.496093-64.496093-298.667969 298.667969 64.496093 64.496093c2.941407 2.941407 6.800782 4.414063 10.65625 4.414063 3.855469 0 7.714844-1.472656 10.65625-4.414063l277.355469-277.355469c5.886719-5.886718 5.886719-15.425781 0-21.3125zm0 0" fill="#fa732d"/><path d="m319.527344 42.167969 37.753906-37.753907c3.253906-3.253906 7.820312-4.84375 12.394531-4.3125l38.519531 4.480469c6.941407.808594 12.417969 6.285157 13.226563 13.226563l3.101563 26.671875 26.671874 3.101562c6.941407.808594 12.417969 6.285157 13.226563 13.226563l3.101563 26.667968 26.667968 3.105469c6.945313.808594 12.417969 6.28125 13.226563 13.226563l4.480469 38.515625c.535156 4.574219-1.054688 9.140625-4.3125 12.398437l-37.753907 37.753906zm0 0" fill="#707789"/><path d="m144.066406 512c-.578125 0-1.160156-.03125-1.742187-.101562l-38.515625-4.480469c-6.945313-.808594-12.421875-6.285157-13.226563-13.226563l-3.105469-26.671875-26.667968-3.101562c-6.945313-.804688-12.417969-6.28125-13.226563-13.226563l-3.101562-26.667968-26.671875-3.105469c-6.941406-.804688-12.417969-6.28125-13.226563-13.222657l-4.480469-38.519531c-.53125-4.574219 1.054688-9.140625 4.3125-12.394531l37.753907-37.753906 150.304687 150.304687-37.753906 37.753907c-2.839844 2.84375-6.679688 4.414062-10.652344 4.414062zm0 0" fill="#707789"/><path d="m185.335938 301.710938c-7.535157 0-14.046876-5.644532-14.945313-13.316407-.96875-8.265625 4.945313-15.75 13.207031-16.71875l59.753906-7.015625-18.007812-18.007812c-4.085938-4.082032-5.476562-10.140625-3.582031-15.597656 1.898437-5.457032 6.742187-9.347657 12.480469-10.023438l90.644531-10.636719c8.273437-.976562 15.753906 4.945313 16.722656 13.210938.972656 8.265625-4.945313 15.75-13.207031 16.722656l-59.753906 7.011719 18.007812 18.007812c4.085938 4.082032 5.476562 10.144532 3.582031 15.597656-1.898437 5.457032-6.742187 9.347657-12.480469 10.023438l-90.644531 10.636719c-.597656.070312-1.191406.105469-1.777343.105469zm0 0" fill="#fffd78"/><path d="m51.894531 460.109375c2.335938 2.335937 5.441407 3.90625 8.914063 4.3125l26.667968 3.101563 3.105469 26.667968c.804688 6.945313 6.28125 12.417969 13.226563 13.226563l38.515625 4.480469c.582031.070312 1.164062.101562 1.742187.101562 3.972656 0 7.8125-1.570312 10.652344-4.414062l37.753906-37.753907-75.152344-75.152343zm0 0" fill="#555a66"/><path d="m469.832031 192.476562 37.753907-37.757812c3.257812-3.253906 4.84375-7.820312 4.3125-12.394531l-4.480469-38.519531c-.808594-6.941407-6.285157-12.417969-13.226563-13.222657l-26.671875-3.105469-3.101562-26.667968c-.402344-3.472656-1.972657-6.578125-4.3125-8.914063l-65.425781 65.425781zm0 0" fill="#555a66"/><path d="m341.609375 223.605469c-.96875-8.265625-8.449219-14.1875-16.71875-13.210938l-26.378906 3.097657-85.019531 85.019531 64.265624-7.542969c5.738282-.671875 10.582032-4.566406 12.480469-10.023438 1.894531-5.453124.503907-11.511718-3.582031-15.597656l-18.007812-18.007812 59.75-7.011719c8.269531-.96875 14.183593-8.457031 13.210937-16.722656zm0 0" fill="#ffe733"/></svg>