<svg height="512pt" viewBox="0 0 512.00101 512" width="512pt" xmlns="http://www.w3.org/2000/svg"><path d="m431.054688 512h-350.109376c-44.632812 0-80.945312-36.3125-80.945312-80.945312v-350.105469c0-44.636719 36.3125-80.949219 80.945312-80.949219h350.109376c44.632812 0 80.945312 36.3125 80.945312 80.949219v350.105469c0 44.632812-36.3125 80.945312-80.945312 80.945312zm0 0" fill="#f2f6fc"/><path d="m431.054688 0h-175.054688v512h175.054688c44.632812 0 80.945312-36.3125 80.945312-80.945312v-350.105469c0-44.636719-36.3125-80.949219-80.945312-80.949219zm0 0" fill="#e5eaf5"/><path d="m330.496094 168.472656h-148.992188c-21.21875 0-38.425781-17.203125-38.425781-38.425781s17.207031-38.425781 38.425781-38.425781h148.992188c21.21875 0 38.425781 17.203125 38.425781 38.425781s-17.207031 38.425781-38.425781 38.425781zm0 0" fill="#fff"/><path d="m330.496094 91.621094h-74.496094v76.851562h74.496094c21.21875 0 38.425781-17.203125 38.425781-38.425781s-17.207031-38.425781-38.425781-38.425781zm0 0" fill="#f2f6fc"/><path d="m256 183.597656c-8.351562 0-15.125-6.773437-15.125-15.125v-38.425781c0-8.351563 6.773438-15.121094 15.125-15.121094s15.125 6.769531 15.125 15.121094v38.425781c0 8.351563-6.773438 15.125-15.125 15.125zm0 0" fill="#fa732d"/><path d="m271.125 168.472656v-38.425781c0-8.351563-6.773438-15.121094-15.125-15.121094v68.671875c8.351562 0 15.125-6.773437 15.125-15.125zm0 0" fill="#f03049"/><path d="m330.496094 183.597656h-148.992188c-29.527344 0-53.546875-24.023437-53.546875-53.550781s24.023438-53.546875 53.546875-53.546875h148.992188c29.527344 0 53.546875 24.019531 53.546875 53.546875s-24.023438 53.550781-53.546875 53.550781zm-148.992188-76.851562c-12.847656 0-23.300781 10.453125-23.300781 23.300781s10.453125 23.304687 23.300781 23.304687h148.992188c12.847656 0 23.300781-10.453124 23.300781-23.304687 0-12.847656-10.453125-23.300781-23.300781-23.300781zm0 0" fill="#555a66"/><path d="m330.496094 76.5h-74.496094v30.246094h74.496094c12.847656 0 23.300781 10.453125 23.300781 23.300781s-10.453125 23.304687-23.300781 23.304687h-74.496094v30.246094h74.496094c29.527344 0 53.546875-24.023437 53.546875-53.550781s-24.023438-53.546875-53.546875-53.546875zm0 0" fill="#353535"/></svg>