<svg height="512pt" viewBox="-41 0 512 512" width="512pt" xmlns="http://www.w3.org/2000/svg"><path d="m288.726562 100.863281h-206.230468c-8.414063 0-15.238282-6.820312-15.238282-15.238281v-70.386719c0-8.414062 6.824219-15.238281 15.238282-15.238281h206.230468c8.417969 0 15.238282 6.824219 15.238282 15.238281v70.386719c0 8.417969-6.820313 15.238281-15.238282 15.238281zm0 0" fill="#555a66"/><path d="m288.726562 0h-103.113281v100.863281h103.113281c8.417969 0 15.238282-6.820312 15.238282-15.238281v-70.386719c0-8.414062-6.820313-15.238281-15.238282-15.238281zm0 0" fill="#353535"/><path d="m288.726562 512h-206.230468c-8.414063 0-15.238282-6.824219-15.238282-15.238281v-70.386719c0-8.417969 6.824219-15.238281 15.238282-15.238281h206.230468c8.417969 0 15.238282 6.820312 15.238282 15.238281v70.386719c0 8.414062-6.820313 15.238281-15.238282 15.238281zm0 0" fill="#555a66"/><path d="m288.726562 411.136719h-103.113281v100.863281h103.113281c8.417969 0 15.238282-6.824219 15.238282-15.238281v-70.386719c0-8.417969-6.820313-15.238281-15.238282-15.238281zm0 0" fill="#353535"/><path d="m414.949219 310.421875h-58.964844c-8.414063 0-15.238281-6.824219-15.238281-15.238281v-78.367188c0-8.417968 6.824218-15.238281 15.238281-15.238281h58.964844c8.414062 0 15.238281 6.820313 15.238281 15.238281v78.367188c0 8.414062-6.824219 15.238281-15.238281 15.238281zm0 0" fill="#353535"/><path d="m289.714844 441.609375h-208.207032c-44.945312 0-81.507812-36.5625-81.507812-81.507813v-208.207031c0-44.941406 36.5625-81.507812 81.507812-81.507812h208.207032c44.945312 0 81.507812 36.566406 81.507812 81.507812v208.207031c0 44.945313-36.5625 81.507813-81.507812 81.507813zm0 0" fill="#e3fbff"/><path d="m289.714844 70.390625h-104.101563v371.222656h104.101563c44.945312 0 81.507812-36.566406 81.507812-81.507812v-208.210938c0-44.941406-36.5625-81.503906-81.507812-81.503906zm0 0" fill="#bff7ff"/><path d="m231.707031 342.691406c-5.671875 0-10.890625-3.15625-13.515625-8.207031l-64.792968-124.566406-33.167969 54.050781c-2.769531 4.515625-7.6875 7.269531-12.988281 7.269531h-107.242188v-30.476562h98.71875l42.789062-69.730469c2.871094-4.679688 8.035157-7.457031 13.527344-7.257812 5.484375.191406 10.445313 3.324218 12.980469 8.195312l62.726563 120.601562 19.347656-42.84375c2.464844-5.457031 7.898437-8.964843 13.890625-8.964843h107.242187v30.476562h-97.40625l-28.21875 62.484375c-2.402344 5.320313-7.632812 8.800782-13.464844 8.960938-.140624.003906-.285156.007812-.425781.007812zm0 0" fill="#fa732d"/><path d="m250.089844 249.726562-19.347656 42.84375-45.132813-86.769531v66.046875l32.582031 62.636719c2.625 5.050781 7.84375 8.207031 13.515625 8.207031.140625 0 .28125-.003906.425781-.007812 5.832032-.160156 11.0625-3.640625 13.464844-8.960938l28.21875-62.484375h97.40625v-30.476562h-107.242187c-5.992188 0-11.425781 3.507812-13.890625 8.964843zm0 0" fill="#f03049"/></svg>