<svg height="512pt" viewBox="0 0 512.00031 512" width="512pt" xmlns="http://www.w3.org/2000/svg"><path d="m382.417969 512c-1.871094 0-3.75-.054688-5.648438-.164062-25.007812-1.449219-48.941406-12.40625-67.394531-30.859376l-278.351562-278.351562c-18.453126-18.449219-29.410157-42.386719-30.859376-67.394531-1.484374-25.664063 7.15625-49.261719 24.335938-66.4375l44.292969-44.292969c17.179687-17.179688 40.765625-25.820312 66.4375-24.335938 25.007812 1.449219 48.941406 12.40625 67.394531 30.855469l278.355469 278.355469c18.449219 18.449219 29.40625 42.386719 30.855469 67.394531 1.484374 25.664063-7.15625 49.257813-24.335938 66.4375l-44.292969 44.292969c-15.910156 15.910156-37.324219 24.5-60.789062 24.5zm-347.3125-432.601562h.011719zm0 0" fill="#ffbd86"/><path d="m511.835938 376.769531c-1.449219-25.007812-12.40625-48.941406-30.855469-67.394531l-224.980469-224.976562v343.203124l53.375 53.375c18.449219 18.453126 42.386719 29.410157 67.394531 30.859376 1.898438.109374 3.777344.164062 5.648438.164062 23.464843 0 44.878906-8.589844 60.789062-24.5l44.292969-44.292969c17.179688-17.179687 25.820312-40.773437 24.335938-66.4375zm0 0" fill="#f6a96c"/><path d="m129.582031 512c-23.464843 0-44.878906-8.585938-60.789062-24.5l-44.292969-44.292969c-17.179688-17.179687-25.820312-40.773437-24.335938-66.4375 1.449219-25.007812 12.40625-48.941406 30.859376-67.394531l278.351562-278.351562c18.449219-18.453126 42.386719-29.410157 67.394531-30.859376 25.667969-1.480468 49.257813 7.15625 66.4375 24.335938l44.292969 44.292969c17.179688 17.179687 25.820312 40.773437 24.335938 66.4375-1.449219 25.007812-12.40625 48.941406-30.855469 67.394531l-278.355469 278.351562c-18.449219 18.453126-42.386719 29.410157-67.394531 30.859376-1.894531.109374-3.777344.164062-5.648438.164062zm0 0" fill="#fff3de"/><path d="m487.5 68.792969-44.292969-44.292969c-17.179687-17.179688-40.769531-25.820312-66.4375-24.335938-25.007812 1.449219-48.941406 12.40625-67.394531 30.855469l-53.375 53.378907v343.203124l224.976562-224.976562c18.453126-18.449219 29.410157-42.386719 30.859376-67.394531 1.484374-25.664063-7.15625-49.261719-24.335938-66.4375zm0 0" fill="#ffe5c2"/><path d="m84.398438 256 171.601562 171.601562 171.601562-171.601562-171.601562-171.601562zm0 0" fill="#fed2a4"/><path d="m256 84.398438v343.203124l171.601562-171.601562zm0 0" fill="#ffbd86"/><g fill="#fff3de"><path d="m190.808594 268.8125c-4.003906 0-7.792969-1.628906-10.636719-4.425781-1.445313-1.417969-2.996094-2.816407-4.285156-4.386719-4.738281-5.75-4.4375-14.390625.675781-19.808594 5.117188-5.425781 13.726562-6.238281 19.753906-1.832031 1.8125 1.324219 3.347656 3.085937 4.921875 4.671875 2.308594 2.316406 3.882813 5.210938 4.390625 8.457031 1.394532 8.957031-5.730468 17.324219-14.820312 17.324219zm0 0"/><path d="m324.523438 276.519531c-3.839844 0-7.675782-1.460937-10.605469-4.394531l-3.332031-3.332031c-5.859376-5.855469-5.859376-15.355469 0-21.210938 5.855468-5.859375 15.355468-5.859375 21.210937 0l3.335937 3.332031c5.855469 5.859376 5.855469 15.355469 0 21.210938-2.929687 2.933594-6.769531 4.394531-10.609374 4.394531zm0 0"/><path d="m261.523438 339.523438c-3.839844 0-7.679688-1.464844-10.609376-4.394532l-3.332031-3.332031c-5.859375-5.859375-5.859375-15.355469 0-21.210937 5.859375-5.859376 15.355469-5.859376 21.214844 0l3.332031 3.332031c5.855469 5.855469 5.855469 15.355469 0 21.210937-2.929687 2.929688-6.769531 4.394532-10.605468 4.394532zm0 0"/></g><path d="m272.128906 313.917969-3.332031-3.332031c-3.488281-3.488282-8.265625-4.882813-12.796875-4.21875v32.101562c1.769531.699219 3.644531 1.054688 5.523438 1.054688 3.835937 0 7.675781-1.464844 10.605468-4.394532 5.855469-5.855468 5.855469-15.355468 0-21.210937zm0 0" fill="#ffe5c2"/><path d="m257.667969 272.664062c-3.839844 0-7.679688-1.460937-10.605469-4.390624l-3.335938-3.335938c-5.855468-5.855469-5.855468-15.351562 0-21.210938 5.859376-5.859374 15.355469-5.859374 21.214844 0l3.332032 3.332032c5.859374 5.859375 5.859374 15.355468 0 21.214844-2.929688 2.929687-6.769532 4.390624-10.605469 4.390624zm0 0" fill="#fff3de"/><path d="m268.273438 247.058594-3.332032-3.332032c-2.503906-2.503906-5.675781-3.929687-8.941406-4.292968v33.132812c.554688.058594 1.109375.101563 1.667969.101563 3.839843 0 7.675781-1.464844 10.605469-4.394531 5.859374-5.859376 5.859374-15.355469 0-21.214844zm0 0" fill="#ffe5c2"/><path d="m253.8125 205.808594c-3.839844 0-7.679688-1.464844-10.605469-4.394532l-3.332031-3.332031c-5.859375-5.859375-5.859375-15.355469 0-21.210937 5.855469-5.859375 15.351562-5.859375 21.210938 0l3.332031 3.332031c5.859375 5.855469 5.859375 15.355469 0 21.210937-2.929688 2.929688-6.769531 4.394532-10.605469 4.394532zm0 0" fill="#fff3de"/><path d="m264.417969 180.203125-3.332031-3.332031c-1.496094-1.496094-3.234376-2.605469-5.085938-3.339844v32.101562c3.082031-.453124 6.046875-1.847656 8.417969-4.21875 5.859375-5.855468 5.859375-15.351562 0-21.210937zm0 0" fill="#ffe5c2"/></svg>