<svg height="512pt" viewBox="0 0 512 512" width="512pt" xmlns="http://www.w3.org/2000/svg"><path d="m511.824219 309.785156c0-24.3125-19.789063-44.09375-44.109375-44.09375h-55.769532c-16.632812 0-30.164062 13.527344-30.164062 30.15625l.175781 216.152344h130.042969zm0 0" fill="#cfdde2"/><path d="m130.042969 295.847656c0-17.476562-14.367188-30.15625-34.164063-30.15625h-55.769531c-21.367187 0-40.109375 20.605469-40.109375 44.09375l.175781 202.214844h130.042969zm0 0" fill="#d9e7ec"/><path d="m411.792969 59.804688c0-32.976563-26.839844-59.804688-59.828125-59.804688h-192.101563c-32.988281 0-59.828125 26.828125-59.828125 59.804688l.175782 452.195312h311.753906zm0 0" fill="#e8f8fc"/><path d="m255.914062 512h156.050782l-.175782-452.195312c.003907-32.976563-26.835937-59.804688-59.824218-59.804688h-96.050782zm0 0" fill="#d9e7ec"/><path d="m326.183594 209.921875h-34.503906c-8.285157 0-15.003907-6.714844-15.003907-15 0-8.28125 6.71875-15 15.003907-15h34.503906c8.285156 0 15.003906 6.71875 15.003906 15 0 8.285156-6.71875 15-15.003906 15zm0 0" fill="#008adf"/><path d="m220.148438 209.921875h-34.503907c-8.285156 0-15.003906-6.714844-15.003906-15 0-8.28125 6.71875-15 15.003906-15h34.503907c8.285156 0 15.003906 6.71875 15.003906 15 0 8.285156-6.71875 15-15.003906 15zm0 0" fill="#66c0ee"/><path d="m326.183594 329.921875h-34.503906c-8.285157 0-15.003907-6.714844-15.003907-15 0-8.28125 6.71875-15 15.003907-15h34.503906c8.285156 0 15.003906 6.71875 15.003906 15 0 8.285156-6.71875 15-15.003906 15zm0 0" fill="#008adf"/><path d="m220.148438 329.921875h-34.503907c-8.285156 0-15.003906-6.714844-15.003906-15 0-8.28125 6.71875-15 15.003906-15h34.503907c8.285156 0 15.003906 6.71875 15.003906 15 0 8.285156-6.71875 15-15.003906 15zm0 0" fill="#66c0ee"/><path d="m326.183594 269.921875h-34.503906c-8.285157 0-15.003907-6.714844-15.003907-15 0-8.28125 6.71875-15 15.003907-15h34.503906c8.285156 0 15.003906 6.71875 15.003906 15 0 8.285156-6.71875 15-15.003906 15zm0 0" fill="#008adf"/><path d="m220.148438 269.921875h-34.503907c-8.285156 0-15.003906-6.714844-15.003906-15 0-8.28125 6.71875-15 15.003906-15h34.503907c8.285156 0 15.003906 6.71875 15.003906 15 0 8.285156-6.71875 15-15.003906 15zm0 0" fill="#66c0ee"/><path d="m315.730469 381.28125c0-8.28125-6.714844-15-15.003907-15h-89.625c-8.289062 0-15.003906 6.71875-15.003906 15l.171875 130.71875h119.636719zm0 0" fill="#a2d8f4"/><path d="m255.914062 512h59.992188l-.175781-130.71875c0-8.28125-6.714844-15-15.003907-15h-44.8125zm0 0" fill="#66c0ee"/><path d="m278.644531 84.140625h-7.726562v-7.722656c0-8.28125-6.71875-15-15.003907-15-8.285156 0-15.003906 6.71875-15.003906 15v7.722656h-7.726562c-8.285156 0-15.003906 6.71875-15.003906 15 0 8.285156 6.71875 15 15.003906 15h7.726562v7.722656c0 8.285157 6.71875 15 15.003906 15 8.285157 0 15.003907-6.714843 15.003907-15v-7.722656h7.726562c8.285157 0 15.003907-6.714844 15.003907-15 0-8.28125-6.71875-15-15.003907-15zm0 0" fill="#ef5f3c"/><path d="m278.644531 84.140625h-7.726562v-7.722656c0-8.28125-6.71875-15-15.003907-15v75.445312c8.285157 0 15.003907-6.714843 15.003907-15v-7.722656h7.726562c8.285157 0 15.003907-6.714844 15.003907-15 0-8.28125-6.71875-15-15.003907-15zm0 0" fill="#ec380b"/></svg>