<svg height="512pt" viewBox="0 0 512.001 512" width="512pt" xmlns="http://www.w3.org/2000/svg"><path d="m4.394531 507.605469c-5.859375-5.855469-5.859375-15.351563 0-21.210938l53.460938-53.460937c5.855469-5.859375 15.355469-5.859375 21.210937 0 5.859375 5.855468 5.859375 15.355468 0 21.210937l-53.460937 53.460938c-5.855469 5.859375-15.355469 5.859375-21.210938 0zm0 0" fill="#d9e7ec"/><path d="m79.066406 432.933594-74.671875 74.671875c5.855469 5.859375 15.355469 5.859375 21.210938 0l53.460937-53.460938c5.859375-5.855469 5.859375-15.355469 0-21.210937zm0 0" fill="#c5d3dd"/><path d="m83.464844 479.757812-51.222656-51.222656c-5.859376-5.859375-5.859376-15.355468 0-21.214844l63.667968-63.667968c5.859375-5.855469 15.355469-5.855469 21.214844 0l51.222656 51.226562c5.859375 5.855469 5.859375 15.351563 0 21.210938l-63.667968 63.667968c-5.859376 5.859376-15.355469 5.859376-21.214844 0zm0 0" fill="#008adf"/><path d="m168.347656 394.878906-25.613281-25.613281-84.878906 84.878906 25.609375 25.613281c5.859375 5.859376 15.355468 5.859376 21.214844 0l63.667968-63.667968c5.859375-5.859375 5.859375-15.355469 0-21.210938zm0 0" fill="#0065a3"/><path d="m136.335938 405.289062-29.625-29.625c-30.382813-30.382812-30.382813-79.816406 0-110.199218l192.863281-192.863282c11-11 28.898437-11.003906 39.898437 0l99.929688 99.925782c11 11 11 28.898437 0 39.898437l-192.867188 192.863281c-30.382812 30.386719-79.816406 30.386719-110.199218 0zm0 0" fill="#d9f2ff"/><path d="m439.402344 172.527344-49.964844-49.964844-267.914062 267.914062 14.8125 14.8125c30.382812 30.382813 79.816406 30.382813 110.199218 0l192.867188-192.863281c11-11 11-28.898437 0-39.898437zm0 0" fill="#a2d8f4"/><path d="m295.445312 356.382812-69.914062-69.914062c-5.855469-5.859375-15.355469-5.859375-21.210938 0-5.859374 5.859375-5.859374 15.355469 0 21.214844l69.914063 69.910156zm0 0" fill="#008adf"/><path d="m204.316406 307.679688 21.210938-21.210938 69.914062 69.914062-21.214844 21.210938zm0 0" fill="#0065a3"/><path d="m346.964844 304.859375-69.914063-69.910156c-5.855469-5.859375-15.351562-5.859375-21.210937 0-5.859375 5.855469-5.859375 15.355469 0 21.210937l69.914062 69.914063zm0 0" fill="#008adf"/><path d="m255.835938 256.160156 21.210937-21.210937 69.914063 69.910156-21.210938 21.214844zm0 0" fill="#0065a3"/><path d="m398.488281 253.339844-69.914062-69.914063c-5.859375-5.855469-15.355469-5.855469-21.214844 0-5.855469 5.859375-5.855469 15.355469 0 21.214844l69.914063 69.914063zm0 0" fill="#008adf"/><path d="m307.355469 204.640625 21.214843-21.210937 69.910157 69.910156-21.210938 21.214844zm0 0" fill="#0065a3"/><path d="m401.996094 177.546875-67.542969-67.539063c-5.855469-5.859374-5.855469-15.355468 0-21.214843l50.054687-50.050781c5.855469-5.859376 15.355469-5.859376 21.210938 0l67.539062 67.539062c5.859376 5.859375 5.859376 15.355469 0 21.210938l-50.050781 50.054687c-5.859375 5.855469-15.355469 5.855469-21.210937 0zm0 0" fill="#66c0ee"/><path d="m473.257812 106.28125-33.769531-33.769531-71.265625 71.265625 33.773438 33.769531c5.855468 5.859375 15.351562 5.859375 21.210937 0l50.050781-50.050781c5.859376-5.859375 5.859376-15.355469 0-21.214844zm0 0" fill="#008adf"/><path d="m471.566406 247.121094-206.683594-206.6875c-5.859374-5.859375-5.859374-15.355469 0-21.214844 5.855469-5.855469 15.355469-5.855469 21.210938 0l206.6875 206.6875c5.855469 5.859375 5.855469 15.355469 0 21.214844-5.859375 5.855468-15.355469 5.855468-21.214844 0zm0 0" fill="#fed2a4"/><path d="m492.78125 225.90625-103.34375-103.34375-21.214844 21.214844 103.34375 103.34375c5.859375 5.855468 15.355469 5.855468 21.214844 0 5.855469-5.859375 5.855469-15.355469 0-21.214844zm0 0" fill="#f6a96c"/><path d="m486.394531 161.839844-136.234375-136.234375c-5.859375-5.855469-5.859375-15.351563 0-21.210938 5.859375-5.859375 15.355469-5.859375 21.214844 0l136.234375 136.234375c5.855469 5.855469 5.855469 15.355469 0 21.210938-5.859375 5.859375-15.355469 5.859375-21.214844 0zm0 0" fill="#fed2a4"/><path d="m507.609375 140.628906-68.117187-68.117187-21.214844 21.210937 68.117187 68.117188c5.859375 5.859375 15.355469 5.859375 21.214844 0 5.855469-5.855469 5.855469-15.355469 0-21.210938zm0 0" fill="#f6a96c"/></svg>