<svg height="512pt" viewBox="0 0 512 512" width="512pt" xmlns="http://www.w3.org/2000/svg"><path d="m0 209.011719v286.988281c0 8.285156 6.714844 15 15 15h482c8.285156 0 15-6.714844 15-15v-286.988281zm0 0" fill="#99ecea"/><path d="m256 209.011719v301.988281h241c8.285156 0 15-6.714844 15-15v-286.988281zm0 0" fill="#3acbc7"/><path d="m292.703125 481.097656h-73.40625c-10.132813 0-18.34375-8.210937-18.34375-18.339844v-33.546874h-33.546875c-10.128906 0-18.34375-8.214844-18.34375-18.34375v-73.410157c0-10.128906 8.214844-18.34375 18.34375-18.34375h33.546875v-33.542969c0-10.132812 8.210937-18.34375 18.34375-18.34375h73.40625c10.132813 0 18.34375 8.210938 18.34375 18.34375v33.542969h33.546875c10.128906 0 18.34375 8.214844 18.34375 18.34375v73.410157c0 10.128906-8.214844 18.34375-18.34375 18.34375h-33.546875v33.546874c0 10.128907-8.210937 18.339844-18.34375 18.339844zm0 0" fill="#e8f8fc"/><path d="m256 444.414062v36.683594h36.703125c10.132813 0 18.34375-8.210937 18.34375-18.339844v-33.546874h33.546875c10.128906 0 18.34375-8.214844 18.34375-18.34375v-73.410157c0-10.128906-8.214844-18.34375-18.34375-18.34375h-33.546875v-33.542969c0-10.132812-8.210937-18.34375-18.34375-18.34375h-36.703125v36.683594" fill="#d9e7ec"/><path d="m225.984375 437.210938v-23.636719c0-5.1875-4.207031-9.398438-9.398437-9.398438h-23.636719c-5.1875 0-9.398438-4.207031-9.398438-9.398437v-41.230469c0-5.191406 4.210938-9.398437 9.398438-9.398437h23.636719c5.191406 0 9.398437-4.210938 9.398437-9.402344v-23.632813c0-5.191406 4.207031-9.398437 9.398437-9.398437h41.230469c5.191407 0 9.402344 4.207031 9.402344 9.398437v23.632813c0 5.191406 4.207031 9.402344 9.398437 9.402344h23.632813c5.191406 0 9.398437 4.207031 9.398437 9.398437v41.230469c0 5.191406-4.207031 9.398437-9.398437 9.398437h-23.632813c-5.191406 0-9.398437 4.210938-9.398437 9.398438v23.636719c0 5.191406-4.210937 9.398437-9.402344 9.398437h-41.230469c-5.191406 0-9.398437-4.207031-9.398437-9.398437zm0 0" fill="#ef5f3c"/><path d="m319.046875 344.148438h-23.632813c-5.191406 0-9.398437-4.210938-9.398437-9.402344v-23.632813c0-5.191406-4.210937-9.398437-9.402344-9.398437h-20.613281v144.894531h20.617188c5.191406 0 9.398437-4.207031 9.398437-9.398437v-23.636719c0-5.1875 4.207031-9.398438 9.398437-9.398438h23.636719c5.1875 0 9.398438-4.207031 9.398438-9.398437v-41.230469c-.003907-5.191406-4.210938-9.398437-9.402344-9.398437zm0 0" fill="#ec380b"/><path d="m310.738281 137.460938v-63.726563c0-9.796875-7.9375-17.734375-17.730469-17.734375h-74.015624c-9.792969 0-17.730469 7.9375-17.730469 17.734375v63.726563h-60v-98.832032c0-21.332031 17.292969-38.628906 38.628906-38.628906h152.222656c21.332031 0 38.628907 17.296875 38.628907 38.628906v98.832032zm0 0" fill="#2b7a77"/><path d="m332.109375 0h-76.109375v56h37.007812c9.792969 0 17.730469 7.9375 17.730469 17.734375v63.726563h60v-98.832032c0-21.332031-17.292969-38.628906-38.628906-38.628906zm0 0" fill="#024e41"/><path d="m443.742188 116.851562h-375.484376c-37.636718 0-68.257812 30.613282-68.257812 68.238282v46.996094h512v-46.996094c0-37.625-30.621094-68.238282-68.257812-68.238282zm0 0" fill="#3acbc7"/><path d="m443.742188 116.851562h-187.742188v115.234376h256v-46.996094c0-37.625-30.621094-68.238282-68.257812-68.238282zm0 0" fill="#2b7a77"/></svg>