<svg height="511pt" viewBox="-20 1 511 511.99983" width="511pt" xmlns="http://www.w3.org/2000/svg"><g fill="#66c0ee"><path d="m338.566406 62.003906c-6.128906.304688-12.066406-3.183594-14.585937-9.148437l-8.734375-20.6875c-3.214844-7.625.371094-16.40625 8.011718-19.617188 7.640626-3.207031 16.441407.367188 19.660157 7.992188l8.734375 20.6875c3.21875 7.621093-.371094 16.40625-8.011719 19.613281-1.65625.699219-3.375 1.074219-5.074219 1.160156zm0 0"/><path d="m400.277344 50.722656c-2.203125.109375-4.460938-.261718-6.621094-1.183594-7.628906-3.242187-11.179688-12.035156-7.929688-19.644531l8.871094-20.78125c3.25-7.609375 12.066406-11.152343 19.695313-7.910156 7.628906 3.238281 11.179687 12.035156 7.929687 19.644531l-8.875 20.78125c-2.324218 5.453125-7.511718 8.816406-13.070312 9.09375zm0 0"/><path d="m435.796875 100.835938c-6.179687.308593-12.160156-3.246094-14.640625-9.28125-3.144531-7.65625.527344-16.402344 8.199219-19.539063l21.28125-8.703125c7.667969-3.136719 16.4375.523438 19.582031 8.179688 3.144531 7.652343-.523438 16.398437-8.195312 19.535156l-21.28125 8.703125c-1.621094.664062-3.289063 1.019531-4.945313 1.105469zm0 0"/></g><path d="m320.902344 512c-3.851563 0-7.765625-.515625-11.695313-1.554688-30.867187-8.167968-41.324219-43.21875-50.546875-74.140624-9.777344-32.773438-16.871094-52.730469-32.699218-52.921876-15.832032.191407-22.929688 20.148438-32.703126 52.921876-9.226562 30.921874-19.679687 65.972656-50.546874 74.140624-11.675782 3.085938-23.207032 1.558594-33.359376-4.417968-29.761718-17.523438-43.09375-70.710938-54.855468-117.636719-5.003906-19.957031-9.730469-38.804687-14.558594-49.308594-3.0625-6.660156-6.335938-13.398437-9.5-19.910156-20.839844-42.871094-42.386719-87.199219-21.273438-143.164063 18.699219-49.574218 64.160157-81.734374 115.8125-81.929687h.292969c27.128907 0 46.855469 14.316406 64.269531 26.957031 13.230469 9.605469 24.667969 17.90625 36.421876 18.015625 11.75-.109375 23.191406-8.410156 36.417968-18.015625 17.414063-12.636718 37.140625-26.957031 64.269532-26.957031h.292968c51.652344.195313 97.113282 32.355469 115.816406 81.929687 21.113282 55.964844-.4375 100.292969-21.273437 143.160157-3.167969 6.515625-6.441406 13.253906-9.503906 19.914062-4.828125 10.503907-9.554688 29.351563-14.554688 49.308594-11.765625 46.925781-25.097656 100.113281-54.859375 117.636719-6.734375 3.964844-14.078125 5.972656-21.664062 5.972656zm0 0" fill="#ffe5c2"/><path d="m442.753906 176.007812c-18.703125-49.574218-64.160156-81.734374-115.8125-81.929687-.097656 0-.195312 0-.292968 0-27.128907 0-46.855469 14.320313-64.269532 26.957031-13.230468 9.605469-24.667968 17.90625-36.417968 18.015625v244.332031c15.828124.191407 22.925781 20.148438 32.699218 52.921876 9.226563 30.921874 19.679688 65.972656 50.546875 74.140624 3.929688 1.039063 7.84375 1.554688 11.695313 1.554688 7.589844 0 14.933594-2.007812 21.664062-5.972656 29.761719-17.523438 43.097656-70.710938 54.859375-117.636719 5-19.957031 9.726563-38.804687 14.554688-49.308594 3.0625-6.660156 6.335937-13.398437 9.503906-19.914062 20.835937-42.867188 42.382813-87.195313 21.269531-143.160157zm0 0" fill="#fed2a4"/><path d="m79.414062 217.363281c-1.757812 0-3.542968-.308593-5.285156-.964843-7.761718-2.914063-11.683594-11.550782-8.761718-19.292969 9.996093-26.496094 32.925781-43.019531 59.839843-43.125h.058594c8.265625 0 14.980469 6.667969 15.011719 14.921875.03125 8.269531-6.664063 15-14.957032 15.03125-14.363281.058594-26.269531 8.925781-31.851562 23.726562-2.269531 6-7.984375 9.703125-14.054688 9.703125zm0 0" fill="#fff"/></svg>