<svg height="512pt" viewBox="0 0 512 512" width="512pt" xmlns="http://www.w3.org/2000/svg"><path d="m0 458.878906v-405.757812c0-29.292969 22.734375-53.121094 50.675781-53.121094h410.648438c27.941406 0 50.675781 23.828125 50.675781 53.121094v405.757812c0 29.292969-22.734375 53.121094-50.675781 53.121094h-410.648438c-27.941406 0-50.675781-23.828125-50.675781-53.121094zm0 0" fill="#e8f8fc"/><path d="m461.324219 0h-205.484375v512h205.484375c27.941406 0 50.675781-23.828125 50.675781-53.121094v-405.757812c0-29.292969-22.734375-53.121094-50.675781-53.121094zm0 0" fill="#c5d3dd"/><path d="m241 420.019531v-327.765625c0-8.683594 6.714844-15.722656 15-15.722656s15 7.039062 15 15.722656v327.765625c0 8.683594-6.714844 15.722657-15 15.722657s-15-7.039063-15-15.722657zm0 0" fill="#fff"/><path d="m256 76.53125c-.054688 0-.105469.007812-.160156.007812v359.195313c.054687 0 .105468.007813.160156.007813 8.285156 0 15-7.039063 15-15.722657v-327.765625c0-8.683594-6.714844-15.722656-15-15.722656zm0 0" fill="#e8f8fc"/><path d="m307.515625 370.347656v-228.695312c0-36.609375 28.414063-66.394532 63.339844-66.394532h.289062c34.925781 0 63.339844 29.785157 63.339844 66.394532v228.695312c0 36.609375-28.414063 66.394532-63.339844 66.394532h-.289062c-34.925781 0-63.339844-29.785157-63.339844-66.394532zm0 0" fill="#99ecea"/><path d="m371.144531 75.257812h-.144531v361.484376h.144531c34.925781 0 63.339844-29.785157 63.339844-66.394532v-228.695312c0-36.609375-28.414063-66.394532-63.339844-66.394532zm0 0" fill="#3acbc7"/><path d="m307.515625 370.347656v-114.347656h126.96875v114.347656c0 36.609375-28.480469 66.394532-63.484375 66.394532s-63.484375-29.785157-63.484375-66.394532zm0 0" fill="#f89a76"/><path d="m371 256v180.742188c35.003906 0 63.484375-29.785157 63.484375-66.394532v-114.347656zm0 0" fill="#ec380b"/><path d="m77.515625 370.347656v-228.695312c0-36.609375 28.414063-66.394532 63.339844-66.394532h.289062c34.925781 0 63.339844 29.785157 63.339844 66.394532v228.695312c0 36.609375-28.414063 66.394532-63.339844 66.394532h-.289062c-34.925781 0-63.339844-29.785157-63.339844-66.394532zm0 0" fill="#99ecea"/><path d="m141.144531 75.257812h-.144531v361.484376h.144531c34.925781 0 63.339844-29.785157 63.339844-66.394532v-228.695312c0-36.609375-28.414063-66.394532-63.339844-66.394532zm0 0" fill="#3acbc7"/><path d="m77.515625 370.347656v-114.347656h126.96875v114.347656c0 36.609375-28.480469 66.394532-63.484375 66.394532s-63.484375-29.785157-63.484375-66.394532zm0 0" fill="#f89a76"/><path d="m141 256v180.742188c35.003906 0 63.484375-29.785157 63.484375-66.394532v-114.347656zm0 0" fill="#ec380b"/></svg>