<svg height="512pt" viewBox="-80 0 511 512" width="512pt" xmlns="http://www.w3.org/2000/svg"><path d="m176.605469 512c-46.832031 0-90.953125-18.820312-124.242188-52.992188-33.183593-34.066406-51.460937-79.160156-51.460937-126.976562l-.402344-204.84375c0-25.214844 21.113281-45.726562 47.0625-45.726562 6.03125 0 11.800781 1.105468 17.105469 3.125v-18.328126c0-25.214843 21.15625-45.726562 47.15625-45.726562 7.941406 0 15.433593 1.914062 22.003906 5.289062 7.644531-15.269531 23.800781-25.820312 42.449219-25.820312 22.03125 0 40.578125 14.722656 45.734375 34.554688 5.742187-2.417969 12.074219-3.757813 18.722656-3.757813 26 0 47.152344 20.515625 47.152344 45.730469v60.113281c5.359375-2.058594 11.195312-3.1875 17.300781-3.1875 26 0 47.15625 20.511719 47.15625 45.726563-.019531 69.03125-.023438 82.242187-.046875 85.105468h.007813v67.746094c0 47.816406-18.273438 92.910156-51.460938 126.976562-33.289062 34.171876-77.410156 52.992188-124.238281 52.992188zm0 0" fill="#fff3de"/><path d="m352.34375 179.179688c0-25.214844-21.15625-45.730469-47.15625-45.730469-6.101562 0-11.941406 1.132812-17.300781 3.1875v-60.113281c0-25.214844-21.152344-45.726563-47.152344-45.726563-6.648437 0-12.980469 1.339844-18.722656 3.757813-5.152344-19.816407-23.671875-34.5273442-45.675781-34.554688v511.996094c.089843 0 .179687.003906.269531.003906 46.828125 0 90.949219-18.820312 124.238281-52.992188 33.1875-34.066406 51.460938-79.164062 51.460938-126.976562v-67.746094h-.007813c.023437-2.863281.027344-16.078125.046875-85.105468zm0 0" fill="#fed2a4"/><path d="m64.667969 242.75c8.285156 0 15-6.71875 15-15v-194.894531c-9.21875 8.351562-15 20.234375-15 33.402343v18.328126c-4.683594-1.78125-9.730469-2.851563-15-3.078126v146.238282c0 8.285156 6.714843 15.003906 15 15.003906zm0 0" fill="#ffe5c2"/><path d="m134.121094 212.75c8.285156 0 15-6.71875 15-15v-189.378906c-6.496094 4.453125-11.789063 10.453125-15.292969 17.449218-4.515625-2.316406-9.472656-3.929687-14.707031-4.71875v176.648438c0 8.28125 6.71875 15 15 15zm0 0" fill="#ffe5c2"/><g fill="#ffbd86"><path d="m220.578125 212.75c8.28125 0 15-6.71875 15-15v-166.675781c-4.769531.503906-9.332031 1.695312-13.566406 3.480469-2.445313-9.402344-7.898438-17.648438-15.308594-23.730469-.722656 1.757812-1.125 3.679687-1.125 5.699219v181.222656c-.003906 8.285156 6.714844 15.003906 15 15.003906zm0 0"/><path d="m303.03125 267.75v-134.25c-5.320312.234375-10.417969 1.324219-15.144531 3.136719v-60.113281c0-13.101563-5.71875-24.925782-14.855469-33.269532v224.496094c0 8.28125 6.714844 15 15 15s15-6.71875 15-15zm0 0"/></g></svg>