<svg height="512pt" viewBox="-65 0 512 512" width="512pt" xmlns="http://www.w3.org/2000/svg"><path d="m251.21875 512h-121.207031c-38.796875 0-70.359375-31.640625-70.359375-70.535156v-12.675782c-33.730469-5.183593-59.652344-34.476562-59.652344-69.71875v-167.894531c0-105.414062 85.507812-191.175781 190.613281-191.175781s190.613281 85.761719 190.613281 191.175781v167.894531c0 35.242188-25.917968 64.535157-59.652343 69.71875v12.675782c0 38.894531-31.558594 70.535156-70.355469 70.535156zm0 0" fill="#ffe5c2"/><path d="m190.613281 0v512h60.605469c38.796875 0 70.355469-31.640625 70.355469-70.535156v-12.675782c33.734375-5.183593 59.652343-34.476562 59.652343-69.71875v-167.894531c.003907-105.414062-85.507812-191.175781-190.613281-191.175781zm0 0" fill="#fed2a4"/><path d="m286.46875 141.375c-4.820312 0-9.554688-2.320312-12.449219-6.617188-14.179687-21.035156-35.429687-35.871093-59.839843-41.769531-8.050782-1.949219-13-10.054687-11.054688-18.105469 1.945312-8.054687 10.050781-13 18.105469-11.054687 31.707031 7.664063 59.289062 26.902344 77.664062 54.160156 4.628907 6.871094 2.8125 16.191407-4.054687 20.824219-2.570313 1.730469-5.484375 2.5625-8.371094 2.5625zm0 0" fill="#fffaf5"/><path d="m226.40625 399.605469c-8.285156 0-15 6.714843-15 15v97.394531h30v-97.394531c0-8.285157-6.714844-15-15-15zm0 0" fill="#f6a96c"/><path d="m169.820312 512v-97.394531c0-8.285157-6.714843-15-15-15-8.28125 0-15 6.714843-15 15v97.394531zm0 0" fill="#fed2a4"/><path d="m114.933594 354.015625c-29.550782 0-53.59375-24.097656-53.59375-53.71875 0-29.617187 24.042968-53.714844 53.59375-53.714844 29.550781 0 53.59375 24.097657 53.59375 53.714844 0 29.621094-24.042969 53.71875-53.59375 53.71875zm0-77.433594c-13.007813 0-23.59375 10.636719-23.59375 23.714844s10.585937 23.714844 23.59375 23.714844c13.007812 0 23.59375-10.636719 23.59375-23.714844s-10.585938-23.714844-23.59375-23.714844zm0 0" fill="#fed2a4"/><path d="m266.292969 354.015625c-29.550781 0-53.59375-24.097656-53.59375-53.71875 0-29.617187 24.042969-53.714844 53.59375-53.714844 29.554687 0 53.59375 24.097657 53.59375 53.714844 0 29.621094-24.039063 53.71875-53.59375 53.71875zm0-77.433594c-13.007813 0-23.59375 10.636719-23.59375 23.714844s10.585937 23.714844 23.59375 23.714844c13.011719 0 23.59375-10.636719 23.59375-23.714844s-10.582031-23.714844-23.59375-23.714844zm0 0" fill="#f6a96c"/></svg>