<svg height="512pt" viewBox="-82 0 512 512" width="512pt" xmlns="http://www.w3.org/2000/svg"><path d="m233.28125 322.859375c-24.300781 0-44.066406 19.769531-44.066406 44.066406v100.394531c0 7.789063-6.335938 14.125-14.125 14.125-7.785156 0-14.121094-6.335937-14.121094-14.125v-150.300781c0-8.269531-6.703125-14.972656-14.972656-14.972656-8.269532 0-14.972656 6.703125-14.972656 14.972656v150.304688c0 24.296875 19.769531 44.066406 44.066406 44.066406 24.300781 0 44.066406-19.769531 44.066406-44.066406v-100.398438c0-7.785156 6.335938-14.121093 14.125-14.121093 7.785156 0 14.121094 6.335937 14.121094 14.121093v10.566407c0 8.269531 6.703125 14.972656 14.972656 14.972656s14.972656-6.703125 14.972656-14.972656v-10.566407c0-24.296875-19.769531-44.066406-44.066406-44.066406zm0 0" fill="#ffe5c2"/><path d="m233.28125 322.859375c-24.300781 0-44.066406 19.769531-44.066406 44.066406v100.394531c0 7.789063-6.335938 14.125-14.125 14.125-7.785156 0-14.121094-6.335937-14.121094-14.125v-150.300781c0-7.945312-6.195312-14.425781-14.015625-14.921875v199.109375c7.636719 6.355469 17.449219 10.183594 28.136719 10.183594 24.300781 0 44.066406-19.769531 44.066406-44.066406v-100.398438c0-7.785156 6.335938-14.121093 14.125-14.121093 7.785156 0 14.121094 6.335937 14.121094 14.121093v10.566407c0 8.269531 6.703125 14.972656 14.972656 14.972656s14.972656-6.703125 14.972656-14.972656v-10.566407c0-24.296875-19.769531-44.066406-44.066406-44.066406zm0 0" fill="#fed2a4"/><path d="m146.953125 331.859375c-31.3125 0-56.785156-25.472656-56.785156-56.785156 0-.5625.019531-1.117188.039062-1.675781l.007813-.226563c.269531-8.070313 6.886718-14.472656 14.960937-14.472656h83.550781c8.074219 0 14.695313 6.402343 14.964844 14.472656l.007813.226563c.019531.558593.035156 1.117187.035156 1.675781 0 31.3125-25.472656 56.785156-56.78125 56.785156zm0 0" fill="#2b7a77"/><path d="m203.699219 273.398438-.007813-.226563c-.269531-8.070313-6.890625-14.472656-14.964844-14.472656h-41.773437v73.160156c31.308594 0 56.78125-25.472656 56.78125-56.785156 0-.5625-.015625-1.117188-.035156-1.675781zm0 0" fill="#024e41"/><path d="m194 78.609375h-94.09375c-8.074219 0-14.695312-6.398437-14.964844-14.472656l-.007812-.269531c-.019532-.601563-.039063-1.203126-.039063-1.808594 0-34.21875 27.839844-62.058594 62.058594-62.058594s62.058594 27.839844 62.058594 62.058594c0 .597656-.019531 1.1875-.039063 1.78125l-.007812.285156c-.265625 8.074219-6.886719 14.484375-14.964844 14.484375zm-76.234375-29.941406h58.375c-5.085937-11.042969-16.257813-18.722657-29.1875-18.722657-12.933594 0-24.105469 7.679688-29.1875 18.722657zm0 0" fill="#024e41"/><path d="m146.953125 0v29.945312c12.929687 0 24.101563 7.679688 29.1875 18.722657h-29.1875v29.941406h47.046875c8.078125 0 14.703125-6.410156 14.964844-14.484375l.007812-.285156c.023438-.59375.039063-1.1875.039063-1.78125 0-34.21875-27.839844-62.058594-62.058594-62.058594zm0 0" fill="#17242a"/><path d="m176.058594 287.925781h-58.214844c-49.980469 0-90.644531-40.664062-90.644531-90.644531v-133.886719c0-8.265625 6.703125-14.96875 14.972656-14.96875h209.558594c8.269531 0 14.972656 6.703125 14.972656 14.96875v133.886719c0 49.980469-40.660156 90.644531-90.644531 90.644531zm0 0" fill="#d9f2ff"/><path d="m251.730469 48.425781h-104.777344v239.5h29.105469c49.984375 0 90.644531-40.660156 90.644531-90.644531v-133.886719c0-8.265625-6.703125-14.96875-14.972656-14.96875zm0 0" fill="#a2d8f4"/><path d="m266.703125 159.296875v-29.941406h-85.78125c-8.269531 0-14.972656 6.703125-14.972656 14.96875 0 8.269531 6.703125 14.972656 14.972656 14.972656zm0 0" fill="#006da6"/><path d="m180.921875 189.242188c-8.269531 0-14.972656 6.703124-14.972656 14.972656 0 8.265625 6.703125 14.96875 14.972656 14.96875h83.101563c1.746093-7.015625 2.679687-14.351563 2.679687-21.902344v-8.039062zm0 0" fill="#006da6"/><path d="m278.933594 78.367188h-263.960938c-8.269531 0-14.972656-6.703126-14.972656-14.972657 0-8.265625 6.703125-14.96875 14.972656-14.96875h263.960938c8.269531 0 14.972656 6.703125 14.972656 14.96875 0 8.269531-6.703125 14.972657-14.972656 14.972657zm0 0" fill="#3acbc7"/><path d="m278.933594 48.425781h-131.980469v29.941407h131.980469c8.269531 0 14.972656-6.703126 14.972656-14.972657 0-8.265625-6.703125-14.96875-14.972656-14.96875zm0 0" fill="#2b7a77"/><path d="m300.152344 512c-23.519532 0-47.253906-15.097656-47.253906-48.824219 0-14.757812 6.949218-30.105469 20.101562-44.382812 9.007812-9.78125 17.832031-15.8125 18.808594-16.46875 5.046875-3.390625 11.644531-3.390625 16.691406 0 .976562.65625 9.800781 6.6875 18.808594 16.46875 13.152344 14.277343 20.105468 29.625 20.105468 44.382812 0 20.882813-8.992187 32.519531-16.535156 38.605469-8.167968 6.589844-19.078125 10.21875-30.726562 10.21875zm0 0" fill="#66c0ee"/><path d="m327.308594 418.792969c-9.007813-9.78125-17.832032-15.8125-18.808594-16.46875-2.523438-1.695313-5.433594-2.542969-8.347656-2.542969v112.21875c11.648437 0 22.558594-3.628906 30.722656-10.21875 7.546875-6.085938 16.535156-17.722656 16.535156-38.605469 0-14.757812-6.949218-30.105469-20.101562-44.382812zm0 0" fill="#00abe9"/></svg>