<svg height="512pt" viewBox="-12 0 512 512" width="512pt" xmlns="http://www.w3.org/2000/svg"><path d="m303.410156 49.09375h-211.1875l-9.582031-37.761719c-1.664063-6.566406-7.777344-11.332031-14.542969-11.332031h-53.09375c-8.285156 0-15.003906 6.734375-15.003906 15.039062 0 8.304688 6.71875 15.035157 15.003906 15.035157h41.429688l31.328125 123.472656s17 11.183594 18.238281 10.867187c8.03125-2.046874 10.84375-18.28125 10.84375-18.28125l-16.992188-66.964843h203.558594c8.285156 0 15.003906-6.730469 15.003906-15.035157 0-8.308593-6.71875-15.039062-15.003906-15.039062zm0 0" fill="#2b7a77"/><path d="m303.410156 49.09375h-27.832031v30.074219h27.832031c8.285156 0 15.003906-6.730469 15.003906-15.039063 0-8.304687-6.71875-15.035156-15.003906-15.035156zm0 0" fill="#17242a"/><path d="m403.5 380.09375h-247.175781c-6.804688 0-12.753907-4.589844-14.5-11.179688l-58.816407-234.101562h220.402344c63.460938 0 115.09375 51.746094 115.09375 115.351562v114.890626c0 8.308593-6.71875 15.039062-15.003906 15.039062zm0 0" fill="#c9fcfb"/><path d="m303.410156 134.8125h-27.832031v245.28125h127.921875c8.285156 0 15.003906-6.734375 15.003906-15.039062v-114.890626c0-63.605468-51.632812-115.351562-115.09375-115.351562zm0 0" fill="#99ecea"/><path d="m403.5 380.667969h-255.84375c-8.285156 0-15.003906-6.734375-15.003906-15.039063v-63.667968h285.851562v63.667968c0 8.304688-6.71875 15.039063-15.003906 15.039063zm0 0" fill="#0abab5"/><path d="m275.578125 301.960938v78.707031h127.921875c8.285156 0 15.003906-6.734375 15.003906-15.039063v-63.667968zm0 0" fill="#2b7a77"/><path d="m131.875 510.304688c-72.714844 0-131.87109375-59.289063-131.87109375-132.167969 0-72.878907 59.15624975-132.167969 131.87109375-132.167969s131.875 59.289062 131.875 132.167969c0 72.878906-59.160156 132.167969-131.875 132.167969zm0 0" fill="#d9e7ec"/><path d="m132.652344 245.976562v264.316407c72.359375-.417969 131.097656-59.539063 131.097656-132.15625 0-72.621094-58.738281-131.738281-131.097656-132.160157zm0 0" fill="#c5d3dd"/><path d="m131.875 446.789062c-37.769531 0-68.5-30.796874-68.5-68.652343s30.730469-68.652344 68.5-68.652344c37.773438 0 68.5 30.796875 68.5 68.652344s-30.726562 68.652343-68.5 68.652343zm0 0" fill="#006da6"/><path d="m132.652344 309.503906v137.265625c37.414062-.421875 67.722656-31.039062 67.722656-68.632812s-30.308594-68.214844-67.722656-68.632813zm0 0" fill="#003554"/><path d="m473.285156 512c-6.261718 0-12.105468-3.960938-14.214844-10.234375l-21.929687-65.164063c-2.644531-7.871093 1.570313-16.402343 9.425781-19.054687 7.855469-2.65625 16.363282 1.574219 19.011719 9.445313l21.925781 65.160156c2.648438 7.871094-1.570312 16.402344-9.421875 19.054687-1.589843.539063-3.207031.792969-4.796875.792969zm0 0" fill="#17242a"/><path d="m387.058594 511.996094c-44.125 0-80.023438-35.976563-80.023438-80.203125 0-44.222657 35.898438-80.199219 80.023438-80.199219s80.023437 35.976562 80.023437 80.199219c0 44.226562-35.898437 80.203125-80.023437 80.203125zm0 0" fill="#d9e7ec"/><path d="m387.058594 351.59375v160.402344c44.125 0 80.023437-35.976563 80.023437-80.203125 0-44.222657-35.898437-80.199219-80.023437-80.199219zm0 0" fill="#c5d3dd"/><path d="m387.984375 445h-1.851563c-8.285156 0-15.003906-6.730469-15.003906-15.035156 0-8.308594 6.71875-15.039063 15.003906-15.039063h1.851563c8.285156 0 15.003906 6.730469 15.003906 15.039063 0 8.304687-6.71875 15.035156-15.003906 15.035156zm0 0" fill="#006da6"/><path d="m387.984375 414.925781h-.925781v30.074219h.925781c8.285156 0 15.003906-6.730469 15.003906-15.035156 0-8.308594-6.71875-15.039063-15.003906-15.039063zm0 0" fill="#003554"/></svg>