<svg height="512pt" viewBox="0 -74 512 512" width="512pt" xmlns="http://www.w3.org/2000/svg"><path d="m190.53125 189.921875c-4.8125 0-9.542969-2.304687-12.449219-6.582031-1.75-2.578125-2.589843-5.507813-2.589843-8.402344 0-4.808594 2.308593-9.53125 6.59375-12.445312l59.40625-40.21875v-107.273438c0-8.285156 6.726562-15 15.023437-15s15.023437 6.714844 15.023437 15v107.953125l59.40625 40.21875c6.867188 3.980469 8.660157 13.308594 4 20.167969-4.65625 6.855468-13.996093 8.644531-20.863281 4.65625l-57.566406-39-57.570313 38.3125c-2.578124 1.773437-5.511718 2.613281-8.414062 2.613281zm0 0" fill="#ffe5c2"/><path d="m330.945312 163.175781-59.40625-40.222656v-107.953125c0-8.277344-6.714843-14.9882812-15.003906-15v149.007812l57.546875 38.988282c6.871094 3.988281 16.210938 2.199218 20.867188-4.65625 4.65625-6.859375 2.863281-16.1875-4.003907-20.164063zm0 0" fill="#fed2a4"/><path d="m72.039062 364.820312h-37.050781c-19.292969 0-34.988281-15.671874-34.988281-34.933593v-152.707031c0-61.234376 49.894531-111.050782 111.222656-111.050782h59.316406c19.292969 0 34.988282 15.671875 34.988282 34.933594v130.476562c0 73.492188-59.882813 133.28125-133.488282 133.28125zm0 0" fill="#f89a76"/><path d="m205.527344 146.609375-46.246094 31.261719-52.414062-30.574219c-7.164063-4.175781-16.363282-1.765625-20.550782 5.386719-4.183594 7.152344-1.769531 16.339844 5.394532 20.515625l40.003906 23.335937-62.070313 42.027344c-6.867187 4.648438-8.65625 13.976562-4 20.832031 2.902344 4.277344 7.632813 6.582031 12.445313 6.582031 2.902344 0 5.835937-.835937 8.417968-2.585937l81.558594-55.21875c.011719-.007813.027344-.019531.039063-.027344l37.421875-25.300781zm0 0" fill="#00abe9"/><path d="m306.472656 231.539062v-130.476562c0-19.261719 15.695313-34.933594 34.988282-34.933594h59.316406c61.328125 0 111.222656 49.816406 111.222656 111.046875v152.710938c0 19.261719-15.695312 34.933593-34.988281 34.933593h-37.050781c-73.605469 0-133.488282-59.789062-133.488282-133.28125zm0 0" fill="#ef5f3c"/><path d="m306.472656 146.609375 46.246094 31.261719 52.414062-30.574219c7.164063-4.175781 16.363282-1.765625 20.550782 5.386719 4.183594 7.152344 1.769531 16.339844-5.394532 20.515625l-40.003906 23.335937 62.070313 42.027344c6.867187 4.648438 8.65625 13.976562 4 20.832031-2.902344 4.277344-7.632813 6.582031-12.445313 6.582031-2.902344 0-5.835937-.835937-8.417968-2.585937l-81.558594-55.21875c-.011719-.007813-.027344-.019531-.039063-.027344l-37.421875-25.300781zm0 0" fill="#008adf"/></svg>