<svg height="512pt" viewBox="-50 0 511 512" width="512pt" xmlns="http://www.w3.org/2000/svg"><path d="m242.414062 512c-31.574218 0-61.886718-15.691406-85.359374-44.183594-21.679688-26.3125-34.109376-59.761718-34.109376-91.769531 0-8.285156 6.714844-15 15-15 8.28125 0 15 6.714844 15 15 0 24.792969 10.191407 51.96875 27.265626 72.695313 17.667968 21.445312 39.757812 33.257812 62.203124 33.257812 49.335938 0 89.476563-40.589844 89.476563-90.480469v-44.242187c0-8.285156 6.714844-15 15-15 8.28125 0 15 6.714844 15 15v44.242187c0 66.433594-53.597656 120.480469-119.476563 120.480469zm0 0" fill="#ffe5c2"/><path d="m346.359375 362.886719c-35.601563 0-64.570313-29.183594-64.570313-65.050781 0-35.867188 28.96875-65.046876 64.570313-65.046876 35.605469 0 64.570313 29.179688 64.570313 65.046876 0 35.867187-28.964844 65.050781-64.570313 65.050781zm0 0" fill="#d9e7ec"/><path d="m346.359375 232.789062v130.097657c35.605469 0 64.570313-29.179688 64.570313-65.046875 0-35.871094-28.964844-65.050782-64.570313-65.050782zm0 0" fill="#c5d3dd"/><path d="m346.359375 332.886719c-19.058594 0-34.570313-15.722657-34.570313-35.050781 0-19.324219 15.511719-35.046876 34.570313-35.046876 19.0625 0 34.570313 15.722657 34.570313 35.046876 0 19.328124-15.507813 35.050781-34.570313 35.050781zm0 0" fill="#9facba"/><path d="m346.359375 262.789062v70.097657c19.0625 0 34.570313-15.722657 34.570313-35.046875 0-19.328125-15.507813-35.050782-34.570313-35.050782zm0 0" fill="#7a8c98"/><path d="m30.5 51.273438h56.390625c8.285156 0 15-6.71875 15-15 0-8.285157-6.714844-15-15-15h-57.292969c-16.042968 0-29.097656 11.933593-29.097656 26.601562v172.285156h30zm0 0" fill="#d9e7ec"/><path d="m275.4375 47.875c0-14.667969-13.054688-26.601562-29.097656-26.601562h-57.292969c-8.285156 0-15 6.714843-15 15 0 8.28125 6.714844 15 15 15h56.390625v160.273437h30zm0 0" fill="#c5d3dd"/><path d="m189.046875 72.542969c-8.285156 0-15-6.714844-15-15v-42.542969c0-8.285156 6.714844-15 15-15 8.28125 0 15 6.714844 15 15v42.542969c0 8.285156-6.71875 15-15 15zm0 0" fill="#17242a"/><path d="m86.890625 72.542969c-8.285156 0-15-6.714844-15-15v-42.542969c0-8.285156 6.714844-15 15-15s15 6.714844 15 15v42.542969c0 8.285156-6.714844 15-15 15zm0 0" fill="#024e41"/><path d="m136.972656 390.863281c-14.703125 0-27.859375-7.65625-35.191406-20.476562l-1.191406-2.089844c-.210938-.371094-.410156-.757813-.59375-1.148437l-23.359375-50.519532c-2.144531-4.644531-1.777344-10.0625.980469-14.375 2.753906-4.3125 63.417968 20.707032 63.417968 20.707032s52.539063-25.019532 55.296875-20.707032c2.757813 4.3125 3.125 9.730469.976563 14.375l-23.359375 50.519532c-.183594.394531-.378907.777343-.59375 1.152343l-1.195313 2.085938c-7.332031 12.820312-20.484375 20.476562-35.1875 20.476562zm0 0" fill="#024e41"/><path d="m196.328125 302.253906c-2.753906-4.3125-55.296875 20.707032-55.296875 20.707032s-1.125-.464844-3.0625-1.25v69.117187c14.296875-.339844 27.027344-7.914063 34.191406-20.441406l1.191406-2.085938c.214844-.375.414063-.757812.59375-1.152343l23.359376-50.519532c2.148437-4.644531 1.78125-10.0625-.976563-14.375zm0 0" fill="#17242a"/><path d="m245.4375 200.160156v23.089844c0 22.246094-10.835938 43.414062-30.507812 59.605469-20.519532 16.890625-47.855469 26.191406-76.960938 26.191406-29.109375 0-56.441406-9.300781-76.960938-26.191406-19.671874-16.191407-30.507812-37.359375-30.507812-59.605469v-23.089844h-30v23.089844c0 63.851562 61.667969 115.796875 137.46875 115.796875s137.46875-51.945313 137.46875-115.796875v-23.089844zm0 0" fill="#99ecea"/><path d="m245.4375 200.160156v23.089844c0 22.246094-10.835938 43.414062-30.507812 59.605469-20.519532 16.890625-47.855469 26.191406-76.960938 26.191406v30c75.800781 0 137.46875-51.945313 137.46875-115.796875v-23.09375h-30zm0 0" fill="#6adbd8"/></svg>