<svg height="512pt" viewBox="0 0 511 512" width="512pt" xmlns="http://www.w3.org/2000/svg"><path d="m336.707031 170.894531h-85.363281c-8.289062 0-15.003906-6.71875-15.003906-15.003906v-59.441406c0-8.289063 6.714844-15.007813 15.003906-15.007813h85.363281c8.285157 0 15.003907 6.71875 15.003907 15.007813v59.441406c0 8.285156-6.71875 15.003906-15.003907 15.003906zm0 0" fill="#f89a76"/><path d="m336.707031 81.441406h-42.683593v89.453125h42.683593c8.285157 0 15.003907-6.71875 15.003907-15.007812v-59.4375c0-8.289063-6.71875-15.007813-15.003907-15.007813zm0 0" fill="#ef5f3c"/><path d="m210.445312 70.777344c-3.839843 0-7.679687-1.464844-10.609374-4.394532l-14.339844-14.34375c-5.863282-5.859374-5.863282-15.359374 0-21.21875 5.855468-5.863281 15.359375-5.863281 21.21875 0l14.34375 14.339844c5.859375 5.859375 5.859375 15.359375 0 21.222656-2.933594 2.929688-6.773438 4.394532-10.613282 4.394532zm0 0" fill="#f89a76"/><path d="m376.167969 70.777344c-3.839844 0-7.683594-1.464844-10.609375-4.394532-5.863282-5.863281-5.863282-15.363281 0-21.222656l14.339844-14.339844c5.859374-5.863281 15.359374-5.863281 21.222656 0 5.859375 5.859376 5.859375 15.359376 0 21.21875l-14.34375 14.34375c-2.929688 2.929688-6.769532 4.394532-10.609375 4.394532zm0 0" fill="#ef5f3c"/><path d="m294.023438 50.292969c-8.285157 0-15.003907-6.71875-15.003907-15.003907v-20.285156c0-8.285156 6.71875-15.003906 15.003907-15.003906 8.289062 0 15.007812 6.71875 15.007812 15.003906v20.285156c0 8.285157-6.71875 15.003907-15.007812 15.003907zm0 0" fill="#f89a76"/><path d="m294.023438 0v50.292969c8.289062 0 15.007812-6.71875 15.007812-15.003907v-20.285156c0-8.285156-6.71875-15.003906-15.007812-15.003906zm0 0" fill="#ef5f3c"/><path d="m467.984375 329.9375h-105.269531c-8.285156 0-15.003906-6.71875-15.003906-15.003906v-99.023438c0-8.289062 6.71875-15.007812 15.003906-15.007812h75.257812c6.609375 0 12.441406 4.328125 14.359375 10.652344l30.011719 99.023437c1.375 4.546875.519531 9.480469-2.3125 13.292969-2.828125 3.816406-7.296875 6.066406-12.046875 6.066406zm0 0" fill="#a2d8f4"/><path d="m496.992188 438.964844h-134.277344c-8.285156 0-15.003906-6.71875-15.003906-15.003906v-109.027344c0-8.289063 6.71875-15.007813 15.003906-15.007813h134.277344c8.289062 0 15.003906 6.71875 15.003906 15.007813v109.027344c0 8.285156-6.714844 15.003906-15.003906 15.003906zm0 0" fill="#0abab5"/><path d="m78.667969 330.660156h-42.15625c-8.285157 0-15.003907-6.714844-15.003907-15.003906 0-8.285156 6.71875-15.003906 15.003907-15.003906h42.15625c8.285156 0 15.003906 6.71875 15.003906 15.003906 0 8.289062-6.71875 15.003906-15.003906 15.003906zm0 0" fill="#a2d8f4"/><path d="m78.667969 270.640625h-63.164063c-8.285156 0-15.003906-6.71875-15.003906-15.003906 0-8.289063 6.71875-15.007813 15.003906-15.007813h63.164063c8.285156 0 15.003906 6.71875 15.003906 15.007813 0 8.285156-6.71875 15.003906-15.003906 15.003906zm0 0" fill="#00abe9"/><path d="m362.714844 438.964844h-284.046875c-8.289063 0-15.007813-6.71875-15.007813-15.003906v-268.070313c0-8.289063 6.71875-15.007813 15.007813-15.007813h284.046875c8.289062 0 15.007812 6.71875 15.007812 15.007813v268.070313c-.003906 8.285156-6.71875 15.003906-15.007812 15.003906zm0 0" fill="#e8f8fc"/><path d="m362.714844 140.882812h-142.742188v298.082032h142.742188c8.285156 0 15.003906-6.71875 15.003906-15.003906v-268.070313c0-8.289063-6.714844-15.007813-15.003906-15.007813zm0 0" fill="#d9e7ec"/><path d="m189.949219 350.71875v-23.644531c0-5.191407-4.210938-9.402344-9.402344-9.402344h-23.644531c-5.191406 0-9.402344-4.207031-9.402344-9.402344v-41.246093c0-5.191407 4.210938-9.402344 9.402344-9.402344h23.644531c5.191406 0 9.402344-4.210938 9.402344-9.402344v-23.644531c0-5.191407 4.207031-9.402344 9.402343-9.402344h41.242188c5.195312 0 9.402344 4.210937 9.402344 9.402344v23.644531c0 5.191406 4.210937 9.402344 9.402344 9.402344h23.644531c5.191406 0 9.402343 4.210937 9.402343 9.402344v41.246093c0 5.195313-4.210937 9.402344-9.402343 9.402344h-23.644531c-5.191407 0-9.402344 4.210937-9.402344 9.402344v23.644531c0 5.191406-4.207032 9.402344-9.402344 9.402344h-41.242188c-5.195312 0-9.402343-4.210938-9.402343-9.402344zm0 0" fill="#ef5f3c"/><path d="m283.042969 257.621094h-23.644531c-5.191407 0-9.402344-4.210938-9.402344-9.402344v-23.644531c0-5.191407-4.207032-9.402344-9.402344-9.402344h-20.621094v144.949219h20.621094c5.195312 0 9.402344-4.210938 9.402344-9.402344v-23.644531c0-5.191407 4.210937-9.402344 9.402344-9.402344h23.644531c5.191406 0 9.402343-4.207031 9.402343-9.402344v-41.246093c0-5.191407-4.210937-9.402344-9.402343-9.402344zm0 0" fill="#ec380b"/><path d="m160.257812 434.722656c0 34.390625-27.878906 62.273438-62.273437 62.273438-34.390625 0-62.273437-27.882813-62.273437-62.273438 0-34.394531 27.882812-62.273437 62.273437-62.273437 34.394531 0 62.273437 27.878906 62.273437 62.273437zm0 0" fill="#fff3de"/><path d="m97.984375 372.449219v124.546875c34.394531 0 62.273437-27.882813 62.273437-62.273438.003907-34.394531-27.878906-62.273437-62.273437-62.273437zm0 0" fill="#ffe5c2"/><path d="m97.988281 512c-42.613281 0-77.28125-34.667969-77.28125-77.277344 0-42.613281 34.667969-77.28125 77.28125-77.28125 42.609375 0 77.277344 34.667969 77.277344 77.28125 0 42.609375-34.667969 77.277344-77.277344 77.277344zm0-124.546875c-26.066406 0-47.269531 21.203125-47.269531 47.269531 0 26.0625 21.203125 47.265625 47.269531 47.265625 26.0625 0 47.265625-21.203125 47.265625-47.265625 0-26.066406-21.203125-47.269531-47.265625-47.269531zm0 0" fill="#2b7a77"/><path d="m97.988281 357.441406c-.003906 0-.003906 0 0 0v30.011719c26.0625 0 47.265625 21.203125 47.265625 47.269531 0 26.0625-21.203125 47.265625-47.265625 47.265625v30.011719c42.609375 0 77.277344-34.667969 77.277344-77.277344 0-42.613281-34.667969-77.28125-77.277344-77.28125zm0 0" fill="#024e41"/><path d="m430.351562 434.722656c0 34.390625-27.878906 62.273438-62.273437 62.273438-34.390625 0-62.273437-27.882813-62.273437-62.273438 0-34.394531 27.882812-62.273437 62.273437-62.273437 34.394531 0 62.273437 27.878906 62.273437 62.273437zm0 0" fill="#ffe5c2"/><path d="m368.078125 372.449219v124.546875c34.394531 0 62.273437-27.882813 62.273437-62.273438.003907-34.394531-27.878906-62.273437-62.273437-62.273437zm0 0" fill="#fed2a4"/><path d="m368.082031 512c-42.613281 0-77.28125-34.667969-77.28125-77.277344 0-42.613281 34.667969-77.28125 77.28125-77.28125 42.609375 0 77.277344 34.667969 77.277344 77.28125 0 42.609375-34.667969 77.277344-77.277344 77.277344zm0-124.546875c-26.066406 0-47.269531 21.203125-47.269531 47.269531 0 26.0625 21.203125 47.265625 47.269531 47.265625 26.0625 0 47.265625-21.203125 47.265625-47.265625 0-26.066406-21.203125-47.269531-47.265625-47.269531zm0 0" fill="#024e41"/><path d="m368.082031 357.441406v30.011719c26.0625 0 47.265625 21.203125 47.265625 47.269531 0 26.0625-21.203125 47.265625-47.265625 47.265625v30.011719c42.609375 0 77.277344-34.667969 77.277344-77.277344 0-42.613281-34.667969-77.28125-77.277344-77.28125zm0 0" fill="#17242a"/></svg>