<svg height="512pt" viewBox="-110 0 512 512" width="512pt" xmlns="http://www.w3.org/2000/svg"><path d="m276.863281 279.488281h-46.488281c-8.285156 0-15-6.714843-15-15 0-8.285156 6.714844-15 15-15h46.488281c8.28125 0 15 6.714844 15 15 0 8.285157-6.71875 15-15 15zm0 0" fill="#f89a76"/><path d="m276.863281 219.476562h-46.488281c-8.285156 0-15-6.714843-15-15 0-8.285156 6.714844-15 15-15h46.488281c8.28125 0 15 6.714844 15 15 0 8.285157-6.71875 15-15 15zm0 0" fill="#ef5f3c"/><path d="m276.863281 159.464844h-46.488281c-8.285156 0-15-6.714844-15-15s6.714844-15 15-15h46.488281c8.28125 0 15 6.714844 15 15s-6.71875 15-15 15zm0 0" fill="#ec380b"/><path d="m276.863281 99.453125h-46.488281c-8.285156 0-15-6.714844-15-15 0-8.28125 6.714844-15 15-15h46.488281c8.28125 0 15 6.71875 15 15 0 8.285156-6.71875 15-15 15zm0 0" fill="#ec380b"/><path d="m110.929688 512c-61.167969 0-110.929688-49.773438-110.929688-110.953125 0-34.386719 15.546875-66.257813 42.648438-87.441406l3.839843-3.003907v-246.148437c0-35.539063 28.910157-64.453125 64.441407-64.453125 35.535156 0 64.445312 28.914062 64.445312 64.453125v246.148437l3.839844 3c27.101562 21.1875 42.648437 53.058594 42.648437 87.445313 0 61.179687-49.765625 110.953125-110.933593 110.953125zm0 0" fill="#d9f2ff"/><path d="m179.214844 313.605469-3.839844-3.003907v-246.148437c0-35.539063-28.910156-64.453125-64.445312-64.453125v512c61.167968 0 110.933593-49.773438 110.933593-110.953125 0-34.386719-15.546875-66.257813-42.648437-87.441406zm0 0" fill="#66c0ee"/><path d="m125.929688 341.980469v-197.761719c0-8.285156-6.714844-15-15-15-8.28125 0-15 6.714844-15 15v197.761719c-26.367188 6.703125-45.929688 30.640625-45.929688 59.070312 0 33.601563 27.332031 60.9375 60.929688 60.9375 33.597656 0 60.933593-27.335937 60.933593-60.9375 0-28.429687-19.566406-52.367187-45.933593-59.070312zm0 0" fill="#f89a76"/><path d="m125.929688 341.980469v-197.761719c0-8.285156-6.714844-15-15-15v332.769531c33.597656 0 60.933593-27.335937 60.933593-60.9375 0-28.429687-19.566406-52.367187-45.933593-59.070312zm0 0" fill="#ef5f3c"/><path d="m110.929688 431.988281c-17.054688 0-30.929688-13.878906-30.929688-30.941406 0-17.058594 13.875-30.9375 30.929688-30.9375 17.058593 0 30.933593 13.878906 30.933593 30.9375 0 17.0625-13.875 30.941406-30.933593 30.941406zm0 0" fill="#fff3de"/><path d="m110.929688 370.109375v61.878906c17.058593 0 30.933593-13.878906 30.933593-30.941406 0-17.058594-13.875-30.9375-30.933593-30.9375zm0 0" fill="#ffe5c2"/></svg>