<svg height="512pt" viewBox="-45 0 512 512" width="512pt" xmlns="http://www.w3.org/2000/svg"><path d="m407.265625 512h-392.265625c-8.285156-.054688-15-6.769531-15-15.054688v-481.945312c0-8.285156 6.714844-15 15-15h392.265625c8.285156 0 15 6.714844 15 15v481.945312c0 8.285157-6.714844 15-15 15.054688zm0 0" fill="#024e41"/><path d="m407.265625 0h-196.152344v512h196.152344c8.285156-.054688 15-6.769531 15-15.054688v-481.945312c0-8.285156-6.714844-15-15-15zm0 0" fill="#17242a"/><path d="m186.042969 512-38.027344-87.96875c-24.664063-.386719-47.804687-14.613281-58.855469-37.265625-8.070312-16.539063-9.007812-35.128906-2.644531-52.347656 6.359375-17.214844 19.128906-30.707031 35.953125-38 9.320312-4.039063 19.167969-5.859375 29.257812-5.425781 7.707032.335937 14.988282-2.828126 20.011719-8.675782 6.585938-7.660156 14.652344-13.59375 23.972657-17.632812 16.828124-7.292969 35.398437-7.375 52.296874-.234375 16.902344 7.144531 29.804688 20.5625 36.324219 37.777343 8.871094 23.410157 3.523438 49.832032-12.816406 68.082032l68.410156 141.691406zm0 0" fill="#c9fcfb"/><path d="m211.113281 512h128.8125l-68.410156-141.691406c16.339844-18.25 21.6875-44.671875 12.816406-68.082032-6.519531-17.214843-19.421875-30.628906-36.324219-37.773437-11.867187-5.015625-24.558593-6.453125-36.894531-4.347656zm0 0" fill="#99ecea"/><path d="m250.878906 241.558594c-2.992187 0-6.003906-.203125-9.027344-.605469-10.070312-1.351563-19.441406-4.871094-27.859374-10.453125-6.421876-4.261719-14.296876-5.316406-21.613282-2.902344-9.589844 3.167969-19.558594 4.085938-29.628906 2.734375-18.167969-2.4375-34.117188-11.949219-44.914062-26.785156-10.804688-14.84375-14.945313-32.996094-11.667969-51.109375 4.488281-24.804688 22.894531-44.785156 46.527343-51.867188l10.496094-100.570312h142.851563l-19.496094 118.957031c20.425781 13.175781 32.5625 36.996094 30.398437 61.769531-1.605468 18.34375-10.382812 34.761719-24.714843 46.234376-11.9375 9.554687-26.359375 14.597656-41.351563 14.597656zm51.121094-62.140625h.011719zm0 0" fill="#c9fcfb"/><path d="m286.546875 118.957031 19.496094-118.957031h-94.929688v228.859375c.984375.480469 1.949219 1.023437 2.875 1.636719 8.421875 5.585937 17.792969 9.101562 27.863281 10.453125 3.019532.40625 6.035157.609375 9.027344.609375 14.992188 0 29.414063-5.046875 41.351563-14.601563 14.332031-11.472656 23.109375-27.890625 24.714843-46.230469 0-.003906 0-.003906 0-.003906 2.164063-24.769531-9.972656-48.589844-30.398437-61.765625zm0 0" fill="#99ecea"/></svg>