<svg height="512pt" viewBox="-116 0 512 512" width="512pt" xmlns="http://www.w3.org/2000/svg"><path d="m185.53125 512c-3.792969 0-7-2.664062-7-5.816406v-82.402344h-76.277344v82.402344c0 3.152344-3.203125 5.816406-7 5.816406h-29.722656c-3.792969 0-7-2.664062-7-5.816406v-80.503906l-14.703125-4.035157c-10.796875-2.964843-20.542969-8.917969-28.1875-17.210937-10.085937-10.945313-15.640625-25.085938-15.640625-39.8125v-221.828125c0-32.621094 26.769531-59.160157 59.671875-59.160157 15.238281 0 27.636719-12.375 27.636719-27.589843v-49.214844c0-3.765625 3.140625-6.828125 7-6.828125h92.167968c3.859376 0 7 3.0625 7 6.828125v49.214844c0 15.210937 12.398438 27.589843 27.640626 27.589843 32.902343 0 59.667968 26.539063 59.667968 59.15625v221.832032c0 14.726562-5.554687 28.863281-15.640625 39.808594-7.644531 8.296874-17.390625 14.246093-28.1875 17.210937l-14.703125 4.039063v80.503906c0 3.152344-3.207031 5.816406-7 5.816406zm0 0" fill="#d9f2ff"/><path d="m221.117188 83.632812c-15.242188 0-27.640626-12.378906-27.640626-27.589843v-49.214844c0-3.765625-3.140624-6.828125-7-6.828125h-46.082031v423.78125h38.136719v82.402344c0 3.152344 3.207031 5.816406 7 5.816406h29.722656c3.796875 0 7-2.664062 7-5.816406v-80.503906l14.703125-4.035157c10.796875-2.964843 20.546875-8.917969 28.1875-17.210937 10.085938-10.945313 15.640625-25.085938 15.640625-39.8125v-221.828125c0-32.621094-26.765625-59.160157-59.667968-59.160157zm0 0" fill="#a2d8f4"/><path d="m140.394531 93.714844c-8.285156 0-15-6.71875-15-15v-18.042969c0-8.285156 6.714844-15 15-15 8.28125 0 15 6.714844 15 15v18.042969c0 8.28125-6.71875 15-15 15zm0 0" fill="#66c0ee"/><path d="m140.394531 45.671875v48.042969c8.28125 0 15-6.71875 15-15v-18.042969c0-8.285156-6.71875-15-15-15zm0 0" fill="#00abe9"/><path d="m240.785156 144.367188c0-10.664063-9.007812-19.671876-19.667968-19.671876h-161.445313c-10.664063 0-19.671875 9.007813-19.671875 19.671876v54.996093l15.203125 15.554688.191406 81.832031-15.394531 15.75v55.132812c0 10.019532 7.816406 18.613282 17.804688 19.570313l.316406.03125c.472656.042969.949218.066406 1.421875.066406h161.695312c.476563 0 .949219-.023437 1.421875-.066406l.328125-.03125c9.976563-.957031 17.796875-9.554687 17.796875-19.570313v-55.132812l-15.152344-15.558594-.457031-81.414062 15.609375-16.027344zm0 0" fill="#ef5f3c"/><path d="m225.632812 296.941406-.457031-81.414062 15.609375-16.027344v-55.132812c0-10.664063-9.007812-19.671876-19.667968-19.671876h-80.722657v262.605469h80.847657c.472656 0 .949218-.019531 1.417968-.066406l.328125-.03125c9.980469-.957031 17.796875-9.550781 17.796875-19.570313v-55.132812zm0 0" fill="#ec380b"/><path d="m240.785156 312.5h-200.785156v-113h200.785156zm0 0" fill="#e8f8fc"/><path d="m140.394531 199.5h100.390625v113h-100.390625zm0 0" fill="#d9e7ec"/></svg>