<svg height="512pt" viewBox="-38 0 512 512.001" width="512pt" xmlns="http://www.w3.org/2000/svg"><path d="m421.113281 473.472656h-406.113281c-8.285156 0-15-6.683594-15-14.929687v-186.074219c0-100.902344 82.46875-182.992188 183.839844-182.992188h68.4375c101.367187 0 183.835937 82.089844 183.835937 182.992188v186.074219c0 8.246093-6.714843 14.929687-15 14.929687zm0 0" fill="#f89a76"/><path d="m252.277344 89.476562h-34.542969v383.996094h203.378906c8.285157 0 15-6.6875 15-14.933594v-186.070312c0-100.902344-82.46875-182.992188-183.835937-182.992188zm0 0" fill="#ef5f3c"/><path d="m218.058594 512c-86.515625 0-156.898438-70.058594-156.898438-156.175781 0-43.308594 17.398438-83.574219 48.996094-113.375 3.164062-2.988281 7.480469-4.457031 11.816406-4.019531 4.339844.433593 8.273438 2.726562 10.777344 6.277343 30.804688 43.691407 89.4375 70.832031 153.019531 70.832031 22.4375 0 44.316407-3.308593 65.03125-9.839843 3.917969-1.234375 8.171875-.8125 11.773438 1.160156 3.597656 1.976563 6.222656 5.335937 7.265625 9.292969 3.394531 12.902344 5.117187 26.25 5.117187 39.671875 0 86.117187-70.386719 156.175781-156.898437 156.175781zm0 0" fill="#fff3de"/><path d="m369.839844 316.152344c-1.042969-3.957032-3.667969-7.316406-7.265625-9.289063-3.601563-1.976562-7.855469-2.394531-11.773438-1.160156-20.714843 6.527344-42.59375 9.839844-65.03125 9.839844-23.769531 0-46.84375-3.796875-68.035156-10.828125v207.28125c.109375 0 .214844.003906.324219.003906 86.511718 0 156.898437-70.058594 156.898437-156.175781 0-13.421875-1.722656-26.769531-5.117187-39.671875zm0 0" fill="#ffe5c2"/><path d="m347.902344 216.527344c-1.910156 0-3.855469-.367188-5.734375-1.136719-39.546875-16.304687-81.304688-24.589844-124.121094-24.617187-42.792969.027343-84.554687 8.3125-124.101563 24.617187-7.648437 3.152344-16.425781-.464844-19.597656-8.082031-8.683594-20.863282-17.328125-49.328125-25.691406-76.859375-8.148438-26.832031-16.578125-54.578125-24.6875-74.070313-1.523438-3.660156-1.523438-7.769531 0-11.429687 1.519531-3.660157 4.441406-6.566407 8.117188-8.082031 59.089843-24.363282 121.484374-36.765626 185.449218-36.86328175.09375-.00390625.191406-.00390625.289063-.00390625h.464843c.097657 0 .195313 0 .292969.00390625 63.960938.09765575 126.359375 12.49999975 185.449219 36.86328175 3.675781 1.515624 6.59375 4.421874 8.117188 8.082031 1.523437 3.65625 1.523437 7.769531 0 11.429687-8.113282 19.492188-16.539063 47.238282-24.691407 74.070313-8.363281 27.53125-17.007812 55.996093-25.691406 76.859375-2.390625 5.75-7.976563 9.21875-13.863281 9.21875zm0 0" fill="#c9fcfb"/><path d="m412.148438 44.949219c-1.523438-3.660157-4.441407-6.566407-8.117188-8.082031-59.089844-24.363282-121.488281-36.765626-185.449219-36.86328175-.097656-.00390625-.195312-.00390625-.292969-.00390625h-.464843c-.027344 0-.058594 0-.089844 0v190.777344c.105469 0 .210937-.003906.3125-.003906 42.816406.027343 84.574219 8.3125 124.121094 24.617187 1.878906.773437 3.824219 1.136719 5.734375 1.136719 5.886718 0 11.472656-3.46875 13.863281-9.21875 8.683594-20.863282 17.328125-49.328125 25.691406-76.859375 8.152344-26.832031 16.578125-54.578125 24.691407-74.070313 1.523437-3.660156 1.523437-7.773437 0-11.429687zm0 0" fill="#99ecea"/><path d="m258.6875 93.332031h-25.628906v-25.605469c0-8.246093-6.71875-14.929687-15-14.929687-8.285156 0-15 6.683594-15 14.929687v25.605469h-25.632813c-8.28125 0-15 6.683594-15 14.929688 0 8.246093 6.71875 14.929687 15 14.929687h25.632813v25.605469c0 8.246094 6.714844 14.929687 15 14.929687 8.28125 0 15-6.683593 15-14.929687v-25.605469h25.628906c8.285156 0 15-6.683594 15-14.929687 0-8.246094-6.714844-14.929688-15-14.929688zm0 0" fill="#ef5f3c"/><path d="m258.6875 93.332031h-25.628906v-25.605469c0-8.246093-6.71875-14.929687-15-14.929687-.109375 0-.214844 20.011719-.324219 20.015625v70.898438c.109375.003906.214844 20.015624.324219 20.015624 8.28125 0 15-6.683593 15-14.929687v-25.605469h25.628906c8.285156 0 15-6.683594 15-14.929687 0-8.246094-6.714844-14.929688-15-14.929688zm0 0" fill="#ec380b"/></svg>