<svg height="512pt" viewBox="-37 0 512 512" width="512pt" xmlns="http://www.w3.org/2000/svg"><path d="m357.46875 89.035156h-110.394531c-8.28125 0-15-6.714844-15-15s6.71875-15 15-15h110.394531c8.285156 0 15 6.714844 15 15s-6.714844 15-15 15zm0 0" fill="#00abe9"/><path d="m232.09375 73.695312c-.003906.113282-.019531.226563-.019531.339844 0 8.28125 6.71875 15 15 15h110.394531c8.285156 0 15-6.71875 15-15 0-.117187-.015625-.226562-.015625-.339844zm0 0" fill="#008adf"/><path d="m247.074219 119.144531h-51.859375c-8.285156 0-15-6.714843-15-15v-60.222656c0-8.28125 6.714844-15 15-15h51.859375c8.285156 0 15 6.71875 15 15v60.226563c0 8.28125-6.714844 14.996093-15 14.996093zm0 0" fill="#f89a76"/><path d="m180.214844 73.695312v30.449219c0 8.285157 6.714844 15 15 15h51.859375c8.285156 0 15-6.714843 15-15v-30.449219zm0 0" fill="#ef5f3c"/><path d="m422.398438 132.144531c-21.078126 0-39.308594-5.4375-52.710938-15.730469-13.894531-10.660156-21.542969-25.714843-21.542969-42.382812 0-16.664062 7.648438-31.71875 21.542969-42.378906 13.402344-10.289063 31.632812-15.730469 52.710938-15.730469 8.285156 0 15 6.71875 15 15v86.222656c0 8.285157-6.714844 15-15 15zm0 0" fill="#66c0ee"/><path d="m348.152344 73.695312c0 .113282-.007813.226563-.007813.339844 0 16.664063 7.648438 31.71875 21.542969 42.382813 13.402344 10.289062 31.632812 15.726562 52.710938 15.726562 8.285156 0 15-6.714843 15-15v-43.449219zm0 0" fill="#00abe9"/><path d="m205.75 512h-168.808594c-20.371094 0-36.941406-15.324219-36.941406-34.160156v-239.308594c0-34.667969 26.867188-64.191406 63.335938-72.082031v-33.378907c0-8.285156 6.714843-15 15-15h86.019531c8.285156 0 15 6.714844 15 15v33.378907c36.464843 7.890625 63.332031 37.414062 63.332031 72.082031v239.308594c0 18.835937-16.570312 34.160156-36.9375 34.160156zm0 0" fill="#d9f2ff"/><path d="m179.355469 166.449219v-33.378907c0-8.285156-6.714844-15-15-15h-43.011719v393.929688h84.40625c20.367188 0 36.9375-15.324219 36.9375-34.160156v-239.308594c.003906-34.667969-26.867188-64.191406-63.332031-72.082031zm0 0" fill="#d9e7ec"/><path d="m164.355469 452.449219h-86.019531c-8.285157 0-15-6.71875-15-15v-195.46875c0-8.285157 6.714843-15 15-15h86.019531c8.285156 0 15 6.714843 15 15v195.46875c0 8.28125-6.714844 15-15 15zm0 0" fill="#008adf"/><path d="m164.355469 226.980469h-43.011719v225.46875h43.011719c8.285156 0 15-6.71875 15-15v-195.46875c0-8.285157-6.714844-15-15-15zm0 0" fill="#006da6"/><path d="m182.988281 148.070312h-123.285156c-14.890625 0-27-12.113281-27-27v-94.070312c0-14.886719 12.109375-27 27-27h123.285156c14.886719 0 27 12.113281 27 27v94.070312c0 14.886719-12.113281 27-27 27zm0 0" fill="#006da6"/><path d="m182.988281 0h-61.644531v148.070312h61.644531c14.886719 0 27-12.113281 27-27v-94.070312c0-14.886719-12.113281-27-27-27zm0 0" fill="#003554"/></svg>