<svg height="511pt" viewBox="0 0 511 511.99909" width="511pt" xmlns="http://www.w3.org/2000/svg"><path d="m63.472656 0c13.089844.0429688 25.714844 5.707031 35.550782 15.953125.171874.183594.339843.367187.503906.554687l408.328125 469.503907c3.789062 4.363281 4.769531 10.914062 2.53125 16.234375-2.238281 5.324218-7.308594 8.917968-13.082031 9.273437-59.382813 3.671875-119.785157-13.828125-174.671876-50.613281-41.214843-27.621094-64.820312-56.21875-65.804687-57.421875-3.882813-4.753906-4.523437-11.367187-1.617187-16.769531.199218-.371094 19.726562-37.617188-9.070313-65.195313l-230.109375-220.355469c-.15625-.148437-.304688-.296874-.453125-.453124-10.195313-10.621094-15.5390625-24.140626-15.046875-38.070313.515625-14.652344 7.371094-29.171875 19.828125-41.984375.40625-.417969.808594-.824219 1.214844-1.226562 16.214843-16.078126 31.679687-19.460938 41.898437-19.429688zm0 0" fill="#e8f8fc"/><path d="m21.578125 19.429688c-.40625.402343-.8125.808593-1.21875 1.226562-12.457031 12.8125-19.3125 27.332031-19.828125 41.984375-.4921875 13.929687 4.851562 27.449219 15.046875 38.070313.148437.15625.296875.304687.453125.453124l230.109375 220.355469c28.796875 27.578125 9.269531 64.824219 9.070313 65.195313-2.90625 5.402344-2.265626 12.019531 1.617187 16.769531.984375 1.203125 24.589844 29.800781 65.804687 57.421875 44.464844 29.800781 92.550782 46.941406 140.78125 50.425781l-433.652343-499.042969c-2.691407 2.046876-5.425781 4.40625-8.183594 7.140626zm0 0" fill="#cfdde2"/><path d="m202.011719 134.453125-157.980469-6.476563-28-26.8125c-.15625-.148437-.304688-.296874-.453125-.453124-1.359375-1.414063-2.621094-2.882813-3.804687-4.394532l162.90625 6.679688zm0 0" fill="#b6c4cf"/><path d="m106.144531 100.1875-94.371093-3.871094c1.183593 1.511719 2.449218 2.980469 3.804687 4.394532.148437.15625.300781.304687.453125.453124l28 26.8125 89.449219 3.667969zm0 0" fill="#9facba"/><path d="m233.648438 170.863281 27.484374 31.628907-146.394531-6.804688-33.3125-31.898438zm0 0" fill="#b6c4cf"/><path d="m164.777344 167.660156-83.351563-3.871094 33.3125 31.898438 77.523438 3.601562zm0 0" fill="#9facba"/><path d="m293.917969 240.226562 27.769531 31.957032-135.246094-7.832032-33.730468-32.300781zm0 0" fill="#b6c4cf"/><path d="m224.332031 236.195312-71.621093-4.144531 33.730468 32.300781 65.660156 3.800782zm0 0" fill="#9facba"/></svg>