<svg height="512pt" viewBox="0 0 512.00002 512.00002" width="512pt" xmlns="http://www.w3.org/2000/svg"><path d="m272.378906 322.042969-83.304687-83.304688c-6.863281-6.863281-6.863281-17.996093 0-24.859375 6.867187-6.863281 17.996093-6.863281 24.863281 0l83.300781 83.300782c6.863281 6.867187 6.863281 17.996093 0 24.863281-6.867187 6.863281-17.996093 6.863281-24.859375 0zm0 0" fill="#8d9ca8"/><path d="m5.136719 506.839844c-5.84375-5.84375-6.914063-15.1875-2.109375-22.28125l232.441406-343.089844c5.449219-8.039062 16.378906-10.140625 24.414062-4.695312 8.039063 5.449218 10.140626 16.375 4.695313 24.414062l-232.441406 343.089844c-5.449219 8.039062-16.378907 10.140625-24.414063 4.695312-.945312-.640625-1.808594-1.355468-2.585937-2.132812zm0 0" fill="#c5d3dd"/><path d="m5.160156 506.863281c-.777344-.777343-1.492187-1.640625-2.132812-2.585937-5.445313-8.035156-3.34375-18.964844 4.695312-24.414063l343.089844-232.441406c8.039062-5.445313 18.964844-3.339844 24.414062 4.695313 5.445313 8.035156 3.34375 18.96875-4.695312 24.414062l-343.089844 232.441406c-7.09375 4.804688-16.4375 3.734375-22.28125-2.109375zm0 0" fill="#b6c4cf"/><path d="m237.820312 163.53125c-37.359374-37.359375-37.359374-98.152344 0-135.511719 37.359376-37.359375 98.152344-37.359375 135.511719 0s37.359375 98.152344 0 135.511719-98.152343 37.359375-135.511719 0zm110.648438-110.648438c-23.652344-23.652343-62.132812-23.652343-85.785156 0-23.652344 23.648438-23.652344 62.136719 0 85.785157 23.652344 23.652343 62.136718 23.652343 85.789062 0 23.648438-23.652344 23.648438-62.136719-.003906-85.785157zm0 0" fill="#2b7a77"/><path d="m348.46875 274.179688c-37.359375-37.359376-37.359375-98.152344 0-135.511719s98.152344-37.359375 135.511719 0 37.359375 98.152343 0 135.511719c-37.359375 37.359374-98.152344 37.359374-135.511719 0zm110.648438-110.648438c-23.648438-23.652344-62.132813-23.652344-85.785157 0-23.652343 23.652344-23.652343 62.136719 0 85.785156 23.652344 23.652344 62.136719 23.652344 85.789063 0 23.648437-23.652344 23.648437-62.132812-.003906-85.785156zm0 0" fill="#024e41"/></svg>