<svg height="512pt" viewBox="-128 0 512 512" width="512pt" xmlns="http://www.w3.org/2000/svg"><path d="m191.261719 285.664062h-127.210938c-8.285156 0-15-6.746093-15-15.066406v-58.480468c0-8.320313 6.714844-15.066407 15-15.066407h127.210938c8.285156 0 15 6.746094 15 15.066407v58.480468c0 8.320313-6.714844 15.066406-15 15.066406zm0 0" fill="#2b7a77"/><path d="m191.261719 197.050781h-63.605469v88.613281h63.605469c8.285156 0 15-6.746093 15-15.066406v-58.480468c0-8.320313-6.714844-15.066407-15-15.066407zm0 0" fill="#024e41"/><path d="m129.078125 173.039062h-2.84375c-24.027344 0-43.578125-19.636718-43.578125-43.773437v-85.492187c0-24.136719 19.550781-43.773438 43.578125-43.773438h2.84375c24.03125 0 43.578125 19.636719 43.578125 43.773438v85.488281c0 24.140625-19.546875 43.777343-43.578125 43.777343zm0 0" fill="#ffe5c2"/><path d="m129.078125 0h-1.421875v173.039062h1.421875c24.03125 0 43.578125-19.636718 43.578125-43.773437v-85.492187c0-24.136719-19.546875-43.773438-43.578125-43.773438zm0 0" fill="#fed2a4"/><path d="m201.503906 227.1875h-147.695312c-29.671875 0-53.808594-24.25-53.808594-54.054688 0-29.804687 24.140625-54.054687 53.808594-54.054687h147.695312c29.671875 0 53.808594 24.25 53.808594 54.054687 0 29.804688-24.136719 54.054688-53.808594 54.054688zm0 0" fill="#0abab5"/><path d="m201.503906 119.078125h-73.847656v108.109375h73.847656c29.671875 0 53.808594-24.25 53.808594-54.054688 0-29.804687-24.136719-54.054687-53.808594-54.054687zm0 0" fill="#2b7a77"/><path d="m228.3125 512h-201.3125c-14.886719 0-27-12.167969-27-27.121094v-202.226562c0-14.957032 12.113281-27.125 27-27.125h201.3125c14.890625 0 27 12.167968 27 27.125v202.226562c0 14.953125-12.109375 27.121094-27 27.121094zm0 0" fill="#d9f2ff"/><path d="m228.3125 255.527344h-100.65625v256.472656h100.65625c14.890625 0 27-12.167969 27-27.121094v-202.226562c0-14.957032-12.109375-27.125-27-27.125zm0 0" fill="#a2d8f4"/><path d="m228.3125 512h-201.3125c-14.886719 0-27-12.167969-27-27.121094v-114.890625h255.3125v114.890625c0 14.953125-12.109375 27.121094-27 27.121094zm0 0" fill="#66c0ee"/><path d="m127.65625 369.988281v142.011719h100.65625c14.890625 0 27-12.167969 27-27.121094v-114.890625zm0 0" fill="#00abe9"/></svg>