<svg height="512pt" viewBox="-106 0 512 512" width="512pt" xmlns="http://www.w3.org/2000/svg"><path d="m160.84375 376.136719h-21.054688c-20.066406 0-39.34375-7.964844-53.128906-21.644531-2.023437.148437-4.046875.222656-6.054687.222656-44.445313 0-80.605469-34.152344-80.605469-76.132813 0-39.222656 31.566406-71.613281 71.96875-75.695312l15.503906-134.390625c.363282-41.011719 25.523438-68.496094 62.84375-68.496094 37.320313 0 62.484375 27.484375 62.84375 68.496094l15.503906 134.390625c40.402344 4.082031 71.96875 36.472656 71.96875 75.695312 0 41.980469-36.15625 76.132813-80.605468 76.132813-2.007813 0-4.027344-.074219-6.054688-.222656-13.785156 13.679687-33.0625 21.644531-53.128906 21.644531zm0 0" fill="#ffe5c2"/><path d="m228.664062 202.886719-15.503906-134.390625c-.359375-41.011719-25.523437-68.496094-62.84375-68.496094v376.136719h10.527344c20.066406 0 39.34375-7.964844 53.128906-21.644531 2.023438.148437 4.046875.222656 6.054688.222656 44.445312 0 80.605468-34.152344 80.605468-76.132813 0-39.222656-31.566406-71.613281-71.96875-75.695312zm0 0" fill="#fed2a4"/><path d="m208.019531 512c-12.835937 0-23.742187-4.503906-31.539062-13.027344-8.234375-9.003906-12.410157-21.816406-12.410157-38.082031 0-31.136719 29.316407-65.558594 32.65625-69.378906 2.847657-3.257813 6.964844-5.125 11.292969-5.125s8.441407 1.867187 11.289063 5.125c3.34375 3.820312 32.660156 38.242187 32.660156 69.378906 0 16.265625-4.179688 29.078125-12.414062 38.082031-7.796876 8.523438-18.699219 13.027344-31.535157 13.027344zm0 0" fill="#ef5f3c"/><path d="m219.308594 391.511719c-2.847656-3.257813-6.960938-5.125-11.289063-5.125v125.613281c12.835938 0 23.738281-4.503906 31.535157-13.027344 8.234374-9.003906 12.414062-21.816406 12.414062-38.082031 0-31.136719-29.316406-65.558594-32.660156-69.378906zm0 0" fill="#ec380b"/></svg>