<svg height="512pt" viewBox="0 0 512 512" width="512pt" xmlns="http://www.w3.org/2000/svg"><path d="m64.773438 440.429688c-17.601563 0-33.570313-3.289063-45.574219-11.730469-12.558594-8.832031-19.199219-22.046875-19.199219-38.210938 0-31.558593 25.992188-68.457031 47.796875-93.851562 30.296875-35.292969 72.558594-72.398438 122.207031-107.304688 62.058594-43.632812 128.722656-78.9375 187.714844-99.40625 44.136719-15.316406 103.398438-28.902343 135.082031-6.625 12.558594 8.832031 19.199219 22.042969 19.199219 38.210938 0 31.558593-25.992188 68.457031-47.796875 93.851562-30.296875 35.292969-72.558594 72.398438-122.207031 107.304688-62.054688 43.632812-128.722656 78.9375-187.710938 99.40625-27.414062 9.511719-60.660156 18.355469-89.511718 18.355469zm382-338.90625c-16.71875 0-41.914063 3.796874-79.222657 16.742187-56.425781 19.582031-120.457031 53.535156-180.292969 95.605469-47.644531 33.496094-87.996093 68.875-116.699218 102.304687-25.777344 30.023438-40.558594 57.105469-40.558594 74.3125 0 8.09375 3.449219 11.554688 6.453125 13.667969 6.042969 4.25 31.691406 16.054688 107.996094-10.421875 56.425781-19.582031 120.457031-53.535156 180.292969-95.605469 47.644531-33.5 87.996093-68.875 116.699218-102.308594 25.777344-30.019531 40.558594-57.105468 40.558594-74.308593 0-8.09375-3.449219-11.558594-6.453125-13.667969-3.089844-2.171875-11.300781-6.320312-28.773437-6.320312zm0 0" fill="#99ecea"/><path d="m492.800781 83.300781c-31.683593-22.277343-90.945312-8.691406-135.082031 6.625-32.414062 11.246094-67.148438 26.980469-102.15625 46.105469v34.359375c38.378906-21.984375 76.671875-39.867187 111.988281-52.125 37.308594-12.945313 62.503907-16.738281 79.222657-16.738281 17.472656 0 25.683593 4.144531 28.773437 6.316406 3.003906 2.109375 6.453125 5.574219 6.453125 13.667969 0 17.203125-14.78125 44.289062-40.558594 74.308593-28.703125 33.433594-69.054687 68.8125-116.699218 102.308594-22.671876 15.941406-45.945313 30.710938-69.179688 43.980469v34.335937c28.992188-15.792968 58.191406-33.917968 86.433594-53.777343 49.648437-34.90625 91.90625-72.011719 122.207031-107.304688 21.804687-25.394531 47.796875-62.292969 47.796875-93.851562 0-16.167969-6.640625-29.378907-19.199219-38.210938zm0 0" fill="#3acbc7"/><path d="m256.914062 512c-20.441406 0-36.039062-13.136719-45.523437-24.152344-11.636719-13.519531-21.9375-32.460937-30.617187-56.300781-17.160157-47.125-26.609376-109.46875-26.609376-175.546875s9.449219-128.421875 26.609376-175.546875c8.679687-23.839844 18.984374-42.78125 30.617187-56.300781 9.488281-11.015625 25.082031-24.152344 45.523437-24.152344 20.441407 0 36.039063 13.136719 45.523438 24.152344 11.636719 13.519531 21.941406 32.460937 30.621094 56.300781 17.15625 47.125 26.605468 109.46875 26.605468 175.546875s-9.449218 128.421875-26.605468 175.546875c-8.679688 23.839844-18.984375 42.78125-30.617188 56.300781-9.488281 11.015625-25.085937 24.152344-45.527344 24.152344zm0-482c-15.941406 0-34.316406 23.265625-47.953124 60.71875-15.988282 43.917969-24.796876 102.613281-24.796876 165.28125s8.808594 121.363281 24.796876 165.28125c13.636718 37.453125 32.011718 60.71875 47.953124 60.71875 15.941407 0 34.316407-23.265625 47.953126-60.71875 15.992187-43.917969 24.796874-102.613281 24.796874-165.28125s-8.804687-121.363281-24.796874-165.28125c-13.636719-37.453125-32.011719-60.71875-47.953126-60.71875zm0 0" fill="#f89a76"/><path d="m333.058594 80.453125c-8.679688-23.839844-18.984375-42.78125-30.617188-56.300781-9.488281-11.015625-25.085937-24.152344-45.527344-24.152344-.453124 0-.902343.015625-1.351562.0273438v30.0351562c.453125-.039062.902344-.0625 1.351562-.0625 15.941407 0 34.316407 23.265625 47.953126 60.71875 15.992187 43.917969 24.796874 102.613281 24.796874 165.28125s-8.804687 121.363281-24.796874 165.28125c-13.636719 37.453125-32.011719 60.71875-47.953126 60.71875-.449218 0-.898437-.023438-1.351562-.0625v30.035156c.449219.011719.898438.027344 1.351562.027344 20.441407 0 36.039063-13.136719 45.527344-24.152344 11.632813-13.519531 21.9375-32.460937 30.617188-56.300781 17.15625-47.125 26.605468-109.46875 26.605468-175.546875s-9.449218-128.421875-26.605468-175.546875zm0 0" fill="#ec380b"/><path d="m447.226562 440.429688c-28.851562 0-62.097656-8.839844-89.507812-18.355469-58.992188-20.46875-125.65625-55.773438-187.714844-99.40625-49.648437-34.90625-91.90625-72.011719-122.207031-107.304688-21.804687-25.394531-47.796875-62.292969-47.796875-93.851562 0-16.167969 6.640625-29.378907 19.199219-38.210938 31.683593-22.273437 90.945312-8.691406 135.082031 6.625 58.992188 20.46875 125.65625 55.773438 187.714844 99.40625 49.648437 34.90625 91.90625 72.011719 122.207031 107.304688 21.804687 25.394531 47.796875 62.292969 47.796875 93.851562 0 16.164063-6.640625 29.378907-19.199219 38.207031-12.003906 8.441407-27.972656 11.734376-45.574219 11.734376zm-382-338.90625c-17.476562 0-25.683593 4.148437-28.773437 6.320312-3.003906 2.109375-6.453125 5.574219-6.453125 13.667969 0 17.203125 14.78125 44.289062 40.558594 74.308593 28.703125 33.433594 69.054687 68.8125 116.699218 102.308594 59.835938 42.070313 123.867188 76.023438 180.292969 95.605469 76.304688 26.480469 101.953125 14.671875 107.996094 10.421875 3.003906-2.109375 6.453125-5.574219 6.453125-13.667969 0-17.203125-14.78125-44.289062-40.558594-74.308593-28.703125-33.433594-69.054687-68.808594-116.699218-102.308594-59.835938-42.070313-123.867188-76.023438-180.292969-95.605469-37.304688-12.945313-62.503907-16.742187-79.222657-16.742187zm0 0" fill="#00abe9"/><path d="m464.203125 296.636719c-30.296875-35.292969-72.558594-72.398438-122.207031-107.304688-28.242188-19.859375-57.4375-37.984375-86.433594-53.777343v34.335937c23.234375 13.269531 46.507812 28.039063 69.179688 43.980469 47.644531 33.496094 88 68.875 116.703124 102.308594 25.773438 30.019531 40.554688 57.101562 40.554688 74.308593 0 8.09375-3.449219 11.554688-6.453125 13.667969-6.042969 4.25-31.691406 16.058594-107.996094-10.421875-35.316406-12.257813-73.609375-30.144531-111.988281-52.125v34.359375c35.007812 19.125 69.742188 34.859375 102.15625 46.105469 27.410156 9.515625 60.65625 18.355469 89.507812 18.355469 17.601563 0 33.570313-3.292969 45.574219-11.734376 12.558594-8.828124 19.199219-22.042968 19.199219-38.207031 0-31.558593-25.992188-68.457031-47.796875-93.851562zm0 0" fill="#006da6"/><path d="m256 298.722656c-23.554688 0-42.722656-19.164062-42.722656-42.722656s19.167968-42.722656 42.722656-42.722656 42.722656 19.164062 42.722656 42.722656-19.167968 42.722656-42.722656 42.722656zm0 0" fill="#b6c4cf"/><path d="m256 213.277344c-.148438 0-.289062.011718-.4375.011718v85.421876c.148438 0 .289062.007812.4375.007812 23.554688 0 42.722656-19.164062 42.722656-42.71875 0-23.558594-19.167968-42.722656-42.722656-42.722656zm0 0" fill="#8d9ca8"/><path d="m403.980469 137.144531c-23.558594 0-42.722657-19.164062-42.722657-42.722656 0-23.554687 19.164063-42.71875 42.722657-42.71875 23.554687 0 42.71875 19.164063 42.71875 42.71875 0 23.558594-19.164063 42.722656-42.71875 42.722656zm0 0" fill="#00abe9"/><g fill="#6adbd8"><path d="m303.238281 506.683594c-23.554687 0-42.71875-19.164063-42.71875-42.722656 0-23.558594 19.164063-42.722657 42.71875-42.722657 23.558594 0 42.722657 19.164063 42.722657 42.722657 0 23.554687-19.164063 42.722656-42.722657 42.722656zm0 0"/><path d="m48.722656 236.277344c-23.558594 0-42.722656-19.164063-42.722656-42.71875 0-23.558594 19.164062-42.722656 42.722656-42.722656 23.554688 0 42.71875 19.164062 42.71875 42.722656 0 23.554687-19.164062 42.71875-42.71875 42.71875zm0 0"/></g></svg>