<svg height="512pt" viewBox="-57 0 512 512" width="512pt" xmlns="http://www.w3.org/2000/svg"><path d="m355.632812 60.460938c-4.707031 0-9.234374.671874-13.460937 1.914062-4.785156-17.3125-21.195313-30.105469-40.644531-30.105469-3.894532 0-7.699219.515625-11.328125 1.492188-4.644531-19.386719-21.152344-33.761719-40.75-33.761719-18.710938 0-34.605469 13.109375-40.046875 31.171875-4.394532-1.523437-9.128906-2.355469-14.054688-2.355469-23.1875 0-42.050781 18.398438-42.050781 40.964844l-.324219 108.613281v72.113281c0 6.601563-5.402344 12-12 12h-28.890625c-6.597656 0-12-5.398437-12-12v-23.398437l-.332031-13.535156c-.121094-24.648438-22.449219-44.667969-49.875-44.667969-27.5 0-49.875 20.128906-49.875 44.871094 0 .347656.0117188.695312.0351562 1.039062.0585938.835938 1.4414058 20.628906 3.7499998 41.371094 1.378906 12.375 2.804688 22.515625 4.238282 30.136719 2.390624 12.71875 4.910156 20.496093 11.253906 24.859375 32.082031 32.328125 75.160156 81.996094 99.976562 136.515625 14.488282 31.832031 16.03125 48.84375 16.109375 49.976562.242188 8.101563 6.875 14.324219 14.988281 14.324219h195.96875c4.179688 0 8.171876-1.746094 11.011719-4.816406 2.839844-3.070313 4.269531-7.1875 3.941407-11.355469-2.421876-30.851563 3.203124-59.390625 16.714843-88.765625 1.03125-2.238281 2.320313-4.558594 3.445313-6.53125 4.265625-7.46875 16.25-41.726562 16.25-49.476562v-254.144532c0-20.097656-18.863282-36.449218-42.050782-36.449218zm0 0" fill="#fff3de"/><path d="m355.632812 60.460938c-4.707031 0-9.234374.671874-13.460937 1.914062-4.785156-17.3125-21.195313-30.105469-40.644531-30.105469-3.894532 0-7.699219.515625-11.328125 1.492188-4.523438-18.886719-20.308594-33.011719-39.238281-33.7265628v511.9648438h95.355468c4.183594 0 8.175782-1.746094 11.015625-4.816406 2.839844-3.070313 4.269531-7.1875 3.941407-11.355469-2.421876-30.851563 3.203124-59.390625 16.714843-88.765625 1.03125-2.238281 2.320313-4.558594 3.445313-6.53125 4.261718-7.46875 16.25-41.726562 16.25-49.476562v-254.144532c0-20.097656-18.863282-36.449218-42.050782-36.449218zm0 0" fill="#ffe5c2"/><path d="m215.398438 189.136719c8.285156 0 15-6.714844 15-15v-169.253907c-9.898438 5.394532-17.546876 14.84375-20.996094 26.289063-2.871094-.996094-5.886719-1.6875-9.003906-2.054687v145.019531c0 8.285156 6.714843 15 15 15zm0 0" fill="#ffe5c2"/><path d="m283.503906 193.933594c8.28125 0 15-6.71875 15-15v-146.554688c-2.84375.195313-5.621094.664063-8.304687 1.386719-3.019531-12.609375-11.058594-23.089844-21.695313-28.882813v174.050782c0 8.28125 6.714844 15 15 15zm0 0" fill="#fed2a4"/><path d="m342.171875 62.375c-1.890625-6.839844-5.601563-12.96875-10.59375-17.886719l.003906 134.480469c0 8.285156 6.714844 15 15 15 8.285157 0 15-6.714844 15-15l-.003906-118.136719c-1.941406-.238281-3.925781-.371093-5.945313-.371093-4.707031 0-9.234374.671874-13.460937 1.914062zm0 0" fill="#fed2a4"/><path d="m128.703125 262.507812h-16.617187c-6.601563 0-12-5.398437-12-12v-23.402343l-53.960938 112.71875c6.78125 7.671875 13.679688 15.84375 20.503906 24.441406.792969.996094 1.582032 2.011719 2.375 3.023437l112.152344 28.890626v-64.742188zm0 0" fill="#c5d3dd"/><path d="m152.972656 230.152344v20.355468c0 3.640626-1.648437 6.910157-4.230468 9.117188l111.972656 80.199219 132.128906 30.9375c2.746094-8.605469 4.839844-16.472657 4.839844-19.707031v-120.902344zm0 0" fill="#e8f8fc"/><path d="m250.960938 230.152344v102.6875l9.753906 6.984375 132.128906 30.9375c2.746094-8.605469 4.839844-16.472657 4.839844-19.707031v-120.902344zm0 0" fill="#d9e7ec"/><path d="m149.144531 259.257812c-2.148437 2.007813-5.019531 3.25-8.171875 3.25h-12.324218l52.507812 133.671876 184.074219 47.417968c2.882812-12.1875 7.125-24.289062 12.757812-36.539062 1.03125-2.238282 2.320313-4.554688 3.445313-6.527344 2.480468-4.347656 7.578125-17.777344 11.40625-29.769531zm0 0" fill="#d9e7ec"/><path d="m250.960938 305.84375v108.316406l114.269531 29.4375c2.882812-12.183594 7.125-24.289062 12.757812-36.535156 1.03125-2.238281 2.320313-4.558594 3.445313-6.53125 2.480468-4.347656 7.578125-17.777344 11.40625-29.769531zm0 0" fill="#cfdde2"/></svg>