<svg height="512pt" viewBox="-58 0 512 512" width="512pt" xmlns="http://www.w3.org/2000/svg"><path d="m369.417969 512h-342.417969c-14.886719 0-27-12.171875-27-27.132812v-121.589844c0-26.136719 21.160156-47.402344 47.171875-47.402344 13.933594 0 25.265625-11.390625 25.265625-25.394531v-16.609375c0-14.960938 12.113281-27.132813 27-27.132813h197.539062c14.886719 0 27 12.171875 27 27.132813v16.609375c0 14.003906 11.335938 25.394531 25.269532 25.394531 26.011718 0 47.171875 21.265625 47.171875 47.402344v121.589844c0 14.960937-12.113281 27.132812-27 27.132812zm0 0" fill="#c9fcfb"/><path d="m349.246094 315.875c-13.933594 0-25.269532-11.390625-25.269532-25.394531v-16.609375c0-14.960938-12.109374-27.132813-27-27.132813h-98.765624v265.261719h171.207031c14.886719 0 27-12.171875 27-27.132812v-121.589844c0-26.136719-21.160157-47.402344-47.171875-47.402344zm0 0" fill="#6adbd8"/><path d="m275.988281 449.613281h-155.558593c-8.285157 0-15-6.71875-15-15v-59.839843c0-8.285157 6.714843-15 15-15h155.558593c8.285157 0 15 6.714843 15 15v59.839843c0 8.285157-6.714843 15-15 15zm0 0" fill="#f89a76"/><path d="m275.988281 359.773438h-77.777343v89.839843h77.777343c8.285157 0 15-6.71875 15-15v-59.839843c0-8.285157-6.714843-15-15-15zm0 0" fill="#ef5f3c"/><path d="m251.148438 108.210938h-105.878907c-4.308593 0-8.410156-1.867188-11.257812-5.125-2.847657-3.257813-4.167969-7.59375-3.621094-11.898438l9.789063-78c.960937-7.539062 7.332031-13.1875 14.878906-13.1875h86.300781c7.546875 0 13.917969 5.648438 14.878906 13.1875l9.789063 78c.546875 4.304688-.773438 8.640625-3.621094 11.898438-2.847656 3.257812-6.949219 5.125-11.257812 5.125zm0 0" fill="#006da6"/><path d="m266.027344 91.1875-9.789063-78c-.960937-7.539062-7.332031-13.1875-14.878906-13.1875h-43.148437v108.210938h52.9375c4.308593 0 8.410156-1.867188 11.257812-5.125 2.847656-3.257813 4.167969-7.59375 3.621094-11.898438zm0 0" fill="#003554"/><path d="m306.371094 184.035156h-216.324219c-4.667969 0-9.070313-2.175781-11.910156-5.878906-2.835938-3.707031-3.789063-8.523438-2.570313-13.03125l20-74.097656c1.765625-6.542969 7.699219-11.089844 14.480469-11.089844h176.324219c6.78125 0 12.714844 4.546875 14.480468 11.089844l20 74.097656c1.21875 4.507812.265626 9.324219-2.570312 13.03125-2.839844 3.703125-7.242188 5.878906-11.910156 5.878906zm0 0" fill="#66c0ee"/><path d="m320.851562 165.125-20-74.097656c-1.765624-6.542969-7.699218-11.089844-14.480468-11.089844h-88.160156v104.097656h108.160156c4.667968 0 9.070312-2.175781 11.910156-5.878906 2.835938-3.707031 3.789062-8.523438 2.570312-13.03125zm0 0" fill="#008adf"/><path d="m334.378906 277.738281h-272.339844c-34.207031 0-62.039062-27.828125-62.039062-62.035156s27.832031-62.039063 62.039062-62.039063h272.34375c34.207032 0 62.035157 27.832032 62.035157 62.039063s-27.832031 62.035156-62.039063 62.035156zm0 0" fill="#fff3de"/><path d="m334.378906 153.664062h-136.167968v124.074219h136.167968c34.207032 0 62.039063-27.828125 62.039063-62.035156s-27.832031-62.039063-62.039063-62.039063zm0 0" fill="#fed2a4"/></svg>