<svg height="512pt" viewBox="0 0 512 512.001" width="512pt" xmlns="http://www.w3.org/2000/svg"><path d="m421.179688 388.324219h-330.519532c-49.992187 0-90.660156-40.484375-90.660156-90.242188v-207.835937c0-49.761719 40.667969-90.246094 90.660156-90.246094h330.519532c49.988281 0 90.65625 40.484375 90.65625 90.246094v207.832031c0 49.761719-40.667969 90.246094-90.65625 90.246094zm0 0" fill="#a2d8f4"/><path d="m421.179688 0h-165.261719v388.324219h165.261719c49.988281 0 90.65625-40.484375 90.65625-90.242188v-207.835937c0-49.761719-40.667969-90.246094-90.65625-90.246094zm0 0" fill="#00abe9"/><path d="m511.835938 154.996094h-156.992188l-42.464844-61.226563c-2.570312-3.707031-6.671875-6.0625-11.171875-6.414062-4.496093-.367188-8.914062 1.339843-12.03125 4.601562l-53.449219 55.984375-50.226562-55.675781c-2.71875-3.011719-6.539062-4.796875-10.59375-4.945313-4.054688-.167968-8 1.347657-10.933594 4.148438l-36.652344 35.027344h-127.320312v30.039062h133.34375c3.867188 0 7.582031-1.492187 10.378906-4.160156l29.828125-28.511719 50.714844 56.210938c2.796875 3.101562 6.761719 4.898437 10.9375 4.957031 4.160156.082031 8.191406-1.625 11.078125-4.644531l51.910156-54.375 36.453125 52.5625c2.808594 4.046875 7.417969 6.457031 12.339844 6.457031h164.855469v-30.035156zm0 0" fill="#fff3de"/><path d="m354.84375 154.996094-42.464844-61.226563c-2.570312-3.707031-6.671875-6.0625-11.171875-6.414062-4.496093-.367188-8.914062 1.339843-12.03125 4.601562l-33.257812 34.835938v43.496093l42.269531-44.273437 36.457031 52.558594c2.804688 4.046875 7.414063 6.460937 12.339844 6.460937h164.851563v-30.039062zm0 0" fill="#ffe5c2"/><path d="m297.695312 452.414062h-83.554687c-8.292969 0-15.015625-6.726562-15.015625-15.019531v-64.089843c0-8.292969 6.722656-15.019532 15.015625-15.019532h83.554687c8.292969 0 15.019532 6.726563 15.019532 15.019532v64.089843c0 8.292969-6.726563 15.019531-15.019532 15.019531zm0 0" fill="#b6c4cf"/><path d="m297.695312 358.285156h-41.777343v94.128906h41.777343c8.292969 0 15.019532-6.726562 15.019532-15.019531v-64.089843c0-8.292969-6.726563-15.019532-15.019532-15.019532zm0 0" fill="#9facba"/><path d="m74.421875 512v-26.582031c0-25.929688 18.171875-47.023438 40.507813-47.023438h281.976562c22.335938 0 40.507812 21.09375 40.507812 47.023438v26.582031zm0 0" fill="#e8f8fc"/><path d="m396.90625 438.394531h-140.988281v73.605469h181.496093v-26.582031c0-25.929688-18.171874-47.023438-40.507812-47.023438zm0 0" fill="#cfdde2"/><path d="m421.179688 388.324219h-330.519532c-49.992187 0-90.660156-40.667969-90.660156-90.65625v-50.804688h511.835938v50.804688c0 49.988281-40.667969 90.65625-90.65625 90.65625zm0 0" fill="#d9e7ec"/><path d="m255.917969 246.863281v141.460938h165.261719c49.988281 0 90.65625-40.667969 90.65625-90.65625v-50.804688zm0 0" fill="#c5d3dd"/><path d="m272.882812 325.101562h-33.925781c-8.292969 0-15.019531-6.722656-15.019531-15.019531 0-8.292969 6.726562-15.015625 15.019531-15.015625h33.925781c8.292969 0 15.015626 6.722656 15.015626 15.015625 0 8.296875-6.722657 15.019531-15.015626 15.019531zm0 0" fill="#9facba"/><path d="m272.882812 295.066406h-16.964843v30.035156h16.964843c8.292969 0 15.015626-6.722656 15.015626-15.019531 0-8.292969-6.722657-15.015625-15.015626-15.015625zm0 0" fill="#8d9ca8"/></svg>