<svg height="512pt" viewBox="0 0 512 512" width="512pt" xmlns="http://www.w3.org/2000/svg"><path d="m437.710938 453.074219h-363.480469c-4.785157 0-9.28125-2.28125-12.105469-6.144531-2.824219-3.859376-3.636719-8.835938-2.1875-13.394532 11.101562-34.941406 32.597656-65.027344 62.160156-87.003906 30.167969-22.421875 66.03125-34.273438 103.714844-34.273438h60.316406c37.6875 0 73.550782 11.851563 103.714844 34.273438 29.5625 21.976562 51.058594 52.058594 62.164062 87.003906 1.449219 4.558594.636719 9.535156-2.191406 13.394532-2.824218 3.863281-7.320312 6.144531-12.105468 6.144531zm0 0" fill="#008adf"/><path d="m452.003906 433.535156c-11.101562-34.941406-32.597656-65.027344-62.160156-87.003906-30.164062-22.421875-66.03125-34.273438-103.714844-34.273438h-30.160156v140.816407h181.742188c4.785156 0 9.28125-2.28125 12.105468-6.144531 2.824219-3.859376 3.636719-8.835938 2.1875-13.394532zm0 0" fill="#006da6"/><path d="m255.972656 372.566406c-24.984375 0-45.3125-20.324218-45.3125-45.308594v-40.3125c0-2.757812 2.242188-5 5-5h80.625c2.753906 0 4.996094 2.242188 4.996094 5v40.3125c0 24.984376-20.324219 45.308594-45.308594 45.308594zm0 0" fill="#ffe5c2"/><path d="m296.28125 281.945312h-40.308594v90.625c24.984375 0 45.308594-20.328124 45.308594-45.3125v-40.3125c0-2.757812-2.242188-5-5-5zm0 0" fill="#fed2a4"/><path d="m281.527344 275.941406h-51.113282c-71.351562 0-129.402343-58.050781-129.402343-129.402344 0-80.800781 65.738281-146.539062 146.539062-146.539062h16.839844c80.800781 0 146.539063 65.738281 146.539063 146.539062 0 71.351563-58.050782 129.402344-129.402344 129.402344zm0 0" fill="#f89a76"/><path d="m264.390625 0h-8.417969v275.941406h25.554688c71.351562 0 129.402344-58.050781 129.402344-129.402344 0-80.800781-65.738282-146.539062-146.539063-146.539062zm0 0" fill="#ef5f3c"/><path d="m173.980469 252.320312c-14.984375 0-29.121094-4.554687-39.8125-12.828124-10.90625-8.441407-17.160157-20.25-17.160157-32.398438 0-12.144531 6.253907-23.953125 17.160157-32.394531 10.691406-8.273438 24.828125-12.828125 39.8125-12.828125 2.757812 0 5 2.242187 5 5v80.449218c0 2.757813-2.242188 5-5 5zm0 0" fill="#008adf"/><path d="m337.960938 252.320312c-2.757813 0-5-2.242187-5-5v-80.449218c0-2.757813 2.242187-5 5-5 14.984374 0 29.125 4.554687 39.8125 12.828125 10.90625 8.441406 17.160156 20.25 17.160156 32.394531 0 12.148438-6.253906 23.957031-17.160156 32.398438-10.6875 8.273437-24.828126 12.828124-39.8125 12.828124zm0 0" fill="#006da6"/><path d="m245.042969 294.140625c-47.726563 0-86.554688-38.828125-86.554688-86.554687v-21.851563c0-47.726563 38.828125-86.554687 86.554688-86.554687h21.855469c47.726562 0 86.554687 38.828124 86.554687 86.554687v21.851563c0 47.726562-38.828125 86.554687-86.554687 86.554687zm0 0" fill="#fff3de"/><path d="m266.898438 99.179688h-10.925782v194.960937h10.925782c47.726562 0 86.554687-38.828125 86.554687-86.554687v-21.851563c0-47.726563-38.828125-86.554687-86.554687-86.554687zm0 0" fill="#ffe5c2"/><path d="m358.960938 245.320312h-69.414063c-8.28125 0-14.996094-6.714843-14.996094-15 0-8.28125 6.714844-14.996093 14.996094-14.996093h69.414063c8.28125 0 14.996093 6.714843 14.996093 14.996093 0 8.285157-6.714843 15-14.996093 15zm0 0" fill="#006da6"/><path d="m496.976562 512h-482.011718c-8.265625 0-14.964844-6.714844-14.964844-15v-78.039062c0-8.28125 6.699219-14.996094 14.964844-14.996094h482.011718c8.265626 0 14.964844 6.714844 14.964844 14.996094v78.039062c0 8.285156-6.699218 15-14.964844 15zm0 0" fill="#fed2a4"/><path d="m496.976562 403.964844h-241.003906v108.035156h241.003906c8.265626 0 14.964844-6.714844 14.964844-15v-78.039062c0-8.28125-6.699218-14.996094-14.964844-14.996094zm0 0" fill="#ffbd86"/></svg>