<svg height="512pt" viewBox="-53 0 512 512" width="512pt" xmlns="http://www.w3.org/2000/svg"><path d="m262.332031 208.371094h-58.867187c-8.285156 0-15-6.714844-15-15v-48.734375l-70.234375-48.988281c-5.082031-2.402344-8.601563-7.574219-8.601563-13.570313v-67.078125c0-8.285156 6.71875-15 15-15h216.300782c8.285156 0 15 6.714844 15 15v64.425781c.019531.125.042968.25.0625.375.867187 5.652344-1.554688 11.308594-6.246094 14.582031l-72.414063 50.507813v48.480469c0 8.285156-6.714843 15-15 15zm0 0" fill="#6adbd8"/><path d="m355.992188 79.800781c-.019532-.125-.042969-.25-.0625-.375v-64.425781c0-8.285156-6.71875-15-15-15h-108.03125v208.371094h29.433593c8.28125 0 15-6.714844 15-15v-48.480469l72.414063-50.507813c4.691406-3.273437 7.113281-8.929687 6.246094-14.582031zm0 0" fill="#0abab5"/><path d="m340.992188 449.328125h-216.1875c-8.285157 0-15-6.316406-15-14.109375v-176.042969c0-7.792969 6.714843-14.109375 15-14.109375h216.1875c8.28125 0 15 6.316406 15 14.109375v176.042969c0 7.792969-6.71875 14.109375-15 14.109375zm0 0" fill="#fff3de"/><path d="m340.992188 245.066406h-108.09375v204.261719h108.09375c8.28125 0 15-6.316406 15-14.109375v-176.042969c0-7.792969-6.71875-14.109375-15-14.109375zm0 0" fill="#ffe5c2"/><path d="m229.117188 388.832031h-44.3125c-8.285157 0-15-6.71875-15-15 0-8.285156 6.714843-15 15-15h44.3125c8.285156 0 15 6.714844 15 15 0 8.28125-6.714844 15-15 15zm0 0" fill="#006da6"/><path d="m232.898438 359.328125v29.003906c6.449218-1.679687 11.21875-7.527343 11.21875-14.503906 0-6.972656-4.769532-12.820313-11.21875-14.5zm0 0" fill="#003554"/><path d="m229.117188 328.519531h-44.3125c-8.285157 0-15-6.714843-15-15 0-8.28125 6.714843-15 15-15h44.3125c8.285156 0 15 6.71875 15 15 0 8.285157-6.714844 15-15 15zm0 0" fill="#006da6"/><path d="m232.898438 299.019531v29c6.449218-1.675781 11.21875-7.523437 11.21875-14.5 0-6.976562-4.769532-12.820312-11.21875-14.5zm0 0" fill="#003554"/><path d="m383.097656 482h-300.398437c-8.285157 0-15-4.535156-15-10.128906v-42.113282c0-5.59375 6.714843-10.125 15-10.125h300.398437c8.28125 0 15 4.53125 15 10.125v42.113282c0 5.59375-6.71875 10.128906-15 10.128906zm0 0" fill="#008adf"/><path d="m383.097656 419.632812h-150.199218v62.367188h150.199218c8.28125 0 15-4.535156 15-10.128906v-42.113282c0-5.59375-6.71875-10.125-15-10.125zm0 0" fill="#003554"/><path d="m390.792969 482h-360.792969v-384.996094h358.625c8.285156 0 15-6.714844 15-15s-6.714844-15-15-15h-358.625v-52.003906c0-8.285156-6.714844-15-15-15s-15 6.714844-15 15v482c0 8.285156 6.714844 15 15 15h375.792969c8.285156 0 15-6.714844 15-15s-6.714844-15-15-15zm0 0" fill="#d9e7ec"/><g fill="#b6c4cf"><path d="m232.898438 97.003906h155.726562c8.285156 0 15-6.714844 15-15s-6.714844-15-15-15h-155.726562zm0 0"/><path d="m390.792969 482h-157.894531v30h157.894531c8.285156 0 15-6.714844 15-15s-6.714844-15-15-15zm0 0"/></g></svg>