<svg height="512pt" viewBox="0 0 512 512" width="512pt" xmlns="http://www.w3.org/2000/svg"><path d="m269.515625 416.175781h-27.03125c-9.746094 0-19.339844-1.4375-28.515625-4.269531-41.875-12.917969-66.054688-52.445312-56.394531-92.066406l30.386719-156.667969c.808593-4.164063-1.015626-7.140625-2.171876-8.542969-1.15625-1.40625-3.734374-3.761718-7.972656-3.761718h-54.433594c-8.285156 0-15-6.714844-15-15 0-8.285157 6.714844-15 15-15h54.433594c12.085938 0 23.429688 5.347656 31.117188 14.671874 7.6875 9.324219 10.78125 21.480469 8.480468 33.34375l-30.460937 157.039063c-.050781.261719-.109375.519531-.171875.777344-6.003906 24.042969 9.488281 48.351562 36.035156 56.542969 6.304688 1.945312 12.921875 2.933593 19.667969 2.933593h27.03125c6.746094 0 13.363281-.988281 19.667969-2.933593 26.546875-8.191407 42.039062-32.5 36.035156-56.542969-.019531-.082031-.039062-.164063-.058594-.242188l-36.226562-156.140625c-2.796875-12.050781.015625-24.519531 7.710937-34.207031 7.699219-9.6875 19.210938-15.242187 31.582031-15.242187h60.390626c8.285156 0 15 6.714843 15 15 0 8.285156-6.714844 15-15 15h-60.390626c-4.339843 0-6.933593 2.445312-8.09375 3.90625-1.15625 1.457031-2.957031 4.535156-1.976562 8.765624l36.203125 156.023438c9.835937 39.710938-14.359375 79.394531-56.332031 92.34375-9.171875 2.832031-18.761719 4.269531-28.511719 4.269531zm-97.289063-93.109375h.011719zm0 0" fill="#00abe9"/><path d="m388.617188 120.867188h-60.390626c-12.371093 0-23.882812 5.554687-31.582031 15.242187-7.695312 9.6875-10.507812 22.15625-7.710937 34.207031l36.226562 156.140625c.019532.078125.039063.160157.058594.242188 6.003906 24.042969-9.488281 48.351562-36.035156 56.542969-6.304688 1.945312-12.921875 2.933593-19.667969 2.933593h-13.515625v30h13.515625c9.75 0 19.34375-1.4375 28.511719-4.269531 41.976562-12.949219 66.171875-52.632812 56.332031-92.34375l-36.199219-156.023438c-.980468-4.230468.816406-7.308593 1.976563-8.765624 1.160156-1.460938 3.75-3.90625 8.089843-3.90625h60.394532c8.285156 0 15-6.714844 15-15 0-8.285157-6.71875-15-15.003906-15zm0 0" fill="#008adf"/><path d="m415.371094 234.292969c-.53125 0-1.0625-.027344-1.589844-.085938-2.007812-.210937-5.691406-.527343-7.207031-.527343-28.089844 0-50.941407-26.90625-50.941407-59.976563 0-17.175781 6.027344-33.058594 16.476563-44.273437-.707031-4.402344-1.058594-8.878907-1.058594-13.398438 0-5.351562.492188-10.625 1.472657-15.773438-10.609376-10.660156-16.886719-26.351562-16.886719-43.292968-.003907-31.410156 21.769531-56.964844 48.53125-56.964844h11.203125c26.457031 0 51.117187 12.628906 69.4375 35.554688 17.535156 21.941406 27.191406 50.917968 27.191406 81.589843 0 30.675781-9.65625 59.652344-27.191406 81.59375-18.320313 22.925781-42.980469 35.554688-69.4375 35.554688zm0 0" fill="#f89a76"/><path d="m96.628906 234.292969c-26.457031 0-51.117187-12.628907-69.4375-35.554688-17.535156-21.941406-27.191406-50.917969-27.191406-81.59375 0-30.671875 9.65625-59.648437 27.191406-81.589843 18.320313-22.925782 42.980469-35.554688 69.4375-35.554688h11.203125c26.761719 0 48.535157 25.554688 48.535157 56.964844 0 16.941406-6.277344 32.632812-16.890626 43.292968.980469 5.144532 1.476563 10.421876 1.476563 15.773438 0 4.519531-.355469 8.996094-1.0625 13.398438 10.449219 11.214843 16.476563 27.101562 16.476563 44.273437 0 33.070313-22.851563 59.976563-50.941407 59.976563-1.515625 0-5.199219.316406-7.210937.53125-.527344.054687-1.058594.082031-1.585938.082031zm0 0" fill="#fed2a4"/><path d="m256 512c-8.285156 0-15-6.714844-15-15v-47.667969c0-8.285156 6.714844-15 15-15s15 6.714844 15 15v47.667969c0 8.285156-6.714844 15-15 15zm0 0" fill="#00abe9"/><path d="m256 434.332031v77.667969c8.285156 0 15-6.714844 15-15v-47.667969c0-8.285156-6.714844-15-15-15zm0 0" fill="#008adf"/><path d="m277.679688 454.332031h-43.359376c-14.46875 0-26.3125-11.4375-26.972656-25.746093l-9.882812-70.269532c-.097656-.691406-.144532-1.390625-.144532-2.089844 0-14.886718 12.113282-27 27-27h63.359376c14.890624 0 27 12.113282 27 27 0 .699219-.046876 1.398438-.144532 2.089844l-9.882812 70.269532c-.660156 14.308593-12.503906 25.746093-26.972656 25.746093zm0 0" fill="#fed2a4"/><path d="m287.679688 329.226562h-31.679688v125.105469h21.679688c14.46875 0 26.3125-11.4375 26.972656-25.746093l9.882812-70.269532c.097656-.691406.144532-1.390625.144532-2.089844 0-14.886718-12.113282-27-27-27zm0 0" fill="#ffbd86"/></svg>