<svg height="512pt" viewBox="0 -38 512.00022 512" width="512pt" xmlns="http://www.w3.org/2000/svg"><path d="m337.050781 170.460938c-4.347656-7.050782-13.589843-9.242188-20.640625-4.894532l-120.367187 74.230469-122.691407-76.542969c-7.027343-4.386718-16.28125-2.242187-20.664062 4.789063-4.386719 7.027343-2.242188 16.28125 4.785156 20.664062l110.070313 68.667969-85.867188 52.957031c-7.050781 4.347657-9.242187 13.589844-4.894531 20.640625 2.835938 4.597656 7.75 7.128906 12.78125 7.128906 2.6875 0 5.40625-.722656 7.859375-2.234374l98.53125-60.765626 96.242187 60.046876c2.46875 1.539062 5.214844 2.273437 7.925782 2.273437 5.003906 0 9.898437-2.503906 12.742187-7.0625 4.382813-7.027344 2.242188-16.28125-4.789062-20.667969l-83.621094-52.167968 107.707031-66.421876c7.050782-4.347656 9.242188-13.589843 4.890625-20.640624zm0 0" fill="#cfdde2"/><path d="m337.050781 170.460938c-4.347656-7.050782-13.589843-9.242188-20.640625-4.894532l-120.367187 74.230469-1.195313-.742187v36.726562l1.105469-.679688 96.242187 60.042969c2.46875 1.542969 5.214844 2.277344 7.925782 2.277344 5.003906 0 9.898437-2.503906 12.742187-7.0625 4.382813-7.03125 2.242188-16.28125-4.789062-20.667969l-83.621094-52.167968 107.707031-66.421876c7.050782-4.347656 9.242188-13.589843 4.890625-20.640624zm0 0" fill="#8d9ca8"/><path d="m89.550781 435.027344c-35.046875 0-63.5625-28.46875-63.5625-63.464844s28.515625-63.464844 63.5625-63.464844c35.042969 0 63.558594 28.46875 63.558594 63.464844s-28.511719 63.464844-63.558594 63.464844zm0 0" fill="#e8f8fc"/><path d="m89.550781 308.097656v126.929688c35.042969 0 63.558594-28.46875 63.558594-63.464844 0-34.992188-28.511719-63.464844-63.558594-63.464844zm0 0" fill="#cfdde2"/><path d="m300.136719 434.347656c-35.046875 0-63.558594-28.46875-63.558594-63.464844 0-34.992187 28.511719-63.464843 63.558594-63.464843s63.558593 28.472656 63.558593 63.464843c0 34.996094-28.511718 63.464844-63.558593 63.464844zm0 0" fill="#c5d3dd"/><path d="m300.136719 307.417969v126.933593c35.046875 0 63.558593-28.472656 63.558593-63.464843 0-34.996094-28.511718-63.46875-63.558593-63.46875zm0 0" fill="#b6c4cf"/><path d="m264.375 0h-139.597656c-41.003906 0-74.367188 33.359375-74.367188 74.367188v29.066406c0 14.886718 12.113282 27 27.003906 27h234.871094c14.886719 0 27-12.113282 27-27v-28.523438c0-41.304687-33.605468-74.910156-74.910156-74.910156zm-41.179688 30v70.433594h-56.691406v-70.433594zm-142.78125 44.367188c0-24.464844 19.898438-44.367188 44.363282-44.367188h11.726562v70.433594h-56.089844zm228.871094 26.066406h-56.089844v-70.433594h11.179688c24.761719 0 44.910156 20.148438 44.910156 44.910156zm0 0" fill="#cfdde2"/><path d="m264.375 0h-69.527344v30h28.347656v70.433594h-28.347656v30h117.4375c14.886719 0 27-12.109375 27-27v-28.523438c0-41.304687-33.605468-74.910156-74.910156-74.910156zm44.910156 100.433594h-56.089844v-70.433594h11.179688c24.761719 0 44.910156 20.148438 44.910156 44.910156zm0 0" fill="#8d9ca8"/><path d="m372.292969 190.980469h-357.292969c-8.285156 0-15-6.714844-15-15v-60.460938c0-8.28125 6.714844-15 15-15h344.382812l112.527344-39.539062c7.808594-2.742188 16.363282 1.355469 19.117188 9.164062l20.117187 57.027344c1.324219 3.753906 1.101563 7.882813-.617187 11.472656-1.722656 3.589844-4.800782 6.351563-8.554688 7.667969l-124.707031 43.820312c-1.597656.5625-3.28125.847657-4.972656.847657zm0 0" fill="#99ecea"/><path d="m511.144531 127.171875-20.113281-57.027344c-2.753906-7.804687-11.3125-11.90625-19.121094-9.160156l-112.527344 39.539063h-164.535156v90.457031h177.445313c1.691406 0 3.375-.285157 4.972656-.847657l124.707031-43.820312c3.757813-1.316406 6.835938-4.074219 8.554688-7.667969 1.71875-3.589843 1.941406-7.71875.617187-11.472656zm0 0" fill="#6adbd8"/></svg>