<svg height="512pt" viewBox="-1 0 512 512.00097" width="512pt" xmlns="http://www.w3.org/2000/svg"><path d="m464.996094 449.996094h-419.996094c-24.8125 0-45-20.1875-45-45v-359.996094c0-24.8125 20.1875-45 45-45h419.996094c24.816406 0 45 20.1875 45 45v359.996094c0 24.8125-20.183594 45-45 45zm0 0" fill="#e0f4fe"/><path d="m464.996094 0h-209.996094v449.996094h209.996094c24.8125 0 45-20.1875 45-45v-359.996094c0-24.808594-20.1875-45-45-45zm0 0" fill="#bcdcfe"/><path d="m434.996094 180h-359.996094c-8.285156 0-15 6.714844-15 15v179.996094c0 8.285156 6.714844 15 15 15h359.996094c8.285156 0 15-6.714844 15-15v-179.996094c0-8.285156-6.714844-15-15-15zm0 0" fill="#19c0ef"/><path d="m449.996094 195v179.996094c0 8.28125-6.71875 15-15 15h-179.996094v-209.996094h179.996094c8.28125 0 15 6.71875 15 15zm0 0" fill="#159be1"/><path d="m90 210h329.996094v149.996094h-329.996094zm0 0" fill="#30d9f6"/><path d="m255 210h164.996094v149.996094h-164.996094zm0 0" fill="#19c0ef"/><path d="m509.996094 45c0-24.8125-20.183594-45-45-45h-419.996094c-24.8125 0-45 20.1875-45 45v90h509.996094zm0 0" fill="#3e5959"/><path d="m509.996094 45v90h-254.996094v-135h209.996094c24.8125 0 45 20.191406 45 45zm0 0" fill="#293939"/><path d="m165 90h-91c-8.285156 0-15-6.714844-15-15s6.714844-15 15-15h91c8.285156 0 15 6.714844 15 15s-6.714844 15-15 15zm0 0" fill="#547983"/><path d="m336.148438 503.785156-20.359376-40.105468-42.90625 21.859374c-9.976562 5.078126-21.773437-2.1875-21.808593-13.320312l-.632813-207.25c-.035156-12.210938 13.808594-19.355469 23.738282-12.238281l169.539062 121.496093c9.140625 6.550782 8.074219 20.496094-1.964844 25.574219l-45.710937 23.140625 20.359375 40.109375c3.746094 7.382813.796875 16.417969-6.585938 20.167969l-53.503906 27.15625c-7.378906 3.746094-16.410156.804688-20.164062-6.589844zm0 0" fill="#fcbe29"/><path d="m443.71875 374.226562-169.539062-121.496093c-5.160157-3.703125-11.390626-3.542969-16.160157-.820313l125.828125 244.488282 25.96875-13.179688c7.382813-3.75 10.332032-12.78125 6.582032-20.171875l-20.359376-40.109375 45.71875-23.140625c10.03125-5.078125 11.101563-19.019531 1.960938-25.570313zm0 0" fill="#fe9022"/><g fill="#547983"><path d="m449.996094 75c0 8.285156-6.714844 15-15 15-8.28125 0-15-6.714844-15-15s6.71875-15 15-15c8.285156 0 15 6.714844 15 15zm0 0"/><path d="m390 75c0 8.285156-6.71875 15-15 15-8.285156 0-15-6.714844-15-15s6.714844-15 15-15c8.28125 0 15 6.714844 15 15zm0 0"/><path d="m330 75c0 8.285156-6.71875 15-15 15-8.285156 0-15-6.714844-15-15s6.714844-15 15-15c8.28125 0 15 6.714844 15 15zm0 0"/></g></svg>