<svg height="512pt" viewBox="0 -2 512 512" width="512pt" xmlns="http://www.w3.org/2000/svg"><path d="m75 508h391c8.285156 0 15-6.714844 15-15v-48.570312h-406zm0 0" fill="#19c0ef"/><path d="m481 444.429688v48.570312c0 8.28125-6.71875 15-15 15h-150v-63.570312zm0 0" fill="#159be1"/><path d="m512 72v361c0 8.28125-6.71875 15-15 15h-352v-391h352c8.28125 0 15 6.71875 15 15zm0 0" fill="#fed941"/><path d="m512 72v361c0 8.28125-6.71875 15-15 15h-181v-391h181c8.28125 0 15 6.71875 15 15zm0 0" fill="#fcbe29"/><path d="m436 297h-240c-8.285156 0-15 6.714844-15 15s6.714844 15 15 15h240c8.285156 0 15-6.714844 15-15s-6.714844-15-15-15zm0 0" fill="#fcbe29"/><path d="m451 312c0 8.28125-6.71875 15-15 15h-120v-30h120c8.28125 0 15 6.71875 15 15zm0 0" fill="#fe9022"/><path d="m436 358h-240c-8.285156 0-15 6.714844-15 15s6.714844 15 15 15h240c8.285156 0 15-6.714844 15-15s-6.714844-15-15-15zm0 0" fill="#fcbe29"/><path d="m451 373c0 8.28125-6.71875 15-15 15h-120v-30h120c8.28125 0 15 6.71875 15 15zm0 0" fill="#fe9022"/><path d="m150 75v358c0 4.910156-2.359375 9.269531-6.011719 12 7.417969-43.648438-26.121093-82-69.007812-82-43.292969 0-76.453125 39.726562-68.929688 82.039062-3.671875-2.738281-6.050781-7.109374-6.050781-12.039062v-358c0-41.351562 33.640625-75 75-75s75 33.648438 75 75zm0 0" fill="#30d9f6"/><path d="m436 118h-240c-8.285156 0-15 6.714844-15 15v119c0 8.285156 6.714844 15 15 15h240c8.285156 0 15-6.714844 15-15v-119c0-8.285156-6.714844-15-15-15zm0 0" fill="#fcbe29"/><path d="m451 133v119c0 8.28125-6.71875 15-15 15h-120v-149h120c8.28125 0 15 6.71875 15 15zm0 0" fill="#fe9022"/><path d="m211 148h210v89h-210zm0 0" fill="#fed941"/><path d="m316 148h105v89h-105zm0 0" fill="#fcbe29"/><path d="m150 433c0 41.421875-33.578125 75-75 75s-75-33.578125-75-75 33.578125-75 75-75 75 33.578125 75 75zm0 0" fill="#19c0ef"/></svg>