<svg height="512pt" viewBox="0 -46 512 512" width="512pt" xmlns="http://www.w3.org/2000/svg"><path d="m490.359375 144.550781-140.359375 69.257813v132.082031l140.648438 65.699219c9.96875 4.636718 21.351562-2.648438 21.351562-13.589844v-240c0-11.082031-11.667969-18.382812-21.640625-13.449219zm0 0" fill="#293939"/><path d="m345 420h-260c-46.945312 0-85-38.054688-85-85v-170c0-8.285156 6.714844-15 15-15h330c8.285156 0 15 6.714844 15 15v240c0 8.285156-6.714844 15-15 15zm0 0" fill="#547983"/><path d="m345 150h-165v270h165c8.28125 0 15-6.71875 15-15v-240c0-8.28125-6.71875-15-15-15zm0 0" fill="#3e5959"/><path d="m90 180c-49.625 0-90-40.375-90-90s40.375-90 90-90 90 40.375 90 90-40.375 90-90 90zm0 0" fill="#3e5959"/><path d="m90 30c-33.085938 0-60 26.914062-60 60s26.914062 60 60 60 60-26.914062 60-60-26.914062-60-60-60zm0 0" fill="#547983"/><path d="m105 90c0 8.285156-6.714844 15-15 15s-15-6.714844-15-15 6.714844-15 15-15 15 6.714844 15 15zm0 0" fill="#3e5959"/><path d="m270 180c-49.625 0-90-40.375-90-90s40.375-90 90-90 90 40.375 90 90-40.375 90-90 90zm0 0" fill="#293939"/><path d="m270 30c-33.085938 0-60 26.914062-60 60s26.914062 60 60 60 60-26.914062 60-60-26.914062-60-60-60zm0 0" fill="#3e5959"/><path d="m285 90c0 8.285156-6.714844 15-15 15s-15-6.714844-15-15 6.714844-15 15-15 15 6.714844 15 15zm0 0" fill="#293939"/><path d="m300 345c0 8.285156-6.714844 15-15 15s-15-6.714844-15-15 6.714844-15 15-15 15 6.714844 15 15zm0 0" fill="#5dc983"/><path d="m240 345c0 8.285156-6.714844 15-15 15s-15-6.714844-15-15 6.714844-15 15-15 15 6.714844 15 15zm0 0" fill="#ee3616"/><path d="m255 300h-150c-24.851562 0-45-20.148438-45-45 0-24.835938 20.128906-45 45-45h150c24.851562 0 45 20.148438 45 45s-20.148438 45-45 45zm0 0" fill="#3e5959"/><path d="m255 210h-75v90h75c24.851562 0 45-20.148438 45-45 0-24.835938-20.128906-45-45-45zm0 0" fill="#293939"/><path d="m105 270c-8.269531 0-15-6.730469-15-15s6.730469-15 15-15h150c8.269531 0 15 6.730469 15 15s-6.730469 15-15 15zm0 0" fill="#fed941"/><path d="m180 270v-30h75c8.269531 0 15 6.730469 15 15s-6.730469 15-15 15zm0 0" fill="#fcbe29"/></svg>