<svg height="512pt" viewBox="-61 0 512 512" width="512pt" xmlns="http://www.w3.org/2000/svg"><path d="m195 385c-26.089844 0-51.539062-5.320312-75-15.441406v57.441406h150v-57.441406c-23.460938 10.121094-48.910156 15.441406-75 15.441406zm0 0" fill="#547983"/><path d="m195 385v42h75v-57.441406c-23.460938 10.121094-48.910156 15.441406-75 15.441406zm0 0" fill="#3e5959"/><path d="m390 195c0 107.515625-87.480469 195-195 195-107.523438 0-195-87.492188-195-195 0-107.515625 87.480469-195 195-195 107.523438 0 195 87.488281 195 195zm0 0" fill="#e0f4fe"/><path d="m390 195c0 80.960938-49.597656 150.558594-120 179.988281-23.097656 9.671875-48.441406 15.011719-75 15.011719v-390c107.519531 0 195 87.488281 195 195zm0 0" fill="#bcdcfe"/><path d="m210 75c0 8.285156-6.714844 15-15 15s-15-6.714844-15-15 6.714844-15 15-15 15 6.714844 15 15zm0 0" fill="#fd6328"/><path d="m210 75c0 8.28125-6.71875 15-15 15v-30c8.28125 0 15 6.71875 15 15zm0 0" fill="#ee3616"/><path d="m315 512h-240c-24.8125 0-45-20.1875-45-45s20.1875-45 45-45h240c24.8125 0 45 20.1875 45 45s-20.1875 45-45 45zm0 0" fill="#e0f4fe"/><path d="m315 422h-120v90h120c24.808594 0 45-20.191406 45-45s-20.191406-45-45-45zm0 0" fill="#bcdcfe"/><path d="m389.429688 210h-388.859376c-.75-9.757812-.773437-19.953125 0-30h388.859376c.75 9.757812.773437 19.953125 0 30zm0 0" fill="#bcdcfe"/><path d="m389.429688 210h-194.429688v-30h194.429688c.75 9.761719.769531 19.949219 0 30zm0 0" fill="#9bbada"/><path d="m195 270c-41.355469 0-75-33.644531-75-75s33.644531-75 75-75 75 33.644531 75 75-33.644531 75-75 75zm0 0" fill="#3e5959"/><path d="m270 195c0 41.351562-33.640625 75-75 75v-150c41.359375 0 75 33.648438 75 75zm0 0" fill="#293939"/><path d="m195 150c-24.8125 0-45 20.1875-45 45s20.1875 45 45 45 45-20.1875 45-45-20.1875-45-45-45zm0 0" fill="#19c0ef"/><path d="m240 195c0 24.808594-20.191406 45-45 45v-90c24.808594 0 45 20.191406 45 45zm0 0" fill="#159be1"/><path d="m210 195c0 8.285156-6.714844 15-15 15s-15-6.714844-15-15 6.714844-15 15-15 15 6.714844 15 15zm0 0" fill="#30d9f6"/><path d="m210 195c0 8.28125-6.71875 15-15 15v-30c8.28125 0 15 6.71875 15 15zm0 0" fill="#19c0ef"/></svg>