<svg height="512pt" viewBox="-91 0 512 512" width="512pt" xmlns="http://www.w3.org/2000/svg"><path d="m120 357v140c0 8.28125 6.71875 15 15 15h60c8.28125 0 15-6.71875 15-15v-140zm0 0" fill="#547983"/><path d="m165 357v155h30c8.28125 0 15-6.71875 15-15v-140zm0 0" fill="#3e5959"/><path d="m255 0h-180c-8.28125 0-15 6.71875-15 15v142h210v-142c0-8.28125-6.71875-15-15-15zm0 0" fill="#bcdcfe"/><path d="m255 0h-90v157h105v-142c0-8.28125-6.71875-15-15-15zm0 0" fill="#9bbada"/><path d="m135 112c-8.285156 0-15-6.714844-15-15v-30c0-8.285156 6.714844-15 15-15s15 6.714844 15 15v30c0 8.285156-6.714844 15-15 15zm0 0" fill="#e0f4fe"/><path d="m195 112c-8.285156 0-15-6.714844-15-15v-30c0-8.285156 6.714844-15 15-15s15 6.714844 15 15v30c0 8.285156-6.714844 15-15 15zm0 0" fill="#bcdcfe"/><path d="m315 362h-300c-8.285156 0-15-6.714844-15-15v-180c0-8.285156 6.714844-15 15-15h300c8.285156 0 15 6.714844 15 15v180c0 8.285156-6.714844 15-15 15zm0 0" fill="#3e5959"/><path d="m315 152h-150v210h150c8.28125 0 15-6.71875 15-15v-180c0-8.28125-6.71875-15-15-15zm0 0" fill="#293939"/></svg>