<svg height="511pt" viewBox="1 0 511.99988 511" width="511pt" xmlns="http://www.w3.org/2000/svg"><path d="m507.605469 139.882812-134.988281-134.988281c-5.859376-5.859375-15.355469-5.859375-21.210938 0l-116.421875 116.417969 156.203125 156.203125 116.417969-116.421875c5.859375-5.855469 5.859375-15.351562 0-21.210938zm0 0" fill="#e0f4fe"/><path d="m507.609375 161.101562c-5.992187 5.992188-110.695313 110.710938-116.417969 116.417969l-78.101562-78.101562c5.765625-5.78125 120.503906-120.5 127.03125-127.027344l67.488281 67.488281c5.851563 5.859375 5.851563 15.359375 0 21.222656zm0 0" fill="#bcdcfe"/><path d="m43.964844 468.535156c-58.617188-58.617187-58.625-153.496094 0-212.117187l155.992187-155.992188c5.855469-5.855469 15.351563-5.855469 21.210938 0l190.902343 190.90625c5.859376 5.855469 5.859376 15.355469 0 21.210938l-155.988281 155.988281c-58.617187 58.621094-153.492187 58.628906-212.117187.003906zm0 0" fill="#3e5959"/><path d="m412.070312 291.328125-95.449218-95.449219c-1.679688 1.683594-271.273438 271.273438-272.652344 272.652344 58.621094 58.628906 153.5 58.617188 212.113281 0l155.988281-155.992188c5.859376-5.847656 5.859376-15.347656 0-21.210937zm0 0" fill="#293939"/><path d="m315.40625 147.09375c-5.855469-5.855469-5.855469-15.351562 0-21.210938l35-34.996093c5.855469-5.855469 15.351562-5.855469 21.210938 0 5.855468 5.855469 5.855468 15.355469 0 21.210937l-35 34.996094c-5.855469 5.859375-15.351563 5.859375-21.210938 0zm0 0" fill="#bcdcfe"/><path d="m365.402344 197.09375c-5.855469-5.859375-5.855469-15.355469 0-21.210938l35-35c5.855468-5.855468 15.351562-5.855468 21.210937 0 5.855469 5.859376 5.855469 15.355469 0 21.210938l-35 35c-5.855469 5.855469-15.351562 5.855469-21.210937 0zm0 0" fill="#9bbada"/><path d="m151.023438 421.46875c-33.082032 0-59.996094-26.910156-59.996094-59.992188 0-33.082031 26.914062-59.996093 59.996094-59.996093 33.082031 0 59.996093 26.914062 59.996093 59.996093 0 33.082032-26.914062 59.992188-59.996093 59.992188zm0 0" fill="#e0f4fe"/><path d="m211.019531 361.480469c0 53.34375-64.785156 80.011719-102.398437 42.398437 9.046875-9.046875 75.769531-75.769531 84.808594-84.808594 10.859374 10.871094 17.589843 25.871094 17.589843 42.410157zm0 0" fill="#bcdcfe"/><path d="m151.023438 331.476562c-16.539063 0-29.996094 13.457032-29.996094 30 0 16.539063 13.457031 29.996094 29.996094 29.996094 16.542968 0 30-13.457031 30-29.996094 0-16.542968-13.457032-30-30-30zm0 0" fill="#3e5959"/><path d="m181.019531 361.480469c0 26.722656-32.429687 39.96875-51.199219 21.199219l42.410157-42.410157c5.429687 5.429688 8.789062 12.929688 8.789062 21.210938zm0 0" fill="#293939"/></svg>