<svg height="512pt" viewBox="0 0 512 512" width="512pt" xmlns="http://www.w3.org/2000/svg"><path d="m482 512h-452c-16.542969 0-30-13.457031-30-30v-452c0-16.542969 13.457031-30 30-30h452c16.542969 0 30 13.457031 30 30v452c0 16.542969-13.457031 30-30 30zm0 0" fill="#e0f4fe"/><path d="m512 30v452c0 16.539062-13.460938 30-30 30h-226v-512h226c16.539062 0 30 13.460938 30 30zm0 0" fill="#bcdcfe"/><path d="m30 30v452h452.019531l-.019531-452zm0 0" fill="#fed941"/><path d="m482.019531 482h-226.019531v-452h226zm0 0" fill="#fcbe29"/><path d="m482.007812 241h-61.007812v-211h61zm0 0" fill="#0eab61"/><path d="m271 30h120v211h-120zm0 0" fill="#5dc983"/><path d="m121 30h120v61h-120zm0 0" fill="#159be1"/><path d="m121 121h120v361h-120zm0 0" fill="#0eab61"/><path d="m30 30h61v271h-61zm0 0" fill="#0eab61"/><path d="m30 331h61v151h-61zm0 0" fill="#5dc983"/><path d="m271 482v-211h211.011719l.007812 211c-.011719 0-211.007812 0-211.019531 0zm0 0" fill="#159be1"/><path d="m341.257812 390.230469-85.257812-28.417969-85.257812 28.417969c-12.242188 4.085937-23.621094-8.261719-18.527344-20.140625l90-210c5.175781-12.078125 22.382812-12.109375 27.570312 0l90 210c5.066406 11.816406-6.21875 24.242187-18.527344 20.140625zm0 0" fill="#ee3616"/><path d="m359.789062 370.089844-90-210c-2.589843-6.050782-8.1875-9.070313-13.789062-9.070313v210.789063l85.261719 28.421875c12.308593 4.097656 23.589843-8.320313 18.527343-20.140625zm0 0" fill="#cb0010"/></svg>