<svg height="512pt" viewBox="-61 0 512 512" width="512pt" xmlns="http://www.w3.org/2000/svg"><path d="m270 512h-225c-24.851562 0-45-20.148438-45-45v-422c0-24.851562 20.148438-45 45-45h300c24.851562 0 45 20.148438 45 45v347c0 66.273438-53.726562 120-120 120zm0 0" fill="#e0f4fe"/><path d="m345 0h-150v512h75c66.273438 0 120-53.726562 120-120v-347c0-24.851562-20.148438-45-45-45zm0 0" fill="#bcdcfe"/><path d="m315 281h-240c-8.285156 0-15-6.714844-15-15v-190c0-8.285156 6.714844-15 15-15h240c8.285156 0 15 6.714844 15 15v190c0 8.285156-6.714844 15-15 15zm0 0" fill="#81e885"/><path d="m315 61h-120v220h120c8.28125 0 15-6.71875 15-15v-190c0-8.28125-6.71875-15-15-15zm0 0" fill="#5dc983"/><path d="m195 241h-60c-8.285156 0-15-6.714844-15-15v-30c0-8.285156 6.714844-15 15-15s15 6.714844 15 15v15h45c8.285156 0 15 6.714844 15 15s-6.714844 15-15 15zm0 0" fill="#547983"/><path d="m210 226c0 8.28125-6.71875 15-15 15v-30c8.28125 0 15 6.71875 15 15zm0 0" fill="#3e5959"/><path d="m300 346c0 8.285156-6.714844 15-15 15s-15-6.714844-15-15 6.714844-15 15-15 15 6.714844 15 15zm0 0" fill="#159be1"/><path d="m240 376c0 8.285156-6.714844 15-15 15s-15-6.714844-15-15 6.714844-15 15-15 15 6.714844 15 15zm0 0" fill="#0eab61"/><path d="m300 406c0 8.285156-6.714844 15-15 15s-15-6.714844-15-15 6.714844-15 15-15 15 6.714844 15 15zm0 0" fill="#ee3616"/><path d="m240 436c0 8.285156-6.714844 15-15 15s-15-6.714844-15-15 6.714844-15 15-15 15 6.714844 15 15zm0 0" fill="#fcbe29"/><path d="m165 391h-15v-15c0-8.285156-6.714844-15-15-15s-15 6.714844-15 15v15h-15c-8.285156 0-15 6.714844-15 15s6.714844 15 15 15h15v15c0 8.285156 6.714844 15 15 15s15-6.714844 15-15v-15h15c8.285156 0 15-6.714844 15-15s-6.714844-15-15-15zm0 0" fill="#547983"/></svg>