<svg id="Capa_1" enable-background="new 0 0 512 512" height="512" viewBox="0 0 512 512" width="512" xmlns="http://www.w3.org/2000/svg"><path d="m256 0c-140.7 0-256 115.3-256 256s115.3 256 256 256 256-115.3 256-256-115.3-256-256-256z" fill="#ffda2d"/><path d="m512 256c0 140.7-115.3 256-256 256v-512c140.7 0 256 115.3 256 256z" fill="#fdbf00"/><path d="m256 30c-124.2 0-225 101.8-225 226s100.8 226 225 226 225-101.8 225-226-100.8-226-225-226z" fill="#57d9d4"/><path d="m481 256c0 124.2-100.8 226-225 226v-452c124.2 0 225 101.8 225 226z" fill="#26bfbf"/><path d="m476.8 128.5c-2.699-4.501-7.5-7.5-12.9-7.5h-415.8c-5.4 0-10.201 2.999-12.9 7.5-2.701 4.501-2.701 10.499 0 15l207.9 361c2.699 4.501 7.5 7.5 12.9 7.5s10.201-2.999 12.9-7.5l207.9-361c2.7-4.501 2.7-10.499 0-15zm-220.8 338.5-181.8-316h363.6z" fill="#ffda2d"/><path d="m476.8 143.5-207.9 361c-2.699 4.501-7.5 7.5-12.9 7.5v-45l181.8-316h-181.8v-30h207.9c5.4 0 10.201 2.999 12.9 7.5 2.7 4.501 2.7 10.499 0 15z" fill="#fdbf00"/><path d="m476.8 368.5-207.9-361c-2.699-4.501-7.8-6.899-12.9-6.899s-10.201 2.398-12.9 6.899l-207.9 361c-2.701 4.501-2.701 10.499 0 15 2.699 4.501 7.5 7.5 12.9 7.5h415.8c5.4 0 10.201-2.999 12.9-7.5 2.7-4.501 2.7-10.499 0-15zm-402.6-7.5 181.8-316 181.8 316z" fill="#ffda2d"/><path d="m476.8 383.5c-2.699 4.501-7.5 7.5-12.9 7.5h-207.9v-30h181.8l-181.8-316v-44.399c5.099 0 10.201 2.399 12.9 6.899l207.9 361c2.7 4.501 2.7 10.499 0 15z" fill="#fdbf00"/></svg>