<svg id="Capa_1" enable-background="new 0 0 511.925 511.925" height="512" viewBox="0 0 511.925 511.925" width="512" xmlns="http://www.w3.org/2000/svg"><path d="m468.849 239.925-137.699 137.699c-43.5 43.5-103.801 58.801-159.6 46.201-30.901-6.601-60.601-21.901-84.6-46.201-67.2-67.2-67.2-176.4 0-243.9l84.6-84.598 16.199-16.201c6-5.7 15.3-5.7 21.301 0 11.7 11.7 11.7 30.901 0 42.601l-37.5 37.5-24.3 24.298c-6 5.7-6 15.3 0 21.301 2.701 2.401 6 3.6 9.3 3.9l15 8.401 15-30.601 133.801-133.8c9-8.699 23.099-8.699 31.8 0 9 8.701 9 23.101 0 31.802l-121.8 122.098c-6 5.7-6 15.3 0 21 5.7 6 15.298 6 20.999 0l164.401-164.399c9-8.699 23.099-8.699 31.8 0 9 9 9 23.101 0 31.8l-164.402 164.399c-5.698 6-5.698 15.601 0 21.301 6 5.999 15.601 5.999 21.301 0l122.1-121.8c8.699-9 23.101-9 31.8 0 8.699 8.699 8.699 22.798 0 31.8l-122.1 121.8c-5.7 5.999-5.7 15.3 0 21.299 6 5.7 15.3 5.7 21.301 0l79.499-79.499c8.701-9 23.101-9 31.8 0 8.701 8.699 8.701 22.8-.001 31.799z" fill="#fed2a4"/><path d="m209.05 75.526-37.5 37.5v-63.9l16.199-16.201c6-5.7 15.3-5.7 21.301 0 11.701 11.7 11.701 30.901 0 42.601z" fill="#ffbd86"/><path d="m468.849 239.925-137.699 137.699c-43.5 43.5-103.801 58.801-159.6 46.201v-252.9l15-30.601 133.801-133.799c9-8.699 23.099-8.699 31.8 0 9 8.701 9 23.101 0 31.802l-121.8 122.098c-6 5.7-6 15.3 0 21 5.7 6 15.298 6 20.999 0l164.401-164.399c9-8.699 23.099-8.699 31.8 0 9 9 9 23.101 0 31.8l-164.402 164.399c-5.698 6-5.698 15.601 0 21.301 6 5.999 15.601 5.999 21.301 0l122.1-121.8c8.699-9 23.101-9 31.8 0 8.699 8.699 8.699 22.798 0 31.8l-122.1 121.8c-5.7 5.999-5.7 15.3 0 21.299 6 5.7 15.3 5.7 21.301 0l79.499-79.499c8.701-9 23.101-9 31.8 0 8.701 8.699 8.701 22.8-.001 31.799z" fill="#ffbd86"/><path d="m186.55 284.925v90c0 8.399-6.599 15-15 15s-15-6.601-15-15v-90c0-8.401 6.599-15 15-15s15 6.6 15 15z" fill="#725d57"/><path d="m186.55 284.925v90c0 8.399-6.599 15-15 15v-120c8.401 0 15 6.6 15 15z" fill="#53433f"/><path d="m171.55 134.238c-8.284 0-15 6.716-15 15v105.687h30v-105.687c0-8.284-6.716-15-15-15z" fill="#725d57"/><path d="m186.55 254.925v-105.687c0-8.284-6.716-15-15-15v120.687z" fill="#53433f"/><path d="m171.55 209.925c-24.901 0-45 20.099-45 45 0 24.899 20.099 45 45 45s45-20.101 45-45c0-24.9-20.099-45-45-45z" fill="#57d9d4"/><path d="m231.55 404.925v30c0 8.399-6.599 15-15 15h-15v47c0 8.399-6.599 15-15 15h-30c-8.401 0-15-6.601-15-15v-47h-15c-8.401 0-15-6.601-15-15v-30c0-8.401 6.599-15 15-15h15v-15c0-8.401 6.599-15 15-15h30c8.401 0 15 6.599 15 15v15h15c8.401 0 15 6.6 15 15z" fill="#fdbf00"/><path d="m171.55 299.925v-90c24.901 0 45 20.099 45 45 0 24.899-20.099 45-45 45z" fill="#26bfbf"/><path d="m231.55 404.925v30c0 8.399-6.599 15-15 15h-15v47c0 8.399-6.599 15-15 15h-15v-152h15c8.401 0 15 6.599 15 15v15h15c8.401 0 15 6.6 15 15z" fill="#ff9100"/></svg>