<svg id="Capa_1" enable-background="new 0 0 512 512" height="512" viewBox="0 0 512 512" width="512" xmlns="http://www.w3.org/2000/svg"><path d="m424.6 225.7 27.301 45.3c-9.901 47.399-30.3 147.9-30.901 150l-90 31h-150l-90-31c-1.5-6.601-21.301-104.101-30.901-150l28.2-30-33.6-60c8.702-46.5 36.601-89.2 79.801-113.8l46.5-26.7h150l46.5 26.7c43.2 24.6 71.1 67.301 79.801 113.8z" fill="#f2f2f2"/><path d="m91 421c.137.667.108.531 0 0z"/><path d="m424.6 225.7 27.301 45.3c-9.901 47.399-30.3 147.9-30.901 150l-90 31h-75v-411.501h75l46.5 26.7c43.2 24.6 71.1 67.301 79.801 113.8z" fill="#e7e7f2"/><path d="m456.7 246.7s-1.8 9.6-4.799 24.3h-105.901c-8.401 0-15 6.599-15 15v166h-150v-166c0-8.401-6.599-15-15-15h-105.901c-2.699-13.801-4.499-23.101-4.799-23.701-4.799-22.5-4.799-45-.601-66.299h111.301c8.401 0 15-6.601 15-15v-125.501l67.5-38.399c2.401-1.501 5.099-2.1 7.5-2.1s5.099.599 7.5 2.1l67.5 38.399v125.501c0 8.399 6.599 15 15 15h111.301c4.198 21 4.198 43.5-.601 65.7z" fill="#fdbf00"/><path d="m456.7 246.7s-1.8 9.6-4.799 24.3h-105.901c-8.401 0-15 6.599-15 15v166h-75v-452c2.401 0 5.099.599 7.5 2.1l67.5 38.399v125.501c0 8.399 6.599 15 15 15h111.301c4.198 21 4.198 43.5-.601 65.7z" fill="#ff9100"/><path d="m301 226c0 8.399-6.599 15-15 15h-15v75c0 8.399-6.599 15-15 15s-15-6.601-15-15v-75h-15c-8.401 0-15-6.601-15-15 0-8.401 6.599-15 15-15h15v-15c0-8.401 6.599-15 15-15s15 6.599 15 15v15h15c8.401 0 15 6.599 15 15z" fill="#ffda2d"/><path d="m256 331v-150c8.401 0 15 6.599 15 15v15h15c8.401 0 15 6.599 15 15 0 8.399-6.599 15-15 15h-15v75c0 8.399-6.599 15-15 15z" fill="#fdbf00"/><path d="m421 421v76c0 8.399-6.599 15-15 15h-300c-8.401 0-15-6.601-15-15v-76z" fill="#ffda2d"/><path d="m421 421v76c0 8.399-6.599 15-15 15h-150v-91z" fill="#fdbf00"/></svg>