<svg id="Capa_1" enable-background="new 0 0 512 512" height="512" viewBox="0 0 512 512" width="512" xmlns="http://www.w3.org/2000/svg"><path d="m150 106h212v75h-212z" fill="#ff637b"/><path d="m256 91h106v90h-106z" fill="#e63950"/><path d="m120 241h272v90h-272z" fill="#ff637b"/><path d="m256 241h136v90h-136z" fill="#e63950"/><path d="m422 406v91c0 8.399-6.599 15-15 15h-45l-15-30-15 30h-61l-15-30-15 30h-61l-15-30-15 30h-45c-8.401 0-15-6.601-15-15v-91z" fill="#ff637b"/><path d="m422 406v91c0 8.399-6.599 15-15 15h-45l-15-30-15 30h-61l-15-30v-76z" fill="#e63950"/><path d="m165 451c-8.291 0-15 6.709-15 15v46h30v-46c0-8.291-6.709-15-15-15z" fill="#725d57"/><path d="m271 466v46h-30v-46c0-8.401 6.599-15 15-15s15 6.599 15 15z" fill="#725d57"/><g fill="#53433f"><path d="m347 451c-8.291 0-15 6.709-15 15v46h30v-46c0-8.291-6.709-15-15-15z"/><path d="m497 361c-8.401 0-15 6.599-15 15 0 6.433-3.878 11.799-9.466 13.965-13.109-15.819-20.534-35.917-20.534-56.266v-17.699c0-8.401-6.599-15-15-15h-362c-8.401 0-15 6.599-15 15v17.699c0 20.349-7.425 40.447-20.534 56.266-5.588-2.166-9.466-7.532-9.466-13.965 0-8.401-6.599-15-15-15s-15 6.599-15 15c0 24.899 20.099 45 45 45h422c24.901 0 45-20.101 45-45 0-8.401-6.599-15-15-15z"/><path d="m75 271h362c24.901 0 45-20.101 45-45 0-8.401-6.599-15-15-15s-15 6.599-15 15c0 6.433-3.878 11.799-9.466 13.965-13.109-15.819-20.534-35.917-20.534-56.266v-17.699c0-8.401-6.599-15-15-15h-302c-8.401 0-15 6.599-15 15v17.699c0 20.349-7.425 40.447-20.534 56.266-5.588-2.166-9.466-7.532-9.466-13.965 0-8.401-6.599-15-15-15s-15 6.599-15 15c0 24.899 20.099 45 45 45z"/><path d="m135 121h242c24.901 0 45-20.101 45-45 0-8.401-6.599-15-15-15s-15 6.599-15 15c0 6.926-4.493 12.619-10.778 14.406l-116.222-87.407c-2.699-1.8-6-2.999-9-2.999s-6.301 1.199-9 2.999l-116.222 87.407c-6.285-1.787-10.778-7.48-10.778-14.406 0-8.401-6.599-15-15-15s-15 6.599-15 15c0 24.899 20.099 45 45 45z"/></g><path d="m497 361c-8.401 0-15 6.599-15 15 0 6.433-3.878 11.799-9.466 13.965-13.109-15.819-20.534-35.917-20.534-56.266v-17.699c0-8.401-6.599-15-15-15h-181v90 15 15h211c24.901 0 45-20.101 45-45 0-8.401-6.599-15-15-15z" fill="#3e322e"/><path d="m482 226c0-8.401-6.599-15-15-15s-15 6.599-15 15c0 6.433-3.878 11.799-9.466 13.965-13.109-15.819-20.534-35.917-20.534-56.266v-17.699c0-8.401-6.599-15-15-15h-151v90 15 15h181c24.901 0 45-20.101 45-45z" fill="#3e322e"/><path d="m422 76c0-8.401-6.599-15-15-15s-15 6.599-15 15c0 6.926-4.493 12.619-10.778 14.406l-116.222-87.407c-2.699-1.8-6-2.999-9-2.999v91 15 15h121c24.901 0 45-20.101 45-45z" fill="#3e322e"/><path d="m271 466v46h-15v-61c8.401 0 15 6.599 15 15z" fill="#53433f"/></svg>