<svg id="Capa_1" enable-background="new 0 0 512 512" height="512" viewBox="0 0 512 512" width="512" xmlns="http://www.w3.org/2000/svg"><path d="m299.501 138.624c-5.953 0-11.586-3.568-13.932-9.433h-59.043c-3.077 7.691-11.807 11.432-19.498 8.356-7.691-3.077-11.433-11.806-8.355-19.498l43.448-108.62c2.277-5.695 7.793-9.429 13.927-9.429s11.649 3.734 13.927 9.429l43.448 108.62c3.077 7.692-.664 16.421-8.355 19.498-1.828.731-3.713 1.077-5.567 1.077z" fill="#596c76"/><path d="m285.569 129.191c2.346 5.865 7.979 9.433 13.932 9.433 1.854 0 3.739-.346 5.566-1.077 7.691-3.077 11.433-11.806 8.355-19.498l-43.447-108.62c-2.278-5.695-7.793-9.429-13.927-9.429v129.191z" fill="#465a61"/><path d="m331 166c0 3.6-.3 7.2-.601 10.499h-148.798c-.301-3.299-.601-6.899-.601-10.499 0-41.4 33.6-75 75-75s75 33.6 75 75z" fill="#fdbf00"/><path d="m331 166c0 3.6-.3 7.2-.601 10.499h-74.399v-85.499c41.4 0 75 33.6 75 75z" fill="#ff9100"/><path d="m76 407h360v90h-360z" fill="#fdbf00"/><path d="m256 407h180v90h-180z" fill="#ff9100"/><path d="m76 512c-8.291 0-15-6.709-15-15v-90c0-8.291 6.709-15 15-15s15 6.709 15 15v90c0 8.291-6.709 15-15 15z" fill="#fff261"/><path d="m196 512c-8.291 0-15-6.709-15-15v-90c0-8.291 6.709-15 15-15s15 6.709 15 15v90c0 8.291-6.709 15-15 15z" fill="#fff261"/><path d="m316 512c-8.291 0-15-6.709-15-15v-90c0-8.291 6.709-15 15-15s15 6.709 15 15v90c0 8.291-6.709 15-15 15z" fill="#ffda2d"/><path d="m436 512c-8.291 0-15-6.709-15-15v-90c0-8.291 6.709-15 15-15s15 6.709 15 15v90c0 8.291-6.709 15-15 15z" fill="#ffda2d"/><path d="m256 151c-124.2 0-225 101.8-225 226v30c0 8.399 6.599 15 15 15h420c8.401 0 15-6.601 15-15v-30c0-124.2-100.8-226-225-226z" fill="#f2f2f2"/><path d="m481 377v30c0 8.399-6.599 15-15 15h-210v-271c124.2 0 225 101.8 225 226z" fill="#e7e7f2"/><path d="m136 512c-8.291 0-15-6.709-15-15v-30c0-8.291 6.709-15 15-15s15 6.709 15 15v30c0 8.291-6.709 15-15 15z" fill="#53433f"/><path d="m271 467v30c0 8.399-6.599 15-15 15s-15-6.601-15-15v-30c0-8.401 6.599-15 15-15s15 6.599 15 15z" fill="#53433f"/><path d="m376 512c-8.291 0-15-6.709-15-15v-30c0-8.291 6.709-15 15-15s15 6.709 15 15v30c0 8.291-6.709 15-15 15z" fill="#3e322e"/><path d="m271 467v30c0 8.399-6.599 15-15 15v-60c8.401 0 15 6.599 15 15z" fill="#3e322e"/><path d="m481 497c0 8.399-6.599 15-15 15h-420c-8.401 0-15-6.601-15-15 0-8.401 6.599-15 15-15h420c8.401 0 15 6.599 15 15z" fill="#596c76"/><path d="m481 497c0 8.399-6.599 15-15 15h-210v-30h210c8.401 0 15 6.599 15 15z" fill="#465a61"/><path d="m301 256c0 8.399-6.599 15-15 15h-15v76c0 8.399-6.599 15-15 15s-15-6.601-15-15v-76h-15c-8.401 0-15-6.601-15-15 0-8.401 6.599-15 15-15h15v-15c0-8.401 6.599-15 15-15s15 6.599 15 15v15h15c8.401 0 15 6.599 15 15z" fill="#ffda2d"/><path d="m256 362v-151c8.401 0 15 6.599 15 15v15h15c8.401 0 15 6.599 15 15 0 8.399-6.599 15-15 15h-15v76c0 8.399-6.599 15-15 15z" fill="#fdbf00"/></svg>