<svg id="Capa_1" enable-background="new 0 0 511.967 511.967" height="512" viewBox="0 0 511.967 511.967" width="512" xmlns="http://www.w3.org/2000/svg"><path d="m346 389.951h-180c-8.401 0-15 6.599-15 15 0 57.9 47.1 107 105 107s105-49.1 105-107c0-8.401-6.599-15-15-15z" fill="#ff637b"/><path d="m504.5 257.95-14.7-4.799c-7.2-3.9-13.9-9.901-16.901-15l-54.899-151.8c-6.601-12.001-16.201-21.901-27.601-28.5l-71.699-52.8c-21.301-9.901-35.101-4.2-42.902 8.399-8.699 13.5-5.099 31.501 7.8 40.501l39.901 34.5c9.3 5.4 16.8 15.298 19.799 26.699l29.702 111c2.399 8.101-2.401 16.199-10.501 18.3-7.5 2.401-15.3-1.8-17.699-9.3.68 3.005 2.531 11.758-24.6-91.199-4.788-13.932-18.782-23.318-36-19.501-15.901 4.2-25.499 20.7-21.301 36.601 5.729 24.238 33.36 126.198 34.2 129.3 5.699 19.929 18.066 35.912 35.099 45.601 17.707 9.543 101.546 54.726 96.301 51.899 0 .3.3.3.3.3h.3c6.899 3.9 15.599 1.5 19.799-5.4v-.3l61-103.801c4.202-7.199 1.802-16.499-5.398-20.7z" fill="#ffbd86"/><path d="m7.467 257.95 15.7-4.799c7.2-3.9 12.9-9.901 15.901-15l54.899-151.8c6.601-12.001 16.201-21.901 27.601-28.5l71.699-52.8c21.301-9.901 35.101-4.2 42.902 8.399 8.699 13.5 5.099 31.501-7.8 40.501l-39.901 34.5c-9.3 5.4-16.8 15.298-19.799 26.699l-29.702 111c-2.399 8.101 2.401 16.199 10.501 18.3 7.5 2.401 15.3-1.8 17.699-9.3-.68 3.005-2.531 11.758 24.6-91.199 4.788-13.932 18.782-23.318 36-19.501 15.901 4.2 25.499 20.7 21.301 36.601-5.729 24.238-33.36 126.198-34.2 129.3-5.699 19.929-18.066 35.912-35.099 45.601-17.707 9.543-101.546 54.726-96.301 51.899 0 .3-.3.3-.3.3-.3 0-.3 0-.3 0-6.899 3.9-15.599 1.5-19.799-5.4v-.3l-61-103.801c-4.203-7.199-1.802-16.499 5.398-20.7z" fill="#fed2a4"/><path d="m361 404.951c0 57.9-47.1 107-105 107v-122h90c8.401 0 15 6.599 15 15z" fill="#e63950"/><path d="m295 322.451-26.1-45c-2.699-4.501-7.8-6.901-12.9-6.901s-10.201 2.401-12.9 6.901l-26.1 45c-3.9 6.899-6 14.7-6 22.5 0 24.899 20.099 45 45 45s45-20.101 45-45c0-7.8-2.1-15.6-6-22.5z" fill="#fdbf00"/><path d="m301 344.951c0 24.899-20.099 45-45 45v-119.401c5.099 0 10.201 2.401 12.9 6.901l26.1 45c3.9 6.9 6 14.7 6 22.5z" fill="#ff9100"/></svg>