<svg id="Capa_1" enable-background="new 0 0 512 512" height="512" viewBox="0 0 512 512" width="512" xmlns="http://www.w3.org/2000/svg"><path d="m445.6 153.6c-3.3-3.001-7.8-4.2-12.001-3.3l-77.999 12.9c3.6-14.7 5.4-29.101 5.4-43.2 0-70.501-43.2-120-105-120s-105 49.499-105 120c0 14.099 1.8 28.5 5.4 43.2l-77.999-12.9c-4.2-.901-8.701.298-12.001 3.3-3.6 2.699-5.4 6.899-5.4 11.4v120c0 4.499 1.8 8.699 5.4 11.4 3.3 2.999 7.8 4.199 12.001 3.3l129.6-21.601-27.001 217.101c-.3 4.199.901 8.399 3.6 11.699 2.999 3.301 7.2 5.101 11.4 5.101h120c4.2 0 8.401-1.8 11.4-5.101 2.699-3.3 3.9-7.5 3.6-11.699l-27.001-217.101 129.6 21.601c4.2.899 8.701-.3 12.001-3.3 3.6-2.701 5.4-6.901 5.4-11.4v-120c0-4.501-1.8-8.701-5.4-11.4zm-182.4 54.3c-2.401 1.199-4.799 1.8-7.2 1.8s-4.799-.601-7.2-1.8c-15.3-8.401-37.8-44.4-37.8-87.9 0-36.901 17.1-60 45-60s45 23.099 45 60c0 43.5-22.5 79.499-37.8 87.9z" fill="#ffda2d"/><path d="m451 165v120c0 4.499-1.8 8.699-5.4 11.4-3.3 2.999-7.8 4.199-12.001 3.3l-129.6-21.601 27.001 217.101c.3 4.199-.901 8.399-3.6 11.699-2.999 3.301-7.2 5.101-11.4 5.101h-60v-302.3c2.401 0 4.799-.601 7.2-1.8 15.3-8.401 37.8-44.4 37.8-87.9 0-36.901-17.1-60-45-60v-60c61.8 0 105 49.499 105 120 0 14.099-1.8 28.5-5.4 43.2l77.999-12.9c4.2-.901 8.701.298 12.001 3.3 3.6 2.699 5.4 6.899 5.4 11.4z" fill="#fdbf00"/></svg>