<svg id="Capa_1" enable-background="new 0 0 512 512" height="512" viewBox="0 0 512 512" width="512" xmlns="http://www.w3.org/2000/svg"><path d="m436 181h-135v-30h75c8.401 0 15-6.601 15-15v-60c0-8.401-6.599-15-15-15h-75v-46c0-8.401-6.599-15-15-15h-60c-8.401 0-15 6.599-15 15v46h-75c-8.401 0-15 6.599-15 15v60c0 8.399 6.599 15 15 15h75v30h-135c-8.401 0-15 6.599-15 15v60c0 8.399 6.599 15 15 15h135v40.8l-52.5-19.2c-3.6-1.199-7.8-1.199-11.4.601s-6.301 4.799-7.8 8.399l-20.4 56.4c-2.999 7.8 1.199 16.501 9 19.2l83.1 30.3v89.5c0 8.399 6.599 15 15 15h60c8.401 0 15-6.601 15-15v-56.8l52.5 19.199c7.5 2.701 16.199-1.199 19.2-9l20.4-56.4c2.999-7.8-1.199-16.5-9-19.2l-83.1-30.299v-73.5h135c8.401 0 15-6.601 15-15v-60c0-8.401-6.599-15-15-15z" fill="#ffda2d"/><path d="m451 196v60c0 8.399-6.599 15-15 15h-135v73.5l83.101 30.298c7.8 2.701 11.999 11.4 9 19.2l-20.4 56.4c-3.001 7.8-11.7 11.7-19.2 9l-52.501-19.198v56.8c0 8.399-6.599 15-15 15h-30v-512h30c8.401 0 15 6.599 15 15v46h75c8.401 0 15 6.599 15 15v60c0 8.399-6.599 15-15 15h-75v30h135c8.401 0 15 6.599 15 15z" fill="#fdbf00"/></svg>