<svg id="Capa_1" enable-background="new 0 0 512 512" height="512" viewBox="0 0 512 512" width="512" xmlns="http://www.w3.org/2000/svg"><path d="m278.01 326.165 131.63-122.61c6.06-5.64 6.4-15.13.75-21.2-5.65-6.06-15.14-6.4-21.2-.75l-54.14 50.43h-158.1l-54.14-50.43c-6.06-5.65-15.55-5.31-21.2.75-5.65 6.07-5.31 15.56.75 21.2l131.63 122.61-129.8 120.9c-6.06 5.65-6.4 15.14-.75 21.2 2.95 3.18 6.96 4.78 10.98 4.78 3.66 0 7.33-1.33 10.22-4.02l131.36-122.36 131.36 122.36c2.89 2.69 6.56 4.02 10.22 4.02 4.02 0 8.03-1.6 10.98-4.78 5.65-6.06 5.31-15.55-.75-21.2zm-68.86-64.13h93.7l-46.85 43.63z" fill="#293456"/><path d="m407.81 447.065c6.06 5.65 6.4 15.14.75 21.2-2.95 3.18-6.96 4.78-10.98 4.78-3.66 0-7.33-1.33-10.22-4.02l-131.36-122.36v-41l46.85-43.63h-46.85v-30h79.05l54.14-50.43c6.06-5.65 15.55-5.31 21.2.75 5.65 6.07 5.31 15.56-.75 21.2l-131.63 122.61z" fill="#0e1830"/><path d="m512 112.095v66.72c0 15.89-12.88 28.77-28.77 28.77h-454.46c-15.89 0-28.77-12.88-28.77-28.77v-66.72l256-36.57z" fill="#4de6ff"/><path d="m512 112.095v66.72c0 15.89-12.88 28.77-28.77 28.77h-227.23v-132.06z" fill="#50b8ff"/><path d="m458.86 75.525-20 36.57h-73.15l-36.57-10-36.57 10h-73.14l-36.57-10-36.57 10h-73.15l-20-36.57 20-36.57h73.15l36.57 10 36.57-10h73.14l36.57 10 36.57-10h73.15z" fill="#f3f4ff"/><path d="m458.86 75.525-20 36.57h-73.15l-36.57-10-36.57 10h-36.57v-73.14h36.57l36.57 10 36.57-10h73.15z" fill="#e3e6ff"/><path d="m73.14 38.955v73.14h-73.14v-36.47c0-20.22 16.45-36.67 36.67-36.67z" fill="#293456"/><path d="m146.286 38.956h73.143v73.143h-73.143z" fill="#293456"/><g fill="#0e1830"><path d="m292.571 38.956h73.143v73.143h-73.143z"/><path d="m512 75.625v36.47h-73.14v-73.14h36.47c20.22 0 36.67 16.45 36.67 36.67z"/></g></svg>