<svg id="Capa_1" enable-background="new 0 0 512 512" height="512" viewBox="0 0 512 512" width="512" xmlns="http://www.w3.org/2000/svg"><path d="m350.147 209.679-.934-1.586-22.405-22.901-21.046-21.513-1.593-.97c-15.659-9.571-32.846-15.616-51.096-17.967-26.306-3.398-51.57 1.734-73.069 14.823-21.025 12.799-36.967 32.79-44.888 56.285-2.159 6.378-8.304 10.767-15.298 10.909-32.776.666-62.883 13.089-84.771 34.977-25.79 25.791-38.022 61.412-34.433 100.297 3.419 37.059 20.656 72.815 48.548 100.706l.057.057c27.247 27.247 63.697 44.923 99.998 48.505 39.126 3.858 75.002-8.346 101.024-34.369 21.895-21.895 34.319-52.002 34.992-84.771.141-6.994 4.516-13.139 10.902-15.291 15.616-5.267 29.392-13.79 40.931-25.329 36.342-36.342 41.595-93.356 13.081-141.862z" fill="#ff8a3c"/><path d="m350.147 209.679-.934-1.586-22.405-22.901-277.597 277.597.007.007c27.247 27.247 63.697 44.923 99.998 48.505 39.126 3.858 75.002-8.346 101.024-34.369 21.895-21.895 34.319-52.002 34.992-84.771.141-6.994 4.516-13.139 10.902-15.291 15.616-5.267 29.392-13.79 40.931-25.329 36.343-36.342 41.596-93.356 13.082-141.862z" fill="#e56705"/><path d="m234.094 352.987c-20.706 20.706-54.388 20.706-75.094.014l-.007-.007c-10.031-10.031-15.553-23.368-15.553-37.554s5.522-27.523 15.553-37.554c20.706-20.706 54.395-20.699 75.101.007l.007.007c10.031 10.031 15.553 23.354 15.553 37.54-.001 14.186-5.529 27.516-15.56 37.547z" fill="#293456"/><path d="m163.905 423.175c-5.869 5.868-15.376 5.861-21.237 0l-26.921-26.921-26.95-26.936c-5.861-5.861-5.861-15.376 0-21.237 5.869-5.868 15.376-5.861 21.237 0l26.95 26.936 26.921 26.921c5.862 5.861 5.862 15.375 0 21.237z" fill="#fff"/><path d="m445.396 109.092-151.669 151.669c-4.205 4.205-11.008 4.198-15.206 0l-27.297-27.297c-4.198-4.198-4.198-10.994 0-15.192l151.677-151.675 35.402 7.086v.014z" fill="#e56705"/><path d="m445.396 109.092-151.669 151.669c-4.205 4.205-11.008 4.198-15.206 0l-13.641-13.641 173.423-173.423z" fill="#bc4f04"/><path d="m499.161 105.362c-5.861 5.861-15.368 5.869-21.237 0l-71.293-71.293c-5.861-5.861-5.861-15.376 0-21.237s15.376-5.861 21.237 0l71.293 71.293c5.869 5.868 5.862 15.375 0 21.237z" fill="#293456"/><path d="m499.161 105.362c-5.861 5.861-15.368 5.869-21.237 0l-35.643-35.643 21.237-21.237 35.643 35.643c5.869 5.868 5.862 15.375 0 21.237z" fill="#0e1830"/><path d="m503.409 72.289-58.012 36.804-42.495-42.495 36.804-58.012c6.343-9.996 20.317-11.539 28.698-3.171l38.184 38.184c8.366 8.366 6.823 22.34-3.179 28.69z" fill="#ffd400"/><path d="m445.396 109.092-21.244-21.244 63.343-63.343 19.092 19.092c8.367 8.367 6.824 22.341-3.178 28.691z" fill="#ffb600"/><path d="m163.905 423.175c-5.869 5.868-15.376 5.861-21.237 0l-26.921-26.921 21.237-21.237 26.921 26.921c5.862 5.861 5.862 15.375 0 21.237z" fill="#e3e6ff"/><path d="m159 353.001 75.101-75.101c10.031 10.031 15.553 23.354 15.553 37.54s-5.529 27.516-15.56 37.547c-20.707 20.706-54.388 20.705-75.094.014z" fill="#293456"/><path d="m249.653 315.439c0 14.186-5.529 27.516-15.56 37.547-20.706 20.706-54.388 20.706-75.094.014l75.101-75.101c10.032 10.031 15.553 23.354 15.553 37.54z" fill="#0e1830"/></svg>