<svg id="Capa_1" enable-background="new 0 0 512 512" height="512" viewBox="0 0 512 512" width="512" xmlns="http://www.w3.org/2000/svg"><path d="m512 312.548-20 27.62-236 20-236-20-20-27.62v-128.42c0-89.91 73.15-163.06 163.06-163.06 34.51 0 66.55 10.78 92.94 29.15 42.35 29.47 70.12 78.51 70.12 133.91 0 20.14 16.38 36.53 36.52 36.53h57.46c50.68 0 91.9 41.22 91.9 91.89z" fill="#293456"/><path d="m512 312.548-20 27.62-236 20v-309.95c42.35 29.47 70.12 78.51 70.12 133.91 0 20.14 16.38 36.53 36.52 36.53h57.46c50.68 0 91.9 41.22 91.9 91.89z" fill="#0e1830"/><path d="m512 312.548v55.24l-256 20-256-20v-55.24z" fill="#e3e6ff"/><path d="m512 312.548v55.24l-256 20v-75.24z" fill="#cbd1f4"/><path d="m458.86 454.362-20-86.57h-73.15l-36.57 10-36.57-10h-73.14l-36.57 10-36.57-10h-73.15l-20 86.57 20 36.57h73.15l36.57-10 36.57 10h73.14l36.57-10 36.57 10h73.15z" fill="#f3f4ff"/><path d="m458.86 454.362-20-86.57h-73.15l-36.57 10-36.57-10h-36.57v123.14h36.57l36.57-10 36.57 10h73.15z" fill="#e3e6ff"/><path d="m73.14 490.932v-123.14h-73.14v86.47c0 20.22 16.45 36.67 36.67 36.67z" fill="#293456"/><path d="m146.286 367.788h73.143v123.143h-73.143z" fill="#293456"/><g fill="#0e1830"><path d="m292.571 367.788h73.143v123.143h-73.143z"/><path d="m512 454.262v-86.47h-73.14v123.14h36.47c20.22 0 36.67-16.45 36.67-36.67z"/></g></svg>