<svg id="Capa_1" enable-background="new 0 0 512 512" height="512" viewBox="0 0 512 512" width="512" xmlns="http://www.w3.org/2000/svg"><path d="m67.637 203.455c7.744-27.841 21.588-53.247 39.975-74.662l23.688 23.688c-13.387 16.113-23.705 34.85-30.067 55.302l-4.455 14.323 28.646 8.91 4.455-14.323c12.516-40.24 43.829-72.331 83.764-85.845l14.208-4.808-9.616-28.417-14.209 4.808c-19.005 6.432-36.42 16.292-51.514 28.836l-23.687-23.687c21.41-18.383 46.808-32.224 74.642-39.969l14.45-4.021-8.042-28.902-14.451 4.021c-75.616 21.042-135.656 81.088-156.69 156.707l-4.02 14.451 28.902 8.04z" fill="#ff8a3c"/><path d="m444.342 308.558c-7.747 27.81-21.583 53.189-39.955 74.585l-23.687-23.687c13.387-16.113 23.705-34.85 30.066-55.302l4.455-14.323-28.646-8.91-4.455 14.323c-12.516 40.24-43.829 72.331-83.764 85.845l-14.208 4.808 9.616 28.417 14.209-4.808c19.005-6.432 36.42-16.293 51.514-28.836l23.686 23.686c-21.402 18.377-46.791 32.216-74.609 39.962l-14.45 4.023 8.047 28.9 14.45-4.023c75.563-21.04 135.58-81.049 156.631-156.609l4.025-14.45-28.899-8.051z" fill="#e56705"/><path d="m381.12 213.612 4.808 14.208 28.417-9.616-4.808-14.208c-6.432-19.006-16.292-36.42-28.836-51.515l23.687-23.687c18.387 21.415 32.231 46.822 39.975 74.663l4.02 14.451 28.902-8.039-4.02-14.452c-21.031-75.619-81.07-135.666-156.688-156.708l-14.451-4.021-8.043 28.902 14.451 4.021c27.833 7.745 53.231 21.587 74.64 39.969l-23.688 23.688c-16.113-13.387-34.85-23.705-55.303-30.067l-14.323-4.455-8.91 28.646 14.323 4.455c40.241 12.517 72.332 43.831 85.847 83.765z" fill="#e56705"/><path d="m130.88 298.325-4.808-14.208-28.417 9.616 4.808 14.208c6.432 19.006 16.293 36.42 28.836 51.515l-23.686 23.686c-18.372-21.396-32.208-46.777-39.955-74.587l-4.025-14.45-28.899 8.05 4.024 14.45c21.048 75.561 81.064 135.571 156.629 156.612l14.45 4.024 8.047-28.901-14.45-4.023c-27.818-7.746-53.206-21.585-74.608-39.962l23.687-23.687c16.113 13.387 34.85 23.705 55.303 30.067l14.323 4.455 8.91-28.646-14.323-4.455c-40.24-12.515-72.331-43.829-85.846-83.764z" fill="#ff8a3c"/><g fill="#ffe67b"><path d="m326.54 441.46c0 38.9-31.64 70.54-70.54 70.54s-70.54-31.64-70.54-70.54 31.64-70.54 70.54-70.54 70.54 31.64 70.54 70.54z"/><path d="m326.54 70.55c0 38.9-31.64 70.54-70.54 70.54s-70.54-31.64-70.54-70.54 31.64-70.55 70.54-70.55 70.54 31.65 70.54 70.55z"/><path d="m70.543 185.466c-38.897 0-70.543 31.643-70.543 70.539s31.646 70.539 70.543 70.539c38.898 0 70.544-31.643 70.544-70.539s-31.645-70.539-70.544-70.539z"/></g><path d="m441.457 185.466c-38.898 0-70.544 31.643-70.544 70.539s31.646 70.539 70.544 70.539c38.897 0 70.543-31.643 70.543-70.539s-31.646-70.539-70.543-70.539z" fill="#ffd400"/><path d="m326.54 441.46c0 38.9-31.64 70.54-70.54 70.54v-141.08c38.9 0 70.54 31.64 70.54 70.54z" fill="#ffd400"/><path d="m256 141.09v-141.09c38.9 0 70.54 31.65 70.54 70.55s-31.64 70.54-70.54 70.54z" fill="#ffd400"/></svg>