<svg id="Capa_1" enable-background="new 0 0 512 512" height="512" viewBox="0 0 512 512" width="512" xmlns="http://www.w3.org/2000/svg"><path d="m427.98 130.1v348.52c0 18.43-14.95 33.38-33.38 33.38h-277.2c-18.43 0-33.38-14.95-33.38-33.38v-348.52l171.98-30z" fill="#293456"/><path d="m427.98 130.1v348.52c0 18.43-14.95 33.38-33.38 33.38h-138.6v-411.9z" fill="#0e1830"/><path d="m358.08 416.87c5.86 5.86 5.86 15.35 0 21.21-2.93 2.93-6.77 4.4-10.6 4.4-3.84 0-7.68-1.47-10.61-4.4l-16.05-16.04c-19.11 14.42-41.96 21.63-64.82 21.63v-29.99c19.9 0 39.8-7.58 54.95-22.73 30.3-30.3 30.3-79.6 0-109.9-15.15-15.15-35.05-22.73-54.95-22.73v-29.99c22.86 0 45.71 7.21 64.82 21.63l16.05-16.04c5.86-5.86 15.35-5.86 21.21 0s5.86 15.35 0 21.21l-16.04 16.05c28.83 38.22 28.83 91.42 0 129.64z" fill="#ffd400"/><path d="m427.98 33.38v96.72h-343.96v-96.72c0-18.43 14.95-33.38 33.38-33.38h277.2c18.43 0 33.38 14.95 33.38 33.38z" fill="#f3f4ff"/><path d="m427.98 33.38v96.72h-171.98v-130.1h138.6c18.43 0 33.38 14.95 33.38 33.38z" fill="#e3e6ff"/><circle cx="256" cy="336" fill="#e3e6ff" r="92.85"/><path d="m348.85 336c0 51.28-41.57 92.85-92.85 92.85v-185.7c51.28 0 92.85 41.57 92.85 92.85z" fill="#cbd1f4"/><path d="m302.79 336c0 25.8-20.99 46.79-46.79 46.79s-46.79-20.99-46.79-46.79 20.99-46.79 46.79-46.79 46.79 20.99 46.79 46.79z" fill="#293456"/><path d="m342.04 400.82c28.83-38.22 28.83-91.42 0-129.64l16.04-16.05c5.86-5.86 5.86-15.35 0-21.21s-15.35-5.86-21.21 0l-16.05 16.04c-19.11-14.42-41.96-21.63-64.82-21.63s-45.71 7.21-64.82 21.63l-16.05-16.04c-5.86-5.86-15.35-5.86-21.21 0s-5.86 15.35 0 21.21l16.04 16.05c-28.83 38.22-28.83 91.42 0 129.64l-16.04 16.05c-5.86 5.86-5.86 15.35 0 21.21 2.93 2.93 6.77 4.4 10.6 4.4 3.84 0 7.68-1.47 10.61-4.4l16.05-16.04c19.11 14.42 41.96 21.63 64.82 21.63s45.71-7.21 64.82-21.63l16.05 16.04c2.93 2.93 6.77 4.4 10.61 4.4 3.83 0 7.67-1.47 10.6-4.4 5.86-5.86 5.86-15.35 0-21.21zm-31.09-9.87c-15.15 15.15-35.05 22.73-54.95 22.73s-39.8-7.58-54.95-22.73c-30.3-30.3-30.3-79.6 0-109.9 15.15-15.15 35.05-22.73 54.95-22.73s39.8 7.58 54.95 22.73c30.3 30.3 30.3 79.6 0 109.9z" fill="#fff"/><path d="m324.1 130.1c0 37.55-30.55 68.1-68.1 68.1s-68.1-30.55-68.1-68.1 30.55-68.1 68.1-68.1 68.1 30.55 68.1 68.1z" fill="#fff"/><path d="m256 382.79v-93.58c25.8 0 46.79 20.99 46.79 46.79s-20.99 46.79-46.79 46.79z" fill="#0e1830"/><g fill="#f3f4ff"><path d="m256 198.2v-136.2c37.55 0 68.1 30.55 68.1 68.1s-30.55 68.1-68.1 68.1z"/><path d="m358.08 416.87c5.86 5.86 5.86 15.35 0 21.21-2.93 2.93-6.77 4.4-10.6 4.4-3.84 0-7.68-1.47-10.61-4.4l-16.05-16.04c-19.11 14.42-41.96 21.63-64.82 21.63v-29.99c19.9 0 39.8-7.58 54.95-22.73 30.3-30.3 30.3-79.6 0-109.9-15.15-15.15-35.05-22.73-54.95-22.73v-29.99c22.86 0 45.71 7.21 64.82 21.63l16.05-16.04c5.86-5.86 15.35-5.86 21.21 0s5.86 15.35 0 21.21l-16.04 16.05c28.83 38.22 28.83 91.42 0 129.64z"/></g></svg>