<svg id="Capa_1" enable-background="new 0 0 512 512" height="512" viewBox="0 0 512 512" width="512" xmlns="http://www.w3.org/2000/svg"><path d="m42.869 223.397h30v84.112h-30z" fill="#f3f4ff"/><path d="m439.409 223.397h30v84.112h-30z" fill="#e3e6ff"/><path d="m0 345.176v98.584c0 29.041 23.594 52.667 52.596 52.667h66.671v-203.918h-66.671c-29.002 0-52.596 23.627-52.596 52.667z" fill="#4de6ff"/><path d="m459.404 292.509h-66.671v203.917h66.671c29.001 0 52.596-23.626 52.596-52.667v-98.584c0-29.039-23.594-52.666-52.596-52.666z" fill="#50b8ff"/><path d="m131.565 284.437c-15.076 0-27.298 12.222-27.298 27.298v165.468c0 15.076 12.222 27.297 27.298 27.297 15.076 0 27.298-12.222 27.298-27.297v-165.468c-.001-15.076-12.222-27.298-27.298-27.298z" fill="#293456"/><path d="m380.435 284.437c-15.076 0-27.298 12.222-27.298 27.298v165.468c0 15.076 12.221 27.297 27.298 27.297 15.076 0 27.298-12.222 27.298-27.297v-165.468c0-15.076-12.222-27.298-27.298-27.298z" fill="#0e1830"/><path d="m469.41 223.4c0 8.28-6.72 15-15 15h-33.02c-20.32 0-37.39-14.82-40.6-35.23-4.67-29.76-19.74-57.06-42.43-76.88-22.88-19.99-52.08-30.99-82.22-30.99s-59.34 11-82.22 30.99c-22.7 19.82-37.77 47.12-42.44 76.88-3.2 20.41-20.27 35.23-40.59 35.23h-33.02c-8.29 0-15-6.72-15-15 0-57.63 22.16-111.82 62.39-152.59 19.9-20.17 43.19-35.93 69.2-46.85 26.03-10.92 53.51-16.46 81.68-16.46h.01c57 0 110.58 22.48 150.86 63.3 40.24 40.77 62.4 94.97 62.4 152.6z" fill="#293456"/><path d="m469.41 223.4c0 8.28-6.72 15-15 15h-33.02c-20.32 0-37.39-14.82-40.6-35.23-4.67-29.76-19.74-57.06-42.43-76.88-22.88-19.99-52.08-30.99-82.22-30.99v-87.8h.01c57 0 110.58 22.48 150.86 63.3 40.24 40.77 62.4 94.97 62.4 152.6z" fill="#0e1830"/></svg>