<svg id="Capa_1" enable-background="new 0 0 512 512" height="512" viewBox="0 0 512 512" width="512" xmlns="http://www.w3.org/2000/svg"><path d="m271 15v29.83c0 8.29-6.72 15-15 15s-15-6.71-15-15v-29.83c0-8.28 6.72-15 15-15s15 6.72 15 15z" fill="#293456"/><path d="m271 120.26v60.01c0 8.28-6.72 15-15 15s-15-6.72-15-15v-60.01c0-8.28 6.72-15 15-15s15 6.72 15 15z" fill="#293456"/><path d="m405.43 506.36c-5.17 6.47-14.61 7.53-21.08 2.36l-113.35-90.57v78.85c0 8.28-6.72 15-15 15s-15-6.72-15-15v-78.85l-113.35 90.57c-2.77 2.21-6.07 3.28-9.35 3.28-4.41 0-8.77-1.93-11.73-5.64-5.17-6.47-4.12-15.91 2.35-21.08l132.08-105.53v-124.06c0-8.28 6.72-15 15-15s15 6.72 15 15v124.06l132.08 105.53c6.47 5.17 7.52 14.61 2.35 21.08z" fill="#293456"/><path d="m256 59.83v-59.83c8.28 0 15 6.72 15 15v29.83c0 8.29-6.72 15-15 15z" fill="#0e1830"/><path d="m256 195.27v-90.01c8.28 0 15 6.72 15 15v60.01c0 8.28-6.72 15-15 15z" fill="#0e1830"/><path d="m405.43 506.36c-5.17 6.47-14.61 7.53-21.08 2.36l-113.35-90.57v78.85c0 8.28-6.72 15-15 15v-271.31c8.28 0 15 6.72 15 15v124.06l132.08 105.53c6.47 5.17 7.52 14.61 2.35 21.08z" fill="#0e1830"/><path d="m456 180.27c-33.39 0-65.66 12.13-90.72 34.19-29.15 25.67-67.4 41.23-109.28 41.23s-80.13-15.56-109.28-41.23c-25.06-22.06-57.33-34.19-90.72-34.19z" fill="#ffe67b"/><path d="m456 120.26h-400c33.39 0 65.66-12.13 90.72-34.2 29.15-25.66 67.4-41.23 109.28-41.23s80.13 15.57 109.28 41.23c25.06 22.07 57.33 34.2 90.72 34.2z" fill="#ffe67b"/><g fill="#ffd400"><path d="m256 180.27h200c-33.39 0-65.66 12.13-90.72 34.19-29.15 25.67-67.4 41.23-109.28 41.23z"/><path d="m456 120.26h-200v-75.43c41.88 0 80.13 15.57 109.28 41.23 25.06 22.07 57.33 34.2 90.72 34.2z"/><path d="m471 180.27c0 8.28-6.72 15-15 15h-400c-8.28 0-15-6.72-15-15 0-8.29 6.72-15 15-15h400c8.28 0 15 6.71 15 15z"/><path d="m471 120.26c0 8.29-6.72 15-15 15h-400c-8.28 0-15-6.71-15-15 0-8.28 6.72-15 15-15h400c8.28 0 15 6.72 15 15z"/></g><path d="m471 180.27c0 8.28-6.72 15-15 15h-200v-30h200c8.28 0 15 6.71 15 15z" fill="#ffb600"/><path d="m456 135.26h-200v-30h200c8.28 0 15 6.72 15 15 0 8.29-6.72 15-15 15z" fill="#ffb600"/></svg>