<svg id="Capa_1" enable-background="new 0 0 512 512" height="512" viewBox="0 0 512 512" width="512" xmlns="http://www.w3.org/2000/svg"><path d="m206.632 154.502h-59.004c-8.284 0-15 6.716-15 15s6.716 15 15 15h14.502v34.003c0 8.284 6.716 15 15 15s15-6.716 15-15v-34.003h14.502c8.284 0 15-6.716 15-15s-6.716-15-15-15z" fill="#ffd400"/><path d="m325.662 154.502h-59.003c-8.284 0-15 6.716-15 15s6.716 15 15 15h14.502v34.003c0 8.284 6.716 15 15 15s15-6.716 15-15v-34.003h14.501c8.284 0 15-6.716 15-15s-6.716-15-15-15z" fill="#ffb600"/><path d="m108.265 211.005c-4.299 0-8.553-.668-12.646-1.987l-85.819-27.651c-3.2-1.031-6.817.171-8.731 3.26-.746 1.203-1.069 2.622-1.069 4.038v134.655c0 1.431.328 2.865 1.085 4.079 1.464 2.347 3.917 3.596 6.416 3.596.771 0 1.547-.119 2.299-.361l93.107-30c.941-.303 1.813-.789 2.564-1.43l94.64-88.198h-91.846z" fill="#ffb600"/><path d="m501 89.876c-4.14 0-7.5 3.36-7.5 7.5 0 32.25-12.75 61.42-35.91 82.13-22.7 20.31-53.85 31.5-87.72 31.5h-169.76c-53.28 0-96.62 43.34-96.62 96.62s43.34 96.63 96.62 96.63h73.69c53.28 0 96.62-43.35 96.62-96.63 0-2.21-.07-4.44-.22-6.63 33.74.07 64.76 11.25 87.39 31.49 23.16 20.72 35.91 49.89 35.91 82.14 0 4.14 3.36 7.5 7.5 7.5s7.5-3.36 7.5-7.5v-317.25c0-4.14-3.36-7.5-7.5-7.5zm-233.35 241.46h-62c-14.47 0-26.19-11.72-26.19-26.18 0-7.23 2.93-13.78 7.67-18.52s11.29-7.67 18.52-7.67h62c14.46 0 26.18 11.73 26.18 26.19s-11.72 26.18-26.18 26.18z" fill="#ffe67b"/><path d="m508.5 97.376v317.25c0 4.14-3.36 7.5-7.5 7.5s-7.5-3.36-7.5-7.5c0-32.25-12.75-61.42-35.91-82.14-22.63-20.24-53.65-31.42-87.39-31.49.15 2.19.22 4.42.22 6.63 0 53.28-43.34 96.63-96.62 96.63h-37.15v-72.92h31c14.46 0 26.18-11.72 26.18-26.18s-11.72-26.19-26.18-26.19h-31v-67.96h133.22c33.87 0 65.02-11.19 87.72-31.5 23.16-20.71 35.91-49.88 35.91-82.13 0-4.14 3.36-7.5 7.5-7.5s7.5 3.36 7.5 7.5z" fill="#ffd400"/><path d="m497 84.878c-8.284 0-15 6.716-15 15v312.244c0 8.284 6.716 15 15 15s15-6.716 15-15v-312.244c0-8.284-6.716-15-15-15z" fill="#ffb600"/></svg>