<svg id="Capa_1" enable-background="new 0 0 512 512" height="512" viewBox="0 0 512 512" width="512" xmlns="http://www.w3.org/2000/svg"><path d="m24.999 68.5h461.982v215.3h-461.982z" fill="#ff8a3c"/><path d="m256.01 68.5h230.971v215.3h-230.971z" fill="#e56705"/><path d="m486.981 283.8v159.7h-461.982v-159.7l230.991-20h.02z" fill="#e56705"/><path d="m486.981 283.8v159.7h-230.971v-179.7z" fill="#bc4f04"/><path d="m220.991 390.01v53.49h-29.999v-53.49c0-8.28 6.72-15 14.999-15 8.291 0 15 6.72 15 15z" fill="#ffe67b"/><path d="m270.989 390.01v53.49h-29.999v-53.49c0-8.28 6.72-15 14.999-15h.02c8.281.01 14.98 6.73 14.98 15z" fill="#ffe67b"/><path d="m320.987 390.01v53.49h-29.999v-53.49c0-8.28 6.72-15 14.999-15 8.291 0 15 6.72 15 15z" fill="#ffd400"/><path d="m270.989 390.01v53.49h-14.979v-68.49c8.28.01 14.979 6.73 14.979 15z" fill="#ffd400"/><path d="m511.98 68.5c0 8.29-6.71 15-14.999 15h-481.982c-8.279 0-14.999-6.71-14.999-15 0-8.28 6.72-15 14.999-15h481.981c8.29 0 15 6.72 15 15z" fill="#293456"/><path d="m511.98 443.5c0 8.29-6.71 15-14.999 15h-481.982c-8.279 0-14.999-6.71-14.999-15 0-8.28 6.72-15 14.999-15h481.981c8.29 0 15 6.72 15 15z" fill="#293456"/><path d="m340.987 129.64v67.37h-169.994v-67.37c0-9.15 7.42-16.57 16.569-16.57h136.865c9.15 0 16.56 7.42 16.56 16.57z" fill="#f3f4ff"/><path d="m340.987 129.64v67.37h-84.977v-83.94h68.417c9.15 0 16.56 7.42 16.56 16.57z" fill="#e3e6ff"/><path d="m374.275 197.01c0 8.28-6.72 15-14.999 15h-206.562c-8.29 0-14.999-6.72-14.999-15 0-8.29 6.71-15 14.999-15h206.562c8.28 0 14.999 6.71 14.999 15z" fill="#ffe67b"/><path d="m458.862 283.8-19.999 36.57h-73.147l-36.569-10-36.568 10h-73.138l-36.568-10-36.569 10h-73.147l-19.999-36.57 19.999-36.57h73.147l36.569 10 36.568-10h73.138l36.568 10 36.569-10h73.147z" fill="#f3f4ff"/><path d="m458.862 283.8-19.999 36.57h-73.147l-36.569-10-36.568 10h-36.569v-73.14h36.569l36.568 10 36.569-10h73.147z" fill="#e3e6ff"/><path d="m73.157 247.23v73.14h-45.704c-15.151 0-27.433-12.283-27.433-27.434v-18.271c0-15.152 12.282-27.434 27.433-27.434h45.704z" fill="#293456"/><path d="m146.3 247.231h73.14v73.143h-73.14z" fill="#293456"/><path d="m292.58 247.231h73.14v73.143h-73.14z" fill="#0e1830"/><path d="m512 274.664v18.272c0 15.152-12.282 27.434-27.433 27.434h-45.704v-73.14h45.704c15.151 0 27.433 12.283 27.433 27.434z" fill="#0e1830"/><path d="m359.276 212.01h-103.266v-30h103.266c8.28 0 14.999 6.71 14.999 15 0 8.28-6.719 15-14.999 15z" fill="#ffd400"/><g fill="#0e1830"><path d="m511.98 443.5c0 8.29-6.71 15-14.999 15h-240.971v-30h240.971c8.289 0 14.999 6.72 14.999 15z"/><path d="m496.981 83.5h-240.971v-30h240.971c8.29 0 14.999 6.72 14.999 15 0 8.29-6.71 15-14.999 15z"/></g></svg>