<svg id="Capa_1" enable-background="new 0 0 512 512" height="512" viewBox="0 0 512 512" width="512" xmlns="http://www.w3.org/2000/svg"><path d="m191.037 451.23c-8.244 0-14.926 6.719-14.926 15.008v30.754c0 8.288 6.683 15.008 14.926 15.008 8.244 0 14.926-6.719 14.926-15.008v-30.754c.001-8.289-6.682-15.008-14.926-15.008z" fill="#293456"/><path d="m398.766 451.23c-8.244 0-14.926 6.719-14.926 15.008v30.754c0 8.288 6.683 15.008 14.926 15.008s14.926-6.719 14.926-15.008v-30.754c.001-8.289-6.682-15.008-14.926-15.008z" fill="#0e1830"/><path d="m424.711 364.87h-259.62l18.957-273.472 110.853-20.011 110.863 20.011z" fill="#f3f4ff"/><path d="m424.711 364.87h-129.81v-293.483l110.863 20.011z" fill="#e3e6ff"/><path d="m309.827 257.684v27.014h18.3c8.239 0 14.926 6.713 14.926 15.008 0 8.284-6.687 15.008-14.926 15.008h-18.3v34.888c0 8.284-6.677 15.008-14.926 15.008-8.239 0-14.926-6.724-14.926-15.008v-188.958c0-8.284 6.687-15.008 14.926-15.008 8.249 0 14.926 6.723 14.926 15.008v9.005h18.3c8.239 0 14.926 6.713 14.926 15.008 0 8.284-6.687 15.008-14.926 15.008h-18.3v28.005h18.3c8.239 0 14.926 6.723 14.926 15.008 0 8.294-6.687 15.008-14.926 15.008h-18.3z" fill="#e3e6ff"/><path d="m294.901 364.61v-218.974c8.249 0 14.926 6.723 14.926 15.008v9.005h18.3c8.239 0 14.926 6.713 14.926 15.008 0 8.284-6.687 15.008-14.926 15.008h-18.3v28.005h18.3c8.239 0 14.926 6.723 14.926 15.008 0 8.294-6.687 15.008-14.926 15.008h-18.3v27.014h18.3c8.239 0 14.926 6.713 14.926 15.008 0 8.284-6.687 15.008-14.926 15.008h-18.3v34.888c0 8.282-6.677 15.006-14.926 15.006z" fill="#cbd1f4"/><path d="m79.964 62.691c-5.231-6.407-14.636-7.337-21.008-2.077-6.372 5.259-7.297 14.716-2.066 21.122l226.475 277.385 37.288-2.033z" fill="#293456"/><path d="m104.827 71.127c-23.841 0-43.237 19.514-43.237 43.499 0 23.986 19.396 43.499 43.237 43.499s43.237-19.514 43.237-43.499c.001-23.985-19.395-43.499-43.237-43.499z" fill="#ffd400"/><path d="m405.764 91.398h-221.716l1.423-20.571c.746-10.826 6.886-20.311 16.409-25.393l78.523-41.812c4.537-2.421 9.513-3.622 14.498-3.622s9.961 1.201 14.498 3.622l78.523 41.812c9.523 5.083 15.663 14.568 16.419 25.393z" fill="#4de6ff"/><path d="m438.542 466.233h-287.282c-12.369 0-21.753-11.206-19.663-23.472l12.329-72.338c2.05-12.026 12.419-20.821 24.549-20.821h252.853c12.14 0 22.499 8.795 24.549 20.821l12.329 72.338c2.099 12.266-7.295 23.472-19.664 23.472z" fill="#4de6ff"/><path d="m438.542 466.233h-143.641v-116.631h126.426c12.14 0 22.499 8.795 24.549 20.821l12.329 72.338c2.1 12.266-7.294 23.472-19.663 23.472z" fill="#50b8ff"/><path d="m364.627 407.922c0 8.284-6.677 15.008-14.926 15.008h-109.6c-8.239 0-14.926-6.723-14.926-15.008 0-8.294 6.687-15.008 14.926-15.008h109.599c8.25.001 14.927 6.714 14.927 15.008z" fill="#fff"/><path d="m405.764 91.398h-110.863v-91.398c4.985 0 9.961 1.201 14.498 3.622l78.523 41.812c9.523 5.083 15.663 14.568 16.419 25.393z" fill="#50b8ff"/><path d="m364.627 407.922c0 8.284-6.677 15.008-14.926 15.008h-54.8v-30.016h54.8c8.249.001 14.926 6.714 14.926 15.008z" fill="#e3e6ff"/></svg>