<svg id="Capa_1" enable-background="new 0 0 512 512" height="512" viewBox="0 0 512 512" width="512" xmlns="http://www.w3.org/2000/svg"><path d="m412.71 28.76v454.34h-87.04l-45-10-45 10h-86.38v-454.34h86.38l45 20 45-20z" fill="#ffe67b"/><path d="m412.71 254.33v228.77h-87.04l-45-10-45 10h-86.38v-228.77z" fill="#ffd400"/><path d="m512 35.25v441.5c0 19.44-15.81 35.25-35.25 35.25h-48.79c-19.44 0-35.25-15.81-35.25-35.25v-441.5c0-19.44 15.81-35.25 35.25-35.25h48.79c19.44 0 35.25 15.81 35.25 35.25z" fill="#ff8a3c"/><path d="m512 254.33v222.42c0 19.44-15.81 35.25-35.25 35.25h-48.79c-19.44 0-35.25-15.81-35.25-35.25v-222.42z" fill="#e56705"/><path d="m235.67 28.76h90v454.34h-90z" fill="#ffd400"/><g fill="#fff"><path d="m453.353 60.234c-8.284 0-15 6.716-15 15v18.665c0 8.284 6.716 15 15 15s15-6.716 15-15v-18.665c0-8.284-6.716-15-15-15z"/><path d="m453.353 129.072c-8.284 0-15 6.716-15 15v18.666c0 8.284 6.716 15 15 15s15-6.716 15-15v-18.666c0-8.284-6.716-15-15-15z"/><path d="m453.353 197.91c-8.284 0-15 6.716-15 15v18.665c0 8.284 6.716 15 15 15s15-6.716 15-15v-18.665c0-8.284-6.716-15-15-15z"/></g><path d="m453.353 266.748c-8.284 0-15 6.716-15 15v18.665c0 8.284 6.716 15 15 15s15-6.716 15-15v-18.665c0-8.284-6.716-15-15-15z" fill="#f3f4ff"/><path d="m453.353 335.586c-8.284 0-15 6.716-15 15v18.666c0 8.284 6.716 15 15 15s15-6.716 15-15v-18.666c0-8.284-6.716-15-15-15z" fill="#f3f4ff"/><path d="m453.353 404.424c-8.284 0-15 6.716-15 15v18.665c0 8.284 6.716 15 15 15s15-6.716 15-15v-18.665c0-8.284-6.716-15-15-15z" fill="#f3f4ff"/><path d="m168.63 28.77v454.46c0 15.89-12.88 28.77-28.77 28.77h-66.72l-36.57-256 .24-1.67 36.33-254.33h66.72c15.89 0 28.77 12.88 28.77 28.77z" fill="#ff8a3c"/><path d="m36.81 254.33h131.82v228.9c0 15.89-12.88 28.77-28.77 28.77h-66.72l-36.57-256z" fill="#e56705"/><path d="m73.14 146.29-10 36.57 10 36.57v73.14l-10 36.57 10 36.57v73.15l-36.57 20-36.57-20v-73.15l10-36.57-10-36.57v-73.14l10-36.57-10-36.57v-73.15l36.57-20 36.57 20z" fill="#f3f4ff"/><path d="m0 254.33h73.14v38.24l-10 36.57 10 36.57v73.15l-36.57 20-36.57-20v-73.15l10-36.57-10-36.57z" fill="#e3e6ff"/><path d="m0 438.86h73.14v73.14h-36.47c-20.22 0-36.67-16.45-36.67-36.67z" fill="#0e1830"/><path d="m.001 292.571h73.143v73.143h-73.143z" fill="#0e1830" transform="matrix(0 -1 1 0 -292.57 365.716)"/><path d="m.001 146.286h73.143v73.143h-73.143z" fill="#293456" transform="matrix(0 -1 1 0 -146.285 219.43)"/><path d="m36.67 0h36.47v73.14h-73.14v-36.47c0-20.22 16.45-36.67 36.67-36.67z" fill="#293456"/><path d="m235.67 254.33h90v228.77h-90z" fill="#ffb600"/></svg>