<svg id="Capa_1" enable-background="new 0 0 512 512" height="512" viewBox="0 0 512 512" width="512" xmlns="http://www.w3.org/2000/svg"><path d="m125.751 300.239c0-8.284-6.685-15-14.931-15s-14.931 6.716-14.931 15v58.791c0 8.284 6.685 15 14.931 15s14.931-6.716 14.931-15v-14.396h33.731v-30h-33.731z" fill="#ffb600"/><path d="m125.751 205.996v-14.396c0-8.284-6.685-15-14.931-15s-14.931 6.716-14.931 15v58.791c0 8.284 6.685 15 14.931 15s14.931-6.716 14.931-15v-14.396h33.731v-30h-33.731z" fill="#ffb600"/><path d="m466.89 336.63c0 8.29-6.679 15-14.931 15h-79.723v14.4c0 8.28-6.679 15-14.931 15-8.242 0-14.931-6.72-14.931-15v-14.4h-29.784v15.42c0 8.29-6.689 15-14.931 15-8.252 0-14.931-6.71-14.931-15v-15.42h-79.723c-8.252 0-14.931-6.71-14.931-15 0-8.28 6.679-15 14.931-15h79.723v-13.37c0-8.28 6.679-15 14.931-15 8.242 0 14.931 6.72 14.931 15v13.37h29.783v-14.39c0-8.29 6.689-15 14.931-15 8.252 0 14.931 6.71 14.931 15v14.39h79.723c8.253 0 14.932 6.72 14.932 15z" fill="#e3e6ff"/><path d="m466.89 336.63c0 8.29-6.679 15-14.931 15h-79.723v14.4c0 8.28-6.679 15-14.931 15-8.242 0-14.931-6.72-14.931-15v-14.4h-29.784v15.42c0 8.29-6.689 15-14.931 15-8.252 0-14.931-6.71-14.931-15v-15.42h-9.874v-30h9.874v-13.37c0-8.28 6.679-15 14.931-15 8.242 0 14.931 6.72 14.931 15v13.37h29.783v-14.39c0-8.29 6.689-15 14.931-15 8.252 0 14.931 6.71 14.931 15v14.39h79.723c8.253 0 14.932 6.72 14.932 15z" fill="#cbd1f4"/><path d="m328.666 156.5h-38.951c-6.092 0-11.865-1.62-16.862-4.64-3.723-2.25-7.018-5.27-9.676-8.96-6.172-8.56-7.834-19.23-4.559-29.25 3.653-11.17 8.441-21.48 14.235-30.83 22.944-37.01 61.547-58.93 106.609-58.93 4.181 0 7.565-3.41 7.565-7.6s-3.385-7.59-7.565-7.59h-356.819c-4.171 0-7.555 3.4-7.555 7.59s3.384 7.6 7.555 7.6c36.532 0 69.57 14.47 93.032 40.76 22.984 25.75 35.646 61.07 35.646 99.45v170.15c0 78.48 51.005 145.24 121.531 168.73 17.559 5.85 36.323 9.02 55.813 9.02 97.781 0 177.335-79.74 177.335-177.75s-79.554-177.75-177.334-177.75zm-1.185 299.94c-19.67 0-38.244-4.79-54.629-13.27-38.493-19.92-64.872-60.2-64.872-106.54 0-46.33 26.379-86.61 64.872-106.53 16.385-8.48 34.959-13.27 54.629-13.27 65.897 0 119.5 53.75 119.5 119.8 0 66.06-53.603 119.81-119.5 119.81z" fill="#ffe67b"/><g fill="#ffd400"><path d="m272.853 82.82v-74.12h106.609c4.181 0 7.565 3.4 7.565 7.59s-3.385 7.6-7.565 7.6c-45.063 0-83.665 21.92-106.609 58.93z"/><path d="m506 334.25c0 98.01-79.554 177.75-177.334 177.75-19.49 0-38.254-3.17-55.813-9.02v-59.81c16.385 8.48 34.959 13.27 54.629 13.27 65.897 0 119.5-53.75 119.5-119.81 0-66.05-53.604-119.8-119.5-119.8-19.67 0-38.244 4.79-54.629 13.27v-78.24c4.997 3.02 10.77 4.64 16.862 4.64h38.951c97.78 0 177.334 79.74 177.334 177.75z"/><path d="m392.004 15c0 8.28-6.689 15-14.931 15h-356.142c-8.242 0-14.931-6.72-14.931-15s6.689-15 14.931-15h356.142c8.242 0 14.931 6.72 14.931 15z"/></g><path d="m377.073 30h-104.22v-30h104.221c8.242 0 14.931 6.72 14.931 15s-6.69 15-14.932 15z" fill="#ffb600"/></svg>