<svg id="Capa_1" enable-background="new 0 0 512 512" height="512" viewBox="0 0 512 512" width="512" xmlns="http://www.w3.org/2000/svg"><path d="m270.81 44.22v181c0 8.21-6.61 14.89-14.8 14.99-.07.01-.13.01-.2.01-8.29 0-15-6.72-15-15v-181c0-8.28 6.71-15 15-15 .07 0 .13 0 .2.01 8.19.1 14.8 6.78 14.8 14.99z" fill="#ffe67b"/><path d="m205.824 69.22c-8.284 0-15 6.716-15 15v141c0 8.284 6.716 15 15 15s15-6.716 15-15v-141c0-8.284-6.716-15-15-15z" fill="#ffe67b"/><path d="m305.807 69.22c-8.284 0-15 6.716-15 15v141c0 8.284 6.716 15 15 15s15-6.716 15-15v-141c0-8.284-6.716-15-15-15z" fill="#ffd400"/><path d="m56.18 69.22c-8.284 0-15 6.716-15 15v141c0 8.284 6.716 15 15 15s15-6.716 15-15v-141c0-8.284-6.716-15-15-15z" fill="#ffe67b"/><path d="m156.18 99.22c-8.284 0-15 6.716-15 15v111c0 8.284 6.716 15 15 15s15-6.716 15-15v-111c0-8.284-6.716-15-15-15z" fill="#ffe67b"/><path d="m106.18 29.22c-8.284 0-15 6.716-15 15v181c0 8.284 6.716 15 15 15s15-6.716 15-15v-181c0-8.284-6.716-15-15-15z" fill="#ffe67b"/><g fill="#ffd400"><path d="m455.84 69.22c-8.284 0-15 6.716-15 15v141c0 8.284 6.716 15 15 15s15-6.716 15-15v-141c0-8.284-6.716-15-15-15z"/><path d="m355.84 99.22c-8.284 0-15 6.716-15 15v111c0 8.284 6.716 15 15 15s15-6.716 15-15v-111c0-8.284-6.716-15-15-15z"/><path d="m405.84 29.22c-8.284 0-15 6.716-15 15v181c0 8.284 6.716 15 15 15s15-6.716 15-15v-181c0-8.284-6.716-15-15-15z"/><path d="m270.81 44.22v181c0 8.21-6.61 14.89-14.8 14.99v-210.98c8.19.1 14.8 6.78 14.8 14.99z"/></g><path d="m24.999 225.78h461.982v82.3h-461.982z" fill="#ff8a3c"/><path d="m256.01 225.78h230.971v82.3h-230.971z" fill="#e56705"/><path d="m486.981 308.08v159.7h-461.982v-159.7l230.991-20h.02z" fill="#e56705"/><path d="m486.981 308.08v159.7h-230.971v-179.7z" fill="#bc4f04"/><path d="m220.991 414.29v53.49h-29.999v-53.49c0-8.28 6.72-15 14.999-15 8.291 0 15 6.72 15 15z" fill="#ffe67b"/><path d="m270.989 414.29v53.49h-29.999v-53.49c0-8.28 6.72-15 14.999-15h.02c8.281.01 14.98 6.73 14.98 15z" fill="#ffe67b"/><path d="m320.987 414.29v53.49h-29.999v-53.49c0-8.28 6.72-15 14.999-15 8.291 0 15 6.72 15 15z" fill="#ffd400"/><path d="m270.989 414.29v53.49h-14.979v-68.49c8.28.01 14.979 6.73 14.979 15z" fill="#ffd400"/><path d="m511.98 225.78c0 8.29-6.71 15-14.999 15h-481.982c-8.28 0-14.999-6.71-14.999-15 0-8.28 6.72-15 14.999-15h481.981c8.29 0 15 6.72 15 15z" fill="#293456"/><path d="m511.98 467.78c0 8.29-6.71 15-14.999 15h-481.982c-8.28 0-14.999-6.71-14.999-15 0-8.28 6.72-15 14.999-15h481.981c8.29 0 15 6.72 15 15z" fill="#293456"/><path d="m458.862 308.08-19.999 36.57h-73.147l-36.569-10-36.568 10h-73.138l-36.568-10-36.569 10h-73.147l-19.999-36.57 19.999-36.57h73.147l36.569 10 36.568-10h73.138l36.568 10 36.569-10h73.147z" fill="#f3f4ff"/><path d="m458.862 308.08-19.999 36.57h-73.147l-36.569-10-36.568 10h-36.569v-73.14h36.569l36.568 10 36.569-10h73.147z" fill="#e3e6ff"/><path d="m73.157 271.51v73.14h-45.704c-15.151 0-27.433-12.283-27.433-27.434v-18.271c0-15.152 12.282-27.434 27.433-27.434h45.704z" fill="#293456"/><path d="m146.3 271.511h73.14v73.143h-73.14z" fill="#293456"/><path d="m292.58 271.511h73.14v73.143h-73.14z" fill="#0e1830"/><path d="m512 298.945v18.272c0 15.152-12.282 27.434-27.433 27.434h-45.704v-73.14h45.704c15.151-.001 27.433 12.282 27.433 27.434z" fill="#0e1830"/><path d="m511.98 467.78c0 8.29-6.71 15-14.999 15h-240.971v-30h240.971c8.289 0 14.999 6.72 14.999 15z" fill="#0e1830"/><path d="m496.981 240.78h-240.971v-30h240.971c8.29 0 14.999 6.72 14.999 15 0 8.29-6.71 15-14.999 15z" fill="#0e1830"/></svg>