<svg id="Capa_1" enable-background="new 0 0 512 512" height="512" viewBox="0 0 512 512" width="512" xmlns="http://www.w3.org/2000/svg"><path d="m512 117.88v276.23c0 37.43-30.45 67.89-67.89 67.89h-376.22c-37.43 0-67.89-30.46-67.89-67.89v-276.23c0-37.43 30.46-67.88 67.89-67.88h376.22c37.44 0 67.89 30.45 67.89 67.88z" fill="#293456"/><path d="m512 255.07v139.04c0 37.43-30.45 67.89-67.89 67.89h-376.22c-37.43 0-67.89-30.46-67.89-67.89v-139.04z" fill="#0e1830"/><path d="m257.659 285.538v118.434h-86.127c-6.797 0-12.307-5.51-12.307-12.307v-86.127z" fill="#ffd400"/><path d="m257.659 108.005v118.434l-98.434-20v-86.127c0-6.797 5.51-12.307 12.307-12.307z" fill="#ffe67b"/><path d="m356.09 186.7v118.44l-98.43 20v-118.44z" fill="#ffe67b"/><path d="m356.09 255.07v50.07l-98.43 20v-70.07z" fill="#ffd400"/><path d="m454.527 305.538v86.127c0 6.797-5.51 12.307-12.307 12.307h-86.127v-118.434z" fill="#ffd400"/><path d="m454.527 120.312v86.127l-98.434 20v-118.434h86.127c6.797 0 12.307 5.51 12.307 12.307z" fill="#ffe67b"/><path d="m159.22 206.7h98.44v98.44h-98.44z" fill="#ff8a3c"/><path d="m257.659 305.538h98.434v98.434h-98.434z" fill="#e56705" transform="matrix(0 -1 1 0 -47.879 661.63)"/><path d="m257.659 108.005h98.434v98.434h-98.434z" fill="#ff8a3c" transform="matrix(0 -1 1 0 149.654 464.098)"/><path d="m356.09 206.7h98.44v98.44h-98.44z" fill="#ff8a3c"/><path d="m58.191 353.808c-8.284 0-15 6.716-15 15v18.788c0 8.284 6.716 15 15 15s15-6.716 15-15v-18.788c0-8.284-6.716-15-15-15z" fill="#ffd400"/><path d="m58.191 285.005c-8.284 0-15 6.716-15 15v18.788c0 8.284 6.716 15 15 15s15-6.716 15-15v-18.788c0-8.284-6.716-15-15-15z" fill="#e3e6ff"/><path d="m73.19 191.61v63.79c0 8.28-6.72 15-15 15s-15-6.72-15-15v-63.79c0-8.28 6.72-15 15-15s15 6.72 15 15z" fill="#f3f4ff"/><path d="m58.191 107.808c-8.284 0-15 6.716-15 15v18.788c0 8.284 6.716 15 15 15s15-6.716 15-15v-18.788c0-8.284-6.716-15-15-15z" fill="#ffe67b"/><path d="m103.191 108.005c-8.284 0-15 6.716-15 15v18.788c0 8.284 6.716 15 15 15s15-6.716 15-15v-18.788c0-8.284-6.716-15-15-15z" fill="#ffe67b"/><path d="m103.191 176.808c-8.284 0-15 6.716-15 15v18.788c0 8.284 6.716 15 15 15s15-6.716 15-15v-18.788c0-8.284-6.716-15-15-15z" fill="#f3f4ff"/><path d="m118.19 255.07v63.92c0 8.28-6.72 15-15 15s-15-6.72-15-15v-63.92c.07-8.22 6.76-14.87 15-14.87s14.93 6.65 15 14.87z" fill="#f3f4ff"/><path d="m103.191 354.005c-8.284 0-15 6.716-15 15v18.788c0 8.284 6.716 15 15 15s15-6.716 15-15v-18.788c0-8.284-6.716-15-15-15z" fill="#ffd400"/><path d="m43.19 255.07h30v.33c0 8.28-6.72 15-15 15s-15-6.72-15-15z" fill="#e3e6ff"/><path d="m88.19 255.07h30v63.92c0 8.28-6.72 15-15 15s-15-6.72-15-15z" fill="#e3e6ff"/><g fill="#e56705"><path d="m159.22 255.07h98.44v50.07h-98.44z"/><path d="m356.09 255.07h98.44v50.07h-98.44z"/></g></svg>