<svg id="Capa_1" enable-background="new 0 0 512 512" height="512" viewBox="0 0 512 512" width="512" xmlns="http://www.w3.org/2000/svg"><path d="m182.639 512c-50.403 0-96.117-20.519-129.189-53.633-33-33.044-53.45-78.634-53.45-128.903 0-100.651 81.933-182.536 182.639-182.536 37.215-.007 75.194 13.09 105.72 34.132l1.853 1.682 19.537 19.43 17.466 17.359 3.719 3.93c21.411 30.69 34.337 68.463 34.344 106.002.001 100.652-81.932 182.537-182.639 182.537z" fill="#ffd400"/><path d="m183.346 511.293c-50.403 0-96.117-20.519-129.189-53.633l256.299-256.194 17.466 17.359 3.719 3.93c21.411 30.69 34.337 68.463 34.344 106.002.001 100.651-81.932 182.536-182.639 182.536z" fill="#ffb600"/><path d="m182.632 462.798c-36.84 0-70.23-14.999-94.392-39.207-24.091-24.138-39.011-57.429-39.011-94.127 0-73.523 59.85-133.334 133.403-133.334 23.511-.007 50.113 8.574 70.343 20.3l1.329 1.711 19.82 19.642 20.117 19.939 1.584.834c12.12 20.47 20.223 47.004 20.223 70.908-.006 73.516-59.848 133.334-133.416 133.334z" fill="#ffe67b"/><path d="m182.632 462.798c-36.84 0-70.23-14.999-94.392-39.207l185.885-185.809 20.117 19.939 1.584.834c12.12 20.47 20.223 47.004 20.223 70.908-.007 73.517-59.849 133.335-133.417 133.335z" fill="#ffd400"/><path d="m200.14 380.27c-2.934 2.933-6.781 4.403-10.621 4.396-3.833 0-7.665-1.456-10.593-4.368l-23.724-23.643-23.462-23.396c-5.869-5.838-5.883-15.338-.035-21.197 5.855-5.867 15.351-5.874 21.22-.035l23.49 23.424 23.695 23.615c5.864 5.845 5.885 15.337.03 21.204z" fill="#fff"/><path d="m445.396 109.048-211.67 211.583c-4.205 4.203-11.008 4.196-15.206 0l-27.297-27.286c-4.198-4.196-4.198-10.989 0-15.185l211.678-211.59 35.402 7.083v.014z" fill="#e56705"/><path d="m445.396 109.048-211.67 211.583c-4.205 4.203-11.008 4.196-15.206 0l-13.641-13.636 233.424-233.327z" fill="#bc4f04"/><path d="m499.161 105.319c-5.861 5.859-15.369 5.866-21.237 0l-71.293-71.264c-5.861-5.859-5.861-15.369 0-21.228s15.376-5.859 21.237 0l71.293 71.264c5.869 5.866 5.862 15.369 0 21.228z" fill="#293456"/><path d="m499.161 105.319c-5.861 5.859-15.369 5.866-21.237 0l-35.643-35.628 21.237-21.228 35.643 35.628c5.869 5.866 5.862 15.369 0 21.228z" fill="#0e1830"/><path d="m503.409 72.259-58.013 36.789-42.495-42.478 36.804-57.989c6.343-9.992 20.317-11.534 28.698-3.17l38.184 38.169c8.367 8.364 6.824 22.332-3.178 28.679z" fill="#ffd400"/><path d="m445.396 109.048-21.244-21.235 63.343-63.317 19.092 19.084c8.367 8.364 6.824 22.332-3.178 28.68z" fill="#ffb600"/><path d="m200.14 380.27c-2.934 2.933-6.781 4.403-10.621 4.396-3.833 0-7.665-1.456-10.593-4.368l-23.724-23.643 21.213-21.205 23.695 23.615c5.864 5.846 5.885 15.338.03 21.205z" fill="#f3f4ff"/></svg>