<svg id="Capa_1" enable-background="new 0 0 512 512" height="512" viewBox="0 0 512 512" width="512" xmlns="http://www.w3.org/2000/svg"><path d="m470.74 71.06-.02.12-45.23 376.1c-1.65 15.52-14.64 27.22-30.26 27.22h-278.46c-15.62 0-28.61-11.7-30.26-27.22l-45.25-376.22c-.88-8.55 1.91-17.12 7.67-23.51s13.99-10.05 22.59-10.05h368.96c8.6 0 16.83 3.66 22.59 10.05s8.55 14.96 7.67 23.51z" fill="#ff8a3c"/><path d="m470.74 71.06-.02.12-45.23 376.1c-1.65 15.52-14.64 27.22-30.26 27.22h-139.43v-437h184.68c8.6 0 16.83 3.66 22.59 10.05s8.55 14.96 7.67 23.51z" fill="#e56705"/><path d="m497 119.938h-98.672c-8.284 0-15 6.716-15 15s6.716 15 15 15h98.672c8.284 0 15-6.716 15-15 0-8.285-6.716-15-15-15z" fill="#bc4f04"/><path d="m356.43 134.94c0 8.28-6.72 15-15 15h-171.26c-8.28 0-15-6.72-15-15 0-8.29 6.72-15 15-15h171.26c8.28 0 15 6.71 15 15z" fill="#e56705"/><path d="m128.271 134.938c0-8.284-6.716-15-15-15h-98.271c-8.284 0-15 6.716-15 15s6.716 15 15 15h98.271c8.284 0 15-6.716 15-15z" fill="#e56705"/><path d="m477 236.601h-98.672c-8.284 0-15 6.716-15 15s6.716 15 15 15h98.672c8.284 0 15-6.716 15-15s-6.716-15-15-15z" fill="#bc4f04"/><path d="m336.43 251.6c0 8.29-6.72 15-15 15h-131.26c-8.28 0-15-6.71-15-15 0-8.28 6.72-15 15-15h131.26c8.28 0 15 6.72 15 15z" fill="#e56705"/><path d="m148.271 251.601c0-8.284-6.716-15-15-15h-98.271c-8.284 0-15 6.716-15 15s6.716 15 15 15h98.271c8.284 0 15-6.716 15-15z" fill="#e56705"/><path d="m457 353.601h-98.672c-8.284 0-15 6.716-15 15s6.716 15 15 15h98.672c8.284 0 15-6.716 15-15s-6.716-15-15-15z" fill="#bc4f04"/><path d="m316.43 368.6c0 8.29-6.72 15-15 15h-91.26c-8.28 0-15-6.71-15-15 0-8.28 6.72-15 15-15h91.26c8.28 0 15 6.72 15 15z" fill="#e56705"/><path d="m153.271 353.601h-98.271c-8.284 0-15 6.716-15 15s6.716 15 15 15h98.271c8.284 0 15-6.716 15-15s-6.716-15-15-15z" fill="#e56705"/><g fill="#bc4f04"><path d="m316.43 368.6c0 8.29-6.72 15-15 15h-45.63v-30h45.63c8.28 0 15 6.72 15 15z"/><path d="m336.43 251.6c0 8.29-6.72 15-15 15h-65.63v-30h65.63c8.28 0 15 6.72 15 15z"/><path d="m356.43 134.94c0 8.28-6.72 15-15 15h-85.63v-30h85.63c8.28 0 15 6.71 15 15z"/></g><path d="m177.672 134.938c0-19.837-16.127-35.976-35.95-35.976s-35.951 16.139-35.951 35.976 16.128 35.977 35.951 35.977 35.95-16.14 35.95-35.977z" fill="#ffd400"/><path d="m369.878 98.961c-19.823 0-35.95 16.139-35.95 35.976s16.127 35.977 35.95 35.977 35.95-16.139 35.95-35.977c0-19.837-16.127-35.976-35.95-35.976z" fill="#ffb600"/><path d="m197.672 251.601c0-19.837-16.127-35.977-35.95-35.977s-35.951 16.139-35.951 35.977 16.128 35.976 35.951 35.976 35.95-16.139 35.95-35.976z" fill="#ffd400"/><path d="m349.878 215.625c-19.823 0-35.95 16.139-35.95 35.977s16.127 35.976 35.95 35.976 35.95-16.139 35.95-35.976-16.127-35.977-35.95-35.977z" fill="#ffb600"/><path d="m181.722 332.625c-19.823 0-35.951 16.139-35.951 35.977s16.128 35.976 35.951 35.976 35.95-16.139 35.95-35.976-16.127-35.977-35.95-35.977z" fill="#ffd400"/><path d="m329.878 332.625c-19.823 0-35.95 16.139-35.95 35.977s16.127 35.976 35.95 35.976 35.95-16.139 35.95-35.976-16.127-35.977-35.95-35.977z" fill="#ffb600"/></svg>