<svg id="Capa_1" enable-background="new 0 0 512 512" height="512" viewBox="0 0 512 512" width="512" xmlns="http://www.w3.org/2000/svg"><path d="m428.271 297.276c0-57.049-22.045-110.688-62.08-151.164-.205-.219-.424-.439-.636-.651-40.452-40.554-94.215-62.894-151.427-62.887-57.198-.007-110.961 22.333-151.413 62.887-40.437 40.554-62.715 94.469-62.715 151.815 0 57.361 22.278 111.275 62.716 151.829l.466.467c40.395 40.258 93.975 62.428 150.954 62.428 57.205 0 110.968-22.34 151.42-62.894 40.437-40.555 62.715-94.469 62.715-151.83zm-263.129 50.242-.028-.028c-27.027-27.123-27.02-71.089.028-98.219 27.055-27.138 70.933-27.138 97.988 0l.028.028c27.027 27.138 27.02 71.103-.028 98.219-27.055 27.138-70.934 27.138-97.988 0z" fill="#293456"/><path d="m365.555 449.106c-40.451 40.554-94.215 62.894-151.419 62.894-56.978 0-110.558-22.17-150.953-62.427l101.93-102.083.028.028c27.055 27.138 70.933 27.138 97.988 0 27.048-27.116 27.055-71.082.028-98.219l103.033-103.187c40.035 40.477 62.08 94.115 62.08 151.164.001 57.361-22.277 111.275-62.715 151.83z" fill="#0e1830"/><path d="m329.35 297.871c0-30.711-11.871-59.597-33.449-81.364-.092-.106-.191-.205-.29-.304-21.756-21.83-50.697-33.846-81.468-33.853-63.536 0-115.222 51.834-115.222 115.521 0 30.853 11.976 59.859 33.739 81.668l.226.226c21.727 21.689 50.584 33.62 81.249 33.62 63.529.006 115.215-51.828 115.215-115.514zm-140.354 25.729c-.007-.007-.007-.007-.014-.014-13.863-13.926-13.856-36.478.021-50.39 13.877-13.926 36.389-13.926 50.266 0l.014.014c13.87 13.919 13.863 36.471-.007 50.39-13.885 13.919-36.396 13.919-50.28 0z" fill="#4de6ff"/><path d="m347.093 186.595c-2.925 2.93-6.769 4.401-10.599 4.401-3.844 0-7.666-1.465-10.599-4.387l-.071-.071c-5.787-5.866-5.766-15.313.064-21.165l120.973-121.266c5.858-5.866 15.333-5.873 21.197-.014l.007.007c5.85 5.859 5.858 15.363.007 21.222z" fill="#f3f4ff"/><path d="m347.093 186.595c-2.925 2.93-6.769 4.401-10.599 4.401-3.844 0-7.666-1.465-10.599-4.387l-.071-.071 142.235-142.446.007.007c5.85 5.859 5.858 15.363.007 21.222z" fill="#e3e6ff"/><path d="m496.258 92.148c-10.168 10.197-23.685 15.809-38.07 15.809s-27.903-5.612-38.07-15.809l-.021-.021c-20.964-21.052-20.964-55.273.014-76.311l.028-.028c10.16-10.176 23.677-15.788 38.049-15.788 14.386 0 27.91 5.619 38.078 15.816.007.007.007.007.014.014 20.971 21.045 20.957 55.28-.022 76.318z" fill="#ffe67b"/><path d="m420.117 92.148-.021-.021 76.184-76.297c20.971 21.045 20.957 55.28-.021 76.318-10.168 10.197-23.685 15.809-38.07 15.809s-27.904-5.612-38.072-15.809z" fill="#ffd400"/><path d="m214.136 413.384c-30.665 0-59.522-11.931-81.249-33.62l56.095-56.179.014.014c13.884 13.919 36.396 13.919 50.28 0 13.87-13.919 13.877-36.471.007-50.39l56.618-56.703c21.579 21.767 33.449 50.652 33.449 81.364 0 63.687-51.686 115.521-115.214 115.514z" fill="#50b8ff"/></svg>