<svg id="Capa_1" enable-background="new 0 0 512 512" height="512" viewBox="0 0 512 512" width="512" xmlns="http://www.w3.org/2000/svg"><path d="m405.25 506.367c-5.17 6.47-14.61 7.52-21.08 2.35l-113.17-90.478v78.759c0 8.28-6.72 15-15 15s-15-6.72-15-15v-78.759l-113.17 90.479c-2.77 2.21-6.07 3.28-9.36 3.28-4.4 0-8.76-1.93-11.72-5.63-5.18-6.47-4.13-15.91 2.34-21.09l131.91-105.449v-364.824c0-8.28 6.72-15 15-15s15 6.72 15 15v364.824l131.9 105.448c6.48 5.181 7.53 14.62 2.35 21.09z" fill="#293456"/><path d="m405.25 506.367c-5.17 6.47-14.61 7.52-21.08 2.35l-113.17-90.478v78.759c0 8.28-6.72 15-15 15v-511.993c8.28 0 15 6.72 15 15v364.824l131.9 105.448c6.48 5.181 7.53 14.62 2.35 21.09z" fill="#0e1830"/><path d="m423.5 188.892h-17.65v-133.917c0-8.28-6.71-15-15-15h-269.7c-8.29 0-15 6.72-15 15v133.918h-17.65c-8.28 0-15 6.72-15 15 0 8.29 6.72 15 15 15h335c8.28 0 15-6.71 15-15 0-8.281-6.72-15.001-15-15.001zm-47.65 0h-239.7v-118.918h239.7z" fill="#ffd400"/><path d="m438.5 203.892c0 8.29-6.72 15-15 15h-167.5v-30h119.85v-118.918h-119.85v-30h134.85c8.29 0 15 6.72 15 15v133.918h17.65c8.28 0 15 6.72 15 15z" fill="#ffb600"/><path d="m438.5 144.423c0 8.29-6.72 15-15 15h-335c-8.28 0-15-6.71-15-15 0-8.28 6.72-15 15-15h98.83l-24.89-111.138c-1.81-8.09 3.27-16.11 11.36-17.92 8.08-1.81 16.1 3.28 17.91 11.36l26.37 117.698h75.84l26.37-117.698c1.81-8.08 9.83-13.17 17.91-11.36 8.09 1.81 13.17 9.83 11.36 17.92l-24.89 111.138h98.83c8.28 0 15 6.72 15 15z" fill="#293456"/><path d="m438.5 144.423c0 8.29-6.72 15-15 15h-167.5v-30h37.92l26.37-117.698c1.81-8.08 9.83-13.17 17.91-11.36 8.09 1.81 13.17 9.83 11.36 17.92l-24.89 111.138h98.83c8.28 0 15 6.72 15 15z" fill="#0e1830"/></svg>