<svg id="Capa_1" enable-background="new 0 0 512 512" height="512" viewBox="0 0 512 512" width="512" xmlns="http://www.w3.org/2000/svg"><path d="m171.455 498.588c-8.34 8.645-19.56 13.412-31.58 13.412-12.03 0-23.24-4.767-31.58-13.412-8.33-8.625-12.67-19.978-12.24-31.95l8.11-220.972c.15-4.028 3.46-7.216 7.5-7.216h56.42c4.04 0 7.35 3.188 7.5 7.216l8.1 220.962c.44 11.983-3.9 23.326-12.23 31.96z" fill="#e56705"/><path d="m183.685 466.628c.44 11.983-3.9 23.325-12.23 31.96-8.34 8.645-19.56 13.412-31.58 13.412v-273.549h28.21c4.04 0 7.35 3.188 7.5 7.216z" fill="#bc4f04"/><path d="m251.925 65.609-.01 125.132c-22.01 39.116-63.99 65.599-112.04 65.599-48.06 0-90.03-26.483-112.04-65.599l-.01-125.132c22.01-39.116 63.99-65.609 112.05-65.609s90.03 26.493 112.05 65.609z" fill="#ff8a3c"/><path d="m251.925 65.609-.01 125.132c-22.01 39.116-63.99 65.599-112.04 65.599v-256.34c48.06 0 90.03 26.493 112.05 65.609z" fill="#e56705"/><path d="m268.285 128.17c0 22.706-5.95 44.052-16.37 62.571h-224.08c-10.42-18.518-16.37-39.865-16.37-62.571 0-22.696 5.94-44.042 16.36-62.561h224.1c10.42 18.518 16.36 39.865 16.36 62.561z" fill="#ffd400"/><path d="m268.285 128.17c0 22.706-5.95 44.052-16.37 62.571h-112.04v-125.132h112.05c10.42 18.518 16.36 39.865 16.36 62.561z" fill="#ffb600"/><path d="m172.155 128.17c0 8.285-6.72 14.991-15 14.991h-34.56c-8.29 0-15-6.706-15-14.991 0-8.275 6.71-14.991 15-14.991h34.56c8.28 0 15 6.716 15 14.991z" fill="#fff"/><path d="m172.155 128.17c0 8.285-6.72 14.991-15 14.991h-17.28v-29.981h17.28c8.28-.001 15 6.715 15 14.99z" fill="#f3f4ff"/><path d="m403.705 13.412c-8.34-8.645-19.56-13.412-31.58-13.412-12.03 0-23.24 4.767-31.58 13.412-8.33 8.625-12.67 19.978-12.24 31.95l8.11 220.972c.15 4.028 3.46 7.216 7.5 7.216h56.42c4.04 0 7.35-3.188 7.5-7.216l8.1-220.962c.44-11.983-3.9-23.326-12.23-31.96z" fill="#e56705"/><path d="m415.935 45.372c.44-11.983-3.9-23.325-12.23-31.96-8.34-8.645-19.56-13.412-31.58-13.412v273.549h28.21c4.04 0 7.35-3.188 7.5-7.216z" fill="#bc4f04"/><path d="m484.175 446.391-.01-125.132c-22.01-39.116-63.99-65.599-112.04-65.599-48.06 0-90.03 26.483-112.04 65.599l-.01 125.132c22.01 39.116 63.99 65.609 112.05 65.609s90.03-26.493 112.05-65.609z" fill="#ff8a3c"/><path d="m484.175 446.391-.01-125.132c-22.01-39.116-63.99-65.599-112.04-65.599v256.34c48.06 0 90.03-26.493 112.05-65.609z" fill="#e56705"/><path d="m500.535 383.83c0-22.706-5.95-44.052-16.37-62.571h-224.08c-10.42 18.518-16.37 39.865-16.37 62.571 0 22.696 5.94 44.042 16.36 62.561h224.1c10.42-18.518 16.36-39.865 16.36-62.561z" fill="#ffd400"/><path d="m500.535 383.83c0-22.706-5.95-44.052-16.37-62.571h-112.04v125.132h112.05c10.42-18.518 16.36-39.865 16.36-62.561z" fill="#ffb600"/><path d="m404.405 383.83c0-8.285-6.72-14.991-15-14.991h-34.56c-8.29 0-15 6.706-15 14.991 0 8.275 6.71 14.991 15 14.991h34.56c8.28 0 15-6.716 15-14.991z" fill="#fff"/><path d="m404.405 383.83c0-8.285-6.72-14.991-15-14.991h-17.28v29.981h17.28c8.28.001 15-6.715 15-14.99z" fill="#f3f4ff"/></svg>