<svg id="Capa_1" enable-background="new 0 0 512 512" height="512" viewBox="0 0 512 512" width="512" xmlns="http://www.w3.org/2000/svg"><path d="m512 301.119v30l-256 30-256-30v-30l256-30z" fill="#4de6ff"/><path d="m512 301.119v30l-256 30v-90z" fill="#50b8ff"/><path d="m512 97.906v80.07l-256 20-256-20v-80.07c0-22.15 18.02-40.17 40.17-40.17h431.66c22.15 0 40.17 18.02 40.17 40.17z" fill="#4de6ff"/><path d="m512 97.906v80.07l-256 20v-140.24h215.83c22.15 0 40.17 18.02 40.17 40.17z" fill="#50b8ff"/><path d="m72.48 102.661h-18.787c-8.284 0-15 6.716-15 15s6.716 15 15 15h18.787c8.284 0 15-6.716 15-15s-6.715-15-15-15z" fill="#ffe67b"/><path d="m142.48 102.661h-18.788c-8.284 0-15 6.716-15 15s6.716 15 15 15h18.788c8.284 0 15-6.716 15-15s-6.715-15-15-15z" fill="#fff"/><path d="m398.09 117.426c0 8.29-6.72 15-15 15h-183.79c-8.29 0-15-6.71-15-15 0-8.28 6.71-15 15-15h183.79c8.28 0 15 6.72 15 15z" fill="#fff"/><path d="m458.087 102.428h-18.788c-8.284 0-15 6.716-15 15s6.716 15 15 15h18.788c8.284 0 15-6.716 15-15s-6.716-15-15-15z" fill="#ffd400"/><path d="m398.09 117.426c0 8.29-6.72 15-15 15h-127.09v-30h127.09c8.28 0 15 6.72 15 15z" fill="#f3f4ff"/><path d="m458.86 264.55-20-86.57h-73.15l-36.57 10-36.57-10h-73.14l-36.57 10-36.57-10h-73.15l-20 86.57 20 36.57h73.15l36.57-10 36.57 10h73.14l36.57-10 36.57 10h73.15z" fill="#f3f4ff"/><path d="m458.86 264.55-20-86.57h-73.15l-36.57 10-36.57-10h-36.57v123.14h36.57l36.57-10 36.57 10h73.15z" fill="#e3e6ff"/><path d="m0 177.98h73.14v123.14h-73.14z" fill="#293456"/><path d="m146.286 177.976h73.143v123.143h-73.143z" fill="#293456"/><path d="m292.571 177.976h73.143v123.143h-73.143z" fill="#0e1830"/><path d="m438.86 177.98h73.14v123.14h-73.14z" fill="#0e1830"/><path d="m458.86 417.694-20-86.57h-73.15l-36.57 10-36.57-10h-73.14l-36.57 10-36.57-10h-73.15l-20 86.57 20 36.57h73.15l36.57-10 36.57 10h73.14l36.57-10 36.57 10h73.15z" fill="#f3f4ff"/><path d="m458.86 417.694-20-86.57h-73.15l-36.57 10-36.57-10h-36.57v123.14h36.57l36.57-10 36.57 10h73.15z" fill="#e3e6ff"/><path d="m73.14 454.264v-123.14h-73.14v89.93c0 18.341 14.869 33.21 33.21 33.21z" fill="#293456"/><path d="m146.286 331.12h73.143v123.143h-73.143z" fill="#293456"/><g fill="#0e1830"><path d="m292.571 331.12h73.143v123.143h-73.143z"/><path d="m512 421.054v-89.93h-73.14v123.14h39.93c18.341 0 33.21-14.868 33.21-33.21z"/></g></svg>