<svg id="Capa_1" enable-background="new 0 0 512 512" height="512" viewBox="0 0 512 512" width="512" xmlns="http://www.w3.org/2000/svg"><path d="m512 194.97c0 107.5-87.46 194.96-194.97 194.96-107.5 0-194.96-87.46-194.96-194.96 0-107.51 87.46-194.97 194.96-194.97 107.51 0 194.97 87.46 194.97 194.97z" fill="#ff8a3c"/><path d="m512 194.97c0 107.5-87.46 194.96-194.97 194.96v-389.93c107.51 0 194.97 87.46 194.97 194.97z" fill="#e56705"/><path d="m442.37 194.97c0 69.11-56.22 125.34-125.34 125.34-69.11 0-125.34-56.23-125.34-125.34 0-69.12 56.23-125.34 125.34-125.34 69.12 0 125.34 56.22 125.34 125.34z" fill="#e56705"/><path d="m442.37 194.97c0 69.11-56.22 125.34-125.34 125.34v-250.68c69.12 0 125.34 56.22 125.34 125.34z" fill="#bc4f04"/><path d="m389.93 317.03c0 107.51-87.46 194.97-194.96 194.97-107.51 0-194.97-87.46-194.97-194.97 0-107.5 87.46-194.96 194.97-194.96 107.5 0 194.96 87.46 194.96 194.96z" fill="#ffe67b"/><path d="m389.93 317.03c0 107.51-87.46 194.97-194.96 194.97v-389.93c107.5 0 194.96 87.46 194.96 194.96z" fill="#ffd400"/><path d="m320.31 317.03c0 69.12-56.23 125.34-125.34 125.34-69.12 0-125.34-56.22-125.34-125.34 0-69.11 56.22-125.34 125.34-125.34 69.11 0 125.34 56.23 125.34 125.34z" fill="#ffd400"/><path d="m320.31 317.03c0 69.12-56.23 125.34-125.34 125.34v-250.68c69.11 0 125.34 56.23 125.34 125.34z" fill="#ffb600"/><path d="m209.97 287.55v58.96c0 8.29-6.72 15-15 15-8.29 0-15-6.71-15-15v-58.96c0-8.28 6.71-15 15-15 8.28 0 15 6.72 15 15z" fill="#e56705"/><path d="m209.97 287.55v58.96c0 8.29-6.72 15-15 15v-88.96c8.28 0 15 6.72 15 15z" fill="#bc4f04"/></svg>