<svg id="Capa_1" enable-background="new 0 0 512 512" height="512" viewBox="0 0 512 512" width="512" xmlns="http://www.w3.org/2000/svg"><path d="m405.47 461.925c-2.97 3.7-7.33 5.63-11.73 5.63-3.28 0-6.59-1.07-9.36-3.29l-113.11-90.46v78.75c0 8.28-6.71 15-15 15-.09 0-.18 0-.27-.01-8.16-.14-14.73-6.8-14.73-14.99v-78.75l-113.11 90.46c-6.47 5.18-15.91 4.13-21.08-2.34-5.18-6.47-4.13-15.91 2.34-21.08l131.85-105.46v-160.94h-54.97c-8.28 0-15-6.71-15-15 0-8.28 6.72-15 15-15h139.4c8.28 0 15 6.72 15 15 0 8.29-6.72 15-15 15h-54.43v160.94l131.85 105.46c6.47 5.169 7.52 14.609 2.35 21.08z" fill="#293456"/><path d="m405.47 461.925c-2.97 3.7-7.33 5.63-11.73 5.63-3.28 0-6.59-1.07-9.36-3.29l-113.11-90.46v78.75c0 8.28-6.71 15-15 15-.09 0-.18 0-.27-.01v-323.1h69.7c8.28 0 15 6.72 15 15 0 8.29-6.72 15-15 15h-54.43v160.94l131.85 105.46c6.47 5.169 7.52 14.609 2.35 21.08z" fill="#0e1830"/><path d="m0 303.815v14.581c0 8.077 6.207 15.027 14.275 15.407 8.614.405 15.725-6.459 15.725-14.984v-35.005z" fill="#e56705"/><path d="m171.301 283.815v35.005c0 8.284 6.716 15 15 15s15-6.716 15-15v-15.005z" fill="#bc4f04"/><path d="m201.303 110.565v193.25h-201.3v-193.25l57.03-17 30-8.94 13.62-4.06 13.62 4.06 30 8.94z" fill="#ff8a3c"/><path d="m201.303 110.565v193.25h-100.65v-223.25l13.62 4.06 30 8.94z" fill="#e56705"/><path d="m87.033 84.625v234.19c0 8.29-6.72 15-15 15-8.29 0-15-6.71-15-15v-225.25z" fill="#e56705"/><path d="m144.273 93.565v225.25c0 8.29-6.72 15-15 15s-15-6.71-15-15v-234.19z" fill="#bc4f04"/><path d="m201.303 85.565v25h-201.3v-25c0-22.67 18.45-41.12 41.12-41.12h119.05c22.68 0 41.13 18.45 41.13 41.12z" fill="#f3f4ff"/><path d="m201.303 85.565v25h-100.65v-66.12h59.52c22.68 0 41.13 18.45 41.13 41.12z" fill="#e3e6ff"/><path d="m310.697 303.815v14.581c0 8.077 6.207 15.027 14.275 15.407 8.614.406 15.725-6.458 15.725-14.983v-35.005z" fill="#e56705"/><path d="m481.998 283.815v35.005c0 8.284 6.716 15 15 15s15-6.716 15-15v-15.005z" fill="#bc4f04"/><path d="m512 110.565v193.25h-201.3v-193.25l57.03-17 30-8.94 13.62-4.06 13.62 4.06 30 8.94z" fill="#ff8a3c"/><path d="m512 110.565v193.25h-100.65v-223.25l13.62 4.06 30 8.94z" fill="#e56705"/><path d="m397.73 84.625v234.19c0 8.29-6.72 15-15 15-8.29 0-15-6.71-15-15v-225.25z" fill="#e56705"/><path d="m454.97 93.565v225.25c0 8.29-6.72 15-15 15s-15-6.71-15-15v-234.19z" fill="#bc4f04"/><path d="m512 85.565v25h-201.3v-25c0-22.67 18.45-41.12 41.12-41.12h119.05c22.68 0 41.13 18.45 41.13 41.12z" fill="#f3f4ff"/><path d="m512 85.565v25h-100.65v-66.12h59.52c22.68 0 41.13 18.45 41.13 41.12z" fill="#e3e6ff"/></svg>