<svg id="Capa_1" enable-background="new 0 0 512 512" height="512" viewBox="0 0 512 512" width="512" xmlns="http://www.w3.org/2000/svg"><path d="m287.863 7.959 216.205 217.008c2.934 2.945 2.934 7.701 0 10.646-2.928 2.938-7.672 2.945-10.607 0-21.92-22.002-50.41-33.208-80.228-31.541-29.253 1.625-58.039 15.259-81.077 38.382l-65.202 65.444c-2.927 2.938-7.679 2.938-10.607 0l-51.11-51.299c-2.927-2.938-2.927-7.708 0-10.646l65.202-65.444c23.038-23.123 36.621-52.016 38.247-81.371 1.655-29.936-9.511-58.532-31.431-80.533-2.927-2.938-2.928-7.708 0-10.646 2.936-2.946 7.681-2.938 10.608 0z" fill="#ff8a3c"/><path d="m192.432 269.453 51.11 51.299c2.927 2.938 2.935 7.701 0 10.646l-124.243 122.805-45-16.778-16.716-45.167 124.243-122.805c2.934-2.946 7.678-2.939 10.606 0z" fill="#ff8a3c"/><g fill="#e56705"><path d="m74.299 437.425 143.688-142.323 25.555 25.65c2.927 2.938 2.935 7.701 0 10.646l-124.243 122.805z"/><path d="m395.966 116.463 108.103 108.504c2.934 2.945 2.934 7.701 0 10.646-2.928 2.938-7.672 2.945-10.607 0-21.92-22.002-50.41-33.208-80.228-31.541-29.253 1.625-58.039 15.259-81.077 38.382l-65.202 65.444c-2.927 2.938-7.679 2.938-10.607 0l-25.555-25.65z"/><path d="m217.272 243.838 51.796 51.988c10.366 10.405 10.366 27.282 0 37.687-10.373 10.412-27.188 10.412-37.554.007l-51.796-51.988c-10.373-10.412-10.373-27.289 0-37.701 5.183-5.202 11.978-7.807 18.774-7.8 6.802 0 13.597 2.605 18.78 7.807z"/><path d="m294.934 4.41 212.669 213.459c5.862 5.884 5.862 15.408 0 21.292-5.855 5.877-15.351 5.884-21.213 0l-212.669-213.459c-5.855-5.877-5.855-15.415 0-21.292 5.862-5.884 15.358-5.876 21.213 0z"/><path d="m57.583 392.258 61.716 61.945-26.722 53.634c-.361.731-.834 1.391-1.4 1.959-1.096 1.1-2.531 1.845-4.108 2.108-2.376.383-4.794-.397-6.498-2.108l-78.369-78.66c-1.704-1.71-2.489-4.145-2.107-6.53.389-2.392 1.895-4.443 4.052-5.529z"/></g><path d="m41.383 470.463 47.058-47.233 30.858 30.973-26.722 53.634c-.361.731-.834 1.391-1.4 1.959-1.096 1.1-2.531 1.845-4.108 2.108-2.376.383-4.794-.397-6.498-2.108z" fill="#bc4f04"/><path d="m205.612 307.523 37.554-37.694 25.901 25.997c10.366 10.405 10.366 27.282 0 37.687-10.373 10.412-27.188 10.412-37.554.007z" fill="#bc4f04"/><path d="m401.269 111.14 106.335 106.73c5.862 5.884 5.862 15.408 0 21.292-5.855 5.877-15.351 5.884-21.213 0l-106.335-106.73z" fill="#bc4f04"/></svg>