<svg id="Capa_1" enable-background="new 0 0 512 512" height="512" viewBox="0 0 512 512" width="512" xmlns="http://www.w3.org/2000/svg"><path d="m501.424 450.282c14.064 14.064 14.135 36.932.014 51.081l-.007.007c-14.34 14.34-37.653 14.064-51.64-.615l-408.248-421.528 18.208-19.552 17.558-18.844 423.508 408.856c.211.199.409.397.607.595z" fill="#ff8a3c"/><path d="m501.424 450.282c14.064 14.064 14.135 36.932.014 51.081l-441.687-441.687 17.558-18.844 423.508 408.856c.211.198.409.396.607.594z" fill="#e56705"/><path d="m88.473 44.275c-.007 12.183-4.928 23.214-12.898 31.226-8.026 8.068-19.12 13.067-31.381 13.081-24.43.022-44.215-19.777-44.194-44.222.014-12.261 5.006-23.363 13.053-31.381 8.005-7.977 19.043-12.919 31.226-12.926 24.438-.029 44.223 19.77 44.194 44.222z" fill="#293456"/><path d="m88.473 44.275c-.007 12.183-4.928 23.214-12.898 31.226l-62.522-62.523c8.005-7.976 19.043-12.918 31.226-12.925 24.438-.029 44.223 19.77 44.194 44.222z" fill="#0e1830"/><path d="m61.719 501.424c-14.064 14.064-36.932 14.135-51.081.014l-.007-.007c-14.34-14.34-14.064-37.653.615-51.64l421.527-408.248 19.552 18.208 18.844 17.558-408.857 423.507c-.197.212-.395.41-.593.608z" fill="#ffe67b"/><path d="m61.719 501.424c-14.064 14.064-36.932 14.135-51.081.014l441.686-441.687 18.844 17.558-408.856 423.507c-.197.212-.395.41-.593.608z" fill="#ffd400"/><path d="m467.725 88.473c-12.183-.007-23.214-4.928-31.226-12.898-8.068-8.026-13.067-19.12-13.081-31.381-.021-24.43 19.778-44.215 44.222-44.194 12.261.014 23.363 5.006 31.381 13.053 7.976 8.004 12.919 19.042 12.926 31.226.029 24.438-19.77 44.223-44.222 44.194z" fill="#293456"/><path d="m467.725 88.473c-12.183-.007-23.214-4.928-31.226-12.898l62.522-62.522c7.976 8.004 12.919 19.042 12.926 31.226.029 24.438-19.77 44.223-44.222 44.194z" fill="#0e1830"/></svg>