<svg id="Capa_1" enable-background="new 0 0 512 512" height="512" viewBox="0 0 512 512" width="512" xmlns="http://www.w3.org/2000/svg"><path d="m443.49 113.81v171.17c0 60.71-49.41 110.1-110.14 110.1h-154.71c-60.73 0-110.13-49.39-110.13-110.1v-171.17c0-8.29 6.71-15 15-15 8.28 0 15 6.71 15 15v171.17c0 44.16 35.95 80.1 80.13 80.1h154.71c44.19 0 80.14-35.94 80.14-80.1v-171.17c0-8.29 6.71-15 15-15 8.28 0 15 6.71 15 15z" fill="#4de6ff"/><path d="m443.49 113.81v171.17c0 60.71-49.41 110.1-110.14 110.1h-77.35v-30h77.35c44.19 0 80.14-35.94 80.14-80.1v-171.17c0-8.29 6.71-15 15-15 8.28 0 15 6.71 15 15z" fill="#50b8ff"/><path d="m473.5 167.65c0 8.29-6.72 15-15 15h-405c-8.29 0-15-6.71-15-15 0-8.28 6.71-15 15-15h405c8.28 0 15 6.72 15 15z" fill="#293456"/><path d="m228.38 320.3h55.23v164h-55.23z" fill="#293456"/><path d="m256 320.3h27.61v164h-27.61z" fill="#0e1830"/><path d="m473.5 167.65c0 8.29-6.72 15-15 15h-202.5v-30h202.5c8.28 0 15 6.72 15 15z" fill="#0e1830"/><path d="m383.27 35.66v263.99c0 19.69-15.97 35.65-35.66 35.65h-183.24c-19.69 0-35.65-15.96-35.65-35.65v-263.99c0-19.69 15.96-35.66 35.65-35.66h183.24c19.69 0 35.66 15.97 35.66 35.66z" fill="#f3f4ff"/><g fill="#e3e6ff"><path d="m383.27 35.66v263.99c0 19.69-15.97 35.65-35.66 35.65h-91.61v-335.3h91.61c19.69 0 35.66 15.97 35.66 35.66z"/><path d="m256 74.96c8.28 0 15-6.71 15-15v-59.96h-30v59.96c0 8.29 6.71 15 15 15z"/><path d="m205.98 74.96c8.28 0 15-6.71 15-15v-59.96h-30v59.96c0 8.29 6.71 15 15 15z"/><path d="m271 335.3v-59.96c0-8.28-6.72-15-15-15-8.29 0-15 6.72-15 15v59.96z"/></g><path d="m321.02 335.3v-59.96c0-8.28-6.72-15-15-15-8.29 0-15 6.72-15 15v59.96z" fill="#cbd1f4"/><path d="m323.29 132.65h59.98v-30h-59.98c-8.28 0-15 6.72-15 15 0 8.29 6.72 15 15 15z" fill="#cbd1f4"/><path d="m383.27 202.65h-59.98c-8.28 0-15 6.72-15 15 0 8.29 6.72 15 15 15h59.98z" fill="#cbd1f4"/><path d="m323.29 182.65h59.98v-30h-59.98c-8.28 0-15 6.72-15 15 0 8.29 6.72 15 15 15z" fill="#cbd1f4"/><path d="m190.98 275.34v59.96h30v-59.96c0-8.28-6.72-15-15-15-8.29 0-15 6.72-15 15z" fill="#e3e6ff"/><path d="m306.02 74.96c8.28 0 15-6.71 15-15v-59.96h-30v59.96c0 8.29 6.71 15 15 15z" fill="#cbd1f4"/><path d="m188.7 132.65h-59.98v-30h59.98c8.28 0 15 6.72 15 15 0 8.29-6.72 15-15 15z" fill="#e3e6ff"/><path d="m128.72 202.65h59.98c8.28 0 15 6.72 15 15 0 8.29-6.72 15-15 15h-59.98z" fill="#e3e6ff"/><path d="m188.7 182.65h-59.98v-30h59.98c8.28 0 15 6.72 15 15 0 8.29-6.72 15-15 15z" fill="#e3e6ff"/><path d="m346.17 484.3c0 7.65-3.1 14.58-8.12 19.59-5.01 5.01-11.94 8.11-19.59 8.11h-124.93c-15.3 0-27.7-12.4-27.7-27.7 0-7.65 3.1-14.58 8.11-19.59 5.02-5.01 11.94-8.11 19.59-8.11h124.93c15.3 0 27.71 12.4 27.71 27.7z" fill="#4de6ff"/><path d="m346.17 484.3c0 7.65-3.1 14.58-8.12 19.59-5.01 5.01-11.94 8.11-19.59 8.11h-62.46v-55.4h62.46c15.3 0 27.71 12.4 27.71 27.7z" fill="#50b8ff"/><path d="m256 74.96c8.28 0 15-6.71 15-15v-59.96h-15z" fill="#cbd1f4"/><path d="m271 335.3v-59.96c0-8.28-6.72-15-15-15v74.96z" fill="#cbd1f4"/></svg>