<svg id="Capa_1" enable-background="new 0 0 512 512" height="512" viewBox="0 0 512 512" width="512" xmlns="http://www.w3.org/2000/svg"><path d="m399.32 468.19c-7.62 13.14-21.81 21.31-37.05 21.31h-209.82c-23.15 0-42.35-18.76-42.79-41.82-.22-11.31 4.11-22.07 12.18-30.3 8.21-8.37 19.62-13.17 31.3-13.17h131.33c1.08 0 1.62-.67 1.85-1.06.27-.47.49-1.21 0-2.05l-101.62-175.28c-.53-.91-1.39-1.05-1.85-1.05-.12 0-.27.01-.44.05-.45.08-1.01.33-1.4 1l-101.19 169.73c-11.75 20.27-37.96 27.28-58.39 15.53-9.92-5.7-17.01-14.92-19.96-25.94-2.95-11-1.43-22.48 4.29-32.34l140.07-236.8c7.52-12.96 21.52-21.09 36.58-21.24.15-.01.29-.01.44-.01 15.24 0 29.44 8.16 37.06 21.31l179.41 309.46c7.64 13.16 7.64 29.51 0 42.67z" fill="#e3e6ff"/><path d="m218.68 58.62c0 19.95-16.24 36.13-36.27 36.13-20.04 0-36.28-16.18-36.28-36.13s16.24-36.12 36.28-36.12c20.03 0 36.27 16.17 36.27 36.12z" fill="#ff8a3c"/><path d="m512 77.26c0 8.29-6.72 15-15 15s-15-6.71-15-15c0-12.02-9.85-21.8-21.96-21.8-12.1 0-21.95 9.78-21.95 21.8 0 12.03 9.85 21.8 21.95 21.8 8.29 0 15 6.72 15 15v359.88c0 8.28-6.71 15-15 15-8.28 0-15-6.72-15-15v-347.08c-21.35-6.43-36.95-26.23-36.95-49.6 0-28.56 23.31-51.8 51.95-51.8 28.65 0 51.96 23.24 51.96 51.8z" fill="#f3f4ff"/><path d="m399.32 468.19c-7.62 13.14-21.81 21.31-37.05 21.31h-179.86v-85.29h102.06c1.08 0 1.62-.67 1.85-1.06.27-.47.49-1.21 0-2.05l-101.62-175.28c-.53-.91-1.39-1.05-1.85-1.05-.12 0-.27.01-.44.05v-130.06c.15-.01.29-.01.44-.01 15.24 0 29.44 8.16 37.06 21.31l179.41 309.46c7.64 13.16 7.64 29.51 0 42.67z" fill="#cbd1f4"/><path d="m218.68 58.62c0 19.95-16.24 36.13-36.27 36.13v-72.25c20.03 0 36.27 16.17 36.27 36.12z" fill="#e56705"/><g fill="#e3e6ff"><path d="m475.04 114.06v359.88c0 8.28-6.71 15-15 15v-389.88c8.29 0 15 6.72 15 15z"/><path d="m512 77.26c0 8.29-6.72 15-15 15s-15-6.71-15-15c0-12.02-9.85-21.8-21.96-21.8v-30c28.65 0 51.96 23.24 51.96 51.8z"/></g></svg>