<svg id="Capa_1" enable-background="new 0 0 512 512" height="512" viewBox="0 0 512 512" width="512" xmlns="http://www.w3.org/2000/svg"><path d="m278.37 264.29v36.29c0 8.29-6.71 15-15 15-8.28 0-15-6.71-15-15v-36.29c0-8.28 6.72-15 15-15 8.29 0 15 6.72 15 15z" fill="#ffe67b"/><path d="m263.37 315.58v-66.29c8.29 0 15 6.72 15 15v36.29c0 8.29-6.71 15-15 15z" fill="#ffd400"/><path d="m105.631 166.719c-58.245 0-105.631 47.408-105.631 105.681v46.888c0 58.272 47.385 105.68 105.628 105.68v-30c-41.701 0-75.628-33.95-75.628-75.68v-46.888c0-41.731 33.928-75.682 75.631-75.682h42.74v-30h-42.74z" fill="#ff8a3c"/><path d="m504.5 28.75v305.94c0 4.14-3.36 7.5-7.5 7.5s-7.5-3.36-7.5-7.5c0-65.79-53.34-119.31-118.9-119.31h-202.57c-14.98 0-27.16-12.19-27.16-27.17v-12.98c0-14.98 12.18-27.17 27.16-27.17h202.57c65.56 0 118.9-53.52 118.9-119.31 0-4.14 3.36-7.5 7.5-7.5s7.5 3.36 7.5 7.5z" fill="#ffe67b"/><path d="m504.5 28.75v305.94c0 4.14-3.36 7.5-7.5 7.5s-7.5-3.36-7.5-7.5c0-65.79-53.34-119.31-118.9-119.31h-107.23v-67.32h107.23c65.56 0 118.9-53.52 118.9-119.31 0-4.14 3.36-7.5 7.5-7.5s7.5 3.36 7.5 7.5z" fill="#ffd400"/><path d="m381.11 330.33v9.86h-235.48v-9.86c0-21.95 17.78-39.75 39.72-39.75h156.04c21.94 0 39.72 17.8 39.72 39.75z" fill="#293456"/><path d="m381.11 340.19h-117.74v-49.61h78.02c21.94 0 39.72 17.8 39.72 39.75z" fill="#0e1830"/><path d="m436.11 373.67v107.08h-345.48v-107.08c0-21.21 17.26-38.48 38.48-38.48h268.52c21.22 0 38.48 17.27 38.48 38.48z" fill="#e56705"/><path d="m436.11 373.67v107.08h-172.74v-145.56h134.26c21.22 0 38.48 17.27 38.48 38.48z" fill="#bc4f04"/><path d="m456.11 480.75c0 8.28-6.71 15-15 15h-355.48c-8.29 0-15-6.72-15-15s6.71-15 15-15h355.48c8.29 0 15 6.72 15 15z" fill="#293456"/><path d="m316.33 402.97c0 8.28-6.71 15-15 15h-75.92c-8.28 0-15-6.72-15-15 0-8.29 6.72-15 15-15h75.92c8.29 0 15 6.71 15 15z" fill="#ffe67b"/><path d="m497 16.25c-8.284 0-15 6.716-15 15v300.937c0 8.284 6.716 15 15 15s15-6.716 15-15v-300.937c0-8.284-6.716-15-15-15z" fill="#ffb600"/><path d="m301.33 417.97h-37.96v-30h37.96c8.29 0 15 6.71 15 15 0 8.28-6.71 15-15 15z" fill="#ffd400"/><path d="m456.11 480.75c0 8.28-6.71 15-15 15h-177.74v-30h177.74c8.29 0 15 6.72 15 15z" fill="#0e1830"/></svg>