<svg id="Capa_1" enable-background="new 0 0 512 512" height="512" viewBox="0 0 512 512" width="512" xmlns="http://www.w3.org/2000/svg"><path d="m198.628 175.528h-53.742v-4.396c0-8.284-6.716-15-15-15s-15 6.716-15 15v38.791c0 8.284 6.716 15 15 15s15-6.716 15-15v-4.396h53.742z" fill="#ffb600"/><path d="m442 341.43v44.95c0 69.27-56.201 125.62-125.283 125.62-5.29 0-10.51-.33-15.63-.97-61.742-7.74-109.663-60.68-109.663-124.65v-244.89c0-32.61-10.73-62.6-30.211-84.45-19.861-22.27-47.812-34.54-78.713-34.54-4.15 0-7.5-3.36-7.5-7.5s3.35-7.5 7.5-7.5h304.918c4.14 0 7.5 3.36 7.5 7.5s-3.36 7.5-7.5 7.5c-30.911 0-58.861 12.27-78.712 34.54-2.71 3.04-5.26 6.24-7.62 9.59-14.64 20.67-22.591 46.79-22.591 74.86v43.15l-20.001 107.31 20.001 91.63 22.591 19.63 31.891 27.7 76.662-22.91z" fill="#ffe67b"/><g fill="#ffd400"><path d="m308.706 57.04c-2.71 3.04-5.26 6.24-7.62 9.59v-59.13h86.332c4.14 0 7.5 3.36 7.5 7.5s-3.36 7.5-7.5 7.5c-30.91 0-58.861 12.27-78.712 34.54z"/><path d="m442 341.43v44.95c0 69.27-56.201 125.62-125.283 125.62-5.29 0-10.51-.33-15.63-.97v-107.82l31.891 27.7 76.661-22.91z"/><path d="m424.504 276.949h-48.742c-8.284 0-15 6.716-15 15s6.716 15 15 15h48.742c8.284 0 15-6.716 15-15s-6.715-15-15-15z"/><path d="m375.763 256.949h48.742c8.284 0 15-6.716 15-15s-6.716-15-15-15h-48.742c-8.284 0-15 6.716-15 15s6.715 15 15 15z"/><path d="m424.504 326.949h-48.742c-8.284 0-15 6.716-15 15s6.716 15 15 15h48.742c8.284 0 15-6.716 15-15s-6.715-15-15-15z"/><path d="m345.487 137.99h-.47c-15.81 0-30.751 3.82-43.931 10.6-31.201 16-52.591 48.51-52.591 85.92v114.88c0 37.41 21.391 69.92 52.591 85.92 13.18 6.78 28.121 10.6 43.931 10.6h.47c53.221 0 96.513-43.3 96.513-96.52v-114.88c0-53.22-43.291-96.52-96.513-96.52zm66.512 211.4c0 36.68-29.841 66.52-66.512 66.52h-.47c-16.82 0-32.211-6.28-43.931-16.62-13.84-12.19-22.591-30.04-22.591-49.9v-114.88c0-19.86 8.75-37.71 22.591-49.9 11.72-10.34 27.111-16.62 43.931-16.62h.47c36.671 0 66.512 29.84 66.512 66.52z"/><path d="m399.919 15c0 8.28-6.72 15-15 15h-299.919c-8.29 0-15-6.72-15-15s6.71-15 15-15h299.918c8.281 0 15.001 6.72 15.001 15z"/></g><path d="m384.918 30h-83.832v-30h83.832c8.28 0 15 6.72 15 15s-6.719 15-15 15z" fill="#ffb600"/><path d="m442 234.51v114.88c0 53.22-43.291 96.52-96.513 96.52h-.47c-15.81 0-30.751-3.82-43.931-10.6v-36.02c11.72 10.34 27.111 16.62 43.931 16.62h.47c36.671 0 66.512-29.84 66.512-66.52v-114.88c0-36.68-29.841-66.52-66.512-66.52h-.47c-16.82 0-32.211 6.28-43.931 16.62v-36.02c13.18-6.78 28.121-10.6 43.931-10.6h.47c53.222 0 96.513 43.3 96.513 96.52z" fill="#ffb600"/></svg>