<svg id="Capa_1" enable-background="new 0 0 512 512" height="512" viewBox="0 0 512 512" width="512" xmlns="http://www.w3.org/2000/svg"><path d="m434.475 234.203h-29.043v-62.477c0-8.284-6.715-15-14.999-15s-14.999 6.716-14.999 15v160.287c0 13.938-11.317 25.277-25.227 25.277h-70.572c-8.284 0-14.999 6.716-14.999 15s6.715 15 14.999 15h70.572c30.451 0 55.225-24.797 55.225-55.277v-67.811h29.043c13.91 0 25.227 11.34 25.227 25.278v100.286c0 8.284 6.715 15 14.999 15s14.999-6.716 14.999-15v-100.285c0-30.48-24.774-55.278-55.225-55.278z" fill="#cbd1f4"/><path d="m390.434 104.55c-20.567 0-37.299 16.75-37.299 37.338 0 20.589 16.732 37.339 37.299 37.339s37.299-16.75 37.299-37.339c0-20.588-16.733-37.338-37.299-37.338z" fill="#0e1830"/><path d="m474.701 382.267c-20.567 0-37.299 16.75-37.299 37.339s16.732 37.339 37.299 37.339 37.299-16.75 37.299-37.339-16.732-37.339-37.299-37.339z" fill="#0e1830"/><path d="m279.64 69.15v373.69c0 29.91-24.25 54.16-54.16 54.16h-171.33c-29.9 0-54.15-24.25-54.15-54.16v-373.69c0-29.91 24.25-54.15 54.15-54.15h171.33c29.91 0 54.16 24.24 54.16 54.15z" fill="#293456"/><path d="m279.64 69.15v373.69c0 29.91-24.25 54.16-54.16 54.16h-85.52v-482h85.52c29.91 0 54.16 24.24 54.16 54.15z" fill="#0e1830"/><path d="m244.7 65v184.13c0 8.29-6.72 15-15 15h-179.48c-8.28 0-15-6.71-15-15v-184.13c0-8.29 6.72-15 15-15h179.48c8.28 0 15 6.71 15 15z" fill="#4de6ff"/><path d="m244.7 65v184.13c0 8.29-6.72 15-15 15h-89.74v-214.13h89.74c8.28 0 15 6.71 15 15z" fill="#50b8ff"/><path d="m224.32 372.29c0 46.59-37.83 84.51-84.36 84.59h-.14c-46.59 0-84.5-37.95-84.5-84.59s37.91-84.59 84.5-84.59h.14c46.53.08 84.36 38 84.36 84.59z" fill="#e3e6ff"/><path d="m224.32 372.29c0 46.59-37.83 84.51-84.36 84.59v-169.18c46.53.08 84.36 38 84.36 84.59z" fill="#cbd1f4"/><path d="m154.96 363.76v17.06c0 8.29-6.72 15-15 15s-15-6.71-15-15v-17.06c0-8.29 6.72-15 15-15s15 6.71 15 15z" fill="#fff"/><path d="m154.8 155.34v58.97c0 8.23-6.63 14.91-14.84 15h-.16c-8.28 0-15-6.72-15-15v-58.97c0-8.28 6.72-15 15-15h.16c8.21.09 14.84 6.77 14.84 15z" fill="#fff"/><path d="m196.101 102.758c-8.284 0-14.999 6.716-14.999 15v96.548c0 8.284 6.715 15 14.999 15s14.999-6.716 14.999-15v-96.548c0-8.285-6.716-15-14.999-15z" fill="#e3e6ff"/><path d="m83.678 165.396c-8.284 0-14.999 6.716-14.999 15v33.909c0 8.284 6.715 15 14.999 15s14.999-6.716 14.999-15v-33.909c0-8.284-6.715-15-14.999-15z" fill="#fff"/><g fill="#e3e6ff"><path d="m139.96 229.31v-88.97c8.21.09 14.84 6.77 14.84 15v58.97c0 8.23-6.63 14.91-14.84 15z"/><path d="m154.96 363.76v17.06c0 8.29-6.72 15-15 15v-47.06c8.28 0 15 6.71 15 15z"/></g></svg>