<svg id="Capa_1" enable-background="new 0 0 512 512" height="512" viewBox="0 0 512 512" width="512" xmlns="http://www.w3.org/2000/svg"><path d="m402.5 222.02-10 49.7 10 49.3v171.73c0 10.63-8.61 19.25-19.24 19.25h-26.45c-10.63 0-19.24-8.62-19.24-19.25v-8.64c0-7.6-6.15-13.76-13.74-13.76h-2.88l-15-10-15 10h-69.9l-15-10-15 10h-2.88c-7.59 0-13.74 6.16-13.74 13.76v8.64c0 10.63-8.61 19.25-19.24 19.25h-26.45c-10.63 0-19.24-8.62-19.24-19.25v-171.73l10-49.3-10-49.7v-155.97c0-36.48 29.54-66.05 65.99-66.05h15.56l15 10 15-10h69.9l15 10 15-10h15.56c36.45 0 65.99 29.57 65.99 66.05z" fill="#ff8a3c"/><path d="m402.5 222.02-10 49.7 10 49.3v171.73c0 10.63-8.61 19.25-19.24 19.25h-26.45c-10.63 0-19.24-8.62-19.24-19.25v-8.64c0-7.6-6.15-13.76-13.74-13.76h-2.88l-15-10-15 10h-34.95v-470.35h34.95l15 10 15-10h15.56c36.45 0 65.99 29.57 65.99 66.05z" fill="#e56705"/><path d="m191.05 0h30v470.35h-30z" fill="#e56705"/><path d="m290.95 0h30v470.35h-30z" fill="#bc4f04"/><path d="m109.5 222.02h293v99h-293z" fill="#ffe67b"/><path d="m256 222.02h146.5v99h-146.5z" fill="#ffd400"/><path d="m367.55 70.65v89.28c0 9.42-7.67 17.09-17.09 17.09h-188.92c-9.42 0-17.09-7.67-17.09-17.09v-89.28c0-16.92 13.76-30.68 30.68-30.68h161.74c16.92 0 30.68 13.76 30.68 30.68z" fill="#fff"/><path d="m350.46 177.02h-94.46v-137.05h80.87c16.92 0 30.68 13.76 30.68 30.68v89.28c0 9.42-7.67 17.09-17.09 17.09z" fill="#f3f4ff"/><path d="m300.97 271.72c0 8.28-6.72 15-15 15h-126.52c-8.28 0-15-6.72-15-15 0-8.29 6.72-15 15-15h126.52c8.28 0 15 6.71 15 15z" fill="#fff"/><g fill="#f3f4ff"><path d="m352.548 256.717h-24.966c-8.284 0-15 6.716-15 15s6.716 15 15 15h24.966c8.284 0 15-6.716 15-15s-6.716-15-15-15z"/><path d="m300.97 271.72c0 8.28-6.72 15-15 15h-29.97v-30h29.97c8.28 0 15 6.71 15 15z"/></g></svg>