<svg id="Capa_1" enable-background="new 0 0 512 512" height="512" viewBox="0 0 512 512" width="512" xmlns="http://www.w3.org/2000/svg"><path d="m512 133.4v253.34c0 31.06-25.31 56.24-56.52 56.24-31.22 0-56.53-25.18-56.53-56.24s25.31-56.23 56.53-56.23h26.52v-132.95l-113.53 17.93-65.52 10.35v193.92c0 31.06-25.31 56.24-56.53 56.24s-56.52-25.18-56.52-56.24 25.3-56.24 56.52-56.24h26.53v-204.91c0-19.59 14.09-36.04 33.5-39.1l62.02-9.8 97.6-15.41c11.52-1.82 23.2 1.47 32.06 9.04 8.82 7.53 13.87 18.49 13.87 30.06z" fill="#ffd400"/><path d="m204.5 73.24v83.4c0 8.29-6.71 15-15 15-8.28 0-15-6.71-15-15v-83.4c0-2.88-1.58-4.66-2.53-5.47-.97-.82-3.03-2.14-5.98-1.68l-57.59 9.1c-3.58.57-6.18 3.57-6.18 7.14l-.01 232.44c0 14.26-5.9 27.15-15.41 36.38-9.21 8.95-21.8 14.46-35.7 14.46-28.22 0-51.1-22.76-51.1-50.84 0-28.09 22.88-50.85 51.1-50.85h21.12v-181.59c0-11.99 5.62-22.74 14.58-29.56 4.8-3.67 10.56-6.21 16.92-7.21l57.59-9.1c10.83-1.71 21.82 1.39 30.15 8.51 8.29 7.08 13.04 17.38 13.04 28.27z" fill="#4de6ff"/><path d="m204.5 73.24v83.4c0 8.29-6.71 15-15 15-8.28 0-15-6.71-15-15v-83.4c0-2.88-1.58-4.66-2.53-5.47-.97-.82-3.03-2.14-5.98-1.68l-57.59 9.1c-3.58.57-6.18 3.57-6.18 7.14l-.01 232.44c0 14.26-5.9 27.15-15.41 36.38v-298.38c4.8-3.67 10.56-6.21 16.92-7.21l57.59-9.1c10.83-1.71 21.82 1.39 30.15 8.51 8.29 7.08 13.04 17.38 13.04 28.27z" fill="#50b8ff"/><path d="m512 133.4v253.34c0 31.06-25.31 56.24-56.52 56.24-31.22 0-56.53-25.18-56.53-56.24s25.31-56.23 56.53-56.23h26.52v-132.95l-113.53 17.93v-105.78l97.6-15.41c11.52-1.82 23.2 1.47 32.06 9.04 8.82 7.53 13.87 18.49 13.87 30.06z" fill="#ffb600"/></svg>