<svg id="Capa_1" enable-background="new 0 0 512 512" height="512" viewBox="0 0 512 512" width="512" xmlns="http://www.w3.org/2000/svg"><path d="m512 179.41c.01 57.81-65.1 107.95-165.87 127.73-44.82 8.79-77.1 48.19-76.75 93.69l.26 32.64v2.15c0 9.35-5.69 17.53-16.14 23.41-1.39.79-2.86 1.53-4.42 2.23-10.85 4.87-25.18 7.55-40.35 7.55h-.03c-17.99 0-41.47-4.24-53.44-16.14-4.98-4.96-7.5-10.69-7.5-17.05l.01-.49.45-66.03c.26-36.52-21.1-69.38-54.41-83.74-59.62-25.64-93.82-64.26-93.81-105.96-.01-38 27.76-73.04 78.17-98.64 47.11-23.94 109.3-37.25 175.33-37.55.8-.02 1.61-.02 2.42-.02h.12c66.94 0 130.08 13.34 177.79 37.58 50.4 25.62 78.16 60.66 78.17 98.64z" fill="#4de6ff"/><path d="m512 179.41c.01 57.81-65.1 107.95-165.87 127.73-44.82 8.79-77.1 48.19-76.75 93.69l.26 32.64v2.15c0 9.35-5.69 17.53-16.14 23.41v-415.82c.8-.02 1.61-.02 2.42-.02h.12c66.94 0 130.08 13.34 177.79 37.58 50.4 25.62 78.16 60.66 78.17 98.64z" fill="#50b8ff"/><path d="m427.847 151.914c-13.392-13.323-35.235-13.267-48.695.123-6.557 6.522-10.167 15.185-10.167 24.391 0 9.14 3.566 17.721 10.042 24.162 6.674 6.64 15.444 9.956 24.233 9.956 8.847 0 17.71-3.362 24.462-10.079 6.557-6.522 10.167-15.185 10.167-24.391 0-9.139-3.567-17.72-10.042-24.162z" fill="#0e1830"/><path d="m271.546 175.866c-6.556 6.522-10.167 15.185-10.167 24.391 0 9.139 3.566 17.721 10.042 24.162 6.673 6.64 15.445 9.956 24.233 9.956 8.847 0 17.711-3.362 24.462-10.079 6.557-6.522 10.168-15.185 10.168-24.391 0-9.139-3.566-17.721-10.042-24.162-13.392-13.324-35.235-13.266-48.696.123z" fill="#0e1830"/><g fill="#293456"><path d="m188.717 105.881c-6.557 6.522-10.167 15.186-10.167 24.392 0 9.139 3.567 17.72 10.042 24.161 6.673 6.64 15.445 9.956 24.233 9.956 8.847 0 17.71-3.362 24.462-10.079 6.556-6.522 10.167-15.185 10.167-24.391 0-9.14-3.566-17.721-10.042-24.162-13.39-13.324-35.235-13.268-48.695.123z"/><path d="m97.278 170.007c-6.556 6.522-10.167 15.185-10.167 24.391 0 9.14 3.566 17.721 10.042 24.162 6.673 6.64 15.445 9.956 24.234 9.956 8.846 0 17.709-3.361 24.462-10.078v-.001c6.557-6.522 10.167-15.186 10.167-24.392 0-9.139-3.567-17.72-10.042-24.161-13.391-13.323-35.236-13.268-48.696.123z"/><path d="m184.143 244.395c-6.556 6.522-10.167 15.185-10.167 24.391 0 9.14 3.566 17.721 10.042 24.162 6.673 6.64 15.444 9.956 24.233 9.956 8.847 0 17.71-3.362 24.462-10.079 6.556-6.522 10.167-15.185 10.167-24.391 0-9.14-3.566-17.721-10.042-24.162-13.391-13.324-35.236-13.267-48.695.123z"/></g></svg>