<svg id="Capa_1" enable-background="new 0 0 512 512" height="512" viewBox="0 0 512 512" width="512" xmlns="http://www.w3.org/2000/svg"><path d="m294.32 213.25v38.79c0 8.28-6.4 15-14.68 15s-15.32-6.72-15.32-15v-4.4h-35.24v-30h35.24v-4.39c0-8.29 7.04-15 15.32-15s14.68 6.71 14.68 15z" fill="#ffd400"/><path d="m294.32 302.25v38.79c0 8.28-6.4 15-14.68 15s-15.32-6.72-15.32-15v-4.4h-35.24v-30h35.24v-4.39c0-8.29 7.04-15 15.32-15s14.68 6.71 14.68 15z" fill="#ffd400"/><path d="m294.32 124.25v38.79c0 8.28-6.4 15-14.68 15s-15.32-6.72-15.32-15v-4.4h-35.24v-30h35.24v-4.39c0-8.29 7.04-15 15.32-15s14.68 6.71 14.68 15z" fill="#ffd400"/><path d="m480.33 231.19c-1.5 2.62-4.44 4.09-7.44 3.71-10.64-1.31-41.35-2.01-55.36 10.37-5.1 4.51-7.57 10.38-7.57 17.94v125.11c0 33.16-12.93 64.3-36.4 87.69-23.3 23.22-54.21 35.99-87.07 35.99h-.44c-2.15-.01-4.29-.07-6.41-.19-64.87-3.61-116.63-58.27-116.63-124.75v-306.19c0-.5-.4-.91-.89-.91h-40.46l-20-39.98 20-39.98h36.05c45.39 0 82.32 36.99 82.32 82.46v287.2c1.98 20.99 18.78 36.94 39.61 37.92.68.03 1.36.05 2.04.05 23.14 0 41.91-18.8 41.91-41.92v-120.38c0-101.15 54.54-138.74 56.86-140.29 3.28-2.19 7.71-1.46 10.11 1.67l89.21 116.18c1.84 2.4 2.06 5.67.56 8.3z" fill="#ffe67b"/><path d="m480.33 231.19c-1.5 2.62-4.44 4.09-7.44 3.71-10.64-1.31-41.35-2.01-55.36 10.37-5.1 4.51-7.57 10.38-7.57 17.94v125.11c0 33.16-12.93 64.3-36.4 87.69-23.3 23.22-54.21 35.99-87.07 35.99h-.44c-2.15-.01-4.29-.07-6.41-.19v-104.23c.68.03 1.36.05 2.04.05 23.14 0 41.91-18.8 41.91-41.92v-120.38c0-101.15 54.54-138.74 56.86-140.29 3.28-2.19 7.71-1.46 10.11 1.67l89.21 116.18c1.84 2.4 2.06 5.67.56 8.3z" fill="#ffd400"/><path d="m121.664 0v79.96h-84.81c-5.52 0-10.42-3.1-12.79-8.09s-1.67-10.75 1.83-15.04l39.51-48.35c4.4-5.39 10.91-8.48 17.86-8.48z" fill="#ffd400"/><g fill="#ffb600"><path d="m486.214 217.363-94.698-123.149c-5.05-6.567-14.469-7.798-21.034-2.747-6.567 5.05-7.797 14.467-2.747 21.034l94.698 123.149c2.954 3.842 7.402 5.857 11.901 5.857 3.191 0 6.408-1.015 9.133-3.11 6.568-5.049 7.797-14.466 2.747-21.034z"/><path d="m294.32 124.25v38.79c0 8.28-6.4 15-14.68 15v-68.79c8.28 0 14.68 6.71 14.68 15z"/><path d="m294.32 213.25v38.79c0 8.28-6.4 15-14.68 15v-68.79c8.28 0 14.68 6.71 14.68 15z"/><path d="m294.32 302.25v38.79c0 8.28-6.4 15-14.68 15v-68.79c8.28 0 14.68 6.71 14.68 15z"/></g></svg>