<svg id="Capa_1" enable-background="new 0 0 512 512" height="512" viewBox="0 0 512 512" width="512" xmlns="http://www.w3.org/2000/svg"><path d="m95.76 431.638c-18.346 18.384-18.346 48.19 0 66.574s48.091 18.384 66.437 0 18.346-48.19 0-66.574-48.091-18.384-66.437 0z" fill="#e56705"/><path d="m200.886 494.824c-4.469-.99-8.584-3.267-11.9-6.584l-.021-.021-86.812-86.989-86.394-86.572c-7.488-7.503-9.178-18.882-4.193-28.294 3.154-5.983 8.825-10.381 15.535-12.057l41.599-10.431c2.807-.7 5.6-1.542 8.28-2.496 12.912-4.554 24.834-12.079 34.493-21.767l22.868-22.912c16.737-16.767 37.972-27.339 61.405-30.564 18.264-2.51 36.812-.325 53.973 6.343.007.007.014 0 .021.007l41.861 19.277 19.46 42.133-.007.007c6.661 17.199 8.853 35.797 6.343 54.12-3.224 23.478-13.774 44.75-30.497 61.517l-22.868 22.912c-9.666 9.681-17.175 21.632-21.715 34.559-.962 2.716-1.803 5.509-2.503 8.316l-10.437 41.893c-3.191 12.695-15.706 20.431-28.491 17.603z" fill="#ffe67b"/><path d="m336.983 187.749c-5.848 5.862-15.436 5.778-21.298-.071-5.855-5.855-5.777-15.268.064-21.123l161.87-162.196c5.848-5.863 15.429-5.785 21.298.07 5.855 5.855 5.784 15.261-.064 21.123z" fill="#ff8a3c"/><path d="m315.685 187.679 183.233-183.249c5.855 5.855 5.784 15.261-.064 21.123l-161.871 162.196c-5.848 5.863-15.436 5.778-21.298-.07z" fill="#e56705"/><path d="m311.06 253.898-30.773-30.819-30.568-30.599c.007.007.014 0 .021.007l20.838-20.883c8.365-8.38 19.969-13.012 31.82-12.701 2.807.078 5.629.453 8.401 1.103 8.047 1.881 15.21 6.046 20.789 11.767 5.629 5.756 9.638 13.09 11.335 21.25 3.055 14.794-1.287 30.239-11.328 40.295z" fill="#ffd400"/><path d="m200.886 494.824c-4.469-.99-8.584-3.267-11.9-6.584l-.021-.021-86.812-86.989 189.448-189.465 19.46 42.133-.007.007c6.661 17.199 8.853 35.797 6.343 54.12-3.224 23.478-13.774 44.75-30.497 61.517l-22.868 22.912c-9.666 9.681-17.175 21.632-21.715 34.559-.962 2.716-1.803 5.509-2.503 8.316l-10.437 41.893c-3.191 12.694-15.706 20.43-28.491 17.602z" fill="#ffd400"/><path d="m311.06 253.898-30.773-30.819 51.301-51.305c5.629 5.756 9.638 13.09 11.335 21.25 3.055 14.794-1.287 30.239-11.328 40.295z" fill="#ffb600"/></svg>