<svg id="Capa_1" enable-background="new 0 0 512 512" height="512" viewBox="0 0 512 512" width="512" xmlns="http://www.w3.org/2000/svg"><path d="m336.343 381.39c.04 29.02-10.073 56.46-29.248 79.38-18.385 21.98-44.443 38.32-73.371 46.01-12.914 3.46-26.418 5.22-40.132 5.22h-.48c-13.664-.05-27.138-1.85-40.082-5.34-28.988-7.81-55.116-24.27-73.571-46.35-19.186-22.97-29.358-50.4-29.409-79.33l-.05-13.03c0-5.19 2.021-10.04 5.672-13.69 3.631-3.62 8.452-5.62 13.584-5.62h.03l15.935.02h.07c14.444 0 26.718-9.14 29.208-21.76 1.02-5.18 1.851-9.37 2.531-12.8 2.871-14.38 2.861-14.47 2.851-16.86-.02-11.89-9.453-22.64-22.436-25.6-8.772-2.01-14.914-9.71-14.934-18.74l-.04-13.1c-.07-48.05 37.171-89.68 88.556-99l12.714-.13h18.005l15.614.79c23.957 5.09 45.733 17.72 61.328 35.57 15.885 18.18 24.657 41 24.697 64.27l.03 11.9c0 9.02-6.212 16.75-15.104 18.81-14.824 3.42-24.337 16.61-21.656 30.03l5.021 25.08c2.541 12.67 14.914 21.88 29.409 21.91l16.005.02c10.573.02 19.196 8.65 19.216 19.24z" fill="#ff8a3c"/><path d="m336.343 381.39c.04 29.02-10.073 56.46-29.248 79.38-18.385 21.98-44.443 38.32-73.371 46.01-12.914 3.46-26.418 5.22-40.132 5.22h-.48v-371.33h8.632l15.614.79c23.957 5.09 45.733 17.72 61.328 35.57 15.885 18.18 24.657 41 24.697 64.27l.03 11.9c0 9.02-6.212 16.75-15.104 18.81-14.824 3.42-24.337 16.61-21.656 30.03l5.021 25.08c2.541 12.67 14.914 21.88 29.409 21.91l16.005.02c10.573.02 19.196 8.65 19.216 19.24z" fill="#e56705"/><path d="m158.24 378.934c-8.287 0-15.004 6.716-15.004 15v13.648c0 .291-.215.527-.479.527h-8.475c-8.287 0-15.004 6.716-15.004 15s6.718 15 15.004 15h8.475c16.811 0 30.488-13.694 30.488-30.527v-13.648c-.001-8.284-6.719-15-15.005-15z" fill="#ffd400"/><path d="m252.068 408.11h-8.475c-.264 0-.479-.236-.479-.527v-13.648c0-8.284-6.718-15-15.004-15-8.287 0-15.004 6.716-15.004 15v13.648c0 16.833 13.677 30.527 30.488 30.527h8.475c8.287 0 15.004-6.716 15.004-15s-6.718-15-15.005-15z" fill="#ffb600"/><path d="m388.781 25.252h-7.425v429.369h7.425c40.373 0 73.219-32.837 73.219-73.198v-282.973c0-40.361-32.846-73.198-73.219-73.198zm43.21 356.171c0 21.234-15.407 38.94-35.631 42.533l-10.003-184.02 10.003-184.02c20.224 3.593 35.631 21.299 35.631 42.533z" fill="#e3e6ff"/><path d="m396.362 15v482c0 8.28-6.722 15-15.004 15-8.292 0-15.004-6.72-15.004-15v-482c0-8.28 6.712-15 15.004-15 8.282 0 15.004 6.72 15.004 15z" fill="#293456"/><path d="m223.2 89.675-.462 250.766c-.01 5.953-4.84 10.772-10.785 10.781l-38.657.063c-5.945.01-10.749-4.793-10.74-10.737l.462-250.776 30.118-20.093.01.01z" fill="#293456"/><path d="m223.2 89.675-.462 250.766c-.01 5.953-4.84 10.772-10.785 10.781l-19.319.031.512-281.564z" fill="#0e1830"/><path d="m258.695 48.917c-.013 8.299-6.751 15.044-15.062 15.058l-100.964.163c-8.301.013-15.027-6.711-15.014-15.009s6.761-15.044 15.062-15.058l100.964-.163c8.311-.014 15.027 6.711 15.014 15.009z" fill="#293456"/><path d="m258.695 48.917c-.013 8.299-6.751 15.044-15.062 15.058l-50.477.082.049-30.067 50.477-.082c8.31-.014 15.026 6.711 15.013 15.009z" fill="#0e1830"/><path d="m238.326 22.531-15.126 67.144-60.182.097-14.909-67.095c-2.568-11.562 6.252-22.56 18.112-22.59l54.076-.087c11.85-.019 20.635 10.951 18.029 22.531z" fill="#ffd400"/><path d="m223.2 89.675-30.086.049.145-89.68 27.038-.044c11.85-.019 20.634 10.951 18.029 22.531z" fill="#ffb600"/><path d="m396.362 15v482c0 8.28-6.722 15-15.004 15v-512c8.282 0 15.004 6.72 15.004 15z" fill="#0e1830"/></svg>