<svg id="Capa_1" enable-background="new 0 0 512 512" height="512" viewBox="0 0 512 512" width="512" xmlns="http://www.w3.org/2000/svg"><path d="m236.3 37.54v418.04c0 4.14-3.36 7.5-7.5 7.5h-60.06c-4.15 0-7.5-3.36-7.5-7.5v-418.04c0-20.7 16.83-37.54 37.53-37.54 20.69 0 37.53 16.84 37.53 37.54z" fill="#f3f4ff"/><path d="m236.3 37.54v418.04c0 4.14-3.36 7.5-7.5 7.5h-30.03v-463.08c20.69 0 37.53 16.84 37.53 37.54z" fill="#e3e6ff"/><path d="m330 144.79v.18c0 28.99-23.59 52.58-52.58 52.58h-157.31c-28.99 0-52.57-23.59-52.57-52.58v-.18c0-28.99 23.58-52.58 52.57-52.58h157.31c28.99 0 52.58 23.59 52.58 52.58z" fill="#ffe67b"/><path d="m350.02 302.01v.19c0 28.99-23.59 52.57-52.58 52.57h-197.35c-28.99 0-52.57-23.58-52.57-52.57v-.19c0-28.99 23.58-52.57 52.57-52.57h197.35c28.99 0 52.58 23.58 52.58 52.57z" fill="#4de6ff"/><path d="m365.04 459.24v.18c0 29-23.59 52.58-52.58 52.58h-227.38c-29 0-52.58-23.58-52.58-52.58v-.18c0-28.99 23.58-52.58 52.58-52.58h227.38c28.99 0 52.58 23.59 52.58 52.58z" fill="#ff8a3c"/><path d="m277.42 197.55h-78.65v-105.34h78.65c28.99 0 52.58 23.59 52.58 52.58v.18c0 28.99-23.59 52.58-52.58 52.58z" fill="#ffd400"/><path d="m297.44 354.77h-98.67v-105.33h98.67c28.99 0 52.58 23.58 52.58 52.57v.19c0 28.99-23.59 52.57-52.58 52.57z" fill="#50b8ff"/><path d="m365.04 459.24v.18c0 29-23.59 52.58-52.58 52.58h-113.69v-105.34h113.69c28.99 0 52.58 23.59 52.58 52.58z" fill="#e56705"/><path d="m277.581 129.88h-25.081c-8.284 0-15 6.716-15 15s6.716 15 15 15h25.082c8.284 0 15-6.716 15-15s-6.717-15-15.001-15z" fill="#f3f4ff"/><path d="m146.509 129.88h-25.082c-8.284 0-15 6.716-15 15s6.716 15 15 15h25.082c8.284 0 15-6.716 15-15s-6.716-15-15-15z" fill="#fff"/><path d="m296.865 287.105h-25.082c-8.284 0-15 6.716-15 15s6.716 15 15 15h25.082c8.284 0 15-6.716 15-15s-6.716-15-15-15z" fill="#f3f4ff"/><path d="m125.752 287.105h-25.082c-8.284 0-15 6.716-15 15s6.716 15 15 15h25.082c8.284 0 15-6.716 15-15s-6.716-15-15-15z" fill="#fff"/><path d="m311.881 444.331h-25.082c-8.284 0-15 6.716-15 15s6.716 15 15 15h25.082c8.284 0 15-6.716 15-15s-6.716-15-15-15z" fill="#f3f4ff"/><path d="m110.737 444.331h-25.082c-8.284 0-15 6.716-15 15s6.716 15 15 15h25.082c8.284 0 15-6.716 15-15s-6.716-15-15-15z" fill="#fff"/><path d="m432.31 96.92v400.08c0 8.28-6.71 15-15 15-8.28 0-15-6.72-15-15v-400.08c0-8.29 6.72-15 15-15 8.29 0 15 6.71 15 15z" fill="#f3f4ff"/><path d="m432.31 96.92v400.08c0 8.28-6.71 15-15 15v-430.08c8.29 0 15 6.71 15 15z" fill="#e3e6ff"/><path d="m479.5 62.21c0 34.3-27.9 62.21-62.19 62.21-34.28 0-62.18-27.91-62.18-62.21s27.9-62.21 62.18-62.21c34.29 0 62.19 27.91 62.19 62.21z" fill="#293456"/><path d="m479.5 62.21c0 34.3-27.9 62.21-62.19 62.21v-124.42c34.29 0 62.19 27.91 62.19 62.21z" fill="#0e1830"/></svg>