<svg id="Capa_1" enable-background="new 0 0 512 512" height="512" viewBox="0 0 512 512" width="512" xmlns="http://www.w3.org/2000/svg"><path d="m330.71 301.51v135.79l-74.72 20-74.71-20v-135.79c0-8.28 6.72-15 15-15h119.43c8.29 0 15 6.72 15 15z" fill="#ffd400"/><path d="m330.71 437.3-74.72 20v-170.79h59.72c8.29 0 15 6.72 15 15z" fill="#ffb600"/><path d="m181.28 437.3h149.43v59.7h-149.43z" fill="#f3f4ff"/><path d="m405.77 176.58-25.23 29.84 14.77 29.83-7.57 43.21c-3.76 21.47-22.26 37.05-43.99 37.05h-175.51c-21.73 0-40.23-15.58-43.99-37.05l-7.57-43.21 14.77-29.83-25.23-29.84-17.5-99.82 167.27-30h.01l167.27 30z" fill="#ffe67b"/><path d="m405.77 176.58-25.23 29.84 14.77 29.83-7.57 43.21c-3.76 21.47-22.26 37.05-43.99 37.05h-87.76v-269.75h.01l167.27 30z" fill="#ffd400"/><path d="m405.77 176.58-10.46 59.67h-278.63l-10.46-59.67z" fill="#4de6ff"/><path d="m355.62 497c0 8.28-6.72 15-15 15h-169.24c-8.29 0-15-6.72-15-15s6.71-15 15-15h169.24c8.28 0 15 6.72 15 15z" fill="#4de6ff"/><path d="m423.5 74.17c0 .87-.08 1.73-.23 2.59h-334.55c-.15-.86-.22-1.72-.22-2.59 0-6.51 1.68-12.95 4.87-18.62l19.66-34.97c7.14-12.7 20.6-20.58 35.13-20.58h215.67c14.53 0 27.99 7.88 35.13 20.58l19.66 34.97c3.19 5.67 4.88 12.11 4.88 18.62z" fill="#f3f4ff"/><path d="m255.99 437.3h74.72v59.7h-74.72z" fill="#e3e6ff"/><path d="m355.62 497c0 8.28-6.72 15-15 15h-84.63v-30h84.63c8.28 0 15 6.72 15 15z" fill="#50b8ff"/><path d="m255.99 176.58h149.78l-10.46 59.67h-139.32z" fill="#50b8ff"/><path d="m423.5 74.17c0 .87-.08 1.73-.23 2.59h-167.28v-76.76h107.84c14.53 0 27.99 7.88 35.13 20.58l19.66 34.97c3.19 5.67 4.88 12.11 4.88 18.62z" fill="#e3e6ff"/></svg>