<svg id="Capa_1" enable-background="new 0 0 512 512" height="512" viewBox="0 0 512 512" width="512" xmlns="http://www.w3.org/2000/svg"><path d="m295.797 104.252h136.465v30.001h-136.465z" fill="#bc4f04" transform="matrix(.36 -.933 .933 .36 121.86 416.055)"/><path d="m132.942 51.02h30.001v136.464h-30.001z" fill="#e56705" transform="matrix(.933 -.36 .36 .933 -32.985 61.172)"/><path d="m37.594 51.78h30v401.794h-30z" fill="#e56705"/><path d="m444.407 51.78h30v401.794h-30z" fill="#bc4f04"/><path d="m512 19.34v31.54c0 10.66-8.67 19.33-19.33 19.33h-473.34c-10.66 0-19.33-8.67-19.33-19.33v-31.54c0-10.66 8.67-19.34 19.33-19.34h473.34c10.66 0 19.33 8.68 19.33 19.34z" fill="#ff8a3c"/><path d="m75.56 441.786h-45.932c-16.337 0-29.628 13.296-29.628 29.639v33.072c0 4.144 3.357 7.503 7.5 7.503h90.187c4.143 0 7.5-3.359 7.5-7.503v-33.072c0-16.343-13.291-29.639-29.627-29.639z" fill="#ff8a3c"/><path d="m482.373 441.786h-45.932c-16.336 0-29.627 13.296-29.627 29.639v33.072c0 4.144 3.357 7.503 7.5 7.503h90.186c4.143 0 7.5-3.359 7.5-7.503v-33.072c0-16.343-13.291-29.639-29.627-29.639z" fill="#e56705"/><path d="m415.92 283.44c0 88.22-71.74 159.98-159.92 159.99h-.01c-88.19 0-159.94-71.77-159.94-159.99s71.75-160 159.94-160h.01c88.18.01 159.92 71.78 159.92 160z" fill="#ffe67b"/><path d="m415.92 283.44c0 88.22-71.74 159.98-159.92 159.99v-319.99c88.18.01 159.92 71.78 159.92 160z" fill="#ffd400"/><path d="m308.86 283.44c0 29.16-23.71 52.88-52.86 52.89h-.01c-29.16 0-52.88-23.73-52.88-52.89 0-29.17 23.72-52.9 52.88-52.9h.01c29.15.01 52.86 23.73 52.86 52.9z" fill="#ffd400"/><path d="m512 19.34v31.54c0 10.66-8.67 19.33-19.33 19.33h-236.67v-70.21h236.67c10.66 0 19.33 8.68 19.33 19.34z" fill="#e56705"/><path d="m308.86 283.44c0 29.16-23.71 52.88-52.86 52.89v-105.79c29.15.01 52.86 23.73 52.86 52.9z" fill="#ffb600"/></svg>