<svg height="512pt" viewBox="0 0 512 512" width="512pt" xmlns="http://www.w3.org/2000/svg"><path d="m15 512c-3.941406 0-7.769531-1.554688-10.605469-4.394531-3.480469-3.480469-5.03125-8.445313-4.152343-13.289063l32.132812-176.734375c.546875-3 1.996094-5.765625 4.152344-7.921875l282.546875-282.546875c17.480469-17.484375 40.730469-27.113281 65.457031-27.113281 24.730469 0 47.976562 9.628906 65.460938 27.113281l34.890624 34.894531c17.484376 17.484376 27.113282 40.730469 27.113282 65.457032 0 24.730468-9.628906 47.976562-27.113282 65.460937l-282.542968 282.546875c-2.15625 2.160156-4.921875 3.605469-7.921875 4.152344l-176.734375 32.132812c-.894532.164063-1.792969.242188-2.683594.242188zm0 0" fill="#ffe100"/><path d="m494.269531 73 .007813-.011719c-.347656-.476562-.710938-.957031-1.070313-1.4375s-.730469-.949219-1.097656-1.421875c-.371094-.46875-.75-.9375-1.132813-1.398437-.378906-.46875-.769531-.929688-1.160156-1.390625-.386718-.460938-.789062-.910156-1.1875-1.359375-.371094-.421875-.75-.839844-1.140625-1.261719-.339843-.367188-.679687-.730469-1.03125-1.097656-.519531-.550782-1.039062-1.082032-1.570312-1.609375l-17.449219-17.453125-307.5 307.511718h-.007812l-155.53125 155.53125v.007813c2.839843 2.832031 6.660156 4.390625 10.601562 4.390625.886719 0 1.789062-.078125 2.679688-.238281l46.238281-8.410157 49.761719-9.050781c.070312-.011719.148437-.019531.21875-.039062l.589843-.101563 79.929688-14.539062c3-.542969 5.761719-1.992188 7.921875-4.152344.019531-.019531.078125-.070312.160156-.148438.148438-.128906.359375-.339843.628906-.628906.03125-.03125.058594-.0625.078125-.089844l281.679688-281.671874c17.480469-17.488282 27.113281-40.730469 27.113281-65.46875 0-19.851563-6.222656-38.742188-17.730469-54.460938zm0 0" fill="#ecb402"/><path d="m494.28125 72.988281c-2.824219-3.859375-5.949219-7.535156-9.394531-10.980469l-34.894531-34.894531c-3.445313-3.445312-7.121094-6.574219-10.980469-9.394531l-430.363281 430.359375-8.40625 46.238281c-.878907 4.84375.671874 9.808594 4.152343 13.289063 2.835938 2.839843 6.664063 4.394531 10.605469 4.394531.890625 0 1.789062-.078125 2.683594-.242188l46.238281-8.40625zm0 0" fill="#ecb402"/><path d="m494.277344 72.988281-430.359375 430.363281-46.238281 8.410157c-.890626.160156-1.792969.238281-2.679688.238281-3.941406 0-7.761719-1.558594-10.601562-4.390625v-.007813l155.53125-155.53125h.007812l307.5-307.511718 17.449219 17.453125c.53125.527343 1.050781 1.058593 1.570312 1.609375.351563.367187.691407.730468 1.03125 1.097656.390625.421875.769531.839844 1.140625 1.261719.398438.449219.800782.898437 1.1875 1.359375.390625.460937.78125.921875 1.160156 1.390625.382813.460937.761719.929687 1.132813 1.398437.367187.472656.738281.941406 1.097656 1.421875s.722657.960938 1.070313 1.4375zm0 0" fill="#bb8901"/><path d="m37.46875 308.710938-.789062.789062c.148437-.171875.410156-.449219.789062-.789062zm0 0" fill="#ffddd2"/><path d="m206.734375 464.867188c0-88.003907-71.597656-159.601563-159.601563-159.601563-7.046874 0-10.375 4.164063-10.605468 4.394531-2.15625 2.15625-3.605469 4.921875-4.148438 7.925782l-32.136718 176.730468c-.878907 4.84375.671874 9.808594 4.152343 13.289063 2.835938 2.839843 6.664063 4.394531 10.605469 4.394531.890625 0 1.789062-.078125 2.683594-.242188l176.734375-32.132812c3-.546875 5.765625-1.992188 7.921875-4.152344.253906-.253906 4.394531-3.574218 4.394531-10.605468zm0 0" fill="#ffddd2"/><path d="m206.726562 464.871094c0 5.160156-2.226562 8.320312-3.519531 9.730468-.019531.027344-.046875.058594-.078125.089844-.269531.289063-.480468.5-.628906.628906-.082031.078126-.140625.128907-.160156.148438-2.160156 2.160156-4.921875 3.609375-7.921875 4.152344l-79.929688 14.539062-.589843.101563c-.070313.019531-.148438.027343-.21875.039062l-49.761719 9.050781-46.238281 8.410157c-.890626.160156-1.792969.238281-2.679688.238281-3.941406 0-7.761719-1.558594-10.601562-4.390625v-.007813l155.53125-155.53125h.007812c9.289062 9.289063 17.441406 19.710938 24.222656 31.039063 14.328125 23.921875 22.566406 51.890625 22.566406 81.761719zm0 0" fill="#eaa898"/><path d="m98.878906 487.824219c0-41.191407-33.511718-74.703125-74.703125-74.703125-4.359375 0-8.140625 2.34375-10.21875 5.777344l-13.714843 75.417968c-.878907 4.84375.671874 9.808594 4.152343 13.289063 2.835938 2.839843 6.664063 4.394531 10.605469 4.394531.890625 0 1.789062-.078125 2.683594-.242188l75.414062-13.710937c3.441406-2.085937 5.78125-5.875 5.78125-10.222656zm0 0" fill="#ff7d00"/><path d="m98.878906 487.824219c0-20.597657-8.378906-39.277344-21.910156-52.804688l-72.582031 72.582031c.003906 0 .003906.003907.007812.003907 2.835938 2.839843 6.664063 4.394531 10.605469 4.394531.890625 0 1.789062-.078125 2.683594-.242188l75.414062-13.710937c3.441406-2.085937 5.78125-5.875 5.78125-10.222656zm0 0" fill="#f13800"/></svg>