<svg height="512pt" viewBox="0 0 512 512" width="512pt" xmlns="http://www.w3.org/2000/svg"><path d="m15 512c-3.839844 0-7.679688-1.464844-10.605469-4.394531-5.859375-5.859375-5.859375-15.355469 0-21.210938l64.265625-64.269531c5.855469-5.855469 15.355469-5.855469 21.214844 0 5.855469 5.859375 5.855469 15.355469 0 21.214844l-64.269531 64.265625c-2.929688 2.929687-6.765625 4.394531-10.605469 4.394531zm0 0" fill="#5258e3"/><path d="m89.871094 443.339844-4.390625 4.390625-59.871094 59.878906c-2.929687 2.929687-6.769531 4.390625-10.609375 4.390625s-7.679688-1.460938-10.609375-4.390625l85.480469-85.480469c5.859375 5.851563 5.859375 15.351563 0 21.210938zm0 0" fill="#1827c6"/><path d="m497 0h-101.910156c-21.023438 0-41.1875 8.351562-56.054688 23.21875-7.558594 7.554688-11.800781 17.804688-11.800781 28.492188v78.21875c0 8.078124-6.207031 15.027343-14.277344 15.40625-8.613281.40625-15.722656-6.457032-15.722656-14.984376v-47.222656c0-6.683594-8.082031-10.03125-12.804687-5.304687l-189.886719 189.886719c-19.523438 19.523437-30.277344 45.480468-30.277344 73.089843v91.933594c0 8.28125 6.714844 15 15 15h91.933594c27.609375 0 53.566406-10.753906 73.089843-30.277344l244.496094-244.496093c14.96875-14.96875 23.214844-34.875 23.214844-56.050782v-101.910156c0-8.285156-6.714844-15-15-15zm0 0" fill="#eff6fe"/><path d="m512 15v101.910156c0 21.179688-8.242188 41.078125-23.21875 56.050782l-244.492188 244.5c-19.519531 19.519531-45.480468 30.269531-73.089843 30.269531h-91.929688c-4.148437 0-7.890625-1.679688-10.609375-4.390625l438.9375-438.941406c2.722656 2.710937 4.402344 6.460937 4.402344 10.601562zm0 0" fill="#d2dce7"/><path d="m192.800781 169.453125v70.480469c0 8.285156 6.714844 15 15 15 8.28125 0 15-6.714844 15-15v-100.480469zm0 0" fill="#d2dce7"/><g fill="#a1aebc"><path d="m340.410156 321.332031h-132.609375c-8.285156 0-15 6.71875-15 15 0 8.285157 6.714844 15 15 15h102.613281zm0 0"/><path d="m384.53125 176.734375c-8.28125 0-15 6.714844-15 15 0 8.28125 6.71875 15 15 15h70.476562l30-30zm0 0"/></g></svg>