<svg height="512pt" viewBox="0 1 512 511" width="512pt" xmlns="http://www.w3.org/2000/svg"><path d="m507.605469 101.289062-96.398438-96.402343c-5.855469-5.851563-15.351562-5.847657-21.214843 0l-385.601563 385.601562c-5.847656 5.863281-5.855469 15.355469-.007813 21.21875l96.402344 96.402344c2.933594 2.933594 6.78125 4.390625 10.613282 4.390625 3.847656 0 7.683593-1.464844 10.613281-4.390625l385.601562-385.601563c5.847657-5.859374 5.847657-15.363281-.007812-21.21875zm0 0" fill="#ffe100"/><g fill="#ff7d00"><path d="m111.398438 401.101562c-5.847657 5.835938-15.34375 5.871094-21.222657-.007812l-48.195312-48.195312 21.222656-21.21875 48.195313 48.195312c5.847656 5.863281 5.847656 15.367188 0 21.226562zm0 0"/><path d="m207.796875 304.703125c-5.847656 5.832031-15.34375 5.867187-21.21875-.007813l-48.195313-48.195312 21.21875-21.21875 48.195313 48.195312c5.847656 5.859376 5.847656 15.363282 0 21.226563zm0 0"/><path d="m304.199219 208.300781c-5.863281 5.851563-15.359375 5.855469-21.222657-.003906l-48.195312-48.195313 21.21875-21.222656 48.195312 48.195313c5.847657 5.863281 5.847657 15.367187.003907 21.226562zm0 0"/><path d="m400.597656 111.902344c-5.863281 5.847656-15.359375 5.855468-21.21875-.007813l-48.199218-48.195312 21.222656-21.21875 48.195312 48.195312c5.847656 5.863281 5.855469 15.359375 0 21.226563zm0 0"/><path d="m143.527344 336.828125c-5.859375 5.859375-15.355469 5.867187-21.210938 0l-32.140625-32.125 21.222657-21.21875 32.128906 32.128906c5.863281 5.863281 5.863281 15.351563 0 21.214844zm0 0"/><path d="m239.929688 240.425781c-5.863282 5.863281-15.359376 5.871094-21.207032.007813l-32.144531-32.132813 21.21875-21.21875 32.136719 32.136719c5.855468 5.855469 5.855468 15.347656-.003906 21.207031zm0 0"/><path d="m336.328125 144.027344c-5.863281 5.859375-15.351563 5.859375-21.207031.007812l-32.136719-32.140625 21.214844-21.210937 32.128906 32.128906c5.863281 5.863281 5.863281 15.351562 0 21.214844zm0 0"/></g><path d="m507.613281 101.289062-48.199219-48.203124-406.824218 406.824218 48.199218 48.199219c2.929688 2.929687 6.769532 4.390625 10.609376 4.390625 3.839843 0 7.679687-1.460938 10.609374-4.390625l385.605469-385.601563c5.847657-5.859374 5.847657-15.359374 0-21.21875zm0 0" fill="#ecb402"/></svg>