<svg height="512pt" viewBox="0 0 512 512" width="512pt" xmlns="http://www.w3.org/2000/svg"><path d="m213.261719 363.007812-64.269531-64.269531c-5.601563-5.601562-5.882813-14.589843-.640626-20.53125 0 0 165.671876-187.757812 222.289063-251.929687 14.742187-16.699219 35.96875-26.277344 58.238281-26.277344 45.914063 0 83.121094 37.121094 83.121094 83.105469 0 22.289062-9.578125 43.515625-26.277344 58.25-64.175781 56.621093-251.933594 222.292969-251.933594 222.292969-8.097656 7.144531-17.28125 2.605468-20.527343-.640626zm0 0" fill="#eff6fe"/><path d="m213.261719 363.007812c3.242187 3.242188 12.429687 7.785157 20.527343.640626 0 0 187.757813-165.671876 251.933594-222.292969 16.699219-14.734375 26.277344-35.960938 26.277344-58.25 0-22.984375-9.296875-43.75-24.328125-58.78125l-306.542969 306.546875zm0 0" fill="#d2dce7"/><path d="m207.800781 512h-16.066406c-105.722656 0-191.734375-86.011719-191.734375-191.734375v-16.066406c0-7.640625 5.746094-14.0625 13.34375-14.90625l144.601562-16.066407c4.527344-.507812 9.039063 1.078126 12.261719 4.300782l64.265625 64.265625c3.222656 3.222656 4.804688 7.734375 4.304688 12.265625l-16.066406 144.597656c-.847657 7.597656-7.269532 13.34375-14.910157 13.34375zm0 0" fill="#5258e3"/><path d="m428.878906 0c-22.269531 0-43.496094 9.578125-58.238281 26.277344-29.566406 33.511718-88.871094 100.726562-138.792969 157.304687l96.570313 96.570313c56.578125-49.921875 123.792969-109.226563 157.304687-138.796875 16.699219-14.734375 26.277344-35.960938 26.277344-58.25 0-45.984375-37.207031-83.105469-83.121094-83.105469zm0 0" fill="#ff7d00"/><path d="m328.417969 280.152344c56.578125-49.921875 123.792969-109.226563 157.304687-138.796875 16.699219-14.734375 26.277344-35.960938 26.277344-58.25 0-22.984375-9.296875-43.75-24.328125-58.78125l-207.539063 207.542969zm0 0" fill="#f13800"/><path d="m234.46875 341.789062-32.128906-32.128906-21.210938 21.21875-124.910156 124.902344c34.722656 34.71875 82.652344 56.21875 135.511719 56.21875h16.070312c7.640625 0 14.058594-5.75 14.910157-13.339844l15.417968-138.839844.640625-5.761718c.511719-4.527344-1.070312-9.039063-4.300781-12.269532zm0 0" fill="#1827c6"/></svg>