<svg height="512pt" viewBox="0 0 512 512" width="512pt" xmlns="http://www.w3.org/2000/svg"><path d="m34.84375 512c-19.214844 0-34.84375-15.628906-34.84375-34.84375v-.015625c0-11.730469 4.757812-23.226563 13.054688-31.546875 5.484374-5.472656 12.382812-12.363281 17.277343-17.265625 1.132813-1.140625 1.800781-2.742187 1.800781-4.359375 0-29.417969 11.457032-57.085938 32.261719-77.917969 55.199219-55.171875 172.964844-172.957031 172.964844-172.957031 5.859375-5.859375 15.363281-5.851562 21.214844 0l80.332031 80.335938c5.859375 5.855468 5.859375 15.351562 0 21.210937 0 0-117.769531 117.785156-172.960938 172.953125-20.476562 20.507812-48.882812 32.273438-77.921874 32.273438-1.617188 0-3.1875.644531-4.304688 1.769531-4.929688 4.9375-11.847656 11.851562-17.320312 17.304687-8.261719 8.285156-19.777344 13.058594-31.554688 13.058594zm0 0" fill="#eff6fe"/><path d="m338.910156 253.429688-40.171875-40.167969-288.519531 288.519531c6.300781 6.308594 15.019531 10.21875 24.621094 10.21875 11.78125 0 23.300781-4.769531 31.558594-13.058594 5.472656-5.460937 12.390624-12.371094 17.320312-17.3125 1.121094-1.117187 2.691406-1.757812 4.300781-1.757812 29.039063 0 57.449219-11.769532 77.929688-32.28125 55.191406-55.160156 172.960937-172.949219 172.960937-172.949219 5.851563-5.859375 5.851563-15.359375 0-21.210937zm0 0" fill="#d2dce7"/><path d="m373.925781 234.472656-96.398437-96.398437c-5.859375-5.859375-5.859375-15.355469 0-21.214844 0 0 61.296875-61.304687 93.4375-93.394531 15.113281-15.128906 35.230468-23.464844 56.628906-23.464844 46.542969 0 84.40625 37.863281 84.40625 84.40625 0 21.4375-8.320312 41.558594-23.429688 56.675781-32.140624 32.09375-93.429687 93.390625-93.429687 93.390625-5.859375 5.859375-15.363281 5.851563-21.214844 0zm0 0" fill="#ecb402"/><path d="m333.769531 290.714844s-97.289062-97.304688-112.46875-112.46875c-19.207031-19.171875-19.230469-50.230469.003907-69.429688 19.128906-19.097656 50.261718-19.097656 69.390624 0l112.472657 112.46875c19.203125 19.167969 19.230469 50.230469-.003907 69.429688-19.125 19.09375-50.257812 19.105468-69.394531 0zm0 0" fill="#ffe100"/><path d="m487.25 24.75-161.519531 161.519531 48.199219 48.199219c5.851562 5.859375 15.351562 5.859375 21.210937 0 0 0 61.289063-61.289062 93.429687-93.390625 15.109376-15.117187 23.429688-35.238281 23.429688-56.667969 0-23.269531-9.46875-44.371094-24.75-59.660156zm0 0" fill="#bb8901"/><path d="m403.171875 221.289062-56.230469-56.230468-69.410156 69.410156c28.277344 28.28125 56.238281 56.25 56.238281 56.25 19.140625 19.101562 50.269531 19.089844 69.390625 0 19.238282-19.199219 19.210938-50.257812.011719-69.429688zm0 0" fill="#ecb402"/><path d="m90.1875 320.265625c-9.464844 9.460937-18.21875 18.214844-25.792969 25.785156-20.804687 20.832031-32.261719 48.503907-32.261719 77.917969 0 1.617188-.667968 3.21875-1.800781 4.359375-4.894531 4.902344-11.792969 11.792969-17.277343 17.265625-8.296876 8.316406-13.054688 19.816406-13.054688 31.546875v.015625c0 19.214844 15.628906 34.84375 34.84375 34.84375 11.777344 0 23.292969-4.773438 31.554688-13.0625 5.472656-5.453125 12.390624-12.363281 17.320312-17.304688 1.117188-1.121093 2.6875-1.765624 4.304688-1.765624 29.039062 0 57.445312-11.769532 77.921874-32.277344 32.9375-32.921875 88.160157-88.140625 127.339844-127.324219zm0 0" fill="#00e1c8"/><path d="m293.28125 320.269531c-39.179688 39.179688-94.402344 94.402344-127.332031 127.320313-20.480469 20.511718-48.890625 32.28125-77.929688 32.28125-1.609375 0-3.179687.640625-4.300781 1.757812-4.929688 4.941406-11.847656 11.851563-17.320312 17.3125-8.257813 8.289063-19.777344 13.058594-31.558594 13.058594-9.601563 0-18.320313-3.910156-24.621094-10.21875l181.511719-181.511719zm0 0" fill="#009b91"/></svg>