<svg height="512pt" viewBox="-16 0 512 512" width="512pt" xmlns="http://www.w3.org/2000/svg"><path d="m63.203125 512c-5.972656 0-11.414063-3.550781-13.789063-9.089844l-48.199218-112.46875c-2.417969-5.636718-1.1601565-12.175781 3.179687-16.515625l80.332031-80.332031c5.859376-5.859375 15.355469-5.859375 21.214844 0l80.332032 80.332031c5.859374 5.859375 5.859374 15.355469 0 21.214844l-112.464844 112.464844c-2.839844 2.839843-6.667969 4.394531-10.605469 4.394531zm0 0" fill="#eff6fe"/><path d="m186.273438 395.140625-112.46875 112.46875c-2.839844 2.839844-6.660157 4.390625-10.601563 4.390625-5.980469 0-11.417969-3.550781-13.789063-9.089844l-22.667968-52.890625 70.597656-70.597656 42.179688-42.183594 5.03125-5.027343 41.71875 41.71875c5.859374 5.851562 5.859374 15.351562 0 21.210937zm0 0" fill="#d2dce7"/><path d="m223.867188 399.53125h-80.332032c-34.851562 0-63.199218-28.347656-63.199218-63.199219v-80.332031c0-3.976562 1.578124-7.792969 4.390624-10.605469l215.566407-215.566406c19.234375-19.234375 44.808593-29.828125 72.015625-29.828125 59.316406 0 107.558594 48.242188 107.558594 107.542969 0 27.222656-10.59375 52.796875-29.824219 72.03125l-215.570313 215.566406c-2.8125 2.8125-6.628906 4.390625-10.605468 4.390625zm0 0" fill="#ff7d00"/><path d="m446.765625 30h-.011719l-149.570312 149.570312-77.4375 77.449219-80.222656 80.21875-42.179688 42.183594c11.539062 12.367187 27.980469 20.109375 46.191406 20.109375h80.328125c3.980469 0 7.800781-1.582031 10.609375-4.390625l215.570313-215.570313c19.230469-19.230468 29.820312-44.800781 29.820312-72.03125 0-30.4375-12.707031-57.960937-33.097656-77.539062zm0 0" fill="#f13800"/><path d="m199.769531 343.300781h-48.203125c-8.28125 0-15-6.714843-15-15v-48.199219c0-3.980468 1.582032-7.792968 4.394532-10.609374l160.667968-160.664063c5.859375-5.859375 15.363282-5.851563 21.214844 0l48.199219 48.199219c5.855469 5.859375 5.855469 15.355468 0 21.210937l-160.667969 160.667969c-2.8125 2.8125-6.628906 4.394531-10.605469 4.394531zm0 0" fill="#eff6fe"/><path d="m371.042969 157.03125-25.660157-25.660156-48.199218 48.199218-77.4375 77.449219-80.222656 80.21875c2.730468 3.683594 7.109374 6.0625 12.039062 6.0625h48.203125c3.980469 0 7.796875-1.582031 10.609375-4.390625l160.667969-160.671875c5.851562-5.859375 5.851562-15.359375 0-21.207031zm0 0" fill="#d2dce7"/><path d="m372.308594 0c-27.207032 0-52.78125 10.59375-72.015625 29.828125l149.746093 149.746094c19.234376-19.234375 29.828126-44.808594 29.828126-72.03125 0-59.300781-48.242188-107.542969-107.558594-107.542969zm0 0" fill="#ffe100"/><path d="m479.863281 107.539062c0 27.230469-10.589843 52.800782-29.820312 72.03125l-76.429688-76.429687 73.140625-73.140625h.011719c20.390625 19.578125 33.097656 47.101562 33.097656 77.539062zm0 0" fill="#ecb402"/><path d="m245.394531 282.671875-48.199219-48.199219c-5.859374-5.859375-5.859374-15.355468 0-21.210937l56.234376-56.234375c5.859374-5.859375 15.359374-5.851563 21.210937 0l48.199219 48.199218c5.859375 5.859376 5.859375 15.355469 0 21.214844l-56.230469 56.230469c-5.859375 5.859375-15.363281 5.855469-21.214844 0zm0 0" fill="#ffe100"/><path d="m322.84375 205.230469-25.660156-25.660157-77.4375 77.449219 25.648437 25.652344c5.851563 5.859375 15.351563 5.859375 21.210938 0l56.238281-56.230469c5.851562-5.863281 5.851562-15.363281 0-21.210937zm0 0" fill="#ecb402"/></svg>