<svg height="512pt" viewBox="0 0 512 512" width="512pt" xmlns="http://www.w3.org/2000/svg"><path d="m63.199219 512c-3.839844 0-7.675781-1.464844-10.605469-4.394531l-48.199219-48.199219c-5.859375-5.859375-5.859375-15.355469 0-21.214844l64.265625-64.265625c5.855469-5.859375 15.355469-5.859375 21.214844 0l48.199219 48.199219c5.855469 5.859375 5.855469 15.355469 0 21.214844l-64.269531 64.265625c-2.925782 2.929687-6.765626 4.394531-10.605469 4.394531zm0 0" fill="#5258e3"/><path d="m138.070312 422.128906-24.101562-24.097656-85.480469 85.480469 24.101563 24.097656c2.929687 2.929687 6.769531 4.390625 10.609375 4.390625 3.839843 0 7.679687-1.460938 10.609375-4.390625l53.671875-53.667969 10.589843-10.601562c5.859376-5.859375 5.859376-15.359375 0-21.210938zm0 0" fill="#1827c6"/><path d="m162.488281 469.390625c-12.164062 0-24.269531-4.667969-33.359375-13.796875-10.21875-10.21875-23.292968-23.285156-36.367187-36.351562-13.074219-13.066407-26.148438-26.132813-36.390625-36.378907-16.554688-16.621093-18.328125-43.214843-4.152344-61.878906 50.777344-66.617187 192.261719-252.347656 230.246094-302.257813 8.992187-11.738281 23.113281-18.726562 37.800781-18.726562 14.222656 0 28.050781 5.734375 38.019531 15.738281 14.613282 14.625 41.4375 41.445313 68.355469 68.359375 27.347656 27.335938 54.785156 54.769532 69.644531 69.640625 10.136719 10.171875 15.714844 23.644531 15.714844 37.945313 0 14.714844-6.972656 28.839844-18.652344 37.785156-47.035156 35.816406-211.027344 160.753906-286.332031 218.121094l-15.992187 12.183594c-8.449219 6.449218-18.511719 9.617187-28.535157 9.617187zm0 0" fill="#eff6fe"/><path d="m474.140625 244.097656c7.605469-5.792968 14.097656-10.738281 19.207031-14.628906 11.679688-8.945312 18.652344-23.070312 18.652344-37.785156 0-14.300782-5.578125-27.773438-15.714844-37.945313-14.859375-14.871093-42.300781-42.304687-69.644531-69.640625-26.917969-26.914062-53.742187-53.734375-68.355469-68.359375-9.96875-10.003906-23.796875-15.738281-38.019531-15.738281-14.6875 0-28.808594 6.988281-37.804687 18.730469-3.84375 5.050781-8.765626 11.515625-14.53125 19.085937zm0 0" fill="#ffe100"/><path d="m496.28125 153.738281c-14.742188-14.757812-41.871094-41.886719-69.011719-69.007812l-278.269531 278.269531v.011719l-35.03125 35.019531-21.210938 21.207031c12.390626 12.382813 24.761719 24.742188 34.722657 34.703125.558593.558594 1.109375 1.109375 1.648437 1.648438 9.089844 9.128906 21.199219 13.800781 33.359375 13.800781 10.019531 0 20.082031-3.171875 28.53125-9.609375l16-12.191406c67.121094-51.140625 204.699219-155.960938 267.121094-203.488282 3.800781-2.902343 7.328125-5.582031 10.539063-8.03125.800781-.609374 1.589843-1.210937 2.351562-1.789062.117188-.089844.25-.191406.367188-.28125 1.28125-.96875 2.5-1.898438 3.660156-2.789062.789062-.601563 1.5625-1.179688 2.289062-1.742188 11.683594-8.949219 18.652344-23.070312 18.652344-37.777344 0-14.3125-5.582031-27.78125-15.71875-37.953125zm0 0" fill="#d2dce7"/><path d="m512 191.691406c0 14.707032-6.96875 28.828125-18.652344 37.777344-.726562.5625-1.5 1.140625-2.289062 1.742188-1.160156.890624-2.378906 1.820312-3.660156 2.789062-.117188.089844-.25.191406-.367188.28125-.761719.578125-1.550781 1.179688-2.351562 1.789062-3.210938 2.449219-6.738282 5.128907-10.539063 8.03125l-103.101563-103.140624 56.230469-56.230469c27.140625 27.121093 54.269531 54.25 69.011719 69.007812 10.136719 10.171875 15.71875 23.640625 15.71875 37.953125zm0 0" fill="#ecb402"/><path d="m177.554688 374.839844c-10.378907 0-20.707032-3.988282-28.554688-11.828125-14.59375-14.582031-15.863281-37.707031-2.957031-53.800781 21.191406-26.570313 60.101562-75.1875 85.960937-107.449219 9.878906-12.339844 24.589844-19.921875 40.355469-20.796875 15.785156-.867188 31.246094 5.042968 42.4375 16.210937.15625.15625.3125.316407.460937.480469 10.921876 11.160156 16.675782 26.421875 15.808594 41.984375-.878906 15.8125-8.496094 30.542969-20.902344 40.410156-33.222656 26.597657-81.585937 65.300781-107.375 85.933594-7.425781 5.929687-16.351562 8.855469-25.234374 8.855469zm-19.804688-56.25h.011719zm0 0" fill="#00e1c8"/><path d="m315.257812 197.660156c-.136718-.160156-.296874-.320312-.449218-.46875l-165.808594 165.808594v.011719c7.847656 7.839843 18.167969 11.828125 28.550781 11.828125 8.890625 0 17.808594-2.917969 25.238281-8.859375 25.789063-20.628907 74.152344-59.332031 107.371094-85.929688 12.410156-9.871093 20.03125-24.601562 20.910156-40.410156.859376-15.5625-4.890624-30.820313-15.8125-41.980469zm0 0" fill="#009b91"/></svg>