<svg height="512pt" viewBox="0 0 512 512" width="512pt" xmlns="http://www.w3.org/2000/svg"><path d="m0 400.601562v.800782c0 61.179687 49.511719 110.597656 110.597656 110.597656 52.867188 0 98.910156-36.722656 110.9375-87.855469l250.78125-250.78125c25.589844-25.589843 39.683594-59.617187 39.683594-95.808593v-62.554688c0-6.066406-3.652344-11.539062-9.261719-13.859375-5.601562-2.320313-12.054687-1.039063-16.34375 3.253906l-284.808593 284.804688h-90.1875c-61.628907 0-111.398438 49.878906-111.398438 111.402343zm48.199219 0c0-34.851562 28.351562-63.203124 63.199219-63.203124 34.847656 0 63.199218 28.351562 63.199218 63.203124 0 34.847657-28.351562 63.199219-63.199218 63.199219-34.847657 0-63.199219-28.351562-63.199219-63.199219zm0 0" fill="#d2dce7"/><path d="m110.597656 512c52.867188 0 98.910156-36.722656 110.9375-87.855469l111.910156-111.910156-77.445312-77.449219-54.414062 54.414063h-90.1875c-61.628907 0-111.398438 49.878906-111.398438 111.402343v.800782c0 61.179687 49.511719 110.597656 110.597656 110.597656zm.800782-48.199219c-34.847657 0-63.199219-28.351562-63.199219-63.199219 0-34.851562 28.351562-63.203124 63.199219-63.203124 34.847656 0 63.199218 28.351562 63.199218 63.203124 0 34.847657-28.351562 63.199219-63.199218 63.199219zm0 0" fill="#ff7d00"/><path d="m400.601562 289.199219h-90.1875l-284.808593-284.804688c-4.289063-4.292969-10.742188-5.574219-16.34375-3.253906-5.609375 2.320313-9.261719 7.792969-9.261719 13.859375v62.554688c0 36.191406 14.09375 70.21875 39.683594 95.808593l250.78125 250.78125c12.027344 51.132813 58.070312 87.855469 110.9375 87.855469 61.085937 0 110.597656-49.417969 110.597656-110.597656v-.800782c0-61.523437-49.769531-111.402343-111.398438-111.402343zm0 174.601562c-34.847656 0-63.199218-28.351562-63.199218-63.199219 0-34.851562 28.351562-63.203124 63.199218-63.203124 34.847657 0 63.199219 28.351562 63.199219 63.203124 0 34.847657-28.351562 63.199219-63.199219 63.199219zm0 0" fill="#eff6fe"/><path d="m512 401.402344v-.800782c0-61.523437-49.769531-111.402343-111.398438-111.402343h-90.1875l-54.414062-54.414063-77.445312 77.449219 111.910156 111.910156c12.027344 51.132813 58.070312 87.855469 110.9375 87.855469 61.085937 0 110.597656-49.417969 110.597656-110.597656zm-174.601562-.800782c0-34.851562 28.355468-63.203124 63.203124-63.203124 34.847657 0 63.199219 28.351562 63.199219 63.203124 0 34.847657-28.351562 63.199219-63.199219 63.199219-34.847656 0-63.203124-28.351562-63.203124-63.199219zm0 0" fill="#f13800"/><path d="m400.601562 289.199219h-90.191406l-54.410156-54.410157v154.890626l34.460938 34.460937c12.027343 51.140625 58.070312 87.859375 110.9375 87.859375 61.089843 0 110.601562-49.421875 110.601562-110.601562v-.796876c0-61.523437-49.769531-111.402343-111.398438-111.402343zm0 174.601562c-34.851562 0-63.203124-28.351562-63.203124-63.199219 0-34.851562 28.351562-63.203124 63.203124-63.203124 34.847657 0 63.199219 28.351562 63.199219 63.203124 0 34.847657-28.351562 63.199219-63.199219 63.199219zm0 0" fill="#ff7d00"/><path d="m271 304.199219c0 8.285156-6.714844 15-15 15s-15-6.714844-15-15c0-8.285157 6.714844-15 15-15s15 6.714843 15 15zm0 0" fill="#eff6fe"/><path d="m271 304.199219c0 8.28125-6.71875 15-15 15v-30c8.28125 0 15 6.71875 15 15zm0 0" fill="#d2dce7"/></svg>