<svg height="512pt" viewBox="-128 0 512 512" width="512pt" xmlns="http://www.w3.org/2000/svg"><path d="m222.5625 512h-189.742188c-9.4375 0-16.550781-8.640625-14.710937-17.914062l35-176.734376c1.609375-8.125 143.644531-8.386718 145.414063-.292968l38.6875 176.734375c2.050781 9.355469-5.085938 18.207031-14.648438 18.207031zm0 0" fill="#eff6fe"/><path d="m198.523438 317.058594c-.867188-3.972656-35.550782-5.929688-70.824219-5.9375v200.878906h94.863281c9.5625 0 16.699219-8.851562 14.652344-18.207031zm0 0" fill="#d2dce7"/><path d="m18.105469 494.085938c-1.835938 9.273437 5.277343 17.914062 14.714843 17.914062h189.738282c9.566406 0 16.703125-8.851562 14.652344-18.207031l-13.363282-61.058594h-193.589844zm0 0" fill="#5258e3"/><path d="m222.5625 512h-94.863281v-79.269531h96.152343l13.359376 61.058593c2.050781 9.359376-5.089844 18.210938-14.648438 18.210938zm0 0" fill="#1827c6"/><path d="m237.457031 163.601562-97.015625-156.503906c-2.734375-4.414062-7.558594-7.097656-12.75-7.097656s-10.011718 2.683594-12.75 7.097656l-97.015625 156.503906c-50.503906 81.453126 11.910157 183.300782 109.765625 183.300782 97.621094 0 160.367188-101.6875 109.765625-183.300782zm0 0" fill="#ff7d00"/><path d="m219.222656 309.871094c-22.691406 22.488281-54.613281 37.027344-91.523437 37.027344v-346.898438c5.191406 0 10 2.679688 12.742187 7.101562l97.019532 156.5c31.46875 50.75 19.101562 109.269532-18.238282 146.269532zm0 0" fill="#f13800"/></svg>