<svg height="512pt" viewBox="-96 0 512 512" width="512pt" xmlns="http://www.w3.org/2000/svg"><path d="m304.199219 512h-289.199219c-8.285156 0-15-6.714844-15-15v-160.898438c0-55.117187 14.992188-109.234374 43.351562-156.503906l103.386719-172.316406c2.710938-4.515625 7.59375-7.28125 12.863281-7.28125 5.265626 0 10.148438 2.765625 12.859376 7.28125l103.386718 172.316406c28.363282 47.265625 43.351563 101.386719 43.351563 156.503906v160.898438c0 8.285156-6.714844 15-15 15zm0 0" fill="#ffddd2"/><path d="m275.851562 179.601562-30.640624-51.070312-72.75-121.25c-2.710938-4.519531-7.589844-7.28125-12.859376-7.28125v512h144.597657c8.28125 0 15-6.71875 15-15v-160.898438c0-55.121093-14.988281-109.242187-43.347657-156.5zm0 0" fill="#eaa898"/><path d="m245.210938 128.53125-72.75-121.25c-2.710938-4.515625-7.59375-7.28125-12.859376-7.28125-5.269531 0-10.152343 2.765625-12.863281 7.28125l-72.75 121.25zm0 0" fill="#ff7d00"/><path d="m245.210938 128.53125h-85.609376v-128.53125c5.269532 0 10.148438 2.761719 12.859376 7.28125zm0 0" fill="#f13800"/><path d="m319.199219 336.328125v160.671875c0 8.28125-6.71875 15-15 15h-289.199219c-8.28125 0-15-6.71875-15-15v-160.671875c0-3.839844 1.460938-7.667969 4.390625-10.597656l80.339844-80.339844c3.007812-3.011719 7.179687-4.601563 11.429687-4.371094 4.261719.242188 8.21875 2.28125 10.890625 5.609375l52.550781 65.691406 52.546876-65.691406c2.671874-3.328125 6.632812-5.367187 10.890624-5.609375 4.25-.230469 8.421876 1.359375 11.429688 4.371094l80.339844 80.339844c2.929687 2.929687 4.390625 6.757812 4.390625 10.597656zm0 0" fill="#ffe100"/><path d="m319.199219 336.328125v160.671875c0 8.28125-6.71875 15-15 15h-144.597657v-199.679688l52.546876-65.691406c2.671874-3.328125 6.632812-5.367187 10.890624-5.609375 4.25-.230469 8.421876 1.359375 11.429688 4.371094l80.339844 80.339844c2.929687 2.929687 4.390625 6.757812 4.390625 10.597656zm0 0" fill="#ecb402"/><path d="m95.332031 241.019531v270.980469h128.535157v-270.980469c-.277344 0-.550782-.015625-.828126 0-4.261718.242188-8.21875 2.28125-10.890624 5.609375l-52.546876 65.691406-52.550781-65.691406c-2.671875-3.328125-6.628906-5.367187-10.890625-5.609375-.277344-.015625-.550781 0-.828125 0zm0 0" fill="#ecb402"/><path d="m223.871094 241.019531v270.980469h-64.269532v-199.679688l52.546876-65.691406c2.671874-3.328125 6.632812-5.367187 10.890624-5.609375.28125-.007812.550782 0 .832032 0zm0 0" fill="#bb8901"/></svg>