<svg height="512pt" viewBox="-64 0 512 512.00046" width="512pt" xmlns="http://www.w3.org/2000/svg"><path d="m239.933594 158.535156h-96.398438c-8.285156 0-15-6.714844-15-15v-80.332031c0-5.683594 3.207032-10.875 8.289063-13.417969l96.402343-48.199218c4.648438-2.328126 10.171876-2.078126 14.59375.65625 4.421876 2.730468 7.113282 7.558593 7.113282 12.757812v128.535156c0 8.285156-6.714844 15-15 15zm0 0" fill="#ff7d00"/><path d="m191.734375 158.535156h48.199219c8.285156 0 15-6.714844 15-15v-128.535156c0-5.199219-2.691406-10.027344-7.113282-12.757812-4.421874-2.734376-9.941406-2.984376-14.59375-.660157l-41.492187 20.75zm0 0" fill="#f13800"/><path d="m368.46875 512h-353.46875c-8.285156 0-15-6.714844-15-15v-81.859375c0-44.339844 19.535156-86.046875 53.597656-114.429687 27.203125-22.667969 42.804688-55.972657 42.804688-91.382813v-65.792969c0-8.285156 6.714844-15 15-15h160.664062c8.285156 0 15 6.714844 15 15v65.792969c0 35.410156 15.601563 68.714844 42.804688 91.382813 34.0625 28.378906 53.597656 70.089843 53.597656 114.429687v81.859375c0 8.285156-6.71875 15-15 15zm0 0" fill="#eff6fe"/><path d="m329.871094 300.710938c-27.203125-22.667969-42.804688-55.972657-42.804688-91.382813v-65.792969c0-8.285156-6.714844-15-15-15h-80.332031v383.464844h176.730469c8.285156 0 15-6.714844 15-15v-81.859375c.003906-44.339844-19.535156-86.046875-53.59375-114.429687zm0 0" fill="#d2dce7"/><path d="m0 415.140625v81.859375c0 8.285156 6.714844 15 15 15h353.46875c8.28125 0 15-6.714844 15-15v-81.859375c0-4.523437-.214844-9.015625-.617188-13.472656h-382.238281c-.398437 4.457031-.613281 8.949219-.613281 13.472656zm0 0" fill="#ff7d00"/><path d="m191.734375 512h176.730469c8.285156 0 15-6.714844 15-15v-81.859375c0-4.523437-.210938-9.015625-.613282-13.472656h-191.117187zm0 0" fill="#f13800"/></svg>