<svg height="512pt" viewBox="0 0 512 512" width="512pt" xmlns="http://www.w3.org/2000/svg"><path d="m47.132812 238.859375c-8.28125 0-15-6.707031-15-14.992187v-.015626c0-105.714843 86.003907-191.71875 191.71875-191.71875 8.285157 0 15.007813 6.71875 15.007813 15 0 8.285157-6.707031 15-14.992187 15-89.1875 0-161.730469 72.546876-161.730469 161.71875-.003907 8.285157-6.71875 15.007813-15.003907 15.007813zm0 0" fill="#eff6fe"/><path d="m464.867188 238.867188c-8.285157 0-15-6.714844-15-15 0-89.179688-72.554688-161.734376-161.734376-161.734376-8.28125 0-15-6.714843-15-15 0-8.28125 6.71875-15 15-15 105.722657 0 191.734376 86.011719 191.734376 191.734376 0 8.285156-6.71875 15-15 15zm0 0" fill="#d2dce7"/><path d="m288.132812 94.265625h-64.265624c-8.285157 0-15-6.714844-15-15v-64.265625c0-8.285156 6.714843-15 15-15h64.265624c8.285157 0 15 6.714844 15 15v64.265625c0 8.285156-6.714843 15-15 15zm0 0" fill="#ff7d00"/><path d="m47.132812 303.132812c-25.988281 0-47.132812-21.144531-47.132812-47.132812s21.144531-47.132812 47.132812-47.132812c25.988282 0 47.132813 21.144531 47.132813 47.132812s-21.144531 47.132812-47.132813 47.132812zm0 0" fill="#00e1c8"/><path d="m464.867188 303.132812c-25.988282 0-47.132813-21.144531-47.132813-47.132812s21.144531-47.132812 47.132813-47.132812c25.988281 0 47.132812 21.144531 47.132812 47.132812s-21.144531 47.132812-47.132812 47.132812zm0 0" fill="#009b91"/><path d="m422.238281 382.390625c-55.410156 22.167969-70.910156 74.097656-70.910156 104.730469v9.878906c0 8.28125-6.707031 15-15 15h-160.65625c-8.292969 0-15-6.71875-15-15v-9.878906c0-30.675782-15.609375-82.605469-70.910156-104.730469-8.828125-3.519531-12.195313-14.328125-6.910157-22.242187l158.148438-237.21875v184.789062c-18.660156 6.28125-32.128906 23.929688-32.128906 44.679688 0 25.992187 21.140625 47.132812 47.128906 47.132812s47.128906-21.140625 47.128906-47.132812c0-20.75-13.46875-38.398438-32.128906-44.679688v-184.789062l158.148438 237.21875c5.277343 7.90625 1.925781 18.71875-6.910157 22.242187zm0 0" fill="#d2dce7"/><path d="m288.128906 0h-32.128906v94.269531h32.128906c8.292969 0 15-6.71875 15-15v-64.269531c0-8.28125-6.707031-15-15-15zm0 0" fill="#f13800"/><path d="m422.238281 382.390625c-55.410156 22.167969-70.910156 74.097656-70.910156 104.730469v9.878906c0 8.28125-6.707031 15-15 15h-80.328125v-112.46875c25.988281 0 47.128906-21.140625 47.128906-47.132812 0-20.75-13.46875-38.398438-32.128906-44.679688v-184.789062l158.148438 237.21875c5.28125 7.902343 1.929687 18.722656-6.910157 22.242187zm0 0" fill="#a1aebc"/></svg>