<svg height="512pt" viewBox="0 0 512 512" width="512pt" xmlns="http://www.w3.org/2000/svg"><path d="m256 303.132812c-8.285156 0-15-6.714843-15-15v-48.199218c0-25.753906 20.804688-47.132813 47.132812-47.132813h112.46875c44.882813 0 81.398438-36.515625 81.398438-81.402343v-17.132813h-49.265625c-8.285156 0-15-6.714844-15-15 0-8.28125 6.714844-15 15-15h64.265625c8.285156 0 15 6.71875 15 15v32.132813c0 61.425781-49.972656 111.402343-111.398438 111.402343h-112.46875c-9.480468 0-17.132812 7.675781-17.132812 17.132813v48.199218c0 8.285157-6.714844 15-15 15zm0 0" fill="#5258e3"/><path d="m256 512c-25.820312 0-47.132812-20.867188-47.132812-47.132812v-144.601563c0-25.988281 21.144531-47.132813 47.132812-47.132813 25.820312 0 47.132812 20.867188 47.132812 47.132813v144.601563c0 25.988281-21.144531 47.132812-47.132812 47.132812zm0 0" fill="#ff7d00"/><path d="m79.265625 94.265625h-64.265625c-8.285156 0-15-6.714844-15-15 0-8.28125 6.714844-15 15-15h64.265625c8.285156 0 15 6.71875 15 15 0 8.285156-6.714844 15-15 15zm0 0" fill="#5258e3"/><path d="m512 79.269531v32.128907c0 61.429687-49.96875 111.402343-111.398438 111.402343h-112.472656c-9.480468 0-17.128906 7.679688-17.128906 17.128907v48.199218c0 8.292969-6.71875 15-15 15v-97.6875c8.371094-7.820312 19.621094-12.640625 32.128906-12.640625h112.472656c44.878907 0 81.398438-36.519531 81.398438-81.402343v-17.128907h-49.269531c-8.28125 0-15-6.71875-15-15 0-8.289062 6.71875-15 15-15h64.269531c8.28125 0 15 6.710938 15 15zm0 0" fill="#1827c6"/><path d="m271 275.570312c-4.71875-1.582031-9.769531-2.441406-15-2.441406v238.871094c25.988281 0 47.128906-21.140625 47.128906-47.128906v-144.601563c0-20.949219-13.550781-38.460937-32.128906-44.699219zm0 0" fill="#f13800"/><path d="m400.601562 158.53125h-289.203124c-25.988282 0-47.132813-21.140625-47.132813-47.132812v-64.265626c0-25.988281 21.144531-47.132812 47.132813-47.132812h289.203124c25.988282 0 47.132813 21.144531 47.132813 47.132812v64.265626c0 25.992187-21.144531 47.132812-47.132813 47.132812zm0 0" fill="#ffe100"/><path d="m400.601562 0h-144.601562v158.53125h144.601562c25.988282 0 47.128907-21.140625 47.128907-47.132812v-64.269532c0-25.988281-21.140625-47.128906-47.128907-47.128906zm0 0" fill="#ecb402"/></svg>