<svg height="512pt" viewBox="0 0 512.00083 512" width="512pt" xmlns="http://www.w3.org/2000/svg"><path d="m497 512h-482c-8.285156 0-15-6.714844-15-15v-482c0-6.066406 3.652344-11.539062 9.261719-13.859375 5.601562-2.316406 12.054687-1.039063 16.34375 3.253906l482 482c4.292969 4.289063 5.574219 10.742188 3.253906 16.347657-2.324219 5.601562-7.792969 9.257812-13.859375 9.257812zm-386.667969-110.332031h157.65625l-157.65625-157.65625zm0 0" fill="#ffe100"/><path d="m15 512h482c6.066406 0 11.535156-3.65625 13.859375-9.261719 2.320313-5.605469 1.035156-12.054687-3.253906-16.347656l-241-241-77.445313 77.449219 78.828125 78.828125h-157.65625l-105.9375 105.9375c2.714844 2.714843 6.464844 4.394531 10.605469 4.394531zm0 0" fill="#ecb402"/></svg>