<svg height="512pt" viewBox="0 0 512.0005 512" width="512pt" xmlns="http://www.w3.org/2000/svg"><path d="m497 512c-3.839844 0-7.679688-1.464844-10.605469-4.394531-17.890625-17.886719-41.671875-27.738281-66.964843-27.738281h-179.496094c-8.285156 0-15-6.71875-15-15 0-8.285157 6.714844-15 15-15h179.496094c33.308593 0 64.621093 12.972656 88.175781 36.527343 5.859375 5.855469 5.859375 15.355469 0 21.210938-2.925781 2.929687-6.765625 4.394531-10.605469 4.394531zm0 0" fill="#ecb402"/><path d="m239.933594 0c-132.300782 0-239.933594 107.632812-239.933594 239.933594 0 132.300781 107.632812 239.933594 239.933594 239.933594 132.300781 0 239.933594-107.632813 239.933594-239.933594 0-132.300782-107.636719-239.933594-239.933594-239.933594zm0 287.066406c-25.988282 0-47.132813-21.144531-47.132813-47.132812 0-25.988282 21.144531-47.132813 47.132813-47.132813 25.988281 0 47.132812 21.144531 47.132812 47.132813 0 25.988281-21.144531 47.132812-47.132812 47.132812zm0 0" fill="#5258e3"/><path d="m239.933594 0v192.800781c25.988281 0 47.132812 21.144531 47.132812 47.132813 0 25.988281-21.144531 47.132812-47.132812 47.132812v192.800782c132.300781 0 239.933594-107.632813 239.933594-239.933594 0-132.300782-107.636719-239.933594-239.933594-239.933594zm0 0" fill="#1827c6"/><path d="m328.300781 206.734375c-30.417969 0-55.167969-24.75-55.167969-55.167969 0-30.417968 24.75-55.164062 55.167969-55.164062s55.167969 24.746094 55.167969 55.164062c0 30.417969-24.75 55.167969-55.167969 55.167969zm0 0" fill="#ecb402"/><path d="m151.566406 206.734375c-30.417968 0-55.167968-24.75-55.167968-55.167969 0-30.417968 24.75-55.164062 55.167968-55.164062 30.417969 0 55.167969 24.746094 55.167969 55.164062 0 30.417969-24.75 55.167969-55.167969 55.167969zm0 0" fill="#ffe100"/><path d="m328.300781 383.46875c-30.417969 0-55.167969-24.75-55.167969-55.167969s24.75-55.167969 55.167969-55.167969 55.167969 24.75 55.167969 55.167969-24.75 55.167969-55.167969 55.167969zm0 0" fill="#ecb402"/><path d="m151.566406 383.46875c-30.417968 0-55.167968-24.75-55.167968-55.167969s24.75-55.167969 55.167968-55.167969c30.417969 0 55.167969 24.75 55.167969 55.167969s-24.75 55.167969-55.167969 55.167969zm0 0" fill="#ffe100"/></svg>