<svg height="512pt" viewBox="-80 0 512 512" width="512pt" xmlns="http://www.w3.org/2000/svg"><path d="m207.800781 448.800781h-64.269531c-8.285156 0-15 6.714844-15 15v33.199219c0 8.285156 6.714844 15 15 15h64.269531c8.285157 0 15-6.714844 15-15v-33.199219c0-8.285156-6.714843-15-15-15zm0 0" fill="#1827c6"/><path d="m222.796875 463.800781v33.199219c0 8.28125-6.710937 15-15 15h-32.132813v-63.199219h32.132813c8.289063 0 15 6.71875 15 15zm0 0" fill="#000e5c"/><path d="m223.867188 400.601562h-96.398438c-8.285156 0-15 6.714844-15 15v33.199219c0 8.285157 6.714844 15 15 15h96.398438c8.285156 0 15-6.714843 15-15v-33.199219c0-8.285156-6.714844-15-15-15zm0 0" fill="#5258e3"/><path d="m238.867188 415.601562v33.199219c0 8.277344-6.722657 15-15 15h-48.203126v-63.199219h48.203126c8.28125 0 15 6.71875 15 15zm0 0" fill="#1827c6"/><path d="m240.011719 415.601562h-128.613281c-8.28125 0-15-6.71875-15-15v-.007812c0-36.695312-15.210938-72.328125-41.734376-97.773438-49.824218-47.175781-54.664062-104.371093-54.664062-127.152343 0-96.863281 78.804688-175.667969 175.667969-175.667969s175.667969 78.804688 175.667969 175.667969c0 48.542969-19.402344 93.734375-54.628907 127.253906-26.480469 25.394531-41.691406 61.011719-41.691406 97.679687-.003906 8.28125-6.71875 15-15.003906 15zm0 0" fill="#ffe100"/><path d="m175.667969 0v415.601562h64.347656c8.28125 0 15-6.722656 15-15 0-36.671874 15.210937-72.292968 41.691406-97.679687 35.230469-33.523437 54.628907-78.710937 54.628907-127.25 0-96.871094-78.808594-175.671875-175.667969-175.671875zm0 0" fill="#ecb402"/><path d="m175.667969 415.601562c-6.457031 0-12.1875-4.132812-14.230469-10.257812l-48.199219-144.601562c-1.523437-4.574219-.757812-9.601563 2.0625-13.511719 2.816407-3.914063 7.347657-6.230469 12.167969-6.230469h96.398438c4.820312 0 9.351562 2.316406 12.167968 6.230469 2.820313 3.910156 3.585938 8.9375 2.0625 13.511719l-48.199218 144.601562c-2.042969 6.125-7.777344 10.257812-14.230469 10.257812zm-27.390625-144.601562 27.390625 82.164062 27.386719-82.164062zm0 0" fill="#ff7d00"/><path d="m223.867188 241h-48.199219v30h27.386719l-27.386719 82.164062v62.4375c6.453125 0 12.1875-4.132812 14.230469-10.257812l48.199218-144.601562c1.523438-4.574219.757813-9.601563-2.0625-13.511719-2.820312-3.914063-7.347656-6.230469-12.167968-6.230469zm0 0" fill="#f13800"/></svg>