<svg height="512pt" viewBox="0 0 512 512" width="512pt" xmlns="http://www.w3.org/2000/svg"><path d="m165.0625 512h-9.960938c-85.523437 0-155.101562-69.585938-155.101562-155.117188v-9.945312c0-59.808594 42.570312-111.738281 101.226562-123.480469 17.609376-3.527343 33.597657-12.082031 46.234376-24.738281 5.472656-5.457031 11.484374-11.460938 17.578124-17.578125 32.464844-32.488281 85.265626-32.410156 117.636719-.019531l48.476563 48.492187c32.34375 32.675781 31.941406 85.074219-.277344 117.316407-6.097656 6.121093-12.136719 12.152343-17.609375 17.609374-12.597656 12.617188-21.136719 28.542969-24.6875 46.046876-.011719.0625-.023437.121093-.035156.183593-11.722657 58.65625-63.65625 101.230469-123.480469 101.230469zm0 0" fill="#ff7d00"/><path d="m116.859375 443.339844-48.199219-48.199219c-5.859375-5.859375-5.859375-15.355469 0-21.214844 5.855469-5.855469 15.355469-5.855469 21.210938 0l48.203125 48.199219c5.855469 5.859375 5.855469 15.355469 0 21.214844-5.859375 5.859375-15.355469 5.855468-21.214844 0zm0 0" fill="#5258e3"/><path d="m165.066406 512h-9.96875c-43.148437 0-82.222656-17.707031-110.367187-46.246094l261.289062-261.289062 25.132813 25.144531c32.34375 32.683594 31.945312 85.078125-.277344 117.316406-6.09375 6.125-12.140625 12.15625-17.613281 17.613281-12.585938 12.617188-21.132813 28.546876-24.675781 46.046876-.015626.058593-.03125.128906-.042969.183593-11.71875 58.65625-63.65625 101.230469-123.476563 101.230469zm0 0" fill="#f13800"/><path d="m138.070312 443.339844c-5.855468 5.855468-15.351562 5.863281-21.214843 0l-24.855469-24.855469 21.214844-21.210937 24.855468 24.855468c5.859376 5.859375 5.859376 15.347656 0 21.210938zm0 0" fill="#1827c6"/><path d="m411.207031 148.992188c-.003906-.003907-.007812-.003907-.011719-.007813l-48.1875-48.191406c-5.859374-5.855469-15.355468-5.855469-21.214843 0l-176.734375 176.734375c-5.855469 5.855468-5.855469 15.355468 0 21.210937.003906.003907.007812.007813.011718.011719l48.191407 48.1875c5.847656 5.851562 15.34375 5.867188 21.210937 0l176.734375-176.730469c5.855469-5.859375 5.855469-15.355469 0-21.214843zm0 0" fill="#ffe100"/><path d="m411.207031 148.992188c-.003906-.003907-.007812-.003907-.011719-.007813l-24.847656-24.847656-197.945312 197.945312 24.855468 24.855469c5.851563 5.851562 15.347657 5.867188 21.214844 0l176.730469-176.734375c5.859375-5.855469 5.859375-15.351563.003906-21.210937zm0 0" fill="#ecb402"/><path d="m384.507812 62.148438c-3.839843 0-7.679687-1.464844-10.609374-4.394532l-16.0625-16.066406c-5.859376-5.859375-5.859376-15.355469 0-21.214844 5.855468-5.855468 15.351562-5.855468 21.210937 0l16.066406 16.066406c5.859375 5.859376 5.855469 15.355469 0 21.214844-2.929687 2.929688-6.769531 4.394532-10.605469 4.394532zm0 0" fill="#5258e3"/><path d="m480.90625 158.546875c-3.839844 0-7.675781-1.464844-10.605469-4.394531l-16.066406-16.0625c-5.855469-5.859375-5.855469-15.355469 0-21.214844 5.859375-5.855469 15.355469-5.855469 21.214844 0l16.066406 16.066406c5.855469 5.855469 5.855469 15.355469 0 21.210938-2.929687 2.929687-6.769531 4.394531-10.609375 4.394531zm0 0" fill="#1827c6"/><path d="m501.878906 111.640625c6.527344-6.457031 10.121094-15.101563 10.121094-24.347656 0-9.238281-3.589844-17.878907-10.113281-24.332031l-52.847657-52.847657c-6.453124-6.523437-15.09375-10.113281-24.332031-10.113281-9.246093 0-17.890625 3.59375-24.347656 10.121094l-51.890625 51.855468c-.007812.003907-.011719.011719-.019531.015626-18.359375 18.363281-18.382813 48.300781 0 66.683593l34.875 34.875c18.382812 18.382813 48.320312 18.359375 66.683593 0 .003907-.007812.011719-.011719.015626-.019531zm0 0" fill="#ff7d00"/><path d="m501.855469 111.660156c6.527343-6.457031 10.121093-15.097656 10.121093-24.347656 0-9.234375-3.59375-17.875-10.113281-24.339844l-27.167969-27.195312-109.585937 109.589844 18.1875 18.199218c18.382813 18.386719 48.328125 18.367188 66.683594.007813l.023437-.019531zm0 0" fill="#f13800"/><path d="m175.664062 399.53125c-34.847656 0-63.199218-28.351562-63.199218-63.199219 0-34.847656 28.351562-63.199219 63.199218-63.199219 34.851563 0 63.203126 28.351563 63.203126 63.199219 0 34.847657-28.351563 63.199219-63.203126 63.199219zm0 0" fill="#1827c6"/><path d="m238.867188 336.335938c0-17.808594-7.402344-33.921876-19.296876-45.417969l-89.324218 89.320312c11.5 11.894531 27.613281 19.296875 45.417968 19.296875 34.847657 0 63.203126-28.355468 63.203126-63.199218zm0 0" fill="#000e5c"/></svg>