<svg height="512pt" viewBox="0 -48 512 512" width="512pt" xmlns="http://www.w3.org/2000/svg"><path d="m63.199219 115.691406c-8.285157 0-15-6.714844-15-15v-28.871094c0-18.164062 12.878906-34.214843 30.617187-38.164062l16.074219-3.574219c24.417969-5.402343 47.574219 13.089844 47.574219 38.171875v18.15625c0 8.28125-7.0625 12.621094-15 15-14.203125 4.253906-55.980469 14.28125-64.265625 14.28125zm0 0" fill="#1827c6"/><path d="m432.734375 415.601562h-353.46875c-42.785156 0-79.265625-34.480468-79.265625-79.269531v-173.382812c0-31.875 20.964844-68.253907 62.035156-77.375l60.011719-13.320313c17.273437-3.84375 31.753906-15.105468 39.757813-30.914062.039062-.082032.082031-.167969.121093-.25 12.664063-25.347656 38.121094-41.089844 66.441407-41.089844h92.382812c30.15625 0 57.246094 16.703125 70.753906 43.613281 2.421875 4.527344 10.152344 23.332031 32.902344 33.847657 12.515625 5.75 27.789062 12.800781 41.535156 19.160156 27.96875 12.882812 46.058594 41.136718 46.058594 71.96875v167.742187c0 44.789063-36.484375 79.269531-79.265625 79.269531zm0 0" fill="#5258e3"/><path d="m465.941406 96.621094c-13.742187-6.359375-29.019531-13.410156-41.53125-19.160156-22.75-10.511719-30.480468-29.320313-32.910156-33.851563-13.5-26.898437-40.589844-43.609375-70.75-43.609375h-48.683594v415.601562h160.664063c42.789062 0 79.269531-34.480468 79.269531-79.273437v-167.738281c0-30.828125-18.089844-59.089844-46.058594-71.96875zm0 0" fill="#1827c6"/><path d="m272.066406 80.332031c-79.144531 0-143.535156 64.390625-143.535156 143.535157 0 79.144531 64.390625 143.53125 143.535156 143.53125 79.144532 0 143.535156-64.386719 143.535156-143.53125 0-79.144532-64.390624-143.535157-143.535156-143.535157zm0 0" fill="#ffe100"/><path d="m272.070312 80.328125v287.070313c79.140626 0 143.53125-64.386719 143.53125-143.527344 0-79.152344-64.390624-143.542969-143.53125-143.542969zm0 0" fill="#ecb402"/><path d="m79.265625 351.332031c-8.28125 0-15-6.714843-15-15v-160.667969c0-8.28125 6.71875-15 15-15 8.285156 0 15 6.71875 15 15v160.667969c0 8.285157-6.714844 15-15 15zm0 0" fill="#1827c6"/><path d="m272.066406 337.398438c-62.601562 0-113.535156-50.929688-113.535156-113.53125 0-62.601563 50.933594-113.53125 113.535156-113.53125 62.601563 0 113.535156 50.929687 113.535156 113.53125 0 62.601562-50.933593 113.53125-113.535156 113.53125zm0 0" fill="#ecb402"/><path d="m385.601562 223.871094c0 62.597656-50.929687 113.527344-113.53125 113.527344v-227.070313c62.601563 0 113.53125 50.933594 113.53125 113.542969zm0 0" fill="#bb8901"/><path d="m272.066406 303.132812c-43.707031 0-79.265625-35.558593-79.265625-79.265624 0-43.710938 35.558594-79.269532 79.265625-79.269532 43.707032 0 79.265625 35.558594 79.265625 79.269532 0 43.707031-35.558593 79.265624-79.265625 79.265624zm0 0" fill="#00e1c8"/><path d="m272.070312 144.601562v158.527344c43.699219 0 79.257813-35.558594 79.257813-79.257812 0-43.710938-35.558594-79.269532-79.257813-79.269532zm0 0" fill="#009b91"/><path d="m272.066406 174.601562c-27.167968 0-49.265625 22.097657-49.265625 49.265626 0 27.164062 22.097657 49.265624 49.265625 49.265624 27.164063 0 49.265625-22.101562 49.265625-49.265624 0-27.167969-22.101562-49.265626-49.265625-49.265626zm0 0" fill="#009b91"/><path d="m321.328125 223.871094c0 27.160156-22.097656 49.257812-49.257813 49.257812v-98.527344c27.160157 0 49.257813 22.097657 49.257813 49.269532zm0 0" fill="#006566"/></svg>