<svg height="512pt" viewBox="0 -24 512.001 512" width="512pt" xmlns="http://www.w3.org/2000/svg"><path d="m376.5 110.335938h-241c-8.285156 0-15-6.71875-15-15v-80.335938c0-8.285156 6.714844-15 15-15h241c8.285156 0 15 6.714844 15 15v80.335938c0 8.28125-6.714844 15-15 15zm0 0" fill="#d2dce7"/><path d="m391.5 15v80.332031c0 8.289063-6.71875 15-15 15h-120.5v-110.332031h120.5c8.28125 0 15 6.71875 15 15zm0 0" fill="#a1aebc"/><path d="m497 128.535156h-482c-8.285156 0-15 6.714844-15 15v64.265625c0 8.285157 6.714844 15 15 15h482c8.285156 0 15-6.714843 15-15v-64.265625c0-8.285156-6.714844-15-15-15zm0 0" fill="#1827c6"/><path d="m497 128.535156h-241v94.265625h241c8.285156 0 15-6.714843 15-15v-64.265625c0-8.285156-6.714844-15-15-15zm0 0" fill="#000e5c"/><path d="m408.632812 237.800781h-305.265624c-8.285157 0-15-6.714843-15-15v-127.464843c0-8.285157 6.714843-15 15-15h305.265624c8.285157 0 15 6.714843 15 15v127.464843c0 8.285157-6.714843 15-15 15zm0 0" fill="#eff6fe"/><path d="m408.632812 80.335938h-152.632812v157.464843h152.632812c8.285157 0 15-6.714843 15-15v-127.464843c0-8.285157-6.714843-15-15-15zm0 0" fill="#d2dce7"/><path d="m448.816406 463.800781h-385.632812c-34.839844 0-63.183594-28.34375-63.183594-63.183593 0-1.910157.363281-3.816407 1.074219-5.585938l63.191406-157.984375v-45.3125c0-8.285156 6.71875-15 15-15h64.269531c8.28125 0 15 6.714844 15 15 0 18.304687 14.894532 33.199219 33.199219 33.199219h128.546875c18.328125 0 33.1875-14.832032 33.1875-33.183594 0-8.285156 6.714844-15.015625 15-15.015625h64.265625c8.285156 0 15 6.714844 15 15v45.308594l63.195313 157.984375c.707031 1.773437 1.070312 3.664062 1.070312 5.570312 0 34.859375-28.34375 63.203125-63.183594 63.203125zm0 0" fill="#5258e3"/><path d="m510.929688 395.03125-63.199219-157.992188v-45.308593c0-8.28125-6.710938-15-15-15h-64.261719c-8.289062 0-15 6.738281-15 15.019531 0 18.351562-14.859375 33.179688-33.1875 33.179688h-64.28125v238.871093h192.820312c34.839844 0 63.179688-28.339843 63.179688-63.199219 0-1.910156-.359375-3.800781-1.070312-5.570312zm0 0" fill="#1827c6"/><g fill="#ffe100"><path d="m111.398438 399.535156h-16.066407c-8.28125 0-15-6.714844-15-15s6.71875-15 15-15h16.066407c8.285156 0 15 6.714844 15 15s-6.714844 15-15 15zm0 0"/><path d="m199.765625 303.132812h-16.066406c-8.285157 0-15-6.714843-15-15 0-8.285156 6.714843-15 15-15h16.066406c8.285156 0 15 6.714844 15 15 0 8.285157-6.714844 15-15 15zm0 0"/><path d="m167.632812 351.335938h-16.066406c-8.285156 0-15-6.71875-15-15 0-8.285157 6.714844-15 15-15h16.066406c8.285157 0 15 6.714843 15 15 0 8.28125-6.714843 15-15 15zm0 0"/><path d="m135.5 303.132812h-16.066406c-8.285156 0-15-6.714843-15-15 0-8.285156 6.714844-15 15-15h16.066406c8.285156 0 15 6.714844 15 15 0 8.285157-6.714844 15-15 15zm0 0"/><path d="m264.03125 303.132812h-16.0625c-8.285156 0-15-6.714843-15-15 0-8.285156 6.714844-15 15-15h16.0625c8.285156 0 15 6.714844 15 15 0 8.285157-6.714844 15-15 15zm0 0"/><path d="m231.898438 351.335938h-16.0625c-8.285157 0-15-6.71875-15-15 0-8.285157 6.714843-15 15-15h16.0625c8.285156 0 15 6.714843 15 15 0 8.28125-6.714844 15-15 15zm0 0"/></g><path d="m328.300781 303.132812h-16.066406c-8.285156 0-15-6.714843-15-15 0-8.285156 6.714844-15 15-15h16.066406c8.285157 0 15 6.714844 15 15 0 8.285157-6.714843 15-15 15zm0 0" fill="#ecb402"/><path d="m296.167969 351.335938h-16.066407c-8.285156 0-15-6.71875-15-15 0-8.285157 6.714844-15 15-15h16.0625c8.285157 0 15 6.714843 15 15 0 8.28125-6.714843 15-14.996093 15zm0 0" fill="#ecb402"/><path d="m392.566406 303.132812h-16.066406c-8.285156 0-15-6.714843-15-15 0-8.285156 6.714844-15 15-15h16.066406c8.285156 0 15 6.714844 15 15 0 8.285157-6.714844 15-15 15zm0 0" fill="#ecb402"/><path d="m360.433594 351.335938h-16.066406c-8.285157 0-15-6.71875-15-15 0-8.285157 6.714843-15 15-15h16.066406c8.285156 0 15 6.714843 15 15 0 8.28125-6.714844 15-15 15zm0 0" fill="#ecb402"/><path d="m416.667969 399.535156h-16.066407c-8.285156 0-15-6.714844-15-15s6.714844-15 15-15h16.0625c8.285157 0 15 6.714844 15 15s-6.714843 15-14.996093 15zm0 0" fill="#ecb402"/><path d="m352.398438 399.535156h-192.796876c-8.285156 0-15-6.714844-15-15s6.714844-15 15-15h192.796876c8.285156 0 15 6.714844 15 15s-6.714844 15-15 15zm0 0" fill="#ffe100"/><path d="m279.03125 288.128906c0 8.292969-6.710938 15-15 15h-8.03125v-30h8.03125c8.289062 0 15 6.722656 15 15zm0 0" fill="#ecb402"/><path d="m367.398438 384.53125c0 8.289062-6.71875 15-15 15h-96.398438v-30h96.398438c8.28125 0 15 6.71875 15 15zm0 0" fill="#ecb402"/><path d="m312.234375 174.601562h-112.46875c-8.28125 0-15-6.71875-15-15 0-8.285156 6.71875-15 15-15h112.46875c8.285156 0 15 6.714844 15 15 0 8.28125-6.714844 15-15 15zm0 0" fill="#00e1c8"/><path d="m327.230469 159.601562c0 8.277344-6.710938 15-15 15h-56.230469v-30h56.230469c8.289062 0 15 6.71875 15 15zm0 0" fill="#009b91"/><path d="m15 238.867188c-8.285156 0-15-6.714844-15-15v-96.398438c0-8.285156 6.714844-15 15-15s15 6.714844 15 15v96.398438c0 8.285156-6.714844 15-15 15zm0 0" fill="#5258e3"/><path d="m497 190.667969c-8.285156 0-15-6.714844-15-15v-96.402344c0-8.28125 6.714844-15 15-15s15 6.71875 15 15v96.402344c0 8.285156-6.714844 15-15 15zm0 0" fill="#1827c6"/></svg>