<svg height="512pt" viewBox="0 0 512 512" width="512pt" xmlns="http://www.w3.org/2000/svg"><path d="m304.199219 512h-289.199219c-8.285156 0-15-6.714844-15-15v-482c0-8.285156 6.714844-15 15-15h289.199219c43.707031 0 79.269531 35.558594 79.269531 79.265625v353.46875c0 43.707031-35.5625 79.265625-79.269531 79.265625zm0 0" fill="#ffe100"/><path d="m304.199219 0h-112.464844v512h112.464844c43.707031 0 79.269531-35.558594 79.269531-79.265625v-353.46875c0-43.707031-35.5625-79.265625-79.269531-79.265625zm0 0" fill="#ecb402"/><path d="m257.066406 0h30v512h-30zm0 0" fill="#f13800"/><path d="m472.898438 431.667969c-.023438 0-.050782 0-.078126 0-4.746093-.023438-9.203124-2.296875-12.011718-6.125l-24.101563-32.832031c-1.890625-2.574219-2.90625-5.683594-2.90625-8.875v-264.402344c0-10.253906 4.167969-20.320313 11.4375-27.621094 7.367188-7.402344 17.1875-11.480469 27.660157-11.480469 21.5625 0 39.101562 17.539063 39.101562 39.101563v265.101562c0 3.242188-1.054688 6.402344-3 9l-24.101562 32.132813c-2.832032 3.777343-7.277344 6-12 6zm0 0" fill="#eff6fe"/><path d="m472.898438 80.328125v351.34375c4.722656 0 9.171874-2.222656 12-6l24.101562-32.140625c1.949219-2.589844 3-5.75 3-9v-265.101562c0-21.558594-17.539062-39.101563-39.101562-39.101563zm0 0" fill="#d2dce7"/><path d="m512 351.332031v-231.898437c0-21.5625-17.539062-39.101563-39.101562-39.101563-10.46875 0-20.292969 4.078125-27.660157 11.480469-7.269531 7.300781-11.4375 17.367188-11.4375 27.621094v231.898437zm0 0" fill="#00e1c8"/><path d="m512 119.429688v231.898437h-39.101562v-271c21.5625 0 39.101562 17.542969 39.101562 39.101563zm0 0" fill="#009b91"/></svg>