<svg height="512pt" viewBox="0 0 512 512" width="512pt" xmlns="http://www.w3.org/2000/svg"><path d="m432.734375 512h-353.46875c-43.707031 0-79.265625-35.558594-79.265625-79.265625v-353.46875c0-43.707031 35.558594-79.265625 79.265625-79.265625h353.46875c43.707031 0 79.265625 35.558594 79.265625 79.265625v353.46875c0 43.707031-35.558594 79.265625-79.265625 79.265625zm0 0" fill="#eff6fe"/><path d="m432.730469 0h-176.730469v512h176.730469c43.710937 0 79.269531-35.558594 79.269531-79.269531v-353.460938c0-43.710937-35.558594-79.269531-79.269531-79.269531zm0 0" fill="#d2dce7"/><path d="m432.734375 0h-353.46875c-43.707031 0-79.265625 35.558594-79.265625 79.265625v49.269531h512v-49.269531c0-43.707031-35.558594-79.265625-79.265625-79.265625zm0 0" fill="#5258e3"/><path d="m512 79.269531v49.261719h-256v-128.53125h176.730469c43.710937 0 79.269531 35.558594 79.269531 79.269531zm0 0" fill="#1827c6"/><g fill-rule="evenodd"><path d="m79.265625 49.265625c8.25 0 15 6.722656 15 15 0 8.28125-6.75 15-15 15s-15-6.71875-15-15c0-8.277344 6.75-15 15-15zm0 0" fill="#ff7d00"/><path d="m143.53125 49.265625c8.25 0 15 6.722656 15 15 0 8.28125-6.75 15-15 15s-15-6.71875-15-15c0-8.277344 6.753906-15 15-15zm0 0" fill="#ffe100"/><path d="m207.800781 49.265625c8.25 0 15 6.722656 15 15 0 8.28125-6.75 15-15 15s-15-6.71875-15-15c0-8.277344 6.75-15 15-15zm0 0" fill="#00e1c8"/></g><path d="m159.601562 367.398438c-3.839843 0-7.679687-1.464844-10.609374-4.390626l-64.265626-64.269531c-5.859374-5.855469-5.859374-15.351562 0-21.210937l64.265626-64.269532c5.859374-5.855468 15.355468-5.855468 21.214843 0 5.859375 5.859376 5.859375 15.355469 0 21.214844l-53.660156 53.660156 53.660156 53.660157c5.855469 5.855469 5.855469 15.355469 0 21.214843-2.929687 2.929688-6.769531 4.390626-10.605469 4.390626zm0 0" fill="#ff7d00"/><path d="m352.398438 367.398438c-3.835938 0-7.675782-1.464844-10.605469-4.390626-5.855469-5.859374-5.855469-15.355468 0-21.214843l53.660156-53.660157-53.660156-53.660156c-5.855469-5.859375-5.855469-15.355468 0-21.214844 5.859375-5.855468 15.355469-5.855468 21.214843 0l64.265626 64.269532c5.859374 5.855468 5.859374 15.355468 0 21.210937l-64.265626 64.269531c-2.929687 2.929688-6.769531 4.390626-10.609374 4.390626zm0 0" fill="#f13800"/><path d="m223.855469 367.402344c-2.253907 0-4.542969-.507813-6.695313-1.585938-7.410156-3.703125-10.414062-12.714844-6.710937-20.125l64.269531-128.535156c3.703125-7.40625 12.714844-10.410156 20.125-6.707031s10.410156 12.714843 6.707031 20.125l-64.265625 128.535156c-2.628906 5.253906-7.929687 8.292969-13.429687 8.292969zm0 0" fill="#ff7d00"/><path d="m301.550781 230.570312-45.550781 91.101563v-67.070313l18.71875-37.441406c3.703125-7.410156 12.710938-10.410156 20.121094-6.710937s10.410156 12.722656 6.710937 20.121093zm0 0" fill="#f13800"/></svg>