<svg height="512pt" viewBox="0 0 512 512" width="512pt" xmlns="http://www.w3.org/2000/svg"><path d="m304.199219 417.734375h-96.398438c-8.285156 0-15 6.714844-15 15v64.265625c0 8.285156 6.714844 15 15 15h96.398438c8.285156 0 15-6.714844 15-15v-64.265625c0-8.285156-6.714844-15-15-15zm0 0" fill="#1827c6"/><path d="m319.199219 432.730469v64.269531c0 8.28125-6.71875 15-15 15h-48.199219v-94.269531h48.199219c8.28125 0 15 6.71875 15 15zm0 0" fill="#000e5c"/><path d="m464.867188 447.734375h-417.734376c-25.742187 0-47.132812-20.796875-47.132812-47.132813v-353.46875c0-25.742187 20.796875-47.132812 47.132812-47.132812h417.734376c25.742187 0 47.132812 20.796875 47.132812 47.132812v353.46875c0 25.742188-20.796875 47.132813-47.132812 47.132813zm0 0" fill="#1827c6"/><path d="m464.871094 0h-208.871094v447.730469h208.871094c26.328125 0 47.128906-21.390625 47.128906-47.128907v-353.472656c0-26.328125-21.390625-47.128906-47.128906-47.128906zm0 0" fill="#000e5c"/><path d="m47.132812 30c-9.476562 0-17.132812 7.679688-17.132812 17.132812v353.46875c0 9.472657 7.679688 17.132813 17.132812 17.132813h417.734376c9.476562 0 17.132812-7.679687 17.132812-17.132813v-353.46875c0-9.476562-7.679688-17.132812-17.132812-17.132812zm0 0" fill="#eff6fe"/><path d="m482 47.128906v353.472656c0 9.457032-7.660156 17.128907-17.128906 17.128907h-208.871094v-387.730469h208.871094c9.449218 0 17.128906 7.660156 17.128906 17.128906zm0 0" fill="#d2dce7"/><path d="m352.398438 512h-192.796876c-8.285156 0-15-6.714844-15-15s6.714844-15 15-15h192.796876c8.285156 0 15 6.714844 15 15s-6.714844 15-15 15zm0 0" fill="#5258e3"/><path d="m374.375 113.679688-112.464844-48.199219c-3.773437-1.617188-8.046875-1.617188-11.820312 0l-112.464844 48.199219c-5.515625 2.363281-9.09375 7.789062-9.09375 13.789062v128.53125c0 6 3.578125 11.425781 9.09375 13.785156l112.464844 48.203125c2.1875.9375 6.71875 2.1875 11.820312 0l112.464844-48.203125c5.515625-2.359375 9.09375-7.785156 9.09375-13.785156v-128.53125c0-6-3.578125-11.425781-9.09375-13.789062zm-215.84375 36.535156 82.46875 35.34375v11.671875l-82.46875 29.453125zm112.46875-48.199219 59.386719 25.453125-59.386719 25.449219zm-30 50.902344-59.386719-25.449219 59.386719-25.453125zm0 76.167969v52.367187l-66.648438-28.5625zm30 0 66.648438 23.800781-66.648438 28.566406zm0-31.855469v-11.671875l82.46875-35.34375v76.46875zm0 0" fill="#00e1c8"/><path d="m367.398438 497c0 8.28125-6.71875 15-15 15h-96.398438v-30h96.398438c8.28125 0 15 6.71875 15 15zm0 0" fill="#1827c6"/><path d="m374.378906 113.679688-112.46875-48.199219c-1.890625-.808594-3.898437-1.21875-5.910156-1.21875v254.9375c1.789062.011719 3.800781-.308594 5.910156-1.210938l112.46875-48.199219c5.511719-2.367187 9.089844-7.789062 9.089844-13.789062v-128.53125c0-6-3.578125-11.429688-9.089844-13.789062zm-103.378906-11.667969 59.390625 25.457031-59.390625 25.453125zm0 179.4375v-52.371094l66.648438 23.8125zm82.46875-54.769531-82.46875-29.449219v-11.671875l82.46875-35.339844zm0 0" fill="#009b91"/><path d="m0 337.398438v63.203124c0 26.335938 21.390625 47.132813 47.132812 47.132813h417.734376c26.335937 0 47.132812-21.390625 47.132812-47.132813v-63.203124zm0 0" fill="#5258e3"/><path d="m256 447.734375h208.867188c26.335937 0 47.132812-21.390625 47.132812-47.136719v-63.199218h-256zm0 0" fill="#1827c6"/></svg>