<svg height="512pt" viewBox="-48 0 512 512" width="512pt" xmlns="http://www.w3.org/2000/svg"><path d="m336.332031 512h-257.066406c-43.777344 0-79.265625-35.414062-79.265625-79.265625v-160.667969c0-43.707031 35.558594-79.265625 79.265625-79.265625 9.460937 0 17.132813-7.660156 17.132813-17.136719v-48.199218c0-8.28125 6.71875-15 15-15h192.800781c8.285156 0 15 6.71875 15 15v48.199218c0 9.480469 7.679687 17.136719 17.132812 17.136719 43.777344 0 79.269531 35.410157 79.269531 79.265625v160.667969c0 43.773437-35.414062 79.265625-79.269531 79.265625zm0 0" fill="#eff6fe"/><path d="m336.332031 192.800781c-9.457031 0-17.132812-7.65625-17.132812-17.132812v-48.199219c0-8.285156-6.714844-15-15-15h-96.398438v399.53125h128.53125c43.855469 0 79.269531-35.492188 79.269531-79.265625v-160.667969c0-43.855468-35.492187-79.265625-79.269531-79.265625zm0 0" fill="#d2dce7"/><path d="m0 272.066406h415.601562v160.667969h-415.601562zm0 0" fill="#ffe100"/><path d="m96.398438 127.46875v48.199219c0 9.476562-7.671876 17.132812-17.132813 17.132812-43.707031 0-79.265625 35.558594-79.265625 79.265625v127.46875c34.847656 0 63.199219-28.351562 63.199219-63.199218v-50.953126c0-5.019531 4.082031-9.101562 9.101562-9.101562 5.015625 0 9.097657 4.082031 9.097657 9.101562v10.785157c0 21.558593 17.542968 39.101562 39.101562 39.101562s39.101562-17.542969 39.101562-39.101562v-64.269531c0-5.015626 4.082032-9.097657 9.097657-9.097657 21.671875 0 39.101562-17.546875 39.101562-39.101562v-56.234375c0-8.28125-6.714843-15-15-15h-81.402343c-8.28125.003906-15 6.71875-15 15.003906zm0 0" fill="#5258e3"/><path d="m207.800781 272.066406h207.800781v160.667969h-207.800781zm0 0" fill="#ecb402"/><path d="m320.265625 142.46875h-224.933594c-25.988281 0-47.132812-21.148438-47.132812-47.136719v-48.199219c0-25.988281 21.144531-47.132812 47.132812-47.132812h224.933594c25.992187 0 47.132813 21.144531 47.132813 47.132812v48.199219c0 25.988281-21.140626 47.136719-47.132813 47.136719zm0 0" fill="#ff7d00"/><path d="m320.265625 0h-112.464844v142.46875h112.464844c25.992187 0 47.132813-21.148438 47.132813-47.136719v-48.199219c0-25.988281-21.140626-47.132812-47.132813-47.132812zm0 0" fill="#f13800"/></svg>