<svg height="512pt" viewBox="-32 0 511 512" width="512pt" xmlns="http://www.w3.org/2000/svg"><path d="m192.234375 512c-49.269531 0-95.847656-8.839844-131.152344-24.886719-39.066406-17.757812-60.582031-42.773437-60.582031-70.445312v-321.335938c0-8.28125 6.714844-15 15-15h353.464844c8.285156 0 15 6.71875 15 15v321.335938c0 27.671875-21.515625 52.6875-60.582032 70.445312-35.304687 16.046875-81.878906 24.886719-131.148437 24.886719zm0 0" fill="#ffe100"/><path d="m383.964844 95.328125v321.34375c0 27.667969-21.519532 52.6875-60.578125 70.449219-35.3125 16.039062-81.878907 24.878906-131.152344 24.878906v-431.671875h176.730469c8.28125 0 15 6.722656 15 15zm0 0" fill="#ecb402"/><path d="m15.5 80.332031c-8.285156 0-15 6.71875-15 15v114.78125c0 29.683594 20.566406 54.648438 48.199219 61.402344v51.0625c0 26.03125 21.058593 47.136719 47.132812 47.136719 25.988281 0 47.132813-21.148438 47.132813-47.136719v-242.246094zm0 0" fill="#ff7d00"/><path d="m192.234375 190.667969c-100.347656 0-191.734375-37.503907-191.734375-95.335938 0-58.941406 93.699219-95.332031 191.734375-95.332031 100.363281 0 191.730469 37.511719 191.730469 95.332031 0 59.511719-94.9375 95.335938-191.730469 95.335938zm0 0" fill="#ecb402"/><path d="m192.234375 0v190.671875c96.792969 0 191.730469-35.832031 191.730469-95.34375 0-57.816406-91.367188-95.328125-191.730469-95.328125zm0 0" fill="#bb8901"/><path d="m192.234375 30c-95.894531 0-161.734375 35.085938-161.734375 65.332031 0 30.359375 66.171875 65.335938 161.734375 65.335938 95.859375 0 161.730469-35.070313 161.730469-65.335938 0-30.347656-66.148438-65.332031-161.730469-65.332031zm0 0" fill="#eff6fe"/><path d="m353.964844 95.328125c0 30.273437-65.867188 65.34375-161.730469 65.34375v-130.671875c95.582031 0 161.730469 34.988281 161.730469 65.328125zm0 0" fill="#d2dce7"/><path d="m427.371094 256.242188-43.40625-43.402344v42.425781l22.191406 22.191406c7.789062 7.785157 12.074219 18.140625 12.074219 29.15625v1.617188c0 16.730469-9.988281 31.683593-25.449219 38.089843-15.464844 6.40625-33.105469 2.894532-44.941406-8.941406l-108.800782-108.796875c-5.855468-5.859375-15.351562-5.859375-21.210937 0-5.859375 5.855469-5.859375 15.355469 0 21.210938l108.800781 108.800781c13.660156 13.660156 31.796875 20.898438 50.304688 20.898438 9.183594 0 18.464844-1.785157 27.328125-5.453126 26.710937-11.070312 43.972656-36.898437 43.972656-65.808593v-1.617188c-.003906-19.027343-7.410156-36.917969-20.863281-50.371093zm0 0" fill="#009b91"/><path d="m192.234375 80.332031c-60.734375 0-116.242187 13.304688-151.867187 35.988281 21.804687 23.484376 78.066406 44.347657 151.867187 44.347657 73.992187 0 130.105469-20.894531 151.863281-44.347657-35.625-22.683593-91.132812-35.988281-151.863281-35.988281zm0 0" fill="#ff7d00"/><path d="m192.234375 160.667969c73.992187 0 130.105469-20.894531 151.863281-44.347657-35.625-22.683593-91.128906-35.988281-151.863281-35.988281zm0 0" fill="#f13800"/></svg>