<svg height="512pt" viewBox="0 0 512 512" width="512pt" xmlns="http://www.w3.org/2000/svg"><path d="m256 0c-141.160156 0-256 114.839844-256 256s114.839844 256 256 256 256-114.839844 256-256-114.839844-256-256-256zm0 401.667969c-80.320312 0-145.667969-65.347657-145.667969-145.667969s65.347657-145.667969 145.667969-145.667969 145.667969 65.347657 145.667969 145.667969-65.347657 145.667969-145.667969 145.667969zm0 0" fill="#000e5c"/><path d="m110.332031 256c0-53.8125 29.335938-100.902344 72.851563-126.121094l-55.15625-95.53125c-76.472656 44.324219-128.027344 127.078125-128.027344 221.652344 0 141.160156 114.839844 256 256 256v-110.332031c-80.320312 0-145.667969-65.347657-145.667969-145.667969zm0 0" fill="#1827c6"/><path d="m110.332031 256c0-26.507812 7.128907-51.375 19.554688-72.8125l-95.535157-55.15625c-21.835937 37.667969-34.351562 81.382812-34.351562 127.96875 0 141.160156 114.839844 256 256 256v-110.332031c-80.320312 0-145.667969-65.347657-145.667969-145.667969zm0 0" fill="#5258e3"/><path d="m256 512v-110.332031c-80.320312 0-145.667969-65.347657-145.667969-145.667969h-110.332031c0 141.160156 114.839844 256 256 256zm0 0" fill="#002f3a"/><path d="m129.878906 328.816406-95.53125 55.152344c44.324219 76.476562 127.078125 128.03125 221.652344 128.03125v-110.332031c-53.8125 0-100.902344-29.335938-126.121094-72.851563zm0 0" fill="#006566"/><path d="m128.03125 477.648438c37.667969 21.835937 81.382812 34.351562 127.96875 34.351562v-110.332031c-26.507812 0-51.378906-7.128907-72.8125-19.554688zm0 0" fill="#009b91"/><path d="m256 0v110.332031c80.320312 0 145.667969 65.347657 145.667969 145.667969s-65.347657 145.667969-145.667969 145.667969v110.332031c141.160156 0 256-114.839844 256-256s-114.839844-256-256-256zm0 0" fill="#00e1c8"/><path d="m401.667969 256c0 53.8125-29.335938 100.902344-72.851563 126.121094l55.15625 95.53125c76.472656-44.324219 128.027344-127.078125 128.027344-221.652344 0-141.160156-114.839844-256-256-256v110.332031c80.320312 0 145.667969 65.347657 145.667969 145.667969zm0 0" fill="#ffe100"/><path d="m401.667969 256c0 26.507812-7.128907 51.375-19.554688 72.8125l95.535157 55.15625c21.835937-37.667969 34.351562-81.382812 34.351562-127.96875 0-141.160156-114.839844-256-256-256v110.332031c80.320312 0 145.667969 65.347657 145.667969 145.667969zm0 0" fill="#ecb402"/><path d="m256 0v110.332031c80.320312 0 145.667969 65.347657 145.667969 145.667969h110.332031c0-141.160156-114.839844-256-256-256zm0 0" fill="#ff7d00"/><path d="m382.121094 183.183594 95.53125-55.152344c-44.324219-76.476562-127.078125-128.03125-221.652344-128.03125v110.332031c53.8125 0 100.902344 29.335938 126.121094 72.851563zm0 0" fill="#f13800"/><path d="m383.96875 34.351562c-37.667969-21.835937-81.382812-34.351562-127.96875-34.351562v110.332031c26.507812 0 51.378906 7.128907 72.8125 19.554688zm0 0" fill="#c91800"/><path d="m394.167969 243.011719-195.984375-113.132813c-4.640625-2.683594-10.359375-2.683594-15 0-4.640625 2.679688-7.5 7.628906-7.5 12.988282l.003906 226.253906c0 5.359375 2.859375 10.3125 7.5 12.992187 7.792969 4.5 14.84375.089844 15 0l195.980469-113.125c4.640625-2.679687 7.5-7.628906 7.5-12.988281s-2.859375-10.3125-7.5-12.988281zm0 0" fill="#ff7d00"/><path d="m394.167969 243.011719-138.167969-79.757813v185.488282l138.167969-79.753907c4.640625-2.679687 7.5-7.628906 7.5-12.988281s-2.859375-10.3125-7.5-12.988281zm0 0" fill="#f13800"/></svg>