<svg height="512pt" viewBox="-72 0 511 512" width="512pt" xmlns="http://www.w3.org/2000/svg"><path d="m183.800781 94.265625c-8.285156 0-15-6.714844-15-15v-64.265625c0-8.285156 6.714844-15 15-15 8.28125 0 15 6.714844 15 15v64.265625c0 8.285156-6.71875 15-15 15zm0 0" fill="#5258e3"/><path d="m198.800781 15v64.269531c0 8.199219-6.589843 14.871094-14.761719 14.992188-.078124.007812-.160156.007812-.238281.007812-.082031 0-.160156 0-.242187-.007812h.242187v-94.261719c8.277344 0 15 6.71875 15 15zm0 0" fill="#1827c6"/><path d="m264.132812 383.464844h-160.667968c-8.285156 0-15-6.71875-15-15 0-8.285156 6.714844-15 15-15h160.667968c8.285157 0 15 6.714844 15 15 0 8.28125-6.714843 15-15 15zm0 0" fill="#ffe100"/><path d="m279.128906 368.460938c0 8.289062-6.710937 15-15 15h-80.328125v-30h80.328125c8.289063 0 15 6.71875 15 15zm0 0" fill="#ecb402"/><path d="m39.1875 512c-2.253906 0-4.542969-.511719-6.695312-1.585938-7.410157-3.703124-10.414063-12.714843-6.707032-20.125l16.066406-32.132812c3.703126-7.410156 12.714844-10.417969 20.125-6.710938 7.410157 3.707032 10.410157 12.714844 6.707032 20.125l-16.066406 32.132813c-2.628907 5.257813-7.925782 8.296875-13.429688 8.296875zm0 0" fill="#5258e3"/><path d="m328.410156 512c-5.5 0-10.796875-3.039062-13.425781-8.296875l-16.066406-32.132813c-3.707031-7.410156-.703125-16.417968 6.707031-20.125 7.410156-3.703124 16.417969-.699218 20.125 6.710938l16.066406 32.132812c3.703125 7.410157.699219 16.421876-6.707031 20.125-2.15625 1.074219-4.445313 1.585938-6.699219 1.585938zm0 0" fill="#1827c6"/><path d="m183.800781 399.53125c-8.285156 0-15-6.71875-15-15v-32.132812c0-8.285157 6.714844-15 15-15 8.28125 0 15 6.714843 15 15v32.132812c0 8.28125-6.71875 15-15 15zm0 0" fill="#ff7d00"/><path d="m198.800781 384.53125v-32.132812c0-8.285157-6.71875-15-15-15v62.132812c8.28125 0 15-6.71875 15-15zm0 0" fill="#f13800"/><path d="m357.878906 361.757812-96.398437-192.800781c-2.621094-5.261719-7.921875-8.300781-13.421875-8.300781h-128.519532c-5.5 0-10.800781 3.039062-13.417968 8.300781l-96.402344 192.800781c-10.378906 20.757813-12.058594 44.308594-4.710938 66.308594 7.332032 22.011719 22.800782 39.839844 43.550782 50.210938 2.152344 1.078125 4.441406 1.589844 6.699218 1.589844 5.5 0 10.800782-3.039063 13.421876-8.300782l115.121093-230.230468 115.117188 230.230468c2.632812 5.261719 7.921875 8.300782 13.421875 8.300782 2.257812 0 4.550781-.511719 6.699218-1.589844 20.75-10.371094 36.21875-28.199219 43.550782-50.210938 7.347656-22 5.667968-45.550781-4.710938-66.308594zm0 0" fill="#1827c6"/><path d="m261.480469 168.957031c-2.621094-5.261719-7.921875-8.300781-13.421875-8.300781h-64.257813v80.679688l115.117188 230.230468c2.632812 5.261719 7.921875 8.300782 13.421875 8.300782 2.257812 0 4.550781-.511719 6.699218-1.589844 20.75-10.371094 36.21875-28.199219 43.550782-50.210938 7.347656-22 5.667968-45.550781-4.710938-66.308594zm0 0" fill="#000e5c"/><path d="m183.800781 222.796875c-43.710937 0-79.269531-35.558594-79.269531-79.265625 0-43.710938 35.558594-79.265625 79.269531-79.265625 43.707031 0 79.265625 35.558594 79.265625 79.265625s-35.558594 79.265625-79.265625 79.265625zm0 0" fill="#ffe100"/><path d="m198.800781 65.691406c-4.863281-.941406-9.871093-1.429687-15-1.429687v158.539062c43.707031 0 79.269531-35.5625 79.269531-79.269531 0-38.582031-27.710937-70.820312-64.269531-77.839844zm0 0" fill="#ecb402"/><path d="m183.800781 94.265625c-27.167969 0-49.269531 22.097656-49.269531 49.265625 0 27.164062 22.101562 49.265625 49.269531 49.265625 27.164063 0 49.265625-22.101563 49.265625-49.265625 0-27.167969-22.101562-49.265625-49.265625-49.265625zm0 0" fill="#eff6fe"/><path d="m233.066406 143.53125c0-27.167969-22.101562-49.269531-49.265625-49.269531v98.535156c27.164063 0 49.265625-22.101563 49.265625-49.265625zm0 0" fill="#d2dce7"/><g fill-rule="evenodd"><path d="m198.800781 143.53125c0 8.28125-6.71875 15-15 15-8.285156 0-15-6.71875-15-15 0-8.285156 6.714844-15 15-15 8.28125 0 15 6.714844 15 15zm0 0" fill="#ff7d00"/><path d="m198.800781 143.53125c0 8.277344-6.722656 15-15 15v-30c8.277344 0 15 6.71875 15 15zm0 0" fill="#f13800"/></g></svg>