<svg height="512pt" viewBox="0 0 512 512" width="512pt" xmlns="http://www.w3.org/2000/svg"><path d="m448.800781 512h-401.667969c-12.597656 0-24.433593-4.90625-33.332031-13.816406-8.894531-8.882813-13.800781-20.71875-13.800781-33.316406v-289.199219c0-12.597657 4.90625-24.4375 13.816406-33.332031 8.882813-8.898438 20.71875-13.804688 33.316406-13.804688h401.667969c12.597657 0 24.433594 4.90625 33.332031 13.816406 8.894532 8.882813 13.800782 20.722656 13.800782 33.316406v289.199219c0 12.601563-4.90625 24.4375-13.816406 33.332031-8.882813 8.898438-20.71875 13.804688-33.316407 13.804688zm0 0" fill="#5258e3"/><path d="m495.929688 175.671875v289.199219c0 12.589844-4.898438 24.429687-13.808594 33.328125-8.890625 8.890625-20.722656 13.800781-33.320313 13.800781h-200.832031v-383.46875h200.832031c12.597657 0 24.429688 4.910156 33.328125 13.820312 8.902344 8.878907 13.800782 20.71875 13.800782 33.320313zm0 0" fill="#1827c6"/><path d="m416.667969 447.734375h-273.136719c-8.28125 0-15-6.71875-15-15v-224.933594c0-8.285156 6.71875-15 15-15h273.136719c8.28125 0 15 6.714844 15 15v224.933594c0 8.285156-6.71875 15-15 15zm0 0" fill="#1827c6"/><path d="m431.671875 207.800781v224.929688c0 8.289062-6.722656 15-15 15h-168.703125v-254.929688h168.703125c8.277344 0 15 6.71875 15 15zm0 0" fill="#000e5c"/><g fill="#ffe100"><path d="m64.265625 254.933594c-8.28125 0-15-6.714844-15-15v-32.132813c0-8.285156 6.71875-15 15-15 8.285156 0 15 6.714844 15 15v32.132813c0 8.285156-6.714844 15-15 15zm0 0"/><path d="m64.265625 351.332031c-8.28125 0-15-6.714843-15-15v-32.132812c0-8.285157 6.71875-15 15-15 8.285156 0 15 6.714843 15 15v32.132812c0 8.285157-6.714844 15-15 15zm0 0"/><path d="m64.265625 447.734375c-8.28125 0-15-6.71875-15-15v-32.132813c0-8.285156 6.71875-15 15-15 8.285156 0 15 6.714844 15 15v32.132813c0 8.285156-6.714844 15-15 15zm0 0"/></g><path d="m272.074219 254.933594c-8.285157 0-15.007813-6.714844-15.007813-15v-.007813c0-35.085937 13.664063-68.066406 38.472656-92.875l132.675782-132.679687c9.269531-9.265625 21.589844-14.371094 34.699218-14.371094 13.101563 0 25.425782 5.101562 34.699219 14.363281.003907.003907.007813.007813.011719.011719s.007812.007812.011719.011719c9.261719 9.273437 14.363281 21.597656 14.363281 34.699219 0 13.109374-5.105469 25.429687-14.371094 34.699218l-132.679687 132.675782c-24.804688 24.808593-57.789063 38.472656-92.875 38.472656zm0 0" fill="#00e1c8"/><path d="m272.074219 254.933594c35.085937 0 68.066406-13.664063 92.875-38.472656l132.679687-132.675782c9.265625-9.269531 14.371094-21.589844 14.371094-34.699218 0-13.101563-5.101562-25.425782-14.363281-34.699219-.003907-.003907-.007813-.007813-.011719-.011719l-236.164062 236.164062c2.71875 2.714844 6.472656 4.394532 10.613281 4.394532zm0 0" fill="#009b91"/></svg>