<svg height="512pt" viewBox="-48 0 512 512" width="512pt" xmlns="http://www.w3.org/2000/svg"><path d="m368.46875 512h-321.335938c-25.988281 0-47.132812-21.144531-47.132812-47.132812v-80.335938c0-8.28125 6.714844-15 15-15 18.308594 0 33.199219-14.890625 33.199219-33.199219v-144.597656c0-18.308594-14.894531-33.203125-33.199219-33.203125-8.285156 0-15-6.714844-15-15v-96.398438c0-25.988281 21.144531-47.132812 47.132812-47.132812h321.335938c25.988281 0 47.132812 21.144531 47.132812 47.132812v96.398438c0 8.285156-6.71875 15-15 15-18.308593 0-33.203124 14.894531-33.203124 33.203125v144.597656c0 18.308594 14.894531 33.199219 33.203124 33.199219 8.28125 0 15 6.71875 15 15v80.335938c0 25.988281-21.144531 47.132812-47.132812 47.132812zm0 0" fill="#ff7d00"/><path d="m368.46875 0h-160.667969v512h160.667969c25.988281 0 47.132812-21.144531 47.132812-47.132812v-80.335938c0-8.28125-6.71875-15-15-15-18.308593 0-33.203124-14.890625-33.203124-33.199219v-144.597656c0-18.308594 14.894531-33.203125 33.203124-33.203125 8.28125 0 15-6.714844 15-15v-96.398438c0-25.988281-21.144531-47.132812-47.132812-47.132812zm0 0" fill="#f13800" fill-rule="evenodd"/><path d="m288.132812 512h-160.664062c-8.285156 0-15-6.714844-15-15v-289.199219c0-52.566406 42.765625-95.332031 95.332031-95.332031 52.566407 0 95.332031 42.765625 95.332031 95.332031v289.199219c0 8.285156-6.714843 15-15 15zm0 0" fill="#eff6fe"/><path d="m288.132812 512c8.285157 0 15-6.714844 15-15v-289.199219c0-52.566406-42.765624-95.332031-95.332031-95.332031v399.53125zm0 0" fill="#d2dce7" fill-rule="evenodd"/><g fill="#8f9caa"><path d="m168.699219 289.199219c8.25 0 15 6.722656 15 15 0 8.277343-6.75 15-15 15s-15-6.722657-15-15c0-8.277344 6.75-15 15-15zm0 0" fill-rule="evenodd"/><path d="m237.800781 512h30v-378.222656c-8.835937-7.175782-18.972656-12.804688-30-16.46875zm0 0"/></g></svg>