<svg height="512pt" viewBox="-35 0 512 512.001" width="512pt" xmlns="http://www.w3.org/2000/svg"><path d="m80.984375 215.425781c-8.285156 0-15-6.714843-15-15 0-19.882812 6.878906-30.511719 12.40625-39.054687 4.574219-7.0625 7.59375-11.730469 7.59375-22.753906 0-11.023438-3.019531-15.691407-7.59375-22.753907-5.527344-8.542969-12.40625-19.175781-12.40625-39.054687 0-19.882813 6.878906-30.515625 12.40625-39.054688 4.574219-7.066406 7.59375-11.734375 7.59375-22.753906 0-8.285156 6.714844-15 15-15s15 6.714844 15 15c0 19.882812-6.878906 30.511719-12.40625 39.050781-4.574219 7.066407-7.59375 11.734375-7.59375 22.757813 0 11.019531 3.019531 15.6875 7.59375 22.753906 5.527344 8.542969 12.40625 19.171875 12.40625 39.054688 0 19.882812-6.878906 30.511718-12.40625 39.054687-4.574219 7.0625-7.59375 11.730469-7.59375 22.753906 0 8.285157-6.714844 15-15 15zm0 0" fill="#a3efff"/><path d="m160.980469 215.425781c-8.28125 0-14.996094-6.714843-14.996094-15 0-19.882812 6.878906-30.511719 12.40625-39.054687 4.570313-7.0625 7.589844-11.730469 7.589844-22.753906 0-11.023438-3.019531-15.691407-7.589844-22.753907-5.527344-8.542969-12.40625-19.175781-12.40625-39.054687 0-19.882813 6.878906-30.515625 12.40625-39.054688 4.570313-7.066406 7.589844-11.734375 7.589844-22.753906 0-8.285156 6.71875-15 15-15 8.285156 0 15 6.714844 15 15 0 19.882812-6.878907 30.511719-12.40625 39.050781-4.574219 7.066407-7.59375 11.734375-7.59375 22.757813 0 11.019531 3.023437 15.6875 7.59375 22.753906 5.527343 8.542969 12.40625 19.171875 12.40625 39.054688 0 19.882812-6.878907 30.511718-12.40625 39.054687-4.574219 7.0625-7.59375 11.730469-7.59375 22.753906 0 8.285157-6.714844 15-15 15zm0 0" fill="#a3efff"/><g fill="#6ad9eb"><path d="m240.980469 215.425781c-8.285157 0-15-6.714843-15-15 0-19.882812 6.878906-30.511719 12.40625-39.054687 4.570312-7.0625 7.59375-11.730469 7.59375-22.753906 0-11.023438-3.023438-15.691407-7.59375-22.753907-5.527344-8.542969-12.40625-19.175781-12.40625-39.054687 0-19.882813 6.878906-30.515625 12.40625-39.054688 4.570312-7.066406 7.59375-11.734375 7.59375-22.753906 0-8.285156 6.714843-15 15-15 8.28125 0 15 6.714844 15 15 0 19.882812-6.878907 30.511719-12.40625 39.050781-4.574219 7.066407-7.59375 11.734375-7.59375 22.757813 0 11.019531 3.019531 15.6875 7.59375 22.753906 5.527343 8.542969 12.40625 19.171875 12.40625 39.054688 0 19.882812-6.878907 30.511718-12.40625 39.054687-4.574219 7.0625-7.59375 11.730469-7.59375 22.753906 0 8.285157-6.714844 15-15 15zm0 0"/><path d="m195.980469 138.617188c0-19.882813-6.878907-30.511719-12.40625-39.054688-3.113281-4.808594-5.503907-8.511719-6.714844-13.859375v105.824219c1.210937-5.34375 3.601563-9.046875 6.714844-13.855469 5.527343-8.542969 12.40625-19.171875 12.40625-39.054687zm0 0"/><path d="m180.980469 0c-1.429688 0-2.808594.214844-4.121094.585938v67.324218c1.210937-5.347656 3.601563-9.046875 6.714844-13.859375 5.527343-8.539062 12.40625-19.167969 12.40625-39.050781 0-8.285156-6.714844-15-15-15zm0 0"/></g><path d="m356.976562 428.003906h-18.917968c-8.285156 0-15-6.71875-15-15 0-8.285156 6.714844-15 15-15h18.917968c30.328126 0 55-24.671875 55-55v-66.636718c0-2.757813-2.246093-5-5-5h-68.917968c-8.285156 0-15-6.714844-15-15 0-8.28125 6.714844-15 15-15h68.917968c19.296876 0 34.996094 15.703124 34.996094 35v66.636718c0 46.867188-38.128906 85-84.996094 85zm0 0" fill="#845fa6"/><path d="m238.722656 512h-123.0625c-63.195312 0-114.78125-51.414062-114.996094-114.609375l-.664062-196.914063c-.0117188-3.984374 1.5625-7.8125 4.375-10.640624 2.816406-2.820313 6.636719-4.410157 10.625-4.410157h323.058594c8.265625 0 14.972656 6.6875 15 14.949219l.660156 196.238281c.105469 30.792969-11.808594 59.757813-33.542969 81.566407-21.734375 21.808593-50.664062 33.820312-81.453125 33.820312zm0 0" fill="#cb8deb"/><path d="m338.058594 185.425781h-161.199219v326.574219h61.863281c30.789063 0 59.71875-12.007812 81.453125-33.816406 21.734375-21.8125 33.648438-50.777344 33.542969-81.566406l-.660156-196.242188c-.027344-8.261719-6.734375-14.949219-15-14.949219zm0 0" fill="#b474c5"/><path d="m98.648438 185.425781v120.582031c0 8.28125 6.71875 15 15 15 8.285156 0 15-6.71875 15-15v-120.582031zm0 0" fill="#a3efff"/><path d="m143.648438 432.003906h-60c-8.28125 0-14.996094-6.71875-14.996094-15v-79.78125c0-3.875 1.496094-7.601562 4.183594-10.394531l30-31.214844c2.828124-2.945312 6.734374-4.605469 10.8125-4.605469 4.082031 0 7.988281 1.664063 10.816406 4.605469l30 31.214844c2.683594 2.792969 4.183594 6.519531 4.183594 10.394531v79.78125c0 8.28125-6.714844 15-15 15zm0 0" fill="#fff566"/></svg>