<svg height="512pt" viewBox="-81 0 512 512" width="512pt" xmlns="http://www.w3.org/2000/svg"><path d="m145.03125 273.707031h60.015625v163.277344h-60.015625zm0 0" fill="#28c1d1"/><path d="m175.03125 273.707031h30.015625v163.277344h-30.015625zm0 0" fill="#008896"/><path d="m90.019531 497.050781v-30.003906c0-24.820313 20.191407-45.011719 45.011719-45.011719h80.015625c24.820313 0 45.011719 20.191406 45.011719 45.011719v30.003906zm0 0" fill="#6ad9eb"/><path d="m215.046875 422.035156h-40.015625v75.015625h85.027344v-30.003906c0-24.820313-20.191406-45.011719-45.011719-45.011719zm0 0" fill="#28c1d1"/><path d="m273.132812 512h-196.191406c-8.285156 0-15.003906-6.71875-15.003906-15.003906s6.71875-15.003906 15.003906-15.003906h196.191406c8.285157 0 15.003907 6.71875 15.003907 15.003906s-6.71875 15.003906-15.003907 15.003906zm0 0" fill="#a3efff"/><path d="m273.132812 481.992188h-98.101562v30.007812h98.101562c8.285157 0 15.003907-6.71875 15.003907-15.003906s-6.71875-15.003906-15.003907-15.003906zm0 0" fill="#6ad9eb"/><path d="m276.171875 344.898438c-8.285156 0-15-6.71875-15-15.003907v-56.1875c0-8.285156 6.714844-15.003906 15-15.003906 8.289063 0 15.003906 6.71875 15.003906 15.003906v56.1875c0 8.285157-6.714843 15.003907-15.003906 15.003907zm0 0" fill="#a3efff"/><path d="m335.074219 288.710938h-320.070313c-4.660156 0-9.054687-2.164063-11.894531-5.859376-2.839844-3.695312-3.800781-8.5-2.605469-13.003906l68.835938-258.703125c1.746094-6.570312 7.699218-11.144531 14.496094-11.144531h182.402343c6.800781 0 12.75 4.574219 14.5 11.144531l68.832031 258.703125c1.199219 4.503906.238282 9.308594-2.605468 13.003906-2.835938 3.695313-7.234375 5.859376-11.890625 5.859376zm0 0" fill="#fff566"/><path d="m280.738281 11.144531c-1.75-6.570312-7.699219-11.144531-14.5-11.144531h-91.207031v288.710938h160.042969c4.660156 0 9.054687-2.164063 11.894531-5.859376 2.839844-3.695312 3.800781-8.5 2.605469-13.003906zm0 0" fill="#ffe645"/><path d="m.503906 269.847656c-1.199218 4.503906-.234375 9.308594 2.605469 13.003906 2.839844 3.695313 7.234375 5.859376 11.894531 5.859376h320.070313c4.660156 0 9.054687-2.164063 11.894531-5.859376 2.839844-3.695312 3.800781-8.5 2.605469-13.003906l-13.730469-51.589844h-321.613281zm0 0" fill="#ffcf2c"/><path d="m335.84375 218.257812h-160.8125v70.453126h160.042969c4.660156 0 9.054687-2.164063 11.894531-5.859376 2.839844-3.695312 3.800781-8.5 2.605469-13.003906zm0 0" fill="#ffa81c"/></svg>