<svg height="512pt" viewBox="0 -1 512.002 512" width="512pt" xmlns="http://www.w3.org/2000/svg"><path d="m407.894531 509.882812h-15.292969c-57.40625 0-104.105468-46.703124-104.105468-104.105468 0-23.714844-11.476563-46.167969-30.695313-60.0625l-21.273437-15.375c-45.542969-32.917969-72.734375-86.121094-72.734375-142.320313v-25.796875c0-89.449218 72.769531-162.222656 162.222656-162.222656h23.765625c89.449219 0 162.222656 72.773438 162.222656 162.222656v243.554688c-.003906 57.40625-46.707031 104.105468-104.109375 104.105468zm0 0" fill="#ffdaab"/><path d="m349.777344.00390625h-11.882813v494.31249975c15.90625 9.863282 34.652344 15.570313 54.707031 15.570313h15.289063c57.40625 0 104.109375-46.703125 104.109375-104.109375v-243.554688c0-89.449218-72.773438-162.21874975-162.222656-162.21874975zm0 0" fill="#ffbe85"/><path d="m412 420.777344h-2.621094c-29.632812 0-55.53125-20.128906-62.980468-48.953125-7.960938-30.808594-26.480469-57.992188-52.144532-76.542969l-21.269531-15.375c-29.40625-21.25-46.964844-55.601562-46.964844-91.886719v-25.796875c0-55.136718 44.855469-99.992187 99.992188-99.992187h23.769531c55.132812 0 99.988281 44.855469 99.988281 99.992187v71.980469c0 8.285156-6.714843 15-15 15-11.777343 0-21.359375 9.582031-21.359375 21.359375s9.582032 21.363281 21.359375 21.363281c8.285157 0 15 6.714844 15 14.996094 0 8.285156-6.714843 15-15 15-28.316406 0-51.359375-23.039063-51.359375-51.359375 0-23.101562 15.335938-42.691406 36.363282-49.125v-59.214844c0-38.59375-31.402344-69.996094-69.992188-69.996094h-23.769531c-38.59375 0-69.992188 31.398438-69.992188 69.996094v25.796875c0 26.683594 12.910157 51.945313 34.535157 67.574219l21.269531 15.375c31.316406 22.636719 53.910156 55.785156 63.617187 93.347656 4.027344 15.578125 17.980469 26.460938 33.9375 26.460938h2.621094c8.285156 0 15 6.714844 15 15s-6.714844 15-15 15zm0 0" fill="#ffbe85"/><path d="m349.777344 62.230469h-11.882813v30h11.882813c38.59375 0 69.992187 31.398437 69.992187 69.992187v59.214844c-21.023437 6.433594-36.359375 26.023438-36.359375 49.128906 0 28.316406 23.042969 51.359375 51.359375 51.359375 8.285157 0 15-6.714843 15-15 0-8.285156-6.714843-15-15-15-11.777343 0-21.359375-9.582031-21.359375-21.359375 0-11.78125 9.582032-21.359375 21.359375-21.359375 8.285157 0 15-6.71875 15-15v-71.984375c0-55.136718-44.855469-99.992187-99.992187-99.992187zm0 0" fill="#f58e4e"/><path d="m409.378906 420.777344h2.621094c8.285156 0 15-6.714844 15-15 0-8.28125-6.714844-15-15-15h-2.621094c-15.953125 0-29.910156-10.878906-33.933594-26.457032-6.75-26.121093-19.738281-50.101562-37.550781-69.902343v53.761719c3.53125 7.5625 6.394531 15.476562 8.503907 23.644531 7.449218 28.824219 33.347656 48.953125 62.980468 48.953125zm0 0" fill="#f58e4e"/><path d="m256.324219 496.4375c-3.84375 0-7.695313-1.457031-10.652344-4.363281l-.058594-.0625c-.007812-.007813-.015625-.015625-.027343-.023438l-136.921876-136.925781c-.003906-.003906-.007812-.007812-.011718-.011719l-.414063-.410156.007813-.007813c-6.6875-7.105468-5.050782-16.171874-.011719-21.210937 5.820313-5.820313 15.3125-5.808594 21.214844.003906h.003906c.003906.007813.03125.03125.074219.074219 0 .003906.003906.007812.007812.007812l1.363282 1.367188c.585937.585938 1.78125.867188 3.628906.855469 19.210937-.1875 64.167968-32.011719 104.570312-74.023438 13.316406-13.84375 31.234375-21.574219 50.453125-21.761719 19.242188-.183593 37.363281 7.210938 50.980469 20.828126 27.664062 27.660156 27.683594 72.730468.046875 100.472656-75.957031 76.242187-78.636719 104.671875-75.195313 108.113281l1.136719 1.136719c.007813.007812.015625.015625.023438.019531.210937.210937.328125.328125.34375.34375l-.007813.007813c6.714844 7.078124 5.066406 16.15625.011719 21.210937-2.90625 2.90625-6.730469 4.359375-10.566406 4.359375zm0 0" fill="#cb8deb"/><path d="m340.539062 260.78125-163.078124 163.078125 68.125 68.128906c.011718.007813.019531.015625.027343.023438l.058594.0625c2.957031 2.90625 6.808594 4.363281 10.652344 4.363281 3.835937 0 7.660156-1.453125 10.566406-4.359375 5.054687-5.054687 6.703125-14.132813-.011719-21.210937l.007813-.007813c-.015625-.015625-.132813-.132813-.34375-.34375-.007813-.003906-.015625-.011719-.023438-.019531l-1.136719-1.136719c-3.4375-3.441406-.761718-31.871094 75.195313-108.113281 27.636719-27.738282 27.617187-72.804688-.039063-100.464844zm0 0" fill="#b474c5"/><g fill="#a3efff"><path d="m15 211.34375c-8.285156 0-15-6.714844-15-15 0-8.28125 6.714844-15 15-15 55.136719 0 99.996094-44.855469 99.996094-99.996094 0-8.28125 6.714844-15 15-15s15 6.71875 15 15c0 71.679688-58.316406 129.996094-129.996094 129.996094zm0 0"/><path d="m15 151.347656c-8.285156 0-15-6.71875-15-15 0-8.285156 6.714844-15 15-15 22.054688 0 40-17.945312 40-40 0-8.28125 6.714844-15 14.996094-15 8.285156 0 15 6.71875 15 15 0 38.597656-31.398438 70-69.996094 70zm0 0"/><path d="m15 96.347656c-3.949219 0-7.816406-1.601562-10.609375-4.390625-2.789063-2.796875-4.38671875-6.660156-4.38671875-10.609375 0-3.949218 1.59765575-7.808594 4.38671875-10.609375 2.792969-2.789062 6.660156-4.390625 10.609375-4.390625 3.953125 0 7.8125 1.601563 10.601562 4.390625 2.800782 2.800781 4.398438 6.660157 4.398438 10.609375 0 3.949219-1.597656 7.8125-4.398438 10.609375-2.789062 2.792969-6.648437 4.390625-10.601562 4.390625zm0 0"/></g></svg>