<svg height="511pt" viewBox="0 -48 511.99898 511" width="511pt" xmlns="http://www.w3.org/2000/svg"><path d="m173.90625 415.671875c-8.535156 0-15.453125-6.921875-15.453125-15.453125v-42.214844c0-8.535156 6.917969-15.453125 15.453125-15.453125 8.53125 0 15.453125 6.917969 15.453125 15.453125v42.214844c0 8.53125-6.917969 15.453125-15.453125 15.453125zm0 0" fill="#ffdaab"/><path d="m357.71875 415.671875c-8.53125 0-15.453125-6.921875-15.453125-15.453125v-42.214844c0-8.535156 6.921875-15.453125 15.453125-15.453125 8.535156 0 15.453125 6.917969 15.453125 15.453125v42.214844c0 8.53125-6.917969 15.453125-15.453125 15.453125zm0 0" fill="#ffbe85"/><path d="m496.558594 235.773438c-5.605469 0-11.007813-3.058594-13.753906-8.382813l-25.34375-49.214844c-3.90625-7.589843-.921876-16.90625 6.664062-20.8125 7.59375-3.910156 16.90625-.921875 20.8125 6.664063l25.34375 49.214844c3.90625 7.585937.921875 16.90625-6.664062 20.8125-2.261719 1.164062-4.679688 1.71875-7.058594 1.71875zm0 0" fill="#ffbe85"/><path d="m471.199219 171.101562c0-27.429687-22.152344-49.683593-49.542969-49.851562-6.429688-20.105469-25.257812-34.667969-47.496094-34.667969-19.863281 0-37.007812 11.617188-45.023437 28.421875-7.34375-18.382812-25.300781-31.378906-46.308594-31.378906-15.695313 0-29.6875 7.261719-38.828125 18.597656-7.476562-18.097656-25.296875-30.839844-46.097656-30.839844-9.464844 0-18.3125 2.636719-25.851563 7.214844l-4.117187-20.128906c-5.171875-26.8125-22.363282-45.304688-47.703125-42.160156l-83.441407 10.351562c-21.070312 2.847656-36.789062 20.835938-36.789062 42.105469v4.3125c0 21.042969 15.394531 38.914063 36.199219 42.019531l34.890625 5.214844 3.796875 27.34375c-10.292969 9.132812-16.785157 22.457031-16.785157 37.300781 0 15.6875 7.25 29.679688 18.582032 38.816407-2.480469 5.921874-3.855469 12.425781-3.855469 19.25 0 27.535156 22.324219 49.859374 49.859375 49.859374 5.25 0 10.308594-.816406 15.0625-2.320312 1.511719.472656 3.039062.90625 4.589844 1.285156v35.242188c0 17.070312 13.835937 30.914062 30.90625 30.914062 17.066406 0 30.902344-13.839844 30.902344-30.914062v-33.128906h122.003906v33.128906c0 17.070312 13.835937 30.914062 30.90625 30.914062 17.070312 0 30.90625-13.839844 30.90625-30.914062v-35.375c37.527344-8.753906 65.5-42.371094 65.578125-82.558594 10.796875-9.148438 17.65625-22.796875 17.65625-38.054688zm0 0" fill="#ffdaab"/><path d="m357.058594 373.457031c-25.5625 0-46.359375-20.800781-46.359375-46.367187v-17.675782h-91.097657v17.675782c0 25.566406-20.796874 46.367187-46.355468 46.367187-25.5625 0-46.359375-20.800781-46.359375-46.367187v-18.886719c-1.394531.089844-2.796875.132813-4.199219.132813-36.011719 0-65.3125-29.296876-65.3125-65.3125 0-5.019532.5625-9.957032 1.679688-14.773438-10.53125-11.859375-16.40625-27.140625-16.40625-43.292969 0-15.742187 5.707031-30.886719 15.890624-42.683593l-2.753906-19.835938c-.414062-2.976562.050782-6.011719 1.335938-8.726562l49.140625-104.003907c2.261719-4.785156 6.8125-8.082031 12.066406-8.734375 16.75-2.078125 31.917969 2.726563 43.871094 13.890625 10.40625 9.730469 17.628906 23.761719 20.890625 40.589844l.425781 2.074219c4.695313-1.058594 9.519531-1.597656 14.386719-1.597656 19.425781 0 37.328125 8.492187 49.503906 22.664062 10.421875-6.742188 22.652344-10.417969 35.425781-10.417969 18.300781 0 35.183594 7.480469 47.238281 20.140625 11.871094-10.824218 27.570313-17.1875 44.089844-17.1875 24.9375 0 47.179688 13.945313 58.183594 35.597656 30.765625 5.261719 54.3125 32.195313 54.3125 64.375 0 16.820313-6.453125 32.835938-17.90625 44.914063-1.441406 20.347656-9.097656 39.980469-21.917969 55.898437-11.398437 14.152344-26.519531 24.980469-43.414062 31.253907v23.921875c0 25.566406-20.796875 46.367187-46.359375 46.367187zm0 0" fill="#d1f7ff"/><path d="m432.34375 106.726562c-11.003906-21.652343-33.246094-35.597656-58.183594-35.597656-16.519531 0-32.21875 6.363282-44.089844 17.1875-12.054687-12.660156-28.9375-20.140625-47.238281-20.140625-6.472656 0-12.804687.945313-18.832031 2.753907v238.480468h46.699219v17.679688c0 25.566406 20.796875 46.367187 46.359375 46.367187s46.359375-20.800781 46.359375-46.367187v-23.921875c16.894531-6.273438 32.015625-17.101563 43.417969-31.253907 12.816406-15.917968 20.472656-35.546874 21.914062-55.898437 11.453125-12.078125 17.90625-28.089844 17.90625-44.914063-.003906-32.179687-23.546875-59.113281-54.3125-64.375zm0 0" fill="#a3efff"/><path d="m138.164062 83.074219c-3.363281.722656-6.988281.332031-10.292968-1.359375-7.589844-3.894532-10.589844-13.210938-6.695313-20.800782l19.882813-38.753906c3.898437-7.59375 13.210937-10.59375 20.804687-6.695312 7.59375 3.894531 10.589844 13.207031 6.695313 20.800781l-19.882813 38.753906c-2.203125 4.292969-6.136719 7.117188-10.511719 8.054688zm0 0" fill="#ffbe85"/></svg>