<svg height="512pt" viewBox="-51 0 512 512" width="512pt" xmlns="http://www.w3.org/2000/svg"><path d="m375 512h-340c-19.296875 0-35-15.699219-35-35v-442c0-19.300781 15.703125-35 35-35h340c19.300781 0 35 15.699219 35 35v442c0 19.300781-15.699219 35-35 35zm0 0" fill="#a3efff"/><path d="m375 0h-169.988281v512h169.988281c19.300781 0 35-15.699219 35-35v-442c0-19.300781-15.699219-35-35-35zm0 0" fill="#6ad9eb"/><path d="m244.992188 156c-3.40625 0-6.714844 1.160156-9.375 3.292969l-235.617188 188.65625v129.050781c0 19.300781 15.699219 35 35 35h340c19.300781 0 35-15.699219 35-35v-321zm0 0" fill="#ffcf2c"/><path d="m235.617188 159.292969-30.609376 24.507812v328.199219h169.992188c19.300781 0 35-15.699219 35-35v-321h-165.007812c-3.40625 0-6.714844 1.160156-9.375 3.292969zm0 0" fill="#ffa81c"/><path d="m235.617188 159.292969-89.558594 71.707031h263.941406v-75h-165.007812c-3.40625 0-6.714844 1.160156-9.375 3.292969zm0 0" fill="#ffcf2c"/><path d="m.832031 347.285156 222.828125-34.257812c9.757813-1.5 16.960938-9.894532 16.960938-19.765625v-136.597657c-1.804688.550782-3.507813 1.429688-5.003906 2.625zm0 0" fill="#ffa81c"/><path d="m205.007812 183.800781v132.097657l18.652344-2.867188c9.757813-1.5 16.960938-9.898438 16.960938-19.769531v-136.597657c-1.804688.550782-3.507813 1.429688-5.003906 2.625zm0 0" fill="#ff7403"/><path d="m185 110h-150c-11.046875 0-20-8.953125-20-20v-55c0-11.046875 8.953125-20 20-20h150c11.046875 0 20 8.953125 20 20v55c0 11.046875-8.953125 20-20 20zm0 0" fill="#28c1d1"/><path d="m375 110h-150c-11.046875 0-20-8.953125-20-20v-55c0-11.046875 8.953125-20 20-20h150c11.046875 0 20 8.953125 20 20v55c0 11.046875-8.953125 20-20 20zm0 0" fill="#00a2b2"/></svg>