<svg height="512pt" viewBox="0 -60 512 512" width="512pt" xmlns="http://www.w3.org/2000/svg"><path d="m168.753906 392.425781c-22.097656 0-43.898437-5.828125-63.542968-17.238281-29.609376-17.199219-50.636719-44.933594-59.21875-78.09375-10.667969-41.25-13.378907-79.976562-8.058594-115.109375 1.242187-8.191406 8.882812-13.832031 17.078125-12.582031 8.191406 1.238281 13.824219 8.886718 12.585937 17.078125-4.714844 31.105469-2.210937 65.792969 7.4375 103.097656 6.558594 25.339844 22.625 46.53125 45.242188 59.667969 22.585937 13.121094 48.910156 16.574218 74.117187 9.726562l62.402344-16.949218c9.355469-2.539063 19.011719-4.003907 28.699219-4.355469l60.527344-2.1875c49.1875-1.777344 89.25-40.117188 93.1875-89.175781l5.074218-63.273438c.664063-8.257812 7.902344-14.40625 16.152344-13.75 8.257812.660156 14.417969 7.894531 13.753906 16.152344l-5.078125 63.269531c-5.152343 64.234375-57.605469 114.429687-122.003906 116.757813l-60.527344 2.1875c-7.402343.269531-14.777343 1.386718-21.921875 3.328124l-62.398437 16.949219c-11.085938 3.007813-22.335938 4.5-33.507813 4.5zm0 0" fill="#845fa6"/><path d="m460.4375 169.277344c-8.25-.652344-15.488281 5.496094-16.152344 13.753906l-5.074218 63.269531c-3.9375 49.0625-44 87.398438-93.1875 89.179688l-60.527344 2.1875c-9.6875.351562-19.34375 1.816406-28.699219 4.355469l-.789063.214843v31.085938l8.652344-2.347657c7.144532-1.941406 14.519532-3.0625 21.921875-3.328124l60.523438-2.1875c64.402343-2.328126 116.851562-52.523438 122.007812-116.761719l5.078125-63.269531c.664063-8.253907-5.496094-15.488282-13.753906-16.152344zm0 0" fill="#654285"/><path d="m15 108.847656c0 51.832032 42.015625 93.847656 93.847656 93.847656h20.046875c25.886719 0 50.832031-10.394531 68.566407-29.25 13.757812-14.625 33.71875-29.246093 58.542968-29.246093 24.601563 0 44.136719 14.367187 57.582032 28.859375 17.632812 19.011718 42.507812 29.636718 68.433593 29.636718h21.132813c51.832031 0 93.847656-42.015624 93.847656-93.847656 0-51.832031-42.015625-93.847656-93.847656-93.847656h-294.304688c-51.832031 0-93.847656 42.015625-93.847656 93.847656zm0 0" fill="#b474c5"/><path d="m403.152344 15h-147.144532v129.199219c24.601563 0 44.132813 14.367187 57.578126 28.859375 17.628906 19.011718 42.503906 29.636718 68.433593 29.636718h21.132813c51.832031 0 93.847656-42.015624 93.847656-93.847656 0-51.832031-42.015625-93.847656-93.847656-93.847656zm0 0" fill="#845fa6"/><path d="m403.152344 217.695312h-21.132813c-30.179687 0-59.132812-12.550781-79.429687-34.433593-14.8125-15.96875-30.488282-24.0625-46.585938-24.0625-16.285156 0-32.308594 8.25-47.617187 24.523437-20.308594 21.589844-49.28125 33.972656-79.488281 33.972656h-20.050782c-60.019531 0-108.847656-48.828124-108.847656-108.847656 0-60.019531 48.828125-108.847656 108.847656-108.847656h294.304688c60.019531 0 108.847656 48.828125 108.847656 108.847656 0 60.019532-48.828125 108.847656-108.847656 108.847656zm-147.148438-88.496093c24.4375 0 48.148438 11.640625 68.578125 33.660156 14.640625 15.785156 35.574219 24.835937 57.4375 24.835937h21.132813c43.476562 0 78.847656-35.371093 78.847656-78.847656 0-43.476562-35.371094-78.847656-78.847656-78.847656h-294.304688c-43.476562 0-78.847656 35.371094-78.847656 78.847656 0 43.476563 35.371094 78.847656 78.847656 78.847656h20.046875c21.96875 0 42.980469-8.9375 57.640625-24.527343 20.90625-22.222657 44.925782-33.96875 69.46875-33.96875zm0 0" fill="#cb8deb"/><path d="m403.152344 0h-147.144532v30h147.144532c43.476562 0 78.847656 35.371094 78.847656 78.847656 0 43.476563-35.371094 78.847656-78.847656 78.847656h-21.132813c-21.863281 0-42.796875-9.050781-57.4375-24.835937-20.425781-22.019531-44.136719-33.660156-68.574219-33.660156v30c16.097657 0 31.769532 8.097656 46.582032 24.0625 20.296875 21.882812 49.25 34.433593 79.429687 34.433593h21.132813c60.019531 0 108.847656-48.828124 108.847656-108.847656 0-60.019531-48.828125-108.847656-108.847656-108.847656zm0 0" fill="#b474c5"/></svg>