<svg height="512pt" viewBox="0 -18 512 512" width="512pt" xmlns="http://www.w3.org/2000/svg"><path d="m124.996094 122.589844h-109.996094c-8.285156 0-15-6.71875-15-15v-20.082032c0-30.328124 24.671875-55 55-55h29.996094c30.328125 0 55 24.671876 55 55v20.082032c0 8.28125-6.714844 15-15 15zm0 0" fill="#6ad9eb"/><path d="m496.992188 192.683594h-481.988282c-8.28125 0-14.99999975-6.714844-14.99999975-15v-70.09375c0-8.285156 6.71874975-15 14.99999975-15h481.988282c8.285156 0 15 6.714844 15 15v70.09375c0 8.285156-6.714844 15-15 15zm0 0" fill="#d1f7ff"/><path d="m496.992188 92.589844h-240.992188v100.09375h240.992188c8.285156 0 15-6.714844 15-15v-70.09375c0-8.285156-6.714844-15-15-15zm0 0" fill="#a3efff"/><path d="m125.003906 332.871094h-109.996094c-8.285156 0-14.9999995-6.714844-14.9999995-15v-20.078125c0-30.328125 24.6718755-55 54.9999995-55h29.996094c30.324219 0 55 24.671875 55 55v20.078125c0 8.285156-6.71875 15-15 15zm0 0" fill="#6ad9eb"/><path d="m497 402.96875h-481.988281c-8.285157 0-15.0000002-6.714844-15.0000002-15v-70.097656c0-8.28125 6.7148432-15 15.0000002-15h481.988281c8.285156 0 15 6.71875 15 15v70.097656c0 8.285156-6.714844 15-15 15zm0 0" fill="#d1f7ff"/><path d="m497 302.871094h-241v100.097656h241c8.285156 0 15-6.714844 15-15v-70.097656c0-8.28125-6.714844-15-15-15zm0 0" fill="#a3efff"/><path d="m15.007812 476.507812c-8.285156 0-14.9999995-6.714843-14.9999995-15v-446.507812c0-8.285156 6.7148435-15 14.9999995-15 8.28125 0 15 6.714844 15 15v446.507812c0 8.285157-6.71875 15-15 15zm0 0" fill="#ffe645"/><path d="m497 476.5c-8.285156 0-15-6.71875-15-15v-387.527344c0-8.285156 6.714844-15 15-15s15 6.714844 15 15v387.527344c0 8.28125-6.714844 15-15 15zm0 0" fill="#ffa81c"/><path d="m497 402.96875h-481.988281c-8.285157 0-15.0000002-6.714844-15.0000002-15s6.7148432-15 15.0000002-15h481.988281c8.285156 0 15 6.714844 15 15s-6.714844 15-15 15zm0 0" fill="#ffe645"/><path d="m497 372.96875h-241v30h241c8.285156 0 15-6.714844 15-15s-6.714844-15-15-15zm0 0" fill="#ffa81c"/><path d="m496.992188 192.683594h-481.988282c-8.28125 0-14.99999975-6.714844-14.99999975-15s6.71874975-15 14.99999975-15h481.988282c8.285156 0 15 6.714844 15 15s-6.714844 15-15 15zm0 0" fill="#ffe645"/><path d="m496.992188 162.683594h-240.992188v30h240.992188c8.285156 0 15-6.714844 15-15s-6.714844-15-15-15zm0 0" fill="#ffa81c"/><path d="m427.003906 192.683594h-90c-8.285156 0-15-6.714844-15-15s6.714844-15 15-15h90c8.28125 0 15 6.714844 15 15s-6.71875 15-15 15zm0 0" fill="#d17a24"/><g fill="#ffc12e"><path d="m427.003906 262.777344h-90c-8.285156 0-15-6.714844-15-15s6.714844-15 15-15h90c8.28125 0 15 6.714844 15 15s-6.71875 15-15 15zm0 0"/><path d="m427.003906 192.683594h-90c-8.285156 0-15-6.714844-15-15s6.714844-15 15-15h90c8.28125 0 15 6.714844 15 15s-6.71875 15-15 15zm0 0"/><path d="m427.003906 122.589844h-90c-8.285156 0-15-6.71875-15-15 0-8.285156 6.714844-15 15-15h90c8.28125 0 15 6.714844 15 15 0 8.28125-6.71875 15-15 15zm0 0"/><path d="m427.003906 332.871094h-90c-8.285156 0-15-6.714844-15-15 0-8.28125 6.714844-15 15-15h90c8.28125 0 15 6.71875 15 15 0 8.285156-6.71875 15-15 15zm0 0"/><path d="m427.003906 402.96875h-90c-8.285156 0-15-6.714844-15-15s6.714844-15 15-15h90c8.28125 0 15 6.714844 15 15s-6.71875 15-15 15zm0 0"/></g><path d="m337.003906 422.96875c-8.285156 0-15-6.714844-15-15v-320.378906c0-8.285156 6.714844-15 15-15s15 6.714844 15 15v320.378906c0 8.285156-6.714844 15-15 15zm0 0" fill="#ffe645"/><path d="m427.003906 422.96875c-8.285156 0-15-6.714844-15-15v-320.378906c0-8.285156 6.714844-15 15-15 8.28125 0 15 6.714844 15 15v320.378906c0 8.285156-6.71875 15-15 15zm0 0" fill="#ffe645"/></svg>