<svg height="512pt" viewBox="0 -69 512 512" width="512pt" xmlns="http://www.w3.org/2000/svg"><path d="m434.90625 75c-8.285156 0-15-6.714844-15-15v-30c0-8.285156 6.714844-15 15-15s15 6.714844 15 15v30c0 8.285156-6.714844 15-15 15zm0 0" fill="#ffa81c"/><path d="m75.5 373c-16.566406 0-30-13.429688-30-30v-30h60v30c0 16.570312-13.429688 30-30 30zm0 0" fill="#008896"/><path d="m436.007812 373c-16.570312 0-30.003906-13.429688-30.003906-30v-30h60.003906v30c0 16.570312-13.433593 30-30 30zm0 0" fill="#006d78"/><path d="m326.003906 60h-220.003906v-26c0-18.777344 15.222656-34 34-34h152.003906c18.777344 0 34 15.222656 34 34zm0 0" fill="#008896"/><path d="m292.003906 0h-36.011718v60h70.011718v-26c0-18.777344-15.222656-34-34-34zm0 0" fill="#006d78"/><path d="m15 60h482v253h-482zm0 0" fill="#845fa6"/><path d="m255.992188 60h241.007812v253h-241.007812zm0 0" fill="#654285"/><path d="m497 328h-482c-8.285156 0-15-6.714844-15-15v-253c0-8.285156 6.714844-15 15-15h482c8.285156 0 15 6.714844 15 15v253c0 8.285156-6.714844 15-15 15zm-467-30h452v-223h-452zm0 0" fill="#28c1d1"/><path d="m497 45h-241.007812v30h226.007812v223h-226.007812v30h241.007812c8.285156 0 15-6.714844 15-15v-253c0-8.285156-6.714844-15-15-15zm0 0" fill="#00a2b2"/><path d="m106.003906 261.5c-24.816406 0-45.003906-20.1875-45.003906-45v-60c0-24.8125 20.1875-45 45-45s45.003906 20.1875 45.003906 45v60c0 24.8125-20.1875 45-45 45zm0-120c-8.273437 0-15.003906 6.730469-15.003906 15v60c0 8.269531 6.730469 15 15 15h.003906c8.269532 0 15-6.730469 15-15v-60c0-8.269531-6.730468-15-15-15zm0 0" fill="#fff566"/><path d="m406.007812 261.5c-24.816406 0-45.003906-20.1875-45.003906-45v-60c0-24.8125 20.1875-45 45-45s45.003906 20.1875 45.003906 45v60c0 24.8125-20.1875 45-45 45zm0-120c-8.273437 0-15.003906 6.730469-15.003906 15v60c0 8.269531 6.730469 15 15 15h.003906c8.269532 0 15-6.730469 15-15v-60c0-8.269531-6.730468-15-15-15zm0 0" fill="#ffcf2c"/><path d="m196.003906 261.5c-8.285156 0-15-6.714844-15-15v-120c0-8.285156 6.714844-15 15-15 8.28125 0 15 6.714844 15 15v120c0 8.285156-6.71875 15-15 15zm0 0" fill="#fff566"/><path d="m316.003906 261.5c-8.285156 0-15-6.714844-15-15v-120c0-8.285156 6.714844-15 15-15s15 6.714844 15 15v120c0 8.285156-6.714844 15-15 15zm0 0" fill="#ffcf2c"/><path d="m256 171.5c-3.941406 0-7.8125-1.601562-10.601562-4.390625-2.800782-2.800781-4.398438-6.660156-4.398438-10.609375s1.601562-7.808594 4.398438-10.609375c2.789062-2.789063 6.652343-4.390625 10.601562-4.390625s7.820312 1.601562 10.609375 4.390625c2.789063 2.800781 4.390625 6.660156 4.390625 10.609375s-1.601562 7.808594-4.390625 10.609375c-2.789063 2.789063-6.660156 4.390625-10.609375 4.390625zm0 0" fill="#fff566"/><path d="m256 141.5c-.003906 0-.003906 0-.007812 0v30h.007812c3.949219 0 7.820312-1.601562 10.609375-4.390625 2.789063-2.800781 4.390625-6.660156 4.390625-10.609375s-1.601562-7.808594-4.390625-10.609375c-2.789063-2.789063-6.660156-4.390625-10.609375-4.390625zm0 0" fill="#ffcf2c"/><path d="m256 231.5c-3.949219 0-7.8125-1.601562-10.601562-4.390625-2.800782-2.800781-4.398438-6.660156-4.398438-10.609375s1.601562-7.808594 4.398438-10.609375c2.789062-2.789063 6.652343-4.390625 10.601562-4.390625s7.820312 1.601562 10.609375 4.390625c2.789063 2.800781 4.390625 6.660156 4.390625 10.609375s-1.601562 7.808594-4.390625 10.609375c-2.789063 2.789063-6.660156 4.390625-10.609375 4.390625zm0 0" fill="#fff566"/><path d="m256 201.5c-.003906 0-.003906 0-.007812 0v30h.007812c3.949219 0 7.820312-1.601562 10.609375-4.390625 2.789063-2.800781 4.390625-6.660156 4.390625-10.609375s-1.601562-7.808594-4.390625-10.609375c-2.789063-2.789063-6.660156-4.390625-10.609375-4.390625zm0 0" fill="#ffcf2c"/></svg>