<svg height="511pt" viewBox="0 -30 511.99932 511" width="511pt" xmlns="http://www.w3.org/2000/svg"><path d="m453.882812 378.117188c-2.386718 0-4.78125-.566407-6.976562-1.722657l-62.773438-33-62.777343 33c-5.054688 2.660157-11.175781 2.214844-15.796875-1.140625-4.617188-3.355468-6.933594-9.042968-5.964844-14.671875l11.988281-69.902343-50.789062-49.503907c-4.089844-3.984375-5.558594-9.945312-3.796875-15.375 1.765625-5.429687 6.460937-9.386719 12.109375-10.210937l70.1875-10.195313 31.386719-63.601562c2.527343-5.121094 7.742187-8.359375 13.449218-8.359375 5.710938 0 10.925782 3.242187 13.453125 8.359375l31.386719 63.601562 70.1875 10.195313c5.648438.824218 10.34375 4.78125 12.109375 10.210937 1.765625 5.429688.292969 11.390625-3.796875 15.375l-50.789062 49.503907 11.992187 69.902343c.964844 5.628907-1.351563 11.316407-5.96875 14.671875-2.613281 1.898438-5.707031 2.863282-8.820313 2.863282zm0 0" fill="#ffe645"/><path d="m446.90625 376.394531c2.195312 1.15625 4.589844 1.722657 6.976562 1.722657 3.113282 0 6.207032-.964844 8.820313-2.863282 4.617187-3.355468 6.933594-9.042968 5.96875-14.671875l-11.992187-69.902343 50.789062-49.503907c4.089844-3.984375 5.5625-9.945312 3.796875-15.375-1.765625-5.429687-6.460937-9.386719-12.109375-10.210937l-70.1875-10.195313-31.386719-63.601562c-2.527343-5.121094-7.742187-8.359375-13.453125-8.359375v209.960937zm0 0" fill="#ffcf2c"/><path d="m157.527344 198.054688c-2.386719 0-4.78125-.570313-6.976563-1.722657l-47.460937-24.953125-47.464844 24.953125c-5.054688 2.65625-11.175781 2.214844-15.796875-1.144531-4.617187-3.355469-6.933594-9.042969-5.964844-14.667969l9.0625-52.851562-38.394531-37.425781c-4.089844-3.984376-5.5625-9.945313-3.796875-15.378907 1.765625-5.429687 6.457031-9.386719 12.109375-10.207031l53.0625-7.710938 23.730469-48.085937c2.527343-5.117187 7.742187-8.359375 13.449219-8.359375 5.710937 0 10.925781 3.242188 13.453124 8.363281l23.730469 48.082031 53.0625 7.710938c5.648438.820312 10.34375 4.777344 12.109375 10.207031 1.761719 5.429688.292969 11.390625-3.796875 15.378907l-38.398437 37.425781 9.066406 52.851562c.964844 5.625-1.351562 11.3125-5.96875 14.667969-2.609375 1.902344-5.707031 2.867188-8.816406 2.867188zm0 0" fill="#ffe645"/><path d="m150.550781 196.332031c2.195313 1.152344 4.589844 1.722657 6.976563 1.722657 3.109375 0 6.207031-.964844 8.820312-2.867188 4.617188-3.355469 6.929688-9.042969 5.964844-14.667969l-9.0625-52.851562 38.398438-37.425781c4.085937-3.984376 5.558593-9.945313 3.792968-15.378907-1.761718-5.429687-6.457031-9.386719-12.105468-10.207031l-53.066407-7.710938-23.726562-48.082031c-2.527344-5.121093-7.742188-8.363281-13.453125-8.363281v170.878906zm0 0" fill="#ffcf2c"/><path d="m108.101562 450.890625c-3.109374 0-6.207031-.964844-8.816406-2.863281-4.621094-3.359375-6.933594-9.046875-5.96875-14.671875l5.320313-31.027344-22.542969-21.96875c-4.085938-3.988281-5.558594-9.949219-3.792969-15.378906 1.761719-5.429688 6.457031-9.386719 12.105469-10.207031l31.152344-4.527344 13.929687-28.226563c2.527344-5.121093 7.742188-8.363281 13.453125-8.363281 5.707032 0 10.921875 3.242188 13.449219 8.363281l13.929687 28.226563 31.152344 4.527344c5.652344.820312 10.34375 4.777343 12.109375 10.207031 1.765625 5.429687.292969 11.390625-3.796875 15.378906l-22.539062 21.96875 5.320312 31.027344c.964844 5.628906-1.351562 11.3125-5.96875 14.671875-4.621094 3.355468-10.742187 3.796875-15.796875 1.140625l-27.863281-14.648438-27.859375 14.648438c-2.195313 1.152343-4.589844 1.722656-6.976563 1.722656zm0 0" fill="#ffe645"/><path d="m170.800781 449.167969c5.058594 2.65625 11.179688 2.214843 15.796875-1.140625 4.621094-3.359375 6.933594-9.042969 5.96875-14.671875l-5.320312-31.027344 22.542968-21.96875c4.085938-3.988281 5.558594-9.949219 3.792969-15.378906-1.761719-5.429688-6.457031-9.386719-12.105469-10.207031l-31.152343-4.527344-13.929688-28.226563c-2.527343-5.121093-7.742187-8.363281-13.453125-8.363281v120.863281zm0 0" fill="#ffcf2c"/></svg>