<svg height="512pt" viewBox="-81 0 511 512" width="512pt" xmlns="http://www.w3.org/2000/svg"><path d="m175.015625 398.472656c-8.285156 0-15-6.714844-15-15v-80.1875c0-8.285156 6.714844-15 15-15s15 6.714844 15 15v80.1875c0 8.285156-6.714844 15-15 15zm0 0" fill="#6ad9eb"/><path d="m190.015625 383.472656v-80.1875c0-8.285156-6.714844-15-15-15v110.1875c8.285156 0 15-6.714844 15-15zm0 0" fill="#28c1d1"/><path d="m175.03125 512c-5.054688 0-9.78125-2.550781-12.554688-6.792969-.332031-.507812-8.242187-12.640625-16.226562-28.140625-11.519531-22.347656-17.121094-39.585937-17.121094-52.707031 0-32.382813 19.300782-55.882813 45.886719-55.882813 12.832031 0 25.191406 6.761719 33.902344 18.550782 7.726562 10.457031 11.984375 23.714844 11.984375 37.332031 0 24.199219-27.5 71.191406-33.011719 80.367187-2.660156 4.425782-7.410156 7.171876-12.574219 7.269532-.09375.003906-.191406.003906-.285156.003906zm0 0" fill="#b474c5"/><path d="m175.03125 512c.09375 0 .191406 0 .285156-.003906 5.164063-.097656 9.914063-2.84375 12.574219-7.269532 5.511719-9.175781 33.011719-56.167968 33.011719-80.367187 0-13.617187-4.253906-26.875-11.984375-37.332031-8.710938-11.792969-21.070313-18.554688-33.902344-18.554688v143.527344zm0 0" fill="#845fa6"/><path d="m46.386719 321.632812c-8.285157 0-15-6.714843-15-15v-131.976562c0-8.285156 6.714843-15 15-15 8.28125 0 15 6.714844 15 15v131.976562c0 8.285157-6.71875 15-15 15zm0 0" fill="#6ad9eb"/><path d="m46.402344 472.003906c-.007813 0-.011719 0-.015625 0-5.894531-.003906-11.238281-3.464844-13.660157-8.839844-3.300781-7.320312-32.226562-72.492187-32.226562-105.644531 0-17.679687 3.929688-33.25 11.359375-45.03125 8.359375-13.253906 20.945313-20.855469 34.523437-20.855469 22.839844 0 45.886719 20.371094 45.886719 65.886719 0 33.574219-28.910156 98.390625-32.207031 105.671875-2.425781 5.363282-7.769531 8.8125-13.660156 8.8125zm0 0" fill="#ffb5b5"/><path d="m46.386719 472.003906h.015625c5.886718 0 11.234375-3.449218 13.664062-8.8125 3.292969-7.28125 32.203125-72.097656 32.203125-105.671875 0-45.515625-23.042969-65.886719-45.882812-65.886719zm0 0" fill="#ff9c9c"/><path d="m303.644531 321.632812c-8.28125 0-15-6.714843-15-15v-131.976562c0-8.285156 6.71875-15 15-15 8.285157 0 15 6.714844 15 15v131.976562c0 8.285157-6.714843 15-15 15zm0 0" fill="#28c1d1"/><path d="m303.660156 472.003906c-.003906 0-.007812 0-.011718 0-5.898438-.007812-11.242188-3.464844-13.664063-8.839844-3.296875-7.320312-32.222656-72.492187-32.222656-105.644531 0-17.679687 3.925781-33.25 11.359375-45.03125 8.359375-13.253906 20.945312-20.855469 34.523437-20.855469 22.839844 0 45.886719 20.371094 45.886719 65.886719 0 33.574219-28.910156 98.390625-32.207031 105.671875-2.429688 5.363282-7.773438 8.8125-13.664063 8.8125zm0 0" fill="#ff9c9c"/><path d="m303.644531 472.003906h.015625c5.890625 0 11.234375-3.449218 13.664063-8.8125 3.296875-7.28125 32.207031-72.097656 32.207031-105.671875 0-45.515625-23.046875-65.886719-45.886719-65.886719zm0 0" fill="#ff8088"/><path d="m175.015625 61.023438c-8.285156 0-15-6.714844-15-14.996094v-31.027344c0-8.285156 6.714844-15 15-15s15 6.714844 15 15v31.027344c0 8.28125-6.714844 14.996094-15 14.996094zm0 0" fill="#6ad9eb"/><path d="m190.015625 46.027344v-31.027344c0-8.285156-6.714844-15-15-15v61.023438c8.285156 0 15-6.714844 15-14.996094zm0 0" fill="#28c1d1"/><path d="m303.644531 159.65625h-83.625v-12.320312l29.84375-80.882813c2.867188-7.773437-1.105469-16.398437-8.878906-19.265625-7.769531-2.867188-16.398437 1.109375-19.265625 8.878906l-27.148438 73.589844h-39.09375l-27.148437-73.589844c-2.867187-7.769531-11.492187-11.746094-19.265625-8.878906s-11.75 11.492188-8.878906 19.265625l29.839844 80.882813v12.320312h-83.636719c-8.285157 0-15 6.714844-15 15s6.714843 15 15 15h83.636719v10.601562l-9.738282 15.175782c-8.710937 13.578125-14.382812 28.550781-16.851562 44.496094l-4.003906 25.824218c-1.265626 8.1875 4.339843 15.851563 12.527343 17.121094.777344.121094 1.550781.179688 2.316407.179688 7.269531 0 13.65625-5.296876 14.804687-12.707032l4-25.828125c1.828125-11.785156 6.019531-22.847656 12.460937-32.886719l7.683594-11.976562h43.683594l6.933594 10.617188c6.546875 10.027343 10.835937 21.105468 12.746094 32.925781l4.398437 27.242187c1.191406 7.371094 7.558594 12.613282 14.789063 12.613282.796874 0 1.601562-.066407 2.410156-.195313 8.179687-1.320313 13.738281-9.023437 12.417968-17.199219l-4.402343-27.242187c-2.582031-15.992188-8.382813-30.984375-17.242188-44.546875l-8.933593-13.679688v-10.535156h83.621093c8.285157 0 15-6.714844 15-15s-6.714843-15-15-15zm-113.621093 30h-30v-30h30zm0 0" fill="#cb8deb"/><path d="m303.644531 159.65625h-83.625v-12.320312l29.84375-80.882813c2.867188-7.773437-1.105469-16.398437-8.878906-19.265625-7.769531-2.867188-16.398437 1.109375-19.265625 8.878906l-27.148438 73.589844h-19.554687v30h15.007813v30h-15.007813v30h21.886719l6.9375 10.617188c6.546875 10.027343 10.835937 21.105468 12.746094 32.925781l4.398437 27.242187c1.191406 7.367188 7.558594 12.609375 14.789063 12.609375.792968 0 1.601562-.0625 2.410156-.191406 8.175781-1.320313 13.738281-9.023437 12.417968-17.199219l-4.402343-27.242187c-2.582031-15.996094-8.382813-30.984375-17.242188-44.550781l-8.9375-13.675782v-10.535156h83.625c8.285157 0 15-6.71875 15-15 0-8.285156-6.714843-15-15-15zm0 0" fill="#b474c5"/><path d="m175.015625 318.285156c-79.199219 0-143.628906-64.433594-143.628906-143.628906 0-79.199219 64.433593-143.628906 143.628906-143.628906 79.199219 0 143.628906 64.429687 143.628906 143.628906 0 79.195312-64.429687 143.628906-143.628906 143.628906zm0-257.261718c-62.65625 0-113.628906 50.976562-113.628906 113.632812 0 62.652344 50.972656 113.628906 113.628906 113.628906s113.628906-50.976562 113.628906-113.628906c0-62.65625-50.972656-113.632812-113.628906-113.632812zm0 0" fill="#b474c5"/><path d="m288.644531 174.65625c0 62.65625-50.972656 113.628906-113.628906 113.628906v30c79.199219 0 143.628906-64.433594 143.628906-143.628906 0-79.199219-64.429687-143.628906-143.628906-143.628906v30c62.65625-.003906 113.628906 50.972656 113.628906 113.628906zm0 0" fill="#654285"/></svg>