<svg height="512pt" viewBox="0 0 512 512" width="512pt" xmlns="http://www.w3.org/2000/svg"><path d="m215.003906 70.570312c-8.269531 0-14.96875-6.699218-14.96875-14.96875v-40.628906c0-8.269531 6.699219-14.972656 14.96875-14.972656 8.269532 0 14.972656 6.703125 14.972656 14.972656v40.628906c0 8.269532-6.703124 14.96875-14.972656 14.96875zm0 0" fill="#ffcf2c"/><path d="m229.976562 55.601562v-40.628906c0-8.269531-6.703124-14.972656-14.972656-14.972656v70.570312c8.269532 0 14.972656-6.699218 14.972656-14.96875zm0 0" fill="#ffa81c"/><path d="m170.160156 236.578125v-175.957031c0-8.265625 6.703125-14.96875 14.972656-14.96875h60.289063c8.265625 0 14.96875 6.703125 14.96875 14.96875v175.957031zm0 0" fill="#ffedcd"/><path d="m245.421875 45.652344h-30.417969v190.925781h45.386719v-175.957031c0-8.265625-6.703125-14.96875-14.96875-14.96875zm0 0" fill="#ffdaab"/><path d="m159.84375 426.507812v-70.179687h110.324219v70.179687zm0 0" fill="#ffa81c"/><path d="m215.003906 356.328125h55.164063v70.179687h-55.164063zm0 0" fill="#ff7403"/><path d="m246.816406 381.28125h-60.289062c-18.007813 0-31.144532-5.457031-39.042969-16.21875-14.691406-20.019531-5.097656-50.542969 3.367187-77.476562 3.394532-10.789063 8.886719-28.265626 8.289063-35.011719-.285156-.015625.378906-15.996094 0-15.996094-6.023437 0 113.394531 0 113.394531 0v15.855469c.332032 7.308594 5.3125 22.898437 8.460938 32.738281 8.914062 27.902344 19.019531 59.527344 4.078125 79.992187-7.8125 10.691407-20.683594 16.117188-38.257813 16.117188zm0 0" fill="#ffcf2c"/><path d="m272.535156 252.429688v-15.855469s-28.886718 0-57.53125 0v144.707031h31.8125c17.574219 0 30.445313-5.425781 38.257813-16.121094 14.941406-20.460937 4.835937-52.085937-4.078125-79.988281-3.148438-9.84375-8.128906-25.429687-8.460938-32.742187zm0 0" fill="#ffa81c"/><path d="m272.546875 252.546875h-112.53125c-8.265625 0-14.96875-6.703125-14.96875-14.972656 0-8.265625 6.703125-14.96875 14.96875-14.96875h112.53125c8.269531 0 14.972656 6.703125 14.972656 14.96875 0 8.269531-6.703125 14.972656-14.972656 14.972656zm0 0" fill="#fff566"/><path d="m272.546875 222.605469h-57.542969v29.941406h57.542969c8.269531 0 14.972656-6.703125 14.972656-14.972656s-6.703125-14.96875-14.972656-14.96875zm0 0" fill="#ffe645"/><path d="m338.078125 512h-242.859375c-38.105469 0-49.402344-27.664062-56.875-45.96875-7.484375-18.332031-10.953125-24.261719-23.371094-24.261719-8.269531 0-14.972656-6.703125-14.972656-14.96875 0-8.269531 6.703125-14.972656 14.972656-14.972656h403.355469c8.269531 0 14.972656 6.703125 14.972656 14.972656 0 8.265625-6.703125 14.96875-14.972656 14.96875-12.421875 0-15.886719 5.929688-23.371094 24.261719-7.476562 18.304688-18.769531 45.96875-56.878906 45.96875zm0 0" fill="#ffcf2c"/><path d="m418.328125 411.828125h-203.324219v100.171875h123.074219c38.109375 0 49.402344-27.664062 56.878906-45.96875 7.484375-18.332031 10.949219-24.261719 23.371094-24.261719 8.269531 0 14.96875-6.703125 14.96875-14.96875.003906-8.269531-6.699219-14.972656-14.96875-14.972656zm0 0" fill="#ffa81c"/><path d="m418.328125 441.769531h-403.355469c-8.269531 0-14.972656-6.703125-14.972656-14.96875 0-8.269531 6.703125-14.972656 14.972656-14.972656h403.355469c8.269531 0 14.972656 6.703125 14.972656 14.972656 0 8.265625-6.703125 14.96875-14.972656 14.96875zm0 0" fill="#fff566"/><path d="m496.03125 343.046875c-8.269531 0-14.972656 6.699219-14.972656 14.96875 0 5.757813-2.605469 19.90625-12.484375 32.234375-11.46875 14.320312-28.859375 21.582031-51.683594 21.582031h-201.886719v29.941407h203.324219c.183594 0 .359375-.023438.542969-.027344 39.074218-.578125 61.285156-18.0625 73.070312-32.777344 14.054688-17.539062 19.058594-37.820312 19.058594-50.953125 0-8.269531-6.699219-14.96875-14.96875-14.96875zm0 0" fill="#ffe645"/><path d="m452.105469 416.84375c-32.472657 0-58.890625-26.390625-58.890625-58.828125s26.417968-58.828125 58.890625-58.828125c32.476562 0 58.894531 26.390625 58.894531 58.828125s-26.417969 58.828125-58.894531 58.828125zm0-87.714844c-15.960938 0-28.949219 12.957032-28.949219 28.886719 0 15.925781 12.988281 28.882813 28.949219 28.882813 15.964843 0 28.953125-12.957032 28.953125-28.882813 0-15.929687-12.988282-28.886719-28.953125-28.886719zm0 0" fill="#fff566"/></svg>