<svg height="512pt" viewBox="-60 0 512 512" width="512pt" xmlns="http://www.w3.org/2000/svg"><path d="m331.074219 126.875c-3.183594 0-6.394531-1.007812-9.117188-3.097656-15.277343-11.707032-27.828125-32.605469-37.308593-62.117188-6.082032-18.929687-23.648438-31.648437-43.71875-31.648437h-89.222657c-20.519531 0-38.257812 13.269531-44.140625 33.015625-8.644531 29.027344-21.300781 49.40625-37.617187 60.578125-6.84375 4.683593-16.179688 2.929687-20.863281-3.90625-4.679688-6.839844-2.929688-16.179688 3.90625-20.863281 10.347656-7.082032 19.273437-22.425782 25.808593-44.375 4.71875-15.839844 14.195313-29.4375 27.410157-39.320313 13.238281-9.90625 28.972656-15.140625 45.496093-15.140625h89.222657c33.15625 0 62.210937 21.089844 72.292968 52.480469 7.46875 23.25 16.804688 39.667969 26.992188 47.476562 6.578125 5.042969 7.824218 14.464844 2.78125 21.039063-2.957032 3.855468-7.414063 5.878906-11.921875 5.878906zm0 0" fill="#ffcf2c"/><path d="m340.214844 99.957031c-10.191406-7.808593-19.523438-24.226562-26.992188-47.476562-10.082031-31.390625-39.136718-52.480469-72.292968-52.480469h-44.800782v30.011719h44.800782c20.070312 0 37.636718 12.71875 43.71875 31.648437 9.480468 29.507813 22.03125 50.410156 37.304687 62.117188 2.726563 2.085937 5.9375 3.097656 9.121094 3.097656 4.507812 0 8.964843-2.023438 11.921875-5.878906 5.042968-6.574219 3.796875-15.996094-2.78125-21.039063zm0 0" fill="#ffa81c"/><path d="m55.898438 512c-3.289063 0-6.601563-1.074219-9.367188-3.289062-6.472656-5.179688-7.519531-14.621094-2.339844-21.09375l48.121094-60.136719c5.175781-6.472657 14.621094-7.519531 21.09375-2.339844 6.46875 5.175781 7.519531 14.621094 2.339844 21.089844l-48.121094 60.136719c-2.964844 3.707031-7.328125 5.632812-11.726562 5.632812zm0 0" fill="#ffcf2c"/><path d="m337.078125 512c-4.40625 0-8.769531-1.929688-11.734375-5.636719l-47.8125-59.8125c-5.175781-6.472656-4.125-15.917969 2.351562-21.09375 6.472657-5.175781 15.914063-4.121093 21.089844 2.351563l47.816406 59.8125c5.175782 6.476562 4.121094 15.917968-2.351562 21.09375-2.765625 2.210937-6.074219 3.285156-9.359375 3.285156zm0 0" fill="#ffcf2c"/><path d="m370.332031 323.375c0 96.011719-77.832031 173.847656-173.84375 173.847656-96.015625 0-173.847656-77.835937-173.847656-173.847656s77.832031-173.847656 173.847656-173.847656c96.011719 0 173.84375 77.835937 173.84375 173.847656zm0 0" fill="#28c1d1"/><path d="m196.488281 149.527344c-.121093 0-.238281.003906-.359375.003906v347.683594c.121094 0 .238282.003906.359375.003906 96.011719 0 173.84375-77.832031 173.84375-173.84375 0-96.015625-77.832031-173.847656-173.84375-173.847656zm0 0" fill="#00a2b2"/><path d="m196.488281 448.429688c-68.957031 0-125.058593-56.101563-125.058593-125.054688 0-68.957031 56.101562-125.058594 125.058593-125.058594 68.953125 0 125.054688 56.101563 125.054688 125.058594s-56.101563 125.054688-125.054688 125.054688zm0 0" fill="#ffff95"/><path d="m196.488281 198.320312c-.121093 0-.238281.003907-.359375.003907v250.101562c.121094 0 .238282.003907.359375.003907 68.953125 0 125.054688-56.101563 125.054688-125.054688 0-68.957031-56.101563-125.054688-125.054688-125.054688zm0 0" fill="#ffcf2c"/><path d="m250.203125 338.269531h-53.714844c-8.289062 0-15.007812-6.722656-15.007812-15.007812 0-8.289063 6.71875-15.007813 15.007812-15.007813h53.714844c8.289063 0 15.007813 6.71875 15.007813 15.007813 0 8.285156-6.71875 15.007812-15.007813 15.007812zm0 0" fill="#006d78"/><path d="m196.488281 338.269531c-8.289062 0-15.007812-6.722656-15.007812-15.007812v-83.691407c0-8.289062 6.71875-15.007812 15.007812-15.007812 8.285157 0 15.003907 6.71875 15.003907 15.007812v83.691407c0 8.285156-6.71875 15.007812-15.003907 15.007812zm0 0" fill="#28c1d1"/><path d="m196.488281 224.5625c-.121093 0-.238281.011719-.359375.015625v113.671875c.121094 0 .238282.015625.359375.015625 8.285157 0 15.003907-6.71875 15.003907-15.003906v-83.695313c0-8.285156-6.71875-15.003906-15.003907-15.003906zm0 0" fill="#008896"/><path d="m301.28125 173.226562c-2.777344 0-5.589844-.773437-8.097656-2.386718-6.976563-4.480469-8.992188-13.765625-4.511719-20.738282l45.273437-70.449218c4.480469-6.972656 13.765626-8.992188 20.734376-4.511719 6.976562 4.480469 8.992187 13.765625 4.511718 20.738281l-45.273437 70.449219c-2.863281 4.464844-7.699219 6.898437-12.636719 6.898437zm0 0" fill="#008896"/><path d="m358.859375 236.753906c-2.855469 0-5.671875-.816406-8.113281-2.382812l-134.664063-86.539063c-6.792969-4.363281-8.914062-13.316406-4.804687-20.265625l7.796875-13.179687c.09375-.160157.191406-.316407.292969-.472657 11.136718-17.332031 28.359374-29.289062 48.488281-33.667968 20.128906-4.382813 40.761719-.660156 58.097656 10.476562l30.140625 19.371094c17.328125 11.136719 29.289062 28.359375 33.667969 48.492188 4.355469 20.035156.691406 40.566406-10.324219 57.847656l-7.664062 12.957031c-2.074219 3.507813-5.488282 6.019531-9.453126 6.960937-1.144531.269532-2.304687.402344-3.460937.402344zm0 0" fill="#006d78"/><path d="m91.304688 172.621094c-4.9375 0-9.773438-2.433594-12.640626-6.894532l-44.886718-69.847656c-4.480469-6.972656-2.460938-16.257812 4.511718-20.738281 6.96875-4.480469 16.257813-2.460937 20.738282 4.511719l44.886718 69.847656c4.484376 6.972656 2.460938 16.257812-4.511718 20.738281-2.507813 1.613281-5.320313 2.382813-8.097656 2.382813zm0 0" fill="#00a2b2"/><path d="m32.691406 236.753906c-1.15625 0-2.316406-.132812-3.460937-.40625-3.964844-.9375-7.378907-3.453125-9.453125-6.960937l-7.664063-12.953125c-11.015625-17.28125-14.683593-37.8125-10.324219-57.851563 4.378907-20.128906 16.335938-37.351562 33.667969-48.488281l30.140625-19.371094c17.332032-11.136718 37.96875-14.859375 58.097656-10.480468 20.128907 4.382812 37.351563 16.339843 48.488282 33.671874.101562.15625.199218.3125.292968.472657l7.796876 13.179687c4.109374 6.945313 1.988281 15.902344-4.804688 20.265625l-134.664062 86.539063c-2.441407 1.566406-5.261719 2.382812-8.113282 2.382812zm0 0" fill="#008896"/></svg>