<svg height="512pt" viewBox="0 0 512 512" width="512pt" xmlns="http://www.w3.org/2000/svg"><path d="m30.007812 436.996094v-421.996094c0-8.285156 6.714844-15 15-15h422c8.28125 0 15 6.714844 15 15v421.996094zm0 0" fill="#845fa6"/><path d="m467.007812 0h-210.8125v436.996094h225.8125v-421.996094c0-8.285156-6.71875-15-15-15zm0 0" fill="#553275"/><g fill="#cb8deb"><path d="m389.738281 202.863281c-3.9375 0-7.808593-1.601562-10.597656-4.402343-2.792969-2.789063-4.402344-6.660157-4.402344-10.597657 0-3.953125 1.609375-7.820312 4.402344-10.609375 2.789063-2.792968 6.660156-4.390625 10.597656-4.390625 3.949219 0 7.820313 1.597657 10.609375 4.390625 2.792969 2.789063 4.390625 6.65625 4.390625 10.609375 0 3.949219-1.597656 7.808594-4.390625 10.597657-2.789062 2.800781-6.65625 4.402343-10.609375 4.402343zm0 0"/><path d="m335.121094 271.011719c-3.949219 0-7.820313-1.601563-10.609375-4.398438-2.792969-2.792969-4.402344-6.652343-4.402344-10.601562s1.609375-7.820313 4.402344-10.609375c2.789062-2.789063 6.660156-4.390625 10.609375-4.390625 3.9375 0 7.808594 1.601562 10.597656 4.390625 2.800781 2.789062 4.402344 6.660156 4.402344 10.609375s-1.601563 7.808593-4.402344 10.601562c-2.789062 2.796875-6.660156 4.398438-10.597656 4.398438zm0 0"/><path d="m312.421875 359.703125c-3.953125 0-7.8125-1.609375-10.601563-4.402344-2.800781-2.789062-4.398437-6.660156-4.398437-10.597656 0-3.949219 1.597656-7.820313 4.398437-10.609375 2.789063-2.792969 6.648438-4.390625 10.601563-4.390625 3.949219 0 7.816406 1.597656 10.609375 4.390625 2.789062 2.789062 4.390625 6.660156 4.390625 10.609375 0 3.9375-1.601563 7.808594-4.390625 10.597656-2.792969 2.792969-6.660156 4.402344-10.609375 4.402344zm0 0"/><path d="m424.691406 280.300781c-3.941406 0-7.8125-1.597656-10.609375-4.390625-2.792969-2.789062-4.390625-6.65625-4.390625-10.609375 0-3.949219 1.597656-7.808593 4.390625-10.609375 2.800781-2.789062 6.667969-4.390625 10.609375-4.390625 3.949219 0 7.808594 1.601563 10.609375 4.390625 2.789063 2.800782 4.390625 6.660156 4.390625 10.609375 0 3.953125-1.601562 7.820313-4.390625 10.609375-2.800781 2.792969-6.660156 4.390625-10.609375 4.390625zm0 0"/><path d="m84.621094 212.863281c-3.941406 0-7.8125-1.609375-10.601563-4.402343-2.789062-2.789063-4.398437-6.660157-4.398437-10.609376 0-3.941406 1.609375-7.808593 4.398437-10.597656 2.789063-2.792968 6.660157-4.390625 10.601563-4.390625 3.949218 0 7.816406 1.597657 10.609375 4.390625 2.789062 2.789063 4.398437 6.65625 4.398437 10.597656 0 3.949219-1.609375 7.820313-4.398437 10.609376-2.792969 2.792968-6.660157 4.402343-10.609375 4.402343zm0 0"/></g><path d="m178.394531 394.054688c-48.800781 0-88.5-39.703126-88.5-88.5 0-48.800782 39.699219-88.503907 88.5-88.503907 19.972657 0 38.828125 6.5 54.523438 18.792969 5.152343 4.035156 7.097656 10.945312 4.796875 17.074219-2.300782 6.128906-8.285156 10.070312-14.84375 9.710937-.820313-.042968-1.582032-.0625-2.324219-.0625-23.238281 0-41.441406 18.882813-41.441406 42.988282 0 24.105468 18.203125 42.988281 41.441406 42.988281.742187 0 1.503906-.019531 2.324219-.066407 6.539062-.355468 12.546875 3.582032 14.84375 9.710938 2.300781 6.128906.355468 13.042969-4.796875 17.078125-15.695313 12.292969-34.550781 18.789063-54.523438 18.789063zm0 0" fill="#ffe645"/><path d="m497 512h-482c-8.285156 0-15-6.714844-15-15v-60.003906c0-8.28125 6.714844-15 15-15h482c8.285156 0 15 6.71875 15 15v60.003906c0 8.285156-6.714844 15-15 15zm0 0" fill="#ffbe85"/><path d="m497 421.996094h-240.804688v90.003906h240.804688c8.285156 0 15-6.714844 15-15v-60.003906c0-8.28125-6.714844-15-15-15zm0 0" fill="#faa465"/><path d="m256.390625 199.855469c-8.285156 0-15-6.714844-15-15v-48.136719c0-8.285156 6.714844-15 15-15 8.28125 0 15 6.714844 15 15v48.136719c0 8.285156-6.71875 15-15 15zm0 0" fill="#e8ffff"/><path d="m256.390625 121.71875c-.066406 0-.128906.007812-.195313.007812v78.121094c.066407 0 .128907.011719.195313.011719 8.28125 0 15-6.71875 15-15v-48.140625c0-8.285156-6.71875-15-15-15zm0 0" fill="#a3efff"/><path d="m467.007812 0h-422c-8.285156 0-15 6.714844-15 15v120.628906h452v-120.628906c0-8.285156-6.71875-15-15-15zm0 0" fill="#d1f7ff"/><path d="m467.007812 0h-210.8125v135.628906h225.8125v-120.628906c0-8.285156-6.71875-15-15-15zm0 0" fill="#a3efff"/><path d="m30.007812 120.628906h452v30h-452zm0 0" fill="#6ad9eb"/><path d="m30.007812 59.984375h452v30h-452zm0 0" fill="#6ad9eb"/><path d="m467.007812 0h-422c-8.285156 0-15 6.714844-15 15v15h452v-15c0-8.285156-6.71875-15-15-15zm0 0" fill="#6ad9eb"/><path d="m256.195312 120.628906h225.8125v30h-225.8125zm0 0" fill="#28c1d1"/><path d="m256.195312 59.984375h225.8125v30h-225.8125zm0 0" fill="#28c1d1"/><path d="m467.007812 0h-210.8125v30h225.8125v-15c0-8.285156-6.71875-15-15-15zm0 0" fill="#28c1d1"/></svg>