<svg height="512pt" viewBox="0 0 512.00235 512" width="512pt" xmlns="http://www.w3.org/2000/svg"><path d="m226.015625 512c-56.171875.003906-109.597656-20.5625-151.550781-58.566406-44.8125-40.601563-71.15625-96.242188-74.175782-156.679688-3.019531-60.433594 17.648438-118.429687 58.191407-163.304687 40.546875-44.878907 96.125-71.261719 156.492187-74.285157 43.0625-2.15625 85.570313 7.929688 122.910156 29.171876 5.796876 3.296874 8.71875 10.023437 7.175782 16.511718-1.542969 6.484375-7.183594 11.175782-13.839844 11.507813-122.542969 6.136719-174.109375 93.65625-170.167969 172.375 3.804688 75.898437 59.792969 154.78125 173.679688 154.785156 4.191406 0 8.457031-.105469 12.808593-.324219 6.671876-.324218 12.742188 3.769532 14.921876 10.070313 2.183593 6.296875-.050782 13.285156-5.492188 17.144531-35.035156 24.863281-76.320312 39.148438-119.386719 41.304688-3.863281.191406-7.726562.289062-11.566406.289062zm0 0" fill="#b474c5"/><path d="m347.539062 443.191406c-4.351562.21875-8.617187.324219-12.808593.324219-113.882813-.003906-169.875-78.886719-173.679688-154.785156-3.941406-78.71875 47.628907-166.238281 170.167969-172.375 6.660156-.332031 12.300781-5.023438 13.84375-11.511719 1.542969-6.484375-1.382812-13.210938-7.179688-16.507812-37.339843-21.242188-79.847656-31.328126-122.910156-29.171876-34.34375 1.722657-67.132812 11.011719-96.488281 26.957032v398.597656c32.785156 17.859375 69.527344 27.285156 107.53125 27.28125 3.839844 0 7.703125-.097656 11.570313-.289062 43.066406-2.15625 84.347656-16.441407 119.386718-41.308594 5.4375-3.859375 7.675782-10.84375 5.492188-17.144532-2.183594-6.296874-8.253906-10.390624-14.925782-10.066406zm0 0" fill="#845fa6"/><path d="m391.007812 360.222656c-2.390624 0-4.789062-.570312-6.988281-1.726562l-36.816406-19.378906-36.816406 19.378906c-5.054688 2.660156-11.179688 2.222656-15.800781-1.132813-4.617188-3.355469-6.933594-9.042969-5.972657-14.671875l7.039063-41.078125-29.800782-29.085937c-4.085937-3.988282-5.554687-9.945313-3.789062-15.375 1.765625-5.425782 6.457031-9.382813 12.105469-10.203125l41.167969-5.992188 18.414062-37.359375c2.523438-5.125 7.742188-8.371094 13.453125-8.371094 5.714844 0 10.929687 3.246094 13.457031 8.371094l18.414063 37.359375 41.167969 5.992188c5.648437.820312 10.339843 4.777343 12.105468 10.203125 1.761719 5.429687.296875 11.386718-3.789062 15.375l-29.800782 29.085937 7.035157 41.078125c.964843 5.628906-1.351563 11.316406-5.972657 14.671875-2.613281 1.894531-5.707031 2.859375-8.8125 2.859375zm0 0" fill="#ffe645"/><path d="m384.019531 358.496094c2.199219 1.15625 4.597657 1.726562 6.988281 1.726562 3.109376 0 6.199219-.964844 8.8125-2.859375 4.621094-3.355469 6.9375-9.042969 5.972657-14.671875l-7.035157-41.078125 29.800782-29.085937c4.085937-3.988282 5.550781-9.945313 3.789062-15.375-1.765625-5.425782-6.457031-9.382813-12.105468-10.203125l-41.167969-5.992188-18.414063-37.359375c-2.527344-5.125-7.742187-8.371094-13.457031-8.371094v143.890626zm0 0" fill="#ffcf2c"/><path d="m475.496094 137.230469c-2.390625 0-4.789063-.566407-6.988282-1.726563l-27.808593-14.636718-27.804688 14.636718c-5.054687 2.664063-11.179687 2.222656-15.800781-1.132812-4.621094-3.355469-6.933594-9.042969-5.972656-14.671875l5.316406-31.03125-22.515625-21.972657c-4.082031-3.988281-5.550781-9.945312-3.785156-15.375 1.765625-5.425781 6.457031-9.382812 12.105469-10.203124l31.09375-4.523438 13.910156-28.222656c2.527344-5.125 7.742187-8.371094 13.453125-8.371094 5.714843 0 10.929687 3.246094 13.457031 8.371094l13.910156 28.222656 31.09375 4.523438c5.648438.820312 10.339844 4.777343 12.105469 10.203124 1.765625 5.429688.296875 11.386719-3.785156 15.375l-22.515625 21.972657 5.316406 31.03125c.964844 5.628906-1.351562 11.316406-5.972656 14.671875-2.613282 1.894531-5.707032 2.859375-8.8125 2.859375zm0 0" fill="#ffe645"/><path d="m468.507812 135.503906c2.199219 1.160156 4.597657 1.726563 6.988282 1.726563 3.105468 0 6.199218-.964844 8.8125-2.859375 4.621094-3.355469 6.9375-9.042969 5.972656-14.671875l-5.316406-31.03125 22.515625-21.972657c4.082031-3.988281 5.550781-9.945312 3.785156-15.375-1.765625-5.425781-6.457031-9.382812-12.105469-10.203124l-31.09375-4.523438-13.910156-28.222656c-2.527344-5.125-7.742188-8.371094-13.457031-8.371094v120.867188zm0 0" fill="#ffcf2c"/></svg>