<svg height="512pt" viewBox="-8 0 512 512.0004" width="512pt" xmlns="http://www.w3.org/2000/svg"><path d="m248.25 127.519531-62.957031-13.730469-170.292969 41.183594 182.882812 50.207032h100.734376l182.882812-50.207032-170.289062-41.183594zm0 0" fill="#845fa6"/><path d="m298.617188 205.179688 182.882812-50.207032-170.289062-41.183594-62.960938 13.730469v77.660157zm0 0" fill="#553275"/><path d="m248.25 325.296875c-42.972656 0-82.753906-8.667969-118.234375-25.757813-28.445313-13.699218-54.117187-32.78125-76.304687-56.707031-37.6875-40.640625-52.253907-81.164062-52.855469-82.871093-1.859375-5.261719-.636719-11.125 3.167969-15.210938 3.804687-4.085938 9.5625-5.722656 14.949218-4.242188l180.933594 49.671876h96.691406l180.933594-49.671876c5.382812-1.476562 11.144531.15625 14.945312 4.242188 3.808594 4.085938 5.027344 9.949219 3.167969 15.210938-.601562 1.707031-15.167969 42.230468-52.855469 82.871093-22.1875 23.925781-47.859374 43.007813-76.304687 56.707031-35.480469 17.089844-75.261719 25.757813-118.234375 25.757813zm0 0" fill="#ff8088"/><path d="m477.53125 140.507812-180.933594 49.671876h-48.347656v135.117187c42.972656 0 82.753906-8.667969 118.234375-25.757813 28.445313-13.699218 54.117187-32.78125 76.304687-56.707031 37.6875-40.640625 52.257813-81.164062 52.855469-82.871093 1.859375-5.265626.640625-11.125-3.167969-15.210938-3.800781-4.085938-9.5625-5.71875-14.945312-4.242188zm0 0" fill="#ef3e60"/><path d="m481.5 169.972656c-1.171875 0-2.355469-.140625-3.523438-.421875l-166.941406-40.371093-59.585937 12.992187c-2.105469.460937-4.289063.460937-6.390625 0l-59.589844-12.992187-166.941406 40.371093c-5.046875 1.21875-10.367188-.253906-14.0625-3.902343-3.695313-3.648438-5.242188-8.945313-4.089844-14.007813 22.085938-96.957031 161.285156-148.585937 167.199219-150.738281 3.308593-1.203125 6.9375-1.203125 10.25 0l70.425781 25.59375 70.425781-25.59375c3.550781-1.289063 7.460938-1.195313 10.945313.273437 5.0625 2.132813 124.484375 53.289063 165.632812 147.808594 2.269532 5.21875 1.394532 11.277344-2.269531 15.636719-2.886719 3.433594-7.113281 5.351562-11.484375 5.351562zm0 0" fill="#ffb5b5"/><path d="m251.445312 142.171875 59.589844-12.992187 166.941406 40.371093c1.167969.28125 2.351563.421875 3.523438.421875 4.371094 0 8.597656-1.917968 11.484375-5.351562 3.664063-4.359375 4.539063-10.417969 2.269531-15.636719-41.148437-94.519531-160.570312-145.675781-165.632812-147.808594-3.484375-1.46875-7.394532-1.5625-10.941406-.273437l-70.429688 25.59375v116.019531c1.074219 0 2.144531-.113281 3.195312-.34375zm0 0" fill="#ff8088"/><path d="m169.273438 511.996094v-416.078125c0-8.285157 6.714843-15 15-15h37.957031c57.894531 0 104.996093 47.101562 104.996093 105v326.082031zm0 0" fill="#ffdaab"/><path d="m188.261719 242.019531 14.097656-8.933593c22.445313-14.222657 36.042969-38.914063 36.042969-65.445313v-85.476563c-5.273438-.820312-10.671875-1.246093-16.171875-1.246093h-37.957031c-8.285157 0-15 6.714843-15 15v155.808593l11.886718-5.753906c2.4375-1.179687 4.8125-2.5 7.101563-3.953125zm0 0" fill="#fffae7"/><path d="m248.25 84.183594v427.8125l78.976562.003906v-326.082031c0-48.917969-33.625-90.128907-78.976562-101.734375zm0 0" fill="#ffbe85"/></svg>