<svg height="512pt" viewBox="-100 0 512 512" width="512pt" xmlns="http://www.w3.org/2000/svg"><path d="m77 512c-3.972656 0-7.78125-1.574219-10.59375-4.382812-2.820312-2.8125-4.40625-6.632813-4.40625-10.617188v-216.957031h-47c-4.007812 0-7.847656-1.601563-10.667969-4.453125-2.816406-2.851563-4.378906-6.710938-4.332031-10.71875l2.175781-190.726563c.226563-19.871093 8.132813-38.507812 22.261719-52.480469 14.132812-13.96875 32.859375-21.664062 52.734375-21.664062h39.105469c6.175781 0 11.644531 3.597656 13.894531 9.347656.050781.117188 8.933594 20.652344 26.105469 20.652344 17.175781 0 26.058594-20.535156 26.144531-20.742188 2.25-5.75 7.683594-9.257812 13.859375-9.257812h41.570312c.585938 0 1.167969.0351562 1.738282.101562 18.40625.9375 35.621094 8.511719 48.820312 21.566407 14.132813 13.96875 22.042969 32.609375 22.269532 52.480469l2.171874 190.726562c.046876 4.007812-1.515624 7.867188-4.332031 10.714844-2.820312 2.851562-6.660156 4.453125-10.667969 4.453125h-55v216.59375c0 8.269531-6.695312 14.980469-14.964843 15l-150.851563.363281c-.011718 0-.023437 0-.035156 0zm0 0" fill="#cb8deb"/><path d="m288.414062 21.667969c-13.203124-13.054688-30.414062-20.628907-48.824218-21.566407-.570313-.0664058-1.148438-.101562-1.738282-.101562h-41.570312c-6.175781 0-11.605469 3.507812-13.855469 9.257812-.085937.199219-8.429687 19.488282-24.574219 20.683594v481.875l70.035157-.179687c8.273437-.019531 14.964843-6.730469 14.964843-15v-216.59375h55.003907c4.007812 0 7.847656-1.601563 10.664062-4.453125 2.820313-2.851563 4.378907-6.710938 4.332031-10.71875l-2.171874-190.726563c-.226563-19.871093-8.132813-38.507812-22.265626-52.476562zm0 0" fill="#845fa6"/><path d="m157.851562 119.996094c-3.949218 0-7.820312-1.597656-10.609374-4.386719-2.789063-2.792969-4.390626-6.660156-4.390626-10.613281 0-3.9375 1.601563-7.808594 4.390626-10.597656 2.789062-2.800782 6.660156-4.402344 10.609374-4.402344 3.949219 0 7.8125 1.601562 10.609376 4.402344 2.789062 2.789062 4.390624 6.660156 4.390624 10.597656 0 3.953125-1.601562 7.820312-4.390624 10.613281-2.800782 2.789063-6.660157 4.386719-10.609376 4.386719zm0 0" fill="#e3b1fc"/><path d="m157.851562 180c-3.949218 0-7.808593-1.601562-10.609374-4.390625-2.789063-2.789063-4.390626-6.660156-4.390626-10.609375 0-3.953125 1.601563-7.8125 4.390626-10.601562 2.800781-2.800782 6.660156-4.398438 10.609374-4.398438 3.941407 0 7.8125 1.597656 10.609376 4.398438 2.789062 2.789062 4.390624 6.648437 4.390624 10.601562 0 3.949219-1.601562 7.820312-4.390624 10.609375-2.800782 2.789063-6.667969 4.390625-10.609376 4.390625zm0 0" fill="#e3b1fc"/><path d="m157.851562 240c-3.949218 0-7.808593-1.601562-10.609374-4.390625-2.789063-2.789063-4.390626-6.660156-4.390626-10.609375s1.601563-7.8125 4.390626-10.601562c2.789062-2.789063 6.660156-4.398438 10.609374-4.398438 3.949219 0 7.8125 1.609375 10.609376 4.398438 2.789062 2.789062 4.390624 6.660156 4.390624 10.601562 0 3.949219-1.601562 7.820312-4.390624 10.609375-2.800782 2.789063-6.667969 4.390625-10.609376 4.390625zm0 0" fill="#e3b1fc"/><g fill="#cb8deb"><path d="m168.460938 235.609375c2.789062-2.789063 4.390624-6.660156 4.390624-10.609375 0-3.941406-1.601562-7.8125-4.390624-10.601562-2.800782-2.789063-6.660157-4.398438-10.609376-4.398438v30c3.941407 0 7.808594-1.601562 10.609376-4.390625zm0 0"/><path d="m168.460938 175.609375c2.789062-2.789063 4.390624-6.660156 4.390624-10.609375 0-3.953125-1.601562-7.8125-4.390624-10.601562-2.800782-2.800782-6.667969-4.398438-10.609376-4.398438v30c3.941407 0 7.808594-1.601562 10.609376-4.390625zm0 0"/><path d="m168.460938 115.609375c2.789062-2.792969 4.390624-6.660156 4.390624-10.613281 0-3.9375-1.601562-7.808594-4.390624-10.597656-2.800782-2.800782-6.660157-4.402344-10.609376-4.402344v30c3.949219 0 7.808594-1.597656 10.609376-4.386719zm0 0"/></g><path d="m172.851562 511.777344v-226.773438c0-8.285156-6.714843-15-15-15h-10c-8.285156 0-15 6.714844-15 15 0 6.527344 4.175782 12.066406 10 14.128906v212.722657zm0 0" fill="#845fa6"/><path d="m172.851562 511.777344v-226.773438c0-8.285156-6.714843-15-15-15v241.8125zm0 0" fill="#654285"/><path d="m16.449219 30.984375c-9.085938 12.480469-14.097657 27.429687-14.273438 43.164063l-2.175781 190.726562c-.046875 4.007812 1.515625 7.867188 4.332031 10.714844 2.820313 2.851562 6.660157 4.453125 10.667969 4.453125h46.398438l.09375-190.933594zm0 0" fill="#845fa6"/><path d="m308.519531 275.589844c2.816407-2.851563 4.378907-6.710938 4.332031-10.71875l-2.171874-190.726563c-.207032-18.085937-6.796876-35.144531-18.632813-48.597656l-49.253906 63.5625.09375 190.933594h54.96875c4.003906 0 7.84375-1.601563 10.664062-4.453125zm0 0" fill="#654285"/></svg>