<svg height="512pt" viewBox="0 0 512 512.00065" width="512pt" xmlns="http://www.w3.org/2000/svg"><path d="m394.273438 256.5625c-42.136719 0-83.449219-20.691406-107.964844-58.640625-18.597656-28.785156-24.871094-63.089844-17.667969-96.59375 7.207031-33.503906 27.027344-62.195313 55.8125-80.789063 20.535156-13.265624 44.261719-20.367187 68.613281-20.539062 6.652344-.0585938 12.570313 4.316406 14.476563 10.707031 1.910156 6.390625-.628907 13.273438-6.230469 16.894531-29.792969 19.246094-45.382812 46.214844-43.894531 75.941407 1.425781 28.503906 18.757812 55.332031 44.15625 68.351562 26.484375 13.574219 57.480469 10.453125 87.273437-8.792969 5.601563-3.617187 12.921875-3.105468 17.960938 1.261719 5.039062 4.367188 6.59375 11.539063 3.808594 17.597657-10.164063 22.132812-26.390626 40.839843-46.925782 54.105468-21.472656 13.871094-45.578125 20.496094-69.417968 20.496094zm0 0" fill="#ffe645"/><path d="m506.808594 164.363281c-5.042969-4.367187-12.359375-4.878906-17.960938-1.265625-29.792968 19.25-60.789062 22.371094-87.273437 8.796875-22.132813-11.34375-38.136719-33.179687-42.832031-57.472656v137.152344c11.527343 3.292969 23.496093 4.988281 35.53125 4.988281 23.835937 0 47.941406-6.625 69.414062-20.496094 20.535156-13.265625 36.761719-31.976562 46.929688-54.105468 2.785156-6.058594 1.230468-13.230469-3.808594-17.597657zm0 0" fill="#ffcf2c"/><path d="m401.3125 27.601562c5.601562-3.621093 8.140625-10.503906 6.230469-16.894531-1.90625-6.390625-7.824219-10.769531-14.476563-10.707031-11.679687.0820312-23.210937 1.773438-34.324218 4.960938v80.15625c4.417968-22.351563 19.070312-42.335938 42.570312-57.515626zm0 0" fill="#ffcf2c"/><path d="m415.773438 512h-302.132813c-62.660156 0-113.640625-50.980469-113.640625-113.640625 0-62.664063 50.980469-113.640625 113.640625-113.640625 5.179687 0 10.34375.347656 15.449219 1.042969 25.503906-58.472657 83.472656-96.921875 148.121094-96.921875 40.175781 0 78.683593 14.84375 108.4375 41.792968 26.628906 24.121094 44.332031 56.144532 50.601562 91.144532 19.238281 4.171875 36.789062 14.175781 50.320312 28.863281 16.390626 17.796875 25.417969 40.933594 25.417969 65.144531.003907 53.054688-43.160156 96.214844-96.214843 96.214844zm0 0" fill="#6ad9eb"/><path d="m415.773438 512c53.054687 0 96.21875-43.160156 96.21875-96.214844 0-24.210937-9.027344-47.347656-25.421876-65.144531-13.527343-14.6875-31.082031-24.691406-50.320312-28.863281-6.269531-35-23.972656-67.019532-50.601562-91.144532-29.753907-26.949218-68.261719-41.792968-108.4375-41.792968v323.160156zm0 0" fill="#28c1d1"/><g fill="#ffcf2c"><path d="m154.0625 80.609375c-3.949219 0-7.820312-1.601563-10.609375-4.390625s-4.390625-6.660156-4.390625-10.609375c0-3.941406 1.601562-7.808594 4.390625-10.601563 2.789063-2.789062 6.660156-4.398437 10.609375-4.398437s7.8125 1.609375 10.601562 4.398437c2.800782 2.792969 4.398438 6.660157 4.398438 10.601563 0 3.949219-1.601562 7.820313-4.398438 10.609375-2.789062 2.789062-6.652343 4.390625-10.601562 4.390625zm0 0"/><path d="m203.5625 170.738281c-3.949219 0-7.820312-1.597656-10.609375-4.398437-2.800781-2.789063-4.398437-6.648438-4.398437-10.601563 0-3.949219 1.601562-7.820312 4.398437-10.609375 2.789063-2.789062 6.660156-4.390625 10.609375-4.390625 3.941406 0 7.8125 1.601563 10.601562 4.390625 2.789063 2.789063 4.390626 6.660156 4.390626 10.609375 0 3.953125-1.601563 7.8125-4.390626 10.601563-2.789062 2.800781-6.660156 4.398437-10.601562 4.398437zm0 0"/><path d="m448.996094 64c-3.949219 0-7.808594-1.601562-10.609375-4.390625-2.789063-2.789063-4.390625-6.660156-4.390625-10.609375s1.601562-7.8125 4.390625-10.609375c2.789062-2.792969 6.660156-4.390625 10.609375-4.390625 3.949218 0 7.8125 1.597656 10.609375 4.390625 2.789062 2.796875 4.390625 6.660156 4.390625 10.609375s-1.601563 7.808594-4.390625 10.609375c-2.800781 2.789063-6.660157 4.390625-10.609375 4.390625zm0 0"/><path d="m496.988281 298.292969c-3.953125 0-7.820312-1.601563-10.609375-4.390625-2.792968-2.789063-4.390625-6.660156-4.390625-10.609375s1.597657-7.8125 4.390625-10.609375c2.789063-2.792969 6.65625-4.390625 10.609375-4.390625 3.949219 0 7.816407 1.597656 10.609375 4.390625 2.789063 2.796875 4.390625 6.660156 4.390625 10.609375s-1.601562 7.808593-4.390625 10.609375c-2.792968 2.789062-6.660156 4.390625-10.609375 4.390625zm0 0"/><path d="m59.382812 64c-3.953124 0-7.8125-1.601562-10.609374-4.390625-2.792969-2.800781-4.394532-6.660156-4.394532-10.609375s1.601563-7.8125 4.394532-10.609375c2.796874-2.792969 6.65625-4.390625 10.609374-4.390625 3.949219 0 7.816407 1.597656 10.609376 4.390625 2.789062 2.796875 4.390624 6.660156 4.390624 10.609375s-1.601562 7.808594-4.390624 10.609375c-2.789063 2.789063-6.660157 4.390625-10.609376 4.390625zm0 0"/><path d="m46.992188 271.011719c-3.949219 0-7.820313-1.601563-10.609376-4.390625-2.792968-2.800782-4.390624-6.660156-4.390624-10.609375s1.597656-7.820313 4.390624-10.609375c2.789063-2.789063 6.660157-4.390625 10.609376-4.390625 3.949218 0 7.808593 1.601562 10.609374 4.390625 2.789063 2.789062 4.390626 6.660156 4.390626 10.609375s-1.601563 7.808593-4.390626 10.609375c-2.800781 2.789062-6.660156 4.390625-10.609374 4.390625zm0 0"/></g></svg>