<svg height="512pt" viewBox="-104 0 512 512" width="512pt" xmlns="http://www.w3.org/2000/svg"><path d="m289.84375 512h-274.84375c-8.285156 0-15-6.714844-15-15v-482c0-8.285156 6.714844-15 15-15h274.84375c8.285156 0 15 6.714844 15 15v482c0 8.285156-6.714844 15-15 15zm0 0" fill="#6ad9eb"/><path d="m289.84375 0h-137.421875v512h137.421875c8.285156 0 15-6.714844 15-15v-482c0-8.285156-6.714844-15-15-15zm0 0" fill="#28c1d1"/><path d="m0 427v70c0 8.285156 6.714844 15 15 15h274.84375c8.285156 0 15-6.714844 15-15v-70zm0 0" fill="#a3efff"/><path d="m152.421875 512h137.421875c8.285156 0 15-6.714844 15-15v-70h-152.421875zm0 0" fill="#6ad9eb"/><path d="m152.421875 165.003906h-22.574219c-8.285156 0-15 6.714844-15 15 0 8.28125 6.714844 15 15 15h7.574219v316.996094h30v-331.996094c0-8.285156-6.714844-15-15-15zm0 0" fill="#28c1d1"/><path d="m152.421875 165.003906v346.996094h15v-331.996094c0-8.285156-6.714844-15-15-15zm0 0" fill="#00a2b2"/><path d="m289.84375 0h-60v75.101562c0 18.9375 10.699219 36.25 27.640625 44.71875l32.359375 16.183594 15 6.667969v-127.671875c0-8.285156-6.714844-15-15-15zm0 0" fill="#00a2b2"/><path d="m15 0c-8.285156 0-15 6.714844-15 15v128.132812l15-7.128906 32.359375-16.183594c16.941406-8.46875 27.640625-25.78125 27.640625-44.71875v-75.101562zm0 0" fill="#28c1d1"/><path d="m304.84375 127.617188-40.421875-21.09375c-.074219-.039063-.152344-.078126-.230469-.117188-11.933594-5.96875-19.347656-17.964844-19.347656-31.304688v-75.101562h-30v75.101562c0 24.734376 13.714844 46.972657 35.808594 58.074219l54.191406 28.28125zm0 0" fill="#6ad9eb"/><path d="m60 0v75.101562c0 13.324219-7.394531 25.304688-19.300781 31.28125l-40.699219 19.941407v33.40625l53.960938-26.4375c.035156-.019531.070312-.035157.109374-.054688 22.160157-11.082031 35.929688-33.359375 35.929688-58.136719v-75.101562zm0 0" fill="#a3efff"/></svg>