<svg height="512pt" viewBox="-23 0 512 512.001" width="512pt" xmlns="http://www.w3.org/2000/svg"><path d="m364.921875 512h-264.449219c-8.28125 0-15-6.714844-15-15v-56.117188h-70.472656c-8.285156 0-15-6.714843-15-15v-303.027343c0-22.117188 7.039062-43.144531 20.355469-60.808594 13.3125-17.664063 31.59375-30.222656 52.859375-36.320313l87.699218-25.144531c1.34375-.386719 2.738282-.582031 4.132813-.582031h131.527344c1.359375 0 2.714843.1875 4.023437.550781l91.460938 25.476563c43.539062 12.132812 73.945312 52.15625 73.945312 97.335937v302.519531c0 8.28125-6.714844 15-15 15h-71.085937v56.117188c.003906 8.285156-6.714844 15-14.996094 15zm0 0" fill="#e3b1fc"/><path d="m392.058594 26.027344-91.460938-25.476563c-1.308594-.363281-2.664062-.550781-4.023437-.550781h-63.570313v512h131.917969c8.28125 0 15-6.714844 15-15v-56.117188h71.085937c8.285157 0 15-6.714843 15-15v-302.519531c0-45.179687-30.410156-85.203125-73.949218-97.335937zm0 0" fill="#cb8deb"/><path d="m245.890625 94.351562 59.140625-92.566406-4.429688-1.234375c-1.3125-.363281-2.667968-.550781-4.027343-.550781h-131.527344c-1.394531 0-2.789063.195312-4.132813.582031l-4.300781 1.230469 59.195313 92.539062zm0 0" fill="#654285"/><path d="m296.574219 0h-64.761719v94.351562h14.078125l59.140625-92.566406-4.429688-1.234375c-1.3125-.363281-2.667968-.550781-4.027343-.550781zm0 0" fill="#553275"/><g fill="#654285"><path d="m263.019531 246.371094h-30.015625c-8.285156 0-15-6.714844-15-15s6.714844-15 15-15h30.015625c8.28125 0 15 6.714844 15 15s-6.71875 15-15 15zm0 0"/><path d="m263.019531 306.371094h-30.015625c-8.285156 0-15-6.714844-15-15 0-8.28125 6.714844-15 15-15h30.015625c8.28125 0 15 6.71875 15 15 0 8.285156-6.71875 15-15 15zm0 0"/><path d="m263.019531 366.371094h-30.015625c-8.285156 0-15-6.714844-15-15 0-8.28125 6.714844-15 15-15h30.015625c8.28125 0 15 6.71875 15 15 0 8.285156-6.71875 15-15 15zm0 0"/><path d="m263.019531 426.371094h-30.015625c-8.285156 0-15-6.714844-15-15 0-8.28125 6.714844-15 15-15h30.015625c8.28125 0 15 6.71875 15 15 0 8.285156-6.71875 15-15 15zm0 0"/></g><path d="m159.199219 218.582031c-3.953125 0-7.8125-1.601562-10.613281-4.390625-2.789063-2.800781-4.386719-6.660156-4.386719-10.609375s1.597656-7.820312 4.386719-10.609375c2.800781-2.792968 6.660156-4.390625 10.613281-4.390625 3.949219 0 7.816406 1.597657 10.609375 4.390625 2.789062 2.789063 4.390625 6.660156 4.390625 10.609375s-1.601563 7.808594-4.390625 10.609375c-2.800782 2.789063-6.660156 4.390625-10.609375 4.390625zm0 0" fill="#845fa6"/><path d="m320.992188 6.230469-20.394532-5.679688c-1.308594-.363281-2.664062-.550781-4.023437-.550781h-7.210938l-57.550781 89.964844-57.554688-89.964844h-9.210937c-1.394531 0-2.789063.195312-4.132813.582031l-18.503906 5.304688 74.09375 115.824219v390.289062h30.007813v-389.34375zm0 0" fill="#b474c5"/><path d="m246.511719 512v-389.34375l74.480469-116.425781-20.394532-5.679688c-1.308594-.363281-2.664062-.550781-4.023437-.550781h-7.210938l-57.550781 89.964844v422.035156zm0 0" fill="#845fa6"/><path d="m437.089844 52.726562-55.625 125.355469v262.800781h69.542968c8.285157 0 15-6.714843 15-15v-302.519531c0-27.007812-10.875-52.167969-28.917968-70.636719zm0 0" fill="#845fa6"/><path d="m84.773438 178.082031-55.890626-125.949219c-3.027343 3.097657-5.878906 6.398438-8.527343 9.914063-13.316407 17.664063-20.355469 38.691406-20.355469 60.808594v303.027343c0 8.285157 6.714844 15 15 15h69.773438zm0 0" fill="#b474c5"/><path d="m381.464844 340.882812h84.542968v30h-84.542968zm0 0" fill="#654285"/><path d="m0 340.882812h84.773438v30h-84.773438zm0 0" fill="#845fa6"/></svg>