<svg height="512pt" viewBox="-96 0 512 512" width="512pt" xmlns="http://www.w3.org/2000/svg"><path d="m275 512h-230c-24.8125 0-45-20.1875-45-45v-422c0-24.8125 20.1875-45 45-45h230c24.8125 0 45 20.1875 45 45v422c0 24.8125-20.1875 45-45 45zm0 0" fill="#6ad9eb"/><path d="m275 0h-115.007812v512h115.007812c24.8125 0 45-20.1875 45-45v-422c0-24.8125-20.1875-45-45-45zm0 0" fill="#00a2b2"/><path d="m30 62.820312h260v329.175782h-260zm0 0" fill="#faf9f5"/><path d="m159.992188 62.820312h130.007812v329.175782h-130.007812zm0 0" fill="#d1f7ff"/><path d="m169.222656 466.996094h-18.445312c-8.285156 0-15-6.714844-15-15 0-8.28125 6.714844-15 15-15h18.445312c8.285156 0 15 6.71875 15 15 0 8.285156-6.714844 15-15 15zm0 0" fill="#654285"/><path d="m169.222656 436.996094h-9.230468v30h9.230468c8.285156 0 15-6.714844 15-15s-6.714844-15-15-15zm0 0" fill="#553275"/><path d="m223.265625 166.488281c-.335937-.417969-.695313-.824219-1.082031-1.210937-.167969-.167969-.347656-.3125-.519532-.46875-15.410156-15.523438-36.746093-25.152344-60.292968-25.152344-46.867188 0-85 38.132812-85 85 0 46.871094 38.132812 85 85 85 46.871094 0 85-38.128906 85-85 0-22.488281-8.792969-42.949219-23.105469-58.167969zm-61.894531 3.167969c10.097656 0 19.5625 2.75 27.703125 7.515625l-75.183594 75.1875c-4.769531-8.140625-7.515625-17.605469-7.515625-27.703125-.003906-30.324219 24.671875-55 54.996094-55zm0 110c-9.347656 0-18.15625-2.347656-25.871094-6.480469l74.390625-74.390625c4.132813 7.714844 6.480469 16.523438 6.480469 25.871094 0 30.328125-24.671875 55-55 55zm0 0" fill="#ffb5b5"/><path d="m222.183594 165.277344c-.167969-.167969-.347656-.3125-.519532-.46875-15.410156-15.523438-36.742187-25.152344-60.292968-25.152344-.460938 0-.917969.03125-1.378906.035156v30c.460937-.011718.917968-.035156 1.378906-.035156 10.097656 0 19.5625 2.75 27.703125 7.515625l-29.082031 29.082031v42.425782l49.898437-49.894532c4.132813 7.714844 6.480469 16.523438 6.480469 25.871094 0 30.328125-24.671875 55-55 55-.460938 0-.917969-.03125-1.378906-.042969v30.007813c.460937.007812.917968.035156 1.378906.035156 46.871094 0 85-38.128906 85-85 0-22.488281-8.792969-42.953125-23.105469-58.167969-.335937-.417969-.695313-.824219-1.082031-1.210937zm0 0" fill="#ff617b"/></svg>