<svg height="512pt" viewBox="-131 0 512 512.001" width="512pt" xmlns="http://www.w3.org/2000/svg"><path d="m235 512h-220c-4.171875 0-8.15625-1.738281-10.996094-4.796875-2.835937-3.058594-4.273437-7.160156-3.9609372-11.320313l19.8945312-265.871093-9.851562-91.402344c-.488282-4.511719 1.097656-9.003906 4.304687-12.210937l39.992187-40c5.058594-5.058594 12.980469-5.84375 18.929688-1.875l51.679688 34.453124 51.679687-34.453124c5.949219-3.96875 13.871094-3.183594 18.925781 1.871093l40.007813 40c3.210937 3.210938 4.792969 7.703125 4.308593 12.214844l-9.855468 91.402344 19.898437 265.871093c.3125 4.160157-1.125 8.261719-3.964843 11.320313-2.835938 3.058594-6.820313 4.796875-10.992188 4.796875zm0 0" fill="#ffcac7"/><path d="m230.058594 230.011719 9.855468-91.402344c.484376-4.511719-1.097656-9.003906-4.308593-12.214844l-40.007813-40c-5.054687-5.054687-12.976562-5.839843-18.925781-1.871093l-51.675781 34.449218v393.027344h110.003906c4.171875 0 8.15625-1.738281 10.992188-4.796875 2.839843-3.058594 4.277343-7.160156 3.964843-11.320313zm0 0" fill="#ffb5b5"/><path d="m.0429688 495.882812c-.3124998 4.160157 1.1250002 8.261719 3.9609372 11.320313 2.839844 3.058594 6.824219 4.796875 10.996094 4.796875h220c4.171875 0 8.15625-1.738281 10.992188-4.796875 2.839843-3.058594 4.277343-7.160156 3.964843-11.320313l-1.039062-13.882812h-247.835938zm0 0" fill="#ff8088"/><path d="m248.917969 482h-123.921875v30h110.003906c4.171875 0 8.15625-1.738281 10.996094-4.796875s4.273437-7.160156 3.960937-11.320313zm0 0" fill="#ff617b"/><path d="m235.605469 126.394531-35.566407-35.558593v-75.835938c0-8.285156-6.714843-15-15-15-8.285156 0-15 6.714844-15 15v73.945312l-45.046874 30.03125-43.941407-29.296874v-74.679688c0-8.285156-6.714843-15-15-15-8.28125 0-15 6.714844-15 15v74.730469l-36.65625 36.664062c-3.210937 3.210938-4.792969 7.703125-4.308593 12.214844l3.363281 31.164063 53.457031-53.46875 49.769531 33.175781c5.035157 3.359375 11.597657 3.359375 16.640625 0l49.765625-33.179688 53.472657 53.464844 3.359374-31.15625c.484376-4.511719-1.097656-9.003906-4.308593-12.214844zm0 0" fill="#ff8088"/><path d="m200.039062 90.835938v-75.835938c0-8.285156-6.714843-15-15-15-8.285156 0-15 6.714844-15 15v73.945312l-45.042968 30.027344v33.03125c2.902344-.003906 5.796875-.84375 8.316406-2.519531l49.769531-33.179687 53.472657 53.460937 3.359374-31.15625c.484376-4.515625-1.097656-9.003906-4.308593-12.214844zm0 0" fill="#ff617b"/><path d="m225 244.765625h-200c-8.285156 0-15-6.714844-15-14.996094 0-8.285156 6.714844-15 15-15h200c8.28125 0 15 6.714844 15 15 0 8.28125-6.714844 14.996094-15 14.996094zm0 0" fill="#ff8088"/><path d="m225 214.769531h-100.003906v29.996094h100.003906c8.285156 0 15-6.714844 15-14.996094 0-8.285156-6.714844-15-15-15zm0 0" fill="#ff617b"/></svg>