<svg height="512pt" viewBox="-25 0 512 512" width="512pt" xmlns="http://www.w3.org/2000/svg"><path d="m338.546875 511.972656h-215.21875c-8.285156 0-15-6.714844-15-15v-89.996094c0-.59375.035156-1.191406.105469-1.78125l20-167.261718c.902344-7.542969 7.296875-13.21875 14.894531-13.21875h175.21875c7.59375 0 13.988281 5.675781 14.890625 13.21875l20 167.261718c.070312.589844.109375 1.1875.109375 1.78125v89.996094c0 8.285156-6.71875 15-15 15zm0 0" fill="#6ad9eb"/><path d="m333.4375 237.933594c-.898438-7.542969-7.296875-13.21875-14.890625-13.21875h-87.613281v287.257812h107.613281c8.28125 0 15-6.714844 15-15v-89.996094c0-.59375-.035156-1.191406-.109375-1.78125zm0 0" fill="#00a2b2"/><path d="m123.328125 511.972656h215.21875c8.28125 0 15-6.714844 15-15v-79.984375h-245.21875v79.984375c0 8.285156 6.714844 15 15 15zm0 0" fill="#b474c5"/><path d="m353.546875 496.972656v-79.984375h-122.613281v94.984375h107.613281c8.28125 0 15-6.714844 15-15zm0 0" fill="#654285"/><path d="m48.417969 382.90625c-8.277344 0-16.449219-2.140625-23.851563-6.34375-11.328125-6.429688-19.441406-16.898438-22.851562-29.46875-6.246094-23.039062 4.988281-46.929688 26.710937-56.808594l106.820313-48.59375c4.933594-2.242187 10.691406-1.652344 15.066406 1.546875s6.683594 8.507813 6.039062 13.890625l-10.855468 90.800782c-.722656 6.027343-5.003906 11.023437-10.84375 12.664062l-73.070313 20.488281c-4.347656 1.222657-8.769531 1.824219-13.164062 1.824219zm0 0" fill="#ffbe85"/><path d="m413.445312 382.90625c-4.394531 0-8.8125-.605469-13.164062-1.824219l-73.066406-20.488281c-5.84375-1.636719-10.125-6.636719-10.84375-12.660156l-10.859375-90.804688c-.644531-5.382812 1.664062-10.691406 6.039062-13.890625s10.132813-3.789062 15.066407-1.542969l106.820312 48.589844c21.71875 9.878906 32.953125 33.769532 26.710938 56.800782-.011719.046874-.023438.089843-.039063.136718-3.425781 12.515625-11.523437 22.933594-22.8125 29.339844-7.398437 4.203125-15.574219 6.34375-23.851563 6.34375zm0 0" fill="#f58e4e"/><path d="m122.960938 512h-.175782c-31.605468 0-57.320312-25.714844-57.320312-57.320312v-61.96875c0-31.605469 25.714844-57.320313 57.320312-57.320313h.175782c31.609374 0 57.324218 25.714844 57.324218 57.320313v61.96875c-.003906 31.605468-25.714844 57.320312-57.324218 57.320312zm0 0" fill="#ffdaab"/><path d="m339.078125 512h-.175781c-31.605469 0-57.320313-25.714844-57.320313-57.320312v-61.96875c0-31.605469 25.714844-57.320313 57.320313-57.320313h.175781c31.609375 0 57.320313 25.714844 57.320313 57.320313v61.96875c.003906 31.605468-25.710938 57.320312-57.320313 57.320312zm0 0" fill="#ffbe85"/><path d="m343.582031 151.242188c-6.929687 0-13.011719-4.769532-14.601562-11.597657-6.890625-29.59375-26.578125-54.222656-54.007813-67.570312-6.578125-3.199219-9.890625-10.683594-7.832031-17.707031 9.386719-32.011719 39.25-54.367188 72.625-54.367188 41.730469 0 75.683594 33.953125 75.683594 75.6875 0 39.875-31.152344 73.050781-70.929688 75.527344-.3125.015625-.625.027344-.9375.027344zm0 0" fill="#f58e4e"/><path d="m118.507812 151.257812c-.296874 0-.59375-.007812-.890624-.023437-39.921876-2.347656-71.195313-35.527344-71.195313-75.546875 0-41.734375 33.953125-75.6875 75.6875-75.6875 33.425781 0 63.304687 22.40625 72.652344 54.484375 2.042969 7.007813-1.253907 14.46875-7.8125 17.671875-27.347657 13.371094-46.972657 37.972656-53.84375 67.5-1.585938 6.824219-7.667969 11.601562-14.597657 11.601562zm0 0" fill="#ffbe85"/><path d="m231.046875 293.109375c-71.988281 0-130.558594-58.570313-130.558594-130.558594s58.570313-130.554687 130.558594-130.554687 130.554687 58.566406 130.554687 130.554687-58.566406 130.558594-130.554687 130.558594zm0 0" fill="#ffdaab"/><path d="m231.046875 31.996094c-.039063 0-.078125 0-.113281 0v261.109375h.113281c71.988281 0 130.554687-58.566407 130.554687-130.554688s-58.566406-130.554687-130.554687-130.554687zm0 0" fill="#ffbe85"/><path d="m172.492188 166.578125c-3.9375 0-7.808594-1.597656-10.597657-4.398437-2.800781-2.789063-4.402343-6.660157-4.402343-10.609376 0-3.949218 1.601562-7.808593 4.402343-10.601562 2.789063-2.789062 6.648438-4.398438 10.597657-4.398438 3.949218 0 7.820312 1.609376 10.609374 4.398438 2.792969 2.792969 4.390626 6.660156 4.390626 10.601562 0 3.949219-1.597657 7.820313-4.390626 10.609376-2.789062 2.800781-6.65625 4.398437-10.609374 4.398437zm0 0" fill="#845fa6"/><path d="m289.59375 166.578125c-3.949219 0-7.8125-1.597656-10.609375-4.398437-2.789063-2.789063-4.390625-6.660157-4.390625-10.609376 0-3.9375 1.601562-7.808593 4.390625-10.601562 2.789063-2.789062 6.660156-4.398438 10.609375-4.398438s7.820312 1.609376 10.609375 4.398438c2.789063 2.792969 4.390625 6.660156 4.390625 10.601562 0 3.949219-1.601562 7.820313-4.390625 10.609376-2.800781 2.800781-6.660156 4.398437-10.609375 4.398437zm0 0" fill="#553275"/><path d="m237.152344 202.855469h-12.214844c-8.285156 0-15-6.71875-15-15 0-8.285157 6.714844-15 15-15h12.214844c8.285156 0 15 6.714843 15 15 0 8.28125-6.714844 15-15 15zm0 0" fill="#845fa6"/><path d="m237.152344 172.855469h-6.21875v30h6.21875c8.285156 0 15-6.71875 15-15 0-8.285157-6.714844-15-15-15zm0 0" fill="#553275"/></svg>