<svg height="511pt" viewBox="0 -27 511.99947 511" width="511pt" xmlns="http://www.w3.org/2000/svg"><path d="m239.753906 442.9375h-203.347656l-21.40625-427.4375h246.160156zm0 0" fill="#d1f7ff"/><path d="m137.832031 442.9375h101.921875l21.402344-427.4375h-123.324219zm0 0" fill="#a3efff"/><path d="m249.675781 224.496094c-16.667969 0-24.421875-2.078125-33.402343-4.488282-9.632813-2.582031-20.554688-5.511718-41.171876-5.511718-20.621093 0-31.542968 2.929687-41.175781 5.511718-8.980469 2.410157-16.734375 4.488282-33.402343 4.488282-16.664063 0-24.421876-2.078125-33.398438-4.488282-9.632812-2.582031-20.554688-5.511718-41.171875-5.511718-.328125 0-.65625.027344-.984375.046875l11.4375 228.394531h203.347656l10.941406-218.441406zm0 0" fill="#6ad9eb"/><path d="m216.273438 220.007812c-9.632813-2.582031-20.554688-5.511718-41.171876-5.511718-17.898437 0-28.488281 2.207031-37.269531 4.476562v223.964844h101.921875l10.9375-218.441406h-1.015625c-16.667969 0-24.421875-2.078125-33.402343-4.488282zm0 0" fill="#28c1d1"/><path d="m239.753906 457.9375h-203.347656c-7.992188 0-14.582031-6.269531-14.980469-14.25l-21.4062498-427.4375c-.2070312-4.101562 1.2812498-8.109375 4.1132808-11.089844 2.832032-2.976562 6.757813-4.660156 10.867188-4.660156h246.160156c4.105469 0 8.035156 1.6875 10.867188 4.660156 2.832031 2.980469 4.316406 6.984375 4.113281 11.089844l-21.402344 427.4375c-.402343 7.984375-6.988281 14.25-14.984375 14.25zm-189.078125-30h174.808594l19.902344-397.4375h-214.613281zm0 0" fill="#a3efff"/><path d="m261.160156.5h-123.328125v30h107.558594l-19.902344 397.4375h-87.65625v30h101.925781c7.992188 0 14.578126-6.269531 14.980469-14.25l21.402344-427.4375c.207031-4.105469-1.28125-8.109375-4.113281-11.089844-2.832032-2.972656-6.761719-4.660156-10.867188-4.660156zm0 0" fill="#6ad9eb"/><path d="m429.390625 457.863281h-72.507813c-28.941406 0-52.484374-23.542969-52.484374-52.480469v-.003906c0-28.9375 23.542968-52.480468 52.484374-52.480468h72.507813c28.941406 0 52.480469 23.542968 52.480469 52.480468.003906 28.941406-23.539063 52.484375-52.480469 52.484375zm0 0" fill="#ffe645"/><path d="m356.882812 457.863281h72.507813c28.9375 0 52.480469-23.542969 52.480469-52.480469h-177.46875c0 28.9375 23.542968 52.480469 52.480468 52.480469zm0 0" fill="#ffcf2c"/><path d="m408.273438 312.589844c-13.441407 0-26.878907-5.113282-37.113282-15.347656-20.460937-20.460938-20.460937-53.757813 0-74.222657l51.269532-51.269531c9.914062-9.910156 23.09375-15.371094 37.113281-15.371094s27.195312 5.460938 37.109375 15.371094c20.460937 20.464844 20.460937 53.757812 0 74.222656l-51.269532 51.269532c-10.230468 10.230468-23.671874 15.347656-37.109374 15.347656zm0 0" fill="#ffe645"/><path d="m408.273438 312.589844c13.4375 0 26.878906-5.113282 37.109374-15.347656l51.269532-51.269532c20.460937-20.464844 20.460937-53.757812 0-74.222656l-125.488282 125.492188c10.230469 10.234374 23.667969 15.347656 37.109376 15.347656zm0 0" fill="#ffcf2c"/><path d="m393.136719 352.898438h-36.253907c-28.9375 0-52.480468 23.542968-52.480468 52.480468v.003906c0 28.9375 23.542968 52.480469 52.480468 52.480469h36.253907zm0 0" fill="#ff9c9c"/><path d="m356.882812 457.863281h36.253907v-52.480469h-88.738281c.003906 28.9375 23.546874 52.480469 52.484374 52.480469zm0 0" fill="#ff8088"/><path d="m471.019531 271.609375-74.222656-74.222656-25.636719 25.632812c-20.460937 20.464844-20.460937 53.761719 0 74.222657 10.234375 10.230468 23.671875 15.347656 37.113282 15.347656 13.4375 0 26.878906-5.113282 37.109374-15.347656zm0 0" fill="#ff9c9c"/><path d="m408.273438 312.589844c13.4375 0 26.878906-5.113282 37.109374-15.347656l25.632813-25.632813-37.109375-37.113281-62.746094 62.746094c10.234375 10.234374 23.671875 15.347656 37.113282 15.347656zm0 0" fill="#ff8088"/></svg>