<svg height="511pt" viewBox="1 -36 511.99988 511" width="511pt" xmlns="http://www.w3.org/2000/svg"><path d="m256 439.585938c-40.109375 0-78.445312-7.597657-113.945312-22.585938-28.378907-11.984375-54.964844-28.667969-79.023438-49.597656-40.960938-35.628906-60.421875-71.191406-61.230469-72.6875-2.445312-4.527344-2.398437-9.992188.121094-14.480469.839844-1.492187 21.015625-36.953125 62.285156-72.515625 24.257813-20.898438 50.867188-37.566406 79.089844-49.539062 35.351563-14.996094 73.269531-22.597657 112.703125-22.597657s77.351562 7.601563 112.703125 22.597657c28.222656 11.972656 54.832031 28.640624 79.089844 49.539062 41.269531 35.5625 61.445312 71.023438 62.28125 72.515625 2.523437 4.484375 2.566406 9.949219.121093 14.480469-.808593 1.496094-20.265624 37.058594-61.226562 72.6875-24.058594 20.929687-50.648438 37.613281-79.027344 49.597656-35.5 14.988281-73.835937 22.585938-113.941406 22.585938zm0 0" fill="#d1f7ff"/><path d="m447.792969 207.71875c-24.257813-20.898438-50.867188-37.566406-79.089844-49.539062-34.894531-14.800782-72.292969-22.382813-111.175781-22.578126v303.96875c39.554687-.191406 77.367187-7.773437 112.414062-22.570312 28.378906-11.984375 54.96875-28.667969 79.027344-49.597656 40.960938-35.628906 60.421875-71.191406 61.226562-72.6875 2.445313-4.527344 2.402344-9.992188-.121093-14.480469-.835938-1.488281-21.011719-36.953125-62.28125-72.515625zm0 0" fill="#a3efff"/><path d="m256 379.585938c-67.273438 0-122.003906-54.730469-122.003906-122 0-67.273438 54.730468-122.003907 122.003906-122.003907s122 54.730469 122 122.003907c0 67.269531-54.726562 122-122 122zm0 0" fill="#28c1d1"/><path d="m257.527344 135.601562v243.964844c66.570312-.820312 120.472656-55.21875 120.472656-121.980468 0-66.761719-53.902344-121.160157-120.472656-121.984376zm0 0" fill="#008896"/><path d="m256 319.585938c-34.1875 0-62-27.8125-62-62s27.8125-62.003907 62-62.003907 62 27.816407 62 62.003907-27.8125 62-62 62zm0 0" fill="#845fa6"/><path d="m257.527344 195.621094v123.925781c33.484375-.816406 60.472656-28.289063 60.472656-61.960937 0-33.675782-26.988281-61.144532-60.472656-61.964844zm0 0" fill="#553275"/><path d="m496.996094 302.585938c-2.023438 0-4.066406-.410157-6-1.253907-.195313-.085937-21.644532-9.289062-61.167969-18.375-36.46875-8.382812-96.226563-18.371093-173.824219-18.371093-42.832031 0-107.757812 3.1875-173.832031 18.371093-39.523437 9.085938-60.976563 18.289063-61.1875 18.382813-5.902344 2.5625-12.800781 1.070312-17.113281-3.714844-4.3125-4.78125-5.101563-11.777344-1.945313-17.390625.835938-1.492187 21.011719-36.953125 62.28125-72.515625 24.257813-20.898438 50.867188-37.566406 79.089844-49.539062 35.351563-14.996094 73.269531-22.597657 112.703125-22.597657s77.351562 7.601563 112.703125 22.597657c28.222656 11.972656 54.832031 28.640624 79.089844 49.539062 41.269531 35.5625 61.445312 71.023438 62.28125 72.515625 3.160156 5.621094 2.375 12.632813-1.949219 17.410156-2.910156 3.21875-6.980469 4.941407-11.128906 4.941407zm0 0" fill="#ffb5b5"/><path d="m447.792969 207.71875c-24.257813-20.898438-50.867188-37.566406-79.089844-49.539062-34.894531-14.800782-72.292969-22.382813-111.175781-22.578126v128.988282c76.851562.132812 136.074218 10.039062 172.300781 18.367187 39.523437 9.085938 60.972656 18.289063 61.167969 18.375 1.933594.84375 3.976562 1.253907 6 1.253907 4.148437 0 8.21875-1.726563 11.125-4.9375 4.328125-4.78125 5.113281-11.792969 1.953125-17.410157-.835938-1.492187-21.011719-36.957031-62.28125-72.519531zm0 0" fill="#ff8088"/><path d="m349.605469 84.375c4.65625 0 8.535156 5.433594 8.535156 12.222656 0 6.402344-3.296875 12.027344-8.535156 12.027344h-62.273438c-7.371093 0-9.894531-5.625-9.894531-10.472656 0-4.851563 2.714844-9.117188 5.238281-12.417969l34.335938-45.199219h-29.679688c-4.65625 0-8.539062-5.433594-8.539062-12.222656 0-6.402344 3.300781-12.027344 8.539062-12.027344h58.003907c4.851562 0 9.3125 3.101563 9.3125 9.894532 0 4.265624-1.746094 8.921874-4.851563 12.996093l-34.53125 45.203125h34.339844zm0 0" fill="#a3efff"/><path d="m432.820312 115.929688h52.769532c5.820312 0 9.117187 6.984374 9.117187 13.191406 0 6.207031-3.296875 13.191406-9.117187 13.191406h-82.644532c-6.207031 0-8.730468-3.296875-8.730468-7.953125 0-3.105469 1.164062-6.984375 3.300781-10.667969l54.707031-96.808594h-45.007812c-5.820313 0-9.117188-6.207031-9.117188-13.191406 0-6.402344 2.714844-13.191406 9.117188-13.191406h74.882812c5.820313 0 8.730469 3.296875 8.730469 7.953125 0 3.105469-1.164063 6.789063-3.296875 10.671875zm0 0" fill="#28c1d1"/></svg>