<svg height="512pt" viewBox="-28 0 512 512" width="512pt" xmlns="http://www.w3.org/2000/svg"><path d="m398.253906 297.492188c-3.980468 0-7.800781-1.578126-10.617187-4.398438l-224.097657-224.097656c-2.816406-2.816406-4.398437-6.632813-4.398437-10.617188s1.582031-7.800781 4.398437-10.617187l34.5625-34.566407c8.507813-8.507812 19.824219-13.195312 31.855469-13.195312 12.035157 0 23.347657 4.6875 31.855469 13.195312l181.625 181.625c8.507812 8.507813 13.195312 19.820313 13.195312 31.855469 0 12.035157-4.6875 23.347657-13.195312 31.855469l-34.5625 34.5625c-2.816406 2.820312-6.636719 4.398438-10.621094 4.398438zm0 0" fill="#28c1d1"/><path d="m456.632812 226.675781c0-12.035156-4.6875-23.347656-13.195312-31.855469l-90.8125-90.8125-77.039062 77.039063 112.050781 112.046875c2.816406 2.820312 6.636719 4.398438 10.617187 4.398438 3.984375 0 7.804688-1.578126 10.621094-4.394532l34.5625-34.566406c8.507812-8.507812 13.195312-19.824219 13.195312-31.855469zm0 0" fill="#00a2b2"/><path d="m268.835938 315.226562h-189.136719c-8.292969 0-15.019531-6.722656-15.019531-15.015624v-18.71875c0-30.707032 24.980468-55.789063 55.6875-55.910157l10.761718-.042969c7.574219-.03125 14.480469-3.199218 19.445313-8.921874 4.960937-5.722657 7.121093-13.007813 6.082031-20.511719l-.550781-3.972657c-.941407-6.777343 2.816406-13.328124 9.132812-15.941406 6.320313-2.617187 13.609375-.628906 17.730469 4.832032 15.429688 20.453124 41.789062 32.15625 59.234375 39.898437 6.851563 3.042969 12.261719 5.445313 16.1875 7.992187 15.945313 10.355469 25.464844 27.886719 25.464844 46.894532v24.402344c0 8.292968-6.722657 15.015624-15.019531 15.015624zm0 0" fill="#ffb5b5"/><path d="m258.390625 228.917969c-3.925781-2.550781-9.335937-4.953125-16.1875-7.992188-17.445313-7.746093-43.804687-19.449219-59.234375-39.902343-1.648438-2.183594-3.808594-3.800782-6.207031-4.800782v139.003906h92.078125c8.292968 0 15.015625-6.722656 15.015625-15.015624v-24.402344c0-19.007813-9.519531-36.539063-25.464844-46.890625zm0 0" fill="#ff9c9c"/><path d="m30.035156 373.070312v-72.859374c0-8.292969 6.722656-15.019532 15.015625-15.019532h256.855469c8.292969 0 15.015625 6.726563 15.015625 15.019532v72.859374zm0 0" fill="#ffe645"/><path d="m301.90625 285.191406h-125.144531v87.878906h140.160156v-72.859374c0-8.292969-6.722656-15.019532-15.015625-15.019532zm0 0" fill="#ffc12e"/><path d="m301.90625 512h-256.855469c-24.839843 0-45.050781-20.207031-45.050781-45.050781v-103.890625c0-8.292969 6.722656-15.015625 15.015625-15.015625h316.925781c8.292969 0 15.015625 6.722656 15.015625 15.015625v103.890625c0 24.839843-20.207031 45.050781-45.050781 45.050781zm0 0" fill="#28c1d1"/><path d="m331.941406 348.042969h-155.179687v163.957031h125.144531c24.839844 0 45.050781-20.207031 45.050781-45.050781v-103.890625c0-8.292969-6.722656-15.015625-15.015625-15.015625zm0 0" fill="#00a2b2"/><path d="m205.863281 445.039062h-58.207031c-8.292969 0-15.019531-6.726562-15.019531-15.019531s6.726562-15.015625 15.019531-15.015625h58.207031c8.296875 0 15.019531 6.722656 15.019531 15.015625s-6.722656 15.019531-15.019531 15.019531zm0 0" fill="#008896"/><path d="m205.863281 415.003906h-29.101562v30.035156h29.101562c8.296875 0 15.019531-6.726562 15.019531-15.019531s-6.722656-15.015625-15.019531-15.015625zm0 0" fill="#006d78"/></svg>