<svg height="512pt" viewBox="0 -13 512 512" width="512pt" xmlns="http://www.w3.org/2000/svg"><path d="m334.773438 138.644531c-38.226563 0-69.324219-31.097656-69.324219-69.324219 0-38.222656 31.097656-69.320312 69.324219-69.320312 17.964843 0 35.054687 6.929688 47.902343 19.226562 31.472657 1.652344 56.574219 27.777344 56.574219 59.65625 0 32.941407-26.800781 59.738282-59.738281 59.738282-7.34375 0-14.640625-1.363282-21.457031-3.980469-7.4375 2.660156-15.242188 4.003906-23.28125 4.003906zm0 0" fill="#ffb5b5"/><path d="m358.054688 134.640625c6.816406 2.617187 14.117187 3.980469 21.457031 3.980469 32.9375 0 59.738281-26.800782 59.738281-59.738282 0-31.878906-25.101562-58.003906-56.574219-59.65625-12.847656-12.296874-29.9375-19.226562-47.902343-19.226562v138.644531c8.039062 0 15.84375-1.34375 23.28125-4.003906zm0 0" fill="#ff9c9c"/><path d="m173.484375 485.253906c-22.570313 0-43.113281-11.972656-54.433594-30.792968-1.355469.097656-2.710937.144531-4.074219.144531-31.527343 0-57.179687-25.648438-57.179687-57.175781 0-31.53125 25.652344-57.179688 57.179687-57.179688 8.171876 0 32.765626.238281 58.804688.488281 25.261719.246094 51.382812.5 59.703125.5 35.019531 0 63.511719 28.488281 63.511719 63.507813 0 35.023437-28.492188 63.511718-63.511719 63.511718-5.078125 0-10.070313-.59375-14.929687-1.769531-11.816407 11.90625-27.980469 18.765625-45.070313 18.765625zm0 0" fill="#ffb5b5"/><path d="m233.484375 468.257812c35.023437 0 63.511719-28.488281 63.511719-63.511718 0-35.019532-28.488282-63.507813-63.511719-63.507813-8.316406 0-34.441406-.253906-59.703125-.5-.097656 0-.195312 0-.296875 0v144.515625c17.089844 0 33.253906-6.859375 45.070313-18.765625 4.859374 1.175781 9.851562 1.769531 14.929687 1.769531zm0 0" fill="#ff9c9c"/><path d="m437 406.484375h-362c-41.355469 0-75-33.644531-75-75v-185c0-41.355469 33.644531-75 75-75h362c41.355469 0 75 33.644531 75 75v185c0 41.355469-33.644531 75-75 75zm0 0" fill="#ffdcd9"/><path d="m437 71.484375h-181v335h181c41.355469 0 75-33.644531 75-75v-185c0-41.355469-33.644531-75-75-75zm0 0" fill="#ffcac7"/><path d="m256 333.984375c-42.484375 0-82.660156-8.949219-113.125-25.199219-33.453125-17.839844-51.875-42.628906-51.875-69.800781 0-27.175781 18.421875-51.964844 51.875-69.804687 30.464844-16.25 70.640625-25.195313 113.125-25.195313s82.660156 8.945313 113.125 25.195313c33.453125 17.839843 51.875 42.628906 51.875 69.804687 0 27.171875-18.421875 51.960937-51.875 69.800781-30.464844 16.25-70.640625 25.199219-113.125 25.199219zm0-160c-37.648438 0-72.808594 7.691406-99.007812 21.664063-22.875 12.199218-35.992188 27.996093-35.992188 43.335937s13.117188 31.132813 35.992188 43.332031c26.199218 13.972656 61.359374 21.667969 99.007812 21.667969s72.808594-7.695313 99.007812-21.667969c22.875-12.199218 35.992188-27.992187 35.992188-43.332031s-13.117188-31.136719-35.992188-43.335937c-26.199218-13.972657-61.359374-21.664063-99.007812-21.664063zm0 0" fill="#ffb5b5"/><path d="m355.007812 195.648438c22.875 12.199218 35.992188 27.996093 35.992188 43.335937s-13.117188 31.132813-35.992188 43.332031c-26.199218 13.972656-61.359374 21.667969-99.007812 21.667969v30c42.484375 0 82.660156-8.949219 113.125-25.199219 33.453125-17.839844 51.875-42.628906 51.875-69.800781 0-27.175781-18.421875-51.964844-51.875-69.804687-30.464844-16.25-70.640625-25.195313-113.125-25.195313v30c37.648438 0 72.808594 7.691406 99.007812 21.664063zm0 0" fill="#ff9c9c"/><path d="m175.152344 119.097656c-24.8125 0-45-20.1875-45-45s20.1875-45 45-45 45 20.1875 45 45-20.1875 45-45 45zm0 0" fill="#ffb5b5"/><path d="m220.152344 74.097656c0-24.8125-20.1875-45-45-45v90c24.8125 0 45-20.1875 45-45zm0 0" fill="#ff9c9c"/></svg>