<svg height="512pt" viewBox="-34 0 512 512" width="512pt" xmlns="http://www.w3.org/2000/svg"><g fill="#a3efff"><path d="m56.042969 399.429688c-1.707031 0-3.445313-.292969-5.144531-.914063-7.78125-2.84375-11.785157-11.457031-8.941407-19.238281l6.839844-18.714844c2.84375-7.78125 11.457031-11.785156 19.238281-8.941406s11.78125 11.457031 8.9375 19.238281l-6.839844 18.714844c-2.222656 6.082031-7.96875 9.855469-14.089843 9.855469zm0 0"/><path d="m15.003906 511.722656c-1.710937 0-3.449218-.292968-5.148437-.914062-7.78125-2.84375-11.785157-11.457032-8.941407-19.238282l20.523438-56.148437c2.84375-7.777344 11.453125-11.78125 19.238281-8.9375 7.78125 2.84375 11.78125 11.457031 8.9375 19.238281l-20.519531 56.144532c-2.222656 6.082031-7.972656 9.855468-14.089844 9.855468zm0 0"/><path d="m83.40625 324.566406c-1.710938 0-3.449219-.292968-5.148438-.914062-7.78125-2.84375-11.78125-11.457032-8.9375-19.238282l20.519532-56.148437c2.84375-7.777344 11.457031-11.78125 19.238281-8.9375s11.78125 11.457031 8.9375 19.238281l-20.519531 56.144532c-2.222656 6.082031-7.96875 9.855468-14.089844 9.855468zm0 0"/><path d="m132.945312 363.71875c-1.707031 0-3.445312-.292969-5.148437-.914062-7.777344-2.84375-11.78125-11.457032-8.9375-19.238282l6.839844-18.71875c2.84375-7.777344 11.457031-11.78125 19.238281-8.9375s11.78125 11.457032 8.9375 19.238282l-6.839844 18.714843c-2.222656 6.082031-7.96875 9.855469-14.089844 9.855469zm0 0"/><path d="m91.90625 476.011719c-1.710938 0-3.449219-.292969-5.148438-.914063-7.78125-2.84375-11.78125-11.457031-8.9375-19.238281l20.519532-56.148437c2.84375-7.777344 11.453125-11.78125 19.238281-8.9375 7.78125 2.84375 11.78125 11.457031 8.9375 19.238281l-20.519531 56.148437c-2.222656 6.078125-7.972656 9.851563-14.089844 9.851563zm0 0"/></g><path d="m168.804688 440.300781c-1.707032 0-3.445313-.292969-5.144532-.914062-7.78125-2.84375-11.785156-11.457031-8.941406-19.238281l6.839844-18.714844c2.847656-7.78125 11.457031-11.785156 19.238281-8.941406s11.785156 11.457031 8.9375 19.238281l-6.839844 18.714843c-2.21875 6.082032-7.96875 9.855469-14.089843 9.855469zm0 0" fill="#6ad9eb"/><path d="m142.601562 512c-1.710937 0-3.449218-.292969-5.148437-.914062-7.78125-2.84375-11.78125-11.457032-8.9375-19.238282l5.683594-15.554687c2.84375-7.777344 11.457031-11.78125 19.234375-8.9375 7.78125 2.84375 11.785156 11.457031 8.941406 19.238281l-5.683594 15.550781c-2.222656 6.082031-7.96875 9.855469-14.089844 9.855469zm0 0" fill="#6ad9eb"/><path d="m196.167969 365.4375c-1.710938 0-3.449219-.292969-5.148438-.914062-7.78125-2.84375-11.78125-11.457032-8.9375-19.238282l20.519531-56.144531c2.84375-7.78125 11.457032-11.785156 19.238282-8.941406s11.78125 11.457031 8.9375 19.238281l-20.519532 56.148438c-2.222656 6.078124-7.96875 9.851562-14.089843 9.851562zm0 0" fill="#6ad9eb"/><path d="m86.757812 475.097656c1.699219.621094 3.4375.914063 5.144532.914063 6.121094 0 11.867187-3.773438 14.089844-9.851563l20.523437-56.148437c2.84375-7.78125-1.160156-16.394531-8.941406-19.238281-.222657-.082032-.449219-.136719-.671875-.207032l-30.683594 84.304688c.179688.070312.351562.15625.539062.226562zm0 0" fill="#6ad9eb"/><path d="m127.800781 362.804688c1.699219.621093 3.4375.914062 5.148438.914062 6.117187 0 11.867187-3.773438 14.089843-9.855469l6.839844-18.714843c2.84375-7.78125-1.160156-16.394532-8.941406-19.238282-.257812-.09375-.515625-.160156-.777344-.238281l-17.046875 46.839844c.226563.097656.449219.203125.6875.292969zm0 0" fill="#6ad9eb"/><path d="m429.945312 511.992188c-8.285156 0-15-6.714844-15-15v-379.34375c0-48.328126-39.511718-87.648438-88.082031-87.648438-17.777343 0-34.9375 5.269531-49.625 15.238281-14.679687 9.960938-25.867187 23.925781-32.359375 40.382813l-24.496094 62.085937c-3.039062 7.707031-11.75 11.488281-19.457031 8.449219s-11.488281-11.75-8.449219-19.457031l24.496094-62.089844c8.714844-22.089844 23.726563-40.832031 43.417969-54.195313 19.675781-13.355468 42.664063-20.414062 66.472656-20.414062 65.109375 0 118.082031 52.777344 118.082031 117.648438v379.34375c0 8.285156-6.71875 15-15 15zm0 0" fill="#ffc12e"/><path d="m232.71875 230.316406c-1.722656 0-3.453125-.296875-5.109375-.894531l-90.097656-32.65625c-4.152344-1.507813-7.433594-4.765625-8.960938-8.910156-1.527343-4.144531-1.152343-8.75 1.023438-12.59375l17.417969-30.707031c10.867187-19.152344 33.800781-27.597657 54.539062-20.078126l23.542969 8.53125c20.773437 7.527344 32.914062 28.722657 28.867187 50.394532l-6.480468 34.671875c-.808594 4.328125-3.476563 8.082031-7.300782 10.269531-2.292968 1.304688-4.859375 1.972656-7.441406 1.972656zm0 0" fill="#ff9300"/><path d="m227.609375 229.421875c1.65625.597656 3.386719.894531 5.109375.894531 2.582031 0 5.152344-.667968 7.441406-1.976562 3.824219-2.1875 6.496094-5.941406 7.304688-10.269532l6.476562-34.671874c4.046875-21.667969-8.09375-42.863282-28.867187-50.394532l-12.75-4.621094-30.703125 84.367188zm0 0" fill="#ff7403"/><path d="m43.917969 231.625 10.261719-28.074219c12.261718-33.546875 49.625-50.914062 83.285156-38.714843l110.632812 40.101562c16.355469 5.925781 29.398438 17.855469 36.734375 33.582031 7.308594 15.671875 8.0625 33.25 2.128907 49.488281l-10.261719 28.074219zm0 0" fill="#ffc12e"/><path d="m248.097656 204.9375-56.21875-20.375-32.390625 88.992188 117.210938 42.527343 10.257812-28.074219c5.9375-16.238281 5.179688-33.816406-2.128906-49.488281-7.332031-15.730469-20.378906-27.65625-36.730469-33.582031zm0 0" fill="#ffa81c"/><path d="m287.164062 334.835938c-1.695312 0-3.421874-.289063-5.109374-.902344l-253.714844-91.960938c-7.789063-2.820312-11.8125-11.425781-8.992188-19.210937 2.824219-7.789063 11.425782-11.816407 19.214844-8.992188l253.714844 91.960938c7.789062 2.824219 11.8125 11.425781 8.992187 19.214843-2.210937 6.097657-7.96875 9.890626-14.105469 9.890626zm0 0" fill="#ffe645"/><path d="m292.277344 305.730469-127.65625-46.273438-10.261719 28.191407 127.695313 46.285156c1.6875.613281 3.414062.902344 5.109374.902344 6.136719 0 11.894532-3.792969 14.105469-9.894532 2.824219-7.785156-1.203125-16.386718-8.992187-19.210937zm0 0" fill="#ffcf2c"/></svg>