<svg height="512pt" viewBox="0 -67 512 512" width="512pt" xmlns="http://www.w3.org/2000/svg"><path d="m398.941406 174.214844h-191.390625c-8.292969 0-15.015625-6.722656-15.015625-15.015625 0-4.769531-.355468-9.910157-.734375-15.359375-1.039062-15.027344-2.21875-32.054688 3.972657-48.003906 7.417968-19.109376 23.3125-32.105469 48.59375-39.738282 23.28125-7.027344 46.292968-5.671875 66.597656-4.476562 17.675781 1.039062 32.9375 1.941406 43.515625-2.78125 6.570312-2.933594 15.835937-9.894532 20.402343-36.375.746094-4.335938 3.359376-8.128906 7.144532-10.371094 3.789062-2.242188 8.367187-2.707031 12.53125-1.277344 17.214844 5.914063 35.585937 18.203125 49.140625 32.867188 17.855469 19.3125 27.289062 41.964844 27.289062 65.511718 0 30.964844-13.296875 48.730469-24.457031 58.175782-12.640625 10.703125-29.984375 16.84375-47.589844 16.84375zm0 0" fill="#a3efff"/><path d="m394.554688.816406c-4.160157-1.429687-8.738282-.964844-12.527344 1.277344-3.785156 2.242188-6.402344 6.03125-7.148438 10.367188-4.566406 26.480468-13.828125 33.445312-20.398437 36.375-8.136719 3.636718-19.054688 3.9375-31.699219 3.410156v121.96875h76.160156c17.601563 0 34.949219-6.140625 47.585938-16.84375 11.160156-9.449219 24.457031-27.210938 24.457031-58.175782 0-23.546874-9.4375-46.199218-27.289063-65.515624-13.554687-14.660157-31.925781-26.949219-49.140624-32.863282zm0 0" fill="#6ad9eb"/><path d="m163.597656 298.804688v-139.605469c0-8.292969 6.71875-15.015625 15.011719-15.015625h288.34375c8.292969 0 15.015625 6.722656 15.015625 15.015625v139.605469zm0 0" fill="#ffe645"/><path d="m466.953125 144.183594h-144.171875v154.621094h159.1875v-139.605469c0-8.292969-6.722656-15.015625-15.015625-15.015625zm0 0" fill="#ffcf2c"/><path d="m459.476562 377.253906h-459.476562v-103.472656h496.984375c8.292969 0 15.015625 6.722656 15.015625 15.015625v35.933594c0 28.960937-23.5625 52.523437-52.523438 52.523437zm0 0" fill="#b474c5"/><path d="m496.984375 273.78125h-174.203125v103.472656h136.695312c28.960938 0 52.523438-23.5625 52.523438-52.523437v-35.933594c0-8.292969-6.722656-15.015625-15.015625-15.015625zm0 0" fill="#845fa6"/><path d="m244.566406 220.011719c8.292969 0 15.015625-6.722657 15.015625-15.011719v-60.816406h-30.027343v60.816406c0 8.292969 6.722656 15.011719 15.011718 15.011719zm0 0" fill="#ffc12e"/><path d="m362.554688 237.851562c8.292968 0 15.015624-6.722656 15.015624-15.015624v-78.652344h-30.03125v78.652344c0 8.292968 6.722657 15.015624 15.015626 15.015624zm0 0" fill="#ff9300"/></svg>