<svg height="512pt" viewBox="0 0 511 512" width="512pt" xmlns="http://www.w3.org/2000/svg"><path d="m484.007812 497h-128.199218l-13.492188-269.882812h155.183594zm0 0" fill="#d1f7ff"/><path d="m419.90625 497h64.101562l13.492188-269.882812h-77.59375zm0 0" fill="#a3efff"/><path d="m346.847656 317.738281 8.960938 179.261719h128.199218l8.960938-179.261719zm0 0" fill="#fff"/><path d="m419.90625 497h64.101562l8.960938-179.261719h-73.0625zm0 0" fill="#d1f7ff"/><path d="m484.007812 512h-128.199218c-7.992188 0-14.582032-6.269531-14.980469-14.25l-13.492187-269.882812c-.207032-4.105469 1.28125-8.109376 4.109374-11.085938 2.832032-2.980469 6.761719-4.664062 10.871094-4.664062h155.183594c4.109375 0 8.035156 1.683593 10.867188 4.664062 2.832031 2.976562 4.320312 6.980469 4.113281 11.085938l-13.492188 269.882812c-.398437 7.980469-6.988281 14.25-14.980469 14.25zm-113.929687-30h99.660156l11.992188-239.882812h-123.644531zm0 0" fill="#a3efff"/><path d="m497.5 212.117188h-77.59375v30h61.824219l-11.992188 239.882812h-49.832031v30h64.101562c7.992188 0 14.582032-6.269531 14.980469-14.25l13.492188-269.882812c.207031-4.105469-1.28125-8.109376-4.113281-11.085938-2.832032-2.976562-6.757813-4.664062-10.867188-4.664062zm0 0" fill="#6ad9eb"/><path d="m195.496094 512h-179.996094c-8.285156 0-15-6.71875-15-15v-342.128906c0-2.792969.78125-5.53125 2.253906-7.902344l51.539063-83.125c2.734375-4.410156 7.558593-7.09375 12.746093-7.09375h176.351563c5.355469 0 10.308594 2.855469 12.988281 7.492188 2.679688 4.640624 2.683594 10.355468.007813 14.996093l-45.890625 79.644531v338.117188c0 8.28125-6.714844 15-15 15zm0 0" fill="#a3efff"/><path d="m243.390625 56.75h-85.269531l.261718 7.609375-52.511718 90.511719v357.128906h89.625c8.285156 0 15-6.71875 15-15v-338.117188l45.894531-79.644531c2.671875-4.640625 2.667969-10.355469-.011719-14.996093-2.683594-4.636719-7.632812-7.492188-12.988281-7.492188zm0 0" fill="#6ad9eb"/><path d="m15.5 512h194.996094v-353.117188l2.3125-4.011718h-212.308594v342.128906c0 8.28125 6.714844 15 15 15zm0 0" fill="#6ad9eb"/><path d="m210.496094 512v-353.117188l2.3125-4.011718h-106.9375v357.128906zm0 0" fill="#28c1d1"/><path d="m205.871094 154.871094v342.128906c0 8.28125-6.714844 15-15 15h-5 95.8125c8.285156 0 15-6.71875 15-15v-331.984375c0-6.695313-1.34375-13.320313-3.953125-19.488281l-34.347657-81.167969zm0 0" fill="#00a2b2"/><path d="m258.390625 64.351562v-49.351562c0-8.285156-6.714844-15-15-15h-174.414063c-8.28125 0-15 6.714844-15 15v49.351562zm0 0" fill="#6ad9eb"/><path d="m258.390625 64.351562v-49.351562c0-8.285156-6.714844-15-15-15h-87.207031l2.199218 64.351562zm0 0" fill="#28c1d1"/><path d="m105.496094 383.195312c-24.652344 0-44.710938-20.582031-44.710938-45.878906 0-19.304687 24.09375-65.992187 31.476563-79.839844 2.605469-4.890624 7.695312-7.945312 13.234375-7.945312 5.542968 0 10.632812 3.054688 13.238281 7.945312 7.382813 13.847657 31.476563 60.535157 31.476563 79.839844 0 25.296875-20.058594 45.878906-44.714844 45.878906zm0 0" fill="#fff"/><path d="m105.871094 383.1875c24.484375-.207031 44.339844-20.703125 44.339844-45.871094 0-19.304687-24.09375-65.992187-31.476563-79.839844-2.546875-4.777343-7.46875-7.796874-12.863281-7.929687zm0 0" fill="#a3efff"/></svg>