<svg height="512pt" viewBox="0 0 512 512" width="512pt" xmlns="http://www.w3.org/2000/svg"><path d="m460.644531 424.433594h-366.484375v72.558594h366.484375c20.039063 0 36.28125-16.242188 36.28125-36.277344 0-20.039063-16.242187-36.28125-36.28125-36.28125zm0 0" fill="#ff9c9c"/><path d="m460.644531 424.433594h-204.644531v72.558594h204.644531c20.039063 0 36.28125-16.242188 36.28125-36.277344 0-20.039063-16.242187-36.28125-36.28125-36.28125zm0 0" fill="#ff8088"/><path d="m15 74.609375h457c22.089844 0 40 17.910156 40 40v346.105469h-15v-5.6875c-.003906-16.566406-13.433594-29.996094-30-29.996094h-412c-22.089844 0-40-17.90625-40-40zm0 0" fill="#ff9c9c"/><path d="m472 74.609375h-216v350.421875h211c16.566406 0 29.996094 13.429688 30 29.996094v5.6875h15v-346.105469c0-22.089844-17.910156-40-40-40zm0 0" fill="#ff8088"/><path d="m40 0h359.308594c8.285156 0 15 6.714844 15 15v336.871094h-369.292969c-16.546875 0-29.96875 13.398437-30 29.945312l-.011719 6.335938h-15.003906v-348.152344c0-22.089844 17.910156-40 40-40zm0 0" fill="#ffcac7"/><path d="m399.308594 0h-143.308594v351.871094h158.308594v-336.871094c0-8.285156-6.714844-15-15-15zm0 0" fill="#ff9c9c"/><path d="m460.71875 511.992188h-351.558594c-8.285156 0-15-6.714844-15-15 0-8.28125 6.714844-15 15-15h351.558594c11.734375 0 21.28125-9.542969 21.28125-21.277344s-9.546875-21.28125-21.28125-21.28125h-409.4375c-28.277344 0-51.28125-23.003906-51.28125-51.277344 0-28.277344 23.003906-51.28125 51.28125-51.28125h348.027344c8.285156 0 15 6.714844 15 15s-6.714844 15-15 15h-348.027344c-11.734375 0-21.28125 9.546875-21.28125 21.28125s9.546875 21.277344 21.28125 21.277344h409.4375c28.277344 0 51.28125 23.003906 51.28125 51.28125 0 28.273437-23.003906 51.277344-51.28125 51.277344zm0 0" fill="#ff617b"/><g fill="#ef3e60"><path d="m460.71875 409.433594h-204.71875v30h204.71875c11.734375 0 21.28125 9.546875 21.28125 21.28125 0 11.730468-9.546875 21.277344-21.28125 21.277344h-204.71875v30h204.71875c28.277344 0 51.28125-23.003907 51.28125-51.277344 0-28.277344-23.003906-51.28125-51.28125-51.28125zm0 0"/><path d="m256 336.871094v30h143.308594c8.285156 0 15-6.714844 15-15 0-8.28125-6.714844-15-15-15zm0 0"/></g></svg>