<svg height="512pt" viewBox="0 -29 512.00041 512" width="512pt" xmlns="http://www.w3.org/2000/svg"><path d="m511.371094 194.703125-36.941406-107.171875c-36.773438-104.15625-191.132813-92.960938-243.4375-77.859375l-12.828126 3.707031c-36.832031 10.636719-69.359374 28.460938-95.523437 51.417969-38.933594 34.164063-62.65625 82.433594-66.914063 134.054687l-9.371093 113.59375h415.726562l-28.425781-130.753906 36.21875 33.921875c18.410156 13.746094 46.707031-.511719 41.496094-20.910156zm0 0" fill="#6ad9eb"/><path d="m474.429688 87.53125c-32.304688-91.488281-155.316407-93.976562-220.210938-82.992188v307.90625h207.863281l-28.425781-130.753906 36.21875 33.921875c18.410156 13.746094 46.707031-.511719 41.496094-20.910156zm0 0" fill="#28c1d1"/><path d="m147.480469 312.445312c10.054687-13.304687 15.632812-29.609374 15.632812-46.546874 0-42.601563-34.660156-77.265626-77.261719-77.265626-10.234374 0-20.34375 2.042969-29.722656 5.953126-.148437 1.417968-.285156 2.839843-.402344 4.265624l-9.371093 113.59375zm0 0" fill="#fff566"/><path d="m254.21875 219.542969c-42.605469 0-77.265625-34.664063-77.265625-77.265625 0-42.601563 34.660156-77.261719 77.265625-77.261719 42.601562 0 77.261719 34.660156 77.261719 77.261719 0 42.601562-34.660157 77.265625-77.261719 77.265625zm0 0" fill="#fff566"/><g fill="#ffe645"><path d="m331.480469 142.277344c0-42.601563-34.660157-77.261719-77.261719-77.261719v154.527344c42.601562 0 77.261719-34.664063 77.261719-77.265625zm0 0"/><path d="m442.488281 222.3125c-11.375-6.335938-24.222656-9.726562-37.511719-9.726562-42.601562 0-77.261718 34.660156-77.261718 77.265624 0 7.707032 1.152344 15.277344 3.394531 22.59375h130.972656zm0 0"/><path d="m474.429688 87.53125c-17.734376-50.226562-62.808594-73.621094-110.59375-82.699219-3.582032 9.042969-5.410157 18.566407-5.410157 28.355469 0 42.605469 34.660157 77.265625 77.261719 77.265625 15.199219 0 29.722656-4.355469 42.296875-12.613281zm0 0"/></g><path d="m472.378906 454.75h-436.324218c-19.878907 0-36.054688-16.175781-36.054688-36.054688v-85.648437c0-19.878906 16.175781-36.054687 36.054688-36.054687h436.324218c19.882813 0 36.058594 16.175781 36.058594 36.054687v85.648437c0 19.878907-16.175781 36.054688-36.058594 36.054688zm0 0" fill="#00a2b2"/><path d="m472.378906 296.992188h-218.160156v157.757812h218.160156c19.882813 0 36.058594-16.175781 36.058594-36.054688v-85.648437c0-19.878906-16.175781-36.054687-36.058594-36.054687zm0 0" fill="#008896"/></svg>