<svg height="512pt" viewBox="-110 0 512 512" width="512pt" xmlns="http://www.w3.org/2000/svg"><path d="m245.578125 211.003906h-40c-7.574219 0-13.960937-5.644531-14.886719-13.164062l-9.878906-79.996094c-.527344-4.269531.804688-8.554688 3.648438-11.773438 2.847656-3.222656 6.941406-5.066406 11.238281-5.066406h59.753906c4.300781 0 8.390625 1.84375 11.238281 5.066406 2.847656 3.21875 4.175782 7.507813 3.648438 11.773438l-9.875 79.996094c-.929688 7.515625-7.3125 13.164062-14.886719 13.164062zm0 0" fill="#6ad9eb"/><path d="m255.453125 101.003906h-29.875v110h20c7.574219 0 13.957031-5.644531 14.886719-13.164062l9.875-79.996094c.527344-4.269531-.800782-8.554688-3.648438-11.773438-2.847656-3.222656-6.9375-5.066406-11.238281-5.066406zm0 0" fill="#28c1d1"/><path d="m76.375 211.003906c-8.285156 0-15-6.71875-15-15v-74c0-8.285156 6.714844-15 15-15s15 6.714844 15 15v74c0 8.28125-6.714844 15-15 15zm0 0" fill="#28c1d1"/><path d="m91.375 196.003906v-74c0-8.285156-6.714844-15-15-15v104c8.285156 0 15-6.71875 15-15zm0 0" fill="#00a2b2"/><path d="m137.746094 137.003906h-122.746094c-4.460938 0-8.691406-1.984375-11.539062-5.417968-2.851563-3.429688-4.023438-7.953126-3.207032-12.339844l20-107.003906c1.328125-7.097657 7.523438-12.242188 14.746094-12.242188h82.746094c7.222656 0 13.417968 5.144531 14.746094 12.242188l20 107.003906c.820312 4.386718-.355469 8.910156-3.203126 12.339844-2.851562 3.433593-7.082031 5.417968-11.542968 5.417968zm0 0" fill="#ffe645"/><path d="m132.492188 12.242188c-1.328126-7.097657-7.523438-12.242188-14.746094-12.242188h-41.371094v137.003906h61.371094c4.460937 0 8.691406-1.984375 11.542968-5.417968 2.847657-3.429688 4.023438-7.953126 3.203126-12.339844zm0 0" fill="#ffc12e"/><path d="m49.027344 512c-8.28125 0-15-6.714844-15-15v-25.183594c0-8.285156 6.71875-15 15-15 8.285156 0 15 6.714844 15 15v25.183594c0 8.285156-6.714844 15-15 15zm0 0" fill="#008896"/><path d="m246.457031 512c-8.285156 0-15-6.714844-15-15v-25.183594c0-8.285156 6.714844-15 15-15 8.285157 0 15 6.714844 15 15v25.183594c0 8.285156-6.714843 15-15 15zm0 0" fill="#008896"/><path d="m276.457031 486.816406h-257.429687c-8.28125 0-15-6.714844-15-15v-275.8125c0-8.285156 6.71875-15 15-15h257.429687c8.285157 0 15 6.714844 15 15v275.8125c0 8.285156-6.714843 15-15 15zm0 0" fill="#ffb5b5"/><path d="m276.457031 181.003906h-128.714843v305.8125h128.714843c8.285157 0 15-6.714844 15-15v-275.8125c0-8.285156-6.714843-15-15-15zm0 0" fill="#ff9c9c"/><path d="m4.027344 318.910156h287.429687v30h-287.429687zm0 0" fill="#ff9c9c"/><path d="m147.742188 318.910156h143.714843v30h-143.714843zm0 0" fill="#ff617b"/><path d="m172.511719 264.957031h-49.539063c-8.28125 0-15-6.714843-15-15 0-8.285156 6.71875-15 15-15h49.539063c8.285156 0 15 6.714844 15 15 0 8.285157-6.714844 15-15 15zm0 0" fill="#ff617b"/><path d="m172.511719 234.957031h-24.769531v30h24.769531c8.285156 0 15-6.714843 15-15 0-8.285156-6.714844-15-15-15zm0 0" fill="#ef3e60"/><path d="m172.511719 432.863281h-49.539063c-8.28125 0-15-6.714843-15-15 0-8.285156 6.71875-15 15-15h49.539063c8.285156 0 15 6.714844 15 15 0 8.285157-6.714844 15-15 15zm0 0" fill="#ff617b"/><path d="m172.511719 402.863281h-24.769531v30h24.769531c8.285156 0 15-6.714843 15-15 0-8.285156-6.714844-15-15-15zm0 0" fill="#ef3e60"/></svg>