<svg height="512pt" viewBox="0 0 512 512.00012" width="512pt" xmlns="http://www.w3.org/2000/svg"><path d="m446.550781 194.828125c-2.542969 0-5.121093-.644531-7.480469-2.007813l-285.769531-164.824218c-7.175781-4.140625-9.636719-13.3125-5.5-20.488282 4.140625-7.175781 13.3125-9.640624 20.488281-5.5l285.769532 164.828126c7.175781 4.136718 9.640625 13.308593 5.5 20.484374-2.777344 4.816407-7.820313 7.507813-13.007813 7.507813zm0 0" fill="#00a2b2"/><path d="m466.996094 512h-421.996094c-24.8125 0-45-20.1875-45-45v-254.644531c0-24.8125 20.1875-45 45-45h421.996094c24.816406 0 45 20.1875 45 45v254.644531c0 24.8125-20.183594 45-45 45zm0 0" fill="#845fa6"/><path d="m466.996094 167.355469h-211.996094v344.644531h211.996094c24.816406 0 45-20.1875 45-45v-254.644531c0-24.8125-20.183594-45-45-45zm0 0" fill="#654285"/><g fill="#faf9f5"><path d="m75.058594 317.296875c-8.28125 0-15-6.71875-15-15v-46.289063c0-8.285156 6.71875-15 15-15 8.285156 0 15 6.714844 15 15v46.289063c0 8.28125-6.714844 15-15 15zm0 0"/><path d="m135.121094 317.296875c-8.285156 0-15-6.71875-15-15v-66.289063c0-8.285156 6.714844-15 15-15 8.28125 0 15 6.714844 15 15v66.289063c0 8.28125-6.71875 15-15 15zm0 0"/><path d="m195.179688 317.296875c-8.285157 0-15-6.71875-15-15v-46.289063c0-8.285156 6.714843-15 15-15 8.28125 0 15 6.714844 15 15v46.289063c0 8.28125-6.71875 15-15 15zm0 0"/><path d="m255.238281 317.296875c-8.285156 0-15-6.71875-15-15v-26.289063c0-8.285156 6.714844-15 15-15 8.285157 0 15 6.714844 15 15v26.289063c0 8.28125-6.714843 15-15 15zm0 0"/></g><path d="m255.238281 261.007812c-.082031 0-.160156.011719-.238281.011719v56.265625c.078125 0 .15625.011719.238281.011719 8.285157 0 15-6.71875 15-15v-26.289063c0-8.285156-6.714843-15-15-15zm0 0" fill="#fff566"/><path d="m315.296875 317.296875c-8.28125 0-15-6.71875-15-15v-66.289063c0-8.285156 6.71875-15 15-15 8.285156 0 15 6.714844 15 15v66.289063c0 8.28125-6.714844 15-15 15zm0 0" fill="#fff566"/><path d="m375.359375 317.296875c-8.285156 0-15-6.71875-15-15v-46.289063c0-8.285156 6.714844-15 15-15 8.28125 0 15 6.714844 15 15v46.289063c0 8.28125-6.71875 15-15 15zm0 0" fill="#fff566"/><path d="m435.417969 317.296875c-8.285157 0-15-6.71875-15-15v-46.289063c0-8.285156 6.714843-15 15-15 8.285156 0 15 6.714844 15 15v46.289063c0 8.28125-6.714844 15-15 15zm0 0" fill="#fff566"/><path d="m0 296.417969v170.582031c0 24.8125 20.1875 45 45 45h421.996094c24.816406 0 45-20.1875 45-45v-170.582031zm0 0" fill="#ffcf2c"/><path d="m255 512h211.996094c24.816406 0 45-20.1875 45-45v-170.582031h-256.996094zm0 0" fill="#ffb500"/><path d="m316.125 395.199219c0-28.726563 23.386719-52.09375 52.132812-52.09375 28.742188 0 52.128907 23.371093 52.128907 52.09375 0 28.726562-23.386719 52.09375-52.128907 52.09375-28.746093.003906-52.132812-23.367188-52.132812-52.09375zm0 0" fill="#654285"/><path d="m202.207031 447.691406c3.953125 0 7.820313-1.601562 10.609375-4.390625 2.792969-2.789062 4.390625-6.660156 4.390625-10.609375 0-3.949218-1.597656-7.8125-4.390625-10.601562-2.796875-2.800782-6.65625-4.398438-10.609375-4.398438-3.949219 0-7.808593 1.597656-10.609375 4.398438-2.789062 2.789062-4.390625 6.652344-4.390625 10.601562 0 3.949219 1.601563 7.820313 4.390625 10.609375 2.800782 2.789063 6.660156 4.390625 10.609375 4.390625zm0 0" fill="#654285"/><path d="m142.148438 447.691406c3.949218 0 7.8125-1.601562 10.609374-4.390625 2.792969-2.789062 4.390626-6.660156 4.390626-10.609375 0-3.949218-1.597657-7.8125-4.390626-10.601562-2.796874-2.800782-6.660156-4.398438-10.609374-4.398438-3.949219 0-7.808594 1.597656-10.609376 4.398438-2.789062 2.789062-4.390624 6.660156-4.390624 10.601562 0 3.949219 1.601562 7.820313 4.390624 10.609375 2.800782 2.789063 6.660157 4.390625 10.609376 4.390625zm0 0"/><path d="m82.089844 447.691406c3.949218 0 7.808594-1.601562 10.609375-4.390625 2.789062-2.789062 4.390625-6.660156 4.390625-10.609375 0-3.949218-1.601563-7.8125-4.390625-10.601562-2.800781-2.800782-6.660157-4.398438-10.609375-4.398438-3.949219 0-7.8125 1.597656-10.609375 4.398438-2.789063 2.789062-4.390625 6.652344-4.390625 10.601562 0 3.949219 1.601562 7.820313 4.390625 10.609375 2.800781 2.789063 6.660156 4.390625 10.609375 4.390625zm0 0" fill="#ff8088"/><path d="m142.148438 447.691406c3.949218 0 7.8125-1.601562 10.609374-4.390625 2.792969-2.789062 4.390626-6.660156 4.390626-10.609375 0-3.949218-1.597657-7.8125-4.390626-10.601562-2.796874-2.800782-6.660156-4.398438-10.609374-4.398438-3.949219 0-7.808594 1.597656-10.609376 4.398438-2.789062 2.789062-4.390624 6.660156-4.390624 10.601562 0 3.949219 1.601562 7.820313 4.390624 10.609375 2.800782 2.789063 6.660157 4.390625 10.609376 4.390625zm0 0" fill="#654285"/><path d="m82.089844 381.417969h120.117187c8.285157 0 15-6.714844 15-14.996094 0-8.285156-6.714843-15-15-15h-120.117187c-8.285156 0-15 6.714844-15 15 0 8.28125 6.714844 14.996094 15 14.996094zm0 0" fill="#654285"/><path d="m466.996094 512h-421.996094c-24.8125 0-45-20.1875-45-45v-254.644531c0-24.8125 20.1875-45 45-45h421.996094c24.816406 0 45 20.1875 45 45v254.644531c0 24.8125-20.183594 45-45 45zm-421.996094-314.644531c-8.269531 0-15 6.730469-15 15v254.644531c0 8.269531 6.730469 15 15 15h421.996094c8.273437 0 15-6.730469 15-15v-254.644531c0-8.269531-6.726563-15-15-15zm0 0" fill="#ffcf2c"/><path d="m466.996094 167.355469h-211.996094v30h211.996094c8.273437 0 15 6.730469 15 15v254.644531c0 8.269531-6.726563 15-15 15h-211.996094v30h211.996094c24.816406 0 45-20.1875 45-45v-254.644531c0-24.8125-20.183594-45-45-45zm0 0" fill="#ffb500"/></svg>