<svg height="512pt" viewBox="0 0 512 512" width="512pt" xmlns="http://www.w3.org/2000/svg"><path d="m256 15c-133.101562 0-241 107.898438-241 241s107.898438 241 241 241 241-107.898438 241-241-107.898438-241-241-241zm0 297c-30.878906 0-56-25.121094-56-56s25.121094-56 56-56 56 25.121094 56 56-25.121094 56-56 56zm0 0" fill="#6ad9eb"/><path d="m312 256c0 30.878906-25.121094 56-56 56v185c133.101562 0 241-107.898438 241-241s-107.898438-241-241-241v185c30.878906 0 56 25.121094 56 56zm0 0" fill="#28c1d1"/><path d="m256 140c-63.960938 0-116 52.035156-116 116s52.039062 116 116 116c63.964844 0 116-52.035156 116-116s-52.035156-116-116-116zm0 172c-30.878906 0-56-25.121094-56-56s25.121094-56 56-56 56 25.121094 56 56-25.121094 56-56 56zm0 0" fill="#a3efff"/><path d="m312 256c0 30.878906-25.121094 56-56 56v60c63.964844 0 116-52.035156 116-116s-52.035156-116-116-116v60c30.878906 0 56 25.121094 56 56zm0 0" fill="#6ad9eb"/><path d="m165.507812 427.71875c-2.554687 0-5.140624-.652344-7.507812-2.027344-39.839844-23.089844-70.445312-59.539062-86.179688-102.636718-2.84375-7.785157 1.164063-16.394532 8.945313-19.234376 7.785156-2.84375 16.394531 1.164063 19.234375 8.945313 13.332031 36.511719 39.269531 67.398437 73.042969 86.972656 7.167969 4.152344 9.609375 13.332031 5.457031 20.5-2.78125 4.796875-7.816406 7.480469-12.992188 7.480469zm0 0" fill="#00a2b2"/><path d="m426.09375 209.097656c-6.121094 0-11.871094-3.777344-14.09375-9.859375-13.328125-36.511719-39.269531-67.398437-73.042969-86.976562-7.167969-4.152344-9.609375-13.332031-5.453125-20.496094 4.152344-7.167969 13.332032-9.613281 20.496094-5.457031 39.839844 23.089844 70.445312 59.542968 86.179688 102.640625 2.84375 7.78125-1.164063 16.394531-8.945313 19.234375-1.699219.617187-3.433594.914062-5.140625.914062zm0 0" fill="#00a2b2"/><path d="m256 512c-68.378906 0-132.667969-26.628906-181.019531-74.980469-48.351563-48.351562-74.980469-112.640625-74.980469-181.019531s26.628906-132.667969 74.980469-181.019531c48.351562-48.351563 112.640625-74.980469 181.019531-74.980469s132.667969 26.628906 181.019531 74.980469c48.351563 48.351562 74.980469 112.640625 74.980469 181.019531s-26.628906 132.667969-74.980469 181.019531c-48.351562 48.351563-112.640625 74.980469-181.019531 74.980469zm0-482c-60.367188 0-117.121094 23.507812-159.804688 66.195312-42.6875 42.683594-66.195312 99.4375-66.195312 159.804688s23.507812 117.121094 66.195312 159.804688c42.683594 42.6875 99.4375 66.195312 159.804688 66.195312s117.121094-23.507812 159.804688-66.195312c42.6875-42.683594 66.195312-99.4375 66.195312-159.804688s-23.507812-117.121094-66.195312-159.804688c-42.683594-42.6875-99.4375-66.195312-159.804688-66.195312zm0 0" fill="#d1f7ff"/><path d="m415.804688 96.195312c42.6875 42.683594 66.195312 99.4375 66.195312 159.804688s-23.507812 117.121094-66.195312 159.804688c-42.683594 42.6875-99.4375 66.195312-159.804688 66.195312v30c68.378906 0 132.667969-26.628906 181.019531-74.980469 48.351563-48.351562 74.980469-112.640625 74.980469-181.019531s-26.628906-132.667969-74.980469-181.019531c-48.351562-48.351563-112.640625-74.980469-181.019531-74.980469v30c60.367188 0 117.121094 23.507812 159.804688 66.195312zm0 0" fill="#a3efff"/></svg>