<svg height="512pt" viewBox="-24 0 512 512" width="512pt" xmlns="http://www.w3.org/2000/svg"><path d="m369.75 512c-22.664062 0-44.277344-8.097656-61.527344-23.191406l-154.804687-135.734375c-21.234375-18.582031-33.417969-45.433594-33.417969-73.660157v-264.414062c0-3.980469 1.578125-7.792969 4.390625-10.605469 2.8125-2.816406 6.628906-4.394531 10.609375-4.394531h156.839844c8.285156 0 15 6.714844 15 15v205.574219c0 10.527343 4.523437 20.570312 12.402344 27.554687l112.898437 100.117188c18.34375 16.300781 29.429687 38.746094 31.222656 63.207031s-5.902343 48.28125-21.667969 67.070313c-16.324218 19.453124-39.257812 31.242187-64.574218 33.191406-2.464844.191406-4.925782.285156-7.371094.285156zm0 0" fill="#ffb5b5"/><g fill="#ff8088"><path d="m120 72.53125h186.839844v30h-186.839844zm0 0"/><path d="m208.617188 320.929688c0-46.105469-37.511719-83.617188-83.617188-83.617188h-5v42.101562c0 28.230469 12.183594 55.078126 33.417969 73.660157l30.738281 26.953125c15.773438-15.792969 24.460938-36.773438 24.460938-59.097656zm0 0"/><path d="m369.75 512c2.445312 0 4.902344-.09375 7.371094-.285156 25.316406-1.949219 48.25-13.738282 64.574218-33.191406 15.765626-18.789063 23.460938-42.609376 21.667969-67.070313s-12.878906-46.90625-31.222656-63.207031l-.347656-.304688h-6.035157c-.207031 0-.414062.003906-.617187.011719-31.261719 1.289063-60.441406 14.441406-82.175781 37.03125-21.792969 22.65625-33.792969 52.453125-33.792969 83.898437 0 5.027344.3125 10.089844.929687 15.0625v6.433594c16.929688 14.070313 37.792969 21.621094 59.648438 21.621094zm0 0"/></g><path d="m249.75 512c-22.664062 0-44.277344-8.097656-61.523438-23.191406l-154.808593-135.734375c-21.230469-18.582031-33.41406275-45.433594-33.41406275-73.660157l-.00390625-264.414062c0-3.980469 1.578125-7.792969 4.394531-10.605469 2.8125-2.816406 6.628907-4.394531 10.605469-4.394531h156.84375c8.28125 0 15 6.714844 15 15v205.574219c0 10.527343 4.519531 20.570312 12.398438 27.554687l112.898437 100.117188c18.347656 16.300781 29.433594 38.746094 31.226563 63.207031 1.789062 24.460937-5.902344 48.28125-21.671876 67.070313-16.320312 19.453124-39.253906 31.242187-64.574218 33.191406-2.464844.191406-4.921875.285156-7.371094.285156zm0 0" fill="#ffdcd9"/><path d="m312.140625 348.246094-112.898437-100.117188c-7.878907-6.984375-12.398438-17.027344-12.398438-27.554687v-205.574219c0-8.285156-6.714844-15-15-15h-78.421875v405.683594l94.804687 83.125c17.246094 15.09375 38.859376 23.191406 61.527344 23.191406 2.445313 0 4.902344-.09375 7.367188-.285156 25.320312-1.949219 48.253906-13.738282 64.574218-33.191406 15.769532-18.789063 23.464844-42.609376 21.671876-67.070313-1.792969-24.460937-12.878907-46.90625-31.226563-63.207031zm0 0" fill="#ffcac7"/><path d="m0 72.53125h186.84375v30h-186.84375zm0 0" fill="#ffb5b5"/><path d="m93.421875 72.53125h93.421875v30h-93.421875zm0 0" fill="#ff9c9c"/><path d="m88.617188 320.929688c0-46.105469-37.511719-83.617188-83.617188-83.617188h-4.99609375v42.101562c0 28.230469 12.18359375 55.078126 33.41406275 73.660157l30.738281 26.953125c15.773438-15.792969 24.460938-36.773438 24.460938-59.097656zm0 0" fill="#ffb5b5"/><path d="m249.75 512c2.445312 0 4.90625-.09375 7.371094-.285156 25.320312-1.949219 48.253906-13.738282 64.574218-33.191406 15.769532-18.789063 23.460938-42.609376 21.671876-67.070313-1.792969-24.460937-12.878907-46.90625-31.226563-63.207031l-.347656-.304688h-6.035157c-.207031 0-.410156.003906-.617187.011719-31.261719 1.289063-60.441406 14.441406-82.171875 37.03125-21.796875 22.65625-33.796875 52.453125-33.796875 83.898437 0 5.027344.3125 10.089844.929687 15.0625v6.433594c16.929688 14.070313 37.796876 21.621094 59.648438 21.621094zm0 0" fill="#ff9c9c"/></svg>