<svg height="512pt" viewBox="0 0 512 512.00099" width="512pt" xmlns="http://www.w3.org/2000/svg"><path d="m365.75 114.007812c-4.265625 0-8.324219-1.8125-11.171875-4.988281l-75.296875-84.007812c-5.53125-6.167969-5.011719-15.652344 1.15625-21.179688 6.167969-5.527343 15.652344-5.011719 21.179688 1.15625l64.132812 71.546875 64.132812-71.546875c5.527344-6.167969 15.011719-6.6875 21.179688-1.15625 6.167969 5.527344 6.6875 15.011719 1.15625 21.179688l-75.300781 84.007812c-2.84375 3.175781-6.90625 4.988281-11.167969 4.988281zm0 0" fill="#005a63"/><path d="m89.511719 512c-1.152344 0-2.320313-.132812-3.488281-.410156-8.058594-1.917969-13.035157-10.007813-11.117188-18.066406l10-41.996094c1.917969-8.0625 10.007812-13.035156 18.066406-11.121094 8.058594 1.921875 13.035156 10.007812 11.117188 18.066406l-10 42c-1.640625 6.890625-7.792969 11.527344-14.578125 11.527344zm0 0" fill="#553275"/><path d="m422.484375 512c-6.785156 0-12.9375-4.636719-14.578125-11.527344l-10-41.996094c-1.917969-8.058593 3.058594-16.148437 11.117188-18.066406 8.058593-1.921875 16.148437 3.054688 18.066406 11.117188l10 41.996094c1.917968 8.058593-3.058594 16.148437-11.117188 18.066406-1.167968.277344-2.335937.410156-3.488281.410156zm0 0" fill="#553275"/><path d="m105.003906 410c-24.8125 0-45-20.183594-45-44.996094v-175.996094c0-24.8125 20.1875-45 45-45h222.996094c24.8125 0 45 20.1875 45 45v175.996094c0 24.8125-20.1875 44.996094-45 44.996094zm0 0" fill="#fff566"/><path d="m358 259.945312c-18.304688 0-28.128906-5.894531-36.019531-10.628906-6.375-3.824218-10.589844-6.351562-20.585938-6.351562-9.996093 0-14.207031 2.527344-20.582031 6.351562-7.894531 4.734375-17.714844 10.628906-36.019531 10.628906-18.304688 0-28.128907-5.894531-36.019531-10.628906-6.375-3.824218-10.585938-6.351562-20.578126-6.351562-9.996093 0-14.207031 2.527344-20.582031 6.351562-7.890625 4.734375-17.710937 10.628906-36.015625 10.628906-18.304687 0-28.125-5.894531-36.015625-10.628906-6.375-3.824218-10.585937-6.351562-20.582031-6.351562-8.28125 0-15-6.714844-15-15s6.71875-15 15-15c18.304688 0 28.125 5.890625 36.015625 10.628906 6.375 3.824219 10.585937 6.351562 20.582031 6.351562 9.992188 0 14.207032-2.527343 20.582032-6.351562 7.890624-4.738281 17.710937-10.628906 36.015624-10.628906 18.304688 0 28.125 5.890625 36.015626 10.628906 6.375 3.824219 10.585937 6.351562 20.582031 6.351562 9.996093 0 14.207031-2.527343 20.585937-6.351562 7.890625-4.738281 17.710938-10.628906 36.015625-10.628906 18.304688 0 28.128907 5.890625 36.019531 10.628906 6.375 3.824219 10.589844 6.351562 20.585938 6.351562 8.285156 0 15 6.714844 15 15 0 8.28125-6.714844 15-15 15zm0 0" fill="#ff9300"/><path d="m358 342.4375c-18.304688 0-28.128906-5.890625-36.019531-10.625-6.375-3.824219-10.589844-6.355469-20.585938-6.355469-9.996093 0-14.207031 2.527344-20.582031 6.355469-7.894531 4.734375-17.714844 10.625-36.019531 10.625-18.304688 0-28.125-5.890625-36.019531-10.628906-6.375-3.820313-10.585938-6.351563-20.578126-6.351563-9.996093 0-14.207031 2.527344-20.582031 6.351563-7.890625 4.738281-17.710937 10.628906-36.015625 10.628906-18.304687 0-28.125-5.890625-36.015625-10.628906-6.375-3.820313-10.585937-6.351563-20.582031-6.351563-8.28125 0-15-6.714843-15-15 0-8.28125 6.71875-15 15-15 18.304688 0 28.125 5.894531 36.015625 10.628907 6.375 3.824218 10.585937 6.351562 20.582031 6.351562 9.992188 0 14.207032-2.527344 20.582032-6.351562 7.890624-4.734376 17.710937-10.628907 36.015624-10.628907 18.304688 0 28.125 5.894531 36.015626 10.628907 6.375 3.824218 10.585937 6.351562 20.582031 6.351562 9.996093 0 14.207031-2.527344 20.585937-6.351562 7.890625-4.734376 17.710938-10.628907 36.015625-10.628907 18.304688 0 28.128907 5.894531 36.019531 10.628907 6.375 3.824218 10.589844 6.351562 20.585938 6.351562 8.285156 0 15 6.71875 15 15 0 8.285156-6.714844 15-15 15zm0 0" fill="#ff9300"/><path d="m496.996094 84.007812h-481.996094c-8.285156 0-15 6.71875-15 15v355.992188c0 8.285156 6.714844 15 15 15h481.996094c8.285156 0 15-6.714844 15-15v-355.992188c0-8.28125-6.714844-15-15-15zm-138.996094 280.996094c0 16.566406-13.429688 29.996094-30 29.996094h-222.996094c-16.570312 0-30-13.429688-30-29.996094v-175.996094c0-16.566406 13.429688-30 30-30h222.996094c16.570312 0 30 13.433594 30 30zm0 0" fill="#28c1d1"/><path d="m496.996094 84.007812h-240.996094v75h72c16.570312 0 30 13.433594 30 30v175.996094c0 16.566406-13.429688 29.996094-30 29.996094h-72v75h240.996094c8.285156 0 15-6.714844 15-15v-355.992188c0-8.28125-6.714844-15-15-15zm0 0" fill="#00a2b2"/><g fill="#654285"><path d="m438.996094 396.003906h-20.996094c-8.285156 0-15-6.71875-15-15 0-8.285156 6.714844-15 15-15h20.996094c8.285156 0 15 6.714844 15 15 0 8.28125-6.714844 15-15 15zm0 0"/><path d="m438.996094 336.003906h-20.996094c-8.285156 0-15-6.714844-15-15s6.714844-15 15-15h20.996094c8.285156 0 15 6.714844 15 15s-6.714844 15-15 15zm0 0"/><path d="m438.996094 276.003906h-20.996094c-8.285156 0-15-6.714844-15-14.996094 0-8.285156 6.714844-15 15-15h20.996094c8.285156 0 15 6.714844 15 15 0 8.28125-6.714844 14.996094-15 14.996094zm0 0"/></g></svg>