<svg height="512pt" viewBox="0 0 512 512" width="512pt" xmlns="http://www.w3.org/2000/svg"><path d="m512 256c0 46.378906-12.25 90.871094-35.21875 129.78125-6.769531 11.488281-14.480469 22.480469-23.082031 32.898438-5.230469 6.339843-10.800781 12.460937-16.679688 18.339843-39.539062 39.539063-89.71875 64.550781-144.097656 72.351563l-36.921875-18.652344-66.339844-33.507812-127.230468-33.640626c-40.390626-46.53125-62.429688-105.359374-62.429688-167.570312 0-68.378906 80.738281-124.789062 80.738281-124.789062s30.691407-87.902344 51.410157-99.382813c37.472656-20.789063 79.820312-31.828125 123.851562-31.828125 25.308594 0 50.058594 3.640625 73.640625 10.699219 40.148437 11.992187 80.640625 89.992187 80.640625 89.992187s76.449219 37.238282 88.820312 74.660156c8.5 25.667969 12.898438 52.828126 12.898438 80.648438zm0 0" fill="#fff4f4"/><path d="m512 256c0 46.378906-12.25 90.871094-35.21875 129.78125-6.769531 11.488281-14.480469 22.480469-23.082031 32.898438-5.230469 6.339843-10.800781 12.460937-16.679688 18.339843-39.539062 39.539063-89.71875 64.550781-144.097656 72.351563l-36.921875-18.652344v-490.71875c25.308594 0 50.058594 3.640625 73.640625 10.699219 40.148437 11.992187 80.640625 89.992187 80.640625 89.992187s76.449219 37.238282 88.820312 74.660156c8.5 25.667969 12.898438 52.828126 12.898438 80.648438zm0 0" fill="#f3e2dd"/><path d="m499.101562 175.351562c-33.472656-.453124-70.484374 4.839844-107.253906 15.332032l-53.957031-69.894532c10.582031-43.945312 4.214844-75.996093-8.253906-110.089843 40.148437 11.988281 76.929687 33.820312 107.386719 64.277343 28.667968 28.679688 49.710937 62.957032 62.078124 100.375zm0 0" fill="#00c97d"/><path d="m305.410156 130.679688-26.429687 64.660156c-7.691407 0-15.351563.109375-22.980469.339844-94.46875 2.820312-184.289062 23.082031-256 60.320312 0-68.378906 26.628906-132.660156 74.980469-181.019531 17.210937-17.210938 36.449219-31.671875 57.167969-43.152344 40.75 12.023437 83.839843 28.710937 123.851562 56.460937 17.179688 11.921876 33.800781 25.882813 49.410156 42.390626zm0 0" fill="#ffbc1d"/><path d="m278.980469 195.339844c-7.691407 0-15.351563.109375-22.980469.339844v-107.390626c17.179688 11.921876 33.800781 25.882813 49.410156 42.390626zm0 0" fill="#ff7421"/><path d="m349.691406 233.648438c0 99.773437-20.050781 196.78125-56.769531 275.722656-12.132813 1.738281-24.453125 2.628906-36.921875 2.628906-68.378906 0-132.660156-26.628906-181.019531-74.980469-4.359375-4.347656-8.539063-8.839843-12.550781-13.449219 53.460937-76.859374 118.429687-143.648437 193.570312-199.050781 9.71875-7.179687 19.609375-14.160156 29.671875-20.941406zm0 0" fill="#ff637d"/><path d="m349.691406 233.648438c0 99.773437-20.050781 196.78125-56.769531 275.722656-12.132813 1.738281-24.453125 2.628906-36.921875 2.628906v-287.480469c9.71875-7.179687 19.609375-14.160156 29.671875-20.941406zm0 0" fill="#ff3650"/><path d="m476.78125 385.78125c-6.769531 11.488281-14.480469 22.480469-23.082031 32.898438-17.488281-83.109376-54.929688-159.410157-102.179688-207.089844l21.308594-21.121094c26.222656 26.460938 50.371094 61.78125 69.84375 102.140625 14.167969 29.390625 25.578125 60.582031 34.109375 93.171875zm0 0" fill="#d2bfba"/><path d="m333.230469 118.570312c-33.25 0-60.300781 27.050782-60.300781 60.300782s27.050781 60.300781 60.300781 60.300781 60.300781-27.050781 60.300781-60.300781-27.050781-60.300782-60.300781-60.300782zm0 0" fill="#fff4f4"/></svg>