<svg height="512pt" viewBox="0 0 512 512" width="512pt" xmlns="http://www.w3.org/2000/svg"><path d="m512 119.890625c0 12.789063-5.03125 24.808594-14.160156 33.839844-4.539063 4.488281-9.820313 7.96875-15.578125 10.328125-5.75 2.363281-11.980469 3.589844-18.390625 3.589844l-207.871094-.027344-207.859375-.03125c-26.539063 0-48.140625-21.429688-48.140625-47.769532 0-12.789062 5.019531-24.808593 14.160156-33.832031 4.539063-4.488281 9.820313-7.976562 15.578125-10.339843 5.75-2.347657 11.980469-3.589844 18.390625-3.589844l207.871094.03125 207.859375.03125c26.539063.007812 48.140625 21.429687 48.140625 47.769531zm0 0" fill="#fff4f4"/><path d="m512 119.890625c0 12.789063-5.03125 24.808594-14.160156 33.839844-4.539063 4.488281-9.820313 7.96875-15.578125 10.328125-5.75 2.363281-11.980469 3.589844-18.390625 3.589844l-207.871094-.027344v-95.53125l207.859375.03125c26.539063.007812 48.140625 21.429687 48.140625 47.769531zm0 0" fill="#f3e2dd"/><path d="m194.519531 188.109375c0 7.960937-3.25 15.730469-8.917969 21.339844l-21.472656 21.230469c-6.070312 6.011718-12.730468 8.941406-20.347656 8.980468h-8.050781l-15.03125-20-14.96875 20h-7.210938c-7.859375 0-15.640625-3.179687-21.269531-8.75l-21.398438-21.171875c-5.671874-5.597656-8.929687-13.378906-8.929687-21.328125l-.023437-137.160156c0-7.949219 3.25-15.730469 8.921874-21.339844l21.398438-21.160156c5.632812-5.570312 13.402344-8.75 21.339844-8.75h7.140625l15.027343 20 14.972657-20h6.972656c7.90625.0390625 15.6875 3.320312 21.429687 9l21.476563 21.230469c5.671875 5.609375 8.921875 13.390625 8.921875 21.339843zm0 0" fill="#7be6ff"/><g fill="#55b6ff"><path d="m463.441406 51.320312-.050781 137.078126c-.011719 7.941406-3.261719 15.710937-8.929687 21.320312l-21.410157 21.171875c-5.710937 5.640625-13.28125 8.75-21.332031 8.75h-7.078125l-15-20-15 20h-7.019531c-7.890625-.03125-15.652344-3.289063-21.371094-8.941406l-21.460938-21.21875c-5.667968-5.609375-8.917968-13.378907-8.929687-21.332031l-.019531-136.546876c0-7.953124 3.25-15.730468 8.921875-21.339843l21.46875-21.230469c6.078125-6 12.730469-8.9414062 20.347656-8.9804688h8.03125l15.03125 19.9999998 14.96875-19.9999998h7.160156c7.941407 0 15.710938 3.1796878 21.339844 8.7499998l21.410156 21.167969c5.671875 5.609375 8.929688 13.390625 8.921875 21.351562zm0 0"/><path d="m135.730469 239.660156h-30l-.011719-37.738281c0-8.292969 6.710938-15 15-15 8.28125 0 15 6.707031 15 14.988281zm0 0"/><path d="m135.699219 0v37.75c0 8.28125-6.710938 15-15 15-8.277344 0-15-6.710938-15-15v-37.75zm0 0"/></g><path d="m404.640625 239.640625h-30l-.011719-37.71875c0-4.140625 1.679688-7.890625 4.390625-10.601563 2.71875-2.71875 6.46875-4.398437 10.609375-4.398437 8.292969 0 15 6.707031 15 15zm0 0" fill="#57a7ff"/><path d="m404.621094 37.75c0 8.28125-6.722656 15-15 15-8.292969 0-15-6.710938-15-15l-.011719-37.6992188h30zm0 0" fill="#57a7ff"/><path d="m512 392.230469c0 12.789062-5.03125 24.808593-14.160156 33.839843-4.539063 4.488282-9.820313 7.96875-15.578125 10.328126-5.75 2.363281-11.980469 3.589843-18.390625 3.589843l-207.871094-.027343-207.859375-.03125c-26.539063 0-48.140625-21.429688-48.140625-47.769532 0-12.789062 5.019531-24.808594 14.160156-33.832031 4.539063-4.488281 9.820313-7.976563 15.578125-10.339844 5.75-2.347656 11.980469-3.589843 18.390625-3.589843l207.871094.03125 207.859375.03125c26.539063.007812 48.140625 21.429687 48.140625 47.769531zm0 0" fill="#fff4f4"/><path d="m512 392.230469c0 12.789062-5.03125 24.808593-14.160156 33.839843-4.539063 4.488282-9.820313 7.96875-15.578125 10.328126-5.75 2.363281-11.980469 3.589843-18.390625 3.589843l-207.871094-.027343v-95.53125l207.859375.03125c26.539063.007812 48.140625 21.429687 48.140625 47.769531zm0 0" fill="#f3e2dd"/><path d="m194.519531 460.449219c0 7.960937-3.25 15.730469-8.917969 21.339843l-21.472656 21.230469c-6.070312 6.011719-12.730468 8.941407-20.347656 8.980469h-8.050781l-15.03125-20-14.96875 20h-7.210938c-7.859375 0-15.640625-3.179688-21.269531-8.75l-21.398438-21.171875c-5.671874-5.597656-8.929687-13.378906-8.929687-21.328125l-.023437-137.160156c0-7.949219 3.25-15.730469 8.921874-21.339844l21.398438-21.160156c5.632812-5.570313 13.402344-8.75 21.339844-8.75h7.140625l15.027343 20 14.972657-20h6.972656c7.90625.039062 15.6875 3.320312 21.429687 9l21.476563 21.230468c5.671875 5.609376 8.921875 13.390626 8.921875 21.339844zm0 0" fill="#7be6ff"/><path d="m463.441406 323.660156-.050781 137.078125c-.011719 7.941407-3.261719 15.710938-8.929687 21.320313l-21.410157 21.171875c-5.710937 5.640625-13.28125 8.75-21.332031 8.75h-7.078125l-15-20-15 20h-7.019531c-7.890625-.03125-15.652344-3.289063-21.371094-8.941407l-21.460938-21.21875c-5.667968-5.609374-8.917968-13.378906-8.929687-21.332031l-.019531-136.546875c0-7.953125 3.25-15.730468 8.921875-21.339844l21.46875-21.230468c6.078125-6 12.730469-8.941406 20.347656-8.980469h8.03125l15.03125 20 14.96875-20h7.160156c7.941407 0 15.710938 3.179687 21.339844 8.75l21.410156 21.167969c5.671875 5.613281 8.929688 13.390625 8.921875 21.351562zm0 0" fill="#55b6ff"/><path d="m135.730469 512h-30l-.011719-37.738281c0-8.292969 6.710938-15 15-15 8.28125 0 15 6.707031 15 14.988281zm0 0" fill="#55b6ff"/><path d="m135.699219 272.339844v37.75c0 8.28125-6.710938 15-15 15-8.277344 0-15-6.710938-15-15v-37.75zm0 0" fill="#55b6ff"/><path d="m404.640625 511.980469h-30l-.011719-37.71875c0-4.140625 1.679688-7.890625 4.390625-10.601563 2.71875-2.71875 6.46875-4.398437 10.609375-4.398437 8.292969 0 15 6.707031 15 15zm0 0" fill="#57a7ff"/><path d="m404.621094 310.089844c0 8.28125-6.722656 15-15 15-8.292969 0-15-6.710938-15-15l-.011719-37.699219h30zm0 0" fill="#57a7ff"/></svg>