<svg height="512pt" viewBox="0 0 512.00017 512" width="512pt" xmlns="http://www.w3.org/2000/svg"><path d="m503.359375 484.46875c-3.371094 15.953125-17.589844 27.53125-33.820313 27.53125h-137.4375l-76.101562-20-76.101562 20h-137.4375c-16.230469 0-30.449219-11.578125-33.820313-27.53125-9.488281-45.027344-10.449219-79.359375-6.320313-107.660156l62.699219-75.417969-1.257812-66.269531c3.597656-8.320313 6.929687-17.140625 9.828125-26.691406 19.53125-64.25 3-129.300782-8.589844-162.359376-3.710938-10.570312-2.050781-22.339843 4.441406-31.480468 6.46875-9.140625 17.007813-14.589844 28.191406-14.589844h316.738282c11.179687 0 21.71875 5.449219 28.1875 14.589844 6.492187 9.140625 8.152344 20.910156 4.441406 31.480468-11.589844 33.058594-28.121094 98.109376-8.589844 162.359376 2.898438 9.550781 6.230469 18.371093 9.828125 26.691406l.121094 69.4375 61.320313 72.25c4.128906 28.300781 3.167968 62.632812-6.320313 107.660156zm0 0" fill="#ffdfc2"/><path d="m503.359375 484.46875c-3.371094 15.953125-17.589844 27.53125-33.820313 27.53125h-137.4375l-76.101562-20v-492h158.371094c11.179687 0 21.71875 5.449219 28.1875 14.589844 6.492187 9.140625 8.152344 20.910156 4.441406 31.480468-11.589844 33.058594-28.121094 98.109376-8.589844 162.359376 2.898438 9.550781 6.230469 18.371093 9.828125 26.691406l.121094 69.4375 61.320313 72.25c4.128906 28.300781 3.167968 62.632812-6.320313 107.660156zm0 0" fill="#ffbd83"/><path d="m509.679688 376.808594c-2.910157-.148438-5.832032-.21875-8.742188-.21875-41.730469 0-82.027344 15.070312-113.46875 42.441406-28.039062 24.398438-47.410156 57.070312-55.371094 92.96875h-152.199218c-7.957032-35.898438-27.328126-68.570312-55.367188-92.96875-31.441406-27.371094-71.742188-42.441406-113.472656-42.441406-2.910156 0-5.828125.070312-8.738282.21875 5.789063-39.558594 21.519532-67.308594 37.78125-95.976563 8.128907-14.332031 16.4375-28.992187 23.660157-45.710937 61.648437 21.109375 126.148437 31.800781 192.238281 31.800781s130.589844-10.691406 192.238281-31.800781c7.21875 16.71875 15.53125 31.378906 23.660157 45.710937 16.261718 28.667969 31.992187 56.417969 37.78125 95.976563zm0 0" fill="#fff4f4"/><path d="m271 205.988281v21.453125c0 8.289063-6.71875 15-15 15s-15-6.710937-15-15v-21.453125c0-8.289062 6.71875-15 15-15s15 6.710938 15 15zm0 0" fill="#ffbd83"/><path d="m256 242.441406v-51.453125c8.28125 0 15 6.710938 15 15v21.453125c0 8.289063-6.71875 15-15 15zm0 0" fill="#f2a064"/><path d="m509.679688 376.808594c-2.910157-.148438-5.832032-.21875-8.742188-.21875-41.730469 0-82.027344 15.070312-113.46875 42.441406-28.039062 24.398438-47.410156 57.070312-55.371094 92.96875h-76.097656v-245.078125c66.089844 0 130.589844-10.691406 192.238281-31.800781 7.21875 16.71875 15.53125 31.378906 23.660157 45.710937 16.261718 28.667969 31.992187 56.417969 37.78125 95.976563zm0 0" fill="#f3e2dd"/></svg>