<svg height="512pt" viewBox="0 -76 512.00025 512" width="512pt" xmlns="http://www.w3.org/2000/svg"><path d="m510.761719 186.550781c-19.75 50.597657-53.96875 93.800781-98.960938 124.910157-45.898437 31.757812-99.769531 48.539062-155.800781 48.539062s-109.902344-16.78125-155.800781-48.539062c-44.992188-31.109376-79.210938-74.3125-98.960938-124.910157-1.652343-4.21875-1.652343-8.878906 0-13.101562 19.75-50.597657 53.96875-93.800781 98.960938-124.910157 45.898437-31.757812 99.769531-48.539062 155.800781-48.539062s109.902344 16.78125 155.800781 48.539062c44.992188 31.109376 79.210938 74.3125 98.960938 124.910157 1.652343 4.222656 1.652343 8.882812 0 13.101562zm0 0" fill="#fff4f4"/><path d="m510.761719 186.550781c-19.75 50.597657-53.96875 93.800781-98.960938 124.910157-45.898437 31.757812-99.769531 48.539062-155.800781 48.539062v-360c56.03125 0 109.902344 16.78125 155.800781 48.539062 44.992188 31.109376 79.210938 74.3125 98.960938 124.910157 1.652343 4.222656 1.652343 8.882812 0 13.101562zm0 0" fill="#f3e2dd"/><path d="m410.484375 180c0 85.179688-69.304687 154.488281-154.484375 154.488281s-154.480469-69.308593-154.480469-154.488281 69.300781-154.488281 154.480469-154.488281 154.484375 69.308593 154.484375 154.488281zm0 0" fill="#7be6ff"/><path d="m410.484375 180c0 85.179688-69.304687 154.488281-154.484375 154.488281v-308.976562c85.179688 0 154.484375 69.308593 154.484375 154.488281zm0 0" fill="#55b6ff"/><path d="m353.25 198.640625c-8.738281 45.71875-49.027344 80.378906-97.25 80.378906-54.589844 0-99.019531-44.429687-99.019531-99.019531 0-53.859375 43.230469-97.808594 96.808593-98.988281l2.210938 2.609375zm0 0" fill="#535f64"/><path d="m353.25 198.640625c-8.738281 45.71875-49.027344 80.378906-97.25 80.378906v-195.398437zm0 0" fill="#3e494c"/><path d="m355.015625 180c0 6.367188-.605469 12.609375-1.765625 18.640625-4.285156.179687-8.761719.179687-10.214844.179687-50.925781 0-92.363281-41.425781-92.363281-92.355468 0-8.035156 1.074219-17.636719 3.113281-25.457032.738282-.015624 1.476563-.027343 2.214844-.027343 54.59375.003906 99.015625 44.425781 99.015625 99.019531zm0 0" fill="#fff"/></svg>