<svg height="512pt" viewBox="0 0 512 512" width="512pt" xmlns="http://www.w3.org/2000/svg"><path d="m512 220.109375v223.289063c0 37.820312-30.789062 68.601562-68.640625 68.601562h-374.71875c-37.851563 0-68.640625-30.78125-68.640625-68.601562v-223.378907c0-8.449219 3.789062-16.308593 10.398438-21.578125 6.613281-5.269531 15.132812-7.203125 23.371093-5.3125l3.902344.890625c21.078125 4.839844 42.65625 8.570313 64.136719 11.089844l155.191406-.097656 155.359375-.113281c22.019531-2.648438 44.128906-6.570313 65.71875-11.648438 8.261719-1.941406 16.8125-.03125 23.460937 5.238281 6.652344 5.261719 10.460938 13.140625 10.460938 21.621094zm0 0" fill="#ff637d"/><path d="m512 220.109375v223.289063c0 37.820312-30.789062 68.601562-68.640625 68.601562h-186.359375v-306.988281l155.359375-.113281c22.019531-2.648438 44.128906-6.570313 65.71875-11.648438 8.261719-1.941406 16.8125-.03125 23.460937 5.238281 6.652344 5.261719 10.460938 13.140625 10.460938 21.621094zm0 0" fill="#ff3650"/><path d="m401.078125 264.101562c-19.738281 22.699219-30.609375 51.308594-30.609375 80.558594v26.261719c0 35.796875-29.148438 64.9375-64.980469 64.9375-13.039062 0-23.660156-10.609375-23.660156-23.648437v-92.769532c0-13.671875-11.136719-24.800781-24.828125-24.800781s-24.828125 11.128906-24.828125 24.800781v92.769532c0 13.039062-10.621094 23.648437-23.671875 23.648437-35.820312 0-64.96875-29.140625-64.96875-64.9375v-26.261719c0-29.640625-10.730469-58.089844-30.203125-80.089844-4.957031-5.609374-8.847656-11.660156-12.316406-17.371093-3.890625-6.398438-8.691407-20.769531-9.613281-23.578125l-.167969-.589844c-2.199219-8.402344-3.308594-17.089844-3.308594-25.839844.027344-55.210937 44.96875-100.953125 100.179687-101.953125 21.078126-.359375 41.410157 5.601563 58.820313 17.3125 3.058594 2.058594 6.566406 3.089844 10.078125 3.089844 3.5 0 7.019531-1.03125 10.078125-3.089844 17.082031-11.492187 37.050781-17.460937 57.710937-17.320312 25.492188.191406 50.140626 10.460937 69.402344 28.929687 19.269532 18.480469 30.558594 42.660156 31.769532 68.101563 1.25 26.4375-7.582032 51.949219-24.882813 71.839843zm0 0" fill="#fff4f4"/><g fill="#7be6ff"><path d="m94.109375 67.019531c0 8.28125-6.71875 15-15 15h-17.058594v17.03125c0 8.277344-6.710937 15-15 15-8.28125 0-15-6.722656-15-15v-17.03125h-17.050781c-8.28125 0-15-6.71875-15-15 0-8.289062 6.71875-15 15-15h17.050781v-17.03125c0-8.289062 6.71875-15 15-15 8.289063 0 15 6.710938 15 15v17.03125h17.058594c8.28125 0 15 6.710938 15 15zm0 0"/><path d="m511.820312 89.929688c0 8.289062-6.71875 15-15 15h-16.941406l.132813 17.160156c.066406 8.289062-6.601563 15.050781-14.882813 15.121094h-.117187c-.230469 0-.460938-.011719-.691407-.019532-7.910156-.351562-14.242187-6.851562-14.308593-14.871094l-.132813-17.390624h-18.058594c-8.28125 0-15-6.710938-15-15 0-8.28125 6.71875-15 15-15h17.828126l-.128907-16.667969c-.058593-8.25 6.550781-15 14.800781-15.113281h.199219c8.242188 0 14.941407 6.640624 15 14.882812l.128907 16.898438h17.171874c8.28125 0 15 6.71875 15 15zm0 0"/><path d="m295.511719 38.488281c0 8.28125-6.722657 15-15 15h-8.511719v8.492188c0 8.28125-6.71875 15-15 15s-15-6.71875-15-15v-8.492188h-8.511719c-8.277343 0-15-6.71875-15-15 0-8.289062 6.722657-15 15-15h8.511719v-8.488281c0-8.28125 6.71875-15 15-15s15 6.71875 15 15v8.488281h8.511719c8.277343 0 15 6.710938 15 15zm0 0"/></g><path d="m257 76.980469v-76.980469c8.28125 0 15 6.71875 15 15v8.488281h8.511719c8.277343 0 15 6.710938 15 15 0 8.28125-6.722657 15-15 15h-8.511719v8.492188c0 8.28125-6.71875 15-15 15zm0 0" fill="#55b6ff"/><path d="m401.078125 264.101562c-19.738281 22.699219-30.609375 51.308594-30.609375 80.558594v26.261719c0 35.796875-29.148438 64.9375-64.980469 64.9375-13.039062 0-23.660156-10.609375-23.660156-23.648437v-92.769532c0-13.671875-11.136719-24.800781-24.828125-24.800781v-179c3.5 0 7.019531-1.03125 10.078125-3.089844 17.082031-11.492187 37.050781-17.460937 57.710937-17.320312 25.492188.191406 50.140626 10.460937 69.402344 28.929687 19.269532 18.480469 30.558594 42.660156 31.769532 68.101563 1.25 26.4375-7.582032 51.949219-24.882813 71.839843zm0 0" fill="#f3e2dd"/><path d="m94.109375 67.019531c0 8.28125-6.71875 15-15 15h-17.058594v17.03125c0 8.277344-6.710937 15-15 15v-94.0625c8.289063 0 15 6.710938 15 15v17.03125h17.058594c8.28125 0 15 6.710938 15 15zm0 0" fill="#55b6ff"/><path d="m511.820312 89.929688c0 8.289062-6.71875 15-15 15h-16.941406l.132813 17.160156c.066406 8.289062-6.601563 15.050781-14.882813 15.121094h-.117187c-.230469 0-.460938-.011719-.691407-.019532v-94.042968h.199219c8.242188 0 14.941407 6.640624 15 14.882812l.128907 16.898438h17.171874c8.28125 0 15 6.71875 15 15zm0 0" fill="#55b6ff"/></svg>