<svg height="512pt" viewBox="0 0 512 512" width="512pt" xmlns="http://www.w3.org/2000/svg"><path d="m511.976562 244.03125c-.277343-5.242188-3.078124-10.042969-7.5-12.851562l-38.308593-24.371094 23.101562-39.160156c2.667969-4.519532 2.988281-10.070313.859375-14.867188-2.140625-4.792969-6.480468-8.269531-11.621094-9.3125l-44.449218-8.980469 7.578125-44.859375c.871093-5.179687-.828125-10.480468-4.539063-14.1875-3.71875-3.710937-9.019531-5.402344-14.191406-4.519531l-44.667969 7.578125-8.96875-44.609375c-1.011719-5.0625-4.410156-9.378906-9.101562-11.550781-4.679688-2.167969-10.167969-1.96875-14.679688.53125l-45.839843 25.339844-31.101563-41.679688c-2.96875-3.980469-7.628906-6.390625-12.578125-6.5195312-.140625-.0117188-.289062-.0117188-.441406-.0117188h-.1875c-5.179688.0585938-10.0625 2.621094-13.0625 6.851562l-26.269532 37.070313-37.730468-25.140625c-4.367188-2.910156-9.910156-3.53125-14.808594-1.640625-4.910156 1.878906-8.609375 6.039063-9.910156 11.128906l-11.269532 44.039063-44.21875-9.917969c-5.121093-1.152344-10.511718.257813-14.410156 3.78125-3.902344 3.507813-5.871094 8.71875-5.269531 13.929687l5.21875 45.1875-44.832031 6.632813c-5.1875.769531-9.71875 4.007813-12.097656 8.6875-2.390626 4.671875-2.359376 10.242187.070312 14.890625l21.019531 40.320312-39.519531 22.328126c-4.5625 2.570312-7.609375 7.222656-8.1601562 12.441406-.5507818 5.210937 1.4687502 10.390625 5.3984372 13.871094l34.039063 30.078124-28.929688 35.050782c-3.339844 4.050781-4.519531 9.480468-3.167968 14.550781 1.359374 5.058594 5.097656 9.179687 10.019531 11.019531l42.5 15.839844-14.46875 43.109375c-1.679688 4.980469-.832031 10.492187 2.25 14.730469 3.058593 4.199218 7.957031 6.691406 13.128906 6.691406h.179687l45.320313-.480469 1.890625 45.429688c.210938 5.25 2.980469 10.089843 7.378906 12.960937 4.410156 2.859375 9.949219 3.410156 14.839844 1.46875l42.109375-16.730468 17.992187 41.710937c2.089844 4.828125 6.398438 8.359375 11.539063 9.460937 5.140625 1.089844 10.519531-.390624 14.378906-3.953124l33.339844-30.75 6.140625 6.292968 25.550781 26.160156c3.078125 3.160157 7.289063 4.898438 11.628907 4.898438.839843 0 1.679687-.058594 2.519531-.199219 5.191406-.820312 9.679687-4.121093 12.019531-8.839843l20.152344-40.699219 41.179687 18.910156c4.769531 2.1875 10.339844 1.9375 14.890625-.691406 4.550782-2.628907 7.558594-7.320313 8.050782-12.550781l4.269531-45.269532 45.21875 2.859375c5.238281.332031 10.328125-1.898437 13.640625-5.980469 3.300781-4.078124 4.429687-9.527343 3.019531-14.589843l-12.199219-43.820313 43.257813-13.578125c5.011719-1.570312 8.960937-5.492187 10.589843-10.480469 1.621094-4.992187.722657-10.480468-2.398437-14.691406l-27.058594-36.527344 35.558594-28.25c4.109375-3.261718 6.390625-8.332031 6.117187-13.570312zm0 0" fill="#fff543"/><path d="m505.859375 257.601562-35.5625 28.25 27.0625 36.527344c3.117187 4.210938 4.019531 9.699219 2.398437 14.691406-1.628906 4.988282-5.578124 8.910157-10.589843 10.480469l-43.261719 13.578125 12.203125 43.820313c1.410156 5.0625.277344 10.511719-3.019531 14.589843-3.3125 4.082032-8.402344 6.3125-13.640625 5.980469l-45.222657-2.859375-4.269531 45.269532c-.488281 5.230468-3.5 9.921874-8.050781 12.550781-4.546875 2.628906-10.117188 2.878906-14.886719.691406l-41.179687-18.910156-20.152344 40.699219c-2.339844 4.71875-6.828125 8.019531-12.019531 8.839843-.839844.140625-1.679688.199219-2.519531.199219-4.339844 0-8.550782-1.738281-11.628907-4.898438l-25.550781-26.160156v-480.9296872c4.949219.1289062 9.609375 2.5390622 12.578125 6.5195312l31.101563 41.679688 45.839843-25.339844c4.511719-2.5 10-2.699219 14.679688-.53125 4.691406 2.171875 8.089843 6.488281 9.101562 11.550781l8.96875 44.609375 44.667969-7.578125c5.171875-.882813 10.472656.808594 14.191406 4.519531 3.710938 3.707032 5.410156 9.007813 4.539063 14.1875l-7.578125 44.859375 44.449218 8.980469c5.140626 1.042969 9.480469 4.519531 11.621094 9.3125 2.128906 4.796875 1.808594 10.347656-.859375 14.867188l-23.101562 39.160156 38.308593 24.371094c4.421876 2.808593 7.222657 7.609374 7.5 12.851562.273438 5.238281-2.007812 10.308594-6.117187 13.570312zm0 0" fill="#ffce00"/><path d="m256 112.148438c-79.320312 0-143.851562 64.53125-143.851562 143.851562s64.53125 143.851562 143.851562 143.851562 143.847656-64.53125 143.847656-143.851562-64.527344-143.851562-143.847656-143.851562zm0 0" fill="#ffbc1d"/><path d="m399.847656 256c0 79.320312-64.527344 143.851562-143.847656 143.851562v-287.703124c79.320312 0 143.847656 64.53125 143.847656 143.851562zm0 0" fill="#ff7421"/></svg>