<svg height="512pt" viewBox="0 0 512 512" width="512pt" xmlns="http://www.w3.org/2000/svg"><path d="m497.558594 256c0 133.339844-108.039063 241.460938-241.359375 241.570312h-.199219c-133.421875 0-241.570312-108.160156-241.570312-241.570312s108.148437-241.558594 241.570312-241.558594h.199219c133.320312.109375 241.359375 108.21875 241.359375 241.558594zm0 0" fill="#fff"/><path d="m497.558594 256c0 133.339844-108.039063 241.460938-241.359375 241.570312v-483.128906c133.320312.109375 241.359375 108.21875 241.359375 241.558594zm0 0" fill="#fff4f4"/><path d="m381.96875 275.039062-30 50.03125h-205.269531c-27.589844 0-50.027344-22.449218-50.027344-50.039062s22.4375-50.03125 50.027344-50.03125h205.269531zm0 0" fill="#fff4f4"/><path d="m381.96875 275.039062-30 50.03125h-95.96875v-100.070312h95.96875zm0 0" fill="#f3e2dd"/><path d="m372.367188 204.828125c8.285156 0 15-6.714844 15-15v-36.09375c0-8.285156-6.714844-15-15-15-8.28125 0-15 6.714844-15 15v36.09375c0 8.285156 6.71875 15 15 15zm0 0" fill="#d2bfba"/><path d="m322.535156 204.828125c8.285156 0 15-6.714844 15-15v-65.625c0-8.28125-6.714844-15-15-15s-15 6.71875-15 15v65.625c0 8.285156 6.714844 15 15 15zm0 0" fill="#d2bfba"/><path d="m437.019531 74.980469c-48.308593-48.300781-112.507812-74.9296878-180.820312-74.980469h-.199219c-68.378906 0-132.671875 26.628906-181.019531 74.980469-48.351563 48.347656-74.980469 112.640625-74.980469 181.019531s26.628906 132.671875 74.980469 181.019531c48.347656 48.351563 112.640625 74.980469 181.019531 74.980469h.199219c68.3125-.050781 132.511719-26.679688 180.820312-74.980469 48.351563-48.347656 74.980469-112.640625 74.980469-181.019531s-26.628906-132.671875-74.980469-181.019531zm-180.820312 407.019531h-.199219c-60.371094 0-117.121094-23.511719-159.808594-66.191406-42.691406-42.6875-66.191406-99.4375-66.191406-159.808594 0-56.679688 20.71875-110.171875 58.578125-151.828125l319.242187 319.238281c-41.601562 37.828125-95.011718 58.539063-151.621093 58.589844zm172.472656-80.160156-172.472656-172.46875-146.039063-146.042969c40.738282-34.519531 91.839844-53.328125 145.839844-53.328125h.199219c60.289062.050781 116.972656 23.558594 159.601562 66.199219 42.6875 42.679687 66.199219 99.441406 66.199219 159.800781 0 54-18.808594 105.101562-53.328125 145.839844zm0 0" fill="#ff637d"/><path d="m512 256c0 68.378906-26.628906 132.671875-74.980469 181.019531-48.308593 48.300781-112.507812 74.929688-180.820312 74.980469v-30c56.609375-.050781 110.019531-20.761719 151.621093-58.589844l-151.621093-151.621094v-42.417968l172.472656 172.46875c34.519531-40.738282 53.328125-91.839844 53.328125-145.839844 0-60.359375-23.511719-117.121094-66.199219-159.800781-42.628906-42.640625-99.3125-66.148438-159.601562-66.199219v-30c68.3125.0507812 132.511719 26.679688 180.820312 74.980469 48.351563 48.347656 74.980469 112.640625 74.980469 181.019531zm0 0" fill="#ff3650"/><path d="m415.730469 275.03125c0 27.589844-22.441407 50.039062-50.03125 50.039062h-13.730469v-100.070312h13.730469c27.589843 0 50.03125 22.441406 50.03125 50.03125zm0 0" fill="#ffbc1d"/></svg>