<svg height="512pt" viewBox="0 0 512 512" width="512pt" xmlns="http://www.w3.org/2000/svg"><path d="m454.070312 262.191406h-407.121093l27.972656-63.691406v-163.621094c0-19.230468 15.636719-34.878906 34.878906-34.878906h97.480469c19.238281 0 34.878906 15.648438 34.878906 34.878906v116.441406c0 6.578126 3.851563 12.640626 9.789063 15.449219l4.050781 1.910157zm0 0" fill="#ffdfc2"/><path d="m454.070312 262.191406h-198.070312v-93.511718zm0 0" fill="#ffbd83"/><path d="m481 292v151.339844c0 37.859375-30.800781 68.660156-68.660156 68.660156h-312.679688c-37.859375 0-68.660156-30.800781-68.660156-68.660156v-151.339844zm0 0" fill="#00e87b"/><path d="m481 292v151.339844c0 37.859375-30.800781 68.660156-68.660156 68.660156h-156.339844v-220zm0 0" fill="#00c97d"/><path d="m512 277.101562c0 24.757813-20.140625 44.898438-44.910156 44.898438h-422.191406c-24.757813 0-44.898438-20.140625-44.898438-44.898438 0-24.773437 20.140625-44.910156 44.898438-44.910156h422.191406c24.769531 0 44.910156 20.136719 44.910156 44.910156zm0 0" fill="#7a8388"/><path d="m465.070312 161.117188c-4.328124-4.113282-6.714843-9.527344-6.714843-15.238282 0-5.710937 2.386719-11.125 6.714843-15.238281 10.34375-9.835937 16.039063-22.96875 16.039063-36.980469 0-14.011718-5.695313-27.148437-16.039063-36.980468-6.003906-5.707032-15.5-5.46875-21.207031.535156s-5.46875 15.5.535157 21.207031c4.328124 4.113281 6.710937 9.527344 6.710937 15.238281 0 5.710938-2.382813 11.125-6.710937 15.238282-10.34375 9.832031-16.042969 22.964843-16.042969 36.980468s5.699219 27.148438 16.042969 36.980469c2.902343 2.757813 6.621093 4.128906 10.332031 4.128906 3.96875 0 7.925781-1.5625 10.875-4.664062 5.707031-6.003907 5.46875-15.5-.535157-21.207031zm0 0" fill="#f3e2dd"/><path d="m402.929688 130.308594c10.34375-9.832032 16.039062-22.964844 16.039062-36.980469 0-14.011719-5.695312-27.144531-16.039062-36.980469-4.328126-4.113281-6.714844-9.523437-6.714844-15.238281 0-5.710937 2.386718-11.121094 6.714844-15.238281 6.003906-5.707032 6.242187-15.199219.535156-21.207032-5.710938-6.003906-15.203125-6.242187-21.207032-.535156-10.34375 9.835938-16.042968 22.96875-16.042968 36.980469 0 14.015625 5.699218 27.148437 16.042968 36.980469 4.328126 4.113281 6.710938 9.527344 6.710938 15.238281s-2.382812 11.125-6.710938 15.238281c-10.34375 9.832032-16.042968 22.964844-16.042968 36.980469s5.699218 27.148437 16.042968 36.980469c2.902344 2.757812 6.621094 4.128906 10.332032 4.128906 3.96875 0 7.925781-1.5625 10.875-4.664062 5.707031-6.003907 5.46875-15.5-.535156-21.207032-4.328126-4.113281-6.714844-9.527344-6.714844-15.238281s2.386718-11.121094 6.714844-15.238281zm0 0" fill="#f3e2dd"/><path d="m512 277.101562c0 24.757813-20.140625 44.898438-44.910156 44.898438h-211.089844v-89.808594h211.089844c24.769531 0 44.910156 20.136719 44.910156 44.910156zm0 0" fill="#535f64"/></svg>