<svg height="512pt" viewBox="0 0 512 512" width="512pt" xmlns="http://www.w3.org/2000/svg"><path d="m512 482.089844c0 8.261718-3.351562 15.738281-8.761719 21.148437-5.410156 5.410157-12.882812 8.761719-21.144531 8.761719h-452.1875c-16.511719 0-29.90625-13.390625-29.90625-29.910156 0-8.25 3.351562-15.730469 8.761719-21.140625 5.410156-5.410157 12.882812-8.757813 21.144531-8.757813h452.1875c16.511719 0 29.90625 13.386719 29.90625 29.898438zm0 0" fill="#7a8388"/><path d="m428.28125 250.453125h-26.164062c-8.285157 0-15.003907 6.714844-15.003907 15s6.71875 15 15.003907 15h26.164062c13.097656 0 23.753906 10.652344 23.753906 23.75s-10.652344 23.75-23.753906 23.75h-34.6875c-8.285156 0-15 6.714844-15 15s6.714844 15 15 15h34.6875c29.644531 0 53.761719-24.113281 53.761719-53.75s-24.117188-53.75-53.761719-53.75zm0 0" fill="#535f64"/><path d="m417.121094 265.449219v28.890625c0 12.289062-1.4375 24.582031-4.289063 36.539062-8.183593 34.390625-27.976562 65.410156-55.722656 87.320313-27.746094 21.921875-62.5 33.992187-97.867187 33.992187h-66.496094c-35.363282 0-70.121094-12.070312-97.867188-33.992187-27.753906-21.910157-47.539062-52.929688-55.722656-87.320313-2.847656-11.957031-4.289062-24.25-4.289062-36.539062v-28.890625c0-26.710938 21.734374-48.4375 48.449218-48.4375h127.675782l15.003906 20 15-20h127.675781c26.714844 0 48.449219 21.726562 48.449219 48.4375zm0 0" fill="#00e87b"/><path d="m417.121094 265.449219v28.890625c0 12.289062-1.4375 24.582031-4.289063 36.539062-8.183593 34.390625-27.976562 65.410156-55.722656 87.320313-27.746094 21.921875-62.5 33.992187-97.867187 33.992187h-33.246094v-215.179687l15-20h127.675781c26.714844 0 48.449219 21.726562 48.449219 48.4375zm0 0" fill="#00c97d"/><path d="m301.835938 161.117188c-4.328126-4.113282-6.714844-9.527344-6.714844-15.238282 0-5.710937 2.386718-11.125 6.714844-15.238281 10.347656-9.832031 16.042968-22.964844 16.042968-36.980469s-5.695312-27.148437-16.042968-36.980468c-6.007813-5.707032-15.5-5.46875-21.210938.535156s-5.46875 15.5.535156 21.207031c4.328125 4.113281 6.714844 9.527344 6.714844 15.238281 0 5.710938-2.386719 11.125-6.714844 15.238282-10.347656 9.835937-16.042968 22.96875-16.042968 36.980468 0 14.015625 5.695312 27.148438 16.042968 36.980469 2.90625 2.761719 6.621094 4.128906 10.335938 4.128906 3.96875 0 7.925781-1.5625 10.875-4.664062 5.707031-6.003907 5.46875-15.5-.535156-21.207031zm0 0" fill="#f3e2dd"/><path d="m236.324219 160.789062c6.011719 5.699219 6.253906 15.199219.542969 21.199219-2.953126 3.101563-6.914063 4.671875-10.875 4.671875-3.710938 0-7.429688-1.371094-10.332032-4.128906-10.351562-9.839844-16.050781-22.972656-16.050781-36.980469 0-14.019531 5.699219-27.152343 16.050781-36.980469 4.324219-4.121093 6.710938-9.53125 6.710938-15.242187 0-5.707031-2.386719-11.117187-6.710938-15.238281-10.351562-9.828125-16.050781-22.96875-16.050781-36.980469 0-14.007813 5.699219-27.148437 16.050781-36.980469 2.902344-2.757812 6.621094-4.128906 10.332032-4.128906 3.960937 0 7.921874 1.570312 10.875 4.671875 5.710937 6 5.46875 15.488281-.542969 21.199219-4.320313 4.117187-6.710938 9.527344-6.710938 15.238281s2.390625 11.121094 6.710938 15.242187c10.355469 9.828126 16.054687 22.957032 16.054687 36.976563 0 14.011719-5.699218 27.152344-16.054687 36.980469-4.320313 4.113281-6.710938 9.53125-6.710938 15.242187 0 5.710938 2.390625 11.121094 6.710938 15.238281zm0 0" fill="#fff4f4"/><path d="m168.316406 120.417969c-2.710937-2.578125-4.203125-5.941407-4.203125-9.480469 0-3.535156 1.492188-6.902344 4.203125-9.476562 6.003906-5.710938 6.246094-15.203126.535156-21.207032-5.710937-6.007812-15.207031-6.246094-21.210937-.539062-8.726563 8.296875-13.535156 19.386718-13.535156 31.222656 0 11.839844 4.808593 22.925781 13.535156 31.222656 2.710937 2.578125 4.203125 5.945313 4.203125 9.480469s-1.492188 6.902344-4.203125 9.476563c-6.003906 5.710937-6.242187 15.203124-.535156 21.207031 2.949219 3.101562 6.910156 4.667969 10.875 4.667969 3.714843 0 7.433593-1.371094 10.335937-4.128907 8.726563-8.296875 13.535156-19.382812 13.535156-31.222656s-4.808593-22.929687-13.535156-31.222656zm0 0" fill="#fff4f4"/><path d="m240.996094 217.011719v59.089843c0 8.277344-6.71875 15-15.003906 15-8.289063 0-15-6.722656-15-15v-59.089843zm0 0" fill="#7a8388"/><path d="m240.996094 217.011719v59.089843c0 8.277344-6.71875 15-15.003906 15v-74.089843zm0 0" fill="#535f64"/><path d="m277.894531 277.679688v35.78125c0 28.578124-23.253906 51.828124-51.839843 51.828124h-35.777344c-8.933594 0-16.191406-7.257812-16.191406-16.179687v-35.78125c0-28.578125 23.253906-51.828125 51.839843-51.828125h35.785157c8.921874 0 16.183593 7.261719 16.183593 16.179688zm0 0" fill="#fff543"/><path d="m236.867188 181.988281c-2.953126 3.101563-6.914063 4.671875-10.875 4.671875v-186.660156c3.960937 0 7.921874 1.570312 10.875 4.671875 5.710937 6 5.46875 15.488281-.542969 21.199219-4.320313 4.117187-6.710938 9.527344-6.710938 15.238281s2.390625 11.121094 6.710938 15.242187c10.355469 9.828126 16.054687 22.957032 16.054687 36.976563 0 14.011719-5.699218 27.152344-16.054687 36.980469-4.320313 4.113281-6.710938 9.53125-6.710938 15.242187 0 5.710938 2.390625 11.121094 6.710938 15.238281 6.011719 5.699219 6.253906 15.199219.542969 21.199219zm0 0" fill="#f3e2dd"/><path d="m226.054688 365.289062h-.0625v-103.789062h35.71875c8.921874 0 16.183593 7.261719 16.183593 16.179688v35.78125c0 28.578124-23.253906 51.828124-51.839843 51.828124zm0 0" fill="#ffbc1d"/><path d="m512 482.089844c0 8.261718-3.351562 15.738281-8.761719 21.148437-5.410156 5.410157-12.882812 8.761719-21.144531 8.761719h-256.101562v-59.808594h256.101562c16.511719 0 29.90625 13.386719 29.90625 29.898438zm0 0" fill="#535f64"/></svg>