<svg height="512pt" viewBox="-55 0 512 512" width="512pt" xmlns="http://www.w3.org/2000/svg"><path d="m402 78.921875v385.738281c0 26.101563-21.261719 47.339844-47.390625 47.339844h-307.21875c-26.128906 0-47.390625-21.238281-47.390625-47.339844v-385.738281c0-26.113281 21.261719-47.34375 47.390625-47.34375h307.21875c26.128906 0 47.390625 21.230469 47.390625 47.34375zm0 0" fill="#fff4f4"/><path d="m402 78.921875v385.738281c0 26.101563-21.261719 47.339844-47.390625 47.339844h-153.609375v-480.421875h153.609375c26.128906 0 47.390625 21.230469 47.390625 47.34375zm0 0" fill="#f3e2dd"/><path d="m272.691406 46.511719v.128906c0 25.648437-20.863281 46.507813-46.511718 46.507813h-50.359376c-25.648437 0-46.511718-20.859376-46.511718-46.507813v-.128906c0-25.652344 20.863281-46.511719 46.511718-46.511719h50.359376c25.648437 0 46.511718 20.859375 46.511718 46.511719zm0 0" fill="#fff543"/><path d="m75.933594 211.542969c4.078125 4.078125 9.4375 6.117187 14.800781 6.117187 5.359375 0 10.71875-2.039062 14.800781-6.121094l34.675782-34.675781c5.859374-5.855469 5.859374-15.351562 0-21.210937-5.855469-5.859375-15.355469-5.859375-21.214844 0l-28.261719 28.261718-8.832031-8.828124c-5.855469-5.855469-15.351563-5.855469-21.210938 0-5.859375 5.859374-5.859375 15.355468 0 21.214843zm0 0" fill="#00e87b"/><path d="m118.996094 261.335938-28.265625 28.261718-8.828125-8.828125c-5.855469-5.859375-15.355469-5.859375-21.210938 0-5.859375 5.859375-5.859375 15.355469 0 21.210938l15.238282 15.242187c4.082031 4.082032 9.441406 6.121094 14.800781 6.121094s10.722656-2.039062 14.804687-6.121094l34.675782-34.675781c5.855468-5.859375 5.855468-15.355469 0-21.214844-5.859376-5.855469-15.355469-5.855469-21.214844.003907zm0 0" fill="#00e87b"/><path d="m118.996094 361.640625-28.265625 28.261719-8.828125-8.828125c-5.855469-5.855469-15.355469-5.855469-21.210938 0-5.859375 5.859375-5.859375 15.355469 0 21.214843l15.238282 15.242188c4.082031 4.078125 9.441406 6.117188 14.800781 6.117188s10.722656-2.039063 14.804687-6.121094l34.675782-34.675782c5.855468-5.859374 5.855468-15.355468 0-21.210937-5.859376-5.859375-15.355469-5.859375-21.214844 0zm0 0" fill="#00e87b"/><g fill="#f3e2dd"><path d="m340.859375 187.46875c0 8.28125-6.71875 15-15 15h-145.480469c-8.289062 0-15-6.71875-15-15 0-8.289062 6.710938-15 15-15h145.480469c8.28125 0 15 6.710938 15 15zm0 0"/><path d="m340.859375 293.148438c0 8.28125-6.71875 15-15 15h-145.480469c-8.289062 0-15-6.71875-15-15 0-8.289063 6.710938-15 15-15h145.480469c8.28125 0 15 6.710937 15 15zm0 0"/><path d="m340.859375 393.449219c0 8.289062-6.71875 15-15 15h-145.480469c-8.289062 0-15-6.710938-15-15 0-8.277344 6.710938-15 15-15h145.480469c8.28125 0 15 6.722656 15 15zm0 0"/></g><path d="m226.179688 93.148438h-25.179688v-93.148438h25.179688c25.648437 0 46.511718 20.859375 46.511718 46.511719v.128906c0 25.648437-20.863281 46.507813-46.511718 46.507813zm0 0" fill="#ffce00"/><path d="m340.859375 393.449219c0 8.289062-6.71875 15-15 15h-124.859375v-30h124.859375c8.28125 0 15 6.722656 15 15zm0 0" fill="#d2bfba"/><path d="m340.859375 293.148438c0 8.28125-6.71875 15-15 15h-124.859375v-30h124.859375c8.28125 0 15 6.710937 15 15zm0 0" fill="#d2bfba"/><path d="m325.859375 202.46875h-124.859375v-30h124.859375c8.28125 0 15 6.710938 15 15 0 8.28125-6.71875 15-15 15zm0 0" fill="#d2bfba"/></svg>