<svg height="512pt" viewBox="0 0 512.001 512" width="512pt" xmlns="http://www.w3.org/2000/svg"><path d="m356.660156 72.734375-156.300781 181.460937 89.316406 89.308594 169.730469-168.035156zm0 0" fill="#f3e2dd"/><path d="m208.53125 286.484375c-7.59375 1.226563-15.371094-1.289063-20.808594-6.726563l-19.304687-19.304687c-4.609375-4.609375-8.613281-9.660156-11.980469-15.0625-8.242188-13.179687-12.640625-28.425781-12.640625-44.347656 0-22.445313 8.738281-43.542969 24.613281-59.417969l106.660156-106.648438c6.363282-6.363281 11.632813-13.667968 15.648438-21.714843 3.441406-6.878907 10.035156-11.714844 17.621094-12.953125 7.59375-1.230469 15.378906 1.28125 20.816406 6.71875l19.304688 19.304687c4.609374 4.609375 8.613281 9.65625 11.976562 15.058594 8.238281 13.1875 12.636719 28.433594 12.636719 44.359375 0 22.441406-8.738281 43.542969-24.613281 59.402344l-106.652344 106.652344c-6.363282 6.363281-11.632813 13.667968-15.65625 21.722656-3.441406 6.882812-10.035156 11.71875-17.621094 12.957031zm0 0" fill="#7be6ff"/><path d="m498.890625 220.035156-.101563.097656-291.566406 286.453126c-3.546875 3.492187-8.242187 5.414062-13.222656 5.414062h-71.175781c-5.121094 0-9.878907-2.042969-13.34375-5.507812-1.734375-1.730469-3.140625-3.816407-4.117188-6.195313-2.925781-7.097656-1.285156-15.1875 4.171875-20.589844l326.113282-323.011719c17.394531-17.398437 45.789062-17.398437 63.242187.054688 8.449219 8.449219 13.109375 19.6875 13.109375 31.652344 0 11.945312-4.660156 23.183594-13.109375 31.632812zm0 0" fill="#ff637d"/><g fill="#7be6ff"><path d="m94.113281 47.03125c0-8.285156-6.714843-15-15-15h-17.054687v-17.03125c0-8.285156-6.714844-15-15-15s-15 6.714844-15 15v17.03125h-17.058594c-8.285156 0-15 6.714844-15 15 0 4.140625 1.679688 7.890625 4.394531 10.605469 2.710938 2.714843 6.460938 4.394531 10.605469 4.394531h17.058594v17.03125c0 4.140625 1.679687 7.890625 4.390625 10.605469 2.714843 2.714843 6.464843 4.394531 10.609375 4.394531 8.285156 0 15-6.714844 15-15v-17.03125h17.058594c8.28125 0 14.996093-6.714844 14.996093-15zm0 0"/><path d="m79.003906 225.265625h8.507813c8.285156 0 15-6.714844 15-15 .003906-8.285156-6.714844-15-15-15h-8.503907v-8.488281c-.003906-8.285156-6.71875-15-15-15-8.285156 0-15 6.714844-15 15v8.488281h-8.511718c-8.28125 0-15 6.714844-15 15 0 4.140625 1.679687 7.890625 4.394531 10.605469s6.464844 4.394531 10.605469 4.394531h8.511718v8.488281c0 4.144532 1.675782 7.890625 4.390626 10.605469 2.714843 2.714844 6.464843 4.394531 10.605468 4.394531 8.285156 0 15-6.714844 15-15zm0 0"/><path d="m133.40625 114.359375c2.710938 2.714844 6.464844 4.394531 10.605469 4.394531 8.285156 0 15-6.714844 15-15v-8.488281h8.507812c8.285157 0 15-6.714844 15-15 0-8.28125-6.714843-15-15-15h-8.507812v-8.488281c0-8.285156-6.714844-15-15-15-8.285157 0-15 6.714844-15 15v8.488281h-8.507813c-8.285156 0-15 6.714844-15 15 0 4.144531 1.679688 7.894531 4.394532 10.609375 2.710937 2.710938 6.460937 4.390625 10.605468 4.390625h8.507813v8.488281c0 4.144532 1.679687 7.890625 4.394531 10.605469zm0 0"/></g><path d="m498.890625 220.035156-.101563.097656-291.566406 286.453126c-3.546875 3.492187-8.242187 5.414062-13.222656 5.414062h-50.359375l355.25-355.25c8.449219 8.449219 13.109375 19.683594 13.109375 31.648438 0 11.949218-4.660156 23.1875-13.109375 31.636718zm0 0" fill="#ff3650"/><path d="m208.53125 286.484375c-7.59375 1.226563-15.371094-1.289063-20.808594-6.726563l-19.304687-19.304687c-4.609375-4.609375-8.613281-9.660156-11.980469-15.0625l204-204c8.238281 13.1875 12.636719 28.433594 12.636719 44.359375 0 22.441406-8.738281 43.542969-24.613281 59.402344l-106.652344 106.652344c-6.363282 6.363281-11.632813 13.667968-15.65625 21.722656-3.441406 6.882812-10.035156 11.71875-17.621094 12.957031zm0 0" fill="#55b6ff"/></svg>