<svg height="512pt" viewBox="0 -56 512 512" width="512pt" xmlns="http://www.w3.org/2000/svg"><path d="m505.960938 206.589844c-.371094-43.488282-8.109376-96.539063-10.960938-114.621094 10.828125-10.039062 17-24.078125 17-38.828125 0-29.300781-24.019531-53.140625-53.550781-53.140625-14.597657 0-28.589844 5.96875-38.679688 16.441406-12.121093-1.953125-97.039062-16.3125-163.769531-16.3125-60.289062 0-140.488281 11.511719-164.539062 15.550782-10.03125-9.980469-23.730469-15.6679692-37.910157-15.6679692-29.53125 0-53.550781 23.8398432-53.550781 53.1367192 0 13.273437 4.898438 25.871093 13.851562 35.660156-1.78125 14.660156-8.261718 71.140625-8.261718 117.820312 0 45.601563 6.589844 91.722656 8.53125 104.28125-9.121094 9.851563-14.121094 22.539063-14.121094 35.949219 0 29.300781 24.019531 53.140625 53.550781 53.140625 14.128907 0 27.800781-5.660156 37.820313-15.589844 23 4.070313 94.230468 15.589844 164.628906 15.589844 71.238281 0 151.351562-13.960938 163.96875-16.238281 10.070312 10.339843 23.980469 16.238281 38.480469 16.238281 29.53125 0 53.550781-23.839844 53.550781-53.140625 0-14.390625-5.941406-28.1875-16.359375-38.199219 2.960937-15.210937 10.679687-59.082031 10.320313-102.070312zm0 0" fill="#fff4f4"/><path d="m495.640625 308.660156c10.417969 10.011719 16.359375 23.808594 16.359375 38.199219 0 29.300781-24.019531 53.140625-53.550781 53.140625-14.5 0-28.410157-5.898438-38.480469-16.238281-12.617188 2.277343-92.730469 16.238281-163.96875 16.238281v-399.871094c66.730469 0 151.648438 14.359375 163.769531 16.3125 10.089844-10.472656 24.082031-16.441406 38.679688-16.441406 29.53125 0 53.550781 23.839844 53.550781 53.140625 0 14.75-6.171875 28.789063-17 38.828125 2.851562 18.082031 10.589844 71.132812 10.960938 114.621094.359374 42.988281-7.359376 86.859375-10.320313 102.070312zm0 0" fill="#f3e2dd"/><path d="m364.851562 172.140625c0 11.058594-2.402343 22.121094-7.179687 32.28125-15.960937 34-46.453125 67.507813-90.613281 99.609375-3.277344 2.378906-7.128906 3.578125-10.980469 3.578125h-.078125c-3.808594-.019531-7.628906-1.210937-10.890625-3.578125-43.75-31.792969-75.140625-66.210938-90.78125-99.53125-8.808594-18.75-9.539063-40.539062-2.019531-59.761719 7.152344-18.269531 20.863281-32.296875 38.601562-39.5 29.351563-11.917969 52.460938.863281 65.089844 11.351563.011719.011718.03125.019531.039062.03125 12.582032-10.53125 35.640626-23.402344 65.039063-11.460938 17.75 7.199219 31.460937 21.230469 38.613281 39.5 3.4375 8.800782 5.160156 18.140625 5.160156 27.480469zm0 0" fill="#ff637d"/><path d="m364.851562 172.140625c0 11.058594-2.402343 22.121094-7.179687 32.28125-15.960937 34-46.453125 67.507813-90.613281 99.609375-3.277344 2.378906-7.128906 3.578125-10.980469 3.578125h-.078125v-191.019531c.011719.011718.03125.019531.039062.03125 12.582032-10.53125 35.640626-23.402344 65.039063-11.460938 17.75 7.199219 31.460937 21.230469 38.613281 39.5 3.4375 8.800782 5.160156 18.140625 5.160156 27.480469zm0 0" fill="#ff3650"/></svg>