<svg height="512pt" viewBox="0 -18 512 512" width="512pt" xmlns="http://www.w3.org/2000/svg"><path d="m248.585938 31.066406c-6.125-9.175781-16.75-14.25-27.710938-13.234375-31.535156 2.902344-56.414062 26.535157-71.730469 45.847657l-7.507812 9.464843v74.304688l98.71875-.574219c-16.230469-29.289062 1.472656-69.355469 9.835937-85.222656 5.121094-9.714844 4.507813-21.433594-1.605468-30.585938zm0 0" fill="#00ac58"/><path d="m196.761719 147.128906-46.441407.269532-8.679687.050781-78.21875-1.769531c7.957031-14.371094 16.859375-46.621094-12.972656-101.191407-5.179688-9.476562-4.960938-20.660156.589843-29.910156 5.492188-9.148437 15.121094-14.578125 25.789063-14.578125h.351563c29.28125.320312 54.070312 16.929688 73.140624 36.460938 8.019532 8.210937 15.019532 16.929687 20.929688 25.179687 19.101562 26.660156 27.960938 56.660156 25.511719 85.488281zm0 0" fill="#00e87b"/><path d="m196.761719 147.128906-46.441407.269532v-110.9375c8.019532 8.210937 15.019532 16.929687 20.929688 25.179687 19.101562 26.660156 27.960938 56.660156 25.511719 85.488281zm0 0" fill="#00c97d"/><path d="m319.675781 150.261719c-8.285156 0-15 6.714843-15 15 0 8.285156 6.714844 15 15 15 18.507813 0 31.402344 28.964843 31.402344 54.957031 0 8.285156 6.714844 15 15 15s15-6.714844 15-15c0-47.640625-26.96875-84.957031-61.402344-84.957031zm0 0" fill="#00e87b"/><path d="m512 301.128906c0 30.589844-5.519531 62.242188-15.539062 89.121094-12.671876 33.988281-32.421876 59.800781-57.109376 74.648438-8.300781 4.992187-17.773437 7.421874-28.941406 7.421874-8.039062 0-16.039062-1.230468-23.769531-2.421874-6.960937-1.058594-14.121094-2.167969-20.5625-2.167969-6.4375 0-13.597656 1.109375-20.527344 2.167969-16.628906 2.542968-35.402343 5.421874-52.742187-5-20.628906-12.410157-37.449219-31.867188-49.96875-57.847657l-2.019532-4.171875 28.089844-184.96875 8.789063-2.871094c5.679687-1.847656 11.789062-3.277343 18.152343-4.25 20.476563-3.109374 36.308594 1.5 49.027344 5.199219 7.792969 2.273438 14.5 4.230469 21.199219 4.230469 6.703125 0 13.410156-1.957031 21.183594-4.21875 12.75-3.710938 28.589843-8.320312 49.046875-5.210938 20.671875 3.140626 37.601562 10.851563 50.3125 22.902344 16.839844 15.96875 25.378906 38.660156 25.378906 67.4375zm0 0" fill="#ff637d"/><path d="m300.648438 299.519531v1.839844c0 45.902344-15.128907 89.171875-42.597657 121.832031-28.101562 33.410156-65.679687 51.808594-105.820312 51.808594h-3.820313c-40.140625 0-77.71875-18.398438-105.820312-51.808594-27.460938-32.660156-42.589844-75.929687-42.589844-121.832031v-1.839844c0-44.570312-.0117188-86.667969 18.738281-118.539062 21.371094-36.339844 62.582031-53.261719 129.671875-53.261719h3.820313c67.097656 0 108.300781 16.921875 129.667969 53.261719 18.75 31.871093 18.75 73.96875 18.75 118.539062zm0 0" fill="#ffbc1d"/><path d="m300.648438 299.519531v1.839844c0 45.902344-15.128907 89.171875-42.597657 121.832031-28.101562 33.410156-65.679687 51.808594-105.820312 51.808594h-1.910157v-347.28125h1.910157c67.097656 0 108.300781 16.921875 129.667969 53.261719 18.75 31.871093 18.75 73.96875 18.75 118.539062zm0 0" fill="#ff7421"/><path d="m81.949219 258.582031 15.722656-15.6875 15.722656 15.6875c5.863281 5.851563 15.363281 5.839844 21.214844-.023437 5.851563-5.863282 5.839844-15.359375-.023437-21.210938l-22.378907-22.332031c-8.015625-7.996094-21.058593-7.996094-29.070312 0l-22.375 22.328125c-5.867188 5.851562-5.875 15.351562-.023438 21.214844 2.929688 2.933594 6.773438 4.40625 10.617188 4.40625 3.832031 0 7.664062-1.460938 10.59375-4.382813zm0 0" fill="#fff543"/><path d="m239.886719 237.347656-22.375-22.328125c-8.015625-8-21.058594-8-29.074219-.003906l-22.378906 22.332031c-5.863282 5.851563-5.871094 15.347656-.019532 21.210938 5.851563 5.863281 15.347657 5.875 21.214844.023437l15.71875-15.6875 15.726563 15.6875c2.925781 2.921875 6.761719 4.382813 10.59375 4.382813 3.84375 0 7.6875-1.46875 10.617187-4.40625 5.851563-5.863282 5.839844-15.363282-.023437-21.210938zm0 0" fill="#ffbc1d"/><path d="m127.953125 325.019531c3.847656 0 7.691406-1.46875 10.621094-4.40625 5.851562-5.863281 5.839843-15.359375-.023438-21.210937l-19.007812-18.96875c-7.6875-7.671875-20.199219-7.671875-27.886719 0l-19.007812 18.964844c-5.863282 5.851562-5.875 15.351562-.019532 21.214843 5.847656 5.863281 15.347656 5.875 21.210938.023438l11.761718-11.734375 11.761719 11.734375c2.925781 2.921875 6.757813 4.382812 10.589844 4.382812zm0 0" fill="#fff543"/><path d="m208.988281 280.433594c-7.6875-7.671875-20.199219-7.671875-27.886719 0l-19.007812 18.964844c-5.863281 5.855468-5.875 15.351562-.023438 21.214843 5.851563 5.863281 15.351563 5.875 21.214844.023438l11.761719-11.734375 11.757813 11.734375c2.929687 2.921875 6.761718 4.382812 10.597656 4.382812 3.84375 0 7.6875-1.46875 10.617187-4.40625 5.851563-5.863281 5.839844-15.363281-.023437-21.214843zm0 0" fill="#ffbc1d"/><path d="m183.300781 389.929688c-2.929687 2.941406-6.78125 4.410156-10.621093 4.410156-3.839844 0-7.667969-1.460938-10.601563-4.390625l-11.757813-11.730469-11.761718 11.730469c-5.859375 5.859375-15.359375 5.839843-21.207032-.019531-5.851562-5.859376-5.839843-15.359376.019532-21.210938l19.007812-18.96875c3.839844-3.828125 8.902344-5.75 13.941406-5.75 5.058594 0 10.101563 1.921875 13.949219 5.75l19 18.96875c5.871094 5.851562 5.878907 15.351562.03125 21.210938zm0 0" fill="#fff543"/><path d="m183.300781 389.929688c-2.929687 2.941406-6.78125 4.410156-10.621093 4.410156-3.839844 0-7.667969-1.460938-10.601563-4.390625l-11.757813-11.730469v-34.21875c5.058594 0 10.101563 1.921875 13.949219 5.75l19 18.96875c5.871094 5.851562 5.878907 15.351562.03125 21.210938zm0 0" fill="#ffbc1d"/><path d="m512 301.128906c0 30.589844-5.519531 62.242188-15.539062 89.121094-12.671876 33.988281-32.421876 59.800781-57.109376 74.648438-8.300781 4.992187-17.773437 7.421874-28.941406 7.421874-8.039062 0-16.039062-1.230468-23.769531-2.421874-6.960937-1.058594-14.121094-2.167969-20.5625-2.167969v-247.511719c6.703125 0 13.410156-1.957031 21.183594-4.21875 12.75-3.710938 28.589843-8.320312 49.046875-5.210938 20.671875 3.140626 37.601562 10.851563 50.3125 22.902344 16.839844 15.96875 25.378906 38.660156 25.378906 67.4375zm0 0" fill="#ff3650"/></svg>