<svg height="512pt" viewBox="0 -27 512 512" width="512pt" xmlns="http://www.w3.org/2000/svg"><path d="m357.203125 310.835938c16.1875 0 29.425781 13.144531 29.425781 29.214843 0 16.074219-13.238281 29.21875-29.425781 29.21875h-29.429687c16.253906 0 29.429687 13.082031 29.429687 29.226563 0 16.132812-13.175781 29.214844-29.429687 29.214844h-138.035157c-15.894531 0-31.492187-2.628907-46.5-7.59375l-50.914062-16.78125-20.601563-105.707032.84375-4.355468 19.757813-101.351563c57.445312-13.082031 80.210937-77.652344 94.765625-133.933594 1.472656-6.726562 8.53125-11.105469 14.125-11.105469h8.828125c24.074219 0 44.152343 19.511719 44.152343 43.824219 0 32.730469.289063 49.777344-17.65625 103.246094h120.664063c16.1875 0 29.425781 13.15625 29.425781 29.226563 0 16.070312-13.238281 29.214843-29.425781 29.214843 16.1875 0 29.425781 13.144531 29.425781 29.214844 0 4.140625-.878906 8.085937-2.464844 11.664063-4.550781 10.3125-14.945312 17.5625-26.960937 17.5625zm0 0" fill="#ffdfc2"/><path d="m386.628906 340.050781c0 16.074219-13.238281 29.21875-29.425781 29.21875h-29.429687c16.253906 0 29.429687 13.082031 29.429687 29.226563 0 16.132812-13.175781 29.214844-29.429687 29.214844h-138.035157c-15.894531 0-31.492187-2.628907-46.5-7.59375l-50.914062-16.78125-20.601563-105.707032.84375-4.355468h311.597656c-4.550781 10.3125-14.945312 17.5625-26.960937 17.5625 16.1875 0 29.425781 13.144531 29.425781 29.214843zm0 0" fill="#ffbd83"/><path d="m92.324219 191.921875v211.414063h-78.953125c-7.386719 0-13.371094-5.984376-13.371094-13.359376v-184.683593c0-7.386719 5.984375-13.371094 13.371094-13.371094zm0 0" fill="#00e87b"/><path d="m391.828125 32.839844h-17.648437v-17.386719c0-8.535156-6.921876-15.453125-15.453126-15.453125-8.535156 0-15.453124 6.917969-15.453124 15.453125v17.386719h-17.652344c-8.535156 0-15.453125 6.917968-15.453125 15.453125 0 8.535156 6.917969 15.453125 15.453125 15.453125h17.652344v17.386718c0 8.535157 6.917968 15.453126 15.453124 15.453126 8.53125 0 15.453126-6.917969 15.453126-15.453126v-17.386718h17.648437c8.535156 0 15.453125-6.917969 15.453125-15.453125 0-8.535157-6.917969-15.453125-15.453125-15.453125zm0 0" fill="#7be6ff"/><path d="m447.996094 148.300781h8.820312v8.628907c0 8.535156 6.921875 15.453124 15.453125 15.453124 8.535157 0 15.453125-6.917968 15.453125-15.453124v-8.628907h8.824219c8.535156 0 15.453125-6.917969 15.453125-15.453125s-6.917969-15.453125-15.453125-15.453125h-8.820313v-8.628906c0-8.53125-6.921874-15.453125-15.453124-15.453125-8.535157 0-15.453126 6.921875-15.453126 15.453125v8.628906h-8.824218c-8.535156 0-15.453125 6.917969-15.453125 15.453125s6.917969 15.453125 15.453125 15.453125zm0 0" fill="#7be6ff"/><path d="m496.539062 403.445312h-8.824218v-8.628906c0-8.535156-6.917969-15.453125-15.449219-15.453125-8.535156 0-15.453125 6.917969-15.453125 15.453125v8.628906h-8.824219c-8.535156 0-15.453125 6.917969-15.453125 15.449219 0 8.535157 6.917969 15.453125 15.453125 15.453125h8.824219v8.628906c0 8.535157 6.917969 15.453126 15.453125 15.453126 8.53125 0 15.449219-6.917969 15.449219-15.453126v-8.628906h8.824218c8.535157 0 15.453126-6.917968 15.453126-15.453125 0-8.53125-6.917969-15.449219-15.453126-15.449219zm0 0" fill="#55b6ff"/><path d="m92.324219 293.273438v110.0625h-78.953125c-7.386719 0-13.371094-5.984376-13.371094-13.359376v-96.703124zm0 0" fill="#00c97d"/></svg>