<svg height="512pt" viewBox="-85 0 512 512" width="512pt" xmlns="http://www.w3.org/2000/svg"><path d="m342 126.46875v32.441406l-171 30-171-30v-32.441406c0-18.046875 14.699219-32.738281 32.78125-32.738281h276.4375c18.082031 0 32.78125 14.691406 32.78125 32.738281zm0 0" fill="#fff4f4"/><path d="m244.460938 485.128906c0 14.839844-12.0625 26.871094-26.941407 26.871094h-93.039062c-7.441407 0-14.179688-3.011719-19.050781-7.871094-4.871094-4.859375-7.890626-11.578125-7.890626-19 0-7.417968 3.019532-14.140625 7.890626-19 4.871093-4.859375 11.609374-7.867187 19.050781-7.867187 10.820312 0 19.578125-8.75 19.578125-19.542969v-141.128906h53.882812v141.128906c0 5.402344 2.1875 10.28125 5.730469 13.820312 3.546875 3.53125 8.4375 5.722657 13.847656 5.722657 7.441407 0 14.179688 3.007812 19.050781 7.867187 4.871094 4.859375 7.890626 11.582032 7.890626 19zm0 0" fill="#fff4f4"/><path d="m236.570312 466.128906c4.871094 4.859375 7.890626 11.582032 7.890626 19 0 14.839844-12.0625 26.871094-26.941407 26.871094h-46.519531v-214.410156h26.941406v141.128906c0 5.402344 2.1875 10.28125 5.730469 13.820312 3.546875 3.53125 8.4375 5.722657 13.847656 5.722657 7.441407 0 14.179688 3.007812 19.050781 7.867187zm0 0" fill="#f3e2dd"/><path d="m342 126.46875v32.441406l-171 30v-95.179687h138.21875c18.082031 0 32.78125 14.691406 32.78125 32.738281zm0 0" fill="#f3e2dd"/><path d="m321.457031 0h-56.480469c-20.335937 0-36.875 16.519531-36.875 36.824219v132.082031c0 8.28125 6.714844 15 15 15 8.28125 0 15-6.71875 15-15v-132.082031c0-3.761719 3.082032-6.824219 6.875-6.824219h56.480469c8.285157 0 15-6.714844 15-15s-6.714843-15-15-15zm0 0" fill="#ff7421"/><path d="m342 158.910156v7.890625c0 29.097657-20.679688 54.648438-49.179688 60.75-10.621093 2.277344-19.199218 10.378907-22.390624 21.140625-6.210938 20.96875-19.300782 39.828125-36.839844 53.109375-18.128906 13.71875-39.78125 20.980469-62.589844 20.980469s-44.460938-7.261719-62.589844-20.980469c-17.539062-13.28125-30.628906-32.140625-36.839844-53.109375-3.191406-10.761718-11.769531-18.863281-22.390624-21.140625-28.5-6.101562-49.179688-31.652343-49.179688-60.75v-7.890625zm0 0" fill="#fff543"/><path d="m342 158.910156v7.890625c0 29.097657-20.679688 54.648438-49.179688 60.75-10.621093 2.277344-19.199218 10.378907-22.390624 21.140625-6.210938 20.96875-19.300782 39.828125-36.839844 53.109375-18.128906 13.71875-39.78125 20.980469-62.589844 20.980469v-163.871094zm0 0" fill="#ffce00"/></svg>