<svg height="512pt" viewBox="0 -53 512 512" width="512pt" xmlns="http://www.w3.org/2000/svg"><path d="m71.398438 278.496094h369.203124v111.5h-369.203124zm0 0" fill="#7be6ff"/><path d="m256 278.496094h184.601562v111.5h-184.601562zm0 0" fill="#55b6ff"/><path d="m404.484375 73.855469-119.160156 9.128906 21.304687 87c3.875 15.164063 17.542969 25.757813 33.230469 25.757813 1.976563 0 3.6875 1.308593 4.167969 3.1875l24.1875 94.566406h91.699218zm0 0" fill="#55b6ff"/><path d="m71.398438 375.003906h369.203124v29.992188h-369.203124zm0 0" fill="#7a8388"/><path d="m71.398438 263.496094h369.203124v30h-369.203124zm0 0" fill="#7a8388"/><g fill="#535f64"><path d="m256 263.496094h184.601562v30h-184.601562zm0 0"/><path d="m256 375.003906h184.601562v29.992188h-184.601562zm0 0"/><path d="m322.128906 334.246094c0 8.289062-6.707031 15-15 15h-102.257812c-8.292969 0-15-6.710938-15-15 0-8.28125 6.707031-15 15-15h102.257812c8.292969 0 15 6.71875 15 15zm0 0"/><path d="m469.46875 25.636719-68.617188 68.296875c-2.601562 2.601562-6.121093 4.050781-9.800781 4.050781h-161.191406c-8.519531 0-15.390625-7.109375-14.980469-15.730469.382813-8.058594 7.332032-14.269531 15.402344-14.269531h154.117188l63.902343-63.609375c5.871094-5.851562 15.371094-5.828125 21.210938.039062 5.847656 5.871094 5.828125 15.371094-.042969 21.222657zm0 0"/><path d="m71.402344 263.496094c-39.371094 0-71.402344 31.742187-71.402344 70.753906s32.03125 70.75 71.402344 70.75c39.375 0 71.40625-31.738281 71.40625-70.75s-32.03125-70.753906-71.40625-70.753906zm0 0"/></g><path d="m440.59375 263.496094c-39.371094 0-71.402344 31.742187-71.402344 70.753906s32.03125 70.75 71.402344 70.75c39.375 0 71.40625-31.738281 71.40625-70.75s-32.03125-70.753906-71.40625-70.753906zm0 0" fill="#3e494c"/><path d="m307.128906 349.246094h-51.128906v-30h51.128906c8.292969 0 15 6.71875 15 15 0 8.289062-6.707031 15-15 15zm0 0" fill="#3e494c"/><path d="m469.46875 25.636719-68.617188 68.296875c-2.601562 2.601562-6.121093 4.050781-9.800781 4.050781h-135.050781v-30h128.398438l63.902343-63.609375c5.871094-5.851562 15.371094-5.828125 21.210938.039062 5.847656 5.871094 5.828125 15.371094-.042969 21.222657zm0 0" fill="#3e494c"/></svg>