<svg height="512pt" viewBox="-91 0 512 512" width="512pt" xmlns="http://www.w3.org/2000/svg"><path d="m278.441406 34.089844v55.5h-226.890625v-55.5c0-18.800782 15.289063-34.089844 34.089844-34.089844h35.058594l44.300781 20 44.289062-20h35.0625c18.796876 0 34.089844 15.289062 34.089844 34.089844zm0 0" fill="#7be6ff"/><path d="m278.441406 34.089844v55.5h-113.441406v-69.589844l44.289062-20h35.0625c18.796876 0 34.089844 15.289062 34.089844 34.089844zm0 0" fill="#55b6ff"/><path d="m120.699219 0h88.589843v89.589844h-88.589843zm0 0" fill="#55b6ff"/><path d="m165 0h44.289062v89.589844h-44.289062zm0 0" fill="#2a98db"/><path d="m330 174.019531-20 111.78125 20 111.777344v74.75c0 21.882813-17.800781 39.671875-39.679688 39.671875h-250.648437c-21.882813 0-39.671875-17.789062-39.671875-39.671875v-74.75l20-111.777344-20-111.78125v-74.75c0-21.878906 17.789062-39.679687 39.671875-39.679687h250.648437c21.878907 0 39.679688 17.800781 39.679688 39.679687zm0 0" fill="#fff4f4"/><path d="m330 174.019531-20 111.78125 20 111.777344v74.75c0 21.882813-17.800781 39.671875-39.679688 39.671875h-125.320312v-452.410156h125.320312c21.878907 0 39.679688 17.800781 39.679688 39.679687zm0 0" fill="#f3e2dd"/><path d="m0 174.019531h330v223.558594h-330zm0 0" fill="#7be6ff"/><path d="m165 174.019531h165v223.558594h-165zm0 0" fill="#55b6ff"/><path d="m175.011719 241.160156c-11.007813-9.863281-25.222657-15.292968-40.015625-15.292968-33.0625 0-59.960938 26.882812-59.960938 59.929687 0 33.042969 26.898438 59.929687 59.960938 59.929687 14.792968 0 29.003906-5.433593 40.011718-15.296874l4.992188-4.46875v-80.328126zm0 0" fill="#fff"/><path d="m254.960938 285.800781c0 33.039063-26.902344 59.929688-59.960938 59.929688-10.921875 0-21.171875-2.929688-30-8.050781-17.898438-10.378907-29.96875-29.75-29.96875-51.878907 0-22.140625 12.070312-41.5 29.96875-51.878906 8.828125-5.121094 19.078125-8.050781 30-8.050781 33.058594 0 59.960938 26.878906 59.960938 59.929687zm0 0" fill="#ff637d"/><path d="m254.960938 285.800781c0 33.039063-26.902344 59.929688-59.960938 59.929688-10.921875 0-21.171875-2.929688-30-8.050781v-103.757813c8.828125-5.121094 19.078125-8.050781 30-8.050781 33.058594 0 59.960938 26.878906 59.960938 59.929687zm0 0" fill="#ff3650"/></svg>