<svg height="512pt" viewBox="-25 0 512 512" width="512pt" xmlns="http://www.w3.org/2000/svg"><path d="m461.789062 409.179688v37.699218c0 35.910156-29.25 65.121094-65.214843 65.121094h-131.472657c-35.964843 0-65.214843-29.210938-65.214843-65.121094v-37.699218c0-27.589844 22.472656-50.03125 50.082031-50.03125l79.871094-30 81.867187 30c27.621094 0 50.082031 22.441406 50.082031 50.03125zm0 0" fill="#fff4f4"/><path d="m462 134.308594c0 24.492187-19.941406 44.410156-44.464844 44.410156l-87.695312 20-85.488282-20c-24.523437 0-44.464843-19.917969-44.464843-44.410156 1.078125-14.75 9.535156-31.46875 21.992187-39.4375l54.5-34.871094 53.359375-35 .101563.058594 55.457031 34.941406 54.609375 34.820312c13.007812 8.300782 21.535156 24.070313 22.09375 39.488282zm0 0" fill="#fff4f4"/><path d="m417.535156 178.71875-87.695312 20v-173.660156l55.457031 34.941406 54.609375 34.820312c13.007812 8.300782 21.535156 24.070313 22.09375 39.488282 0 24.492187-19.941406 44.410156-44.464844 44.410156zm0 0" fill="#f3e2dd"/><path d="m461.789062 409.179688v37.699218c0 35.910156-29.25 65.121094-65.214843 65.121094h-66.734375v-182.851562l81.871094 30c27.617187 0 50.078124 22.441406 50.078124 50.03125zm0 0" fill="#f3e2dd"/><path d="m462 269.140625c0 8.320313-3.378906 15.859375-8.847656 21.308594-5.46875 5.460937-13.015625 8.832031-21.351563 8.832031l-101.960937 20-99.753906-20c-16.675782 0-30.199219-13.492188-30.199219-30.140625 0-8.320313 3.378906-15.859375 8.847656-21.3125 5.46875-5.457031 13.015625-8.828125 21.351563-8.828125l99.753906-20 101.960937 20c16.675781 0 30.199219 13.488281 30.199219 30.140625zm0 0" fill="#fff4f4"/><path d="m462 269.140625c0 8.320313-3.378906 15.859375-8.847656 21.308594-5.46875 5.460937-13.015625 8.832031-21.351563 8.832031l-101.960937 20v-100.28125l101.960937 20c16.675781 0 30.199219 13.488281 30.199219 30.140625zm0 0" fill="#f3e2dd"/><g fill="#7be6ff"><path d="m462 208.859375c0 8.320313-3.378906 15.859375-8.847656 21.3125-5.46875 5.457031-13.015625 8.828125-21.351563 8.828125h-201.714843c-16.675782 0-30.199219-13.488281-30.199219-30.140625 0-8.320313 3.378906-15.859375 8.847656-21.308594 5.46875-5.460937 13.015625-8.832031 21.351563-8.832031h201.714843c16.675781 0 30.199219 13.492188 30.199219 30.140625zm0 0"/><path d="m462 329.421875c0 8.316406-3.378906 15.859375-8.847656 21.308594-5.46875 5.460937-13.015625 8.828125-21.351563 8.828125h-201.714843c-16.675782 0-30.199219-13.488282-30.199219-30.136719 0-8.320313 3.378906-15.863281 8.847656-21.3125s13.015625-8.828125 21.351563-8.828125h201.714843c16.675781 0 30.199219 13.5 30.199219 30.140625zm0 0"/><path d="m416.738281 30c0 16.570312-13.457031 30-30.058593 30h-111.679688c-8.296875 0-15.816406-3.359375-21.253906-8.789062-5.4375-5.429688-8.804688-12.929688-8.804688-21.210938 0-16.570312 13.453125-30 30.058594-30h111.679688c8.296874 0 15.8125 3.359375 21.25 8.789062 5.4375 5.429688 8.808593 12.929688 8.808593 21.210938zm0 0"/></g><path d="m386.679688 60h-56.839844v-60h56.839844c8.296874 0 15.8125 3.359375 21.25 8.789062 5.4375 5.429688 8.808593 12.929688 8.808593 21.210938 0 16.570312-13.457031 30-30.058593 30zm0 0" fill="#55b6ff"/><path d="m462 329.421875c0 8.316406-3.378906 15.859375-8.847656 21.308594-5.46875 5.460937-13.015625 8.828125-21.351563 8.828125h-101.960937v-60.277344h101.960937c16.675781 0 30.199219 13.5 30.199219 30.140625zm0 0" fill="#55b6ff"/><path d="m431.800781 239h-101.960937v-60.28125h101.960937c16.675781 0 30.199219 13.492188 30.199219 30.140625 0 8.320313-3.378906 15.859375-8.847656 21.3125-5.46875 5.457031-13.015625 8.828125-21.351563 8.828125zm0 0" fill="#55b6ff"/><path d="m94.269531 46.878906c0 8.28125-6.722656 15-15.003906 15h-17.128906v16.882813c0 8.277343-6.710938 15-15.003907 15-8.285156 0-15.007812-6.722657-15.007812-15v-16.882813h-17.117188c-8.296874 0-15.007812-6.71875-15.007812-15 0-8.289062 6.714844-15 15.007812-15h17.113282v-16.878906c0-8.28125 6.726562-15 15.007812-15 8.292969 0 15.007813 6.71875 15.007813 15v16.878906h17.125c8.285156 0 15.007812 6.710938 15.007812 15zm0 0" fill="#29dcff"/><path d="m150.90625 113.957031h-8.554688v-8.378906c0-8.28125-6.71875-15-15.007812-15-8.285156 0-15.003906 6.71875-15.003906 15v8.378906h-8.554688c-8.289062 0-15.007812 6.714844-15.007812 15 0 8.28125 6.71875 15 15.007812 15h8.554688v8.375c0 8.285157 6.71875 15 15.003906 15 8.289062 0 15.007812-6.714843 15.007812-15v-8.375h8.554688c8.285156 0 15.003906-6.71875 15.003906-15 0-8.285156-6.71875-15-15.003906-15zm0 0" fill="#55b6ff"/><path d="m109.917969 225.960938c0 8.277343-6.714844 15-15.007813 15h-8.554687v8.367187c0 8.292969-6.722657 15-15.003907 15-8.285156 0-15.007812-6.707031-15.007812-15v-8.367187h-8.554688c-8.28125 0-15.003906-6.722657-15.003906-15 0-8.289063 6.722656-15 15.003906-15h8.554688v-8.382813c0-8.277344 6.722656-15 15.007812-15 8.285157 0 15.003907 6.722656 15.003907 15v8.382813h8.554687c8.292969 0 15.007813 6.710937 15.007813 15zm0 0" fill="#29dcff"/><path d="m109.917969 225.960938c0 8.277343-6.714844 15-15.007813 15h-8.554687v8.367187c0 8.292969-6.722657 15-15.003907 15v-76.75c8.285157 0 15.003907 6.722656 15.003907 15v8.382813h8.554687c8.292969 0 15.007813 6.710937 15.007813 15zm0 0" fill="#55b6ff"/></svg>