<svg height="512pt" viewBox="-51 0 512 512" width="512pt" xmlns="http://www.w3.org/2000/svg"><path d="m300.0625 203.859375v229.640625h-260.492188v-164.410156l45.539063-57.917969 84.703125-24.703125zm0 0" fill="#fff4f4"/><path d="m300.0625 203.859375v229.640625h-130.25v-247.03125zm0 0" fill="#f3e2dd"/><path d="m340.632812 424.878906c0 48.042969-39.082031 87.121094-87.121093 87.121094h-166.390625c-48.042969 0-87.121094-39.078125-87.121094-87.121094 0-11.789062 9.589844-21.378906 21.378906-21.378906h297.875c11.789063 0 21.378906 9.589844 21.378906 21.378906zm0 0" fill="#ff637d"/><path d="m155.3125 104.261719h30v46.558593h-30zm0 0" fill="#7a8388"/><path d="m169.8125 104.261719h15.5v46.558593h-15.5zm0 0" fill="#535f64"/><path d="m218.171875 71.429688c0 26.371093-21.472656 47.832031-47.859375 47.832031-.171875 0-.332031 0-.5-.011719-26.152344-.261719-47.351562-21.621094-47.351562-47.820312 0-14.191407 11.199218-35.820313 33.269531-64.289063 3.429687-4.410156 8.53125-6.992187 14.082031-7.1289062.167969-.0117188.328125-.0117188.5-.0117188 5.75 0 11.058594 2.601562 14.578125 7.140625 22.082031 28.46875 33.28125 50.097656 33.28125 64.289063zm0 0" fill="#ffbc1d"/><path d="m300.0625 176.269531v27.589844h-160.722656c-8 0-14.507813 6.5-14.507813 14.492187v7.097657c0 24.0625-19.582031 43.640625-43.660156 43.640625h-41.601563v-92.820313c0-22.300781 18.152344-40.449219 40.449219-40.449219h179.582031c22.308594 0 40.460938 18.148438 40.460938 40.449219zm0 0" fill="#f3e2dd"/><path d="m369.949219 50.070312h-91.167969c-5.542969 0-10.050781-4.5-10.050781-10.035156 0-5.53125 4.507812-10.035156 10.050781-10.035156h116.21875c8.285156 0 15-6.714844 15-15s-6.714844-15-15-15h-116.21875c-22.085938 0-40.050781 17.960938-40.050781 40.035156 0 22.078125 17.964843 40.035156 40.050781 40.035156h91.167969c5.542969 0 10.050781 4.503907 10.050781 10.039063 0 5.53125-4.507812 10.035156-10.050781 10.035156h-45.585938c-8.28125 0-15 6.714844-15 15 0 8.285157 6.71875 15 15 15h45.585938c22.082031 0 40.050781-17.960937 40.050781-40.035156 0-22.078125-17.96875-40.039063-40.050781-40.039063zm0 0" fill="#f3e2dd"/><path d="m170.3125 119.261719c-.171875 0-.332031 0-.5-.011719v-119.2382812c.167969-.0117188.328125-.0117188.5-.0117188 5.75 0 11.058594 2.601562 14.578125 7.140625 22.082031 28.46875 33.28125 50.097656 33.28125 64.289063 0 26.371093-21.472656 47.832031-47.859375 47.832031zm0 0" fill="#ff7421"/><path d="m300.0625 203.859375h-130.25v-68.039063h89.789062c22.308594 0 40.460938 18.148438 40.460938 40.449219zm0 0" fill="#d2bfba"/><path d="m340.632812 424.878906c0 48.042969-39.082031 87.121094-87.121093 87.121094h-83.703125v-108.5h149.441406c11.792969 0 21.382812 9.589844 21.382812 21.378906zm0 0" fill="#ff3650"/></svg>