<svg height="512pt" viewBox="0 0 512 512" width="512pt" xmlns="http://www.w3.org/2000/svg"><path d="m437.019531 74.980469-82.980469 231.019531-102.289062 83.519531-114.429688 93.441407c-22.691406-11.890626-43.699218-27.300782-62.339843-45.941407-48.351563-48.347656-74.980469-112.640625-74.980469-181.019531s26.628906-132.671875 74.980469-181.019531c47.347656-47.351563 109.980469-73.871094 176.769531-74.9414065 1.410156-.0273437 2.828125-.0390625 4.25-.0390625 68.378906 0 132.671875 26.628906 181.019531 74.980469zm0 0" fill="#fff4f4"/><path d="m437.019531 74.980469-82.980469 231.019531-102.289062 83.519531v-389.4804685c1.410156-.0273437 2.828125-.0390625 4.25-.0390625 68.378906 0 132.671875 26.628906 181.019531 74.980469zm0 0" fill="#f3e2dd"/><path d="m512 256c0 68.378906-26.628906 132.671875-74.980469 181.019531-48.347656 48.351563-112.640625 74.980469-181.019531 74.980469-1.421875 0-2.839844-.011719-4.25-.039062-40.5-.652344-79.46875-10.660157-114.429688-29-19.628906-25.390626-31.308593-57.210938-31.308593-91.710938 0-81.25 64.828125-147.648438 145.476562-150.179688v-.070312h.261719c66.191406-.140625 119.988281-54.039062 119.988281-120.25 0-64.769531-51.546875-118.308594-115.738281-120.75 68.378906 0 132.671875 26.628906 181.019531 74.980469 48.351563 48.347656 74.980469 112.640625 74.980469 181.019531zm0 0" fill="#535f64"/><path d="m512 256c0 68.378906-26.628906 132.671875-74.980469 181.019531-48.347656 48.351563-112.640625 74.980469-181.019531 74.980469-1.421875 0-2.839844-.011719-4.25-.039062v-270.960938c66.191406-.140625 119.988281-54.039062 119.988281-120.25 0-64.769531-51.546875-118.308594-115.738281-120.75 68.378906 0 132.671875 26.628906 181.019531 74.980469 48.351563 48.347656 74.980469 112.640625 74.980469 181.019531zm0 0" fill="#3e494c"/><path d="m311.75 120.5c0 33.089844-26.910156 60-60 60s-60-26.910156-60-60 26.910156-60 60-60 60 26.910156 60 60zm0 0" fill="#535f64"/><path d="m311.75 378.5c0 33.089844-26.910156 60-60 60s-60-26.910156-60-60 26.910156-60 60-60 60 26.910156 60 60zm0 0" fill="#fff"/><path d="m251.75 180.5v-120c33.089844 0 60 26.910156 60 60s-26.910156 60-60 60zm0 0" fill="#3e494c"/><path d="m311.75 378.5c0 33.089844-26.910156 60-60 60v-120c33.089844 0 60 26.910156 60 60zm0 0" fill="#fff4f4"/></svg>