<svg height="512pt" viewBox="-49 0 511 512" width="512pt" xmlns="http://www.w3.org/2000/svg"><path d="m51.363281 227.394531c-13.648437-18.003906-20.863281-39.507812-20.863281-62.179687v-80.140625c0-6.976563 5.667969-12.652344 12.632812-12.652344h35.917969v-30h-35.917969c-23.507812 0-42.632812 19.136719-42.632812 42.652344v80.140625c0 29.269531 9.320312 57.039062 26.957031 80.304687 17.058594 22.5 41.289063 39.277344 68.222657 47.242188l8.507812-28.769531c-20.84375-6.164063-39.601562-19.160157-52.824219-36.597657zm0 0" fill="#fff4f4"/><path d="m215.414062 227.394531c-13.21875 17.4375-31.976562 30.433594-52.820312 36.597657l8.507812 28.769531c26.933594-7.964844 51.164063-24.742188 68.222657-47.242188 17.636719-23.265625 26.957031-51.03125 26.957031-80.304687v-80.140625c0-23.519531-19.125-42.652344-42.632812-42.652344h-36.015626v30h36.015626c6.964843 0 12.632812 5.675781 12.632812 12.652344v80.140625c0 22.671875-7.214844 44.175781-20.867188 62.179687zm0 0" fill="#f3e2dd"/><path d="m351.710938 387.03125v8.230469c0 64.367187-52.339844 116.738281-116.660157 116.738281-64.332031 0-116.660156-52.371094-116.660156-116.738281v-69.542969h30v69.542969c0 47.828125 38.871094 86.738281 86.660156 86.738281 47.777344 0 86.660157-38.910156 86.660157-86.738281v-8.230469zm0 0" fill="#fff4f4"/><path d="m351.710938 387.03125v8.230469c0 64.367187-52.339844 116.738281-116.660157 116.738281v-30c47.777344 0 86.660157-38.910156 86.660157-86.738281v-8.230469zm0 0" fill="#f3e2dd"/><path d="m79.050781 0c-8.28125 0-15 6.714844-15 15v84.847656c0 8.285156 6.71875 15 15 15 8.285157 0 15-6.714844 15-15v-84.847656c0-8.285156-6.714843-15-15-15zm0 0" fill="#7be6ff"/><path d="m187.632812 0c-8.285156 0-15 6.714844-15 15v84.847656c0 8.285156 6.714844 15 15 15 8.285157 0 15-6.714844 15-15v-84.847656c0-8.285156-6.714843-15-15-15zm0 0" fill="#55b6ff"/><path d="m181.839844 251.078125v62.421875c0 15.011719-12.210938 27.21875-27.21875 27.21875h-42.460938c-15.011718 0-27.21875-12.207031-27.21875-27.21875v-62.421875c0-15.007813 12.207032-27.21875 27.21875-27.21875h42.460938c15.007812 0 27.21875 12.210937 27.21875 27.21875zm0 0" fill="#7be6ff"/><path d="m412.5 326.191406c0 41.820313-34 75.839844-75.789062 75.839844-41.800782 0-75.800782-34.019531-75.800782-75.839844 0-41.820312 34-75.839844 75.800782-75.839844 41.789062 0 75.789062 34.019532 75.789062 75.839844zm0 0" fill="#7be6ff"/><path d="m412.5 326.191406c0 41.820313-34 75.839844-75.789062 75.839844v-151.679688c41.789062 0 75.789062 34.019532 75.789062 75.839844zm0 0" fill="#55b6ff"/><path d="m351.710938 319.53125v13.308594c0 8.289062-6.722657 15-15 15-8.289063 0-15-6.710938-15-15v-13.308594c0-8.28125 6.710937-15 15-15 8.277343 0 15 6.71875 15 15zm0 0" fill="#fff"/><path d="m181.839844 251.078125v62.421875c0 15.011719-12.210938 27.21875-27.21875 27.21875h-21.230469v-116.859375h21.230469c15.007812 0 27.21875 12.210937 27.21875 27.21875zm0 0" fill="#55b6ff"/><path d="m351.710938 319.53125v13.308594c0 8.289062-6.722657 15-15 15v-43.308594c8.277343 0 15 6.71875 15 15zm0 0" fill="#fff4f4"/></svg>