<svg height="512pt" viewBox="0 0 512 512" width="512pt" xmlns="http://www.w3.org/2000/svg"><path d="m512 251.929688v230.125c0 16.507812-13.429688 29.945312-29.929688 29.945312h-30.070312l-196-30.015625-196 30.015625h-30.070312c-16.5 0-29.929688-13.4375-29.929688-29.945312v-230.125c0-16.511719 13.429688-29.949219 29.929688-29.949219h452.140624c16.5 0 29.929688 13.4375 29.929688 29.949219zm0 0" fill="#ffbc1d"/><path d="m512 251.929688v230.125c0 16.507812-13.429688 29.945312-29.929688 29.945312h-30.070312l-196-30.015625v-260.003906h226.070312c16.5 0 29.929688 13.4375 29.929688 29.949219zm0 0" fill="#ff7421"/><path d="m452 204.222656v307.777344h-392v-308.058594c0-17.621094 14.328125-31.949218 31.941406-31.949218h95.519532c28.347656 0 53.429687 14.207031 68.539062 35.878906.03125.050781.070312.09375.101562.140625 15.117188-21.589844 40.148438-35.75 68.4375-35.75h95.519532c17.613281.003906 31.941406 14.339843 31.941406 31.960937zm0 0" fill="#fff4f4"/><g fill="#f3e2dd"><path d="m452 204.222656v307.777344h-196v-304.125c.03125.050781.070312.089844.101562.140625 15.117188-21.59375 40.148438-35.75 68.4375-35.75h95.519532c17.613281 0 31.941406 14.335937 31.941406 31.957031zm0 0"/><path d="m119.765625 268.707031h76.617187c8.285157 0 15-6.71875 15-15.007812 0-8.289063-6.714843-15.007813-15-15.007813h-76.617187c-8.285156 0-15 6.71875-15 15.007813 0 8.289062 6.714844 15.007812 15 15.007812zm0 0"/><path d="m196.382812 298.691406h-76.617187c-8.285156 0-15 6.71875-15 15.007813 0 8.289062 6.714844 15.007812 15 15.007812h76.617187c8.285157 0 15-6.71875 15-15.007812 0-8.289063-6.714843-15.007813-15-15.007813zm0 0"/><path d="m196.382812 358.691406h-76.617187c-8.285156 0-15 6.71875-15 15.007813 0 8.289062 6.714844 15.007812 15 15.007812h76.617187c8.285157 0 15-6.71875 15-15.007812 0-8.289063-6.714843-15.007813-15-15.007813zm0 0"/><path d="m196.382812 418.691406h-76.617187c-8.285156 0-15 6.71875-15 15.007813 0 8.289062 6.714844 15.007812 15 15.007812h76.617187c8.285157 0 15-6.722656 15-15.007812 0-8.289063-6.714843-15.007813-15-15.007813zm0 0"/></g><path d="m318.042969 268.410156h76.621093c8.285157 0 15-6.71875 15-15.007812 0-8.289063-6.714843-15.007813-15-15.007813h-76.621093c-8.28125 0-15 6.71875-15 15.007813 0 8.289062 6.71875 15.007812 15 15.007812zm0 0" fill="#d2bfba"/><path d="m394.664062 298.394531h-76.621093c-8.28125 0-15 6.71875-15 15.007813 0 8.289062 6.71875 15.007812 15 15.007812h76.621093c8.285157 0 15-6.71875 15-15.007812 0-8.289063-6.714843-15.007813-15-15.007813zm0 0" fill="#d2bfba"/><path d="m394.664062 358.394531h-76.621093c-8.28125 0-15 6.71875-15 15.007813 0 8.289062 6.71875 15.007812 15 15.007812h76.621093c8.285157 0 15-6.71875 15-15.007812 0-8.289063-6.714843-15.007813-15-15.007813zm0 0" fill="#d2bfba"/><path d="m394.664062 418.394531h-76.621093c-8.28125 0-15 6.71875-15 15.007813 0 8.289062 6.71875 15.007812 15 15.007812h76.621093c8.285157 0 15-6.71875 15-15.007812 0-8.289063-6.714843-15.007813-15-15.007813zm0 0" fill="#d2bfba"/><path d="m226 49.535156h60v30.019532h-60zm0 0" fill="#7a8388"/><path d="m93.972656 49.535156h-46.777344c-8.28125 0-15 6.722656-15 15.011719s6.71875 15.007813 15 15.007813h46.777344c8.285156 0 15-6.71875 15-15.007813s-6.714844-15.011719-15-15.011719zm0 0" fill="#7a8388"/><path d="m464.804688 49.535156h-46.777344c-8.285156 0-15 6.722656-15 15.011719s6.714844 15.007813 15 15.007813h46.777344c8.28125 0 15-6.71875 15-15.007813s-6.71875-15.011719-15-15.011719zm0 0" fill="#535f64"/><path d="m256.101562 49.535156h29.898438v30.019532h-29.898438zm0 0" fill="#535f64"/><path d="m211.238281 0h-102.503906c-16.410156 0-29.761719 13.359375-29.761719 29.777344v48.742187c0 27.882813 22.675782 50.570313 50.542969 50.570313h60.941406c27.871094 0 50.542969-22.6875 50.542969-50.570313v-48.742187c0-16.417969-13.351562-29.777344-29.761719-29.777344zm0 0" fill="#7be6ff"/><path d="m403.265625 0h-102.503906c-16.410157 0-29.761719 13.359375-29.761719 29.777344v48.742187c0 27.882813 22.671875 50.570313 50.542969 50.570313h60.941406c27.867187 0 50.542969-22.6875 50.542969-50.570313v-48.742187c0-16.417969-13.351563-29.777344-29.761719-29.777344zm0 0" fill="#55b6ff"/></svg>