<svg height="511pt" viewBox="0 -5 511.99944 511" width="511pt" xmlns="http://www.w3.org/2000/svg"><path d="m385.210938 347.398438-30 146.140624c-39.78125 3.730469-77.21875 6.652344-99.207032 6.929688-1.191406.019531-2.332031.03125-3.421875.03125-45.941406 0-94.5-7.769531-140.417969-22.480469-39.78125-12.738281-75.339843-29.910156-100.160156-48.351562-8.339844-6.1875-12.789062-16.058594-11.890625-26.378907l27.769531-319.78125c.941407-10.820312 7.742188-20.257812 17.742188-24.648437l127.378906-55.839844c7.679688-3.359375 16.488282-3.359375 24.167969.007813 7.621094 3.351562 13.542969 9.761718 16.230469 17.601562l31.441406 91.640625c3.089844 9.019531 1.628906 19.050781-3.921875 26.820313-5.597656 7.839844-14.71875 12.519531-24.398437 12.519531h-69.660157l16.878907 103.699219c17.011718-9.910156 36.601562-14.871094 56.632812-14.199219 12.359375.417969 24.398438 2.96875 35.628906 7.460937 9 3.589844 17.488282 8.429688 25.199219 14.398438 13.269531-15.539062 36.261719-40.191406 74.011719-60.460938zm0 0" fill="#ffdfc2"/><path d="m385.210938 347.398438-30 146.140624c-39.78125 3.730469-77.21875 6.652344-99.207032 6.929688v-251.898438c9 3.589844 17.488282 8.429688 25.199219 14.398438 13.269531-15.539062 36.257813-40.191406 74.007813-60.460938zm0 0" fill="#ffbd83"/><path d="m512 190.558594v210.296875c0 43.511719-32.960938 79.871093-76.648438 84.5625-25.0625 2.6875-53.140624 5.589843-80.140624 8.117187v-291.027344c32.519531-17.46875 76.019531-31.679687 133.707031-34.007812 6.03125-.242188 11.960937 2.007812 16.300781 6.179688 4.300781 4.128906 6.78125 9.917968 6.78125 15.878906zm0 0" fill="#00c97d"/></svg>