<svg height="512pt" viewBox="-70 0 512 512" width="512pt" xmlns="http://www.w3.org/2000/svg"><path d="m255.511719 15c0 8.28125-6.710938 15-15 15h-21c-9.949219 0-18.050781 8.101562-18.050781 18.058594v43.882812c0 8.289063-6.71875 15-15 15-.148438 0-.308594 0-.460938-.011718-8.078125-.238282-14.539062-6.851563-14.539062-14.988282v-43.882812c0-13.46875 5.570312-25.667969 14.539062-34.410156 8.660156-8.4375 20.480469-13.648438 33.511719-13.648438h21c8.289062 0 15 6.71875 15 15zm0 0" fill="#535f64"/><path d="m255.511719 15c0 8.28125-6.710938 15-15 15h-21c-9.949219 0-18.050781 8.101562-18.050781 18.058594v43.882812c0 8.289063-6.71875 15-15 15-.148438 0-.308594 0-.460938-.011718v-93.28125c8.660156-8.4375 20.480469-13.648438 33.511719-13.648438h21c8.289062 0 15 6.71875 15 15zm0 0" fill="#3e494c"/><path d="m370.703125 264.699219c0 71.839843-48.050781 151.449219-95.660156 198.472656-42.832031 42.296875-73.671875 48.828125-88.589844 48.828125h-.542969c-16.617187-.03125-36.230468-8.339844-58.269531-24.679688-19.839844-14.699218-40.109375-34.871093-58.628906-58.320312-43.019531-54.480469-67.699219-114.371094-67.699219-164.300781 0-28.9375 4.140625-53.410157 12.648438-74.808594l2.8125-7.082031 169.226562-43.609375 169.832031 41.972656 2.890625 7.046875c8.277344 20.230469 11.980469 43.8125 11.980469 76.480469zm0 0" fill="#ff637d"/><path d="m370.703125 264.699219c0 71.839843-48.050781 151.449219-95.660156 198.472656-42.832031 42.296875-73.671875 48.828125-88.589844 48.828125h-.453125v-372.800781l169.832031 41.972656 2.890625 7.046875c8.277344 20.230469 11.980469 43.8125 11.980469 76.480469zm0 0" fill="#ff3650"/><path d="m369.363281 191.75c-4.070312 8.960938-12.300781 15.289062-22.011719 16.941406-41.101562 6.988282-65.648437.429688-82.21875-8.703125-12.941406 55.210938-49.0625 79.8125-64.871093 88.140625-4.339844 2.292969-9.511719 3.429688-14.261719 3.429688-4.699219 0-8.957031-1.117188-13.238281-3.367188-15.898438-8.363281-52.308594-33.101562-65.121094-88.832031-6.75 3.230469-14.589844 5.96875-23.039063 8.011719-18.050781 4.347656-37.710937 5.347656-58.421874 2.957031-10-1.148437-18.636719-7.226563-23.109376-16.257813-4.457031-9.03125-4.039062-19.570312 1.109376-28.199218 17.3125-29 42.09375-51.402344 73.671874-66.582032 30.839844-14.828124 66.921876-22.347656 108.148438-22.347656 40.792969 0 77.472656 7.367188 108.113281 21.910156 31.347657 14.867188 56.089844 36.828126 73.527344 65.257813 5.132813 8.371094 5.769531 18.699219 1.722656 27.640625zm0 0" fill="#00e87b"/><path d="m369.363281 191.75c-4.070312 8.960938-12.300781 15.289062-22.011719 16.941406-41.101562 6.988282-65.648437.429688-82.21875-8.703125-12.941406 55.210938-49.0625 79.8125-64.871093 88.140625-4.339844 2.292969-9.511719 3.429688-14.261719 3.429688v-214.617188c40.792969 0 77.472656 7.367188 108.113281 21.910156 31.347657 14.867188 56.089844 36.828126 73.527344 65.257813 5.132813 8.371094 5.769531 18.699219 1.722656 27.640625zm0 0" fill="#00c97d"/></svg>