<svg height="512pt" viewBox="0 0 512 512" width="512pt" xmlns="http://www.w3.org/2000/svg"><path d="m380.757812 428.820312c-8.285156 0-15 6.71875-15 15v53.179688c0 8.285156 6.714844 15 15 15 8.28125 0 15-6.714844 15-15v-53.179688c0-8.28125-6.71875-15-15-15zm0 0" fill="#55b6ff"/><path d="m101.242188 428.820312c-8.28125 0-15 6.71875-15 15v53.179688c0 8.285156 6.71875 15 15 15 8.285156 0 15-6.714844 15-15v-53.179688c0-8.28125-6.714844-15-15-15zm0 0" fill="#7be6ff"/><path d="m151.300781 0c-35.871093 0-65.058593 29.183594-65.058593 65.054688v211.421874h30v-53.902343h35.058593c8.285157 0 15-6.714844 15-15 0-8.285157-6.714843-15-15-15h-35.058593v-127.519531c0-19.328126 15.726562-35.054688 35.058593-35.054688s35.058594 15.726562 35.058594 35.054688h30c-.003906-35.871094-29.1875-65.054688-65.058594-65.054688zm0 0" fill="#7be6ff"/><path d="m512 208.175781c0 66.800781 0 116.628907-23.839844 174.777344l-239.988281 20-239.992187-20c-6.53125-30.199219-8.179688-57.789063-8.179688-89.398437v-2.851563c0-16.109375 13.058594-29.226563 29.121094-29.226563h168.328125c13.832031 0 27.691406-1.511718 41.199219-4.480468 3.203124-.722656 6.371093-1.519532 9.523437-2.402344 19.519531-5.410156 38.429687-13.808594 60-26.558594 84.058594-50.929687 150.117187-49.589844 172.046875-49.089844h2.660156c16.0625 0 29.121094 13.109376 29.121094 29.230469zm0 0" fill="#fff4f4"/><path d="m512 208.175781c0 66.800781 0 116.628907-23.839844 174.777344l-239.988281 20v-148.359375c19.519531-5.410156 38.429687-13.808594 60-26.558594 84.058594-50.929687 150.117187-49.589844 172.046875-49.089844h2.660156c16.0625 0 29.121094 13.109376 29.121094 29.230469zm0 0" fill="#f3e2dd"/><path d="m488.160156 382.953125c-8.019531 19.5625-18.738281 40.0625-33.058594 62.460937-5.363281 8.402344-14.511718 13.410157-24.480468 13.410157h-378.101563c-12.050781 0-23-7.589844-27.238281-18.890625-7.800781-20.769532-13.292969-39.320313-17.101562-56.980469zm0 0" fill="#f3e2dd"/><path d="m201.355469 49.523438c-24.144531 0-43.792969 19.648437-43.792969 43.796874v23.269532c0 11.3125 9.203125 20.519531 20.519531 20.519531h46.550781c11.3125 0 20.519532-9.207031 20.519532-20.519531v-23.269532c0-24.148437-19.644532-43.796874-43.796875-43.796874zm0 0" fill="#55b6ff"/><path d="m488.160156 382.953125c-8.019531 19.5625-18.738281 40.0625-33.058594 62.460937-5.363281 8.402344-14.511718 13.410157-24.480468 13.410157h-182.449219v-75.871094zm0 0" fill="#d2bfba"/></svg>