<svg height="512pt" viewBox="0 0 512 512" width="512pt" xmlns="http://www.w3.org/2000/svg"><path d="m496.070312 16.089844-.160156-.160156c-21.238281-21.238282-55.675781-21.238282-76.914062 0l-149.878906 149.878906 77.074218 77.074218 149.878906-149.878906c21.238282-21.238281 21.238282-55.675781 0-76.914062zm0 0" fill="#ff6e57"/><path d="m346.191406 242.882812 149.878906-149.878906c21.238282-21.238281 21.238282-55.675781 0-76.914062l-.085937-.085938-188.335937 188.332032zm0 0" fill="#f2472c"/><path d="m270.578125 170.730469-204.578125 204.578125c-11.027344 11.027344-30.140625 41.367187-27.320312 55.597656l-29.894532 29.894531c-11.714844 11.714844-11.714844 30.703125 0 42.414063 11.710938 11.710937 30.699219 11.710937 42.410156 0l29.898438-29.894532c14.230469 2.816407 44.570312-16.296874 55.597656-27.324218l204.578125-204.578125zm0 0" fill="#d1f7ff"/><path d="m8.785156 503.214844c11.710938 11.710937 30.699219 11.710937 42.410156 0l29.898438-29.894532c14.230469 2.816407 44.570312-16.296874 55.597656-27.324218l204.578125-204.578125-35.351562-35.347657-297.140625 297.136719c.003906.003907.003906.003907.007812.007813zm0 0" fill="#a3efff"/><path d="m288.25 145.992188c-11.710938-11.710938-30.699219-11.710938-42.410156 0-11.714844 11.710937-11.714844 30.699218 0 42.414062l77.753906 77.753906c11.714844 11.710938 30.703125 11.710938 42.414062 0 11.710938-11.710937 11.710938-30.699218 0-42.410156zm0 0" fill="#ffa38c"/><path d="m323.59375 266.160156c11.714844 11.710938 30.703125 11.710938 42.414062 0 11.710938-11.710937 11.710938-30.703125 0-42.414062l-38.882812-38.882813-42.414062 42.414063zm0 0" fill="#ff6e57"/><path d="m233.503906 349.179688-70.6875-70.6875-96.816406 96.816406c-11.027344 11.027344-30.140625 41.367187-27.320312 55.597656l-29.894532 29.894531c-11.714844 11.714844-11.714844 30.703125 0 42.414063 11.710938 11.710937 30.699219 11.710937 42.410156 0l29.898438-29.894532c14.230469 2.816407 44.570312-16.296874 55.597656-27.324218zm0 0" fill="#6ad9eb"/><path d="m8.785156 503.214844c11.710938 11.710937 30.699219 11.710937 42.410156 0l29.898438-29.894532c14.230469 2.816407 44.570312-16.296874 55.597656-27.324218l96.8125-96.8125-35.347656-35.351563-189.378906 189.375c.003906.003907.003906.003907.007812.007813zm0 0" fill="#28c1d1"/></svg>