<svg height="512pt" viewBox="0 0 512 512" width="512pt" xmlns="http://www.w3.org/2000/svg"><path d="m336.332031 512c-96.863281 0-175.667969-78.804688-175.667969-175.667969s78.804688-175.667969 175.667969-175.667969c96.863281.003907 175.667969 78.804688 175.667969 175.667969s-78.804688 175.667969-175.667969 175.667969zm0 0" fill="#6ad9eb"/><path d="m175.664062 512c-96.859374 0-175.664062-78.804688-175.664062-175.667969s78.804688-175.667969 175.664062-175.667969c96.863282 0 175.667969 78.804688 175.667969 175.667969s-78.800781 175.667969-175.667969 175.667969zm0 0" fill="#67e57e"/><path d="m260.875 351.332031c-96.863281 0-175.664062-78.804687-175.664062-175.667969 0-96.859374 78.800781-175.664062 175.664062-175.664062s175.667969 78.804688 175.667969 175.667969-78.804688 175.664062-175.667969 175.664062zm0 0" fill="#ff8b6e"/><path d="m260.875 0c-1.632812 0-3.253906.0273438-4.875.0703125v351.1914065c1.621094.046875 3.246094.074219 4.875.074219 96.863281 0 175.667969-78.804688 175.667969-175.667969s-78.804688-175.667969-175.667969-175.667969zm0 0" fill="#ff6e57"/><path d="m161.398438 320.371094c28.300781 19.515625 62.574218 30.964844 99.476562 30.964844 91.480469 0 166.839844-70.296876 174.933594-159.707032-28.300782-19.515625-62.574219-30.960937-99.476563-30.960937-91.480469 0-166.839843 70.292969-174.933593 159.703125zm0 0" fill="#ffb5b5"/><path d="m85.496094 185.628906c5.1875 92.246094 81.863281 165.703125 175.378906 165.703125 32.945312 0 63.792969-9.121093 90.171875-24.964843-5.1875-92.242188-81.863281-165.703126-175.378906-165.703126-32.945313.003907-63.796875 9.125-90.171875 24.964844zm0 0" fill="#fff566"/><path d="m256 180.140625c-56.570312 29.210937-95.335938 88.257813-95.335938 156.195313 0 67.933593 38.765626 126.976562 95.335938 156.191406 56.570312-29.214844 95.332031-88.257813 95.332031-156.191406 0-67.9375-38.761719-126.984376-95.332031-156.195313zm0 0" fill="#d1f7ff"/><path d="m351.332031 336.332031c0-67.933593-38.765625-126.980469-95.332031-156.191406v312.386719c56.570312-29.214844 95.332031-88.261719 95.332031-156.195313zm0 0" fill="#a3efff"/><path d="m260.875 351.332031c32.945312 0 63.796875-9.121093 90.175781-24.964843-3.582031-63.710938-41.269531-118.453126-95.050781-146.226563-52.085938 26.898437-89.078125 79.089844-94.613281 140.222656 28.304687 19.519531 62.582031 30.96875 99.488281 30.96875zm0 0" fill="#fff"/><path d="m260.875 351.332031c32.945312 0 63.796875-9.121093 90.175781-24.964843-3.582031-63.710938-41.269531-118.453126-95.050781-146.226563v171.117187c1.621094.046876 3.242188.074219 4.875.074219zm0 0" fill="#f0f6fe"/></svg>