<svg height="512pt" viewBox="-5 0 512 512" width="512pt" xmlns="http://www.w3.org/2000/svg"><path d="m29.9375 488.835938c-8.097656-7.289063-14.867188-16.082032-19.960938-26.082032-10.914062-21.417968-12.835937-45.808594-5.40625-68.671875 7.429688-22.863281 23.316407-41.464843 44.734376-52.378906l362.640624-184.773437c7.382813-3.761719 16.414063-.824219 20.175782 6.554687l68.097656 133.652344c1.808594 3.542969 2.128906 7.660156.902344 11.441406-1.230469 3.785156-3.910156 6.925781-7.457032 8.730469l-362.640624 184.777344c-21.417969 10.910156-45.808594 12.832031-68.671876 5.402343-12.1875-3.960937-23.167968-10.324219-32.414062-18.652343zm0 0" fill="#a3efff"/><path d="m242.910156 276.722656 71.28125-36.320312 54.480469 106.921875-71.28125 36.320312zm0 0" fill="#28c1d1"/><path d="m340.921875 226.785156 71.277344-36.320312 54.480469 106.921875-71.277344 36.320312zm0 0" fill="#00a2b2"/><path d="m153.96875 326.511719 54.480469 106.917969 71.28125-36.316407-27.238281-53.460937-27.242188-53.460938zm0 0" fill="#6ad9eb"/><path d="m57.761719 506.074219c-10.167969-3.902344-19.640625-9.683594-27.980469-17.195313-17.863281-16.085937-28.398438-38.164062-29.65625-62.171875-1.257812-24.007812 6.910156-47.066406 22.996094-64.933593l272.335937-302.457032c5.542969-6.160156 15.023438-6.65625 21.183594-1.113281l111.46875 100.371094c2.957031 2.660156 4.734375 6.390625 4.945313 10.363281.207031 3.972656-1.171876 7.863281-3.832032 10.820312l-272.335937 302.460938c-16.085938 17.863281-38.167969 28.394531-62.175781 29.652344-12.796876.671875-25.328126-1.335938-36.949219-5.796875zm0 0" fill="#d1f7ff"/><path d="m180.5625 231.738281 53.527344-59.449219 89.171875 80.292969-53.527344 59.445313zm0 0" fill="#67e57e"/><path d="m254.171875 150 53.527344-59.449219 89.171875 80.292969-53.527344 59.445312zm0 0" fill="#21b572"/><path d="m115.386719 310.082031 89.175781 80.296875 53.53125-59.453125-44.585938-40.148437-44.589843-40.148438zm0 0" fill="#81fc94"/><path d="m90.171875 511.957031c-10.894531 0-21.808594-2.003906-32.285156-6.027343-22.441407-8.613282-40.1875-25.453126-49.964844-47.414063s-10.417969-46.417969-1.804687-68.859375l145.855468-379.96875c2.972656-7.734375 11.644532-11.59375 19.378906-8.628906l140.039063 53.757812c3.714844 1.425782 6.710937 4.269532 8.328125 7.902344s1.726562 7.761719.300781 11.476562l-145.855469 379.964844c-8.617187 22.445313-25.457031 40.191406-47.417968 49.96875-11.707032 5.210938-24.128906 7.828125-36.574219 7.828125zm0 0" fill="#a3efff"/><path d="m106.523438 211.824219 28.671874-74.6875 112.03125 43.007812-28.671874 74.6875zm0 0" fill="#ff6e57"/><path d="m145.945312 109.125 28.671876-74.683594 112.03125 43.007813-28.671876 74.683593zm0 0" fill="#f2472c"/><path d="m73.730469 308.328125 112.03125 43.003906 28.667969-74.683593-56.011719-21.503907-56.015625-21.5zm0 0" fill="#ffa38c"/><path d="m122.421875 506.054688c-10.171875 3.90625-21.078125 5.945312-32.300781 5.945312-24.039063 0-46.640625-9.363281-63.640625-26.359375-17-17-26.359375-39.601563-26.359375-63.640625v-407c0-8.285156 6.714844-15 15-15h150c3.976562 0 7.792968 1.578125 10.605468 4.394531 2.8125 2.8125 4.394532 6.625 4.394532 10.605469v407c0 24.039062-9.363282 46.640625-26.359375 63.640625-9.066407 9.0625-19.722657 15.957031-31.339844 20.414063zm0 0" fill="#e8ffff"/><path d="m165.121094 0h-72.363282v511.941406c10.292969-.296875 20.292969-2.289062 29.664063-5.886718 11.617187-4.457032 22.273437-11.351563 31.339844-20.414063 16.996093-17 26.359375-39.601563 26.359375-63.640625v-407c0-3.976562-1.582032-7.792969-4.394532-10.605469-2.8125-2.816406-6.628906-4.394531-10.605468-4.394531zm0 0" fill="#d1f7ff"/><path d="m30.121094 140h120v80h-120zm0 0" fill="#ffe645"/><path d="m30.121094 30h120v80h-120zm0 0" fill="#ffc12e"/><path d="m30.09375 330h120v-80h-120zm0 0" fill="#ffff95"/><path d="m92.757812 250h57.335938v79.996094h-57.335938zm0 0" fill="#ffe645"/><path d="m92.757812 140h57.363282v80h-57.363282zm0 0" fill="#ffc12e"/><path d="m92.757812 30h57.363282v80h-57.363282zm0 0" fill="#ed8f00"/><path d="m91.222656 444.109375c-6.585937 0-13.035156-2.683594-17.6875-7.332031-4.652344-4.648438-7.320312-11.082032-7.320312-17.667969 0-6.582031 2.667968-13.03125 7.320312-17.683594 4.652344-4.648437 11.101563-7.316406 17.6875-7.316406 6.570313 0 13.023438 2.667969 17.671875 7.316406 4.652344 4.652344 7.320313 11.101563 7.320313 17.683594 0 6.585937-2.667969 13.019531-7.320313 17.667969-4.648437 4.648437-11.101562 7.332031-17.671875 7.332031zm0 0" fill="#a3efff"/><path d="m92.757812 394.164062v49.890626c6.03125-.378907 11.851563-2.988282 16.136719-7.277344 4.652344-4.648438 7.320313-11.082032 7.320313-17.667969 0-6.582031-2.667969-13.03125-7.320313-17.683594-4.285156-4.285156-10.105469-6.882812-16.136719-7.261719zm0 0" fill="#6ad9eb"/></svg>