<svg height="512pt" viewBox="-76 0 512 512.00001" width="512pt" xmlns="http://www.w3.org/2000/svg"><path d="m315 512h-300c-8.285156 0-15-6.714844-15-15v-482c0-8.285156 6.714844-15 15-15h300c24.8125 0 45 20.1875 45 45v422c0 24.8125-20.1875 45-45 45zm0 0" fill="#878477"/><path d="m315 0h-135.023438v512h135.019532c24.816406 0 45-20.1875 45-45v-422c.003906-24.8125-20.183594-45-44.996094-45zm0 0" fill="#787465"/><path d="m0 168.519531h360v195h-360zm0 0" fill="#ffe645"/><path d="m255.72826 168.52019h180.024141v195.000761h-180.024141zm0 0" fill="#ffcf2c" stroke="#ffd236" stroke-miterlimit="10" transform="matrix(.999996 0 0 .999996 -75.750699 0)"/><path d="m85 235.019531h-30c-8.285156 0-15-6.714843-15-15 0-8.285156 6.714844-15 15-15h30c8.285156 0 15 6.714844 15 15 0 8.285157-6.714844 15-15 15zm0 0" fill="#ed8f00"/><path d="m258.511719 0h30v512h-30zm0 0" fill="#4c4a40"/></svg>