<svg height="512pt" viewBox="-19 0 512 512" width="512pt" xmlns="http://www.w3.org/2000/svg"><path d="m458.507812 512h-385.007812c-8.285156 0-15-6.714844-15-15v-482c0-8.285156 6.714844-15 15-15h264.984375l135.023437 135.015625v361.984375c0 8.285156-6.714843 15-15 15zm0 0" fill="#d1f7ff"/><path d="m266.003906 0v512h192.503906c8.285157 0 15-6.714844 15-15v-361.984375l-135.023437-135.015625zm0 0" fill="#a3efff"/><path d="m338.484375 0v120.007812c0 8.285157 6.71875 15 15 15h120.019531zm0 0" fill="#6ad9eb"/><path d="m15 216.089844h323.503906v183.023437h-323.503906zm0 0" fill="#28c1d1"/><path d="m176.753906 216.089844h161.75v183.023437h-161.75zm0 0" fill="#00a2b2"/><path d="m338.503906 414.113281h-323.503906c-8.285156 0-15-6.714843-15-15v-183.023437c0-8.28125 6.714844-15 15-15h323.503906c8.285156 0 15 6.71875 15 15v183.023437c0 8.285157-6.714844 15-15 15zm-308.503906-30h293.503906v-153.023437h-293.503906zm0 0" fill="#a19d8d"/><path d="m338.503906 201.089844h-161.75v30h146.75v153.023437h-146.75v30h161.75c8.285156 0 15-6.714843 15-15v-183.023437c0-8.28125-6.714844-15-15-15zm0 0" fill="#696453"/><path d="m61.742188 264.34375c0-3.5 3.21875-6.578125 8.121093-6.578125h28.980469c18.480469 0 33.039062 8.679687 33.039062 32.199219v.699218c0 23.523438-15.121093 32.480469-34.441406 32.480469h-13.859375v30.242188c0 4.480469-5.460937 6.71875-10.921875 6.71875-5.457031 0-10.917968-2.238281-10.917968-6.71875zm21.839843 12.460938v29.542968h13.859375c7.839844 0 12.601563-4.480468 12.601563-14v-1.542968c0-9.519532-4.761719-14-12.601563-14zm0 0" fill="#fff"/><path d="m186.902344 332.667969c0-16.941407-44.378906-14-44.378906-46.761719 0-21 18.339843-28.980469 35.839843-28.980469 7.417969 0 27.859375 1.398438 27.859375 12.320313 0 3.777344-2.519531 11.476562-8.679687 11.476562-5.039063 0-7.699219-5.316406-19.179688-5.316406-9.941406 0-14 4.058594-14 8.398438 0 14 44.378907 11.339843 44.378907 46.621093 0 20.160157-14.699219 31.078125-35 31.078125-18.339844 0-33.742188-8.960937-33.742188-18.199218 0-4.761719 4.203125-11.761719 9.523438-11.761719 6.578124 0 10.777343 10.363281 23.800781 10.363281 6.4375 0 13.578125-2.519531 13.578125-9.238281zm0 0" fill="#fff"/><g fill="#d1f7ff"><path d="m257.320312 257.765625c19.320313 0 34.441407 8.960937 34.441407 33.039063v36.261718c0 24.078125-15.121094 33.039063-34.441407 33.039063h-24.777343c-5.742188 0-9.523438-3.078125-9.523438-6.578125v-89.183594c0-3.5 3.78125-6.578125 9.523438-6.578125zm-12.457031 19.039063v64.261718h12.457031c7.84375 0 12.601563-4.480468 12.601563-14v-36.261718c0-9.519532-4.757813-14-12.601563-14zm0 0"/><path d="m176.753906 294.671875v26.316406c5.882813 3.085938 10.148438 6.425781 10.148438 11.679688 0 5.535156-4.84375 8.214843-10.148438 8.988281v19.761719c18.722656-1.039063 31.988282-11.84375 31.988282-30.992188 0-23-18.859376-29.875-31.988282-35.753906zm0 0"/><path d="m197.542969 280.726562c6.160156 0 8.679687-7.703124 8.679687-11.480468 0-10.921875-20.441406-12.320313-27.859375-12.320313-.539062 0-1.074219.007813-1.613281.023438v18.5c.519531-.027344 1.054688-.042969 1.613281-.042969 11.480469 0 14.136719 5.320312 19.179688 5.320312zm0 0"/></g></svg>