<svg height="511pt" viewBox="0 0 511.99964 511" width="511pt" xmlns="http://www.w3.org/2000/svg"><path d="m435.910156 175.585938c-3.972656 0-7.785156-1.578126-10.59375-4.390626l-83.375-83.371093c-5.847656-5.851563-5.847656-15.335938 0-21.1875l55.273438-55.273438c13.632812-13.632812 35.8125-13.628906 49.441406 0l55.121094 55.121094c13.628906 13.628906 13.628906 35.808594 0 49.4375l-55.273438 55.273437c-2.808594 2.8125-6.621094 4.390626-10.59375 4.390626zm0 0" fill="#ff8e7a"/><path d="m425.316406 171.199219c2.808594 2.808593 6.621094 4.386719 10.59375 4.386719s7.785156-1.578126 10.59375-4.386719l55.273438-55.273438c13.628906-13.632812 13.628906-35.808593 0-49.441406l-28.242188-28.242187-90.585937 90.585937zm0 0" fill="#ff5c42"/><path d="m143.390625 468.105469c-3.972656 0-7.785156-1.578125-10.59375-4.386719l-83.375-83.375c-5.851563-5.851562-5.851563-15.335938 0-21.1875l268.851563-268.851562 104.5625 104.5625-268.851563 268.851562c-2.8125 2.808594-6.621094 4.386719-10.59375 4.386719zm0 0" fill="#ffc12e"/><path d="m132.796875 463.71875c2.808594 2.808594 6.621094 4.390625 10.59375 4.390625s7.785156-1.582031 10.59375-4.390625l268.847656-268.851562-52.960937-52.964844-279.445313 279.445312zm0 0" fill="#ffa81c"/><path d="m299.75 108.828125 42.191406-42.1875 104.558594 104.558594-42.191406 42.191406zm0 0" fill="#edeade"/><path d="m351.347656 160.425781 42.191406-42.191406 52.960938 52.964844-42.191406 42.191406zm0 0" fill="#b0ac9b"/><path d="m14.984375 511.898438c-3.9375 0-7.796875-1.554688-10.65625-4.449219-4.039063-4.085938-5.386719-10.121094-3.46875-15.535157l45.035156-127.164062 102.332031 102.554688-128.40625 43.792968c-1.585937.539063-3.214843.800782-4.835937.800782zm0 0" fill="#ffe9d6"/><path d="m96.40625 415.371094-92.078125 92.078125c2.859375 2.894531 6.71875 4.449219 10.65625 4.449219 1.621094 0 3.25-.261719 4.835937-.800782l128.40625-43.792968zm0 0" fill="#ffd5b8"/><path d="m18.753906 441.386719-17.894531 50.527343c-1.917969 5.417969-.570313 11.449219 3.46875 15.535157 2.859375 2.894531 6.71875 4.449219 10.65625 4.449219 1.621094 0 3.25-.261719 4.835937-.800782l51.1875-17.457031zm0 0" fill="#696453"/><path d="m44.570312 467.203125-40.242187 40.246094c2.859375 2.894531 6.71875 4.449219 10.65625 4.449219 1.621094 0 3.25-.261719 4.835937-.800782l51.1875-17.457031zm0 0" fill="#424038"/><path d="m417.859375 511.898438c-3.972656 0-7.785156-1.578126-10.59375-4.386719l-402.566406-402.570313c-2.8125-2.808594-4.390625-6.621094-4.390625-10.59375s1.578125-7.785156 4.390625-10.59375l78.863281-78.867187c5.851562-5.851563 15.335938-5.851563 21.1875 0l402.570312 402.570312c5.851563 5.851563 5.851563 15.335938 0 21.1875l-78.863281 78.863281c-2.8125 2.8125-6.621093 4.390626-10.597656 4.390626zm0 0" fill="#67e57e"/><path d="m407.265625 507.511719c2.8125 2.808593 6.621094 4.386719 10.597656 4.386719 3.972657 0 7.785157-1.578126 10.59375-4.386719l78.863281-78.867188c5.851563-5.851562 5.851563-15.335937 0-21.1875l-201.269531-201.265625-100.050781 100.050782zm0 0" fill="#4dc979"/><g fill="#787465"><path d="m75.269531 97.625-38.941406 38.945312 21.1875 21.1875 38.941406-38.945312c5.851563-5.851562 5.851563-15.335938 0-21.1875-5.847656-5.851562-15.335937-5.851562-21.1875 0zm0 0"/><path d="m116.414062 163.222656-26.71875 26.71875 21.1875 21.1875 26.71875-26.71875c5.851563-5.851562 5.851563-15.335937 0-21.1875-5.851562-5.851562-15.339843-5.851562-21.1875 0zm0 0"/><path d="m181.484375 203.839844-38.941406 38.945312 21.1875 21.1875 38.945312-38.941406c5.847657-5.851562 5.847657-15.339844 0-21.191406-5.851562-5.847656-15.339843-5.851563-21.191406 0zm0 0"/><path d="m222.105469 268.914062-26.71875 26.71875 21.191406 21.1875 26.714844-26.71875c5.851562-5.851562 5.851562-15.335937 0-21.1875-5.851563-5.851562-15.335938-5.851562-21.1875 0zm0 0"/></g><path d="m216.578125 316.820312 26.714844-26.71875c5.847656-5.84375 5.851562-15.316406.015625-21.167968l-37.308594 37.308594zm0 0" fill="#4c4a40"/><path d="m286.945312 309.300781-38.945312 38.945313 21.1875 21.1875 38.945312-38.945313c5.851563-5.851562 5.851563-15.335937 0-21.1875-5.851562-5.851562-15.339843-5.851562-21.1875 0zm0 0" fill="#4c4a40"/><path d="m414.273438 415.441406c-5.847657-5.851562-15.335938-5.851562-21.1875 0l-38.945313 38.941406 21.1875 21.191407 38.945313-38.945313c5.851562-5.847656 5.851562-15.335937 0-21.1875zm0 0" fill="#4c4a40"/><path d="m327.886719 374.699219-26.714844 26.714843 21.1875 21.191407 26.71875-26.71875c5.851563-5.847657 5.851563-15.335938 0-21.1875-5.851563-5.851563-15.339844-5.851563-21.191406 0zm0 0" fill="#4c4a40"/></svg>