<svg height="511pt" viewBox="0 -115 511.998 511" width="511pt" xmlns="http://www.w3.org/2000/svg"><path d="m256 280.5c-32.304688 0-65.769531-6.945312-99.457031-20.636719-26.601563-10.808593-53.414063-25.839843-79.691407-44.671875-44.554687-31.921875-72.058593-63.558594-73.207031-64.890625-4.859375-5.628906-4.859375-13.972656 0-19.601562 1.148438-1.332031 28.652344-32.96875 73.207031-64.894531 26.277344-18.828126 53.089844-33.859376 79.691407-44.671876 33.6875-13.691406 67.152343-20.632812 99.457031-20.632812s65.765625 6.941406 99.453125 20.632812c26.605469 10.8125 53.414063 25.84375 79.695313 44.671876 44.550781 31.925781 72.054687 63.5625 73.203124 64.894531 4.863282 5.628906 4.863282 13.972656 0 19.601562-1.148437 1.332031-28.652343 32.96875-73.203124 64.890625-26.28125 18.832032-53.09375 33.859375-79.695313 44.671875-33.6875 13.691407-67.148437 20.636719-99.453125 20.636719zm0 0" fill="#d1f7ff"/><path d="m435.148438 65.804688c-26.28125-18.828126-53.09375-33.859376-79.695313-44.671876-33.683594-13.691406-67.140625-20.632812-99.441406-20.632812v280c32.300781-.003906 65.757812-6.945312 99.441406-20.636719 26.605469-10.808593 53.414063-25.839843 79.695313-44.671875 44.550781-31.921875 72.054687-63.558594 73.203124-64.890625 4.863282-5.628906 4.863282-13.972656 0-19.601562-1.148437-1.332031-28.652343-32.96875-73.203124-64.894531zm0 0" fill="#a3efff"/><path d="m256 255.5c-63.410156 0-115-51.589844-115-115s51.589844-115 115-115 115 51.589844 115 115-51.589844 115-115 115zm0 0" fill="#67e57e"/><path d="m256.007812 25.5v230c63.40625-.007812 114.992188-51.59375 114.992188-115s-51.582031-114.996094-114.992188-115zm0 0" fill="#4dc979"/><path d="m286 140.480469c0 16.570312-13.433594 30-30 30-16.570312 0-30-13.429688-30-30 0-16.570313 13.429688-30 30-30 16.566406 0 30 13.429687 30 30zm0 0" fill="#787465"/><path d="m256.011719 110.480469v60c16.5625-.007813 29.988281-13.4375 29.988281-30s-13.425781-29.992188-29.988281-30zm0 0" fill="#4c4a40"/></svg>