<svg height="512pt" viewBox="0 -55 512.001 512" width="512pt" xmlns="http://www.w3.org/2000/svg"><path d="m256.007812 401.300781c-2.054687 0-4.105468-.421875-6.023437-1.261719l-241.007813-105.648437c-5.453124-2.390625-8.976562-7.78125-8.976562-13.738281 0-5.953125 3.523438-11.347656 8.976562-13.738282l240.992188-105.648437c3.839844-1.679687 8.207031-1.683594 12.046875 0l241.007813 105.648437c5.453124 2.390626 8.976562 7.78125 8.976562 13.738282 0 5.953125-3.523438 11.347656-8.976562 13.738281l-240.992188 105.648437c-1.921875.839844-3.972656 1.261719-6.023438 1.261719zm0 0" fill="#ff8b6e"/><path d="m503.023438 266.914062-241.007813-105.644531c-1.921875-.84375-3.972656-1.261719-6.023437-1.261719v241.292969h.015624c2.050782 0 4.101563-.421875 6.019532-1.261719l240.996094-105.648437c5.453124-2.390625 8.976562-7.78125 8.976562-13.738281 0-5.953125-3.523438-11.347656-8.976562-13.738282zm0 0" fill="#ff5c42"/><path d="m256.007812 321.296875c-2.054687 0-4.105468-.417969-6.023437-1.261719l-241.007813-105.644531c-5.453124-2.390625-8.976562-7.785156-8.976562-13.738281 0-5.957032 3.523438-11.347656 8.976562-13.742188l240.992188-105.644531c3.839844-1.683594 8.207031-1.683594 12.046875 0l241.007813 105.644531c5.453124 2.390625 8.976562 7.785156 8.976562 13.738282 0 5.957031-3.523438 11.347656-8.976562 13.738281l-240.992188 105.648437c-1.921875.84375-3.972656 1.261719-6.023438 1.261719zm0 0" fill="#a3efff"/><path d="m503.023438 186.910156-241.007813-105.644531c-1.921875-.84375-3.972656-1.261719-6.023437-1.261719v241.292969h.015624c2.050782 0 4.101563-.417969 6.019532-1.261719l240.996094-105.644531c5.453124-2.394531 8.976562-7.785156 8.976562-13.738281 0-5.957032-3.523438-11.347656-8.976562-13.742188zm0 0" fill="#6ad9eb"/><path d="m256.007812 241.296875c-2.054687 0-4.105468-.421875-6.023437-1.261719l-241.007813-105.648437c-5.453124-2.390625-8.976562-7.78125-8.976562-13.738281 0-5.957032 3.523438-11.347657 8.976562-13.738282l240.992188-105.648437c3.839844-1.679688 8.207031-1.683594 12.046875 0l241.007813 105.648437c5.453124 2.390625 8.976562 7.78125 8.976562 13.738282 0 5.953124-3.523438 11.347656-8.976562 13.738281l-240.992188 105.644531c-1.921875.84375-3.972656 1.265625-6.023438 1.265625zm0 0" fill="#ffcf2c"/><path d="m503.023438 106.910156-241.007813-105.648437c-1.921875-.839844-3.972656-1.261719-6.023437-1.261719v241.292969c.003906 0 .011718.003906.015624.003906 2.050782 0 4.101563-.421875 6.019532-1.261719l240.996094-105.648437c5.453124-2.390625 8.976562-7.785157 8.976562-13.738281 0-5.957032-3.523438-11.347657-8.976562-13.738282zm0 0" fill="#ffa81c"/></svg>