<svg height="512pt" viewBox="-1 0 511 512" width="512pt" xmlns="http://www.w3.org/2000/svg"><g fill="#ffa81c"><path d="m365.5 512h-40c-8.285156 0-15-6.714844-15-15s6.714844-15 15-15h40c8.285156 0 15 6.714844 15 15s-6.714844 15-15 15zm0 0"/><path d="m365.5 452c-8.285156 0-15-6.714844-15-15v-40c0-8.285156 6.714844-15 15-15s15 6.714844 15 15v40c0 8.285156-6.714844 15-15 15zm0 0"/><path d="m365.5 352c-8.285156 0-15-6.714844-15-15v-40c0-8.285156 6.714844-15 15-15s15 6.714844 15 15v40c0 8.285156-6.714844 15-15 15zm0 0"/><path d="m365.5 252c-8.285156 0-15-6.714844-15-15v-40c0-8.285156 6.714844-15 15-15s15 6.714844 15 15v40c0 8.285156-6.714844 15-15 15zm0 0"/><path d="m355.5 162h-40c-8.285156 0-15-6.714844-15-15s6.714844-15 15-15h40c8.285156 0 15 6.714844 15 15s-6.714844 15-15 15zm0 0"/></g><path d="m265.5 512h-40c-8.285156 0-15-6.714844-15-15s6.714844-15 15-15h40c8.285156 0 15 6.714844 15 15s-6.714844 15-15 15zm-100 0h-40c-8.285156 0-15-6.714844-15-15s6.714844-15 15-15h40c8.285156 0 15 6.714844 15 15s-6.714844 15-15 15zm-100 0h-40c-8.285156 0-15-6.714844-15-15s6.714844-15 15-15h40c8.285156 0 15 6.714844 15 15s-6.714844 15-15 15zm-50-50c-8.285156 0-15-6.714844-15-15v-40c0-8.285156 6.714844-15 15-15s15 6.714844 15 15v40c0 8.285156-6.714844 15-15 15zm0-100c-8.285156 0-15-6.714844-15-15v-40c0-8.285156 6.714844-15 15-15s15 6.714844 15 15v40c0 8.285156-6.714844 15-15 15zm0-100c-8.285156 0-15-6.714844-15-15v-40c0-8.285156 6.714844-15 15-15s15 6.714844 15 15v40c0 8.285156-6.714844 15-15 15zm240-100h-40c-8.285156 0-15-6.714844-15-15s6.714844-15 15-15h40c8.285156 0 15 6.714844 15 15s-6.714844 15-15 15zm-100 0h-41c-8.285156 0-15-6.714844-15-15s6.714844-15 15-15h41c8.285156 0 15 6.714844 15 15s-6.714844 15-15 15zm-101 0h-39c-8.285156 0-15-6.714844-15-15s6.714844-15 15-15h39c8.285156 0 15 6.714844 15 15s-6.714844 15-15 15zm0 0" fill="#ffcf2c"/><path d="m114.5 45h350v350h-350zm0 0" fill="#6ad9eb"/><path d="m289.5 45h175v350h-175zm0 0" fill="#28c1d1"/><path d="m464.5 410h-350c-8.285156 0-15-6.714844-15-15v-350c0-8.285156 6.714844-15 15-15h350c8.285156 0 15 6.714844 15 15v350c0 8.285156-6.714844 15-15 15zm-335-30h320v-320h-320zm0 0" fill="#00a2b2"/><path d="m464.5 30h-175v30h160v320h-160v30h175c8.285156 0 15-6.714844 15-15v-350c0-8.285156-6.714844-15-15-15zm0 0" fill="#008896"/><path d="m84.5 15h60v60h-60zm0 0" fill="#fff"/><path d="m144.5 90h-60c-8.285156 0-15-6.714844-15-15v-60c0-8.285156 6.714844-15 15-15h60c8.285156 0 15 6.714844 15 15v60c0 8.285156-6.714844 15-15 15zm-45-30h30v-30h-30zm0 0" fill="#28c1d1"/><path d="m434.5 15h60v60h-60zm0 0" fill="#fff"/><path d="m494.5 90h-60c-8.285156 0-15-6.714844-15-15v-60c0-8.285156 6.714844-15 15-15h60c8.285156 0 15 6.714844 15 15v60c0 8.285156-6.714844 15-15 15zm-45-30h30v-30h-30zm0 0" fill="#00a2b2"/><path d="m84.5 365h60v60h-60zm0 0" fill="#fff"/><path d="m144.5 440h-60c-8.285156 0-15-6.714844-15-15v-60c0-8.285156 6.714844-15 15-15h60c8.285156 0 15 6.714844 15 15v60c0 8.285156-6.714844 15-15 15zm-45-30h30v-30h-30zm0 0" fill="#28c1d1"/><path d="m434.5 365h60v60h-60zm0 0" fill="#fff"/><path d="m494.5 440h-60c-8.285156 0-15-6.714844-15-15v-60c0-8.285156 6.714844-15 15-15h60c8.285156 0 15 6.714844 15 15v60c0 8.285156-6.714844 15-15 15zm-45-30h30v-30h-30zm0 0" fill="#00a2b2"/><path d="m375.5 106h-174c-8.285156 0-15 6.714844-15 15v36c0 8.285156 6.714844 15 15 15s15-6.714844 15-15v-21h57v168h-10c-8.285156 0-15 6.714844-15 15s6.714844 15 15 15h50c8.285156 0 15-6.714844 15-15s-6.714844-15-15-15h-10v-168h57v21c0 8.285156 6.714844 15 15 15s15-6.714844 15-15v-36c0-8.285156-6.714844-15-15-15zm0 0" fill="#fff"/><path d="m375.5 106h-86v228h24c8.285156 0 15-6.714844 15-15s-6.714844-15-15-15h-10v-168h57v21c0 8.285156 6.714844 15 15 15s15-6.714844 15-15v-36c0-8.285156-6.714844-15-15-15zm0 0" fill="#a3efff"/></svg>