<svg height="512pt" viewBox="0 -29 512 512" width="512pt" xmlns="http://www.w3.org/2000/svg"><path d="m497 454h-482c-8.285156 0-15-6.714844-15-15v-345.996094c0-8.28125 6.714844-15 15-15h482c8.285156 0 15 6.71875 15 15v345.996094c0 8.285156-6.714844 15-15 15zm0 0" fill="#a19d8d"/><path d="m0 266.519531v172.480469c0 8.285156 6.714844 15 15 15h482c8.285156 0 15-6.714844 15-15v-172.480469zm0 0" fill="#878477"/><path d="m110.015625 78.003906h-95.015625c-8.285156 0-15 6.71875-15 15v345.996094c0 8.285156 6.714844 15 15 15h95.015625zm0 0" fill="#696453"/><path d="m0 266.519531v172.480469c0 8.285156 6.714844 15 15 15h95.015625v-187.480469zm0 0" fill="#4c4a40"/><path d="m55.015625 394.003906c-8.285156 0-15-6.71875-15-15v-45.496094c0-8.28125 6.714844-15 15-15s15 6.71875 15 15v45.496094c0 8.28125-6.714844 15-15 15zm0 0" fill="#787465"/><path d="m55.015625 213.496094c-8.285156 0-15-6.714844-15-15v-45.492188c0-8.285156 6.714844-15 15-15s15 6.714844 15 15v45.492188c0 8.285156-6.714844 15-15 15zm0 0" fill="#878477"/><path d="m55.015625 289.527344c-8.285156 0-15-6.714844-15-15v-16.015625c0-8.28125 6.714844-15 15-15s15 6.71875 15 15v16.015625c0 8.285156-6.714844 15-15 15zm0 0" fill="#878477"/><path d="m40.015625 266.519531v8.007813c0 8.285156 6.714844 15 15 15s15-6.714844 15-15v-8.007813zm0 0" fill="#787465"/><path d="m446.992188 379.621094h-261.976563c-8.285156 0-15-6.714844-15-15v-197.238282c0-8.28125 6.714844-15 15-15h261.976563c8.285156 0 15 6.71875 15 15v197.238282c0 8.285156-6.714844 15-15 15zm0 0" fill="#878477"/><path d="m170.015625 266.519531v98.101563c0 8.285156 6.714844 15 15 15h261.976563c8.285156 0 15-6.714844 15-15v-98.101563zm0 0" fill="#787465"/><path d="m476.121094 52.128906c-3.664063 0-7.339844-1.335937-10.234375-4.035156-6.054688-5.652344-6.378907-15.144531-.722657-21.199219l20.664063-22.132812c5.652344-6.054688 15.144531-6.378907 21.199219-.726563 6.054687 5.65625 6.378906 15.148438.726562 21.203125l-20.664062 22.128907c-2.953125 3.164062-6.957032 4.761718-10.96875 4.761718zm0 0" fill="#424038"/><path d="m465.886719 48.09375c2.894531 2.699219 6.570312 4.035156 10.234375 4.035156 4.011718 0 8.015625-1.597656 10.96875-4.761718l20.664062-22.128907c5.652344-6.054687 5.328125-15.546875-.726562-21.203125l-42.535156 42.539063c.429687.527343.882812 1.042969 1.394531 1.519531zm0 0" fill="#2e2c27"/><path d="m249.667969 219.695312 204.625-204.621093c3.902343-3.90625 10.234375-3.90625 14.140625 0l28.285156 28.28125c3.902344 3.90625 3.902344 10.238281 0 14.144531l-204.625 204.621094-50.382812 21.039062c-8.246094 3.445313-16.523438-4.832031-13.082032-13.078125zm0 0" fill="#696453"/><path d="m241.710938 283.160156 50.382812-21.039062 204.625-204.621094c3.902344-3.90625 3.902344-10.238281 0-14.140625l-14.507812-14.507813-251.773438 251.777344c2.648438 2.925782 6.964844 4.332032 11.273438 2.53125zm0 0" fill="#4c4a40"/><path d="m250.179688 219.183594 89.710937-89.710938 42.425781 42.425782-89.710937 89.710937zm0 0" fill="#424038"/><path d="m271.027344 240.03125 89.714844-89.710938 21.574218 21.574219-89.710937 89.714844zm0 0" fill="#2e2c27"/><path d="m235.199219 254.347656-6.570313 15.730469c-3.441406 8.246094 4.835938 16.527344 13.082032 13.082031l15.632812-6.527344zm0 0" fill="#424038"/><path d="m241.710938 283.160156 15.632812-6.527344-11.417969-11.496093-15.488281 15.492187c2.648438 2.925782 6.964844 4.332032 11.273438 2.53125zm0 0" fill="#2e2c27"/></svg>