<svg height="512pt" viewBox="0 -21 512 512" width="512pt" xmlns="http://www.w3.org/2000/svg"><path d="m166.003906 455.574219v-72.164063h179.996094v72.164063zm0 0" fill="#878477"/><path d="m256.011719 383.410156h89.988281v72.164063h-89.988281zm0 0" fill="#696453"/><path d="m371 470.574219h-229.996094c-8.28125 0-15-6.71875-15-15 0-8.285157 6.71875-15 15-15h229.996094c8.285156 0 15 6.714843 15 15 0 8.28125-6.714844 15-15 15zm0 0" fill="#b0ac9b"/><path d="m371 440.574219h-114.988281v30h114.988281c8.285156 0 15-6.71875 15-15 0-8.285157-6.714844-15-15-15zm0 0" fill="#878477"/><path d="m511.992188 302.507812v-262.507812c0-22.089844-17.910157-40-40-40h-431.992188c-22.089844 0-40 17.910156-40 40v277.507812c0 .054688.0078125.109376.0078125.164063v40.894531c0 22.089844 17.9101565 40 39.9999995 40h431.992188c22.089844 0 40-17.910156 40-40v-56.058594zm0 0" fill="#b0ac9b"/><path d="m511.992188 40c0-22.089844-17.910157-40-40-40h-215.980469v398.566406h215.988281c22.089844 0 39.996094-17.910156 39.996094-40zm0 0" fill="#878477"/><g fill="#4c4a40"><path d="m437 347.507812c-8.28125 0-15 6.714844-15 15v36.058594h30v-36.058594c0-8.285156-6.714844-15-15-15zm0 0"/><path d="m377.003906 347.507812c-8.285156 0-15 6.714844-15 15v36.058594h29.996094v-36.058594c0-8.285156-6.714844-15-14.996094-15zm0 0"/><path d="m317.003906 347.507812c-8.285156 0-15 6.714844-15 15v36.058594h30v-36.058594c0-8.285156-6.71875-15-15-15zm0 0"/></g><path d="m471.992188 317.507812h-431.984376c-5.523437 0-10-4.476562-10-10v-267.507812c0-5.523438 4.476563-10 10-10h431.984376c5.523437 0 10 4.476562 10 10v267.507812c0 5.523438-4.476563 10-10 10zm0 0" fill="#d1f7ff"/><path d="m471.992188 30h-215.980469v287.507812h215.980469c5.523437 0 10-4.476562 10-10v-267.507812c0-5.523438-4.476563-10-10-10zm0 0" fill="#a3efff"/><path d="m462.824219 317.507812-157.296875-157.296874c-2.8125-2.8125-6.628906-4.394532-10.605469-4.394532s-7.792969 1.582032-10.605469 4.394532l-157.296875 157.296874zm0 0" fill="#21b572"/><path d="m284.316406 160.210938-28.308594 28.304687v128.992187h206.816407l-157.296875-157.296874c-2.8125-2.8125-6.628906-4.394532-10.605469-4.394532s-7.792969 1.582032-10.605469 4.394532zm0 0" fill="#1e9e60"/><path d="m318.199219 317.507812-124.269531-124.269531c-2.8125-2.8125-6.628907-4.394531-10.605469-4.394531-3.980469 0-7.792969 1.582031-10.609375 4.394531l-124.265625 124.269531zm0 0" fill="#67e57e"/><path d="m256.011719 317.507812h62.1875l-62.1875-62.191406zm0 0" fill="#4dc979"/><path d="m206.5 105.097656c0 16.570313-13.429688 30-30 30-16.566406 0-30-13.429687-30-30 0-16.566406 13.433594-29.996094 30-29.996094 16.570312 0 30 13.429688 30 29.996094zm0 0" fill="#ffcf2c"/></svg>