<svg height="512pt" viewBox="0 0 512 512" width="512pt" xmlns="http://www.w3.org/2000/svg"><path d="m306.03125 481.996094h-13.707031l-116.859375-377.722656c-1.945313-6.285157-7.753906-10.566407-14.332032-10.566407-.003906 0-.011718 0-.019531 0-6.585937.007813-12.394531 4.3125-14.320312 10.605469l-115.644531 377.683594h-16.148438c-8.285156 0-15 6.714844-15 15s6.714844 15 15 15h27.144531c.035157 0 .070313.003906.105469.003906.03125 0 37.148438-.003906 37.148438-.003906 8.28125 0 15-6.714844 15-15s-6.71875-15-15-15h-16.875l18.523437-60.492188h97.773437l18.566407 60.492188h-16.4375c-8.285157 0-15 6.714844-15 15s6.714843 15 15 15h125.082031c8.285156 0 15-6.714844 15-15s-6.714844-15-15-15zm-215.800781-90.492188 39.640625-129.460937 39.742187 129.460937zm0 0" fill="#4dc979"/><path d="m306.03125 481.996094h-13.707031l-116.859375-377.722656c-1.945313-6.285157-7.753906-10.566407-14.332032-10.566407-.003906 0-.011718 0-.019531 0-6.585937.007813-12.394531 4.3125-14.320312 10.605469l-16.871094 55.097656v102.792969l39.691406 129.300781h-39.691406v30h48.898437l18.566407 60.492188h-16.4375c-8.285157 0-15 6.714844-15 15s6.714843 15 15 15h125.082031c8.285156 0 15-6.714844 15-15s-6.714844-15-15-15zm0 0" fill="#1e9e60"/><path d="m496.996094 481.996094h-22.113282v-137.066406c0-33.117188-26.910156-60.058594-59.988281-60.058594h-9.558593c-33.078126 0-59.988282 26.941406-59.988282 60.058594v3.941406c0 8.28125 6.71875 15 15 15 8.285156 0 15-6.71875 15-15v-3.941406c0-16.574219 13.453125-30.058594 29.988282-30.058594h9.558593c16.535157 0 29.988281 13.484375 29.988281 30.058594v11.726562l-72.195312 28.265625c-23.4375 9.175781-38.585938 31.386719-38.585938 56.582031v6.136719c0 29.304687 20.894532 54.433594 49.679688 59.746094 3.667969.679687 7.351562 1.011719 11.011719 1.011719 15.945312-.003907 31.429687-6.300782 42.914062-17.804688l7.175781-7.1875v2.324219c0 14.484375 11.773438 26.265625 26.246094 26.265625h25.867188c8.285156 0 15-6.714844 15-15 0-8.28125-6.714844-15-15-15zm-80.519532-12.601563c-7.140624 7.148438-17.328124 10.328125-27.25 8.492188-14.558593-2.6875-25.125-15.410157-25.125-30.246094v-6.136719c0-12.761718 7.664063-24.007812 19.519532-28.648437l61.261718-23.980469v52.070312zm0 0" fill="#ff6e57"/><path d="m496.996094 481.996094h-22.113282v-137.066406c0-33.117188-26.910156-60.058594-59.988281-60.058594h-4.777343v30h4.777343c16.535157 0 29.988281 13.484375 29.988281 30.058594v11.726562l-34.765624 13.609375v32.21875l34.765624-13.613281v52.074218l-28.40625 28.449219c-1.917968 1.921875-4.0625 3.546875-6.359374 4.875v32.140625c10.289062-2.6875 19.847656-8.066406 27.589843-15.820312l7.175781-7.1875v2.328125c0 14.480469 11.773438 26.265625 26.246094 26.265625h25.867188c8.285156 0 15-6.71875 15-15 0-8.285156-6.714844-15-15-15zm0 0" fill="#d9260f"/><path d="m496.34375 55.039062h-480.28125c-8.285156 0-15-6.714843-15-15 0-8.285156 6.714844-15 15-15h480.28125c8.285156 0 15 6.714844 15 15 0 8.285157-6.714844 15-15 15zm0 0" fill="#6ad9eb"/><g fill="#28c1d1"><path d="m496.996094 80.078125c-8.285156 0-15-6.714844-15-15v-50.078125c0-8.285156 6.714844-15 15-15s15 6.714844 15 15v50.078125c0 8.285156-6.714844 15-15 15zm0 0"/><path d="m15 80.078125c-8.285156 0-15-6.714844-15-15v-50.078125c0-8.285156 6.714844-15 15-15s15 6.714844 15 15v50.078125c0 8.285156-6.714844 15-15 15zm0 0"/></g></svg>