<svg height="511pt" viewBox="1 1 511 511.999" width="511pt" xmlns="http://www.w3.org/2000/svg"><path d="m15.492188 512c-3.835938 0-7.671876-1.464844-10.601563-4.394531-5.855469-5.855469-5.855469-15.347657 0-21.203125l19.160156-19.160156c5.855469-5.855469 15.351563-5.855469 21.207031 0 5.855469 5.855468 5.855469 15.347656 0 21.203124l-19.160156 19.160157c-2.929687 2.929687-6.765625 4.394531-10.605468 4.394531zm0 0" fill="#4c4a40"/><path d="m15.492188 512c3.839843 0 7.675781-1.464844 10.605468-4.390625l19.160156-19.160156c5.855469-5.859375 5.855469-15.351563 0-21.207031l-40.367187 40.367187c2.929687 2.925781 6.765625 4.390625 10.601563 4.390625zm0 0" fill="#2e2c27"/><path d="m468.082031 86.824219-42.410156-42.410157 35.628906-35.628906c11.714844-11.714844 30.703125-11.714844 42.414063 0 11.710937 11.710938 11.710937 30.699219 0 42.410156zm0 0" fill="#4c4a40"/><path d="m468.082031 86.824219 35.632813-35.628907c11.710937-11.710937 11.710937-30.699218 0-42.414062l-56.835938 56.839844zm0 0" fill="#2e2c27"/><path d="m48.789062 506.972656c-3.90625 0-7.742187-1.53125-10.605468-4.394531l-28.273438-28.273437c-4.167968-4.164063-5.507812-10.378907-3.429687-15.890626l36.007812-95.523437c.824219-2.1875 2.148438-4.152344 3.867188-5.738281l360.601562-332.316406c5.914063-5.453126 15.078125-5.265626 20.765625.421874l59.515625 59.515626c5.6875 5.6875 5.875 14.851562.425781 20.765624l-332.324218 360.59375c-1.585938 1.71875-3.550782 3.042969-5.738282 3.867188l-95.527343 36.007812c-1.71875.648438-3.511719.964844-5.285157.964844zm0 0" fill="#878477"/><path d="m38.183594 502.582031c2.863281 2.859375 6.695312 4.390625 10.605468 4.390625 1.773438 0 3.5625-.316406 5.285157-.964844l95.527343-36.007812c2.1875-.824219 4.152344-2.148438 5.734376-3.867188l332.324218-360.59375c5.453125-5.914062 5.265625-15.074218-.421875-20.761718l-29.757812-29.757813-433.429688 433.429688zm0 0" fill="#696453"/><path d="m201.582031 214.101562-155.226562 143.050782c-.097657.089844-.175781.191406-.273438.285156l108.972657 108.96875c.089843-.09375.191406-.175781.28125-.273438l143.054687-155.222656zm0 0" fill="#696453"/><path d="m155.054688 466.40625c.089843-.09375.195312-.175781.285156-.273438l143.050781-155.222656-48.398437-48.402344-149.417969 149.417969zm0 0" fill="#424038"/><path d="m148.492188 378.988281c-3.839844 0-7.675782-1.464843-10.605469-4.390625-5.855469-5.859375-5.851563-15.351562 0-21.207031l46.765625-46.761719c5.851562-5.855468 15.347656-5.855468 21.203125 0 5.855469 5.855469 5.855469 15.351563 0 21.207032l-46.761719 46.761718c-2.929688 2.925782-6.765625 4.390625-10.601562 4.390625zm0 0" fill="#424038"/><path d="m148.492188 378.988281c3.835937 0 7.671874-1.464843 10.601562-4.390625l46.761719-46.761718c5.851562-5.855469 5.855469-15.34375.007812-21.199219l-67.96875 67.96875c2.925781 2.921875 6.761719 4.382812 10.597657 4.382812zm0 0" fill="#181b1f"/></svg>