<svg height="512pt" viewBox="-109 0 512 512" width="512pt" xmlns="http://www.w3.org/2000/svg"><path d="m243.574219 387.585938h-191.410157c-7.484374 0-13.824218-5.519532-14.855468-12.933594l-22.519532-161.90625c-.832031-5.972656 1.996094-11.863282 7.179688-14.953125 1.339844-.90625 14.4375-11.648438 43.910156-97.261719 15.660156-45.480469 28.023438-89.171875 28.148438-89.605469 1.820312-6.460937 7.71875-10.925781 14.433594-10.925781h78.816406c6.765625 0 12.695312 4.527344 14.472656 11.054688.121094.441406 12.191406 44.605468 27.734375 90.371093 29.125 85.765625 42.746094 96.152344 44.203125 97.058594 5.242188 3.070313 8.101562 8.992187 7.261719 15.011719l-22.519531 161.164062c-1.035157 7.410156-7.371094 12.925782-14.855469 12.925782zm0 0" fill="#d6d3c5"/><path d="m273.683594 198.480469c-1.457032-.902344-15.074219-11.289063-44.199219-97.054688-15.542969-45.769531-27.617187-89.929687-27.734375-90.371093-1.777344-6.527344-7.707031-11.054688-14.472656-11.054688h-38.277344v387.585938h94.574219c7.484375 0 13.820312-5.515626 14.855469-12.925782l22.519531-161.164062c.839843-6.019532-2.019531-11.941406-7.265625-15.015625zm0 0" fill="#b0ac9b"/><path d="m147.871094 268.234375c16.539062 0 30-13.457031 30-30 0-11.078125-6.042969-20.769531-15-25.964844v-212.269531h-30v212.269531c-8.960938 5.195313-15 14.886719-15 25.964844 0 16.542969 13.457031 30 30 30zm0 0" fill="#787465"/><path d="m162.871094 212.269531v-212.269531h-13.871094v268.207031c16.019531-.597656 28.867188-13.808593 28.867188-29.972656.003906-11.078125-6.039063-20.769531-14.996094-25.964844zm0 0" fill="#4c4a40"/><path d="m279 512h-264c-8.285156 0-15-6.714844-15-15v-124.414062c0-8.285157 6.714844-15 15-15h264c8.285156 0 15 6.714843 15 15v124.414062c0 8.285156-6.714844 15-15 15zm0 0" fill="#28c1d1"/><path d="m279 357.585938h-130v154.414062h130c8.285156 0 15-6.714844 15-15v-124.414062c0-8.285157-6.714844-15-15-15zm0 0" fill="#008896"/><path d="m15 512h264c8.285156 0 15-6.714844 15-15v-62.207031h-294v62.207031c0 8.285156 6.714844 15 15 15zm0 0" fill="#00a2b2"/><path d="m149 512h130c8.285156 0 15-6.714844 15-15v-62.207031h-145zm0 0" fill="#006d78"/></svg>