<svg height="512pt" viewBox="-49 0 512 512.00041" width="512pt" xmlns="http://www.w3.org/2000/svg"><path d="m110.839844 420.707031c-7.1875 0-13.539063-5.1875-14.773438-12.515625l-26.222656-155.851562c-.71875-4.28125.453125-8.664063 3.210938-12.019532l103.742187-126.046874c5.261719-6.398438 14.714844-7.316407 21.113281-2.050782 6.394532 5.265625 7.3125 14.71875 2.050782 21.113282l-99.398438 120.769531 25.089844 149.109375c1.375 8.167968-4.132813 15.90625-12.304688 17.28125-.84375.140625-1.679687.210937-2.507812.210937zm0 0" fill="#1e9e60"/><path d="m84.636719 294.914062c-24.847657 0-45.0625-20.214843-45.0625-45.0625 0-24.847656 20.214843-45.0625 45.0625-45.0625 24.847656 0 45.0625 20.214844 45.0625 45.0625 0 24.847657-20.214844 45.0625-45.0625 45.0625zm0 0" fill="#4dc979"/><path d="m110.859375 450.765625c-24.847656 0-45.0625-20.214844-45.0625-45.0625s20.214844-45.0625 45.0625-45.0625 45.0625 20.214844 45.0625 45.0625-20.214844 45.0625-45.0625 45.0625zm0 0" fill="#4dc979"/><path d="m110.859375 360.640625c-.007813 0-.011719 0-.019531 0v90.125h.019531c24.847656 0 45.0625-20.214844 45.0625-45.0625s-20.214844-45.0625-45.0625-45.0625zm0 0" fill="#21b572"/><path d="m20.042969 496.988281v-20.125c0-30.328125 24.671875-55 55-55h73.3125c30.328125 0 55 24.671875 55 55v20.125zm0 0" fill="#21b572"/><path d="m148.355469 421.863281h-37.515625v75.125h92.515625v-20.125c0-30.328125-24.671875-55-55-55zm0 0" fill="#1e9e60"/><path d="m208.398438 512h-193.398438c-8.285156 0-15-6.714844-15-15s6.714844-15 15-15h193.398438c8.28125 0 15 6.714844 15 15s-6.71875 15-15 15zm0 0" fill="#148253"/><path d="m208.398438 482h-97.558594v30h97.558594c8.28125 0 15-6.714844 15-15s-6.71875-15-15-15zm0 0" fill="#227351"/><path d="m312.566406 218.894531c19.855469 16.660157 49.894532 13.550781 67.097656-6.949219 17.199219-20.496093 15.046876-50.621093-4.808593-67.285156l-7.675781-6.441406-62.289063 74.234375zm0 0" fill="#ffe645"/><path d="m379.664062 211.945312c.5-.59375.980469-1.203124 1.449219-1.816406l-44.222656-35.808594-32 38.132813 7.675781 6.441406c19.855469 16.664063 49.898438 13.550781 67.097656-6.949219zm0 0" fill="#ffc12e"/><path d="m269.652344 269.246094c-.761719 0-1.527344-.058594-2.292969-.175782-5.175781-.804687-9.558594-4.253906-11.550781-9.09375l-39.527344-96.015624c-2.117188-5.152344-1.203125-11.054688 2.375-15.320313l67.503906-80.449219c3.578125-4.265625 9.234375-6.195312 14.675782-5l101.421874 22.253906c5.113282 1.125 9.273438 4.839844 10.960938 9.796876 1.6875 4.957031.664062 10.433593-2.703125 14.449218l-129.398437 154.207032c-2.867188 3.417968-7.078126 5.347656-11.464844 5.347656zm0 0" fill="#4dc979"/><path d="m269.652344 269.246094c4.382812 0 8.597656-1.929688 11.464844-5.347656l67.320312-80.230469-94.777344-76.746094-35.003906 41.71875c-3.578125 4.265625-4.492188 10.167969-2.375 15.316406l39.527344 96.015625c1.992187 4.84375 6.375 8.292969 11.550781 9.09375.765625.121094 1.53125.179688 2.292969.179688zm0 0" fill="#21b572"/><path d="m217.730469 167.660156-72.589844-60.554687c-3.050781-2.554688-4.957031-6.21875-5.300781-10.183594-.347656-3.960937.894531-7.898437 3.449218-10.949219l67.648438-80.617187c2.554688-3.046875 6.21875-4.953125 10.179688-5.3007815 3.960937-.3437495 7.902343.8984375 10.949218 3.4531245l72.589844 60.554688zm0 0" fill="#21b572"/><path d="m177.480469 45.230469-34.1875 40.742187c-2.558594 3.046875-3.800781 6.988282-3.453125 10.949219.347656 3.964844 2.253906 7.625 5.300781 10.183594l72.59375 60.554687 44.878906-53.488281zm0 0" fill="#1e9e60"/></svg>