<svg height="512pt" viewBox="-29 0 512 512" width="512pt" xmlns="http://www.w3.org/2000/svg"><path d="m218.746094 314.996094c-8.285156 0-15-6.714844-15-15v-21.550782c0-25.054687 16.9375-46.945312 41.183594-53.238281l167.207031-43.394531c6.609375-1.714844 11.230469-7.6875 11.230469-14.519531v-77.289063h-40.875c-8.28125 0-15-6.71875-15-15 0-8.285156 6.71875-15 15-15h55.875c8.285156 0 15 6.714844 15 15v92.289063c0 20.496093-13.855469 38.410156-33.695313 43.558593l-167.203125 43.394532c-11.023438 2.859375-18.722656 12.8125-18.722656 24.199218v21.550782c0 8.285156-6.714844 15-15 15zm0 0" fill="#c4c0ad"/><path d="m438.367188 60h-55.875c-8.285157 0-15 6.71875-15 15 0 8.285156 6.714843 15 15 15h40.871093v77.292969c0 6.832031-4.617187 12.800781-11.230469 14.519531l-167.203124 43.394531c-10.292969 2.671875-19.261719 8.160157-26.183594 15.503907v74.285156c8.28125 0 15-6.714844 15-15v-21.550782c0-11.390624 7.695312-21.339843 18.71875-24.199218l167.207031-43.394532c19.835937-5.152343 33.691406-23.0625 33.691406-43.558593v-92.289063c.003907-8.285156-6.714843-15.003906-14.996093-15.003906zm0 0" fill="#b0ac9b"/><path d="m253.746094 512h-70c-8.285156 0-15-6.714844-15-15v-197.003906c0-8.28125 6.714844-15 15-15h70c8.285156 0 15 6.71875 15 15v197.003906c0 8.285156-6.714844 15-15 15zm0 0" fill="#d9260f"/><path d="m253.746094 284.996094h-35v227.003906h35c8.285156 0 15-6.714844 15-15v-197.003906c0-8.28125-6.714844-15-15-15zm0 0" fill="#b80f00"/><path d="m183.746094 512h70c8.285156 0 15-6.714844 15-15v-127.003906h-100v127.003906c0 8.285156 6.714844 15 15 15zm0 0" fill="#ff6e57"/><path d="m218.746094 512h35c8.285156 0 15-6.714844 15-15v-127.003906h-50zm0 0" fill="#f2472c"/><path d="m382.492188 150.003906h-367.492188c-8.285156 0-15-6.71875-15-15v-120.003906c0-8.285156 6.714844-15 15-15h367.492188c8.285156 0 15 6.714844 15 15v120.003906c0 8.28125-6.714844 15-15 15zm0 0" fill="#ffe645"/><path d="m0 75.003906v60c0 8.28125 6.714844 15 15 15h367.492188c8.285156 0 15-6.71875 15-15v-60zm0 0" fill="#ffcf2c"/><path d="m140.597656 226c-16.566406 0-30-13.429688-30-30v50.007812c0 16.566407-13.429687 30-30 30-16.566406 0-30-13.429687-30-30v-246.007812h120v196c0 16.570312-13.429687 30-30 30zm0 0" fill="#ffc12e"/><path d="m50.597656 75.003906v171.003906c0 16.566407 13.429688 30 30 30 16.570313 0 30-13.429687 30-30v-50.007812c0 16.570312 13.429688 30 30 30 16.570313 0 30-13.433594 30-30v-120.996094zm0 0" fill="#ffa81c"/></svg>