<svg height="512pt" viewBox="0 0 512.00081 512" width="512pt" xmlns="http://www.w3.org/2000/svg"><path d="m466.917969 428.25c-24.8125 0-45-20.183594-45-44.992188 0-6.273437 1.847656-17.71875 16.246093-50.796874 7.558594-17.367188 14.992188-32.421876 15.304688-33.050782 2.53125-5.117187 7.742188-8.351562 13.449219-8.351562 5.703125 0 10.917969 3.234375 13.445312 8.351562.316407.628906 7.75 15.683594 15.308594 33.050782 14.398437 33.078124 16.242187 44.523437 16.242187 50.796874 0 24.808594-20.183593 44.992188-44.996093 44.992188zm0 0" fill="#ffa81c"/><path d="m327.027344 365.617188c-3.839844 0-7.679688-1.464844-10.609375-4.394532l-165.648438-165.644531c-2.8125-2.8125-4.394531-6.628906-4.394531-10.609375s1.582031-7.792969 4.394531-10.609375l50.414063-50.410156c5.859375-5.859375 15.359375-5.859375 21.21875-.003907l165.648437 165.644532c2.8125 2.816406 4.394531 6.632812 4.394531 10.609375 0 3.980469-1.582031 7.796875-4.394531 10.609375l-50.414062 50.414062c-2.929688 2.929688-6.769531 4.394532-10.609375 4.394532zm0 0" fill="#d6d3c5"/><path d="m316.417969 361.222656c2.929687 2.929688 6.769531 4.394532 10.609375 4.394532s7.679687-1.464844 10.609375-4.394532l50.414062-50.414062c2.8125-2.8125 4.394531-6.628906 4.394531-10.609375 0-3.976563-1.582031-7.792969-4.394531-10.609375l-82.820312-82.816406-71.632813 71.628906zm0 0" fill="#b0ac9b"/><path d="m201.183594 123.949219 119.558594-119.554688c5.855468-5.859375 15.355468-5.859375 21.214843 0l165.648438 165.644531c2.8125 2.8125 4.394531 6.628907 4.394531 10.609376 0 3.980468-1.582031 7.796874-4.394531 10.609374l-119.554688 119.550782zm0 0" fill="#ffe645"/><path d="m388.050781 310.808594 119.554688-119.550782c2.8125-2.8125 4.394531-6.628906 4.394531-10.609374 0-3.980469-1.582031-7.796876-4.394531-10.609376l-82.824219-82.820312-130.160156 130.164062zm0 0" fill="#ffc12e"/><path d="m374.5625 36.996094-73.988281 73.988281c-5.859375 5.859375-5.859375 15.359375 0 21.21875 2.929687 2.929687 6.765625 4.394531 10.605469 4.394531 3.839843 0 7.679687-1.464844 10.609374-4.394531l73.988282-73.988281zm0 0" fill="#ffc12e"/><path d="m453.785156 116.21875-37.976562 37.976562c-5.859375 5.859376-5.859375 15.359376 0 21.21875 2.929687 2.929688 6.765625 4.394532 10.609375 4.394532 3.835937 0 7.679687-1.464844 10.605469-4.394532l37.980468-37.976562zm0 0" fill="#ffa81c"/><path d="m69.324219 512c-18.316407 0-36-7.277344-49.023438-20.296875-13.933593-13.929687-21.292969-33.203125-20.191406-52.875 1.097656-19.671875 10.5625-38.003906 25.964844-50.292969.023437-.019531.050781-.042968.078125-.0625l146.390625-115.234375-25.304688-84.148437c-1.980469-6.585938 6.667969-17.199219 6.667969-17.199219l186.171875 186.125s-10.609375 8.652344-17.191406 6.679687l-84.078125-25.210937-115.261719 146.371094c-.023437.027343-.042969.054687-.0625.082031-12.292969 15.394531-30.628906 24.855469-50.300781 25.957031-1.289063.070313-2.578125.105469-3.859375.105469zm0 0" fill="#4dc979"/><path d="m20.300781 491.703125c13.023438 13.019531 30.707031 20.296875 49.023438 20.296875 1.28125 0 2.570312-.035156 3.859375-.105469 19.671875-1.101562 38.003906-10.5625 50.296875-25.957031.023437-.027344.042969-.054688.0625-.082031l115.265625-146.371094 84.078125 25.210937c6.582031 1.972657 17.191406-6.679687 17.191406-6.679687l-93.058594-93.035156-226.71875 226.71875zm0 0" fill="#1e9e60"/><path d="m71.878906 465.042969c-6.582031 0-13.035156-2.664063-17.683594-7.316407-4.664062-4.664062-7.332031-11.097656-7.332031-17.679687s2.667969-13.015625 7.332031-17.679687c4.648438-4.652344 11.101563-7.316407 17.683594-7.316407 6.566406 0 13.015625 2.664063 17.664063 7.316407 4.648437 4.664062 7.332031 11.097656 7.332031 17.679687s-2.683594 13.015625-7.332031 17.679687c-4.648438 4.652344-11.097657 7.316407-17.664063 7.316407zm0 0" fill="#1e9e60"/><path d="m71.878906 465.042969c6.566406 0 13.015625-2.664063 17.664063-7.316407 4.648437-4.664062 7.332031-11.097656 7.332031-17.679687 0-6.558594-2.667969-12.972656-7.289062-17.632813l-35.351563 35.351563c4.648437 4.625 11.078125 7.277344 17.644531 7.277344zm0 0" fill="#227351"/></svg>