<svg height="512pt" viewBox="-63 0 512 512" width="512pt" xmlns="http://www.w3.org/2000/svg"><path d="m370.007812 512h-355.007812c-8.285156 0-15-6.714844-15-15v-482c0-8.285156 6.714844-15 15-15h234.984375l135.023437 135.015625v361.984375c0 8.285156-6.714843 15-15 15zm0 0" fill="#d1f7ff"/><path d="m192.503906 0v512h177.503906c8.285157 0 15-6.714844 15-15v-361.984375l-135.023437-135.015625zm0 0" fill="#a3efff"/><path d="m249.984375 0v120.007812c0 8.285157 6.71875 15 15 15h120.019531zm0 0" fill="#6ad9eb"/><path d="m15 216.089844h235.003906v193.023437h-235.003906zm0 0" fill="#ffc12e"/><path d="m192.503906 216.089844h57.5v193.023437h-57.5zm0 0" fill="#ff9300"/><path d="m250.003906 424.113281h-235.003906c-8.285156 0-15-6.714843-15-15v-193.023437c0-8.28125 6.714844-15 15-15h235.003906c8.285156 0 15 6.71875 15 15v193.023437c0 8.285157-6.714844 15-15 15zm-220.003906-30h205.003906v-163.023437h-205.003906zm0 0" fill="#a19d8d"/><path d="m250.003906 201.089844h-57.5v30h42.5v163.023437h-42.5v30h57.5c8.285156 0 15-6.714843 15-15v-193.023437c0-8.28125-6.714844-15-15-15zm0 0" fill="#696453"/><g fill="#fff"><path d="m64.378906 357.507812c0-.449218.148438-1.050781.296875-1.652343l27.902344-91.496094c1.648437-5.25 8.398437-7.800781 15.296875-7.800781 6.902344 0 13.648438 2.550781 15.300781 7.800781l28.050781 91.496094c.148438.601562.300782 1.203125.300782 1.652343 0 5.550782-8.550782 9.597657-15 9.597657-3.75 0-6.75-1.199219-7.652344-4.347657l-5.097656-18.75h-31.652344l-5.097656 18.75c-.902344 3.148438-3.902344 4.347657-7.652344 4.347657-6.449219 0-14.996094-4.046875-14.996094-9.597657zm54.449219-31.5-10.953125-40.199218-10.949219 40.199218zm0 0"/><path d="m169.105469 264.507812c0-4.949218 5.847656-7.046874 11.699219-7.046874 5.851562 0 11.699218 2.097656 11.699218 7.046874v95.398438c0 4.800781-5.851562 7.199219-11.699218 7.199219-5.851563 0-11.699219-2.398438-11.699219-7.199219zm0 0"/></g></svg>