<svg height="512pt" viewBox="0 -7 512.0005 512" width="512pt" xmlns="http://www.w3.org/2000/svg"><path d="m38.894531 499.011719c-1.292969 0-2.597656-.164063-3.886719-.496094-5.3125-1.375-9.5-5.460937-11.011718-10.742187l-23.398438-81.832032c-1.546875-5.410156-.039062-11.238281 3.941406-15.21875l75.023438-75.019531c3.734375-3.738281 9.113281-5.3125 14.273438-4.179687 5.160156 1.128906 9.386718 4.8125 11.214843 9.765624l28.386719 76.851563c2.09375 5.671875.695312 12.046875-3.582031 16.324219l-80.003907 80.003906c-2.945312 2.945312-6.902343 4.542969-10.957031 4.542969zm0 0" fill="#c4c0ad"/><path d="m23.996094 487.773438c1.511718 5.28125 5.699218 9.367187 11.011718 10.742187 1.285157.332031 2.589844.496094 3.886719.496094 4.054688 0 8.015625-1.597657 10.957031-4.539063l80.003907-80.007812c4.277343-4.277344 5.675781-10.648438 3.578125-16.324219l-16.632813-45.042969-102.117187 102.117188zm0 0" fill="#a19d8d"/><path d="m130.476562 450.34375c-1.105468 0-2.21875-.117188-3.320312-.359375-5.160156-1.128906-9.386719-4.8125-11.214844-9.765625l-51.222656-138.691406c-2.097656-5.675782-.699219-12.046875 3.578125-16.324219l263.152344-263.152344c26.894531-26.894531 69.765625-29.507812 99.726562-6.078125l63.214844 49.4375c10.335937 8.085938 16.726563 20.234375 17.523437 33.332032.800782 13.101562-4.066406 25.9375-13.347656 35.214843l-73.300781 73.300781c-11.625 11.628907-27.011719 19.171876-43.324219 21.246094l-11.800781 1.5c-9.53125 1.210938-18.523437 5.617188-25.316406 12.410156l-203.394531 203.394532c-2.933594 2.933594-6.890626 4.535156-10.953126 4.535156zm0 0" fill="#ffe645"/><path d="m370.140625 230 11.800781-1.5c16.3125-2.070312 31.699219-9.613281 43.324219-21.242188l73.300781-73.300781c9.28125-9.28125 14.148438-22.117187 13.347656-35.214843-.796874-13.097657-7.183593-25.25-17.523437-33.332032l-50.449219-39.453125-351.265625 351.265625 23.265625 62.996094c1.828125 4.953125 6.054688 8.632812 11.214844 9.765625 1.101562.242187 2.214844.359375 3.320312.359375 4.0625 0 8.019532-1.601562 10.953126-4.539062l203.394531-203.390626c6.792969-6.792968 15.785156-11.203124 25.316406-12.414062zm0 0" fill="#ffc12e"/><path d="m494.390625 65.410156-63.214844-49.4375c-29.960937-23.429687-72.832031-20.816406-99.726562 6.078125l-13.398438 13.398438 139.515625 139.511719 41.003906-41.003907c9.277344-9.28125 14.144532-22.117187 13.34375-35.214843-.796874-13.097657-7.1875-25.25-17.523437-33.332032zm0 0" fill="#787465"/><path d="m376.25 93.648438 81.316406 81.3125 41.003906-41.003907c9.277344-9.28125 14.144532-22.117187 13.34375-35.214843-.796874-13.097657-7.183593-25.25-17.523437-33.332032l-50.449219-39.453125zm0 0" fill="#4c4a40"/><path d="m98.554688 393.148438 225.316406-225.3125c6.050781-6.050782 6.050781-15.859376 0-21.910157-6.054688-6.050781-15.863282-6.050781-21.914063 0l-215.222656 215.21875zm0 0" fill="#787465"/><path d="m98.554688 393.148438 225.316406-225.3125c6.03125-6.03125 6.046875-15.800782.046875-21.855469l-231.242188 231.242187zm0 0" fill="#4c4a40"/></svg>