<svg height="512pt" viewBox="0 -37 512.00037 512" width="512pt" xmlns="http://www.w3.org/2000/svg"><path d="m243.867188 96.945312h-228.867188c-4.820312 0-9.351562-2.316406-12.167969-6.230468-2.8203122-3.910156-3.585937-8.9375-2.0625-13.511719l22.316407-66.945313c2.042968-6.125 7.773437-10.257812 14.230468-10.257812h171.960938c5.609375 0 10.75 3.128906 13.324218 8.113281l34.589844 66.949219c2.402344 4.648438 2.207032 10.214844-.515625 14.6875-2.71875 4.46875-7.574219 7.195312-12.808593 7.195312zm0 0" fill="#ffc12e"/><path d="m497 438.496094h-482c-8.285156 0-15-6.71875-15-15v-341.550782c0-8.285156 6.714844-15 15-15h452c24.8125 0 45 20.1875 45 45v311.550782c0 8.285156-6.714844 15-15 15zm0 0" fill="#fff566"/><path d="m467 66.945312h-211v371.550782h241c8.285156 0 15-6.714844 15-15v-311.550782c0-24.8125-20.1875-45-45-45zm0 0" fill="#ffe645"/><path d="m105.609375 336.308594c0-.539063.269531-1.621094.539063-2.699219l52.109374-169.835937c2.429688-8.097657 12.421876-11.878907 22.410157-11.878907 10.261719 0 20.25 3.78125 22.679687 11.878907l52.113282 169.835937c.269531 1.078125.539062 1.890625.539062 2.699219 0 8.371094-12.691406 14.578125-22.140625 14.578125-5.9375 0-10.53125-1.886719-11.878906-7.019531l-10.261719-35.910157h-61.832031l-10.257813 35.910157c-1.351562 5.132812-5.941406 7.019531-11.882812 7.019531-9.445313.003906-22.136719-5.9375-22.136719-14.578125zm98.550781-55.890625-23.488281-82.890625-23.492187 82.890625zm0 0" fill="#787465"/><path d="m399.292969 273.667969v66.148437c0 6.210938-7.289063 11.070313-17.007813 11.070313-8.910156 0-15.660156-4.859375-15.660156-11.070313v-7.828125c-9.722656 11.070313-22.410156 21.328125-41.042969 21.328125-19.171875 0-35.101562-11.339844-35.101562-35.910156 0-31.050781 25.648437-39.6875 62.910156-39.6875h11.070313v-3.511719c0-11.609375-5.941407-24.839843-23.761719-24.839843-20.789063 0-24.300781 8.371093-30.777344 8.371093-7.832031 0-11.882813-9.449219-11.882813-17.28125 0-11.070312 24.03125-19.441406 43.203126-19.441406 42.121093 0 58.050781 25.382813 58.050781 52.652344zm-34.828125 22.140625h-4.050782c-18.089843 0-35.101562 1.890625-35.101562 17.007812 0 9.992188 6.207031 14.582032 14.308594 14.582032 11.070312 0 24.84375-12.691407 24.84375-25.921876zm0 0" fill="#424038"/></svg>