<svg height="512pt" viewBox="0 -105 512 512" width="512pt" xmlns="http://www.w3.org/2000/svg"><path d="m467 271.949219c-8.285156 0-15-6.714844-15-15 0-108.074219-87.925781-196.003907-196.003906-196.003907s-196.003906 87.929688-196.003906 196.003907c0 8.285156-6.714844 15-15 15-8.285157 0-15-6.714844-15-15 0-60.367188 23.507812-117.121094 66.195312-159.808594s99.441406-66.195313 159.808594-66.195313c60.367187 0 117.121094 23.511719 159.808594 66.195313 42.6875 42.6875 66.195312 99.441406 66.195312 159.808594 0 8.285156-6.714844 15-15 15zm0 0" fill="#ffe645"/><path d="m256.757812 30.957031v30c107.726563.414063 195.242188 88.171875 195.242188 195.992188 0 8.285156 6.714844 15 15 15s15-6.714844 15-15c0-60.367188-23.507812-117.121094-66.195312-159.808594-42.507813-42.503906-98.964844-65.988281-159.046876-66.183594zm0 0" fill="#ffcf2c"/><path d="m437 226.949219h60v60.003906h-60zm0 0" fill="#fff566"/><path d="m497 301.953125h-60c-8.285156 0-15-6.71875-15-15v-60.003906c0-8.285157 6.714844-15 15-15h60c8.285156 0 15 6.714843 15 15v60.003906c0 8.28125-6.714844 15-15 15zm-45-30h30v-30.003906h-30zm0 0" fill="#ed8f00"/><path d="m434.496094 60h-357c-8.28125 0-15-6.714844-15-15s6.71875-15 15-15h357c8.28125 0 15 6.714844 15 15s-6.71875 15-15 15zm0 0" fill="#ff8b6e"/><path d="m434.496094 30h-177.738282v30h177.738282c8.28125 0 15-6.714844 15-15s-6.71875-15-15-15zm0 0" fill="#ff6e57"/><path d="m449.496094 75c-16.542969 0-30-13.457031-30-30s13.457031-30 30-30c16.539062 0 30 13.457031 30 30s-13.460938 30-30 30zm-.003906-30.019531.003906.019531c0-.011719-.003906-.019531-.003906-.019531zm0 0" fill="#f2472c"/><path d="m62.496094 75c-16.542969 0-30-13.457031-30-30s13.457031-30 30-30c16.542968 0 30 13.457031 30 30s-13.457032 30-30 30zm0-30.019531v.019531c0-.011719 0-.019531 0-.019531zm0 0" fill="#ff6e57"/><path d="m225.988281 15h60v60h-60zm0 0" fill="#ffa38c"/><path d="m256.757812 15h29.230469v60h-29.230469zm0 0" fill="#ff8b6e"/><path d="m285.988281 90h-60c-8.285156 0-15-6.714844-15-15v-60c0-8.285156 6.714844-15 15-15h60c8.285157 0 15 6.714844 15 15v60c0 8.285156-6.714843 15-15 15zm-45-30h30v-30h-30zm0 0" fill="#f2472c"/><path d="m285.988281 0h-29.230469v30h14.230469v30h-14.230469v30h29.230469c8.285157 0 15-6.714844 15-15v-60c0-8.285156-6.714843-15-15-15zm0 0" fill="#d9260f"/><path d="m15 226.945312h60v60.003907h-60zm0 0" fill="#ffff95"/><path d="m75 301.949219h-60c-8.285156 0-15-6.71875-15-15v-60.003907c0-8.28125 6.714844-15 15-15h60c8.285156 0 15 6.71875 15 15v60.003907c0 8.28125-6.714844 15-15 15zm-45-30h30v-30.003907h-30zm0 0" fill="#ffa81c"/></svg>