<svg height="512pt" viewBox="0 -66 512 512" width="512pt" xmlns="http://www.w3.org/2000/svg"><path d="m45 15h421.976562v300.535156h-421.976562zm0 0" fill="#e8ffff"/><path d="m255.992188 15h210.984374v300.535156h-210.984374zm0 0" fill="#a3efff"/><path d="m466.976562 320.535156c-8.285156 0-15-6.714844-15-15v-275.535156h-391.976562v275.535156c0 8.28125-6.714844 15-15 15-8.28125 0-15-6.71875-15-15v-290.535156c0-8.285156 6.71875-15 15-15h421.976562c8.285157 0 15 6.714844 15 15v290.535156c0 8.285156-6.714843 15-15 15zm0 0" fill="#b0ac9b"/><path d="m466.976562 0h-210.984374v30h195.984374v275.535156c0 8.28125 6.714844 15 15 15 8.285157 0 15-6.71875 15-15v-290.535156c0-8.285156-6.714843-15-15-15zm0 0" fill="#878477"/><path d="m447 380.535156h-381.996094c-35.828125 0-64.988281-29.148437-64.99999975-64.976562l-.00390625-10.019532c0-3.976562 1.578125-7.796874 4.390625-10.609374s6.628906-4.394532 10.609375-4.394532h482c3.980469 0 7.792969 1.582032 10.605469 4.394532 2.816406 2.8125 4.394531 6.628906 4.394531 10.605468v10.003906c0 35.839844-29.160156 64.996094-65 64.996094zm0 0" fill="#d6d3c5"/><path d="m511.992188 305.363281c-.046876-3.914062-1.613282-7.664062-4.382813-10.433593-2.8125-2.816407-6.628906-4.394532-10.609375-4.394532h-241.007812v90h191.007812c35.742188 0 64.832031-29 64.992188-64.703125zm0 0" fill="#c4c0ad"/><path d="m241 201.675781h-111.320312c-8.285157 0-15-6.714843-15-15v-111.320312c0-8.28125 6.714843-15 15-15h111.320312c8.285156 0 15 6.71875 15 15v111.320312c0 8.285157-6.714844 15-15 15zm0 0" fill="#ff6e57"/><path d="m233.3125 260.359375c-42.511719 0-77.097656-34.585937-77.097656-77.097656s34.585937-77.097657 77.097656-77.097657 77.097656 34.585938 77.097656 77.097657-34.585937 77.097656-77.097656 77.097656zm0 0" fill="#67e57e"/><path d="m255.992188 109.574219v147.375c31.476562-9.707031 54.417968-39.066407 54.417968-73.6875 0-34.621094-22.941406-63.980469-54.417968-73.6875zm0 0" fill="#21b572"/><path d="m404.109375 238.757812h-121.886719c-5.199218 0-10.027344-2.691406-12.761718-7.113281-2.730469-4.421875-2.980469-9.945312-.65625-14.59375l60.945312-121.886719c2.539062-5.082031 7.734375-8.292968 13.414062-8.292968 5.683594 0 10.875 3.210937 13.417969 8.292968l60.941407 121.886719c2.324218 4.648438 2.078124 10.171875-.65625 14.59375-2.730469 4.421875-7.558594 7.113281-12.757813 7.113281zm0 0" fill="#ffb500"/></svg>