<svg height="512pt" viewBox="-34 0 511 512" width="512pt" xmlns="http://www.w3.org/2000/svg"><path d="m220.695312 496.832031h-210.1875v-350h210.1875zm0 0" fill="#edeade"/><path d="m117.667969 146.832031h103.027343v350h-103.027343zm0 0" fill="#b0ac9b"/><path d="m72.636719 95.683594v-80.683594c0-8.285156 6.714843-15 15-15h60.0625c8.285156 0 15 6.714844 15 15v80.683594zm0 0" fill="#d6d3c5"/><path d="m147.699219 0h-30.03125v95.683594h45.03125v-80.683594c0-8.285156-6.714844-15-15-15zm0 0" fill="#c4c0ad"/><path d="m194.296875 161.664062h-157.386719v-45.488281c0-25.085937 20.199219-45.492187 45.03125-45.492187h67.324219c24.828125 0 45.03125 20.40625 45.03125 45.492187zm0 0" fill="#4dc979"/><path d="m149.265625 70.683594h-31.597656v90.980468h76.628906v-45.488281c0-25.085937-20.203125-45.492187-45.03125-45.492187zm0 0" fill="#21b572"/><path d="m215.707031 161.664062h-200.207031c-8.285156 0-15-6.714843-15-15 0-8.285156 6.714844-15 15-15h200.207031c8.285157 0 15 6.714844 15 15 0 8.285157-6.714843 15-15 15zm0 0" fill="#a19d8d"/><path d="m215.707031 131.664062h-98.039062v30h98.039062c8.285157 0 15-6.714843 15-15 0-8.285156-6.714843-15-15-15zm0 0" fill="#696453"/><path d="m215.707031 512h-200.207031c-8.285156 0-15-6.714844-15-15s6.714844-15 15-15h200.207031c8.285157 0 15 6.714844 15 15s-6.714843 15-15 15zm0 0" fill="#a19d8d"/><path d="m215.707031 482h-98.039062v30h98.039062c8.285157 0 15-6.714844 15-15s-6.714843-15-15-15zm0 0" fill="#696453"/><path d="m220.695312 201.070312h-135.125c-8.28125 0-15 6.714844-15 15v205.0625c0 8.285157 6.71875 15 15 15h135.125zm0 0" fill="#21b572"/><path d="m117.667969 201.070312h103.027343v235.0625h-103.027343zm0 0" fill="#1e9e60"/><path d="m428.140625 101.726562c-.867187 0-1.742187-.074218-2.625-.230468l-222.425781-39.226563c-7.257813-1.28125-12.511719-7.644531-12.394532-15.011719.117188-7.367187 5.570313-13.5625 12.863282-14.609374l222.445312-31.996094c8.203125-1.171875 15.800782 4.515625 16.980469 12.714844 1.179687 8.199218-4.511719 15.804687-12.710937 16.980468l-129.679688 18.652344 130.132812 22.949219c8.15625 1.441406 13.605469 9.222656 12.167969 17.378906-1.285156 7.277344-7.613281 12.398437-14.753906 12.398437zm0 0" fill="#67e57e"/></svg>