<svg height="512pt" viewBox="-59 0 512 512" width="512pt" xmlns="http://www.w3.org/2000/svg"><path d="m379.886719 512h-364.886719c-8.285156 0-15-6.714844-15-15v-482c0-8.285156 6.714844-15 15-15h364.886719c8.285156 0 15 6.714844 15 15v482c0 8.285156-6.714844 15-15 15zm0 0" fill="#d1f7ff"/><path d="m379.886719 0h-184.242188v512h184.242188c8.285156 0 15-6.714844 15-15v-482c0-8.285156-6.714844-15-15-15zm0 0" fill="#a3efff"/><path d="m173.664062 394.082031h-109.742187c-8.285156 0-15-6.71875-15-15 0-8.285156 6.714844-15 15-15h109.742187c8.285157 0 15 6.714844 15 15 0 8.28125-6.714843 15-15 15zm0 0" fill="#a19d8d"/><path d="m233.660156 394.074219c-3.9375 0-7.808594-1.597657-10.597656-4.390625-2.800781-2.789063-4.402344-6.660156-4.402344-10.609375s1.601563-7.808594 4.402344-10.597657c2.789062-2.800781 6.660156-4.402343 10.597656-4.402343 3.953125 0 7.820313 1.601562 10.613282 4.402343 2.789062 2.789063 4.386718 6.660157 4.386718 10.597657 0 3.949219-1.597656 7.820312-4.386718 10.609375-2.792969 2.792968-6.660157 4.390625-10.613282 4.390625zm0 0" fill="#787465"/><path d="m130.683594 454.082031h-66.761719c-8.285156 0-15-6.71875-15-15 0-8.285156 6.714844-15 15-15h66.761719c8.28125 0 15 6.714844 15 15 0 8.28125-6.71875 15-15 15zm0 0" fill="#a19d8d"/><path d="m40 324.160156h314.886719c5.523437 0 10-4.476562 10-10v-274.160156c0-5.523438-4.476563-10-10-10h-314.886719c-5.523438 0-10 4.476562-10 10v274.160156c0 5.523438 4.476562 10 10 10zm0 0" fill="#67e57e"/><path d="m195.644531 324.160156h159.242188c5.523437 0 10-4.476562 10-10v-274.160156c0-5.523438-4.476563-10-10-10h-159.242188zm0 0" fill="#21b572"/></svg>