<svg height="512pt" viewBox="0 0 512 512" width="512pt" xmlns="http://www.w3.org/2000/svg"><path d="m364.246094 512h-349.246094c-8.285156 0-15-6.714844-15-15v-482c0-8.285156 6.714844-15 15-15h349.246094c8.285156 0 15 6.714844 15 15v482c0 8.285156-6.714844 15-15 15zm0 0" fill="#d1f7ff"/><path d="m364.246094 0h-174.621094v512h174.621094c8.285156 0 15-6.714844 15-15v-482c0-8.285156-6.714844-15-15-15zm0 0" fill="#a3efff"/><path d="m124.988281 148.996094h-40c-13.785156 0-25-11.214844-25-25v-39c0-13.785156 11.214844-25 25-25h40c13.785157 0 25 11.214844 25 25v39c0 13.785156-11.214843 25-25 25zm0 0" fill="#ffd236"/><path d="m129.09375 210h-48.214844c-8.28125 0-15-6.714844-15-15 0-8.28125 6.71875-15 15-15h48.214844c8.28125 0 15 6.71875 15 15 0 8.285156-6.71875 15-15 15zm0 0" fill="#28c1d1"/><path d="m496.992188 511.496094h-392.472657c-8.285156 0-15-6.714844-15-15v-210.894532c0-8.285156 6.714844-15 15-15h392.472657c8.285156 0 15 6.714844 15 15v210.894532c0 8.285156-6.714844 15-15 15zm0 0" fill="#ffc12e"/><path d="m496.992188 270.601562h-196.21875v240.894532h196.21875c8.285156 0 15-6.714844 15-15v-210.894532c0-8.285156-6.714844-15-15-15zm0 0" fill="#ffa81c"/><path d="m104.519531 511.496094h392.472657c4.933593 0 9.296874-2.390625 12.03125-6.066406l-174.285157-129.445313-67.976562.003906-174.269531 129.445313c2.730468 3.671875 7.09375 6.0625 12.027343 6.0625zm0 0" fill="#ffe645"/><path d="m499.1875 511.320312c.394531-.058593.785156-.125 1.167969-.214843.171875-.039063.34375-.085938.515625-.132813.378906-.101562.757812-.21875 1.128906-.347656.140625-.050781.285156-.101562.425781-.15625.429688-.167969.847657-.355469 1.257813-.5625.066406-.03125.132812-.058594.199218-.09375 2.027344-1.054688 3.785157-2.558594 5.140626-4.382812l-174.285157-129.445313h-33.964843v135.511719h196.21875c.578124 0 1.140624-.039063 1.699218-.101563.167969-.019531.332032-.050781.496094-.074219zm0 0" fill="#ffcf2c"/><path d="m300.773438 394.304688 209.339843-115.972657c-2.558593-4.609375-7.472656-7.730469-13.121093-7.730469h-392.472657c-5.648437 0-10.5625 3.125-13.121093 7.734376zm0 0" fill="#fff566"/><path d="m496.992188 270.601562h-196.21875v123.703126l209.339843-115.972657c-2.558593-4.609375-7.472656-7.730469-13.121093-7.730469zm0 0" fill="#ffe645"/><path d="m430.992188 225h-175c-8.285157 0-15-6.714844-15-15v-105.503906c0-8.285156 6.714843-15 15-15h175c8.285156 0 15 6.714844 15 15v105.503906c0 8.285156-6.714844 15-15 15zm0 0" fill="#ffc12e"/><path d="m430.992188 89.496094h-90.144532v135.503906h90.144532c8.285156 0 15-6.714844 15-15v-105.503906c0-8.285156-6.714844-15-15-15zm0 0" fill="#ff9300"/></svg>