<svg height="512pt" viewBox="-15 0 512 512" width="512pt" xmlns="http://www.w3.org/2000/svg"><path d="m231.289062 490.25-209.542968-209.539062 229.648437-229.644532 209.539063 209.539063zm0 0" fill="#edeade"/><path d="m126.515625 385.480469 229.644531-229.644531 104.769532 104.769531-229.644532 229.644531zm0 0" fill="#c4c0ad"/><path d="m306.035156 231.941406-117.757812-117.757812-110.941406 110.9375 117.757812 117.761718c2.929688 2.925782 6.769531 4.390626 10.609375 4.390626 3.835937 0 7.675781-1.464844 10.605469-4.390626l89.726562-89.730468c5.859375-5.855469 5.859375-15.355469 0-21.210938zm0 0" fill="#ff6e57"/><path d="m306.035156 231.941406-12.988281-12.988281-110.941406 110.9375 12.988281 12.988281c2.929688 2.929688 6.769531 4.394532 10.609375 4.394532 3.835937 0 7.675781-1.464844 10.605469-4.394532l89.726562-89.726562c5.859375-5.855469 5.859375-15.355469 0-21.210938zm0 0" fill="#d9260f"/><path d="m238.035156 512c-3.839844 0-7.675781-1.464844-10.605468-4.394531l-223.035157-223.035157c-5.859375-5.859374-5.859375-15.355468 0-21.214843 5.855469-5.859375 15.355469-5.859375 21.210938 0l223.035156 223.039062c5.859375 5.855469 5.859375 15.351563 0 21.210938-2.925781 2.929687-6.765625 4.394531-10.605469 4.394531zm0 0" fill="#a19d8d"/><path d="m248.640625 486.394531-111.515625-111.519531-21.214844 21.214844 111.519532 111.515625c2.929687 2.929687 6.769531 4.394531 10.605468 4.394531 3.839844 0 7.679688-1.464844 10.605469-4.394531 5.859375-5.855469 5.859375-15.355469 0-21.210938zm0 0" fill="#696453"/><path d="m467.683594 282.351562c-3.839844 0-7.679688-1.464843-10.605469-4.390624l-223.039063-223.039063c-5.855468-5.855469-5.855468-15.355469 0-21.210937 5.859376-5.859376 15.355469-5.859376 21.214844 0l223.035156 223.035156c5.859376 5.855468 5.859376 15.355468 0 21.214844-2.925781 2.925781-6.765624 4.390624-10.605468 4.390624zm0 0" fill="#a19d8d"/><path d="m478.289062 256.746094-111.515624-111.519532-21.214844 21.214844 111.519531 111.519532c2.925781 2.925781 6.765625 4.390624 10.605469 4.390624s7.679687-1.464843 10.605468-4.390624c5.859376-5.859376 5.859376-15.359376 0-21.214844zm0 0" fill="#696453"/><path d="m331.554688 195.445312c-8.285157 0-15-6.714843-15-15v-165.445312c0-8.285156 6.714843-15 15-15 8.285156 0 15 6.714844 15 15v165.445312c0 8.285157-6.714844 15-15 15zm0 0" fill="#c4c0ad"/><path d="m346.554688 165.445312-25.605469 25.605469c2.714843 2.714844 6.464843 4.394531 10.605469 4.394531 8.285156 0 15-6.714843 15-15zm0 0" fill="#a19d8d"/><path d="m418.929688 439.34375c-16.570313 0-30-13.429688-30-30v-242.800781l60 61.398437v181.402344c0 16.570312-13.433594 30-30 30zm0 0" fill="#ff6e57"/><path d="m418.929688 439.34375c16.566406 0 30-13.429688 30-30v-181.402344l-30-30.699218zm0 0" fill="#d9260f"/></svg>