<svg height="512pt" viewBox="0 0 511 512" width="512pt" xmlns="http://www.w3.org/2000/svg"><path d="m467.488281 482h-421.988281c-8.285156 0-15-6.714844-15-15v-422c0-8.285156 6.714844-15 15-15h421.984375c8.285156 0 15 6.714844 15 15v422c.003906 8.285156-6.714844 15-14.996094 15zm-406.988281-30h391.984375v-392h-391.984375zm0 0" fill="#a3efff"/><path d="m467.488281 30h-211.007812v30h196.003906v392h-196.003906v30h211.003906c8.285156 0 15-6.714844 15-15v-422c.003906-8.285156-6.714844-15-14.996094-15zm0 0" fill="#6ad9eb"/><path d="m437.488281 230.015625h59.996094v60h-59.996094zm0 0" fill="#fff566"/><path d="m497.484375 305.015625h-59.996094c-8.285156 0-15-6.714844-15-14.996094v-60c0-8.285156 6.714844-15 15-15h59.996094c8.285156 0 15 6.714844 15 15v60c0 8.28125-6.714844 14.996094-15 14.996094zm-44.996094-29.996094h30v-30h-30zm0 0" fill="#ff9300"/><path d="m437.488281 15h59.996094v60h-59.996094zm0 0" fill="#fff566"/><path d="m497.484375 90h-59.996094c-8.285156 0-15-6.71875-15-15v-60c0-8.285156 6.714844-15 15-15h59.996094c8.285156 0 15 6.714844 15 15v60c0 8.28125-6.714844 15-15 15zm-44.996094-30h30v-30h-30zm0 0" fill="#ff9300"/><path d="m226.488281 15h60v60h-60zm0 0" fill="#ffff95"/><path d="m256.480469 15h30.007812v60h-30.007812zm0 0" fill="#fff566"/><path d="m286.488281 90h-60c-8.28125 0-15-6.71875-15-15v-60c0-8.285156 6.71875-15 15-15h60c8.285157 0 15 6.714844 15 15v60c0 8.28125-6.714843 15-15 15zm-45-30h30v-30h-30zm0 0" fill="#ffc12e"/><path d="m286.488281 0h-30.007812v30h15.007812v30h-15.007812v30h30.007812c8.285157 0 15-6.71875 15-15v-60c0-8.285156-6.714843-15-15-15zm0 0" fill="#ff9300"/><path d="m15.5 15h60v60h-60zm0 0" fill="#ffff95"/><path d="m75.5 90h-60c-8.285156 0-15-6.71875-15-15v-60c0-8.285156 6.714844-15 15-15h60c8.28125 0 15 6.714844 15 15v60c0 8.28125-6.71875 15-15 15zm-45-30h30v-30h-30zm0 0" fill="#ffc12e"/><path d="m15.5 230.015625h60v59.996094h-60zm0 0" fill="#ffff95"/><path d="m75.5 305.011719h-60c-8.285156 0-15-6.714844-15-15v-59.996094c0-8.285156 6.714844-15 15-15h60c8.28125 0 15 6.714844 15 15v59.996094c0 8.285156-6.71875 15-15 15zm-45-29.996094h30v-30h-30zm0 0" fill="#ffc12e"/><path d="m15.5 437h60v60h-60zm0 0" fill="#ffff95"/><path d="m75.5 512h-60c-8.285156 0-15-6.714844-15-15v-60c0-8.28125 6.714844-15 15-15h60c8.28125 0 15 6.71875 15 15v60c0 8.285156-6.71875 15-15 15zm-45-30h30v-30h-30zm0 0" fill="#ffc12e"/><path d="m437.488281 437h59.996094v60h-59.996094zm0 0" fill="#fff566"/><path d="m497.484375 512h-59.996094c-8.285156 0-15-6.714844-15-15v-60c0-8.28125 6.714844-15 15-15h59.996094c8.285156 0 15 6.71875 15 15v60c0 8.285156-6.714844 15-15 15zm-44.996094-30h30v-30h-30zm0 0" fill="#ff9300"/><path d="m226.488281 437h60v60h-60zm0 0" fill="#ffff95"/><path d="m256.480469 437h30.007812v60h-30.007812zm0 0" fill="#fff566"/><path d="m286.488281 512h-60c-8.28125 0-15-6.714844-15-15v-60c0-8.28125 6.71875-15 15-15h60c8.285157 0 15 6.71875 15 15v60c0 8.285156-6.714843 15-15 15zm-45-30h30v-30h-30zm0 0" fill="#ffc12e"/><path d="m286.488281 422h-30.007812v30h15.007812v30h-15.007812v30h30.007812c8.285157 0 15-6.714844 15-15v-60c0-8.28125-6.714843-15-15-15zm0 0" fill="#ff9300"/></svg>