<svg height="512pt" viewBox="0 0 512 512" width="512pt" xmlns="http://www.w3.org/2000/svg"><path d="m194.808594 156.507812c-5.777344-61.777343-39.144532-68.140624-39.144532-141.507812h-140.660156v180.652344c80.328125-.003906 80.328125-40 160.660156-40 6.953126 0 13.289063.304687 19.144532.855468zm0 0" fill="#e8ffff"/><path d="m195.660156 175.644531c0-6.949219-.304687-13.285156-.851562-19.136719-5.855469-.546874-12.195313-.855468-19.148438-.855468-80.328125 0-80.328125 39.996094-160.65625 40v160.65625c73.375 0 79.738282-33.367188 141.511719-39.144532 5.777344-61.777343 39.144531-68.140624 39.144531-141.519531zm0 0" fill="#d1f7ff"/><path d="m355.464844 194.796875c61.777344-5.773437 68.140625-39.144531 141.515625-39.144531h.019531v-140.652344h-180.679688c.003907 80.316406 40 80.320312 40 160.644531 0 6.957031-.308593 13.296875-.855468 19.152344zm0 0" fill="#6ad9eb"/><path d="m194.808594 156.507812c.546875 5.851563.851562 12.1875.851562 19.136719 0 73.378907-33.367187 79.742188-39.144531 141.519531 5.855469-.546874 12.195313-.851562 19.148437-.851562 73.375 0 79.742188 33.367188 141.511719 39.144531-.546875-5.855469-.855469-12.195312-.855469-19.148437 0-73.375 33.367188-79.742188 39.144532-141.511719-5.851563.546875-12.1875.855469-19.136719.855469-73.382813 0-79.742187-33.371094-141.519531-39.144532zm0 0" fill="#a3efff"/><path d="m336.324219 195.652344c-40.164063 0-60.25-10-80.335938-19.996094v160.644531c16.613281 8.269531 33.222657 16.539063 61.1875 19.15625-.546875-5.855469-.855469-12.195312-.855469-19.148437 0-73.375 33.367188-79.742188 39.144532-141.511719-5.851563.546875-12.1875.855469-19.140625.855469zm0 0" fill="#6ad9eb"/><path d="m336.324219 195.652344c6.953125 0 13.289062-.308594 19.140625-.855469.546875-5.855469.855468-12.195313.855468-19.152344 0-80.324219-39.996093-80.328125-40-160.644531h-160.65625c0 73.367188 33.367188 79.730469 39.144532 141.507812 61.777344 5.773438 68.136718 39.144532 141.515625 39.144532zm0 0" fill="#d1f7ff"/><path d="m255.984375 15v160.65625c20.085937 9.996094 40.175781 19.996094 80.339844 19.996094 6.953125 0 13.289062-.308594 19.140625-.855469.546875-5.855469.851562-12.195313.851562-19.152344 0-80.324219-39.992187-80.328125-39.996094-160.644531zm0 0" fill="#a3efff"/><path d="m336.324219 356.308594c-6.953125 0-13.292969-.304688-19.148438-.851563 5.777344 61.773438 39.144531 68.136719 39.144531 141.515625v.027344h140.679688v-180.6875h-.019531c-80.328125 0-80.328125 39.996094-160.65625 39.996094zm0 0" fill="#00a2b2"/><path d="m155.664062 336.308594c0-6.953125.304688-13.289063.851563-19.144532-61.773437 5.777344-68.136719 39.144532-141.511719 39.144532v140.691406h180.65625v-.027344c0-80.332031-39.996094-80.332031-39.996094-160.664062zm0 0" fill="#a3efff"/><path d="m496.980469 155.652344c-73.375 0-79.738281 33.371094-141.515625 39.144531-5.777344 61.769531-39.144532 68.136719-39.144532 141.511719 0 6.953125.308594 13.292968.855469 19.148437 5.851563.546875 12.195313.851563 19.148438.851563 80.328125 0 80.328125-39.996094 160.65625-39.996094h.019531v-160.660156zm0 0" fill="#28c1d1"/><path d="m317.175781 355.457031c-61.773437-5.78125-68.136719-39.144531-141.511719-39.144531-6.953124 0-13.296874.304688-19.148437.851562-.546875 5.855469-.855469 12.195313-.855469 19.144532 0 80.332031 40 80.332031 40 160.664062v.027344h160.65625v-.027344c.003906-73.378906-33.363281-79.742187-39.140625-141.515625zm0 0" fill="#6ad9eb"/><path d="m255.984375 336.300781v160.699219h100.332031v-.027344c0-73.378906-33.367187-79.742187-39.144531-141.515625-27.960937-2.617187-44.574219-10.886719-61.1875-19.15625zm0 0" fill="#28c1d1"/><path d="m497 0h-481.996094c-8.285156 0-14.99999975 6.714844-14.99999975 15v180.59375c0 .019531-.00390625.039062-.00390625.054688 0 .019531.00390625.039062.00390625.058593v160.542969c0 .019531-.00390625.039062-.00390625.058594 0 .019531.00390625.039062.00390625.058594v140.632812c0 8.285156 6.71484375 15 14.99999975 15h481.996094c8.285156 0 15-6.714844 15-15v-482c0-8.285156-6.714844-15-15-15zm-174.105469 423.324219c8.085938 16.242187 15.78125 31.722656 17.867188 58.675781h-130.585938c-2.269531-34.242188-12.199219-54.195312-21.085937-72.046875-9.476563-19.03125-18.425782-37.007813-18.425782-73.644531 0-1.6875.023438-3.324219.0625-4.933594 1.609376-.039062 3.246094-.0625 4.9375-.0625 36.636719 0 54.613282 8.949219 73.644532 18.425781 14.558594 7.246094 30.511718 15.1875 54.476562 19.105469 3.917969 23.96875 11.859375 39.921875 19.109375 54.480469zm-60.214843-100.441407c-20.308594-10.109374-43.324219-21.570312-87.015626-21.570312-.519531 0-1.019531.007812-1.53125.011719 3.464844-15.570313 9.109376-26.917969 14.957032-38.660157 10.109375-20.308593 21.570312-43.324218 21.570312-87.015624 0-.515626-.007812-1.015626-.011718-1.527344 15.570312 3.46875 26.917968 9.113281 38.660156 14.957031 20.308594 10.113281 43.324218 21.574219 87.015625 21.574219.515625 0 1.015625-.007813 1.523437-.011719-3.464844 15.566406-9.109375 26.910156-14.953125 38.652344-10.113281 20.304687-21.574219 43.320312-21.574219 87.015625 0 .519531.011719 1.019531.015626 1.53125-15.570313-3.46875-26.914063-9.109375-38.65625-14.957032zm-232.675782-112.71875c34.222656-2.273437 54.167969-12.199218 72.011719-21.085937 19.035156-9.472656 37.007813-18.425781 73.648437-18.425781 1.6875 0 3.324219.027344 4.933594.066406.039063 1.605469.0625 3.242188.0625 4.929688 0 36.636718-8.949218 54.613281-18.425781 73.644531-7.25 14.558593-15.191406 30.515625-19.105469 54.484375-23.96875 3.917968-39.921875 11.859375-54.484375 19.109375-16.234375 8.082031-31.707031 15.777343-58.640625 17.867187zm159.085938-121.53125c-8.082032-16.234374-15.777344-31.703124-17.867188-58.632812h130.585938c2.277344 34.21875 12.199218 54.160156 21.085937 72.003906 9.472657 19.03125 18.425781 37.007813 18.425781 73.640625 0 1.691407-.027343 3.332031-.0625 4.945313-1.613281.035156-3.246093.0625-4.933593.0625-36.636719 0-54.613281-8.953125-73.644531-18.425782-14.5625-7.25-30.515626-15.195312-54.484376-19.109374-3.914062-23.96875-11.855468-39.925782-19.105468-54.484376zm142.230468 247.675782c0-36.636719 8.949219-54.613282 18.425782-73.644532 7.25-14.558593 15.191406-30.511718 19.105468-54.476562 23.96875-3.914062 39.925782-11.859375 54.488282-19.109375 16.234375-8.085937 31.714844-15.78125 58.660156-17.867187v130.585937c-34.238281 2.273437-54.183594 12.199219-72.035156 21.085937-19.027344 9.476563-37.003906 18.425782-73.640625 18.425782-1.691407 0-3.328125-.023438-4.941407-.0625-.035156-1.609375-.0625-3.25-.0625-4.9375zm150.679688-195.171875c-34.234375 2.273437-54.183594 12.199219-72.03125 21.085937-11.746094 5.847656-23.089844 11.492188-38.664062 14.960938.003906-.515625.015624-1.019532.015624-1.539063 0-43.691406-11.460937-66.707031-21.574218-87.011719-8.082032-16.234374-15.773438-31.703124-17.863282-58.632812h150.117188zm-340.851562-111.136719c2.277343 34.21875 12.199218 54.160156 21.085937 72.003906 5.847656 11.742188 11.492187 23.089844 14.957031 38.660156-.511718-.003906-1.011718-.011718-1.527344-.011718-43.691406 0-66.710937 11.460937-87.015624 21.570312-16.234376 8.085938-31.710938 15.78125-58.644532 17.871094v-150.09375zm-111.144532 340.824219c34.222656-2.273438 54.167969-12.199219 72.011719-21.085938 11.742187-5.84375 23.089844-11.488281 38.660156-14.957031-.003906.511719-.011719 1.011719-.011719 1.527344 0 43.695312 11.457032 66.710937 21.570313 87.015625 8.085937 16.242187 15.785156 31.722656 17.871094 58.675781h-150.101563zm340.832032 111.175781c-2.273438-34.242188-12.199219-54.195312-21.089844-72.046875-5.84375-11.742187-11.488282-23.085937-14.957032-38.65625.515626.003906 1.015626.011719 1.535157.011719 43.691406 0 66.707031-11.457032 87.015625-21.570313 16.234375-8.085937 31.714844-15.78125 58.660156-17.871093v150.128906h-111.164062zm0 0" fill="#00a2b2"/><path d="m497 0h-241v30h45.808594c2.277344 34.21875 12.199218 54.160156 21.082031 72.003906 9.476563 19.03125 18.425781 37.007813 18.425781 73.640625 0 1.691407-.023437 3.332031-.0625 4.945313-1.609375.035156-3.242187.0625-4.929687.0625-36.636719 0-54.613281-8.953125-73.644531-18.425782-2.1875-1.089843-4.410157-2.195312-6.683594-3.296874v33.453124c18.828125 9.148438 41.347656 18.269532 80.328125 18.269532.515625 0 1.015625-.011719 1.523437-.015625-3.46875 15.566406-9.109375 26.914062-14.957031 38.652343-10.109375 20.308594-21.570313 43.324219-21.570313 87.019532 0 .515625.007813 1.019531.011719 1.53125-15.566406-3.46875-26.910156-9.113282-38.652343-14.957032-2.1875-1.089843-4.410157-2.191406-6.679688-3.296874v33.453124c12.851562 6.246094 27.425781 12.476563 47.785156 15.804688 3.914063 23.96875 11.855469 39.921875 19.105469 54.480469 8.085937 16.242187 15.785156 31.722656 17.871094 58.675781h-84.761719v30h241c8.285156 0 15-6.714844 15-15v-482c0-8.285156-6.714844-15-15-15zm-15 482h-111.164062c-2.273438-34.242188-12.199219-54.195312-21.089844-72.046875-5.84375-11.742187-11.488282-23.085937-14.957032-38.65625.515626.003906 1.015626.011719 1.535157.011719 43.691406 0 66.707031-11.457032 87.015625-21.570313 16.234375-8.085937 31.714844-15.78125 58.660156-17.871093zm0-180.203125c-34.234375 2.273437-54.183594 12.199219-72.03125 21.085937-19.03125 9.476563-37.007812 18.425782-73.644531 18.425782-1.691407 0-3.328125-.023438-4.941407-.0625-.035156-1.613282-.0625-3.25-.0625-4.9375 0-36.640625 8.949219-54.617188 18.425782-73.648438 7.25-14.558594 15.191406-30.511718 19.105468-54.476562 23.96875-3.914063 39.925782-11.855469 54.484376-19.105469 16.238281-8.085937 31.714843-15.78125 58.660156-17.871094v130.589844zm0-160.660156c-34.234375 2.273437-54.183594 12.199219-72.03125 21.085937-11.746094 5.847656-23.089844 11.492188-38.664062 14.960938.003906-.515625.015624-1.019532.015624-1.539063 0-43.691406-11.460937-66.707031-21.574218-87.011719-8.082032-16.234374-15.773438-31.703124-17.863282-58.632812h150.117188zm0 0" fill="#008896"/></svg>