<svg height="512pt" viewBox="0 -4 512.00222 512" width="512pt" xmlns="http://www.w3.org/2000/svg"><path d="m235.4375 342.21875c-3.867188 0-7.707031-1.484375-10.613281-4.390625l-50.734375-50.734375c-5.28125-5.28125-5.871094-13.644531-1.382813-19.613281l49.195313-65.484375c14.097656-18.769532 30.382812-35.914063 48.398437-50.960938l168.300781-140.5625c17.871094-14.933594 43.773438-13.773437 60.242188 2.699219l.003906.003906c16.382813 16.382813 17.609375 42.203125 2.851563 60.066407l-137.59375 166.511718c-15.941407 19.289063-34.246094 36.59375-54.398438 51.429688l-65.386719 48.117187c-2.660156 1.957031-5.777343 2.917969-8.882812 2.917969zm0 0" fill="#4dc979"/><path d="m224.824219 337.828125c2.90625 2.90625 6.746093 4.390625 10.613281 4.390625 3.105469 0 6.222656-.960938 8.882812-2.917969l65.386719-48.121093c20.15625-14.832032 38.457031-32.136719 54.398438-51.425782l137.59375-166.511718c14.757812-17.863282 13.53125-43.683594-2.851563-60.066407l-299.335937 299.335938zm0 0" fill="#1e9e60"/><path d="m184.820312 393.078125c-3.976562 0-7.792968-1.578125-10.605468-4.390625l-50.84375-50.847656c-2.8125-2.8125-4.394532-6.625-4.394532-10.601563 0-3.980469 1.582032-7.792969 4.277344-10.726562l50.734375-50.734375 72.171875 72.175781-50.734375 50.734375c-2.8125 2.8125-6.628906 4.390625-10.605469 4.390625zm0 0" fill="#d6d3c5"/><path d="m174.214844 388.6875c2.8125 2.8125 6.628906 4.390625 10.605468 4.390625 3.980469 0 7.792969-1.578125 10.605469-4.390625l50.734375-50.734375-36.042968-36.046875-61.339844 61.339844zm0 0" fill="#b0ac9b"/><path d="m125.855469 313.910156c-12.742188 2.851563-41.242188 11.917969-67.328125 38.003906-17.789063 17.789063-22.957032 41.855469-27.957032 65.132813-5.011718 23.328125-9.742187 45.363281-26.175781 61.796875-4.4804685 4.480469-5.660156 11.285156-2.957031 17.011719 2.492188 5.28125 7.800781 8.59375 13.554688 8.59375.484374 0 .96875-.023438 1.457031-.070313 1.085937-.105468 26.910156-2.667968 57.480469-10.019531 42.601562-10.242187 72.625-24.46875 89.234374-42.277344 26.921876-28.871093 33.519532-53.550781 34.867188-65.996093zm0 0" fill="#ffe645"/><path d="m14.992188 504.445312c.484374 0 .972656-.019531 1.460937-.066406 1.082031-.105468 26.90625-2.671875 57.476563-10.019531 42.601562-10.246094 72.625-24.46875 89.234374-42.28125 26.925782-28.867187 33.519532-53.550781 34.867188-65.996094l-36.046875-36.042969-153.101563 153.101563c1.894532.847656 3.96875 1.304687 6.109376 1.304687zm0 0" fill="#ffc12e"/></svg>