<svg height="512pt" viewBox="0 0 511 512" width="512pt" xmlns="http://www.w3.org/2000/svg"><path d="m456.5 162.058594-400-1.5625v-60.003906c0-3.988282 1.589844-7.816407 4.414062-10.628907 2.8125-2.800781 6.617188-4.371093 10.585938-4.371093h.0625l370 1.5625c8.257812.035156 14.9375 6.738281 14.9375 15z" fill="#c4c0ad"/><path d="m441.5625 87.054688-185.179688-.78125v75.003906l200.117188.78125v-60.003906c0-8.257813-6.679688-14.964844-14.9375-15zm0 0" fill="#878477"/><path d="m116.5 162.058594v-147.058594c0-3.988281 1.585938-7.808594 4.410156-10.625 2.8125-2.800781 6.621094-4.375 10.589844-4.375h.050781l249.996094.828125c8.265625.027344 14.953125 6.734375 14.953125 15v146.230469zm0 0" fill="#d1f7ff"/><path d="m381.546875.828125-125.164063-.414063v161.644532h140.117188v-146.230469c0-8.265625-6.6875-14.972656-14.953125-15zm0 0" fill="#a3efff"/><path d="m475.261719 408.980469h-437.761719c-20.402344 0-37-16.597657-37-36.996094v-159.925781c0-35.839844 29.160156-65 65-65h381.761719c35.839843 0 65 29.160156 65 65v159.925781c0 20.402344-16.597657 36.996094-37 36.996094zm0 0" fill="#edeade"/><path d="m447.261719 147.058594h-190.878907v261.925781h218.878907c20.402343 0 37-16.597656 37-37v-159.925781c0-35.839844-29.160157-65-65-65zm0 0" fill="#c4c0ad"/><path d="m437 237.058594h-28.5c-8.285156 0-15-6.714844-15-15s6.714844-15 15-15h28.5c8.28125 0 15 6.714844 15 15s-6.71875 15-15 15zm0 0" fill="#fff566"/><path d="m430 325.441406h-347c-8.285156 0-15-6.714844-15-15s6.714844-15 15-15h347c8.28125 0 15 6.714844 15 15s-6.71875 15-15 15zm0 0" fill="#787465"/><path d="m430 295.441406h-173.617188v30h173.617188c8.28125 0 15-6.714844 15-15s-6.71875-15-15-15zm0 0" fill="#4c4a40"/><path d="m401.5 512h-290c-8.285156 0-15-6.714844-15-15v-201.558594h320v201.558594c0 8.285156-6.71875 15-15 15zm0 0" fill="#d1f7ff"/><path d="m256.382812 512h145.117188c8.28125 0 15-6.714844 15-15v-201.558594h-160.117188zm0 0" fill="#a3efff"/><path d="m341.5 445h-84.960938c-8.28125 0-15-6.71875-15-15 0-8.285156 6.71875-15 15-15h84.960938c8.28125 0 15 6.714844 15 15 0 8.28125-6.71875 15-15 15zm0 0" fill="#b0ac9b"/><path d="m341.5 385h-169.917969c-8.285156 0-15-6.71875-15-15 0-8.285156 6.714844-15 15-15h169.917969c8.28125 0 15 6.714844 15 15 0 8.28125-6.71875 15-15 15zm0 0" fill="#b0ac9b"/><g fill="#878477"><path d="m341.5 415h-84.960938c-.054687 0-.105468.003906-.15625.007812v29.984376c.050782 0 .101563.007812.15625.007812h84.960938c8.28125 0 15-6.71875 15-15 0-8.285156-6.71875-15-15-15zm0 0"/><path d="m341.5 355h-85.117188v30h85.117188c8.28125 0 15-6.71875 15-15 0-8.285156-6.71875-15-15-15zm0 0"/></g></svg>