<svg height="512pt" viewBox="-19 0 512 512" width="512pt" xmlns="http://www.w3.org/2000/svg"><path d="m458.507812 512h-385.007812c-8.285156 0-15-6.714844-15-15v-482c0-8.285156 6.714844-15 15-15h264.984375l135.023437 135.015625v361.984375c0 8.285156-6.714843 15-15 15zm0 0" fill="#d1f7ff"/><path d="m266.003906 0v512h192.503906c8.285157 0 15-6.714844 15-15v-361.984375l-135.023437-135.015625zm0 0" fill="#a3efff"/><path d="m338.484375 0v120.007812c0 8.285157 6.71875 15 15 15h120.019531zm0 0" fill="#6ad9eb"/><path d="m15 216.089844h323.503906v183.023437h-323.503906zm0 0" fill="#67e57e"/><path d="m176.753906 216.089844h161.75v183.023437h-161.75zm0 0" fill="#4dc979"/><path d="m338.503906 414.113281h-323.503906c-8.285156 0-15-6.714843-15-15v-183.023437c0-8.28125 6.714844-15 15-15h323.503906c8.285156 0 15 6.71875 15 15v183.023437c0 8.285157-6.714844 15-15 15zm-308.503906-30h293.503906v-153.023437h-293.503906zm0 0" fill="#a19d8d"/><path d="m338.503906 201.089844h-161.75v30h146.75v153.023437h-146.75v30h161.75c8.285156 0 15-6.714843 15-15v-183.023437c0-8.28125-6.714844-15-15-15zm0 0" fill="#696453"/><path d="m89.773438 276.804688c-4.199219 0-6.582032-4.480469-6.582032-9.660157 0-4.476562 1.960938-9.378906 6.582032-9.378906h24.5c4.761718 0 9.519531 2.238281 9.519531 6.71875v63.421875c0 24.078125-15.261719 33.039062-33.601563 33.039062-20.019531 0-35.140625-10.640624-35.140625-29.257812 0-8.402344 3.5-10.359375 11.0625-10.359375 5.601563 0 10.359375 1.398437 10.777344 6.578125.421875 5.460938 1.121094 14 12.320313 14 8.121093 0 12.742187-4.480469 12.742187-14v-51.101562zm0 0" fill="#fff"/><path d="m141.992188 264.34375c0-3.5 3.21875-6.578125 8.121093-6.578125h28.980469c18.480469 0 33.039062 8.679687 33.039062 32.199219v.699218c0 23.523438-15.121093 32.480469-34.441406 32.480469h-13.859375v30.242188c0 4.476562-5.457031 6.71875-10.917969 6.71875-5.460937 0-10.921874-2.238281-10.921874-6.71875zm21.839843 12.460938v29.542968h13.859375c7.839844 0 12.601563-4.480468 12.601563-14v-1.542968c0-9.519532-4.761719-14-12.601563-14zm0 0" fill="#fff"/><g fill="#d1f7ff"><path d="m258.472656 276.804688c-7.980468 0-12.601562 4.480468-12.601562 14v37.101562c0 9.519531 4.621094 14 12.460937 14 7.839844 0 12.601563-4.480469 12.601563-14v-4.761719h-8.261719c-4.199219 0-6.578125-4.058593-6.578125-8.398437 0-4.0625 2.378906-8.398438 6.578125-8.398438h23.519531c4.203125 0 6.582032 3.21875 6.582032 6.859375v14.699219c0 24.078125-15.121094 33.039062-34.441407 33.039062-19.320312 0-34.300781-8.960937-34.300781-33.039062v-37.101562c0-24.078126 15.261719-33.039063 33.601562-33.039063 20.019532 0 35.140626 10.078125 35.140626 27.859375 0 8.398438-3.5 10.359375-10.921876 10.359375-5.878906 0-10.777343-1.539063-10.917968-6.578125s-.5625-12.601562-12.460938-12.601562zm0 0"/><path d="m179.09375 257.765625h-2.34375v19.039063h.941406c7.839844 0 12.601563 4.480468 12.601563 14v1.542968c0 9.519532-4.761719 14-12.601563 14h-.941406v16.796875h.941406c19.320313 0 34.441406-8.957031 34.441406-32.480469v-.699218c0-23.519532-14.558593-32.199219-33.039062-32.199219zm0 0"/></g></svg>