<svg height="511pt" viewBox="0 -85 511.99974 511" width="511pt" xmlns="http://www.w3.org/2000/svg"><path d="m504.496094 184.375-38.96875 22.5c-7.175782 4.144531-16.347656 1.683594-20.492188-5.488281l-90-155.886719c-4.140625-7.171875-1.683594-16.347656 5.492188-20.488281l38.96875-22.5c7.175781-4.140625 16.347656-1.683594 20.492187 5.488281l90 155.886719c4.140625 7.171875 1.683594 16.347656-5.492187 20.488281zm0 0" fill="#ff9300"/><path d="m352.335938 226.867188h-60c-8.285157 0-15-6.714844-15-15v-180c0-8.28125 6.714843-15 15-15h60c8.28125 0 15 6.71875 15 15v180c0 8.285156-6.71875 15-15 15zm0 0" fill="#f2472c"/><path d="m292.335938 226.867188h-60c-8.285157 0-15-6.714844-15-15v-180c0-8.28125 6.714843-15 15-15h60zm0 0" fill="#ffcf2c"/><path d="m256.015625 16.867188h36.320313v210h-36.320313zm0 0" fill="#ffc12e"/><path d="m160.347656 224.328125h-110c-8.285156 0-15-6.714844-15-15v-19.210937c0-35.84375 29.160156-65 65-65h10c35.839844 0 65 29.15625 65 65v19.210937c0 8.285156-6.714844 15-15 15zm0 0" fill="#a19d8d"/><path d="m110.347656 125.117188h-5v99.210937h55c8.285156 0 15-6.714844 15-15v-19.210937c0-35.84375-29.160156-65-65-65zm0 0" fill="#878477"/><path d="m105.347656 155.117188c-24.8125 0-45-20.1875-45-45v-26.667969c0-24.8125 20.1875-45 45-45s45 20.1875 45 45v26.667969c0 24.8125-20.1875 45-45 45zm0 0" fill="#c4c0ad"/><path d="m150.347656 110.117188v-26.667969c0-24.8125-20.1875-45-45-45v116.667969c24.8125 0 45-20.1875 45-45zm0 0" fill="#b0ac9b"/><path d="m103.488281 342.144531c-8.28125 0-15-6.714843-15-15v-48.84375c0-8.285156 6.71875-15 15-15 8.285157 0 15 6.714844 15 15v48.84375c0 8.285157-6.714843 15-15 15zm0 0" fill="#878477"/><path d="m428.890625 342.144531c-8.28125 0-15-6.714843-15-15v-48.84375c0-8.285156 6.71875-15 15-15 8.285156 0 15 6.714844 15 15v48.84375c0 8.285157-6.714844 15-15 15zm0 0" fill="#696453"/><path d="m496.992188 293.300781h-481.992188c-8.285156 0-15-6.714843-15-15v-66.433593c0-8.285157 6.714844-15 15-15h481.992188c8.285156 0 15 6.714843 15 15v66.433593c0 8.285157-6.714844 15-15 15zm0 0" fill="#4dc979"/><path d="m496.992188 196.867188h-240.976563v96.433593h240.976563c8.285156 0 15-6.714843 15-15v-66.433593c0-8.285157-6.714844-15-15-15zm0 0" fill="#21b572"/></svg>