<svg height="512pt" viewBox="0 -61 512 512" width="512pt" xmlns="http://www.w3.org/2000/svg"><path d="m346 90h-180c-4.355469 0-8.496094-1.894531-11.347656-5.1875-2.847656-3.292969-4.125-7.664062-3.496094-11.972656l8.738281-60c1.074219-7.371094 7.394531-12.839844 14.84375-12.839844h162.523438c7.449219 0 13.769531 5.46875 14.84375 12.839844l8.738281 60c.625 4.308594-.652344 8.679687-3.5 11.972656s-6.988281 5.1875-11.34375 5.1875zm0 0" fill="#878477"/><path d="m352.105469 12.839844c-1.074219-7.371094-7.394531-12.839844-14.84375-12.839844h-81.261719v90h90c4.355469 0 8.496094-1.894531 11.34375-5.1875s4.125-7.664062 3.5-11.972656zm0 0" fill="#696453"/><path d="m75 15c16.566406 0 30 13.433594 30 30v30h-60v-30c0-16.566406 13.429688-30 30-30zm0 0" fill="#4c4a40"/><path d="m497 389.5h-482c-8.285156 0-15-6.714844-15-15v-300c0-8.28125 6.714844-15 15-15h482c8.285156 0 15 6.71875 15 15v300c0 8.285156-6.714844 15-15 15zm0 0" fill="#4dc979"/><path d="m497 59.5h-241v330h241c8.285156 0 15-6.714844 15-15v-300c0-8.28125-6.714844-15-15-15zm0 0" fill="#1e9e60"/><path d="m406 224.5c0 82.84375-67.15625 150-150 150s-150-67.15625-150-150c0-82.839844 67.15625-150 150-150s150 67.160156 150 150zm0 0" fill="#787465"/><path d="m256 74.5v300c82.84375 0 150-67.15625 150-150s-67.15625-150-150-150zm0 0" fill="#696453"/><path d="m256 389.5c-90.980469 0-165-74.019531-165-165s74.019531-165 165-165 165 74.019531 165 165-74.019531 165-165 165zm0-300c-74.4375 0-135 60.5625-135 135 0 74.441406 60.5625 135 135 135s135-60.558594 135-135c0-74.4375-60.5625-135-135-135zm0 0" fill="#edeade"/><path d="m256 59.5v30c74.4375 0 135 60.5625 135 135 0 74.441406-60.5625 135-135 135v30c90.980469 0 165-74.019531 165-165s-74.019531-165-165-165zm0 0" fill="#c4c0ad"/><path d="m256 314.5c-49.625 0-90-40.371094-90-90 0-49.625 40.375-90 90-90 49.628906 0 90 40.375 90 90 0 49.628906-40.375 90-90 90zm0 0" fill="#4c4a40"/><path d="m256 134.5v180c49.628906 0 90-40.371094 90-90 0-49.625-40.375-90-90-90zm0 0" fill="#2e2c27"/><path d="m228.789062 273.253906c-3.074218 0-6.175781-.941406-8.84375-2.894531-8.421874-6.160156-14.480468-15.089844-17.0625-25.148437-2.058593-8.023438 2.777344-16.199219 10.800782-18.257813 8.027344-2.054687 16.199218 2.773437 18.257812 10.800781.859375 3.34375 2.886719 6.324219 5.714844 8.394532 6.6875 4.890624 8.140625 14.277343 3.25 20.960937-2.9375 4.015625-7.496094 6.144531-12.117188 6.144531zm0 0" fill="#b0ac9b"/></svg>