<svg height="512pt" viewBox="0 0 512 512" width="512pt" xmlns="http://www.w3.org/2000/svg"><path d="m126.738281 15.003906h370.253907v370.253906h-370.253907zm0 0" fill="#fff566"/><path d="m311.867188 15.003906h185.125v370.253906h-185.125zm0 0" fill="#ffcf2c"/><path d="m497 398.273438h-371.019531c-8.285157 0-15-6.71875-15-15v-368.273438c0-8.285156 6.714843-15 15-15h371.019531c8.285156 0 15 6.714844 15 15v368.273438c0 8.285156-6.714844 15-15 15zm-356.019531-30h341.019531v-338.273438h-341.019531zm0 0" fill="#a19d8d"/><path d="m497 0h-185.132812v30h170.132812v338.273438h-170.132812v30h185.132812c8.285156 0 15-6.71875 15-15v-368.273438c0-8.285156-6.714844-15-15-15zm0 0" fill="#696453"/><path d="m426.90625 69.574219h-92.304688c-8.285156 0-15 6.714843-15 15 0 8.285156 6.714844 15 15 15h55.972657l-128.175781 127.15625c-5.882813 5.835937-5.921876 15.332031-.085938 21.214843 2.933594 2.957032 6.789062 4.4375 10.648438 4.4375 3.820312 0 7.640624-1.449218 10.5625-4.355468l128.382812-127.355469v55.523437c0 8.285157 6.714844 15 15 15s15-6.714843 15-15v-91.621093c0-8.285157-6.714844-15-15-15zm0 0" fill="#787465"/><path d="m426.90625 69.574219h-92.304688c-8.285156 0-15 6.714843-15 15 0 8.285156 6.714844 15 15 15h55.972657l-78.710938 78.082031v42.257812l100.042969-99.246093v55.527343c0 8.28125 6.714844 15 15 15s15-6.71875 15-15v-91.621093c0-8.285157-6.714844-15-15-15zm0 0" fill="#4c4a40"/><g fill="#ff6e57"><path d="m223.285156 330.257812c-8.285156 0-15-6.71875-15-15v-10h-10c-8.285156 0-15-6.71875-15-15 0-8.285156 6.714844-15 15-15h25c8.285156 0 15 6.714844 15 15v25c0 8.28125-6.714844 15-15 15zm0 0"/><path d="m142.421875 305.257812h-46.558594c-8.28125 0-15-6.71875-15-15 0-8.285156 6.71875-15 15-15h46.558594c8.28125 0 15 6.714844 15 15 0 8.28125-6.71875 15-15 15zm0 0"/><path d="m15 330.257812c-8.285156 0-15-6.71875-15-15v-25c0-8.285156 6.714844-15 15-15h25c8.285156 0 15 6.714844 15 15 0 8.28125-6.714844 15-15 15h-10v10c0 8.28125-6.714844 15-15 15zm0 0"/><path d="m15 431.679688c-8.285156 0-15-6.714844-15-15v-46.101563c0-8.285156 6.714844-15 15-15s15 6.714844 15 15v46.101563c0 8.285156-6.714844 15-15 15zm0 0"/><path d="m40 512h-25c-8.285156 0-15-6.714844-15-15v-25c0-8.285156 6.714844-15 15-15s15 6.714844 15 15v10h10c8.285156 0 15 6.714844 15 15s-6.714844 15-15 15zm0 0"/><path d="m142.421875 512h-46.558594c-8.28125 0-15-6.714844-15-15s6.71875-15 15-15h46.558594c8.28125 0 15 6.714844 15 15s-6.71875 15-15 15zm0 0"/><path d="m223.285156 512h-25c-8.285156 0-15-6.714844-15-15s6.714844-15 15-15h10v-10c0-8.285156 6.714844-15 15-15s15 6.714844 15 15v25c0 8.285156-6.714844 15-15 15zm0 0"/><path d="m223.285156 431.679688c-8.285156 0-15-6.714844-15-15v-46.101563c0-8.285156 6.714844-15 15-15s15 6.714844 15 15v46.101563c0 8.285156-6.714844 15-15 15zm0 0"/></g></svg>