<svg height="512pt" viewBox="0 0 512 512" width="512pt" xmlns="http://www.w3.org/2000/svg"><path d="m129.5 150h60v68.023438h-60zm0 0" fill="#a19d8d"/><path d="m159.5 150h30v68.023438h-30zm0 0" fill="#878477"/><path d="m53 15h213v135h-213zm0 0" fill="#e8ffff"/><path d="m159.5 15h106.5v135h-106.5zm0 0" fill="#a3efff"/><path d="m266 165h-213c-8.285156 0-15-6.714844-15-15v-135c0-8.285156 6.714844-15 15-15h213c8.285156 0 15 6.714844 15 15v135c0 8.285156-6.714844 15-15 15zm-198-50h183v-85h-183zm0 0" fill="#c4c0ad"/><path d="m266 0h-106.5v30h91.5v85h-91.5v50h106.5c8.285156 0 15-6.714844 15-15v-135c0-8.285156-6.714844-15-15-15zm0 0" fill="#a19d8d"/><path d="m397.996094 146.273438h-30c-7.179688 0-13.351563-5.085938-14.722656-12.132813l-9.5-48.773437c-1.582032-8.132813 3.726562-16.007813 11.859374-17.589844 8.136719-1.585938 16.007813 3.726562 17.589844 11.855468l7.132813 36.640626h5.277343l7.136719-36.640626c1.582031-8.132812 9.460938-13.433593 17.589844-11.855468 8.132813 1.582031 13.441406 9.457031 11.855469 17.589844l-9.496094 48.773437c-1.371094 7.046875-7.542969 12.132813-14.722656 12.132813zm0 0" fill="#696453"/><path d="m410.359375 67.777344c-8.128906-1.578125-16.007813 3.726562-17.589844 11.855468l-7.136719 36.640626h-2.636718v30h15c7.179687 0 13.351562-5.085938 14.722656-12.132813l9.496094-48.773437c1.585937-8.132813-3.722656-16.007813-11.855469-17.589844zm0 0" fill="#4c4a40"/><path d="m415.996094 233.019531h-66c-8.285156 0-15-6.714843-15-15v-86.746093c0-8.28125 6.714844-15 15-15h66c8.285156 0 15 6.71875 15 15v86.746093c0 8.285157-6.714844 15-15 15zm0 0" fill="#ff6e57"/><path d="m415.996094 116.273438h-33v116.746093h33c8.285156 0 15-6.714843 15-15v-86.746093c0-8.28125-6.714844-15-15-15zm0 0" fill="#f2472c"/><path d="m51 512c-8.285156 0-15-6.714844-15-15v-218.976562c0-8.285157 6.714844-15 15-15s15 6.714843 15 15v218.976562c0 8.285156-6.714844 15-15 15zm0 0" fill="#148253"/><path d="m466.992188 511.996094h-167.992188c-8.285156 0-15-6.71875-15-15v-218.972656c0-8.285157 6.714844-15 15-15h167.992188c8.285156 0 15 6.714843 15 15v218.972656c0 8.28125-6.714844 15-15 15zm0 0" fill="#148253"/><path d="m466.992188 263.023438h-83.996094v248.972656h83.996094c8.285156 0 15-6.71875 15-15v-218.972656c0-8.285157-6.714844-15-15-15zm0 0" fill="#227351"/><path d="m284 346.015625h197.992188v30h-197.992188zm0 0" fill="#1f6048"/><path d="m284 429.007812h197.992188v30h-197.992188zm0 0" fill="#1f6048"/><path d="m382.996094 429.007812h98.996094v30h-98.996094zm0 0" fill="#004b4b"/><path d="m382.996094 346.015625h98.996094v30h-98.996094zm0 0" fill="#004b4b"/><path d="m497 293.023438h-482c-8.285156 0-15-6.71875-15-15v-60.003907c0-8.28125 6.714844-15 15-15h482c8.285156 0 15 6.71875 15 15v60.003907c0 8.285156-6.714844 15-15 15zm0 0" fill="#21b572"/><path d="m497 203.019531h-114.003906v90.003907h114.003906c8.285156 0 15-6.71875 15-15v-60.003907c0-8.28125-6.714844-15-15-15zm0 0" fill="#1e9e60"/></svg>