<svg height="512pt" viewBox="-30 0 512 512.001" width="512pt" xmlns="http://www.w3.org/2000/svg"><path d="m382.53125 198.816406c-5.484375 0-10.527344-2.992187-13.160156-7.804687l-17.097656-31.261719-31.261719-17.097656c-4.8125-2.628906-7.804688-7.675782-7.804688-13.160156 0-5.484376 2.992188-10.527344 7.804688-13.160157l31.261719-17.097656 17.097656-31.261719c2.632812-4.808594 7.679687-7.800781 13.160156-7.800781 5.484375 0 10.53125 2.992187 13.160156 7.800781l17.097656 31.261719 31.261719 17.097656c4.8125 2.632813 7.804688 7.679688 7.804688 13.160157 0 5.484374-2.992188 10.53125-7.804688 13.160156l-31.261719 17.097656-17.097656 31.261719c-2.628906 4.8125-7.675781 7.804687-13.160156 7.804687zm0 0" fill="#ffe645"/><path d="m352.273438 159.75 17.097656 31.261719c2.632812 4.8125 7.675781 7.800781 13.160156 7.800781s10.53125-2.992188 13.160156-7.800781l17.097656-31.261719 31.261719-17.097656c4.8125-2.632813 7.804688-7.679688 7.804688-13.160156 0-5.484376-2.992188-10.53125-7.804688-13.164063l-31.261719-17.097656zm0 0" fill="#ffc12e"/><path d="m381.21875 370.738281c-5.480469 0-10.53125-2.992187-13.160156-7.800781l-8.5-15.539062-15.539063-8.5c-4.808593-2.628907-7.800781-7.675782-7.800781-13.160157s2.992188-10.527343 7.800781-13.160156l15.539063-8.5 8.5-15.535156c2.628906-4.8125 7.679687-7.804688 13.160156-7.804688 5.484375 0 10.53125 2.992188 13.160156 7.804688l8.5 15.539062 15.535156 8.496094c4.8125 2.632813 7.804688 7.679687 7.804688 13.160156 0 5.484375-2.992188 10.53125-7.804688 13.164063l-15.535156 8.496094-8.5 15.539062c-2.628906 4.808594-7.675781 7.800781-13.160156 7.800781zm0 0" fill="#ffc12e"/><path d="m182.4375 170.601562c-5.480469 0-10.527344-2.992187-13.160156-7.800781l-22.746094-41.589843-41.589844-22.746094c-4.8125-2.632813-7.804687-7.679688-7.804687-13.164063 0-5.480469 2.992187-10.527343 7.804687-13.160156l41.589844-22.746094 22.746094-41.589843c2.632812-4.8125 7.679687-7.804688 13.160156-7.804688 5.484375 0 10.53125 2.992188 13.160156 7.804688l22.746094 41.589843 41.59375 22.746094c4.808594 2.632813 7.800781 7.679687 7.800781 13.160156 0 5.484375-2.992187 10.53125-7.800781 13.160157l-41.59375 22.75-22.746094 41.589843c-2.628906 4.808594-7.675781 7.800781-13.160156 7.800781zm0 0" fill="#ffe645"/><path d="m71.667969 512c-11.523438 0-23.046875-4.386719-31.820313-13.160156l-26.667968-26.667969c-8.496094-8.5-13.179688-19.800781-13.179688-31.820313 0-12.019531 4.683594-23.320312 13.179688-31.816406l227.300781-227.300781c8.496093-8.496094 19.796875-13.179687 31.816406-13.179687 12.023437 0 23.320313 4.683593 31.820313 13.179687l26.667968 26.667969c8.5 8.5 13.183594 19.800781 13.183594 31.820312 0 12.019532-4.683594 23.320313-13.183594 31.820313l-227.296875 227.296875c-8.773437 8.773437-20.296875 13.160156-31.820312 13.160156zm0 0" fill="#ff8e7a"/><path d="m330.785156 271.542969c8.5-8.496094 13.183594-19.796875 13.183594-31.820313 0-12.019531-4.683594-23.320312-13.183594-31.816406l-13.332031-13.335938-290.9375 290.9375 13.332031 13.335938c8.773438 8.769531 20.296875 13.15625 31.820313 13.15625 11.523437 0 23.046875-4.386719 31.820312-13.15625zm0 0" fill="#ff5c42"/><path d="m303.121094 299.210938 27.664062-27.667969c8.5-8.496094 13.183594-19.796875 13.183594-31.820313 0-12.019531-4.683594-23.320312-13.183594-31.816406l-26.667968-26.667969c-8.5-8.5-19.800782-13.183593-31.820313-13.183593s-23.320313 4.683593-31.816406 13.183593l-27.667969 27.664063zm0 0" fill="#878477"/><path d="m303.121094 299.210938 27.664062-27.667969c8.5-8.496094 13.183594-19.796875 13.183594-31.820313 0-12.019531-4.683594-23.320312-13.183594-31.816406l-13.332031-13.335938-59.488281 59.488282zm0 0" fill="#4c4a40"/></svg>