<svg height="512pt" viewBox="0 -21 512 512" width="512pt" xmlns="http://www.w3.org/2000/svg"><path d="m166.003906 455.574219v-62.164063h179.996094v62.164063zm0 0" fill="#878477"/><path d="m256.011719 393.410156h89.988281v62.164063h-89.988281zm0 0" fill="#696453"/><path d="m371 470.574219h-229.996094c-8.28125 0-15-6.71875-15-15 0-8.285157 6.71875-15 15-15h229.996094c8.285156 0 15 6.714843 15 15 0 8.28125-6.714844 15-15 15zm0 0" fill="#b0ac9b"/><path d="m371 440.574219h-114.988281v30h114.988281c8.285156 0 15-6.71875 15-15 0-8.285157-6.714844-15-15-15zm0 0" fill="#878477"/><path d="m511.992188 302.507812v-262.507812c0-22.089844-17.910157-40-40-40h-431.992188c-22.089844 0-40 17.910156-40 40v277.507812c0 .054688.0078125.109376.0078125.164063v50.894531c0 22.089844 17.9101565 40 39.9999995 40h431.992188c22.089844 0 40-17.910156 40-40v-66.058594zm0 0" fill="#b0ac9b"/><path d="m511.992188 40c0-22.089844-17.910157-40-40-40h-215.980469v408.566406h215.988281c22.089844 0 39.996094-17.910156 39.996094-40zm0 0" fill="#878477"/><g fill="#4c4a40"><path d="m437 357.507812c-8.28125 0-15 6.714844-15 15v36.058594h30v-36.058594c0-8.285156-6.714844-15-15-15zm0 0"/><path d="m377.003906 357.507812c-8.285156 0-15 6.714844-15 15v36.058594h29.996094v-36.058594c0-8.285156-6.714844-15-14.996094-15zm0 0"/><path d="m317.003906 357.507812c-8.285156 0-15 6.714844-15 15v36.058594h30v-36.058594c0-8.285156-6.71875-15-15-15zm0 0"/></g><path d="m471.992188 317.507812h-431.984376c-5.523437 0-10-4.476562-10-10v-267.507812c0-5.523438 4.476563-10 10-10h431.984376c5.523437 0 10 4.476562 10 10v267.507812c0 5.523438-4.476563 10-10 10zm0 0" fill="#d1f7ff"/><path d="m471.992188 30h-215.980469v287.507812h215.980469c5.523437 0 10-4.476562 10-10v-267.507812c0-5.523438-4.476563-10-10-10zm0 0" fill="#a3efff"/><path d="m294.078125 317.507812v-64.679687c0-8.285156 6.714844-15 14.996094-15h55.222656c8.285156 0 15 6.714844 15 15v64.679687zm0 0" fill="#ff8b6e"/><path d="m364.296875 237.828125h-27.609375v79.679687h42.609375v-64.679687c0-8.285156-6.714844-15-15-15zm0 0" fill="#ff3d4a"/><path d="m294.085938 257.761719h85.207031c5.546875-8.707031 16.707031-29.859375 16.707031-59.140625 0-20.300782-10.515625-36.570313-20.6875-52.304688-9.628906-14.894531-18.722656-28.960937-18.722656-45.71875 0-6.332031-3.976563-11.984375-9.9375-14.121094-5.960938-2.136718-12.625-.300781-16.648438 4.59375-5.472656 6.652344-53.4375 66.277344-51.914062 110.09375.648437 18.453126 4.097656 34.234376 10.257812 46.90625 1.96875 4.046876 3.957032 7.230469 5.738282 9.691407zm0 0" fill="#ffe645"/><path d="m356.589844 100.597656c0-6.332031-3.976563-11.980468-9.9375-14.117187-3.296875-1.183594-6.804688-1.144531-9.964844-.050781v171.332031h42.605469c5.546875-8.707031 16.707031-29.859375 16.707031-59.140625 0-20.300782-10.515625-36.570313-20.6875-52.304688-9.628906-14.894531-18.722656-28.960937-18.722656-45.71875zm0 0" fill="#ffc12e"/><path d="m109.980469 317.507812v-114.921874c0-8.28125 6.714843-14.996094 15-14.996094h90c8.28125 0 14.996093 6.714844 14.996093 14.996094v114.921874zm0 0" fill="#ffc12e"/><path d="m214.980469 187.589844h-44.332031v129.917968h59.328124v-114.921874c0-8.28125-6.714843-14.996094-14.996093-14.996094zm0 0" fill="#ffb500"/><path d="m111.300781 196.4375 45.667969-101.550781c2.421875-5.386719 7.78125-8.847657 13.679688-8.847657h.082031c5.9375.03125 11.292969 3.558594 13.667969 9l44.328124 101.546876zm0 0" fill="#ffe9d6"/><path d="m170.730469 86.039062c-.027344 0-.054688 0-.082031 0v110.472657l58.078124.074219-44.332031-101.546876c-2.371093-5.441406-7.730469-8.964843-13.664062-9zm0 0" fill="#ffd5b8"/><path d="m141.285156 129.765625 15.726563-34.972656c2.445312-5.335938 7.777343-8.753907 13.636719-8.753907h.136718c5.914063.054688 11.246094 3.578126 13.613282 9l15.265624 34.96875zm0 0" fill="#696453"/><path d="m199.660156 130.007812-15.265625-34.96875c-2.363281-5.421874-7.695312-8.945312-13.609375-9-.046875 0-.09375 0-.136718 0v43.847657zm0 0" fill="#424038"/></svg>