<svg height="511pt" viewBox="-63 0 511 511.99992" width="511pt" xmlns="http://www.w3.org/2000/svg"><path d="m256.46875 139.53125c-8.285156 0-15-6.714844-15-14.996094v-41.757812c0-18.660156-10.007812-36.101563-26.117188-45.519532-19.796874-11.574218-43.5625-8.902343-60.546874 6.808594l-31.898438 29.5c-12.019531 11.117188-26.972656 17.898438-43.253906 19.613282-16.277344 1.710937-32.316406-1.800782-46.386719-10.167969-10.296875-6.121094-23.816406-17.222657-30.894531-30.03125-4.003906-7.25-1.371094-16.375 5.878906-20.382813 7.25-4.003906 16.375-1.371094 20.378906 5.878906 3.28125 5.9375 11.675782 13.824219 19.964844 18.753907 17.128906 10.183593 39.3125 7.847656 53.945312-5.6875l31.898438-29.5c26.898438-24.875 64.601562-29.070313 96.054688-10.683594 25.273437 14.777344 40.972656 42.144531 40.972656 71.417969v41.753906c0 8.285156-6.714844 15-14.996094 15zm0 0" fill="#d6d3c5"/><path d="m256.46875 139.53125c8.285156 0 15-6.714844 15-14.996094v-41.757812c0-17.183594-5.417969-33.707032-15-47.414063zm0 0" fill="#c4c0ad"/><path d="m256.742188 512h-.542969c-71.121094 0-128.980469-57.859375-128.980469-128.976562v-144.511719c0-71.117188 57.859375-128.976563 128.980469-128.976563h.542969c71.117187 0 128.976562 57.859375 128.976562 128.976563v144.511719c0 71.117187-57.859375 128.976562-128.976562 128.976562zm0 0" fill="#d6d3c5"/><path d="m127.21875 252.40625v130.617188c0 71.117187 57.859375 128.976562 128.980469 128.976562h.542969c71.117187 0 128.976562-57.859375 128.976562-128.976562v-130.617188zm0 0" fill="#4dc979"/><path d="m256.742188 109.535156h-.277344v402.464844h.277344c71.117187 0 128.976562-57.859375 128.976562-128.976562v-144.511719c0-71.117188-57.859375-128.976563-128.976562-128.976563zm0 0" fill="#c4c0ad"/><path d="m256.46875 252.40625v259.59375h.273438c71.117187 0 128.976562-57.859375 128.976562-128.976562v-130.617188zm0 0" fill="#1e9e60"/><path d="m385.71875 238.511719c0-.433594-.011719-.867188-.015625-1.300781h-82.664063v-5.121094c0-20.324219-13.257812-37.597656-31.570312-43.664063v-78.046875c-4.835938-.550781-9.746094-.84375-14.726562-.84375h-.542969c-4.980469 0-9.894531.292969-14.726563.84375v78.046875c-18.316406 6.066407-31.574218 23.339844-31.574218 43.664063v5.121094h-82.660157c-.003906.433593-.015625.867187-.015625 1.300781v28.695312h85.921875c6.757813 17.003907 23.367188 29.066407 42.75 29.066407h1.148438c19.382812 0 35.992187-12.0625 42.753906-29.066407h85.917969v-28.695312zm0 0" fill="#a19d8d"/><path d="m303.039062 237.210938v-5.121094c0-20.324219-13.257812-37.597656-31.570312-43.664063v-78.046875c-4.835938-.550781-9.75-.84375-14.726562-.84375h-.277344v186.734375h.578125c19.382812 0 35.992187-12.058593 42.753906-29.0625h85.917969v-28.695312c0-.4375-.011719-.867188-.015625-1.304688h-82.660157zm0 0" fill="#787465"/><path d="m273.039062 250.277344c0 8.820312-7.175781 15.996094-15.996093 15.996094h-1.148438c-8.820312 0-15.996093-7.175782-15.996093-15.996094v-18.1875c0-8.820313 7.175781-15.996094 15.996093-15.996094h1.148438c8.820312 0 15.996093 7.175781 15.996093 15.996094zm0 0" fill="#d6d3c5"/><path d="m257.042969 216.09375h-.578125v50.179688h.578125c8.820312 0 15.996093-7.175782 15.996093-15.996094v-18.1875c0-8.820313-7.175781-15.996094-15.996093-15.996094zm0 0" fill="#c4c0ad"/></svg>