<svg height="512pt" viewBox="-66 0 512 512.00199" width="512pt" xmlns="http://www.w3.org/2000/svg"><path d="m66.535156 172.792969c-8.285156 0-15-6.714844-15-15 0-18.527344 5.445313-28.542969 9.824219-36.589844 3.585937-6.597656 6.175781-11.363281 6.175781-22.261719 0-10.902344-2.589844-15.667968-6.175781-22.265625-4.378906-8.046875-9.824219-18.0625-9.824219-36.589843 0-14.832032 3.535156-24.058594 6.617188-30.441407 3.597656-7.460937 12.566406-10.59375 20.023437-6.992187 7.460938 3.597656 10.59375 12.566406 6.992188 20.027344-2.179688 4.519531-3.632813 9.210937-3.632813 17.40625 0 10.898437 2.589844 15.664062 6.175782 22.261718 4.378906 8.050782 9.824218 18.066406 9.824218 36.59375s-5.445312 28.542969-9.824218 36.589844c-3.585938 6.597656-6.175782 11.363281-6.175782 22.261719 0 8.285156-6.714844 15-15 15zm0 0" fill="#a3efff"/><path d="m146.535156 172.792969c-8.285156 0-15-6.714844-15-15 0-18.527344 5.445313-28.542969 9.820313-36.589844 3.585937-6.597656 6.179687-11.363281 6.179687-22.261719 0-10.902344-2.59375-15.667968-6.179687-22.265625-4.375-8.046875-9.820313-18.0625-9.820313-36.589843 0-15.285157 3.691406-24.671876 7.300782-31.832032 3.730468-7.398437 12.75-10.371094 20.144531-6.644531 7.398437 3.726563 10.371093 12.746094 6.644531 20.144531-2.070312 4.109375-4.089844 8.90625-4.089844 18.332032 0 10.898437 2.59375 15.664062 6.179688 22.261718 4.375 8.046875 9.820312 18.066406 9.820312 36.59375s-5.445312 28.542969-9.820312 36.589844c-3.585938 6.597656-6.179688 11.363281-6.179688 22.261719 0 8.285156-6.714844 15-15 15zm0 0" fill="#a3efff"/><path d="m161.535156 40.085938c0-9.425782 2.019532-14.222657 4.089844-18.328126 3.730469-7.398437.753906-16.417968-6.644531-20.148437-4.367188-2.199219-9.289063-2.046875-13.367188-.046875v84.125c1.199219 3.496094 1.921875 7.527344 1.921875 13.253906 0 5.726563-.722656 9.757813-1.921875 13.25v60.554688c.308594.019531.609375.046875.921875.046875 8.28125 0 15-6.714844 15-15 0-10.898438 2.589844-15.664063 6.175782-22.261719 4.378906-8.046875 9.824218-18.0625 9.824218-36.589844s-5.445312-28.546875-9.824218-36.59375c-3.585938-6.597656-6.175782-11.363281-6.175782-22.261718zm0 0" fill="#6ad9eb"/><path d="m226.535156 172.792969c-8.285156 0-15-6.714844-15-15 0-18.527344 5.445313-28.542969 9.820313-36.589844 3.585937-6.597656 6.179687-11.363281 6.179687-22.261719 0-10.902344-2.59375-15.667968-6.179687-22.265625-4.375-8.046875-9.820313-18.0625-9.820313-36.589843 0-15.289063 3.691406-24.671876 7.300782-31.835938 3.730468-7.398438 12.753906-10.371094 20.148437-6.640625s10.371094 12.75 6.640625 20.144531c-2.070312 4.109375-4.089844 8.902344-4.089844 18.332032 0 10.898437 2.589844 15.664062 6.175782 22.261718 4.378906 8.046875 9.824218 18.066406 9.824218 36.59375s-5.445312 28.542969-9.824218 36.589844c-3.585938 6.597656-6.175782 11.363281-6.175782 22.261719 0 8.285156-6.714844 15-15 15zm0 0" fill="#6ad9eb"/><path d="m325.144531 222.738281h-33.917969v-64.941406c0-8.285156-6.714843-15-15-15h-261.226562c-8.28125 0-15 6.714844-15 15v299.207031c0 30.324219 24.675781 55 55 55h181.226562c30.328126 0 55-24.675781 55-55v-47.628906h33.917969c30.328125 0 55-24.671875 55-55v-76.636719c0-30.328125-24.671875-55-55-55zm25 131.636719c0 13.785156-11.214843 25-25 25h-33.917969v-126.636719h33.917969c13.785157 0 25 11.214844 25 25zm0 0" fill="#ffe645"/><path d="m325.144531 222.738281h-33.917969v-64.941406c0-8.285156-6.714843-15-15-15h-130.613281v369.207031h90.613281c30.328126 0 55-24.675781 55-55v-47.628906h33.917969c30.328125 0 55-24.671875 55-55v-76.636719c0-30.328125-24.671875-55-55-55zm25 131.636719c0 13.785156-11.214843 25-25 25h-33.917969v-126.636719h33.917969c13.785157 0 25 11.214844 25 25zm0 0" fill="#ffcf2c"/><path d="m85.613281 142.792969v160.144531c0 8.28125 6.71875 15 15 15 8.285157 0 15-6.71875 15-15v-160.144531zm0 0" fill="#ffff95"/><path d="m130.613281 409.375h-60c-8.28125 0-15-6.714844-15-15v-89.78125c0-8.285156 6.71875-15 15-15h60c8.285157 0 15 6.714844 15 15v89.78125c0 8.285156-6.714843 15-15 15zm0 0" fill="#ff9300"/></svg>