<svg height="512pt" viewBox="0 0 512 512" width="512pt" xmlns="http://www.w3.org/2000/svg"><g fill="#dffbfb"><path d="m512 266.261719c0 49.667969-40.410156 90.078125-90.078125 90.078125-49.671875 0-90.082031-40.410156-90.082031-90.078125 0-49.683594 40.410156-90.089844 90.082031-90.089844 49.667969 0 90.078125 40.40625 90.078125 90.089844zm0 0"/><path d="m272.609375 243.261719c0 32.328125-26.300781 58.628906-58.621094 58.628906-32.316406 0-58.617187-26.300781-58.617187-58.628906 0-32.320313 26.300781-58.621094 58.617187-58.621094 32.320313 0 58.621094 26.300781 58.621094 58.621094zm0 0"/><path d="m512 72.238281c0 39.710938-32.308594 72.023438-72.019531 72.023438-39.710938 0-72.019531-32.3125-72.019531-72.023438 0-39.71875 32.308593-72.027343 72.019531-72.027343 39.710937 0 72.019531 32.308593 72.019531 72.027343zm0 0"/><path d="m180.269531 90.089844c0 49.671875-40.410156 90.089844-90.078125 90.089844-49.671875 0-90.082031-40.417969-90.082031-90.089844 0-49.679688 40.410156-90.089844 90.082031-90.089844 49.667969 0 90.078125 40.410156 90.078125 90.089844zm0 0"/><path d="m331.230469 101.871094c0 32.320312-26.300781 58.617187-58.621094 58.617187-32.328125 0-58.621094-26.296875-58.621094-58.617187 0-32.332032 26.292969-58.632813 58.621094-58.632813 32.320313 0 58.621094 26.300781 58.621094 58.632813zm0 0"/><path d="m144.039062 381.351562c0 39.707032-32.308593 72.019532-72.019531 72.019532-39.710937 0-72.019531-32.3125-72.019531-72.019532 0-39.722656 32.308594-72.03125 72.019531-72.03125 39.710938 0 72.019531 32.308594 72.019531 72.03125zm0 0"/><path d="m357.691406 421.910156c0 49.679688-40.410156 90.089844-90.082031 90.089844-49.667969 0-90.078125-40.410156-90.078125-90.089844 0-49.671875 40.410156-90.089844 90.078125-90.089844 49.671875 0 90.082031 40.417969 90.082031 90.089844zm0 0"/></g><path d="m357.691406 421.910156c0 49.679688-40.410156 90.089844-90.082031 90.089844v-180.179688c49.671875 0 90.082031 40.417969 90.082031 90.089844zm0 0" fill="#4bf9ff"/><path d="m512 266.261719c0 49.667969-40.410156 90.078125-90.078125 90.078125v-180.167969c49.667969 0 90.078125 40.40625 90.078125 90.089844zm0 0" fill="#4bf9ff"/><path d="m512 72.238281c0 39.710938-32.308594 72.023438-72.019531 72.023438v-144.050781c39.710937 0 72.019531 32.308593 72.019531 72.027343zm0 0" fill="#4bf9ff"/><path d="m331.230469 101.871094c0 32.320312-26.300781 58.617187-58.621094 58.617187v-117.25c32.320313 0 58.621094 26.300781 58.621094 58.632813zm0 0" fill="#4bf9ff"/><path d="m272.609375 243.261719c0 32.328125-26.300781 58.628906-58.621094 58.628906v-117.25c32.320313 0 58.621094 26.300781 58.621094 58.621094zm0 0" fill="#4bf9ff"/><path d="m144.039062 381.351562c0 39.707032-32.308593 72.019532-72.019531 72.019532v-144.050782c39.710938 0 72.019531 32.308594 72.019531 72.03125zm0 0" fill="#4bf9ff"/><path d="m180.269531 90.089844c0 49.671875-40.410156 90.089844-90.078125 90.089844v-180.179688c49.667969 0 90.078125 40.410156 90.078125 90.089844zm0 0" fill="#4bf9ff"/></svg>