<svg height="512pt" viewBox="-116 0 512 512" width="512pt" xmlns="http://www.w3.org/2000/svg"><path d="m187.921875 47.789062v35.871094h-95.84375v-35.871094c0-26.347656 21.441406-47.789062 47.792969-47.789062h.257812c26.351563 0 47.792969 21.441406 47.792969 47.789062zm0 0" fill="#1765af"/><path d="m187.921875 83.660156h-47.921875v-83.660156h.128906c26.351563 0 47.792969 21.441406 47.792969 47.789062zm0 0" fill="#113a59"/><path d="m225.171875 87.898438v46.203124h-170.34375v-46.203124c0-10.617188 8.613281-19.238282 19.242187-19.238282h131.859376c10.628906 0 19.242187 8.621094 19.242187 19.238282zm0 0" fill="#4bf9ff"/><path d="m225.171875 134.101562h-85.171875v-65.441406h65.929688c10.628906 0 19.242187 8.621094 19.242187 19.238282zm0 0" fill="#10def4"/><path d="m280 214.160156-10 101.390625 10 101.390625v61.417969c0 18.550781-15.089844 33.640625-33.640625 33.640625h-212.71875c-18.550781 0-33.640625-15.089844-33.640625-33.640625v-61.417969l10-101.390625-10-101.390625v-61.421875c0-18.546875 15.089844-33.636719 33.640625-33.636719h212.71875c18.550781 0 33.640625 15.089844 33.640625 33.636719zm0 0" fill="#fff4f4"/><path d="m280 214.160156-10 101.390625 10 101.390625v61.417969c0 18.550781-15.089844 33.640625-33.640625 33.640625h-106.359375v-392.898438h106.359375c18.550781 0 33.640625 15.089844 33.640625 33.636719zm0 0" fill="#e7dfde"/><path d="m0 214.160156h280v202.78125h-280zm0 0" fill="#ff4e30"/><path d="m140 214.160156h140v202.78125h-140zm0 0" fill="#ff2916"/><path d="m183.070312 338.480469c5.859376 5.859375 5.859376 15.347656 0 21.210937-2.929687 2.929688-6.769531 4.386719-10.601562 4.386719-3.839844 0-7.679688-1.457031-10.609375-4.386719l-21.859375-21.863281-21.859375 21.863281c-2.929687 2.929688-6.769531 4.386719-10.609375 4.386719s-7.671875-1.457031-10.601562-4.386719c-5.859376-5.863281-5.859376-15.351562 0-21.210937l21.859374-21.859375-21.859374-21.859375c-5.859376-5.863281-5.859376-15.363281 0-21.222657 5.851562-5.847656 15.351562-5.847656 21.210937 0l21.859375 21.859376 21.859375-21.859376c5.859375-5.847656 15.359375-5.847656 21.210937 0 5.859376 5.859376 5.859376 15.359376 0 21.222657l-21.859374 21.859375zm0 0" fill="#fff"/><path d="m183.070312 338.480469c5.859376 5.859375 5.859376 15.347656 0 21.210937-2.929687 2.929688-6.769531 4.386719-10.601562 4.386719-3.839844 0-7.679688-1.457031-10.609375-4.386719l-21.859375-21.863281v-42.429687l21.859375-21.859376c5.859375-5.847656 15.359375-5.847656 21.210937 0 5.859376 5.859376 5.859376 15.359376 0 21.222657l-21.859374 21.859375zm0 0" fill="#dffbfb"/></svg>