<svg height="512pt" viewBox="0 0 512 512" width="512pt" xmlns="http://www.w3.org/2000/svg"><path d="m491.800781 81.03125-33.820312 106.617188h-403.960938l-33.820312-106.617188 235.800781-40.511719zm0 0" fill="#fff4f4"/><path d="m491.800781 81.03125-33.820312 106.617188h-201.980469v-147.128907zm0 0" fill="#f7efe9"/><path d="m512 202.671875c0 24.816406-20.191406 45.019531-45 45.019531h-103.710938c-4.828124 30.277344-30.828124 53.597656-62.289062 54.238282v165.050781c0 24.828125-20.191406 45.019531-45 45.019531s-45-20.191406-45-45.019531v-165.050781c-31.460938-.640626-57.460938-23.960938-62.289062-54.238282h-103.710938c-24.808594 0-45-20.203125-45-45.019531 0-24.820313 20.191406-45.023437 45-45.023437h422c24.808594 0 45 20.203124 45 45.023437zm0 0" fill="#ffc7de"/><path d="m495.621094 68.980469-3.820313 12.050781h-471.601562l-3.820313-12.050781c-5.160156-16.28125-2.339844-33.519531 7.75-47.308594 10.082032-13.773437 25.652344-21.671875 42.722656-21.671875h378.296876c17.070312 0 32.640624 7.898438 42.722656 21.671875 10.089844 13.789063 12.910156 31.027344 7.75 47.308594zm0 0" fill="#f7efe9"/><path d="m491.800781 81.03125h-235.800781v-81.03125h189.148438c17.070312 0 32.640624 7.898438 42.722656 21.671875 10.089844 13.789063 12.910156 31.027344 7.75 47.308594zm0 0" fill="#e7dfde"/><path d="m512 202.671875c0 24.816406-20.191406 45.019531-45 45.019531h-103.710938c-4.828124 30.277344-30.828124 53.597656-62.289062 54.238282v165.050781c0 24.828125-20.191406 45.019531-45 45.019531v-354.351562h211c24.808594 0 45 20.203124 45 45.023437zm0 0" fill="#ff92aa"/></svg>