<svg height="512pt" viewBox="0 -55 512 512" width="512pt" xmlns="http://www.w3.org/2000/svg"><path d="m408.039062 194.570312h-104.039062c-18.199219 0-33-14.75-33-32.878906h-.269531c0-1 .691406-1.890625 1.597656-2.082031 38.132813-7.949219 65.132813-41.96875 64.210937-80.898437-.488281-20.71875-8.917968-40.269532-23.730468-55.039063-14.796875-14.761719-34.378906-23.160156-55.136719-23.6523438-.5625-.0078124-1.113281-.0195312-1.671875-.0195312-21.390625-.0585938-41.5 8.058594-56.800781 23.011719-15.667969 15.296875-24.289063 35.777343-24.289063 57.648437 0 8.28125 6.710938 15 15 15 8.28125 0 15-6.71875 15-15 0-13.730468 5.410156-26.578125 15.25-36.179687 9.648438-9.429688 22.339844-14.550781 35.839844-14.480469.320312 0 .640625 0 .96875.011719 13.019531.308593 25.332031 5.597656 34.660156 14.898437 9.3125 9.289063 14.609375 21.550782 14.921875 34.511719.578125 24.449219-16.390625 45.828125-40.339843 50.820313-3.691407.769531-7.132813 2.179687-10.210938 4.078124-9.238281 5.730469-15.269531 16.011719-15.269531 27.371094 0 9.070313-3.699219 17.289063-9.671875 23.238282-5.980469 5.949218-14.230469 9.640624-23.328125 9.640624h-103.769531c-57.332032 0-103.960938 46.519532-103.960938 103.710938 0 57.1875 46.628906 103.71875 103.960938 103.71875h304.078124c57.332032 0 103.960938-46.53125 103.960938-103.71875 0-57.191406-46.628906-103.710938-103.960938-103.710938zm0 177.429688h-304.078124c-40.78125 0-73.960938-33.070312-73.960938-73.71875 0-40.652344 33.179688-73.710938 73.960938-73.710938h103.769531c19.28125 0 36.570312-8.691406 48.140625-22.359374.039062.050781.089844.097656.128906.148437 11.558594 13.582031 28.789062 22.210937 48 22.210937h104.039062c40.78125 0 73.960938 33.058594 73.960938 73.710938 0 40.648438-33.179688 73.71875-73.960938 73.71875zm0 0" fill="#1765af"/><path d="m512 298.28125c0 57.1875-46.628906 103.71875-103.960938 103.71875h-152.039062v-30h152.039062c40.78125 0 73.960938-33.070312 73.960938-73.71875 0-40.652344-33.179688-73.710938-73.960938-73.710938h-104.039062c-19.210938 0-36.441406-8.628906-48-22.210937v-68.039063c3.078125-1.898437 6.519531-3.308593 10.210938-4.078124 23.949218-4.992188 40.917968-26.371094 40.339843-50.820313-.3125-12.960937-5.609375-25.222656-14.921875-34.511719-9.328125-9.300781-21.640625-14.589844-34.660156-14.898437-.328125-.011719-.648438-.011719-.96875-.011719v-30c.558594 0 1.109375.0117188 1.671875.0195312 20.757813.4921878 40.339844 8.8906248 55.136719 23.6523438 14.8125 14.769531 23.242187 34.320313 23.730468 55.039063.921876 38.929687-26.078124 72.949218-64.210937 80.898437-.90625.191406-1.597656 1.082031-1.597656 2.082031h.269531c0 18.128906 14.800781 32.878906 33 32.878906h104.039062c57.332032 0 103.960938 46.519532 103.960938 103.710938zm0 0" fill="#113a59"/></svg>