<svg height="512pt" viewBox="0 0 512 512" width="512pt" xmlns="http://www.w3.org/2000/svg"><path d="m512 58.800781v105.609375c0 20.050782-16.320312 36.371094-36.371094 36.371094h-19.628906c-8.28125 0-15-6.710938-15-15 0-8.28125 6.71875-15 15-15h19.628906c3.511719 0 6.371094-2.859375 6.371094-6.371094v-105.609375c0-15.878906-12.921875-28.800781-28.789062-28.800781h-394.421876c-15.867187 0-28.789062 12.921875-28.789062 28.800781v105.609375c0 3.511719 2.859375 6.371094 6.371094 6.371094h19.628906c8.28125 0 15 6.71875 15 15 0 8.289062-6.71875 15-15 15h-19.628906c-20.050782 0-36.371094-16.320312-36.371094-36.371094v-105.609375c0-32.421875 26.371094-58.800781 58.789062-58.800781h394.421876c32.417968 0 58.789062 26.378906 58.789062 58.800781zm0 0" fill="#1765af"/><path d="m512 58.800781v105.609375c0 20.050782-16.320312 36.371094-36.371094 36.371094h-19.628906c-8.28125 0-15-6.710938-15-15 0-8.28125 6.71875-15 15-15h19.628906c3.511719 0 6.371094-2.859375 6.371094-6.371094v-105.609375c0-15.878906-12.921875-28.800781-28.789062-28.800781h-197.210938v-30h197.210938c32.417968 0 58.789062 26.378906 58.789062 58.800781zm0 0" fill="#113a59"/><path d="m424.5 260.800781v140.269531l-10 14.996094 10 15.003906v57.5c0 8.5-5.058594 16.128907-12.890625 19.429688-2.660156 1.121094-5.449219 1.660156-8.210937 1.660156-5.386719 0-10.679688-2.070312-14.699219-5.988281l-30.257813-29.5c-.300781-.292969-.769531-.292969-1.070312-.011719l-31.839844 29.371094c-12.230469 11.277344-31.5625 10.699219-43.082031-1.3125l-26.140625-27.25c-.039063-.039062-.136719-.140625-.308594-.199219-.070312-.019531-.148438-.039062-.25-.039062-.328125.03125-.488281.167969-.550781.230469l-28.121094 28.007812c-11.707031 11.652344-30.398437 12.03125-42.558594.851562l-32.007812-29.429687c-.300781-.289063-.78125-.28125-1.082031.03125l-31.121094 31.816406c-3.679688 3.761719-8.609375 5.761719-13.648438 5.761719-2.429687 0-4.890625-.460938-7.25-1.421875-7.230468-2.949219-11.910156-9.90625-11.910156-17.71875v-61.789063l10-15.003906-10-14.996094v-140.269531zm0 0" fill="#fff4f4"/><path d="m424.5 260.800781v140.269531l-10 15 10 15v57.5c0 8.5-5.058594 16.128907-12.890625 19.429688-2.660156 1.121094-5.449219 1.660156-8.210937 1.660156-5.386719 0-10.679688-2.070312-14.699219-5.988281l-30.257813-29.5c-.300781-.292969-.769531-.292969-1.070312-.011719l-31.839844 29.371094c-12.230469 11.277344-31.5625 10.699219-43.082031-1.3125l-26.140625-27.25c-.039063-.039062-.136719-.140625-.308594-.199219v-213.96875zm0 0" fill="#f7efe9"/><path d="m142.5 416.070312c0 8.28125-6.710938 15-15 15h-40v-30h40c8.289062 0 15 6.710938 15 15zm0 0" fill="#4bf9ff"/><path d="m230.300781 401.066406h-51.398437c-8.285156 0-15 6.71875-15 15 0 8.285156 6.714844 15 15 15h51.398437c8.285157 0 15-6.714844 15-15 0-8.28125-6.714843-15-15-15zm0 0" fill="#4bf9ff"/><path d="m333.097656 401.066406h-51.398437c-8.285157 0-15 6.71875-15 15 0 8.285156 6.714843 15 15 15h51.398437c8.285156 0 15-6.714844 15-15 0-8.28125-6.714844-15-15-15zm0 0" fill="#10def4"/><path d="m424.5 401.070312v30h-40c-8.289062 0-15-6.71875-15-15 0-8.289062 6.710938-15 15-15zm0 0" fill="#10def4"/><path d="m471 119.160156v133.25c0 21.167969-17.21875 38.390625-38.390625 38.390625h-353.21875c-21.171875 0-38.390625-17.222656-38.390625-38.390625v-133.25c0-21.171875 17.21875-38.390625 38.390625-38.390625h353.21875c21.171875 0 38.390625 17.21875 38.390625 38.390625zm0 0" fill="#f7efe9"/><path d="m471 119.160156v133.25c0 21.167969-17.21875 38.390625-38.390625 38.390625h-176.609375v-210.03125h176.609375c21.171875 0 38.390625 17.21875 38.390625 38.390625zm0 0" fill="#e7dfde"/></svg>