<svg height="512pt" viewBox="-53 0 511 512" width="512pt" xmlns="http://www.w3.org/2000/svg"><path d="m286.375 34.070312c-22.457031 0-40.722656 18.269532-40.722656 40.726563v57.1875c0 22.453125 18.265625 40.722656 40.722656 40.722656h51.183594v-138.636719zm0 0" fill="#ffef75"/><path d="m405.5 49.070312v424.191407c0 21.359375-17.351562 38.738281-38.671875 38.738281-3.570313 0-7.019531-.488281-10.296875-1.398438-16.34375-4.53125-28.363281-19.550781-28.363281-37.339843v-233.660157c0-9.230468-2.699219-18.160156-7.796875-25.832031-8.382813-12.609375-12.8125-27.289062-12.8125-42.441406v-122.257813c0-27.058593 21.972656-49.070312 48.972656-49.070312s48.96875 22.011719 48.96875 49.070312zm0 0" fill="#ff4e30"/><path d="m148.199219 21.890625v67.390625h-75.621094v-67.390625c0-12.089844 9.796875-21.890625 21.886719-21.890625h31.839844c12.09375 0 21.894531 9.800781 21.894531 21.890625zm0 0" fill="#1765af"/><path d="m148.199219 89.28125h-37.8125v-89.28125h15.921875c12.089844 0 21.890625 9.800781 21.890625 21.890625zm0 0" fill="#113a59"/><path d="m220.277344 478.570312c0 18.429688-15.039063 33.429688-33.511719 33.429688h-152.757813c-9.261718 0-18.191406-3.871094-24.511718-10.628906-6.328125-6.769532-9.5781252-15.960938-8.910156-25.199219l4.550781-62.832031 17.179687-99.25-2.820312-99.261719 7.929687-109.527344c1.261719-17.390625 15.941407-31.019531 33.421875-31.019531h99.039063c8.742187 0 16.78125 3.410156 22.800781 8.988281 6.011719 5.582031 9.988281 13.332031 10.621094 22.03125l7.929687 109.527344-2.820312 99.261719 17.1875 99.25 4.433593 61.238281c.160157 1.320313.238282 2.660156.238282 3.992187zm0 0" fill="#fff4f4"/><path d="m220.277344 478.570312c0 18.429688-15.039063 33.429688-33.511719 33.429688h-76.378906v-437.71875h49.5c8.738281 0 16.78125 3.410156 22.800781 8.988281 6.007812 5.582031 9.988281 13.332031 10.617188 22.03125l7.933593 109.527344-2.820312 99.261719 17.1875 99.25 4.429687 61.238281c.164063 1.320313.242188 2.660156.242188 3.992187zm0 0" fill="#e7dfde"/><path d="m215.605469 413.339844h-210.46875l14.359375-198.511719h181.742187zm0 0" fill="#ff4e30"/><g fill="#ff2916"><path d="m215.605469 413.339844h-105.21875v-198.511719h90.851562zm0 0"/><path d="m405.5 49.070312v424.191407c0 21.359375-17.351562 38.738281-38.671875 38.738281-3.570313 0-7.019531-.488281-10.296875-1.398438v-510.601562c27 0 48.96875 22.011719 48.96875 49.070312zm0 0"/></g></svg>