<svg height="512pt" viewBox="-55 0 512 512" width="512pt" xmlns="http://www.w3.org/2000/svg"><path d="m201 0c-38.230469 0-69.320312 31.089844-69.320312 69.300781v179.769531h138.640624v-179.769531c0-38.210937-31.089843-69.300781-69.320312-69.300781zm15 87.039062c0 8.28125-6.71875 15-15 15s-15-6.71875-15-15v-19.140624c0-8.277344 6.71875-15 15-15s15 6.722656 15 15zm0 0" fill="#1765af"/><path d="m270.320312 69.300781v179.769531h-69.320312v-147.03125c8.28125 0 15-6.71875 15-15v-19.140624c0-8.277344-6.71875-15-15-15v-52.898438c38.230469 0 69.320312 31.089844 69.320312 69.300781zm0 0" fill="#113a59"/><path d="m393.882812 502.238281c-5.75 6.203125-13.898437 9.761719-22.351562 9.761719h-341.0625c-8.453125 0-16.601562-3.558594-22.351562-9.761719-5.75-6.199219-8.671876-14.589843-8.0312505-23.019531l13.6406245-179.199219c1.679688-22.089843 11.550782-42.539062 27.808594-57.597656 16.25-15.0625 37.402344-23.351563 59.5625-23.351563h199.804688c22.160156 0 43.308594 8.289063 59.558594 23.351563 16.261718 15.058594 26.132812 35.507813 27.8125 57.597656l13.636718 179.210938c.644532 8.417969-2.277344 16.808593-8.027344 23.007812zm0 0" fill="#fff4f4"/><path d="m393.882812 502.238281c-5.75 6.203125-13.898437 9.761719-22.351562 9.761719h-170.53125v-292.929688h99.902344c22.160156 0 43.308594 8.289063 59.558594 23.351563 16.261718 15.058594 26.132812 35.507813 27.8125 57.597656l13.640624 179.210938c.640626 8.417969-2.28125 16.808593-8.03125 23.007812zm0 0" fill="#e7dfde"/><path d="m325.222656 456.679688c-.339844.019531-.671875.03125-1 .03125-7.839844 0-14.429687-6.082032-14.949218-14.019532l-8.851563-134.691406c-.128906-2.039062-1.839844-3.640625-3.890625-3.640625h-191.0625c-2.050781 0-3.761719 1.601563-3.890625 3.640625l-8.851563 134.691406c-.539062 8.269532-7.679687 14.527344-15.949218 13.988282-8.257813-.539063-14.53125-7.691407-13.980469-15.949219l8.839844-134.699219c1.171875-17.761719 16.03125-31.671875 33.832031-31.671875h191.0625c17.800781 0 32.660156 13.910156 33.832031 31.671875l8.839844 134.699219c.546875 8.257812-5.722656 15.410156-13.980469 15.949219zm0 0" fill="#e7dfde"/><path d="m325.222656 456.679688c-.339844.019531-.671875.03125-1 .03125-7.839844 0-14.429687-6.082032-14.949218-14.019532l-8.851563-134.691406c-.128906-2.039062-1.839844-3.640625-3.890625-3.640625h-95.53125v-30h95.53125c17.800781 0 32.660156 13.910156 33.832031 31.671875l8.839844 134.699219c.546875 8.257812-5.722656 15.410156-13.980469 15.949219zm0 0" fill="#d9cec9"/></svg>