<svg height="512pt" viewBox="0 -80 512.00031 512" width="512pt" xmlns="http://www.w3.org/2000/svg"><path d="m510.640625 182.648438-40.519531-153.089844c-4.652344-17.546875-20.339844-29.558594-38.410156-29.558594-.390626 0-.789063.0117188-1.179688.0195312-70.441406 2.0195308-132.871094 14.9414068-185.882812 38.4296878-5.179688 2.289062-10.269532 4.691406-15.257813 7.179687-45.390625 22.679688-83.332031 53.609375-112.761719 91.929688-50.25 65.421875-58.117187 129.3125-58.429687 131.992187l-1.929688 16.730469h381.070313l3.050781-11c6.4375-23.222656 28.597656-36.710938 46.058594-43.941406 19.050781-7.890625 29.449219-28.820313 24.191406-48.691406zm-85.921875-21.738282c-14.019531 17.671875-35.007812 27.800782-57.578125 27.800782h-123.78125c-10.160156 0-19.257813-5.652344-23.769531-14.742188-4.480469-9.046875-3.46875-19.660156 2.648437-27.699219 5.863281-7.6875 13.371094-16.75 22.410157-26.070312 11.972656-12.359375 26.640624-25.179688 43.710937-35.867188 37.3125-23.363281 76.03125-30.5625 115.082031-21.410156 17.949219 4.207031 30.386719 17.488281 35.027344 37.378906 4.953125 21.257813-.058594 43.359375-13.75 60.609375zm0 0" fill="#ff4e30"/><path d="m486.449219 231.339844c-17.460938 7.230468-39.621094 20.71875-46.058594 43.941406l-3.050781 11h-192.691406v-97.570312h122.492187c22.570313 0 43.558594-10.128907 57.578125-27.800782 13.691406-17.25 18.703125-39.351562 13.75-60.609375-4.640625-19.890625-17.078125-33.171875-35.027344-37.378906-39.050781-9.152344-77.769531-1.953125-115.082031 21.410156-17.070313 10.6875-31.738281 23.507813-43.710937 35.867188v-81.75c53.011718-23.488281 115.441406-36.410157 185.882812-38.4296878.390625-.0078124.789062-.0195312 1.179688-.0195312 18.070312 0 33.757812 12.011719 38.410156 29.558594l40.519531 153.089844c5.257813 19.871093-5.140625 40.800781-24.191406 48.691406zm0 0" fill="#ff2916"/><path d="m489.308594 309.140625c0 23.628906-19.230469 42.859375-42.859375 42.859375h-424.640625c-12.027344 0-21.808594-9.78125-21.808594-21.808594v-21.050781c0-23.640625 19.230469-42.859375 42.859375-42.859375h403.589844c23.628906 0 42.859375 19.21875 42.859375 42.859375zm0 0" fill="#fff4f4"/><path d="m169.957031 212.757812h-30.527343c-8.285157 0-15 6.714844-15 15 0 8.285157 6.714843 15 15 15h30.527343c8.285157 0 15-6.714843 15-15 0-8.285156-6.714843-15-15-15zm0 0" fill="#ffc7de"/><path d="m265.46875 227.761719c0 8.277343-6.71875 15-15 15h-30.527344c-8.28125 0-15-6.722657-15-15 0-8.292969 6.71875-15 15-15h30.527344c8.28125 0 15 6.707031 15 15zm0 0" fill="#ffc7de"/><path d="m331.0625 212.757812h-30.523438c-8.285156 0-15 6.714844-15 15 0 8.285157 6.714844 15 15 15h30.523438c8.285156 0 15-6.714843 15-15 0-8.285156-6.714844-15-15-15zm0 0" fill="#ff92aa"/><path d="m489.308594 309.140625c0 23.628906-19.230469 42.859375-42.859375 42.859375h-201.800781v-85.71875h201.800781c23.628906 0 42.859375 19.21875 42.859375 42.859375zm0 0" fill="#e7dfde"/><path d="m265.46875 227.761719c0 8.277343-6.71875 15-15 15h-5.820312v-30h5.820312c8.28125 0 15 6.707031 15 15zm0 0" fill="#ff92aa"/></svg>