<svg height="512pt" viewBox="-11 0 512 512" width="512pt" xmlns="http://www.w3.org/2000/svg"><path d="m319.90625 86.519531c0 63.660157-29.472656 110.28125-39.683594 124.519531l-35.359375 40-35.351562-40c-10.210938-14.238281-39.6875-60.859374-39.6875-124.519531 0-43.597656 20.121093-64.941406 36.992187-75.167969 17.886719-10.839843 35.453125-11.3320308 37.394532-11.351562h.3125c.078124 0 .199218 0 .339843.0117188 3.152344.0664062 20.148438.9687502 37.460938 11.2773432 17.144531 10.222657 37.582031 31.570313 37.582031 75.230469zm0 0" fill="#fff4f4"/><path d="m319.90625 86.519531c0 63.660157-29.472656 110.28125-39.683594 124.519531l-35.359375 40v-251.0273432c3.152344.0664062 20.148438.9687502 37.460938 11.2773432 17.144531 10.222657 37.582031 31.570313 37.582031 75.230469zm0 0" fill="#e7dfde"/><path d="m280.222656 211.039062v276.160157c0 13.679687-11.191406 24.800781-24.941406 24.800781h-20.839844c-13.742187 0-24.929687-11.121094-24.929687-24.800781v-276.160157zm0 0" fill="#ffef75"/><path d="m280.222656 211.039062v276.160157c0 13.679687-11.191406 24.800781-24.941406 24.800781h-10.417969v-300.960938zm0 0" fill="#ffd92c"/><path d="m150.082031 86.519531c0 63.660157-29.476562 110.28125-39.6875 124.519531l-35.359375 40-35.351562-40c-10.207032-14.238281-39.683594-60.859374-39.683594-124.519531 0-43.597656 20.117188-64.941406 36.992188-75.167969 17.886718-10.839843 35.449218-11.3320308 37.394531-11.351562h.308593c.078126 0 .199219 0 .339844.0117188 3.152344.0664062 20.148438.9687502 37.460938 11.2773432 17.148437 10.222657 37.585937 31.570313 37.585937 75.230469zm0 0" fill="#fff4f4"/><path d="m150.082031 86.519531c0 63.660157-29.476562 110.28125-39.6875 124.519531l-35.359375 40v-251.0273432c3.152344.0664062 20.148438.9687502 37.460938 11.2773432 17.148437 10.222657 37.585937 31.570313 37.585937 75.230469zm0 0" fill="#e7dfde"/><path d="m110.398438 211.039062v276.160157c0 13.679687-11.191407 24.800781-24.945313 24.800781h-20.835937c-13.742188 0-24.933594-11.121094-24.933594-24.800781v-276.160157zm0 0" fill="#ffef75"/><path d="m110.398438 211.039062v276.160157c0 13.679687-11.191407 24.800781-24.945313 24.800781h-10.417969v-300.960938zm0 0" fill="#ffd92c"/><path d="m490 86.519531c0 63.660157-29.476562 110.28125-39.683594 124.519531l-35.363281 40-35.351563-40c-10.207031-14.238281-39.683593-60.859374-39.683593-124.519531 0-43.597656 20.117187-64.941406 36.992187-75.167969 17.886719-10.839843 35.453125-11.3320308 37.394532-11.351562h.308593c.082031 0 .199219 0 .339844.0117188 3.152344.0664062 20.148437.9687502 37.464844 11.2773432 17.144531 10.222657 37.582031 31.570313 37.582031 75.230469zm0 0" fill="#fff4f4"/><path d="m490 86.519531c0 63.660157-29.476562 110.28125-39.683594 124.519531l-35.363281 40v-251.0273432c3.152344.0664062 20.148437.9687502 37.464844 11.2773432 17.144531 10.222657 37.582031 31.570313 37.582031 75.230469zm0 0" fill="#e7dfde"/><path d="m450.316406 211.039062v276.160157c0 13.679687-11.191406 24.800781-24.945312 24.800781h-20.835938c-13.742187 0-24.933594-11.121094-24.933594-24.800781v-276.160157zm0 0" fill="#ffef75"/><path d="m450.316406 211.039062v276.160157c0 13.679687-11.191406 24.800781-24.945312 24.800781h-10.417969v-300.960938zm0 0" fill="#ffd92c"/></svg>