<svg height="512pt" viewBox="0 -65 512 512" width="512pt" xmlns="http://www.w3.org/2000/svg"><path d="m443.019531 39.925781c0 22.015625-17.941406 39.917969-40 39.917969h-258.410156v59.058594h-80v-74.933594c0-35.273438 28.761719-63.96875 64.121094-63.96875h274.289062c22.058594 0 40 17.914062 40 39.925781zm0 0" fill="#ffef75"/><path d="m475.929688 158.90625v191.191406c0 3.769532-1.710938 7.339844-4.648438 9.703125l-24.160156 19.429688c-4.582032 3.691406-11.121094 3.691406-15.699219 0l-28.800781-23.171875v-.480469l-.261719.480469-28.800781 23.171875c-4.578125 3.691406-11.117188 3.691406-15.699219 0l-28.808594-23.171875-28.800781 23.171875c-4.578125 3.691406-11.121094 3.691406-15.699219 0l-28.550781-23.074219-28.808594 23.074219c-4.582031 3.691406-11.113281 3.691406-15.691406 0l-28.808594-23.171875-28.8125 23.171875c-4.578125 3.691406-11.109375 3.691406-15.6875 0l-28.8125-23.171875-28.800781 23.171875c-4.578125 3.691406-11.117187 3.691406-15.699219 0l-24.160156-19.429688c-2.9375-2.363281-4.648438-5.933593-4.648438-9.703125v-191.191406zm0 0" fill="#fff4f4"/><path d="m475.929688 158.90625v191.191406c0 3.769532-1.710938 7.339844-4.648438 9.703125l-24.160156 19.429688c-4.582032 3.691406-11.121094 3.691406-15.699219 0l-28.800781-23.171875v-.480469l-.261719.480469-28.800781 23.171875c-4.578125 3.691406-11.117188 3.691406-15.699219 0l-28.808594-23.171875-28.800781 23.171875c-4.578125 3.691406-11.121094 3.691406-15.699219 0l-28.550781-23.074219v-197.25zm0 0" fill="#e7dfde"/><path d="m512 150.984375v37.226563c0 11.410156-9.289062 20.703124-20.699219 20.703124h-470.601562c-11.410157 0-20.699219-9.292968-20.699219-20.703124v-37.226563c0-23.203125 18.878906-42.085937 42.078125-42.085937h427.84375c23.199219 0 42.078125 18.882812 42.078125 42.085937zm0 0" fill="#1765af"/><path d="m403.019531 79.84375h-147.019531v-79.84375h147.019531c22.058594 0 40 17.914062 40 39.925781 0 22.015625-17.941406 39.917969-40 39.917969zm0 0" fill="#ffd92c"/><path d="m512 150.984375v37.226563c0 11.410156-9.289062 20.703124-20.699219 20.703124h-235.300781v-100.015624h213.921875c23.199219 0 42.078125 18.882812 42.078125 42.085937zm0 0" fill="#113a59"/></svg>