<svg height="512pt" viewBox="-70 0 512 512" width="512pt" xmlns="http://www.w3.org/2000/svg"><path d="m372 497c0 8.28125-6.710938 15-15 15h-237.558594c-8.289062 0-15-6.71875-15-15s6.710938-15 15-15h237.558594c8.289062 0 15 6.71875 15 15zm0 0" fill="#d2f9f9"/><path d="m104.441406 30h151.425782c6.609374 0 11.988281 5.40625 11.988281 12.054688v17.015624c0 8.285157 6.71875 15 15 15 8.285156 0 15-6.714843 15-15v-17.015624c0-23.1875-18.835938-42.054688-41.988281-42.054688h-151.425782c-8.28125 0-15 6.714844-15 15s6.71875 15 15 15zm0 0" fill="#d2f9f9"/><path d="m352.050781 113.398438h-138.390625c0-38.226563 31.039063-69.328126 69.199219-69.328126 38.148437 0 69.191406 31.101563 69.191406 69.328126zm0 0" fill="#4bf9ff"/><path d="m352.050781 113.398438h-69.191406v-69.328126c38.148437 0 69.191406 31.101563 69.191406 69.328126zm0 0" fill="#10def4"/><path d="m372 113.398438c0 8.28125-6.710938 15-15 15h-148.289062c-8.28125 0-15-6.71875-15-15 0-8.289063 6.71875-15 15-15h148.289062c8.289062 0 15 6.710937 15 15zm0 0" fill="#1765af"/><path d="m154.378906 345.273438h-49.9375c-8.28125 0-15 6.714843-15 15 0 8.285156 6.71875 15 15 15h49.9375c8.28125 0 15-6.714844 15-15 0-8.285157-6.71875-15-15-15zm0 0" fill="#60e15b"/><path d="m154.378906 197.34375c-8.285156 0-15 6.714844-15 15v3.527344h-34.933594c-8.285156 0-15 6.714844-15 15s6.714844 15 15 15h34.933594v3.527344c0 8.285156 6.714844 15 15 15 8.28125 0 15-6.714844 15-15v-37.054688c0-8.285156-6.71875-15-15-15zm0 0" fill="#60e15b"/><path d="m238.089844 153.300781c-8.28125 0-15 6.714844-15 15v31.351563c0 8.285156 6.71875 15 15 15 8.285156 0 15-6.714844 15-15v-31.351563c.003906-8.285156-6.714844-15-15-15zm0 0" fill="#d2f9f9"/><path d="m297.859375 168.300781v31.347657c0 8.292968-6.71875 15-15 15-8.289063 0-15-6.707032-15-15v-31.347657c0-8.28125 6.710937-15 15-15 8.28125 0 15 6.71875 15 15zm0 0" fill="#d2f9f9"/><path d="m327.621094 153.300781c-8.28125 0-15 6.714844-15 15v31.351563c0 8.285156 6.71875 15 15 15 8.285156 0 15-6.714844 15-15v-31.351563c0-8.285156-6.714844-15-15-15zm0 0" fill="#4bf9ff"/><path d="m238.089844 234.984375c-8.28125 0-15 6.714844-15 15v31.351563c0 8.285156 6.71875 15 15 15 8.285156 0 15-6.714844 15-15v-31.351563c.003906-8.285156-6.714844-15-15-15zm0 0" fill="#d2f9f9"/><path d="m297.859375 249.980469v31.359375c0 8.28125-6.71875 15-15 15-8.289063 0-15-6.71875-15-15v-31.359375c0-8.28125 6.710937-15 15-15 8.28125 0 15 6.71875 15 15zm0 0" fill="#d2f9f9"/><path d="m327.621094 234.984375c-8.28125 0-15 6.714844-15 15v31.351563c0 8.285156 6.71875 15 15 15 8.285156 0 15-6.714844 15-15v-31.351563c0-8.285156-6.714844-15-15-15zm0 0" fill="#4bf9ff"/><path d="m238.089844 316.574219c-8.28125 0-15 6.714843-15 15v31.351562c0 8.285157 6.71875 15 15 15 8.285156 0 15-6.714843 15-15v-31.351562c.003906-8.285157-6.714844-15-15-15zm0 0" fill="#d2f9f9"/><path d="m297.859375 331.570312v31.359376c0 8.28125-6.71875 15-15 15-8.289063 0-15-6.71875-15-15v-31.359376c0-8.28125 6.710937-15 15-15 8.28125 0 15 6.71875 15 15zm0 0" fill="#d2f9f9"/><path d="m327.621094 316.574219c-8.28125 0-15 6.714843-15 15v31.351562c0 8.285157 6.71875 15 15 15 8.285156 0 15-6.714843 15-15v-31.351562c0-8.285157-6.714844-15-15-15zm0 0" fill="#4bf9ff"/><path d="m238.089844 398.386719c-8.28125 0-15 6.714843-15 15v31.351562c0 8.285157 6.71875 15 15 15 8.285156 0 15-6.714843 15-15v-31.351562c.003906-8.285157-6.714844-15-15-15zm0 0" fill="#d2f9f9"/><path d="m297.859375 413.378906v31.359375c0 8.28125-6.71875 15-15 15-8.289063 0-15-6.71875-15-15v-31.359375c0-8.277344 6.710937-15 15-15 8.28125 0 15 6.722656 15 15zm0 0" fill="#d2f9f9"/><path d="m327.621094 398.386719c-8.28125 0-15 6.714843-15 15v31.351562c0 8.285157 6.71875 15 15 15 8.285156 0 15-6.714843 15-15v-31.351562c0-8.285157-6.714844-15-15-15zm0 0" fill="#4bf9ff"/><path d="m70.953125 0c-22.621094 0-41.023437 18.433594-41.023437 41.089844v174.890625c0 1.285156-.480469 2.511719-1.355469 3.449219l-19.167969 20.570312c-6.066406 6.511719-9.40625 14.996094-9.40625 23.898438v200.835937c0 26.0625 21.167969 47.265625 47.1875 47.265625h72.253906v-512zm0 0" fill="#10def4"/><g fill="#4bf9ff"><path d="m282.859375 214.648438v-61.347657c8.28125 0 15 6.71875 15 15v31.347657c0 8.292968-6.71875 15-15 15zm0 0"/><path d="m282.859375 296.339844v-61.359375c8.28125 0 15 6.71875 15 15v31.359375c0 8.28125-6.71875 15-15 15zm0 0"/><path d="m282.859375 377.929688v-61.359376c8.28125 0 15 6.71875 15 15v31.359376c0 8.28125-6.71875 15-15 15zm0 0"/><path d="m282.859375 459.738281v-61.359375c8.28125 0 15 6.722656 15 15v31.359375c0 8.28125-6.71875 15-15 15zm0 0"/><path d="m372 497c0 8.28125-6.710938 15-15 15h-74.140625v-30h74.140625c8.289062 0 15 6.71875 15 15zm0 0"/></g><path d="m357 128.398438h-74.140625v-30h74.140625c8.289062 0 15 6.710937 15 15 0 8.28125-6.710938 15-15 15zm0 0" fill="#113a59"/></svg>