<svg height="512pt" viewBox="0 -46 512 512" width="512pt" xmlns="http://www.w3.org/2000/svg"><path d="m147.636719 320.859375-73.171875 73.5625c-5.84375 5.875-5.820313 15.371094.054687 21.210937 2.925781 2.914063 6.75 4.367188 10.578125 4.367188 3.851563 0 7.703125-1.476562 10.632813-4.421875l73.175781-73.5625c5.84375-5.875 5.816406-15.371094-.054688-21.214844-5.875-5.839843-15.371093-5.816406-21.214843.058594zm0 0" fill="#1765af"/><path d="m437.535156 394.421875-73.175781-73.5625c-5.839844-5.875-15.339844-5.898437-21.210937-.058594-5.875 5.84375-5.898438 15.339844-.058594 21.214844l73.175781 73.5625c2.933594 2.945313 6.785156 4.421875 10.636719 4.421875 3.824218 0 7.652344-1.457031 10.578125-4.367188 5.875-5.839843 5.898437-15.335937.054687-21.210937zm0 0" fill="#113a59"/><path d="m512 112.71875-20 60.5 20 59.5v49.339844c0 35.5-28.878906 64.382812-64.371094 64.382812h-383.257812c-35.492188 0-64.371094-28.882812-64.371094-64.382812v-49.339844l20-59.5-20-60.5v-48.347656c0-35.492188 28.878906-64.371094 64.371094-64.371094h383.257812c35.492188 0 64.371094 28.878906 64.371094 64.371094zm0 0" fill="#ffef75"/><path d="m512 112.71875-20 60.5 20 59.5v49.339844c0 35.5-28.878906 64.382812-64.371094 64.382812h-191.628906v-346.441406h191.628906c35.492188 0 64.371094 28.878906 64.371094 64.371094zm0 0" fill="#ffd92c"/><path d="m0 112.71875h512v120h-512zm0 0" fill="#ffd92c"/><path d="m256 112.71875h256v120h-256zm0 0" fill="#fc0"/><g fill="#1765af"><path d="m283.050781 173.21875c0 8.28125-6.722656 15-15 15h-24.101562c-8.277344 0-15-6.71875-15-15 0-8.289062 6.722656-15 15-15h24.101562c8.277344 0 15 6.710938 15 15zm0 0"/><path d="m283.050781 56.300781c0 8.277344-6.722656 15-15 15h-24.101562c-8.277344 0-15-6.722656-15-15 0-8.289062 6.722656-15 15-15h24.101562c8.277344 0 15 6.710938 15 15zm0 0"/><path d="m283.050781 289.140625c0 8.28125-6.722656 15-15 15h-24.101562c-8.277344 0-15-6.71875-15-15s6.722656-15 15-15h24.101562c8.277344 0 15 6.71875 15 15zm0 0"/></g><path d="m283.050781 289.140625c0 8.28125-6.722656 15-15 15h-12.050781v-30h12.050781c8.277344 0 15 6.71875 15 15zm0 0" fill="#113a59"/><path d="m268.050781 71.300781h-12.050781v-30h12.050781c8.277344 0 15 6.710938 15 15 0 8.277344-6.722656 15-15 15zm0 0" fill="#113a59"/><path d="m283.050781 173.21875c0 8.28125-6.722656 15-15 15h-12.050781v-30h12.050781c8.277344 0 15 6.710938 15 15zm0 0" fill="#113a59"/></svg>