<svg height="512pt" viewBox="0 -86 512.0007 512" width="512pt" xmlns="http://www.w3.org/2000/svg"><path d="m466.265625 85.449219h-216.53125l-13.398437 91.035156h229.929687c25.21875 0 45.734375-20.421875 45.734375-45.519531s-20.515625-45.515625-45.734375-45.515625zm0 0" fill="#113a59"/><path d="m251.488281 100.449219v15h-219.066406v-15c0-31.75 22.820313-58.269531 52.953125-64.078125 10.851562-22.109375 32.351562-36.371094 57.679688-36.371094 25.769531 0 49.472656 14.710938 60.109374 37.429688 28.113282 7.550781 48.324219 33.179687 48.324219 63.019531zm0 0" fill="#d2f9f9"/><path d="m251.488281 100.449219v15h-108.433593v-115.449219c25.769531 0 49.472656 14.710938 60.109374 37.429688 28.113282 7.550781 48.324219 33.179687 48.324219 63.019531zm0 0" fill="#4bf9ff"/><path d="m286.117188 85.449219-28.96875 211.011719c-3.402344 24.820312-24.960938 43.539062-50.144532 43.539062h-133.167968c-25.179688 0-46.742188-18.71875-50.140626-43.539062l-23.363281-170.179688c-1.410156-10.261719 1.691407-20.632812 8.511719-28.449219 6.859375-7.871093 16.800781-12.382812 27.269531-12.382812zm0 0" fill="#60e15b"/><path d="m286.117188 85.449219-28.96875 211.011719c-3.402344 24.820312-24.960938 43.539062-50.144532 43.539062h-63.949218v-254.550781zm0 0" fill="#00c579"/><path d="m198.535156 189.332031-55.480468 55.546875-2.210938 2.210938c-5.519531 5.53125-12.859375 8.570312-20.660156 8.570312-7.808594 0-15.140625-3.039062-20.660156-8.570312l-13.957032-13.980469c-5.863281-5.859375-5.851562-15.359375.007813-21.210937 5.859375-5.847657 15.359375-5.847657 21.21875.011718l13.390625 13.410156 22.871094-22.890624 34.261718-34.300782c5.847656-5.859375 15.347656-5.867187 21.207032-.019531 5.863281 5.859375 5.871093 15.359375.011718 21.222656zm0 0" fill="#fff"/><path d="m198.527344 168.109375c5.859375 5.859375 5.867187 15.359375.007812 21.222656l-55.480468 55.546875v-42.449218l34.261718-34.300782c5.847656-5.859375 15.347656-5.867187 21.210938-.019531zm0 0" fill="#d2f9f9"/></svg>