<svg height="512pt" viewBox="0 -86 512.0007 512" width="512pt" xmlns="http://www.w3.org/2000/svg"><path d="m466.265625 85.449219h-216.53125l-13.398437 91.035156h229.929687c25.21875 0 45.734375-20.421875 45.734375-45.519531s-20.515625-45.515625-45.734375-45.515625zm0 0" fill="#113a59"/><path d="m251.488281 100.449219v15h-219.066406v-15c0-31.75 22.820313-58.269531 52.953125-64.078125 10.851562-22.109375 32.351562-36.371094 57.679688-36.371094 25.769531 0 49.472656 14.710938 60.109374 37.429688 28.113282 7.550781 48.324219 33.179687 48.324219 63.019531zm0 0" fill="#d2f9f9"/><path d="m251.488281 100.449219v15h-108.433593v-115.449219c25.769531 0 49.472656 14.710938 60.109374 37.429688 28.113282 7.550781 48.324219 33.179687 48.324219 63.019531zm0 0" fill="#4bf9ff"/><path d="m286.117188 85.449219-28.96875 211.011719c-3.402344 24.820312-24.960938 43.539062-50.144532 43.539062h-133.167968c-25.179688 0-46.742188-18.71875-50.140626-43.539062l-23.363281-170.179688c-1.410156-10.261719 1.691407-20.632812 8.511719-28.449219 6.859375-7.871093 16.800781-12.382812 27.269531-12.382812zm0 0" fill="#ff4e30"/><path d="m286.117188 85.449219-28.96875 211.011719c-3.402344 24.820312-24.960938 43.539062-50.144532 43.539062h-63.949218v-254.550781zm0 0" fill="#ff2916"/><path d="m186.128906 234.589844c5.859375 5.859375 5.859375 15.347656 0 21.210937-2.929687 2.929688-6.769531 4.386719-10.601562 4.386719-3.839844 0-7.679688-1.457031-10.609375-4.386719l-21.859375-21.863281-21.859375 21.863281c-2.929688 2.929688-6.769531 4.386719-10.609375 4.386719s-7.671875-1.457031-10.601563-4.386719c-5.859375-5.863281-5.859375-15.351562 0-21.210937l21.859375-21.859375-21.859375-21.859375c-5.859375-5.863282-5.859375-15.363282 0-21.222656 5.851563-5.847657 15.351563-5.847657 21.210938 0l21.859375 21.859374 21.859375-21.859374c5.859375-5.847657 15.359375-5.847657 21.210937 0 5.859375 5.859374 5.859375 15.359374 0 21.222656l-21.859375 21.859375zm0 0" fill="#fff"/><path d="m186.128906 234.589844c5.859375 5.859375 5.859375 15.347656 0 21.210937-2.929687 2.929688-6.769531 4.386719-10.601562 4.386719-3.839844 0-7.679688-1.457031-10.609375-4.386719l-21.859375-21.863281v-42.429688l21.859375-21.859374c5.859375-5.847657 15.359375-5.847657 21.210937 0 5.859375 5.859374 5.859375 15.359374 0 21.222656l-21.859375 21.859375zm0 0" fill="#d2f9f9"/></svg>