<svg height="512pt" viewBox="-51 0 512 512" width="512pt" xmlns="http://www.w3.org/2000/svg"><path d="m410 122.289062v342.160157c0 26.222656-21.328125 47.550781-47.550781 47.550781h-314.910157c-26.21875 0-47.539062-21.328125-47.539062-47.550781v-342.160157l201.011719-20zm0 0" fill="#1765af"/><path d="m410 122.289062v342.160157c0 26.222656-21.328125 47.550781-47.550781 47.550781h-161.4375v-409.710938zm0 0" fill="#113a59"/><path d="m410 47.539062v74.75h-410v-74.75c0-26.21875 21.320312-47.539062 47.539062-47.539062h314.910157c26.222656 0 47.550781 21.320312 47.550781 47.539062zm0 0" fill="#d2f9f9"/><path d="m410 47.539062v74.75h-208.988281v-122.289062h161.4375c26.222656 0 47.550781 21.320312 47.550781 47.539062zm0 0" fill="#93fcff"/><path d="m205 163.929688c-1.339844 0-2.671875.019531-3.988281.058593-76.75 2.121094-138.53125 65.210938-138.53125 142.453125 0 21.199219 4.648437 41.328125 12.988281 59.429688l125.542969 19.378906 133.507812-19.378906c8.339844-18.101563 12.992188-38.230469 12.992188-59.429688 0-78.582031-63.933594-142.511718-142.511719-142.511718zm0 0" fill="#fff"/><path d="m205 163.929688c-1.339844 0-2.671875.019531-3.988281.058593v221.261719l133.507812-19.378906c8.339844-18.101563 12.992188-38.230469 12.992188-59.429688 0-78.582031-63.933594-142.511718-142.511719-142.511718zm0 0" fill="#d2f9f9"/><path d="m99.867188 48.15625h-42.195313c-8.285156 0-15 6.714844-15 15 0 8.28125 6.714844 15 15 15h42.195313c8.28125 0 15-6.71875 15-15 0-8.285156-6.71875-15-15-15zm0 0" fill="#10def4"/><g fill="#00c579"><path d="m251.011719 48.132812h-15c-8.285157 0-15 6.71875-15 15 0 8.285157 6.714843 15 15 15h15c8.28125 0 15-6.714843 15-15 0-8.28125-6.71875-15-15-15zm0 0"/><path d="m310.738281 48.15625h-15c-8.285156 0-15 6.714844-15 15 0 8.28125 6.714844 15 15 15h15c8.285157 0 15-6.71875 15-15 0-8.285156-6.714843-15-15-15zm0 0"/><path d="m370.011719 48.15625h-15c-8.285157 0-15 6.714844-15 15 0 8.28125 6.714843 15 15 15h15c8.28125 0 15-6.71875 15-15 0-8.285156-6.71875-15-15-15zm0 0"/></g><path d="m334.519531 365.871094c-22.570312 49-76.128906 83.089844-133.507812 83.089844-57.390625 0-102.972657-34.089844-125.542969-83.089844zm0 0" fill="#d2f9f9"/><path d="m334.519531 365.871094c-22.570312 49-76.128906 83.089844-133.507812 83.089844v-83.089844zm0 0" fill="#4bf9ff"/><path d="m244.078125 311.339844c5.863281 5.851562 5.863281 15.351562 0 21.210937-2.929687 2.929688-6.757813 4.390625-10.597656 4.390625-3.839844 0-7.679688-1.460937-10.609375-4.390625l-21.859375-21.859375-21.863281 21.859375c-2.929688 2.929688-6.769532 4.390625-10.609376 4.390625-3.839843 0-7.667968-1.460937-10.597656-4.390625-5.863281-5.859375-5.863281-15.359375 0-21.210937l21.859375-21.859375-21.859375-21.871094c-5.863281-5.847656-5.863281-15.347656 0-21.210937 5.847656-5.859376 15.347656-5.859376 21.207032 0l21.863281 21.863281 21.859375-21.863281c5.859375-5.859376 15.359375-5.859376 21.207031 0 5.863281 5.863281 5.863281 15.363281 0 21.210937l-21.859375 21.871094zm0 0" fill="#ff4e30"/><path d="m244.078125 311.339844c5.863281 5.851562 5.863281 15.351562 0 21.210937-2.929687 2.929688-6.757813 4.390625-10.597656 4.390625-3.839844 0-7.679688-1.460937-10.609375-4.390625l-21.859375-21.859375v-42.429687l21.859375-21.863281c5.859375-5.859376 15.359375-5.859376 21.207031 0 5.863281 5.863281 5.863281 15.363281 0 21.210937l-21.859375 21.871094zm0 0" fill="#ff2916"/></svg>