<svg height="512pt" viewBox="0 0 512 512" width="512pt" xmlns="http://www.w3.org/2000/svg"><path d="m512 368.671875c0 8.289063-6.71875 15-15 15-62.738281 0-113.789062 50.839844-113.789062 113.328125 0 8.28125-6.722657 15-15 15-8.289063 0-15-6.71875-15-15 0-62.488281-51.050782-113.328125-113.789063-113.328125-8.292969 0-15-6.710937-15-15 0-8.28125 6.707031-15 15-15 30.429687 0 59.019531-11.742187 80.5-33.0625 21.46875-21.320313 33.289063-49.710937 33.289063-79.9375 0-8.28125 6.710937-15 15-15 8.277343 0 15 6.71875 15 15 0 30.226563 11.820312 58.617187 33.289062 79.9375 21.480469 21.320313 50.058594 33.0625 80.5 33.0625 8.28125 0 15 6.71875 15 15zm0 0" fill="#4bf9ff"/><path d="m220.230469 251.390625c0 8.28125-6.710938 15-15 15-44.171875 0-80.109375 35.789063-80.109375 79.769531 0 8.289063-6.722656 15-15 15-8.292969 0-15-6.710937-15-15 0-43.980468-35.941406-79.769531-80.121094-79.769531-8.28125 0-15-6.71875-15-15 0-8.289063 6.71875-15 15-15 44.179688 0 80.121094-35.679687 80.121094-79.53125 0-8.289063 6.707031-15 15-15 8.277344 0 15 6.710937 15 15 0 43.851563 35.9375 79.53125 80.109375 79.53125 8.289062 0 15 6.710937 15 15zm0 0" fill="#d2f9f9"/><path d="m392.480469 88.46875c0 8.28125-6.710938 15-15 15-32.492188 0-58.921875 26.3125-58.921875 58.652344 0 8.289062-6.71875 15-15 15-8.289063 0-15-6.710938-15-15 0-32.242188-26.429688-58.460938-58.917969-58.460938-8.289063 0-15-6.71875-15-15 0-8.289062 6.710937-15 15-15 32.488281 0 58.917969-26.320312 58.917969-58.660156 0-8.28125 6.710937-15 15-15 8.28125 0 15 6.71875 15 15 0 32.238281 26.429687 58.46875 58.921875 58.46875 8.289062 0 15 6.710938 15 15zm0 0" fill="#d2f9f9"/><path d="m512 368.671875c0 8.289063-6.71875 15-15 15-62.738281 0-113.789062 50.839844-113.789062 113.328125 0 8.28125-6.722657 15-15 15v-286.328125c8.277343 0 15 6.71875 15 15 0 30.226563 11.820312 58.617187 33.289062 79.9375 21.480469 21.320313 50.058594 33.0625 80.5 33.0625 8.28125 0 15 6.71875 15 15zm0 0" fill="#10def4"/><g fill="#4bf9ff"><path d="m220.230469 251.390625c0 8.28125-6.710938 15-15 15-44.171875 0-80.109375 35.789063-80.109375 79.769531 0 8.289063-6.722656 15-15 15v-219.300781c8.277344 0 15 6.710937 15 15 0 43.851563 35.9375 79.53125 80.109375 79.53125 8.289062 0 15 6.710937 15 15zm0 0"/><path d="m392.480469 88.46875c0 8.28125-6.710938 15-15 15-32.492188 0-58.921875 26.3125-58.921875 58.652344 0 8.289062-6.71875 15-15 15v-177.121094c8.28125 0 15 6.71875 15 15 0 32.238281 26.429687 58.46875 58.921875 58.46875 8.289062 0 15 6.710938 15 15zm0 0"/></g></svg>