<svg height="512pt" viewBox="0 0 512 512.00001" width="512pt" xmlns="http://www.w3.org/2000/svg"><path d="m322.820312 326.789062-58.199218-58.195312 27.046875-27.046875c5.863281-5.863281 5.855469-15.359375 0-21.214844s-15.351563-5.863281-21.214844 0l-27.046875 27.046875-58.195312-58.199218c-5.855469-5.855469-15.359376-5.855469-21.214844 0-5.863282 5.863281-5.855469 15.359374 0 21.214843l58.195312 58.199219-18.921875 18.921875-58.199219-58.199219c-5.851562-5.851562-15.355468-5.851562-21.210937 0-5.855469 5.855469-5.855469 15.359375 0 21.214844l58.195313 58.199219-19.34375 19.347656-58.199219-58.199219c-5.855469-5.855468-15.359375-5.855468-21.214844 0-5.863281 5.863282-5.855469 15.359375 0 21.214844l58.199219 58.199219-20.464844 20.464843-58.203125-58.199218c-5.851563-5.855469-15.351563-5.863282-21.210937 0-5.855469 5.855468-5.855469 15.359375 0 21.214844l43.199218 43.199218-69.816406-.007812c-8.289062 0-15.0078125 6.71875-15 15 0 4.144531 1.675781 7.898437 4.390625 10.613281s6.472656 4.390625 10.609375 4.386719l69.816406.003906-40.675781 40.675781c-5.855469 5.855469-5.855469 15.359375 0 21.214844s15.359375 5.855469 21.214844 0l40.671875-40.675781.007812 69.820312c-.007812 4.136719 1.667969 7.890625 4.386719 10.605469 2.714844 2.714844 6.46875 4.390625 10.613281 4.390625 8.28125.007812 14.996094-6.710938 14.996094-15l-.003906-69.816406 43.199218 43.199218c5.855469 5.855469 15.359376 5.855469 21.214844 0 5.859375-5.859374 5.855469-15.359374 0-21.210937l-58.199218-58.199219 20.464843-20.464844 58.199219 58.195313c5.855469 5.855469 15.351562 5.863281 21.210938 0 5.855468-5.851563 5.855468-15.355469 0-21.210937l-58.195313-58.199219 19.347656-19.347657 58.195313 58.199219c5.855468 5.851563 15.359375 5.851563 21.214844 0 5.855468-5.855469 5.855468-15.359375 0-21.214843l-58.199219-58.199219 18.925781-18.921875 58.195312 58.199218c5.855469 5.851563 15.351563 5.859376 21.214844 0 5.859375-5.855468 5.859375-15.359374.003906-21.21875zm0 0" fill="#ffef75"/><path d="m203.269531 329.945312-19.347656 19.347657 58.199219 58.199219c5.855468 5.855468 5.855468 15.359374 0 21.210937-5.863282 5.863281-15.359375 5.855469-21.214844 0l-58.199219-58.195313-20.464843 20.464844 58.199218 58.199219c5.855469 5.851563 5.863282 15.351563 0 21.210937-5.855468 5.855469-15.359375 5.855469-21.214844 0l-43.199218-43.199218.007812 69.816406c0 8.289062-6.71875 15.007812-15 15-4.144531 0-7.898437-1.675781-10.613281-4.390625s-4.390625-6.46875-4.386719-10.605469l-.003906-69.820312-40.675781 40.675781c-5.855469 5.855469-15.359375 5.855469-21.214844 0l247.53125-247.527344c5.851563 5.855469 5.859375 15.351563 0 21.214844l-27.050781 27.046875 58.199218 58.195312c5.855469 5.855469 5.855469 15.359376 0 21.214844-5.863281 5.863282-15.359374 5.855469-21.214843 0l-58.199219-58.195312-18.921875 18.921875 58.199219 58.199219c5.855468 5.851562 5.855468 15.355468 0 21.210937-5.855469 5.855469-15.359375 5.855469-21.214844 0zm0 0" fill="#ffd92c"/><path d="m462.8125 49.1875-52.347656-24.066406-123.015625 123.015625 76.414062 76.414062 123.015625-123.015625zm0 0" fill="#4bf9ff"/><path d="m363.863281 224.550781-38.207031-38.207031 137.15625-137.15625 24.066406 52.347656zm0 0" fill="#10def4"/><path d="m388.074219 206.335938-82.410157-82.410157c-21.066406-21.066406-55.347656-21.066406-76.414062 0-21.066406 21.066407-21.066406 55.347657 0 76.414063l82.410156 82.410156c21.066406 21.066406 55.347656 21.066406 76.414063 0 21.066406-21.066406 21.066406-55.347656 0-76.414062zm0 0" fill="#fff4f4"/><path d="m496.195312 15.804688c-21.0625-21.066407-55.339843-21.074219-76.40625-.007813l-9.324218 9.324219 76.414062 76.414062 9.324219-9.324218c21.066406-21.066407 21.058594-55.34375-.007813-76.40625zm0 0" fill="#60e15b"/><path d="m486.878906 101.535156-38.207031-38.207031 47.523437-47.523437c21.066407 21.0625 21.074219 55.339843.007813 76.40625zm0 0" fill="#00c579"/><path d="m388.074219 282.75c-21.066407 21.066406-55.347657 21.066406-76.414063 0l-41.203125-41.203125 76.414063-76.414063 41.203125 41.203126c21.066406 21.066406 21.066406 55.347656 0 76.414062zm0 0" fill="#e7dfde"/></svg>