<svg height="512pt" viewBox="0 0 512 512" width="512pt" xmlns="http://www.w3.org/2000/svg"><path d="m271 215.238281v119.273438c0 8.289062-6.71875 15-15 15-.171875 0-.339844 0-.511719-.011719-8.046875-.269531-14.488281-6.871094-14.488281-14.988281v-119.273438h-73.359375v208.910157c0 48.441406 39.410156 87.851562 87.847656 87.851562 48.453125 0 87.863281-39.410156 87.863281-87.851562v-208.910157zm-15 248.742188h-.511719c-21.867187-.28125-39.566406-18.160157-39.566406-40.089844s17.699219-39.800781 39.566406-40.082031h.511719c22.101562 0 40.078125 17.980468 40.078125 40.082031 0 22.097656-17.976563 40.089844-40.078125 40.089844zm0 0" fill="#ffc7de"/><path d="m343.351562 215.238281v208.910157c0 48.441406-39.410156 87.851562-87.863281 87.851562v-48.019531h.511719c22.101562 0 40.078125-17.992188 40.078125-40.089844 0-22.101563-17.976563-40.082031-40.078125-40.082031h-.511719v-34.308594c.171875.011719.339844.011719.511719.011719 8.28125 0 15-6.710938 15-15v-119.273438zm0 0" fill="#ff92aa"/><path d="m512 141.53125c0 57.1875-46.640625 103.707031-103.960938 103.707031h-304.078124c-57.320313 0-103.960938-46.519531-103.960938-103.707031 0-34.050781 27.769531-61.761719 61.898438-61.761719h388.203124c34.128907 0 61.898438 27.710938 61.898438 61.761719zm0 0" fill="#1765af"/><path d="m512 141.53125c0 57.1875-46.640625 103.707031-103.960938 103.707031h-152.550781v-165.46875h194.613281c34.128907 0 61.898438 27.710938 61.898438 61.761719zm0 0" fill="#113a59"/><path d="m453.210938 48.058594v93.421875c0 26.5-21.5625 48.058593-48.0625 48.058593h-299.308594c-26.5 0-48.058594-21.558593-48.058594-48.058593v-93.421875c0-26.5 21.558594-48.058594 48.058594-48.058594h299.308594c26.5 0 48.0625 21.558594 48.0625 48.058594zm0 0" fill="#fff4f4"/><g fill="#e7dfde"><path d="m453.210938 48.058594v93.421875c0 26.5-21.5625 48.058593-48.0625 48.058593h-149.660157v-189.539062h149.660157c26.5 0 48.0625 21.558594 48.0625 48.058594zm0 0"/><path d="m203.492188 46.269531c-8.28125 0-15 6.71875-15 15v14.957031c0 8.285157 6.71875 15 15 15 8.285156 0 15-6.714843 15-15v-14.957031c0-8.285156-6.714844-15-15-15zm0 0"/><path d="m270.488281 112.121094v14.957031c0 8.292969-6.707031 15-15 15-8.277343 0-15-6.707031-15-15v-14.957031c0-8.28125 6.722657-15 15-15 8.292969 0 15 6.71875 15 15zm0 0"/></g><path d="m305.492188 50.261719c-8.28125 0-15 6.714843-15 15v14.957031c0 8.28125 6.71875 15 15 15 8.285156 0 15-6.71875 15-15v-14.957031c0-8.285157-6.714844-15-15-15zm0 0" fill="#d9cec9"/><path d="m365.492188 77.183594c-8.28125 0-15 6.714844-15 15v14.957031c0 8.285156 6.71875 15 15 15 8.285156 0 15-6.714844 15-15v-14.957031c0-8.285156-6.714844-15-15-15zm0 0" fill="#d9cec9"/><path d="m145.492188 87.152344c-8.28125 0-15 6.714844-15 15v14.957031c0 8.285156 6.71875 15 15 15 8.285156 0 15-6.714844 15-15v-14.957031c0-8.285156-6.714844-15-15-15zm0 0" fill="#e7dfde"/><path d="m270.488281 112.121094v14.957031c0 8.292969-6.707031 15-15 15v-44.957031c8.292969 0 15 6.71875 15 15zm0 0" fill="#d9cec9"/></svg>