<svg height="512pt" viewBox="-27 0 512 512" width="512pt" xmlns="http://www.w3.org/2000/svg"><path d="m312.800781 225.039062-28.789062 100.730469 10.988281 103.25-3.648438 41.851563c-2.191406 23.449218-21.621093 41.128906-45.191406 41.128906h-148.53125c-23.570312 0-43-17.679688-45.1875-41.128906l-3.652344-41.851563 10.992188-103.25-28.792969-100.730469-7.457031-85.5h296.730469zm0 0" fill="#1765af"/><path d="m312.800781 225.039062-28.789062 100.730469 10.988281 103.25-3.648438 41.851563c-2.191406 23.449218-21.621093 41.128906-45.191406 41.128906h-74.269531v-372.460938h148.371094zm0 0" fill="#113a59"/><path d="m313.898438 112.078125h-284.007813l21.5-81.65625c3.488281-17.671875 18.960937-30.421875 37.050781-30.421875h166.898438c18.089844 0 33.570312 12.75 37.050781 30.421875zm0 0" fill="#4bf9ff"/><path d="m313.898438 112.078125h-142.007813v-112.078125h83.449219c18.089844 0 33.570312 12.75 37.050781 30.421875zm0 0" fill="#10def4"/><path d="m343.78125 125.808594c0 24.113281-19.640625 43.730468-43.78125 43.730468h-256.21875c-24.140625 0-43.78125-19.617187-43.78125-43.730468 0-24.109375 19.640625-43.730469 43.78125-43.730469h256.21875c24.140625 0 43.78125 19.621094 43.78125 43.730469zm0 0" fill="#fff4f4"/><path d="m312.800781 225.039062-17.800781 203.980469h-246.210938l-17.800781-203.980469zm0 0" fill="#fff4f4"/><path d="m171.890625 225.039062h140.910156l-17.800781 203.980469h-123.109375zm0 0" fill="#e7dfde"/><path d="m458 330.769531c0 71.058594-57.890625 128.871094-129.058594 128.871094h-.160156c-71.101562-.089844-128.910156-57.859375-128.910156-128.871094 0-71.007812 57.808594-128.78125 128.910156-128.871093h.160156c71.167969 0 129.058594 57.8125 129.058594 128.871093zm0 0" fill="#60e15b"/><path d="m458 330.769531c0 71.058594-57.890625 128.871094-129.058594 128.871094h-.160156v-257.742187h.160156c71.167969 0 129.058594 57.8125 129.058594 128.871093zm0 0" fill="#00c579"/><path d="m385.328125 310.421875-56.546875 56.519531-1.242188 1.238282c-5.699218 5.691406-13.179687 8.539062-20.667968 8.539062-7.480469 0-14.972656-2.839844-20.671875-8.539062l-13.980469-13.980469c-5.859375-5.847657-5.859375-15.347657 0-21.210938 5.851562-5.859375 15.351562-5.859375 21.210938-.007812l13.441406 13.441406 21.910156-21.890625 35.347656-35.332031c5.859375-5.859375 15.351563-5.859375 21.210938 0s5.851562 15.359375-.011719 21.222656zm0 0" fill="#fff"/><path d="m343.78125 125.808594c0 24.113281-19.640625 43.730468-43.78125 43.730468h-128.109375v-87.460937h128.109375c24.140625 0 43.78125 19.621094 43.78125 43.730469zm0 0" fill="#e7dfde"/><path d="m385.328125 310.421875-56.546875 56.519531v-42.410156l35.347656-35.332031c5.859375-5.859375 15.351563-5.859375 21.210938 0s5.851562 15.359375-.011719 21.222656zm0 0" fill="#d2f9f9"/></svg>