<svg height="512pt" viewBox="0 -91 512 512" width="512pt" xmlns="http://www.w3.org/2000/svg"><path d="m512 216.429688v37.742187c0 41.808594-34.078125 75.828125-75.96875 75.828125h-360.0625c-41.890625 0-75.96875-34.019531-75.96875-75.828125v-37.742187c0-17.878907 14.570312-32.429688 32.46875-32.429688h447.0625c17.910156 0 32.46875 14.550781 32.46875 32.429688zm0 0" fill="#ffef75"/><path d="m512 216.429688v37.742187c0 41.808594-34.078125 75.828125-75.96875 75.828125h-180.03125v-146h223.53125c17.910156 0 32.46875 14.550781 32.46875 32.429688zm0 0" fill="#ffd92c"/><path d="m464.839844 116.761719v14.257812c0 10.289063-1.167969 20.308594-3.378906 29.929688l-205.460938 20-205.429688-20c-2.230468-9.621094-3.410156-19.640625-3.410156-29.929688v-14.257812c0-64.382813 58.019532-116.761719 129.339844-116.761719 30.78125 0 49.03125 9.410156 62.359375 16.28125l.160156.078125c8.941407 4.550781 13.558594 6.25 16.980469 6.25 3.429688 0 8.050781-1.699219 17.050781-6.28125l.089844-.046875c13.328125-6.871094 31.589844-16.28125 62.371094-16.28125 71.308593 0 129.328125 52.378906 129.328125 116.761719zm0 0" fill="#ffc7de"/><g fill="#ff92aa"><path d="m461.460938 160.949219-205.460938 20v-158.339844c3.429688 0 8.050781-1.699219 17.050781-6.28125l.089844-.046875c13.328125-6.871094 31.589844-16.28125 62.371094-16.28125 71.308593 0 129.328125 52.378906 129.328125 116.761719v14.257812c0 10.289063-1.167969 20.308594-3.378906 29.929688zm0 0"/><path d="m461.460938 160.949219c-13.25 57.832031-64.039063 101.3125-124.480469 101.761719h-.109375c-29.460938 0-52.730469-5.539063-80.320313-19.140626-.160156-.082031-.351562-.082031-.550781-.011718-.03125.011718-.070312.019531-.109375.042968-24.902344 12.859376-50.871094 19.109376-79.390625 19.109376h-.109375c-61.089844-.441407-112.421875-43.929688-125.820313-101.761719zm0 0"/><path d="m327.378906 82.601562c-22.117187 13.109376-46.800781 20.039063-71.378906 20.039063s-49.261719-6.929687-71.378906-20.039063c-7.121094-4.222656-9.480469-13.421874-5.261719-20.550781 4.230469-7.121093 13.429687-9.480469 20.5625-5.25 17.816406 10.558594 36.949219 15.839844 56.078125 15.839844 19.140625 0 38.269531-5.28125 56.089844-15.839844 7.128906-4.230469 16.332031-1.871093 20.550781 5.25 4.21875 7.128907 1.871094 16.328125-5.261719 20.550781zm0 0"/></g><path d="m327.378906 82.601562c-22.117187 13.109376-46.800781 20.039063-71.378906 20.039063v-30c19.140625 0 38.269531-5.28125 56.089844-15.839844 7.128906-4.230469 16.332031-1.871093 20.550781 5.25 4.21875 7.128907 1.871094 16.328125-5.261719 20.550781zm0 0" fill="#ff5996"/><path d="m461.460938 160.949219c-13.25 57.832031-64.039063 101.3125-124.480469 101.761719h-.109375c-29.460938 0-52.730469-5.539063-80.320313-19.140626-.160156-.082031-.351562-.082031-.550781-.011718v-82.609375zm0 0" fill="#ff5996"/></svg>