<svg height="512pt" viewBox="0 -15 512 512" width="512pt" xmlns="http://www.w3.org/2000/svg"><path d="m284.128906 321.320312 134.089844 84.5-15.988281 25.390626-146.230469-92.160157-.511719.320313-145.707031 91.828125-16-25.378907 134.089844-84.5-160.839844-101.359374 16-25.390626 172.457031 108.699219.511719.320313 172.96875-109.019532 16 25.390626zm0 0" fill="#d2f9f9"/><path d="m284.128906 321.320312 134.089844 84.5-15.988281 25.390626-146.230469-92.160157-.511719.320313v-36.101563l.511719.320313 172.96875-109.019532 16 25.390626zm0 0" fill="#4bf9ff"/><path d="m75.027344 388.742188c-25.703125 0-46.613282 20.917968-46.613282 46.628906 0 25.710937 20.910157 46.628906 46.613282 46.628906s46.613281-20.917969 46.613281-46.628906c0-25.710938-20.910156-46.628906-46.613281-46.628906zm0 0" fill="#1765af"/><path d="m436.96875 388.742188c-25.703125 0-46.613281 20.917968-46.613281 46.628906 0 25.710937 20.910156 46.628906 46.613281 46.628906s46.613281-20.917969 46.613281-46.628906c0-25.710938-20.910156-46.628906-46.613281-46.628906zm0 0" fill="#113a59"/><path d="m105.042969 175.636719v33.226562c0 16.585938-13.4375 30.03125-30.015625 30.03125s-30.015625-13.445312-30.015625-30.03125v-33.226562zm0 0" fill="#1765af"/><path d="m466.984375 175.636719v33.226562c0 16.585938-13.4375 30.03125-30.015625 30.03125s-30.015625-13.445312-30.015625-30.03125v-33.226562zm0 0" fill="#113a59"/><path d="m191.460938 66.609375-78.722657-20-78.71875 20c0 5.371094 1.558594 10.570313 4.519531 15.03125l32.421876 48.9375h139.578124zm0 0" fill="#1765af"/><path d="m512 145.539062c0 24.789063-20.171875 45.101563-44.960938 45.101563h-422.078124c-24.789063 0-44.960938-20.171875-44.960938-44.96875v-.132813c0-24.789062 20.171875-44.960937 44.960938-44.960937h422.078124c24.789063 0 44.960938 20.171875 44.960938 44.960937zm0 0" fill="#ffc7de"/><path d="m512 145.539062c0 24.789063-20.171875 45.101563-44.960938 45.101563h-211.550781v-90.0625h211.550781c24.789063 0 44.960938 20.171875 44.960938 44.960937zm0 0" fill="#ff92aa"/><path d="m191.460938 66.609375h-157.441407v-11.839844c0-30.199219 24.558594-54.769531 54.75-54.769531h42.019531c24.019532 0 45.601563 16.078125 52.472657 39.109375zm0 0" fill="#d2f9f9"/></svg>