<svg height="512pt" viewBox="0 -31 512 512" width="512pt" xmlns="http://www.w3.org/2000/svg"><path d="m30 55.503906c0-8.285156-6.714844-15-15-15s-15 6.714844-15 15v59.617188c0 8.285156 6.714844 15 15 15s15-6.714844 15-15v-14.808594h47.359375v-30h-47.359375zm0 0" fill="#1765af"/><path d="m497 40.503906c-8.285156 0-15 6.714844-15 15v14.808594h-46.121094v30h46.121094v14.8125c0 8.28125 6.714844 15 15 15s15-6.71875 15-15v-59.621094c0-8.285156-6.714844-15-15-15zm0 0" fill="#113a59"/><path d="m450.878906 145.480469-20 79.519531 20 79.519531v97.25c0 26.601563-21.640625 48.230469-48.230468 48.230469h-293.539063c-26.589844 0-48.230469-21.628906-48.230469-48.230469v-97.25l20-79.519531-20-79.519531v-97.25c0-26.601563 21.640625-48.230469 48.230469-48.230469h293.539063c26.589843 0 48.230468 21.628906 48.230468 48.230469zm0 0" fill="#ffef75"/><path d="m450.878906 145.480469-20 79.519531 20 79.519531v97.25c0 26.601563-21.640625 48.230469-48.230468 48.230469h-146.769532v-450h146.769532c26.589843 0 48.230468 21.628906 48.230468 48.230469zm0 0" fill="#ffd92c"/><path d="m60.878906 145.480469h390v159.039062h-390zm0 0" fill="#ffd92c"/><path d="m255.878906 145.480469h195v159.039062h-195zm0 0" fill="#fc0"/></svg>