<svg height="512pt" viewBox="0 -18 512 512" width="512pt" xmlns="http://www.w3.org/2000/svg"><path d="m23.511719 160.421875 47.386719 299.601563h370.203124l47.386719-299.601563zm297.878906 119.628906h-131.929687c-16.589844 0-30.039063-13.429687-30.039063-29.992187 0-8.277344 3.359375-15.773438 8.796875-21.195313 5.441406-5.429687 12.941406-8.785156 21.242188-8.785156h131.929687c16.578125 0 30.03125 13.429687 30.03125 29.980469 0 16.5625-13.453125 29.992187-30.03125 29.992187zm0 0" fill="#ffc7de"/><g fill="#ff92aa"><path d="m488.488281 160.421875-47.386719 299.601563h-185.730468v-179.972657h66.019531c16.578125 0 30.03125-13.429687 30.03125-29.992187 0-16.550782-13.453125-29.980469-30.03125-29.980469h-66.019531v-59.65625zm0 0"/><path d="m464.609375 460.023438c0 8.265624-6.710937 14.976562-15 14.976562h-387.21875c-8.289063 0-15-6.710938-15-14.976562 0-8.277344 6.710937-14.976563 15-14.976563h387.21875c8.289063 0 15 6.699219 15 14.976563zm0 0"/><path d="m512 160.421875c0 8.269531-6.71875 14.976563-15 14.976563h-482c-8.28125 0-15-6.707032-15-14.976563 0-8.277344 6.71875-14.976563 15-14.976563h482c8.28125 0 15 6.703126 15 14.976563zm0 0"/></g><path d="m469.679688 72.734375c0 40.15625-32.609376 72.714844-72.847657 72.714844h-323.660156c-17.742187 0-32.121094-14.359375-32.121094-32.070313v-25.679687l20-14.976563-20-14.976562v-25.675782c0-17.714843 14.378907-32.070312 32.121094-32.070312h323.660156c20.128907 0 38.328125 8.136719 51.519531 21.304688 13.167969 13.171874 21.328126 31.339843 21.328126 51.429687zm0 0" fill="#ffef75"/><path d="m469.679688 72.734375c0 40.15625-32.609376 72.714844-72.847657 72.714844h-141.460937v-145.449219h141.460937c20.128907 0 38.328125 8.136719 51.519531 21.304688 13.167969 13.171874 21.328126 31.339843 21.328126 51.429687zm0 0" fill="#ffd92c"/><path d="m464.609375 460.023438c0 8.265624-6.710937 14.976562-15 14.976562h-194.238281v-29.953125h194.238281c8.289063 0 15 6.699219 15 14.976563zm0 0" fill="#ff5996"/><path d="m512 160.421875c0 8.269531-6.71875 14.976563-15 14.976563h-241.628906v-29.953126h241.628906c8.28125 0 15 6.703126 15 14.976563zm0 0" fill="#ff5996"/><path d="m386.929688 72.722656c0 8.269532-6.71875 14.976563-15 14.976563h-330.878907v-29.953125h330.878907c8.28125 0 15 6.710937 15 14.976562zm0 0" fill="#ffd92c"/><path d="m386.929688 72.722656c0 8.269532-6.71875 14.976563-15 14.976563h-116.558594v-29.953125h116.558594c8.28125 0 15 6.710937 15 14.976562zm0 0" fill="#fc0"/></svg>