<svg height="512pt" viewBox="0 -5 512 512" width="512pt" xmlns="http://www.w3.org/2000/svg"><path d="m346.25 472.46875c0 8.292969-6.71875 15-15 15h-54.667969c-8.292969 0-15-6.707031-15-15 0-8.277344 6.707031-15 15-15h12.328125v-32.707031h30v32.707031h12.339844c8.28125 0 15 6.722656 15 15zm0 0" fill="#e7dfde"/><path d="m346.25 472.46875c0 8.292969-6.71875 15-15 15h-27.339844v-62.707031h15v32.707031h12.339844c8.28125 0 15 6.722656 15 15zm0 0" fill="#d9cec9"/><path d="m173.566406 303.046875-66.136718-255.324219c-4.855469-18.738281-19.640626-32.835937-38.589844-36.792968l-50.769532-10.609376c-8.109374-1.695312-16.054687 3.507813-17.75 11.617188-1.695312 8.105469 3.503907 16.054688 11.613282 17.75l50.769531 10.605469c7.703125 1.609375 13.710937 7.339843 15.683594 14.953125l66.136719 255.324218c1.75 6.757813 7.839843 11.242188 14.511718 11.242188 1.242188 0 2.511719-.15625 3.769532-.480469 8.019531-2.078125 12.839843-10.265625 10.761718-18.285156zm0 0" fill="#e7dfde"/><path d="m364.972656 186.792969v94.570312l-61.0625-3.902343-48.828125-3.109376v-87.558593zm0 0" fill="#fff4f4"/><path d="m364.972656 186.792969v94.570312l-61.0625-3.902343v-90.667969zm0 0" fill="#e7dfde"/><path d="m452.949219 363.640625-77.789063 76.121094h-139.929687l-80.289063-129.550781 6.480469-8.25c14.902344-18.988282 34.511719-34.710938 56.691406-45.480469 22.851563-11.089844 48.589844-16.960938 74.441407-16.960938 3.808593 0 7.597656.121094 11.359374.382813 69.570313 4.546875 128.988282 50.648437 146.699219 115.226562zm0 0" fill="#ff4e30"/><path d="m452.949219 363.640625-77.789063 76.121094h-71.25v-199.859375c69.570313 4.550781 128.988282 50.648437 146.699219 115.230468zm0 0" fill="#ff2916"/><path d="m262.542969 398.542969c0 57.046875-46.429688 103.457031-103.5 103.457031-57.058594 0-103.488281-46.410156-103.488281-103.457031 0-57.042969 46.429687-103.449219 103.488281-103.449219 57.070312 0 103.5 46.40625 103.5 103.449219zm0 0" fill="#1765af"/><path d="m512 423.050781c0 43.53125-35.429688 78.949219-78.980469 78.949219-43.546875 0-78.980469-35.417969-78.980469-78.949219 0-43.539062 35.433594-78.949219 78.980469-78.949219 43.550781 0 78.980469 35.410157 78.980469 78.949219zm0 0" fill="#1765af"/><path d="m262.542969 398.542969c0 57.046875-46.429688 103.457031-103.5 103.457031v-206.90625c57.070312 0 103.5 46.40625 103.5 103.449219zm0 0" fill="#113a59"/><path d="m512 423.050781c0 43.53125-35.429688 78.949219-78.980469 78.949219v-157.898438c43.550781 0 78.980469 35.410157 78.980469 78.949219zm0 0" fill="#113a59"/><path d="m174.042969 392.769531v11.550781c0 8.28125-6.710938 15-15 15-8.28125 0-15-6.71875-15-15v-11.550781c0-8.277343 6.71875-15 15-15 8.289062 0 15 6.722657 15 15zm0 0" fill="#fff"/><path d="m448.019531 417.269531v11.550781c0 8.289063-6.71875 15-15 15s-15-6.710937-15-15v-11.550781c0-8.277343 6.71875-15 15-15s15 6.722657 15 15zm0 0" fill="#fff"/><path d="m394.992188 186.792969c0 8.289062-6.722657 15-15 15h-139.921876c-8.289062 0-15-6.710938-15-15 0-8.28125 6.710938-15 15-15h139.921876c8.277343 0 15 6.71875 15 15zm0 0" fill="#e7dfde"/><path d="m394.992188 186.792969c0 8.289062-6.722657 15-15 15h-76.082032v-30h76.082032c8.277343 0 15 6.71875 15 15zm0 0" fill="#d9cec9"/><g fill="#d2f9f9"><path d="m174.042969 392.769531v11.550781c0 8.28125-6.710938 15-15 15v-41.550781c8.289062 0 15 6.722657 15 15zm0 0"/><path d="m448.019531 417.269531v11.550781c0 8.289063-6.71875 15-15 15v-41.550781c8.28125 0 15 6.722657 15 15zm0 0"/></g></svg>