<svg height="512pt" viewBox="-43 0 511 512" width="512pt" xmlns="http://www.w3.org/2000/svg"><path d="m109.035156 427.972656c-8.28125 0-15 6.71875-15 15v54.027344c0 8.285156 6.71875 15 15 15 8.285156 0 15-6.714844 15-15v-54.027344c0-8.28125-6.714844-15-15-15zm0 0" fill="#1765af"/><path d="m316.964844 427.972656c-8.285156 0-15 6.71875-15 15v54.027344c0 8.285156 6.714844 15 15 15 8.28125 0 15-6.714844 15-15v-54.027344c0-8.28125-6.71875-15-15-15zm0 0" fill="#113a59"/><path d="m390.949219 152.941406v234.6875h-355.898438v-234.6875c0-28.332031 11.347657-54.800781 31.949219-74.53125 15.890625-15.128906 35.628906-24.421875 57.351562-27.039062 18.417969-31.792969 52-51.371094 88.648438-51.371094s70.230469 19.570312 88.648438 51.371094c21.722656 2.617187 41.460937 11.910156 57.320312 27.007812 20.632812 19.761719 31.980469 46.230469 31.980469 74.5625zm0 0" fill="#ffef75"/><path d="m390.949219 152.941406v234.6875h-177.949219v-387.628906c36.648438 0 70.230469 19.570312 88.648438 51.371094 21.722656 2.617187 41.460937 11.910156 57.320312 27.007812 20.632812 19.761719 31.980469 46.230469 31.980469 74.5625zm0 0" fill="#ffd92c"/><path d="m425.5 315.617188c0 20.101562-8.359375 39.09375-23.140625 52.992187v24.820313c0 35.589843-28.949219 64.539062-64.53125 64.539062h-249.65625c-35.582031 0-64.53125-28.949219-64.53125-64.539062v-24.820313c-14.78125-13.910156-23.140625-32.898437-23.140625-52.992187 0-19.707032 7.738281-38.167969 21.808594-51.988282 13.742187-13.511718 31.820312-20.898437 51.042968-20.898437.429688 0 .867188.007812 1.296876.007812 39.472656.691407 71.570312 33.8125 71.570312 73.839844v28.769531h133.5625v-28.769531c0-20.007813 8.019531-38.300781 20.980469-51.667969 12.957031-13.371094 30.859375-21.820312 50.589843-22.171875 19.679688-.308593 38.289063 7.082031 52.339844 20.890625 14.058594 13.820313 21.808594 32.28125 21.808594 51.988282zm0 0" fill="#ffd92c"/><g fill="#fff"><path d="m228 87.898438v19.140624c0 8.289063-6.71875 15-15 15s-15-6.710937-15-15v-19.140624c0-8.289063 6.71875-15 15-15s15 6.710937 15 15zm0 0"/><path d="m228 186.300781v19.148438c0 8.28125-6.71875 15-15 15s-15-6.71875-15-15v-19.148438c0-8.28125 6.71875-15 15-15s15 6.71875 15 15zm0 0"/><path d="m144.402344 121.671875c-8.285156 0-15 6.71875-15 15v19.144531c0 8.285156 6.714844 15 15 15s15-6.714844 15-15v-19.144531c0-8.285156-6.714844-15-15-15zm0 0"/></g><path d="m281.597656 121.671875c-8.285156 0-15 6.71875-15 15v19.144531c0 8.285156 6.714844 15 15 15s15-6.714844 15-15v-19.144531c0-8.285156-6.714844-15-15-15zm0 0" fill="#d2f9f9"/><path d="m213 122.039062v-49.140624c8.28125 0 15 6.710937 15 15v19.140624c0 8.289063-6.71875 15-15 15zm0 0" fill="#d2f9f9"/><path d="m213 220.449219v-49.148438c8.28125 0 15 6.71875 15 15v19.148438c0 8.28125-6.71875 15-15 15zm0 0" fill="#d2f9f9"/><path d="m425.5 315.617188c0 20.101562-8.359375 39.09375-23.140625 52.992187v24.820313c0 35.589843-28.949219 64.539062-64.53125 64.539062h-124.828125v-112.621094h66.78125v-28.769531c0-20.007813 8.019531-38.300781 20.980469-51.667969 12.957031-13.371094 30.859375-21.820312 50.589843-22.171875 19.679688-.308593 38.289063 7.082031 52.339844 20.890625 14.058594 13.820313 21.808594 32.28125 21.808594 51.988282zm0 0" fill="#fc0"/></svg>