<svg height="512pt" viewBox="0 -99 512 512" width="512pt" xmlns="http://www.w3.org/2000/svg"><path d="m465.96875 16.917969c-23.449219-16.691407-52.140625-21.292969-78.707031-12.640625-42.210938 13.757812-87.25 27.25-132.992188 28.039062h-.28125c-41.519531.648438-80.367187-12.050781-121.488281-25.5-2.578125-.851562-5.171875-1.691406-7.761719-2.539062-26.558593-8.652344-55.25-4.050782-78.707031 12.640625-28.089844 19.988281-45.300781 54.429687-46.03125 92.109375v96.949218c.730469 37.683594 17.941406 72.113282 46.03125 92.101563 23.457031 16.691406 52.148438 21.300781 78.707031 12.640625 2.589844-.839844 5.183594-1.6875 7.761719-2.527344 41.121094-13.460937 80.011719-26.152344 121.488281-25.511718h.28125c45.75.789062 90.78125 14.289062 132.992188 28.039062 8.796875 2.871094 17.828125 4.28125 26.828125 4.28125 18.171875 0 36.191406-5.75 51.878906-16.921875 28.089844-19.988281 45.300781-54.417969 46.03125-92.101563v-96.949218c-.730469-37.679688-17.941406-72.121094-46.03125-92.109375zm0 0" fill="#ffc7de"/><path d="m512 109.027344v96.949218c-.730469 37.679688-17.941406 72.113282-46.03125 92.101563-15.6875 11.171875-33.707031 16.921875-51.878906 16.921875-9 0-18.03125-1.410156-26.828125-4.28125-42.210938-13.75-87.242188-27.25-132.992188-28.039062h-.28125v-250.363282h.28125c45.742188-.789062 90.78125-14.28125 132.992188-28.039062 26.566406-8.652344 55.257812-4.050782 78.707031 12.640625 28.089844 19.988281 45.300781 54.429687 46.03125 92.109375zm0 0" fill="#ff92aa"/><path d="m111.640625 76.386719c-24.8125 0-45 20.195312-45 45.015625 0 24.820312 20.1875 45.015625 45 45.015625s45-20.195313 45-45.015625c0-24.820313-20.1875-45.015625-45-45.015625zm0 0" fill="#ff92aa"/><path d="m298.988281 189.097656c0 24.550782-20.1875 44.519532-45 44.519532-24.808593 0-45-19.96875-45-44.519532 0-24.539062 20.191407-44.511718 45-44.511718 24.8125 0 45 19.972656 45 44.511718zm0 0" fill="#ff92aa"/><path d="m392.359375 112.984375c-24.8125 0-45 20.191406-45 45.015625 0 24.820312 20.1875 45.011719 45 45.011719s45-20.191407 45-45.011719c0-24.824219-20.1875-45.015625-45-45.015625zm0 0" fill="#ff5996"/><path d="m113.097656 205.8125c-6.757812-4.792969-16.117187-3.195312-20.910156 3.566406l-12.371094 17.460938c-4.792968 6.761718-3.195312 16.125 3.5625 20.917968 2.632813 1.867188 5.660156 2.765626 8.660156 2.765626 4.699219 0 9.328126-2.203126 12.25-6.328126l12.371094-17.460937c4.792969-6.765625 3.199219-16.128906-3.5625-20.921875zm0 0" fill="#ff92aa"/><path d="m284.199219 113.667969c-2.027344 6.371093-7.929688 10.429687-14.277344 10.429687-1.511719 0-3.050781-.230468-4.570313-.71875l-11.363281-3.640625-20.5-6.5625c-7.886719-2.527343-12.238281-10.976562-9.707031-18.867187 2.519531-7.890625 10.957031-12.242188 18.859375-9.710938l11.347656 3.628906 20.5 6.570313c7.890625 2.53125 12.242188 10.980469 9.710938 18.871094zm0 0" fill="#ff92aa"/><path d="m180.566406 187.941406c-2.332031-7.949218-10.667968-12.507812-18.617187-10.167968-7.949219 2.335937-12.5 10.675781-10.164063 18.625l5.554688 18.917968c1.921875 6.539063 7.898437 10.78125 14.386718 10.78125 1.398438 0 2.820313-.199218 4.234376-.613281 7.945312-2.335937 12.496093-10.675781 10.160156-18.625zm0 0" fill="#ff92aa"/><g fill="#ff5996"><path d="m369.234375 100.378906c2.464844 0 4.960937-.609375 7.269531-1.890625l16.046875-8.910156c7.242188-4.023437 9.855469-13.15625 5.832031-20.402344-4.019531-7.246093-13.152343-9.859375-20.394531-5.835937l-16.046875 8.910156c-7.242187 4.023438-9.855468 13.15625-5.832031 20.402344 2.738281 4.9375 7.855469 7.726562 13.125 7.726562zm0 0"/><path d="m406.335938 236.414062-25.921876-13.367187c-7.359374-3.796875-16.40625-.90625-20.203124 6.460937-3.796876 7.367188-.902344 16.414063 6.460937 20.210938l25.917969 13.367188c2.199218 1.132812 4.546875 1.671874 6.859375 1.671874 5.4375 0 10.683593-2.964843 13.347656-8.132812 3.796875-7.367188.902344-16.414062-6.460937-20.210938zm0 0"/><path d="m265.351562 123.378906-11.363281-3.640625v-31.511719l20.5 6.570313c7.890625 2.53125 12.242188 10.980469 9.710938 18.871094-2.027344 6.371093-7.929688 10.429687-14.277344 10.429687-1.511719 0-3.050781-.230468-4.570313-.71875zm0 0"/><path d="m298.988281 189.097656c0 24.550782-20.1875 44.519532-45 44.519532v-89.03125c24.8125 0 45 19.972656 45 44.511718zm0 0"/></g></svg>