<svg height="512pt" viewBox="-26 0 512 512.00036" width="512pt" xmlns="http://www.w3.org/2000/svg"><path d="m308.53125 29.71875-138.957031 27.601562v134.28125h-139.558594v-110.09375c0-15.636718 11.089844-29.199218 26.390625-32.289062.039062-.007812.078125-.019531.117188-.03125l61.414062-12.199219 184.742188-36.699219c8.128906-1.609374 16.019531 3.660157 17.640624 11.789063 1.609376 8.132813-3.671874 16.019531-11.789062 17.640625zm0 0" fill="#e7dfde"/><path d="m308.53125 29.71875-138.957031 27.601562v134.28125h-51.636719v-154.613281l184.742188-36.699219c8.128906-1.609374 16.019531 3.660157 17.640624 11.789063 1.609376 8.132813-3.671874 16.019531-11.789062 17.640625zm0 0" fill="#d9cec9"/><path d="m427.4375 256.929688v85.820312h-104.269531v-79.449219h-117.316407v218.710938h-175.835937v-320.410157h302.28125c52.464844 0 95.140625 42.757813 95.140625 95.328126zm0 0" fill="#fff4f4"/><path d="m427.4375 256.929688v85.820312h-104.269531v-79.449219h-117.316407v218.710938h-87.914062v-320.410157h214.359375c52.464844 0 95.140625 42.757813 95.140625 95.328126zm0 0" fill="#e7dfde"/><path d="m445 312.753906h-139.394531c-8.285157 0-15 6.714844-15 15 0 8.28125 6.714843 15 15 15h139.394531c8.285156 0 15-6.71875 15-15 0-8.285156-6.714844-15-15-15zm0 0" fill="#d9cec9"/><path d="m235.878906 481.859375v.121094c0 16.578125-13.441406 30.019531-30.027344 30.019531h-175.835937c-16.578125 0-30.015625-13.441406-30.015625-30.019531v-.121094c0-16.589844 13.4375-30.027344 30.015625-30.027344h175.835937c16.585938 0 30.027344 13.4375 30.027344 30.027344zm0 0" fill="#e7dfde"/><path d="m390.613281 377.933594c-3.980469-4.144532-9.5625-6.523438-15.308593-6.523438-5.75 0-11.332032 2.378906-15.3125 6.523438-21.011719 21.878906-31.660157 40.078125-31.660157 54.097656 0 25.902344 21.070313 46.976562 46.972657 46.976562 25.898437 0 46.972656-21.074218 46.972656-46.976562 0-14.019531-10.652344-32.21875-31.664063-54.097656zm0 0" fill="#4bf9ff"/><path d="m235.878906 481.859375v.121094c0 16.578125-13.441406 30.019531-30.027344 30.019531h-87.914062v-60.167969h87.914062c16.585938 0 30.027344 13.4375 30.027344 30.027344zm0 0" fill="#d9cec9"/></svg>