<svg height="512pt" viewBox="0 0 512 512" width="512pt" xmlns="http://www.w3.org/2000/svg"><g fill="#d2f9f9"><path d="m512 378.121094c0 50.660156-41.328125 91.878906-92.121094 91.878906-50.800781 0-92.128906-41.21875-92.128906-91.878906 0-19.3125 12.230469-55.011719 70.480469-115.480469 5.71875-5.929687 13.410156-9.199219 21.648437-9.199219 8.242188 0 15.921875 3.269532 21.640625 9.199219 58.25 60.46875 70.480469 96.167969 70.480469 115.480469zm0 0"/><path d="m125.949219 182.539062c0 34.640626-28.25 62.820313-62.96875 62.820313-34.730469 0-62.980469-28.179687-62.980469-62.820313 0-18.988281 15.289062-44.480468 45.429688-75.769531 4.570312-4.738281 10.960937-7.460937 17.550781-7.460937 6.578125 0 12.96875 2.722656 17.539062 7.460937 30.152344 31.289063 45.429688 56.78125 45.429688 75.769531zm0 0"/><path d="m186.371094 440.050781c0 39.667969-32.351563 71.949219-72.121094 71.949219-39.78125 0-72.128906-32.28125-72.128906-71.949219 0-39.671875 32.347656-71.949219 72.128906-71.949219 39.769531 0 72.121094 32.277344 72.121094 71.949219zm0 0"/><path d="m285.050781 299c0 32.289062-26.339843 58.570312-58.710937 58.570312-32.359375 0-58.699219-26.28125-58.699219-58.570312s26.339844-58.570312 58.699219-58.570312c32.371094 0 58.710937 26.28125 58.710937 58.570312zm0 0"/><path d="m486.429688 152.828125c0 8.28125-6.710938 15-15 15-32.558594 0-59.058594 26.273437-59.058594 58.5625 0 8.28125-6.722656 15-15 15-8.28125 0-15-6.71875-15-15 0-32.191406-26.492188-58.371094-59.0625-58.371094-8.289063 0-15-6.71875-15-15 0-8.289062 6.710937-15 15-15 32.570312 0 59.0625-26.269531 59.0625-58.558593 0-8.289063 6.71875-15 15-15 8.277344 0 15 6.710937 15 15 0 32.179687 26.5 58.367187 59.058594 58.367187 8.289062 0 15 6.710937 15 15zm0 0"/><path d="m301.738281 88.371094c0 8.289062-6.71875 15-15 15-32.566406 0-59.058593 26.269531-59.058593 58.558594 0 8.289062-6.71875 15-15 15-8.289063 0-15-6.710938-15-15 0-32.179688-26.5-58.371094-59.070313-58.371094-8.28125 0-15-6.707032-15-15 0-8.277344 6.71875-15 15-15 32.570313 0 59.070313-26.269532 59.070313-58.558594 0-8.28125 6.710937-15 15-15 8.28125 0 15 6.71875 15 15 0 32.191406 26.492187 58.371094 59.058593 58.371094 8.28125 0 15 6.71875 15 15zm0 0"/></g><path d="m125.949219 182.539062c0 34.640626-28.25 62.820313-62.96875 62.820313v-146.050781c6.578125 0 12.96875 2.722656 17.539062 7.460937 30.152344 31.289063 45.429688 56.78125 45.429688 75.769531zm0 0" fill="#4bf9ff"/><path d="m512 378.121094c0 50.660156-41.328125 91.878906-92.121094 91.878906v-216.558594c8.242188 0 15.921875 3.269532 21.640625 9.199219 58.25 60.46875 70.480469 96.167969 70.480469 115.480469zm0 0" fill="#4bf9ff"/><path d="m301.738281 88.371094c0 8.289062-6.71875 15-15 15-32.566406 0-59.058593 26.269531-59.058593 58.558594 0 8.289062-6.71875 15-15 15v-176.929688c8.28125 0 15 6.71875 15 15 0 32.191406 26.492187 58.371094 59.058593 58.371094 8.28125 0 15 6.71875 15 15zm0 0" fill="#4bf9ff"/><path d="m486.429688 152.828125c0 8.28125-6.710938 15-15 15-32.558594 0-59.058594 26.273437-59.058594 58.5625 0 8.28125-6.722656 15-15 15v-176.929687c8.277344 0 15 6.710937 15 15 0 32.179687 26.5 58.367187 59.058594 58.367187 8.289062 0 15 6.710937 15 15zm0 0" fill="#4bf9ff"/><path d="m285.050781 299c0 32.289062-26.339843 58.570312-58.710937 58.570312v-117.140624c32.371094 0 58.710937 26.28125 58.710937 58.570312zm0 0" fill="#4bf9ff"/><path d="m186.371094 440.050781c0 39.667969-32.351563 71.949219-72.121094 71.949219v-143.898438c39.769531 0 72.121094 32.277344 72.121094 71.949219zm0 0" fill="#4bf9ff"/></svg>