<svg height="512pt" viewBox="0 0 512 512" width="512pt" xmlns="http://www.w3.org/2000/svg"><path d="m437.019531 74.980469c-48.347656-48.351563-112.640625-74.980469-181.019531-74.980469s-132.671875 26.628906-181.019531 74.980469c-48.351563 48.347656-74.980469 112.640625-74.980469 181.019531s26.628906 132.671875 74.980469 181.019531c48.347656 48.351563 112.640625 74.980469 181.019531 74.980469s132.671875-26.628906 181.019531-74.980469c48.351563-48.347656 74.980469-112.640625 74.980469-181.019531s-26.628906-132.671875-74.980469-181.019531zm0 0" fill="#60e15b"/><path d="m512 256c0 68.378906-26.628906 132.671875-74.980469 181.019531-48.347656 48.351563-112.640625 74.980469-181.019531 74.980469v-512c68.378906 0 132.671875 26.628906 181.019531 74.980469 48.351563 48.347656 74.980469 112.640625 74.980469 181.019531zm0 0" fill="#00c579"/><path d="m447.539062 256c0 105.621094-85.917968 191.539062-191.539062 191.539062s-191.539062-85.917968-191.539062-191.539062 85.917968-191.539062 191.539062-191.539062 191.539062 85.917968 191.539062 191.539062zm0 0" fill="#fff"/><path d="m447.539062 256c0 105.621094-85.917968 191.539062-191.539062 191.539062v-383.078124c105.621094 0 191.539062 85.917968 191.539062 191.539062zm0 0" fill="#d2f9f9"/><path d="m392.421875 256.160156c0 8.289063-6.722656 15-15 15h-99.871094c-8.050781 0-15.5-2.621094-21.550781-7.050781-9.089844-6.660156-15-17.398437-15-29.5v-100.53125c0-8.289063 6.71875-15 15-15s15 6.710937 15 15v100.53125c0 3.609375 2.941406 6.550781 6.550781 6.550781h99.871094c8.277344 0 15 6.71875 15 15zm0 0" fill="#1765af"/><g fill="#d2f9f9"><path d="m271 364.71875v23.203125c0 8.277344-6.71875 15-15 15s-15-6.722656-15-15v-23.203125c0-8.277344 6.71875-15 15-15s15 6.722656 15 15zm0 0"/><path d="m162.082031 256c0-8.285156-6.714843-15-15-15h-23.199219c-8.285156 0-15 6.714844-15 15s6.714844 15 15 15h23.199219c8.285157 0 15-6.714844 15-15zm0 0"/><path d="m170.417969 317.6875-17.476563 17.476562c-5.855468 5.859376-5.855468 15.355469 0 21.214844 2.929688 2.929688 6.769532 4.394532 10.609375 4.394532 3.835938 0 7.675781-1.464844 10.605469-4.394532l17.476562-17.476562c5.855469-5.855469 5.855469-15.355469 0-21.214844-5.859374-5.859375-15.355468-5.855469-21.214843 0zm0 0"/></g><path d="m329.945312 194.375c3.839844 0 7.675782-1.464844 10.605469-4.394531l16.476563-16.476563c5.859375-5.859375 5.855468-15.355468 0-21.214844-5.855469-5.855468-15.355469-5.855468-21.214844 0l-16.472656 16.480469c-5.859375 5.855469-5.859375 15.351563 0 21.210938 2.929687 2.929687 6.765625 4.394531 10.605468 4.394531zm0 0" fill="#4bf9ff"/><path d="m339.566406 318.355469c-5.855468-5.859375-15.355468-5.859375-21.214844 0-5.855468 5.855469-5.855468 15.355469 0 21.210937l18.476563 18.476563c2.929687 2.929687 6.769531 4.394531 10.609375 4.394531 3.835938 0 7.675781-1.464844 10.605469-4.394531 5.855469-5.855469 5.855469-15.355469 0-21.210938zm0 0" fill="#4bf9ff"/><path d="m175.171875 153.957031c-5.859375-5.859375-15.355469-5.855469-21.214844 0s-5.859375 15.355469 0 21.214844l16.476563 16.476563c2.929687 2.929687 6.765625 4.390624 10.605468 4.390624 3.839844 0 7.679688-1.464843 10.605469-4.390624 5.859375-5.859376 5.859375-15.355469 0-21.214844zm0 0" fill="#d2f9f9"/><path d="m271 364.71875v23.203125c0 8.277344-6.71875 15-15 15v-53.203125c8.28125 0 15 6.722656 15 15zm0 0" fill="#4bf9ff"/><path d="m392.421875 256.160156c0 8.289063-6.722656 15-15 15h-99.871094c-8.050781 0-15.5-2.621094-21.550781-7.050781v-145.03125c8.28125 0 15 6.710937 15 15v100.53125c0 3.609375 2.941406 6.550781 6.550781 6.550781h99.871094c8.277344 0 15 6.71875 15 15zm0 0" fill="#113a59"/></svg>