<svg height="512pt" viewBox="-68 0 512 512" width="512pt" xmlns="http://www.w3.org/2000/svg"><path d="m276.75 497h-178.617188l15.660157-11.429688c12.242187-20.660156 14.722656-45.53125 6.808593-68.21875l-6.957031-19.941406h147.5625l-7.027343 20.109375c-7.867188 22.671875-5.34375 47.519531 6.917968 68.160157zm0 0" fill="#e7dfde"/><path d="m261.097656 485.679688 15.652344 11.320312h-89.335938v-99.589844h73.792969l-7.027343 20.109375c-7.867188 22.671875-5.34375 47.519531 6.917968 68.160157zm0 0" fill="#d9cec9"/><path d="m345.285156 59.480469v174.628906h-157.871094v-234.109375h98.351563c32.816406 0 59.519531 26.679688 59.519531 59.480469zm0 0" fill="#7ff4e6"/><path d="m301.96875 497c0 8.28125-6.726562 15-15.011719 15h-199.074219c-8.296874 0-15.011718-6.71875-15.011718-15 0-8.289062 6.714844-15 15.011718-15h199.074219c8.285157 0 15.011719 6.710938 15.011719 15zm0 0" fill="#1765af"/><path d="m345.285156 263.878906v15c0 87.480469-70.777344 158.640625-157.789062 158.640625h-.082032c-86.972656-.039062-157.710937-71.191406-157.710937-158.640625v-15zm0 0" fill="#fff4f4"/><path d="m187.414062 263.878906h157.871094v15c0 87.480469-70.777344 158.640625-157.789062 158.640625h-.082032zm0 0" fill="#e7dfde"/><path d="m345.285156 59.480469v174.628906h-315.742187v-174.628906c0-32.800781 26.714843-59.480469 59.53125-59.480469h196.691406c32.816406 0 59.519531 26.679688 59.519531 59.480469zm0 0" fill="#fff4f4"/><path d="m345.285156 59.480469v174.628906h-157.871094v-234.109375h98.351563c32.816406 0 59.519531 26.679688 59.519531 59.480469zm0 0" fill="#e7dfde"/><path d="m375 249c0 8.25-3.324219 15.71875-8.695312 21.128906-5.386719 5.410156-12.8125 8.75-21.019532 8.75h-315.570312c-16.414063 0-29.714844-13.378906-29.714844-29.878906 0-8.261719 3.324219-15.730469 8.707031-21.140625 5.375-5.398437 12.800781-8.75 21.007813-8.75h315.570312c16.414063 0 29.714844 13.378906 29.714844 29.890625zm0 0" fill="#1765af"/><path d="m247.953125 55.101562c0 8.277344-6.722656 15-15.011719 15h-91.042968c-8.296876 0-15.011719-6.722656-15.011719-15 0-8.292968 6.714843-15 15.011719-15h91.042968c8.289063 0 15.011719 6.707032 15.011719 15zm0 0" fill="#fff"/><path d="m301.96875 497c0 8.28125-6.726562 15-15.011719 15h-99.542969v-30h99.542969c8.285157 0 15.011719 6.710938 15.011719 15zm0 0" fill="#113a59"/><path d="m232.941406 70.101562h-45.527344v-30h45.527344c8.289063 0 15.011719 6.707032 15.011719 15 0 8.277344-6.722656 15-15.011719 15zm0 0" fill="#fff4f4"/><path d="m375 249c0 8.25-3.324219 15.71875-8.695312 21.128906-5.386719 5.410156-12.8125 8.75-21.019532 8.75h-157.871094v-59.769531h157.871094c16.414063 0 29.714844 13.378906 29.714844 29.890625zm0 0" fill="#113a59"/></svg>