<svg height="512pt" viewBox="0 -29 512 512" width="512pt" xmlns="http://www.w3.org/2000/svg"><path d="m485.671875 49.441406-59.613281 147.972656h-340.117188l-59.613281-147.972656c-5.359375-13.304687 0-28.53125 12.542969-35.480468 19.988281-11.089844 53.757812-21.703126 98.207031-6.105469 55.832031 19.589843 82.183594 30.855469 118.921875 30.855469s63.089844-11.261719 118.921875-30.855469c44.449219-15.597657 78.21875-4.984375 98.207031 6.105469 12.542969 6.949218 17.902344 22.175781 12.542969 35.480468zm0 0" fill="#fff4f4"/><g fill="#f7efe9"><path d="m485.671875 49.441406-59.613281 147.972656h-170.058594v-158.703124c36.738281 0 63.089844-11.261719 118.921875-30.855469 44.449219-15.597657 78.21875-4.984375 98.207031 6.105469 12.542969 6.949218 17.902344 22.175781 12.542969 35.480468zm0 0"/><path d="m271 104.960938v92.453124h-30v-92.453124c0-8.289063 6.71875-15.015626 15-15.015626s15 6.726563 15 15.015626zm0 0"/><path d="m208.230469 197.414062h-31.851563l-37.578125-73.609374c-3.769531-7.390626-.851562-16.4375 6.527344-20.214844 7.371094-3.773438 16.410156-.839844 20.183594 6.539062l41.066406 80.449219c1.121094 2.191406 1.652344 4.53125 1.652344 6.835937zm0 0"/></g><path d="m373.199219 123.804688-37.578125 73.609374h-31.851563c0-2.304687.53125-4.644531 1.652344-6.835937l41.066406-80.449219c3.773438-7.378906 12.8125-10.300781 20.183594-6.539062 7.378906 3.777344 10.296875 12.824218 6.527344 20.214844zm0 0" fill="#e7dfde"/><path d="m271 104.960938v92.453124h-15v-107.46875c8.28125 0 15 6.726563 15 15.015626zm0 0" fill="#e7dfde"/><path d="m512 221.160156v157.804688c0 41.925781-34.070312 76.035156-75.949219 76.035156h-360.101562c-41.878907 0-75.949219-34.109375-75.949219-76.035156v-157.804688c0-21.371094 17.371094-38.761718 38.71875-38.761718h434.5625c21.347656 0 38.71875 17.390624 38.71875 38.761718zm0 0" fill="#1765af"/><path d="m512 221.160156v157.804688c0 41.925781-34.070312 76.035156-75.949219 76.035156h-180.050781v-272.601562h217.28125c21.347656 0 38.71875 17.390624 38.71875 38.761718zm0 0" fill="#113a59"/><path d="m353.089844 278.695312v80.007813c0 9.449219-7.679688 17.148437-17.128906 17.148437h-159.921876c-9.4375 0-17.128906-7.699218-17.128906-17.148437v-80.007813c0-9.460937 7.691406-17.148437 17.128906-17.148437h159.921876c9.449218 0 17.128906 7.6875 17.128906 17.148437zm0 0" fill="#fff"/><path d="m353.089844 278.695312v80.007813c0 9.449219-7.679688 17.148437-17.128906 17.148437h-79.960938v-114.304687h79.960938c9.449218 0 17.128906 7.6875 17.128906 17.148437zm0 0" fill="#d2f9f9"/></svg>