<svg height="512pt" viewBox="-38 0 512 512" width="512pt" xmlns="http://www.w3.org/2000/svg"><path d="m307.949219 0h-180.898438c-39.609375 0-71.839843 32.230469-71.839843 71.839844v113.699218h324.578124v-113.699218c0-39.609375-32.230468-71.839844-71.839843-71.839844zm41.839843 150.539062h-264.578124v-78.699218c0-23.070313 18.769531-41.839844 41.839843-41.839844h180.898438c23.070312 0 41.839843 18.769531 41.839843 41.839844zm0 0" fill="#ffef75"/><path d="m379.789062 71.839844v113.699218h-162.289062v-35h132.289062v-78.699218c0-23.070313-18.769531-41.839844-41.839843-41.839844h-90.449219v-30h90.449219c39.609375 0 71.839843 32.230469 71.839843 71.839844zm0 0" fill="#ffd92c"/><path d="m415.128906 150.539062-27.5 318.660157c-2.097656 24.402343-22.109375 42.800781-46.550781 42.800781h-247.15625c-24.441406 0-44.453125-18.398438-46.550781-42.800781l-27.5-318.660157zm0 0" fill="#1765af"/><path d="m415.128906 150.539062-27.5 318.660157c-2.097656 24.402343-22.109375 42.800781-46.550781 42.800781h-123.578125v-361.460938zm0 0" fill="#113a59"/><path d="m281.519531 341.871094c0 35.308594-28.71875 64.039062-64.019531 64.039062s-64.019531-28.730468-64.019531-64.039062c0-24.28125 26.140625-56.601563 48.058593-79.441406 4.152344-4.320313 9.972657-6.808594 15.960938-6.808594s11.808594 2.488281 15.960938 6.808594c21.917968 22.839843 48.058593 55.160156 48.058593 79.441406zm0 0" fill="#d2f9f9"/><path d="m435 150.539062c0 8.28125-6.71875 15-15 15h-405c-8.28125 0-15-6.71875-15-15 0-8.289062 6.71875-15 15-15h405c8.28125 0 15 6.710938 15 15zm0 0" fill="#d2f9f9"/><g fill="#93fcff"><path d="m233.460938 262.429688c21.917968 22.839843 48.058593 55.160156 48.058593 79.441406 0 35.308594-28.71875 64.039062-64.019531 64.039062v-150.289062c5.988281 0 11.808594 2.488281 15.960938 6.808594zm0 0"/><path d="m435 150.539062c0 8.28125-6.71875 15-15 15h-202.5v-30h202.5c8.28125 0 15 6.710938 15 15zm0 0"/></g></svg>