<svg height="511pt" viewBox="0 -1 511.99996 511" width="511pt" xmlns="http://www.w3.org/2000/svg"><path d="m386.140625 42.078125v425.863281c0 22.925782-18.664063 41.574219-41.609375 41.574219h-302.921875c-22.945313 0-41.609375-18.648437-41.609375-41.574219v-425.863281c0-22.925781 18.664062-41.578125 41.609375-41.578125h302.921875c22.945312 0 41.609375 18.652344 41.609375 41.578125zm0 0" fill="#ffef75"/><path d="m386.140625 42.078125v425.863281c0 22.925782-18.664063 41.574219-41.609375 41.574219h-151.460938v-509.015625h151.460938c22.945312 0 41.609375 18.652344 41.609375 41.578125zm0 0" fill="#ffd92c"/><path d="m162.121094 57h-93.550782c-8.878906 0-16.105468 7.21875-16.105468 16.085938v150.925781c0 8.867187 7.226562 16.085937 16.105468 16.085937h93.554688c8.878906 0 16.105469-7.21875 16.105469-16.085937v-150.925781c0-8.867188-7.226563-16.085938-16.109375-16.085938zm0 0" fill="#fff"/><path d="m317.574219 57h-93.550781c-8.882813 0-16.105469 7.21875-16.105469 16.085938v150.925781c0 8.867187 7.222656 16.085937 16.105469 16.085937h109.65625v-167.011718c0-8.867188-7.222657-16.085938-16.105469-16.085938zm0 0" fill="#d2f9f9"/><path d="m162.121094 269.921875h-93.550782c-8.878906 0-16.105468 7.214844-16.105468 16.085937v149.929688c0 8.871094 7.226562 16.085938 16.105468 16.085938h93.554688c8.878906 0 16.105469-7.214844 16.105469-16.085938v-149.929688c0-8.871093-7.226563-16.085937-16.109375-16.085937zm0 0" fill="#fff"/><path d="m317.574219 269.921875h-93.550781c-8.882813 0-16.105469 7.214844-16.105469 16.085937v149.929688c0 8.871094 7.222656 16.085938 16.105469 16.085938h93.550781c8.882812 0 16.105469-7.214844 16.105469-16.085938v-149.929688c0-8.871093-7.222657-16.085937-16.105469-16.085937zm0 0" fill="#d2f9f9"/><path d="m511.726562 205.578125c-1.101562 6.8125-5.449218 12.738281-11.625 15.835937-13.234374 6.738282-47.691406 29.84375-47.691406 55.167969.011719 5.746094-2.234375 11.15625-6.304687 15.242188-4.082031 4.078125-9.503907 6.320312-15.273438 6.320312h-8.25l-36.445312 18.828125-36.433594-18.828125h-8.25c-11.90625 0-21.585937-9.671875-21.585937-21.5625 0-25.296875-34.464844-48.417969-47.738282-55.199219-6.128906-3.066406-10.476562-8.988281-11.570312-15.804687-1.101563-6.816406 1.152344-13.804687 6.035156-18.679687 31.929688-31.914063 74.390625-49.492188 119.542969-49.492188 45.15625 0 87.617187 17.578125 119.546875 49.492188 4.882812 4.875 7.144531 11.863281 6.042968 18.679687zm0 0" fill="#ffc7de"/><path d="m511.726562 205.578125c-1.101562 6.8125-5.449218 12.738281-11.625 15.835937-13.234374 6.738282-47.691406 29.84375-47.691406 55.167969.011719 5.746094-2.234375 11.15625-6.304687 15.242188-4.082031 4.078125-9.503907 6.320312-15.273438 6.320312h-8.25l-36.445312 18.828125v-179.566406c45.15625 0 87.617187 17.574219 119.546875 49.492188 4.882812 4.875 7.144531 11.863281 6.042968 18.679687zm0 0" fill="#ff92aa"/><path d="m422.582031 298.144531v69.875c0 20.074219-16.34375 36.40625-36.445312 36.40625-20.085938 0-36.433594-16.332031-36.433594-36.40625v-69.875zm0 0" fill="#1765af"/><path d="m422.582031 298.144531v69.875c0 20.074219-16.34375 36.40625-36.445312 36.40625v-106.28125zm0 0" fill="#113a59"/></svg>