<svg height="511pt" viewBox="0 -31 511.99964 511" width="511pt" xmlns="http://www.w3.org/2000/svg"><path d="m510.410156 428.785156-28.414062-56.835937v-296.449219c0-8.292969-6.710938-15-15-15-8.292969 0-15 6.707031-15 15v296.449219l-28.417969 56.835937c-3.707031 7.414063-.703125 16.421875 6.707031 20.128906 7.414063 3.660157 16.421875.6875 20.128906-6.710937l16.582032-33.164063 16.582031 33.164063c3.6875 7.363281 12.644531 10.421875 20.125 6.710937 7.410156-3.707031 10.414063-12.714843 6.707031-20.128906zm0 0" fill="#fdbf00"/><path d="m421.996094 75.5v179.996094c0 8.402344-6.601563 15-15 15h-300.996094c-8.402344 0-15-6.597656-15-15v-179.996094c0-8.402344 6.597656-15 15-15h300.996094c8.398437 0 15 6.597656 15 15zm0 0" fill="#384949"/><path d="m421.996094 75.5v179.996094c0 8.402344-6.601563 15-15 15h-151v-209.996094h151c8.398437 0 15 6.597656 15 15zm0 0" fill="#293939"/><path d="m436.996094.5h-361.996094c-41.402344 0-75 33.597656-75 75 0 8.398438 6.597656 15 15 15h481.996094c8.398437 0 14.996094-6.601562 14.996094-15 0-41.402344-33.597657-75-74.996094-75zm0 0" fill="#4a696f"/><path d="m511.992188 75.5c0 8.398438-6.597657 15-14.996094 15h-241v-90h181c41.398437 0 74.996094 33.597656 74.996094 75zm0 0" fill="#384949"/></svg>