<svg height="512pt" viewBox="0 -15 512 511" width="512pt" xmlns="http://www.w3.org/2000/svg"><path d="m497 .5c-80.699219 0-162.699219 19.199219-235 55.199219l-6 3-6-3c-72.300781-36-154.300781-55.199219-235-55.199219-8.402344 0-15 6.597656-15 15v390c0 8.402344 6.597656 15 15 15 76.199219 0 153.402344 18 221.5 52.199219l12.902344 6.300781c2.097656.898438 4.199218 1.5 6.597656 1.5s4.5-.601562 6.597656-1.5l12.902344-6.300781c68.101562-34.199219 145.300781-52.199219 221.5-52.199219 8.402344 0 15-6.597656 15-15v-390c0-8.402344-6.597656-15-15-15zm0 0" fill="#f2f6fc"/><path d="m512 15.5v390c0 8.402344-6.597656 15-15 15-76.199219 0-153.402344 18-221.5 52.199219l-12.902344 6.300781c-2.097656.898438-4.199218 1.5-6.597656 1.5v-421.800781l6-3c72.300781-36 154.300781-55.199219 235-55.199219 8.402344 0 15 6.597656 15 15zm0 0" fill="#dce1eb"/><path d="m301 194.8125v-81.578125c0-5.960937 3.53125-11.351563 8.980469-13.738281 39.445312-17.257813 81.164062-28.960938 123.996093-34.792969 9.050782-1.199219 17.023438 5.804687 17.023438 14.867187v89.136719c0 7.660157-5.769531 14.09375-13.402344 14.914063-39.652344 4.261718-78.96875 12.816406-116.867187 25.429687-9.628907 3.210938-19.730469-3.949219-19.730469-14.238281zm0 0" fill="#ff0059"/><path d="m401.269531 373.332031c-20.273437-20.769531-30.265625-20.769531-50.539062 0-4.789063 4.921875-12.316407 5.917969-18.234375 2.519531-5.949219-3.425781-8.804688-10.457031-6.945313-17.066406 3.941407-13.957031 4.175781-23.640625.75-29.589844-3.429687-5.945312-11.941406-10.574218-26.003906-14.164062-6.636719-1.683594-11.292969-7.675781-11.292969-14.53125s4.65625-12.847656 11.292969-14.53125c14.0625-3.585938 22.558594-8.214844 26.003906-14.164062 3.425781-5.945313 3.191407-15.628907-.75-29.605469-1.859375-6.589844.996094-13.621094 6.945313-17.050781 5.902344-3.425782 13.433594-2.402344 18.234375 2.523437 20.273437 20.769531 30.265625 20.769531 50.539062 0 4.789063-4.925781 12.304688-5.933594 18.238281-2.523437 5.945313 3.429687 8.800782 10.460937 6.941407 17.066406-3.941407 13.960937-4.175781 23.644531-.746094 29.589844 3.425781 5.949218 11.9375 10.578124 26 14.164062 6.636719 1.6875 11.292969 7.675781 11.292969 14.53125s-4.65625 12.847656-11.292969 14.53125c-14.0625 3.589844-22.558594 8.21875-26 14.164062-3.429687 5.949219-3.195313 15.632813.746094 29.605469 1.859375 6.59375-.996094 13.625-6.941407 17.050781-5.976562 3.433594-13.464843 2.375-18.238281-2.519531zm0 0" fill="#fdbf00"/><path d="m211 113.234375c0-5.960937-3.53125-11.351563-8.980469-13.742187-39.445312-17.253907-81.164062-28.957032-123.996093-34.789063-8.960938-1.207031-17.023438 5.746094-17.023438 14.867187v178.234376l74.066406 25.90625 75.933594 6.882812zm0 0" fill="#60d9d4"/><path d="m61 257.804688v90.902343c0 7.660157 5.769531 14.09375 13.402344 14.914063 39.652344 4.261718 78.96875 12.816406 116.867187 25.429687 9.628907 3.210938 19.730469-3.949219 19.730469-14.238281v-84.21875c-48.261719-17.585938-98.785156-28.652344-150-32.789062zm0 0" fill="#ff5e95"/></svg>