<svg height="512pt" viewBox="-31 0 512 512.00035" width="512pt" xmlns="http://www.w3.org/2000/svg"><path d="m285.164062 74.75c0 33.019531-27.019531 60.035156-60.035156 60.035156-33.019531 0-60.035156-27.015625-60.035156-60.035156l15.007812-65.136719c15.011719.902344 30.019532 1.503907 45.027344 1.503907 15.007813 0 30.015625-.601563 45.023438-1.503907zm0 0" fill="#ff5e95"/><path d="m285.164062 74.75c0 33.019531-27.019531 60.035156-60.035156 60.035156v-123.671875c15.007813 0 30.015625-.601562 45.023438-1.5zm0 0" fill="#ff0059"/><path d="m450.257812 89.757812v407.234376c0 8.40625-6.605468 15.007812-15.007812 15.007812h-420.242188c-8.40625 0-15.007812-6.601562-15.007812-15.007812v-407.234376c0-26.414062 11.40625-51.328124 31.816406-68.4375 16.511719-13.808593 37.222656-21.3124995 58.234375-21.3124995l15.007813 74.7421875c0 66.339844 53.730468 120.070312 120.070312 120.070312s120.066406-53.730468 120.066406-120.070312l15.011719-74.7421875c21.3125-.3007815 42.023438 7.5039065 58.230469 21.3124995 20.414062 17.109376 31.820312 42.023438 31.820312 68.4375zm0 0" fill="#ffa2c3"/><path d="m450.257812 89.757812v407.234376c0 8.40625-6.605468 15.007812-15.007812 15.007812h-210.121094v-317.179688c66.339844 0 120.066406-53.730468 120.066406-120.070312l15.011719-74.7421875c21.3125-.3007815 42.023438 7.5039065 58.230469 21.3124995 20.414062 17.109376 31.820312 42.023438 31.820312 68.4375zm0 0" fill="#ff5e95"/><path d="m360.207031.0078125v74.7421875c0 74.441406-60.636719 135.078125-135.078125 135.078125s-135.078125-60.636719-135.078125-135.078125v-74.7421875c4.800781 0 9.90625.3007815 14.710938 1.1992185 24.914062 4.203125 50.125 6.90625 75.339843 8.40625v65.136719c0 24.914062 20.113282 45.027344 45.027344 45.027344 24.914063 0 45.023438-20.113282 45.023438-45.027344v-65.136719c25.21875-1.5 50.429687-4.199219 75.34375-8.402343 5.105468-.902344 9.609375-1.2031255 14.710937-1.2031255zm0 0" fill="#92e6e1"/><path d="m360.207031.0078125v74.7421875c0 74.441406-60.636719 135.078125-135.078125 135.078125v-90.050781c24.914063 0 45.023438-20.109375 45.023438-45.027344v-65.136719c25.21875-1.5 50.429687-4.199219 75.34375-8.402343 5.105468-.902344 9.609375-1.2031255 14.710937-1.2031255zm0 0" fill="#60d9d4"/><path d="m190.609375 409.441406c-3.746094-3.742187-63.039063-63.035156-60.035156-60.03125-5.703125-6.003906-15.308594-6.003906-21.011719 0-6.003906 5.703125-6.003906 15.304688 0 21.007813l19.511719 19.515625-34.519531 34.519531c-6.003907 5.703125-6.003907 15.304687 0 21.011719 5.398437 6.003906 15.609374 6.003906 21.011718 0l34.519532-34.519532 19.511718 19.507813c5.398438 6.003906 15.609375 6.007813 21.011719 0 6.003906-5.703125 6.003906-15.308594 0-21.011719zm0 0" fill="#4a696f"/><path d="m325.683594 235.339844-79.542969 79.546875 54.03125 54.03125-21.011719 21.011719-54.03125-54.03125-54.03125 54.03125-21.011718-21.011719 54.03125-54.03125-79.546876-79.546875c-6-5.703125-6-15.304688 0-21.007813 5.707032-6.003906 15.308594-6.003906 21.011719 0l79.546875 79.542969 79.546875-79.542969c5.703125-6.003906 15.308594-6.003906 21.011719 0 6 5.703125 6 15.304688-.003906 21.007813zm0 0" fill="#4a696f"/><g fill="#384949"><path d="m325.683594 235.339844-79.542969 79.546875 54.03125 54.03125-21.011719 21.011719-54.03125-54.03125v-42.023438l79.546875-79.542969c5.703125-6.003906 15.304688-6.003906 21.011719 0 6 5.703125 6 15.304688-.003906 21.007813zm0 0"/><path d="m355.703125 424.453125-34.519531-34.523437 19.511718-19.511719c6-5.703125 6-15.304688 0-21.011719-5.707031-6.003906-15.308593-6.003906-21.011718 0-3.746094 3.746094-63.039063 63.039062-60.035156 60.035156-6.003907 5.703125-6.003907 15.308594 0 21.011719 5.398437 6.003906 15.609374 6.003906 21.011718 0l19.511719-19.511719 34.519531 34.519532c5.398438 6.003906 15.609375 6.007812 21.011719 0 6.003906-5.703126 6.003906-15.304688 0-21.007813zm0 0"/></g></svg>