<svg height="512pt" viewBox="-91 0 512 512" width="512pt" xmlns="http://www.w3.org/2000/svg"><path d="m330.042969 495.5c.300781 4.199219-.898438 8.398438-3.898438 11.699219-2.699219 3-6.898437 4.800781-11.101562 4.800781h-120c-7.199219 0-13.5-5.398438-14.699219-12.597656l-15.300781-91.203125-15.296875 91.199219c-1.203125 7.203124-7.5 12.601562-14.703125 12.601562h-120c-4.199219 0-8.398438-1.800781-11.097657-4.800781-3-3.300781-4.199218-7.5-3.9023432-11.699219l24.0000002-238.5 141-15 141 15zm0 0" fill="#ff5e95"/><path d="m330.042969 495.5c.300781 4.199219-.898438 8.398438-3.898438 11.699219-2.699219 3-6.898437 4.800781-11.101562 4.800781h-120c-7.199219 0-13.5-5.398438-14.699219-12.597656l-15.300781-91.203125v-166.199219l141 15zm0 0" fill="#ff0059"/><path d="m105.042969 212h-60c-8.289063 0-15-6.710938-15-15v-182c0-8.289062 6.710937-15 15-15h60c8.292969 0 15 6.710938 15 15v182c0 8.289062-6.707031 15-15 15zm0 0" fill="#ff5e95"/><path d="m285.042969 212h-60c-8.289063 0-15-6.710938-15-15v-182c0-8.289062 6.710937-15 15-15h60c8.292969 0 15 6.710938 15 15v182c0 8.289062-6.707031 15-15 15zm0 0" fill="#ff0059"/><path d="m306.042969 257h-282l6-61.5h270zm0 0" fill="#4a696f"/><path d="m306.042969 257h-141v-61.5h135zm0 0" fill="#384949"/></svg>