<svg height="512pt" viewBox="-31 0 512 512" width="512pt" xmlns="http://www.w3.org/2000/svg"><path d="m435 0h-300c-8.402344 0-15 6.597656-15 15v422c0 8.402344 6.597656 15 15 15h300c8.402344 0 15-6.597656 15-15v-422c0-8.402344-6.597656-15-15-15zm0 0" fill="#fbe000"/><path d="m450 15v422c0 8.402344-6.597656 15-15 15h-150v-452h150c8.402344 0 15 6.597656 15 15zm0 0" fill="#fdbf00"/><path d="m396.898438 90.800781c-1.5-3.601562-4.5-6.601562-8.097657-8.101562-33-13.5-68.402343-20.398438-103.800781-20.398438s-70.800781 6.898438-103.800781 20.398438c-3.601563 1.5-6.597657 4.5-8.097657 8.101562-1.503906 3.898438-1.503906 7.796875 0 11.699219l46.199219 110.699219c2.996094 7.5 12 11.101562 19.5 8.101562 14.699219-6.300781 30.597657-9.300781 46.199219-9.300781 15.597656 0 31.5 3 46.199219 9.300781 1.796875.601563 3.898437 1.199219 5.699219 1.199219 6 0 11.398437-3.601562 13.800781-9.300781l46.199219-110.699219c1.503906-3.902344 1.503906-7.800781 0-11.699219zm0 0" fill="#4a696f"/><path d="m396.898438 102.5-46.199219 110.699219c-2.398438 5.699219-7.800781 9.300781-13.800781 9.300781-1.800782 0-3.898438-.601562-5.699219-1.199219-14.699219-6.300781-30.597657-9.300781-46.199219-9.300781v-149.699219c35.398438 0 70.800781 6.898438 103.800781 20.398438 3.601563 1.5 6.597657 4.5 8.097657 8.101562 1.503906 3.898438 1.503906 7.796875 0 11.699219zm0 0" fill="#384949"/><path d="m363.300781 105.199219-34.800781 83.398437c-9.300781-2.996094-18.898438-4.796875-28.5-5.996094-4.800781-.300781-9.902344-.601562-15-.601562s-10.199219.300781-15 .601562c-9.601562 1.199219-19.199219 2.996094-28.5 5.996094l-34.800781-83.398437c25.199219-8.699219 51.300781-13.199219 78.300781-13.199219s53.101562 4.5 78.300781 13.199219zm0 0" fill="#f2f6fc"/><path d="m363.300781 105.199219-34.800781 83.398437c-14.101562-4.496094-28.5-6.597656-43.5-6.597656v-90c27 0 53.101562 4.5 78.300781 13.199219zm0 0" fill="#dce1eb"/><path d="m300 137v45.601562c-4.800781-.300781-9.902344-.601562-15-.601562s-10.199219.300781-15 .601562v-45.601562c0-8.402344 6.597656-15 15-15s15 6.597656 15 15zm0 0" fill="#ff4949"/><path d="m300 137v45.601562c-4.800781-.300781-9.902344-.601562-15-.601562v-60c8.402344 0 15 6.597656 15 15zm0 0" fill="#cc2e43"/><path d="m285 242c-41.398438 0-75 33.601562-75 75s33.601562 75 75 75 75-33.601562 75-75-33.601562-75-75-75zm0 0" fill="#4a696f"/><path d="m360 317c0 41.398438-33.601562 75-75 75v-150c41.398438 0 75 33.601562 75 75zm0 0" fill="#384949"/><path d="m330 317c0 24.902344-20.097656 45-45 45s-45-20.097656-45-45 20.097656-45 45-45 45 20.097656 45 45zm0 0" fill="#384949"/><path d="m330 317c0 24.902344-20.097656 45-45 45v-90c24.902344 0 45 20.097656 45 45zm0 0" fill="#293939"/><path d="m338.101562 285.199219-84.902343 84.902343c-6 5.699219-15.300781 5.699219-21.300781 0-5.699219-6-5.699219-15.300781 0-21.300781l84.902343-84.902343c6-5.699219 15.300781-5.699219 21.300781 0 5.699219 6 5.699219 15.300781 0 21.300781zm0 0" fill="#4a696f"/><path d="m338.101562 285.199219-53.101562 53.101562v-42.601562l31.800781-31.800781c6-5.699219 15.300781-5.699219 21.300781 0 5.699219 6 5.699219 15.300781 0 21.300781zm0 0" fill="#384949"/><path d="m390 377v120c0 8.402344-6.597656 15-15 15h-330c-8.402344 0-15-6.597656-15-15v-90c0-8.402344 6.597656-15 15-15s15 6.597656 15 15v75h120v-105c0-8.402344 6.597656-15 15-15s15 6.597656 15 15v105h150v-105c0-8.402344 6.597656-15 15-15s15 6.597656 15 15zm0 0" fill="#384949"/><path d="m45 92c-8.289062 0-15-6.710938-15-15v-62c0-8.289062 6.710938-15 15-15s15 6.710938 15 15v62c0 8.289062-6.710938 15-15 15zm0 0" fill="#dce1eb"/><path d="m75 212h-60c-8.289062 0-15-6.710938-15-15v-120c0-8.289062 6.710938-15 15-15h60c8.289062 0 15 6.710938 15 15v120c0 8.289062-6.710938 15-15 15zm0 0" fill="#60d9d4"/><path d="m45 302c-8.289062 0-15-6.710938-15-15v-90c0-8.289062 6.710938-15 15-15s15 6.710938 15 15v90c0 8.289062-6.710938 15-15 15zm0 0" fill="#dce1eb"/><path d="m75 422h-60c-8.289062 0-15-6.710938-15-15v-120c0-8.289062 6.710938-15 15-15h60c8.289062 0 15 6.710938 15 15v120c0 8.289062-6.710938 15-15 15zm0 0" fill="#ff0059"/><path d="m390 377v120c0 8.402344-6.597656 15-15 15h-90v-30h75v-105c0-8.402344 6.597656-15 15-15s15 6.597656 15 15zm0 0" fill="#293939"/></svg>