<svg height="512pt" viewBox="0 0 512 512" width="512pt" xmlns="http://www.w3.org/2000/svg"><path d="m331 437v60c0 8.402344-6.597656 15-15 15h-120c-8.402344 0-15-6.597656-15-15v-60zm0 0" fill="#4a696f"/><path d="m331 437v60c0 8.402344-6.597656 15-15 15h-60v-75zm0 0" fill="#384949"/><path d="m467 422h-91c-8.289062 0-15 6.710938-15 15v60c0 8.289062 6.710938 15 15 15h91c8.289062 0 15-6.710938 15-15v-60c0-8.289062-6.710938-15-15-15zm0 0" fill="#384949"/><path d="m151 437c0-8.289062-6.710938-15-15-15h-91c-8.289062 0-15 6.710938-15 15v60c0 8.289062 6.710938 15 15 15h91c8.289062 0 15-6.710938 15-15zm0 0" fill="#4a696f"/><path d="m459.527344 327.796875-104.152344-82.515625c-6.476562-5.15625-15.894531-4.070312-21.09375 2.34375l-3.28125 189.375 30 15h136c8.289062 0 15-6.710938 15-15 0-42.699219-19.132812-82.5-52.472656-109.203125zm0 0" fill="#ff0059"/><path d="m177.71875 247.625c-5.171875-6.445312-14.605469-7.515625-21.09375-2.34375l-104.152344 82.53125c-33.339844 26.6875-52.472656 66.488281-52.472656 109.1875 0 8.289062 6.710938 15 15 15h136l30-15zm0 0" fill="#ff5e95"/><path d="m256 180-105 15v257h210v-257zm0 0" fill="#f2f6fc"/><path d="m361 195v257h-105v-272zm0 0" fill="#dce1eb"/><path d="m256 272c-24.902344 0-45 20.097656-45 45s20.097656 45 45 45 45-20.097656 45-45-20.097656-45-45-45zm0 0" fill="#92e6e1"/><path d="m301 317c0 24.902344-20.097656 45-45 45v-90c24.902344 0 45 20.097656 45 45zm0 0" fill="#60d9d4"/><path d="m361 176.398438v18.601562h-210v-18.601562c0-108.296876 92.699219-171.300782 96.597656-174 2.402344-1.796876 5.402344-2.398438 8.402344-2.398438s6 .601562 8.402344 2.402344c3.898437 2.695312 96.597656 65.699218 96.597656 173.996094zm0 0" fill="#ff5e95"/><path d="m361 176.398438v18.601562h-105v-195c3 0 6 .601562 8.402344 2.402344 3.898437 2.695312 96.597656 65.699218 96.597656 173.996094zm0 0" fill="#ff0059"/></svg>