<svg height="512pt" viewBox="-31 0 512 512" width="512pt" xmlns="http://www.w3.org/2000/svg"><path d="m450 375c0 16.5-13.5 30-30 30l-195 30-195-30c-16.5 0-30-13.5-30-30s13.5-30 30-30l195-30 195 30c16.5 0 30 13.5 30 30zm0 0" fill="#ff0059"/><path d="m450 255c0 16.5-13.5 30-30 30l-195 30-195-30c-16.5 0-30-13.5-30-30s13.5-30 30-30l195-30 195 30c16.5 0 30 13.5 30 30zm0 0" fill="#ff0059"/><path d="m450 375c0 16.5-13.5 30-30 30l-195 30v-120l195 30c16.5 0 30 13.5 30 30zm0 0" fill="#e50048"/><path d="m420 285-195 30v-120l195 30c16.5 0 30 13.5 30 30s-13.5 30-30 30zm0 0" fill="#e50048"/><path d="m450 435c0 20.699219-8.402344 41.601562-21.898438 55.097656-13.5 13.5-32.402343 21.902344-53.101562 21.902344h-300c-41.398438 0-75-35.601562-75-77 0-16.5 13.5-30 30-30h390c16.5 0 30 13.5 30 30zm0 0" fill="#fdbf00"/><path d="m450 435c0 20.699219-8.402344 41.601562-21.898438 55.097656-13.5 13.5-32.402343 21.902344-53.101562 21.902344h-150v-107h195c16.5 0 30 13.5 30 30zm0 0" fill="#ff9100"/><path d="m250.5 340.5-75 75c-2.699219 3-6.601562 4.5-10.5 4.5s-7.800781-1.5-10.5-4.5l-75-75c-6-5.699219-6-15.300781 0-21h171c6 5.699219 6 15.300781 0 21zm0 0" fill="#fbe000"/><path d="m250.5 340.5-25.5 25.5v-46.5h25.5c6 5.699219 6 15.300781 0 21zm0 0" fill="#fdbf00"/><path d="m450 315c0 16.5-13.5 30-30 30h-390c-16.5 0-30-13.5-30-30s13.5-30 30-30h390c16.5 0 30 13.5 30 30zm0 0" fill="#ff5e95"/><path d="m450 315c0 16.5-13.5 30-30 30h-195v-60h195c16.5 0 30 13.5 30 30zm0 0" fill="#ff0059"/><path d="m381 210-85.5 85.5c-2.699219 3-6.601562 4.5-10.5 4.5s-7.800781-1.5-10.5-4.5l-75-75c-3-2.699219-4.5-6.601562-4.5-10.5zm0 0" fill="#61d7b0"/><path d="m381 210-85.5 85.5c-2.699219 3-6.601562 4.5-10.5 4.5s-7.800781-1.5-10.5-4.5l-49.5-49.5v-36zm0 0" fill="#06ccab"/><path d="m450 195c0 16.5-13.5 30-30 30h-390c-16.5 0-30-13.5-30-30 0-54 21.898438-102.597656 57-138 35.402344-35.101562 84-57 138-57h60c107.699219 0 195 87.300781 195 195zm0 0" fill="#fdbf00"/><path d="m450 195c0 16.5-13.5 30-30 30h-195v-225h30c107.699219 0 195 87.300781 195 195zm0 0" fill="#ff9100"/><path d="m240 75c0 8.402344-6.597656 15-15 15s-15-6.597656-15-15 6.597656-15 15-15 15 6.597656 15 15zm0 0" fill="#fbe000"/><path d="m300 105c0 8.285156-6.714844 15-15 15s-15-6.714844-15-15 6.714844-15 15-15 15 6.714844 15 15zm0 0" fill="#fdbf00"/><path d="m360 135c0 8.285156-6.714844 15-15 15s-15-6.714844-15-15 6.714844-15 15-15 15 6.714844 15 15zm0 0" fill="#fdbf00"/><g fill="#fbe000"><path d="m120 135c0 8.285156-6.714844 15-15 15s-15-6.714844-15-15 6.714844-15 15-15 15 6.714844 15 15zm0 0"/><path d="m240 135c0 8.398438-6.597656 15-15 15s-15-6.601562-15-15c0-8.402344 6.597656-15 15-15s15 6.597656 15 15zm0 0"/><path d="m180 105c0 8.285156-6.714844 15-15 15s-15-6.714844-15-15 6.714844-15 15-15 15 6.714844 15 15zm0 0"/></g><path d="m240 135c0 8.398438-6.597656 15-15 15v-30c8.402344 0 15 6.597656 15 15zm0 0" fill="#fdbf00"/><path d="m225 90v-30c8.402344 0 15 6.597656 15 15s-6.597656 15-15 15zm0 0" fill="#fdbf00"/></svg>