<svg height="512pt" viewBox="-31 0 512 512" width="512pt" xmlns="http://www.w3.org/2000/svg"><path d="m450 15v422c0 8.398438-6.597656 15-15 15h-90c-8.402344 0-15-6.601562-15-15l-240-360v-62c0-8.402344 6.597656-15 15-15h330c8.402344 0 15 6.597656 15 15zm0 0" fill="#4a696f"/><path d="m450 15v422c0 8.398438-6.597656 15-15 15h-90c-8.402344 0-15-6.601562-15-15l-60-90v-347h165c8.402344 0 15 6.597656 15 15zm0 0" fill="#384949"/><path d="m360 167v330c0 8.398438-6.597656 15-15 15h-330c-8.402344 0-15-6.601562-15-15v-420c0-8.402344 6.597656-15 15-15h240l15 90zm0 0" fill="#f2f6fc"/><path d="m360 167v330c0 8.398438-6.597656 15-15 15h-240v-450h150l15 90zm0 0" fill="#dce1eb"/><g fill="#61d7b0"><path d="m175.5 147.5-60 60c-2.699219 3-6.601562 4.5-10.5 4.5s-7.800781-1.5-10.5-4.5l-30-30c-6-5.699219-6-15.300781 0-21 5.699219-6 15.300781-6 21 0l19.5 19.199219 49.503906-49.199219c5.699219-6 15.296875-6 20.996094 0 6 5.699219 6 15.300781 0 21zm0 0"/><path d="m175.5 267.5-60 60c-2.699219 3-6.601562 4.5-10.5 4.5s-7.800781-1.5-10.5-4.5l-30-30c-6-5.699219-6-15.300781 0-21 5.699219-6 15.300781-6 21 0l19.5 19.199219 49.503906-49.199219c5.699219-6 15.296875-6 20.996094 0 6 5.699219 6 15.300781 0 21zm0 0"/><path d="m175.5 387.5-60 60c-2.699219 3-6.601562 4.5-10.5 4.5s-7.800781-1.5-10.5-4.5l-30-30c-6-5.699219-6-15.300781 0-21 5.699219-6 15.300781-6 21 0l19.5 19.199219 49.503906-49.199219c5.699219-6 15.296875-6 20.996094 0 6 5.699219 6 15.300781 0 21zm0 0"/></g><path d="m285 422h-60c-8.289062 0-15-6.710938-15-15s6.710938-15 15-15h60c8.289062 0 15 6.710938 15 15s-6.710938 15-15 15zm0 0" fill="#bec3d2"/><path d="m285 302h-60c-8.289062 0-15-6.710938-15-15s6.710938-15 15-15h60c8.289062 0 15 6.710938 15 15s-6.710938 15-15 15zm0 0" fill="#bec3d2"/><path d="m355.574219 156.351562-89.96875-89.957031c-2.8125-2.8125-6.621094-4.394531-10.605469-4.394531v105h105c0-.015625 0-.027344 0-.042969-.015625-4.144531-1.699219-7.894531-4.425781-10.605469zm0 0" fill="#bec3d2"/><path d="m175.5 366.5c6 5.699219 6 15.300781 0 21l-60 60c-2.699219 3-6.601562 4.5-10.5 4.5v-36.300781l49.5-49.199219c5.699219-6 15.300781-6 21 0zm0 0" fill="#06ccab"/><path d="m175.5 246.5c6 5.699219 6 15.300781 0 21l-60 60c-2.699219 3-6.601562 4.5-10.5 4.5v-36.300781l49.5-49.199219c5.699219-6 15.300781-6 21 0zm0 0" fill="#06ccab"/><path d="m115.5 207.5c-2.699219 3-6.601562 4.5-10.5 4.5v-36.300781l49.5-49.199219c5.699219-6 15.300781-6 21 0 6 5.699219 6 15.300781 0 21zm0 0" fill="#06ccab"/></svg>