<svg height="512pt" viewBox="-61 0 512 512.0005" width="512pt" xmlns="http://www.w3.org/2000/svg"><path d="m330 0h-90c-8.289062 0-15 6.710938-15 15v122c0 8.292969 6.710938 15 15 15h90c8.292969 0 15-6.707031 15-15v-122c0-8.289062-6.707031-15-15-15zm0 0" fill="#4a696f"/><path d="m178.417969 130.292969-60-122.667969c-5.097657-10.167969-21.738281-10.167969-26.835938 0l-60 122.667969c-3.707031 7.410156-.703125 16.417969 6.710938 20.125l126.722656 1.582031c11.046875 0 18.414063-11.683594 13.402344-21.707031zm0 0" fill="#fdbf00"/><path d="m390 137c0-8.402344-6.597656-15-15-15h-360c-8.402344 0-15 6.597656-15 15v45l15.902344 15-15.902344 15v225c0 6.597656 4.199219 12.300781 10.203125 14.097656l180 60c1.496094.601563 3.296875.902344 4.796875.902344s3.300781-.300781 4.800781-.902344l180-60c6-1.796875 10.199219-7.5 10.199219-14.097656v-225l-20.699219-15 20.699219-15zm0 0" fill="#92e6e1"/><path d="m390 182-20.699219 15 20.699219 15v225c0 6.597656-4.199219 12.300781-10.199219 14.097656l-180 60c-1.5.601563-3.300781.902344-4.800781.902344v-390h180c8.402344 0 15 6.597656 15 15zm0 0" fill="#60d9d4"/><path d="m285 242c-8.289062 0-15-6.707031-15-15v-150c0-8.289062 6.710938-15 15-15 8.292969 0 15 6.710938 15 15v150c0 8.292969-6.707031 15-15 15zm0 0" fill="#293939"/><path d="m90 197c0 8.398438-6.597656 15-15 15h-75v-30h75c8.402344 0 15 6.597656 15 15zm0 0" fill="#60d9d4"/><path d="m240 197c0 8.398438-6.597656 15-15 15h-60c-8.402344 0-15-6.601562-15-15 0-8.402344 6.597656-15 15-15h60c8.402344 0 15 6.597656 15 15zm0 0" fill="#60d9d4"/><g fill="#1cadb5"><path d="m240 197c0 8.398438-6.597656 15-15 15h-30v-30h30c8.402344 0 15 6.597656 15 15zm0 0"/><path d="m390 182v30h-75c-8.402344 0-15-6.601562-15-15 0-8.402344 6.597656-15 15-15zm0 0"/></g></svg>