<svg height="512pt" viewBox="0 -16 512.00034 512" width="512pt" xmlns="http://www.w3.org/2000/svg"><path d="m360.992188 44.996094-15 44.996094h-330.976563c-8.398437 0-14.9960938-6.597657-14.9960938-14.996094v-59.996094c0-8.402344 6.5976568-15 14.9960938-15h330.976563zm0 0" fill="#384949"/><path d="m360.992188 44.996094-15 44.996094h-89.992188v-89.992188h89.992188zm0 0" fill="#293939"/><path d="m420.988281 463.46875c.667969 9.332031-6.199219 16.496094-15 16.496094h-299.976562c-8.828125 0-15.667969-7.1875-15-16.496094l24-238.484375 140.988281-15 140.988281 15zm0 0" fill="#4a696f"/><path d="m420.988281 463.46875c.667969 9.332031-6.199219 16.496094-15 16.496094h-149.988281v-269.980469l140.988281 15zm0 0" fill="#384949"/><path d="m510.480469 201.585938c-2.699219 5.398437-8.097657 8.398437-13.496094 8.398437-2.402344 0-4.5-.597656-6.601563-1.5-30.296874-14.996094-64.292968-23.996094-97.59375-26.996094l4.203126 43.496094h-281.980469l4.199219-43.496094c-33.300782 2.996094-67.296876 12-97.59375 26.996094-7.199219 3.601563-16.199219.601563-20.097657-6.898437-3.601562-7.199219-.601562-16.199219 6.898438-20.097657 38.097656-18.898437 81.394531-29.398437 123.992187-30.898437 1.199219-.296875 9.898438-.597656 10.796875-.597656h225.585938c7.199219.296874 6.898437-.300782 10.496093.597656 42.898438 1.5 86.195313 12 124.292969 30.898437 7.5 3.898438 10.5 12.898438 6.898438 20.097657zm0 0" fill="#384949"/><path d="m510.480469 201.585938c-2.699219 5.398437-8.097657 8.398437-13.496094 8.398437-2.402344 0-4.5-.597656-6.601563-1.5-30.296874-14.996094-64.292968-23.996094-97.59375-26.996094l4.203126 43.496094h-140.992188v-74.996094h112.792969c7.199219.300781 6.898437-.300781 10.496093.601563 42.898438 1.5 86.195313 12 124.292969 30.898437 7.5 3.898438 10.5 12.898438 6.898438 20.097657zm0 0" fill="#293939"/><path d="m496.980469 0h-150.988281v89.992188h150.988281c8.292969 0 15-6.707032 15-14.996094v-59.996094c0-8.292969-6.707031-15-15-15zm0 0" fill="#fdbf00"/></svg>