<svg height="512pt" viewBox="-61 0 512 512" width="512pt" xmlns="http://www.w3.org/2000/svg"><path d="m330 255v90l-135 15-135-15v-90c0-8.402344 6.597656-15 15-15h240c8.402344 0 15 6.597656 15 15zm0 0" fill="#f2f6fc"/><path d="m330 255v90l-135 15v-120h120c8.402344 0 15 6.597656 15 15zm0 0" fill="#dce1eb"/><path d="m330 345v92c0 41.398438-33.601562 75-75 75h-120c-41.398438 0-75-33.601562-75-75v-92zm0 0" fill="#b3f2e7"/><path d="m330 345v92c0 41.398438-33.601562 75-75 75h-60v-167zm0 0" fill="#92e6e1"/><path d="m315 150h-60c-8.289062 0-15-6.710938-15-15v-60c0-41.351562 33.648438-75 75-75h60c8.289062 0 15 6.710938 15 15v60c0 41.351562-33.648438 75-75 75zm0 0" fill="#06ccab"/><path d="m135 210h-60c-41.351562 0-75-33.648438-75-75v-60c0-8.289062 6.710938-15 15-15h60c41.351562 0 75 33.648438 75 75v60c0 8.289062-6.710938 15-15 15zm0 0" fill="#61d7b0"/><path d="m325.5 85.5-115.5 115.800781v203.699219c0 8.398438-6.597656 15-15 15s-15-6.601562-15-15v-143.699219l-115.5-115.800781c-6-5.699219-6-15.300781 0-21 5.699219-6 15.300781-6 21 0l94.5 94.199219v-143.699219c0-8.402344 6.601562-15 15-15 8.402344 0 15 6.597656 15 15v83.699219l94.503906-94.199219c5.699219-6 15.296875-6 20.996094 0 6 5.699219 6 15.300781 0 21zm0 0" fill="#61d7b0"/><path d="m325.5 85.5-115.5 115.800781v203.699219c0 8.398438-6.597656 15-15 15v-360c8.402344 0 15 6.597656 15 15v83.699219l94.5-94.199219c5.699219-6 15.300781-6 21 0 6 5.699219 6 15.300781 0 21zm0 0" fill="#06ccab"/></svg>