<svg height="512pt" viewBox="-61 0 512 512" width="512pt" xmlns="http://www.w3.org/2000/svg"><path d="m375 0h-60c-8.402344 0-15 6.597656-15 15v46h-210v-46c0-8.402344-6.597656-15-15-15h-60c-8.402344 0-15 6.597656-15 15v482c0 8.398438 6.597656 15 15 15h60c8.402344 0 15-6.601562 15-15v-46h210v46c0 8.398438 6.597656 15 15 15h60c8.402344 0 15-6.601562 15-15v-482c0-8.402344-6.597656-15-15-15zm0 0" fill="#384949"/><path d="m390 15v482c0 8.398438-6.597656 15-15 15h-60c-8.402344 0-15-6.601562-15-15v-46h-105v-390h105v-46c0-8.402344 6.597656-15 15-15h60c8.402344 0 15 6.597656 15 15zm0 0" fill="#293939"/><path d="m30 31h30v450h-30zm0 0" fill="#fbe000"/><g fill="#384949"><path d="m75 151h-60c-8.289062 0-15-6.710938-15-15s6.710938-15 15-15h60c8.289062 0 15 6.710938 15 15s-6.710938 15-15 15zm0 0"/><path d="m75 91h-60c-8.289062 0-15-6.710938-15-15s6.710938-15 15-15h60c8.289062 0 15 6.710938 15 15s-6.710938 15-15 15zm0 0"/><path d="m75 211h-60c-8.289062 0-15-6.710938-15-15s6.710938-15 15-15h60c8.289062 0 15 6.710938 15 15s-6.710938 15-15 15zm0 0"/><path d="m75 331h-60c-8.289062 0-15-6.710938-15-15s6.710938-15 15-15h60c8.289062 0 15 6.710938 15 15s-6.710938 15-15 15zm0 0"/><path d="m75 391h-60c-8.289062 0-15-6.710938-15-15s6.710938-15 15-15h60c8.289062 0 15 6.710938 15 15s-6.710938 15-15 15zm0 0"/><path d="m75 451h-60c-8.289062 0-15-6.710938-15-15s6.710938-15 15-15h60c8.289062 0 15 6.710938 15 15s-6.710938 15-15 15zm0 0"/></g><path d="m330 31h30v450h-30zm0 0" fill="#fdbf00"/><path d="m375 151h-60c-8.289062 0-15-6.710938-15-15s6.710938-15 15-15h60c8.289062 0 15 6.710938 15 15s-6.710938 15-15 15zm0 0" fill="#293939"/><path d="m375 91h-60c-8.289062 0-15-6.710938-15-15s6.710938-15 15-15h60c8.289062 0 15 6.710938 15 15s-6.710938 15-15 15zm0 0" fill="#293939"/><path d="m375 211h-60c-8.289062 0-15-6.710938-15-15s6.710938-15 15-15h60c8.289062 0 15 6.710938 15 15s-6.710938 15-15 15zm0 0" fill="#293939"/><path d="m375 331h-60c-8.289062 0-15-6.710938-15-15s6.710938-15 15-15h60c8.289062 0 15 6.710938 15 15s-6.710938 15-15 15zm0 0" fill="#293939"/><path d="m375 391h-60c-8.289062 0-15-6.710938-15-15s6.710938-15 15-15h60c8.289062 0 15 6.710938 15 15s-6.710938 15-15 15zm0 0" fill="#293939"/><path d="m375 451h-60c-8.289062 0-15-6.710938-15-15s6.710938-15 15-15h60c8.289062 0 15 6.710938 15 15s-6.710938 15-15 15zm0 0" fill="#293939"/><path d="m90 91h210v330h-210zm0 0" fill="#fbe000"/><path d="m195 91h105v330h-105zm0 0" fill="#fdbf00"/><path d="m390 256c0 8.398438-6.597656 15-15 15h-360c-8.402344 0-15-6.601562-15-15 0-8.402344 6.597656-15 15-15h360c8.402344 0 15 6.597656 15 15zm0 0" fill="#384949"/><path d="m390 256c0 8.398438-6.597656 15-15 15h-180v-30h180c8.402344 0 15 6.597656 15 15zm0 0" fill="#293939"/></svg>