<svg height="512pt" viewBox="0 -91 512.00025 512" width="512pt" xmlns="http://www.w3.org/2000/svg"><path d="m151.890625 261.484375-29.976563-59.945313c-3.703124-7.40625-.703124-16.410156 6.703126-20.113281 7.390624-3.6875 16.394531-.6875 20.109374 6.703125l29.976563 59.949219c3.703125 7.40625.703125 16.410156-6.703125 20.109375-7.480469 3.71875-16.425781.648438-20.109375-6.703125zm0 0" fill="#384949"/><path d="m54.28125 166.441406-49.101562 98.207032c-7.480469 14.972656-6.835938 31.042968 1.785156 44.097656 8.574218 12.980468 23.839844 21.03125 39.472656 21.03125 17.21875 0 31.476562-9.515625 39.179688-24.910156l53.277343-106.535157zm0 0" fill="#4a696f"/><path d="m165.296875 0c-84.230469 0-151.972656 38.367188-163.0625 89.921875l16.785156 14.988281-16.785156 14.988282c11.089844 51.554687 78.832031 89.921874 163.0625 89.921874 92.320313 0 164.859375-46.160156 164.859375-104.910156s-72.539062-104.910156-164.859375-104.910156zm0 0" fill="#92e6e1"/><path d="m330.15625 104.910156c0 58.75-72.539062 104.910156-164.859375 104.910156-84.230469 0-151.972656-38.367187-163.0625-89.921874l16.785156-14.988282zm0 0" fill="#60d9d4"/><path d="m452.050781 104.910156c0 8.390625-6.59375 14.988282-14.988281 14.988282h-121.894531c-8.394531 0-14.988281-6.597657-14.988281-14.988282 0-8.394531 6.59375-14.988281 14.988281-14.988281h121.894531c8.394531 0 14.988281 6.59375 14.988281 14.988281zm0 0" fill="#384949"/><path d="m452.050781 104.910156c0 8.390625-6.59375 14.988282-14.988281 14.988282h-121.894531c-8.394531 0-14.988281-6.597657-14.988281-14.988282zm0 0" fill="#293939"/><path d="m390.105469 44.960938v119.898437c0 8.390625-6.59375 14.988281-14.988281 14.988281-8.394532 0-14.988282-6.597656-14.988282-14.988281v-119.898437c0-8.394532 6.59375-14.988282 14.988282-14.988282 8.394531 0 14.988281 6.59375 14.988281 14.988282zm0 0" fill="#4a696f"/><path d="m390.105469 104.910156v59.949219c0 8.390625-6.59375 14.988281-14.988281 14.988281-8.394532 0-14.988282-6.597656-14.988282-14.988281v-59.949219zm0 0" fill="#384949"/><path d="m467.039062 59.949219c-24.878906 0-44.960937 20.082031-44.960937 44.960937s20.082031 44.960938 44.960937 44.960938c24.878907 0 44.960938-20.082032 44.960938-44.960938s-20.082031-44.960937-44.960938-44.960937zm0 0" fill="#92e6e1"/><path d="m512 104.910156c0 24.878906-20.082031 44.960938-44.960938 44.960938-24.878906 0-44.960937-20.082032-44.960937-44.960938zm0 0" fill="#60d9d4"/><path d="m210.257812 104.910156c0 24.878906-20.082031 44.960938-44.960937 44.960938-19.484375 0-35.96875-12.589844-42.261719-29.972656h-120.800781c-1.195313-4.796876-1.796875-9.894532-1.796875-14.988282 0-5.097656.601562-10.191406 1.796875-14.988281h120.800781c6.292969-17.382813 22.777344-29.972656 42.261719-29.972656 24.878906 0 44.960937 20.082031 44.960937 44.960937zm0 0" fill="#fff35c"/><path d="m210.257812 104.910156c0 24.878906-20.082031 44.960938-44.960937 44.960938-19.484375 0-35.96875-12.589844-42.261719-29.972656h-120.800781c-1.195313-4.796876-1.796875-9.894532-1.796875-14.988282zm0 0" fill="#fdbf00"/><path d="m330.15625 14.988281v179.84375c0 8.394531-6.59375 14.988281-14.988281 14.988281s-14.988281-6.59375-14.988281-14.988281v-179.84375c0-8.394531 6.59375-14.988281 14.988281-14.988281s14.988281 6.59375 14.988281 14.988281zm0 0" fill="#4a696f"/><path d="m330.15625 104.910156v89.921875c0 8.394531-6.59375 14.988281-14.988281 14.988281s-14.988281-6.59375-14.988281-14.988281v-89.921875zm0 0" fill="#384949"/><path d="m270.207031 104.910156c0 8.390625-6.59375 14.988282-14.988281 14.988282s-14.988281-6.597657-14.988281-14.988282c0-8.394531 6.59375-14.988281 14.988281-14.988281s14.988281 6.59375 14.988281 14.988281zm0 0" fill="#4a696f"/><path d="m270.207031 104.910156c0 8.390625-6.59375 14.988282-14.988281 14.988282s-14.988281-6.597657-14.988281-14.988282zm0 0" fill="#384949"/></svg>