<svg height="512pt" viewBox="-61 0 512 512" width="512pt" xmlns="http://www.w3.org/2000/svg"><path d="m269.972656 437c0 41.398438-33.601562 75-75 75-41.402344 0-75-33.601562-75-75 0-8.402344 6.597656-15 15-15h120c8.398438 0 15 6.597656 15 15zm0 0" fill="#4a696f"/><path d="m269.972656 437c0 41.398438-33.601562 75-75 75v-90h60c8.398438 0 15 6.597656 15 15zm0 0" fill="#384949"/><path d="m194.972656 0c-97.671875 0-178.492187 74.011719-192.601562 163.800781-12 77.699219 22.199218 153.597657 87.601562 195.300781v47.898438c0 24.898438 20.097656 45 45 45h120c24.898438 0 45-20.101562 45-45v-47.898438c55.800782-35.703124 90-97.800781 90-164.101562 0-108.300781-88.199218-195-195-195zm0 0" fill="#fbe000"/><path d="m389.972656 195c0 66.300781-34.199218 128.398438-90 164.097656v47.902344c0 24.898438-20.101562 45-45 45h-60v-452c106.796875 0 195 86.699219 195 195zm0 0" fill="#fdbf00"/><path d="m299.972656 225c0 40.800781-23.722656 77.679688-60 94.890625v132.109375h-30v-142.128906c0-6.351563 4.007813-12.019532 10-14.152344 29.898438-10.558594 50-38.980469 50-70.71875 0-8.289062 6.707032-15 15-15 8.289063 0 15 6.710938 15 15zm0 0" fill="#ffd236"/><path d="m179.972656 309.871094v142.128906h-30v-132.109375c-36.28125-17.210937-60-54.089844-60-94.890625 0-8.289062 6.707032-15 15-15 8.289063 0 15 6.710938 15 15 0 31.738281 20.097656 60.160156 49.988282 70.71875 6 2.132812 10.011718 7.800781 10.011718 14.152344zm0 0" fill="#fff35c"/><path d="m329.972656 225c0 8.398438-6.601562 15-15 15h-30c-3.902344 0-7.800781-1.5-10.5-4.5l-19.5-19.199219-19.503906 19.199219c-6.507812 7.234375-19.574219 5.578125-24-3.902344l-16.5-32.996094-16.5 32.996094c-4.382812 9.398438-17.371094 11.128906-24 3.902344l-19.5-19.199219-19.5 19.199219c-2.699219 3-6.597656 4.5-10.5 4.5h-30c-8.398438 0-15-6.601562-15-15 0-8.402344 6.601562-15 15-15h23.699219l25.800781-25.5c5.699219-6 15.300781-6 21 0l15.300781 15.300781 20.699219-41.402343c2.699219-5.097657 8.101562-7.800782 13.5-7.800782s10.800781 2.703125 13.5 7.800782l20.699219 41.402343 15.300781-15.300781c5.699219-6 15.296875-6 21 0l25.804688 25.5h23.695312c8.402344 0 15.003906 6.597656 15.003906 15zm0 0" fill="#fff35c"/><path d="m329.972656 225c0 8.398438-6.601562 15-15 15h-30c-3.902344 0-7.800781-1.5-10.5-4.5l-19.5-19.199219-19.503906 19.199219c-6.507812 7.234375-19.574219 5.578125-24-3.902344l-16.5-32.996094v-48.003906c5.402344 0 10.800781 2.703125 13.5 7.800782l20.703125 41.402343 15.296875-15.300781c5.703125-6 15.300781-6 21 0l25.804688 25.5h23.695312c8.402344 0 15.003906 6.597656 15.003906 15zm0 0" fill="#ffd236"/></svg>