<svg height="512pt" viewBox="-91 0 512 512" width="512pt" xmlns="http://www.w3.org/2000/svg"><path d="m330.644531 76.148438v300.585937l-165.320312 15.03125-165.324219-15.03125v-300.585937l165.324219-18.4375zm0 0" fill="#4a696f"/><path d="m330.644531 76.148438v300.585937l-165.320312 15.03125v-334.054687zm0 0" fill="#384949"/><path d="m330.644531 376.734375v120.234375c0 8.417969-6.609375 15.03125-15.027343 15.03125h-300.585938c-8.417969 0-15.03125-6.613281-15.03125-15.03125v-120.234375zm0 0" fill="#f2f6fc"/><path d="m330.644531 15.03125v61.117188h-330.644531v-61.117188c0-8.417969 6.613281-15.03125 15.03125-15.03125h300.585938c8.417968 0 15.027343 6.613281 15.027343 15.03125zm0 0" fill="#f2f6fc"/><path d="m330.644531 15.03125v61.117188h-165.320312v-76.148438h150.292969c8.417968 0 15.027343 6.613281 15.027343 15.03125zm0 0" fill="#dce1eb"/><path d="m165.324219 376.734375h165.320312v120.234375c0 8.417969-6.609375 15.03125-15.027343 15.03125h-150.292969zm0 0" fill="#dce1eb"/><path d="m135.265625 331.648438h-60.117187c-8.308594 0-15.03125-6.722657-15.03125-15.03125v-60.117188c0-8.304688 6.722656-15.027344 15.03125-15.027344h60.117187c8.304687 0 15.027344 6.722656 15.027344 15.027344v60.117188c0 8.308593-6.722657 15.03125-15.027344 15.03125zm0 0" fill="#92e6e1"/><path d="m255.5 331.648438h-60.117188c-8.308593 0-15.03125-6.722657-15.03125-15.03125v-60.117188c0-8.304688 6.722657-15.027344 15.03125-15.027344h60.117188c8.304688 0 15.027344 6.722656 15.027344 15.027344v60.117188c0 8.308593-6.722656 15.03125-15.027344 15.03125zm0 0" fill="#60d9d4"/><path d="m255.5 211.414062h-60.117188c-8.308593 0-15.03125-6.722656-15.03125-15.03125v-60.117187c0-8.308594 6.722657-15.027344 15.03125-15.027344h60.117188c8.304688 0 15.027344 6.71875 15.027344 15.027344v60.117187c0 8.308594-6.722656 15.03125-15.027344 15.03125zm0 0" fill="#60d9d4"/><path d="m135.265625 211.414062h-60.117187c-8.308594 0-15.03125-6.722656-15.03125-15.03125v-60.117187c0-8.308594 6.722656-15.027344 15.03125-15.027344h60.117187c8.304687 0 15.027344 6.71875 15.027344 15.027344v60.117187c0 8.308594-6.722657 15.03125-15.027344 15.03125zm0 0" fill="#92e6e1"/><path d="m195.382812 436.851562c0 8.417969-6.613281 15.03125-15.03125 15.03125h-30.058593c-8.417969 0-15.027344-6.613281-15.027344-15.03125 0-8.414062 6.609375-15.027343 15.027344-15.027343h30.058593c8.417969 0 15.03125 6.613281 15.03125 15.027343zm0 0" fill="#dce1eb"/><path d="m195.382812 436.851562c0 8.417969-6.613281 15.03125-15.03125 15.03125h-15.027343v-30.058593h15.027343c8.417969 0 15.03125 6.613281 15.03125 15.027343zm0 0" fill="#bec3d2"/></svg>