<svg height="512pt" viewBox="-91 0 512 512" width="512pt" xmlns="http://www.w3.org/2000/svg"><path d="m330 77v360h-14.699219l-150.300781 23.699219-165-23.699219v-360l165-19.402344zm0 0" fill="#fbe000"/><path d="m330 77v360h-14.699219l-150.300781 23.699219v-403.101563zm0 0" fill="#fdbf00"/><path d="m165 122c-57.898438 0-105 47.101562-105 105v60c0 57.898438 47.101562 105 105 105s105-47.101562 105-105v-60c0-57.898438-47.101562-105-105-105zm0 0" fill="#384949"/><path d="m270 227v60c0 57.898438-47.101562 105-105 105v-270c57.898438 0 105 47.101562 105 105zm0 0" fill="#293939"/><path d="m330 437c0 2.398438-.601562 4.5-1.5 6.597656l-30 60c-2.699219 5.101563-7.800781 8.402344-13.5 8.402344h-240c-5.699219 0-10.800781-3.300781-13.5-8.402344l-30-60c-.898438-2.097656-1.5-4.199218-1.5-6.597656zm0 0" fill="#4a696f"/><path d="m330 77h-330c0-2.402344.601562-4.5 1.5-6.601562l26.699219-55.398438h273.601562l26.699219 55.398438c.898438 2.101562 1.5 4.199218 1.5 6.601562zm0 0" fill="#4a696f"/><path d="m330 437c0 2.398438-.601562 4.5-1.5 6.597656l-30 60c-2.699219 5.101563-7.800781 8.402344-13.5 8.402344h-120v-75zm0 0" fill="#293939"/><path d="m330 77h-165v-62h136.800781l26.699219 55.398438c.898438 2.101562 1.5 4.199218 1.5 6.601562zm0 0" fill="#293939"/><path d="m330 15c0 8.398438-6.597656 15-15 15h-300c-8.402344 0-15-6.601562-15-15 0-8.402344 6.597656-15 15-15h300c8.402344 0 15 6.597656 15 15zm0 0" fill="#f2f6fc"/><path d="m330 15c0 8.398438-6.597656 15-15 15h-150v-30h150c8.402344 0 15 6.597656 15 15zm0 0" fill="#dce1eb"/><path d="m208.5 278.597656-30 60c-2.699219 5.402344-8.101562 8.402344-13.5 8.402344-2.402344 0-4.5-.601562-6.597656-1.5-7.5-3.898438-10.503906-12.902344-6.902344-20.101562l13.5-27 9.902344-19.800782-9.902344-4.796875-36.597656-18.300781c-7.5-3.898438-10.503906-12.902344-6.902344-20.101562l30-60c2.699219-5.398438 8.101562-8.398438 13.5-8.398438 2.402344 0 4.5.597656 6.597656 1.5 7.5 3.898438 10.503906 12.898438 6.902344 20.097656l-13.5 27.003906-9.902344 19.796876 9.902344 4.800781 36.597656 18.300781c7.5 3.898438 10.503906 12.898438 6.902344 20.097656zm0 0" fill="#fff35c"/><g fill="#ffd236"><path d="m178.5 188.597656-13.5 27.003906v-48.601562c2.402344 0 4.5.597656 6.597656 1.5 7.5 3.898438 10.503906 12.898438 6.902344 20.097656zm0 0"/><path d="m208.5 278.597656-30 60c-2.699219 5.402344-8.101562 8.402344-13.5 8.402344v-48.601562l9.902344-19.800782-9.902344-4.796875v-33.601562l36.597656 18.300781c7.5 3.898438 10.503906 12.898438 6.902344 20.097656zm0 0"/></g></svg>