<svg height="512pt" viewBox="0 -61 512 512" width="512pt" xmlns="http://www.w3.org/2000/svg"><path d="m106 0h-91c-8.289062 0-15 6.710938-15 15v60l46.875 15.9375 59.125-15.9375 11.25-37.5zm0 0" fill="#fdbf00"/><path d="m512 15v60l-224.199219 15.898438-31.800781-2.699219-150-13.199219v-75h391c8.402344 0 15 6.597656 15 15zm0 0" fill="#4a696f"/><path d="m512 15v60l-224.199219 15.898438-31.800781-2.699219v-88.199219h241c8.402344 0 15 6.597656 15 15zm0 0" fill="#384949"/><path d="m512 75v300c0 8.398438-6.597656 15-15 15h-482c-8.402344 0-15-6.601562-15-15v-300zm0 0" fill="#92e6e1"/><path d="m512 75v300c0 8.398438-6.597656 15-15 15h-241v-315zm0 0" fill="#60d9d4"/><path d="m76 300c-8.289062 0-15-6.710938-15-15v-120c0-8.289062 6.710938-15 15-15s15 6.710938 15 15v120c0 8.289062-6.710938 15-15 15zm0 0" fill="#4a696f"/><path d="m271 165v120c0 8.398438-6.597656 15-15 15s-15-6.601562-15-15v-120c0-8.402344 6.597656-15 15-15s15 6.597656 15 15zm0 0" fill="#4a696f"/><path d="m271 165v120c0 8.398438-6.597656 15-15 15v-150c8.402344 0 15 6.597656 15 15zm0 0" fill="#384949"/><path d="m316 300c-8.289062 0-15-6.710938-15-15v-120c0-8.289062 6.710938-15 15-15s15 6.710938 15 15v120c0 8.289062-6.710938 15-15 15zm0 0" fill="#384949"/><path d="m166 150c-24.902344 0-45 20.097656-45 45v60c0 24.898438 20.097656 45 45 45s45-20.101562 45-45v-60c0-24.902344-20.097656-45-45-45zm15 105c0 8.398438-6.597656 15-15 15s-15-6.601562-15-15v-60c0-8.402344 6.597656-15 15-15s15 6.597656 15 15zm0 0" fill="#4a696f"/><path d="m406 150c-24.902344 0-45 20.097656-45 45v60c0 24.898438 20.097656 45 45 45s45-20.101562 45-45v-60c0-24.902344-20.097656-45-45-45zm15 105c0 8.398438-6.597656 15-15 15s-15-6.601562-15-15v-60c0-8.402344 6.597656-15 15-15s15 6.597656 15 15zm0 0" fill="#384949"/></svg>