<svg height="511pt" viewBox="-61 0 511 511.99996" width="511pt" xmlns="http://www.w3.org/2000/svg"><path d="m390.460938 15v451.953125c0 8.398437-6.597657 15-14.996094 15h-359.964844c-8.402344 0-15-6.601563-15-15v-451.953125c0-8.402344 6.597656-15 15-15h359.964844c8.398437 0 14.996094 6.597656 14.996094 15zm0 0" fill="#dce1eb"/><path d="m390.460938 15v451.953125c0 8.398437-6.597657 15-14.996094 15h-179.984375v-481.953125h179.984375c8.398437 0 14.996094 6.597656 14.996094 15zm0 0" fill="#bec3d2"/><path d="m330.46875 105.988281v239.976563c0 8.398437-6.597656 15-15 15l-89.992188 44.996094c0 8.398437-6.597656 14.996093-14.996093 14.996093h-104.992188c-8.398437 0-14.996093-6.597656-14.996093-14.996093 0-8.402344-6.597657-15-15-15-8.398438 0-15-6.597657-15-14.996094v-269.976563c0-8.398437 6.601562-14.996093 15-14.996093 8.402343 0 15-6.601563 15-15 0-8.398438 6.597656-15 14.996093-15h179.984375c8.398438 0 14.996094 6.601562 14.996094 15 0 8.398437 6.601562 15 15 15 8.402344 0 15 6.597656 15 14.996093zm0 0" fill="#f2f6fc"/><path d="m330.46875 105.988281v239.976563c0 8.398437-6.597656 15-15 15l-89.992188 44.996094c0 8.398437-6.597656 14.996093-14.996093 14.996093h-15v-359.964843h89.992187c8.398438 0 14.996094 6.601562 14.996094 15 0 8.398437 6.601562 15 15 15 8.402344 0 15 6.597656 15 14.996093zm0 0" fill="#dce1eb"/><path d="m315.46875 385.5625v111.390625c0 5.398437-3 10.496094-7.796875 13.195313-4.800781 2.699218-10.800781 2.402343-15.601563-.597657l-36.59375-24.597656-36.597656 24.597656c-4.800781 2.996094-10.5 3.296875-15.597656.597657-4.800781-2.699219-7.800781-7.796876-7.800781-13.195313v-111.390625c0-8.101562 6.597656-15 15-15h89.988281c8.402344 0 15 6.902344 15 15zm0 0" fill="#ff5e95"/><path d="m315.46875 385.5625v111.390625c0 5.398437-3 10.496094-7.796875 13.195313-4.800781 2.699218-10.800781 2.402343-15.601563-.597657l-36.59375-24.597656v-114.390625h44.992188c8.402344 0 15 6.902344 15 15zm0 0" fill="#ff0059"/><path d="m270.472656 165.984375c0 8.398437-6.597656 14.996094-14.996094 14.996094h-119.988281c-8.402343 0-15-6.597657-15-14.996094 0-8.402344 6.597657-15 15-15h119.988281c8.398438 0 14.996094 6.597656 14.996094 15zm0 0" fill="#dce1eb"/><path d="m270.472656 225.976562c0 8.398438-6.597656 15-14.996094 15h-119.988281c-8.402343 0-15-6.601562-15-15 0-8.398437 6.597657-14.996093 15-14.996093h119.988281c8.398438 0 14.996094 6.597656 14.996094 14.996093zm0 0" fill="#dce1eb"/><path d="m255.476562 270.972656c-41.398437 0-74.996093 33.597656-74.996093 74.992188 0 41.398437 33.597656 74.992187 74.996093 74.992187 41.394532 0 74.992188-33.59375 74.992188-74.992187 0-41.394532-33.597656-74.992188-74.992188-74.992188zm0 0" fill="#fbe000"/><path d="m330.46875 345.964844c0 41.398437-33.597656 74.992187-74.992188 74.992187v-149.984375c41.394532 0 74.992188 33.597656 74.992188 74.992188zm0 0" fill="#fdbf00"/><path d="m270.472656 345.964844c0 8.398437-6.597656 15-14.996094 15-8.402343 0-15-6.601563-15-15 0-8.398438 6.597657-14.996094 15-14.996094 8.398438 0 14.996094 6.597656 14.996094 14.996094zm0 0" fill="#fff35c"/><path d="m270.472656 345.964844c0 8.398437-6.597656 15-14.996094 15v-29.996094c8.398438 0 14.996094 6.597656 14.996094 14.996094zm0 0" fill="#ffd236"/><g fill="#bec3d2"><path d="m270.472656 225.976562c0 8.398438-6.597656 15-14.996094 15h-59.996093v-29.996093h59.996093c8.398438 0 14.996094 6.597656 14.996094 14.996093zm0 0"/><path d="m255.476562 180.980469h-59.996093v-29.996094h59.996093c8.398438 0 14.996094 6.597656 14.996094 15 0 8.398437-6.597656 14.996094-14.996094 14.996094zm0 0"/></g></svg>