<svg height="512pt" viewBox="0 0 512 512" width="512pt" xmlns="http://www.w3.org/2000/svg"><path d="m467 362h-91c-8.289062 0-15 6.710938-15 15v60c0 8.289062 6.710938 15 15 15h91c8.289062 0 15-6.710938 15-15v-60c0-8.289062-6.710938-15-15-15zm0 0" fill="#384949"/><path d="m136 362h-91c-8.289062 0-15 6.710938-15 15v60c0 8.289062 6.710938 15 15 15h91c8.289062 0 15-6.710938 15-15v-60c0-8.289062-6.710938-15-15-15zm0 0" fill="#4a696f"/><path d="m340 449h-168c-6.601562-5.101562-8.101562-14.398438-3-21l3-3.898438c17.101562-22.800781 28.5-49.503906 34.199219-77.101562l49.800781-15 49.800781 15c5.699219 27.597656 17.097657 54.300781 34.199219 77.101562l3 3.898438c5.101562 6.597656 3.601562 15.898438-3 21zm0 0" fill="#4a696f"/><path d="m340 449h-84v-117l49.800781 15c5.699219 27.597656 17.097657 54.300781 34.199219 77.101562l3 3.898438c5.101562 6.597656 3.601562 15.898438-3 21zm0 0" fill="#293939"/><path d="m305.800781 347h-99.601562c3-13.199219 4.800781-26.398438 4.800781-39.902344v-117.199218c0-8.398438 6.597656-15 15-15h60c8.402344 0 15 6.601562 15 15v117.203124c0 13.5 1.800781 26.699219 4.800781 39.898438zm0 0" fill="#f2f6fc"/><path d="m305.800781 347h-49.800781v-172.101562h30c8.402344 0 15 6.601562 15 15v117.203124c0 13.5 1.800781 26.699219 4.800781 39.898438zm0 0" fill="#bec3d2"/><path d="m467 422h-422c-24.902344 0-45 20.097656-45 45v30c0 8.398438 6.597656 15 15 15h482c8.402344 0 15-6.601562 15-15v-30c0-24.902344-20.097656-45-45-45zm0 0" fill="#ff5e95"/><path d="m512 467v30c0 8.398438-6.597656 15-15 15h-241v-90h211c24.902344 0 45 20.097656 45 45zm0 0" fill="#ff0059"/><path d="m256 0c-57.898438 0-105 47.101562-105 105s47.101562 105 105 105 105-47.101562 105-105-47.101562-105-105-105zm0 0" fill="#ff5e95"/><path d="m361 105c0 57.898438-47.101562 105-105 105v-210c57.898438 0 105 47.101562 105 105zm0 0" fill="#ff0059"/></svg>