<svg height="512pt" viewBox="0 0 512 512" width="512pt" xmlns="http://www.w3.org/2000/svg"><path d="m361 60v15c0 8.398438-6.597656 15-15 15s-15-6.601562-15-15v-15c0-16.5-13.5-30-30-30l-7.058594-14.234375 7.058594-15.765625c33 0 60 27 60 60zm0 0" fill="#293939"/><path d="m467 60h-422c-24.902344 0-45 20.097656-45 45v362c0 24.898438 20.097656 45 45 45h422c24.902344 0 45-20.101562 45-45v-362c0-24.902344-20.097656-45-45-45zm0 0" fill="#92e6e1"/><path d="m512 105v362c0 24.898438-20.097656 45-45 45h-211v-452h211c24.902344 0 45 20.097656 45 45zm0 0" fill="#60d9d4"/><path d="m301 0v30c-16.5 0-30 13.5-30 30v105c0 8.398438-6.597656 15-15 15s-15-6.601562-15-15v-105c0-15 5.398438-28.800781 15-39.300781 10.800781-12.601563 27-20.699219 45-20.699219zm0 0" fill="#384949"/><path d="m301 0v30c-16.5 0-30 13.5-30 30v105c0 8.398438-6.597656 15-15 15v-159.300781c10.800781-12.601563 27-20.699219 45-20.699219zm0 0" fill="#293939"/><path d="m316 150h-120c-24.902344 0-45 20.097656-45 45v152c0 57.898438 47.101562 105 105 105s105-47.101562 105-105v-152c0-24.902344-20.097656-45-45-45zm0 0" fill="#4a696f"/><path d="m361 195v152c0 57.898438-47.101562 105-105 105v-302h60c24.902344 0 45 20.097656 45 45zm0 0" fill="#384949"/><path d="m271 225v60c0 8.398438-6.597656 15-15 15s-15-6.601562-15-15v-60c0-8.402344 6.597656-15 15-15s15 6.597656 15 15zm0 0" fill="#384949"/><path d="m271 225v60c0 8.398438-6.597656 15-15 15v-90c8.402344 0 15 6.597656 15 15zm0 0" fill="#293939"/></svg>