<svg height="512pt" viewBox="0 0 512 512" width="512pt" xmlns="http://www.w3.org/2000/svg"><path d="m512 45c0-24.902344-20.097656-45-45-45h-422c-24.902344 0-45 20.097656-45 45v422c0 24.898438 20.097656 45 45 45h422c24.902344 0 45-20.101562 45-45v-76l-21.300781-16.5 21.300781-13.5zm0 0" fill="#4a696f"/><path d="m512 361-21.300781 13.5 21.300781 16.5v76c0 24.898438-20.097656 45-45 45h-211v-512h211c24.902344 0 45 20.097656 45 45zm0 0" fill="#384949"/><path d="m451 361v-135c0-8.402344-6.597656-15-15-15s-15 6.597656-15 15v195h-90v-30h45c8.402344 0 15-6.601562 15-15v-240c0-8.402344-6.597656-15-15-15h-165v-30h210v75c0 8.398438 6.597656 15 15 15s15-6.601562 15-15v-90c0-8.402344-6.597656-15-15-15h-360c-8.402344 0-15 6.597656-15 15v240c0 8.398438 6.597656 15 15 15s15-6.601562 15-15v-45h30v105c0 8.398438 6.597656 15 15 15h60c8.402344 0 15-6.601562 15-15 0-8.402344-6.597656-15-15-15h-45v-210h210v60h-30v-15c0-8.402344-6.597656-15-15-15h-120c-8.402344 0-15 6.597656-15 15v120c0 8.398438 6.597656 15 15 15h60c8.402344 0 15-6.601562 15-15v-60c0-8.402344-6.597656-15-15-15s-15 6.597656-15 15v45h-30v-90h90v105c0 8.398438 6.597656 15 15 15s15-6.601562 15-15v-75h30v120h-105c-8.402344 0-15 6.597656-15 15 0 8.398438 6.597656 15 15 15h45v30h-210v-45c0-8.402344-6.597656-15-15-15s-15 6.597656-15 15v60c0 8.398438 6.597656 15 15 15h360c8.402344 0 15-6.601562 15-15v-45h61v-30zm-270-240h-45c-8.402344 0-15 6.597656-15 15v105h-30v-150h90zm0 0" fill="#92e6e1"/><g fill="#60d9d4"><path d="m421 91h-165v-30h180c8.402344 0 15 6.597656 15 15v90c0 8.398438-6.597656 15-15 15s-15-6.601562-15-15zm0 0"/><path d="m256 331v-90c8.402344 0 15 6.597656 15 15v60c0 8.398438-6.597656 15-15 15zm0 0"/><path d="m512 361v30h-61v45c0 8.398438-6.597656 15-15 15h-180v-30h45v-30h-45v-30h105v-120h-30v75c0 8.398438-6.597656 15-15 15s-15-6.601562-15-15v-105h-45v-30h60c8.402344 0 15 6.597656 15 15v15h30v-60h-105v-30h120c8.402344 0 15 6.597656 15 15v240c0 8.398438-6.597656 15-15 15h-45v30h90v-195c0-8.402344 6.597656-15 15-15s15 6.597656 15 15v135zm0 0"/></g></svg>