<svg height="512pt" viewBox="0 -45 512 512" width="512pt" xmlns="http://www.w3.org/2000/svg"><path d="m481.882812 15.058594v331.292968c0 8.433594-6.625 15.058594-15.058593 15.058594h-421.648438c-8.433593 0-15.058593-6.625-15.058593-15.058594v-331.292968c0-8.433594 6.625-15.058594 15.058593-15.058594h421.648438c8.433593 0 15.058593 6.625 15.058593 15.058594zm0 0" fill="#61d7b0"/><path d="m481.882812 15.058594v331.292968c0 8.433594-6.625 15.058594-15.058593 15.058594h-210.824219v-361.410156h210.824219c8.433593 0 15.058593 6.625 15.058593 15.058594zm0 0" fill="#06ccab"/><path d="m406.589844 75.292969c0 8.433593-6.625 15.058593-15.058594 15.058593h-256v195.765626c0 6.023437-3.617188 11.445312-9.339844 13.855468-5.417968 2.410156-12.046875 1.203125-16.261718-3.316406l-30.117188-30.117188c-6.023438-5.722656-6.023438-15.359374 0-21.082031 5.722656-6.023437 15.359375-6.023437 21.082031 0l4.519531 4.21875v-174.382812c0-8.433594 6.625-15.058594 15.058594-15.058594h271.058594c8.433594 0 15.058594 6.625 15.058594 15.058594zm0 0" fill="#f2f6fc"/><path d="m251.585938 155c-5.878907-5.882812-15.410157-5.882812-21.292969 0l-19.46875 19.46875-19.472657-19.46875c-5.882812-5.882812-15.410156-5.882812-21.292968 0-5.882813 5.882812-5.882813 15.410156 0 21.292969l19.472656 19.472656-19.472656 19.46875c-5.882813 5.882813-5.882813 15.414063 0 21.296875 5.882812 5.878906 15.410156 5.882812 21.292968 0l19.472657-19.472656 19.46875 19.472656c5.882812 5.878906 15.414062 5.882812 21.296875 0 5.882812-5.882812 5.882812-15.414062 0-21.296875l-19.472656-19.46875 19.472656-19.472656c5.882812-5.882813 5.882812-15.410157-.003906-21.292969zm0 0" fill="#f2f6fc"/><path d="m371.953125 176.1875-60.238281 60.234375c-5.71875 6.023437-15.355469 6.023437-21.078125 0-6.023438-5.722656-6.023438-15.359375 0-21.082031l19.273437-19.574219-19.273437-19.578125c-6.023438-5.722656-6.023438-15.359375 0-21.082031 5.722656-6.023438 15.355469-6.023438 21.078125 0l19.578125 19.273437 19.578125-19.273437c5.722656-6.023438 15.359375-6.023438 21.082031 0 6.023437 5.722656 6.023437 15.359375 0 21.082031zm0 0" fill="#dce1eb"/><path d="m406.589844 75.292969c0 8.433593-6.625 15.058593-15.058594 15.058593h-135.53125v-30.117187h135.53125c8.433594 0 15.058594 6.625 15.058594 15.058594zm0 0" fill="#dce1eb"/><path d="m406.589844 271.058594h-120.472656c-8.324219 0-15.058594 6.734375-15.058594 15.058594v60.234374c0 8.324219 6.734375 15.058594 15.058594 15.058594h120.472656c8.320312 0 15.058594-6.734375 15.058594-15.058594v-60.234374c0-8.324219-6.738282-15.058594-15.058594-15.058594zm0 0" fill="#fbe000"/><path d="m466.824219 331.292969h-421.648438c-24.996093 0-45.175781 20.179687-45.175781 45.175781v30.121094c0 8.429687 6.625 15.058594 15.058594 15.058594h481.882812c8.433594 0 15.058594-6.628907 15.058594-15.058594v-30.121094c0-24.996094-20.179688-45.175781-45.175781-45.175781zm0 0" fill="#4a696f"/><path d="m512 376.46875v30.121094c0 8.429687-6.625 15.058594-15.058594 15.058594h-240.941406v-90.355469h210.824219c24.996093 0 45.175781 20.179687 45.175781 45.175781zm0 0" fill="#384949"/></svg>