<svg height="512pt" viewBox="-31 0 512 512" width="512pt" xmlns="http://www.w3.org/2000/svg"><path d="m269.753906 497h-150c0-2.101562.601563-4.5 1.5-6.601562l25.800782-55.398438h95.398437l25.800781 55.398438c.898438 2.101562 1.5 4.5 1.5 6.601562zm0 0" fill="#384949"/><path d="m269.753906 497h-75v-62h47.699219l25.800781 55.398438c.898438 2.101562 1.5 4.5 1.5 6.601562zm0 0" fill="#293939"/><path d="m314.753906 497c0 8.398438-6.898437 15-15 15h-210c-8.402344 0-15-6.601562-15-15 0-8.402344 6.597656-15 15-15h210c8.097656 0 15 6.597656 15 15zm0 0" fill="#4a696f"/><path d="m314.753906 497c0 8.398438-6.898437 15-15 15h-105v-30h105c8.097656 0 15 6.597656 15 15zm0 0" fill="#384949"/><path d="m375.054688 375.300781c-49.804688 49.796875-114.902344 74.699219-180.300782 74.699219h-.300781c-65.097656 0-130.5-24.902344-180.300781-74.402344-2.699219-2.996094-4.199219-6.898437-4.199219-10.796875 0-3.902343 1.5-7.800781 4.199219-10.5l42.601562-42.601562c5.996094-6 15.296875-6 21.296875 0 5.699219 5.699219 5.699219 15.296875 0 21.300781l-31.5 31.5c42.300781 36.898438 95.101563 55.5 148.203125 55.5 57.597656 0 115.199219-21.902344 159-66 57.597656-57.597656 79.5-142.199219 57.300782-220.5-9-31.800781-25.203126-61.5-47.101563-86.699219l-31.5 31.5c-5.699219 6-15.300781 6-21 0-6-5.699219-6-15.300781 0-21.300781l42.296875-42.300781c6-6 15.300781-6 21.304688 0 30.597656 30.601562 53.097656 69 64.796874 110.699219 25.203126 88.800781.300782 184.5-64.796874 249.902343zm0 0" fill="#4a696f"/><path d="m375.054688 375.300781c-49.804688 49.796875-114.902344 74.699219-180.300782 74.699219v-30c57.597656 0 115.199219-21.902344 159-66 57.597656-57.597656 79.5-142.199219 57.300782-220.5-9-31.800781-25.203126-61.5-47.101563-86.699219l-31.5 31.5c-5.699219 6-15.300781 6-21 0-6-5.699219-6-15.300781 0-21.300781l42.296875-42.300781c6-6 15.300781-6 21.304688 0 30.597656 30.601562 53.097656 69 64.796874 110.699219 25.203126 88.800781.300782 184.5-64.796874 249.902343zm0 0" fill="#384949"/><path d="m384.953125 236.699219-63-41.699219c-10.199219-10.800781-30.601563-11.699219-42.300781 0-12 12-11.398438 31.199219 0 42.597656l10.5 10.5-42.300782 42.300782-10.800781-10.5c-10.199219-10.800782-30.597656-11.699219-42.296875 0-11.402344 11.402343-11.699218 30.601562 0 42.300781l42 63c-13.800781 3.300781-27.902344 4.800781-42 4.800781-49.800781 0-99.902344-19.199219-138-57-39-39-57.902344-90.601562-56.6992185-141.898438l46.1992185 25.199219c12 12 31.800782 11.097657 42.300782 0 11.699218-11.699219 11.699218-30.902343 0-42.601562l-59.703126-81c5.101563-8.699219 11.101563-16.800781 18-24.597657l105.601563 84.597657c11.398437 11.402343 29.699219 12 42.300781 0 11.097656-11.097657 11.699219-29.398438 0-42.597657-.300781-.601562-.902344-1.199218-1.5-1.800781l-8.703125-9.902343s4.503907-4.796876 10.203125-11.398438c10.496094-11.699219 25.796875-28.800781 27.597656-30.601562 2.101563 1.5 12.300782 9.601562 14.699219 11.402343 11.699219 11.699219 30.902344 11.699219 42.601563 0l21-36.601562h.296875c11.402343 7.5 21.902343 15.902343 31.800781 25.800781 48.601562 48.898438 66 117 52.203125 179.699219zm0 0" fill="#b3f2e7"/><path d="m194.753906 322.199219 42 63c-13.800781 3.300781-27.902344 4.800781-42 4.800781zm0 0" fill="#92e6e1"/><path d="m384.953125 236.699219-63-41.699219c-10.199219-10.800781-30.601563-11.699219-42.300781 0-12 12-11.398438 31.199219 0 42.597656l10.5 10.5-42.300782 42.300782-10.800781-10.5c-10.199219-10.800782-30.597656-11.699219-42.296875 0v-192.898438c10.496094-11.699219 25.796875-28.800781 27.597656-30.601562 2.101563 1.5 12.300782 9.601562 14.699219 11.402343 11.699219 11.699219 30.902344 11.699219 42.601563 0l21-36.601562h.296875c11.402343 7.5 21.902343 15.902343 31.800781 25.800781 48.601562 48.898438 66 117 52.203125 179.699219zm0 0" fill="#92e6e1"/><path d="m252.628906 138.925781c-3.019531-7.703125.789063-16.40625 8.511719-19.4375 12.523437-4.894531 25.867187-7.398437 39.636719-7.414062h.015625c8.277343 0 14.984375 6.710937 15 14.988281.015625 8.273438-6.691407 15-14.984375 15.011719-10.019532.015625-19.6875 1.816406-28.738282 5.363281-7.488281 2.945312-16.332031-.613281-19.441406-8.511719zm0 0" fill="#06ccab"/><path d="m384.953125 236.699219c-7.5 35.402343-24.898437 69-52.203125 96.300781-27.296875 27-60.898438 44.699219-95.996094 52.199219l-42-41.699219-10.5-10.5c-17.699218-17.699219-17.402344-46.5 0-63.902344 3-2.996094 6.597656-5.699218 10.5-7.199218 16.800782-9 39-6.597657 53.101563 7.199218l20.996093-21c-17.996093-18.597656-16.5-47.398437.300782-63.597656 16.800781-17.101562 46.5-17.101562 63.601562 0zm0 0" fill="#61d7b0"/><path d="m384.953125 236.699219c-7.5 35.402343-24.898437 69-52.203125 96.300781-27.296875 27-60.898438 44.699219-95.996094 52.199219l-42-41.699219v-81.601562c16.800782-9 39-6.597657 53.101563 7.199218l20.996093-21c-17.996093-18.597656-16.5-47.398437.300782-63.597656 16.800781-17.101562 46.5-17.101562 63.601562 0zm0 0" fill="#06ccab"/><path d="m303.351562 42.597656c.902344 13.203125-3.597656 26.402344-13.199218 35.703125-17.402344 17.699219-45.898438 17.699219-63.597656 0-.300782-.300781-.902344-.601562-1.5-.902343l-20.402344 21.300781c.300781.300781.300781.601562.597656.902343 17.703125 17.398438 17.703125 45.898438 0 63.597657-3.296875 3.300781-6.597656 5.703125-10.496094 7.800781-17.101562 9.597656-38.699218 6.601562-53.101562-7.800781l-94.800782-95.101563c3-3.898437 6.300782-7.5 9.902344-11.097656 38.097656-38.101562 88.199219-57 138-57 36.898438 0 73.800782 10.5 105.898438 31.199219h.300781c1.199219 3.601562 2.097656 7.5 2.398437 11.398437zm0 0" fill="#61d7b0"/><path d="m303.351562 42.597656c.902344 13.203125-3.597656 26.402344-13.199218 35.703125-17.402344 17.699219-45.898438 17.699219-63.597656 0-.300782-.300781-.902344-.601562-1.5-.902343l-20.402344 21.300781c.300781.300781.300781.601562.597656.902343 17.703125 17.398438 17.703125 45.898438 0 63.597657-3.296875 3.300781-6.597656 5.703125-10.496094 7.800781v-171c36.898438 0 73.800782 10.5 105.898438 31.199219h.300781c1.199219 3.601562 2.097656 7.5 2.398437 11.398437zm0 0" fill="#06ccab"/><g fill="#61d7b0"><path d="m120.5 269.238281c-5.859375-5.859375-5.859375-15.351562 0-21.210937 7.148438-7.148438 12.6875-15.484375 16.449219-24.785156 3.089843-7.691407 11.878906-11.410157 19.542969-8.261719 7.675781 3.105469 11.367187 11.863281 8.261718 19.539062-5.289062 13.039063-13.039062 24.714844-23.042968 34.71875-5.859376 5.859375-15.351563 5.859375-21.210938 0zm0 0"/><path d="m99.351562 226.800781c-17.269531 17.269531-45.695312 17.902344-63.597656 0l-35.6992185-35.699219c.2968745-34.203124 10.1953125-68.402343 28.7968745-98.402343l70.5 70.5c17.402344 17.398437 17.402344 46.199219 0 63.601562zm0 0"/></g></svg>