<svg height="512pt" viewBox="-45 0 511 512" width="512pt" xmlns="http://www.w3.org/2000/svg"><path d="m410.378906 397.699219-89.101562-116.398438c-21.898438-28.800781-33.902344-64.199219-33.902344-100.5v-93.800781c16.800781-6.601562 28.800781-22.800781 28.800781-42 0-24.902344-20.097656-45-45-45h-120c-24.898437 0-45 20.097656-45 45 0 19.800781 12.902344 36.597656 31.199219 42.597656v89.601563c0 35.699219-12 71.398437-33.597656 99.898437l-93 122.101563c-13.5 23.398437-13.800782 51.601562-.300782 75.300781 13.800782 23.398438 38.101563 37.5 65.101563 37.5h271.199219c27 0 51.300781-14.101562 65.097656-37.5 13.503906-23.699219 13.203125-51.902344-1.496094-76.800781zm0 0" fill="#f2f6fc"/><path d="m411.875 474.5c-13.796875 23.398438-38.097656 37.5-65.097656 37.5h-135.601563v-512h60c24.902344 0 45 20.097656 45 45 0 19.199219-12 35.398438-28.800781 42v93.800781c0 36.300781 12 71.699219 33.902344 100.5l89.097656 116.398438c14.703125 24.898437 15.003906 53.101562 1.5 76.800781zm0 0" fill="#dce1eb"/><g fill="#ff5e95"><path d="m358.777344 428-90-120c-2.699219-3.898438-7.199219-6-12-6h-91.199219c-4.800781 0-9.300781 2.101562-12 6l-90 120c-7.46875 10.179688-.027344 24 12 24h271.199219c11.980468 0 19.488281-13.792969 12-24zm0 0"/><path d="m226.175781 257c0 8.398438-6.597656 15-15 15-8.398437 0-15-6.601562-15-15 0-8.402344 6.601563-15 15-15 8.402344 0 15 6.597656 15 15zm0 0"/><path d="m226.175781 197c0 8.398438-6.597656 15-15 15-8.398437 0-15-6.601562-15-15 0-8.402344 6.601563-15 15-15 8.402344 0 15 6.597656 15 15zm0 0"/></g><path d="m211.175781 272v-30c8.402344 0 15 6.597656 15 15 0 8.398438-6.597656 15-15 15zm0 0" fill="#ff0059"/><path d="m211.175781 212v-30c8.402344 0 15 6.597656 15 15 0 8.398438-6.597656 15-15 15zm0 0" fill="#ff0059"/><path d="m346.777344 452h-135.601563v-150h45.601563c4.800781 0 9.300781 2.101562 12 6l90 120c7.46875 10.179688.023437 24-12 24zm0 0" fill="#ff0059"/></svg>