<svg height="512pt" viewBox="-91 0 512 512" width="512pt" xmlns="http://www.w3.org/2000/svg"><path d="m315 0h-300c-8.402344 0-15 6.597656-15 15v482c0 8.398438 6.597656 15 15 15h240c41.398438 0 75-33.601562 75-75v-422c0-8.402344-6.597656-15-15-15zm0 0" fill="#fbe000"/><path d="m330 15v422c0 41.398438-33.601562 75-75 75h-90v-512h150c8.402344 0 15 6.597656 15 15zm0 0" fill="#fdbf00"/><path d="m255 62h-180c-8.402344 0-15 6.597656-15 15v150c0 8.398438 6.597656 15 15 15h180c8.402344 0 15-6.601562 15-15v-150c0-8.402344-6.597656-15-15-15zm0 0" fill="#4a696f"/><path d="m270 77v150c0 8.398438-6.597656 15-15 15h-90v-180h90c8.402344 0 15 6.597656 15 15zm0 0" fill="#384949"/><g fill="#4a696f"><path d="m120 347c0 8.285156-6.714844 15-15 15s-15-6.714844-15-15 6.714844-15 15-15 15 6.714844 15 15zm0 0"/><path d="m120 287c0 8.285156-6.714844 15-15 15s-15-6.714844-15-15 6.714844-15 15-15 15 6.714844 15 15zm0 0"/><path d="m90 317c0 8.285156-6.714844 15-15 15s-15-6.714844-15-15 6.714844-15 15-15 15 6.714844 15 15zm0 0"/><path d="m150 317c0 8.285156-6.714844 15-15 15s-15-6.714844-15-15 6.714844-15 15-15 15 6.714844 15 15zm0 0"/></g><path d="m255 302h-15v-15c0-8.289062-6.710938-15-15-15s-15 6.710938-15 15v15h-15c-8.289062 0-15 6.710938-15 15s6.710938 15 15 15h15v15c0 8.289062 6.710938 15 15 15s15-6.710938 15-15v-15h15c8.289062 0 15-6.710938 15-15s-6.710938-15-15-15zm0 0" fill="#384949"/><path d="m109.394531 447.605469c-5.859375-5.859375-5.859375-15.351563 0-21.210938l30-30c5.859375-5.859375 15.351563-5.859375 21.210938 0s5.859375 15.351563 0 21.210938l-30 30c-5.859375 5.859375-15.351563 5.859375-21.210938 0zm0 0" fill="#384949"/><path d="m169.394531 447.605469c-5.859375-5.859375-5.859375-15.351563 0-21.210938l30-30c5.859375-5.859375 15.351563-5.859375 21.210938 0s5.859375 15.351563 0 21.210938l-30 30c-5.859375 5.859375-15.351563 5.859375-21.210938 0zm0 0" fill="#293939"/></svg>