<svg height="512pt" viewBox="-21 0 511 512" width="512pt" xmlns="http://www.w3.org/2000/svg"><path d="m456.117188 128.5c-24.367188-42.386719-74.234376-60.996094-119.363282-48.21875-11.550781-45.433594-52.460937-80.28125-101.4375-80.28125-48.980468 0-89.886718 34.847656-101.4375 80.28125-45.132812-12.777344-95 5.832031-119.363281 48.21875-24.617187 42.378906-15.664063 94.839844 17.910156 127.5-33.574219 32.660156-42.527343 85.121094-17.910156 127.5 19.5 33.601562 54.898437 52.5 91.199219 52.5 9.425781 0 18.921875-1.378906 28.246094-4.019531 11.640624 45.296875 52.46875 80.019531 101.355468 80.019531 48.882813 0 89.710938-34.722656 101.355469-80.019531 9.324219 2.640625 18.816406 4.019531 28.242187 4.019531 36.300782 0 71.703126-18.898438 91.199219-52.5 24.617188-42.378906 15.664063-94.839844-17.910156-127.5 33.574219-32.660156 42.527344-85.121094 17.914063-127.5zm-25.800782 15c9.898438 17.398438 12.597656 37.5 7.5 57-4.140625 14.714844-12.394531 27.605469-23.832031 37.445312l-73.667969-42.53125v-84.628906c8.121094-2.835937 16.441406-4.785156 24.898438-4.785156 25.800781 0 51 13.5 65.101562 37.5zm-120 242.542969-45.136718-26.085938 45.136718-26.054687zm-75-43.34375-75-43.28125v-86.839844l75-43.277344 75 43.277344v86.839844zm-75-8.796875 45.132813 26.054687-45.132813 26.085938zm-30-51.792969-45.246094-26.109375 45.246094-26.109375zm30-156.15625 45.132813 26.085937-45.132813 26.058594zm150 52.144531-45.136718-26.058594 45.136718-26.085937zm30 51.792969 45.242188 26.109375-45.242188 26.109375zm-105-199.890625c36.703125 0 67.148438 27.445312 73.613282 62.285156l-73.613282 42.515625-73.617187-42.515625c6.464843-34.839844 36.914062-62.285156 73.617187-62.285156zm-195 113.5c14.097656-24 39.300782-37.5 65.097656-37.5 8.460938 0 16.78125 1.949219 24.902344 4.785156v84.628906l-73.671875 42.53125c-11.433593-9.839843-19.691406-22.730468-23.828125-37.445312-5.101562-19.5-2.402344-39.601562 7.5-57zm0 225c-9.902344-17.402344-12.601562-37.5-7.5-57 4.136719-14.71875 12.394532-27.609375 23.828125-37.449219l73.671875 42.53125v85.113281c-33.335937 11.574219-71.660156-1.566406-90-33.195312zm195 113.5c-36.703125 0-67.152344-27.445312-73.617187-62.285156l73.617187-42.515625 73.613282 42.511719c-6.464844 34.84375-36.910157 62.289062-73.613282 62.289062zm195-113.5c-18.339844 31.628906-56.667968 45.003906-90 33.277344v-85.195313l73.667969-42.527343c11.4375 9.839843 19.691406 22.730468 23.832031 37.445312 5.097656 19.5 2.398438 39.597656-7.5 57zm0 0" fill="#92e6e1"/><path d="m235.316406 211c-24.902344 0-45 20.097656-45 45 0 24.898438 20.097656 45 45 45 24.898438 0 45-20.101562 45-45 0-24.902344-20.101562-45-45-45zm0 0" fill="#ff5e95"/><path d="m280.316406 256c0 24.898438-20.101562 45-45 45v-90c24.898438 0 45 20.097656 45 45zm0 0" fill="#ff0059"/><path d="m456.117188 128.5c-24.367188-42.386719-74.234376-60.996094-119.363282-48.21875-11.550781-45.433594-52.460937-80.28125-101.4375-80.28125v30c36.703125 0 67.148438 27.445312 73.613282 62.285156l-73.613282 42.515625v34.5l75 43.277344v86.84375l-75 43.277344v34.5l73.613282 42.511719c-6.464844 34.84375-36.910157 62.289062-73.613282 62.289062v30c48.882813 0 89.710938-34.722656 101.355469-80.019531 9.324219 2.640625 18.816406 4.019531 28.242187 4.019531 36.300782 0 71.703126-18.898438 91.199219-52.5 24.617188-42.378906 15.664063-94.839844-17.910156-127.5 33.574219-32.660156 42.527344-85.121094 17.914063-127.5zm-25.800782 15c9.898438 17.398438 12.597656 37.5 7.5 57-4.140625 14.714844-12.394531 27.605469-23.832031 37.445312l-73.667969-42.53125v-84.628906c8.121094-2.835937 16.441406-4.785156 24.898438-4.785156 25.800781 0 51 13.5 65.101562 37.5zm-165.136718 8.539062 45.136718-26.085937v52.144531zm75.136718 77.851563 45.242188 26.109375-45.242188 26.109375zm-30 104.011719v52.140625l-45.136718-26.085938zm120 34.597656c-18.339844 31.628906-56.667968 45.003906-90 33.277344v-85.195313l73.667969-42.527343c11.4375 9.839843 19.691406 22.730468 23.832031 37.445312 5.097656 19.5 2.398438 39.597656-7.5 57zm0 0" fill="#60d9d4"/></svg>