<svg height="512pt" viewBox="-46 0 512 512" width="512pt" xmlns="http://www.w3.org/2000/svg"><path d="m375 0h-330c-24.902344 0-45 20.097656-45 45v422c0 24.898438 20.097656 45 45 45h330c24.902344 0 45-20.101562 45-45v-422c0-24.902344-20.097656-45-45-45zm0 0" fill="#4a696f"/><path d="m420 45v422c0 24.898438-20.097656 45-45 45h-165v-512h165c24.902344 0 45 20.097656 45 45zm0 0" fill="#384949"/><path d="m345 62h-270c-8.402344 0-15 6.597656-15 15v120c0 8.398438 6.597656 15 15 15h270c8.402344 0 15-6.601562 15-15v-120c0-8.402344-6.597656-15-15-15zm0 0" fill="#b3f2e7"/><path d="m360 77v120c0 8.398438-6.597656 15-15 15h-135v-150h135c8.402344 0 15 6.597656 15 15zm0 0" fill="#92e6e1"/><g fill="#dce1eb"><path d="m135 272h-30c-8.289062 0-15-6.710938-15-15s6.710938-15 15-15h30c8.289062 0 15 6.710938 15 15s-6.710938 15-15 15zm0 0"/><path d="m240 257c0 8.398438-6.597656 15-15 15h-30c-8.402344 0-15-6.601562-15-15 0-8.402344 6.597656-15 15-15h30c8.402344 0 15 6.597656 15 15zm0 0"/><path d="m240 257c0 8.398438-6.597656 15-15 15h-15v-30h15c8.402344 0 15 6.597656 15 15zm0 0"/><path d="m315 272h-30c-8.289062 0-15-6.710938-15-15s6.710938-15 15-15h30c8.289062 0 15 6.710938 15 15s-6.710938 15-15 15zm0 0"/></g><path d="m165 137c0 8.285156-6.714844 15-15 15s-15-6.714844-15-15 6.714844-15 15-15 15 6.714844 15 15zm0 0" fill="#4a696f"/><path d="m225 137c0 8.398438-6.597656 15-15 15s-15-6.601562-15-15c0-8.402344 6.597656-15 15-15s15 6.597656 15 15zm0 0" fill="#4a696f"/><path d="m225 137c0 8.398438-6.597656 15-15 15v-30c8.402344 0 15 6.597656 15 15zm0 0" fill="#384949"/><path d="m285 137c0 8.285156-6.714844 15-15 15s-15-6.714844-15-15 6.714844-15 15-15 15 6.714844 15 15zm0 0" fill="#384949"/><path d="m285 377 8.4375-43.125-8.4375-31.875h-75l-9.375 37.5 9.375 37.5 30 9.375zm0 0" fill="#fdbf00"/><path d="m135 302h-60c-8.289062 0-15 6.710938-15 15v60l47.34375 9.375 27.65625-9.375 7.5-44.0625zm0 0" fill="#fdbf00"/><path d="m135 377-10.78125 37.5 10.78125 37.5h75l8.90625-37.5-8.90625-37.5-27.65625-9.375zm0 0" fill="#fdbf00"/><path d="m135 302h75v75h-75zm0 0" fill="#fbe000"/><path d="m60 377v60c0 8.289062 6.710938 15 15 15h60v-75zm0 0" fill="#fbe000"/><path d="m345 302h-60v150h60c8.289062 0 15-6.710938 15-15v-120c0-8.289062-6.710938-15-15-15zm0 0" fill="#ff0059"/><path d="m210 377h75v75h-75zm0 0" fill="#ff9100"/></svg>