<svg height="512pt" viewBox="-119 0 512 512" width="512pt" xmlns="http://www.w3.org/2000/svg"><path d="m152.304688 257.152344v24.011718c0 8.105469-6.601563 15.007813-15.007813 15.007813s-15.007813-6.902344-15.007813-15.007813v-24.011718c0-24.917969-20.109374-45.027344-45.027343-45.027344-8.40625 0-15.007813-6.605469-15.007813-15.007812 0-8.40625 6.601563-15.011719 15.007813-15.011719 24.617187 0 46.527343 12.007812 60.035156 30.320312 9.605469 12.304688 15.007813 27.914063 15.007813 44.726563zm0 0" fill="#60d9d4"/><path d="m152.304688 257.152344v24.011718c0 8.105469-6.601563 15.007813-15.007813 15.007813v-83.746094c9.605469 12.304688 15.007813 27.914063 15.007813 44.726563zm0 0" fill="#1cadb5"/><path d="m262.769531 296.472656c-10.203125-25.214844-27.3125-42.925781-48.328125-50.128906-17.710937-6-36.320312-3.902344-52.828125 5.703125-3.304687 2.101563-6.605469 4.503906-9.90625 6.90625-5.40625 3.902344-10.207031 7.203125-14.109375 7.203125h-.601562c-3.902344 0-8.703125-3.300781-14.105469-7.203125-3.304687-2.402344-6.605469-4.804687-9.90625-6.90625-16.511719-9.605469-35.121094-11.707031-52.832031-5.703125-21.011719 7.207031-38.125 24.914062-48.328125 50.128906-21.914063 53.429688-12.605469 129.375 21.609375 177.105469 22.214844 30.917969 52.53125 44.125 80.75 36.019531 3.902344-.898437 7.503906-2.402344 11.105468-4.203125 4.503907-1.800781 8.40625-3.601562 12.007813-3.300781h.300781c3 .300781 6.902344 1.5 11.707032 3.300781 3.601562 1.800781 7.203124 3.304688 11.105468 4.203125 5.402344 1.800782 11.105469 2.402344 16.511719 2.402344 23.113281 0 46.222656-13.507812 64.234375-38.421875 34.222656-47.730469 43.527344-123.675781 21.613281-177.105469zm0 0" fill="#ff5e95"/><path d="m241.160156 473.578125c-18.011718 24.914063-41.125 38.421875-64.238281 38.421875-5.402344 0-11.105469-.601562-16.507813-2.402344-3.902343-.898437-7.507812-2.402344-11.109374-4.203125-4.800782-1.800781-8.703126-3-11.707032-3.300781h-.296875v-235.9375h.296875c3.902344 0 8.707032-3.300781 14.109375-7.203125 3.300781-2.402344 6.605469-4.804687 9.90625-6.90625 16.507813-9.605469 35.121094-11.707031 52.832031-5.703125 21.011719 7.207031 38.121094 24.914062 48.328126 50.128906 21.910156 53.429688 12.605468 129.375-21.613282 177.105469zm0 0" fill="#ff0059"/><path d="m77.261719 152.089844c-8.296875 0-15.007813-6.714844-15.007813-15.007813v-90.054687c0-8.296875 6.710938-15.007813 15.007813-15.007813s15.007812 6.710938 15.007812 15.007813v90.054687c0 8.292969-6.710937 15.007813-15.007812 15.007813zm0 0" fill="#f2f6fc"/><path d="m197.332031 152.089844c-8.292969 0-15.007812-6.714844-15.007812-15.007813v-90.054687c0-8.296875 6.714843-15.007813 15.007812-15.007813 8.296875 0 15.011719 6.710938 15.011719 15.007813v90.054687c0 8.292969-6.714844 15.007813-15.011719 15.007813zm0 0" fill="#dce1eb"/><path d="m152.304688 15.007812v122.074219c0 8.402344-6.601563 15.007813-15.007813 15.007813s-15.007813-6.605469-15.007813-15.007813v-122.074219c0-8.40625 6.601563-15.007812 15.007813-15.007812s15.007813 6.601562 15.007813 15.007812zm0 0" fill="#f2f6fc"/><path d="m152.304688 15.007812v122.074219c0 8.402344-6.601563 15.007813-15.007813 15.007813v-152.089844c8.40625 0 15.007813 6.601562 15.007813 15.007812zm0 0" fill="#dce1eb"/></svg>