<svg height="512pt" viewBox="0 0 512 512" width="512pt" xmlns="http://www.w3.org/2000/svg"><path d="m180 45c0 8.398438-6.597656 15-15 15h-15v45c0 8.398438-6.597656 15-15 15s-15-6.601562-15-15v-45h-15c-8.402344 0-15-6.601562-15-15 0-8.402344 6.597656-15 15-15h15v-15c0-8.402344 6.597656-15 15-15s15 6.597656 15 15v15h15c8.402344 0 15 6.597656 15 15zm0 0" fill="#4a696f"/><path d="m180 45c0 8.398438-6.597656 15-15 15h-15v45c0 8.398438-6.597656 15-15 15v-120c8.402344 0 15 6.597656 15 15v15h15c8.402344 0 15 6.597656 15 15zm0 0" fill="#384949"/><path d="m238.199219 444.199219c-2.699219 4.800781-7.800781 7.800781-13.199219 7.800781h-180c-5.398438 0-10.5-3-13.199219-7.800781-2.703125-5.097657-2.402343-10.800781.601563-15.601563l14.699218-21.898437c28.199219-42 42.898438-92.898438 42.898438-143.601563v-8.097656c0-8.402344 6.597656-15 15-15h60c8.402344 0 15 6.597656 15 15v8.097656c0 50.703125 14.699219 101.601563 42.898438 143.601563l14.703124 21.898437c3 4.800782 3.300782 10.503906.597657 15.601563zm0 0" fill="#384949"/><path d="m238.199219 444.199219c-2.699219 4.800781-7.800781 7.800781-13.199219 7.800781h-90v-212h30c8.402344 0 15 6.597656 15 15v8.097656c0 50.703125 14.699219 101.601563 42.898438 143.601563l14.703124 21.898437c3 4.800782 3.300782 10.503906.597657 15.601563zm0 0" fill="#293939"/><path d="m473.597656 450.5c-2.097656.898438-4.199218 1.5-6.597656 1.5h-120c-11.101562 0-18.300781-11.699219-13.5-21.601562l4.800781-9.300782c15.597657-31.199218 23.699219-68 23.699219-102.796875v-3.300781c0-8.402344 6.597656-15 15-15h60c8.402344 0 15 6.597656 15 15v3.300781c0 34.796875 8.101562 71.597657 23.699219 102.800781l4.800781 9.296876c3.601562 7.199218.597656 16.203124-6.902344 20.101562zm0 0" fill="#384949"/><path d="m473.597656 450.5c-2.097656.898438-4.199218 1.5-6.597656 1.5h-60v-152h30c8.402344 0 15 6.597656 15 15v3.300781c0 34.796875 8.101562 71.597657 23.699219 102.800781l4.800781 9.296876c3.601562 7.199218.597656 16.203124-6.902344 20.101562zm0 0" fill="#293939"/><path d="m225 422h-180c-24.902344 0-45 20.097656-45 45v30c0 8.398438 6.597656 15 15 15h240c8.402344 0 15-6.601562 15-15v-30c0-24.902344-20.097656-45-45-45zm0 0" fill="#4a696f"/><path d="m270 467v30c0 8.398438-6.597656 15-15 15h-120v-90h90c24.902344 0 45 20.097656 45 45zm0 0" fill="#384949"/><path d="m467 422h-120c-24.902344 0-45 20.097656-45 45v30c0 8.398438 6.597656 15 15 15h180c8.402344 0 15-6.601562 15-15v-30c0-24.902344-20.097656-45-45-45zm0 0" fill="#4a696f"/><path d="m512 467v30c0 8.398438-6.597656 15-15 15h-90v-90h60c24.902344 0 45 20.097656 45 45zm0 0" fill="#384949"/><path d="m226.199219 149.097656-17.101563 50.703125c-2.097656 6.300781-7.796875 10.199219-14.097656 10.199219-1.5 0-3.300781-.300781-4.800781-.902344h-110.398438c-8.101562 2.703125-16.5-1.5-18.898437-9.296875l-17.101563-50.703125c-4.5-13.796875-2.101562-28.5 6.300781-40.496094 8.699219-11.703124 21.898438-18.601562 36.597657-18.601562h96.601562c14.699219 0 27.898438 6.898438 36.601563 18.601562 8.398437 11.996094 10.796875 26.699219 6.296875 40.496094zm0 0" fill="#384949"/><path d="m226.199219 149.097656-17.101563 50.703125c-2.097656 6.300781-7.796875 10.199219-14.097656 10.199219-1.5 0-3.300781-.300781-4.800781-.902344h-55.199219v-119.097656h48.300781c14.699219 0 27.898438 6.898438 36.601563 18.601562 8.398437 11.996094 10.796875 26.699219 6.296875 40.496094zm0 0" fill="#293939"/><path d="m497 150h-45l-15 21-15-21h-30l-15 21-15-21h-45c-8.402344 0-15 6.597656-15 15v30c0 41.398438 33.601562 75 75 75h60c41.398438 0 75-33.601562 75-75v-30c0-8.402344-6.597656-15-15-15zm0 0" fill="#384949"/><path d="m512 165v30c0 41.398438-33.601562 75-75 75h-30v-120h15l15 21 15-21h45c8.402344 0 15 6.597656 15 15zm0 0" fill="#293939"/><path d="m392 150v52.5c0 8.398438-6.597656 15-15 15s-15-6.601562-15-15v-52.5zm0 0" fill="#4a696f"/><path d="m452 150v52.5c0 8.398438-6.597656 15-15 15s-15-6.601562-15-15v-52.5zm0 0" fill="#384949"/><path d="m195 180h-120c-24.902344 0-45 20.097656-45 45 0 24.898438 20.097656 45 45 45h120c24.902344 0 45-20.101562 45-45 0-24.902344-20.097656-45-45-45zm0 0" fill="#4a696f"/><path d="m240 225c0 24.898438-20.097656 45-45 45h-60v-90h60c24.902344 0 45 20.097656 45 45zm0 0" fill="#384949"/><path d="m437 240h-60c-24.902344 0-45 20.097656-45 45 0 24.898438 20.097656 45 45 45h60c24.902344 0 45-20.101562 45-45 0-24.902344-20.097656-45-45-45zm0 0" fill="#4a696f"/><path d="m482 285c0 24.898438-20.097656 45-45 45h-30v-90h30c24.902344 0 45 20.097656 45 45zm0 0" fill="#384949"/></svg>