<svg height="512pt" viewBox="-1 0 512 512" width="512pt" xmlns="http://www.w3.org/2000/svg"><path d="m510 45c0 24.898438-20.097656 45-45 45h-91.800781c-57 0-103.199219 46.199219-103.199219 103.199219 0 8.398437-6.597656 15-15 15s-15-6.601563-15-15c0-21.898438 5.398438-42.898438 15-61.199219 21.898438-42.601562 66.597656-72 118.199219-72h91.800781c8.402344 0 15-6.601562 15-15 0-8.402344-6.597656-15-15-15h-450c-8.402344 0-15-6.601562-15-15 0-8.402344 6.597656-15 15-15h450c24.902344 0 45 20.097656 45 45zm0 0" fill="#92e6e1"/><path d="m510 45c0 24.898438-20.097656 45-45 45h-91.800781c-57 0-103.199219 46.199219-103.199219 103.199219 0 8.398437-6.597656 15-15 15v-76.199219c21.898438-42.601562 66.597656-72 118.199219-72h91.800781c8.402344 0 15-6.601562 15-15 0-8.402344-6.597656-15-15-15h-210v-30h210c24.902344 0 45 20.097656 45 45zm0 0" fill="#60d9d4"/><path d="m358.199219 216-8.101563 137.699219c-2.996094 4.199219-7.5 6.300781-12.296875 6.300781-3 0-6-.902344-8.703125-2.699219l-12.597656-9.300781c-18.300781-13.199219-39.902344-20.101562-61.5-20.101562s-43.199219 6.902343-61.5 20.101562l-12.597656 9.300781c-6.601563 4.800781-16.203125 3.296875-21-3.601562l-1.800782-140.398438c-3-7.800781 1.199219-16.5 8.699219-19.203125 28.5-10.496094 58.199219-15.898437 88.199219-15.898437 32.101562 0 64.5 6 94.800781 18.300781 7.796875 3.300781 11.398438 12 8.398438 19.5zm0 0" fill="#384949"/><path d="m358.199219 216-8.101563 137.699219c-2.996094 4.199219-7.5 6.300781-12.296875 6.300781-3 0-6-.902344-8.703125-2.699219l-12.597656-9.300781c-18.300781-13.199219-39.902344-20.101562-61.5-20.101562v-149.699219c32.101562 0 64.5 6 94.800781 18.300781 7.796875 3.300781 11.398438 12 8.398438 19.5zm0 0" fill="#293939"/><path d="m495 270-158.40625 76.230469c-7.136719 4.203125-9.507812 13.402343-5.304688 20.535156l67 115.671875c10.753907 18.238281 30.558594 29.5625 51.710938 29.5625 33.089844 0 60-26.910156 60-60v-167c0-8.289062-6.710938-15-15-15zm0 0" fill="#293939"/><path d="m469.101562 126.8125c-31.757812-9.054688-66.445312-9.054688-98.203124 0-6.445313 1.832031-10.898438 7.71875-10.898438 14.429688v58.886718c0 8.289063 6.710938 15 15 15l90 17.78125c8.292969 0 15-6.707031 15-15v-76.667968c0-6.710938-4.453125-12.597657-10.898438-14.429688zm0 0" fill="#293939"/><path d="m405 390c-37.03125 0-71.703125-19.835938-90.511719-51.753906-9.476562-16.082032-14.488281-34.496094-14.488281-53.246094 0-57.890625 47.109375-105 105-105s105 47.109375 105 105-47.109375 105-105 105zm0 0" fill="#384949"/><path d="m172.96875 346.964844-157.96875-76.964844c-8.289062 0-15 6.710938-15 15v167c0 33.089844 26.910156 60 60 60 21.152344 0 40.957031-11.324219 51.710938-29.5625l66.558593-114.9375c4.207031-7.132812 1.832031-16.332031-5.300781-20.535156zm0 0" fill="#384949"/><path d="m139.101562 126.8125c-31.757812-9.054688-66.445312-9.054688-98.203124 0-6.445313 1.832031-10.898438 7.71875-10.898438 14.425781v76.671875c0 8.289063 6.710938 15 15 15l90-17.78125c8.289062 0 15-6.710937 15-15v-58.890625c0-6.707031-4.453125-12.59375-10.898438-14.425781zm0 0" fill="#384949"/><path d="m105 390c-57.890625 0-105-47.109375-105-105s47.109375-105 105-105 105 47.109375 105 105c0 18.75-5.011719 37.164062-14.488281 53.246094-18.808594 31.917968-53.480469 51.753906-90.511719 51.753906zm0 0" fill="#4a696f"/><g fill="#92e6e1"><path d="m121.800781 255c0 8.285156-6.714843 15-15 15-8.285156 0-15-6.714844-15-15s6.714844-15 15-15c8.285157 0 15 6.714844 15 15zm0 0"/><path d="m121.800781 315c0 8.285156-6.714843 15-15 15-8.285156 0-15-6.714844-15-15s6.714844-15 15-15c8.285157 0 15 6.714844 15 15zm0 0"/><path d="m91.800781 285c0 8.285156-6.714843 15-15 15-8.285156 0-15-6.714844-15-15s6.714844-15 15-15c8.285157 0 15 6.714844 15 15zm0 0"/><path d="m151.800781 285c0 8.285156-6.714843 15-15 15-8.285156 0-15-6.714844-15-15s6.714844-15 15-15c8.285157 0 15 6.714844 15 15zm0 0"/></g><path d="m421.800781 255c0 8.285156-6.714843 15-15 15-8.285156 0-15-6.714844-15-15s6.714844-15 15-15c8.285157 0 15 6.714844 15 15zm0 0" fill="#60d9d4"/><path d="m421.800781 315c0 8.285156-6.714843 15-15 15-8.285156 0-15-6.714844-15-15s6.714844-15 15-15c8.285157 0 15 6.714844 15 15zm0 0" fill="#60d9d4"/><path d="m391.800781 285c0 8.285156-6.714843 15-15 15-8.285156 0-15-6.714844-15-15s6.714844-15 15-15c8.285157 0 15 6.714844 15 15zm0 0" fill="#60d9d4"/><path d="m451.800781 285c0 8.285156-6.714843 15-15 15-8.285156 0-15-6.714844-15-15s6.714844-15 15-15c8.285157 0 15 6.714844 15 15zm0 0" fill="#60d9d4"/><path d="m195 409.496094c-24.8125 0-45-20.183594-45-45 0-24.8125 20.1875-45 45-45s45 20.1875 45 45c0 24.816406-20.1875 45-45 45zm0 0" fill="#92e6e1"/><path d="m315 411.007812c-24.8125 0-45-20.1875-45-45 0-24.816406 20.1875-45 45-45s45 20.183594 45 45c0 24.8125-20.1875 45-45 45zm0 0" fill="#60d9d4"/></svg>