<svg height="512pt" viewBox="0 0 512.00022 512" width="512pt" xmlns="http://www.w3.org/2000/svg"><path d="m371.515625 246.550781-201.738281 201.738281c-37.757813 37.757813-91.90625 63.289063-148.546875 63.5l261.191406-269.480468c3.605469-3.609375 3.605469-9.125 0-12.726563-3.609375-3.609375-9.121094-3.609375-12.730469 0l-269.464844 260.78125c.636719-57.914062 26.363282-111.019531 63.484376-148.140625l201.738281-201.738281c5.941406-5.941406 15.273437-5.941406 21.214843 0l84.851563 84.851563c5.941406 5.941406 5.941406 15.273437 0 21.214843zm0 0" fill="#f2f6fc"/><path d="m371.515625 246.550781-201.738281 201.738281c-37.757813 37.757813-91.90625 63.289063-148.546875 63.5l261.191406-269.480468c3.605469-3.609375 3.605469-9.125 0-12.726563l46.667969-46.671875 42.425781 42.425782c5.941406 5.941406 5.941406 15.273437 0 21.214843zm0 0" fill="#dce1eb"/><path d="m286.664062 246.550781-265.4375 265.238281c-1.058593.210938-2.753906.210938-4.027343.210938-4.242188 0-8.910157-2.121094-12.304688-5.089844l-.636719-.640625c-2.542968-2.542969-4.453124-5.726562-4.242187-9.332031 0-2.121094 0-4.667969.210937-6.574219l265.222657-265.027343c5.941406-5.941407 15.273437-5.941407 21.214843 0 5.9375 5.941406 5.9375 15.273437 0 21.214843zm0 0" fill="#dce1eb"/><path d="m498.792969 13.207031c-17.605469-17.609375-46.03125-17.609375-63.640625 0l-95.457032 95.457031-31.820312-31.820312c-5.941406-5.9375-15.273438-5.9375-21.210938 0l-31.820312 31.820312-10.609375-10.605468c-5.9375-5.941406-15.273437-5.941406-21.210937 0-5.941407 5.9375-5.941407 15.273437 0 21.210937l169.703124 169.707031c5.941407 5.941407 15.277344 5.9375 21.214844 0 5.941406-5.941406 5.941406-15.273437 0-21.214843l-10.605468-10.605469 31.816406-31.820312c5.941406-5.9375 5.941406-15.273438 0-21.210938l-31.816406-31.820312 95.457031-95.460938c17.609375-17.605469 17.609375-46.03125 0-63.636719zm0 0" fill="#fdbf00"/><path d="m286.664062 246.550781-265.4375 265.238281c-1.058593.210938-2.753906.210938-4.027343.210938-4.242188 0-8.910157-2.121094-12.304688-5.089844l281.769531-281.574218c5.9375 5.941406 5.9375 15.273437 0 21.214843zm0 0" fill="#bec3d2"/><path d="m498.792969 13.207031-190.917969 190.917969 84.855469 84.851562c5.9375 5.941407 15.273437 5.941407 21.210937 0 5.941406-5.9375 5.941406-15.273437 0-21.210937l-10.605468-10.605469 31.820312-31.820312c5.9375-5.941406 5.9375-15.273438 0-21.214844l-31.820312-31.820312 95.457031-95.457032c17.609375-17.609375 17.609375-46.035156 0-63.640625zm0 0" fill="#ff9100"/></svg>