<svg height="512pt" viewBox="0 -121 512 512" width="512pt" xmlns="http://www.w3.org/2000/svg"><path d="m23.246094 270h-8.246094c-8.289062 0-15-6.710938-15-15v-240c0-8.289062 6.710938-15 15-15h8.246094c56.472656 0 111.140625 16.554688 158.085937 47.871094l21.988281 14.648437c4.175782 2.78125 6.679688 7.46875 6.679688 12.480469v120c0 5.007812-2.503906 9.695312-6.679688 12.480469l-21.988281 14.648437c-46.945312 31.316406-101.613281 47.871094-158.085937 47.871094zm0 0" fill="#ff5e95"/><path d="m497 270h-8.246094c-56.472656 0-111.140625-16.554688-158.085937-47.871094l-21.988281-14.648437c-4.175782-2.785157-6.679688-7.472657-6.679688-12.480469v-120c0-5.011719 2.503906-9.695312 6.679688-12.480469l21.988281-14.648437c46.945312-31.316406 101.613281-47.871094 158.085937-47.871094h8.246094c8.289062 0 15 6.710938 15 15v240c0 8.289062-6.710938 15-15 15zm0 0" fill="#ff0059"/><path d="m120 180c-8.289062 0-15-6.710938-15-15s6.710938-15 15-15c9.332031 0 26.9375-6.957031 43.433594-15.015625-16.144532-7.910156-33.75-14.984375-43.433594-14.984375-8.289062 0-15-6.710938-15-15s6.710938-15 15-15c28.183594 0 77.210938 28.84375 82.703125 32.125 4.527344 2.710938 7.296875 7.601562 7.296875 12.875s-2.769531 10.164062-7.296875 12.875c-5.492187 3.28125-54.519531 32.125-82.703125 32.125zm0 0" fill="#ff0059"/><path d="m392 180c-28.183594 0-77.210938-28.84375-82.703125-32.125-4.527344-2.710938-7.296875-7.601562-7.296875-12.875s2.769531-10.164062 7.296875-12.875c5.492187-3.28125 54.519531-32.125 82.703125-32.125 8.289062 0 15 6.710938 15 15s-6.710938 15-15 15c-9.332031 0-26.9375 6.957031-43.433594 15.015625 16.144532 7.910156 33.75 14.984375 43.433594 14.984375 8.289062 0 15 6.710938 15 15s-6.710938 15-15 15zm0 0" fill="#e50048"/><path d="m317 60h-122c-8.402344 0-15 6.597656-15 15v120c0 8.398438 6.597656 15 15 15h122c8.402344 0 15-6.601562 15-15v-120c0-8.402344-6.597656-15-15-15zm0 0" fill="#ffa2c3"/><path d="m332 75v120c0 8.398438-6.597656 15-15 15h-61v-150h61c8.402344 0 15 6.597656 15 15zm0 0" fill="#ff5e95"/></svg>