<svg height="511pt" viewBox="1 -50 511.999 511" width="511pt" xmlns="http://www.w3.org/2000/svg"><path d="m256 260.984375c-6.65625 0-13.035156 1.449219-18.820312 4.03125-1.558594-7.058594-3.753907-13.964844-6.597657-20.683594-18.808593-44.5625-62.214843-73.347656-110.582031-73.347656-20.785156 0-40.347656 5.316406-57.410156 14.652344l51.625-142.414063c3.003906-7.089844 9.226562-8.671875 11.777344-9.023437 2.488281-.351563 8.949218-.527344 13.753906 5.492187l28.535156 35.671875c5.199219 6.445313 14.605469 7.542969 21.09375 2.34375 6.460938-5.1875 7.515625-14.621093 2.34375-21.09375l-28.535156-35.65625c-10.019532-12.507812-25.386719-18.617187-41.308594-16.476562-15.863281 2.195312-29.0625 12.316406-35.582031 27.800781l-77.167969 212.78125c-.015625.050781-.027344.101562-.046875.152344-5.84375 14.113281-9.078125 29.570312-9.078125 45.769531 0 66.167969 53.832031 120 120 120 63.558594 0 115.726562-49.671875 119.742188-112.234375 3.699218-4.660156 10.496093-7.765625 16.257812-7.765625 8.402344 0 18 6.601563 18 15s4.597656 15 13 15 15-6.601563 15-15c0-24.898437-21.101562-45-46-45zm0 0" fill="#384949"/><path d="m502.867188 245.03125c-3.339844-9.929688-50.179688-148.875-78.976563-217.074219-6.476563-15.335937-20.214844-25.515625-36.769531-27.199219-16.449219-1.773437-32.34375 5.710938-41.6875 19.289063l-25.78125 37.429687c-4.703125 6.824219-2.988282 16.15625 3.835937 20.859376 6.886719 4.699218 16.203125 2.957031 20.859375-3.839844l25.78125-37.425782c4.585938-6.652343 11.308594-6.722656 13.945313-6.460937 2.621093.265625 9.082031 1.683594 12.1875 9.007813 15.933593 37.738281 38.050781 99.183593 54.714843 146.800781-17.617187-9.925781-37.820312-15.433594-58.976562-15.433594-57.253906 0-105.265625 40.3125-117.164062 94.039063-5.789063-2.585938-12.175782-4.039063-18.835938-4.039063v30c6.28125 0 13.234375 3.695313 16.339844 9.070313 4.652344 61.945312 56.542968 110.929687 119.660156 110.929687 66.164062 0 120-53.832031 120-120 0-15.929687-3.070312-31.375-9.132812-45.953125zm0 0" fill="#293939"/><path d="m392 380.988281c-49.625 0-90-40.375-90-90 0-49.628906 40.375-90 90-90 36.28125 0 68.835938 21.589844 82.941406 55.007813 4.6875 11.078125 7.058594 22.839844 7.058594 34.992187 0 49.625-40.375 90-90 90zm0 0" fill="#92e6e1"/><path d="m210 290.984375c0 49.628906-40.371094 90-90 90s-90-40.371094-90-90c0-40.460937 26.839844-74.78125 63.660156-86.070313 8.328125-2.550781 17.179688-3.929687 26.339844-3.929687 3.050781 0 6.078125.148437 9.070312.457031 32.558594 3.261719 60.960938 23.953125 73.871094 54.550782 4.6875 11.082031 7.058594 22.839843 7.058594 34.992187zm0 0" fill="#b3f2e7"/><path d="m163.5 282.582031-30 60c-3.898438 7.5-12.601562 10.5-20.101562 6.902344-7.5-3.902344-10.5-12.902344-6.898438-20.101563l23.398438-46.800781-46.5-23.097656c-7.5-3.902344-10.5-12.902344-6.898438-20.101563l17.160156-34.46875c8.328125-2.550781 17.179688-3.929687 26.339844-3.929687 3.050781 0 6.078125.148437 9.070312.457031l-18.96875 37.941406 46.5 23.101563c7.5 3.898437 10.5 12.898437 6.898438 20.097656zm0 0" fill="#92e6e1"/></svg>