<svg height="511.99962pt" viewBox="1 1 511.99962 511.99962" width="511.99962pt" xmlns="http://www.w3.org/2000/svg"><path d="m179.054688 396.625-110.917969 110.917969c-5.941407 5.941406-15.28125 5.941406-21.226563 0l-42.453125-42.453125c-5.945312-5.945313-5.941406-15.285156 0-21.226563l110.917969-110.917969 42.453125 21.226563zm0 0" fill="#4a696f"/><path d="m179.054688 396.625-110.917969 110.917969c-5.941407 5.941406-15.28125 5.941406-21.226563 0l-21.226562-21.226563 132.144531-132.144531zm0 0" fill="#293939"/><path d="m223.207031 352.472656-44.152343 44.152344-63.683594-63.679688 44.152344-44.152343c5.945312-5.945313 15.285156-5.945313 21.226562 0l42.457031 42.453125c5.945313 5.945312 5.941407 15.285156 0 21.226562zm0 0" fill="#fbe000"/><path d="m223.207031 352.472656-44.152343 44.152344-31.839844-31.839844 54.765625-54.765625 21.226562 21.226563c5.945313 5.945312 5.941407 15.285156 0 21.226562zm0 0" fill="#fdbf00"/><path d="m455.003906 56.996094c-75.992187-75.996094-199.957031-75.996094-275.949218 0-75.992188 75.988281-75.996094 199.957031 0 275.949218 75.992187 75.992188 199.957031 75.992188 275.949218 0 75.992188-75.992187 75.992188-199.957031 0-275.949218zm0 0" fill="#4a696f"/><path d="m455.003906 332.945312c-75.992187 75.992188-199.957031 75.992188-275.949218 0l275.949218-275.949218c75.992188 75.992187 75.992188 199.957031 0 275.949218zm0 0" fill="#384949"/><path d="m433.777344 311.71875c-64.316406 64.316406-169.179688 64.316406-233.496094 0-64.316406-64.320312-64.316406-169.179688 0-233.496094 64.320312-64.320312 169.179688-64.320312 233.496094 0 64.316406 64.316406 64.320312 169.179688 0 233.496094zm0 0" fill="#92e6e1"/><path d="m433.777344 311.71875c-64.316406 64.316406-169.179688 64.316406-233.496094 0l233.496094-233.496094c64.320312 64.316406 64.320312 169.179688 0 233.496094zm0 0" fill="#60d9d4"/><g fill="#fff35c"><path d="m242.734375 290.492188c-5.941406 5.941406-15.28125 5.941406-21.226563 0-5.945312-5.945313-5.941406-15.285157 0-21.226563 5.945313-5.945313 15.285157-5.945313 21.226563 0 5.945313 5.941406 5.945313 15.28125 0 21.226563zm0 0"/><path d="m327.644531 205.582031c-5.945312 5.945313-15.285156 5.945313-21.226562 0-5.945313-5.941406-5.945313-15.28125 0-21.226562 5.941406-5.941407 15.28125-5.941407 21.226562 0 5.941407 5.945312 5.941407 15.285156 0 21.226562zm0 0"/><path d="m412.550781 120.675781c-5.941406 5.941407-15.28125 5.941407-21.226562 0-5.945313-5.945312-5.941407-15.285156 0-21.226562 5.945312-5.945313 15.28125-5.945313 21.226562 0 5.945313 5.941406 5.945313 15.28125 0 21.226562zm0 0"/><path d="m205.941406 221.109375c-5.578125-5.578125-9.609375-12.570313-11.640625-20.199219-9.648437-36.144531.777344-75.03125 27.207031-101.460937 26.429688-26.433594 65.320313-36.859375 101.460938-27.210938 11.558594 3.015625 21.269531 10.449219 27.3125 20.867188 6.0625 10.4375 7.679688 22.605469 4.570312 34.253906-6.40625 23.984375-31.136718 38.285156-55.121093 31.882813-5.191407-1.378907-10.757813.101562-14.539063 3.886718-3.785156 3.78125-5.265625 9.347656-3.886718 14.539063 6.402343 23.984375-7.898438 48.714843-31.875 55.132812-15.484376 4.125-32.148438-.351562-43.488282-11.691406zm0 0"/></g><path d="m290.890625 306.058594c-11.339844-11.339844-15.816406-28.003906-11.679687-43.480469 6.402343-23.980469 31.132812-38.285156 55.117187-31.878906 5.195313 1.378906 10.761719-.105469 14.542969-3.886719 3.785156-3.785156 5.265625-9.351562 3.886718-14.542969-6.40625-23.984375 7.898438-48.714843 31.871094-55.128906 11.660156-3.101563 23.828125-1.484375 34.265625 4.582031 10.40625 6.03125 17.808594 15.753906 20.875 27.339844 9.640625 36.109375-.789062 75-27.21875 101.429688-26.429687 26.429687-65.316406 36.855468-101.460937 27.207031-7.628906-2.03125-14.625-6.0625-20.199219-11.640625zm0 0" fill="#ffd236"/><path d="m242.734375 290.492188c-5.941406 5.941406-15.28125 5.941406-21.226563 0l21.226563-21.226563c5.945313 5.941406 5.945313 15.28125 0 21.226563zm0 0" fill="#ffd236"/><path d="m327.644531 205.582031c-5.945312 5.945313-15.285156 5.945313-21.226562 0l21.226562-21.226562c5.941407 5.945312 5.941407 15.285156 0 21.226562zm0 0" fill="#ffd236"/><path d="m391.324219 120.675781 21.226562-21.226562c5.945313 5.941406 5.945313 15.28125 0 21.226562-5.941406 5.941407-15.28125 5.945313-21.226562 0zm0 0" fill="#ffd236"/></svg>