<svg height="512pt" viewBox="0 0 512 512" width="512pt" xmlns="http://www.w3.org/2000/svg"><path d="m106 91c-8.289062 0-15-6.710938-15-15v-61c0-8.289062 6.710938-15 15-15s15 6.710938 15 15v61c0 8.289062-6.710938 15-15 15zm0 0" fill="#92e6e1"/><path d="m166 91c-8.289062 0-15-6.710938-15-15v-61c0-8.289062 6.710938-15 15-15s15 6.710938 15 15v61c0 8.289062-6.710938 15-15 15zm0 0" fill="#92e6e1"/><path d="m226 91c-8.289062 0-15-6.710938-15-15v-61c0-8.289062 6.710938-15 15-15s15 6.710938 15 15v61c0 8.289062-6.710938 15-15 15zm0 0" fill="#92e6e1"/><path d="m286 91c-8.289062 0-15-6.710938-15-15v-61c0-8.289062 6.710938-15 15-15s15 6.710938 15 15v61c0 8.289062-6.710938 15-15 15zm0 0" fill="#60d9d4"/><path d="m346 91c-8.289062 0-15-6.710938-15-15v-61c0-8.289062 6.710938-15 15-15s15 6.710938 15 15v61c0 8.289062-6.710938 15-15 15zm0 0" fill="#60d9d4"/><path d="m406 91c-8.289062 0-15-6.710938-15-15v-61c0-8.289062 6.710938-15 15-15s15 6.710938 15 15v61c0 8.289062-6.710938 15-15 15zm0 0" fill="#60d9d4"/><path d="m106 512c-8.289062 0-15-6.710938-15-15v-61c0-8.289062 6.710938-15 15-15s15 6.710938 15 15v61c0 8.289062-6.710938 15-15 15zm0 0" fill="#92e6e1"/><path d="m166 512c-8.289062 0-15-6.710938-15-15v-61c0-8.289062 6.710938-15 15-15s15 6.710938 15 15v61c0 8.289062-6.710938 15-15 15zm0 0" fill="#92e6e1"/><path d="m226 512c-8.289062 0-15-6.710938-15-15v-61c0-8.289062 6.710938-15 15-15s15 6.710938 15 15v61c0 8.289062-6.710938 15-15 15zm0 0" fill="#92e6e1"/><path d="m286 512c-8.289062 0-15-6.710938-15-15v-61c0-8.289062 6.710938-15 15-15s15 6.710938 15 15v61c0 8.289062-6.710938 15-15 15zm0 0" fill="#60d9d4"/><path d="m346 512c-8.289062 0-15-6.710938-15-15v-61c0-8.289062 6.710938-15 15-15s15 6.710938 15 15v61c0 8.289062-6.710938 15-15 15zm0 0" fill="#60d9d4"/><path d="m406 512c-8.289062 0-15-6.710938-15-15v-61c0-8.289062 6.710938-15 15-15s15 6.710938 15 15v61c0 8.289062-6.710938 15-15 15zm0 0" fill="#60d9d4"/><g fill="#92e6e1"><path d="m76 421h-61c-8.289062 0-15-6.710938-15-15s6.710938-15 15-15h61c8.289062 0 15 6.710938 15 15s-6.710938 15-15 15zm0 0"/><path d="m76 361h-61c-8.289062 0-15-6.710938-15-15s6.710938-15 15-15h61c8.289062 0 15 6.710938 15 15s-6.710938 15-15 15zm0 0"/><path d="m76 301h-61c-8.289062 0-15-6.710938-15-15s6.710938-15 15-15h61c8.289062 0 15 6.710938 15 15s-6.710938 15-15 15zm0 0"/><path d="m76 241h-61c-8.289062 0-15-6.710938-15-15s6.710938-15 15-15h61c8.289062 0 15 6.710938 15 15s-6.710938 15-15 15zm0 0"/><path d="m76 181h-61c-8.289062 0-15-6.710938-15-15s6.710938-15 15-15h61c8.289062 0 15 6.710938 15 15s-6.710938 15-15 15zm0 0"/><path d="m76 121h-61c-8.289062 0-15-6.710938-15-15s6.710938-15 15-15h61c8.289062 0 15 6.710938 15 15s-6.710938 15-15 15zm0 0"/></g><path d="m497 421h-61c-8.289062 0-15-6.710938-15-15s6.710938-15 15-15h61c8.289062 0 15 6.710938 15 15s-6.710938 15-15 15zm0 0" fill="#60d9d4"/><path d="m497 361h-61c-8.289062 0-15-6.710938-15-15s6.710938-15 15-15h61c8.289062 0 15 6.710938 15 15s-6.710938 15-15 15zm0 0" fill="#60d9d4"/><path d="m497 301h-61c-8.289062 0-15-6.710938-15-15s6.710938-15 15-15h61c8.289062 0 15 6.710938 15 15s-6.710938 15-15 15zm0 0" fill="#60d9d4"/><path d="m497 241h-61c-8.289062 0-15-6.710938-15-15s6.710938-15 15-15h61c8.289062 0 15 6.710938 15 15s-6.710938 15-15 15zm0 0" fill="#60d9d4"/><path d="m497 181h-61c-8.289062 0-15-6.710938-15-15s6.710938-15 15-15h61c8.289062 0 15 6.710938 15 15s-6.710938 15-15 15zm0 0" fill="#60d9d4"/><path d="m497 121h-61c-8.289062 0-15-6.710938-15-15s6.710938-15 15-15h61c8.289062 0 15 6.710938 15 15s-6.710938 15-15 15zm0 0" fill="#60d9d4"/><path d="m436 61h-360c-8.402344 0-15 6.597656-15 15v360c0 8.398438 6.597656 15 15 15h360c8.402344 0 15-6.601562 15-15v-360c0-8.402344-6.597656-15-15-15zm0 0" fill="#4a696f"/><path d="m451 76v360c0 8.398438-6.597656 15-15 15h-180v-390h180c8.402344 0 15 6.597656 15 15zm0 0" fill="#384949"/><path d="m376 151c-8.402344 0-15-6.601562-15-15 0-8.402344-6.597656-15-15-15h-180c-8.402344 0-15 6.597656-15 15 0 8.398438-6.597656 15-15 15s-15 6.597656-15 15v180c0 8.398438 6.597656 15 15 15s15 6.597656 15 15c0 8.398438 6.597656 15 15 15h180c8.402344 0 15-6.601562 15-15 0-8.402344 6.597656-15 15-15s15-6.601562 15-15v-180c0-8.402344-6.597656-15-15-15zm0 0" fill="#61d7b0"/><path d="m391 166v180c0 8.398438-6.597656 15-15 15s-15 6.597656-15 15c0 8.398438-6.597656 15-15 15h-90v-270h90c8.402344 0 15 6.597656 15 15 0 8.398438 6.597656 15 15 15s15 6.597656 15 15zm0 0" fill="#06ccab"/><path d="m211 196c0 8.285156-6.714844 15-15 15s-15-6.714844-15-15 6.714844-15 15-15 15 6.714844 15 15zm0 0" fill="#f2f6fc"/><path d="m331 196c0 8.285156-6.714844 15-15 15s-15-6.714844-15-15 6.714844-15 15-15 15 6.714844 15 15zm0 0" fill="#dce1eb"/><path d="m211 316c0 8.285156-6.714844 15-15 15s-15-6.714844-15-15 6.714844-15 15-15 15 6.714844 15 15zm0 0" fill="#f2f6fc"/><path d="m331 316c0 8.285156-6.714844 15-15 15s-15-6.714844-15-15 6.714844-15 15-15 15 6.714844 15 15zm0 0" fill="#dce1eb"/></svg>