<svg height="512pt" viewBox="-61 0 512 512.00007" width="512pt" xmlns="http://www.w3.org/2000/svg"><path d="m90 392v-180l-15-212h-30c-24.898438 0-45 20.097656-45 45v392c0 24.898438 20.097656 45 45 45h60v-75c0-8.285156-6.714844-15-15-15zm0 0" fill="#4a696f"/><path d="m360 392v75h-165v-60c0-8.402344 6.597656-15 15-15zm0 0" fill="#f2f6fc"/><path d="m225 392h135v75h-135zm0 0" fill="#dce1eb"/><path d="m90 392c8.285156 0 15 6.714844 15 15v45h-45c-16.5 0-30-13.5-30-30s13.5-30 30-30zm0 0" fill="#f2f6fc"/><path d="m390 467c0 8.398438-6.597656 15-15 15h-165v-30h165c8.402344 0 15 6.597656 15 15zm0 0" fill="#4a696f"/><path d="m390 467c0 8.398438-6.597656 15-15 15h-150v-30h150c8.402344 0 15 6.597656 15 15zm0 0" fill="#384949"/><path d="m186.679688 509.480469-36.679688-24.449219-36.679688 24.449219c-4.585937 3.0625-10.546874 3.355469-15.394531.746093-4.878906-2.605468-7.925781-7.691406-7.925781-13.226562v-105l60-15 60 15v105c0 5.535156-3.046875 10.621094-7.925781 13.226562-4.808594 2.582032-10.742188 2.355469-15.394531-.746093zm0 0" fill="#92e6e1"/><path d="m390 15v362c0 8.398438-6.597656 15-15 15h-300v-392h150 150c8.402344 0 15 6.597656 15 15zm0 0" fill="#ff5e95"/><path d="m390 15v362c0 8.398438-6.597656 15-15 15h-150v-392h150c8.402344 0 15 6.597656 15 15zm0 0" fill="#ff0059"/></svg>