<svg height="512pt" viewBox="0 -30 512 512" width="512pt" xmlns="http://www.w3.org/2000/svg"><g fill="#dce1eb"><path d="m135.53125 286.117188c-8.316406 0-15.0625-6.742188-15.0625-15.058594v-256c0-8.316406 30.121094-8.316406 30.121094 0v256c0 8.316406-6.742188 15.058594-15.058594 15.058594zm0 0"/><path d="m195.765625 286.117188c-8.316406 0-15.058594-6.742188-15.058594-15.058594v-256c0-8.316406 30.117188-8.316406 30.117188 0v256c0 8.316406-6.742188 15.058594-15.058594 15.058594zm0 0"/><path d="m256 286.117188c-8.316406 0-15.058594-6.742188-15.058594-15.058594v-256c0-8.316406 30.117188-8.316406 30.117188 0v256c0 8.316406-6.742188 15.058594-15.058594 15.058594zm0 0"/></g><path d="m256 8.820312v277.296876c8.316406 0 15.058594-6.742188 15.058594-15.058594v-256c0-4.15625-7.527344-6.238282-15.058594-6.238282zm0 0" fill="#bec3d2"/><path d="m316.234375 286.117188c-8.316406 0-15.058594-6.742188-15.058594-15.058594v-256c0-8.316406 30.117188-8.316406 30.117188 0v256c0 8.316406-6.742188 15.058594-15.058594 15.058594zm0 0" fill="#bec3d2"/><path d="m430.789062 271.640625c-6.679687 0-12.78125-4.476563-14.554687-11.238281l-63.363281-241.523438c-2.113282-8.042968 27.019531-15.683594 29.128906-7.640625l63.363281 241.519531c2.113281 8.046876-2.699219 16.277344-10.742187 18.386719-1.28125.335938-2.570313.496094-3.832032.496094zm0 0" fill="#bec3d2"/><path d="m466.824219 391.53125c-8.316407 0-15.058594-6.746094-15.058594-15.0625v-331.292969c0-8.304687-6.757813-15.058593-15.058594-15.058593h-361.414062c-8.300781 0-15.058594 6.753906-15.058594 15.058593v331.292969c0 8.316406-6.742187 15.0625-15.058594 15.0625-8.316406 0-15.058593-6.746094-15.058593-15.0625v-331.292969c0-24.910156 20.265624-45.175781 45.175781-45.175781h361.414062c24.910157 0 45.175781 20.265625 45.175781 45.175781v331.292969c0 8.316406-6.742187 15.0625-15.058593 15.0625zm0 0" fill="#384949"/><path d="m436.707031 0h-180.707031v30.117188h180.707031c8.300781 0 15.058594 6.753906 15.058594 15.058593v331.292969c0 8.316406 6.742187 15.0625 15.058594 15.0625 8.316406 0 15.058593-6.746094 15.058593-15.0625v-331.292969c0-24.910156-20.265624-45.175781-45.175781-45.175781zm0 0" fill="#293939"/><path d="m135.53125 316.234375c-16.605469 0-30.121094-13.515625-30.121094-30.117187 0-16.601563 13.515625-30.117188 30.121094-30.117188 16.601562 0 30.117188 13.515625 30.117188 30.117188 0 16.601562-13.515626 30.117187-30.117188 30.117187zm0 0" fill="#fbe000"/><path d="m195.765625 316.234375c-16.605469 0-30.117187-13.515625-30.117187-30.117187 0-16.601563 13.511718-30.117188 30.117187-30.117188 16.601563 0 30.117187 13.515625 30.117187 30.117188 0 16.601562-13.515624 30.117187-30.117187 30.117187zm0 0" fill="#fbe000"/><path d="m286.117188 286.117188c0 16.566406-13.550782 30.117187-30.117188 30.117187s-30.117188-13.550781-30.117188-30.117187c0-16.5625 13.550782-30.117188 30.117188-30.117188s30.117188 13.554688 30.117188 30.117188zm0 0" fill="#fbe000"/><path d="m286.117188 286.117188c0 16.566406-13.550782 30.117187-30.117188 30.117187v-60.234375c16.566406 0 30.117188 13.554688 30.117188 30.117188zm0 0" fill="#fdbf00"/><path d="m316.234375 316.234375c-16.601563 0-30.117187-13.515625-30.117187-30.117187 0-16.601563 13.515624-30.117188 30.117187-30.117188 16.605469 0 30.117187 13.515625 30.117187 30.117188 0 16.601562-13.511718 30.117187-30.117187 30.117187zm0 0" fill="#fdbf00"/><path d="m436.707031 316.234375c-16.605469 0-30.117187-13.515625-30.117187-30.117187 0-16.601563 13.511718-30.117188 30.117187-30.117188 16.601563 0 30.117188 13.515625 30.117188 30.117188 0 16.601562-13.515625 30.117187-30.117188 30.117187zm0 0" fill="#fdbf00"/><path d="m466.824219 361.410156h-421.648438c-24.996093 0-45.175781 20.179688-45.175781 45.179688v30.117187c0 8.429688 6.625 15.058594 15.058594 15.058594h481.882812c8.433594 0 15.058594-6.628906 15.058594-15.058594v-30.117187c0-25-20.179688-45.179688-45.175781-45.179688zm0 0" fill="#4a696f"/><path d="m512 406.589844v30.117187c0 8.429688-6.625 15.058594-15.058594 15.058594h-240.941406v-90.355469h210.824219c24.996093 0 45.175781 20.179688 45.175781 45.179688zm0 0" fill="#384949"/></svg>