<svg height="512pt" viewBox="0 0 512.00035 512" width="512pt" xmlns="http://www.w3.org/2000/svg"><path d="m484.886719 62.007812-34.894531-34.894531c-17.484376-17.484375-40.730469-27.113281-65.460938-27.113281-24.726562 0-47.972656 9.628906-65.457031 27.113281l-282.546875 282.546875c-2.15625 2.15625-3.605469 4.921875-4.152344 7.921875l-32.132812 176.734375c-.878907 4.84375.671874 9.808594 4.152343 13.289063 2.835938 2.839843 6.664063 4.394531 10.605469 4.394531.890625 0 1.789062-.078125 2.683594-.242188l176.734375-32.132812c3-.542969 5.765625-1.992188 7.921875-4.152344l282.546875-282.546875c17.484375-17.484375 27.113281-40.730469 27.113281-65.460937 0-24.726563-9.628906-47.972656-27.113281-65.457032zm-25.167969 17.257813-287.09375 287.09375c-7.890625-10.027344-16.953125-19.09375-26.984375-26.984375l287.09375-287.09375zm-409.523438 308.007813 9.347657-51.410157c61.578125 5.878907 110.714843 55.019531 116.59375 116.59375l-51.410157 9.347657c-7.195312-37.621094-36.910156-67.335938-74.53125-74.53125zm290.09375-338.945313c11.816407-11.820313 27.527344-18.328125 44.246094-18.328125 8.1875 0 16.132813 1.570312 23.5 4.554688l-288.238281 288.234374c-12.429687-6.382812-25.804687-11.175781-39.847656-14.125zm-295.460937 368.472656c25.371094 4.96875 45.402344 25 50.371094 50.371094l-61.566407 11.195313zm418.847656-245.085937-260.339843 260.335937c-2.949219-14.042969-7.742188-27.417969-14.125-39.847656l288.234374-288.234375c2.984376 7.367188 4.554688 15.3125 4.554688 23.5 0 16.714844-6.507812 32.425781-18.324219 44.246094zm0 0"/></svg>