<svg height="512pt" viewBox="0 0 512.0005 512" width="512pt" xmlns="http://www.w3.org/2000/svg"><path d="m497 0h-101.910156c-21.171875 0-41.082032 8.246094-56.050782 23.214844l-13.3125 13.3125c-2.8125 2.8125-4.394531 6.628906-4.394531 10.605468v74.121094l-18.199219 18.199219v-44.121094c0-6.066406-3.65625-11.535156-9.257812-13.855469-5.609375-2.324218-12.058594-1.039062-16.347656 3.25l-182.984375 182.984376c-19.523438 19.523437-30.277344 45.480468-30.277344 73.089843v85.71875l-59.871094 59.875c-5.859375 5.859375-5.859375 15.355469 0 21.210938 2.929688 2.929687 6.765625 4.394531 10.605469 4.394531s7.679688-1.464844 10.605469-4.394531l59.875-59.871094h85.71875c27.609375 0 53.566406-10.753906 73.089843-30.277344l244.496094-244.496093c14.96875-14.96875 23.214844-34.875 23.214844-56.050782v-101.910156c0-8.285156-6.714844-15-15-15zm-15 116.910156c0 13.164063-5.125 25.535156-14.425781 34.839844l-24.984375 24.984375h-58.054688c-8.285156 0-15 6.714844-15 15 0 8.28125 6.714844 15 15 15h28.054688l-114.601563 114.597656h-90.1875c-8.285156 0-15 6.71875-15 15 0 8.285157 6.714844 15 15 15h60.1875l-44.910156 44.910157c-13.859375 13.859374-32.28125 21.492187-51.875 21.492187h-76.9375v-76.933594c0-19.597656 7.632813-38.019531 21.492187-51.878906l77.042969-77.042969v28.054688c0 8.285156 6.714844 15 15 15 8.285157 0 15-6.714844 15-15v-58.054688l50.332031-50.332031v44.121094c0 6.066406 3.65625 11.535156 9.261719 13.855469 5.605469 2.324218 12.054688 1.039062 16.347657-3.25l48.199218-48.199219c2.8125-2.8125 4.394532-6.628907 4.394532-10.605469v-74.121094l8.914062-8.917968c9.304688-9.304688 21.679688-14.429688 34.839844-14.429688h86.910156zm0 0"/></svg>