<svg height="512pt" viewBox="0 0 512 512" width="512pt" xmlns="http://www.w3.org/2000/svg"><path d="m512 49.085938c0-13.105469-5.101562-25.425782-14.363281-34.699219-.003907-.003907-.007813-.007813-.011719-.011719s-.007812-.007812-.011719-.011719c-9.273437-9.261719-21.597656-14.363281-34.699219-14.363281-13.109374 0-25.433593 5.105469-34.699218 14.371094l-11.546875 11.550781-5.460938-5.460937c-3.621093-3.621094-8.050781-4.394532-10.605469-4.394532h-40.980468c-19.023438 0-36.910156 7.410156-50.363282 20.863282l-112.066406 112.0625c-5.855468 5.859374-5.855468 15.355468 0 21.214843 5.859375 5.859375 15.355469 5.859375 21.214844 0 .003906-.003906.003906-.003906.007812-.007812l112.058594-112.058594c7.785156-7.785156 18.140625-12.074219 29.148438-12.074219h4.765625l-311.792969 311.792969c-1.515625 1.515625-2.6875 3.335937-3.4375 5.339844l-48.199219 128.53125c-2.066406 5.507812-.722656 11.714843 3.4375 15.875 2.863281 2.867187 6.699219 4.394531 10.609375 4.394531 1.765625 0 3.546875-.3125 5.261719-.957031l128.535156-48.199219c2.039063-.765625 3.882813-1.960938 5.414063-3.515625l335.003906-339.792969c5.789062-5.867187 5.753906-15.308594-.074219-21.136718l-3.066406-3.066407 11.550781-11.550781c9.265625-9.261719 14.371094-21.585938 14.371094-34.695312zm-471.367188 422.28125 28.433594-75.820313 47.390625 47.386719zm102.824219-43.855469-59.042969-59.042969 316.183594-316.1875 56.800782 56.800781zm332.957031-364.941407-11.546874 11.550782-26.988282-26.988282 11.550782-11.546874c3.546874-3.550782 8.464843-5.585938 13.484374-5.585938 5.09375 0 9.886719 1.984375 13.496094 5.589844 3.605469 3.609375 5.589844 8.402344 5.589844 13.496094 0 5.019531-2.035156 9.9375-5.585938 13.484374zm0 0"/></svg>