<svg height="511pt" viewBox="0 0 511 511.9999" width="511pt" xmlns="http://www.w3.org/2000/svg"><path d="m451.878906 0c-16.074218 0-31.484375 6.816406-42.285156 18.703125-55.511719 61.0625-277.617188 305.382813-305.835938 336.417969-4.863281-1.066406-9.910156-1.644532-15.089843-1.644532-31.058594 0-58.007813 21.039063-65.539063 51.167969l-22.179687 88.726563c-1.277344 5.109375.21875 10.519531 3.945312 14.242187 6.269531 6.273438 14.070313 3.988281 14.242188 3.949219 0 0 50.980469-12.742188 88.730469-22.179688 30.125-7.535156 51.164062-34.484374 51.164062-65.558593 0-5.179688-.578125-10.226563-1.644531-15.089844l336.40625-305.824219c11.886719-10.804687 18.707031-26.214844 18.707031-42.296875 0-33.476562-27.082031-60.613281-60.621094-60.613281zm-351.289062 460.277344c-21.09375 5.273437-46.320313 11.582031-64.476563 16.117187l16.117188-64.476562c4.1875-16.746094 19.171875-28.441407 36.453125-28.441407 22.246094 0 40.347656 18.101563 40.347656 40.367188.003906 17.261719-11.695312 32.246094-28.441406 36.433594zm43.371094-79.886719c-3.46875-4.402344-7.449219-8.382813-11.855469-11.851563 14.28125-15.710937 44.042969-48.449218 79.773437-87.75l19.832032 19.832032zm329.65625-299.683594-219.683594 199.714844-21.855469-21.855469c74.984375-82.480468 166.742187-183.414062 199.714844-219.6875 12.082031-13.292968 31.324219-10.328125 41.742187.085938 10.472656 10.472656 13.320313 29.714844.082032 41.742187zm0 0"/></svg>