<svg height="512pt" viewBox="0 0 512 512.0005" width="512pt" xmlns="http://www.w3.org/2000/svg"><path d="m507.605469 100.792969-96.398438-96.398438c-5.855469-5.859375-15.355469-5.859375-21.214843 0l-385.597657 385.597657c-5.859375 5.859374-5.859375 15.355468 0 21.214843l96.398438 96.398438c2.929687 2.929687 6.769531 4.394531 10.605469 4.394531 3.839843 0 7.679687-1.464844 10.605468-4.394531l385.601563-385.597657c5.859375-5.859374 5.859375-15.355468 0-21.214843zm-396.207031 374.992187-75.183594-75.1875 26.984375-26.984375 37.59375 37.59375c2.929687 2.929688 6.769531 4.394531 10.605469 4.394531 3.839843 0 7.679687-1.464843 10.605468-4.394531 5.859375-5.859375 5.859375-15.355469 0-21.214843l-37.589844-37.59375 26.984376-26.984376 21.527343 21.527344c2.929688 2.925782 6.769531 4.390625 10.605469 4.390625 3.839844 0 7.679688-1.460937 10.609375-4.390625 5.855469-5.859375 5.855469-15.355468 0-21.214844l-21.527344-21.527343 26.984375-26.988281 37.59375 37.59375c2.929688 2.929687 6.765625 4.394531 10.605469 4.394531s7.679687-1.464844 10.605469-4.394531c5.859375-5.855469 5.859375-15.351563 0-21.210938l-37.589844-37.59375 26.988281-26.988281 21.523438 21.527343c2.929687 2.929688 6.769531 4.394532 10.609375 4.394532 3.835937 0 7.675781-1.464844 10.605468-4.394532 5.855469-5.859374 5.855469-15.355468 0-21.214843l-21.527343-21.523438 26.988281-26.988281 37.59375 37.59375c2.929688 2.929688 6.765625 4.394531 10.605469 4.394531 3.835937 0 7.675781-1.464843 10.605469-4.394531 5.859374-5.859375 5.859374-15.355469 0-21.214844l-37.59375-37.59375 26.988281-26.984375 21.527343 21.527344c2.929688 2.929687 6.765626 4.394531 10.605469 4.394531 3.835938 0 7.675781-1.464844 10.605469-4.394531 5.859375-5.859375 5.859375-15.355469 0-21.214844l-21.523438-21.527343 26.984376-26.984376 37.59375 37.59375c2.929687 2.925782 6.769531 4.394532 10.605468 4.394532 3.839844 0 7.679688-1.464844 10.605469-4.394532 5.859375-5.859374 5.859375-15.355468 0-21.214843l-37.589844-37.59375 26.988281-26.984375 75.183594 75.1875zm0 0"/></svg>