<svg height="512pt" viewBox="0 0 512 512" width="512pt" xmlns="http://www.w3.org/2000/svg"><path d="m428.878906 0c-22.269531 0-43.496094 9.578125-58.238281 26.277344-51.519531 58.398437-193.339844 219.125-218.453125 247.585937l-138.84375 15.429688c-7.597656.84375-13.34375 7.265625-13.34375 14.90625v16.066406c0 105.722656 86.011719 191.734375 191.734375 191.734375h16.066406c7.640625 0 14.0625-5.746094 14.90625-13.34375l15.429688-138.84375c28.460937-25.113281 189.183593-166.929688 247.585937-218.457031 16.699219-14.734375 26.277344-35.960938 26.277344-58.25 0-45.902344-37.132812-83.105469-83.121094-83.105469zm-185.75 216.136719 52.734375 52.730469c-30.941406 27.300781-57.398437 50.648437-71.351562 62.960937l-44.339844-44.335937c12.3125-13.957032 35.65625-40.414063 62.957031-71.355469zm-48.753906 265.863281c-26.992188 0-164.375-19.011719-164.375-164.375l124.089844-13.785156 54.070312 54.070312zm271.5-363.140625c-31.59375 27.875-93.128906 82.171875-147.476562 130.125l-55.382813-55.382813c47.953125-54.347656 102.25-115.882812 130.121094-147.472656 19.398437-21.976562 53.109375-20.773437 73.308593-.574218 20.382813 20.382812 21.289063 54.019531-.570312 73.304687zm0 0"/></svg>