<svg height="512pt" viewBox="0 0 512.0005 512" width="512pt" xmlns="http://www.w3.org/2000/svg"><g fill-rule="evenodd"><path d="m412.101562 0c-22.039062 0-42.941406 10.644531-55.917968 28.476562l-107.820313 148.257813h-50.835937c-27.125 0-54.289063 6.410156-78.570313 18.546875l-10.402343 5.203125c-8.902344 4.460937-15.171876 12.988281-16.761719 22.808594-.773438 4.753906-.402344 9.5625.976562 14.058593l-88.375 88.375c-5.859375 5.859376-5.859375 15.355469 0 21.214844l160.664063 160.664063c2.929687 2.929687 6.769531 4.394531 10.609375 4.394531 3.835937 0 7.675781-1.464844 10.605469-4.394531l86.347656-86.347657c7.265625 4.386719 14.1875 3.882813 16.3125 3.671876 7.964844-.78125 15.082031-5.050782 19.527344-11.71875 17.535156-26.296876 26.804687-56.90625 26.804687-88.519532v-61.054687l148.257813-107.820313c17.832031-12.976562 28.476562-33.878906 28.476562-55.9375 0-55.074218-44.804688-99.878906-99.898438-99.878906zm-236.433593 475.789062-32.347657-32.347656 37.59375-37.59375c5.859376-5.855468 5.859376-15.355468 0-21.210937-5.855468-5.859375-15.355468-5.859375-21.210937 0l-37.59375 37.59375-32.335937-32.339844 37.59375-37.59375c5.855468-5.855469 5.855468-15.355469 0-21.210937-5.859376-5.859376-15.355469-5.859376-21.214844 0l-37.59375 37.59375-32.34375-32.34375 75.1875-75.1875 139.449218 139.453124zm290.210937-344.234374-154.433594 112.316406c-3.882812 2.820312-6.179687 7.332031-6.179687 12.128906v68.691406c0 24.277344-6.734375 47.832032-19.511719 68.378906l-164.050781-164.050781c-.238281-.234375-.355469-.589843-.300781-.917969.054687-.339843.273437-.636718.589844-.792968l10.390624-5.199219c20.125-10.058594 42.648438-15.375 65.144532-15.375h58.472656c4.800781 0 9.308594-2.296875 12.132812-6.179687l112.3125-154.429688c7.347657-10.097656 19.179688-16.125 31.675782-16.125 38.53125 0 69.878906 31.347656 69.878906 69.894531 0 12.480469-6.027344 24.316407-16.121094 31.660157zm0 0"/><path d="m431.667969 95.332031c0 8.285157-6.714844 15-15 15-8.285157 0-15-6.714843-15-15 0-8.28125 6.714843-15 15-15 8.285156 0 15 6.71875 15 15zm0 0"/></g></svg>