<svg height="511pt" viewBox="0 0 511 511.99968" width="511pt" xmlns="http://www.w3.org/2000/svg"><path d="m497.5 0h-34.898438c-37.238281 0-71.359374 17.488281-88.816406 37.210938l-232.160156 263.113281c-10.230469-5.054688-35.734375-11.328125-56.398438 9.335937-20.917968 20.914063-14.382812 46.636719-8.953124 57.160156l-.460938.464844c-11.816406 11.816406-27.53125 18.324219-44.246094 18.324219-7.332031 0-13.589844 5.300781-14.796875 12.535156l-16.066406 96.398438c-.796875 4.777343.765625 9.648437 4.191406 13.074219 4.640625 4.640624 10.292969 4.652343 13.070313 4.1875l96.402344-16.066407c7.230468-1.207031 12.53125-7.464843 12.53125-14.796875 0-16.714844 6.507812-32.425781 18.324218-44.246094l.464844-.464843c10.332031 5.328125 36.21875 11.976562 57.148438-8.957031 20.65625-20.65625 14.457031-46.035157 9.339843-56.402344l263.113281-232.15625c18.542969-16.339844 37.210938-50.152344 37.210938-88.816406v-34.898438c0-8.285156-6.714844-15-15-15zm-399.71875 468.089844-64.03125 10.671875 10.667969-64.03125c19.304687-2.664063 37.175781-11.320313 51.402343-25.050781l27.007813 27.007812c-13.730469 14.226562-22.382813 32.097656-25.046875 51.402344zm83.84375-62.03125c-7.457031 7.460937-19.523438 7.464844-26.984375 0l-48.199219-48.199219c-7.460937-7.460937-7.464844-19.523437-.003906-26.984375s19.523438-7.464844 26.988281-.003906l48.199219 48.203125c7.460938 7.460937 7.464844 19.523437 0 26.984375zm300.875-356.160156c0 25.140624-9.734375 48.789062-27.421875 66.640624l-262.203125 231.355469-28.269531-28.269531 231.355469-262.203125c17.851562-17.6875 41.5-27.421875 66.640624-27.421875h19.898438zm0 0"/></svg>