<svg height="512pt" viewBox="0 0 512 512" width="512pt" xmlns="http://www.w3.org/2000/svg"><path d="m512 84.40625c0-46.542969-37.863281-84.40625-84.40625-84.40625-21.398438 0-41.515625 8.335938-56.628906 23.464844-23.929688 23.890625-64.015625 63.972656-82.9375 82.894531-19.257813-16.585937-48.457032-15.777344-66.722656 2.457031-19.203126 19.167969-19.238282 50.226563-.003907 69.429688 1.75 1.746094 3.574219 3.570312 5.457031 5.453125-23.25 23.253906-80.320312 80.328125-125.945312 125.945312-.011719.011719-.023438.019531-.035156.03125-13.53125 13.53125-26.050782 26.046875-36.382813 36.375-20.800781 20.832031-32.261719 48.5-32.261719 77.917969 0 1.617188-.667968 3.21875-1.800781 4.359375-4.894531 4.902344-11.792969 11.792969-17.277343 17.261719-8.296876 8.320312-13.054688 19.820312-13.054688 31.550781v.015625c0 19.214844 15.628906 34.84375 34.84375 34.84375 11.777344 0 23.292969-4.773438 31.554688-13.0625 5.472656-5.453125 12.390624-12.363281 17.320312-17.304688 1.117188-1.121093 2.6875-1.765624 4.304688-1.765624 29.039062 0 57.445312-11.769532 77.921874-32.277344 45.15625-45.136719 132.195313-132.179688 162.355469-162.339844 1.886719 1.886719 3.71875 3.714844 5.46875 5.464844 19.128907 19.09375 50.257813 19.101562 69.394531 0 18.339844-18.304688 19.195313-47.4375 2.480469-66.746094 18.925781-18.921875 59-58.992188 82.925781-82.886719 15.109376-15.117187 23.429688-35.238281 23.429688-56.675781zm-264.03125 120.507812s49.679688 49.6875 59.113281 59.125c-9.300781 9.300782-24.011719 24.011719-41.226562 41.226563h-118.238281c39.546874-39.542969 81.289062-81.289063 100.351562-100.351563zm-103.238281 221.46875c-14.90625 14.925782-35.574219 23.484376-56.707031 23.484376-9.550782 0-18.875 3.871093-25.558594 10.597656-4.890625 4.898437-11.789063 11.789062-17.277344 17.261718-10.804688 10.835938-21.621094-.1875-10.921875-10.921874 5.472656-5.453126 12.390625-12.363282 17.332031-17.3125 6.792969-6.851563 10.535156-15.914063 10.535156-25.53125 0-21.402344 8.34375-41.542969 23.480469-56.703126 9.207031-9.199218 20.152344-20.144531 32-31.992187h118.246094c-32.414063 32.414063-67.503906 67.5-91.128906 91.117187zm237.238281-156.898437c-7.445312 7.429687-19.5625 7.429687-27 .003906l-112.472656-112.472656c-7.46875-7.453125-7.46875-19.507813 0-26.964844 7.445312-7.433593 19.5625-7.433593 27.003906-.003906l112.46875 112.46875c7.46875 7.457031 7.472656 19.511719 0 26.96875zm85.394531-149.621094c-23.878906 23.84375-63.859375 63.820313-82.832031 82.789063l-75.179688-75.191406c18.96875-18.96875 58.9375-58.933594 82.820313-82.777344 9.460937-9.46875 22.039063-14.683594 35.421875-14.683594 30 0 54.40625 24.40625 54.40625 54.425781 0 13.40625-5.203125 25.996094-14.636719 35.4375zm0 0"/></svg>