<svg height="511pt" viewBox="-16 1 511 511.999" width="511pt" xmlns="http://www.w3.org/2000/svg"><path d="m372.804688 0c-27.203126 0-52.777344 10.59375-72.011719 29.828125l-215.566407 215.566406c-2.8125 2.8125-4.394531 6.628907-4.394531 10.605469v41.988281l-75.9375 75.9375c-4.339843 4.335938-5.597656 10.878907-3.183593 16.515625l48.203124 112.464844c2.371094 5.535156 7.804688 9.09375 13.785157 9.09375 3.941406 0 7.769531-1.554688 10.605469-4.394531l108.074218-108.074219h41.988282c3.976562 0 7.792968-1.582031 10.605468-4.394531l215.566406-215.566407c19.234376-19.230468 29.828126-44.804687 29.828126-72.027343 0-59.300781-48.246094-107.542969-107.5625-107.542969zm-304.046876 470.726562-35.472656-82.765624 47.683594-47.683594c1.960938 31.710937 27.40625 57.15625 59.117188 59.121094zm149.394532-101.195312h-41.980469c-.003906 0-.007813 0-.011719 0h-32.128906c-18.304688 0-33.199219-14.890625-33.199219-33.199219v-74.117187l201.902344-201.902344 107.316406 107.320312zm221.699218-224.523438-104.492187-104.496093c11.164063-6.84375 24.023437-10.511719 37.460937-10.511719 42.757813 0 77.546876 34.785156 77.546876 77.558594 0 13.429687-3.671876 26.285156-10.515626 37.449218zm0 0"/><path d="m371.539062 157.027344-48.199218-48.199219c-5.859375-5.859375-15.359375-5.851563-21.214844 0l-160.664062 160.664063c-2.8125 2.816406-4.394532 6.628906-4.394532 10.609374v48.199219c0 8.285157 6.714844 15 15 15h48.199219c3.976563 0 7.792969-1.582031 10.605469-4.394531l56.226562-56.226562c.003906-.003907.007813-.003907.007813-.007813l104.433593-104.433594c5.859376-5.855469 5.859376-15.351562 0-21.210937zm-115.039062 93.824218-26.988281-26.984374 35.019531-35.019532 26.988281 26.984375zm-62.449219 62.449219h-26.984375v-26.988281l41.234375-41.234375 26.984375 26.988281zm118.683594-118.679687-26.988281-26.988282 26.988281-26.988281 26.984375 26.988281zm0 0"/></svg>