<svg height="512pt" viewBox="0 0 512.0005 512" width="512pt" xmlns="http://www.w3.org/2000/svg"><path d="m496.285156 153.738281c-14.855468-14.867187-123.386718-123.375-138-138-9.96875-10.003906-23.796875-15.738281-38.019531-15.738281-14.683594 0-28.804687 6.988281-37.800781 18.730469-37.984375 49.90625-179.46875 235.636719-230.246094 302.253906-14.175781 18.664063-12.402344 45.257813 4.152344 61.882813.546875.546874 1.109375 1.109374 1.675781 1.675781l-53.652344 53.648437c-5.859375 5.859375-5.859375 15.355469 0 21.214844l48.199219 48.199219c2.929688 2.929687 6.769531 4.394531 10.605469 4.394531 3.839843 0 7.679687-1.464844 10.605469-4.394531l53.667968-53.667969c.558594.558594 1.113282 1.113281 1.65625 1.65625 9.09375 9.128906 21.195313 13.796875 33.359375 13.796875 10.023438 0 20.085938-3.167969 28.535157-9.613281l15.992187-12.1875c75.304687-57.367188 239.296875-182.304688 286.332031-218.121094 11.679688-8.945312 18.652344-23.070312 18.652344-37.785156 0-14.300782-5.578125-27.773438-15.714844-37.945313zm-390.03125 278.996094-43.054687 43.054687-26.984375-26.988281 43.046875-43.050781zm66.589844 3.179687c-.003906 0-.007812.003907-.011719.007813-6.785156 5.179687-16.433593 4.539063-22.464843-1.519531 0 0-69.046876-69.015625-72.761719-72.726563-6.019531-6.046875-6.664063-15.738281-1.511719-22.523437 40.222656-52.773438 137.394531-180.324219 194.902344-255.839844l157.660156 157.71875c-69.105469 52.640625-255.8125 194.882812-255.8125 194.882812zm302.296875-230.289062c-5.808594 4.425781-13.410156 10.210938-22.402344 17.0625l-163.402343-163.460938c6.832031-8.96875 12.59375-16.542968 16.972656-22.289062 9.054687-11.816406 24.421875-6.347656 30.742187-.007812 14.628907 14.640624 123.15625 123.148437 138 138 6.507813 6.53125 11.632813 21.855468.089844 30.695312zm0 0"/><path d="m315.261719 197.660156c-.152344-.164062-.308594-.328125-.464844-.484375-23.433594-23.386719-62.042969-21.328125-82.792969 4.585938-25.859375 32.261719-64.769531 80.878906-85.960937 107.453125-12.90625 16.089844-11.636719 39.214844 2.957031 53.796875s37.714844 15.808593 53.792969 2.972656c25.789062-20.628906 74.148437-59.335937 107.371093-85.929687 25.75-20.488282 28.195313-58.789063 5.097657-82.394532zm-23.808594 58.945313-107.394531 85.945312c-4.148438 3.3125-10.105469 2.984375-13.855469-.761719-3.746094-3.742187-4.070313-9.679687-.753906-13.808593.011719-.015625.042969-.050781.03125-.039063-.03125.039063 85.9375-107.425781 85.9375-107.425781 9.070312-11.324219 26.546875-13.328125 37.863281-2.421875.105469.113281.214844.222656.324219.332031 10.824219 10.800781 9.898437 28.589844-2.152344 38.179688zm0 0"/></svg>