<svg height="512pt" viewBox="0 0 512 512" width="512pt" xmlns="http://www.w3.org/2000/svg"><path d="m400.601562 463.800781c34.847657 0 63.199219-28.351562 63.199219-63.203125 0-34.847656-28.351562-63.199218-63.199219-63.199218-34.847656 0-63.199218 28.351562-63.199218 63.199218 0 34.851563 28.351562 63.203125 63.199218 63.203125zm0-96.402343c18.304688 0 33.199219 14.894531 33.199219 33.199218 0 18.308594-14.894531 33.203125-33.199219 33.203125-18.308593 0-33.199218-14.894531-33.199218-33.203125 0-18.304687 14.890625-33.199218 33.199218-33.199218zm0 0"/><path d="m512 77.554688v-62.554688c0-6.066406-3.652344-11.539062-9.261719-13.859375-5.601562-2.320313-12.054687-1.039063-16.34375 3.253906l-230.394531 230.390625-230.394531-230.390625c-4.289063-4.292969-10.742188-5.574219-16.34375-3.253906-5.609375 2.320313-9.261719 7.792969-9.261719 13.859375v62.554688c0 36.191406 14.09375 70.21875 39.683594 95.808593l115.835937 115.835938h-44.121093c-61.515626 0-111.398438 49.769531-111.398438 111.398437v.804688c0 61.09375 49.417969 110.597656 110.621094 110.597656 52.851562 0 98.894531-36.722656 110.914062-87.855469l34.464844-34.464843 34.464844 34.464843c12.027344 51.132813 58.070312 87.855469 110.9375 87.855469 61.085937 0 110.597656-49.417969 110.597656-110.597656v-.804688c0-61.519531-49.769531-111.398437-111.398438-111.398437h-44.121093l115.835937-115.835938c25.589844-25.589843 39.683594-59.617187 39.683594-95.808593zm-482 0v-26.34375l228.886719 228.886718-35.019531 35.023438-162.96875-162.972656c-19.925782-19.921876-30.898438-46.414063-30.898438-74.59375zm167.191406 328.503906c-2.078125 2.082031-3.503906 4.730468-4.089844 7.613281l-.171874.847656c-7.816407 39.101563-42.433594 67.480469-82.332032 67.480469-44.523437 0-80.597656-36.015625-80.597656-80.597656v-.804688c0-44.945312 36.367188-81.398437 81.398438-81.398437h74.121093l49.265625 49.265625zm284.808594-5.460938v.804688c0 44.527344-36.015625 80.597656-80.621094 80.597656-39.875 0-74.492187-28.378906-82.3125-67.480469l-.167968-.84375c-.585938-2.886719-2.011719-5.535156-4.09375-7.613281l-69.726563-69.730469 35.019531-35.019531 13.496094 13.492188c2.8125 2.816406 6.625 4.394531 10.605469 4.394531h96.398437c44.949219 0 81.402344 36.367187 81.402344 81.398437zm-167.945312-111.398437h-3.640626l-33.199218-33.199219 204.785156-204.789062v26.34375c0 28.179687-10.972656 54.667968-30.894531 74.59375zm0 0"/><path d="m111.398438 337.398438c-34.847657 0-63.199219 28.351562-63.199219 63.199218 0 34.851563 28.351562 63.203125 63.199219 63.203125 34.847656 0 63.203124-28.351562 63.203124-63.203125 0-34.847656-28.351562-63.199218-63.203124-63.199218zm0 96.402343c-18.304688 0-33.199219-14.894531-33.199219-33.203125 0-18.304687 14.894531-33.199218 33.199219-33.199218 18.308593 0 33.203124 14.894531 33.203124 33.199218 0 18.308594-14.894531 33.203125-33.203124 33.203125zm0 0"/></svg>