<svg height="512pt" viewBox="-129 0 512 512" width="512pt" xmlns="http://www.w3.org/2000/svg"><path d="m201.5 324.382812c6.03125-4.097656 11.78125-8.746093 17.167969-13.960937.015625-.015625.03125-.03125.046875-.050781 40.316406-39.039063 47.960937-99.390625 18.585937-146.769532l-97.019531-156.503906c-2.734375-4.414062-7.558594-7.097656-12.75-7.097656s-10.015625 2.683594-12.75 7.097656l-97.015625 156.503906c-29.378906 47.378907-21.734375 107.730469 18.582031 146.773438.015625.015625.03125.03125.050782.046875 5.257812 5.09375 10.867187 9.644531 16.746093 13.667969l-33.667969 169.996094c-.871093 4.402343.277344 8.964843 3.125 12.433593 2.847657 3.46875 7.101563 5.480469 11.589844 5.480469h189.738282c4.542968 0 8.839843-2.058594 11.6875-5.597656 2.847656-3.535156 3.9375-8.175782 2.96875-12.609375zm-158.238281-144.972656 84.269531-135.941406 84.269531 135.941406c21.882813 35.289063 16.136719 80.289063-13.972656 109.433594-.019531.015625-.035156.03125-.050781.046875-38.742188 37.476563-101.753906 37.472656-140.496094-.003906-.015625-.015625-.03125-.03125-.046875-.042969-30.109375-29.140625-35.855469-74.140625-13.972656-109.433594zm84.269531 167.492188c15.742188 0 31.480469-2.773438 46.371094-8.304688l17.320312 79.136719h-126.039062l15.691406-79.246094c14.972656 5.605469 30.8125 8.414063 46.65625 8.414063zm-75.078125 135.097656 6.789063-34.265625h138.550781l7.5 34.265625zm0 0"/></svg>