<svg height="512pt" viewBox="-96 0 512 512" width="512pt" xmlns="http://www.w3.org/2000/svg"><path d="m275.851562 211.730469c-26.1875-43.652344-55.191406-91.984375-55.191406-91.984375-2.710937-4.515625-7.589844-7.28125-12.859375-7.28125h-1.066406v-65.332032c0-25.988281-21.144531-47.132812-47.132813-47.132812-25.992187 0-47.132812 21.144531-47.132812 47.132812v65.332032h-1.070312c-5.265626 0-10.148438 2.765625-12.859376 7.28125 0 0-29.003906 48.332031-55.191406 91.984375-28.359375 47.265625-43.347656 101.382812-43.347656 156.503906v128.765625c0 8.285156 6.714844 15 15 15h289.199219c8.285156 0 15-6.714844 15-15v-128.765625c0-55.121094-14.988281-109.238281-43.347657-156.503906zm-133.382812-164.597657c0-9.445312 7.683594-17.132812 17.132812-17.132812 9.445313 0 17.132813 7.6875 17.132813 17.132812v65.332032h-34.269531v-65.332032zm-73.394531 180.03125c20.050781-33.421874 41.75-69.582031 50.820312-84.695312h79.414063c9.070312 15.113281 30.769531 51.273438 50.820312 84.695312 23.023438 38.375 36.265625 81.761719 38.667969 126.304688h-258.394531c2.40625-44.542969 15.648437-87.929688 38.671875-126.304688zm-39.074219 254.835938v-98.53125h259.199219v98.53125zm0 0"/></svg>