<svg height="512pt" viewBox="-96 0 512 512" width="512pt" xmlns="http://www.w3.org/2000/svg"><path d="m319.199219 336.328125v-.226563c0-55.117187-14.988281-109.238281-43.351563-156.503906l-103.382812-172.316406c-2.710938-4.515625-7.597656-7.28125-12.863282-7.28125-5.269531 0-10.152343 2.765625-12.863281 7.28125l-103.386719 172.316406c-28.359374 47.269532-43.351562 101.386719-43.351562 156.503906v160.898438c0 8.285156 6.714844 15 15 15h289.199219c8.285156 0 15-6.714844 15-15v-160.660156c0-.003906 0-.007813 0-.011719zm-159.597657-292.171875 50.625 84.375h-101.253906zm-90.527343 150.875 21.902343-36.5h137.25l21.898438 36.5c18.871094 31.453125 31.164062 66.269531 36.3125 102.328125l-51.964844-51.964844c-6.28125-6.285156-16.714844-5.773437-22.316406 1.234375l-52.554688 65.691406-52.554687-65.691406c-5.578125-6.972656-16-7.554687-22.320313-1.234375l-51.964843 51.964844c5.148437-36.058594 17.441406-70.875 36.3125-102.328125zm41.261719 103.730469 37.550781 46.941406c6.003906 7.503906 17.429687 7.5 23.425781 0l37.554688-46.941406v183.238281h-98.53125zm-80.335938 43.785156 50.332031-50.332031v189.785156h-50.332031zm208.867188 139.453125v-189.785156l50.332031 50.332031v139.453125zm0 0"/></svg>