<svg height="512pt" viewBox="-64 0 512 512.00046" width="512pt" xmlns="http://www.w3.org/2000/svg"><path d="m329.871094 300.710938c-27.203125-22.667969-42.804688-55.972657-42.804688-91.382813v-65.792969c0-8.285156-6.714844-15-15-15h-17.132812v-113.535156c0-5.199219-2.691406-10.027344-7.113282-12.757812-4.421874-2.734376-9.941406-2.984376-14.59375-.660157l-96.398437 48.203125c-5.082031 2.539063-8.292969 7.734375-8.292969 13.414063v65.335937h-17.132812c-8.285156 0-15 6.714844-15 15v65.792969c0 35.410156-15.601563 68.714844-42.804688 91.382813-34.0625 28.378906-53.597656 70.089843-53.597656 114.429687v81.859375c0 8.285156 6.714844 15 15 15h353.46875c8.28125 0 15-6.714844 15-15v-81.859375c0-44.339844-19.539062-86.046875-53.597656-114.429687zm-171.335938-228.238282 66.398438-33.203125v89.265625h-66.398438zm-85.730468 251.285156c34.058593-28.382812 53.597656-70.089843 53.597656-114.429687v-50.792969h130.664062v50.792969c0 44.339844 19.535156 86.046875 53.597656 114.429687 23.722657 19.765626 38.617188 47.625 42.042969 77.910157h-321.945312c3.425781-30.289063 18.320312-58.144531 42.042969-77.910157zm-42.804688 158.242188v-50.332031h323.46875v50.332031zm0 0"/></svg>