<svg height="512pt" viewBox="0 -72 512.00042 512" width="512pt" xmlns="http://www.w3.org/2000/svg"><path d="m510.417969 217.160156c-2.542969-5.082031-7.734375-8.292968-13.417969-8.292968h-104.085938l-124.140624-201.726563c-2.730469-4.4375-7.566407-7.140625-12.773438-7.140625-5.210938 0-10.046875 2.703125-12.773438 7.140625l-124.140624 201.726563h-104.085938c-5.683594 0-10.875 3.210937-13.417969 8.292968-2.539062 5.078125-1.992187 11.160156 1.417969 15.707032l96.398438 128.53125c2.835937 3.777343 7.28125 6 12 6h289.203124c4.71875 0 9.164063-2.222657 12-6l96.398438-128.53125c3.410156-4.546876 3.957031-10.628907 1.417969-15.707032zm-239.417969-149.164062 86.691406 140.871094h-86.691406zm-30 0v140.871094h-86.691406zm152.101562 269.402344h-274.203124l-73.898438-98.53125h422zm0 0"/></svg>