<svg height="512pt" viewBox="0 0 512 512" width="512pt" xmlns="http://www.w3.org/2000/svg"><path d="m497 64.265625h-49.265625v-17.132813c0-25.988281-21.144531-47.132812-47.132813-47.132812h-289.203124c-25.988282 0-47.132813 21.144531-47.132813 47.132812v17.132813h-49.265625c-8.285156 0-15 6.714844-15 15s6.714844 15 15 15h49.265625v17.132813c0 25.992187 21.144531 47.132812 47.132813 47.132812h289.203124c25.988282 0 47.132813-21.140625 47.132813-47.132812v-17.132813h34.265625v17.132813c0 44.886718-36.515625 81.402343-81.398438 81.402343h-112.46875c-25.804687 0-47.132812 20.855469-47.132812 47.132813v35.660156c-18.65625 6.28125-32.132812 23.925781-32.132812 44.671875v144.601563c0 12.589843 4.902343 24.425781 13.796874 33.316406 8.898438 8.910156 20.738282 13.816406 33.335938 13.816406 25.988281 0 47.132812-21.144531 47.132812-47.132812v-144.601563c0-12.589844-4.902343-24.421875-13.796874-33.316406-5.238282-5.246094-11.503907-9.089844-18.335938-11.375v-35.640625c0-9.4375 7.636719-17.132813 17.132812-17.132813h112.46875c61.425782 0 111.398438-49.972656 111.398438-111.398437v-32.136719c0-8.285156-6.714844-15-15-15zm-79.265625 47.132813c0 9.449218-7.6875 17.132812-17.132813 17.132812h-289.203124c-9.445313 0-17.132813-7.683594-17.132813-17.132812v-64.265626c0-9.445312 7.6875-17.132812 17.132813-17.132812h289.203124c9.445313 0 17.132813 7.6875 17.132813 17.132812zm-144.601563 353.46875c0 9.445312-7.6875 17.132812-17.132812 17.132812-4.578125 0-8.878906-1.78125-12.117188-5.023438-3.234374-3.234374-5.015624-7.535156-5.015624-12.109374v-144.601563c0-9.445313 7.6875-17.132813 17.132812-17.132813 4.578125 0 8.878906 1.78125 12.117188 5.023438 3.234374 3.234375 5.015624 7.535156 5.015624 12.109375zm0 0"/></svg>