<svg height="512pt" viewBox="0 0 512 512" width="512pt" xmlns="http://www.w3.org/2000/svg"><path d="m256 0c-141.433594 0-256 114.433594-256 256 0 146.222656 119.519531 256 256 256 43.707031 0 79.265625-35.558594 79.265625-79.265625v-8.035156c0-49.375 39.960937-89.433594 89.433594-89.433594h8.035156c43.707031 0 79.265625-35.558594 79.265625-79.265625 0-137.679688-110.972656-256-256-256zm176.734375 305.265625h-8.035156c-65.953125 0-119.433594 53.375-119.433594 119.433594v8.035156c0 27.164063-22.101563 49.265625-49.265625 49.265625-121.4375 0-226-97.863281-226-226 0-124.84375 101.003906-226 226-226 121.621094 0 226 98.039062 226 226 0 27.164062-22.101562 49.265625-49.265625 49.265625zm0 0"/><path d="m111.398438 241c-25.988282 0-47.132813 21.144531-47.132813 47.132812 0 25.988282 21.144531 47.132813 47.132813 47.132813 25.992187 0 47.132812-21.144531 47.132812-47.132813 0-25.988281-21.140625-47.132812-47.132812-47.132812zm0 64.265625c-9.445313 0-17.132813-7.683594-17.132813-17.132813 0-9.445312 7.6875-17.132812 17.132813-17.132812 9.449218 0 17.132812 7.6875 17.132812 17.132812 0 9.445313-7.683594 17.132813-17.132812 17.132813zm0 0"/><path d="m400.601562 176.734375c-25.992187 0-47.132812 21.144531-47.132812 47.132813 0 25.988281 21.140625 47.132812 47.132812 47.132812 25.988282 0 47.132813-21.144531 47.132813-47.132812 0-25.988282-21.144531-47.132813-47.132813-47.132813zm0 64.265625c-9.449218 0-17.132812-7.6875-17.132812-17.132812 0-9.445313 7.683594-17.132813 17.132812-17.132813 9.445313 0 17.132813 7.6875 17.132813 17.132813 0 9.445312-7.6875 17.132812-17.132813 17.132812zm0 0"/><path d="m155.871094 193.976562c25.992187 0 47.136718-21.144531 47.136718-47.132812s-21.144531-47.132812-47.136718-47.132812c-25.988282 0-47.132813 21.144531-47.132813 47.132812s21.144531 47.132812 47.132813 47.132812zm0-64.265624c9.449218 0 17.136718 7.683593 17.136718 17.132812 0 9.445312-7.6875 17.132812-17.136718 17.132812-9.445313 0-17.132813-7.6875-17.132813-17.132812 0-9.449219 7.6875-17.132812 17.132813-17.132812zm0 0"/><path d="m300.472656 67.574219c-25.988281 0-47.132812 21.144531-47.132812 47.136719 0 25.988281 21.144531 47.132812 47.132812 47.132812 25.988282 0 47.132813-21.144531 47.132813-47.132812 0-25.992188-21.144531-47.136719-47.132813-47.136719zm0 64.269531c-9.445312 0-17.132812-7.6875-17.132812-17.132812 0-9.449219 7.6875-17.132813 17.132812-17.132813 9.449219 0 17.132813 7.683594 17.132813 17.132813 0 9.445312-7.683594 17.132812-17.132813 17.132812zm0 0"/><path d="m211.527344 350.15625c-25.988282 0-47.132813 21.144531-47.132813 47.132812 0 25.988282 21.144531 47.132813 47.132813 47.132813 25.988281 0 47.132812-21.144531 47.132812-47.132813 0-25.988281-21.144531-47.132812-47.132812-47.132812zm0 64.269531c-9.449219 0-17.132813-7.6875-17.132813-17.136719 0-9.445312 7.683594-17.132812 17.132813-17.132812 9.445312 0 17.132812 7.6875 17.132812 17.132812 0 9.449219-7.683594 17.136719-17.132812 17.136719zm0 0"/></svg>