<svg height="512pt" viewBox="-112 0 512 512" width="512pt" xmlns="http://www.w3.org/2000/svg"><path d="m272.066406 176.734375h-1.949218c-5.542969-47.101563-36.867188-86.425781-79.449219-103.429687v-58.304688c0-8.285156-6.714844-15-15-15h-64.269531c-8.28125 0-15 6.714844-15 15v58.296875c-42.578126 17-73.902344 56.328125-79.445313 103.4375h-1.953125c-8.285156 0-15 6.714844-15 15 0 8.28125 6.714844 15 15 15h1.066406v290.265625c0 8.285156 6.714844 15 15 15h224.933594c8.285156 0 15-6.714844 15-15v-290.265625h1.066406c8.285156 0 15-6.71875 15-15 0-8.285156-6.714844-15-15-15zm-145.664062-146.734375h34.265625v35.421875c-5.609375-.757813-11.332031-1.15625-17.148438-1.15625-5.804687 0-11.515625.398437-17.117187 1.152344zm17.148437 64.265625c48.640625 0 89.070313 35.824219 96.296875 82.46875h-192.628906c7.230469-46.648437 47.664062-82.46875 96.332031-82.46875zm97.449219 387.734375h-194.933594v-34.265625h194.9375v34.265625zm0-64.265625h-194.933594v-211h194.9375v211zm0 0"/><path d="m280.386719 66.785156-29.480469-19.648437 29.480469-19.652344c6.894531-4.597656 8.757812-13.910156 4.160156-20.800781-4.59375-6.894532-13.910156-8.757813-20.800781-4.164063l-48.199219 32.132813c-4.332031 2.890625-6.675781 7.640625-6.679687 12.484375.003906 4.839843 2.347656 9.589843 6.679687 12.480469l48.199219 32.132812c6.890625 4.59375 16.207031 2.730469 20.800781-4.160156 4.597656-6.894532 2.734375-16.207032-4.160156-20.804688zm0 0"/></svg>