<svg height="512pt" viewBox="0 0 512.00083 512" width="512pt" xmlns="http://www.w3.org/2000/svg"><path d="m497 512h-482c-8.285156 0-15-6.714844-15-15v-482c0-6.066406 3.652344-11.539062 9.261719-13.859375 5.601562-2.316406 12.054687-1.039063 16.34375 3.253906l482 482c4.292969 4.289063 5.574219 10.742188 3.253906 16.347657-2.324219 5.601562-7.792969 9.257812-13.859375 9.257812zm-467-30h430.785156l-430.785156-430.789062zm0 0"/><path d="m304.199219 431.667969h-208.867188c-8.28125 0-15-6.71875-15-15v-208.867188c0-6.066406 3.65625-11.539062 9.261719-13.859375 5.601562-2.320312 12.058594-1.039062 16.347656 3.253906l208.867188 208.863282c4.289062 4.289062 5.570312 10.742187 3.25 16.347656-2.324219 5.605469-7.789063 9.261719-13.859375 9.261719zm-193.867188-30h157.65625l-157.65625-157.65625zm0 0"/></svg>