<svg height="512pt" viewBox="-80 0 512 512" width="512pt" xmlns="http://www.w3.org/2000/svg"><path d="m215.832031 0h-80.332031c-74.84375 0-135.5 60.539062-135.5 135.5v241c0 74.84375 60.535156 135.5 135.5 135.5h80.332031c74.847657 0 135.5-60.539062 135.5-135.5v-241c0-74.84375-60.535156-135.5-135.5-135.5zm-40.167969 176.734375c-9.445312 0-17.132812-7.6875-17.132812-17.136719v-48.199218c0-9.445313 7.6875-17.132813 17.132812-17.132813 9.449219 0 17.136719 7.6875 17.136719 17.132813v48.203124c0 9.445313-7.6875 17.132813-17.136719 17.132813zm145.667969 199.765625c0 58.277344-47.132812 105.5-105.5 105.5h-80.332031c-58.277344 0-105.5-47.132812-105.5-105.5v-241c0-58.277344 47.132812-105.5 105.5-105.5h25.164062v36.726562c-18.652343 6.28125-32.132812 23.929688-32.132812 44.671876v48.203124c0 20.742188 13.480469 38.390626 32.132812 44.671876v35.660156c0 8.285156 6.71875 15 15 15 8.285157 0 15-6.714844 15-15v-35.660156c18.65625-6.28125 32.136719-23.929688 32.136719-44.671876v-48.203124c0-20.742188-13.480469-38.390626-32.136719-44.671876v-36.726562h25.167969c58.277344 0 105.5 47.132812 105.5 105.5zm0 0"/></svg>