<svg height="511pt" viewBox="1 -80 511.999 511" width="511pt" xmlns="http://www.w3.org/2000/svg"><path d="m464.867188 257.566406h-17.132813v-209.933594c0-25.820312-20.867187-47.132812-47.132813-47.132812h-289.203124c-26.351563 0-47.132813 21.402344-47.132813 47.132812v209.933594h-17.132813c-26.351562 0-47.132812 21.402344-47.132812 47.132813 0 25.824219 20.867188 47.132812 47.132812 47.132812h417.734376c26.351562 0 47.132812-21.402343 47.132812-47.132812 0-25.914063-20.953125-47.132813-47.132812-47.132813zm-370.601563-209.933594c0-9.355468 7.566406-17.132812 17.132813-17.132812h289.203124c9.355469 0 17.132813 7.566406 17.132813 17.132812v209.933594h-323.46875zm370.601563 274.199219h-417.734376c-9.355468 0-17.132812-7.5625-17.132812-17.132812 0-9.359375 7.566406-17.132813 17.132812-17.132813h417.734376c9.355468 0 17.132812 7.566406 17.132812 17.132813 0 9.359375-7.566406 17.132812-17.132812 17.132812zm0 0"/><path d="m352.398438 64.765625h-192.796876c-8.285156 0-15 6.71875-15 15 0 8.285156 6.714844 15 15 15h192.796876c8.285156 0 15-6.714844 15-15 0-8.28125-6.714844-15-15-15zm0 0"/><path d="m352.398438 129.03125h-192.796876c-8.285156 0-15 6.71875-15 15 0 8.285156 6.714844 15 15 15h192.796876c8.285156 0 15-6.714844 15-15 0-8.28125-6.714844-15-15-15zm0 0"/><path d="m239.933594 193.300781h-80.332032c-8.285156 0-15 6.714844-15 15 0 8.285157 6.714844 15 15 15h80.332032c8.285156 0 15-6.714843 15-15 0-8.285156-6.714844-15-15-15zm0 0"/></svg>