<svg height="512pt" viewBox="-32 0 511 512" width="512pt" xmlns="http://www.w3.org/2000/svg"><path d="m416.101562 275.589844v-164.195313c0-25.914062-20.953124-47.132812-47.136718-47.132812h-129.597656v-49.261719c0-8.285156-6.71875-15-15-15-8.285157 0-15 6.714844-15 15v49.261719h-129.601563c-26.351563 0-47.132813 21.40625-47.132813 47.136719v164.195312c-18.65625 6.277344-32.132812 23.925781-32.132812 44.667969 0 25.992187 21.144531 47.136719 47.132812 47.136719h107.722657l-25.632813 76.902343c-.007812.015625-.011718.035157-.019531.050781l-15.96875 47.902344c-3.148437 9.445313 3.726563 19.746094 14.234375 19.746094 6.277344 0 12.132812-3.976562 14.226562-10.261719l12.648438-37.941406h139.046875l12.644531 37.941406c2.097656 6.285157 7.949219 10.261719 14.230469 10.261719 10.742187 0 17.3125-10.507812 14.230469-19.746094l-15.96875-47.914062c-.003906-.003906-.003906-.011719-.007813-.015625l-25.640625-76.925781h107.722656c25.988282 0 47.132813-21.144532 47.132813-47.136719-.003906-20.746094-13.480469-38.390625-32.132813-44.671875zm-353.46875-164.195313c0-9.335937 7.546876-17.132812 17.132813-17.132812h289.199219c9.4375 0 17.136718 7.640625 17.136718 17.132812v161.734375h-323.46875zm221.253907 322.402344h-119.042969l22.132812-66.398437h74.777344zm117.214843-96.402344h-353.46875c-9.445312 0-17.132812-7.683593-17.132812-17.132812 0-9.445313 7.6875-17.132813 17.132812-17.132813h353.46875c9.445313 0 17.132813 7.6875 17.132813 17.132813 0 9.449219-7.6875 17.132812-17.132813 17.132812zm0 0"/></svg>