<svg height="512pt" viewBox="0 0 512.00025 512" width="512pt" xmlns="http://www.w3.org/2000/svg"><path d="m328.300781 206.734375c30.417969 0 55.167969-24.75 55.167969-55.167969 0-30.417968-24.75-55.164062-55.167969-55.164062s-55.167969 24.746094-55.167969 55.164062c0 30.417969 24.75 55.167969 55.167969 55.167969zm0-80.332031c13.875 0 25.167969 11.289062 25.167969 25.164062 0 13.878906-11.292969 25.167969-25.167969 25.167969-13.878906 0-25.167969-11.289063-25.167969-25.167969 0-13.875 11.289063-25.164062 25.167969-25.164062zm0 0"/><path d="m151.566406 206.734375c30.417969 0 55.167969-24.75 55.167969-55.167969 0-30.417968-24.75-55.164062-55.167969-55.164062-30.417968 0-55.167968 24.746094-55.167968 55.164062 0 30.417969 24.75 55.167969 55.167968 55.167969zm0-80.332031c13.875 0 25.167969 11.289062 25.167969 25.164062 0 13.878906-11.292969 25.167969-25.167969 25.167969-13.878906 0-25.167968-11.289063-25.167968-25.167969 0-13.875 11.289062-25.164062 25.167968-25.164062zm0 0"/><path d="m328.300781 273.132812c-30.417969 0-55.167969 24.75-55.167969 55.167969s24.75 55.167969 55.167969 55.167969 55.167969-24.75 55.167969-55.167969-24.75-55.167969-55.167969-55.167969zm0 80.335938c-13.878906 0-25.167969-11.292969-25.167969-25.167969 0-13.878906 11.289063-25.167969 25.167969-25.167969 13.875 0 25.167969 11.289063 25.167969 25.167969 0 13.875-11.292969 25.167969-25.167969 25.167969zm0 0"/><path d="m192.800781 239.933594c0 25.988281 21.144531 47.132812 47.132813 47.132812 25.988281 0 47.132812-21.144531 47.132812-47.132812 0-25.988282-21.144531-47.132813-47.132812-47.132813-25.988282 0-47.132813 21.144531-47.132813 47.132813zm47.132813-17.132813c9.449218 0 17.132812 7.6875 17.132812 17.132813 0 9.449218-7.683594 17.132812-17.132812 17.132812-9.445313 0-17.132813-7.683594-17.132813-17.132812 0-9.445313 7.683594-17.132813 17.132813-17.132813zm0 0"/><path d="m151.566406 273.132812c-30.417968 0-55.167968 24.75-55.167968 55.167969s24.75 55.167969 55.167968 55.167969c30.417969 0 55.167969-24.75 55.167969-55.167969s-24.75-55.167969-55.167969-55.167969zm0 80.335938c-13.878906 0-25.167968-11.292969-25.167968-25.167969 0-13.878906 11.289062-25.167969 25.167968-25.167969 13.875 0 25.167969 11.289063 25.167969 25.167969 0 13.875-11.292969 25.167969-25.167969 25.167969zm0 0"/><path d="m507.605469 486.394531c-23.554688-23.554687-54.871094-36.527343-88.175781-36.527343h-63.441407c73.808594-40.964844 123.875-119.707032 123.875-209.933594.003907-132.300782-107.632812-239.933594-239.929687-239.933594-132.300782 0-239.933594 107.632812-239.933594 239.933594 0 132.300781 107.632812 239.933594 239.933594 239.933594h179.496094c25.292968 0 49.074218 9.851562 66.964843 27.738281 2.925781 2.929687 6.765625 4.394531 10.605469 4.394531s7.679688-1.464844 10.605469-4.394531c5.859375-5.855469 5.859375-15.355469 0-21.210938zm-477.605469-246.460937c0-115.757813 94.175781-209.933594 209.933594-209.933594 115.757812 0 209.933594 94.175781 209.933594 209.933594 0 115.757812-94.175782 209.933594-209.933594 209.933594-115.757813 0-209.933594-94.175782-209.933594-209.933594zm0 0"/></svg>