<svg height="512pt" viewBox="-80 0 512 512" width="512pt" xmlns="http://www.w3.org/2000/svg"><path d="m175.667969 0c-96.863281 0-175.667969 78.804688-175.667969 175.667969 0 22.863281 4.878906 80.011719 54.664062 127.152343 26.523438 25.441407 41.734376 61.078126 41.734376 97.773438v.007812c0 8.28125 6.71875 15 15 15h128.613281c8.285156 0 15-6.71875 15-15 0-36.667968 15.214843-72.285156 41.691406-97.679687 35.230469-33.519531 54.628906-78.710937 54.628906-127.253906.003907-96.863281-78.800781-175.667969-175.664062-175.667969zm100.316406 281.226562c-28.761719 27.582032-46.632813 64.976563-50.277344 104.375h-29.230469l41.621094-124.859374c1.523438-4.570313.757813-9.601563-2.0625-13.511719-2.816406-3.914063-7.347656-6.230469-12.167968-6.230469h-96.398438c-4.824219 0-9.351562 2.316406-12.171875 6.230469-2.816406 3.910156-3.585937 8.9375-2.0625 13.511719l41.621094 124.859374h-29.148438c-3.640625-39.421874-21.519531-76.847656-50.347656-104.496093-29.25-27.699219-45.359375-65.144531-45.359375-105.4375 0-80.320313 65.347656-145.667969 145.667969-145.667969 80.320312 0 145.667969 65.347656 145.667969 145.667969 0 40.246093-16.09375 77.722656-45.351563 105.558593zm-100.316406 71.9375-27.390625-82.164062h54.777344zm0 0"/><path d="m223.867188 433.800781h-96.398438c-8.285156 0-15 6.714844-15 15 0 8.285157 6.714844 15 15 15h96.398438c8.285156 0 15-6.714843 15-15 0-8.285156-6.714844-15-15-15zm0 0"/><path d="m207.800781 482h-64.269531c-8.28125 0-15 6.714844-15 15s6.71875 15 15 15h64.269531c8.285157 0 15-6.714844 15-15s-6.714843-15-15-15zm0 0"/></svg>