<svg height="512pt" viewBox="0 0 512 512" width="512pt" xmlns="http://www.w3.org/2000/svg"><path d="m501.878906 111.644531c6.527344-6.457031 10.121094-15.101562 10.121094-24.34375 0-9.238281-3.589844-17.878906-10.113281-24.335937 0 0-52.921875-52.972656-52.820313-52.867188.035156.035156-.066406-.070312-.101562-.105468-6.542969-6.441407-15.160156-9.992188-24.265625-9.992188-9.101563 0-17.71875 3.550781-24.261719 9.992188-.035156.035156-.066406.066406-.101562.101562-3.855469 3.871094-9.429688 9.445312-15.808594 15.820312l-5.453125-5.453124c-5.859375-5.859376-15.355469-5.859376-21.214844 0-5.855469 5.855468-5.855469 15.351562 0 21.210937l5.457031 5.457031c-5.128906 5.132813-10.195312 10.203125-14.855468 14.878906-8.894532 8.894532-13.792969 20.730469-13.792969 33.324219 0 3.839844.460937 7.605469 1.347656 11.242188l-64.9375 64.9375c-13.796875-9.476563-30.359375-14.75-47.210937-14.75-21.902344 0-43.339844 8.878906-58.828126 24.378906-6.09375 6.113281-12.105468 12.121094-17.578124 17.578125-12.636719 12.652344-28.625 21.210938-46.234376 24.738281-58.65625 11.742188-101.226562 63.671875-101.226562 123.480469v9.945312c0 85.53125 69.578125 155.117188 155.101562 155.117188h9.960938c59.824219 0 111.757812-42.574219 123.480469-101.230469.011719-.058593.023437-.121093.035156-.183593 3.550781-17.5 12.09375-33.429688 24.6875-46.046876 5.472656-5.457031 11.511719-11.484374 17.613281-17.609374 15.5-15.515626 24.390625-36.941407 24.390625-58.796876 0-16.824218-5.289062-33.386718-14.789062-47.199218l64.957031-64.957032c3.660156.902344 7.429688 1.378907 11.230469 1.378907 12.417969 0 24.570312-5.03125 33.339843-13.800781.007813-.007813.011719-.011719.015626-.019532 4.660156-4.671875 9.722656-9.738281 14.839843-14.859375l5.464844 5.460938c5.859375 5.859375 15.355469 5.859375 21.210937 0 5.859376-5.855469 5.859376-15.355469 0-21.210938l-5.460937-5.464843c6.367187-6.367188 11.933594-11.9375 15.800781-15.816407zm-270.132812 195.597657c-6.007813-11.53125-15.457032-20.980469-26.988282-26.988282l147.648438-147.648437c4.339844 4.34375 8.90625 8.917969 13.480469 13.496093 4.578125 4.582032 9.148437 9.160157 13.492187 13.507813zm-56.078125-4.109376c18.304687 0 33.199219 14.894532 33.199219 33.199219 0 18.308594-14.894532 33.199219-33.199219 33.199219-18.308594 0-33.199219-14.890625-33.199219-33.199219 0-18.304687 14.890625-33.199219 33.199219-33.199219zm149.601562-15c0 13.960938-5.691406 27.660157-15.628906 37.605469-6.09375 6.117188-12.105469 12.121094-17.582031 17.582031-16.851563 16.878907-28.238282 38.164063-32.929688 61.550782-.015625.070312-.027344.136718-.042968.207031-9.003907 44.582031-48.515626 76.921875-94.023438 76.921875h-9.960938c-68.980468 0-125.101562-56.128906-125.101562-125.117188v-9.945312c0-45.558594 32.429688-85.121094 77.117188-94.0625 23.445312-4.699219 44.734374-16.09375 61.546874-32.933594 5.472657-5.457031 11.511719-11.488281 17.613282-17.613281 9.882812-9.890625 23.585937-15.5625 37.589844-15.5625 8.902343 0 17.679687 2.300781 25.4375 6.515625l-80.191407 80.195312c-31.78125 3.289063-56.648437 30.222657-56.648437 62.859376 0 34.847656 28.351562 63.199218 63.199218 63.199218 32.636719 0 59.574219-24.867187 62.863282-56.648437l80.191406-80.191407c4.234375 7.773438 6.550781 16.550782 6.550781 25.4375zm79.269531-145.789062-34.863281-34.898438c-6.660156-6.660156-6.707031-17.519531.015625-24.238281l51.832032-51.871093c1.777343-1.722657 4.574218-1.722657 6.351562-.003907l52.789062 52.839844c.035157.03125.070313.066406.105469.101563 1.640625 1.613281 1.644531 4.433593 0 6.050781-.03125.035156-.132812.136719-.101562.101562.101562-.101562-51.875 51.917969-51.875 51.917969-6.664063 6.664062-17.574219 6.679688-24.253907 0zm0 0"/><path d="m89.871094 373.925781c-5.855469-5.855469-15.351563-5.855469-21.210938 0-5.859375 5.859375-5.859375 15.355469 0 21.214844l48.199219 48.199219c2.929687 2.929687 6.769531 4.394531 10.605469 4.394531 3.839844 0 7.679687-1.464844 10.605468-4.394531 5.859376-5.855469 5.859376-15.355469 0-21.210938zm0 0"/></svg>