<svg height="512pt" viewBox="0 -72 512 512" width="512pt" xmlns="http://www.w3.org/2000/svg"><path d="m464.867188 0h-417.734376c-25.484374 0-47.132812 20.558594-47.132812 47.132812v273.132813c0 26.574219 21.644531 47.132813 47.132812 47.132813h417.734376c25.484374 0 47.132812-20.554688 47.132812-47.132813v-273.132813c0-26.578124-21.648438-47.132812-47.132812-47.132812zm-63.199219 30v146.734375h-50.335938v-146.734375zm-226 176.734375c8.28125 0 15-6.71875 15-15v-161.734375h50.332031v307.398438h-90.5v-130.664063zm95.332031-176.734375h50.332031v161.734375c0 8.28125 6.71875 15 15 15h25.167969v130.664063h-90.5zm-110.332031 0v146.734375h-50.332031v-146.734375zm-130.667969 290.265625v-273.132813c0-9.5625 7.746094-17.132812 17.132812-17.132812h33.199219v161.734375c0 8.28125 6.71875 15 15 15h25.167969v130.664063h-73.367188c-9.351562 0-17.132812-7.539063-17.132812-17.132813zm452 0c0 9.589844-7.773438 17.132813-17.132812 17.132813h-73.367188v-130.664063h25.167969c8.28125 0 15-6.71875 15-15v-161.734375h33.199219c9.351562 0 17.132812 7.539062 17.132812 17.132812zm0 0"/></svg>