<svg height="512pt" viewBox="0 -48 512.001 512" width="512pt" xmlns="http://www.w3.org/2000/svg"><path d="m465.941406 96.621094c-13.746094-6.359375-29.019531-13.410156-41.535156-19.160156-24.140625-11.15625-32.363281-32.835938-32.902344-33.847657-13.507812-26.90625-40.597656-43.613281-70.753906-43.613281h-92.382812c-28.320313 0-53.777344 15.746094-66.441407 41.089844-.039062.082031-.082031.167968-.121093.25-4.617188 9.117187-11.398438 16.710937-19.617188 22.253906-1.195312-10.140625-6.265625-19.378906-14.328125-25.835938-9.292969-7.457031-21.300781-10.257812-32.96875-7.675781l-16.074219 3.574219c-17.738281 3.949219-30.617187 20-30.617187 38.164062v18.222657c-29.9375 12.777343-48.199219 41.859375-48.199219 72.90625v173.382812c0 44.789063 36.484375 79.269531 79.265625 79.269531h353.46875c42.78125 0 79.265625-34.480468 79.265625-79.269531v-167.742187c0-30.832032-18.089844-59.085938-46.058594-71.96875zm-380.613281-33.679688 16.058594-3.570312c2.730469-.601563 5.527343.046875 7.703125 1.789062 2.144531 1.722656 3.378906 4.308594 3.378906 7.09375v6.128906l-34.269531 7.605469v-10.167969c0-4.226562 3.003906-7.957031 7.128906-8.878906zm396.671875 273.390625c0 13.179688-5.113281 25.550781-14.40625 34.839844-9.167969 9.167969-21.875 14.429687-34.859375 14.429687h-353.46875c-12.984375 0-25.691406-5.261718-34.859375-14.429687-9.292969-9.289063-14.40625-21.660156-14.40625-34.839844v-173.382812c0-23.273438 15.847656-43.046875 38.539062-48.085938l60.019532-13.324219c26.222656-5.835937 48.167968-22.976562 60.199218-47.027343.046876-.085938.085938-.171875.128907-.261719 7.589843-14.964844 22.691406-24.25 39.480469-24.25h92.382812c18.785156 0 35.648438 10.425781 44.011719 27.210938 2.019531 4.042968 14.027343 32.21875 47.085937 47.492187 12.519532 5.757813 27.773438 12.796875 41.523438 19.15625 17.390625 8.011719 28.628906 25.566406 28.628906 44.730469zm0 0"/><path d="m272.066406 80.332031c-79.144531 0-143.535156 64.390625-143.535156 143.535157 0 79.144531 64.390625 143.535156 143.535156 143.535156 79.144532 0 143.535156-64.390625 143.535156-143.535156 0-79.144532-64.390624-143.535157-143.535156-143.535157zm0 257.070313c-62.601562 0-113.535156-50.933594-113.535156-113.535156 0-62.601563 50.933594-113.53125 113.535156-113.53125 62.601563 0 113.535156 50.929687 113.535156 113.53125 0 62.601562-50.933593 113.535156-113.535156 113.535156zm0 0"/><path d="m79.265625 160.667969c-8.28125 0-15 6.714843-15 15v160.664062c0 8.285157 6.71875 15 15 15 8.285156 0 15-6.714843 15-15v-160.664062c0-8.285157-6.714844-15-15-15zm0 0"/><path d="m272.066406 303.132812c-43.707031 0-79.265625-35.558593-79.265625-79.265624 0-43.707032 35.558594-79.269532 79.265625-79.269532 43.707032 0 79.265625 35.5625 79.265625 79.269532 0 43.707031-35.558593 79.265624-79.265625 79.265624zm0-128.53125c-27.167968 0-49.265625 22.101563-49.265625 49.265626 0 27.167968 22.097657 49.265624 49.265625 49.265624 27.164063 0 49.265625-22.097656 49.265625-49.265624 0-27.164063-22.101562-49.265626-49.265625-49.265626zm0 0"/></svg>