<svg height="511pt" viewBox="1 -16 511.999 511" width="511pt" xmlns="http://www.w3.org/2000/svg"><path d="m335.265625 272.566406c0 8.285156-6.714844 15-15 15-8.28125 0-15-6.714844-15-15s6.71875-15 15-15c8.285156 0 15 6.714844 15 15zm0 0"/><path d="m335.265625 336.832031c0 8.285157-6.714844 15-15 15-8.28125 0-15-6.714843-15-15 0-8.28125 6.71875-15 15-15 8.285156 0 15 6.71875 15 15zm0 0"/><path d="m335.265625 401.101562c0 8.285157-6.714844 15-15 15-8.28125 0-15-6.714843-15-15 0-8.285156 6.71875-15 15-15 8.285156 0 15 6.714844 15 15zm0 0"/><path d="m207.800781 257.566406h-80.332031c-26.304688 0-47.136719 21.351563-47.136719 47.132813 0 25.820312 20.871094 47.136719 47.136719 47.136719h80.332031c25.820313 0 47.132813-20.871094 47.132813-47.136719 0-26.304688-21.355469-47.132813-47.132813-47.132813zm0 64.265625h-80.332031c-9.335938 0-17.136719-7.542969-17.136719-17.132812 0-9.332031 7.546875-17.132813 17.136719-17.132813h80.332031c9.332031 0 17.132813 7.546875 17.132813 17.132813 0 9.335937-7.546875 17.132812-17.132813 17.132812zm0 0"/><path d="m239.933594 386.101562h-144.601563c-8.28125 0-15 6.714844-15 15 0 8.28125 6.71875 15 15 15h144.601563c8.285156 0 15-6.71875 15-15 0-8.285156-6.714844-15-15-15zm0 0"/><path d="m488.679688 211.886719-73.078126 48.71875v-4.105469c0-16.875-6.574218-32.746094-18.515624-44.695312-6.304688-6.300782-13.710938-11.089844-21.773438-14.222657 24.597656-20.449219 40.289062-51.265625 40.289062-85.679687 0-61.429688-49.976562-111.402344-111.402343-111.402344-41.113281 0-77.097657 22.394531-96.398438 55.625-19.300781-33.230469-55.285156-55.625-96.402343-55.625-61.425782 0-111.398438 49.972656-111.398438 111.402344 0 34.414062 15.6875 65.230468 40.289062 85.679687-8.066406 3.136719-15.476562 7.925781-21.785156 14.230469-11.933594 11.941406-18.503906 27.8125-18.503906 44.6875v160.667969c0 34.90625 28.242188 63.199219 63.199219 63.199219h289.199219c34.90625 0 63.199218-28.242188 63.199218-63.199219v-4.109375l73.082032 48.722656c9.945312 6.632812 23.320312-.507812 23.320312-12.480469v-224.933593c0-11.957032-13.363281-19.121094-23.320312-12.480469zm-184.480469-181.386719c44.886719 0 81.398437 36.515625 81.398437 81.398438 0 44.886718-36.515625 81.398437-81.398437 81.398437-44.882813 0-81.398438-36.515625-81.398438-81.398437 0-44.882813 36.515625-81.398438 81.398438-81.398438zm-75.964844 162.800781h-40.867187c8-7.472656 14.902343-16.101562 20.433593-25.625 5.53125 9.523438 12.433594 18.152344 20.433594 25.625zm-198.234375-81.398437c0-44.886719 36.515625-81.402344 81.398438-81.402344 44.886718 0 81.402343 36.515625 81.402343 81.402344 0 44.882812-36.519531 81.398437-81.402343 81.398437-44.882813 0-81.398438-36.515625-81.398438-81.398437zm355.601562 305.265625c0 18.347656-14.839843 33.199219-33.199218 33.199219h-289.203125c-18.347657 0-33.199219-14.839844-33.199219-33.199219v-160.667969c0-18.351562 14.839844-33.199219 33.199219-33.199219h289.199219c18.351562 0 33.199218 14.839844 33.199218 33.199219v160.667969zm96.398438 4.105469-66.398438-44.269532v-80.34375l66.398438-44.265625zm0 0"/><path d="m304.199219 159.035156c25.988281 0 47.132812-21.144531 47.132812-47.132812 0-25.992188-21.144531-47.136719-47.132812-47.136719s-47.132813 21.144531-47.132813 47.136719c0 25.988281 21.144532 47.132812 47.132813 47.132812zm0-64.269531c9.449219 0 17.132812 7.6875 17.132812 17.136719 0 9.445312-7.683593 17.132812-17.132812 17.132812-9.445313 0-17.132813-7.6875-17.132813-17.132812 0-9.449219 7.6875-17.136719 17.132813-17.136719zm0 0"/><path d="m111.398438 159.035156c25.992187 0 47.132812-21.144531 47.132812-47.132812 0-25.992188-21.140625-47.136719-47.132812-47.136719-25.988282 0-47.132813 21.144531-47.132813 47.136719 0 25.988281 21.144531 47.132812 47.132813 47.132812zm0-64.269531c9.449218 0 17.132812 7.6875 17.132812 17.136719 0 9.445312-7.683594 17.132812-17.132812 17.132812-9.445313 0-17.132813-7.6875-17.132813-17.132812 0-9.449219 7.6875-17.136719 17.132813-17.136719zm0 0"/></svg>