<svg height="512pt" viewBox="0 -24 512.001 512" width="512pt" xmlns="http://www.w3.org/2000/svg"><path d="m111.398438 369.535156h-16.066407c-8.28125 0-15 6.714844-15 15s6.71875 15 15 15h16.066407c8.285156 0 15-6.714844 15-15s-6.714844-15-15-15zm0 0"/><path d="m183.699219 303.132812h16.066406c8.285156 0 15-6.714843 15-15 0-8.285156-6.714844-15-15-15h-16.066406c-8.285157 0-15 6.714844-15 15 0 8.285157 6.714843 15 15 15zm0 0"/><path d="m167.632812 351.335938c8.285157 0 15-6.71875 15-15 0-8.285157-6.714843-15-15-15h-16.066406c-8.285156 0-15 6.714843-15 15 0 8.28125 6.714844 15 15 15zm0 0"/><path d="m150.5 288.132812c0-8.285156-6.714844-15-15-15h-16.066406c-8.285156 0-15 6.714844-15 15 0 8.285157 6.714844 15 15 15h16.066406c8.285156 0 15-6.714843 15-15zm0 0"/><path d="m247.96875 303.132812h16.0625c8.285156 0 15-6.714843 15-15 0-8.285156-6.714844-15-15-15h-16.0625c-8.285156 0-15 6.714844-15 15 0 8.285157 6.714844 15 15 15zm0 0"/><path d="m200.832031 336.335938c0 8.28125 6.71875 15 15 15h16.066407c8.285156 0 15-6.71875 15-15 0-8.285157-6.714844-15-15-15h-16.0625c-8.285157 0-15.003907 6.714843-15.003907 15zm0 0"/><path d="m312.234375 303.132812h16.066406c8.285157 0 15-6.714843 15-15 0-8.285156-6.714843-15-15-15h-16.066406c-8.285156 0-15 6.714844-15 15 0 8.285157 6.714844 15 15 15zm0 0"/><path d="m265.101562 336.335938c0 8.28125 6.714844 15 15 15h16.0625c8.285157 0 15-6.71875 15-15 0-8.285157-6.714843-15-15-15h-16.0625c-8.285156 0-15 6.714843-15 15zm0 0"/><path d="m407.566406 288.132812c0-8.285156-6.714844-15-15-15h-16.066406c-8.285156 0-15 6.714844-15 15 0 8.285157 6.714844 15 15 15h16.066406c8.285156 0 15-6.714843 15-15zm0 0"/><path d="m360.433594 321.335938h-16.066406c-8.285157 0-15 6.714843-15 15 0 8.28125 6.714843 15 15 15h16.066406c8.285156 0 15-6.71875 15-15 0-8.285157-6.714844-15-15-15zm0 0"/><path d="m400.601562 369.535156c-8.285156 0-15 6.714844-15 15s6.714844 15 15 15h16.0625c8.285157 0 15-6.714844 15-15s-6.714843-15-15-15zm0 0"/><path d="m352.398438 369.535156h-192.796876c-8.285156 0-15 6.714844-15 15s6.714844 15 15 15h192.796876c8.285156 0 15-6.714844 15-15s-6.714844-15-15-15zm0 0"/><path d="m497 64.265625c-8.285156 0-15 6.71875-15 15v49.269531h-58.367188v-33.199218c0-8.285157-6.714843-15-15-15h-17.132812v-65.335938c0-8.285156-6.714844-15-15-15h-241c-8.285156 0-15 6.714844-15 15v65.335938h-17.132812c-8.285157 0-15 6.714843-15 15v33.199218h-58.367188v-1.066406c0-8.285156-6.714844-15-15-15s-15 6.714844-15 15v96.398438c0 8.285156 6.714844 15 15 15s15-6.714844 15-15v-1.066407h34.265625v14.242188l-63.191406 157.988281c-.710938 1.769531-1.074219 3.675781-1.074219 5.585938 0 34.839843 28.34375 63.183593 63.183594 63.183593h385.632812c34.839844 0 63.183594-28.34375 63.183594-63.199219 0-1.90625-.363281-3.800781-1.070312-5.570312l-63.195313-157.984375v-14.246094h49.265625c8.285156 0 15-6.714843 15-15v-128.535156c0-8.28125-6.714844-15-15-15zm-346.5-34.265625h211v50.335938h-211zm-32.132812 80.335938h275.265624v66.398437h-25.164062c-8.285156 0-15 6.730469-15 15.015625 0 18.328125-14.835938 33.183594-33.1875 33.183594h-128.546875c-18.308594 0-33.203125-14.894532-33.203125-33.199219 0-8.285156-6.714844-15-15-15h-25.164062zm-88.367188 82.464843v-34.265625h58.367188v18.199219h-9.101563c-8.28125 0-15 6.714844-15 15v1.066406zm451.898438 210.433594c-1.339844 17.078125-15.664063 30.566406-33.082032 30.566406h-385.632812c-17.417969 0-31.742188-13.488281-33.082032-30.566406l63.09375-157.730469c.707032-1.769531 1.070313-3.660156 1.070313-5.570312v-33.199219h36.066406c6.75 27.632813 31.71875 48.199219 61.402344 48.199219h128.546875c40.789062 0 57.769531-33.167969 61.40625-48.199219h36.046875v33.199219c0 1.910156.363281 3.800781 1.074219 5.570312zm.101562-210.433594h-34.265625v-1.066406c0-8.285156-6.71875-15-15-15h-9.101563v-18.199219h58.367188zm0 0"/><path d="m199.765625 174.601562h112.46875c8.285156 0 15-6.71875 15-15 0-8.285156-6.714844-15-15-15h-112.46875c-8.28125 0-15 6.714844-15 15 0 8.28125 6.714844 15 15 15zm0 0"/></svg>