<svg height="512pt" viewBox="0 0 512.001 512" width="512pt" xmlns="http://www.w3.org/2000/svg"><path d="m472.898438 80.332031c-22.234376 0-39.097657 18.203125-39.097657 39.101563v264.402344c0 3.191406 1.019531 6.300781 2.90625 8.875l24.101563 32.832031c2.808594 3.828125 7.265625 6.101562 12.015625 6.125h.078125c4.71875 0 9.164062-2.222657 12-6l24.097656-32.132813c1.949219-2.597656 3-5.757812 3-9v-265.101562c0-21.558594-17.539062-39.101563-39.101562-39.101563zm-6.398438 32.644531c1.695312-1.703124 3.96875-2.644531 6.398438-2.644531 5.019531 0 9.101562 4.085938 9.101562 9.101563v201.898437h-18.199219v-201.898437c0-2.378906.984375-4.734375 2.699219-6.457032zm6.527344 278.519532-9.226563-12.574219v-27.589844h18.199219v28.203125zm0 0"/><path d="m304.199219 0h-289.199219c-8.285156 0-15 6.714844-15 15v482c0 8.285156 6.714844 15 15 15h289.199219c43.707031 0 79.269531-35.558594 79.269531-79.265625v-353.46875c0-43.707031-35.5625-79.265625-79.269531-79.265625zm-274.199219 30h227.066406v452h-227.066406zm323.46875 402.734375c0 27.164063-22.101562 49.265625-49.269531 49.265625h-17.132813v-452h17.132813c27.167969 0 49.269531 22.101562 49.269531 49.265625zm0 0"/></svg>