<svg height="512pt" viewBox="0 0 512 512" width="512pt" xmlns="http://www.w3.org/2000/svg"><path d="m464.867188 0h-417.734376c-25.914062 0-47.132812 20.953125-47.132812 47.132812v353.46875c0 25.914063 20.953125 47.132813 47.132812 47.132813h145.667969v34.265625h-33.199219c-8.285156 0-15 6.714844-15 15s6.714844 15 15 15h192.796876c8.285156 0 15-6.714844 15-15s-6.714844-15-15-15h-33.199219v-34.265625h145.667969c25.914062 0 47.132812-20.953125 47.132812-47.136719v-353.464844c0-25.914062-20.953125-47.132812-47.132812-47.132812zm-175.667969 482h-66.398438v-34.265625h66.398438zm192.800781-81.398438c0 9.433594-7.640625 17.132813-17.132812 17.132813h-417.734376c-9.433593 0-17.132812-7.640625-17.132812-17.132813v-33.203124h452zm0-63.203124h-452v-290.265626c0-9.433593 7.640625-17.132812 17.132812-17.132812h417.734376c9.433593 0 17.132812 7.640625 17.132812 17.132812zm0 0"/><path d="m374.375 113.679688-112.464844-48.199219c-3.773437-1.617188-8.046875-1.617188-11.820312 0l-112.464844 48.199219c-5.515625 2.363281-9.09375 7.789062-9.09375 13.789062v128.53125c0 6 3.578125 11.425781 9.09375 13.785156l112.464844 48.203125c2.1875.9375 6.71875 2.1875 11.820312 0l112.464844-48.203125c5.515625-2.359375 9.09375-7.785156 9.09375-13.785156v-128.53125c0-6-3.578125-11.425781-9.09375-13.789062zm-133.375 167.773437-66.648438-28.566406 66.648438-23.800781zm0-84.222656-82.46875 29.453125v-76.46875l82.46875 35.34375zm0-44.3125-59.386719-25.449219 59.386719-25.453125zm30-50.902344 59.386719 25.453125-59.386719 25.449219zm0 179.4375v-52.367187l66.648438 23.800781zm82.46875-54.769531-82.46875-29.453125v-11.671875l82.46875-35.34375zm0 0"/></svg>