<svg height="512pt" viewBox="-48 0 512 512" width="512pt" xmlns="http://www.w3.org/2000/svg"><path d="m400.601562 321.332031h-177.800781v-18.199219h113.53125c8.285157 0 15-6.714843 15-15v-64.265624c0-8.285157-6.714843-15-15-15h-60.1875l2.246094-2.246094c15.953125-15.953125 24.742187-37.167969 24.742187-59.738282 0-16.285156-6.605468-32.234374-18.121093-43.75l-29.800781-29.804687c1.351562-14.472656 7.640624-27.898437 18.046874-38.308594l9.414063-9.414062c9.429687-9.429688 2.730469-25.605469-10.605469-25.605469h-128.535156c-13.332031 0-20.035156 16.175781-10.605469 25.605469l9.417969 9.414062c10.402344 10.410157 16.691406 23.835938 18.046875 38.308594l-29.800781 29.804687c-11.519532 11.515626-18.121094 27.464844-18.121094 43.757813 0 22.5625 8.785156 43.777344 24.742188 59.730469l2.242187 2.246094h-60.1875c-8.285156 0-15 6.714843-15 15v64.265624c0 8.285157 6.714844 15 15 15h113.535156v18.199219h-177.800781c-8.285156 0-15 6.71875-15 15v160.667969c0 8.285156 6.714844 15 15 15s15-6.714844 15-15v-145.667969h162.800781v50.335938h-65.332031c-8.285156 0-15 6.714843-15 15v48.199219c0 8.28125 6.714844 15 15 15h65.332031v17.132812c0 8.285156 6.714844 15 15 15 8.285157 0 15-6.714844 15-15v-17.132812h65.332031c8.285157 0 15-6.71875 15-15v-48.199219c0-8.285157-6.714843-15-15-15h-65.332031v-50.335938h162.800781v145.667969c0 8.285156 6.714844 15 15 15 8.28125 0 15-6.714844 15-15v-160.667969c0-8.28125-6.71875-15-15-15zm-242.179687-135.921875c-10.289063-10.289062-15.953125-23.96875-15.953125-38.527344 0-8.390624 3.398438-16.605468 9.332031-22.539062l34.472657-34.472656c2.8125-2.8125 4.394531-6.625 4.394531-10.605469 0-17.703125-4.9375-34.652344-14.15625-49.265625h62.582031c-9.222656 14.613281-14.160156 31.5625-14.160156 49.265625 0 3.980469 1.582031 7.796875 4.394531 10.605469l34.472656 34.472656c5.933594 5.933594 9.335938 14.148438 9.335938 22.546875 0 14.550781-5.667969 28.230469-15.957031 38.519531l-23.457032 23.457032h-51.839844zm-64.15625 53.457032h227.066406v34.265624h-227.066406zm178.867187 211h-130.664062v-18.199219h130.664062zm0 0"/></svg>