<svg height="512pt" viewBox="-48 0 512 512" width="512pt" xmlns="http://www.w3.org/2000/svg"><path d="m336.332031 192.800781c-9.4375 0-17.132812-7.640625-17.132812-17.132812v-33.199219h1.066406c25.992187 0 47.132813-21.148438 47.132813-47.136719v-48.199219c0-25.988281-21.140626-47.132812-47.132813-47.132812h-224.933594c-25.988281 0-47.132812 21.144531-47.132812 47.132812v48.199219c0 25.988281 21.144531 47.136719 47.132812 47.136719h1.066407v33.199219c0 9.457031-7.65625 17.132812-17.132813 17.132812-43.707031 0-79.265625 35.558594-79.265625 79.265625v160.667969c0 43.773437 35.414062 79.265625 79.265625 79.265625h257.066406c43.78125 0 79.269531-35.414062 79.269531-79.265625v-160.667969c0-43.773437-35.414062-79.265625-79.269531-79.265625zm-306.332031 224.933594v-20.015625c27.628906-6.75 48.199219-31.707031 48.199219-61.386719v-56.230469c0-5.019531 4.082031-9.101562 9.101562-9.101562 5.015625 0 9.097657 4.082031 9.097657 9.101562v16.066407c0 21.558593 17.542968 39.097656 39.101562 39.097656s39.101562-17.539063 39.101562-39.097656v-9.101563h211v130.667969zm306.332031-194.933594c13.164063 0 25.535157 5.125 34.839844 14.429688 5.648437 5.652343 9.746094 12.433593 12.101563 19.835937h-208.671876v-25.167968c0-5.015626 4.082032-9.097657 9.097657-9.097657 21.640625 0 39.101562-17.515625 39.101562-39.101562v-41.234375h66.398438v33.199218c0 25.808594 20.855469 47.136719 47.132812 47.136719zm-258.132812-127.46875v-48.199219c0-9.445312 7.6875-17.132812 17.132812-17.132812h224.933594c9.449219 0 17.132813 7.6875 17.132813 17.132812v48.199219c0 9.449219-7.683594 17.136719-17.132813 17.136719h-224.933594c-9.445312 0-17.132812-7.6875-17.132812-17.136719zm1.066406 127.46875c12.59375 0 24.429687-4.902343 33.320313-13.800781 8.90625-8.898438 13.8125-20.734375 13.8125-33.332031v-33.199219h66.402343v41.230469c0 4.953125-4 9.101562-9.101562 9.101562-21.558594 0-39.097657 17.539063-39.097657 39.101563v64.265625c0 5.019531-4.082031 9.101562-9.101562 9.101562s-9.101562-4.082031-9.101562-9.101562v-16.066407c0-21.5625-17.539063-39.101562-39.097657-39.101562-21.5625 0-39.101562 17.539062-39.101562 39.101562v56.230469c0 12.910157-7.410157 24.117188-18.199219 29.605469v-93.871094c0-27.167968 22.101562-49.265625 49.265625-49.265625zm257.066406 259.199219h-257.066406c-13.160156 0-25.53125-5.125-34.835937-14.429688-5.648438-5.648437-9.746094-12.4375-12.105469-19.835937h350.949219c-2.355469 7.398437-6.453126 14.1875-12.105469 19.835937-9.300781 9.304688-21.671875 14.429688-34.835938 14.429688zm0 0"/></svg>