<svg height="512pt" viewBox="0 0 512 512" width="512pt" xmlns="http://www.w3.org/2000/svg"><path d="m111.398438 336.699219c-26.183594 0-47.484376 21.300781-47.484376 47.480469 0 26.183593 21.300782 47.488281 47.484376 47.488281 26.1875 0 47.488281-21.304688 47.488281-47.488281 0-26.179688-21.300781-47.480469-47.488281-47.480469zm0 64.96875c-9.640626 0-17.484376-7.847657-17.484376-17.488281 0-9.636719 7.84375-17.480469 17.484376-17.480469 9.644531 0 17.488281 7.84375 17.488281 17.480469 0 9.640624-7.84375 17.488281-17.488281 17.488281zm0 0"/><path d="m464.867188 257.066406h-29.046876l16.214844-15.808594c18.757813-18.296874 18.992188-48.515624.421875-67.082031l-114.933593-114.929687c-18.394532-18.398438-48.214844-18.4375-66.648438 0l-15.941406 15.941406v-28.054688c0-25.820312-20.867188-47.132812-47.132813-47.132812h-160.667969c-26.351562 0-47.132812 21.402344-47.132812 47.132812v337.046876c0 .277343.0273438.546874.0390625.820312.8593755 35.789062 16.1484375 70.164062 42.2499995 94.734375 0 0 24.984376 23.535156 24.980469 23.535156h.003907c5.976562 5.628907 13.792968 8.730469 22.003906 8.730469h375.589844c26.351562 0 47.132812-21.402344 47.132812-47.132812v-160.667969c0-25.820313-20.871094-47.132813-47.132812-47.132813zm-172.777344-176.609375c6.683594-6.683593 17.527344-6.695312 24.222656 0l114.933594 114.933594c6.753906 6.753906 6.664062 17.738281-.15625 24.390625l-38.246094 37.285156h-62.589844l-107.386718-107.386718zm-90.433594 90.433594 86.171875 86.175781h-172.347656zm135.742188 116.175781v194.933594h-114.597657v-194.933594zm-290.265626-257.066406h160.667969c9.433594 0 17.132813 7.640625 17.132813 17.132812v58.054688l-39.414063 39.414062h-155.519531v-97.46875c0-9.335937 7.546875-17.132812 17.132812-17.132812zm-17.132812 144.601562h125.519531l-118.96875 118.96875c-2.285156 2.285157-4.46875 4.644532-6.550781 7.070313zm57.839844 306.828126-24.976563-23.53125c-20.886719-19.664063-32.863281-47.390626-32.863281-76.089844 0-25.316406 9.859375-49.121094 27.765625-67.027344l26.21875-26.21875c.949219-.949219 2.269531-1.496094 3.613281-1.496094h105.203125v194.933594h-103.523437c-.535156 0-1.046875-.203125-1.4375-.570312zm394.160156-16.5625c0 9.359374-7.566406 17.132812-17.132812 17.132812h-97.46875v-194.933594h97.46875c9.335937 0 17.132812 7.550782 17.132812 17.132813zm0 0"/></svg>