<svg height="512pt" viewBox="-32 0 511 512" width="512pt" xmlns="http://www.w3.org/2000/svg"><path d="m427.371094 228.925781-43.40625-43.40625v-90.1875c0-58.941406-93.699219-95.332031-191.730469-95.332031-100.722656 0-191.734375 37.679688-191.734375 95.332031v321.335938c0 58.941406 93.699219 95.332031 191.734375 95.332031 100.363281 0 191.730469-37.511719 191.730469-95.332031v-64.84375c6.855468-.683594 13.695312-2.371094 20.296875-5.101563 26.710937-11.070312 43.972656-36.902344 43.972656-65.8125v-1.613281c-.003906-19.03125-7.410156-36.917969-20.863281-50.371094zm-363.671875 14.386719c-18.304688 0-33.199219-14.894531-33.199219-33.199219v-62.371093c8.507812 6.597656 18.734375 12.652343 30.582031 18.039062 15.390625 6.996094 32.921875 12.621094 51.886719 16.738281v140.058594c0 9.449219-7.6875 17.136719-17.132812 17.136719-9.488282 0-17.136719-7.679688-17.136719-17.136719v-64.265625c0-8.285156-6.714844-15-15-15zm3.570312-107.835938c30.925781-15.773437 76.433594-25.144531 124.964844-25.144531 48.527344 0 94.035156 9.371094 124.960937 25.144531-29.117187 14.765626-72.746093 25.191407-124.960937 25.191407-52.1875 0-95.824219-10.414063-124.964844-25.191407zm256.113281 30.304688c11.851563-5.386719 22.074219-11.445312 30.582032-18.039062v167.371093c-2.167969-1.464843-4.222656-3.148437-6.125-5.050781l-120.890625-120.890625c36.152343-3.144531 69.5625-11.175781 96.433593-23.390625zm-131.148437-135.78125c95.621094 0 161.730469 34.972656 161.730469 65.332031 0 6.988281-3.40625 14.132813-9.804688 21.027344-35.621094-22.710937-91.160156-36.027344-151.925781-36.027344-60.769531 0-116.304687 13.316407-151.929687 36.027344-6.398438-6.894531-9.804688-14.039063-9.804688-21.027344 0-30.351562 66.164062-65.332031 161.734375-65.332031zm0 452c-95.894531 0-161.734375-35.085938-161.734375-65.332031v-152.8125c5.558594 3.449219 11.679688 6.066406 18.199219 7.660156v51.0625c0 26.03125 21.058593 47.136719 47.132812 47.136719 25.988281 0 47.132813-21.144532 47.132813-47.136719v-134.949219c13.90625 1.753906 28.316406 2.761719 43 2.984375l140.664062 140.660157c7.882813 7.882812 17.261719 13.617187 27.335938 17.066406v68.324218c0 30.351563-66.148438 65.335938-161.730469 65.335938zm225.996094-201.089844c0 16.734375-9.988281 31.6875-25.449219 38.09375-2.878906 1.191406-5.835938 2.042969-8.816406 2.554688v-93.613282l22.191406 22.191407c7.789062 7.789062 12.074219 18.144531 12.074219 29.160156zm0 0"/></svg>