<svg height="512pt" viewBox="0 0 512 512" width="512pt" xmlns="http://www.w3.org/2000/svg"><path d="m256 0c-141.160156 0-256 114.839844-256 256s114.839844 256 256 256 256-114.839844 256-256-114.839844-256-256-256zm202.761719 355.742188-43.703125-25.234376c8.625-18.335937 14.167968-38.394531 15.960937-59.507812h50.46875c-1.992187 30.246094-9.957031 58.882812-22.726562 84.742188zm-217.761719 75.277343v50.46875c-30.246094-1.992187-58.882812-9.957031-84.742188-22.726562l25.230469-43.703125c18.339844 8.625 38.398438 14.167968 59.511719 15.960937zm30 0c21.113281-1.792969 41.171875-7.335937 59.511719-15.960937l25.230469 43.703125c-25.859376 12.769531-54.496094 20.734375-84.742188 22.726562zm-15-29.351562c-80.320312 0-145.667969-65.347657-145.667969-145.667969s65.347657-145.667969 145.667969-145.667969 145.667969 65.347657 145.667969 145.667969-65.347657 145.667969-145.667969 145.667969zm-225.488281-130.667969h50.46875c1.792969 21.113281 7.335937 41.171875 15.960937 59.507812l-43.703125 25.234376c-12.769531-25.859376-20.734375-54.496094-22.726562-84.742188zm22.726562-114.742188 43.703125 25.234376c-8.625 18.335937-14.167968 38.394531-15.960937 59.507812h-50.46875c1.992187-30.246094 9.957031-58.882812 22.726562-84.742188zm217.761719-75.277343v-50.46875c30.246094 1.992187 58.882812 9.957031 84.742188 22.726562l-25.230469 43.703125c-18.339844-8.625-38.398438-14.167968-59.511719-15.960937zm-30 0c-21.113281 1.792969-41.171875 7.335937-59.511719 15.960937l-25.230469-43.703125c25.859376-12.769531 54.496094-20.734375 84.742188-22.726562zm190.019531 160.019531c-1.792969-21.113281-7.335937-41.171875-15.960937-59.507812l43.703125-25.234376c12.769531 25.859376 20.734375 54.496094 22.726562 84.742188zm12.707031-110.703125-43.710937 25.238281c-11.851563-16.941406-26.609375-31.699218-43.546875-43.550781l25.234375-43.707031c24.476563 16.441406 45.578125 37.542968 62.023437 62.019531zm-313.429687-62.023437 25.234375 43.710937c-16.9375 11.851563-31.695312 26.609375-43.550781 43.546875l-43.707031-25.234375c16.445312-24.476563 37.546874-45.578125 62.023437-62.023437zm-62.023437 313.429687 43.710937-25.238281c11.851563 16.941406 26.609375 31.699218 43.546875 43.550781l-25.234375 43.707031c-24.476563-16.441406-45.578125-37.542968-62.023437-62.019531zm313.429687 62.023437-25.234375-43.710937c16.9375-11.851563 31.695312-26.609375 43.550781-43.546875l43.707031 25.234375c-16.445312 24.476563-37.546874 45.578125-62.023437 62.023437zm0 0"/><path d="m394.167969 243.011719-195.984375-113.132813c-7.792969-4.5-14.84375-.09375-15 0-4.640625 2.679688-7.5 7.628906-7.5 12.988282l.003906 226.253906c0 5.359375 2.859375 10.3125 7.5 12.992187 6.796875 3.921875 13.054688 1.121094 15 0l195.980469-113.125c4.640625-2.679687 7.5-7.628906 7.5-12.988281s-2.859375-10.3125-7.5-12.988281zm-188.480469 100.132812-.003906-174.296875 150.976562 87.152344zm0 0"/></svg>