<svg height="512pt" viewBox="0 0 512 512" width="512pt" xmlns="http://www.w3.org/2000/svg"><path d="m429.933594 200.273438c1.132812-8.042969 1.734375-16.257813 1.734375-24.605469 0-96.863281-78.804688-175.667969-175.667969-175.667969s-175.667969 78.804688-175.667969 175.667969c0 8.351562.601563 16.5625 1.734375 24.605469-49.101562 29.269531-82.066406 82.898437-82.066406 144.09375 0 92.433593 75.199219 167.632812 167.632812 167.632812 32.410157 0 62.695313-9.253906 88.367188-25.246094 25.671875 15.992188 55.957031 25.246094 88.367188 25.246094 92.433593 0 167.632812-75.199219 167.632812-167.632812 0-61.195313-32.964844-114.824219-82.066406-144.09375zm-319.601563-24.605469c0-80.320313 65.347657-145.667969 145.667969-145.667969s145.667969 65.347656 145.667969 145.667969c0 3.703125-.140625 7.375-.414063 11.011719-17.773437-6.433594-36.925781-9.945313-56.886718-9.945313-32.410157 0-62.695313 9.253906-88.367188 25.246094-25.671875-15.992188-55.957031-25.246094-88.367188-25.246094-19.960937 0-39.113281 3.511719-56.886718 9.945313-.273438-3.636719-.414063-7.308594-.414063-11.011719zm194.933594 168.699219c0 42.28125-19.167969 80.160156-49.265625 105.429687-30.097656-25.269531-49.265625-63.152344-49.265625-105.429687 0-.027344 0-.050782 0-.078126 15.636719 4.578126 32.167969 7.042969 49.265625 7.042969s33.628906-2.464843 49.265625-7.042969zm-49.265625-23.035157c-16.019531 0-31.441406-2.605469-45.867188-7.40625 6.753907-29.808593 23.214844-55.972656 45.867188-74.988281 22.652344 19.015625 39.113281 45.179688 45.867188 74.988281-14.425782 4.800781-29.847657 7.40625-45.867188 7.40625zm-73.648438-20.035156c-31.585937-18.585937-55.582031-48.738281-66.125-84.597656 15.890626-6.421875 33.242188-9.964844 51.40625-9.964844 22.5 0 43.757813 5.425781 62.527344 15.042969-22.730468 21.191406-39.585937 48.613281-47.808594 79.519531zm99.484376-79.519531c18.773437-9.617188 40.03125-15.042969 62.53125-15.042969 18.164062 0 35.515624 3.542969 51.40625 9.964844-10.546876 35.859375-34.539063 66.011719-66.125 84.597656-8.222657-30.90625-25.078126-58.328125-47.8125-79.519531zm-114.203126 260.222656c-75.890624 0-137.632812-61.742188-137.632812-137.632812 0-46.828126 23.511719-88.261719 59.347656-113.132813 14.777344 44.207031 46.683594 80.632813 87.804688 101.375-.269532 3.886719-.417969 7.804687-.417969 11.753906 0 48.347657 20.578125 91.96875 53.429687 122.59375-18.773437 9.613281-40.03125 15.042969-62.53125 15.042969zm176.734376 0c-22.5 0-43.757813-5.429688-62.53125-15.042969 32.851562-30.621093 53.429687-74.246093 53.429687-122.589843 0-3.953126-.148437-7.871094-.417969-11.753907 41.121094-20.742187 73.027344-57.171875 87.808594-101.378906 35.832031 24.871094 59.34375 66.304687 59.34375 113.132813 0 75.890624-61.742188 137.632812-137.632812 137.632812zm0 0"/></svg>