<svg height="512pt" viewBox="-73 0 512 512" width="512pt" xmlns="http://www.w3.org/2000/svg"><path d="m198.296875 143.53125c0 8.28125-6.714844 15-15 15-8.28125 0-15-6.71875-15-15 0-8.285156 6.71875-15 15-15 8.285156 0 15 6.714844 15 15zm0 0"/><path d="m362.089844 428.066406c7.34375-22.003906 5.671875-45.554687-4.707032-66.308594l-98.007812-196.015624c2.0625-7.054688 3.1875-14.5 3.1875-22.210938 0-38.582031-27.707031-70.792969-64.265625-77.824219v-50.707031c0-8.285156-6.714844-15-15-15s-15 6.714844-15 15v50.707031c-36.554687 7.03125-64.265625 39.242188-64.265625 77.824219 0 7.710938 1.125 15.15625 3.1875 22.210938l-98.003906 196.015624c-10.378906 20.757813-12.050782 44.304688-4.707032 66.304688 5.726563 17.1875 16.429688 31.808594 30.71875 42.339844l-9.945312 19.886718c-5.027344 10.054688 2.390625 21.710938 13.40625 21.710938 5.5 0 10.800781-3.039062 13.425781-8.296875l60.121094-120.238281h56.0625v1.066406c0 8.28125 6.71875 15 15 15 8.285156 0 15-6.71875 15-15v-1.066406h56.066406l60.117188 120.238281c2.628906 5.257813 7.925781 8.296875 13.429687 8.296875 11.085938 0 18.398438-11.722656 13.40625-21.710938l-9.945312-19.886718c14.289062-10.53125 24.992187-25.152344 30.71875-42.335938zm-178.792969-333.800781c27.167969 0 49.269531 22.097656 49.269531 49.265625 0 27.164062-22.101562 49.265625-49.269531 49.265625-27.164063 0-49.265625-22.101563-49.265625-49.265625 0-27.167969 22.101562-49.265625 49.265625-49.265625zm-147.25 280.910156 88.988281-177.972656c9.546875 10.355469 21.808594 18.160156 35.644532 22.289063l-111.734376 223.46875c-7.292968-6.519532-12.804687-14.855469-15.980468-24.390626-4.804688-14.398437-3.710938-29.808593 3.082031-43.394531zm162.25-21.710937v-1.066406c0-8.285157-6.714844-15-15-15-8.28125 0-15 6.714843-15 15v1.066406h-41.0625l56.0625-112.125 56.066406 112.125zm135.332031 65.109375c-3.175781 9.535156-8.683594 17.871093-15.976562 24.386719l-111.734375-223.46875c13.835937-4.128907 26.097656-11.933594 35.644531-22.289063l88.988281 177.972656c6.792969 13.585938 7.886719 28.996094 3.078125 43.398438zm0 0"/></svg>