<svg height="512pt" viewBox="0 -8 512.001 512" width="512pt" xmlns="http://www.w3.org/2000/svg"><path d="m432.75 0h-.015625c-8.285156 0-15 6.714844-15 15v113.535156h-323.46875v-113.535156c0-8.285156-6.730469-15-15.015625-15-43.699219 0-79.25 35.550781-79.25 79.25v337.417969.074219c0 .015624.00390625.03125.00390625.046874.05859375 43.652344 35.58593775 79.144532 79.24609375 79.144532h353.484375c43.707031 0 79.265625-35.558594 79.265625-79.265625v-337.417969c0-43.699219-35.550781-79.25-79.25-79.25zm14.984375 32.332031c19.851563 6.351563 34.265625 24.984375 34.265625 46.917969v275.296875c-10.039062-7.992187-21.742188-13.355469-34.265625-15.738281zm-417.734375 46.917969c0-21.933594 14.414062-40.566406 34.265625-46.917969v306.472657c-12.519531 2.386718-24.226563 7.75-34.265625 15.742187zm402.734375 386.683594h-353.484375c-27.15625 0-49.25-22.09375-49.25-49.25v-.03125c0-13.15625 5.121094-25.523438 14.425781-34.828125 9.300781-9.300781 21.667969-14.421875 34.839844-14.421875 8.285156 0 15-6.71875 15-15v-193.867188h323.46875v193.867188c0 8.28125 6.730469 15 15.015625 15 27.15625 0 49.25 21.949218 49.25 49.265625 0 27.164062-22.101562 49.265625-49.265625 49.265625zm0 0"/><path d="m368.46875 192.800781h-224.9375c-8.28125 0-15 6.714844-15 15v192.800781c0 8.285157 6.71875 15 15 15h41.988281l27.742188 27.738282c5.847656 5.851562 15.34375 5.867187 21.210937 0 5.855469-5.855469 5.855469-15.355469 0-21.210938l-32.132812-32.132812c-2.8125-2.816406-6.628906-4.394532-10.605469-4.394532h-33.199219v-66.402343h113.53125c8.285156 0 15-6.714844 15-15 0-8.28125-6.714844-15-15-15h-17.132812v-66.398438h98.535156v66.398438h-17.132812c-8.285157 0-15 6.71875-15 15 0 8.285156 6.714843 15 15 15h17.132812v66.402343h-81.402344c-8.28125 0-15 6.714844-15 15 0 8.28125 6.71875 15 15 15h96.402344c8.285156 0 15-6.71875 15-15v-192.800781c0-8.285156-6.71875-15-15-15zm-143.535156 96.398438h-66.402344v-66.398438h66.402344zm0 0"/></svg>