<svg height="512pt" viewBox="0 0 512 512" width="512pt" xmlns="http://www.w3.org/2000/svg"><path d="m512 49.085938c0-13.101563-5.101562-25.425782-14.363281-34.699219-.003907-.003907-.007813-.007813-.011719-.011719-1.589844-2.121094-14.691406-14.375-34.710938-14.375-13.109374 0-25.429687 5.105469-34.699218 14.371094l-114.160156 114.160156h-266.921876c-26.351562 0-47.132812 21.40625-47.132812 47.136719v289.199219c0 25.820312 20.867188 47.132812 47.132812 47.132812h401.667969c25.914063 0 47.132813-20.953125 47.132813-47.132812v-289.199219c0-24.816407-19.078125-44.992188-43.222656-46.964844l44.917968-44.917969c9.265625-9.269531 14.371094-21.589844 14.371094-34.699218zm-153.847656 173.714843h43.515625v194.933594h-243.136719v-194.933594h99.640625c-.726563 5.632813-1.105469 11.347657-1.105469 17.125v.007813c0 8.285156 6.722656 15 15.007813 15 31.96875 0 62.191406-11.347656 86.078125-32.132813zm90.648437-64.269531c9.433594 0 17.132813 7.640625 17.132813 17.136719v289.199219c0 9.433593-7.640625 17.132812-17.132813 17.132812h-401.667969c-9.332031 0-17.132812-7.546875-17.132812-17.132812v-289.199219c0-9.359375 7.566406-17.136719 17.132812-17.136719h238.179688c-8.289062 10.457031-14.863281 21.992188-19.574219 34.269531h-122.207031c-8.28125 0-15 6.714844-15 15v224.933594c0 8.285156 6.71875 15 15 15h273.136719c8.28125 0 15-6.714844 15-15v-224.933594c0-8.285156-6.71875-15-15-15h-28.054688l34.265625-34.269531zm27.613281-95.960938-132.675781 132.679688c-15.25 15.246094-34.496093 25.035156-55.378906 28.390625 3.355469-20.882813 13.144531-40.128906 28.390625-55.378906l132.679688-132.675781c7.304687-7.308594 19.386718-7.582032 26.980468.003906 7.585938 7.59375 7.3125 19.675781.003906 26.980468zm0 0"/><path d="m79.265625 192.800781c-8.28125 0-15 6.714844-15 15v32.132813c0 8.285156 6.71875 15 15 15 8.285156 0 15-6.714844 15-15v-32.132813c0-8.285156-6.714844-15-15-15zm0 0"/><path d="m79.265625 289.199219c-8.28125 0-15 6.714843-15 15v32.132812c0 8.285157 6.71875 15 15 15 8.285156 0 15-6.714843 15-15v-32.132812c0-8.285157-6.714844-15-15-15zm0 0"/><path d="m79.265625 385.601562c-8.28125 0-15 6.714844-15 15v32.132813c0 8.285156 6.71875 15 15 15 8.285156 0 15-6.714844 15-15v-32.132813c0-8.285156-6.714844-15-15-15zm0 0"/></svg>