<svg height="512.001pt" viewBox="0 0 512.001 512.001" width="512.001pt" xmlns="http://www.w3.org/2000/svg"><path d="m464.867188 0h-385.601563c-26.351563 0-47.132813 21.40625-47.132813 47.132812v17.132813h-17.132812c-8.285156 0-15 6.71875-15 15 0 8.285156 6.714844 15 15 15h17.132812v50.335937h-17.132812c-8.285156 0-15 6.714844-15 15 0 8.28125 6.714844 15 15 15h17.132812v50.332032h-17.132812c-8.285156 0-15 6.714844-15 15s6.714844 15 15 15h17.132812v50.332031h-17.132812c-8.285156 0-15 6.71875-15 15 0 8.285156 6.714844 15 15 15h17.132812v17.132813c0 25.921874 20.957032 47.132812 47.132813 47.132812h385.601563c25.914062 0 47.132812-20.949219 47.132812-47.132812v-305.265626c0-25.914062-20.953125-47.132812-47.132812-47.132812zm17.132812 352.398438c0 9.4375-7.640625 17.132812-17.132812 17.132812h-385.601563c-9.335937 0-17.132813-7.542969-17.132813-17.132812v-17.132813h17.832032c8.285156 0 15-6.714844 15-15s-6.714844-15-15-15h-17.832032v-50.332031h17.832032c8.285156 0 15-6.714844 15-15s-6.714844-15-15-15h-17.832032v-50.332032h17.832032c8.285156 0 15-6.71875 15-15 0-8.285156-6.714844-15-15-15h-17.832032v-50.335937h17.832032c8.285156 0 15-6.714844 15-15 0-8.28125-6.714844-15-15-15h-17.832032v-17.132813c0-9.433593 7.640626-17.132812 17.132813-17.132812h385.601563c9.433593 0 17.132812 7.640625 17.132812 17.132812zm0 0"/><path d="m472.898438 433.800781h-232.964844c-3.191406 0-6.300782 1.019531-8.875 2.90625l-32.832032 24.101563c-3.828124 2.808594-6.101562 7.265625-6.125 12.015625-.023437 4.746093 2.203126 9.230469 6 12.078125l32.132813 24.097656c2.597656 1.949219 5.753906 3 9 3h233.664063c21.5625 0 39.101562-17.539062 39.101562-39.097656 0-21.640625-17.515625-39.101563-39.101562-39.101563zm0 48.199219h-228.664063l-11.960937-8.96875 12.574218-9.230469h228.050782c4.980468 0 9.101562 4.027344 9.101562 9.101563 0 5.015625-4.082031 9.097656-9.101562 9.097656zm0 0"/></svg>