<svg height="512pt" viewBox="-48 0 512 512" width="512pt" xmlns="http://www.w3.org/2000/svg"><path d="m183.699219 289.199219c-8.25 0-15 6.722656-15 15 0 8.28125 6.75 15 15 15s15-6.71875 15-15c0-8.277344-6.75-15-15-15zm0 0"/><path d="m400.601562 158.53125c8.28125 0 15-6.714844 15-15v-96.398438c0-25.988281-21.144531-47.132812-47.132812-47.132812h-321.335938c-25.988281 0-47.132812 21.144531-47.132812 47.132812v96.398438c0 8.285156 6.714844 15 15 15 18.308594 0 33.199219 14.894531 33.199219 33.203125v144.597656c0 18.308594-14.894531 33.199219-33.199219 33.199219-8.285156 0-15 6.71875-15 15v80.335938c0 25.988281 21.144531 47.132812 47.132812 47.132812h321.335938c25.988281 0 47.132812-21.144531 47.132812-47.132812v-80.335938c0-8.28125-6.71875-15-15-15-18.308593 0-33.203124-14.890625-33.203124-33.199219v-144.597656c0-18.308594 14.894531-33.203125 33.203124-33.203125zm-175.667968 323.46875h-82.464844v-274.199219c0-36.023437 29.308594-65.332031 65.332031-65.332031 5.929688 0 11.667969.804688 17.132813 2.292969zm30 0v-319.371094c11.257812 11.742188 18.199218 27.65625 18.199218 45.171875v274.199219zm130.667968-84.265625v67.132813c0 9.445312-7.6875 17.132812-17.132812 17.132812h-65.335938v-274.199219c0-52.566406-42.765624-95.332031-95.332031-95.332031-52.566406 0-95.332031 42.765625-95.332031 95.332031v274.199219h-65.335938c-9.445312 0-17.132812-7.6875-17.132812-17.132812v-67.132813c27.632812-6.75 48.199219-31.71875 48.199219-61.402344v-144.597656c0-29.683594-20.566407-54.652344-48.199219-61.402344v-83.199219c0-9.445312 7.6875-17.132812 17.132812-17.132812h321.335938c9.445312 0 17.132812 7.6875 17.132812 17.132812v83.199219c-27.632812 6.75-48.203124 31.71875-48.203124 61.402344v144.597656c0 29.683594 20.570312 54.652344 48.203124 61.402344zm0 0"/></svg>