<svg id="Capa_1" enable-background="new 0 0 512 512" height="512" viewBox="0 0 512 512" width="512" xmlns="http://www.w3.org/2000/svg"><path d="m512 196v301c0 8.401-6.599 15-15 15h-181c-8.401 0-15-6.599-15-15s-6.599-15-15-15h-60c-8.401 0-15 6.599-15 15s-6.599 15-15 15h-181c-8.401 0-15-6.599-15-15v-301c0-8.401 6.599-15 15-15h482c8.401 0 15 6.599 15 15z" fill="#26bfbf"/><path d="m512 196v301c0 8.401-6.599 15-15 15h-181c-8.401 0-15-6.599-15-15s-6.599-15-15-15h-30v-301h241c8.401 0 15 6.599 15 15z" fill="#1a9ea6"/><path d="m451 166v241c0 8.401-6.599 15-15 15h-360c-8.401 0-15-6.599-15-15v-241c0-8.401 6.599-15 15-15h225l15 30 15-30h105c8.401 0 15 6.599 15 15z" fill="#f2f2f2"/><path d="m451 166v241c0 8.401-6.599 15-15 15h-180v-271h180c8.401 0 15 6.599 15 15z" fill="#e7e7f2"/><path d="m196 241h-15v-15c0-8.291-6.709-15-15-15s-15 6.709-15 15v15h-15c-8.291 0-15 6.709-15 15s6.709 15 15 15h15v75c0 8.291 6.709 15 15 15s15-6.709 15-15v-75h15c8.291 0 15-6.709 15-15s-6.709-15-15-15z" fill="#e7e7f2"/><g fill="#cecee6"><path d="m376 241h-60c-8.291 0-15-6.709-15-15s6.709-15 15-15h60c8.291 0 15 6.709 15 15s-6.709 15-15 15z"/><path d="m316 271h59.582c8.082 0 15.031 6.217 15.402 14.29.396 8.615-6.458 15.71-14.984 15.71h-60c-8.284 0-15-6.716-15-15 0-8.284 6.716-15 15-15z"/><path d="m376 361h-60c-8.291 0-15-6.709-15-15s6.709-15 15-15h60c8.291 0 15 6.709 15 15s-6.709 15-15 15z"/></g><path d="m271 15v61c0 8.401-6.599 15-15 15s-15-6.599-15-15v-61c0-8.401 6.599-15 15-15s15 6.599 15 15z" fill="#ffda2d"/><path d="m314.184 107.816c-5.859-5.859-5.859-15.352 0-21.211l42.422-42.422c5.859-5.859 15.352-5.859 21.211 0s5.859 15.352 0 21.211l-42.422 42.422c-5.86 5.86-15.352 5.86-21.211 0z" fill="#fdbf00"/><path d="m176.605 107.816-42.422-42.422c-5.859-5.859-5.859-15.352 0-21.211s15.352-5.859 21.211 0l42.422 42.422c5.859 5.859 5.859 15.352 0 21.211-5.859 5.86-15.351 5.86-21.211 0z" fill="#ffda2d"/><path d="m256 91v-91c8.401 0 15 6.599 15 15v61c0 8.401-6.599 15-15 15z" fill="#fdbf00"/></svg>