<svg id="Capa_1" enable-background="new 0 0 512 512" height="512" viewBox="0 0 512 512" width="512" xmlns="http://www.w3.org/2000/svg"><path d="m436 150h-15v-15c0-8.401-6.599-15-15-15h-60c-8.401 0-15 6.599-15 15v15h-30v-30h15c8.401 0 15-6.599 15-15v-60c0-8.401-6.599-15-15-15h-15v-15c0-8.401-6.599-15-15-15h-60c-8.401 0-15 6.599-15 15v15h-15c-8.401 0-15 6.599-15 15v60c0 8.401 6.599 15 15 15h15v30h-30v-15c0-8.401-6.599-15-15-15h-60c-8.401 0-15 6.599-15 15v15h-15c-8.401 0-15 6.599-15 15v60c0 8.401 6.599 15 15 15h15v15c0 8.401 6.599 15 15 15h60c8.401 0 15-6.599 15-15v-15h30v152h-15c-8.401 0-15 6.599-15 15v60c0 8.401 6.599 15 15 15h15v15c0 8.401 6.599 15 15 15h60c8.401 0 15-6.599 15-15v-15h15c8.401 0 15-6.599 15-15v-60c0-8.401-6.599-15-15-15h-15v-152h30v15c0 8.401 6.599 15 15 15h60c8.401 0 15-6.599 15-15v-15h15c8.401 0 15-6.599 15-15v-60c0-8.401-6.599-15-15-15z" fill="#ffda2d"/><path d="m451 165v60c0 8.401-6.599 15-15 15h-15v15c0 8.401-6.599 15-15 15h-60c-8.401 0-15-6.599-15-15v-15h-30v152h15c8.401 0 15 6.599 15 15v60c0 8.401-6.599 15-15 15h-15v15c0 8.401-6.599 15-15 15h-30v-512h30c8.401 0 15 6.599 15 15v15h15c8.401 0 15 6.599 15 15v60c0 8.401-6.599 15-15 15h-15v30h30v-15c0-8.401 6.599-15 15-15h60c8.401 0 15 6.599 15 15v15h15c8.401 0 15 6.599 15 15z" fill="#fdbf00"/></svg>