<svg id="Capa_1" enable-background="new 0 0 512 512" height="512" viewBox="0 0 512 512" width="512" xmlns="http://www.w3.org/2000/svg"><path d="m466 361h-15v-45h-390v45h-15c-8.291 0-15 6.709-15 15s6.709 15 15 15h30c.933 0 1.841-.096 2.726-.259l72.274 121.259h30l30-37.8h90l30 37.8h30l72.273-121.259c.885.162 1.794.259 2.727.259h30c8.291 0 15-6.709 15-15s-6.709-15-15-15z" fill="#f2f2f2"/><path d="m256 316v158.2h45l30 37.8h30l72.273-121.259c.885.162 1.794.259 2.727.259h30c8.291 0 15-6.709 15-15s-6.709-15-15-15h-15v-45z" fill="#e7e7f2"/><path d="m421 286-30 30h-270l-30-30 30-30h270z" fill="#f2f2f2"/><path d="m421 286-30 30h-135v-60h135z" fill="#e7e7f2"/><path d="m91 181c-8.291 0-15-6.709-15-15v-60c0-8.291 6.709-15 15-15s15 6.709 15 15v60c0 8.291-6.709 15-15 15z" fill="#ffda2d"/><path d="m421 181c-8.291 0-15-6.709-15-15v-60c0-8.291 6.709-15 15-15s15 6.709 15 15v60c0 8.291-6.709 15-15 15z" fill="#fdbf00"/><path d="m451 241-30 30-30-30v-38.787c0-17.561 6.976-34.402 19.393-46.82 5.858-5.858 15.355-5.858 21.213 0 12.418 12.418 19.394 29.259 19.394 46.82z" fill="#26bfbf"/><path d="m121 241-30 30-30-30v-38.787c0-17.561 6.976-34.402 19.393-46.82 5.858-5.858 15.355-5.858 21.213 0 12.418 12.418 19.394 29.259 19.394 46.82z" fill="#57d9d4"/><path d="m271 75v61c0 8.401-6.599 15-15 15s-15-6.599-15-15v-61c0-8.401 6.599-15 15-15s15 6.599 15 15z" fill="#ffda2d"/><path d="m271 75v61c0 8.401-6.599 15-15 15v-91c8.401 0 15 6.599 15 15z" fill="#fdbf00"/><path d="m301 45c0 24.901-20.099 45-45 45s-45-20.099-45-45 20.099-45 45-45c8.401 0 15 6.599 15 15s-6.599 15-15 15-15 6.599-15 15 6.599 15 15 15 15-6.599 15-15 6.599-15 15-15 15 6.599 15 15z" fill="#ffda2d"/><path d="m256 90v-30c8.401 0 15-6.599 15-15s6.599-15 15-15 15 6.599 15 15c0 24.901-20.099 45-45 45z" fill="#fdbf00"/><path d="m256 30v-30c8.401 0 15 6.599 15 15s-6.599 15-15 15z" fill="#fdbf00"/><path d="m391 241-31.5 15h-207l-31.5-15c6.301-44.099 40.499-81.301 86.4-93.3 14.399-3.9 27.001-11.1 38.101-22.2 2.699-3 6.599-4.5 10.499-4.5s7.8 1.5 10.499 4.501c11.1 10.8 23.701 18.3 38.101 21.899 46.499 12.6 80.4 49.201 86.4 93.6z" fill="#f2f2f2"/><path d="m359.5 256h-103.5v-135c3.9 0 7.8 1.5 10.499 4.501 11.1 10.8 23.701 18.3 38.101 21.899 46.5 12.599 80.4 49.2 86.4 93.6z" fill="#e7e7f2"/><path d="m61 256h60v60h-60z" fill="#cecee6"/><path d="m391 256h60v60h-60z" fill="#adadcc"/><path d="m481 256c0 8.401-6.599 15-15 15h-420c-8.401 0-15-6.599-15-15s6.599-15 15-15h420c8.401 0 15 6.599 15 15z" fill="#e7e7f2"/><path d="m466 271h-210v-30h210c8.401 0 15 6.599 15 15s-6.599 15-15 15z" fill="#cecee6"/><path d="m331 474.2v37.8h-150v-37.8c0-47.1 26.1-90.7 68.401-111.7 2.098-.899 4.199-1.5 6.599-1.5s4.501.601 6.599 1.5c42.301 21 68.401 64.599 68.401 111.7z" fill="#596c76"/><path d="m451 497v-106h-15c-41.422 0-75 33.578-75 75v46h75c8.291 0 15-6.709 15-15z" fill="#465a61"/><path d="m76 391h-15v106c0 8.291 6.709 15 15 15h75v-46c0-41.422-33.578-75-75-75z" fill="#596c76"/><path d="m331 474.2v37.8h-75v-151c2.401 0 4.501.601 6.599 1.5 42.301 21 68.401 64.599 68.401 111.7z" fill="#465a61"/><path d="m481 316c0 8.401-6.599 15-15 15h-420c-8.401 0-15-6.599-15-15s6.599-15 15-15h420c8.401 0 15 6.599 15 15z" fill="#e7e7f2"/><path d="m481 316c0 8.401-6.599 15-15 15h-210v-30h210c8.401 0 15 6.599 15 15z" fill="#cecee6"/></svg>