<svg id="Capa_1" enable-background="new 0 0 512 512" height="512" viewBox="0 0 512 512" width="512" xmlns="http://www.w3.org/2000/svg"><path d="m262 1.199c-.3 0-.3 0-.3 0-2.1-.899-3.6-1.199-5.7-1.199-1.5 0-2.999.3-5.7 1.199 0 0 0 0-.3 0-114.601 38.702-189 147.1-189 264.401v231.4c0 7.5 6.899 15 15 15h360c8.101 0 15-7.5 15-15v-231.4c0-117.001-74.099-225.399-189-264.401z" fill="#596c76"/><path d="m451 265.6v231.4c0 7.5-6.899 15-15 15h-180v-512c2.1 0 3.6.3 5.7 1.199h.3c114.901 39.002 189 147.4 189 264.401z" fill="#465a61"/><path d="m211 271h-45c-8.401 0-15-6.599-15-15v-52.78l-40.45-32.359c-10.265 24.758-16.522 51.259-18.303 78.917l118.753 94.999z" fill="#fdbf00"/><path d="m211 181v-37.784l-55.219-44.171c-12.246 13.478-22.752 28.332-31.761 44.154l47.253 37.8h39.727z" fill="#57d9d4"/><path d="m301 181h39.728l47.255-37.802c-9.009-15.822-19.515-30.677-31.761-44.154l-55.222 44.172z" fill="#26bfbf"/><path d="m361 256c0 8.401-6.599 15-15 15h-45v73.778l118.755-95c-1.782-27.658-8.038-54.161-18.303-78.918l-40.452 32.36z" fill="#ff9100"/><path d="m280.724 121 53.629-42.9c-18.738-16.131-39.965-30.443-63.353-40.547v68.447 15z" fill="#1a9ea6"/><path d="m241 121v-15-68.447c-23.388 10.104-44.615 24.417-63.353 40.547l53.629 42.9z" fill="#26bfbf"/><path d="m201.98 375.998-110.98 89.783v-178.563z" fill="#ff8e8e"/><path d="m226.004 395.217 14.996 11.995v74.788h-122.227z" fill="#ff637b"/><path d="m271 407.212 14.996-11.995 107.231 86.783h-122.227z" fill="#e63950"/><path d="m310.02 375.998 110.98-88.78v178.563z" fill="#ff637b"/><path d="m241 361v-120h-60v-30h60v-60h30v60h60v30h-60v120z" fill="#ffda2d"/><path d="m271 151h-15v210h15v-120h60v-30h-60z" fill="#fdbf00"/></svg>