<svg id="Capa_1" enable-background="new 0 0 512 512" height="512" viewBox="0 0 512 512" width="512" xmlns="http://www.w3.org/2000/svg"><path d="m90 60h332v392h-332z" fill="#ffda2d"/><path d="m256 60h166v392h-166z" fill="#fdbf00"/><path d="m346 181h-15v-15c0-8.291-6.709-15-15-15s-15 6.709-15 15v15h-15c-8.291 0-15 6.709-15 15s6.709 15 15 15h15v15c0 8.291 6.709 15 15 15s15-6.709 15-15v-15h15c8.291 0 15-6.709 15-15s-6.709-15-15-15z" fill="#ff9100"/><path d="m352.301 259.3c-5.101-3.3-11.7-2.999-16.501.601-10.5 7.199-22.501 11.099-34.8 11.099-17.999 0-34.2-8.101-45-20.7-9.6-10.499-15-24.3-15-39.3 0-12.299 3.9-24.3 11.1-34.799 3.6-4.801 3.9-11.4.601-16.501-3.3-5.4-9.3-7.798-15.3-6.899-50.099 9-86.4 52.5-86.4 103.2 0 57.9 47.1 105 105 105 50.7 0 94.2-36.301 103.2-86.4.898-6.002-1.501-12.002-6.9-15.301z" fill="#fdbf00"/><path d="m75 60h-60c-8.291 0-15-6.709-15-15s6.709-15 15-15h60c8.291 0 15 6.709 15 15s-6.709 15-15 15z" fill="#725d57"/><path d="m497 60h-60c-8.291 0-15-6.709-15-15s6.709-15 15-15h60c8.291 0 15 6.709 15 15s-6.709 15-15 15z" fill="#53433f"/><path d="m75 482h-60c-8.291 0-15-6.709-15-15s6.709-15 15-15h60c8.291 0 15 6.709 15 15s-6.709 15-15 15z" fill="#725d57"/><path d="m497 482h-60c-8.291 0-15-6.709-15-15s6.709-15 15-15h60c8.291 0 15 6.709 15 15s-6.709 15-15 15z" fill="#53433f"/><path d="m256 361v-110.7c10.8 12.599 27.001 20.7 45 20.7 12.299 0 24.3-3.9 34.799-11.1 4.801-3.6 11.4-3.9 16.501-.601 5.4 3.3 7.798 9.3 6.899 15.3-8.999 50.1-52.499 86.401-103.199 86.401z" fill="#ff9100"/><path d="m407 0h-302c-24.901 0-45 20.099-45 45s20.099 45 45 45h302c24.901 0 45-20.099 45-45s-20.099-45-45-45z" fill="#ff637b"/><path d="m407 422h-302c-24.901 0-45 20.099-45 45s20.099 45 45 45h302c24.901 0 45-20.099 45-45s-20.099-45-45-45z" fill="#ff637b"/><path d="m497 90c-8.291 0-15-6.709-15-15v-60c0-8.291 6.709-15 15-15s15 6.709 15 15v60c0 8.291-6.709 15-15 15z" fill="#e63950"/><path d="m15 90c-8.291 0-15-6.709-15-15v-60c0-8.291 6.709-15 15-15s15 6.709 15 15v60c0 8.291-6.709 15-15 15z" fill="#ff637b"/><path d="m497 512c-8.291 0-15-6.709-15-15v-60c0-8.291 6.709-15 15-15s15 6.709 15 15v60c0 8.291-6.709 15-15 15z" fill="#e63950"/><path d="m15 512c-8.291 0-15-6.709-15-15v-60c0-8.291 6.709-15 15-15s15 6.709 15 15v60c0 8.291-6.709 15-15 15z" fill="#ff637b"/><g fill="#e63950"><path d="m452 467c0 24.901-20.099 45-45 45h-151v-90h151c24.901 0 45 20.099 45 45z"/><path d="m407 90h-151v-90h151c24.901 0 45 20.099 45 45s-20.099 45-45 45z"/></g></svg>