<svg id="Capa_1" enable-background="new 0 0 512 512" height="512" viewBox="0 0 512 512" width="512" xmlns="http://www.w3.org/2000/svg"><path d="m218.949 287c0-24.901-20.099-45-45-45h-60c-24.901 0-45 20.099-45 45 0 19.636 12.504 36.278 30 42.441v122.559h90v-122.559c17.496-6.163 30-22.805 30-42.441z" fill="#fdbf00"/><path d="m218.949 287c0-24.901-20.099-45-45-45h-30v210h45v-122.559c17.496-6.163 30-22.805 30-42.441z" fill="#ff9100"/><path d="m218.949 422v90h-165c-8.401 0-15-6.599-15-15 0-20.7 8.401-39.6 21.899-53.101 13.501-13.498 32.401-21.899 53.101-21.899z" fill="#ffda2d"/><path d="m143.949 422h75v90h-75z" fill="#fdbf00"/><path d="m263.949 135.099-15-121.899c-1.199-7.5-7.5-13.2-15-13.2h-180c-7.5 0-13.801 5.7-15 13.2l-15 121.899c-4.2 34.501 6.301 70.001 29.399 96.101 22.8 25.8 55.801 40.8 90.601 40.8s67.8-15 90.601-40.8c23.098-26.099 33.599-61.6 29.399-96.101z" fill="#ffda2d"/><path d="m234.549 231.2c-22.8 25.8-55.801 40.8-90.601 40.8v-272h90c7.5 0 13.801 5.7 15 13.2l15 121.899c4.201 34.501-6.3 70.002-29.399 96.101z" fill="#fdbf00"/><path d="m188.949 106c0 8.401-6.599 15-15 15h-15v76c0 8.401-6.599 15-15 15s-15-6.599-15-15v-76h-15c-8.401 0-15-6.599-15-15s6.599-15 15-15h15v-15c0-8.401 6.599-15 15-15s15 6.599 15 15v15h15c8.401 0 15 6.599 15 15z" fill="#fdbf00"/><path d="m143.949 212v-151c8.401 0 15 6.599 15 15v15h15c8.401 0 15 6.599 15 15s-6.599 15-15 15h-15v76c0 8.401-6.599 15-15 15z" fill="#ff9100"/><path d="m278.782 377.245c-12.544-9.439-27.962-15.245-44.833-15.245l30 90 69.919-25.266-21.078-49.287-15.539-10.276c-6.56 2.53-12.824 5.812-18.469 10.074z" fill="#fdbf00"/><path d="m387.459 367.555c-6.465 2.551-12.717 5.665-18.364 9.948-12.599-9.587-28.13-15.503-45.146-15.503l30 90 88.412-22.247z" fill="#ff9100"/><path d="m472.149 484.401c-14.399 17.699-35.7 27.599-58.2 27.599h-180c-41.4 0-75-33.6-75-75s33.6-75 75-75c24.9 0 45 20.099 45 45 0 8.401 6.599 15 15 15s15-6.599 15-15c0-14.7-4.501-28.2-11.7-39.901 8.401-3.3 17.401-5.099 26.7-5.099 24.901 0 45 20.099 45 45 0 8.401 6.599 15 15 15s15-6.599 15-15c0-14.399-4.2-27.9-11.4-39.3 13.5-5.4 28.2-7.2 43.2-3.9 28.2 6.301 51 29.399 56.7 57.599 4.499 22.5-1.201 45.601-15.3 63.002z" fill="#ff9100"/><path d="m472.149 484.401c-14.399 17.699-35.7 27.599-58.2 27.599h-90v-150c24.901 0 45 20.099 45 45 0 8.401 6.599 15 15 15s15-6.599 15-15c0-14.399-4.2-27.9-11.4-39.3 13.5-5.4 28.2-7.2 43.2-3.9 28.2 6.301 51 29.399 56.7 57.599 4.499 22.5-1.201 45.601-15.3 63.002z" fill="#ff641a"/></svg>