<svg id="Capa_1" enable-background="new 0 0 512 512" height="512" viewBox="0 0 512 512" width="512" xmlns="http://www.w3.org/2000/svg"><path d="m301 45c0 8.401-6.599 15-15 15h-15v46c0 8.401-6.599 15-15 15s-15-6.599-15-15v-46h-15c-8.401 0-15-6.599-15-15s6.599-15 15-15h15v-15c0-8.401 6.599-15 15-15s15 6.599 15 15v15h15c8.401 0 15 6.599 15 15z" fill="#ffda2d"/><path d="m256 121v-121c8.401 0 15 6.599 15 15v15h15c8.401 0 15 6.599 15 15s-6.599 15-15 15h-15v46c0 8.401-6.599 15-15 15z" fill="#fdbf00"/><path d="m46 512h45l30-29.125v-196.875l-30-45c-33.137 0-60 26.863-60 60v196c0 8.284 6.716 15 15 15z" fill="#e7e7f2"/><path d="m91 391h90l30-30v-142.5l-30-37.5-90 60z" fill="#596c76"/><path d="m331 136v45l-30 30h-90l-30-30v-45c0-5.7 3.3-10.8 8.401-13.5l60-30c2.098-.899 4.199-1.5 6.599-1.5s4.501.601 6.599 1.5l60 30c5.101 2.7 8.401 7.8 8.401 13.5z" fill="#ff637b"/><path d="m331 136v45l-30 30h-45v-120c2.401 0 4.501.601 6.599 1.5l60 30c5.101 2.7 8.401 7.8 8.401 13.5z" fill="#e63950"/><path d="m466 512h-45l-30-29.125v-196.875l30-45c33.137 0 60 26.863 60 60v196c0 8.284-6.716 15-15 15z" fill="#cecee6"/><path d="m421 391h-90l-30-30v-142.5l30-37.5 90 60z" fill="#465a61"/><path d="m181 181h150v150h-150z" fill="#e7e7f2"/><path d="m256 181h75v150h-75z" fill="#cecee6"/><path d="m421 397v115h-120l-30-15h-30l-30 15h-120v-115c0-36.901 19.501-71.1 51-90l106.2-63.9c2.401-1.5 5.099-2.1 7.8-2.1s5.4.601 7.8 2.1l106.2 63.9c31.499 18.901 51 53.099 51 90z" fill="#f2f2f2"/><path d="m421 397v115h-120l-30-15h-15v-256c2.701 0 5.4.601 7.8 2.1l106.2 63.9c31.499 18.901 51 53.099 51 90z" fill="#e7e7f2"/><path d="m301 436v76h-90v-76c0-8.401 6.599-15 15-15h60c8.401 0 15 6.599 15 15z" fill="#725d57"/><path d="m256 301c-24.901 0-45 20.099-45 45s20.099 45 45 45 45-20.099 45-45-20.099-45-45-45z" fill="#ffda2d"/><path d="m346 451c-8.291 0-15-6.709-15-15v-30c0-8.291 6.709-15 15-15s15 6.709 15 15v30c0 8.291-6.709 15-15 15z" fill="#26bfbf"/><path d="m166 451c-8.291 0-15-6.709-15-15v-30c0-8.291 6.709-15 15-15s15 6.709 15 15v30c0 8.291-6.709 15-15 15z" fill="#57d9d4"/><path d="m301 346c0 24.901-20.099 45-45 45v-90c24.901 0 45 20.099 45 45z" fill="#fdbf00"/><path d="m301 436v76h-45v-91h30c8.401 0 15 6.599 15 15z" fill="#53433f"/></svg>