<svg id="Capa_1" enable-background="new 0 0 512 512" height="512" viewBox="0 0 512 512" width="512" xmlns="http://www.w3.org/2000/svg"><g fill="#57d9d4"><path d="m301 75c0 8.401-6.599 15-15 15h-60c-8.401 0-15-6.599-15-15s6.599-15 15-15h60c8.401 0 15 6.599 15 15z"/><path d="m331 15c0 8.401-6.599 15-15 15h-120c-8.401 0-15-6.599-15-15s6.599-15 15-15h120c8.401 0 15 6.599 15 15z"/><path d="m301 437c0 8.401-6.599 15-15 15h-60c-8.401 0-15-6.599-15-15s6.599-15 15-15h60c8.401 0 15 6.599 15 15z"/><path d="m331 497c0 8.401-6.599 15-15 15h-120c-8.401 0-15-6.599-15-15s6.599-15 15-15h120c8.401 0 15 6.599 15 15z"/><path d="m95.903 160.536c-5.859-5.859-5.859-16.352 0-22.211l42.422-42.422c5.859-5.859 15.352-5.859 21.211 0s5.859 15.352 0 21.211l-42.422 43.422c-5.859 5.859-15.351 5.86-21.211 0z"/><path d="m32.256 138.325c-5.859-5.859-5.859-15.352 0-21.211l84.858-84.858c5.859-5.859 15.352-5.859 21.211 0s5.859 15.352 0 21.211l-84.858 84.858c-5.859 5.859-15.352 5.86-21.211 0z"/></g><path d="m352.464 416.097c-5.859-5.859-5.859-15.352 0-21.211l42.422-43.422c5.859-5.859 15.352-5.859 21.211 0s5.859 16.352 0 22.211l-42.422 42.422c-5.859 5.859-15.352 5.859-21.211 0z" fill="#26bfbf"/><path d="m373.675 479.744c-5.859-5.859-5.859-15.352 0-21.211l84.858-84.858c5.859-5.859 15.352-5.859 21.211 0s5.859 15.352 0 21.211l-84.858 84.858c-5.859 5.859-15.352 5.86-21.211 0z" fill="#26bfbf"/><path d="m75 301c-8.291 0-15-6.709-15-15v-60c0-8.291 6.709-15 15-15s15 6.709 15 15v60c0 8.291-6.709 15-15 15z" fill="#57d9d4"/><path d="m15 331c-8.291 0-15-6.709-15-15v-120c0-8.291 6.709-15 15-15s15 6.709 15 15v120c0 8.291-6.709 15-15 15z" fill="#57d9d4"/><path d="m437 301c-8.291 0-15-6.709-15-15v-60c0-8.291 6.709-15 15-15s15 6.709 15 15v60c0 8.291-6.709 15-15 15z" fill="#26bfbf"/><path d="m497 331c-8.291 0-15-6.709-15-15v-120c0-8.291 6.709-15 15-15s15 6.709 15 15v120c0 8.291-6.709 15-15 15z" fill="#26bfbf"/><path d="m138.325 416.097-42.422-42.422c-5.859-5.859-5.859-16.352 0-22.211s15.352-5.859 21.211 0l42.422 43.422c5.859 5.859 5.859 15.352 0 21.211s-15.351 5.859-21.211 0z" fill="#57d9d4"/><path d="m117.114 479.744-84.858-84.858c-5.859-5.859-5.859-15.352 0-21.211s15.352-5.859 21.211 0l84.858 84.858c5.859 5.859 5.859 15.352 0 21.211s-15.351 5.86-21.211 0z" fill="#57d9d4"/><path d="m394.886 160.536-42.422-43.422c-5.859-5.859-5.859-15.352 0-21.211s15.352-5.859 21.211 0l42.422 42.422c5.859 5.859 5.859 16.352 0 22.211-5.86 5.859-15.352 5.86-21.211 0z" fill="#26bfbf"/><path d="m458.533 138.325-84.858-84.858c-5.859-5.859-5.859-15.352 0-21.211s15.352-5.859 21.211 0l84.858 84.858c5.859 5.859 5.859 15.352 0 21.211s-15.351 5.86-21.211 0z" fill="#26bfbf"/><path d="m392 256c0 76.5-64.9 136-136 136-4.799 0-9-.901-13.5-1.5-30.899-6.301-85-34.3-85-67l98.5-176.7 13.5-25.3c68.099 6.901 122.5 64.599 122.5 134.5z" fill="#596c76"/><path d="m392 256c0 76.5-64.9 136-136 136v-245.2l13.5-25.3c68.099 6.901 122.5 64.599 122.5 134.5z" fill="#465a61"/><path d="m323.5 188.5c0 37.2-30.3 67.5-67.5 67.5s-67.5 30.3-67.5 67.5c0 32.701 23.101 60.7 54 67-68.099-6.901-122.5-64.599-122.5-134.5 0-76.5 64.9-136 136-136 4.799 0 9 .901 13.5 1.5 30.899 6.3 54 34.299 54 67z" fill="#f2f2f2"/><path d="m323.5 188.5c0 37.2-30.3 67.5-67.5 67.5v-136c4.799 0 9 .901 13.5 1.5 30.899 6.3 54 34.299 54 67z" fill="#e7e7f2"/><path d="m271 324c0 8.399-6.599 15-15 15s-15-6.601-15-15c0-8.401 6.599-15 15-15s15 6.599 15 15z" fill="#f2f2f2"/><path d="m271 189c0 8.399-6.599 15-15 15s-15-6.601-15-15c0-8.401 6.599-15 15-15s15 6.599 15 15z" fill="#596c76"/><path d="m256 339v-30c8.401 0 15 6.599 15 15 0 8.399-6.599 15-15 15z" fill="#e7e7f2"/><path d="m256 204v-30c8.401 0 15 6.599 15 15 0 8.399-6.599 15-15 15z" fill="#465a61"/><path d="m286 452h-30v-30h30c8.401 0 15 6.599 15 15s-6.599 15-15 15z" fill="#26bfbf"/><path d="m286 90h-30v-30h30c8.401 0 15 6.599 15 15s-6.599 15-15 15z" fill="#26bfbf"/><path d="m331 497c0 8.401-6.599 15-15 15h-60v-30h60c8.401 0 15 6.599 15 15z" fill="#26bfbf"/><path d="m316 30h-60v-30h60c8.401 0 15 6.599 15 15s-6.599 15-15 15z" fill="#26bfbf"/></svg>