<svg id="Capa_1" enable-background="new 0 0 512 512" height="512" viewBox="0 0 512 512" width="512" xmlns="http://www.w3.org/2000/svg"><path d="m512 331v105l-91 76h-30l-30-46h-30l-30 46h-30l-30-46h-30l-31 46h-30l-30-31v-150l60-30h272.199z" fill="#f2f2f2"/><path d="m512 286v45h-392v-60h377c8.401 0 15 6.599 15 15z" fill="#e7e7f2"/><path d="m120 45c0 8.401-6.599 15-15 15h-15v45c0 8.401-6.599 15-15 15s-15-6.599-15-15v-45h-15c-8.401 0-15-6.599-15-15s6.599-15 15-15h15v-15c0-8.401 6.599-15 15-15s15 6.599 15 15v15h15c8.401 0 15 6.599 15 15z" fill="#e7e7f2"/><path d="m75 120v-120c8.401 0 15 6.599 15 15v15h15c8.401 0 15 6.599 15 15s-6.599 15-15 15h-15v45c0 8.401-6.599 15-15 15z" fill="#cecee6"/><path d="m150 166v105l-30 30h-90l-30-30v-105c0-3.9 1.5-7.8 4.501-10.501l60-60.998c2.699-3.001 6.599-4.501 10.499-4.501s7.8 1.5 10.499 4.501l60 60.998c3.001 2.701 4.501 6.601 4.501 10.501z" fill="#f2f2f2"/><path d="m150 166v105l-30 30h-45v-211c3.9 0 7.8 1.5 10.499 4.501l60 60.998c3.001 2.701 4.501 6.601 4.501 10.501z" fill="#e7e7f2"/><path d="m150 271v60l-30 30h-90l-30-30v-60z" fill="#e7e7f2"/><path d="m150 271v60l-30 30h-45v-90z" fill="#cecee6"/><path d="m150 331v181h-135c-8.401 0-15-6.601-15-15v-166z" fill="#f2f2f2"/><path d="m75 331h75v181h-75z" fill="#e7e7f2"/><g fill="#465a61"><path d="m226 391c-24.853 0-46 20.147-46 45v76h91v-76c0-24.853-20.147-45-45-45z"/><path d="m391 436v76h-90v-76c0-24.901 20.099-45 45-45s45 20.099 45 45z"/><path d="m467 391c-24.853 0-46 20.147-46 45v76h76c8.284 0 15-6.716 15-15v-61c0-24.853-20.147-45-45-45z"/></g><path d="m90 406v30c0 8.399-6.599 15-15 15s-15-6.601-15-15v-30c0-8.401 6.599-15 15-15s15 6.599 15 15z" fill="#596c76"/><path d="m90 196v30c0 8.399-6.599 15-15 15s-15-6.601-15-15v-30c0-8.401 6.599-15 15-15s15 6.599 15 15z" fill="#596c76"/><path d="m75 241v-60c8.401 0 15 6.599 15 15v30c0 8.399-6.599 15-15 15z" fill="#465a61"/><path d="m90 406v30c0 8.399-6.599 15-15 15v-60c8.401 0 15 6.599 15 15z" fill="#465a61"/></svg>