<svg id="Capa_1" enable-background="new 0 0 511.929 511.929" height="512" viewBox="0 0 511.929 511.929" width="512" xmlns="http://www.w3.org/2000/svg"><path d="m509.864 488.465c-2.699 4.499-7.5 7.2-12.9 7.2h-482c-5.4 0-10.201-2.701-12.9-7.2-2.701-4.501-2.701-10.201-.3-15l84.699-157.202h339.001l84.699 157.202c2.402 4.799 2.402 10.499-.299 15z" fill="#ffda2d"/><path d="m385.264 241.263h-258.6l116.1-217.798c2.401-4.801 7.8-7.2 13.2-7.2s10.8 2.399 13.2 7.2z" fill="#ffda2d"/><path d="m385.264 241.263h-129.3v-224.998c5.4 0 10.8 2.399 13.2 7.2z" fill="#fdbf00"/><path d="m509.864 488.465c-2.699 4.499-7.5 7.2-12.9 7.2h-241v-179.402h169.501l84.699 157.202c2.401 4.799 2.401 10.499-.3 15z" fill="#fdbf00"/><path d="m447.064 290.764c-3.3-3.9-86.1-95.099-191.1-95.099s-187.8 91.199-191.1 95.099c-5.099 5.7-5.099 14.101 0 19.799 3.3 3.9 86.1 95.101 191.1 95.101s187.8-91.201 191.1-95.101c5.1-5.698 5.1-14.099 0-19.799z" fill="#f2f2f2"/><path d="m447.064 310.563c-3.3 3.9-86.1 95.101-191.1 95.101v-210c105 0 187.8 91.199 191.1 95.099 5.1 5.701 5.1 14.102 0 19.8z" fill="#cecee6"/><path d="m255.965 255.664c-24.901 0-45 20.099-45 45 0 24.899 20.099 45 45 45s45-20.101 45-45c0-24.9-20.1-45-45-45z" fill="#57d9d4"/><path d="m300.965 300.664c0 24.899-20.099 45-45 45v-90c24.9 0 45 20.1 45 45z" fill="#26bfbf"/></svg>