<svg id="Capa_1" enable-background="new 0 0 512 512" height="512" viewBox="0 0 512 512" width="512" xmlns="http://www.w3.org/2000/svg"><path d="m136 241h-16.09c-1.897-13.437-6.339-26.987-13.412-40.811-1.208-2.364-2.128-4.827-3.076-7.278l-12.422-5.858-12.354 24.092c.421.884.687 1.824 1.133 2.697 14.746 28.823 14.919 54.417.571 83.232-.628 1.258-1.022 2.596-1.6 3.875l-2.75 23.979 27.573-5.784c1.071-2.937 2.207-5.859 3.613-8.681 6.617-13.256 10.868-26.361 12.719-39.463h16.095c8.291 0 15-6.709 15-15s-6.709-15-15-15z" fill="#fdbf00"/><path d="m189.276 399.701c-4.715-14.093-10.99-26.34-18.906-36.86l11.377-11.377c5.859-5.859 5.859-15.352 0-21.211s-15.352-5.859-21.211 0l-11.374 11.374c-10.532-7.929-22.79-14.203-36.893-18.903-2.988-1-5.861-2.26-8.696-3.58-9.501-4.42-17.937-10.618-24.823-18.195-10.845-11.933-17.75-27.25-17.75-44.949 0-17.715 6.885-32.974 17.646-44.855 6.885-7.601 15.313-13.806 24.776-18.234 2.878-1.346 5.801-2.62 8.833-3.635 14.034-4.675 26.315-10.936 36.904-18.906l11.377 11.377c5.86 5.859 15.352 5.859 21.211 0s5.859-15.352 0-21.211l-11.375-11.375c8.163-10.843 14.61-23.568 19.374-38.341.815-2.521 1.904-4.905 2.963-7.304l-14.392-17.191-16.005 12.564c-.326.921-.8 1.771-1.101 2.703l-.015.015c-9.899 30.738-27.957 49.039-58.447 59.224-1.452.485-2.794 1.208-4.222 1.752l-15.562-6.176-13.645 22.738c-19.239 15.178-33.157 36.565-37.147 61.855h-17.173c-8.291 0-15 6.709-15 15s6.709 15 15 15h17.17c4.019 25.494 18.12 46.991 37.547 62.172l13.702 22.7 15.467-6.308c1.313.494 2.543 1.163 3.876 1.608 30.238 10.109 48.074 28.136 58.066 58.052.449 1.339 1.119 2.573 1.615 3.891l13.231 12.962 17.186-17.647c-1.322-2.847-2.582-5.731-3.584-8.729z" fill="#ff9100"/><path d="m431.635 297.03c-14.148-28.356-14.145-53.729 0-82.075.634-1.267 1.029-2.617 1.613-3.904l2.752-23.972-27.576 5.788c-1.075 2.943-2.214 5.87-3.625 8.699-6.641 13.303-10.866 26.398-12.707 39.434h-16.092c-8.291 0-15 6.709-15 15s6.709 15 15 15h16.094c1.843 13.037 6.07 26.127 12.705 39.419 1.414 2.833 2.56 5.766 3.636 8.716l27.565 5.794-2.743-23.98c-.584-1.291-.987-2.646-1.622-3.919z" fill="#ff9100"/><path d="m497 241h-17.168c-4.021-25.534-18.143-47.005-37.542-62.159l-13.235-22.439-15.934 6.044c-1.32-.496-2.558-1.168-3.898-1.617-30.062-10.042-48.021-28.019-58.052-58.052-.449-1.342-1.119-2.573-1.615-3.891l-15.331-12.636-15.086 17.325c1.322 2.845 2.584 5.728 3.585 8.723 4.717 14.098 10.991 26.342 18.907 36.859l-11.378 11.378c-5.859 5.859-5.859 15.352 0 21.211 5.86 5.859 15.352 5.859 21.211 0l11.378-11.378c10.522 7.919 22.767 14.192 36.859 18.907 3.001 1.003 5.879 2.269 8.723 3.591 9.512 4.426 17.946 10.616 24.824 18.184 10.86 11.949 17.752 27.275 17.752 44.95 0 17.759-6.921 33.051-17.743 44.949-6.898 7.584-15.343 13.775-24.822 18.186-2.849 1.326-5.735 2.585-8.734 3.589-14.013 4.689-26.349 11.03-36.858 18.909l-11.38-11.38c-5.859-5.859-15.352-5.859-21.211 0s-5.859 15.352 0 21.211l11.377 11.377c-7.872 10.502-14.204 22.835-18.892 36.845-1.005 3.003-2.271 5.889-3.596 8.736l15.844 17.437 14.583-12.757c.496-1.318 1.168-2.554 1.617-3.895 5.01-15 12.246-27.29 21.489-36.533 9.258-9.258 21.548-16.494 36.548-21.504 1.34-.449 2.576-1.121 3.896-1.617l14.985 6.579 14.189-22.972c19.449-15.2 33.52-36.71 37.535-62.161h17.173c8.291 0 15-6.709 15-15s-6.709-14.999-15-14.999z" fill="#ff641a"/><path d="m271 32.187v-17.187c0-8.401-6.599-15-15-15s-15 6.599-15 15v17.146c-25.817 3.99-47.552 18.115-62.701 37.554l14.701 18.9 17.699-9.899c12.001-10.802 27.6-17.701 45.301-17.701s32.999 6.899 45 17.701l17.999 9.899 14.101-18.9c-15.1-19.377-36.746-33.472-62.1-37.513z" fill="#ff9100"/><path d="m333.1 442.299-14.101-18.9-17.999 9.9c-12.001 10.8-27.299 17.701-45 17.701s-32.999-6.901-45-17.701l-17.999-9.901-14.101 18.9c15.121 19.404 36.592 33.512 62.1 37.532v17.17c0 8.399 6.599 15 15 15s15-6.601 15-15v-17.17c25.509-4.019 46.979-18.127 62.1-37.531z" fill="#ff9100"/><path d="m442.301 333.1c-8.701 6.9-18.6 12.6-29.101 16.5-.899 16.199-6.899 31.8-19.2 44.399-12.599 12.301-28.2 18.3-44.399 19.2-10.199.3-20.7-1.199-30.601-4.801-2.699-1.199-5.7-2.098-8.699-3.6-13.175-6.696-26.348-10.889-39.3-12.72v-16.078c0-8.401-6.599-15-15-15s-15 6.599-15 15v16.083c-13.195 1.878-26.319 6.184-39.6 12.715-2.699 1.501-5.7 2.701-8.399 3.6-9.902 3.602-20.403 5.102-30.602 4.802-15.677-.872-30.786-6.537-43.164-18.05-.348-.436-.718-.86-1.122-1.264s-.828-.774-1.264-1.122c-11.513-12.379-17.18-27.487-18.05-43.164-10.501-3.9-20.4-9.6-29.101-16.5-3.017 24.639 2.401 49.907 17.477 70.513l-11.484 11.484c-5.859 5.859-5.859 15.352 0 21.211 5.86 5.859 15.352 5.859 21.211 0l11.467-11.467c20.737 15.251 45.844 20.481 70.53 17.458 11.1-1.5 21.899-4.499 32.1-9 1.199-.599 2.701-.899 3.9-1.8 14.099-6.899 27.6-10.499 41.1-10.499s27.001 3.6 41.1 10.499c1.199.901 2.701 1.201 3.9 1.8 10.201 4.501 21 7.5 32.1 9 29.4 3.6 59.7-4.799 81.9-27.299 22.8-22.5 30.9-52.801 27.301-81.9z" fill="#fdbf00"/><path d="m333.1 442.299-14.101-18.9-17.999 9.9c-12.001 10.8-27.299 17.701-45 17.701v30 31c8.401 0 15-6.601 15-15v-17.17c25.509-4.019 46.979-18.127 62.1-37.531z" fill="#ff641a"/><path d="m271 32.187v-17.187c0-8.401-6.599-15-15-15v31 30c17.701 0 32.999 6.899 45 17.701l17.999 9.899 14.101-18.9c-15.1-19.377-36.746-33.472-62.1-37.513z" fill="#ff641a"/><path d="m424.833 403.622c15.258-20.801 20.491-46.083 17.468-70.521-8.701 6.899-18.6 12.599-29.101 16.499-.87 15.677-6.537 30.786-18.05 43.164-.436.348-.86.718-1.264 1.122s-.773.828-1.122 1.264c-12.378 11.513-27.486 17.178-43.164 18.05-10.199.3-20.7-1.199-30.601-4.801-2.699-1.199-5.7-2.098-8.699-3.6-13.175-6.696-26.348-10.889-39.3-12.72v-16.079c0-8.401-6.599-15-15-15v30 30c13.5 0 27.001 3.6 41.1 10.499 1.199.901 2.701 1.201 3.9 1.8 10.201 4.501 21 7.5 32.1 9 24.639 3.017 49.907-2.4 70.513-17.475l11.484 11.484c5.86 5.859 15.352 5.859 21.211 0s5.859-15.352 0-21.211z" fill="#ff9100"/><path d="m415 97c-22.5-22.8-52.5-30.901-81.899-27.301-11.101 1.502-21.9 4.501-32.101 9.002-1.199.599-2.701.899-3.9 1.8-14.099 6.899-27.6 10.499-41.1 10.499s-27.001-3.6-41.1-10.499c-1.199-.901-2.701-1.201-4.2-1.8-10.499-4.801-21.299-7.8-32.4-9.001-24.629-3.016-49.466 2.397-69.93 17.459l-11.467-11.467c-5.859-5.859-15.352-5.859-21.211 0s-5.859 15.352 0 21.211l11.452 11.452c-15.4 20.811-21.02 46.144-17.744 70.845 8.699-6.901 18.6-12.601 29.099-16.5.872-15.68 6.817-31.067 18.35-43.464.436-.348.861-.718 1.265-1.122s.774-.828 1.122-1.264c12.378-11.513 27.487-17.18 43.164-18.05 10.199-.3 20.4 1.199 30.3 4.799 2.999.901 6 2.1 9 3.6 13.218 6.502 26.281 10.798 39.3 12.69v16.111c0 8.399 6.599 15 15 15s15-6.601 15-15v-16.111c13.019-1.892 26.082-6.188 39.3-12.69 3-1.5 6-2.699 8.699-3.6 9.901-3.599 20.402-5.099 30.601-4.799 16.199.899 31.8 6.899 44.399 19.2 12.301 12.599 18.302 28.198 19.2 44.399 10.501 3.9 20.4 9.6 29.101 16.5 3.6-29.399-4.8-59.699-27.3-81.899z" fill="#fdbf00"/><path d="m424.824 108.387 11.484-11.484c5.859-5.859 5.859-15.352 0-21.211s-15.352-5.859-21.211 0l-11.467 11.467c-20.737-15.251-45.844-20.483-70.53-17.46-11.1 1.502-21.899 4.501-32.1 9.002-1.199.599-2.701.899-3.9 1.8-14.099 6.899-27.6 10.499-41.1 10.499v30 30c8.401 0 15-6.601 15-15v-16.111c13.019-1.892 26.082-6.188 39.3-12.69 3-1.5 6-2.699 8.699-3.6 9.901-3.599 20.402-5.099 30.601-4.799 15.678.87 30.786 6.536 43.164 18.05.348.436.718.86 1.122 1.264s.828.774 1.264 1.122c11.513 12.378 17.18 27.485 18.05 43.164 10.501 3.9 20.4 9.6 29.101 16.5 3.016-24.639-2.401-49.907-17.477-70.513z" fill="#ff9100"/></svg>