<svg id="Capa_1" enable-background="new 0 0 497 497" height="512" viewBox="0 0 497 497" width="512" xmlns="http://www.w3.org/2000/svg"><path d="m450.7 280-187.2-224.287v-40.713c0-8.284-6.716-15-15-15s-15 6.716-15 15v40.713l-187.2 224.287c-5.1 6.301-4.201 15.899 2.1 21.301 6.299 5.1 15.599 4.199 21-2.1l18.742-22.478 25.358 69.277 60 151h30l30-15h30l30 15h30l86.957-218.359 17.142 20.559c5.101 6.299 14.702 7.2 21 2.1 6.301-5.401 7.2-15 2.101-21.3z" fill="#ff8e8e"/><path d="m450.7 280-187.2-224.287v-40.713c0-8.284-6.716-15-15-15v482h15l30 15h30l86.957-218.359 17.142 20.559c5.101 6.299 14.702 7.2 21 2.1 6.301-5.401 7.2-15 2.101-21.3z" fill="#ff637b"/><path d="m368.5 346c-24.853 0-45 20.147-45 45v106h60l30-25v-126z" fill="#53433f"/><path d="m128.5 346h-45v124.75l30 26.25h60v-106c0-24.853-20.147-45-45-45z" fill="#725d57"/><path d="m293.5 391v106h-90v-106c0-24.901 20.099-45 45-45s45 20.099 45 45z" fill="#725d57"/><path d="m293.5 391v106h-45v-151c24.901 0 45 20.099 45 45z" fill="#53433f"/><path d="m109.107 170.396-25.607-25.607v-53.789c0-8.291-6.709-15-15-15s-15 6.709-15 15v53.789l-25.605 25.605c-2.814 2.813-4.395 6.63-4.395 10.609v44.997l30 30h30l30-30v-45c0-3.977-1.58-7.791-4.393-10.604z" fill="#ff8e8e"/><path d="m306.4 241 14.7-21.601c3.001-4.799 3.301-10.499.601-15.599-2.701-4.801-7.8-7.8-13.2-7.8h-32.1l-15.3-23.401c-2.999-4.2-7.8-6.299-12.599-6.299s-9.6 2.098-12.599 6.299l-15.303 23.401h-32.1c-5.4 0-10.499 2.999-13.2 7.8-2.701 5.099-2.401 10.8.601 15.599l14.699 21.601-14.7 21.599c-3.001 4.801-3.301 10.501-.601 15.601 2.701 4.799 7.8 7.8 13.2 7.8h32.1l15.3 23.399c2.999 4.2 7.5 6.601 12.599 6.601s9.6-2.401 12.599-6.601l15.303-23.399h32.1c5.4 0 10.499-3.001 13.2-7.8 2.701-5.099 2.401-10.8-.601-15.601z" fill="#f2f2f2"/><path d="m469.107 170.396-25.607-25.607v-53.789c0-8.291-6.709-15-15-15s-15 6.709-15 15v53.789l-25.605 25.605c-2.814 2.813-4.395 6.63-4.395 10.609v44.997l30 30h30l30-30v-45c0-3.977-1.58-7.791-4.393-10.604z" fill="#ff637b"/><path d="m321.099 262.599c3.001 4.801 3.301 10.501.601 15.601-2.701 4.799-7.8 7.8-13.2 7.8h-32.1l-15.3 23.399c-2.999 4.2-7.5 6.601-12.599 6.601v-149.7c4.799 0 9.6 2.098 12.599 6.299l15.3 23.401h32.1c5.4 0 10.499 2.999 13.2 7.8 2.701 5.099 2.401 10.8-.601 15.599l-14.699 21.601z" fill="#e7e7f2"/><path d="m113.5 497h-75c-8.284 0-15-6.716-15-15v-256h90z" fill="#f2f2f2"/><path d="m458.5 497h-75v-271h90v256c0 8.284-6.716 15-15 15z" fill="#e7e7f2"/></svg>