<svg id="Capa_1" enable-background="new 0 0 512.018 512.018" height="512" viewBox="0 0 512.018 512.018" width="512" xmlns="http://www.w3.org/2000/svg"><path d="m87.274 92.635c-42.407 7.383-78.212 42.261-85.639 84.8-4.189 23.965-.293 47.71 11.294 68.657 16.978 30.732 13.916 67.255-8.525 90.312-4.292 4.292-5.581 10.737-3.252 16.348 2.314 5.61 7.793 9.258 13.857 9.258h30c58.022 0 110.395-38.119 128.837-93.388l22.207-126.665c-22.588-37.515-65.215-56.866-108.779-49.322z" fill="#e7e7f2"/><path d="m499.089 246.092c11.587-20.947 15.483-44.692 11.294-68.643-7.427-42.554-43.231-77.432-85.653-84.814-43.433-7.544-86.162 11.807-108.765 49.321l26.191 137.153c21.343 49.746 70.961 82.899 124.853 82.899h30c6.035 0 10.942-4.146 13.286-9.712 2.344-5.552.601-12.51-3.604-16.831-21.518-22.118-24.58-58.641-7.602-89.373z" fill="#cecee6"/><path d="m391.009 226.009v30c0 74.7-60.3 136-135 136s-135-61.3-135-136v-30c0-15.901 2.701-30.901 7.8-45 3.6-10.8 8.699-20.7 15-30l52.2-30h120l52.2 30c6.301 9.3 11.4 19.2 15 30 5.099 14.099 7.8 29.099 7.8 45z" fill="#f2f2f2"/><path d="m391.009 226.009v30c0 74.7-60.3 136-135 136v-271h60l52.2 30c6.301 9.3 11.4 19.2 15 30 5.099 14.099 7.8 29.099 7.8 45z" fill="#e7e7f2"/><circle cx="211.009" cy="91.009" fill="#ff9100" r="60"/><circle cx="301.009" cy="91.009" fill="#ff641a" r="60"/><circle cx="196.009" cy="226.009" fill="#725d57" r="15"/><circle cx="316.009" cy="226.009" fill="#53433f" r="15"/><path d="m368.209 151.009h-52.2c-24.6 0-46.199 11.7-60 30-13.801-18.3-35.4-30-60-30h-52.2c24-36.301 65.4-60 112.2-60 37.2 0 71.1 15 95.4 39.6 6.3 6.299 12 13.2 16.8 20.4z" fill="#fdbf00"/><path d="m368.209 151.009h-52.2c-24.6 0-46.199 11.7-60 30v-90c37.2 0 71.1 15 95.4 39.6 6.3 6.299 12 13.2 16.8 20.4z" fill="#ff9100"/><path d="m256.009.009c-25.201 0-45 27.4-45 61s19.799 60 45 60 45-26.4 45-60-19.799-61-45-61z" fill="#ffda2d"/><path d="m301.009 61.009c0 33.6-19.799 60-45 60v-121c25.201 0 45 27.4 45 61z" fill="#fdbf00"/><path d="m201.514 301.387 3.795 41.121c3.906 21.333 5.706 42.965 5.7 64.598-.002 8.246-6.754 14.903-15 14.903h-30c-8.245 0-15.052-6.654-15-14.899.053-8.449-6.565-15.101-15-15.101h-60c-8.259 0-14.995 6.681-15 14.939-.033 57.928 47.08 105.061 105 105.061h30c22.2 0 43.2-6.901 60-19.2 27.299-18.9 45-50.4 45-85.8 0-21.601 1.8-43.2 5.7-64.501l3.795-41.121c.811-8.791-6.108-16.378-14.937-16.378h-79.117c-8.828 0-15.747 7.587-14.936 16.378z" fill="#e7e7f2"/><path d="m256.009 285.009v207.8c27.299-18.9 45-50.4 45-85.8 0-21.601 1.8-43.2 5.7-64.501l3.795-41.121c.811-8.791-6.108-16.378-14.937-16.378z" fill="#cecee6"/></svg>