<svg id="Capa_1" enable-background="new 0 0 512.008 512.008" height="512" viewBox="0 0 512.008 512.008" width="512" xmlns="http://www.w3.org/2000/svg"><path d="m196.004 60.008h120v120h-120z" fill="#ff637b"/><path d="m256.004 60.008h60v120h-60z" fill="#e63950"/><path d="m60.004 60.008h60v422h-60z" fill="#ff637b"/><path d="m392.004 60.008h60v422h-60z" fill="#e63950"/><path d="m512.004 165.008v30c0 8.399-6.599 15-15 15h-482c-8.401 0-15-6.601-15-15v-30c0-8.401 6.599-15 15-15h211l30 30 30-30h211c8.401 0 15 6.599 15 15z" fill="#ff8e8e"/><path d="m512.004 165.008v30c0 8.399-6.599 15-15 15h-241v-30l30-30h211c8.401 0 15 6.599 15 15z" fill="#ff637b"/><path d="m135.004 512.008h-90c-8.291 0-15-6.709-15-15v-30c0-8.291 6.709-15 15-15h90c8.291 0 15 6.709 15 15v30c0 8.291-6.709 15-15 15z" fill="#725d57"/><path d="m467.004 512.008h-90c-8.291 0-15-6.709-15-15v-30c0-8.291 6.709-15 15-15h90c8.291 0 15 6.709 15 15v30c0 8.291-6.709 15-15 15z" fill="#53433f"/><path d="m286.004 150.008v75c0 8.399-6.599 15-15 15h-30c-8.401 0-15-6.601-15-15v-75z" fill="#725d57"/><path d="m286.004 150.008v75c0 8.399-6.599 15-15 15h-15v-90z" fill="#53433f"/><path d="m504.804 2.108c-4.2-2.701-9.901-2.701-14.399-.601l-15 7.5c-27.601 13.801-58.2 21-89.101 21h-260.6c-30.901 0-61.5-7.2-89.101-21l-15-7.5c-4.499-2.1-10.199-2.1-14.399.601-4.499 2.999-7.2 7.798-7.2 12.9v30c0 24.899 20.099 45 45 45h422c24.901 0 45-20.101 45-45v-30c0-5.102-2.701-9.901-7.2-12.9z" fill="#725d57"/><path d="m512.004 15.008v30c0 24.899-20.1 45-45 45h-211v-60h130.3c30.901 0 61.5-7.2 89.101-21l15-7.5c4.499-2.1 10.199-2.1 14.399.601 4.499 2.998 7.2 7.797 7.2 12.899z" fill="#53433f"/></svg>