<svg id="Capa_1" enable-background="new 0 0 512 512" height="512" viewBox="0 0 512 512" width="512" xmlns="http://www.w3.org/2000/svg"><path d="m406 181c-24.901 0-45 21.099-45 46v-133.4c0-18.6-15-33.6-33.6-33.6-18.9 0-33.4 15-33.4 33.6v-60c0-18.6-15.5-33.6-34.4-33.6-1.199 0-2.401 0-3.6.3-16.8 1.8-30 15.899-30 33.3v60c0-18.6-15-33.6-33.6-33.6-18.9 0-33.4 15-33.4 33.6v91c0-18.6-15.5-33.6-34.4-33.6-18.6 0-33.6 15-33.6 33.6v162.4c0 91.199 73.801 165 165 165s165-73.801 165-165v-150c0-8.401-6.599-16-15-16z" fill="#ffda2d"/><path d="m421 197v150c0 91.199-73.801 165-165 165v-511.7c1.199-.3 2.401-.3 3.6-.3 18.9 0 34.4 15 34.4 33.6v60c0-18.6 14.5-33.6 33.4-33.6 18.6 0 33.6 15 33.6 33.6v133.4c0-24.901 20.099-46 45-46 8.401 0 15 7.599 15 16z" fill="#fdbf00"/><path d="m256 212c-57.9 0-105 47.1-105 105s47.1 105 105 105 105-47.1 105-105-47.1-105-105-105z" fill="#26bfbf"/><path d="m361 317c0 57.9-47.1 105-105 105v-210c57.9 0 105 47.1 105 105z" fill="#1a9ea6"/><path d="m331 317c0 41.4-33.6 75-75 75s-75-33.6-75-75 33.6-75 75-75 75 33.6 75 75z" fill="#f2f2f2"/><path d="m331 317c0 41.4-33.6 75-75 75v-150c41.4 0 75 33.6 75 75z" fill="#e7e7f2"/><path d="m256 272c-24.901 0-45 20.099-45 45 0 24.899 20.099 45 45 45s45-20.101 45-45c0-24.901-20.099-45-45-45z" fill="#26bfbf"/><path d="m301 317c0 24.899-20.099 45-45 45v-90c24.901 0 45 20.099 45 45z" fill="#1a9ea6"/></svg>