<svg id="Capa_1" enable-background="new 0 0 511.966 511.966" height="512" viewBox="0 0 511.966 511.966" width="512" xmlns="http://www.w3.org/2000/svg"><path d="m482.884 225.359-71.4 83.999-155.501 104.402-6 4.198-153.999-90-66.902-102.599 17.401-24.3 209.5 126.3 209.501-126.3z" fill="#57d9d4"/><path d="m482.884 225.359-71.4 83.999-155.501 104.402v-86.401l209.501-126.3z" fill="#26bfbf"/><path d="m465.484 201.059-209.5 156.301-209.5-156.301 106.2-148.801c4.799-6.599 13.799-8.099 20.7-3.9l82.599 54.6 82.599-54.6c6.901-4.199 15.901-2.699 20.7 3.9z" fill="#f2f2f2"/><path d="m465.484 201.059-209.5 156.301v-254.402l82.599-54.6c6.901-4.199 15.901-2.699 20.7 3.9z" fill="#cecee6"/><path d="m300.983 210.959c0 8.399-6.599 15-15 15h-15v75c0 8.399-6.599 15-15 15s-15-6.601-15-15v-75h-15c-8.401 0-15-6.601-15-15 0-8.401 6.599-15 15-15h15v-15c0-8.401 6.599-15 15-15s15 6.599 15 15v15h15c8.401 0 15 6.599 15 15z" fill="#57d9d4"/><path d="m255.983 315.959v-150c8.401 0 15 6.599 15 15v15h15c8.401 0 15 6.599 15 15 0 8.399-6.599 15-15 15h-15v75c0 8.399-6.599 15-15 15z" fill="#26bfbf"/><path d="m505.983 282.958-241 180c-2.699 2.1-5.7 3.001-9 3.001s-6.301-.901-9-3.001l-241-180c-6.601-4.799-7.8-14.099-3.3-20.7l26.398-36.899 217.901 162.599c2.699 2.1 5.7 3.001 9 3.001s6.301-.901 9-3.001l217.901-162.599 26.398 36.899c4.502 6.601 3.303 15.901-3.298 20.7z" fill="#f2f2f2"/><path d="m505.983 282.958-241 180c-2.699 2.1-5.7 3.001-9 3.001v-75c3.3 0 6.301-.901 9-3.001l217.901-162.599 26.398 36.899c4.501 6.601 3.302 15.901-3.299 20.7z" fill="#cecee6"/></svg>