<svg id="Capa_1" enable-background="new 0 0 512 512" height="512" viewBox="0 0 512 512" width="512" xmlns="http://www.w3.org/2000/svg"><path d="m466 301c-41.353 0-75-33.647-75-75l-62.08 103.608 94.702 59.312c33.779-8.145 57.378-38.13 57.378-72.92 0-8.291-6.709-15-15-15z" fill="#3e322e"/><path d="m121 226c0 41.353-33.647 75-75 75-8.291 0-15 6.709-15 15 0 34.79 23.599 64.775 57.378 72.92l92.622-72.92z" fill="#53433f"/><path d="m317.8 331-31.8 92.932-87.9 88.068h-152.1c-8.401 0-15-6.601-15-15v-24.901c0-76.199 59.7-138.7 135.901-141.099z" fill="#cecee6"/><path d="m391 196v41.7c0 72.9-36 140.4-96.599 180.899-2.401 1.5-5.402 2.401-8.401 2.401h-60c-2.999 0-6-.901-8.401-2.401-60.599-40.499-96.599-107.999-96.599-180.899v-41.7z" fill="#725d57"/><path d="m481 472.099v24.901c0 8.399-6.599 15-15 15h-267.9l57.9-88.001 61.8-92.999h27.299c69.6 0 135.901 60.399 135.901 141.099z" fill="#f2f2f2"/><path d="m481 472.099v24.901c0 8.399-6.599 15-15 15h-210v-88.001l61.8-92.999h27.299c69.6 0 135.901 60.399 135.901 141.099z" fill="#e7e7f2"/><path d="m391 196v41.7c0 72.9-36 140.4-96.599 180.899-2.401 1.5-5.402 2.401-8.401 2.401h-30v-225z" fill="#53433f"/><path d="m391 136v60c0 49.2-26.7 94.2-69.6 118.2-3.9 2.1-8.699 2.399-13.2.599-4.2-1.8-7.5-5.7-8.699-10.199-5.099-19.801-22.8-33.6-43.5-33.6s-38.401 13.799-43.5 33.6c-1.199 4.499-4.499 8.399-8.699 10.199s-9 1.501-13.2-.599c-42.9-24-69.6-69-69.6-118.2v-60c0-10.201 1.5-20.4 3.6-30h262.8c2.098 9.6 3.598 19.799 3.598 30z" fill="#fed2a4"/><path d="m391 136v60c0 49.2-26.7 94.2-69.6 118.2-3.9 2.1-8.699 2.399-13.2.599-4.2-1.8-7.5-5.7-8.699-10.199-5.099-19.801-22.8-33.6-43.5-33.6v-165h131.4c2.099 9.6 3.599 19.799 3.599 30z" fill="#ffbd86"/><path d="m286 316c0 8.399-6.599 15-15 15h-30c-8.401 0-15-6.601-15-15 0-8.401 6.599-15 15-15h30c8.401 0 15 6.599 15 15z" fill="#fed2a4"/><path d="m271 331h-15v-30h15c8.401 0 15 6.599 15 15 0 8.399-6.599 15-15 15z" fill="#ffbd86"/><path d="m387.4 106h-262.8c13.801-60 67.2-106 131.4-106s117.599 46 131.4 106z" fill="#725d57"/><path d="m387.4 106h-131.4v-106c64.2 0 117.599 46 131.4 106z" fill="#53433f"/><path d="m416.499 125.499c6 5.7 6 15.3 0 21-5.7 6-15.298 6-20.999 0l-25.801-25.499h-107.398l4.199 4.499c6 5.7 6 15.3 0 21-2.7 3.001-6.6 4.501-10.5 4.501s-7.8-1.5-10.499-4.501l-25.802-25.499h-77.399l-25.801 25.499c-5.7 6-15.298 6-20.999 0-6-5.7-6-15.3 0-21l19.199-19.499-19.198-19.501c-6-5.7-6-15.3 0-21 5.7-5.999 15.298-5.999 20.999 0l25.801 25.501h47.399l25.801-25.501c5.7-5.999 15.298-5.999 20.999 0 6 5.7 6 15.3 0 21l-4.199 4.501h47.399l25.801-25.501c5.7-5.999 15.298-5.999 20.999 0 6 5.7 6 15.3 0 21l-4.199 4.501h47.399l25.801-25.501c5.7-5.999 15.298-5.999 20.999 0 6 5.7 6 15.3 0 21l-19.199 19.501z" fill="#fdbf00"/><path d="m266.499 146.499c-2.699 3.001-6.599 4.501-10.499 4.501v-60h23.699l25.801-25.501c5.7-5.999 15.298-5.999 20.999 0 6 5.7 6 15.3 0 21l-4.198 4.501h47.399l25.801-25.501c5.7-5.999 15.298-5.999 20.999 0 6 5.7 6 15.3 0 21l-19.199 19.501 19.199 19.499c6 5.7 6 15.3 0 21-5.7 6-15.298 6-20.999 0l-25.802-25.499h-107.398l4.199 4.499c6 5.7 6 15.3-.001 21z" fill="#ff9100"/><path d="m316 211h-30c-8.291 0-15-6.709-15-15s6.709-15 15-15h30c8.291 0 15 6.709 15 15s-6.709 15-15 15z" fill="#53433f"/><path d="m226 211h-30c-8.284 0-15-6.716-15-15 0-8.284 6.716-15 15-15h30c8.284 0 15 6.716 15 15 0 8.284-6.716 15-15 15z" fill="#725d57"/></svg>