<svg id="Capa_1" enable-background="new 0 0 512 512" height="512" viewBox="0 0 512 512" width="512" xmlns="http://www.w3.org/2000/svg"><g fill="#ff9100"><path d="m271.146 315c-1.172-8.203 4.526-15.806 12.715-16.992 95.288-13.682 167.139-96.665 167.139-193.008 0-8.291 6.709-15 15-15s15 6.709 15 15c0 111.167-82.91 206.909-192.861 222.715-8.22 1.151-15.804-4.521-16.993-12.715z"/><path d="m271.308 254.971c-1.655-8.115 3.574-16.025 11.704-17.681 62.563-12.759 107.988-68.394 107.988-132.29 0-8.291 6.709-15 15-15s15 6.709 15 15c0 78.105-55.518 146.104-132.012 161.675-8.244 1.673-16.064-3.691-17.68-11.704z"/><path d="m271.85 194.868c-2.754-7.808 1.348-16.377 9.155-19.146 29.897-10.561 49.995-38.979 49.995-70.722 0-8.291 6.709-15 15-15s15 6.709 15 15c0 73.419-78.413 120.206-89.15 89.868z"/></g><path d="m223.861 327.715c-109.951-15.806-192.861-111.548-192.861-222.715 0-8.291 6.709-15 15-15s15 6.709 15 15c0 96.343 71.851 179.326 167.139 193.008 8.188 1.187 13.887 8.789 12.715 16.992-1.191 8.208-8.784 13.864-16.993 12.715z" fill="#fdbf00"/><path d="m223.012 266.675c-76.494-15.571-132.012-83.57-132.012-161.675 0-8.291 6.709-15 15-15s15 6.709 15 15c0 63.896 45.425 119.531 107.988 132.29 8.13 1.655 13.359 9.565 11.704 17.681-1.618 8.024-9.451 13.373-17.68 11.704z" fill="#fdbf00"/><path d="m221.005 204.023c-41.881-14.794-70.005-54.594-70.005-99.023 0-8.291 6.709-15 15-15s15 6.709 15 15c0 31.743 20.098 60.161 49.995 70.723 7.808 2.769 11.909 11.338 9.155 19.146-2.697 7.62-11.078 11.939-19.145 9.154z" fill="#fdbf00"/><path d="m346 60c-8.291 0-15-6.709-15-15v-30c0-8.291 6.709-15 15-15s15 6.709 15 15v30c0 8.291-6.709 15-15 15z" fill="#ff9100"/><path d="m406 60c-8.291 0-15-6.709-15-15v-30c0-8.291 6.709-15 15-15s15 6.709 15 15v30c0 8.291-6.709 15-15 15z" fill="#ff9100"/><path d="m466 60c-8.291 0-15-6.709-15-15v-30c0-8.291 6.709-15 15-15s15 6.709 15 15v30c0 8.291-6.709 15-15 15z" fill="#ff9100"/><path d="m46 60c-8.291 0-15-6.709-15-15v-30c0-8.291 6.709-15 15-15s15 6.709 15 15v30c0 8.291-6.709 15-15 15z" fill="#fdbf00"/><path d="m106 60c-8.291 0-15-6.709-15-15v-30c0-8.291 6.709-15 15-15s15 6.709 15 15v30c0 8.291-6.709 15-15 15z" fill="#fdbf00"/><path d="m166 60c-8.291 0-15-6.709-15-15v-30c0-8.291 6.709-15 15-15s15 6.709 15 15v30c0 8.291-6.709 15-15 15z" fill="#fdbf00"/><path d="m346 422c-24.901 0-45-20.101-45-45v-242c0-24.901-20.099-45-45-45s-45 20.099-45 45v242c0 24.899-20.099 45-45 45s-45 20.099-45 45v30c0 8.399 6.599 15 15 15h240c8.401 0 15-6.601 15-15v-30c0-24.901-20.099-45-45-45z" fill="#ffda2d"/><path d="m391 467v30c0 8.399-6.599 15-15 15h-120v-422c24.901 0 45 20.099 45 45v242c0 24.899 20.099 45 45 45s45 20.099 45 45z" fill="#fdbf00"/></svg>