<svg id="Capa_1" enable-background="new 0 0 512 512" height="512" viewBox="0 0 512 512" width="512" xmlns="http://www.w3.org/2000/svg"><path d="m271 345v60c0 8.399-6.599 15-15 15s-15-6.601-15-15v-60c0-8.401 6.599-15 15-15s15 6.599 15 15z" fill="#725d57"/><path d="m271 345v60c0 8.399-6.599 15-15 15v-90c8.401 0 15 6.599 15 15z" fill="#53433f"/><path d="m372.7 69.6c-6 5.7-15.3 5.7-21.301 0-25.498-25.501-59.399-39.6-95.399-39.6s-69.901 14.099-95.4 39.6c-6 5.7-15.3 5.7-21.301 0-5.7-6-5.7-15.3 0-21.301 31.202-31.199 72.602-48.299 116.701-48.299s85.499 17.1 116.7 48.3c5.701 6 5.701 15.3 0 21.3z" fill="#725d57"/><path d="m372.7 69.6c-6 5.7-15.3 5.7-21.301 0-25.498-25.501-59.399-39.6-95.399-39.6v-30c44.099 0 85.499 17.1 116.7 48.3 5.701 6 5.701 15.3 0 21.3z" fill="#53433f"/><path d="m256 390c-24.901 0-45 21.099-45 46v61c0 8.399 6.599 15 15 15h60c8.401 0 15-6.601 15-15v-61c0-24.901-20.099-46-45-46z" fill="#fdbf00"/><path d="m301 436v61c0 8.399-6.599 15-15 15h-30v-122c24.901 0 45 21.099 45 46z" fill="#ff9100"/><path d="m286 315c0 16.5-13.5 30-30 30s-30-13.5-30-30 13.5-30 30-30 30 13.5 30 30z" fill="#ff8e8e"/><path d="m340.844 292.28c-11.727-11.758-11.693-30.729.015-42.437 11.105-11.105 31.27-11.121 42.437.015 11.537 11.537 11.873 30.535-.015 42.422-11.721 11.721-30.706 11.731-42.437 0z" fill="#ff637b"/><path d="m128.72 80.142c-11.725-11.725-11.731-30.691 0-42.422 11.124-11.124 31.3-11.136 42.437 0 11.727 11.758 11.693 30.729-.015 42.437-11.538 11.536-30.535 11.872-42.422-.015z" fill="#ff8e8e"/><path d="m388.773 252.466c-15.166-6.276-22.629-23.805-16.245-39.199 6.436-15.495 24.122-22.503 39.199-16.23 15.278 6.328 22.559 23.906 16.23 39.199-6.416 15.448-24.09 22.534-39.184 16.23z" fill="#e63950"/><path d="m100.316 132.979c-15.166-6.277-22.629-23.805-16.245-39.199 6.239-15.075 23.6-22.662 39.185-16.23 15.132 6.263 22.657 23.708 16.245 39.199-6.417 15.448-24.091 22.534-39.185 16.23z" fill="#ff637b"/><path d="m340.844 80.142c-11.537-11.537-11.873-30.535.015-42.422 11.125-11.125 31.285-11.136 42.422 0 11.72 11.72 11.731 30.705 0 42.437-11.758 11.726-30.73 11.692-42.437-.015z" fill="#ff637b"/><path d="m128.72 292.28c-11.72-11.72-11.731-30.705 0-42.437 11.09-11.059 31.256-11.166 42.437.015 11.608 11.608 11.81 30.582-.015 42.437-11.538 11.537-30.535 11.873-42.422-.015z" fill="#ff8e8e"/><path d="m175.038 330.454c-11.689-11.689-11.689-30.732 0-42.422 11.124-11.124 31.3-11.137 42.437 0 11.689 11.689 11.689 30.718 0 42.422-11.722 11.722-30.706 11.731-42.437 0z" fill="#ff637b"/><path d="m294.54 330.454c-11.689-11.689-11.689-30.732 0-42.422 11.666-11.666 30.674-11.748 42.422 0 11.689 11.689 11.689 30.732 0 42.422-11.679 11.679-30.721 11.701-42.422 0z" fill="#e63950"/><path d="m372.528 116.733c-6.328-15.293.952-32.871 16.23-39.199 15.35-6.324 32.854.906 39.199 16.23 6.323 15.247-.922 32.851-16.23 39.199-15.038 6.257-32.765-.691-39.199-16.23z" fill="#e63950"/><path d="m84.086 236.235c-6.343-15.283.907-32.865 16.216-39.214 15.075-6.271 32.783.735 39.199 16.23 6.341 15.322-.906 32.851-16.245 39.199-15.661 6.501-33.004-1.274-39.17-16.215z" fill="#ff637b"/><path d="m106 195c-16.538 0-30-13.462-30-30s13.462-30 30-30 30 13.462 30 30-13.462 30-30 30z" fill="#ff8e8e"/><g fill="#ff637b"><path d="m406 195c-16.538 0-30-13.462-30-30s13.462-30 30-30 30 13.462 30 30-13.462 30-30 30z"/><path d="m286 315c0 16.5-13.5 30-30 30v-60c16.5 0 30 13.5 30 30z"/></g></svg>