<svg id="Capa_1" enable-background="new 0 0 512 512" height="512" viewBox="0 0 512 512" width="512" xmlns="http://www.w3.org/2000/svg"><path d="m451 286c0 13.5-1.5 30.599-3.6 45l-51.601 30h-293.699l-37.5-30c-2.1-14.101-3.6-30-3.6-45 0-33.001 5.099-69.6 15.901-105l38.399-30h288.3l31.5 30c10.801 35.4 15.9 72.299 15.9 105z" fill="#ffda2d"/><path d="m451 286c0 13.5-1.5 30.599-3.6 45l-51.601 30h-139.799v-210h147.599l31.5 30c10.802 35.4 15.901 72.299 15.901 105z" fill="#fdbf00"/><path d="m395.799 94.6-31.5 49.2h-215.099l-33.9-48.001c34.501-55.799 84-95.799 140.7-95.799 56.4 0 105.3 39.399 139.799 94.6z" fill="#f2f2f2"/><path d="m364.3 143.8h-108.3v-143.8c56.4 0 105.3 39.399 139.799 94.6z" fill="#e7e7f2"/><path d="m417.1 419.2c-33.6 57.299-90.899 92.8-161.1 92.8-69.901 0-127.2-35.2-160.8-92.201l29.1-49.499h264.9z" fill="#f2f2f2"/><path d="m389.2 370.3 27.9 48.9c-33.6 57.299-90.899 92.8-161.1 92.8v-141.7z" fill="#e7e7f2"/><g fill="#fdbf00"><path d="m435.099 181h-358.198c9.3-30 22.2-60.3 38.399-85.201 6.601-3.299 13.801-4.799 21.301-4.799 17.399 0 32.999 8.399 42.599 22.8 8.101 11.999 27.001 11.999 35.099 0 9.601-14.101 24.901-22.5 41.701-22.8h.601c17.399 0 32.999 8.399 42.599 22.8 8.101 11.999 27.001 11.999 35.099 0 9.601-14.401 25.201-22.8 42.302-22.8 6.899 0 13.2 1.199 19.199 3.6 0 0 .3 0 .3.3 16.201 25.199 29.401 55.199 38.999 86.1z"/><path d="m447.4 331c-5.4 36.599-17.401 68.399-30.3 88.2-9.3-3.6-17.1-10.201-22.8-18.9-8.099-11.7-26.999-11.7-35.099 0-9.6 14.399-25.201 22.8-42.599 22.8-17.1 0-32.701-8.401-42.301-22.8-4.2-6-11.1-9-18.3-8.701-6.301.3-12.599 3.301-16.8 8.701-9.6 14.399-25.201 22.8-42.599 22.8-17.1 0-32.701-8.401-42.301-22.8-8.099-11.7-26.999-11.7-35.099 0-6 9.3-14.399 15.899-24 19.499-14.103-22.5-25.503-53.399-30.602-88.799z"/><circle cx="166" cy="256" r="15"/><path d="m271 256c0 8.399-6.599 15-15 15s-15-6.601-15-15c0-8.401 6.599-15 15-15s15 6.599 15 15z"/></g><circle cx="346" cy="256" fill="#ff9100" r="15"/><path d="m271 256c0 8.399-6.599 15-15 15v-30c8.401 0 15 6.599 15 15z" fill="#ff9100"/><path d="m435.099 181h-179.099v-90h.601c17.399 0 32.999 8.399 42.599 22.8 8.101 11.999 27.001 11.999 35.099 0 9.601-14.401 25.201-22.8 42.302-22.8 6.899 0 13.2 1.199 19.199 3.6 0 0 .3 0 .3.3 16.201 25.199 29.401 55.199 38.999 86.1z" fill="#ff9100"/><path d="m447.4 331c-5.4 36.599-17.401 68.399-30.3 88.2-9.3-3.6-17.1-10.201-22.8-18.9-8.099-11.7-26.999-11.7-35.099 0-9.6 14.399-25.201 22.8-42.599 22.8-17.1 0-32.701-8.401-42.301-22.8-4.2-6-11.1-9-18.3-8.701v-60.599z" fill="#ff9100"/></svg>