<svg id="Capa_1" enable-background="new 0 0 512 512" height="512" viewBox="0 0 512 512" width="512" xmlns="http://www.w3.org/2000/svg"><path d="m512 256c0 24-3.3 47.399-9.6 69.3l-57.9 24.3h-375.5l-59.099-23.701c-6.601-22.2-9.901-45.599-9.901-69.899 0-8.401 6.599-15 15-15h95.099c50.7 0 99.401-19.801 135.401-55.501 2.7-2.999 6.6-4.499 10.5-4.499s7.8 1.5 10.499 4.499c36.001 35.7 83.701 55.501 134.402 55.501h96.099c8.401 0 15 6.599 15 15z" fill="#fdbf00"/><path d="m512 256c0 24-3.3 47.399-9.6 69.3l-57.9 24.3h-188.5v-168.6c3.9 0 7.8 1.5 10.499 4.499 36.001 35.7 83.701 55.501 134.402 55.501h96.099c8.401 0 15 6.599 15 15z" fill="#ff9100"/><path d="m321.099 98.5-52.2-91c-2.698-4.501-7.499-7.5-12.899-7.5s-10.201 2.999-12.9 7.5l-52.2 91c-6.6 11.4-9.9 24.3-9.9 37.5 0 41.4 33.6 75 75 75s75-33.6 75-75c0-13.2-3.6-26.1-9.901-37.5z" fill="#ffda2d"/><path d="m256 211v-211c5.4 0 10.201 2.999 12.9 7.5l52.2 91c6.3 11.4 9.9 24.3 9.9 37.5 0 41.4-33.6 75-75 75z" fill="#fdbf00"/><path d="m295 143.5-26.1-45c-2.699-4.501-7.8-6.901-12.9-6.901s-10.201 2.401-12.9 6.901l-26.1 45c-3.9 6.899-6 14.7-6 22.5 0 24.899 20.099 45 45 45s45-20.101 45-45c0-7.8-2.1-15.601-6-22.5z" fill="#fdbf00"/><path d="m301 166c0 24.899-20.099 45-45 45v-119.401c5.099 0 10.201 2.401 12.9 6.901l26.1 45c3.9 6.899 6 14.7 6 22.5z" fill="#ff9100"/><path d="m491 319.6c-32.401-21.601-75.099-21.601-107.5 0-22.5 14.7-51 14.7-73.5 0-16.5-10.8-35.099-16.201-54-16.201-17.999 0-36.599 5.402-52.5 16.201-22.5 14.7-52 14.7-74.5 0-32.401-21.601-74.099-21.601-106.5 0-3.9 2.699-8.101 4.799-12.599 6.299 2.699 9.901 6 19.2 9.899 28.2 38.4 92.1 130.299 157.901 236.2 157.901s198.1-65.801 236.499-158.2c3.9-9.001 7.202-18.6 9.901-28.5-3.9-1.5-7.801-3.3-11.4-5.7z" fill="#ff637b"/><path d="m502.4 325.3c-2.699 9.901-6 19.499-9.901 28.5-38.399 92.399-130.598 158.2-236.499 158.2v-208.601c18.9 0 37.5 5.402 54 16.201 22.5 14.7 51 14.7 73.5 0 32.401-21.601 75.099-21.601 107.5 0 3.599 2.4 7.5 4.2 11.4 5.7z" fill="#e63950"/></svg>