<svg id="Capa_1" enable-background="new 0 0 512 512" height="512" viewBox="0 0 512 512" width="512" xmlns="http://www.w3.org/2000/svg"><path d="m256 0c-140.7 0-256 115.3-256 256s115.3 256 256 256 256-115.3 256-256-115.3-256-256-256z" fill="#57d9d4"/><path d="m512 256c0 140.7-115.3 256-256 256v-512c140.7 0 256 115.3 256 256z" fill="#26bfbf"/><circle cx="316" cy="106" fill="#fdbf00" r="15"/><path d="m421 301c0 49.499-40.499 90-90 90-8.401 0-15-6.601-15-15 0-8.401 6.599-15 15-15 32.999 0 60-27.001 60-60 0-33.001-27.001-60-60-60s-60 26.999-60 60c0 18.3-5.7 35.4-15 49.799-16.199 24-43.801 40.201-75 40.201-49.501 0-90-40.501-90-90 0-8.401 6.599-15 15-15s15 6.599 15 15c0 32.999 27.001 60 60 60s60-27.001 60-60c0-33.001-27.001-60-60-60-8.401 0-15-6.601-15-15 0-8.401 6.599-15 15-15 16.5 0 30-13.5 30-30s-13.5-30-30-30-30 13.5-30 30c0 8.399-6.599 15-15 15s-15-6.601-15-15c0-33.001 27.001-60 60-60s60 26.999 60 60c0 16.199-6.599 30.599-16.8 41.4 12.599 7.2 23.699 16.8 31.8 29.099 16.199-24.3 43.801-40.499 75-40.499 49.501 0 90 40.499 90 90z" fill="#ffda2d"/><path d="m391 106c0 41.4-33.6 75-75 75-24.6 0-46.199-11.7-60-30-9.3-12.301-15-28.2-15-45 0-8.401 6.599-15 15-15s15 6.599 15 15c0 24.899 20.099 45 45 45s45-20.101 45-45c0-8.401 6.599-15 15-15s15 6.599 15 15z" fill="#ffda2d"/><g fill="#fdbf00"><path d="m256 151v-60c8.401 0 15 6.599 15 15 0 24.899 20.099 45 45 45s45-20.101 45-45c0-8.401 6.599-15 15-15s15 6.599 15 15c0 41.4-33.6 75-75 75-24.6 0-46.199-11.7-60-30z"/><path d="m421 301c0 49.499-40.499 90-90 90-8.401 0-15-6.601-15-15 0-8.401 6.599-15 15-15 32.999 0 60-27.001 60-60 0-33.001-27.001-60-60-60s-60 26.999-60 60c0 18.3-5.7 35.4-15 49.799v-99.3c16.199-24.3 43.801-40.499 75-40.499 49.501 0 90 40.499 90 90z"/></g></svg>