<svg id="Capa_1" enable-background="new 0 0 512 512" height="512" viewBox="0 0 512 512" width="512" xmlns="http://www.w3.org/2000/svg"><path d="m106 190.244v-54.244c0-8.291-6.709-15-15-15s-15 6.709-15 15v54.244c-9.657 11.783-15 26.601-15 41.969v68.787l30 30 30-30v-68.787c0-15.368-5.343-30.185-15-41.969z" fill="#f2f2f2"/><path d="m121 301h-91v-45c0-8.291-6.709-15-15-15s-15 6.709-15 15v45 196c0 8.284 6.716 15 15 15h31l15-31 15 31h45l30-31v-150z" fill="#e7e7f2"/><path d="m436 190.244v-54.244c0-8.291-6.709-15-15-15s-15 6.709-15 15v54.244c-9.657 11.783-15 26.601-15 41.969v68.787l30 30 30-30v-68.787c0-15.368-5.343-30.185-15-41.969z" fill="#e7e7f2"/><path d="m497 241c-8.291 0-15 6.709-15 15v45h-91l-30 30v150l30 31h45l15-31 15 31h31c8.284 0 15-6.716 15-15v-196-45c0-8.291-6.709-15-15-15z" fill="#cecee6"/><path d="m181 241h150v90h-150z" fill="#e7e7f2"/><path d="m256 241h75v90h-75z" fill="#cecee6"/><path d="m391 301v211h-60l-30-31h-90l-30 31h-60v-211z" fill="#f2f2f2"/><path d="m359.2 171.7c-4.201-35.102-24.3-65.7-54.6-84l-33.6-20.259v-52.441c0-8.401-6.599-15-15-15s-15 6.599-15 15v52.441l-33.6 20.259c-30.3 18.3-50.4 48.898-54.6 84-4.799 39.3 9 60 28.2 99.3h150c19.501-40.501 32.999-61.201 28.2-99.3z" fill="#f2f2f2"/><path d="m359.2 171.7c-4.201-35.102-24.3-65.7-54.6-84l-33.6-20.259v-52.441c0-8.401-6.599-15-15-15v61 30 180h75c19.501-40.501 32.999-61.201 28.2-99.3z" fill="#e7e7f2"/><path d="m391 301v211h-60l-30-31h-45v-180z" fill="#e7e7f2"/><g fill="#596c76"><path d="m331 436v76h-150v-76c0-41.4 33.6-75 75-75s75 33.6 75 75z"/><path d="m61 421c8.291 0 15-6.709 15-15v-30c0-8.291-6.709-15-15-15s-15 6.709-15 15v30c0 8.291 6.709 15 15 15z"/><path d="m61 451c8.291 0 15 6.709 15 15v46h-30v-46c0-8.291 6.709-15 15-15z"/></g><path d="m451 421c-8.291 0-15-6.709-15-15v-30c0-8.291 6.709-15 15-15s15 6.709 15 15v30c0 8.291-6.709 15-15 15z" fill="#465a61"/><path d="m451 451c-8.291 0-15 6.709-15 15v46h30v-46c0-8.291-6.709-15-15-15z" fill="#465a61"/><path d="m331 436v76h-75v-151c41.4 0 75 33.6 75 75z" fill="#465a61"/></svg>