<svg id="Capa_1" enable-background="new 0 0 512 512" height="512" viewBox="0 0 512 512" width="512" xmlns="http://www.w3.org/2000/svg"><path d="m396.4 122-35.4 30h-210l-35.4-30c3.3-17.1 5.4-35.501 5.4-53.2v-53.8c0-8.401 6.599-15 15-15h240c8.401 0 15 6.599 15 15v53.8c0 17.699 2.1 36.1 5.4 53.2z" fill="#725d57"/><path d="m361 152h-105v-152h120c8.401 0 15 6.599 15 15v53.8c0 17.699 2.1 36.099 5.4 53.2z" fill="#53433f"/><path d="m420.399 197h-329.399c0-2.401.601-4.501 1.5-6.601 10.8-21.599 18.3-44.7 23.101-68.399h280.8c4.801 23.699 12.301 46.8 23.101 68.399.897 2.1.897 4.2.897 6.601z" fill="#53433f"/><path d="m420.399 197h-164.399v-75h140.4c4.801 23.699 12.301 46.8 23.101 68.399.898 2.1.898 4.2.898 6.601z" fill="#3e322e"/><path d="m75.268 511.619c-8.276-.249-14.795-7.148-14.561-15.439.498-16.743 8.774-31.289 22.72-40.591 5.962-3.97 9.375-10.356 9.375-17.52s-3.413-13.55-9.375-17.52c-14.238-9.492-22.734-25.371-22.734-42.48s8.496-32.988 22.734-42.48c5.962-3.97 9.375-10.356 9.375-17.52s-3.413-13.55-9.375-17.52c-14.238-9.492-22.734-25.371-22.734-42.48s8.496-32.988 22.734-42.48c5.962-3.97 9.375-10.356 9.375-17.52 0-8.291 6.709-15 15-15s15 6.709 15 15c0 17.109-8.496 33.003-22.734 42.48-5.962 3.97-9.375 10.356-9.375 17.52s3.413 13.55 9.375 17.52c14.238 9.492 22.734 25.371 22.734 42.48s-8.496 32.988-22.734 42.48c-5.962 3.97-9.375 10.356-9.375 17.52s3.413 13.55 9.375 17.52c14.238 9.492 22.734 25.371 22.734 42.48s-8.496 32.607-22.734 42.099c-5.757 3.838-9.17 9.99-9.36 16.89-.449 14.613-18.445 15.833-15.44 14.561z" fill="#53433f"/><path d="m390.722 199.93c.601 16.392 8.994 31.479 22.705 40.62 5.962 3.97 9.375 10.356 9.375 17.52s-3.413 13.55-9.375 17.52c-14.238 9.492-22.734 25.371-22.734 42.48s8.496 32.988 22.734 42.48c5.962 3.97 9.375 10.356 9.375 17.52s-3.413 13.55-9.375 17.52c-14.238 9.492-22.734 25.371-22.734 42.48s8.496 32.607 22.734 42.099c5.757 3.838 9.17 9.99 9.36 16.89.249 8.13 6.914 14.561 14.985 14.561h.454c8.276-.249 14.795-7.148 14.561-15.439-.498-16.743-8.774-31.289-22.72-40.591-5.962-3.97-9.375-10.356-9.375-17.52s3.413-13.55 9.375-17.52c14.238-9.492 22.734-25.371 22.734-42.48s-8.496-32.988-22.734-42.48c-5.962-3.97-9.375-10.356-9.375-17.52s3.413-13.55 9.375-17.52c14.238-9.492 22.734-25.371 22.734-42.48s-8.496-32.988-22.734-42.48c-5.493-3.662-8.833-9.39-9.316-15.879.168-.919-.381-1.785-.383-2.71h-30.858c.448.957.752 1.977 1.212 2.929z" fill="#3e322e"/><path d="m481 197c0 8.399-6.599 15-15 15h-420c-8.401 0-15-6.601-15-15 0-8.401 6.599-15 15-15h420c8.401 0 15 6.599 15 15z" fill="#725d57"/><path d="m481 197c0 8.399-6.599 15-15 15h-210v-30h210c8.401 0 15 6.599 15 15z" fill="#53433f"/></svg>