<svg id="Capa_1" enable-background="new 0 0 511.901 511.901" height="512" viewBox="0 0 511.901 511.901" width="512" xmlns="http://www.w3.org/2000/svg"><path d="m450.951 390.901v106c0 8.399-6.599 15-15 15h-165l-30-30v-118.601l30-32.399 45-30h105z" fill="#ff637b"/><path d="m450.951 390.901v106c0 8.399-6.599 15-15 15h-75v-211h60z" fill="#e63950"/><path d="m450.951 285.601v105.3c0 16.5-13.5 30-30 30s-30-13.5-30-30v-45c0-8.401-6.599-15-15-15h-105l-30-30 30-30h165c8.401 0 14.699 6.299 15 14.7z" fill="#ff8e8e"/><path d="m450.951 285.601v105.3c0 16.5-13.5 30-30 30s-30-13.5-30-30v-45c0-8.401-6.599-15-15-15h-15v-60h75c8.401 0 14.699 6.299 15 14.7z" fill="#ff637b"/><path d="m399.95 203.401-26.1-45c-2.699-4.501-7.8-6.901-12.9-6.901s-10.201 2.401-12.9 6.901l-26.1 45c-3.9 6.899-6 14.7-6 22.5 0 24.899 20.099 45 45 45s45-20.101 45-45c.001-7.8-2.1-15.6-6-22.5z" fill="#ffda2d"/><path d="m405.951 225.901c0 24.899-20.099 45-45 45v-119.401c5.099 0 10.201 2.401 12.9 6.901l26.1 45c3.899 6.9 6 14.7 6 22.5z" fill="#fdbf00"/><path d="m204.95 53.401-26.1-46.5c-2.699-4.5-7.8-6.901-12.899-6.901s-10.201 2.401-12.9 6.901l-26.1 46.5c-3.9 6.899-6 14.7-6 22.5 0 24.899 20.099 45 45 45s45-20.101 45-45c0-7.8-2.101-15.6-6.001-22.5z" fill="#ffda2d"/><path d="m210.951 75.901c0 24.899-20.099 45-45 45v-120.901c5.099 0 10.201 2.401 12.9 6.901l26.1 46.5c3.899 6.9 6 14.7 6 22.5z" fill="#fdbf00"/><path d="m270.951 240.901v271h-195c-8.401 0-15-6.601-15-15v-316l45-30h135z" fill="#ff637b"/><path d="m270.951 240.901v271h-105v-361h75z" fill="#e63950"/><path d="m270.951 135.901v105c0 16.5-13.5 30-30 30s-30-13.5-30-30v-45c0-8.401-6.599-15-15-15h-135v-45c0-8.401 6.599-15 15-15h180c8.401 0 15 6.599 15 15z" fill="#ff8e8e"/><path d="m270.951 135.901v105c0 16.5-13.5 30-30 30s-30-13.5-30-30v-45c0-8.401-6.599-15-15-15h-30v-60h90c8.401 0 15 6.599 15 15z" fill="#ff637b"/></svg>