<svg id="Capa_1" enable-background="new 0 0 512 512" height="512" viewBox="0 0 512 512" width="512" xmlns="http://www.w3.org/2000/svg"><g fill="#fdbf00"><path d="m136 481c-8.291 0-15-6.709-15-15s6.709-15 15-15c24.814 0 45-20.186 45-45v-30c0-17.754 6.313-34.951 17.754-48.457 5.347-6.299 14.81-7.09 21.152-1.729 6.313 5.361 7.09 14.824 1.729 21.152-6.856 8.072-10.635 18.385-10.635 29.034v30c0 41.353-33.647 75-75 75z"/><path d="m76 451c-8.291 0-15-6.709-15-15s6.709-15 15-15c24.814 0 45-20.186 45-45v-30c0-19.893 7.705-38.628 21.694-52.764 5.845-5.859 15.322-5.918 21.226-.103 5.874 5.83 5.918 15.337.103 21.226-8.394 8.467-13.023 19.703-13.023 31.641v30c0 41.353-33.647 75-75 75z"/><path d="m15 421c-8.291 0-15-6.709-15-15s6.709-15 15-15c24.814 0 46-20.186 46-45v-30c0-28.945 16.934-55.605 43.154-67.91 7.47-3.53 16.45-.264 19.951 7.207 3.516 7.5.293 16.436-7.207 19.951-15.732 7.383-25.898 23.379-25.898 40.752v30c0 41.353-34.647 75-76 75z"/></g><path d="m376 481c-41.353 0-75-33.647-75-75v-30c0-10.649-3.779-20.962-10.635-29.033-5.361-6.328-4.585-15.791 1.729-21.152 6.357-5.361 15.762-4.57 21.152 1.729 11.441 13.505 17.754 30.702 17.754 48.456v30c0 24.814 20.186 45 45 45 8.291 0 15 6.709 15 15s-6.709 15-15 15z" fill="#ff9100"/><path d="m436 451c-41.353 0-75-33.647-75-75v-30c0-11.938-4.629-23.174-13.022-31.641-5.815-5.889-5.771-15.396.103-21.226 5.903-5.815 15.381-5.757 21.226.103 13.988 14.136 21.693 32.871 21.693 52.764v30c0 24.814 20.186 45 45 45 8.291 0 15 6.709 15 15s-6.709 15-15 15z" fill="#ff9100"/><path d="m497 421c-41.353 0-76-33.647-76-75v-30c0-17.373-10.166-33.369-25.898-40.752-7.5-3.516-10.723-12.451-7.207-19.951 3.501-7.471 12.378-10.737 19.951-7.207 26.22 12.305 43.154 38.965 43.154 67.91v30c0 24.814 21.186 45 46 45 8.291 0 15 6.709 15 15s-6.709 15-15 15z" fill="#ff9100"/><path d="m206.137 191.327c-5.947 0-11.587-3.56-13.931-9.434l-28.989-72.466c-3.076-7.69.674-16.421 8.364-19.497 7.646-3.091 16.421.659 19.497 8.364l28.989 72.466c3.076 7.69-.674 16.421-8.364 19.497-1.816.733-3.706 1.07-5.566 1.07z" fill="#fdbf00"/><path d="m305.863 191.327c-1.86 0-3.75-.337-5.566-1.069-7.69-3.076-11.44-11.807-8.364-19.497l28.989-72.466c3.076-7.72 11.865-11.47 19.497-8.364 7.69 3.076 11.44 11.807 8.364 19.497l-28.989 72.466c-2.344 5.874-7.983 9.433-13.931 9.433z" fill="#ff9100"/><path d="m418.074 247c-3.002-3.9-72.618-96-162.037-96s-159.035 92.1-162.037 96c-3.901 5.4-3.901 12.599 0 17.999 3.002 3.9 72.618 96 162.037 96s159.035-92.1 162.037-96c3.901-5.399 3.901-12.599 0-17.999z" fill="#ffda2d"/><path d="m418.001 265c-3.001 3.9-72.602 96-162.001 96v-210c89.399 0 159 92.1 162.001 96 3.9 5.4 3.9 12.6 0 18z" fill="#fdbf00"/><path d="m166.017 121c-24.82 0-45.01-20.186-45.01-45s20.19-45 45.01-45 45.01 20.186 45.01 45-20.19 45-45.01 45z" fill="#ffda2d"/><path d="m346 121c-24.814 0-45-20.186-45-45s20.186-45 45-45 45 20.186 45 45-20.186 45-45 45z" fill="#fdbf00"/><path d="m166 61c-8.276 0-15 6.724-15 15s6.724 15 15 15 15-6.724 15-15-6.724-15-15-15z" fill="#725d57"/><path d="m346 61c-8.276 0-15 6.724-15 15s6.724 15 15 15 15-6.724 15-15-6.724-15-15-15z" fill="#53433f"/></svg>