<svg id="Capa_1" enable-background="new 0 0 512 512" height="512" viewBox="0 0 512 512" width="512" xmlns="http://www.w3.org/2000/svg"><path d="m391 250.399v-8.399c0-96.301-49.799-191.6-126.899-239.601-2.701-1.8-5.4-2.399-8.101-2.399s-5.4.599-8.101 2.399c-77.1 48.001-126.899 143.3-126.899 239.601v8.699c-72.001 45-121 125.1-121 216.301v7.8c.3 5.999 3.6 11.1 9 13.499 79.2 35.7 175.6 28.801 246.7-12.599 0 0 .3 0 .3.3 41.1 23.399 88.299 36 136 36 38.699 0 76.199-8.101 111-23.701 5.4-2.399 8.699-7.5 9-13.499v-7.8c0-87.9-46.901-170.101-121-216.601zm-271 171.601c-7.8 0-15.601-.601-23.401-1.5 8.401-28.5 25.001-53.701 46-73.2 9.6 23.099 22.5 44.7 38.401 64.199-18.9 6.901-40.3 10.501-61 10.501zm136-61.201c-14.099-16.199-25.499-33.6-32.999-54-.3-.3-.3-.899-.3-1.199 6-2.1 26.1-3.6 33.3-3.6 8.699 0 26.1 1.5 33.6 3.6-12.901 31.499-19.8 36.599-33.601 55.199zm0-148.799h-.601c-14.7 0-28.799 1.199-42.599 3.6 5.099-34.501 19.799-68.601 43.2-94.701 23.401 26.1 38.101 60.2 42.9 94.701-14.099-2.401-28.501-3.6-42.9-3.6zm75 199.499c16.199-19.499 29.099-41.1 38.401-64.199 21.299 20.099 37.599 45.298 46 73.2-27.902 3.6-57.701.599-84.401-9.001z" fill="#ffda2d"/><path d="m391 250.399v-8.399c0-96.301-49.799-191.6-126.899-239.601-2.701-1.8-5.4-2.399-8.101-2.399v120.899c23.401 26.1 38.101 60.2 42.9 94.701-14.099-2.401-28.5-3.6-42.9-3.6v90c8.699 0 26.1 1.5 33.6 3.6-12.9 31.5-19.799 36.599-33.6 55.199v115.201c41.1 23.399 88.299 36 136 36 38.699 0 76.199-8.101 111-23.701 5.4-2.399 8.699-7.5 9-13.499v-7.8c0-87.9-46.901-170.101-121-216.601zm-60 161.1c16.199-19.499 29.099-41.1 38.401-64.199 21.299 20.099 37.599 45.298 46 73.2-27.902 3.6-57.701.599-84.401-9.001z" fill="#fdbf00"/><path d="m482 464.599c-62.701 25.201-136.901 22.5-197.8-7.5 9-6.599 17.401-13.801 25.201-21.899 25.799 11.1 54.099 16.8 82.599 16.8 15.3 0 30.3-1.5 45-4.801 7.8-1.8 12.9-9.6 11.4-17.399-8.699-44.701-33.4-84.3-68.2-112.8 3.3-10.501 5.7-21.301 7.5-32.401 57.3 41.401 93.399 108.3 94.3 180z" fill="#ff9100"/><path d="m234.101 381.799c-7.8 6.301-16.201 12.001-24.901 16.8-17.999-21-32.401-45-42.299-70.8 8.399-5.099 17.399-9.901 26.999-13.5 3.001 8.101 6.3 15.901 10.201 23.701 8.098 15.899 17.999 30.599 30 43.799z" fill="#fdbf00"/><path d="m361 242c0 82.5-41.7 155.099-105 198.3-38.401 26.4-85.901 41.7-136 41.7-31.199 0-61.5-6-90-17.401 1.5-123.9 103.9-222.599 225.399-222.599h.3.3c14.7.599 30 1.8 44.7 4.799 0 10.201-1.199 20.099-2.999 29.7-13.8-2.999-27.601-4.499-41.7-4.499h-.3c-90.899 0-174.399 65.099-192.1 157.8-1.5 7.798 3.6 15.599 11.4 17.399 14.7 3.301 29.7 4.801 45 4.801 50.099 0 98.8-18.3 136-50.101 45-37.2 75-93.899 75-159.899 0-54.6-21.301-111.801-64.501-153.8-2.999-2.701-6.899-4.2-10.499-4.2s-7.5 1.5-10.499 4.2c-36.601 35.1-59.101 83.899-63.302 134.6-10.499 3.3-20.999 7.2-31.199 11.7 2.401-80.101 42.9-158.601 105-201.501 64.2 44.101 105 126.201 105 209.001z" fill="#fdbf00"/><g fill="#ff9100"><path d="m297.7 276.499c-13.8-2.999-27.601-4.499-41.7-4.499v-30c14.7.599 30 1.8 44.7 4.799 0 10.201-1.2 20.1-3 29.7z"/><path d="m361 242c0 82.5-41.7 155.099-105 198.3v-38.401c45-37.2 75-93.899 75-159.899 0-54.6-21.301-111.801-64.501-153.8-2.999-2.701-6.899-4.2-10.499-4.2v-51c64.2 44.1 105 126.2 105 209z"/></g></svg>