<svg id="Capa_1" enable-background="new 0 0 512 512" height="512" viewBox="0 0 512 512" width="512" xmlns="http://www.w3.org/2000/svg"><path d="m446.499 206.499c-16.199 16.5-25.499 39-25.499 61.8v69.901c0 91.8-70.499 173.5-165 173.8h-.3c-92.101 0-164.7-76.3-164.7-166v-77.701c0-22.8-9.3-45.3-25.499-61.8-4.501-4.2-5.7-10.499-3.301-16.199 2.4-5.7 7.8-9.3 13.8-9.3h30c10.8 0 20.7 2.399 30 6.599v-97.599c0-16.5 13.5-30 30-30s30 13.5 30 30v106c0 8.399 6.599 15 15 15s15-6.601 15-15c0 0 0-163.001 0-166 0-16.5 13.5-30 30-30s29.7 13.2 30 29.7v166.3c0 8.399 6.599 15 15 15s15-6.601 15-15v-106c0-16.5 13.5-30 30-30s30 13.5 30 30v97.599c9.3-4.2 19.2-6.599 30-6.599h30c6 0 11.4 3.6 13.801 9.3 2.398 5.7 1.199 11.999-3.302 16.199z" fill="#ffda2d"/><path d="m446.499 206.499c-16.199 16.5-25.499 39-25.499 61.8v69.901c0 91.8-70.499 173.5-165 173.8v-512c16.5 0 29.7 13.2 30 29.7v166.3c0 8.399 6.599 15 15 15s15-6.601 15-15v-106c0-16.5 13.5-30 30-30s30 13.5 30 30v97.599c9.3-4.2 19.2-6.599 30-6.599h30c6 0 11.4 3.6 13.801 9.3 2.398 5.7 1.199 11.999-3.302 16.199z" fill="#fdbf00"/><path d="m358.599 307.599c-2.1-2.699-45.598-66.599-102.599-66.599s-100.499 63.9-102.599 66.599c-3.301 5.101-3.301 11.7 0 16.8 2.1 2.701 45.598 66.601 102.599 66.601s100.499-63.9 102.599-66.601c3.302-5.099 3.302-11.699 0-16.8z" fill="#f2f2f2"/><path d="m358.599 324.399c-2.1 2.701-45.598 66.601-102.599 66.601v-150c57.001 0 100.499 63.9 102.599 66.599 3.302 5.101 3.302 11.701 0 16.8z" fill="#e7e7f2"/><path d="m271 316c0 8.399-6.599 15-15 15s-15-6.601-15-15c0-8.401 6.599-15 15-15s15 6.599 15 15z" fill="#57d9d4"/><path d="m271 316c0 8.399-6.599 15-15 15v-30c8.401 0 15 6.599 15 15z" fill="#26bfbf"/></svg>