<svg id="Capa_1" enable-background="new 0 0 512 512" height="512" viewBox="0 0 512 512" width="512" xmlns="http://www.w3.org/2000/svg"><circle cx="166" cy="181" fill="#ff637b" r="15"/><circle cx="346" cy="181" fill="#e63950" r="15"/><circle cx="166" cy="331" fill="#ff637b" r="15"/><circle cx="346" cy="331" fill="#e63950" r="15"/><path d="m437 376h-136v-75h150c8.401 0 15-6.601 15-15v-198.701c0-22.8 9.3-45.3 25.499-61.8 4.501-4.2 5.7-10.499 3.301-16.199-2.4-5.7-7.8-9.3-13.8-9.3h-30c-41.4 0-75 33.6-75 75v136h-75v-150c0-8.401-6.599-15-15-15h-198.701c-22.798 0-45.298-9.3-61.8-25.501-4.198-4.499-10.499-5.7-16.199-3.3s-9.3 7.801-9.3 13.801v30c0 41.4 33.6 75 75 75h136v75h-150c-8.401 0-15 6.599-15 15v198.699c0 22.8-9.3 45.3-25.499 61.8-4.501 4.2-5.7 10.501-3.301 16.201 2.4 5.7 7.8 9.3 13.8 9.3h30c41.4 0 75-33.6 75-75v-136h75v150c0 8.399 6.599 15 15 15h198.701c22.798 0 45.298 9.3 61.8 25.499 4.199 4.501 10.8 5.7 16.199 3.3 5.7-2.399 9.3-7.799 9.3-13.799v-30c0-41.4-33.6-75-75-75z" fill="#ff637b"/><path d="m512 451v30c0 6-3.6 11.4-9.3 13.799-5.4 2.401-12.001 1.201-16.199-3.3-16.502-16.199-39.002-25.499-61.8-25.499h-168.701v-420h30c8.401 0 15 6.599 15 15v150h75v-136c0-41.4 33.6-75 75-75h30c6 0 11.4 3.6 13.801 9.3 2.399 5.7 1.199 11.999-3.301 16.199-16.199 16.5-25.499 39-25.499 61.8v198.701c0 8.399-6.599 15-15 15h-150.001v75h136c41.4 0 75 33.6 75 75z" fill="#e63950"/></svg>