<svg id="Capa_1" enable-background="new 0 0 512 512" height="512" viewBox="0 0 512 512" width="512" xmlns="http://www.w3.org/2000/svg"><path d="m317.199 151-61.199 87.599-75 107.401h-60v-120c0-41.4 33.6-75 75-75z" fill="#ff9100"/><path d="m317.199 151-61.199 87.599v-87.599z" fill="#ff637b"/><path d="m391 226v120h-210v-90c0-4.801 2.1-9.3 6-12.001l69-49.2 61.199-43.799c13.5.3 26.1 3.9 36.901 10.499 22.2 12.9 36.9 36.9 36.9 64.501z" fill="#fdbf00"/><path d="m391 346h-135v-151.201l61.199-43.799c13.5.3 26.1 3.9 36.901 10.499 22.2 12.9 36.9 36.9 36.9 64.501z" fill="#ff9100"/><path d="m316 361c-8.291 0-15-6.709-15-15v-90c0-8.291 6.709-15 15-15s15 6.709 15 15v90c0 8.291-6.709 15-15 15z" fill="#ff641a"/><path d="m316 30h-15v-15c0-8.401-6.599-15-15-15h-60c-8.401 0-15 6.599-15 15v15h-15c-8.401 0-15 6.599-15 15v60c0 41.4 33.6 76 75 76s75-34.6 75-76v-60c0-8.401-6.599-15-15-15z" fill="#ffda2d"/><path d="m256 181v-181h30c8.401 0 15 6.599 15 15v15h15c8.401 0 15 6.599 15 15v60c0 41.4-33.6 76-75 76z" fill="#fdbf00"/><path d="m451 391c0 16.5-6.599 31.5-17.701 42.299-10.799 11.1-25.799 17.701-42.299 17.701h-270c-32.999 0-60-27.001-60-60 0-16.5 6.599-31.5 17.701-42.301 10.799-11.1 25.799-17.699 42.299-17.699h270c32.999 0 60 26.999 60 60z" fill="#ffda2d"/><path d="m451 391c0 16.5-6.599 31.5-17.701 42.299-10.799 11.1-25.799 17.701-42.299 17.701h-135v-120h135c32.999 0 60 26.999 60 60z" fill="#fdbf00"/><path d="m448.9 395.799-6.301-3.3c-4.199-2.1-9-2.1-13.198 0l-6.301 3.3c-20.4 10.201-36.3 25.8-47.1 44.401-10.8-18.602-26.7-34.2-47.1-44.401l-6.301-3.3c-4.199-2.1-9-2.1-13.198 0l-6.301 3.3c-20.4 10.201-36 26.1-46.8 45 0 0 0-.3-.3-.3-10.8-18.9-26.4-34.499-47.1-44.7l-6.301-3.3c-4.199-2.1-9-2.1-13.198 0l-6.301 3.3c-20.7 10.201-36.601 26.1-47.401 45-10.8-18.9-26.4-34.799-46.8-45l-6.301-3.3c-4.199-2.1-9-2.1-13.198 0l-6.301 3.3c-38.4 19.201-63.099 58.6-63.099 101.201 0 8.399 6.599 15 15 15h482c8.401 0 15-6.601 15-15 0-42.601-24.699-82-63.1-101.201z" fill="#ff637b"/><path d="m512 497c0 8.399-6.599 15-15 15h-241v-71.501c.3 0 .3.3.3.3 10.8-18.9 26.4-34.799 46.8-45l6.301-3.3c4.199-2.1 9-2.1 13.198 0l6.301 3.3c20.4 10.201 36.3 25.8 47.1 44.401 10.8-18.602 26.7-34.2 47.1-44.401l6.301-3.3c4.199-2.1 9-2.1 13.198 0l6.301 3.3c38.401 19.201 63.1 58.6 63.1 101.201z" fill="#e63950"/></svg>