<svg id="Capa_1" enable-background="new 0 0 512 512" height="512" viewBox="0 0 512 512" width="512" xmlns="http://www.w3.org/2000/svg"><path d="m271 15v91c0 8.399-6.599 15-15 15s-15-6.601-15-15v-91c0-8.401 6.599-15 15-15s15 6.599 15 15z" fill="#596c76"/><path d="m256 121v-121c8.401 0 15 6.599 15 15v91c0 8.399-6.599 15-15 15z" fill="#465a61"/><path d="m331 106v60h-150v-60c0-8.401 6.599-15 15-15h120c8.401 0 15 6.599 15 15z" fill="#ffda2d"/><path d="m271 467v30c0 8.399-6.599 15-15 15s-15-6.601-15-15v-30c0-8.401 6.599-16 15-16s15 7.599 15 16z" fill="#fdbf00"/><path d="m301 451v46c0 8.291 6.709 15 15 15s15-6.709 15-15v-15z" fill="#ff9100"/><path d="m181 482v15c0 8.291 6.709 15 15 15s15-6.709 15-15v-46z" fill="#fdbf00"/><path d="m271 467v30c0 8.399-6.599 15-15 15v-61c8.401 0 15 7.599 15 16z" fill="#ff9100"/><path d="m181 391h150v91h-150z" fill="#ffda2d"/><path d="m256 391h75v91h-75z" fill="#fdbf00"/><path d="m331 166h-75v-75h60c8.401 0 15 6.599 15 15z" fill="#fdbf00"/><path d="m196 406c-33.084 0-60-26.916-60-60v-120c0-33.084 26.916-60 60-60h120c33.084 0 60 26.916 60 60v120c0 33.084-26.916 60-60 60z" fill="#ff8e8e"/><path d="m256 406v-240h60c33.084 0 60 26.916 60 60v120c0 33.084-26.916 60-60 60z" fill="#ff637b"/><path d="m316 151h-120c-41.4 0-75 33.6-75 75v120c0 41.4 33.6 75 75 75h120c41.4 0 75-33.6 75-75v-120c0-41.4-33.6-75-75-75zm-105 180v-30h150v30zm-30-90v30h-30v-30zm30 0h150v30h-150zm-60 60h30v30h-30zm207.441-90h-147.441v-30h105c19.636 0 36.278 12.504 42.441 30zm-177.441-27.44v27.44h-27.441c4.511-12.806 14.635-22.93 27.441-27.44zm-27.44 177.44h27.44v27.44c-12.806-4.51-22.93-14.635-27.44-27.44zm162.44 30h-105v-30h147.44c-6.162 17.496-22.804 30-42.44 30z" fill="#ff637b"/><path d="m316 151h-60v30h45v30h-45v30h45v30h-45v30h45v30h-45v30h45v30h-45v30h60c41.4 0 75-33.6 75-75v-120c0-41.4-33.6-75-75-75zm15 32.56c12.806 4.51 22.93 14.635 27.441 27.44h-27.441zm0 57.44h30v30h-30zm0 60h30v30h-30zm0 87.44v-27.44h27.44c-4.51 12.805-14.634 22.93-27.44 27.44z" fill="#e63950"/></svg>