<svg id="Capa_1" enable-background="new 0 0 512 512" height="512" viewBox="0 0 512 512" width="512" xmlns="http://www.w3.org/2000/svg"><path d="m331 263.2v22.8h-150v-22.8c0-42.001 8.699-82.8 25.499-120.901h99.001c16.801 38.1 25.5 78.9 25.5 120.901z" fill="#ff637b"/><path d="m331 263.2v22.8h-75v-143.701h49.501c16.8 38.1 25.499 78.9 25.499 120.901z" fill="#e63950"/><path d="m129.291 479.418c-7.412-3.706-10.415-12.715-6.709-20.127 2.67-3.004 26.626-68.291 103.418-68.291 8.291 0 15 6.709 15 15s-6.709 15-15 15c-57.325 0-73.936 48.688-76.582 51.709-3.691 7.361-12.647 10.423-20.127 6.709z" fill="#ffda2d"/><path d="m362.582 472.709c-2.628-3-19.293-51.709-76.582-51.709-8.291 0-15-6.709-15-15s6.709-15 15-15c76.834 0 100.75 65.289 103.418 68.291 3.706 7.412.703 16.421-6.709 20.127-7.487 3.718-16.439.646-20.127-6.709z" fill="#fdbf00"/><path d="m328.299 505.699c-2.999 3.9-7.5 6.301-12.299 6.301h-120c-4.799 0-9.3-2.401-12.299-6.301-2.701-3.9-3.602-9-1.8-13.5l30-91h88.198l30 91c1.802 4.501.901 9.6-1.8 13.5z" fill="#fdbf00"/><path d="m330.099 492.199c1.802 4.501.901 9.6-1.8 13.5-2.999 3.9-7.5 6.301-12.299 6.301h-60v-110.801h44.099z" fill="#ff9100"/><path d="m512 286c0 74.399-61.601 135-136 135h-240c-74.399 0-136-60.601-136-135 0-8.401 6.599-15 15-15h27.9l34.001 30h346.8l44.7-30h28.599c8.401 0 15 6.599 15 15z" fill="#ff9100"/><path d="m512 286c0 74.399-61.601 135-136 135h-120v-120h167.701l44.7-30h28.599c8.401 0 15 6.599 15 15z" fill="#ff641a"/><path d="m42.9 271c35.4 48.9 90.399 82.2 153.1 90h121.8c60.901-7.5 114.901-40.8 150.601-90z" fill="#fdbf00"/><path d="m468.401 271c-35.7 49.2-89.7 82.5-150.601 90h-61.8v-90z" fill="#ff9100"/><path d="m256 271c-41.4 0-75 33.6-75 75s33.6 75 75 75 75-33.6 75-75-33.6-75-75-75z" fill="#ffda2d"/><path d="m226 241h-30c-41.353 0-75-33.647-75-75 0-8.291 6.709-15 15-15s15 6.709 15 15c0 24.814 20.186 45 45 45h30c8.291 0 15 6.709 15 15s-6.709 15-15 15z" fill="#ffda2d"/><path d="m316 241h-30c-8.291 0-15-6.709-15-15s6.709-15 15-15h30c24.814 0 45-20.186 45-45 0-8.291 6.709-15 15-15s15 6.709 15 15c0 41.353-33.647 75-75 75z" fill="#fdbf00"/><path d="m330.099 19.799-23.099 71.201-24.9 30h-52.8l-24.3-30-23.099-71.201c-1.802-4.499-.901-9.6 1.8-13.5 2.999-3.9 7.5-6.299 12.299-6.299h120c4.799 0 9.3 2.399 12.299 6.299 2.701 3.9 3.602 9.001 1.8 13.5z" fill="#fdbf00"/><path d="m282.1 121h-26.1v-121h60c4.799 0 9.3 2.399 12.299 6.299 2.701 3.9 3.602 9.001 1.8 13.5l-23.099 71.201z" fill="#ff9100"/><path d="m331 346c0 41.4-33.6 75-75 75v-150c41.4 0 75 33.6 75 75z" fill="#fdbf00"/><path d="m316 121c0 32.999-27.001 60-60 60s-60-27.001-60-60c0-11.1 3.9-21 9-30h102c5.1 9 9 18.9 9 30z" fill="#fed2a4"/><path d="m316 121c0 32.999-27.001 60-60 60v-90h51c5.1 9 9 18.9 9 30z" fill="#ffbd86"/></svg>