<svg id="Capa_1" enable-background="new 0 0 512 512" height="512" viewBox="0 0 512 512" width="512" xmlns="http://www.w3.org/2000/svg"><path d="m166 150h-90c-24.814 0-45-20.186-45-45 0-19.556 12.539-36.24 30-42.437v-2.563c0-33.091 26.909-60 60-60s60 26.909 60 60v2.563c17.461 6.196 30 22.881 30 42.437 0 24.814-20.186 45-45 45z" fill="#f2f2f2"/><path d="m436 150h-90c-24.814 0-45-20.186-45-45 0-19.556 12.539-36.24 30-42.437v-2.563c0-33.091 26.909-60 60-60s60 26.909 60 60v2.563c17.461 6.196 30 22.881 30 42.437 0 24.814-20.186 45-45 45z" fill="#e7e7f2"/><path d="m331 105v122c0 8.399-6.599 15-15 15h-120c-8.401 0-15-6.601-15-15v-122c0-41.4 33.6-75 75-75s75 33.6 75 75z" fill="#ffda2d"/><path d="m316 242h-60v-212c41.4 0 75 33.6 75 75v122c0 8.399-6.599 15-15 15z" fill="#fdbf00"/><path d="m361 227v75h-210v-75c0-8.401 6.599-15 15-15h180c8.401 0 15 6.599 15 15z" fill="#8cf2f2"/><path d="m361 302h-105v-90h90c8.401 0 15 6.599 15 15z" fill="#57d9d4"/><path d="m391 287v75h-270v-75c0-8.401 6.599-15 15-15h240c8.401 0 15 6.599 15 15z" fill="#57d9d4"/><path d="m391 362h-135v-90h120c8.401 0 15 6.599 15 15z" fill="#26bfbf"/><path d="m421 347v75h-330v-75c0-8.401 6.599-15 15-15h300c8.401 0 15 6.599 15 15z" fill="#8cf2f2"/><path d="m421 422h-165v-90h150c8.401 0 15 6.599 15 15z" fill="#57d9d4"/><path d="m451 407v75h-390v-75c0-8.401 6.599-15 15-15h360c8.401 0 15 6.599 15 15z" fill="#57d9d4"/><path d="m451 407v75h-195v-90h180c8.401 0 15 6.599 15 15z" fill="#26bfbf"/><path d="m466 452h-420c-8.401 0-15 6.599-15 15v30c0 8.399 6.599 15 15 15h420c8.401 0 15-6.601 15-15v-30c0-8.401-6.599-15-15-15z" fill="#8cf2f2"/><path d="m481 467v30c0 8.399-6.599 15-15 15h-210v-60h210c8.401 0 15 6.599 15 15z" fill="#57d9d4"/></svg>