<svg id="Capa_1" enable-background="new 0 0 512 512" height="512" viewBox="0 0 512 512" width="512" xmlns="http://www.w3.org/2000/svg"><path d="m376 16c-52.5 0-97.8 30.599-120 74.399-22.2-43.8-67.5-74.399-120-74.399-74.399 0-136 60.599-136 135v330c0 8.399 6.599 15 15 15h482c8.401 0 15-6.601 15-15v-330c0-74.401-61.601-135-136-135z" fill="#f2f2f2"/><g fill="#e7e7f2"><path d="m512 151v330c0 8.399-6.599 15-15 15h-241v-405.601c22.2-43.8 67.5-74.399 120-74.399 74.399 0 136 60.599 136 135z"/><path d="m166 136h-15v-15c0-8.291-6.709-15-15-15s-15 6.709-15 15v15h-15c-8.291 0-15 6.709-15 15s6.709 15 15 15h15v75c0 8.291 6.709 15 15 15s15-6.709 15-15v-75h15c8.291 0 15-6.709 15-15s-6.709-15-15-15z"/><circle cx="76" cy="301" r="15"/><circle cx="196" cy="421" r="15"/><path d="m196 316h-60c-8.291 0-15-6.709-15-15s6.709-15 15-15h60c8.291 0 15 6.709 15 15s-6.709 15-15 15z"/><path d="m196 376h-120c-8.291 0-15-6.709-15-15s6.709-15 15-15h120c8.291 0 15 6.709 15 15s-6.709 15-15 15z"/><path d="m136 436h-60c-8.291 0-15-6.709-15-15s6.709-15 15-15h60c8.291 0 15 6.709 15 15s-6.709 15-15 15z"/></g><path d="m406 136h-15v-15c0-8.291-6.709-15-15-15s-15 6.709-15 15v15h-15c-8.291 0-15 6.709-15 15s6.709 15 15 15h15v75c0 8.291 6.709 15 15 15s15-6.709 15-15v-75h15c8.291 0 15-6.709 15-15s-6.709-15-15-15z" fill="#cecee6"/><circle cx="436" cy="301" fill="#cecee6" r="15"/><circle cx="316" cy="421" fill="#cecee6" r="15"/><path d="m376 316h-60c-8.291 0-15-6.709-15-15s6.709-15 15-15h60c8.291 0 15 6.709 15 15s-6.709 15-15 15z" fill="#cecee6"/><path d="m436 376h-120c-8.291 0-15-6.709-15-15s6.709-15 15-15h120c8.291 0 15 6.709 15 15s-6.709 15-15 15z" fill="#cecee6"/><path d="m436 436h-60c-8.291 0-15-6.709-15-15s6.709-15 15-15h60c8.291 0 15 6.709 15 15s-6.709 15-15 15z" fill="#cecee6"/></svg>