<svg height="512pt" viewBox="0 0 512 512" width="512pt" xmlns="http://www.w3.org/2000/svg"><path d="m497.558594 256c0 133.339844-108.039063 241.460938-241.359375 241.570312h-.199219c-133.421875 0-241.570312-108.160156-241.570312-241.570312s108.148437-241.558594 241.570312-241.558594h.199219c133.320312.109375 241.359375 108.21875 241.359375 241.558594zm0 0" fill="#fff"/><path d="m497.558594 256c0 133.339844-108.039063 241.460938-241.359375 241.570312v-483.128906c133.320312.109375 241.359375 108.21875 241.359375 241.558594zm0 0" fill="#fff4f4"/><path d="m343.460938 237.160156-10 50.339844 10 50.339844v54.28125c0 13.339844-10.851563 24.1875-24.191407 24.1875h-124.550781c-13.339844 0-24.1875-10.847656-24.1875-24.1875v-54.28125l10-50.339844-10-50.339844v-33.011718c0-22.097657 13.898438-42.179688 34.589844-49.949219l.179687-.058594c3.238281-1.21875 5.558594-4.5625 5.558594-8.101563v-19.570312l45.140625-20 .199219.082031 46.941406 19.917969v19.570312c0 3.539063 2.308594 6.882813 5.621094 8.121094l.109375.039063c20.6875 7.769531 34.597656 27.851562 34.589844 49.949219zm0 0" fill="#f3e2dd"/><path d="m343.460938 237.160156-10 50.339844 10 50.339844v54.28125c0 13.339844-10.851563 24.1875-24.191407 24.1875h-63.070312v-309.757813l46.941406 19.917969v19.570312c0 3.539063 2.308594 6.882813 5.621094 8.121094l.109375.039063c20.6875 7.769531 34.597656 27.851562 34.589844 49.949219zm0 0" fill="#d2bfba"/><path d="m303.140625 96.730469v29.738281h-92.28125v-29.738281c0-13.339844 10.851563-24.199219 24.191406-24.199219h43.898438c13.332031 0 24.191406 10.859375 24.191406 24.199219zm0 0" fill="#7a8388"/><path d="m303.140625 126.46875h-46.941406v-53.9375h22.75c13.332031 0 24.191406 10.859375 24.191406 24.199219zm0 0" fill="#535f64"/><path d="m170.53125 237.160156h172.929688v100.679688h-172.929688zm0 0" fill="#ffbc1d"/><path d="m256.199219 237.160156h87.261719v100.679688h-87.261719zm0 0" fill="#ff7421"/><path d="m437.019531 74.980469c-48.308593-48.300781-112.507812-74.9296878-180.820312-74.980469h-.199219c-68.378906 0-132.671875 26.628906-181.019531 74.980469-48.351563 48.347656-74.980469 112.640625-74.980469 181.019531s26.628906 132.671875 74.980469 181.019531c48.347656 48.351563 112.640625 74.980469 181.019531 74.980469h.199219c68.3125-.050781 132.511719-26.679688 180.820312-74.980469 48.351563-48.347656 74.980469-112.640625 74.980469-181.019531s-26.628906-132.671875-74.980469-181.019531zm-180.820312 407.019531h-.199219c-60.371094 0-117.121094-23.511719-159.808594-66.191406-42.691406-42.6875-66.191406-99.4375-66.191406-159.808594 0-56.679688 20.71875-110.171875 58.578125-151.828125l319.242187 319.238281c-41.601562 37.828125-95.011718 58.539063-151.621093 58.589844zm172.472656-80.160156-172.472656-172.46875-146.039063-146.042969c40.738282-34.519531 91.839844-53.328125 145.839844-53.328125h.199219c60.289062.050781 116.972656 23.558594 159.601562 66.199219 42.6875 42.679687 66.199219 99.441406 66.199219 159.800781 0 54-18.808594 105.101562-53.328125 145.839844zm0 0" fill="#ff637d"/><path d="m512 256c0 68.378906-26.628906 132.671875-74.980469 181.019531-48.308593 48.300781-112.507812 74.929688-180.820312 74.980469v-30c56.609375-.050781 110.019531-20.761719 151.621093-58.589844l-151.621093-151.621094v-42.417968l172.472656 172.46875c34.519531-40.738282 53.328125-91.839844 53.328125-145.839844 0-60.359375-23.511719-117.121094-66.199219-159.800781-42.628906-42.640625-99.3125-66.148438-159.601562-66.199219v-30c68.3125.0507812 132.511719 26.679688 180.820312 74.980469 48.351563 48.347656 74.980469 112.640625 74.980469 181.019531zm0 0" fill="#ff3650"/></svg>