<svg height="512pt" viewBox="0 0 512 512" width="512pt" xmlns="http://www.w3.org/2000/svg"><path d="m437.019531 74.980469c-48.347656-48.351563-112.640625-74.980469-181.019531-74.980469s-132.671875 26.628906-181.019531 74.980469c-48.351563 48.347656-74.980469 112.640625-74.980469 181.019531s26.628906 132.671875 74.980469 181.019531c48.347656 48.351563 112.640625 74.980469 181.019531 74.980469s132.671875-26.628906 181.019531-74.980469c48.351563-48.347656 74.980469-112.640625 74.980469-181.019531s-26.628906-132.671875-74.980469-181.019531zm0 0" fill="#fff4f4"/><path d="m512 256c0 68.378906-26.628906 132.671875-74.980469 181.019531-48.347656 48.351563-112.640625 74.980469-181.019531 74.980469v-512c68.378906 0 132.671875 26.628906 181.019531 74.980469 48.351563 48.347656 74.980469 112.640625 74.980469 181.019531zm0 0" fill="#f3e2dd"/><path d="m421.710938 316.460938-30.132813 52.070312c-7.378906 12.757812-23.777344 17.160156-36.546875 9.796875l-42.101562-24.257813v48.78125c0 14.769532-12.007813 26.777344-26.78125 26.777344h-60.296876c-14.773437 0-26.78125-12.007812-26.78125-26.777344v-48.78125l-42.101562 24.257813c-12.769531 7.363281-29.167969 2.960937-36.546875-9.796875l-30.132813-52.070312c-3.578124-6.199219-4.539062-13.421876-2.679687-20.339844 1.851563-6.921875 6.289063-12.699219 12.5-16.269532l41.992187-24.203124-42-24.1875c-6.203124-3.582032-10.640624-9.359376-12.492187-16.28125-1.859375-6.917969-.898437-14.140626 2.679687-20.339844l30.132813-52.070313c7.378906-12.757812 23.777344-17.148437 36.546875-9.789062l42.101562 24.25v-48.082031c0-14.769532 12.007813-26.777344 26.78125-26.777344h60.296876c14.773437 0 26.78125 12.007812 26.78125 26.777344v48.082031l42.101562-24.25c12.769531-7.359375 29.167969-2.96875 36.546875 9.789062l30.132813 52.070313c3.578124 6.199218 4.539062 13.421875 2.679687 20.339844-1.851563 6.921874-6.289063 12.699218-12.5 16.28125l-41.992187 24.1875 42 24.203124c6.203124 3.570313 10.640624 9.347657 12.5 16.269532 1.851562 6.917968.890624 14.140625-2.6875 20.339844zm0 0" fill="#ff637d"/><path d="m421.710938 316.460938-30.132813 52.070312c-7.378906 12.757812-23.777344 17.160156-36.546875 9.796875l-42.101562-24.257813v48.78125c0 14.769532-12.007813 26.777344-26.78125 26.777344h-30.148438v-347.257812h30.148438c14.773437 0 26.78125 12.007812 26.78125 26.777344v48.082031l42.101562-24.25c12.769531-7.359375 29.167969-2.96875 36.546875 9.789062l30.132813 52.070313c3.578124 6.199218 4.539062 13.421875 2.679687 20.339844-1.851563 6.921874-6.289063 12.699218-12.5 16.28125l-41.992187 24.1875 42 24.203124c6.203124 3.570313 10.640624 9.347657 12.5 16.269532 1.851562 6.917968.890624 14.140625-2.6875 20.339844zm0 0" fill="#ff3650"/></svg>