<svg height="511pt" viewBox="0 -13 511.99961 511" width="511pt" xmlns="http://www.w3.org/2000/svg"><path d="m500.359375 99.234375c-15.980469-40.832031-46.550781-72.144531-86.074219-88.191406-35.691406-14.496094-71.089844-14.039063-105.210937 1.351562-24.171875 10.894531-42.382813 27.273438-52.902344 38.371094-10.570313-11.066406-28.871094-27.386719-53.101563-38.242187-34.234374-15.328126-69.675781-15.757813-105.355468-1.28125-39.519532 16.046874-70.09375 47.371093-86.074219 88.203124-16.980469 43.371094-15.320313 92.53125 4.5625 134.875 17.558594 37.382813 43.308594 75.574219 76.550781 113.496094 39.472656 45.042969 89.644532 89.792969 149.105469 132.996094 4.28125 3.109375 9.300781 4.679688 14.3125 4.6875h.046875c5.03125 0 10.070312-1.570312 14.363281-4.6875 59.371094-43.132812 109.472657-87.925781 148.90625-133.125 33.007813-37.832031 58.679688-76.042969 76.3125-113.566406 10.777344-22.957032 16.199219-47.921875 16.199219-72.878906 0-21.074219-3.871094-42.152344-11.640625-62.007813zm0 0" fill="#ff637d"/><path d="m512 161.242188c0 24.957031-5.421875 49.921874-16.203125 72.878906-17.628906 37.523437-43.300781 75.734375-76.3125 113.566406-39.429687 45.199219-89.53125 89.992188-148.902344 133.125-4.292969 3.117188-9.332031 4.6875-14.363281 4.6875h-.050781v-434.734375c10.523437-11.097656 28.734375-27.476563 52.902343-38.375 34.121094-15.386719 69.523438-15.847656 105.214844-1.347656 39.523438 16.046875 70.09375 47.359375 86.074219 88.191406 7.769531 19.855469 11.640625 40.933594 11.640625 62.007813zm0 0" fill="#ff3650"/><path d="m422.554688 207.125c0 24.453125-19.910157 44.359375-44.378907 44.359375-19.203125 0-35.59375-12.265625-41.761719-29.363281h-39.582031l-29.542969 36.511718c-2.820312 3.5-6.796874 5.699219-11.121093 6.269532-.757813.109375-1.527344.160156-2.296875.160156-.660156 0-1.332032-.039062-2-.117188-5.910156-.671874-10.992188-4.269531-13.589844-9.628906l-34.191406-70.335937-9.832032 25.964843c-2.527343 6.6875-9.039062 11.175782-16.179687 11.175782h-78.925781c-8.289063 0-15-6.71875-15-14.996094 0-8.289062 6.710937-14.996094 15-14.996094h70.144531l17.152344-45.3125c2.449219-6.457031 8.488281-10.847656 15.398437-11.15625 6.921875-.320312 13.320313 3.5 16.351563 9.71875l37.972656 79.054688 21.140625-25.886719c3.308594-4.089844 8.210938-6.417969 13.449219-6.417969h45.652343c6.167969-17.105468 22.5625-29.375 41.761719-29.375 24.46875 0 44.378907 19.90625 44.378907 44.371094zm0 0" fill="#fff"/><path d="m422.554688 207.125c0 24.453125-19.910157 44.359375-44.378907 44.359375-19.203125 0-35.59375-12.265625-41.761719-29.363281h-39.582031l-29.542969 36.511718c-2.820312 3.5-6.796874 5.699219-11.121093 6.269532v-40.472656l21.144531-25.882813c3.308594-4.089844 8.207031-6.417969 13.449219-6.417969h45.652343c6.167969-17.109375 22.558594-29.375 41.761719-29.375 24.46875 0 44.378907 19.90625 44.378907 44.371094zm0 0" fill="#fff4f4"/></svg>