<svg height="512pt" viewBox="0 -30 512 512" width="512pt" xmlns="http://www.w3.org/2000/svg"><path d="m0 205.535156v203.144532c0 23.886718 19.433594 43.320312 43.320312 43.320312h27.679688l30-289.785156h-57.679688c-23.886718 0-43.320312 19.433594-43.320312 43.320312zm0 0" fill="#7a8388"/><path d="m468.679688 162.214844h-57.679688l30 289.785156h27.679688c23.886718 0 43.320312-19.433594 43.320312-43.320312v-203.144532c0-23.886718-19.433594-43.320312-43.320312-43.320312zm0 0" fill="#3e494c"/><path d="m328.980469 0h-145.960938c-28.679687 0-52.019531 23.339844-52.019531 52.019531v119.941407h250v-119.941407c0-28.679687-23.339844-52.019531-52.019531-52.019531zm22.019531 141.960938h-190v-89.941407c0-12.140625 9.878906-22.019531 22.019531-22.019531h145.960938c12.140625 0 22.019531 9.878906 22.019531 22.019531zm0 0" fill="#7a8388"/><path d="m381 52.019531v119.941407h-125v-30h95v-89.941407c0-12.140625-9.878906-22.019531-22.019531-22.019531h-72.980469v-30h72.980469c28.679687 0 52.019531 23.339844 52.019531 52.019531zm0 0" fill="#3e494c"/><path d="m441 165.71875v286.28125h-370v-286.28125c0-24.128906 19.628906-43.757812 43.75-43.757812h282.5c24.121094 0 43.75 19.628906 43.75 43.757812zm0 0" fill="#00e87b"/><path d="m441 165.71875v286.28125h-185v-330.039062h141.25c24.121094 0 43.75 19.628906 43.75 43.757812zm0 0" fill="#00c97d"/><path d="m381 272.371094v46.730468c0 23.617188-19.210938 42.828126-42.828125 42.828126h-164.34375c-23.617187 0-42.828125-19.210938-42.828125-42.828126v-46.730468l125-30zm0 0" fill="#fff"/><path d="m381 272.371094v46.730468c0 23.617188-19.210938 42.828126-42.828125 42.828126h-82.171875v-119.558594zm0 0" fill="#fff4f4"/><path d="m381 236.488281v35.882813h-250v-35.882813c0-13.546875 11.019531-24.566406 24.570312-24.566406h200.859376c13.550781 0 24.570312 11.019531 24.570312 24.566406zm0 0" fill="#00c97d"/><path d="m381 236.488281v35.882813h-125v-60.449219h100.429688c13.550781 0 24.570312 11.019531 24.570312 24.566406zm0 0" fill="#52d2ff"/><path d="m381 236.488281v35.882813h-125v-60.449219h100.429688c13.550781 0 24.570312 11.019531 24.570312 24.566406zm0 0" fill="#00ac58"/></svg>