<svg height="512pt" viewBox="0 -16 512 511" width="512pt" xmlns="http://www.w3.org/2000/svg"><path d="m427.800781 81.078125c-13.960937 0-25.320312-11.347656-25.320312-25.289063 0-30.488281-24.808594-55.289062-55.308594-55.289062h-182.34375c-30.5 0-55.308594 24.800781-55.308594 55.289062 0 13.941407-11.359375 25.289063-25.320312 25.289063-46.429688 0-84.199219 37.773437-84.199219 84.203125v229.019531c0 46.429688 37.769531 84.199219 84.199219 84.199219h343.601562c46.429688 0 84.199219-37.769531 84.199219-84.199219v-229.019531c0-46.429688-37.769531-84.203125-84.199219-84.203125zm0 0" fill="#ff637d"/><path d="m512 165.28125v229.019531c0 46.429688-37.769531 84.199219-84.199219 84.199219h-171.800781v-478h91.171875c30.5 0 55.308594 24.800781 55.308594 55.289062 0 13.941407 11.359375 25.289063 25.320312 25.289063 46.429688 0 84.199219 37.773437 84.199219 84.203125zm0 0" fill="#ff3650"/><path d="m339.828125 77.269531v56.308594c0 9.292969-7.558594 16.863281-16.847656 16.863281h-133.960938c-9.289062 0-16.847656-7.570312-16.847656-16.863281v-56.308594c0-9.289062 7.558594-16.847656 16.847656-16.847656h133.960938c9.289062 0 16.847656 7.558594 16.847656 16.847656zm0 0" fill="#fff"/><path d="m271 203.640625v195.390625c0 8.289062-6.71875 15-15 15-8.289062 0-15-6.710938-15-15v-195.390625c0-8.289063 6.710938-15 15-15 8.28125 0 15 6.710937 15 15zm0 0" fill="#ff3650"/><path d="m131.5 181.335938c-16.394531 0-32.304688 8.675781-43.648438 23.800781-10.542968 14.0625-16.351562 32.242187-16.351562 51.199219 0 15.351562 3.691406 30.121093 10.671875 42.703124 13.007813 23.445313 19.328125 44.875 19.328125 65.519532v11.777344c0 24.8125 20.1875 45 45 45s45-20.1875 45-45v-120c0-18.957032-5.808594-37.136719-16.351562-51.199219-11.34375-15.125-27.253907-23.800781-43.648438-23.800781zm0 0" fill="#ff3650"/><path d="m424.648438 205.136719c-11.347657-15.125-27.257813-23.800781-43.648438-23.800781-16.394531 0-32.304688 8.675781-43.648438 23.800781-10.542968 14.0625-16.351562 32.242187-16.351562 51.199219v120c0 24.8125 20.1875 45 45 45s45-20.1875 45-45v-11.777344c0-20.644532 6.320312-42.074219 19.324219-65.519532 6.984375-12.582031 10.675781-27.351562 10.675781-42.703124 0-18.957032-5.808594-37.136719-16.351562-51.199219zm0 0" fill="#ca2036"/><path d="m271 203.640625v195.390625c0 8.289062-6.71875 15-15 15v-225.390625c8.28125 0 15 6.710937 15 15zm0 0" fill="#ca2036"/><path d="m339.828125 77.269531v56.308594c0 9.292969-7.558594 16.863281-16.847656 16.863281h-66.980469v-90.019531h66.980469c9.289062 0 16.847656 7.558594 16.847656 16.847656zm0 0" fill="#fff4f4"/></svg>