<svg height="512pt" viewBox="0 0 511 512" width="512pt" xmlns="http://www.w3.org/2000/svg"><g fill="#7be6ff"><path d="m507.789062 314.800781c-6.007812 5.710938-15.5 5.46875-21.210937-.539062-6.328125-6.660157-14.699219-10.332031-23.546875-10.332031-8.863281 0-17.222656 3.671874-23.5625 10.332031-12.050781 12.6875-28.140625 19.667969-45.289062 19.667969-17.160157 0-33.238282-6.980469-45.300782-19.667969-6.328125-6.660157-14.699218-10.332031-23.550781-10.332031-8.859375 0-17.21875 3.671874-23.558594 10.332031-12 12.636719-28 19.609375-45.070312 19.667969h-.21875c-17.160157 0-33.25-6.980469-45.300781-19.667969-6.339844-6.660157-14.699219-10.332031-23.550782-10.332031-8.859375 0-17.21875 3.671874-23.558594 10.332031-12.050781 12.6875-28.140624 19.667969-45.289062 19.667969-17.160156 0-33.25-6.980469-45.300781-19.667969-6.339844-6.660157-14.699219-10.332031-23.550781-10.332031-8.859376 0-17.21875 3.671874-23.558594 10.332031-5.710938 6.007812-15.203125 6.25-21.203125.539062-6.007813-5.710937-6.25-15.199219-.539063-21.210937 12.050782-12.679688 28.140625-19.660156 45.300782-19.660156 17.148437 0 33.238281 6.980468 45.289062 19.660156 6.339844 6.671875 14.699219 10.339844 23.5625 10.339844 8.847656 0 17.207031-3.667969 23.546875-10.328126 12.050781-12.691406 28.140625-19.671874 45.300781-19.671874 17.152344 0 33.242188 6.980468 45.289063 19.660156 6.34375 6.671875 14.703125 10.339844 23.5625 10.339844h.21875c8.769531-.058594 17.039062-3.730469 23.332031-10.339844 12.058594-12.679688 28.136719-19.660156 45.296875-19.660156 17.152344 0 33.242187 6.980468 45.292969 19.660156 6.339844 6.671875 14.699218 10.339844 23.558594 10.339844 8.851562 0 17.21875-3.667969 23.550781-10.328126 12.058593-12.691406 28.140625-19.671874 45.300781-19.671874 17.148438 0 33.238281 6.980468 45.289062 19.660156 5.710938 6.011718 5.46875 15.5-.53125 21.210937zm0 0"/><path d="m507.789062 402.871094c-6.007812 5.707031-15.5 5.46875-21.210937-.542969-6.328125-6.65625-14.699219-10.328125-23.546875-10.328125-8.863281 0-17.222656 3.671875-23.5625 10.328125-12.050781 12.691406-28.140625 19.671875-45.289062 19.671875-17.160157 0-33.238282-6.980469-45.300782-19.671875-6.328125-6.65625-14.699218-10.328125-23.550781-10.328125-8.859375 0-17.21875 3.671875-23.558594 10.328125-12 12.640625-28 19.613281-45.070312 19.671875h-.21875c-17.160157 0-33.25-6.980469-45.300781-19.671875-6.339844-6.65625-14.699219-10.328125-23.550782-10.328125-8.859375 0-17.21875 3.671875-23.558594 10.328125-12.050781 12.691406-28.140624 19.671875-45.289062 19.671875-17.160156 0-33.25-6.980469-45.300781-19.671875-6.339844-6.65625-14.699219-10.328125-23.550781-10.328125-8.859376 0-17.21875 3.671875-23.558594 10.328125-5.710938 6.011719-15.203125 6.25-21.203125.542969-6.007813-5.710938-6.25-15.199219-.539063-21.199219 12.050782-12.691406 28.140625-19.671875 45.300782-19.671875 17.148437 0 33.238281 6.980469 45.289062 19.671875 6.339844 6.65625 14.699219 10.328125 23.5625 10.328125 8.847656 0 17.207031-3.671875 23.546875-10.328125 12.050781-12.691406 28.140625-19.671875 45.300781-19.671875 17.152344 0 33.242188 6.980469 45.289063 19.671875 6.34375 6.65625 14.703125 10.328125 23.5625 10.328125h.21875c8.769531-.058594 17.039062-3.730469 23.332031-10.328125 12.058594-12.691406 28.136719-19.671875 45.296875-19.671875 17.152344 0 33.242187 6.980469 45.292969 19.671875 6.339844 6.65625 14.699218 10.328125 23.558594 10.328125 8.851562 0 17.21875-3.671875 23.550781-10.328125 12.058593-12.691406 28.140625-19.671875 45.300781-19.671875 17.148438 0 33.238281 6.980469 45.289062 19.671875 5.710938 6 5.46875 15.488281-.53125 21.199219zm0 0"/><path d="m507.828125 492.871094c-6 5.707031-15.488281 5.46875-21.199219-.542969-6.339844-6.65625-14.699218-10.328125-23.558594-10.328125-8.851562 0-17.210937 3.671875-23.550781 10.328125-12.050781 12.691406-28.140625 19.671875-45.300781 19.671875-17.148438 0-33.238281-6.980469-45.289062-19.671875-6.339844-6.65625-14.699219-10.328125-23.558594-10.328125-8.851563 0-17.210938 3.671875-23.550782 10.328125-12.011718 12.652344-28.03125 19.621094-45.121093 19.671875h-.179688c-17.148437 0-33.238281-6.980469-45.289062-19.671875-6.339844-6.65625-14.699219-10.328125-23.5625-10.328125-8.847657 0-17.21875 3.671875-23.546875 10.328125-12.0625 12.691406-28.140625 19.671875-45.300782 19.671875-17.152343 0-33.242187-6.980469-45.289062-19.671875-6.339844-6.65625-14.703125-10.328125-23.5625-10.328125-8.847656 0-17.21875 3.671875-23.550781 10.328125-5.707031 6.011719-15.199219 6.25-21.207031.542969-6-5.710938-6.242188-15.199219-.53125-21.199219 12.050781-12.691406 28.140624-19.671875 45.289062-19.671875 17.160156 0 33.242188 6.980469 45.300781 19.671875 6.332031 6.65625 14.699219 10.328125 23.550781 10.328125 8.859376 0 17.21875-3.671875 23.558594-10.328125 12.050782-12.691406 28.140625-19.671875 45.289063-19.671875 17.160156 0 33.242187 6.980469 45.300781 19.671875 6.339844 6.65625 14.699219 10.328125 23.550781 10.328125h.179688c8.789062-.050781 17.082031-3.71875 23.378906-10.328125 12.050781-12.691406 28.140625-19.671875 45.292969-19.671875 17.160156 0 33.25 6.980469 45.296875 19.671875 6.34375 6.65625 14.703125 10.328125 23.550781 10.328125 8.859375 0 17.222656-3.671875 23.5625-10.328125 12.046875-12.691406 28.136719-19.671875 45.289062-19.671875 17.160157 0 33.25 6.980469 45.300782 19.671875 5.707031 6 5.46875 15.488281-.542969 21.199219zm0 0"/></g><path d="m271.699219 15v55.621094c0 8.277344-6.71875 15-15 15s-15-6.722656-15-15v-55.621094c0-8.28125 6.71875-15 15-15s15 6.71875 15 15zm0 0" fill="#fff543"/><path d="m271.699219 189.378906v55.621094c0 8.28125-6.71875 15-15 15s-15-6.71875-15-15v-55.621094c0-8.277344 6.71875-15 15-15s15 6.722656 15 15zm0 0" fill="#fff543"/><path d="m212.265625 130c0-8.285156-6.714844-15-15-15h-55.613281c-8.285156 0-15 6.714844-15 15s6.714844 15 15 15h55.613281c8.285156 0 15-6.714844 15-15zm0 0" fill="#fff543"/><path d="m371.632812 115h-55.617187c-8.28125 0-15 6.714844-15 15s6.71875 15 15 15h55.617187c8.28125 0 15-6.714844 15-15s-6.71875-15-15-15zm0 0" fill="#ffce00"/><path d="m185.9375 38.078125c-5.855469-5.859375-15.351562-5.859375-21.210938-.003906-5.859374 5.859375-5.859374 15.355469 0 21.214843l39.324219 39.328126c2.929688 2.929687 6.769531 4.394531 10.605469 4.394531 3.839844 0 7.679688-1.464844 10.609375-4.394531 5.855469-5.855469 5.855469-15.351563 0-21.210938zm0 0" fill="#fff543"/><path d="m309.234375 161.382812c-5.859375-5.859374-15.355469-5.859374-21.214844 0-5.859375 5.855469-5.859375 15.351563 0 21.210938l39.324219 39.328125c2.929688 2.929687 6.769531 4.394531 10.609375 4.394531 3.835937 0 7.675781-1.464844 10.605469-4.390625 5.855468-5.859375 5.859375-15.355469 0-21.214843zm0 0" fill="#ffce00"/><path d="m204.050781 161.382812-39.324219 39.328126c-5.859374 5.859374-5.859374 15.355468 0 21.214843 2.929688 2.925781 6.765626 4.390625 10.605469 4.390625 3.839844 0 7.679688-1.464844 10.605469-4.394531l39.328125-39.328125c5.855469-5.859375 5.855469-15.355469 0-21.210938-5.859375-5.859374-15.355469-5.859374-21.214844 0zm0 0" fill="#fff543"/><path d="m298.625 103.011719c3.839844 0 7.679688-1.464844 10.609375-4.394531l39.324219-39.328126c5.859375-5.859374 5.855468-15.355468 0-21.214843-5.859375-5.855469-15.355469-5.855469-21.214844.003906l-39.324219 39.328125c-5.859375 5.859375-5.859375 15.355469 0 21.210938 2.929688 2.929687 6.765625 4.394531 10.605469 4.394531zm0 0" fill="#ffce00"/><path d="m271.699219 15v55.621094c0 8.277344-6.71875 15-15 15v-85.621094c8.28125 0 15 6.71875 15 15zm0 0" fill="#ffce00"/><path d="m271.699219 189.378906v55.621094c0 8.28125-6.71875 15-15 15v-85.621094c8.28125 0 15 6.722656 15 15zm0 0" fill="#ffce00"/><path d="m331.019531 130c0 40.988281-33.339843 74.351562-74.320312 74.378906h-.058594c-41.011719 0-74.371094-33.367187-74.371094-74.378906s33.359375-74.378906 74.371094-74.378906h.058594c40.980469.027344 74.320312 33.390625 74.320312 74.378906zm0 0" fill="#ffbc1d"/><path d="m256.699219 422v-30c8.769531-.058594 17.039062-3.730469 23.332031-10.328125 12.058594-12.691406 28.136719-19.671875 45.296875-19.671875 17.152344 0 33.242187 6.980469 45.292969 19.671875 6.339844 6.65625 14.699218 10.328125 23.558594 10.328125 8.851562 0 17.21875-3.671875 23.550781-10.328125 12.058593-12.691406 28.140625-19.671875 45.300781-19.671875 17.148438 0 33.238281 6.980469 45.289062 19.671875 5.710938 6 5.46875 15.488281-.53125 21.199219-6.007812 5.707031-15.5 5.46875-21.210937-.542969-6.328125-6.65625-14.699219-10.328125-23.546875-10.328125-8.863281 0-17.222656 3.671875-23.5625 10.328125-12.050781 12.691406-28.140625 19.671875-45.289062 19.671875-17.160157 0-33.238282-6.980469-45.300782-19.671875-6.328125-6.65625-14.699218-10.328125-23.550781-10.328125-8.859375 0-17.21875 3.671875-23.558594 10.328125-12 12.640625-28 19.613281-45.070312 19.671875zm0 0" fill="#55b6ff"/><path d="m256.699219 333.929688v-30c8.769531-.058594 17.039062-3.730469 23.332031-10.339844 12.058594-12.679688 28.136719-19.660156 45.296875-19.660156 17.152344 0 33.242187 6.980468 45.292969 19.660156 6.339844 6.671875 14.699218 10.339844 23.558594 10.339844 8.851562 0 17.21875-3.667969 23.550781-10.328126 12.058593-12.691406 28.140625-19.671874 45.300781-19.671874 17.148438 0 33.238281 6.980468 45.289062 19.660156 5.710938 6.011718 5.46875 15.5-.53125 21.210937-6.007812 5.710938-15.5 5.46875-21.210937-.539062-6.328125-6.660157-14.699219-10.332031-23.546875-10.332031-8.863281 0-17.222656 3.671874-23.5625 10.332031-12.050781 12.6875-28.140625 19.667969-45.289062 19.667969-17.160157 0-33.238282-6.980469-45.300782-19.667969-6.328125-6.660157-14.699218-10.332031-23.550781-10.332031-8.859375 0-17.21875 3.671874-23.558594 10.332031-12 12.636719-28 19.609375-45.070312 19.667969zm0 0" fill="#55b6ff"/><path d="m507.828125 492.871094c-6 5.707031-15.488281 5.46875-21.199219-.542969-6.339844-6.65625-14.699218-10.328125-23.558594-10.328125-8.851562 0-17.210937 3.671875-23.550781 10.328125-12.050781 12.691406-28.140625 19.671875-45.300781 19.671875-17.148438 0-33.238281-6.980469-45.289062-19.671875-6.339844-6.65625-14.699219-10.328125-23.558594-10.328125-8.851563 0-17.210938 3.671875-23.550782 10.328125-12.011718 12.652344-28.03125 19.621094-45.121093 19.671875v-30c8.789062-.050781 17.082031-3.71875 23.378906-10.328125 12.050781-12.691406 28.140625-19.671875 45.292969-19.671875 17.160156 0 33.25 6.980469 45.296875 19.671875 6.34375 6.65625 14.703125 10.328125 23.550781 10.328125 8.859375 0 17.222656-3.671875 23.5625-10.328125 12.046875-12.691406 28.136719-19.671875 45.289062-19.671875 17.160157 0 33.25 6.980469 45.300782 19.671875 5.707031 6 5.46875 15.488281-.542969 21.199219zm0 0" fill="#55b6ff"/><path d="m331.019531 130c0 40.988281-33.339843 74.351562-74.320312 74.378906v-148.757812c40.980469.027344 74.320312 33.390625 74.320312 74.378906zm0 0" fill="#ff7421"/></svg>