<svg height="512pt" viewBox="-14 0 512 512.00024" width="512pt" xmlns="http://www.w3.org/2000/svg"><path d="m472.324219 127.976562c-17.449219-45.460937-50.53125-81.359374-95.691407-103.820312-34.460937-17.140625-74.601562-25.421875-115.101562-24-7.96875.269531-15.949219.921875-23.910156 1.960938-35.789063 4.660156-69.789063 17.179687-98.3125 36.199218-55.699219 37.140625-92.230469 97.28125-97.730469 160.871094-.828125 9.550781.570313 19.101562 1.929687 28.339844 1.421876 9.691406 2.761719 18.839844 1.113282 25.417968v.011719c-.371094 1.460938-4.472656 15.171875-35.683594 46.058594-7.816406 7.75-10.796875 19.152344-7.777344 29.75 3.027344 10.601563 11.589844 18.710937 22.339844 21.152344 4.449219 1.019531 8.488281 1.910156 12.007812 2.6875 1.171876.261719 2.28125.5 3.332032.742187.199218 24.460938.519531 53.257813.96875 58.648438 1.0625 12.5625 6.582031 23.070312 15.960937 30.421875 13.011719 10.167969 32.691407 13.5 56.910157 9.609375 18.667968-3 29.769531 1.730468 33.007812 14.070312.292969 2.429688 1.140625 9.917969 1.691406 18.089844 1.058594 15.601562 14.128906 27.808594 29.761719 27.808594h192.988281c16.460938 0 29.839844-13.390625 29.839844-29.839844v-53.398438c0-37.652343 5.921875-63.261718 17.589844-76.121093 28.953125-31.902344 49.632812-67.75 59.800781-103.671875 11.664063-41.167969 9.964844-81.875-5.035156-120.988282zm0 0" fill="#ffdfc2"/><path d="m477.363281 248.96875c-10.167969 35.917969-30.851562 71.769531-59.800781 103.671875-11.667969 12.859375-17.589844 38.46875-17.589844 76.121094v53.398437c0 16.449219-13.378906 29.839844-29.839844 29.839844h-108.601562v-511.84375c40.5-1.421875 80.640625 6.859375 115.101562 24 45.160157 22.460938 78.242188 58.359375 95.691407 103.820312 15 39.113282 16.699219 79.820313 5.039062 120.992188zm0 0" fill="#ffbd83"/><path d="m276.53125 342.359375v31.851563c0 8.28125-6.710938 15-15 15-8.28125 0-15-6.71875-15-15v-31.851563c0-8.277344 6.71875-15 15-15 8.289062 0 15 6.722656 15 15zm0 0" fill="#7a8388"/><path d="m276.53125 342.359375v31.851563c0 8.28125-6.710938 15-15 15v-61.851563c8.289062 0 15 6.722656 15 15zm0 0" fill="#535f64"/><path d="m373.589844 211.300781c-.609375 43.699219-26.589844 83.238281-66.21875 100.828125v15.800782c0 16.230468-13.210938 29.429687-29.441406 29.429687h-32.800782c-16.230468 0-29.429687-13.199219-29.429687-29.429687v-15.800782c-40.25-17.859375-66.238281-58.039062-66.238281-102.449218 0-30.417969 11.980468-58.890626 33.75-80.160157 21.121093-20.640625 48.847656-31.917969 78.320312-31.910156.867188 0 1.757812.011719 2.640625.03125 61.1875 1.410156 110.277344 52.398437 109.417969 113.660156zm0 0" fill="#fff543"/><path d="m373.589844 211.300781c-.609375 43.699219-26.589844 83.238281-66.21875 100.828125v15.800782c0 16.230468-13.210938 29.429687-29.441406 29.429687h-16.398438v-259.75c.867188 0 1.757812.011719 2.640625.03125 61.1875 1.410156 110.277344 52.398437 109.417969 113.660156zm0 0" fill="#ffce00"/><path d="m310.28125 209.019531c0 26.878907-21.871094 48.75-48.75 48.75-26.882812 0-48.742188-21.871093-48.742188-48.75 0-26.878906 21.859376-48.738281 48.742188-48.738281 26.878906 0 48.75 21.859375 48.75 48.738281zm0 0" fill="#fff"/><path d="m310.28125 209.019531c0 26.878907-21.871094 48.75-48.75 48.75v-97.488281c26.878906 0 48.75 21.859375 48.75 48.738281zm0 0" fill="#fff4f4"/></svg>