<svg height="512pt" viewBox="0 0 512.00027 512" width="512pt" xmlns="http://www.w3.org/2000/svg"><path d="m481.539062 205.679688c0 64.128906-46.867187 116.300781-104.488281 116.300781-.128906 0-.25 0-.378906-.011719-28.070313-.097656-54.492187-12.480469-74.453125-34.867188-19.609375-22.011718-30.410156-50.921874-30.410156-81.421874 0-27.757813 8.652344-53.621094 25.0625-75.058594-1.179688-5.679688-2.691406-14.699219-2.691406-25.492188 0-57.808594 36.960937-104.867187 82.492187-105.1171872.128906-.0117188.25-.0117188.378906-.0117188 45.28125 0 82.121094 47.160156 82.121094 105.128906 0 10.921875-1.5 19.800782-2.710937 25.570313 16.429687 21.800781 25.078124 47.640625 25.078124 74.980469zm0 0" fill="#00e87b"/><path d="m196.808594 256.640625c0 39.738281-32.359375 72.078125-72.148438 72.078125-39.78125 0-72.148437-32.339844-72.148437-72.078125 0-39.742187 32.367187-72.082031 72.148437-72.082031 39.789063 0 72.148438 32.339844 72.148438 72.082031zm0 0" fill="#00e87b"/><path d="m196.808594 256.640625c0 39.738281-32.359375 72.078125-72.148438 72.078125v-144.160156c39.789063 0 72.148438 32.339844 72.148438 72.082031zm0 0" fill="#00c97d"/><path d="m481.539062 205.679688c0 64.128906-46.867187 116.300781-104.488281 116.300781-.128906 0-.25 0-.378906-.011719v-321.9570312c.128906-.0117188.25-.0117188.378906-.0117188 45.28125 0 82.121094 47.160156 82.121094 105.128906 0 10.921875-1.5 19.800782-2.710937 25.570313 16.429687 21.800781 25.078124 47.640625 25.078124 74.980469zm0 0" fill="#00c97d"/><path d="m391.671875 189.160156v182.878906c0 8.152344-6.5 14.792969-14.621094 14.992188-.121093.007812-.25.007812-.378906.007812-8.28125 0-15-6.71875-15-15v-182.878906c0-8.28125 6.71875-15 15-15 .128906 0 .257813 0 .378906.011719 8.121094.199219 14.621094 6.839844 14.621094 14.988281zm0 0" fill="#fff4f4"/><path d="m139.660156 274.609375v98.410156c0 8.28125-6.710937 15-15 15-8.28125 0-15-6.71875-15-15v-98.410156c0-8.289063 6.71875-15 15-15 8.289063 0 15 6.710937 15 15zm0 0" fill="#fff4f4"/><path d="m391.671875 189.160156v182.878906c0 8.152344-6.5 14.792969-14.621094 14.992188v-212.859375c8.121094.199219 14.621094 6.839844 14.621094 14.988281zm0 0" fill="#f3e2dd"/><path d="m139.660156 274.609375v98.410156c0 8.28125-6.710937 15-15 15v-128.410156c8.289063 0 15 6.710937 15 15zm0 0" fill="#f3e2dd"/><path d="m512 402.410156v68.351563c0 22.738281-18.507812 41.238281-41.269531 41.238281h-429.460938c-22.757812 0-41.269531-18.5-41.269531-41.238281v-68.351563c0-15.828125 11.339844-29.191406 26.960938-31.78125 75.988281-12.589844 152.519531-18.890625 229.039062-18.890625s153.050781 6.300781 229.039062 18.890625c15.621094 2.589844 26.960938 15.953125 26.960938 31.78125zm0 0" fill="#00e87b"/><g fill="#535f64"><path d="m78.226562 41.082031-22.378906 22.296875c-4 3.992188-9.269531 5.992188-14.53125 5.992188-5.261718 0-10.519531-2-14.519531-5.992188l-22.390625-22.296875c-5.859375-5.851562-5.878906-15.351562-.03125-21.222656 5.851562-5.859375 15.339844-5.878906 21.210938-.027344l15.730468 15.667969 15.730469-15.667969c5.871094-5.851562 15.371094-5.832031 21.21875.027344 5.839844 5.871094 5.832031 15.371094-.039063 21.222656zm0 0"/><path d="m161.570312 109.988281-22.378906 22.300781c-4.011718 3.992188-9.269531 5.992188-14.53125 5.992188-5.261718 0-10.519531-2-14.53125-5.992188l-22.367187-22.300781c-5.871094-5.847656-5.890625-15.339843-.042969-21.207031 5.851562-5.871094 15.351562-5.890625 21.210938-.042969l15.730468 15.683594 15.730469-15.683594c5.871094-5.847656 15.371094-5.828125 21.21875.042969 5.839844 5.867188 5.832031 15.359375-.039063 21.207031zm0 0"/><path d="m245.582031 60.050781-22.382812 22.308594c-4 3.992187-9.269531 5.980469-14.527344 5.980469-5.261719 0-10.523437-1.988282-14.53125-5.980469l-22.371094-22.308594c-5.871093-5.839843-5.890625-15.339843-.039062-21.210937 5.851562-5.871094 15.351562-5.878906 21.210937-.039063l15.730469 15.679688 15.726563-15.679688c5.871093-5.839843 15.371093-5.832031 21.222656.039063 5.839844 5.871094 5.828125 15.371094-.039063 21.210937zm0 0"/></g><path d="m512 402.410156v68.351563c0 22.738281-18.507812 41.238281-41.269531 41.238281h-214.730469v-160.261719c76.519531 0 153.050781 6.300781 229.039062 18.890625 15.621094 2.589844 26.960938 15.953125 26.960938 31.78125zm0 0" fill="#00c97d"/><path d="m161.570312 109.988281-22.378906 22.300781c-4.011718 3.992188-9.269531 5.992188-14.53125 5.992188v-33.859375l15.730469-15.683594c5.871094-5.847656 15.371094-5.828125 21.21875.042969 5.839844 5.867188 5.832031 15.359375-.039063 21.207031zm0 0" fill="#3e494c"/><path d="m245.582031 60.050781-22.382812 22.308594c-4 3.992187-9.269531 5.980469-14.527344 5.980469v-33.859375l15.726563-15.679688c5.871093-5.839843 15.371093-5.832031 21.222656.039063 5.839844 5.871094 5.828125 15.371094-.039063 21.210937zm0 0" fill="#3e494c"/><path d="m78.226562 41.082031-22.378906 22.296875c-4 3.992188-9.269531 5.992188-14.53125 5.992188v-33.871094l15.730469-15.667969c5.871094-5.851562 15.371094-5.832031 21.21875.027344 5.839844 5.871094 5.832031 15.371094-.039063 21.222656zm0 0" fill="#3e494c"/></svg>