<svg height="512pt" viewBox="-116 0 512 512" width="512pt" xmlns="http://www.w3.org/2000/svg"><path d="m264.929688 166.78125v178.4375c0 19.570312-15.871094 35.441406-35.441407 35.441406h-178.976562c-19.570313 0-35.441407-15.871094-35.441407-35.441406v-178.4375c0-19.570312 15.871094-35.441406 35.441407-35.441406h178.976562c19.570313 0 35.441407 15.871094 35.441407 35.441406zm0 0" fill="#fff"/><path d="m264.929688 166.78125v178.4375c0 19.570312-15.871094 35.441406-35.441407 35.441406h-89.488281v-249.320312h89.488281c19.570313 0 35.441407 15.871094 35.441407 35.441406zm0 0" fill="#fff4f4"/><path d="m202.410156 252.429688c-8.351562 17.742187-25.851562 40.96875-60.820312 66.320312-.46875.339844-1.03125.511719-1.589844.488281-.519531-.007812-1.039062-.167969-1.46875-.488281-34.972656-25.351562-52.589844-48.519531-60.941406-66.261719-9.890625-21.019531-1.28125-47.078125 20.300781-55.816406 20.308594-8.230469 35.121094 5.316406 40.230469 11.046875.5.570312 1.1875.859375 1.878906.871094.730469.011718 1.46875-.28125 1.988281-.878906 5.082031-5.75 19.820313-19.332032 40.121094-11.101563 21.582031 8.742187 30.191406 34.800781 20.300781 55.820313zm0 0" fill="#ff637d"/><path d="m223.320312 39.21875v92.121094h-166.640624v-92.121094c0-21.617188 17.601562-39.21875 39.21875-39.21875h88.203124c21.617188 0 39.21875 17.601562 39.21875 39.21875zm0 0" fill="#7be6ff"/><path d="m223.320312 380.660156v92.121094c0 21.617188-17.601562 39.21875-39.21875 39.21875h-88.203124c-21.617188 0-39.21875-17.601562-39.21875-39.21875v-92.121094zm0 0" fill="#7be6ff"/><path d="m223.320312 39.21875v92.121094h-83.320312v-131.339844h44.101562c21.617188 0 39.21875 17.601562 39.21875 39.21875zm0 0" fill="#55b6ff"/><path d="m140 380.660156h83.320312v92.121094c0 21.617188-17.601562 39.21875-39.21875 39.21875h-44.101562zm0 0" fill="#55b6ff"/><path d="m228.839844 116.308594h-177.679688c-28.210937 0-51.160156 22.953125-51.160156 51.160156v177.0625c0 28.207031 22.949219 51.160156 51.160156 51.160156h177.679688c28.210937 0 51.160156-22.953125 51.160156-51.160156v-177.0625c0-28.207031-22.949219-51.160156-51.160156-51.160156zm21.160156 228.222656c0 11.667969-9.488281 21.160156-21.160156 21.160156h-177.679688c-11.671875 0-21.160156-9.492187-21.160156-21.160156v-177.0625c0-11.667969 9.488281-21.160156 21.160156-21.160156h177.679688c11.671875 0 21.160156 9.492187 21.160156 21.160156zm0 0" fill="#7a8388"/><path d="m141.589844 318.75c-.46875.339844-1.03125.511719-1.589844.488281v-110.648437c.730469.011718 1.46875-.28125 1.988281-.878906 5.082031-5.75 19.820313-19.332032 40.121094-11.101563 21.582031 8.742187 30.191406 34.800781 20.300781 55.820313-8.351562 17.742187-25.851562 40.96875-60.820312 66.320312zm0 0" fill="#ff3650"/><path d="m280 167.46875v177.0625c0 28.207031-22.949219 51.160156-51.160156 51.160156h-88.839844v-30h88.839844c11.671875 0 21.160156-9.492187 21.160156-21.160156v-177.0625c0-11.667969-9.488281-21.160156-21.160156-21.160156h-88.839844v-30h88.839844c28.210937 0 51.160156 22.953125 51.160156 51.160156zm0 0" fill="#535f64"/></svg>