<svg height="512pt" viewBox="0 0 512 512.00004" width="512pt" xmlns="http://www.w3.org/2000/svg"><path d="m293.679688 57.988281v228.230469c0 32.230469-26.191407 58.441406-58.378907 58.441406-32.203125 0-58.390625-26.210937-58.390625-58.441406 0-32.21875 26.1875-58.4375 58.390625-58.4375 10.289063 0 19.96875 2.6875 28.378907 7.398438v-156.257813l-91 30.886719-55.910157 18.980468v217.480469c0 32.230469-26.191406 58.441407-58.390625 58.441407-32.1875 0-58.378906-26.210938-58.378906-58.441407 0-32.21875 26.191406-58.441406 58.378906-58.441406 10.300782 0 19.980469 2.703125 28.390625 7.402344v-206.289063c0-24.839844 15.78125-46.890625 39.28125-54.863281l46.628907-15.828125 44.539062-15.121094c17.882812-6.058594 36.929688-3.238281 52.269531 7.761719 15.371094 11.007813 24.191407 28.179687 24.191407 47.097656zm0 0" fill="#7be6ff"/><path d="m510.410156 261.109375c-3.710937 7.410156-12.722656 10.410156-20.132812 6.699219l-61.898438-31c-2.667968-1.328125-4.898437-.398438-6 .269531-1.089844.683594-2.941406 2.273437-2.941406 5.292969v205.257812c0 15.710938-5.648438 30.132813-15.027344 41.3125-11.8125 14.089844-29.519531 23.058594-49.28125 23.058594-35.460937 0-64.308594-28.878906-64.308594-64.371094 0-35.5 28.847657-64.378906 64.308594-64.378906 12.609375 0 24.371094 3.671875 34.308594 9.96875v-150.847656c0-11.761719 5.550781-22.542969 14.972656-29.332032.707032-.519531 1.449219-1.007812 2.207032-1.480468 10.742187-6.636719 23.902343-7.21875 35.191406-1.570313l61.902344 30.992188c7.40625 3.710937 10.40625 12.71875 6.699218 20.128906zm0 0" fill="#7be6ff"/><path d="m209.261719 421.671875h-8.542969v-8.398437c0-8.285157-6.714844-15-15-15-8.28125 0-15 6.714843-15 15v8.398437h-8.539062c-8.28125 0-15 6.714844-15 14.996094 0 8.285156 6.71875 15 15 15h8.539062v8.398437c0 8.28125 6.71875 14.996094 15 14.996094 8.285156 0 15-6.714844 15-14.996094v-8.398437h8.542969c8.28125 0 15-6.714844 15-15 0-8.28125-6.71875-14.996094-15-14.996094zm0 0" fill="#7be6ff"/><g fill="#55b6ff"><path d="m375.304688 99.292969h17.101562v16.902343c0 8.285157 6.714844 15 15 15 8.28125 0 15-6.714843 15-15v-16.902343h17.101562c8.28125 0 15-6.71875 15-15s-6.71875-15-15-15h-17.101562v-16.90625c0-8.285157-6.71875-15-15-15-8.285156 0-15 6.714843-15 15v16.90625h-17.101562c-8.285157 0-15 6.714843-15 15 0 8.28125 6.714843 15 15 15zm0 0"/><path d="m404.410156 488.941406c9.378906-11.179687 15.027344-25.601562 15.027344-41.3125v-205.257812c0-3.019532 1.851562-4.609375 2.941406-5.292969 1.101563-.667969 3.332032-1.597656 6-.269531l61.898438 31c7.410156 3.710937 16.421875.710937 20.132812-6.699219 3.707032-7.410156.707032-16.417969-6.699218-20.128906l-61.902344-30.992188c-11.289063-5.648437-24.449219-5.066406-35.191406 1.570313-.757813.472656-1.5.960937-2.207032 1.480468-9.421875 6.789063-14.972656 17.570313-14.972656 29.332032v150.847656c-9.9375-6.296875-21.699219-9.96875-34.308594-9.96875v128.75c19.761719 0 37.46875-8.96875 49.28125-23.058594zm0 0"/><path d="m293.679688 57.988281v228.230469c0 32.230469-26.191407 58.441406-58.378907 58.441406-32.203125 0-58.390625-26.210937-58.390625-58.441406 0-32.21875 26.1875-58.4375 58.390625-58.4375 10.289063 0 19.96875 2.6875 28.378907 7.398438v-156.257813l-91 30.886719v-91.558594l44.539062-15.121094c17.878906-6.058594 36.929688-3.238281 52.269531 7.761719 15.371094 11.007813 24.191407 28.179687 24.191407 47.097656zm0 0"/><path d="m510.410156 261.109375c-3.710937 7.410156-12.722656 10.410156-20.132812 6.699219l-61.898438-31c-2.667968-1.328125-4.898437-.398438-6 .269531-1.089844.683594-2.941406 2.273437-2.941406 5.292969v205.257812c0 15.710938-5.648438 30.132813-15.027344 41.3125v-275.902344c.707032-.519531 1.449219-1.007812 2.207032-1.480468 10.742187-6.636719 23.902343-7.21875 35.191406-1.570313l61.902344 30.992188c7.40625 3.710937 10.40625 12.71875 6.699218 20.128906zm0 0"/></g></svg>