<svg height="512pt" viewBox="0 -46 512 512" width="512pt" xmlns="http://www.w3.org/2000/svg"><path d="m467 0h-422c-8.402344 0-15 6.597656-15 15v330c0 8.402344 6.597656 15 15 15h422c8.402344 0 15-6.597656 15-15v-330c0-8.402344-6.597656-15-15-15zm0 0" fill="#92e6e1"/><path d="m467 0h-196v360h196c8.402344 0 15-6.597656 15-15v-330c0-8.402344-6.597656-15-15-15zm0 0" fill="#60d9d4"/><g fill="#4a696f"><path d="m286 165c0 8.402344-6.597656 15-15 15s-15-6.597656-15-15 6.597656-15 15-15 15 6.597656 15 15zm0 0"/><path d="m286 225c0 8.402344-6.597656 15-15 15s-15-6.597656-15-15 6.597656-15 15-15 15 6.597656 15 15zm0 0"/><path d="m211 270h-30c-41.351562 0-75-33.648438-75-75s33.648438-75 75-75h30c8.289062 0 15 6.710938 15 15s-6.710938 15-15 15h-30c-24.8125 0-45 20.1875-45 45s20.1875 45 45 45h30c8.289062 0 15 6.710938 15 15s-6.710938 15-15 15zm0 0"/></g><path d="m377.582031 261.710938-60-120c-3.707031-7.414063-.703125-16.421876 6.707031-20.128907 7.429688-3.691406 16.40625-.71875 20.128907 6.707031l60 120c3.707031 7.414063.703125 16.421876-6.707031 20.128907-7.488282 3.71875-16.441407.644531-20.128907-6.707031zm0 0" fill="#384949"/><path d="m497 330h-482c-8.402344 0-15 6.597656-15 15 0 41.398438 33.601562 75 75 75h362c41.398438 0 75-33.601562 75-75 0-8.402344-6.597656-15-15-15zm0 0" fill="#4a696f"/><path d="m512 345c0 41.398438-33.601562 75-75 75h-166v-90h226c8.402344 0 15 6.597656 15 15zm0 0" fill="#384949"/><path d="m286 225c0 8.402344-6.597656 15-15 15v-30c8.402344 0 15 6.597656 15 15zm0 0" fill="#384949"/><path d="m271 180v-30c8.402344 0 15 6.597656 15 15s-6.597656 15-15 15zm0 0" fill="#384949"/></svg>