<svg height="512pt" viewBox="0 -31 512 512" width="512pt" xmlns="http://www.w3.org/2000/svg"><path d="m211 239.984375-15 12.597656 15 17.402344v165c0 8.398437-6.597656 15-15 15h-150c-8.402344 0-15-6.601563-15-15v-240c0-8.402344 6.597656-15 15-15h150c8.402344 0 15 6.597656 15 15zm0 0" fill="#4a696f"/><path d="m211 239.984375-15 12.597656 15 17.402344v165c0 8.398437-6.597656 15-15 15h-75v-270h75c8.402344 0 15 6.597656 15 15zm0 0" fill="#384949"/><path d="m481 194.984375v240c0 8.398437-6.597656 15-15 15h-150c-8.402344 0-15-6.601563-15-15v-165l15.601562-15-15.601562-15v-45c0-8.402344 6.597656-15 15-15h150c8.402344 0 15 6.597656 15 15zm0 0" fill="#4a696f"/><path d="m481 194.984375v240c0 8.398437-6.597656 15-15 15h-75v-270h75c8.402344 0 15 6.597656 15 15zm0 0" fill="#384949"/><path d="m316 119.984375c-8.289062 0-15-6.710937-15-15v-60c0-5.683594 3.207031-10.871094 8.289062-13.417969l60-30c7.414063-3.664062 16.40625-.6875 20.128907 6.707032 3.707031 7.414062.703125 16.421874-6.707031 20.128906l-51.710938 25.851562v50.730469c0 8.289063-6.710938 15-15 15zm0 0" fill="#4a696f"/><path d="m196 119.984375c-8.289062 0-15-6.710937-15-15v-50.730469l-51.710938-25.851562c-7.410156-3.707032-10.414062-12.714844-6.707031-20.128906 3.722657-7.394532 12.699219-10.371094 20.128907-6.707032l60 30c5.082031 2.546875 8.289062 7.734375 8.289062 13.417969v60c0 8.289063-6.710938 15-15 15zm0 0" fill="#4a696f"/><path d="m211 239.984375v30h-75c-8.402344 0-15-6.601563-15-15 0-8.402344 6.597656-15 15-15zm0 0" fill="#ff9100"/><path d="m391 254.984375c0 8.398437-6.597656 15-15 15h-75v-30h75c8.402344 0 15 6.597656 15 15zm0 0" fill="#fdbf00"/><path d="m235.902344 93.582031c-3.300782-2.699219-7.800782-4.199219-12.003906-3.597656l-102.898438 14.699219-108.101562 15.300781c-7.5 1.199219-12.898438 7.5-12.898438 15v60c0 8.398437 6.597656 15 15 15h211c8.402344 0 15-6.601563 15-15v-90c0-4.5-1.800781-8.402344-5.097656-11.402344zm0 0" fill="#fdbf00"/><path d="m241 104.984375v90c0 8.398437-6.597656 15-15 15h-105v-105.300781l102.898438-14.699219c4.203124-.601563 8.699218.898437 12.003906 3.597656 3.296875 3 5.097656 6.902344 5.097656 11.402344zm0 0" fill="#ff9100"/><path d="m499.101562 119.984375-108.101562-15.300781-102.898438-14.699219c-4.203124-.601563-8.699218.898437-12.003906 3.597656-3.296875 3-5.097656 6.902344-5.097656 11.402344v90c0 8.398437 6.597656 15 15 15h211c8.402344 0 15-6.601563 15-15v-60c0-7.5-5.398438-13.800781-12.898438-15zm0 0" fill="#fdbf00"/><path d="m512 134.984375v60c0 8.398437-6.597656 15-15 15h-106v-105.300781l108.101562 15.300781c7.5 1.199219 12.898438 7.5 12.898438 15zm0 0" fill="#ff9100"/></svg>