<svg height="512pt" viewBox="0 0 512 512" width="512pt" xmlns="http://www.w3.org/2000/svg"><path d="m433.628906 311.464844c-6.8125 0-12.980468-4.675782-14.59375-11.589844-7.953125-34.070312-37.980468-57.875-73.035156-57.875-8.289062 0-15-6.710938-15-15s6.710938-15 15-15c49.070312 0 91.113281 33.324219 102.246094 81.050781 1.890625 8.070313-3.136719 16.140625-11.191406 18.015625-1.15625.265625-2.300782.398438-3.425782.398438zm0 0" fill="#384949"/><path d="m78.371094 311.464844c-1.125 0-2.269532-.132813-3.425782-.398438-8.058593-1.875-13.082031-9.945312-11.191406-18.015625 11.132813-47.726562 53.175782-81.050781 102.246094-81.050781 8.289062 0 15 6.710938 15 15s-6.710938 15-15 15c-35.054688 0-65.082031 23.804688-73.035156 57.875-1.613282 6.914062-7.78125 11.589844-14.59375 11.589844zm0 0" fill="#4a696f"/><path d="m211 167h90v60h-90zm0 0" fill="#4a696f"/><path d="m256 167h45v60h-45zm0 0" fill="#384949"/><path d="m376 0h-240c-8.402344 0-15 6.597656-15 15v152c0 8.402344 6.597656 15 15 15h240c8.402344 0 15-6.597656 15-15v-152c0-8.402344-6.597656-15-15-15zm0 0" fill="#ff5e95"/><path d="m391 15v152c0 8.402344-6.597656 15-15 15h-120v-182h120c8.402344 0 15 6.597656 15 15zm0 0" fill="#ff0059"/><path d="m331 75c0 8.285156-6.714844 15-15 15s-15-6.714844-15-15 6.714844-15 15-15 15 6.714844 15 15zm0 0" fill="#fdbf00"/><path d="m211 75c0 8.285156-6.714844 15-15 15s-15-6.714844-15-15 6.714844-15 15-15 15 6.714844 15 15zm0 0" fill="#fbe000"/><path d="m301 105c0 8.402344-6.597656 15-15 15h-60c-8.402344 0-15-6.597656-15-15s6.597656-15 15-15h60c8.402344 0 15 6.597656 15 15zm0 0" fill="#f2f6fc"/><path d="m301 105c0 8.402344-6.597656 15-15 15h-30v-30h30c8.402344 0 15 6.597656 15 15zm0 0" fill="#dce1eb"/><path d="m346 212h-180c-8.402344 0-15 6.597656-15 15v270c0 8.402344 6.597656 15 15 15h180c8.402344 0 15-6.597656 15-15v-270c0-8.402344-6.597656-15-15-15zm0 0" fill="#ff5e95"/><path d="m361 227v270c0 8.402344-6.597656 15-15 15h-90v-300h90c8.402344 0 15 6.597656 15 15zm0 0" fill="#ff0059"/><path d="m436 512c-3.839844 0-7.675781-1.464844-10.605469-4.394531l-30-30c-5.859375-5.859375-5.859375-15.351563 0-21.210938l30-30c5.859375-5.859375 15.351563-5.859375 21.210938 0s5.859375 15.351563 0 21.210938l-19.394531 19.394531 19.394531 19.394531c5.859375 5.859375 5.859375 15.351563 0 21.210938-2.929688 2.929687-6.765625 4.394531-10.605469 4.394531zm0 0" fill="#384949"/><path d="m497 512c-8.289062 0-15-6.710938-15-15v-23.789062l-26.605469-25.605469c-5.859375-5.859375-5.859375-15.351563 0-21.210938s15.351563-5.859375 21.210938 0l31 30c2.8125 2.8125 4.394531 6.621094 4.394531 10.605469v30c0 8.289062-6.710938 15-15 15zm0 0" fill="#384949"/><path d="m76 512c-3.839844 0-7.675781-1.464844-10.605469-4.394531-5.859375-5.859375-5.859375-15.351563 0-21.210938l19.394531-19.394531-19.394531-19.394531c-5.859375-5.859375-5.859375-15.351563 0-21.210938s15.351563-5.859375 21.210938 0l30 30c5.859375 5.859375 5.859375 15.351563 0 21.210938l-30 30c-2.929688 2.929687-6.765625 4.394531-10.605469 4.394531zm0 0" fill="#4a696f"/><path d="m15 512c-8.289062 0-15-6.710938-15-15v-30c0-3.984375 1.582031-7.792969 4.394531-10.605469l31-30c5.859375-5.859375 15.351563-5.859375 21.210938 0s5.859375 15.351563 0 21.210938l-26.605469 25.605469v23.789062c0 8.289062-6.710938 15-15 15zm0 0" fill="#4a696f"/><path d="m301 339.5v97.5c0 8.402344-6.597656 15-15 15h-60c-8.402344 0-15-6.597656-15-15v-52.5l45-52.5zm0 0" fill="#92e6e1"/><path d="m466 452h-60c-8.289062 0-15-6.710938-15-15v-90c0-41.351562 33.648438-75 75-75 8.289062 0 15 6.710938 15 15v150c0 8.289062-6.710938 15-15 15zm0 0" fill="#ff0059"/><path d="m106 452h-60c-8.289062 0-15-6.710938-15-15v-150c0-8.289062 6.710938-15 15-15 41.351562 0 75 33.648438 75 75v90c0 8.289062-6.710938 15-15 15zm0 0" fill="#ff5e95"/><path d="m301 339.5v97.5c0 8.402344-6.597656 15-15 15h-30v-120zm0 0" fill="#60d9d4"/><path d="m301 287v52.5l-90 45v-97.5c0-8.402344 6.597656-15 15-15h60c8.402344 0 15 6.597656 15 15zm0 0" fill="#f2f6fc"/><path d="m301 287v52.5l-45 22.5v-90h30c8.402344 0 15 6.597656 15 15zm0 0" fill="#dce1eb"/></svg>