<svg height="512pt" viewBox="-31 0 512 512" width="512pt" xmlns="http://www.w3.org/2000/svg"><path d="m315 482h-30c-8.289062 0-15-6.710938-15-15s6.710938-15 15-15h30c24.8125 0 45-20.1875 45-45v-30c0-8.289062 6.710938-15 15-15s15 6.710938 15 15v30c0 41.351562-33.648438 75-75 75zm0 0" fill="#4a696f"/><path d="m255 512h-30c-24.8125 0-45-20.1875-45-45s20.1875-45 45-45h30c24.8125 0 45 20.1875 45 45s-20.1875 45-45 45zm0 0" fill="#384949"/><path d="m429 225-9.902344-15.902344c-32.097656-4.199218-60.898437-22.5-76.5-50.398437-23.996094-42.300781-68.996094-68.699219-117.597656-68.699219s-93.601562 26.398438-117.597656 68.699219c-15.601563 27.898437-44.402344 46.199219-76.5 50.398437l-9.902344 15.902344c0-112.5 91.5-204 204-204s204 91.5 204 204zm0 0" fill="#4a696f"/><path d="m429 225-9.902344-15.902344c-32.097656-4.199218-60.898437-22.5-76.5-50.398437-23.996094-42.300781-68.996094-68.699219-117.597656-68.699219v-69c112.5 0 204 91.5 204 204zm0 0" fill="#384949"/><path d="m450 225v30c0 8.402344-6.597656 15-15 15s-15-6.597656-15-15v-30c0-107.402344-87.597656-195-195-195s-195 87.597656-195 195v30c0 8.402344-6.597656 15-15 15s-15-6.597656-15-15v-30c0-124.199219 100.800781-225 225-225s225 100.800781 225 225zm0 0" fill="#ff5e95"/><path d="m450 225v30c0 8.402344-6.597656 15-15 15s-15-6.597656-15-15v-30c0-107.402344-87.597656-195-195-195v-30c124.199219 0 225 100.800781 225 225zm0 0" fill="#ff0059"/><path d="m75 392h-60c-8.285156 0-15-6.714844-15-15v-137h75c8.285156 0 15 6.714844 15 15v122c0 8.285156-6.714844 15-15 15zm0 0" fill="#ff5e95"/><path d="m435 392h-60c-8.285156 0-15-6.714844-15-15v-122c0-8.285156 6.714844-15 15-15h75v137c0 8.285156-6.714844 15-15 15zm0 0" fill="#ff0059"/></svg>