<svg height="512pt" viewBox="0 0 512 512" width="512pt" xmlns="http://www.w3.org/2000/svg"><path d="m512 257v-242c0-8.285156-6.714844-15-15-15h-241v257zm0 0" fill="#92e6e1"/><path d="m271 15c0-8.285156-6.714844-15-15-15h-241c-8.285156 0-15 6.714844-15 15v242c0 8.285156 6.714844 15 15 15h241c8.285156 0 15-6.714844 15-15zm0 0" fill="#ff5e95"/><path d="m0 257v240c0 8.285156 6.714844 15 15 15h241v-255zm0 0" fill="#92e6e1"/><path d="m256 257v255h241c8.285156 0 15-6.714844 15-15v-240zm0 0" fill="#92e6e1"/><path d="m271 272c0-8.285156-6.714844-15-15-15h-75v-45c0-24.8125-20.1875-45-45-45s-45 20.1875-45 45v45h-91v240c0 8.285156 6.714844 15 15 15h241c8.285156 0 15-6.714844 15-15zm0 0" fill="#384949"/><path d="m271 242c-8.285156 0-15 6.714844-15 15v75h-45c-24.8125 0-45 20.1875-45 45s20.1875 45 45 45h45v90h241c8.285156 0 15-6.714844 15-15v-240c0-8.285156-6.714844-15-15-15zm0 0" fill="#60d9d4"/><path d="m512 15c0-8.285156-6.714844-15-15-15h-241v257h75v45c0 24.8125 20.1875 45 45 45s45-20.1875 45-45v-45h91zm0 0" fill="#fdbf00"/><path d="m346 137c0 24.851562-20.148438 45-45 45h-60c-24.851562 0-45-20.148438-45-45s20.148438-45 45-45h60c24.851562 0 45 20.148438 45 45zm0 0" fill="#ff5e95"/></svg>