<svg height="512pt" viewBox="0 0 512 512" width="512pt" xmlns="http://www.w3.org/2000/svg"><path d="m75 0c-41.351562 0-75 33.648438-75 75l36.5625 14.125 38.4375-14.125 14.0625-37.5zm0 0" fill="#fbe000"/><path d="m437 0-17.8125 37.5 17.8125 37.5 41.25 14.125 33.75-14.125c0-41.351562-33.648438-75-75-75zm0 0" fill="#fdbf00"/><path d="m45 90v210h-30c-8.402344 0-15-6.601562-15-15v-210h30c8.402344 0 15 6.597656 15 15zm0 0" fill="#fdbf00"/><path d="m512 75v210c0 8.398438-6.597656 15-15 15h-15v-225zm0 0" fill="#ff9100"/><path d="m30 75h452v195h-452zm0 0" fill="#384949"/><path d="m256 75h226v195h-226zm0 0" fill="#293939"/><path d="m444.199219 210.597656c39.910156-5.796875 76.722656 32.234375 65.878906 74.402344h-508.15625c-10.84375-42.167969 25.96875-80.199219 65.878906-74.402344 11.699219-20.699218 36.699219-33.597656 61-30 12.898438-22.5 40.199219-35.398437 66-28.796875 14.097657-19.800781 36.597657-31.800781 61.199219-31.800781s47.101562 12 61.199219 31.800781c25.800781-6.601562 54.101562 6.296875 67 28.796875 24-3.597656 48.300781 9.300782 60 30zm0 0" fill="#fff35c"/><path d="m444.199219 210.597656c39.910156-5.796875 76.722656 32.234375 65.878906 74.402344h-254.078125v-165c24.601562 0 47.101562 12 61.199219 31.800781 25.800781-6.601562 54.101562 6.296875 67 28.796875 24-3.597656 48.300781 9.300782 60 30zm0 0" fill="#ffd236"/><path d="m271 195c0 8.398438-6.597656 15-15 15s-15-6.601562-15-15c0-8.402344 6.597656-15 15-15s15 6.597656 15 15zm0 0" fill="#fbe000"/><path d="m271 195c0 8.398438-6.597656 15-15 15v-30c8.402344 0 15 6.597656 15 15zm0 0" fill="#fdbf00"/><path d="m331 225c0 8.285156-6.714844 15-15 15s-15-6.714844-15-15 6.714844-15 15-15 15 6.714844 15 15zm0 0" fill="#fdbf00"/><path d="m211 225c0 8.285156-6.714844 15-15 15s-15-6.714844-15-15 6.714844-15 15-15 15 6.714844 15 15zm0 0" fill="#fbe000"/><path d="m75 0h362v75h-362zm0 0" fill="#ff5e95"/><path d="m256 0h181v75h-181zm0 0" fill="#ff0059"/><path d="m0 285v212c0 8.398438 6.597656 15 15 15h482c8.402344 0 15-6.601562 15-15v-212zm0 0" fill="#fbe000"/><path d="m512 285v212c0 8.398438-6.597656 15-15 15h-241v-227zm0 0" fill="#fdbf00"/><path d="m452 285v152c0 8.398438-6.597656 15-15 15h-362c-8.402344 0-15-6.601562-15-15v-152zm0 0" fill="#ff5e95"/><path d="m452 285v152c0 8.398438-6.597656 15-15 15h-181v-167zm0 0" fill="#ff0059"/><path d="m301 285v60c0 8.398438-6.597656 15-15 15h-60c-8.402344 0-15-6.601562-15-15v-60zm0 0" fill="#f2f6fc"/><path d="m301 285v60c0 8.398438-6.597656 15-15 15h-30v-75zm0 0" fill="#dce1eb"/></svg>