<svg height="512pt" viewBox="0 -61 512 512" width="512pt" xmlns="http://www.w3.org/2000/svg"><path d="m512 15v60l-193.597656 15-62.402344-4.5-150-10.5-9.902344-39.902344 9.902344-35.097656h391c8.402344 0 15 6.597656 15 15zm0 0" fill="#4a696f"/><path d="m512 15v60l-193.597656 15-62.402344-4.5v-85.5h241c8.402344 0 15 6.597656 15 15zm0 0" fill="#384949"/><path d="m106 0h-91c-8.289062 0-15 6.710938-15 15v60l52.5 15 53.5-15zm0 0" fill="#fdbf00"/><path d="m512 75v300c0 8.398438-6.597656 15-15 15h-482c-8.402344 0-15-6.601562-15-15v-300zm0 0" fill="#92e6e1"/><path d="m512 75v300c0 8.398438-6.597656 15-15 15h-241v-315zm0 0" fill="#60d9d4"/><path d="m335.394531 295.605469c-5.859375-5.859375-5.859375-15.351563 0-21.210938l49.394531-49.394531-49.394531-49.394531c-5.859375-5.859375-5.859375-15.351563 0-21.210938s15.351563-5.859375 21.210938 0l60 60c5.859375 5.859375 5.859375 15.351563 0 21.210938l-60 60c-5.859375 5.859375-15.351563 5.859375-21.210938 0zm0 0" fill="#384949"/><path d="m155.394531 295.605469-60-60c-5.859375-5.859375-5.859375-15.351563 0-21.210938l60-60c5.859375-5.859375 15.351563-5.859375 21.210938 0s5.859375 15.351563 0 21.210938l-49.394531 49.394531 49.394531 49.394531c5.859375 5.859375 5.859375 15.351563 0 21.210938s-15.351563 5.859375-21.210938 0zm0 0" fill="#4a696f"/><path d="m300.097656 139.800781-44.097656 132.300781-15.902344 47.699219c-2.816406 8.460938-11.984375 12.066407-18.898437 9.296875-7.796875-2.398437-12-11.097656-9.296875-18.898437l44.097656-132.300781 15.902344-47.699219c2.398437-7.800781 11.097656-12 18.898437-9.300781 7.796875 2.402343 12 11.101562 9.296875 18.902343zm0 0" fill="#4a696f"/><path d="m300.097656 139.800781-44.097656 132.300781v-94.203124l15.902344-47.699219c2.398437-7.800781 11.097656-12 18.898437-9.300781 7.796875 2.402343 12 11.101562 9.296875 18.902343zm0 0" fill="#384949"/></svg>