<svg height="512pt" viewBox="-31 0 512 512.00052" width="512pt" xmlns="http://www.w3.org/2000/svg"><path d="m360.34375 94.71875v342.210938c0 8.410156-6.605469 15.015624-15.015625 15.015624h-240.21875c-8.410156 0-15.015625-6.605468-15.015625-15.015624v-342.210938c0-8.40625 6.605469-15.015625 15.015625-15.015625h240.21875c8.410156 0 15.015625 6.609375 15.015625 15.015625zm0 0" fill="#dce1eb"/><path d="m360.34375 94.71875v342.210938c0 8.410156-6.605469 15.015624-15.015625 15.015624h-120.109375v-372.242187h120.109375c8.410156 0 15.015625 6.609375 15.015625 15.015625zm0 0" fill="#bec3d2"/><path d="m345.328125 421.917969h-240.21875c-41.4375 0-75.070313 33.628906-75.070313 75.070312 0 8.40625 6.605469 15.011719 15.015626 15.011719h360.328124c8.410157 0 15.015626-6.605469 15.015626-15.011719 0-41.441406-33.632813-75.070312-75.070313-75.070312zm0 0" fill="#f2f6fc"/><path d="m420.398438 496.988281c0 8.40625-6.605469 15.011719-15.015626 15.011719h-180.164062v-90.082031h120.109375c41.4375 0 75.070313 33.628906 75.070313 75.070312zm0 0" fill="#dce1eb"/><path d="m447.722656 49.074219c-14.828125-53.542969-59.746094-56.414063-112.605468-40.835938-36.03125 10.507813-72.964844 15.613281-109.898438 15.613281s-73.867188-5.101562-109.898438-15.613281c-52.882812-15.585937-97.78125-12.695312-112.605468 40.835938-13.015625 47.109375 22.351562 95.789062 72.367187 95.789062 20.417969 0 34.230469-11.710937 40.535157-26.425781 34.53125 16.519531 72.066406 24.925781 109.601562 24.925781s75.070312-8.40625 109.601562-24.925781c6.304688 14.71875 20.117188 26.425781 40.535157 26.425781 50.042969 0 85.375-48.714843 72.367187-95.789062zm0 0" fill="#f2f6fc"/><path d="m375.355469 144.863281c-20.417969 0-34.230469-11.710937-40.535157-26.425781-34.53125 16.515625-72.066406 24.925781-109.601562 24.925781v-119.511719c36.933594 0 73.867188-5.101562 109.898438-15.613281 52.882812-15.585937 97.78125-12.695312 112.605468 40.835938 13.015625 47.105469-22.351562 95.789062-72.367187 95.789062zm0 0" fill="#dce1eb"/><path d="m165.164062 391.890625c-8.300781 0-15.015624-6.714844-15.015624-15.015625v-182.164062c0-8.300782 6.714843-15.015626 15.015624-15.015626 8.296876 0 15.011719 6.714844 15.011719 15.015626v182.164062c0 8.300781-6.714843 15.015625-15.011719 15.015625zm0 0" fill="#f2f6fc"/><path d="m240.230469 194.710938v182.164062c0 8.40625-6.601563 15.015625-15.011719 15.015625s-15.015625-6.609375-15.015625-15.015625v-182.164062c0-8.410157 6.605469-15.015626 15.015625-15.015626s15.011719 6.605469 15.011719 15.015626zm0 0" fill="#f2f6fc"/><g fill="#dce1eb"><path d="m240.230469 194.710938v182.164062c0 8.40625-6.601563 15.015625-15.011719 15.015625v-212.195313c8.410156 0 15.011719 6.605469 15.011719 15.015626zm0 0"/><path d="m285.273438 391.890625c-8.296876 0-15.011719-6.714844-15.011719-15.015625v-182.164062c0-8.300782 6.714843-15.015626 15.011719-15.015626 8.296874 0 15.015624 6.714844 15.015624 15.015626v182.164062c0 8.300781-6.71875 15.015625-15.015624 15.015625zm0 0"/></g></svg>