<svg height="512pt" viewBox="0 0 512.00018 512" width="512pt" xmlns="http://www.w3.org/2000/svg"><path d="m466.976562 180.015625c-4.875 0-10.664062-2.375-13.550781-6.769531l-76.65625-116.636719c-4.539062-6.914063-2.621093-16.214844 4.304688-20.769531 6.929687-4.507813 16.214843-2.621094 20.769531 4.308594l77.65625 116.636718c4.539062 6.914063 2.621094 16.214844-4.308594 20.769532-2.53125 1.667968-5.386718 2.460937-8.214844 2.460937zm0 0" fill="#4a696f"/><path d="m501.457031 29.441406-245.457031 76.484375-236.457031 73.488281c-1.5.300782-3 .601563-4.5.601563-6.300781 0-12.296875-4.199219-14.394531-10.5-2.402344-7.796875 2.097656-16.496094 9.894531-18.898437l245.457031-76.484376 236.457031-73.488281c7.800781-2.398437 16.199219 2.101563 18.898438 9.902344 2.398437 7.796875-2.101563 16.496094-9.898438 18.894531zm0 0" fill="#4a696f"/><path d="m501.457031 29.441406-245.457031 76.484375v-31.792969l236.457031-73.488281c7.796875-2.398437 16.199219 2.101563 18.894531 9.902344 2.402344 7.796875-2.097656 16.496094-9.894531 18.894531zm0 0" fill="#384949"/><path d="m465.960938 210.007812c8.285156 0 16 6.714844 16 15v271.949219c0 8.285157-7.714844 15-16 15h-29.992188c-8.285156 0-15-6.714843-15-15v-16.996093c0-8.28125-6.714844-14.996094-14.996094-14.996094h-299.945312c-8.28125 0-14.996094 6.714844-14.996094 14.996094v16.996093c0 8.285157-6.714844 15-15 15h-30.992188c-8.285156 0-15-6.714843-15-15v-271.949219c0-8.285156 6.714844-15 15-15zm0 0" fill="#4a696f"/><path d="m465.960938 210.007812c8.285156 0 16 6.714844 16 15v271.949219c0 8.285157-7.714844 15-16 15h-29.992188c-8.285156 0-15-6.714843-15-15v-16.996093c0-8.28125-6.714844-14.996094-14.996094-14.996094h-149.972656v-254.957032zm0 0" fill="#384949"/><path d="m496.957031 150.019531h-135.976562c-8.289063 0-14.996094 6.707031-14.996094 14.996094v59.992187c0 8.289063 6.707031 14.996094 14.996094 14.996094h135.976562c8.289063 0 14.996094-6.707031 14.996094-14.996094v-59.992187c0-8.289063-6.707031-14.996094-14.996094-14.996094zm0 0" fill="#293939"/><path d="m151.019531 150.019531h-135.976562c-8.289063 0-14.996094 6.707031-14.996094 14.996094v59.992187c0 8.289063 6.707031 14.996094 14.996094 14.996094h135.976562c8.289063 0 14.996094-6.707031 14.996094-14.996094v-59.992187c0-8.289063-6.707031-14.996094-14.996094-14.996094zm0 0" fill="#384949"/><path d="m360.980469 150.019531h-209.960938v134.976563h209.960938zm0 0" fill="#fff35c"/><path d="m256 150.019531h104.980469v134.976563h-104.980469zm0 0" fill="#ffd236"/><path d="m390.976562 284.996094c0 8.398437-6.597656 14.996094-15 14.996094h-239.957031c-8.398437 0-14.996093-6.597657-14.996093-14.996094 0-8.398438 6.597656-14.996094 14.996093-14.996094h239.957031c8.402344 0 15 6.597656 15 14.996094zm0 0" fill="#384949"/><path d="m390.976562 284.996094c0 8.398437-6.597656 14.996094-15 14.996094h-119.976562v-29.992188h119.976562c8.402344 0 15 6.597656 15 14.996094zm0 0" fill="#293939"/><path d="m405.972656 389.976562c8.28125 0 14.996094 6.714844 14.996094 14.996094v74.988282h-329.9375v-74.988282c0-8.28125 6.714844-14.996094 14.996094-14.996094zm0 0" fill="#384949"/><path d="m405.972656 389.976562c8.28125 0 14.996094 6.714844 14.996094 14.996094v74.988282h-164.96875v-89.984376zm0 0" fill="#293939"/><path d="m157.019531 404.972656h-65.988281v-59.988281c0-8.28125 6.714844-14.996094 14.996094-14.996094h50.992187zm0 0" fill="#f2f6fc"/><path d="m157.019531 329.988281h65.984375v74.984375h-65.984375zm0 0" fill="#dce1eb"/><path d="m223.007812 329.988281h65.984376v74.984375h-65.984376zm0 0" fill="#f2f6fc"/><path d="m256 329.988281h32.992188v74.984375h-32.992188zm0 0" fill="#dce1eb"/><path d="m288.992188 329.988281h65.988281v74.984375h-65.988281zm0 0" fill="#bec3d2"/><path d="m420.96875 404.972656h-65.988281v-74.984375h50.992187c8.28125 0 14.996094 6.714844 14.996094 14.996094zm0 0" fill="#dce1eb"/></svg>