<svg height="512pt" viewBox="-130 0 511 512" width="512pt" xmlns="http://www.w3.org/2000/svg"><path d="m111.199219 11.832031h30.191406v362.398438h-30.191406zm0 0" fill="#c4c0ad"/><path d="m126.296875 11.832031h15.09375v362.398438h-15.09375zm0 0" fill="#a19d8d"/><path d="m156.484375 512h-60.378906c-8.335938 0-15.097657-6.757812-15.097657-15.09375v-92.484375c0-24.972656 20.316407-45.289063 45.289063-45.289063 24.96875 0 45.285156 20.316407 45.285156 45.289063v92.484375c0 8.335938-6.757812 15.09375-15.097656 15.09375zm0 0" fill="#53b7f5"/><path d="m156.484375 512c8.339844 0 15.097656-6.757812 15.097656-15.09375v-92.484375c0-24.972656-20.316406-45.289063-45.285156-45.289063v152.867188zm0 0" fill="#1a82c7"/><path d="m214.351562 75.476562h-168.566406c-3.265625 0-6.445312-1.058593-9.054687-3.019531l-30.191407-22.640625c-8.050781-6.039062-8.050781-18.117187 0-24.152344l30.191407-22.644531c2.609375-1.960937 5.789062-3.019531 9.054687-3.019531h168.566406c8.335938 0 15.097657 6.757812 15.097657 15.09375v45.289062c0 8.335938-6.757813 15.09375-15.097657 15.09375zm0 0" fill="#edeade"/><path d="m126.296875 75.476562h88.054687c8.335938 0 15.097657-6.757812 15.097657-15.09375v-45.289062c0-8.335938-6.761719-15.09375-15.097657-15.09375h-88.054687zm0 0" fill="#d6d3c5"/><path d="m38.238281 135.859375h168.566407c3.265624 0 6.445312 1.058594 9.058593 3.019531l30.1875 22.640625c8.050781 6.039063 8.050781 18.117188 0 24.15625l-30.1875 22.640625c-2.613281 1.960938-5.792969 3.019532-9.058593 3.019532h-168.566407c-8.335937 0-15.09375-6.757813-15.09375-15.09375v-45.289063c0-8.335937 6.757813-15.09375 15.09375-15.09375zm0 0" fill="#edeade"/><path d="m126.296875 135.859375v75.476563h80.507813c3.265624 0 6.445312-1.058594 9.058593-3.019532l30.1875-22.640625c8.050781-6.039062 8.050781-18.117187 0-24.15625l-30.1875-22.640625c-2.613281-1.960937-5.792969-3.019531-9.058593-3.019531zm0 0" fill="#d6d3c5"/></svg>