<svg height="512pt" viewBox="0 0 512.00153 512" width="512pt" xmlns="http://www.w3.org/2000/svg"><path d="m346.003906 90h-90.003906s-15-6.71875-15-15v-60c0-8.285156 6.714844-15 15-15h90.003906c5.53125 0 10.613282 3.046875 13.222656 7.921875 2.613282 4.878906 2.324219 10.796875-.742187 15.398437l-14.453125 21.679688 14.453125 21.675781c3.066406 4.605469 3.355469 10.523438.742187 15.398438-2.609374 4.878906-7.691406 7.925781-13.222656 7.925781zm0 0" fill="#ffcf2c"/><path d="m256 128.550781c-8.285156 0-15-6.71875-15-15v-98.550781c0-8.285156 6.714844-15 15-15s15 6.714844 15 15v98.546875c0 8.285156-6.714844 15.003906-15 15.003906zm0 0" fill="#d6d3c5"/><path d="m256 0c-.003906 0-.007812 0-.007812 0v128.546875h.007812c8.285156 0 15-6.714844 15-15l.75-113.546875s-7.464844 0-15.75 0zm0 0" fill="#a19d8d"/><path d="m497 278.074219h-482c-4.515625 0-8.789062-2.035157-11.636719-5.535157-2.847656-3.503906-3.96875-8.105468-3.046875-12.523437l22.46875-107.859375c1.449219-6.957031 7.582032-11.941406 14.6875-11.941406h437.058594c7.105469 0 13.234375 4.988281 14.683594 11.941406l22.472656 107.859375c.917969 4.417969-.199219 9.019531-3.046875 12.523437-2.851563 3.5-7.125 5.535157-11.640625 5.535157zm0 0" fill="#ff9e7a"/><path d="m489.214844 152.15625c-1.449219-6.957031-7.582032-11.941406-14.6875-11.941406h-218.535156v137.859375h241.007812c4.515625 0 8.789062-2.035157 11.636719-5.535157 2.847656-3.503906 3.96875-8.105468 3.046875-12.523437zm0 0" fill="#db703d"/><path d="m497 511.980469h-482c-8.285156 0-15-6.714844-15-15l.316406-236.964844h103.347656l141.183594-156.5c2.84375-3.160156 6.898438-4.96875 11.152344-4.96875h.03125c4.265625.011719 8.324219 1.832031 11.160156 5.015625l139.140625 156.453125h105.667969v236.964844c0 8.285156-6.714844 15-15 15zm0 0" fill="#fffae7"/><path d="m267.191406 103.5625c-2.835937-3.179688-6.894531-5.003906-11.160156-5.015625-.011719 0-.019531 0-.03125 0-.003906 0-.007812 0-.011719 0v413.433594h241.011719c8.285156 0 15-6.71875 15-15v-236.964844h-105.667969zm0 0" fill="#ffdaab"/><path d="m211 511.96875v-97.972656c0-8.285156 6.714844-15 15-15h60c8.285156 0 15 6.714844 15 15v97.992187zm0 0" fill="#878477"/><path d="m286 398.996094h-30.007812v112.984375l45.007812.007812v-97.992187c0-8.285156-6.714844-15-15-15zm0 0" fill="#696453"/><g fill="#878477"><path d="m421.824219 368.996094c-8.285157 0-15-6.714844-15-15v-20c0-8.28125 6.714843-15 15-15 8.28125 0 15 6.71875 15 15v20c0 8.285156-6.71875 15-15 15zm0 0"/><path d="m421.824219 448.992188c-8.285157 0-15-6.714844-15-15v-19.996094c0-8.285156 6.714843-15 15-15 8.28125 0 15 6.714844 15 15v19.996094c0 8.285156-6.71875 15-15 15zm0 0"/><path d="m361.824219 368.996094c-8.285157 0-15-6.714844-15-15v-20c0-8.28125 6.714843-15 15-15 8.28125 0 15 6.71875 15 15v20c0 8.285156-6.71875 15-15 15zm0 0"/><path d="m361.824219 448.992188c-8.285157 0-15-6.714844-15-15v-19.996094c0-8.285156 6.714843-15 15-15 8.28125 0 15 6.714844 15 15v19.996094c0 8.285156-6.71875 15-15 15zm0 0"/></g><path d="m225.25 368.996094c-8.285156 0-15-6.714844-15-15v-20c0-8.28125 6.714844-15 15-15s15 6.71875 15 15v20c0 8.285156-6.714844 15-15 15zm0 0" fill="#b0ac9b"/><path d="m286.75 368.996094c-8.285156 0-15-6.714844-15-15v-20c0-8.28125 6.714844-15 15-15s15 6.71875 15 15v20c0 8.285156-6.714844 15-15 15zm0 0" fill="#878477"/><path d="m86.425781 368.996094c-8.28125 0-15-6.714844-15-15v-20c0-8.28125 6.71875-15 15-15 8.285157 0 15 6.71875 15 15v20c0 8.285156-6.714843 15-15 15zm0 0" fill="#b0ac9b"/><path d="m86.425781 448.992188c-8.28125 0-15-6.714844-15-15v-19.996094c0-8.285156 6.71875-15 15-15 8.285157 0 15 6.714844 15 15v19.996094c0 8.285156-6.714843 15-15 15zm0 0" fill="#b0ac9b"/><path d="m146.425781 368.996094c-8.28125 0-15-6.714844-15-15v-20c0-8.28125 6.71875-15 15-15 8.285157 0 15 6.71875 15 15v20c0 8.285156-6.714843 15-15 15zm0 0" fill="#b0ac9b"/><path d="m146.425781 448.992188c-8.28125 0-15-6.714844-15-15v-19.996094c0-8.285156 6.71875-15 15-15 8.285157 0 15 6.714844 15 15v19.996094c0 8.285156-6.714843 15-15 15zm0 0" fill="#b0ac9b"/><path d="m286 239.941406c0 16.566406-13.433594 29.996094-30 29.996094s-30-13.429688-30-29.996094c0-16.570312 13.433594-30 30-30s30 13.429688 30 30zm0 0" fill="#c9dff7"/><path d="m256 209.941406c-.003906 0-.007812 0-.007812 0v59.996094h.007812c16.566406 0 30-13.429688 30-29.996094 0-16.570312-13.429688-30-30-30zm0 0" fill="#aecef2"/><path d="m256 284.9375c-24.8125 0-45-20.183594-45-44.996094 0-24.816406 20.1875-45 45-45s45 20.1875 45 45c0 24.808594-20.1875 44.996094-45 44.996094zm0-59.996094c-8.269531 0-15 6.726563-15 15 0 8.269532 6.730469 14.996094 15 14.996094s15-6.726562 15-14.996094c0-8.273437-6.730469-15-15-15zm0 0" fill="#b0ac9b"/><path d="m256 194.941406c-.003906 0-.007812 0-.007812 0v30h.007812c8.269531 0 15 6.726563 15 14.996094s-6.730469 15-15 15c-.003906 0-.007812 0-.007812 0v30h.007812c24.8125 0 45-20.1875 45-45s-20.1875-44.996094-45-44.996094zm0 0" fill="#787465"/></svg>