<svg height="512pt" viewBox="0 -72 512 511" width="512pt" xmlns="http://www.w3.org/2000/svg"><path d="m96.765625 185.695312c-46.867187 0-85 38.132813-85 85.003907 0 46.867187 38.132813 85 85 85 46.871094 0 85-38.132813 85-85 0-46.871094-38.128906-85.003907-85-85.003907zm0 0" fill="#e8ffff"/><path d="m96.765625 367.464844c-53.355469 0-96.765625-43.410156-96.765625-96.765625 0-53.359375 43.410156-96.769531 96.765625-96.769531 53.359375 0 96.769531 43.410156 96.769531 96.769531 0 53.355469-43.410156 96.765625-96.769531 96.765625zm0-163.535156c-36.8125 0-66.765625 29.949218-66.765625 66.769531 0 36.8125 29.953125 66.765625 66.765625 66.765625 36.816406 0 66.769531-29.953125 66.769531-66.765625 0-36.820313-29.953125-66.769531-66.769531-66.769531zm0 0" fill="#696453"/><path d="m415.230469 185.695312c-46.867188 0-85 38.132813-85 85.003907 0 46.867187 38.132812 85 85 85 46.871093 0 85-38.132813 85-85 .003906-46.871094-38.128907-85.003907-85-85.003907zm0 0" fill="#d1f7ff"/><path d="m415.230469 367.464844c-53.355469 0-96.765625-43.410156-96.765625-96.765625 0-53.359375 43.410156-96.769531 96.765625-96.769531 53.359375 0 96.769531 43.410156 96.769531 96.769531 0 53.355469-43.410156 96.765625-96.769531 96.765625zm0-163.535156c-36.816407 0-66.765625 29.949218-66.765625 66.765624 0 36.816407 29.949218 66.769532 66.765625 66.769532 36.816406 0 66.769531-29.953125 66.769531-66.769532 0-36.816406-29.953125-66.765624-66.769531-66.765624zm0 0" fill="#4c4a40"/><path d="m428.652344 90.832031c-8.285156 0-15-6.71875-15-15v-18.722656c0-14.671875-11.933594-26.605469-26.601563-26.605469h-29.980469c-8.285156 0-15-6.714844-15-15s6.714844-15 15-15h29.980469c31.210938 0 56.601563 25.394532 56.601563 56.605469v18.722656c0 8.28125-6.714844 15-15 15zm0 0" fill="#4c4a40"/><path d="m176.9375 130.636719h-69.273438c-8.28125 0-15-6.714844-15-15v-60c0-8.28125 6.71875-15 15-15 8.285157 0 15 6.71875 15 15v45h54.273438c8.285156 0 15 6.71875 15 15 0 8.285156-6.714844 15-15 15zm0 0" fill="#878477"/><path d="m429.855469 266.996094-58.164063-254.832032c-1.84375-8.074218-9.882812-13.128906-17.960937-11.285156s-13.128907 9.886719-11.285157 17.960938l18.667969 81.796875h-184.175781c-5.683594 0-10.875 3.210937-13.417969 8.292969l-77.527343 155.058593c-2.324219 4.648438-2.078126 10.171875.65625 14.59375 2.734374 4.421875 7.5625 7.117188 12.761718 7.117188h155.054688c5.199218 0 10.027344-2.695313 12.761718-7.117188.226563-.363281.429688-.742187.621094-1.121093.011719-.019532.023438-.03125.035156-.054688l73.382813-146.769531h26.695313l32.648437 143.035156c1.585937 6.953125 7.765625 11.664063 14.609375 11.664063 1.105469 0 2.226562-.121094 3.351562-.378907 8.078126-1.84375 13.128907-9.882812 11.285157-17.960937zm-306.175781-11.296875 53.257812-106.519531 53.257812 106.519531zm130.785156-18.542969-53.257813-106.519531h106.515625zm0 0" fill="#b4d241"/><path d="m429.855469 266.996094-58.164063-254.832032c-1.84375-8.074218-9.882812-13.128906-17.960937-11.285156s-13.128907 9.886719-11.285157 17.960938l18.667969 81.796875h-106.648437v30h53.257812l-53.257812 106.519531v48.542969c5.199218 0 10.027344-2.695313 12.757812-7.117188.226563-.363281.429688-.742187.621094-1.121093.011719-.019532.023438-.03125.035156-.054688l73.382813-146.769531h26.699219l32.644531 143.035156c1.585937 6.953125 7.769531 11.664063 14.609375 11.664063 1.105468 0 2.230468-.121094 3.351562-.378907 8.082032-1.84375 13.132813-9.882812 11.289063-17.960937zm0 0" fill="#8aa818"/></svg>