<svg height="512pt" viewBox="0 -50 512 512" width="512pt" xmlns="http://www.w3.org/2000/svg"><path d="m322.027344 387.097656h-197.875c-5.59375 0-10.722656-3.117187-13.304688-8.078125-2.582031-4.964843-2.1875-10.953125 1.023438-15.535156 5.316406-7.585937 8.128906-16.5 8.128906-25.777344 0-6.710937-1.445312-13.171875-4.296875-19.199219-2.195313-4.648437-1.863281-10.097656.890625-14.4375 2.75-4.34375 7.53125-6.972656 12.671875-6.972656h190.496094c4.539062 0 8.832031 2.054688 11.679687 5.589844s3.941406 8.171875 2.972656 12.605469c-1.601562 7.347656-2.414062 14.886719-2.414062 22.414062 0 10.222657 1.480469 20.34375 4.398438 30.082031 1.359374 4.542969.492187 9.460938-2.335938 13.261719-2.832031 3.804688-7.292969 6.046875-12.035156 6.046875zm0 0" fill="#37a8e5"/><path d="m332 337.707031c0-7.527343.8125-15.066406 2.414062-22.414062.96875-4.433594-.125-9.070313-2.972656-12.605469s-7.140625-5.589844-11.679687-5.589844h-63.773438v90h66.039063c4.742187 0 9.203125-2.242187 12.035156-6.046875 2.828125-3.800781 3.695312-8.71875 2.335938-13.261719-2.917969-9.738281-4.398438-19.859374-4.398438-30.082031zm0 0" fill="#1a82c7"/><path d="m111.871094 363.484375c-3.210938 4.582031-3.605469 10.570313-1.023438 15.535156 2.582032 4.960938 7.710938 8.078125 13.308594 8.078125h197.875c4.738281 0 9.199219-2.242187 12.03125-6.046875 2.832031-3.800781 3.695312-8.71875 2.335938-13.261719-1.054688-3.515624-1.914063-7.082031-2.589844-10.6875h-218.207032c-1.0625 2.210938-2.300781 4.347657-3.730468 6.382813zm0 0" fill="#176cad"/><path d="m333.808594 357.101562h-77.816406v29.992188h66.035156c4.742187 0 9.203125-2.238281 12.035156-6.042969 2.828125-3.804687 3.695312-8.71875 2.335938-13.261719-1.054688-3.515624-1.914063-7.082031-2.589844-10.6875zm0 0" fill="#125994"/><path d="m497 337.707031c0 33.136719-26.863281 60-60 60s-60-26.863281-60-60 26.863281-60 60-60 60 26.863281 60 60zm0 0" fill="#878477"/><path d="m437 412.707031c-41.355469 0-75-33.644531-75-75s33.644531-75 75-75 75 33.644531 75 75-33.644531 75-75 75zm0-120c-24.8125 0-45 20.1875-45 45s20.1875 45 45 45 45-20.1875 45-45-20.1875-45-45-45zm0 0" fill="#4c4a40"/><path d="m135 337.707031c0 33.136719-26.863281 60-60 60s-60-26.863281-60-60 26.863281-60 60-60 60 26.863281 60 60zm0 0" fill="#878477"/><path d="m75 352.703125c-3.949219 0-7.820312-1.597656-10.609375-4.390625-2.789063-2.789062-4.390625-6.660156-4.390625-10.609375s1.601562-7.808594 4.390625-10.597656c2.789063-2.800781 6.660156-4.402344 10.609375-4.402344s7.808594 1.601563 10.609375 4.402344c2.789063 2.789062 4.390625 6.660156 4.390625 10.597656 0 3.949219-1.601562 7.820313-4.390625 10.609375-2.800781 2.792969-6.660156 4.390625-10.609375 4.390625zm0 0" fill="#c4c0ad"/><path d="m75 412.707031c-41.355469 0-75-33.644531-75-75s33.644531-75 75-75 75 33.644531 75 75-33.644531 75-75 75zm0-120c-24.8125 0-45 20.1875-45 45s20.1875 45 45 45 45-20.1875 45-45-20.1875-45-45-45zm0 0" fill="#4c4a40"/><path d="m436.980469 352.710938c-7.515625 0-14.003907-5.640626-14.882813-13.289063l-37.125-322.707031c-.945312-8.230469 4.957032-15.667969 13.1875-16.6171878 8.234375-.9414062 15.671875 4.9570318 16.617188 13.1874998l37.125 322.707032c.945312 8.230468-4.957032 15.671874-13.1875 16.617187-.582032.066406-1.160156.101563-1.734375.101563zm0 0" fill="#c4c0ad"/><path d="m399.875 30h-49.75c-8.285156 0-15-6.714844-15-15 0-8.28125 6.714844-15 15-15h49.75c8.285156 0 15 6.71875 15 15 0 8.285156-6.714844 15-15 15zm0 0" fill="#878477"/><path d="m322.015625 387.101562c-6.453125 0-12.414063-4.199218-14.363281-10.699218-3.75-12.515625-5.652344-25.535156-5.652344-38.695313 0-74.4375 60.5625-135 135-135 12.039062 0 23.988281 1.597657 35.515625 4.742188 7.992187 2.179687 12.703125 10.429687 10.519531 18.417969-2.179687 7.992187-10.425781 12.703124-18.417968 10.523437-8.953126-2.445313-18.246094-3.683594-27.613282-3.683594-57.898437 0-105 47.105469-105 105 0 10.242188 1.476563 20.367188 4.386719 30.085938 2.378906 7.9375-2.125 16.296875-10.0625 18.675781-1.4375.429688-2.886719.632812-4.3125.632812zm0 0" fill="#125994"/></svg>