<svg height="512pt" viewBox="-44 0 512 512" width="512pt" xmlns="http://www.w3.org/2000/svg"><path d="m322.113281 388.195312h-221.113281c-8.285156 0-15-6.714843-15-14.996093v-168.226563c0-65.597656 53.367188-118.964844 118.964844-118.964844h13.183594c65.597656 0 118.964843 53.367188 118.964843 118.964844v168.226563c0 8.28125-6.71875 14.996093-15 14.996093zm0 0" fill="#ff8b6e"/><path d="m218.144531 86.007812h-6.6875v302.1875h110.65625c8.28125 0 15-6.714843 15-14.996093v-168.226563c0-65.597656-53.367187-118.964844-118.96875-118.964844zm0 0" fill="#f2472c"/><path d="m256.554688 235.113281c0-24.8125-20.1875-45-45-45s-45 20.1875-45 45c0 19.519531 12.496093 36.167969 29.902343 42.386719v95.699219c0 8.28125 6.71875 14.996093 15 14.996093 8.285157 0 15-6.714843 15-14.996093v-95.632813c17.511719-6.164062 30.097657-22.863281 30.097657-42.453125zm-45 15c-8.269532 0-15-6.730469-15-15s6.730468-15 15-15c8.273437 0 15 6.730469 15 15s-6.726563 15-15 15zm0 0" fill="#ffff95"/><path d="m211.554688 190.113281c-.03125 0-.0625.003907-.097657.003907v30c.035157 0 .066407-.003907.097657-.003907 8.273437 0 15 6.730469 15 15s-6.726563 15-15 15c-.03125 0-.0625-.003906-.097657-.003906v138.085937c8.285157 0 15-6.714843 15-14.996093v-95.632813c17.507813-6.164062 30.097657-22.863281 30.097657-42.453125 0-24.8125-20.1875-45-45-45zm0 0" fill="#ffb500"/><path d="m211.457031 56.375c-8.28125 0-14.996093-6.714844-14.996093-15v-26.375c0-8.285156 6.714843-15 14.996093-15 8.285157 0 15 6.714844 15 15v26.375c0 8.285156-6.714843 15-15 15zm0 0" fill="#ffa38c"/><path d="m226.457031 41.375v-26.375c0-8.285156-6.714843-15-15-15v56.375c8.285157 0 15-6.714844 15-15zm0 0" fill="#ff674f"/><path d="m408.109375 219.972656h-26c-8.28125 0-14.996094-6.714844-14.996094-15s6.714844-15 14.996094-15h26c8.285156 0 15 6.714844 15 15s-6.714844 15-15 15zm0 0" fill="#ff674f"/><path d="m41 219.972656h-26c-8.285156 0-15-6.714844-15-15s6.714844-15 15-15h26c8.285156 0 15 6.714844 15 15s-6.714844 15-15 15zm0 0" fill="#ffa38c"/><path d="m330.691406 100.835938c-3.839844 0-7.679687-1.464844-10.605468-4.390626-5.859376-5.859374-5.859376-15.355468 0-21.214843l18.105468-18.105469c5.855469-5.859375 15.355469-5.859375 21.210938 0 5.859375 5.855469 5.859375 15.355469 0 21.210938l-18.105469 18.109374c-2.929687 2.925782-6.765625 4.390626-10.605469 4.390626zm0 0" fill="#ff674f"/><path d="m92.421875 100.835938c-3.839844 0-7.679687-1.464844-10.605469-4.394532l-18.039062-18.039062c-5.859375-5.855469-5.859375-15.351563 0-21.210938 5.855468-5.859375 15.355468-5.859375 21.210937 0l18.039063 18.039063c5.859375 5.859375 5.859375 15.355469 0 21.210937-2.929688 2.929688-6.765625 4.394532-10.605469 4.394532zm0 0" fill="#ffa38c"/><path d="m349.796875 452h-276.480469c-4.386718 0-8.550781-1.917969-11.398437-5.25-2.851563-3.332031-4.101563-7.742188-3.421875-12.070312l10-63.804688c1.144531-7.296875 7.433594-12.675781 14.820312-12.675781h256.476563c7.390625 0 13.675781 5.378906 14.820312 12.675781l10 63.804688c.679688 4.328124-.570312 8.738281-3.421875 12.070312-2.847656 3.332031-7.011718 5.25-11.394531 5.25zm0 0" fill="#a19d8d"/><path d="m354.613281 370.875c-1.144531-7.296875-7.429687-12.675781-14.816406-12.675781h-128.339844v93.800781h138.339844c4.382813 0 8.546875-1.917969 11.398437-5.25 2.847657-3.332031 4.097657-7.742188 3.417969-12.070312zm0 0" fill="#787465"/><path d="m381.429688 512h-339.75c-4.410157 0-8.59375-1.941406-11.445313-5.304688-2.851563-3.363281-4.074219-7.8125-3.351563-12.160156l10-60c1.207032-7.234375 7.464844-12.535156 14.796876-12.535156h319.75c7.332031 0 13.589843 5.300781 14.796874 12.535156l10 60c.722657 4.347656-.5 8.796875-3.351562 12.160156-2.851562 3.363282-7.035156 5.304688-11.445312 5.304688zm0 0" fill="#c4c0ad"/><path d="m386.226562 434.535156c-1.207031-7.234375-7.464843-12.535156-14.796874-12.535156h-159.972657v90h169.972657c4.410156 0 8.597656-1.941406 11.445312-5.304688 2.851562-3.363281 4.074219-7.8125 3.351562-12.160156zm0 0" fill="#a19d8d"/></svg>