<svg height="512pt" viewBox="0 -27 512 512" width="512pt" xmlns="http://www.w3.org/2000/svg"><path d="m502 269.371094h-369.546875v-60h369.546875c5.523438 0 10 4.476562 10 10v40c0 5.523437-4.476562 10-10 10zm0 0" fill="#ffedcd"/><g fill="#ff674f"><path d="m254.699219 209.371094h-42.425781l-60.003907 60h42.429688zm0 0"/><path d="m341.824219 209.371094h-42.429688l-60 60h42.429688zm0 0"/><path d="m132.449219 244.496094 35.125-35.125h-35.125zm0 0"/><path d="m428.945312 209.371094h-42.425781l-60 60h42.425781zm0 0"/><path d="m510.808594 214.636719c-1.691406-3.132813-5-5.265625-8.808594-5.265625h-28.355469l-60 60.003906h42.425781zm0 0"/></g><path d="m132.449219 457.839844h-117.449219c-8.285156 0-15-6.71875-15-15v-281.109375c0-8.28125 6.714844-15 15-15h117.449219c8.285156 0 15 6.71875 15 15v281.109375c0 8.28125-6.714844 15-15 15zm0 0" fill="#d6d3c5"/><path d="m132.449219 146.730469h-58.722657v311.109375h58.722657c8.285156 0 15-6.71875 15-15v-281.109375c0-8.28125-6.714844-15-15-15zm0 0" fill="#b0ac9b"/><path d="m73.726562 91.730469c-16.570312 0-30 13.429687-30 30v40h60v-40c0-16.570313-13.429687-30-30-30zm0 0" fill="#ffb500"/><path d="m103.726562 161.730469v-40c0-16.570313-13.429687-30-30-30v70zm0 0" fill="#ff7403"/><path d="m132.449219 146.730469h-117.449219c-8.285156 0-15 6.71875-15 15v77.640625h147.449219v-77.640625c0-8.28125-6.714844-15-15-15zm0 0" fill="#878477"/><path d="m132.449219 146.730469h-58.722657v92.640625h73.722657v-77.640625c0-8.28125-6.714844-15-15-15zm0 0" fill="#787465"/><path d="m0 224.371094h147.449219v30h-147.449219zm0 0" fill="#fff566"/><path d="m73.726562 224.371094h73.722657v30h-73.722657zm0 0" fill="#ffcf2c"/><path d="m45.183594 288.292969-45.183594-.53125v30l44.832031.53125h.179688c8.203125 0 14.898437-6.597657 14.996093-14.824219.097657-8.28125-6.539062-15.078125-14.824218-15.175781zm0 0" fill="#a19d8d"/><path d="m73.726562 49.597656c-8.285156 0-15-6.714844-15-15v-19.597656c0-8.285156 6.714844-15 15-15 8.28125 0 15 6.714844 15 15v19.597656c0 8.285156-6.71875 15-15 15zm0 0" fill="#fff566"/><path d="m88.726562 34.597656v-19.597656c0-8.285156-6.71875-15-15-15v49.597656c8.28125 0 15-6.714844 15-15zm0 0" fill="#ffe645"/><path d="m136.414062 66.277344c-3.839843 0-7.679687-1.464844-10.605468-4.394532-5.859375-5.859374-5.859375-15.355468 0-21.214843l14.3125-14.3125c5.859375-5.859375 15.355468-5.859375 21.214844 0 5.859374 5.859375 5.859374 15.355469 0 21.214843l-14.316407 14.3125c-2.925781 2.929688-6.765625 4.394532-10.605469 4.394532zm0 0" fill="#ffe645"/><path d="m180.320312 126.730469h-20c-8.285156 0-15-6.714844-15-15 0-8.285157 6.714844-15 15-15h20c8.285157 0 15 6.714843 15 15 0 8.285156-6.714843 15-15 15zm0 0" fill="#ffe645"/></svg>