<svg height="512pt" viewBox="0 0 512 512" width="512pt" xmlns="http://www.w3.org/2000/svg"><path d="m258.46875 425.625c-3.835938 0-7.675781-1.464844-10.605469-4.394531-5.855469-5.859375-5.855469-15.355469 0-21.210938l23.148438-23.152343c5.859375-5.855469 15.355469-5.855469 21.214843 0 5.859376 5.859374 5.859376 15.355468 0 21.214843l-23.148437 23.148438c-2.929687 2.929687-6.769531 4.394531-10.609375 4.394531zm0 0" fill="#6b2a02"/><path d="m256 511.988281c-8.285156 0-15-6.714843-15-15v-185.042969c0-8.285156 6.714844-15 15-15s15 6.714844 15 15v185.042969c0 8.285157-6.714844 15-15 15zm0 0" fill="#a15615"/><path d="m256.003906 296.945312v215.042969c8.28125 0 14.996094-6.714843 14.996094-15v-185.042969c0-8.285156-6.714844-15-14.996094-15zm0 0" fill="#7d3607"/><path d="m256.570312 326.945312h-1.144531c-59.085937 0-107.15625-48.070312-107.15625-107.15625v-112.632812c0-59.085938 48.074219-107.15625 107.160157-107.15625h1.144531c59.085937 0 107.15625 48.070312 107.15625 107.15625v112.632812c-.003907 59.085938-48.074219 107.15625-107.160157 107.15625zm0 0" fill="#8aa818"/><path d="m256.570312 0h-.566406v326.945312h.566406c59.085938 0 107.15625-48.070312 107.15625-107.15625v-112.632812c0-59.085938-48.070312-107.15625-107.15625-107.15625zm0 0" fill="#738c28"/><path d="m119.335938 461.507812c-3.816407 0-7.628907-1.445312-10.554688-4.339843l-27.050781-26.777344c-5.886719-5.828125-5.933594-15.328125-.105469-21.214844s15.324219-5.933593 21.210938-.105469l27.050781 26.777344c5.890625 5.828125 5.9375 15.324219.109375 21.210938-2.933594 2.964844-6.796875 4.449218-10.660156 4.449218zm0 0" fill="#a15615"/><path d="m119.335938 512c-.023438 0-.046876 0-.066407 0-8.285156-.035156-14.972656-6.78125-14.933593-15.066406l.644531-146.101563c.035156-8.261719 6.746093-14.933593 14.996093-14.933593h.070313c8.28125.039062 14.96875 6.78125 14.933594 15.066406l-.644531 146.101562c-.039063 8.261719-6.746094 14.933594-15 14.933594zm0 0" fill="#cc7927"/><path d="m119.980469 365.898438h-1.289063c-65.449218 0-118.691406-53.242188-118.691406-118.6875v-128.519532c0-65.449218 53.242188-118.691406 118.691406-118.691406h1.289063c65.445312 0 118.691406 53.242188 118.691406 118.691406v128.519532c0 65.445312-53.246094 118.6875-118.691406 118.6875zm0 0" fill="#b4d241"/><path d="m412.023438 512c-.023438 0-.046876 0-.070313 0-8.28125-.035156-14.96875-6.78125-14.933594-15.066406l.527344-118.984375c.035156-8.261719 6.746094-14.933594 15-14.933594h.066406c8.285157.035156 14.96875 6.78125 14.933594 15.066406l-.527344 118.984375c-.035156 8.261719-6.746093 14.933594-14.996093 14.933594zm0 0" fill="#b56714"/><path d="m415.65625 393.015625h-7.273438c-53.117187 0-96.332031-43.214844-96.332031-96.335937v-109.433594c0-53.117188 43.214844-96.335938 96.332031-96.335938h7.273438c53.121094 0 96.335938 43.21875 96.335938 96.335938v109.433594c0 53.121093-43.214844 96.335937-96.335938 96.335937zm0 0" fill="#9ebd2a"/><path d="m497 512h-482c-8.285156 0-15-6.714844-15-15s6.714844-15 15-15h482c8.285156 0 15 6.714844 15 15s-6.714844 15-15 15zm0 0" fill="#b4d241"/><path d="m497 482h-240.996094v30h240.996094c8.285156 0 15-6.714844 15-15s-6.714844-15-15-15zm0 0" fill="#8aa818"/></svg>