<svg height="512pt" viewBox="0 -28 512 512" width="512pt" xmlns="http://www.w3.org/2000/svg"><path d="m430.6875 148.953125c-.300781-3.828125-2.058594-7.542969-5.207031-10.234375-3.21875-2.753906-79.898438-67.453125-169.480469-67.453125s-166.261719 64.699219-169.480469 67.453125c-3.46875 2.96875-5.25 7.171875-5.25 11.402344-.003906 3.128906 0 14.726562 0 16.871094v274.625.007812.007812c0 8.28125 6.714844 15 15 15h319.460938c8.285156 0 15-6.71875 15-15 0-.003906 0-.003906 0-.007812s0-.003906 0-.007812v-274.28125s.253906-14.554688-.042969-18.382813zm-109.820312 209.390625h-49.867188v-135.839844h49.867188zm30-135.839844h49.863281v135.839844h-49.863281zm-159.734376 0h49.867188v135.839844h-49.867188zm-30 135.839844h-49.863281v-135.839844h49.863281zm109.867188-165.839844v-90.523437c17.449219 1.625 34.3125 5.914062 49.867188 11.488281v79.035156zm-30 0h-49.867188v-79.082031c15.539063-5.558594 32.394532-9.832031 49.867188-11.449219zm-79.867188 0h-49.863281v-34.105468c0-.371094-.019531-.707032-.046875-1.023438 8.375-6.429688 26.324219-19.289062 49.910156-31.078125zm-49.863281 195.839844h49.863281v38.289062h-49.863281zm79.863281 0h49.867188v38.289062h-49.867188zm79.867188 0h49.867188v38.289062h-49.867188zm79.867188 0h49.863281v38.289062h-49.863281zm0-195.839844v-66.144531c23.523437 11.757813 41.464843 24.570313 49.863281 30.996094v35.148437zm0 0" fill="#c4c0ad"/><path d="m425.480469 138.722656c-3.21875-2.753906-79.871094-67.433594-169.429688-67.457031v385.367187h159.679688c8.285156 0 15-6.714843 15-15v-.003906c0-.003906 0-.007812 0-.007812v-274.285156s.253906-14.554688-.042969-18.382813c-.300781-3.828125-2.058594-7.539063-5.207031-10.230469zm-104.613281 287.910156h-49.867188v-38.289062h49.867188zm0-68.289062h-49.867188v-135.839844h49.867188zm0-165.839844h-49.867188v-90.523437c17.449219 1.625 34.3125 5.914062 49.867188 11.488281zm79.863281 234.128906h-49.863281v-38.289062h49.863281zm0-68.289062h-49.863281v-135.839844h49.863281zm0-165.839844h-49.863281v-66.144531c23.523437 11.757813 41.464843 24.570313 49.863281 30.996094zm0 0" fill="#a19d8d"/><path d="m66.265625 456.632812h-51.265625c-8.285156 0-15-6.714843-15-15v-329.738281c0-22.4375 18.191406-40.628906 40.628906-40.628906h.007813c22.4375 0 40.628906 18.191406 40.628906 40.628906v329.738281c0 8.285157-6.714844 15-15 15zm0 0" fill="#cc7927"/><path d="m40.636719 71.265625h-.003907v385.367187h25.632813c8.285156 0 15-6.714843 15-15v-329.738281c0-22.4375-18.1875-40.628906-40.628906-40.628906zm0 0" fill="#b56714"/><path d="m21.28125 76.355469c-12.664062-6.890625-21.28125-20.320313-21.28125-35.722657 0-22.40625 18.226562-40.632812 40.632812-40.632812s40.636719 18.226562 40.636719 40.632812c0 15.332032-8.539062 28.710938-21.109375 35.625zm0 0" fill="#f29d4e"/><path d="m40.632812 0v76.308594l19.527344-.046875c12.570313-6.917969 21.109375-20.292969 21.109375-35.628907 0-22.40625-18.230469-40.632812-40.636719-40.632812zm0 0" fill="#e38b39"/><path d="m497 456.632812h-51.269531c-8.28125 0-15-6.714843-15-15v-329.738281c0-22.4375 18.191406-40.628906 40.632812-40.628906h.007813c22.4375 0 40.628906 18.191406 40.628906 40.628906v329.738281c0 8.285157-6.714844 15-15 15zm0 0" fill="#a15615"/><path d="m471.371094 71.265625h-.003906v385.367187h25.632812c8.285156 0 15-6.714843 15-15v-329.738281c0-22.4375-18.191406-40.628906-40.628906-40.628906zm0 0" fill="#7d3607"/><path d="m452.011719 76.355469c-12.664063-6.890625-21.28125-20.320313-21.28125-35.722657 0-22.40625 18.230469-40.632812 40.636719-40.632812s40.632812 18.226562 40.632812 40.632812c0 15.332032-8.535156 28.710938-21.105469 35.625zm0 0" fill="#e38b39"/><path d="m471.367188 0v76.308594l19.527343-.046875c12.570313-6.917969 21.105469-20.296875 21.105469-35.628907 0-22.40625-18.226562-40.632812-40.632812-40.632812zm0 0" fill="#cc7927"/></svg>