<svg height="512pt" viewBox="-146 0 512 512" width="512pt" xmlns="http://www.w3.org/2000/svg"><path d="m190.871094 432.929688h-161.742188v-353.859376h161.742188zm0 0" fill="#faf9f5"/><path d="m109.996094 79.070312h80.875v353.855469h-80.875zm0 0" fill="#edeade"/><path d="m14.996094 79.070312v-64.070312c0-8.285156 6.71875-15 15-15h160c8.285156 0 15 6.714844 15 15v64.070312zm0 0" fill="#c4c0ad"/><path d="m189.996094 0h-80v79.070312h95v-64.070312c0-8.285156-6.714844-15-15-15zm0 0" fill="#a19d8d"/><path d="m190.015625 512h-160c-8.28125 0-15-6.714844-15-15v-64.070312h190v64.070312c0 8.285156-6.714844 15-15 15zm0 0" fill="#c4c0ad"/><path d="m109.996094 512h80.019531c8.285156 0 15-6.714844 15-15v-64.070312h-95.019531zm0 0" fill="#a19d8d"/><path d="m29.128906 410.039062 161.742188-161.738281v-50.429687l-161.742188 161.742187zm0 0" fill="#ff8b6e"/><path d="m29.128906 214.269531 135.195313-135.199219h-50.425781l-84.769532 84.773438zm0 0" fill="#ff8b6e"/><g fill="#f2472c"><path d="m109.996094 329.171875 80.875-80.871094v-50.429687l-80.875 80.875zm0 0"/><path d="m190.871094 432.929688v-37.671876l-37.671875 37.671876zm0 0"/><path d="m109.996094 133.402344 54.328125-54.332032h-50.425781l-3.902344 3.90625zm0 0"/></g><path d="m104.71875 432.929688 86.152344-86.152344v-50.425782l-136.578125 136.578126zm0 0" fill="#72c5fc"/><path d="m29.128906 311.5625 161.742188-161.742188v-50.425781l-161.742188 161.742188zm0 0" fill="#72c5fc"/><path d="m66.816406 79.070312h-37.6875v37.6875zm0 0" fill="#72c5fc"/><path d="m109.996094 427.648438 80.875-80.871094v-50.425782l-80.875 80.871094zm0 0" fill="#2698d1"/><path d="m109.996094 230.695312 80.875-80.875v-50.425781l-80.875 80.875zm0 0" fill="#2698d1"/><path d="m205 94.070312h-190c-8.285156 0-15-6.714843-15-15 0-8.28125 6.714844-15 15-15h190c8.285156 0 15 6.71875 15 15 0 8.285157-6.714844 15-15 15zm0 0" fill="#edeade"/><path d="m205 64.070312h-95.003906v30h95.003906c8.285156 0 15-6.714843 15-15 0-8.28125-6.714844-15-15-15zm0 0" fill="#c4c0ad"/><path d="m205 447.929688h-190c-8.285156 0-15-6.71875-15-15 0-8.285157 6.714844-15 15-15h190c8.285156 0 15 6.714843 15 15 0 8.28125-6.714844 15-15 15zm0 0" fill="#edeade"/><path d="m205 417.929688h-95.003906v30h95.003906c8.285156 0 15-6.71875 15-15 0-8.285157-6.714844-15-15-15zm0 0" fill="#d6d3c5"/></svg>