<svg height="512pt" viewBox="1 0 511 512" width="512pt" xmlns="http://www.w3.org/2000/svg"><path d="m487.808594 451.046875h-462.613282v-259.035156h462.613282zm0 0" fill="#ffbe85"/><path d="m250.550781 192.011719h237.257813v259.035156h-237.257813zm0 0" fill="#f58e4e"/><path d="m487.808594 451.046875h-222.617188v-191.6875h222.613282v191.6875zm0 0" fill="#b0ac9b"/><path d="m423.5 376.179688h-60c-8.285156 0-15-6.714844-15-15 0-8.285157 6.714844-15 15-15h60c8.28125 0 15 6.714843 15 15 0 8.285156-6.71875 15-15 15zm0 0" fill="#696453"/><path d="m377.707031 259.355469h30v191.691406h-30zm0 0" fill="#878477"/><path d="m295.191406 451.046875h-269.996094v-175.546875h269.996094zm0 0" fill="#b2e7ff"/><path d="m250.550781 275.5h44.644531v175.546875h-44.644531zm0 0" fill="#8fd4ff"/><path d="m58.945312 328.140625c18.640626 0 33.75-15.105469 33.75-33.742187v-35.039063h-67.5v35.039063c0 18.636718 15.113282 33.742187 33.75 33.742187zm0 0" fill="#fff566"/><path d="m126.445312 328.140625c18.640626 0 33.75-15.105469 33.75-33.742187v-35.039063h-67.5v35.039063c0 18.636718 15.109376 33.742187 33.75 33.742187zm0 0" fill="#ff674f"/><path d="m193.945312 328.140625c18.640626 0 33.75-15.105469 33.75-33.742187v-35.039063h-67.5v35.039063c0 18.636718 15.109376 33.742187 33.75 33.742187zm0 0" fill="#fff566"/><path d="m261.445312 328.140625c18.636719 0 33.75-15.105469 33.75-33.742187v-35.039063h-67.5v35.039063c0 18.636718 15.109376 33.742187 33.75 33.742187zm0 0" fill="#ff674f"/><path d="m250.550781 326.335938c3.417969 1.164062 7.078125 1.804687 10.894531 1.804687 18.636719 0 33.75-15.105469 33.75-33.742187v-35.039063h-44.644531zm0 0" fill="#f2472c"/><path d="m497.5 222.011719h-482c-4.949219 0-9.578125-2.4375-12.375-6.519531-2.796875-4.082032-3.398438-9.28125-1.613281-13.894532l39.5-102.03125c2.234375-5.777344 7.792969-9.585937 13.988281-9.585937h402.992188c6.195312 0 11.753906 3.808593 13.988281 9.585937l39.507812 102.03125c1.785157 4.613282 1.183594 9.8125-1.613281 13.894532-2.796875 4.078124-7.425781 6.519531-12.375 6.519531zm0 0" fill="#db703d"/><path d="m471.980469 99.5625c-2.234375-5.773438-7.792969-9.582031-13.988281-9.582031h-207.441407v132.03125h246.949219c4.949219 0 9.578125-2.441407 12.375-6.519531 2.796875-4.082032 3.398438-9.28125 1.613281-13.894532zm0 0" fill="#b85423"/><path d="m497.496094 512h-481.996094c-8.285156 0-15-6.714844-15-15v-40.957031c0-19.300781 15.699219-34.996094 35-34.996094h441.992188c19.296874 0 35 15.695313 35 34.992187l.007812 40.957032c0 3.980468-1.582031 7.796875-4.394531 10.609375s-6.628907 4.394531-10.609375 4.394531zm0 0" fill="#f58e4e"/><path d="m477.492188 421.046875h-226.941407v90.953125h246.945313c3.980468 0 7.796875-1.582031 10.609375-4.394531s4.390625-6.628907 4.390625-10.609375l-.003906-40.957032c0-19.296874-15.703126-34.992187-35-34.992187zm0 0" fill="#db703d"/><path d="m330.261719 119.980469h-25.230469c-8.28125 0-15-6.714844-15-15 0-8.285157 6.71875-15 15-15h25.230469c8.269531 0 15-6.726563 15-14.996094 0-8.265625-6.730469-14.992187-15-14.992187h-21.734375c-8.285156 0-15-6.71875-15-15 0-8.285157 6.714844-15 15-15h21.734375c24.8125 0 45 20.183593 45 44.992187 0 24.8125-20.1875 44.996094-45 44.996094zm0 0" fill="#ffbe85"/><path d="m258.527344 151.582031h-21.601563c-35.84375 0-65-29.160156-65-65v-71.582031c0-8.285156 6.714844-15 15-15h121.601563c8.285156 0 15 6.714844 15 15v71.582031c0 35.839844-29.160156 65-65 65zm0 0" fill="#ffedcd"/><path d="m308.527344 0h-57.980469v151.582031h7.980469c35.839844 0 65-29.160156 65-65v-71.582031c0-8.285156-6.714844-15-15-15zm0 0" fill="#ffdaab"/><path d="m171.925781 59.984375v26.597656c0 1.140625.027344 2.273438.085938 3.402344h151.425781c.058594-1.128906.089844-2.261719.089844-3.402344v-26.597656zm0 0" fill="#f58e4e"/><path d="m250.550781 89.984375h72.886719c.058594-1.128906.089844-2.261719.089844-3.402344v-26.597656h-72.976563zm0 0" fill="#db703d"/></svg>