<svg height="512pt" viewBox="0 0 512.001 512" width="512pt" xmlns="http://www.w3.org/2000/svg"><path d="m.00390625 405.210938v-261.359376c0-6.820312 5.52734375-12.347656 12.35156275-12.347656h152.652343c8.285157 0 15 6.714844 15 15v258.707032zm0 0" fill="#d6d3c5"/><path d="m115.007812 301.078125c-8.285156 0-15-6.714844-15-15v-9.496094c0-8.285156 6.714844-15 15-15 8.28125 0 15 6.714844 15 15v9.496094c0 8.285156-6.71875 15-15 15zm0 0" fill="#696453"/><path d="m55.003906 301.078125c-8.28125 0-15-6.714844-15-15v-9.496094c0-8.285156 6.71875-15 15-15 8.285156 0 15 6.714844 15 15v9.496094c0 8.285156-6.714844 15-15 15zm0 0" fill="#696453"/><path d="m69.496094 405.210938v-60.210938c0-8.285156 6.71875-15 15-15 8.285156 0 15 6.714844 15 15v60.210938zm0 0" fill="#a15615"/><path d="m115.007812 231c-8.285156 0-15-6.714844-15-15v-9.496094c0-8.285156 6.714844-15 15-15 8.28125 0 15 6.714844 15 15v9.496094c0 8.285156-6.71875 15-15 15zm0 0" fill="#696453"/><path d="m55.003906 231c-8.28125 0-15-6.714844-15-15v-9.496094c0-8.285156 6.71875-15 15-15 8.285156 0 15 6.714844 15 15v9.496094c0 8.285156-6.714844 15-15 15zm0 0" fill="#696453"/><path d="m332.003906 405.210938v-188.628907c0-5.179687 2.621094-9.746093 6.613282-12.441406 2.394531-1.613281 16.835937-10.242187 16.835937-10.242187h156.546875v211.3125zm0 0" fill="#c4c0ad"/><path d="m335.496094 206.957031c1.035156-1.238281 2.28125-2.324219 3.71875-3.195312l161.367187-98.148438c5.007813-3.046875 11.417969.558594 11.417969 6.421875v94.921875zm0 0" fill="#db703d"/><g fill="#4c4a40"><path d="m457.003906 301.078125c-8.28125 0-15-6.714844-15-15v-9.496094c0-8.285156 6.71875-15 15-15 8.285156 0 15 6.714844 15 15v9.496094c0 8.285156-6.714844 15-15 15zm0 0"/><path d="m397.003906 301.078125c-8.285156 0-15-6.714844-15-15v-9.496094c0-8.285156 6.714844-15 15-15s15 6.714844 15 15v9.496094c0 8.285156-6.714844 15-15 15zm0 0"/><path d="m457.003906 369.496094c-8.28125 0-15-6.714844-15-15v-9.496094c0-8.285156 6.71875-15 15-15 8.285156 0 15 6.714844 15 15v9.496094c0 8.285156-6.714844 15-15 15zm0 0"/></g><path d="m382.003906 405.210938v-60.210938c0-8.285156 6.714844-15 15-15s15 6.714844 15 15v60.210938zm0 0" fill="#7d3607"/><path d="m497 512h-482c-8.285156 0-15-6.714844-15-15v-104.976562h512v104.976562c0 8.285156-6.714844 15-15 15zm0 0" fill="#8aa818"/><path d="m256 512h241c8.285156 0 15-6.714844 15-15v-104.976562h-256zm0 0" fill="#738c28"/><path d="m256 482c-8.28125 0-15-6.714844-15-15v-452c0-8.285156 6.71875-15 15-15 8.285156 0 15 6.714844 15 15v452c0 8.285156-6.714844 15-15 15zm0 0" fill="#d6d3c5"/><path d="m256 0s0 0-.003906 0v482h.003906c8.285156 0 15-6.714844 15-15v-452c0-8.285156-6.714844-15-15-15zm0 0" fill="#b0ac9b"/><path d="m376.003906 120c-32.347656 0-48.59375-5.453125-64.304687-10.726562-14.203125-4.769532-27.621094-9.273438-55.699219-9.273438-8.285156 0-15 0-15 0v-85c0-8.285156 6.714844-15 15-15 32.433594 0 48.859375 5.476562 64.742188 10.769531 14.242187 4.746094 27.691406 9.230469 55.261718 9.230469 8.28125 0 15 6.714844 15 15v70c0 8.285156-6.71875 15-15 15zm0 0" fill="#ffe645"/><path d="m311.699219 109.273438c15.710937 5.273437 31.957031 10.726562 64.304687 10.726562 8.28125 0 15-6.714844 15-15v-70c0-8.285156-6.71875-15-15-15-27.570312 0-41.019531-4.484375-55.261718-9.230469-15.882813-5.292969-32.308594-10.769531-64.742188-10.769531v100c28.078125 0 41.496094 4.503906 55.699219 9.273438zm0 0" fill="#ffc12e"/><path d="m144.636719 452h-76.640625c-8.28125 0-15-6.71875-15-15 0-8.285156 6.71875-15 15-15h76.640625c8.285156 0 15 6.714844 15 15 0 8.28125-6.714844 15-15 15zm0 0" fill="#b4d241"/><path d="m384.507812 481.996094h-42.710937c-8.285156 0-15-6.714844-15-15 0-8.28125 6.714844-15 15-15h42.710937c8.28125 0 15 6.71875 15 15 0 8.285156-6.71875 15-15 15zm0 0" fill="#9ebd2a"/><path d="m464.464844 452.023438h-16.144532c-8.285156 0-15-6.71875-15-15 0-8.285157 6.714844-15 15-15h16.144532c8.28125 0 15 6.714843 15 15 0 8.28125-6.71875 15-15 15zm0 0" fill="#9ebd2a"/></svg>