<svg height="512pt" viewBox="0 0 512 512" width="512pt" xmlns="http://www.w3.org/2000/svg"><path d="m193.132812 512h-178.132812c-8.285156 0-15-6.714844-15-15v-350.175781h193.132812zm0 0" fill="#c4c0ad"/><path d="m0 146.824219v-86.734375c0-8.285156 6.714844-15 15-15h178.132812v101.734375zm0 0" fill="#37a8e5"/><path d="m497 512h-318.867188v-497c0-8.285156 6.714844-15 15-15h303.867188c8.285156 0 15 6.714844 15 15v482c0 8.285156-6.714844 15-15 15zm0 0" fill="#edeade"/><path d="m497 0h-151.933594v512h151.933594c8.285156 0 15-6.714844 15-15v-482c0-8.285156-6.714844-15-15-15zm0 0" fill="#d6d3c5"/><path d="m309.4375 512h71.867188v-94.890625c0-19.800781-16.050782-35.855469-35.855469-35.855469h-.152344c-19.804687 0-35.855469 16.054688-35.855469 35.855469v94.890625zm0 0" fill="#696453"/><path d="m345.449219 381.253906h-.152344c-.078125 0-.152344.003906-.230469.003906v130.742188h36.238282v-94.890625c0-19.800781-16.050782-35.855469-35.855469-35.855469zm0 0" fill="#4c4a40"/><path d="m345.449219 366.253906h-.152344c-28.042969 0-50.855469 22.8125-50.855469 50.855469v94.890625h30v-94.890625c0-11.5 9.355469-20.855469 20.855469-20.855469h.152344c11.5 0 20.855469 9.355469 20.855469 20.855469v94.890625h30v-94.890625c0-28.042969-22.8125-50.855469-50.855469-50.855469zm0 0" fill="#b0ac9b"/><path d="m345.449219 366.253906h-.152344c-.078125 0-.152344.003906-.230469.003906v30.007813c.078125 0 .152344-.011719.230469-.011719h.152344c11.5 0 20.855469 9.355469 20.855469 20.855469v94.890625h30v-94.890625c0-28.042969-22.8125-50.855469-50.855469-50.855469zm0 0" fill="#a19d8d"/><path d="m345.449219 366.253906h-.152344c-28.042969 0-50.855469 22.8125-50.855469 50.855469v19.738281h101.863282v-19.738281c0-28.042969-22.8125-50.855469-50.855469-50.855469zm0 0" fill="#ffcf2c"/><path d="m345.449219 366.253906h-.152344c-.078125 0-.152344.003906-.230469.003906v70.589844h51.238282v-19.734375c0-28.046875-22.8125-50.859375-50.855469-50.859375zm0 0" fill="#ffa81c"/><path d="m125.507812 241.878906c-8.285156 0-15-6.71875-15-15v-20.015625c0-8.285156 6.714844-15 15-15 8.28125 0 15 6.714844 15 15v20.015625c0 8.28125-6.71875 15-15 15zm0 0" fill="#696453"/><path d="m64.007812 241.878906c-8.285156 0-15-6.71875-15-15v-20.015625c0-8.285156 6.714844-15 15-15 8.28125 0 15 6.714844 15 15v20.015625c0 8.28125-6.71875 15-15 15zm0 0" fill="#696453"/><path d="m125.507812 321.929688c-8.285156 0-15-6.714844-15-15v-20.015626c0-8.28125 6.714844-15 15-15 8.28125 0 15 6.71875 15 15v20.015626c0 8.285156-6.71875 15-15 15zm0 0" fill="#696453"/><path d="m64.007812 321.929688c-8.285156 0-15-6.714844-15-15v-20.015626c0-8.28125 6.714844-15 15-15 8.28125 0 15 6.71875 15 15v20.015626c0 8.285156-6.71875 15-15 15zm0 0" fill="#ffe645"/><path d="m125.507812 401.980469c-8.285156 0-15-6.714844-15-15v-20.011719c0-8.285156 6.714844-15 15-15 8.28125 0 15 6.714844 15 15v20.011719c0 8.285156-6.71875 15-15 15zm0 0" fill="#696453"/><path d="m64.007812 401.980469c-8.285156 0-15-6.714844-15-15v-20.011719c0-8.285156 6.714844-15 15-15 8.28125 0 15 6.714844 15 15v20.011719c0 8.285156-6.71875 15-15 15zm0 0" fill="#696453"/><path d="m311.121094 191.863281c-8.28125 0-15 6.714844-15 15v20.015625c0 8.28125 6.71875 15 15 15 8.285156 0 15-6.71875 15-15v-20.015625c0-8.285156-6.714844-15-15-15zm0 0" fill="#ffff95"/><path d="m239.621094 191.863281c-8.28125 0-15 6.714844-15 15v20.015625c0 8.28125 6.71875 15 15 15 8.285156 0 15-6.71875 15-15v-20.015625c0-8.285156-6.714844-15-15-15zm0 0" fill="#ffff95"/><path d="m311.121094 271.914062c-8.28125 0-15 6.71875-15 15v20.015626c0 8.285156 6.71875 15 15 15 8.285156 0 15-6.714844 15-15v-20.015626c0-8.28125-6.714844-15-15-15zm0 0" fill="#a19d8d"/><path d="m239.621094 271.914062c-8.28125 0-15 6.71875-15 15v20.015626c0 8.285156 6.71875 15 15 15 8.285156 0 15-6.714844 15-15v-20.015626c0-8.28125-6.714844-15-15-15zm0 0" fill="#ffff95"/><g fill="#4c4a40"><path d="m451.121094 191.863281c-8.28125 0-15 6.714844-15 15v20.015625c0 8.28125 6.71875 15 15 15 8.285156 0 15-6.71875 15-15v-20.015625c0-8.285156-6.714844-15-15-15zm0 0"/><path d="m379.621094 191.863281c-8.28125 0-15 6.714844-15 15v20.015625c0 8.28125 6.71875 15 15 15 8.285156 0 15-6.71875 15-15v-20.015625c0-8.285156-6.714844-15-15-15zm0 0"/><path d="m451.121094 271.914062c-8.28125 0-15 6.71875-15 15v20.015626c0 8.285156 6.71875 15 15 15 8.285156 0 15-6.714844 15-15v-20.015626c0-8.28125-6.714844-15-15-15zm0 0"/><path d="m379.621094 271.914062c-8.28125 0-15 6.71875-15 15v20.015626c0 8.285156 6.71875 15 15 15 8.285156 0 15-6.714844 15-15v-20.015626c0-8.28125-6.714844-15-15-15zm0 0"/></g><path d="m451.121094 111.8125c-8.28125 0-15 6.714844-15 15v20.015625c0 8.28125 6.71875 15 15 15 8.285156 0 15-6.71875 15-15v-20.015625c0-8.285156-6.714844-15-15-15zm0 0" fill="#fff566"/><path d="m379.621094 111.8125c-8.28125 0-15 6.714844-15 15v20.015625c0 8.28125 6.71875 15 15 15 8.285156 0 15-6.71875 15-15v-20.015625c0-8.285156-6.714844-15-15-15zm0 0" fill="#4c4a40"/><path d="m298.929688 40.882812c-8.285157 0-15 6.714844-15 15v20.148438h-31.5v-20.148438c0-8.285156-6.71875-15-15-15-8.285157 0-15 6.714844-15 15v70.300782c0 8.285156 6.714843 15 15 15 8.28125 0 15-6.714844 15-15v-20.148438h31.5v20.148438c0 8.285156 6.714843 15 15 15 8.28125 0 15-6.714844 15-15v-70.300782c0-8.285156-6.71875-15-15-15zm0 0" fill="#2698d1"/></svg>