<svg height="512pt" viewBox="0 0 512.00023 512" width="512pt" xmlns="http://www.w3.org/2000/svg"><path d="m352.511719 143.386719c-8.285157 0-15-6.714844-15-15v-58.746094c0-8.28125 6.714843-15 15-15 8.285156 0 15 6.71875 15 15v58.746094c0 8.285156-6.714844 15-15 15zm0 0" fill="#878477"/><path d="m291.585938 161.203125c-8.285157 0-15-6.714844-15-15v-60.226563c0-8.285156 6.714843-15 15-15 8.285156 0 15 6.714844 15 15v60.226563c0 8.285156-6.714844 15-15 15zm0 0" fill="#878477"/><path d="m230.660156 177.585938c-8.285156 0-15-6.714844-15-15v-60.1875c0-8.285157 6.714844-15 15-15s15 6.714843 15 15v60.1875c0 8.285156-6.714844 15-15 15zm0 0" fill="#a19d8d"/><path d="m169.734375 193.972656c-8.285156 0-15-6.71875-15-15v-60.328125c0-8.28125 6.714844-15 15-15s15 6.71875 15 15v60.328125c0 8.28125-6.714844 15-15 15zm0 0" fill="#a19d8d"/><path d="m48.042969 226.695312c-3.265625 0-6.480469-1.066406-9.125-3.097656-3.703125-2.835937-5.875-7.234375-5.875-11.902344v-60.425781c0-6.785156 4.558593-12.726562 11.117187-14.488281l364.972656-97.847656c7.996094-2.148438 16.226563 2.601562 18.371094 10.601562 2.144532 8.003906-2.601562 16.230469-10.605468 18.375l-353.855469 94.867188v29.351562l430.058593-115.648437c8-2.148438 16.230469 2.59375 18.378907 10.589843 2.152343 8-2.589844 16.230469-10.589844 18.382813l-448.953125 120.726563c-1.285156.347656-2.59375.515624-3.894531.515624zm0 0" fill="#c4c0ad"/><path d="m493.101562 76.480469-237.105468 63.761719v31.066406l244.894531-65.855469c8-2.152344 12.742187-10.382813 10.589844-18.382813-2.148438-7.996093-10.378907-12.738281-18.378907-10.589843zm0 0" fill="#b0ac9b"/><path d="m427.503906 49.535156c-2.144531-8-10.375-12.75-18.371094-10.601562l-153.136718 41.054687v31.058594l160.902344-43.136719c8.003906-2.148437 12.75-10.371094 10.605468-18.375zm0 0" fill="#b0ac9b"/><path d="m108.433594 226.695312h-60.390625c-8.285157 0-15-6.714843-15-15v-60.425781c0-6.785156 4.558593-12.726562 11.117187-14.488281l79.273438-20.921875v95.835937c0 8.285157-6.71875 15-15 15zm0 0" fill="#d9260f"/><path d="m496.996094 105.96875h-83.980469c-8.285156 0-15-6.71875-15-15v-75.96875c0-8.285156 6.714844-15 15-15h83.980469c8.285156 0 15 6.714844 15 15v75.96875c0 8.28125-6.714844 15-15 15zm0 0" fill="#878477"/><path d="m15 470.496094c-8.285156 0-15-6.71875-15-15v-243.800782c0-8.285156 6.714844-15 15-15h337.511719c8.285156 0 15 6.714844 15 15v258.800782zm0 0" fill="#ff674f"/><path d="m511.933594 376.453125-9.78125-107.019531c-2.226563-24.355469-22.347656-42.726563-46.796875-42.726563h-102.84375v120.734375h-96.179688v123.054688h96.179688v.4375h144.484375c8.285156 0 15-6.71875 15-15v-78.113282c0-.457031-.019532-.914062-.0625-1.367187zm0 0" fill="#d9260f"/><path d="m503.496094 284.167969h-72.332032c-14.480468 0-26.21875 11.738281-26.21875 26.21875v47.066406c0 5.519531 4.476563 10 10 10h96.164063zm0 0" fill="#2e2c27"/><path d="m352.511719 196.695312h-96.515625v152.125h111.515625v-137.125c0-8.285156-6.714844-15-15-15zm0 0" fill="#f2472c"/><path d="m241.332031 347.441406v123.054688h30v-98.054688c0-5.523437 4.476563-10 10-10h71.179688c8.285156 0 15-6.714844 15-15v-15h-111.179688c-8.285156 0-15 6.714844-15 15zm0 0" fill="#faf9f5"/><path d="m255.996094 332.773438v137.722656h15.335937v-98.054688c0-5.523437 4.476563-10 10-10h71.179688c8.285156 0 15-6.714844 15-15v-15h-111.179688c-.128906.128906-.203125.203125-.335937.332032zm0 0" fill="#d6d3c5"/><path d="m461.445312 466.984375c0-16.574219-13.425781-30.007813-29.992187-30.007813-16.5625 0-29.992187 13.433594-29.992187 30.007813s13.429687 30.011719 29.992187 30.011719c16.566406 0 29.992187-13.4375 29.992187-30.011719zm0 0" fill="#a19d8d"/><path d="m431.453125 511.996094c-24.808594 0-44.992187-20.191406-44.992187-45.011719 0-24.816406 20.183593-45.007813 44.992187-45.007813s44.992187 20.191407 44.992187 45.007813c.003907 24.820313-20.183593 45.011719-44.992187 45.011719zm0-60.019532c-8.265625 0-14.992187 6.730469-14.992187 15.007813s6.726562 15.011719 14.992187 15.011719 14.992187-6.734375 14.992187-15.011719c.003907-8.273437-6.722656-15.007813-14.992187-15.007813zm0 0" fill="#2e2c27"/><path d="m194.046875 466.984375c0-16.574219-13.429687-30.007813-29.996094-30.007813-16.5625 0-29.992187 13.433594-29.992187 30.007813s13.429687 30.011719 29.992187 30.011719c16.566407 0 29.996094-13.4375 29.996094-30.011719zm0 0" fill="#a19d8d"/><path d="m164.050781 511.996094c-24.808593 0-44.992187-20.191406-44.992187-45.011719 0-24.816406 20.183594-45.007813 44.992187-45.007813 24.8125 0 44.996094 20.191407 44.996094 45.007813 0 24.820313-20.183594 45.011719-44.996094 45.011719zm0-60.019532c-8.265625 0-14.992187 6.730469-14.992187 15.007813s6.726562 15.011719 14.992187 15.011719c8.269531 0 14.996094-6.734375 14.996094-15.011719 0-8.273437-6.726563-15.007813-14.996094-15.007813zm0 0" fill="#4c4a40"/><path d="m104.066406 466.984375c0-16.574219-13.429687-30.007813-29.992187-30.007813-16.566407 0-29.992188 13.433594-29.992188 30.007813s13.425781 30.011719 29.992188 30.011719c16.5625 0 29.992187-13.4375 29.992187-30.011719zm0 0" fill="#a19d8d"/><path d="m74.074219 511.996094c-24.8125 0-44.996094-20.191406-44.996094-45.011719 0-24.816406 20.183594-45.007813 44.996094-45.007813 24.808593 0 44.992187 20.191407 44.992187 45.007813 0 24.820313-20.183594 45.011719-44.992187 45.011719zm0-60.019532c-8.269531 0-14.996094 6.730469-14.996094 15.007813s6.726563 15.011719 14.996094 15.011719c8.265625 0 14.992187-6.734375 14.992187-15.011719 0-8.273437-6.726562-15.007813-14.992187-15.007813zm0 0" fill="#4c4a40"/></svg>