<svg height="512pt" viewBox="0 -70 512.00153 512" width="512pt" xmlns="http://www.w3.org/2000/svg"><path d="m497 137.863281h-482c-4.515625 0-8.789062-2.035156-11.636719-5.539062-2.847656-3.5-3.96875-8.101563-3.046875-12.519531l22.46875-107.863282c1.449219-6.957031 7.582032-11.941406 14.6875-11.941406h437.058594c7.105469 0 13.234375 4.988281 14.683594 11.941406l22.472656 107.863282c.917969 4.417968-.199219 9.019531-3.046875 12.523437-2.851563 3.5-7.125 5.535156-11.640625 5.535156zm0 0" fill="#db703d"/><path d="m489.214844 11.941406c-1.449219-6.957031-7.582032-11.941406-14.6875-11.941406h-218.527344v137.863281h241c4.515625 0 8.789062-2.035156 11.636719-5.535156 2.847656-3.503906 3.96875-8.105469 3.046875-12.523437zm0 0" fill="#b85423"/><path d="m130.746094 137.863281 125.253906-137.863281 125.253906 137.863281zm0 0" fill="#faa465"/><path d="m256 137.863281h125.253906l-125.253906-137.863281zm0 0" fill="#f58e4e"/><path d="m497 371.777344h-482c-8.285156 0-15-6.714844-15-15v-233.914063h512v233.914063c0 8.285156-6.714844 15-15 15zm0 0" fill="#edeade"/><path d="m256 371.777344h241c8.285156 0 15-6.714844 15-15v-233.914063h-256zm0 0" fill="#d6d3c5"/><path d="m367.058594 371.773438h-223.25v-248.910157h223.25zm0 0" fill="#fff"/><path d="m255.433594 122.863281h111.625v248.910157h-111.625zm0 0" fill="#edeade"/><path d="m225.25 228.789062c-8.285156 0-15-6.71875-15-15v-20c0-8.285156 6.714844-15 15-15s15 6.714844 15 15v20c0 8.28125-6.714844 15-15 15zm0 0" fill="#a19d8d"/><path d="m286.75 228.789062c-8.285156 0-15-6.71875-15-15v-20c0-8.285156 6.714844-15 15-15s15 6.714844 15 15v20c0 8.28125-6.714844 15-15 15zm0 0" fill="#696453"/><path d="m439.53125 228.789062c-8.285156 0-15-6.71875-15-15v-20c0-8.285156 6.714844-15 15-15 8.28125 0 15 6.714844 15 15v20c0 8.28125-6.71875 15-15 15zm0 0" fill="#696453"/><path d="m71.902344 228.789062c-8.28125 0-15-6.71875-15-15v-20c0-8.285156 6.71875-15 15-15 8.285156 0 15 6.714844 15 15v20c0 8.28125-6.714844 15-15 15zm0 0" fill="#787465"/><path d="m439.53125 308.789062c-8.285156 0-15-6.71875-15-15v-20c0-8.285156 6.714844-15 15-15 8.28125 0 15 6.714844 15 15v20c0 8.28125-6.71875 15-15 15zm0 0" fill="#696453"/><path d="m71.902344 308.789062c-8.28125 0-15-6.71875-15-15v-20c0-8.285156 6.71875-15 15-15 8.285156 0 15 6.714844 15 15v20c0 8.28125-6.714844 15-15 15zm0 0" fill="#787465"/><path d="m255.433594 300.78125c-8.285156 0-15 6.71875-15 15v55.992188h30v-55.992188c0-8.28125-6.714844-15-15-15zm0 0" fill="#b56714"/><path d="m270.433594 371.773438v-55.992188c0-8.28125-6.714844-15-15-15v70.992188zm0 0" fill="#7d3607"/></svg>