<svg height="512pt" viewBox="0 -78 512 512" width="512pt" xmlns="http://www.w3.org/2000/svg"><path d="m90.007812 105h30v96h-30zm0 0" fill="#b56714"/><path d="m391.992188 105h30v96h-30zm0 0" fill="#a15615"/><path d="m75.007812 355.996094c-8.28125 0-15-6.714844-15-15v-109.996094h30v109.996094c0 8.285156-6.714843 15-15 15zm0 0" fill="#a15615"/><path d="m436.992188 355.996094c-8.285157 0-15-6.714844-15-15v-109.996094h30v109.996094c0 8.285156-6.714844 15-15 15zm0 0" fill="#8c4408"/><path d="m466 120h-420c-8.285156 0-15-6.714844-15-15v-90c0-8.285156 6.714844-15 15-15h420c8.285156 0 15 6.714844 15 15v90c0 8.285156-6.714844 15-15 15zm0 0" fill="#e38b39"/><path d="m466 0h-210v120h210c8.285156 0 15-6.714844 15-15v-90c0-8.285156-6.714844-15-15-15zm0 0" fill="#cc7927"/><path d="m497 246h-482c-8.285156 0-15-6.714844-15-15v-30c0-8.285156 6.714844-15 15-15h482c8.285156 0 15 6.714844 15 15v30c0 8.285156-6.714844 15-15 15zm0 0" fill="#f29d4e"/><path d="m497 186h-241v60h241c8.285156 0 15-6.714844 15-15v-30c0-8.285156-6.714844-15-15-15zm0 0" fill="#e38b39"/><path d="m105.019531 75c-8.285156 0-15.003906-6.714844-15.003906-15s6.710937-15 14.992187-15h.011719c8.285157 0 15 6.714844 15 15s-6.714843 15-15 15zm0 0" fill="#a15615"/><path d="m407 75c-8.28125 0-15.003906-6.714844-15.003906-15s6.710937-15 14.996094-15h.007812c8.285156 0 15 6.714844 15 15s-6.714844 15-15 15zm0 0" fill="#8c4408"/></svg>