<svg height="512pt" viewBox="-67 0 512 512.00017" width="512pt" xmlns="http://www.w3.org/2000/svg"><path d="m155.019531 407.203125h67.195313v89.769531h-67.195313zm0 0" fill="#b0ac9b"/><path d="m188.617188 407.203125h33.597656v89.769531h-33.597656zm0 0" fill="#878477"/><path d="m262.527344 512h-147.820313c-8.300781 0-15.03125-6.730469-15.03125-15.027344 0-8.300781 6.730469-15.03125 15.03125-15.03125h147.820313c8.300781 0 15.027344 6.730469 15.027344 15.03125 0 8.296875-6.726563 15.027344-15.027344 15.027344zm0 0" fill="#d6d3c5"/><path d="m262.527344 481.941406h-73.910156v30.058594h73.910156c8.300781 0 15.027344-6.730469 15.027344-15.027344 0-8.300781-6.726563-15.03125-15.027344-15.03125zm0 0" fill="#b0ac9b"/><path d="m155.019531 249.910156h67.195313v66.027344h-67.195313zm0 0" fill="#b0ac9b"/><path d="m188.617188 249.910156h33.597656v66.027344h-33.597656zm0 0" fill="#878477"/><path d="m280.210938 422.230469h-183.191407c-53.496093 0-97.019531-43.523438-97.019531-97.019531v-9.273438c0-8.300781 6.730469-15.03125 15.03125-15.03125h347.171875c8.300781 0 15.027344 6.730469 15.027344 15.03125v9.273438c0 53.496093-43.523438 97.019531-97.019531 97.019531zm0 0" fill="#d6d3c5"/><path d="m362.203125 300.90625h-173.585937v121.324219h91.59375c53.496093 0 97.019531-43.523438 97.019531-97.019531v-9.273438c0-8.300781-6.726563-15.03125-15.027344-15.03125zm0 0" fill="#b0ac9b"/><path d="m188.609375 186.871094c-8.300781 0-15.03125-6.730469-15.03125-15.03125v-36.527344c0-8.300781 6.730469-15.03125 15.03125-15.03125s15.027344 6.730469 15.027344 15.03125v36.527344c0 8.300781-6.726563 15.03125-15.027344 15.03125zm0 0" fill="#b0ac9b"/><path d="m188.617188 120.28125v66.585938c8.296874-.003907 15.019531-6.730469 15.019531-15.027344v-36.527344c0-8.296875-6.722657-15.027344-15.019531-15.03125zm0 0" fill="#878477"/><path d="m210.121094 264.9375h-43.011719c-46.960937 0-85.164063-38.207031-85.164063-85.167969v-7.929687c0-8.300782 6.726563-15.03125 15.027344-15.03125h183.285156c8.300782 0 15.03125 6.730468 15.03125 15.03125v7.929687c0 46.964844-38.207031 85.167969-85.167968 85.167969zm0 0" fill="#d6d3c5"/><path d="m280.257812 156.808594h-91.640624v108.128906h21.503906c46.960937 0 85.167968-38.207031 85.167968-85.167969v-7.929687c0-8.300782-6.730468-15.03125-15.03125-15.03125zm0 0" fill="#b0ac9b"/><path d="m52.777344 66.285156c-2.527344 0-5.09375-.640625-7.445313-1.984375-7.207031-4.121093-9.707031-13.300781-5.585937-20.507812 4.03125-7.050781 9.03125-13.507813 14.859375-19.203125 5.9375-5.796875 15.457031-5.683594 21.253906.253906 5.800781 5.941406 5.6875 15.457031-.253906 21.253906-3.835938 3.742188-7.121094 7.988282-9.769531 12.617188-2.773438 4.851562-7.84375 7.570312-13.058594 7.570312zm90.144531-31.445312c-1.851563 0-3.734375-.34375-5.558594-1.070313-4.949219-1.972656-10.164062-3.246093-15.492187-3.785156-8.257813-.835937-14.277344-8.207031-13.441406-16.464844.832031-8.257812 8.199218-14.277343 16.464843-13.441406 8.109375.820313 16.050781 2.757813 23.597657 5.765625 7.710937 3.074219 11.46875 11.816406 8.394531 19.527344-2.34375 5.886718-7.992188 9.46875-13.964844 9.46875zm0 0" fill="#b2e7ff"/><path d="m43.316406 137.933594c-8.300781 0-15.03125-6.730469-15.03125-15.03125v-9.519532c0-8.296874 6.730469-15.027343 15.03125-15.027343 8.296875 0 15.027344 6.730469 15.027344 15.027343v9.519532c0 8.300781-6.730469 15.03125-15.027344 15.03125zm0 0" fill="#b2e7ff"/><path d="m333.917969 137.9375c-8.300781 0-15.03125-6.730469-15.03125-15.03125v-9.519531c0-8.296875 6.730469-15.027344 15.03125-15.027344s15.027343 6.730469 15.027343 15.027344v9.519531c0 8.300781-6.726562 15.03125-15.027343 15.03125zm0 0" fill="#8fd4ff"/><path d="m324.46875 66.316406c-5.214844 0-10.289062-2.71875-13.0625-7.574218-2.644531-4.632813-5.929688-8.878907-9.761719-12.625-5.9375-5.800782-6.046875-15.316407-.246093-21.253907 5.800781-5.9375 15.316406-6.046875 21.253906-.242187 5.824218 5.691406 10.824218 12.152344 14.851562 19.207031 4.121094 7.207031 1.617188 16.386719-5.589844 20.503906-2.355468 1.347657-4.914062 1.984375-7.445312 1.984375zm-90.140625-31.480468c-5.972656 0-11.625-3.585938-13.96875-9.476563-3.070313-7.710937.695313-16.449219 8.40625-19.519531 7.550781-3.007813 15.492187-4.945313 23.601563-5.761719 8.269531-.839844 15.628906 5.191406 16.460937 13.449219.832031 8.257812-5.191406 15.625-13.449219 16.457031-5.328125.539063-10.542968 1.808594-15.496094 3.78125-1.824218.726563-3.703124 1.070313-5.554687 1.070313zm0 0" fill="#8fd4ff"/><path d="m196.71875 50.144531c-3.101562-1-6.28125-.925781-9.164062-.007812-2.882813-.917969-6.0625-.988281-9.15625.007812-7.902344 2.546875-12.242188 11.015625-9.695313 18.914063.765625 2.382812 1.382813 4.835937 1.824219 7.292968 1.316406 7.265626 7.644531 12.359376 14.773437 12.359376.742188 0 1.496094-.070313 2.25-.183594.757813.113281 1.511719.183594 2.257813.183594 7.132812 0 13.460937-5.097657 14.773437-12.359376.445313-2.460937 1.058594-4.914062 1.824219-7.289062 2.550781-7.898438-1.789062-16.367188-9.6875-18.917969zm0 0" fill="#b2e7ff"/><path d="m189.808594 88.710938c7.132812 0 13.460937-5.097657 14.773437-12.359376.445313-2.460937 1.058594-4.914062 1.824219-7.289062 2.550781-7.898438-1.789062-16.367188-9.6875-18.917969-3.101562-1-6.28125-.925781-9.164062-.007812v38.390625c.757812.113281 1.507812.183594 2.253906.183594zm0 0" fill="#8fd4ff"/></svg>