<svg height="512pt" viewBox="0 -17 512 512" width="512pt" xmlns="http://www.w3.org/2000/svg"><path d="m467.234375 30h-136.0625c-8.285156 0-15-6.714844-15-15s6.714844-15 15-15h136.0625c8.285156 0 15 6.714844 15 15s-6.714844 15-15 15zm0 0" fill="#8fd4ff"/><path d="m293.011719 88.621094h-46.261719c-8.285156 0-15-6.714844-15-15s6.714844-15 15-15h46.261719c8.285156 0 15 6.714844 15 15s-6.714844 15-15 15zm0 0" fill="#b2e7ff"/><path d="m293.011719 58.621094h-23.128907v30h23.128907c8.285156 0 15-6.714844 15-15s-6.714844-15-15-15zm0 0" fill="#8fd4ff"/><path d="m434.628906 477.382812c-8.285156 0-15-6.714843-15-15v-182.453124c0-8.285157 6.714844-15 15-15 8.28125 0 15 6.714843 15 15v182.453124c0 8.285157-6.71875 15-15 15zm0 0" fill="#b56714"/><path d="m434.628906 264.929688h-.003906v212.453124h.003906c8.28125 0 15-6.714843 15-15v-182.453124c0-8.285157-6.71875-15-15-15zm0 0" fill="#7d3607"/><path d="m434.757812 335.335938h-.261718c-42.585938 0-77.234375-34.648438-77.234375-77.234376v-75.238281c0-42.585937 34.648437-77.234375 77.234375-77.234375h.261718c42.585938 0 77.230469 34.648438 77.230469 77.234375v75.238281c0 42.585938-34.644531 77.234376-77.230469 77.234376zm0 0" fill="#b4d241"/><path d="m434.757812 105.628906h-.132812v229.707032h.132812c42.585938 0 77.230469-34.648438 77.230469-77.234376v-75.238281c0-42.585937-34.644531-77.234375-77.230469-77.234375zm0 0" fill="#8aa818"/><path d="m103.664062 424.511719c-3.0625 0-6.15625-.933594-8.824218-2.878907l-37.480469-27.332031c-6.691406-4.878906-8.164063-14.265625-3.28125-20.957031 4.878906-6.695312 14.261719-8.164062 20.957031-3.28125l37.480469 27.328125c6.695313 4.882813 8.164063 14.265625 3.285156 20.960937-2.9375 4.023438-7.503906 6.160157-12.136719 6.160157zm0 0" fill="#8c4408"/><path d="m103.679688 477.429688c-8.285157 0-15-6.71875-15-15v-244.871094c0-8.28125 6.714843-15 15-15 8.285156 0 15 6.71875 15 15v244.871094c0 8.28125-6.714844 15-15 15zm0 0" fill="#cc7927"/><path d="m103.679688 202.558594c-.0625 0-.121094.007812-.183594.011718v274.847657c.0625.003906.121094.011719.183594.011719 8.285156 0 15-6.71875 15-15v-244.871094c0-8.28125-6.714844-15-15-15zm0 0" fill="#8c4408"/><path d="m103.863281 333.414062h-.367187c-57.066406 0-103.496094-46.425781-103.496094-103.492187v-106.988281c0-57.066406 46.429688-103.496094 103.496094-103.496094h.367187c57.066407 0 103.492188 46.429688 103.492188 103.496094v106.988281c0 57.066406-46.425781 103.492187-103.492188 103.492187zm0 0" fill="#c5ed4e"/><path d="m103.863281 333.414062c57.066407 0 103.492188-46.425781 103.492188-103.492187v-106.988281c0-57.066406-46.425781-103.496094-103.492188-103.496094h-.367187v313.976562zm0 0" fill="#b4d241"/><path d="m211.996094 418.457031c-8.28125 0-15-6.714843-15-15v-59.507812c0-8.285157 6.71875-15 15-15 8.285156 0 15 6.714843 15 15v59.507812c0 8.285157-6.714844 15-15 15zm0 0" fill="#f58e4e"/><path d="m327.765625 418.457031c-8.285156 0-15-6.714843-15-15v-59.507812c0-8.285157 6.714844-15 15-15 8.28125 0 15 6.714843 15 15v59.507812c0 8.285157-6.71875 15-15 15zm0 0" fill="#cc7927"/><path d="m195.03125 477.425781c-8.285156 0-15-6.71875-15-15v-58.96875c0-8.285156 6.714844-15 15-15s15 6.714844 15 15v58.96875c0 8.28125-6.714844 15-15 15zm0 0" fill="#b56714"/><path d="m344.730469 477.425781c-8.285157 0-15-6.71875-15-15v-58.96875c0-8.285156 6.714843-15 15-15 8.28125 0 15 6.714844 15 15v58.96875c0 8.28125-6.714844 15-15 15zm0 0" fill="#a15615"/><path d="m363 418.457031h-186.238281c-8.285157 0-15-6.714843-15-15 0-8.285156 6.714843-15 15-15h186.238281c8.285156 0 15 6.714844 15 15 0 8.285157-6.714844 15-15 15zm0 0" fill="#faa465"/><path d="m363 388.457031h-93.121094v30h93.121094c8.285156 0 15-6.714843 15-15 0-8.285156-6.714844-15-15-15zm0 0" fill="#f58e4e"/><path d="m344.730469 358.949219h-149.699219c-8.285156 0-15-6.71875-15-15 0-8.285157 6.714844-15 15-15h149.699219c8.28125 0 15 6.714843 15 15 0 8.28125-6.714844 15-15 15zm0 0" fill="#ffbe85"/><path d="m344.730469 328.949219h-74.851563v30h74.851563c8.28125 0 15-6.71875 15-15 0-8.285157-6.714844-15-15-15zm0 0" fill="#faa465"/><path d="m497 477.429688h-482c-8.285156 0-15-6.71875-15-15 0-8.285157 6.714844-15 15-15h482c8.285156 0 15 6.714843 15 15 0 8.28125-6.714844 15-15 15zm0 0" fill="#9ebd2a"/><path d="m497 447.429688h-227.121094v30h227.121094c8.285156 0 15-6.71875 15-15 0-8.285157-6.714844-15-15-15zm0 0" fill="#8aa818"/></svg>