<svg height="512pt" viewBox="0 0 512 512" width="512pt" xmlns="http://www.w3.org/2000/svg"><path d="m496.992188 512h-481.992188c-8.285156 0-15-6.714844-15-15v-104.976562h511.992188v104.976562c0 8.285156-6.714844 15-15 15zm0 0" fill="#d6d3c5"/><path d="m255.996094 512h240.996094c8.285156 0 15-6.714844 15-15v-104.976562h-255.996094zm0 0" fill="#c4c0ad"/><path d="m255.996094 482.023438c-8.28125 0-15-6.714844-15-15v-293.609376c0-8.28125 6.71875-15 15-15 8.285156 0 15.003906 6.71875 15.003906 15v293.609376c0 8.285156-6.71875 15-15.003906 15zm0 0" fill="#a19d8d"/><path d="m271 467.023438v-293.609376c0-8.28125-6.71875-15-15.003906-15v323.609376c8.285156 0 15.003906-6.714844 15.003906-15zm0 0" fill="#787465"/><path d="m255.996094 188.414062c-51.945313 0-94.207032-42.261718-94.207032-94.207031 0-51.945312 42.261719-94.207031 94.207032-94.207031 51.949218 0 94.210937 42.261719 94.210937 94.207031 0 51.945313-42.261719 94.207031-94.210937 94.207031zm0 0" fill="#ff674f"/><path d="m255.996094 188.414062c51.949218 0 94.210937-42.261718 94.210937-94.207031 0-51.945312-42.261719-94.207031-94.210937-94.207031zm0 0" fill="#d9260f"/><path d="m295.207031 109.207031h-78.417969c-8.28125 0-15-6.714843-15-15 0-8.285156 6.71875-15 15-15h78.417969c8.28125 0 15 6.714844 15 15 0 8.285157-6.71875 15-15 15zm0 0" fill="#edeade"/><path d="m295.207031 79.207031h-39.210937v30h39.210937c8.28125 0 15-6.714843 15-15 0-8.285156-6.71875-15-15-15zm0 0" fill="#d6d3c5"/><g fill="#878477"><path d="m159.996094 452.023438h-72c-8.285156 0-15-6.714844-15-15 0-8.285157 6.714844-15 15-15h72c8.285156 0 15 6.714843 15 15 0 8.285156-6.714844 15-15 15zm0 0"/><path d="m408 482.007812h-33c-8.285156 0-15-6.714843-15-15 0-8.285156 6.714844-15 15-15h33c8.285156 0 15 6.714844 15 15 0 8.285157-6.714844 15-15 15zm0 0"/></g></svg>