<svg height="512pt" viewBox="0 0 512 512.001" width="512pt" xmlns="http://www.w3.org/2000/svg"><path d="m424.363281 493.707031c-15.691406 0-31.648437-4.234375-46.328125-12.457031-20.976562-11.746094-37.523437-30.828125-46.597656-53.734375-2.65625-6.703125-5.050781-14.019531-7.367188-21.09375-10.480468-32-18.25-51.429687-37.707031-51.429687-6.167969 0-14.132812 1.085937-17.070312 6.269531-3.050781 5.382812-1.796875 15.679687 2.855469 23.449219 4.257812 7.105468 1.945312 16.320312-5.164063 20.574218-7.105469 4.257813-16.320313 1.945313-20.574219-5.164062-4.46875-7.460938-7.464844-16.359375-8.4375-25.050782-1.183594-10.597656.621094-20.488281 5.222656-28.601562 10.589844-18.6875 31.589844-21.476562 43.164063-21.476562 19.324219 0 35.046875 8.910156 46.738281 26.484374 8.945313 13.441407 14.300782 29.792969 19.480469 45.605469 2.277344 6.957031 4.429687 13.527344 6.75 19.386719 6.542969 16.507812 18.390625 30.21875 33.363281 38.605469 14.125 7.910156 29.683594 10.5 43.804688 7.289062 28.910156-6.570312 45.488281-24.203125 45.488281-48.371093 0-56.167969-44.3125-59.011719-53.195313-59.011719-16.351562 0-20.714843 13.210937-20.714843 21.019531 0 5.125 1.601562 9.722656 4.511719 12.945312 3.230468 3.578126 8.078124 5.390626 14.414062 5.390626 8.285156 0 15 6.714843 15 15 0 8.285156-6.714844 15-15 15-18.910156 0-30.386719-8.3125-36.679688-15.285157-7.898437-8.746093-12.246093-20.484375-12.246093-33.054687 0-24.730469 17.773437-51.019532 50.714843-51.019532 35.128907 0 54.9375 16.925782 65.371094 31.125 15.511719 21.113282 17.828125 45.332032 17.828125 57.886719 0 19.386719-6.691406 36.902344-19.34375 50.65625-11.964843 13.003907-29.078125 22.332031-49.496093 26.972657-6.152344 1.398437-12.445313 2.089843-18.785157 2.089843zm0 0" fill="#4c4a40"/><path d="m497 354.980469h-303.230469c-8.285156 0-15-6.71875-15-15 0-8.285157 6.714844-15 15-15h303.230469c8.285156 0 15 6.714843 15 15 0 8.285156-6.714844 15-15 15zm0 0" fill="#4c4a40"/><path d="m497 511.988281c-8.285156 0-15-6.714843-15-15v-260.628906c0-8.285156 6.714844-15 15-15s15 6.714844 15 15v260.628906c0 8.285157-6.714844 15-15 15zm0 0" fill="#696453"/><path d="m186.816406 385.917969-8.628906 108.636719c-1.023438 9.910156-9.398438 17.445312-19.394531 17.445312h-.003907c-9.996093 0-18.371093-7.535156-19.398437-17.445312l-9.363281-109.308594" fill="#878477"/><path d="m158.789062 512h.003907c9.996093 0 18.371093-7.535156 19.398437-17.445312l8.628906-108.636719-28.027343-.332031v126.414062zm0 0" fill="#696453"/><path d="m158.769531 399.980469h-.210937c-19.332032 0-35-15.671875-35-35v-25h70.210937v25c0 19.328125-15.671875 35-35 35zm0 0" fill="#696453"/><path d="m158.789062 399.976562c19.320313-.011718 34.980469-15.675781 34.980469-34.996093v-25h-34.980469zm0 0" fill="#4c4a40"/><path d="m229 339.980469h-140.421875l-40.121094-207.242188h220.664063zm0 0" fill="#ffff95"/><path d="m158.789062 339.980469h70.210938l40.121094-207.242188h-110.332032zm0 0" fill="#ffcf2c"/><path d="m280.695312 123.191406c-2.851562-3.453125-7.09375-5.457031-11.574218-5.457031h-220.664063c-4.476562 0-8.71875 2-11.570312 5.457031-2.847657 3.453125-4.007813 8-3.15625 12.398438l40.121093 207.242187c1.367188 7.054688 7.542969 12.148438 14.726563 12.148438h140.425781c7.183594 0 13.359375-5.09375 14.726563-12.148438l40.121093-207.242187c.847657-4.398438-.308593-8.945313-3.15625-12.398438zm-97.527343 24.546875-8.578125 177.242188h-31.597656l-8.578126-177.242188zm-116.527344 0h37.738281l8.578125 177.242188h-12.003906zm149.988281 177.242188h-12.003906l8.578125-177.246094h37.738281zm0 0" fill="#878477"/><path d="m269.121094 117.738281h-110.332032v30h24.378907l-8.578125 177.242188h-15.800782v30h70.210938c7.1875 0 13.363281-5.09375 14.726562-12.148438l40.121094-207.242187c.851563-4.398438-.304687-8.945313-3.152344-12.398438-2.851562-3.453125-7.09375-5.453125-11.574218-5.453125zm-52.492188 207.242188h-12.003906l8.578125-177.246094h37.738281zm0 0" fill="#696453"/><path d="m158.664062 62.996094c-8.285156 0-15-6.714844-15-15v-32.996094c0-8.285156 6.714844-15 15-15 8.285157 0 15 6.714844 15 15v32.996094c0 8.285156-6.714843 15-15 15zm0 0" fill="#878477"/><path d="m158.789062.0078125v62.9843755c8.226563-.070313 14.875-6.753907 14.875-14.996094v-32.996094c0-8.242188-6.648437-14.9257812-14.875-14.9921875zm0 0" fill="#696453"/><path d="m302.328125 147.738281h-287.328125c-8.285156 0-15-6.71875-15-15 0-8.285156 6.714844-15 15-15 19.296875 0 33.644531-20.582031 42.28125-37.847656 14.46875-28.921875 43.652344-46.894531 76.164062-46.894531h49.230469c32.871094 0 62.289063 18.449218 76.78125 48.144531 11.847657 24.285156 26.273438 36.597656 42.871094 36.597656 8.28125 0 15 6.714844 15 15 0 8.28125-6.714844 15-15 15zm0 0" fill="#a19d8d"/><path d="m302.328125 117.738281c-16.597656 0-31.023437-12.3125-42.871094-36.597656-14.488281-29.695313-43.910156-48.144531-76.78125-48.144531h-23.886719v114.742187h143.539063c8.28125 0 15-6.71875 15-15 0-8.285156-6.714844-15-15-15zm0 0" fill="#878477"/></svg>