<svg height="512pt" viewBox="-34 0 511 512" width="512pt" xmlns="http://www.w3.org/2000/svg"><path d="m227.90625 512c-8.285156 0-15-6.714844-15-15v-482c0-8.285156 6.714844-15 15-15s15 6.714844 15 15v482c0 8.285156-6.714844 15-15 15zm0 0" fill="#d6d3c5"/><path d="m92.410156 134.960938c-27.242187 0-49.40625-22.164063-49.40625-49.40625 0-27.242188 22.164063-49.40625 49.40625-49.40625 27.242188 0 49.40625 22.164062 49.40625 49.40625 0 27.242187-22.164062 49.40625-49.40625 49.40625zm0 0" fill="#ffd5b8"/><path d="m141.816406 85.554688c0-27.242188-22.164062-49.40625-49.40625-49.40625v98.8125c27.242188 0 49.40625-22.164063 49.40625-49.40625zm0 0" fill="#ffbea0"/><path d="m58.003906 475.867188c-8.285156 0-15-6.71875-15-15v-128.253907c0-8.285156 6.714844-15 15-15s15 6.714844 15 15v128.253907c0 8.28125-6.714844 15-15 15zm0 0" fill="#ffd5b8"/><path d="m126.816406 475.867188c-8.285156 0-15-6.71875-15-15v-128.253907c0-8.285156 6.714844-15 15-15s15 6.714844 15 15v128.253907c0 8.28125-6.714844 15-15 15zm0 0" fill="#ffbea0"/><path d="m151.757812 347.609375h-118.695312c-4.460938 0-8.691406-1.984375-11.539062-5.414063-2.851563-3.433593-4.027344-7.953124-3.207032-12.335937l9.121094-48.851563h-11.9375c-5.074219 0-9.800781-2.5625-12.570312-6.8125-2.765626-4.25-3.199219-9.609374-1.148438-14.25l41.890625-94.828124c8.519531-19.289063 27.652344-31.753907 48.738281-31.753907 21.089844 0 40.21875 12.464844 48.742188 31.757813l41.890625 94.828125c2.046875 4.636719 1.613281 9.996093-1.152344 14.246093-2.769531 4.25-7.5 6.8125-12.570313 6.8125h-11.941406l9.125 48.851563c.820313 4.382813-.355468 8.90625-3.207031 12.335937-2.847656 3.429688-7.078125 5.414063-11.539063 5.414063zm0 0" fill="#ff8b6e"/><path d="m151.757812 347.609375c4.460938 0 8.691407-1.984375 11.539063-5.414063 2.851563-3.433593 4.027344-7.953124 3.207031-12.335937l-9.125-48.851563h11.941406c5.070313 0 9.800782-2.5625 12.566407-6.8125 2.769531-4.25 3.203125-9.609374 1.152343-14.25l-41.890624-94.828124c-8.519532-19.289063-27.652344-31.753907-48.738282-31.753907v214.246094zm0 0" fill="#f2472c"/><path d="m361.984375 134.960938c-27.246094 0-49.40625-22.164063-49.40625-49.40625 0-27.242188 22.160156-49.40625 49.40625-49.40625 27.242187 0 49.40625 22.164062 49.40625 49.40625 0 27.242187-22.164063 49.40625-49.40625 49.40625zm0 0" fill="#ffd5b8"/><path d="m411.390625 85.554688c0-27.242188-22.164063-49.40625-49.40625-49.40625v98.8125c27.242187 0 49.40625-22.164063 49.40625-49.40625zm0 0" fill="#ffbea0"/><path d="m323.15625 312.597656-9.972656-17.589844h-14.464844c-3.984375 0-7.804688-1.585937-10.617188-4.40625-2.816406-2.824218-4.394531-6.644531-4.382812-10.628906l.21875-92.359375c.070312-30.253906 24.742188-54.867187 55-54.867187h49.148438c14.714843 0 28.542968 5.734375 38.9375 16.152344 10.394531 10.417968 16.097656 24.261718 16.0625 38.976562l-.21875 92.167969c-.019532 8.269531-6.726563 14.960937-15 14.960937h-15.820313l-10.078125 17.648438zm0 0" fill="#72c5fc"/><path d="m388.085938 132.746094h-26.105469v179.878906l39.988281.027344 10.078125-17.644532h15.820313c8.269531 0 14.980468-6.695312 15-14.964843l.21875-92.167969c.035156-14.714844-5.671876-28.554688-16.0625-38.972656-10.394532-10.421875-24.222657-16.15625-38.9375-16.15625zm0 0" fill="#37a8e5"/><path d="m313.183594 295.007812-.027344 27.582032v.019531 138.253906c0 8.285157 6.714844 15 15 15 8.28125 0 15-6.714843 15-15v-138.25l38.8125.023438v138.230469c0 8.285156 6.714844 15 15 15s15-6.714844 15-15v-138.214844l.078125-27.644532zm0 0" fill="#1a82c7"/><path d="m362.601562 322.625 19.367188.011719v138.230469c0 8.28125 6.714844 15 15 15s15-6.71875 15-15v-138.214844l.078125-27.644532h-49.445313zm0 0" fill="#004373"/></svg>