<svg height="512pt" viewBox="0 0 512 512" width="512pt" xmlns="http://www.w3.org/2000/svg"><path d="m393.621094 429.894531h30v67.101563h-30zm0 0" fill="#7d3607"/><path d="m411.179688 444.894531h-5.117188c-23.472656 0-42.566406-19.09375-42.566406-42.566406v-40.9375c0-23.472656 19.09375-42.566406 42.566406-42.566406h5.117188c23.472656 0 42.566406 19.09375 42.566406 42.566406v40.9375c0 23.472656-19.097656 42.566406-42.566406 42.566406zm0 0" fill="#9ebd2a"/><path d="m411.179688 318.824219h-2.558594v126.070312h2.558594c23.472656 0 42.566406-19.09375 42.566406-42.566406v-40.941406c0-23.46875-19.097656-42.5625-42.566406-42.5625zm0 0" fill="#8aa818"/><path d="m496.234375 89.996094h-98.648437c-8.285157 0-15-6.714844-15-15 0-8.28125 6.714843-15 15-15h98.648437c8.285156 0 15 6.71875 15 15 0 8.285156-6.714844 15-15 15zm0 0" fill="#b2e7ff"/><path d="m355.410156 189h-97.894531c-8.285156 0-15-6.714844-15-15s6.714844-15 15-15h97.894531c8.28125 0 15 6.714844 15 15s-6.71875 15-15 15zm0 0" fill="#b2e7ff"/><path d="m257.003906 511.996094h-242.003906c-8.285156 0-15-6.714844-15-15v-481.996094c0-8.285156 6.714844-15 15-15h242.003906c8.28125 0 15 6.714844 15 15v481.996094c0 8.285156-6.71875 15-15 15zm0 0" fill="#edeade"/><path d="m257.003906 0h-120.992187v511.996094h120.992187c8.28125 0 15-6.714844 15-15v-481.996094c0-8.285156-6.71875-15-15-15zm0 0" fill="#c4c0ad"/><path d="m67.257812 425.003906c-8.285156 0-15 6.71875-15 15v58.992188h30v-58.992188c0-8.285156-6.714843-15-15-15zm0 0" fill="#7d3607"/><path d="m136.011719 334.003906c-8.285157 0-15-6.71875-15-15v-16c0-8.285156 6.714843-15 15-15 8.285156 0 15 6.714844 15 15v16c0 8.28125-6.714844 15-15 15zm0 0" fill="#787465"/><path d="m136.011719 258c-8.285157 0-15-6.714844-15-15v-16c0-8.28125 6.714843-15 15-15 8.285156 0 15 6.71875 15 15v16c0 8.285156-6.714844 15-15 15zm0 0" fill="#787465"/><path d="m136.011719 182c-8.285157 0-15-6.71875-15-15v-16c0-8.285156 6.714843-15 15-15 8.285156 0 15 6.714844 15 15v16c0 8.28125-6.714844 15-15 15zm0 0" fill="#787465"/><path d="m136.011719 105.996094c-8.285157 0-15-6.714844-15-15v-16c0-8.28125 6.714843-15 15-15 8.285156 0 15 6.71875 15 15v16c0 8.285156-6.714844 15-15 15zm0 0" fill="#787465"/><path d="m136.011719 410.003906c-8.285157 0-15-6.714844-15-15v-16c0-8.285156 6.714843-15 15-15 8.285156 0 15 6.714844 15 15v16c0 8.285156-6.714844 15-15 15zm0 0" fill="#787465"/><g fill="#4c4a40"><path d="m207.265625 334.003906c-8.285156 0-15-6.71875-15-15v-16c0-8.285156 6.714844-15 15-15s15 6.714844 15 15v16c0 8.28125-6.714844 15-15 15zm0 0"/><path d="m207.265625 258c-8.285156 0-15-6.714844-15-15v-16c0-8.28125 6.714844-15 15-15s15 6.71875 15 15v16c0 8.285156-6.714844 15-15 15zm0 0"/><path d="m207.265625 182c-8.285156 0-15-6.71875-15-15v-16c0-8.285156 6.714844-15 15-15s15 6.714844 15 15v16c0 8.28125-6.714844 15-15 15zm0 0"/><path d="m207.265625 105.996094c-8.285156 0-15-6.714844-15-15v-16c0-8.28125 6.714844-15 15-15s15 6.71875 15 15v16c0 8.285156-6.714844 15-15 15zm0 0"/><path d="m207.265625 410.003906c-8.285156 0-15-6.714844-15-15v-16c0-8.285156 6.714844-15 15-15s15 6.714844 15 15v16c0 8.285156-6.714844 15-15 15zm0 0"/><path d="m151.011719 395.003906v-16c0-8.285156-6.714844-15-15-15v46c8.285156 0 15-6.714844 15-15zm0 0"/><path d="m151.011719 319.003906v-16c0-8.285156-6.714844-15-15-15v46c8.285156 0 15-6.71875 15-15zm0 0"/><path d="m151.011719 243v-16c0-8.28125-6.714844-15-15-15v46c8.285156 0 15-6.714844 15-15zm0 0"/><path d="m151.011719 167v-16c0-8.285156-6.714844-15-15-15v46c8.285156 0 15-6.71875 15-15zm0 0"/><path d="m151.011719 90.996094v-16c0-8.28125-6.714844-15-15-15v46c8.285156 0 15-6.714844 15-15zm0 0"/></g><path d="m65.761719 334.003906c-8.28125 0-15-6.71875-15-15v-16c0-8.285156 6.71875-15 15-15 8.285156 0 15 6.714844 15 15v16c0 8.28125-6.714844 15-15 15zm0 0" fill="#787465"/><path d="m65.761719 258c-8.28125 0-15-6.714844-15-15v-16c0-8.28125 6.71875-15 15-15 8.285156 0 15 6.71875 15 15v16c0 8.285156-6.714844 15-15 15zm0 0" fill="#787465"/><path d="m65.761719 182c-8.28125 0-15-6.71875-15-15v-16c0-8.285156 6.71875-15 15-15 8.285156 0 15 6.714844 15 15v16c0 8.28125-6.714844 15-15 15zm0 0" fill="#787465"/><path d="m65.761719 105.996094c-8.28125 0-15-6.714844-15-15v-16c0-8.28125 6.71875-15 15-15 8.285156 0 15 6.71875 15 15v16c0 8.285156-6.714844 15-15 15zm0 0" fill="#787465"/><path d="m497 511.996094h-482c-8.285156 0-15-6.714844-15-15s6.714844-15 15-15h482c8.285156 0 15 6.714844 15 15s-6.714844 15-15 15zm0 0" fill="#9ebd2a"/><path d="m497 481.996094h-360.988281v30h360.988281c8.285156 0 15-6.714844 15-15s-6.714844-15-15-15zm0 0" fill="#8aa818"/></svg>