<svg height="512pt" viewBox="-72 0 512 512" width="512pt" xmlns="http://www.w3.org/2000/svg"><g fill="#a19d8d"><path d="m284.894531 173.046875h-200.644531c-4.441406 0-8.652344-1.96875-11.503906-5.375l-69.25-82.765625c-3.738282-4.464844-4.550782-10.695312-2.085938-15.972656s7.765625-8.652344 13.589844-8.652344h339.144531c5.828125 0 11.125 3.375 13.589844 8.652344 2.46875 5.277344 1.652344 11.503906-2.085937 15.972656l-69.25 82.765625c-2.847657 3.40625-7.0625 5.375-11.503907 5.375zm0 0"/><path d="m284.894531 313.046875h-200.644531c-4.441406 0-8.652344-1.96875-11.503906-5.375l-69.25-82.761719c-3.738282-4.46875-4.550782-10.695312-2.085938-15.976562 2.464844-5.277344 7.765625-8.648438 13.589844-8.648438h339.144531c5.828125 0 11.125 3.371094 13.589844 8.648438 2.46875 5.28125 1.652344 11.507812-2.085937 15.976562l-69.25 82.761719c-2.847657 3.40625-7.0625 5.375-11.503907 5.375zm0 0"/><path d="m284.894531 454.921875h-200.644531c-4.441406 0-8.652344-1.96875-11.503906-5.375l-69.25-82.765625c-3.738282-4.464844-4.550782-10.695312-2.085938-15.972656s7.765625-8.652344 13.589844-8.652344h339.144531c5.828125 0 11.125 3.375 13.589844 8.652344 2.46875 5.277344 1.652344 11.503906-2.085937 15.972656l-69.25 82.765625c-2.847657 3.40625-7.0625 5.375-11.503907 5.375zm0 0"/></g><path d="m354.144531 342.15625h-169.71875v112.765625h100.46875c4.441407 0 8.65625-1.96875 11.503907-5.375l69.25-82.765625c3.742187-4.464844 4.554687-10.695312 2.085937-15.972656-2.464844-5.277344-7.761719-8.652344-13.589844-8.652344zm0 0" fill="#696453"/><path d="m354.144531 200.285156h-169.71875v112.761719h100.46875c4.441407 0 8.65625-1.96875 11.503907-5.375l69.25-82.761719c3.742187-4.46875 4.554687-10.695312 2.085937-15.976562-2.464844-5.277344-7.761719-8.648438-13.589844-8.648438zm0 0" fill="#696453"/><path d="m354.144531 60.28125h-169.71875v112.765625h100.46875c4.441407 0 8.65625-1.96875 11.503907-5.375l69.25-82.765625c3.742187-4.464844 4.554687-10.695312 2.085937-15.972656-2.464844-5.277344-7.761719-8.652344-13.589844-8.652344zm0 0" fill="#696453"/><path d="m284.894531 512h-200.9375c-8.285156 0-15-6.714844-15-15v-482c0-8.285156 6.714844-15 15-15h200.9375c8.285157 0 15 6.714844 15 15v482c0 8.285156-6.714843 15-15 15zm0 0" fill="#d6d3c5"/><path d="m284.894531 0h-100.46875v512h100.46875c8.285157 0 15-6.714844 15-15v-482c0-8.285156-6.714843-15-15-15zm0 0" fill="#b0ac9b"/><path d="m234.425781 95.230469c0 27.613281-22.386719 50-50 50s-50-22.386719-50-50 22.386719-50 50-50 50 22.386719 50 50zm0 0" fill="#ec6600"/><path d="m234.425781 95.230469c0-27.613281-22.386719-50-50-50v100c27.613281 0 50-22.386719 50-50zm0 0" fill="#b80f00"/><path d="m184.425781 160.230469c-35.839843 0-65-29.160157-65-65 0-35.839844 29.160157-65 65-65 35.839844 0 65 29.160156 65 65 0 35.839843-29.160156 65-65 65zm0-100c-19.300781 0-35 15.703125-35 35 0 19.300781 15.703125 35 35 35s35-15.699219 35-35c0-19.296875-15.703125-35-35-35zm0 0" fill="#a19d8d"/><path d="m184.425781 30.230469v30c19.296875 0 35 15.703125 35 35 0 19.300781-15.703125 35-35 35v30c35.839844 0 65-29.160157 65-65 0-35.839844-29.160156-65-65-65zm0 0" fill="#696453"/><path d="m234.425781 255.855469c0 27.613281-22.386719 50-50 50s-50-22.386719-50-50 22.386719-50 50-50 50 22.386719 50 50zm0 0" fill="#ffd236"/><path d="m234.425781 255.855469c0-27.613281-22.386719-50-50-50v100c27.613281 0 50-22.386719 50-50zm0 0" fill="#ff9300"/><path d="m184.425781 320.855469c-35.839843 0-65-29.160157-65-65 0-35.839844 29.160157-65 65-65 35.839844 0 65 29.160156 65 65 0 35.839843-29.160156 65-65 65zm0-100c-19.300781 0-35 15.703125-35 35 0 19.300781 15.703125 35 35 35s35-15.699219 35-35c0-19.296875-15.703125-35-35-35zm0 0" fill="#a19d8d"/><path d="m184.425781 190.855469v30c19.296875 0 35 15.703125 35 35 0 19.300781-15.703125 35-35 35v30c35.839844 0 65-29.160157 65-65 0-35.839844-29.160156-65-65-65zm0 0" fill="#696453"/><path d="m234.425781 417.15625c0 27.617188-22.386719 50-50 50s-50-22.382812-50-50c0-27.613281 22.386719-50 50-50s50 22.386719 50 50zm0 0" fill="#81fc94"/><path d="m184.425781 367.15625v100c27.613281 0 50-22.386719 50-50s-22.386719-50-50-50zm0 0" fill="#4dc979"/><path d="m184.425781 482.15625c-35.839843 0-65-29.160156-65-65s29.160157-65 65-65c35.839844 0 65 29.160156 65 65 0 35.84375-29.160156 65-65 65zm0-100c-19.300781 0-35 15.703125-35 35 0 19.300781 15.699219 35 35 35 19.296875 0 35-15.699219 35-35 0-19.296875-15.703125-35-35-35zm0 0" fill="#a19d8d"/><path d="m184.425781 352.15625v30c19.296875 0 35 15.703125 35 35 0 19.300781-15.703125 35-35 35v30c35.839844 0 65-29.160156 65-65s-29.160156-65-65-65zm0 0" fill="#696453"/></svg>