<svg height="512pt" viewBox="0 -114 512 512" width="512pt" xmlns="http://www.w3.org/2000/svg"><path d="m497 254.289062h-482c-8.285156 0-15-6.71875-15-15v-224.289062c0-8.28125 6.714844-15 15-15h379.078125c32.144531 0 61.175781 17.800781 75.753906 46.453125l20.957031 41.179687c13.875 27.265626 21.210938 57.847657 21.210938 88.441407v63.214843c0 8.28125-6.714844 15-15 15zm0 0" fill="#ffcf2c"/><path d="m469.832031 46.449219c-14.578125-28.648438-43.609375-46.449219-75.753906-46.449219h-143.046875v254.289062h245.96875c8.285156 0 15-6.71875 15-15.003906v-63.210937c0-30.59375-7.335938-61.179688-21.210938-88.445313zm0 0" fill="#ffa81c"/><g fill="#696453"><path d="m30 30h64.761719v63.5h-64.761719zm0 0"/><path d="m124.761719 30h64.769531v63.5h-64.769531zm0 0"/><path d="m219.53125 30h64.773438v63.5h-64.773438zm0 0"/></g><path d="m251.03125 30h33.273438v63.5h-33.273438zm0 0" fill="#4c4a40"/><path d="m314.304688 30h64.773437v63.5h-64.773437zm0 0" fill="#4c4a40"/><path d="m490.789062 87.632812-20.957031-41.183593c-12.269531-24.109375-34.773437-40.53125-60.753906-45.132813v102.53125l7.558594 9.617188c13.273437 16.878906 33.558593 26.730468 55.027343 26.730468h36.964844c-3.425781-18.246093-9.417968-36.019531-17.839844-52.5625zm0 0" fill="#4c4a40"/><path d="m424.171875 239.289062c0 16.566407-13.433594 30-30.003906 30-16.566407 0-30-13.433593-30-30 0-16.570312 13.433593-30 30-30 16.570312 0 30.003906 13.429688 30.003906 30zm0 0" fill="#fff"/><path d="m394.167969 284.289062c-24.8125 0-45-20.1875-45-45 0-24.816406 20.1875-45.003906 45-45.003906 24.816406 0 45.003906 20.1875 45.003906 45.003906 0 24.8125-20.1875 45-45.003906 45zm0-60c-8.269531 0-15 6.726563-15 15 0 8.269532 6.730469 15 15 15 8.273437 0 15.003906-6.730468 15.003906-15 0-8.273437-6.730469-15-15.003906-15zm0 0" fill="#4c4a40"/><path d="m128.265625 239.289062c0 16.566407-13.433594 30-30.003906 30-16.566407 0-30-13.433593-30-30 0-16.570312 13.433593-30 30-30 16.570312 0 30.003906 13.429688 30.003906 30zm0 0" fill="#fff"/><path d="m98.261719 284.289062c-24.8125 0-45-20.1875-45-45 0-24.816406 20.1875-45.003906 45-45.003906 24.816406 0 45.003906 20.1875 45.003906 45.003906 0 24.8125-20.1875 45-45.003906 45zm0-60c-8.269531 0-15 6.726563-15 15 0 8.269532 6.730469 15 15 15 8.273437 0 15-6.730468 15-15 0-8.273437-6.726563-15-15-15zm0 0" fill="#878477"/><path d="m512 200.625h-15.007812c-8.285157 0-15 6.71875-15 15 0 8.285156 6.714843 15 15 15h15.007812zm0 0" fill="#fff566"/></svg>