<svg height="512pt" viewBox="0 -38 512 512" width="512pt" xmlns="http://www.w3.org/2000/svg"><path d="m481.992188 262.410156h-451.992188v-202.410156h451.992188zm0 0" fill="#a19d8d"/><path d="m256 60h225.992188v202.410156h-225.992188zm0 0" fill="#787465"/><path d="m30 69.855469h30v350.339843h-30zm0 0" fill="#d6d3c5"/><path d="m451.992188 69.855469h30v350.339843h-30zm0 0" fill="#b0ac9b"/><path d="m75 435.195312h-59.984375c-8.285156 0-15-6.714843-15-15 0-8.28125 6.714844-14.996093 15-14.996093h59.984375c8.28125 0 15 6.714843 15 14.996093 0 8.285157-6.71875 15-15 15zm0 0" fill="#878477"/><path d="m496.988281 435.195312h-59.980469c-8.285156 0-15-6.714843-15-15 0-8.28125 6.714844-14.996093 15-14.996093h59.980469c8.285157 0 15 6.714843 15 14.996093 0 8.285157-6.714843 15-15 15zm0 0" fill="#878477"/><path d="m179.308594 232.410156h-52.316406c-8.28125 0-15-6.714844-15-15v-82.410156c0-8.285156 6.71875-15 15-15h52.316406c8.285156 0 15 6.714844 15 15v82.410156c0 8.285156-6.714844 15-15 15zm0 0" fill="#ffe645"/><path d="m497 90h-482c-8.285156 0-15-6.71875-15-15v-10c0-35.839844 29.160156-65 65-65h382c35.839844 0 65 29.160156 65 65v10c0 8.28125-6.714844 15-15 15zm0 0" fill="#2698d1"/><path d="m447 0h-191v90h241c8.285156 0 15-6.71875 15-15v-10c0-35.839844-29.160156-65-65-65zm0 0" fill="#176cad"/><path d="m206.230469 430.933594c-8.28125 0-15-6.714844-15-15v-48.527344c0-8.28125 6.71875-15 15-15 8.285156 0 15 6.71875 15 15v48.527344c0 8.285156-6.714844 15-15 15zm0 0" fill="#878477"/><path d="m377.402344 430.933594c-8.285156 0-15-6.714844-15-15v-48.527344c0-8.28125 6.714844-15 15-15 8.28125 0 15 6.71875 15 15v48.527344c0 8.285156-6.71875 15-15 15zm0 0" fill="#787465"/><path d="m210.632812 307.410156h29.996094v59.996094h-29.996094zm0 0" fill="#a19d8d"/><path d="m343.003906 307.410156h29.996094v59.996094h-29.996094zm0 0" fill="#878477"/><path d="m398.292969 382.40625h-212.953125c-8.285156 0-15-6.714844-15-15 0-8.28125 6.714844-15 15-15h212.953125c8.285156 0 15 6.71875 15 15 0 8.285156-6.714844 15-15 15zm0 0" fill="#c4c0ad"/><path d="m398.292969 352.40625h-106.476563v30h106.476563c8.285156 0 15-6.714844 15-15 0-8.28125-6.714844-15-15-15zm0 0" fill="#b0ac9b"/><path d="m377.402344 322.410156h-171.171875c-8.28125 0-15-6.71875-15-15 0-8.285156 6.71875-15 15-15h171.171875c8.28125 0 15 6.714844 15 15 0 8.28125-6.71875 15-15 15zm0 0" fill="#c4c0ad"/><path d="m377.402344 292.410156h-85.585938v30h85.585938c8.28125 0 15-6.71875 15-15 0-8.285156-6.71875-15-15-15zm0 0" fill="#b0ac9b"/></svg>