<svg height="512pt" viewBox="0 0 512 512" width="512pt" xmlns="http://www.w3.org/2000/svg"><path d="m496.992188 512h-481.992188c-8.285156 0-15-6.714844-15-15v-87.949219c0-9.40625 7.625-17.027343 17.027344-17.027343h477.9375c9.402344 0 17.027344 7.621093 17.027344 17.027343v87.949219c0 8.285156-6.714844 15-15 15zm0 0" fill="#d6d3c5"/><path d="m255.996094 512h240.996094c8.285156 0 15-6.714844 15-15v-87.949219c0-9.40625-7.625-17.027343-17.027344-17.027343h-238.96875zm0 0" fill="#c4c0ad"/><path d="m255.996094 482.023438c-8.28125 0-15-6.714844-15-15v-293.609376c0-8.28125 6.71875-15 15-15 8.285156 0 15 6.71875 15 15v293.609376c.003906 8.285156-6.714844 15-15 15zm0 0" fill="#a19d8d"/><path d="m271 467.023438v-293.609376c0-8.28125-6.71875-15-15.003906-15v323.609376c8.285156 0 15.003906-6.714844 15.003906-15zm0 0" fill="#787465"/><path d="m255.996094 188.414062c-51.945313 0-94.207032-42.261718-94.207032-94.207031 0-51.945312 42.261719-94.207031 94.207032-94.207031 51.945312 0 94.207031 42.261719 94.207031 94.207031 0 51.945313-42.257813 94.207031-94.207031 94.207031zm0 0" fill="#ff674f"/><path d="m255.996094 188.414062c51.949218 0 94.207031-42.261718 94.207031-94.207031 0-51.945312-42.257813-94.207031-94.207031-94.207031zm0 0" fill="#d9260f"/><path d="m311.164062 17.890625-131.484374 131.480469c5.902343 8.144531 13.074218 15.308594 21.222656 21.207031l131.464844-131.46875c-5.898438-8.148437-13.0625-15.316406-21.203126-21.21875zm0 0" fill="#edeade"/><path d="m256.023438 73.027344v42.425781l76.34375-76.34375c-5.898438-8.148437-13.0625-15.316406-21.207032-21.21875zm0 0" fill="#d6d3c5"/><path d="m159.996094 452.023438h-72c-8.285156 0-15-6.714844-15-15 0-8.285157 6.714844-15 15-15h72c8.285156 0 15 6.714843 15 15 0 8.285156-6.714844 15-15 15zm0 0" fill="#a19d8d"/><path d="m408 482.007812h-33c-8.285156 0-15-6.714843-15-15 0-8.285156 6.714844-15 15-15h33c8.285156 0 15 6.714844 15 15 0 8.285157-6.714844 15-15 15zm0 0" fill="#787465"/></svg>