<svg height="512pt" viewBox="0 -7 512 512" width="512pt" xmlns="http://www.w3.org/2000/svg"><path d="m289.621094 106.921875h-18.621094v-19.171875c0-8.28125-6.714844-15-15-15s-15 6.71875-15 15v19.171875h-18.621094c-8.28125 0-15 6.714844-15 15s6.71875 15 15 15h18.621094v61.066406c0 8.285157 6.714844 15 15 15s15-6.714843 15-15v-61.066406h18.621094c8.28125 0 15-6.714844 15-15s-6.71875-15-15-15zm0 0" fill="#a19d8d"/><path d="m271 197.992188v-61.070313h18.621094c8.28125 0 15-6.714844 15-15 0-8.28125-6.71875-15-15-15h-18.621094v-19.171875c0-8.28125-6.714844-15-15-15v140.238281c8.285156.003907 15-6.714843 15-14.996093zm0 0" fill="#787465"/><path d="m401.089844 498.847656h-290.179688c-8.28125 0-15-6.714844-15-15v-162.402344c0-4.394531 1.929688-8.574218 5.28125-11.421874l145.085938-123.457032c5.605468-4.769531 13.839844-4.769531 19.441406 0l145.089844 123.457032c3.351562 2.847656 5.28125 7.027343 5.28125 11.421874v162.402344c0 8.285156-6.71875 15-15 15zm0 0" fill="#ffedcd"/><path d="m401.089844 498.847656c8.28125 0 15-6.714844 15-15v-162.402344c0-4.394531-1.929688-8.574218-5.28125-11.421874l-145.085938-123.457032c-2.804687-2.382812-6.261718-3.578125-9.722656-3.578125v315.859375zm0 0" fill="#ffbe85"/><path d="m286 402.9375c0-41.332031-60-41.332031-60 0v95.898438h60zm0 0" fill="#e38b39"/><path d="m286 498.835938v-95.898438c0-20.667969-15-31-30-31v126.898438zm0 0" fill="#b56714"/><path d="m255.992188 327.019531c-16.539063 0-30-13.460937-30-30 0-16.542969 13.460937-30 30-30 16.542968 0 30 13.457031 30 30 0 16.539063-13.457032 30-30 30zm0-30.019531v.019531c0-.011719 0-.019531 0-.019531zm0 0" fill="#878477"/><path d="m256 267.019531v60c16.539062-.003906 29.992188-13.460937 29.992188-30 0-16.542969-13.453126-29.996093-29.992188-30zm0 0" fill="#787465"/><path d="m401.089844 138.457031h110.910156v345.378907c0 8.285156-6.714844 15-15 15h-95.910156zm0 0" fill="#ffedcd"/><path d="m456.542969 59.964844c-8.28125 0-15-6.71875-15-15v-29.964844c0-8.285156 6.71875-15 15-15 8.285156 0 15 6.714844 15 15v29.960938c0 8.285156-6.714844 15.003906-15 15.003906zm0 0" fill="#a19d8d"/><path d="m468.496094 30.339844h-23.902344c-24.027344 0-43.503906 19.480468-43.503906 43.507812v64.609375h110.910156v-64.609375c0-24.027344-19.476562-43.507812-43.503906-43.507812zm0 0" fill="#ffdaab"/><path d="m0 138.457031h110.910156v360.378907h-95.910156c-8.285156 0-15-6.714844-15-15zm0 0" fill="#fffae7"/><path d="m55.457031 59.964844c-8.285156 0-15-6.71875-15-15v-29.964844c0-8.285156 6.714844-15 15-15 8.28125 0 15 6.714844 15 15v29.960938c0 8.285156-6.71875 15.003906-15 15.003906zm0 0" fill="#a19d8d"/><path d="m67.40625 30.339844h-23.898438c-24.03125 0-43.507812 19.480468-43.507812 43.507812v64.609375h110.910156v-64.609375c0-24.027344-19.476562-43.507812-43.503906-43.507812zm0 0" fill="#ffedcd"/><path d="m401.089844 123.457031h110.910156v30h-110.910156zm0 0" fill="#faa465"/><path d="m0 123.457031h110.910156v30h-110.910156zm0 0" fill="#ffbe85"/></svg>