<svg height="512pt" viewBox="-78 0 512 512" width="512pt" xmlns="http://www.w3.org/2000/svg"><path d="m314.445312 512h-272.886718c-8.285156 0-15-6.714844-15-15v-146.996094c0-3.875 1.496094-7.597656 4.183594-10.390625l136.441406-141.996093c2.828125-2.941407 6.734375-4.605469 10.816406-4.605469s7.988281 1.664062 10.816406 4.605469l136.441406 141.996093c2.6875 2.792969 4.1875 6.519531 4.1875 10.390625v146.996094c0 8.285156-6.71875 15-15 15zm0 0" fill="#edeade"/><path d="m188.816406 197.617188c-2.828125-2.941407-6.734375-4.605469-10.816406-4.605469-.003906 0-.003906 0-.007812 0v318.988281h136.453124c8.285157 0 15-6.714844 15-15v-146.996094c0-3.875-1.5-7.597656-4.183593-10.390625zm0 0" fill="#b0ac9b"/><path d="m351.808594 367.203125-163-169.585937c-.058594-.0625-.117188-.109376-.175782-.167969-.082031-.082031-.152343-.171875-.238281-.253907-5.972656-5.742187-15.46875-5.550781-21.207031.421876l-163 169.589843c-5.742188 5.972657-5.554688 15.46875.417969 21.207031 2.910156 2.796876 6.652343 4.1875 10.394531 4.1875 3.9375 0 7.871094-1.542968 10.816406-4.605468l152.179688-158.335938 152.183594 158.332032c2.945312 3.066406 6.878906 4.605468 10.816406 4.605468 3.738281 0 7.484375-1.386718 10.394531-4.183594 5.972656-5.742187 6.160156-15.234374.417969-21.210937zm0 0" fill="#e38b39"/><path d="m188.808594 197.617188c-.058594-.0625-.117188-.109376-.175782-.167969-.082031-.082031-.152343-.171875-.238281-.253907-2.910156-2.796874-6.660156-4.175781-10.402343-4.171874v36.644531l.003906-.007813 152.183594 158.332032c2.945312 3.066406 6.878906 4.605468 10.816406 4.605468 3.738281 0 7.484375-1.386718 10.394531-4.183594 5.972656-5.742187 6.160156-15.238281.417969-21.210937zm0 0" fill="#a15615"/><path d="m133.039062 512v-95.96875c0-13.6875 5.046876-25.863281 14.210938-34.292969 8.207031-7.550781 19.128906-11.707031 30.75-11.707031s22.542969 4.15625 30.75 11.707031c9.164062 8.429688 14.210938 20.605469 14.210938 34.292969v95.96875zm0 0" fill="#a15615"/><path d="m208.753906 381.738281c-8.210937-7.550781-19.132812-11.707031-30.753906-11.707031-.003906 0-.003906 0-.007812 0v141.96875h44.96875v-95.96875c0-13.6875-5.046876-25.863281-14.207032-34.292969zm0 0" fill="#7d3607"/><path d="m208.460938 31h-15.460938v-16c0-8.285156-6.714844-15-15-15s-15 6.714844-15 15v16h-15.460938c-8.28125 0-15 6.714844-15 15 0 8.28125 6.71875 15 15 15h15.460938v34.007812c0 8.28125 6.714844 15 15 15s15-6.71875 15-15v-34.007812h15.460938c8.285156 0 15-6.71875 15-15 0-8.285156-6.714844-15-15-15zm0 0" fill="#c4c0ad"/><path d="m208.460938 31h-15.460938v-16c0-8.285156-6.714844-15-15-15-.003906 0-.003906 0-.007812 0v110.007812h.007812c8.285156 0 15-6.71875 15-15v-34.007812h15.460938c8.285156 0 15-6.71875 15-15 0-8.285156-6.714844-15-15-15zm0 0" fill="#b0ac9b"/><path d="m132.953125 218.503906 30.460937-126.996094c1.617188-6.746093 7.648438-11.5 14.585938-11.5s12.96875 4.753907 14.585938 11.5l30.460937 126.996094-.085937 20h-90.007813zm0 0" fill="#cc7927"/><path d="m178 80.007812c-.003906 0-.003906 0-.007812 0v158.496094h44.96875l.085937-20-30.460937-126.996094c-1.617188-6.746093-7.648438-11.5-14.585938-11.5zm0 0" fill="#a15615"/><path d="m208.460938 349.183594c-1.675782 0-3.359376-.28125-4.980469-.851563-8.175781-2.875-16.75-4.335937-25.480469-4.335937s-17.304688 1.460937-25.480469 4.335937c-4.589843 1.613281-9.679687.902344-13.648437-1.90625-3.96875-2.8125-6.332032-7.375-6.332032-12.242187v-115.679688h90.921876v115.679688c0 4.863281-2.359376 9.429687-6.332032 12.242187-2.566406 1.816407-5.605468 2.757813-8.667968 2.757813zm0 0" fill="#fff"/><path d="m177.992188 343.996094h.007812c8.730469 0 17.304688 1.457031 25.480469 4.335937 1.621093.570313 3.304687.851563 4.980469.851563 3.0625 0 6.101562-.941406 8.667968-2.761719 3.972656-2.8125 6.332032-7.375 6.332032-12.238281v-115.679688h-45.46875zm0 0" fill="#d6d3c5"/></svg>