<svg height="512pt" viewBox="0 0 512 512" width="512pt" xmlns="http://www.w3.org/2000/svg"><path d="m496.992188 512h-188.121094v-311.367188h188.121094c8.285156 0 15 6.714844 15 15v281.367188c0 8.285156-6.714844 15-15 15zm0 0" fill="#b0ac9b"/><path d="m386.496094 309c-8.285156 0-15-6.714844-15-15v-20c0-8.28125 6.714844-15 15-15 8.28125 0 15 6.71875 15 15v20c0 8.285156-6.71875 15-15 15zm0 0" fill="#696453"/><path d="m447.996094 309c-8.285156 0-15-6.714844-15-15v-20c0-8.28125 6.714844-15 15-15s15 6.71875 15 15v20c0 8.285156-6.714844 15-15 15zm0 0" fill="#696453"/><path d="m386.496094 389c-8.285156 0-15-6.714844-15-15v-20c0-8.28125 6.714844-15 15-15 8.28125 0 15 6.71875 15 15v20c0 8.285156-6.71875 15-15 15zm0 0" fill="#ffe645"/><path d="m447.996094 389c-8.285156 0-15-6.714844-15-15v-20c0-8.28125 6.714844-15 15-15s15 6.71875 15 15v20c0 8.285156-6.714844 15-15 15zm0 0" fill="#ffe645"/><path d="m447.996094 445.796875c-8.285156 0-15 6.71875-15 15v51.203125h30v-51.203125c0-8.28125-6.714844-15-15-15zm0 0" fill="#2e2c27"/><path d="m37.109375 511.570312c-8.285156 0-15-6.71875-15-15v-55.773437c0-8.28125 6.714844-15 15-15s15 6.71875 15 15v55.773437c0 8.28125-6.714844 15-15 15zm0 0" fill="#c4c0ad"/><path d="m125.34375 455.796875h-110.34375c-8.285156 0-15-6.714844-15-15 0-8.28125 6.714844-15 15-15h110.34375c8.285156 0 15 6.71875 15 15 0 8.285156-6.714844 15-15 15zm0 0" fill="#37a8e5"/><path d="m125.34375 284.628906h-60.617188c-8.285156 0-15-6.71875-15-15v-156.265625c0-8.285156 6.714844-15 15-15h60.617188zm0 0" fill="#2698d1"/><path d="m308.871094 512h-183.527344c-8.285156 0-15-6.714844-15-15v-482c0-8.285156 6.714844-15 15-15h183.527344c8.28125 0 15 6.714844 15 15v482c0 8.285156-6.71875 15-15 15zm0 0" fill="#edeade"/><path d="m308.871094 0h-90.75v512h90.75c8.28125 0 15-6.714844 15-15v-482c0-8.285156-6.71875-15-15-15zm0 0" fill="#d6d3c5"/><path d="m187.371094 269c-8.285156 0-15-6.714844-15-15v-20c0-8.28125 6.714844-15 15-15 8.28125 0 15 6.71875 15 15v20c0 8.285156-6.71875 15-15 15zm0 0" fill="#878477"/><path d="m248.871094 269c-8.285156 0-15-6.714844-15-15v-20c0-8.28125 6.714844-15 15-15 8.28125 0 15 6.71875 15 15v20c0 8.285156-6.71875 15-15 15zm0 0" fill="#ffff95"/><path d="m187.371094 349c-8.285156 0-15-6.714844-15-15v-20c0-8.28125 6.714844-15 15-15 8.28125 0 15 6.71875 15 15v20c0 8.285156-6.71875 15-15 15zm0 0" fill="#878477"/><path d="m248.871094 349c-8.285156 0-15-6.714844-15-15v-20c0-8.28125 6.714844-15 15-15 8.28125 0 15 6.71875 15 15v20c0 8.285156-6.71875 15-15 15zm0 0" fill="#878477"/><path d="m248.871094 60c-8.285156 0-15 6.71875-15 15v31.996094h-31.5v-31.992188c0-8.285156-6.71875-15-15-15-8.285156 0-15 6.714844-15 15v99c0 8.28125 6.714844 15 15 15 8.28125 0 15-6.71875 15-15v-37.007812h31.5v37.007812c0 8.28125 6.714844 15 15 15 8.28125 0 15-6.71875 15-15v-99c0-8.285156-6.71875-15.003906-15-15.003906zm0 0" fill="#37a8e5"/><path d="m248.871094 60c-8.285156 0-15 6.71875-15 15v31.996094h-15.75v30h15.75v37.003906c0 8.285156 6.714844 15 15 15 8.28125 0 15-6.714844 15-15v-99c0-8.28125-6.71875-15-15-15zm0 0" fill="#1a82c7"/></svg>