<svg height="512pt" viewBox="0 -81 512 512" width="512pt" xmlns="http://www.w3.org/2000/svg"><path d="m255.988281 148.9375c-8.285156 0-15-6.714844-15-15v-28.980469c0-8.285156 6.714844-15 15-15 8.285157 0 15 6.714844 15 15v28.980469c0 8.285156-6.714843 15-15 15zm0 0" fill="#f2472c"/><path d="m256.003906 89.957031v58.980469c8.277344-.011719 14.984375-6.722656 14.984375-15v-28.980469c0-8.277343-6.707031-14.988281-14.984375-15zm0 0" fill="#b80f00"/><path d="m255.988281 49.957031c-8.285156 0-15-6.71875-15-15v-19.957031c0-8.285156 6.714844-15 15-15 8.285157 0 15 6.714844 15 15v19.957031c0 8.28125-6.714843 15-15 15zm0 0" fill="#ff8b6e"/><path d="m256.003906 0v49.957031c8.277344-.011719 14.984375-6.722656 14.984375-15v-19.957031c0-8.277344-6.707031-14.9882812-14.984375-15zm0 0" fill="#f2472c"/><path d="m206.507812 70.476562c-3.839843 0-7.675781-1.464843-10.605468-4.390624l-14.050782-14.050782c-5.859374-5.859375-5.859374-15.355468 0-21.214844 5.859376-5.859374 15.355469-5.859374 21.214844 0l14.050782 14.050782c5.855468 5.859375 5.855468 15.355468 0 21.214844-2.929688 2.925781-6.769532 4.390624-10.609376 4.390624zm0 0" fill="#ff8b6e"/><path d="m305.480469 70.476562c-3.839844 0-7.675781-1.464843-10.605469-4.390624-5.859375-5.859376-5.859375-15.355469 0-21.214844l14.050781-14.050782c5.855469-5.859374 15.355469-5.859374 21.214844 0 5.855469 5.859376 5.855469 15.355469 0 21.214844l-14.050781 14.050782c-2.929688 2.925781-6.769532 4.390624-10.609375 4.390624zm0 0" fill="#f2472c"/><path d="m464.457031 212.566406-104.316406-14.28125c-12.886719-20.875-56.183594-81.488281-124.523437-81.488281h-72.472657c-24.835937 0-47.71875 13.507813-59.714843 35.253906l-24.878907 45.105469h-41.386719c-20.492187 0-37.164062 16.671875-37.164062 37.164062v70.796876c0 8.285156 6.714844 15 15 15h482c8.285156 0 15-6.714844 15-15v-38.058594c0-27.359375-20.4375-50.785156-47.542969-54.492188zm-243.496093-65.769531h14.65625c39.871093 0 70.167968 29.066406 87.015624 50.359375h-101.671874zm-91.261719 19.746094c6.722656-12.179688 19.535156-19.746094 33.445312-19.746094h27.8125v50.359375h-78.140625zm0 0" fill="#2698d1"/><path d="m464.457031 212.566406-104.316406-14.28125c-11.554687-18.714844-47.558594-69.367187-104.136719-79.644531v30.734375c29.855469 7.554688 52.785156 30.285156 66.628906 47.78125h-66.628906v122.960938h240.996094c8.285156 0 15-6.714844 15-15v-38.0625c0-27.355469-20.4375-50.78125-47.542969-54.488282zm0 0" fill="#176cad"/><path d="m190.957031 228.203125h-94.007812c-11.046875 0-20 8.953125-20 20v71.917969h114.007812zm0 0" fill="#dfeefa"/><path d="m340.085938 228.203125h-118.578126v91.917969h138.578126v-71.917969c0-11.046875-8.953126-20-20-20zm0 0" fill="#dfeefa"/><path d="m340.085938 228.203125h-84.078126v91.917969h104.078126v-71.917969c0-11.046875-8.953126-20-20-20zm0 0" fill="#c9dff7"/><path d="m512 305.117188v-15h-512v15c0 8.285156 6.714844 15 15 15h482c8.285156 0 15-6.714844 15-15zm0 0" fill="#176cad"/><path d="m256.003906 320.117188h240.996094c8.285156 0 15-6.714844 15-15v-15h-255.996094zm0 0" fill="#004373"/><path d="m404.800781 302.910156c0-17.949218-14.6875-32.5-32.808593-32.5-18.121094 0-32.808594 14.550782-32.808594 32.5 0 17.949219 14.6875 32.5 32.808594 32.5 18.121093 0 32.808593-14.550781 32.808593-32.5zm0 0" fill="#c4c0ad"/><path d="m371.992188 350.410156c-26.359376 0-47.808594-21.308594-47.808594-47.5s21.445312-47.503906 47.808594-47.503906c26.363281 0 47.808593 21.3125 47.808593 47.503906s-21.445312 47.5-47.808593 47.5zm0-65c-9.820313 0-17.808594 7.851563-17.808594 17.5 0 9.648438 7.988281 17.5 17.808594 17.5 9.820312 0 17.808593-7.851562 17.808593-17.5 0-9.648437-7.988281-17.5-17.808593-17.5zm0 0" fill="#2e2c27"/><path d="m127.566406 302.910156c0-17.949218-14.6875-32.5-32.808594-32.5-18.121093 0-32.808593 14.550782-32.808593 32.5 0 17.949219 14.6875 32.5 32.808593 32.5 18.121094 0 32.808594-14.550781 32.808594-32.5zm0 0" fill="#edeade"/><g fill="#4c4a40"><path d="m94.757812 350.410156c-26.363281 0-47.808593-21.308594-47.808593-47.5s21.445312-47.503906 47.808593-47.503906c26.359376 0 47.808594 21.3125 47.808594 47.503906s-21.449218 47.5-47.808594 47.5zm0-65c-9.820312 0-17.808593 7.851563-17.808593 17.5 0 9.648438 7.988281 17.5 17.808593 17.5 9.820313 0 17.808594-7.851562 17.808594-17.5 0-9.648437-7.988281-17.5-17.808594-17.5zm0 0"/><path d="m129.699219 166.542969c6.722656-12.179688 19.535156-19.746094 33.445312-19.746094h27.8125v50.359375h-78.140625zm0 0"/><path d="m220.960938 197.15625v-50.359375h14.65625c39.871093 0 70.167968 29.066406 87.015624 50.359375zm0 0"/></g><path d="m256.003906 197.15625h66.628906c-13.84375-17.496094-36.773437-40.226562-66.628906-47.78125zm0 0" fill="#181b1f"/><path d="m468.671875 255.40625c0 8.285156 6.71875 15.003906 15 15.003906h28.328125v-3.351562c0-9.597656-2.523438-18.703125-6.957031-26.652344h-21.371094c-8.28125 0-15 6.71875-15 15zm0 0" fill="#fff566"/></svg>