<svg height="512pt" viewBox="0 0 512 512" width="512pt" xmlns="http://www.w3.org/2000/svg"><path d="m496.972656 192.660156h-481.972656c-8.285156 0-15 6.71875-15 15v289.339844c0 8.285156 6.714844 15 15 15h481.972656c8.285156 0 15-6.714844 15-15v-289.339844c0-8.28125-6.714844-15-15-15zm0 0" fill="#ffedcd"/><path d="m496.972656 192.660156h-240.992187v319.339844h240.992187c8.285156 0 15-6.714844 15-15v-289.339844c0-8.28125-6.714844-15-15-15zm0 0" fill="#ffbe85"/><path d="m496.972656 132.664062h-481.972656c-8.285156 0-15 6.714844-15 15v59.996094h511.972656v-59.996094c0-8.285156-6.714844-15-15-15zm0 0" fill="#ff8b6e"/><path d="m496.972656 132.664062h-240.992187v74.996094h255.992187v-59.996094c0-8.285156-6.714844-15-15-15zm0 0" fill="#f2472c"/><path d="m136.195312 511.988281v-417.765625c0-8.285156 6.714844-15 15-15h12.554688c6.804688-44.792968 45.574219-79.222656 92.238281-79.222656 46.664063 0 85.433594 34.429688 92.238281 79.222656h12.558594c8.28125 0 14.996094 6.714844 14.996094 15v417.765625zm0 0" fill="#fffae7"/><path d="m360.78125 79.222656h-12.554688c-6.804687-44.792968-45.574218-79.222656-92.238281-79.222656-.003906 0-.003906 0-.007812 0v511.984375h119.800781v-417.761719c0-8.285156-6.714844-15-15-15zm0 0" fill="#ffdaab"/><path d="m282.089844 89.296875h-11.101563v-11.101563c0-8.285156-6.714843-15-15-15-8.285156 0-15 6.714844-15 15v11.101563h-11.097656c-8.285156 0-15 6.714844-15 14.996094 0 8.285156 6.714844 15 15 15h11.097656v11.101562c0 8.28125 6.714844 15 15 15 8.285157 0 15-6.71875 15-15v-11.101562h11.101563c8.28125 0 14.996094-6.714844 14.996094-15 0-8.28125-6.714844-14.996094-14.996094-14.996094zm0 0" fill="#ff674f"/><path d="m282.089844 89.296875h-11.101563v-11.101563c0-8.285156-6.714843-15-15-15-.003906 0-.003906 0-.007812 0v82.195313h.007812c8.285157 0 15-6.714844 15-14.996094v-11.101562h11.101563c8.28125 0 14.996094-6.714844 14.996094-15 0-8.28125-6.714844-14.996094-14.996094-14.996094zm0 0" fill="#d9260f"/><path d="m205.992188 511.988281v-95.003906c0-8.285156 6.714843-15 15-15h69.996093c8.28125 0 14.996094 6.714844 14.996094 15v95.003906zm0 0" fill="#a15615"/><path d="m290.988281 401.984375h-35.007812v110.003906h50.003906v-95.003906c0-8.285156-6.714844-15-14.996094-15zm0 0" fill="#7d3607"/><path d="m215.242188 269.003906c-8.285157 0-15-6.714844-15-15v-19.996094c0-8.285156 6.714843-15 15-15 8.28125 0 15 6.714844 15 15v19.996094c0 8.285156-6.71875 15-15 15zm0 0" fill="#787465"/><path d="m296.738281 269.003906c-8.285156 0-15-6.714844-15-15v-19.996094c0-8.285156 6.714844-15 15-15 8.28125 0 14.996094 6.714844 14.996094 15v19.996094c0 8.285156-6.714844 15-14.996094 15zm0 0" fill="#4c4a40"/><path d="m215.242188 349c-8.285157 0-15-6.714844-15-15v-19.996094c0-8.285156 6.714843-15 15-15 8.28125 0 15 6.714844 15 15v19.996094c0 8.285156-6.71875 15-15 15zm0 0" fill="#787465"/><g fill="#4c4a40"><path d="m296.738281 349c-8.285156 0-15-6.714844-15-15v-19.996094c0-8.285156 6.714844-15 15-15 8.28125 0 14.996094 6.714844 14.996094 15v19.996094c0 8.285156-6.714844 15-14.996094 15zm0 0"/><path d="m438.878906 319.003906c-8.285156 0-15-6.71875-15-15v-20c0-8.285156 6.714844-15 15-15 8.28125 0 15 6.714844 15 15v20c0 8.28125-6.71875 15-15 15zm0 0"/><path d="m438.878906 398.996094c-8.285156 0-15-6.714844-15-14.996094v-20c0-8.285156 6.714844-15 15-15 8.28125 0 15 6.714844 15 15v20c0 8.28125-6.71875 14.996094-15 14.996094zm0 0"/><path d="m72.804688 319.003906c-8.28125 0-15-6.71875-15-15v-20c0-8.285156 6.71875-15 15-15 8.285156 0 15 6.714844 15 15v20c0 8.28125-6.714844 15-15 15zm0 0"/><path d="m72.804688 398.996094c-8.28125 0-15-6.714844-15-14.996094v-20c0-8.285156 6.71875-15 15-15 8.285156 0 15 6.714844 15 15v20c0 8.28125-6.714844 14.996094-15 14.996094zm0 0"/></g></svg>