<svg height="511pt" viewBox="1 1 511 511.99973" width="511pt" xmlns="http://www.w3.org/2000/svg"><path d="m83.058594 290.671875h-67.558594c-8.285156 0-15-6.71875-15-15v-58.003906c0-8.285157 6.714844-15 15-15h67.558594c8.285156 0 15 6.714843 15 15v58.003906c0 8.285156-6.714844 15-15 15zm0 0" fill="#696453"/><path d="m438.050781 178.335938c-2.652343 0-5.339843-.707032-7.773437-2.183594l-235.15625-142.886719-170.25 136.117187c-6.472656 5.171876-15.910156 4.121094-21.082032-2.347656-5.175781-6.472656-4.125-15.910156 2.347657-21.085937l178.441406-142.664063c4.921875-3.933594 11.773437-4.375 17.15625-1.101562l244.121094 148.328125c7.078125 4.300781 9.332031 13.53125 5.03125 20.609375-2.824219 4.644531-7.769531 7.210937-12.835938 7.214844zm0 0" fill="#b0ac9b"/><path d="m445.855469 150.511719-244.121094-148.328125c-2.402344-1.460938-5.101563-2.17968775-7.789063-2.17968775v34.19921875l1.175782-.9375 235.15625 142.882813c2.433594 1.480468 5.117187 2.1875 7.773437 2.183593 5.066407 0 10.011719-2.566406 12.832031-7.210937 4.304688-7.078125 2.050782-16.304688-5.027343-20.609375zm0 0" fill="#a19d8d"/><path d="m438.066406 367.34375c-8.285156 0-15-6.714844-15-15v-144.675781c0-8.285157 6.714844-15 15-15s15 6.714843 15 15v144.675781c0 8.285156-6.714844 15-15 15zm0 0" fill="#a19d8d"/><path d="m438.066406 465.503906c-12.019531 0-23.320312-4.679687-31.820312-13.179687-5.855469-5.855469-5.859375-15.355469 0-21.210938 5.855468-5.859375 15.351562-5.859375 21.214844-.003906 2.832031 2.835937 6.597656 4.394531 10.605468 4.394531 8.269532 0 15-6.726562 15-15 0-8.269531-6.730468-15-15-15-8.285156 0-15-6.714844-15-15v-38.160156h30v25.730469c17.460938 6.191406 30 22.875 30 42.429687 0 24.8125-20.1875 45-45 45zm0 0" fill="#696453"/><path d="m457.722656 367.34375h-39.316406c-8.28125 0-15-6.714844-15-15s6.71875-15 15-15h39.316406c8.285156 0 15 6.714844 15 15s-6.714844 15-15 15zm0 0" fill="#878477"/><path d="m497.5 222.667969h-481.996094c-8.285156 0-15-6.714844-15-15v-50c0-7.894531 6.117188-14.4375 13.996094-14.964844l149.109375-10c.335937-.023437.667969-.035156 1.003906-.035156h58.667969c.363281 0 .726562.011719 1.089844.039062l274.21875 20c7.839844.574219 13.910156 7.101563 13.910156 14.960938v40c0 8.285156-6.71875 15-15 15zm0 0"/><path d="m223.945312 452h-59.996093c-8.285157 0-15-6.71875-15-15v-289.332031c0-1.113281.121093-2.222657.367187-3.308594l30-132.667969c1.546875-6.835937 7.621094-11.691406 14.628906-11.691406 7.011719 0 13.085938 4.855469 14.632813 11.691406l30 132.667969c.246094 1.085937.367187 2.195313.367187 3.308594v289.332031c0 8.28125-6.714843 15-15 15zm0 0" fill="#ffb500"/><path d="m223.945312 452c8.285157 0 15-6.71875 15-15v-289.332031c0-1.113281-.121093-2.222657-.367187-3.308594l-30-132.667969c-1.546875-6.835937-7.621094-11.691406-14.632813-11.691406v452zm0 0" fill="#ff9300"/><path d="m262.75 512h-137.605469c-8.285156 0-15-6.714844-15-15v-30c0-24.8125 20.183594-45 44.996094-45h77.609375c24.8125 0 45 20.1875 45 45v30c0 8.285156-6.714844 15-15 15zm0 0" fill="#ffcf2c"/><path d="m232.75 422h-38.804688v90h68.804688c8.285156 0 15-6.71875 15-15v-30c0-24.8125-20.1875-45-45-45zm0 0" fill="#ffb500"/><path d="m497.5 222.667969h-481.996094c-8.285156 0-15-6.714844-15-15v-50c0-7.894531 6.117188-14.4375 13.996094-14.964844l149.109375-10c.335937-.023437.667969-.035156 1.003906-.035156h58.667969c.363281 0 .726562.011719 1.089844.039062l274.21875 20c7.839844.574219 13.910156 7.101563 13.910156 14.960938v40c0 8.285156-6.71875 15-15 15zm0 0" fill="#ffcf2c"/><path d="m498.589844 153.375-274.21875-20c-.363282-.027344-.726563-.042969-1.089844-.042969h-29.335938v90h303.554688c8.28125 0 15-6.714843 15-15v-40c0-7.859375-6.070312-14.386719-13.910156-14.957031zm0 0" fill="#ffc12e"/><path d="m223.28125 132.667969h-58.667969c-.335937 0-.667969.007812-1.003906.03125l-11.835937.796875-2.457032 10.863281c-.246094 1.085937-.371094 2.195313-.371094 3.308594v75h90v-75c0-1.113281-.125-2.222657-.371093-3.308594l-2.441407-10.792969-11.761718-.859375c-.363282-.027343-.726563-.039062-1.089844-.039062zm0 0" fill="#ffff95"/><path d="m236.136719 133.566406-11.765625-.859375c-.363282-.027343-.726563-.039062-1.089844-.039062h-29.332031v90h45v-75c0-1.113281-.125-2.222657-.371094-3.308594zm0 0" fill="#ffe645"/></svg>