<svg height="512pt" viewBox="-38 0 512 512" width="512pt" xmlns="http://www.w3.org/2000/svg"><path d="m275.128906 195.957031h66.238282c11.046874 0 20 8.953125 20 20v49.859375h-106.238282v-49.859375c0-11.046875 8.953125-20 20-20zm0 0" fill="#a19d8d"/><path d="m341.367188 195.957031h-33.121094v69.859375h53.121094v-49.859375c0-11.046875-8.953126-20-20-20zm0 0" fill="#878477"/><path d="m15 317.144531c-8.285156 0-15-6.71875-15-15v-36.328125c0-8.285156 6.714844-15 15-15h73.347656c8.285156 0 15 6.714844 15 15s-6.714844 15-15 15h-58.347656v21.328125c0 8.28125-6.714844 15-15 15zm0 0" fill="#787465"/><path d="m421.90625 280.816406c-8.285156 0-15-6.71875-15-15v-235.816406h-303.558594v235.816406c0 8.28125-6.714844 15-15 15s-15-6.71875-15-15v-250.816406c0-8.285156 6.714844-15 15-15h333.558594c8.285156 0 15 6.714844 15 15v250.816406c0 8.285156-6.714844 15-15 15zm0 0" fill="#c4c0ad"/><path d="m421.90625 0h-166.777344v30h151.777344v235.816406c0 8.28125 6.714844 15 15 15s15-6.71875 15-15v-250.816406c0-8.285156-6.714844-15-15-15zm0 0" fill="#b0ac9b"/><path d="m88.347656 512c-8.285156 0-15-6.714844-15-15v-48.625c0-8.285156 6.714844-15 15-15s15 6.714844 15 15v48.625c0 8.285156-6.714844 15-15 15zm0 0" fill="#787465"/><path d="m421.90625 463.375h-333.558594c-8.285156 0-15-6.714844-15-15v-197.558594h363.558594v197.558594c0 8.285156-6.714844 15-15 15zm0 0" fill="#d6d3c5"/><path d="m255.128906 463.375h166.777344c8.285156 0 15-6.714844 15-15v-197.558594h-181.777344zm0 0" fill="#c4c0ad"/><path d="m361.367188 458.371094c0 29.335937-23.78125 53.121094-53.121094 53.121094-29.335938 0-53.117188-23.785157-53.117188-53.121094 0-29.339844 23.78125-53.121094 53.117188-53.121094 29.339844 0 53.121094 23.78125 53.121094 53.121094zm0 0" fill="#787465"/><path d="m361.367188 458.371094c0-29.339844-23.78125-53.121094-53.121094-53.121094v106.242188c29.339844 0 53.121094-23.785157 53.121094-53.121094zm0 0" fill="#696453"/><path d="m123.058594 90.890625h-8.53125c-22.742188 0-41.179688-18.4375-41.179688-41.179687v-34.710938c0-8.285156 6.714844-15 15-15h75.890625v49.710938c0 22.742187-18.4375 41.179687-41.179687 41.179687zm0 0" fill="#ffe645"/><path d="m213.945312 90.890625h-8.527343c-22.742188 0-41.179688-18.4375-41.179688-41.179687v-49.710938h90.890625v49.710938c0 22.742187-18.4375 41.179687-41.183594 41.179687zm0 0" fill="#ff8b6e"/><path d="m304.835938 90.890625h-8.527344c-22.746094 0-41.179688-18.4375-41.179688-41.179687v-49.710938h90.886719v49.710938c0 22.742187-18.4375 41.179687-41.179687 41.179687zm0 0" fill="#ffcf2c"/><path d="m395.726562 90.890625h-8.53125c-22.742187 0-41.179687-18.4375-41.179687-41.179687v-49.710938h75.890625c8.28125 0 15 6.714844 15 15v34.710938c0 22.742187-18.4375 41.179687-41.179688 41.179687zm0 0" fill="#f2472c"/></svg>