<svg height="512pt" viewBox="0 -3 512 512" width="512pt" xmlns="http://www.w3.org/2000/svg"><path d="m487.308594 445.289062h-462.613282v-368.550781h462.609376v368.550781zm0 0" fill="#d6d3c5"/><path d="m194.09375 445.289062h-169.398438v-233.984374h169.398438zm0 0" fill="#db703d"/><path d="m194.09375 325.289062h-39.625c-8.285156 0-15 6.71875-15 15 0 8.285157 6.714844 15 15 15h39.625zm0 0" fill="#4c4a40"/><path d="m179.09375 76.738281h308.210938v368.554688h-308.210938zm0 0" fill="#faf9f5"/><path d="m256.003906 76.738281h231.300782v368.554688h-231.300782zm0 0" fill="#edeade"/><path d="m179.09375 294.460938h308.210938v150.828124h-308.210938zm0 0" fill="#edeade"/><path d="m256.003906 294.460938h231.300782v150.828124h-231.300782zm0 0" fill="#d6d3c5"/><path d="m179.09375 211.304688h308.210938v158.988281h-308.210938zm0 0" fill="#b2e7ff"/><path d="m256.003906 211.304688h231.300782v158.988281h-231.300782zm0 0" fill="#8fd4ff"/><path d="m497 106.738281h-482c-8.285156 0-15-6.714843-15-15 0-8.28125 6.714844-15 15-15h482c8.285156 0 15 6.71875 15 15 0 8.285157-6.714844 15-15 15zm0 0" fill="#b0ac9b"/><path d="m417.304688 141.304688h-306.117188v-100.808594h306.117188c8.285156 0 15 6.714844 15 15v70.808594c0 8.285156-6.714844 15-15 15zm0 0" fill="#ff998d"/><path d="m417.304688 40.496094h-161.300782v100.808594h161.300782c8.285156 0 15-6.714844 15-15v-70.808594c0-8.285156-6.714844-15-15-15zm0 0" fill="#ff6e6e"/><path d="m402.304688 70.496094v40.808594h-291.117188v-40.808594zm0 0" fill="#fffae7"/><path d="m256.003906 70.496094h146.300782v40.8125h-146.300782zm0 0" fill="#ffedcd"/><path d="m92.242188 152.394531-34.957032-69.914062h87.804688l-34.957032 69.914062c-3.6875 7.371094-14.203124 7.371094-17.890624 0zm0 0" fill="#fff566"/><path d="m57.554688 82.488281c-5.773438-8.464843-9.148438-18.691406-9.148438-29.707031 0-29.152344 23.632812-52.78125 52.78125-52.78125 29.152344 0 52.78125 23.632812 52.78125 52.78125 0 10.929688-3.320312 21.085938-9.011719 29.507812zm0 0" fill="#ff6e6e"/><path d="m497 506.253906h-481.992188c-8.285156 0-14.9999995-6.71875-14.9999995-15v-31.964844c0-24.261718 19.7382815-44 43.9999995-44h423.992188c24.261719 0 44 19.738282 44 44v31.964844c0 8.28125-6.714844 15-15 15zm0 0" fill="#c4c0ad"/><path d="m468 415.289062h-211.996094v90.964844h240.996094c8.285156 0 15-6.71875 15-15v-31.964844c0-24.257812-19.738281-44-44-44zm0 0" fill="#b0ac9b"/></svg>