<svg height="512pt" viewBox="0 0 512 512" width="512pt" xmlns="http://www.w3.org/2000/svg"><path d="m47.757812 452.617188c-3.289062 0-6.597656-1.074219-9.363281-3.289063-6.46875-5.175781-7.515625-14.613281-2.339843-21.082031l82.394531-102.945313c5.179687-6.464843 14.617187-7.515625 21.085937-2.335937 6.46875 5.175781 7.515625 14.613281 2.335938 21.082031l-82.394532 102.945313c-2.960937 3.699218-7.324218 5.625-11.71875 5.625zm0 0" fill="#a19d8d"/><path d="m437.011719 452.617188c-4.398438 0-8.753907-1.921876-11.71875-5.621094l-83.523438-104.265625c-5.179687-6.464844-4.136719-15.90625 2.328125-21.085938 6.464844-5.179687 15.90625-4.132812 21.085938 2.332031l83.523437 104.261719c5.179688 6.464844 4.136719 15.90625-2.328125 21.085938-2.765625 2.21875-6.078125 3.292969-9.367187 3.292969zm0 0" fill="#787465"/><path d="m421.316406 208.996094h-358.066406c-8.285156 0-15-6.714844-15-15 0-8.28125 6.714844-15 15-15h358.066406c8.285156 0 15 6.71875 15 15 0 8.285156-6.714844 15-15 15zm0 0" fill="#c4c0ad"/><path d="m421.316406 178.996094h-179.035156v30h179.035156c8.285156 0 15-6.714844 15-15 0-8.28125-6.714844-15-15-15zm0 0" fill="#b0ac9b"/><path d="m130.53125 349.199219c-3.285156 0-6.59375-1.078125-9.359375-3.289063-6.46875-5.179687-7.515625-14.617187-2.339844-21.085937l223.59375-279.347657c5.175781-6.46875 14.613281-7.515624 21.082031-2.339843s7.515626 14.617187 2.339844 21.085937l-223.59375 279.347656c-2.964844 3.703126-7.320312 5.628907-11.722656 5.628907zm0 0" fill="#d6d3c5"/><path d="m363.507812 43.136719c-6.46875-5.175781-15.90625-4.128907-21.082031 2.339843l-100.144531 125.113282v48.007812l123.566406-154.375c5.175782-6.46875 4.128906-15.910156-2.339844-21.085937zm0 0" fill="#c4c0ad"/><path d="m353.898438 348.867188c-4.398438 0-8.753907-1.925782-11.71875-5.625l-223.75-279.308594c-5.179688-6.464844-4.136719-15.90625 2.332031-21.085938 6.464843-5.175781 15.902343-4.136718 21.082031 2.332032l223.75 279.308593c5.179688 6.464844 4.136719 15.90625-2.328125 21.085938-2.769531 2.214843-6.082031 3.292969-9.367187 3.292969zm0 0" fill="#edeade"/><path d="m242.28125 170.558594v47.980468l99.898438 124.703126c2.960937 3.699218 7.316406 5.625 11.714843 5.625 3.289063 0 6.601563-1.078126 9.371094-3.296876 6.464844-5.179687 7.507813-14.617187 2.328125-21.082031zm0 0" fill="#d6d3c5"/><path d="m242.28125 387.882812c-106.988281 0-194.03125-86.976562-194.03125-193.886718 0-106.90625 87.042969-193.882813 194.03125-193.882813 106.992188 0 194.035156 86.976563 194.035156 193.882813 0 106.910156-87.042968 193.886718-194.035156 193.886718zm0-357.769531c-90.445312 0-164.03125 73.519531-164.03125 163.882813 0 90.367187 73.585938 163.886718 164.03125 163.886718 90.449219 0 164.035156-73.519531 164.035156-163.886718 0-90.363282-73.585937-163.882813-164.035156-163.882813zm0 0" fill="#a19d8d"/><path d="m406.316406 193.996094c0 90.367187-73.585937 163.886718-164.035156 163.886718v30c106.992188 0 194.035156-86.976562 194.035156-193.886718 0-106.90625-87.042968-193.882813-194.035156-193.882813v30c90.449219 0 164.035156 73.519531 164.035156 163.882813zm0 0" fill="#787465"/><path d="m437 512h-421.988281c-8.285157 0-15.0000002-6.714844-15.0000002-15v-59.382812c0-8.28125 6.7148432-15 15.0000002-15h421.988281c8.285156 0 15 6.71875 15 15v59.382812c0 8.285156-6.714844 15-15 15zm0 0" fill="#f78959"/><path d="m437 422.617188h-194.71875v89.382812h194.71875c8.285156 0 15-6.714844 15-15v-59.382812c0-8.28125-6.714844-15-15-15zm0 0" fill="#db703d"/><path d="m497 512h-60c-8.28125 0-15-6.714844-15-15v-99.914062c0-8.285157 6.71875-15 15-15h60c8.285156 0 15 6.714843 15 15v99.914062c0 8.285156-6.714844 15-15 15zm0 0" fill="#8c4408"/><path d="m72.351562 248.5h-17.929687c-30.007813 0-54.421875-24.414062-54.421875-54.421875v-.140625c0-30.007812 24.414062-54.421875 54.421875-54.421875h17.929687c30.007813 0 54.421876 24.414063 54.421876 54.421875v.140625c0 30.007813-24.414063 54.421875-54.421876 54.421875zm0 0" fill="#8fd4ff"/><path d="m430.417969 248.5h-17.933594c-30.003906 0-54.417969-24.414062-54.417969-54.421875v-.140625c0-30.007812 24.414063-54.421875 54.417969-54.421875h17.933594c30.007812 0 54.421875 24.414063 54.421875 54.421875v.140625c0 30.007813-24.414063 54.421875-54.421875 54.421875zm0 0" fill="#ff9300"/><path d="m363.261719 108.980469h-17.933594c-30.003906 0-54.417969-24.414063-54.417969-54.417969v-.140625c0-30.007813 24.414063-54.421875 54.417969-54.421875h17.933594c30.007812 0 54.421875 24.414062 54.421875 54.421875v.140625c0 30.003906-24.414063 54.417969-54.421875 54.417969zm0 0" fill="#53b7f5"/><path d="m139.507812 108.980469h-17.933593c-30.003907 0-54.417969-24.414063-54.417969-54.417969v-.140625c0-30.007813 24.414062-54.421875 54.417969-54.421875h17.933593c30.007813 0 54.421876 24.414062 54.421876 54.421875v.140625c0 30.003906-24.414063 54.417969-54.421876 54.417969zm0 0" fill="#ffd236"/><path d="m363.261719 387.777344h-17.933594c-30.003906 0-54.417969-24.414063-54.417969-54.417969 0-30.019531 24.414063-54.433594 54.417969-54.433594h17.933594c30.007812 0 54.421875 24.414063 54.421875 54.421875 0 30.015625-24.414063 54.429688-54.421875 54.429688zm0 0" fill="#53b7f5"/><path d="m139.128906 387.910156h-17.933594c-30.007812 0-54.417968-24.414062-54.417968-54.421875 0-30.015625 24.410156-54.429687 54.417968-54.429687h17.933594c30.007813 0 54.421875 24.414062 54.421875 54.421875 0 30.015625-24.414062 54.429687-54.421875 54.429687zm0 0" fill="#ffd236"/></svg>