<svg height="512pt" viewBox="0 -135 512 512" width="512pt" xmlns="http://www.w3.org/2000/svg"><path d="m349.109375 74.609375c-12.265625-15.71875-25.726563-28.65625-40.007813-38.457031-20.445312-14.035156-41.957031-21.152344-63.933593-21.152344h-131.058594v-1.882812l-17.121094 2.449218c-17.148437 2.449219-32.378906 12.964844-40.742187 28.125l-30.417969 55.148438h342.195313zm0 0" fill="#4c4a40"/><path d="m309.101562 36.152344c-19.628906-13.476563-40.242187-20.554688-61.304687-21.101563v83.789063h120.226563l-18.914063-24.230469c-12.265625-15.714844-25.726563-28.65625-40.007813-38.457031zm0 0" fill="#2e2c27"/><path d="m463.195312 99.9375-88.382812-14.738281c-5.167969-8.390625-15.441406-23.578125-30.378906-38.789063-29.8125-30.359375-64.136719-46.410156-99.265625-46.410156h-140.324219c-25.675781 0-49.328125 13.964844-61.730469 36.445312l-30.417969 55.148438c-.570312 1.035156-1.003906 2.117188-1.3125 3.226562-7.019531 6.917969-11.382812 16.527344-11.382812 27.140626v73.863281c0 8.28125 6.714844 15 15 15h482c8.285156 0 15-6.71875 15-15v-39.710938c0-28.136719-20.964844-52.246093-48.804688-56.175781zm-233.96875-69.9375h15.941407c42.515625 0 74.632812 31.4375 92.117187 53.839844h-108.058594zm-100.117187 0h70.117187v53.839844h-70.117187zm-59.726563 20.9375c6.1875-11.21875 17.257813-18.742188 29.726563-20.523438v53.425782h-47.875zm0 0" fill="#ff674f"/><path d="m463.195312 99.9375-88.382812-14.738281c-5.167969-8.390625-15.441406-23.578125-30.378906-38.789063-29.066406-29.601562-62.425782-45.59375-96.636719-46.3749998v30.0234378c41.210937 1.261718 72.367187 31.84375 89.488281 53.78125h-89.488281v126.984375h249.203125c8.285156 0 15-6.71875 15-15v-39.710938c0-28.136719-20.964844-52.246093-48.804688-56.175781zm0 0" fill="#f2472c"/><path d="m475.257812 146.113281c0 8.285157 6.714844 15 15 15h21.742188v-5c0-8.910156-2.105469-17.410156-5.863281-25h-15.878907c-8.285156 0-15 6.714844-15 15zm0 0" fill="#ffe645"/><path d="m421.675781 193.519531c0-18.726562-15.324219-33.910156-34.226562-33.910156-18.90625 0-34.230469 15.183594-34.230469 33.910156 0 18.726563 15.324219 33.90625 34.230469 33.90625 18.902343 0 34.226562-15.179687 34.226562-33.90625zm0 0" fill="#a19d8d"/><path d="m387.449219 242.425781c-27.144531 0-49.230469-21.9375-49.230469-48.90625s22.085938-48.90625 49.230469-48.90625 49.226562 21.9375 49.226562 48.90625c0 26.964844-22.082031 48.90625-49.226562 48.90625zm0-67.816406c-10.605469 0-19.230469 8.484375-19.230469 18.910156s8.625 18.90625 19.230469 18.90625c10.601562 0 19.226562-8.480469 19.226562-18.90625s-8.625-18.910156-19.226562-18.910156zm0 0" fill="#2e2c27"/><path d="m143.304688 193.519531c0-18.726562-15.324219-33.910156-34.226563-33.910156-18.90625 0-34.230469 15.183594-34.230469 33.910156 0 18.726563 15.324219 33.90625 34.230469 33.90625 18.902344 0 34.226563-15.179687 34.226563-33.90625zm0 0" fill="#c4c0ad"/><path d="m109.078125 242.425781c-27.144531 0-49.230469-21.9375-49.230469-48.90625s22.085938-48.90625 49.230469-48.90625 49.226563 21.9375 49.226563 48.90625c0 26.964844-22.082032 48.90625-49.226563 48.90625zm0-67.816406c-10.605469 0-19.230469 8.484375-19.230469 18.910156s8.625 18.90625 19.230469 18.90625c10.601563 0 19.226563-8.480469 19.226563-18.90625s-8.625-18.910156-19.226563-18.910156zm0 0" fill="#4c4a40"/></svg>