<svg height="512pt" viewBox="0 0 512 512" width="512pt" xmlns="http://www.w3.org/2000/svg"><path d="m256 511.980469c-8.285156 0-15-6.714844-15-15v-403.636719c0-8.285156 6.714844-15 15-15s15 6.714844 15 15v403.636719c0 8.285156-6.714844 15-15 15zm0 0" fill="#a19d8d"/><path d="m256 78.34375c-.003906 0-.007812 0-.007812 0v433.636719s.003906.003906.007812.003906c8.285156 0 15-6.71875 15-15v-403.640625c0-8.285156-6.714844-15-15-15zm0 0" fill="#878477"/><path d="m292.503906 511.980469h-73.007812c-8.285156 0-15-6.714844-15-15 0-8.28125 6.714844-15 15-15h73.007812c8.285156 0 15 6.71875 15 15 0 8.285156-6.714844 15-15 15zm0 0" fill="#c4c0ad"/><path d="m292.503906 481.980469h-36.511718v30h36.511718c8.285156 0 15-6.714844 15-15 0-8.28125-6.714844-15-15-15zm0 0" fill="#b0ac9b"/><path d="m497 108.34375h-482c-7.378906 0-13.660156-5.367188-14.8125-12.652344-1.15625-7.285156 3.160156-14.332031 10.175781-16.613281l240.988281-78.34375c3.015626-.980469 6.261719-.976563 9.273438 0l241.011719 78.34375c7.015625 2.28125 11.332031 9.324219 10.175781 16.613281-1.152344 7.285156-7.4375 12.652344-14.8125 12.652344zm0 0" fill="#ffe645"/><path d="m501.636719 79.078125-241.011719-78.34375c-1.503906-.488281-3.070312-.734375-4.632812-.734375v108.34375h241.007812c7.378906 0 13.660156-5.367188 14.8125-12.652344 1.15625-7.285156-3.160156-14.332031-10.175781-16.613281zm0 0" fill="#ffc12e"/><path d="m400.246094 333.804688h-288.492188c-8.285156 0-15-6.714844-15-15v-29.996094c0-8.285156 6.714844-15 15-15h288.492188c8.285156 0 15 6.714844 15 15v29.996094c0 8.285156-6.714844 15-15 15zm0 0" fill="#c4c0ad"/><path d="m400.246094 273.808594h-144.253906v59.996094h144.253906c8.285156 0 15-6.714844 15-15v-29.996094c0-8.285156-6.714844-15-15-15zm0 0" fill="#b0ac9b"/><path d="m106.753906 511.996094c-8.285156 0-15-6.714844-15-15v-89.980469c0-8.28125 6.714844-15 15-15 8.28125 0 15 6.71875 15 15v89.980469c0 8.285156-6.714844 15-15 15zm0 0" fill="#a19d8d"/><path d="m124.796875 422.015625h-109.777344c-8.285156 0-14.9999998-6.714844-14.9999998-15 0-8.28125 6.7148438-15 14.9999998-15h109.777344c8.28125 0 15 6.71875 15 15 0 8.285156-6.714844 15-15 15zm0 0" fill="#c4c0ad"/><path d="m15.019531 511.996094c-8.285156 0-14.9999998-6.714844-14.9999998-15v-193.1875c0-8.285156 6.7148438-15 14.9999998-15 8.28125 0 15 6.714844 15 15v193.1875c0 8.285156-6.71875 15-15 15zm0 0" fill="#a19d8d"/><path d="m405.257812 511.996094c-8.285156 0-15-6.714844-15-15v-89.980469c0-8.28125 6.714844-15 15-15 8.28125 0 15 6.71875 15 15v89.980469c0 8.285156-6.71875 15-15 15zm0 0" fill="#878477"/><path d="m496.992188 422.015625h-109.777344c-8.285156 0-15-6.714844-15-15 0-8.28125 6.714844-15 15-15h109.777344c8.28125 0 15 6.71875 15 15 0 8.285156-6.714844 15-15 15zm0 0" fill="#c4c0ad"/><path d="m496.992188 511.996094c-8.285157 0-15-6.714844-15-15v-193.1875c0-8.285156 6.714843-15 15-15 8.285156 0 15 6.714844 15 15v193.1875c0 8.285156-6.714844 15-15 15zm0 0" fill="#a19d8d"/></svg>