<svg height="512pt" viewBox="-52 0 512 512" width="512pt" xmlns="http://www.w3.org/2000/svg"><path d="m48.320312 384.917969h309.984376v30h-309.984376zm0 0" fill="#a19d8d"/><path d="m203.636719 384.917969h154.667969v30h-154.667969zm0 0" fill="#878477"/><path d="m46.984375 264.914062h60v30h-60zm0 0" fill="#787465"/><path d="m302.320312 264.914062h57.96875v30h-57.96875zm0 0" fill="#696453"/><path d="m300.289062 119.082031h60v30h-60zm0 0" fill="#696453"/><path d="m46.984375 119.082031h60v30h-60zm0 0" fill="#787465"/><path d="m46.984375 512c-8.285156 0-15-6.714844-15-15v-414.972656c0-8.28125 6.714844-15 15-15s15 6.71875 15 15v414.972656c0 8.285156-6.714844 15-15 15zm0 0" fill="#b0ac9b"/><path d="m78.96875 512h-63.96875c-8.285156 0-15-6.714844-15-15s6.714844-15 15-15h63.96875c8.285156 0 15 6.714844 15 15s-6.714844 15-15 15zm0 0" fill="#787465"/><path d="m360.289062 512c-8.285156 0-15-6.714844-15-15v-414.972656c0-8.28125 6.714844-15 15-15 8.285157 0 15 6.71875 15 15v414.972656c0 8.285156-6.714843 15-15 15zm0 0" fill="#a19d8d"/><path d="m392.273438 512h-63.96875c-8.285157 0-15-6.714844-15-15s6.714843-15 15-15h63.96875c8.285156 0 15 6.714844 15 15s-6.714844 15-15 15zm0 0" fill="#696453"/><path d="m300.289062 354.914062h-193.304687c-8.285156 0-15-6.714843-15-15v-324.914062c0-8.285156 6.714844-15 15-15h193.304687c8.285157 0 15 6.714844 15 15v324.914062c0 8.285157-6.714843 15-15 15zm0 0" fill="#878477"/><path d="m300.289062 0h-96.652343v354.914062h96.652343c8.285157 0 15-6.714843 15-15v-324.914062c0-8.285156-6.714843-15-15-15zm0 0" fill="#787465"/><path d="m91.984375 82.03125v257.882812c0 8.285157 6.714844 15 15 15h193.304687c8.285157 0 15-6.714843 15-15v-257.882812zm0 0" fill="#b0ac9b"/><path d="m203.636719 354.914062h96.652343c8.285157 0 15-6.714843 15-15v-257.882812h-111.652343zm0 0" fill="#a19d8d"/></svg>