<svg height="512pt" viewBox="0 -57 512 512" width="512pt" xmlns="http://www.w3.org/2000/svg"><path d="m496.996094 352.15625h-156.992188v-261.699219h47.886719c18.449219 0 36.246094 5.507813 51.460937 15.929688 15.21875 10.421875 26.777344 25.019531 33.414063 42.210937l38.226563 98.96875c.664062 1.722656 1.007812 3.558594 1.007812 5.40625v84.179688c0 8.285156-6.71875 15.003906-15.003906 15.003906zm0 0" fill="#738c28"/><path d="m510.992188 247.566406-32.925782-85.25h-52.605468c-15.730469 0-28.484376 12.730469-28.484376 28.429688v46.824218c0 8.285157 6.71875 15.003907 15.003907 15.003907h100c-.042969-1.714844-.371094-3.410157-.988281-5.007813zm0 0" fill="#2e2c27"/><path d="m309.996094 58.433594c-8.285156 0-15.003906-6.714844-15.003906-15.003906v-28.425782c0-8.285156 6.71875-15.003906 15.003906-15.003906s15.003906 6.71875 15.003906 15.003906v28.425782c0 8.289062-6.71875 15.003906-15.003906 15.003906zm0 0" fill="#738c28"/><path d="m249.980469 58.433594c-8.285157 0-15.003907-6.714844-15.003907-15.003906v-28.425782c0-8.285156 6.71875-15.003906 15.003907-15.003906 8.289062 0 15.003906 6.71875 15.003906 15.003906v28.425782c0 8.289062-6.714844 15.003906-15.003906 15.003906zm0 0" fill="#8aa818"/><path d="m264.984375 43.429688v-28.425782c0-8.285156-6.714844-15.003906-15.003906-15.003906v58.433594c8.289062 0 15.003906-6.714844 15.003906-15.003906zm0 0" fill="#738c28"/><path d="m189.96875 58.433594c-8.285156 0-15.003906-6.714844-15.003906-15.003906v-28.425782c0-8.285156 6.71875-15.003906 15.003906-15.003906s15.003906 6.71875 15.003906 15.003906v28.425782c0 8.289062-6.71875 15.003906-15.003906 15.003906zm0 0" fill="#8aa818"/><path d="m15.003906 352.15625c-8.285156 0-15.003906-6.71875-15.003906-15.003906v-171.042969c0-3.535156 1.25-6.960937 3.527344-9.664063l103.382812-122.71875c2.851563-3.382812 7.046875-5.335937 11.472656-5.335937h221.621094c8.285156 0 15 6.714844 15 15.003906v308.761719zm0 0" fill="#b4d241"/><path d="m340.003906 28.390625h-90.023437v323.765625h105.023437v-308.761719c0-8.289062-6.714844-15.003906-15-15.003906zm0 0" fill="#9ebd2a"/><path d="m0 252.574219v84.578125c0 8.285156 6.71875 15.003906 15.003906 15.003906h340v-99.582031zm0 0" fill="#9ebd2a"/><path d="m249.980469 252.574219h105.023437v99.582031h-105.023437zm0 0" fill="#8aa818"/><path d="m0 237.570312h355.003906v30.007813h-355.003906zm0 0" fill="#c5ed4e"/><path d="m249.980469 237.570312h105.023437v30.007813h-105.023437zm0 0" fill="#b4d241"/><path d="m459.015625 348.960938c0-18.316407-14.882813-33.164063-33.238281-33.164063-18.355469 0-33.234375 14.847656-33.234375 33.164063 0 18.320312 14.878906 33.167968 33.234375 33.167968 18.355468 0 33.238281-14.847656 33.238281-33.167968zm0 0" fill="#c4c0ad"/><path d="m425.78125 397.132812c-26.601562 0-48.238281-21.609374-48.238281-48.171874 0-26.558594 21.636719-48.167969 48.238281-48.167969 26.597656 0 48.238281 21.609375 48.238281 48.167969 0 26.5625-21.640625 48.171874-48.238281 48.171874zm0-66.332031c-10.054688 0-18.234375 8.148438-18.234375 18.160157 0 10.015624 8.179687 18.164062 18.234375 18.164062 10.050781 0 18.230469-8.148438 18.230469-18.164062 0-10.011719-8.179688-18.160157-18.230469-18.160157zm0 0" fill="#4c4a40"/><path d="m143.253906 348.960938c0-18.316407-14.878906-33.164063-33.234375-33.164063s-33.234375 14.847656-33.234375 33.164063c0 18.320312 14.878906 33.167968 33.234375 33.167968s33.234375-14.847656 33.234375-33.167968zm0 0" fill="#c4c0ad"/><path d="m110.019531 397.132812c-26.597656 0-48.238281-21.609374-48.238281-48.171874 0-26.558594 21.636719-48.167969 48.238281-48.167969 26.597657 0 48.238281 21.609375 48.238281 48.167969 0 26.5625-21.640624 48.171874-48.238281 48.171874zm0-66.332031c-10.054687 0-18.230469 8.148438-18.230469 18.160157 0 10.015624 8.175782 18.164062 18.230469 18.164062 10.054688 0 18.230469-8.148438 18.230469-18.164062 0-10.011719-8.179688-18.160157-18.230469-18.160157zm0 0" fill="#696453"/></svg>