<svg height="512pt" viewBox="0 -48 512 512" width="512pt" xmlns="http://www.w3.org/2000/svg"><path d="m131.9375 385.480469c0 16.566406-13.433594 30-30 30-16.570312 0-30-13.433594-30-30 0-16.570313 13.429688-30 30-30 16.566406 0 30 13.429687 30 30zm0 0" fill="#4c4a40"/><path d="m440.0625 385.480469c0 16.566406-13.429688 30-30 30-16.566406 0-30-13.433594-30-30 0-16.570313 13.433594-30 30-30 16.570312 0 30 13.429687 30 30zm0 0" fill="#2e2c27"/><path d="m58.359375 146.539062h-43.359375c-8.285156 0-15-6.714843-15-15 0-8.28125 6.714844-15 15-15h43.359375c8.285156 0 15 6.71875 15 15 0 8.285157-6.714844 15-15 15zm0 0" fill="#4c4a40"/><path d="m497 146.539062h-43.359375c-8.285156 0-15-6.714843-15-15 0-8.28125 6.714844-15 15-15h43.359375c8.285156 0 15 6.71875 15 15 0 8.285157-6.714844 15-15 15zm0 0" fill="#2e2c27"/><path d="m445.597656 360.480469h-379.195312c-8.066406 0-14.6875-6.378907-14.992188-14.4375l-10-266.089844c-.152344-4.070313 1.359375-8.03125 4.1875-10.96875 2.828125-2.933594 6.726563-4.59375 10.804688-4.59375h399.195312c4.078125 0 7.976563 1.660156 10.804688 4.59375 2.828125 2.9375 4.339844 6.898437 4.1875 10.96875l-10 266.089844c-.304688 8.058593-6.925782 14.4375-14.992188 14.4375zm0 0" fill="#878477"/><path d="m455.597656 64.390625h-198.171875v296.089844h188.171875c8.066406 0 14.6875-6.378907 14.988282-14.4375l10-266.089844c.152343-4.070313-1.355469-8.03125-4.183594-10.96875-2.828125-2.933594-6.726563-4.59375-10.804688-4.59375zm0 0" fill="#787465"/><path d="m127.9375 64.390625h256.125v296.089844h-256.125zm0 0" fill="#b0ac9b"/><path d="m257.425781 64.390625h126.636719v296.089844h-126.636719zm0 0" fill="#a19d8d"/><path d="m471.695312 94.390625h-431.390624c-4.820313 0-9.351563-2.316406-12.167969-6.230469-2.820313-3.910156-3.585938-8.9375-2.0625-13.511718l21.460937-64.390626c2.042969-6.125 7.777344-10.257812 14.230469-10.257812h388.464844c6.457031 0 12.191406 4.132812 14.230469 10.257812l21.464843 64.390626c1.523438 4.574218.757813 9.601562-2.0625 13.511718-2.816406 3.914063-7.347656 6.230469-12.167969 6.230469zm0 0" fill="#d6d3c5"/><path d="m464.464844 10.257812c-2.042969-6.125-7.777344-10.25390575-14.230469-10.25390575h-192.808594v94.38671875h214.269531c4.820313 0 9.351563-2.316406 12.167969-6.230469 2.820313-3.910156 3.585938-8.9375 2.0625-13.511718zm0 0" fill="#c4c0ad"/></svg>