<svg height="511pt" viewBox="-103 0 511 511.99959" width="511pt" xmlns="http://www.w3.org/2000/svg"><path d="m123.375 402h60v110h-60zm0 0" fill="#878477"/><path d="m153.414062 402h29.960938v110h-29.960938zm0 0" fill="#787465"/><path d="m199.117188 422h-91.488282c-33.433594 0-60.878906-26.4375-62.132812-59.847656l-10.191406-235.570313h236.140624l-10.191406 235.570313c-1.253906 33.410156-28.703125 59.847656-62.136718 59.847656zm0 0" fill="#d6d3c5"/><path d="m153.414062 422h45.703126c33.433593 0 60.882812-26.4375 62.136718-59.847656l10.191406-235.570313h-118.03125zm0 0" fill="#c4c0ad"/><path d="m192.675781 304.480469h-78.605469c-5.195312 0-10.023437-2.691407-12.757812-7.113281-2.734375-4.421876-2.980469-9.945313-.65625-14.59375l39.300781-78.605469c2.542969-5.082031 7.734375-8.292969 13.417969-8.292969 5.679688 0 10.875 3.210938 13.414062 8.292969l39.304688 78.605469c2.324219 4.648437 2.074219 10.171874-.65625 14.59375-2.734375 4.421874-7.5625 7.113281-12.761719 7.113281zm0 0" fill="#fff566"/><path d="m166.789062 204.167969c-2.53125-5.070313-7.707031-8.277344-13.375-8.292969v108.605469h39.261719c5.199219 0 10.027344-2.691407 12.761719-7.113281 2.730469-4.421876 2.980469-9.945313.65625-14.59375zm0 0" fill="#ffe645"/><path d="m20.3125 126.582031v-38.328125c0-29.628906 17.554688-56.417968 44.71875-68.25l3.234375-1.40625c27.03125-11.769531 55.675781-18.015625 85.148437-18.5585935 29.488282-.5546875 58.328126 4.6445315 85.769532 15.4062495 28.703125 11.265626 47.253906 38.464844 47.253906 69.300782v41.839844h-266.125zm0 0" fill="#b4d241"/><path d="m286.433594 126.582031v-41.835937c0-30.835938-18.546875-58.035156-47.253906-69.300782-27.4375-10.765624-56.277344-15.960937-85.765626-15.4062495v126.5468755h133.019532zm0 0" fill="#9ebd2a"/><path d="m60.3125 126.582031v-38.328125c0-13.707031 8.121094-26.101562 20.691406-31.574218l3.234375-1.410157c22.191407-9.664062 45.714844-14.789062 69.910157-15.238281 1.195312-.019531 2.375-.03125 3.546874-.03125 22.921876 0 45.421876 4.265625 66.878907 12.683594 13.480469 5.289062 21.859375 17.578125 21.859375 32.0625v41.839844h-186.121094zm0 0" fill="#5a781e"/><path d="m224.574219 52.683594c-21.453125-8.417969-43.957031-12.683594-66.878907-12.683594-1.171874 0-2.347656.011719-3.542968.03125-.246094.003906-.492188.019531-.738282.023438v86.527343h93.023438v-41.835937c-.003906-14.488282-8.378906-26.773438-21.863281-32.0625zm0 0" fill="#4b5f1e"/><path d="m291.25 141.582031h-275.75c-8.285156 0-15-6.714843-15-15 0-8.28125 6.714844-15 15-15h275.75c8.28125 0 15 6.71875 15 15 0 8.285157-6.71875 15-15 15zm0 0" fill="#8aa818"/><path d="m291.25 111.582031h-137.835938v30h137.835938c8.28125 0 15-6.714843 15-15 0-8.28125-6.71875-15-15-15zm0 0" fill="#738c28"/></svg>