<svg height="512pt" viewBox="-78 0 512 512" width="512pt" xmlns="http://www.w3.org/2000/svg"><path d="m340.800781 317.429688h-60v-115.800782h60c8.285157 0 15 6.71875 15 15v85.800782c0 8.285156-6.714843 15-15 15zm0 0" fill="#ff674f"/><path d="m75 317.429688h-60c-8.285156 0-15-6.714844-15-15v-85.800782c0-8.28125 6.714844-15 15-15h60zm0 0" fill="#ff8b6e"/><path d="m295.800781 466.988281h-235.800781v-320.355469h235.800781zm0 0" fill="#f2472c"/><path d="m177.902344 146.632812h117.898437v320.355469h-117.898437zm0 0" fill="#b80f00"/><path d="m291.902344 452.003906h-228c-16.570313 0-30 13.429688-30 30v19.996094c0 5.523438 4.476562 10 10 10h268c5.523437 0 10-4.476562 10-10v-19.996094c0-16.570312-13.433594-30-30-30zm0 0" fill="#ff8b6e"/><path d="m291.902344 452.003906h-114v59.996094h134c5.523437 0 10-4.476562 10-10v-19.996094c0-16.570312-13.433594-30-30-30zm0 0" fill="#ff674f"/><path d="m207.902344 59.996094v-29.996094c0-16.570312-13.433594-30-30-30-16.570313 0-30 13.429688-30 30v29.996094" fill="#ffa38c"/><path d="m207.902344 59.996094v-29.996094c0-16.570312-13.433594-30-30-30v59.996094zm0 0" fill="#ff8b6e"/><path d="m295.800781 146.632812h-235.800781v-4.683593c0-52.382813 42.617188-94.996094 95-94.996094h45.800781c52.382813 0 95 42.613281 95 94.996094zm0 0" fill="#ff674f"/><path d="m200.800781 46.953125h-22.898437v99.679687h117.898437v-4.683593c0-52.378907-42.617187-94.996094-95-94.996094zm0 0" fill="#f2472c"/><path d="m307.902344 161.632812h-260c-8.285156 0-15-6.714843-15-15 0-8.285156 6.714844-15 15-15h260c8.28125 0 15 6.714844 15 15 0 8.285157-6.71875 15-15 15zm0 0" fill="#ffa38c"/><path d="m307.902344 131.632812h-130v30h130c8.28125 0 15-6.714843 15-15 0-8.285156-6.71875-15-15-15zm0 0" fill="#ff8b6e"/><path d="m177.902344 219.53125c-22.058594 0-40 17.945312-40 40s17.941406 39.996094 40 39.996094c22.054687 0 40-17.941406 40-39.996094s-17.945313-40-40-40zm0 0" fill="#4c4a40"/><path d="m217.902344 259.53125c0-22.054688-17.945313-40-40-40v79.996094c22.054687 0 40-17.941406 40-39.996094zm0 0" fill="#2e2c27"/><path d="m177.902344 317.429688c-31.929688 0-57.902344-25.976563-57.902344-57.898438 0-31.925781 25.972656-57.902344 57.902344-57.902344 31.925781 0 57.898437 25.976563 57.898437 57.898438 0 31.925781-25.972656 57.902344-57.898437 57.902344zm0-85.800782c-15.386719 0-27.902344 12.515625-27.902344 27.898438 0 15.386718 12.515625 27.902344 27.902344 27.902344 15.382812 0 27.898437-12.519532 27.898437-27.902344 0-15.382813-12.515625-27.898438-27.898437-27.898438zm0 0" fill="#ffa38c"/><path d="m205.800781 259.53125c0 15.382812-12.515625 27.898438-27.898437 27.898438v30c31.925781 0 57.898437-25.976563 57.898437-57.898438 0-31.925781-25.972656-57.902344-57.898437-57.902344v30c15.382812 0 27.898437 12.515625 27.898437 27.902344zm0 0" fill="#ff8b6e"/></svg>