<svg height="512pt" viewBox="0 0 512 512" width="512pt" xmlns="http://www.w3.org/2000/svg"><path d="m466.988281 56.105469h-137.183593c-8.285157 0-15-6.714844-15-15 0-8.28125 6.714843-15 15-15h137.183593c8.285157 0 15 6.71875 15 15 0 8.285156-6.71875 15-15 15zm0 0" fill="#8fd4ff"/><path d="m302.644531 115.210938h-30.5c-8.285156 0-15-6.714844-15-15 0-8.285157 6.714844-15 15-15h30.5c8.28125 0 15 6.714843 15 15 0 8.285156-6.714843 15-15 15zm0 0" fill="#8fd4ff"/><path d="m384.058594 511.996094c-8.28125 0-15-6.714844-15-15v-158.089844c0-8.285156 6.71875-15 15-15 8.285156 0 15 6.714844 15 15v158.089844c0 8.285156-6.714844 15-15 15zm0 0" fill="#7d3607"/><path d="m384.058594 403.914062c-50.828125 0-92.183594-41.351562-92.183594-92.183593v-92.796875c0-50.832032 41.351562-92.1875 92.183594-92.1875 50.832031 0 92.1875 41.355468 92.1875 92.1875v92.796875c0 50.832031-41.355469 92.183593-92.1875 92.183593zm0 0" fill="#738c28"/><path d="m241.058594 364.105469h-142.523438c-54.328125 0-98.5273435-44.199219-98.5273435-98.527344 0-35.964844 19.5078125-68.722656 50.4531255-86.011719v-60.878906c0-65.445312 53.246093-118.6875 118.691406-118.6875h1.289062c65.445313 0 118.6875 53.242188 118.6875 118.6875v60.878906c30.949219 17.289063 50.457032 50.046875 50.457032 86.011719 0 54.328125-44.199219 98.527344-98.527344 98.527344zm0 0" fill="#c5ed4e"/><path d="m289.128906 179.566406v-60.878906c0-65.445312-53.242187-118.6875-118.6875-118.6875h-.644531v364.105469h71.261719c54.328125 0 98.527344-44.199219 98.527344-98.527344 0-35.964844-19.507813-68.722656-50.457032-86.011719zm0 0" fill="#9ebd2a"/><path d="m169.796875 461.5c-3.8125 0-7.628906-1.445312-10.554687-4.339844l-27.050782-26.777344c-5.886718-5.828124-5.933594-15.324218-.105468-21.214843 5.828124-5.886719 15.328124-5.933594 21.210937-.105469l27.050781 26.777344c5.890625 5.828125 5.9375 15.324218.109375 21.214844-2.933593 2.960937-6.796875 4.445312-10.660156 4.445312zm0 0" fill="#8c4408"/><path d="m169.589844 300.789062c-3.835938 0-7.675782-1.460937-10.605469-4.390624-5.859375-5.859376-5.859375-15.355469 0-21.214844l44.113281-44.113282c5.859375-5.855468 15.355469-5.855468 21.214844 0 5.855469 5.859376 5.855469 15.355469 0 21.214844l-44.113281 44.113282c-2.929688 2.925781-6.769531 4.390624-10.609375 4.390624zm0 0" fill="#7d3607"/><path d="m169.796875 511.992188c-8.285156 0-15-6.714844-15-15v-320.875c0-8.285157 6.714844-15 15-15s15 6.714843 15 15v320.875c0 8.285156-6.714844 15-15 15zm0 0" fill="#cc7927"/><path d="m169.796875 161.117188v350.875c8.285156 0 15-6.714844 15-15v-320.875c0-8.285157-6.714844-15-15-15zm0 0" fill="#a15615"/><path d="m270.414062 512c-1.988281 0-4.011718-.398438-5.953124-1.238281-7.601563-3.292969-11.09375-12.125-7.800782-19.730469l20.722656-47.835938c3.292969-7.605468 12.125-11.097656 19.726563-7.800781 7.601563 3.292969 11.09375 12.125 7.800781 19.726563l-20.722656 47.839844c-2.453125 5.65625-7.972656 9.039062-13.773438 9.039062zm0 0" fill="#738c28"/><path d="m270.429688 512c-5.796876 0-11.316407-3.382812-13.769532-9.039062l-20.726562-47.839844c-3.292969-7.601563.199218-16.433594 7.800781-19.726563 7.605469-3.296875 16.433594.199219 19.726563 7.800781l20.726562 47.835938c3.292969 7.605469-.199219 16.4375-7.800781 19.730469-1.945313.839843-3.96875 1.238281-5.957031 1.238281zm0 0" fill="#9ebd2a"/><path d="m496.996094 511.566406h-481.996094c-8.285156 0-15-6.71875-15-15 0-8.285156 6.714844-15 15-15h481.996094c8.285156 0 15 6.714844 15 15 0 8.28125-6.714844 15-15 15zm0 0" fill="#9ebd2a"/><path d="m496.996094 481.566406h-327.199219v30h327.199219c8.285156 0 15-6.71875 15-15 0-8.285156-6.714844-15-15-15zm0 0" fill="#8aa818"/></svg>