<svg height="512pt" viewBox="0 0 512 512" width="512pt" xmlns="http://www.w3.org/2000/svg"><path d="m496.992188 512h-481.992188c-8.285156 0-15-6.714844-15-15v-92.492188c0-6.894531 5.589844-12.484374 12.484375-12.484374h487.023437c6.894532 0 12.484376 5.589843 12.484376 12.484374v92.492188c0 8.285156-6.714844 15-15 15zm0 0" fill="#d6d3c5"/><path d="m256 512h240.992188c8.285156 0 15-6.714844 15-15v-92.433594c0-6.929687-5.613282-12.542968-12.542969-12.542968h-243.449219zm0 0" fill="#c4c0ad"/><path d="m256 482.023438c-8.285156 0-15-6.714844-15-15v-293.609376c0-8.285156 6.714844-15 15-15 8.28125 0 15 6.714844 15 15v293.609376c0 8.285156-6.71875 15-15 15zm0 0" fill="#a19d8d"/><path d="m271 467.023438v-293.609376c0-8.285156-6.71875-15-15-15v323.609376c8.28125 0 15-6.714844 15-15zm0 0" fill="#787465"/><path d="m295.207031 109.207031h-78.414062c-8.285157 0-15.003907-6.714843-15.003907-15 0-8.285156 6.71875-15 15.003907-15h78.414062c8.28125 0 15 6.714844 15 15 0 8.285157-6.71875 15-15 15zm0 0" fill="#edeade"/><path d="m295.207031 79.207031h-39.207031v30h39.207031c8.28125 0 15-6.714843 15-15 0-8.285156-6.71875-15-15-15zm0 0" fill="#d6d3c5"/><path d="m301.707031 188.414062h-91.457031c-5.359375 0-10.3125-2.859374-12.992188-7.5l-45.730468-79.207031c-2.679688-4.640625-2.679688-10.359375 0-15l45.730468-79.207031c2.679688-4.640625 7.632813-7.5 12.992188-7.5h91.457031c5.359375 0 10.3125 2.859375 12.992188 7.5l45.726562 79.207031c2.683594 4.640625 2.683594 10.359375 0 15l-45.726562 79.207031c-2.679688 4.640626-7.632813 7.5-12.992188 7.5zm0 0" fill="#ff674f"/><path d="m314.699219 7.5c-2.679688-4.640625-7.632813-7.5-12.992188-7.5h-45.730469v188.414062h45.730469c5.359375 0 10.3125-2.859374 12.992188-7.5l45.726562-79.207031c2.683594-4.640625 2.683594-10.359375 0-15zm0 0" fill="#d9260f"/><path d="m295.207031 109.207031h-78.414062c-8.285157 0-15.003907-6.714843-15.003907-15 0-8.285156 6.71875-15 15.003907-15h78.414062c8.28125 0 15 6.714844 15 15 0 8.285157-6.71875 15-15 15zm0 0" fill="#edeade"/><path d="m295.207031 79.207031h-39.207031v30h39.207031c8.28125 0 15-6.714843 15-15 0-8.285156-6.71875-15-15-15zm0 0" fill="#d6d3c5"/><path d="m142.3125 452.023438h-72c-8.285156 0-15-6.71875-15-15 0-8.285157 6.714844-15 15-15h72c8.285156 0 15 6.714843 15 15 0 8.285156-6.714844 15-15 15zm0 0" fill="#a19d8d"/><g fill="#787465"><path d="m376.5 482.007812h-33c-8.285156 0-15-6.714843-15-15 0-8.285156 6.714844-15 15-15h33c8.285156 0 15 6.714844 15 15 0 8.285157-6.714844 15-15 15zm0 0"/><path d="m464.460938 452.183594h-16.140626c-8.285156 0-15-6.714844-15-15s6.714844-15 15-15h16.140626c8.285156 0 15 6.714844 15 15s-6.714844 15-15 15zm0 0"/></g></svg>