<svg height="511pt" viewBox="0 -32 511.99926 511" width="511pt" xmlns="http://www.w3.org/2000/svg"><path d="m90.78125 362.496094c-2.960938 0-5.914062-.875-8.457031-2.609375l-71.210938-48.601563c-9.199219-6.28125-13.230469-17.667968-10.027343-28.335937 3.207031-10.667969 12.839843-17.949219 23.976562-18.121094l42.765625-.660156 253.511719-184.679688c14.691406-10.703125 31.984375-17.605469 50.007812-19.972656l88.261719-11.570313c12.921875-1.691406 26.035156 2.164063 35.976563 10.589844 9.945312 8.425782 15.902343 20.730469 16.351562 33.753906l.035156.988282c.589844 17.152344-8.277344 33.140625-23.140625 41.722656l-390.550781 225.484375c-2.328125 1.34375-4.917969 2.011719-7.5 2.011719zm0 0" fill="#edeade"/><path d="m511.9375 92.289062c-.328125-9.519531-3.609375-18.640624-9.226562-26.15625l-460.898438 266.101563 40.511719 27.652344c2.542969 1.734375 5.496093 2.609375 8.457031 2.609375 2.582031 0 5.171875-.667969 7.5-2.011719l390.550781-225.484375c14.863281-8.582031 23.730469-24.566406 23.140625-41.722656zm0 0" fill="#d6d3c5"/><path d="m68 264.042969-.171875.125-42.761719.660156c-11.140625.171875-20.773437 7.453125-23.976562 18.121094s.824218 22.054687 10.023437 28.335937l71.210938 48.601563c2.542969 1.734375 5.496093 2.609375 8.457031 2.609375 2.582031 0 5.171875-.667969 7.5-2.011719l19.046875-10.996094zm0 0" fill="#8fd4ff"/><path d="m90.976562 303.847656-49.164062 28.386719 40.511719 27.652344c2.542969 1.734375 5.496093 2.609375 8.457031 2.609375 2.582031 0 5.171875-.667969 7.5-2.011719l19.046875-10.996094zm0 0" fill="#37a8e5"/><path d="m216.246094 229.058594c-1.152344 0-2.304688-.132813-3.441406-.398438l-128.492188-30.371094c-5.984375-1.410156-10.5-6.332031-11.394531-12.417968-.898438-6.082032 2.011719-12.097656 7.339843-15.171875l72.519532-41.871094c1.980468-1.140625 4.195312-1.816406 6.480468-1.972656l196.890626-9.125c6.960937-.476563 13.332031 3.917969 15.367187 10.59375s-.800781 13.875-6.847656 17.363281l-140.921875 81.359375c-2.296875 1.328125-4.886719 2.011719-7.5 2.011719zm0 0" fill="#53b7f5"/><path d="m293.125 57.988281c-4.628906 0-9.199219-2.136719-12.136719-6.167969-4.875-6.695312-3.402343-16.078124 3.292969-20.957031 8.882812-6.46875 18.480469-12.082031 28.535156-16.675781 15.015625-6.863281 30.886719-11.425781 47.167969-13.5625 8.210937-1.066406 15.746094 4.710938 16.824219 12.925781 1.074218 8.210938-4.710938 15.746094-12.925782 16.820313-13.316406 1.746094-26.304687 5.480468-38.597656 11.101562-8.226562 3.761719-16.078125 8.347656-23.339844 13.640625-2.664062 1.941407-5.753906 2.875-8.820312 2.875zm0 0" fill="#b2e7ff"/><g fill="#8fd4ff"><path d="m120.988281 448.601562c-5.183593 0-10.226562-2.691406-13.003906-7.503906-4.140625-7.175781-1.683594-16.351562 5.488281-20.492187l207.679688-119.902344c7.171875-4.144531 16.347656-1.683594 20.488281 5.492187 4.140625 7.171876 1.683594 16.347657-5.488281 20.488282l-207.675782 119.902344c-2.363281 1.363281-4.941406 2.015624-7.488281 2.015624zm0 0"/><path d="m15.019531 445.886719c-5.183593 0-10.226562-2.6875-13.003906-7.503907-4.140625-7.171874-1.683594-16.347656 5.488281-20.488281l43.5625-25.148437c7.171875-4.144532 16.347656-1.6875 20.488282 5.488281 4.140624 7.175781 1.683593 16.347656-5.488282 20.488281l-43.5625 25.152344c-2.359375 1.363281-4.941406 2.011719-7.484375 2.011719zm0 0"/></g></svg>