<svg height="512pt" viewBox="0 0 512 512" width="512pt" xmlns="http://www.w3.org/2000/svg"><g fill="#b2e7ff"><path d="m90.273438 211.894531h-75.273438c-8.285156 0-15-6.714843-15-15 0-8.285156 6.714844-15 15-15h75.273438c8.285156 0 15 6.714844 15 15 0 8.285157-6.714844 15-15 15zm0 0"/><path d="m497 59.925781h-88.449219c-8.28125 0-15-6.714843-15-15 0-8.285156 6.71875-15 15-15h88.449219c8.285156 0 15 6.714844 15 15 0 8.285157-6.714844 15-15 15zm0 0"/><path d="m354.761719 244.058594h-63.753907c-8.285156 0-15-6.714844-15-15s6.714844-15 15-15h63.753907c8.285156 0 15 6.714844 15 15s-6.714844 15-15 15zm0 0"/></g><path d="m72.007812 511.988281c-8.285156 0-15-6.71875-15-15v-54.296875c0-8.285156 6.714844-15 15-15 8.285157 0 15 6.714844 15 15v54.296875c0 8.285157-6.714843 15-15 15zm0 0" fill="#b56714"/><path d="m72.007812 457.691406c-24.8125 0-45-20.1875-45-45v-50c0-24.8125 20.1875-45 45-45s45 20.1875 45 45v50c0 24.8125-20.1875 45-45 45zm0 0" fill="#b4d241"/><path d="m393.777344 511.988281h-378.777344c-8.285156 0-15-6.714843-15-15 0-8.285156 6.714844-15 15-15h378.777344c8.285156 0 15 6.714844 15 15 0 8.285157-6.714844 15-15 15zm0 0" fill="#b0ac9b"/><path d="m496.996094 512h-205.539063v-174.308594h205.539063c8.285156 0 15 6.714844 15 15v144.308594c0 8.285156-6.714844 15-15 15zm0 0" fill="#a19d8d"/><path d="m511.996094 367.691406h-220.539063v-90h205.539063c8.285156 0 15 6.714844 15 15zm0 0" fill="#1a82c7"/><path d="m411.457031 452c-8.285156 0-15-6.71875-15-15v-20c0-8.285156 6.714844-15 15-15 8.285157 0 15 6.714844 15 15v20c0 8.28125-6.714843 15-15 15zm0 0" fill="#4c4a40"/><path d="m351.457031 452c-8.285156 0-15-6.71875-15-15v-20c0-8.285156 6.714844-15 15-15 8.285157 0 15 6.714844 15 15v20c0 8.28125-6.714843 15-15 15zm0 0" fill="#4c4a40"/><path d="m226.007812 71.765625c-8.285156 0-15-6.714844-15-15v-41.765625c0-8.285156 6.714844-15 15-15 8.28125 0 15 6.714844 15 15v41.765625c0 8.285156-6.714843 15-15 15zm0 0" fill="#a19d8d"/><path d="m241.007812 56.765625v-41.765625c0-8.285156-6.71875-15-15-15v71.765625c8.285157 0 15-6.714844 15-15zm0 0" fill="#787465"/><path d="m167.890625 116.820312v-60.054687c0-8.28125 6.714844-15 15-15h86.222656c8.285157 0 15 6.71875 15 15v60.054687zm0 0" fill="#37a8e5"/><path d="m269.113281 41.765625h-43.105469v75.054687h58.105469v-60.054687c0-8.28125-6.714843-15-15-15zm0 0" fill="#2698d1"/><path d="m161.007812 511.996094c-8.285156 0-15-6.714844-15-15v-380.175782c0-8.28125 6.714844-15 15-15h130c8.28125 0 15 6.71875 15 15v395.167969zm0 0" fill="#edeade"/><path d="m291.007812 101.820312h-65v410.171876l80-.003907v-395.167969c0-8.285156-6.714843-15-15-15zm0 0" fill="#c4c0ad"/><path d="m226 211.894531c-8.285156 0-15-6.714843-15-15v-20.019531c0-8.285156 6.714844-15 15-15 8.28125 0 15 6.714844 15 15v20.019531c0 8.285157-6.714844 15-15 15zm0 0" fill="#878477"/><path d="m226 291.964844c-8.285156 0-15-6.714844-15-15v-20.015625c0-8.285157 6.714844-15 15-15 8.28125 0 15 6.714843 15 15v20.015625c0 8.285156-6.714844 15-15 15zm0 0" fill="#878477"/><path d="m226 372.039062c-8.285156 0-15-6.71875-15-15v-20.019531c0-8.285156 6.714844-15 15-15 8.28125 0 15 6.714844 15 15v20.019531c0 8.285157-6.714844 15-15 15zm0 0" fill="#878477"/><path d="m226.007812 322.019531v50.019531c8.28125-.003906 14.992188-6.71875 14.992188-15v-20.019531c0-8.28125-6.710938-14.992187-14.992188-15zm0 0" fill="#696453"/><path d="m226.007812 241.949219v50.015625c8.28125-.003906 14.992188-6.71875 14.992188-15v-20.015625c0-8.28125-6.710938-14.996094-14.992188-15zm0 0" fill="#696453"/><path d="m226.007812 161.875v50.019531c8.28125-.003906 14.992188-6.71875 14.992188-15v-20.019531c0-8.28125-6.710938-14.996094-14.992188-15zm0 0" fill="#696453"/><path d="m225.164062 422.109375c-8.285156 0-15 6.71875-15 15v74.890625h30v-74.890625c0-8.285156-6.71875-15-15-15zm0 0" fill="#4c4a40"/><path d="m226.007812 422.152344v89.84375h14.152344v-74.886719c.003906-7.996094-6.265625-14.515625-14.152344-14.957031zm0 0" fill="#2e2c27"/></svg>