<svg height="512pt" viewBox="-70 0 512 512" width="512pt" xmlns="http://www.w3.org/2000/svg"><path d="m343.773438 467h-315.007813l116.894531-455.726562c1.703125-6.632813 7.679688-11.273438 14.53125-11.273438h52.160156c6.847657 0 12.828126 4.640625 14.527344 11.273438zm0 0" fill="#ffa81c"/><path d="m212.351562 0h-26.085937v467h157.507813l-116.894532-455.726562c-1.699218-6.632813-7.679687-11.273438-14.527344-11.273438zm0 0" fill="#ff7403"/><path d="m113.925781 135h144.691407l-15.390626-60h-113.910156zm0 0" fill="#ffe645"/><path d="m186.265625 135h72.351563l-15.390626-60h-56.960937zm0 0" fill="#ffcf2c"/><path d="m75.449219 285.003906h221.644531l-23.085938-90.003906h-175.472656zm0 0" fill="#ffe645"/><path d="m186.265625 285.003906h110.828125l-23.085938-90.003906h-87.742187zm0 0" fill="#ffcf2c"/><path d="m342.542969 452h-312.542969c-16.570312 0-30 13.429688-30 30s13.429688 30 30 30h312.542969c16.570312 0 30-13.429688 30-30s-13.433594-30-30-30zm0 0" fill="#ffcf2c"/><path d="m342.542969 452h-156.277344v60h156.277344c16.566406 0 30-13.429688 30-30s-13.433594-30-30-30zm0 0" fill="#ffa81c"/></svg>