<svg height="512pt" viewBox="-71 0 512 512.0005" width="512pt" xmlns="http://www.w3.org/2000/svg"><path d="m323.578125 483.777344h-277.195313c-8.28125 0-15-6.714844-15-15 0-8.28125 6.71875-14.996094 15-14.996094h277.195313c8.285156 0 15 6.714844 15 14.996094 0 8.285156-6.714844 15-15 15zm0 0" fill="#878477"/><path d="m323.578125 453.78125h-138.597656v29.996094h138.597656c8.285156 0 15-6.714844 15-15 0-8.28125-6.714844-14.996094-15-14.996094zm0 0" fill="#696453"/><path d="m354.96875 512c-4.0625 0-8.113281-1.640625-11.070312-4.875l-100.636719-110.003906h-116.132813l-101.085937 110.027344c-5.605469 6.101562-15.09375 6.5-21.191407.898437-6.101562-5.605469-6.5-15.09375-.898437-21.191406l110-119.730469h142.519531l109.558594 119.753906c5.589844 6.113282 5.167969 15.597656-.941406 21.191406-2.878906 2.628907-6.507813 3.929688-10.121094 3.929688zm0 0" fill="#4c4a40"/><path d="m256.472656 367.125h-71.492187v29.996094h58.28125l100.632812 110.003906c2.960938 3.234375 7.007813 4.875 11.070313 4.875 3.617187 0 7.242187-1.300781 10.121094-3.933594 6.113281-5.589844 6.535156-15.078125.941406-21.1875zm0 0" fill="#2e2c27"/><path d="m284.964844 424.226562h-199.980469c-6.496094 0-12.25-4.179687-14.261719-10.355468l-19.996094-61.464844c-1.488281-4.566406-.695312-9.566406 2.125-13.453125 2.820313-3.886719 7.332032-6.183594 12.136719-6.183594h239.972657c4.804687 0 9.316406 2.296875 12.136718 6.183594 2.820313 3.886719 3.613282 8.886719 2.128906 13.453125l-20 61.464844c-2.007812 6.175781-7.765624 10.355468-14.261718 10.355468zm0 0" fill="#878477"/><path d="m304.960938 332.769531h-119.980469v91.457031h99.984375c6.496094 0 12.253906-4.179687 14.261718-10.355468l20-61.464844c1.484376-4.566406.691407-9.566406-2.128906-13.453125-2.820312-3.886719-7.332031-6.183594-12.136718-6.183594zm0 0" fill="#696453"/><path d="m320.261719 39.769531-66.71875-26.457031c-44.777344-17.75-94.09375-17.75-138.867188 0l-66.71875 26.457031c-20.511719 8.132813-33.765625 27.636719-33.765625 49.6875v239.679688c0 18.542969 15.09375 33.628906 33.644532 33.628906h272.546874c18.550782 0 33.644532-15.085937 33.644532-33.628906v-239.679688c0-22.050781-13.253906-41.554687-33.765625-49.6875zm0 0" fill="#d6d3c5"/><path d="m320.261719 39.769531-66.71875-26.457031c-22.109375-8.765625-45.328125-13.191406-68.5625-13.3007812v362.7539062h135.402343c18.550782 0 33.644532-15.085937 33.644532-33.628906v-239.679688c0-22.050781-13.253906-41.554687-33.765625-49.6875zm0 0" fill="#b0ac9b"/><path d="m245.539062 10.351562c-39.378906-13.609374-81.78125-13.785156-121.242187-.542968v137.003906h121.242187zm0 0" fill="#ff8b6e"/><path d="m184.980469 146.8125h60.558593v-136.460938c-19.679687-6.800781-40.113281-10.246093-60.558593-10.3398432zm0 0" fill="#f2472c"/><path d="m14.191406 124.3125h339.835938v98.597656h-339.835938zm0 0" fill="#696453"/><path d="m184.980469 124.3125h169.046875v98.597656h-169.046875zm0 0" fill="#2e2c27"/><path d="m298.152344 302.84375h-26.214844c-8.28125 0-15-6.714844-15-14.996094 0-8.285156 6.71875-15 15-15h26.214844c8.285156 0 15 6.714844 15 15 0 8.28125-6.714844 14.996094-15 14.996094zm0 0" fill="#ffe645"/><path d="m95.371094 302.84375h-26.21875c-8.28125 0-14.996094-6.714844-14.996094-14.996094 0-8.285156 6.714844-15 14.996094-15h26.21875c8.28125 0 14.996094 6.714844 14.996094 15 0 8.28125-6.714844 14.996094-14.996094 14.996094zm0 0" fill="#ffff95"/></svg>