<svg height="512pt" viewBox="0 -55 512 512" width="512pt" xmlns="http://www.w3.org/2000/svg"><path d="m45.011719 401.253906c-8.285157 0-15-6.71875-15-15v-47.207031c0-8.28125 6.714843-15 15-15 8.285156 0 15 6.71875 15 15v47.207031c0 8.28125-6.714844 15-15 15zm0 0" fill="#ffc12e"/><path d="m467.007812 401.253906c-8.285156 0-15-6.71875-15-15v-47.207031c0-8.28125 6.714844-15 15-15 8.28125 0 15 6.71875 15 15v47.207031c0 8.28125-6.71875 15-15 15zm0 0" fill="#ffa81c"/><path d="m452 0c-8.285156 0-15 6.714844-15 15v37.1875h-362v-37.1875c0-8.285156-6.714844-15-15-15-8.28125 0-15 6.714844-15 15v189.480469c0 8.285156 6.71875 15 15 15 8.285156 0 15-6.714844 15-15v-122.292969h48.398438v126.859375c0 8.285156 6.71875 15 15 15 8.285156 0 15-6.714844 15-15v-126.859375h48.402343v123.726562c0 8.285157 6.714844 15 15 15 8.285157 0 15-6.714843 15-15v-123.726562h48.398438v126.859375c0 8.285156 6.714843 15 15 15 8.285156 0 15-6.714844 15-15v-126.859375h48.402343v126.859375c0 8.285156 6.714844 15 15 15 8.28125 0 15-6.714844 15-15v-126.859375h48.398438v126.859375c0 8.285156 6.714844 15 15 15 8.28125 0 15-6.714844 15-15v-194.046875c0-8.285156-6.71875-15-15-15zm0 0" fill="#ffe645"/><path d="m452 0c-8.285156 0-15 6.714844-15 15v37.1875h-181v30h24.199219v126.859375c0 8.285156 6.714843 15 15 15 8.285156 0 15-6.714844 15-15v-126.859375h48.402343v126.859375c0 8.285156 6.714844 15 15 15 8.28125 0 15-6.714844 15-15v-126.859375h48.398438v126.859375c0 8.285156 6.714844 15 15 15 8.28125 0 15-6.714844 15-15v-194.046875c0-8.285156-6.71875-15-15-15zm0 0" fill="#ffc12e"/><path d="m168.199219 149.046875h-68.398438c-33.140625 0-60 26.863281-60 60h188.398438c0-33.136719-26.863281-60-60-60zm0 0" fill="#ff9c9c"/><path d="m412.199219 149.046875h-68.398438c-33.136719 0-60 26.863281-60 60h188.398438c0-33.136719-26.859375-60-60-60zm0 0" fill="#ff8088"/><path d="m477 354.046875h-442c-19.300781 0-35-15.699219-35-35v-90c0-19.296875 15.699219-35 35-35h442c19.300781 0 35 15.703125 35 35v90c0 19.300781-15.699219 35-35 35zm0 0" fill="#ffcac7"/><path d="m477 194.046875h-221v160h221c19.300781 0 35-15.699219 35-35v-90c0-19.296875-15.699219-35-35-35zm0 0" fill="#ffb5b5"/></svg>