<svg height="512pt" viewBox="-31 0 512 512" width="512pt" xmlns="http://www.w3.org/2000/svg"><path d="m366.394531 277.34375c-8.28125 0-14.996093-6.714844-14.996093-15v-152.332031c0-8.285157 6.714843-15 14.996093-15 8.285157 0 15 6.714843 15 15v152.332031c0 8.285156-6.714843 15-15 15zm0 0" fill="#a3efff"/><path d="m408.460938 406.804688c-2.390626 0-4.785157-.566407-6.980469-1.722657l-35.085938-18.445312-35.082031 18.445312c-5.058594 2.65625-11.179688 2.214844-15.796875-1.140625-4.621094-3.355468-6.933594-9.042968-5.96875-14.671875l6.699219-39.066406-28.382813-27.667969c-4.089843-3.984375-5.5625-9.945312-3.796875-15.375 1.765625-5.429687 6.457032-9.390625 12.109375-10.210937l39.226563-5.699219 17.542968-35.546875c2.523438-5.117187 7.738282-8.359375 13.449219-8.359375 5.710938 0 10.921875 3.242188 13.449219 8.359375l17.542969 35.546875 39.226562 5.699219c5.652344.820312 10.347657 4.78125 12.109375 10.210937 1.765625 5.429688.292969 11.390625-3.796875 15.375l-28.382812 27.667969 6.699219 39.066406c.964843 5.628907-1.347657 11.316407-5.96875 14.671875-2.609376 1.898438-5.703126 2.863282-8.8125 2.863282zm0 0" fill="#ffc12e"/><path d="m216.675781 418.453125c-8.285156 0-15-6.714844-15-15v-308.789063c0-8.285156 6.714844-15 15-15 8.285157 0 15 6.714844 15 15v308.789063c0 8.285156-6.714843 15-15 15zm0 0" fill="#d1f7ff"/><path d="m216.675781 79.664062c-.035156 0-.066406.003907-.101562.003907v338.78125c.035156 0 .066406.003906.101562.003906 8.285157 0 15-6.714844 15-15v-308.789063c0-8.285156-6.714843-15-15-15zm0 0" fill="#a3efff"/><path d="m278.804688 512h-124.261719c-24.78125 0-44.941407-20.164062-44.941407-44.945312s20.160157-44.941407 44.941407-44.941407c3.035156 0 6.015625.296875 8.925781.878907 3.613281-7.34375 8.679688-13.964844 14.960938-19.421876 11.226562-9.746093 25.605468-15.117187 40.488281-15.117187 23.605469 0 44.796875 13.59375 55.125 33.914063 1.582031-.167969 3.171875-.253907 4.761719-.253907 24.785156 0 44.945312 20.160157 44.945312 44.945313 0 24.78125-20.160156 44.941406-44.945312 44.941406zm0 0" fill="#6ad9eb"/><path d="m278.804688 422.113281c-1.589844 0-3.179688.085938-4.761719.253907-10.328125-20.320313-31.519531-33.914063-55.125-33.914063-.785157 0-1.5625.023437-2.34375.050781v123.496094h62.230469c24.785156 0 44.945312-20.164062 44.945312-44.945312s-20.160156-44.941407-44.945312-44.941407zm0 0" fill="#28c1d1"/><path d="m69.140625 245.113281c-8.285156 0-15-6.714843-15-15v-115.449219c0-8.285156 6.714844-15 15-15 8.28125 0 14.996094 6.714844 14.996094 15v115.449219c0 8.285157-6.714844 15-14.996094 15zm0 0" fill="#d1f7ff"/><path d="m80.777344 375.640625c-44.542969 0-80.777344-36.238281-80.777344-80.777344 0-44.539062 36.234375-80.777343 80.777344-80.777343 19.097656 0 37.632812 6.800781 52.199218 19.152343 4.726563 4.007813 6.503907 10.507813 4.472657 16.359375-2.03125 5.851563-7.453125 9.855469-13.644531 10.070313-19.046876.667969-33.96875 16.128906-33.96875 35.195312 0 19.066407 14.921874 34.523438 33.96875 35.191407 6.191406.21875 11.613281 4.21875 13.644531 10.074218 2.03125 5.851563.253906 12.351563-4.472657 16.359375-14.566406 12.351563-33.105468 19.152344-52.199218 19.152344zm0 0" fill="#ffe645"/><path d="m216.585938 88.480469c-8.285157 0-15-6.714844-15-14.996094v-58.484375c0-8.285156 6.714843-15 15-15 8.28125 0 15 6.714844 15 15v58.484375c0 8.28125-6.71875 14.996094-15 14.996094zm0 0" fill="#d1f7ff"/><path d="m216.585938 0c-.003907 0-.007813 0-.011719 0v88.480469h.011719c8.28125 0 15-6.714844 15-14.996094v-58.484375c0-8.285156-6.71875-15-15-15zm0 0" fill="#a3efff"/><path d="m395.09375 141.972656c-2.378906 0-4.792969-.285156-7.203125-.878906-1.015625-.25-102.875-25.128906-171.308594-25.128906-68.429687 0-170.289062 24.878906-171.308593 25.128906-16.089844 3.953125-32.339844-5.871094-36.300782-21.953125-3.960937-16.085937 5.859375-32.339844 21.945313-36.300781 4.453125-1.097656 109.894531-26.871094 185.664062-26.871094s181.214844 25.773438 185.667969 26.871094c16.085938 3.964844 25.910156 20.21875 21.945312 36.304687-3.367187 13.675781-15.621093 22.828125-29.101562 22.828125zm0 0" fill="#ffb5b5"/><path d="m402.25 82.839844c-4.453125-1.097656-109.898438-26.871094-185.667969-26.871094 0 0-.003906 0-.007812 0v59.996094h.007812c68.433594 0 170.292969 24.878906 171.308594 25.128906 2.410156.59375 4.824219.878906 7.203125.878906 13.476562 0 25.730469-9.152344 29.101562-22.828125 3.964844-16.085937-5.859374-32.339843-21.945312-36.304687zm0 0" fill="#ff8088"/></svg>