<svg height="512pt" viewBox="-59 0 512 512" width="512pt" xmlns="http://www.w3.org/2000/svg"><path d="m378.546875 0h-318.269531c-33.238282 0-60.277344 27.039062-60.277344 60.277344v391.445312c0 8.285156 6.71875 15 15 15 .847656 0 1.671875-.085937 2.480469-.222656-1.597657-4.632812-2.480469-9.601562-2.480469-14.777344 0-25.007812 20.273438-45.277344 45.277344-45.277344h333.269531v-391.445312c0-8.285156-6.714844-15-15-15zm0 0" fill="#cb8deb"/><path d="m378.546875 0h-138.746094v406.445312h153.746094v-391.445312c0-8.285156-6.714844-15-15-15zm0 0" fill="#b474c5"/><path d="m56.898438.101562v421.539063c1.109374-.125 2.234374-.195313 3.378906-.195313h26.621094v-421.445312h-26.621094c-1.132813 0-2.261719.0390625-3.378906.101562zm0 0" fill="#b474c5"/><path d="m378.546875 406.445312h-318.269531c-25.007813 0-45.277344 20.273438-45.277344 45.277344 0 25.007813 20.269531 45.277344 45.277344 45.277344h318.269531c-21.164063-21.164062-17.710937-65.925781 0-90.554688zm0 0" fill="#f0f6fe"/><path d="m71.898438 406.445312h-11.621094c-25.007813 0-45.277344 20.273438-45.277344 45.277344 0 25.007813 20.269531 45.277344 45.277344 45.277344h11.621094zm0 0" fill="#c9dff7"/><path d="m239.800781 406.445312v90.554688h138.746094c-21.164063-21.164062-17.710937-65.925781 0-90.554688zm0 0" fill="#c9dff7"/><path d="m378.546875 512h-318.269531c-33.238282 0-60.277344-27.039062-60.277344-60.277344 0-33.238281 27.039062-60.277344 60.277344-60.277344h318.273437c8.28125 0 15 6.714844 15 15 0 8.285157-6.71875 15-15 15h-318.273437c-16.695313 0-30.277344 13.582032-30.277344 30.277344 0 16.695313 13.582031 30.277344 30.277344 30.277344h318.273437c8.28125 0 15 6.714844 15 15s-6.71875 15-15.003906 15zm0 0" fill="#845fa6"/><path d="m393.546875 497c0-8.285156-6.714844-15-15-15h-138.746094v30h138.75c8.28125 0 14.996094-6.714844 14.996094-15zm0 0" fill="#654285"/><path d="m378.546875 391.445312h-138.746094v30h138.75c8.28125 0 15-6.714843 15-15 0-8.285156-6.71875-15-15.003906-15zm0 0" fill="#654285"/><path d="m327.703125 270.355469h-175.804687c-8.285157 0-15-6.714844-15-15 0-8.285157 6.714843-15 15-15h175.804687c8.285156 0 15 6.714843 15 15 0 8.285156-6.714844 15-15 15zm0 0" fill="#b474c5"/><path d="m327.703125 330.726562h-175.804687c-8.285157 0-15-6.71875-15-15 0-8.285156 6.714843-15 15-15h175.804687c8.285156 0 15 6.714844 15 15 0 8.28125-6.714844 15-15 15zm0 0" fill="#b474c5"/><path d="m151.898438 81.953125h175.804687v89.027344h-175.804687zm0 0" fill="#c9dff7"/><path d="m239.800781 81.953125h87.902344v89.027344h-87.902344zm0 0" fill="#aecef2"/><path d="m327.703125 185.980469h-175.804687c-8.285157 0-15-6.714844-15-15v-89.027344c0-8.28125 6.714843-15 15-15h175.804687c8.285156 0 15 6.71875 15 15v89.027344c0 8.285156-6.714844 15-15 15zm-160.804687-30h145.804687v-59.027344h-145.804687zm0 0" fill="#b474c5"/><g fill="#845fa6"><path d="m327.703125 300.726562h-87.902344v30h87.902344c8.285156 0 15-6.71875 15-15 0-8.285156-6.714844-15-15-15zm0 0"/><path d="m327.703125 240.355469h-87.902344v30h87.902344c8.285156 0 15-6.714844 15-15 0-8.285157-6.714844-15-15-15zm0 0"/><path d="m327.703125 66.953125h-87.902344v30h72.902344v59.027344h-72.902344v30h87.902344c8.285156 0 15-6.714844 15-15v-89.027344c0-8.28125-6.714844-15-15-15zm0 0"/></g></svg>