<svg height="512pt" viewBox="0 0 512 512" width="512pt" xmlns="http://www.w3.org/2000/svg"><path d="m200.683594 224.960938h-185.683594c-8.285156 0-15-6.71875-15-15v-105.441407c0-57.632812 46.886719-104.519531 104.519531-104.519531h6.644531c57.632813 0 104.519532 46.886719 104.519532 104.519531v105.441407c0 8.28125-6.71875 15-15 15zm0 0" fill="#a3efff"/><path d="m111.164062 0h-3.324218v224.960938h92.84375c8.28125 0 15-6.71875 15-15v-105.441407c0-57.632812-46.886719-104.519531-104.519532-104.519531zm0 0" fill="#6ad9eb"/><path d="m110.414062 382.785156h-5.144531c-46.492187 0-84.3125-37.820312-84.3125-84.3125v-88.511718c0-8.285157 6.714844-15 15-15h143.769531c8.28125 0 15 6.714843 15 15v88.511718c0 46.492188-37.824218 84.3125-84.3125 84.3125zm0 0" fill="#28c1d1"/><path d="m179.726562 194.960938h-71.886718v187.824218h2.574218c46.488282 0 84.3125-37.820312 84.3125-84.3125v-88.511718c0-8.285157-6.714843-15-15-15zm0 0" fill="#00a2b2"/><path d="m396.21875 443.929688c-3.839844 0-7.679688-1.464844-10.605469-4.394532l-131.296875-131.292968c-2.8125-2.8125-4.394531-6.628907-4.394531-10.605469 0-3.980469 1.582031-7.792969 4.394531-10.609375l74.558594-74.558594c40.753906-40.75 107.0625-40.75 147.816406 0l4.695313 4.695312c19.742187 19.742188 30.613281 45.988282 30.613281 73.90625 0 27.917969-10.871094 54.164063-30.613281 73.90625l-74.5625 74.558594c-2.925781 2.929688-6.765625 4.394532-10.605469 4.394532zm0 0" fill="#a3efff"/><path d="m479.054688 214.832031-159.074219 159.074219 65.632812 65.628906c2.929688 2.929688 6.769531 4.394532 10.605469 4.394532 3.839844 0 7.679688-1.464844 10.605469-4.394532l74.5625-74.558594c19.742187-19.742187 30.613281-45.988281 30.613281-73.90625 0-27.917968-10.871094-54.164062-30.613281-73.90625zm0 0" fill="#6ad9eb"/><path d="m0 149.960938v60c0 8.28125 6.714844 15 15 15h185.683594c8.28125 0 15-6.71875 15-15v-60zm0 0" fill="#ffe645"/><path d="m107.839844 224.960938h92.84375c8.28125 0 15-6.71875 15-15v-60h-107.84375zm0 0" fill="#ffc12e"/><path d="m269.796875 511.960938c-21.59375 0-43.179687-8.21875-59.617187-24.65625l-3.632813-3.632813c-15.929687-15.925781-24.699219-37.097656-24.699219-59.617187 0-22.523438 8.769532-43.695313 24.695313-59.621094l62.589843-62.585938c5.859376-5.859375 15.355469-5.859375 21.214844 0l101.660156 101.65625c2.8125 2.8125 4.394532 6.628906 4.394532 10.605469 0 3.980469-1.582032 7.792969-4.394532 10.609375l-62.589843 62.585938c-16.4375 16.433593-38.03125 24.65625-59.621094 24.65625zm0 0" fill="#28c1d1"/><path d="m210.179688 487.304688c16.4375 16.4375 38.023437 24.65625 59.617187 24.65625 21.589844 0 43.183594-8.222657 59.621094-24.65625l62.589843-62.585938c2.8125-2.816406 4.394532-6.628906 4.394532-10.609375 0-3.976563-1.582032-7.792969-4.394532-10.605469l-50.816406-50.8125-132.8125 132.8125zm0 0" fill="#00a2b2"/><path d="m449.253906 397.109375-152.511718-152.507813-42.425782 42.425782c-2.8125 2.816406-4.394531 6.628906-4.394531 10.609375 0 3.976562 1.582031 7.792969 4.394531 10.605469l131.296875 131.292968c2.925781 2.929688 6.765625 4.394532 10.605469 4.394532s7.675781-1.464844 10.605469-4.394532zm0 0" fill="#ffe645"/><path d="m385.613281 439.535156c2.929688 2.929688 6.769531 4.394532 10.605469 4.394532 3.839844 0 7.679688-1.464844 10.605469-4.394532l42.429687-42.425781-76.242187-76.238281-53.03125 53.035156zm0 0" fill="#ffc12e"/></svg>