<svg height="512pt" viewBox="0 -77 512.00103 512" width="512pt" xmlns="http://www.w3.org/2000/svg"><path d="m458.492188 358.144531c-5.730469.003907-11.519532-.921875-17.175782-2.816406l-26.011718-8.714844c-84.613282 8.296875-233.984376 8.300781-318.621094.003907l-25.996094 8.710937c-19.4375 6.511719-40.507812 1.554687-55-12.9375-14.535156-14.535156-19.5-36.449219-12.652344-55.832031l8.40625-23.792969c-3.710937-48.671875-3.648437-119.007813.144532-166.972656l-8.550782-24.207031c-6.851562-19.378907-1.882812-41.292969 12.652344-55.828126 14.492188-14.492187 35.570312-19.449218 55-12.9375l26.285156 8.804688c84.527344-9.398438 233.542969-9.394531 318.042969.003906l26.300781-8.808594c19.429688-6.511718 40.503906-1.554687 54.996094 12.9375 14.535156 14.535157 19.5 36.449219 12.652344 55.828126l-9.257813 26.203124c3.386719 47.492188 3.441407 114.769532.132813 162.949219l9.125 25.824219c6.847656 19.378906 1.882812 41.292969-12.652344 55.828125-10.273438 10.273437-23.859375 15.753906-37.820312 15.753906zm0 0" fill="#a3efff"/><path d="m496.3125 15.757812c-14.492188-14.492187-35.566406-19.449218-54.996094-12.941406l-26.296875 8.8125c-42.25-4.699218-100.628906-7.050781-159.011719-7.050781v348.257813c58.5 0 116.992188-2.074219 159.296876-6.222657l26.011718 8.714844c5.65625 1.894531 11.445313 2.816406 17.175782 2.816406 13.960937 0 27.546874-5.480469 37.820312-15.757812 14.535156-14.535157 19.503906-36.445313 12.652344-55.828125l-9.125-25.824219c3.3125-48.179687 3.253906-115.453125-.132813-162.945313l9.261719-26.203124c6.84375-19.378907 1.878906-41.292969-12.65625-55.828126zm0 0" fill="#6ad9eb"/><g fill="#00a2b2"><path d="m155.613281 144.070312c-3.9375 0-7.808593-1.601562-10.601562-4.390624-2.800781-2.800782-4.398438-6.664063-4.398438-10.613282 0-3.949218 1.601563-7.808594 4.398438-10.609375 2.792969-2.792969 6.660156-4.390625 10.601562-4.390625 3.949219 0 7.820313 1.597656 10.613281 4.390625 2.789063 2.800781 4.398438 6.660157 4.398438 10.609375 0 3.941406-1.609375 7.8125-4.398438 10.613282-2.789062 2.789062-6.664062 4.390624-10.613281 4.390624zm0 0"/><path d="m346.691406 144.070312c-3.941406 0-7.8125-1.601562-10.605468-4.390624-2.800782-2.800782-4.398438-6.664063-4.398438-10.613282 0-3.949218 1.601562-7.808594 4.398438-10.609375 2.792968-2.792969 6.660156-4.390625 10.605468-4.390625 3.949219 0 7.820313 1.597656 10.609375 4.390625 2.789063 2.800781 4.390625 6.660157 4.390625 10.609375 0 3.949219-1.601562 7.8125-4.390625 10.613282-2.800781 2.789062-6.660156 4.390624-10.609375 4.390624zm0 0"/><path d="m155.613281 244.082031c-3.9375 0-7.808593-1.601562-10.601562-4.390625-2.800781-2.800781-4.398438-6.660156-4.398438-10.613281 0-3.949219 1.601563-7.808594 4.398438-10.609375 2.792969-2.789062 6.652343-4.390625 10.601562-4.390625s7.820313 1.601563 10.613281 4.390625c2.789063 2.800781 4.398438 6.660156 4.398438 10.609375 0 3.953125-1.609375 7.8125-4.398438 10.613281-2.789062 2.789063-6.664062 4.390625-10.613281 4.390625zm0 0"/><path d="m346.691406 244.082031c-3.941406 0-7.8125-1.601562-10.605468-4.390625-2.800782-2.800781-4.398438-6.660156-4.398438-10.613281 0-3.949219 1.601562-7.808594 4.398438-10.609375 2.792968-2.789062 6.660156-4.390625 10.605468-4.390625 3.949219 0 7.820313 1.601563 10.609375 4.390625 2.789063 2.800781 4.390625 6.660156 4.390625 10.609375 0 3.953125-1.601562 7.8125-4.390625 10.613281-2.789062 2.789063-6.660156 4.390625-10.609375 4.390625zm0 0"/></g></svg>