<svg height="512pt" viewBox="-30 0 511 512" width="512pt" xmlns="http://www.w3.org/2000/svg"><path d="m299.742188 139.820312c-25.089844 0-45.5-20.410156-45.5-45.5 0-18.847656 24.507812-70.515624 32.019531-85.902343 2.515625-5.148438 7.746093-8.417969 13.480469-8.417969 5.730468 0 10.964843 3.269531 13.476562 8.417969 7.511719 15.386719 32.023438 67.054687 32.023438 85.902343 0 25.089844-20.410157 45.5-45.5 45.5zm0 0" fill="#ffcf2c"/><path d="m345.242188 94.320312c0-18.847656-24.511719-70.515624-32.023438-85.902343-2.511719-5.148438-7.746094-8.417969-13.476562-8.417969v139.820312c25.089843 0 45.5-20.410156 45.5-45.5zm0 0" fill="#ffa81c"/><path d="m196.996094 438.875v-314.054688c0-8.285156 6.714844-15 15-15h175.488281c8.285156 0 15 6.714844 15 15v314.054688zm0 0" fill="#a3efff"/><path d="m387.484375 109.820312h-87.742187v329.054688h102.742187v-314.054688c0-8.285156-6.714844-15-15-15zm0 0" fill="#6ad9eb"/><path d="m153.171875 288.496094c-8.28125 0-15-6.714844-15-15v-28.5c0-8.28125 6.71875-15 15-15 8.285156 0 15 6.71875 15 15v28.5c0 8.285156-6.714844 15-15 15zm0 0" fill="#a3efff"/><path d="m168.171875 273.496094v-28.5c0-8.28125-6.714844-15-15-15v58.5c8.285156 0 15-6.714844 15-15zm0 0" fill="#6ad9eb"/><path d="m49.347656 438.875v-161c0-8.28125 6.71875-15 15-15h177.648438c8.285156 0 15 6.71875 15 15v161zm0 0" fill="#ffe645"/><path d="m241.996094 262.875h-88.824219v176h103.824219v-161c0-8.28125-6.714844-15-15-15zm0 0" fill="#ffc12e"/><path d="m396.335938 512h-340.835938c-30.328125 0-55-24.671875-55-55v-19c0-8.28125 6.714844-15 15-15h420.835938c8.285156 0 15 6.71875 15 15v19c0 30.328125-24.671876 55-55 55zm0 0" fill="#ffedcd"/><path d="m436.335938 423h-210.410157v89h170.410157c30.328124 0 55-24.671875 55-55v-19c0-8.28125-6.714844-15-15-15zm0 0" fill="#ffdaab"/></svg>