<svg height="512pt" viewBox="0 0 512 512" width="512pt" xmlns="http://www.w3.org/2000/svg"><path d="m437.019531 74.980469c-48.351562-48.351563-112.640625-74.980469-181.019531-74.980469s-132.667969 26.628906-181.019531 74.980469c-48.351563 48.351562-74.980469 112.640625-74.980469 181.019531s26.628906 132.667969 74.980469 181.019531c48.351562 48.351563 112.640625 74.980469 181.019531 74.980469s132.667969-26.628906 181.019531-74.980469c48.351563-48.351562 74.980469-112.640625 74.980469-181.019531s-26.628906-132.667969-74.980469-181.019531zm-340.824219 21.214843c42.683594-42.6875 99.4375-66.195312 159.804688-66.195312 55.339844 0 107.632812 19.769531 148.84375 55.941406l-318.902344 318.902344c-36.171875-41.210938-55.941406-93.503906-55.941406-148.84375 0-60.367188 23.507812-117.121094 66.195312-159.804688zm319.609376 319.609376c-42.683594 42.6875-99.4375 66.195312-159.804688 66.195312-55.339844 0-107.632812-19.769531-148.84375-55.941406l318.902344-318.902344c36.171875 41.210938 55.941406 93.503906 55.941406 148.84375 0 60.367188-23.507812 117.121094-66.195312 159.804688zm0 0" fill="#ffcf2c"/><path d="m404.84375 85.941406-148.84375 148.84375v42.429688l170.058594-170.058594c36.171875 41.210938 55.941406 93.503906 55.941406 148.84375 0 60.367188-23.507812 117.121094-66.195312 159.804688-42.683594 42.6875-99.4375 66.195312-159.804688 66.195312v30c68.378906 0 132.667969-26.628906 181.019531-74.980469 48.351563-48.351562 74.980469-112.640625 74.980469-181.019531s-26.628906-132.667969-74.980469-181.019531c-48.351562-48.351563-112.640625-74.980469-181.019531-74.980469v30c55.339844 0 107.632812 19.769531 148.84375 55.941406zm0 0" fill="#ff9300"/><path d="m310.367188 391.949219c-2.59375 0-5.191407-.671875-7.515626-2.019531l-103.144531-59.738282c-4.632812-2.679687-7.480469-7.628906-7.480469-12.980468v-122.421876c0-5.351562 2.851563-10.300781 7.480469-12.980468l103.144531-59.738282c4.640626-2.6875 10.363282-2.691406 15.007813-.015624 4.648437 2.679687 7.507813 7.632812 7.507813 12.996093v241.898438c0 5.363281-2.859376 10.316406-7.507813 12.996093-2.320313 1.335938-4.90625 2.003907-7.492187 2.003907zm0 0" fill="#00a2b2"/><path d="m192.226562 255.964844v61.246094c0 5.351562 2.851563 10.300781 7.480469 12.980468l103.144531 59.738282c2.324219 1.347656 4.921876 2.019531 7.515626 2.019531 2.585937 0 5.175781-.667969 7.492187-2.003907 4.648437-2.679687 7.507813-7.632812 7.507813-12.996093v-120.984375zm0 0" fill="#008896"/><path d="m203.214844 332.210938h-88.996094c-19.300781 0-35-15.699219-35-35v-82.421876c0-19.300781 15.699219-35 35-35h88.996094zm0 0" fill="#6ad9eb"/><path d="m79.21875 255.964844v41.246094c0 19.300781 15.699219 35 35 35h88.996094v-76.246094zm0 0" fill="#28c1d1"/><path d="m419.277344 349.054688c-2.175782 0-4.386719-.476563-6.480469-1.480469-7.46875-3.582031-10.617187-12.542969-7.03125-20.011719 10.773437-22.449219 16.234375-46.523438 16.234375-71.5625 0-25.066406-5.472656-49.164062-16.269531-71.628906-3.585938-7.46875-.441407-16.429688 7.027343-20.019532 7.464844-3.585937 16.425782-.441406 20.015626 7.023438 12.757812 26.554688 19.226562 55.023438 19.226562 84.625 0 29.566406-6.457031 58.011719-19.191406 84.542969-2.578125 5.375-7.945313 8.511719-13.53125 8.511719zm0 0" fill="#a3efff"/><path d="m372.820312 302.582031c-1.296874 0-2.613281-.171875-3.925781-.527343-8-2.164063-12.726562-10.398438-10.5625-18.394532 2.433594-8.996094 3.667969-18.300781 3.667969-27.660156 0-9.378906-1.238281-18.703125-3.683594-27.710938-2.167968-7.996093 2.558594-16.234374 10.550782-18.402343 8-2.167969 16.238281 2.554687 18.40625 10.550781 3.136718 11.570312 4.726562 23.535156 4.726562 35.5625 0 12.007812-1.585938 23.949219-4.710938 35.496094-1.808593 6.683594-7.859374 11.085937-14.46875 11.085937zm0 0" fill="#a3efff"/><g fill="#6ad9eb"><path d="m362 256c0 9.359375-1.234375 18.664062-3.667969 27.65625-2.164062 8 2.5625 16.234375 10.5625 18.398438 1.3125.355468 2.628907.523437 3.925781.523437 6.609376 0 12.660157-4.398437 14.46875-11.085937 3.125-11.542969 4.710938-23.484376 4.710938-35.492188 0-.011719 0-.023438 0-.035156h-30zm0 0"/><path d="m422 256c0 25.039062-5.460938 49.113281-16.234375 71.5625-3.585937 7.46875-.4375 16.429688 7.03125 20.011719 2.09375 1.007812 4.304687 1.480469 6.480469 1.480469 5.585937 0 10.953125-3.136719 13.53125-8.511719 12.734375-26.53125 19.191406-54.976563 19.191406-84.542969 0-.011719 0-.023438 0-.035156h-30zm0 0"/></g></svg>