<svg height="512pt" viewBox="-100 0 512 512" width="512pt" xmlns="http://www.w3.org/2000/svg"><path d="m77 512c-3.972656 0-7.78125-1.574219-10.59375-4.382812-2.820312-2.8125-4.40625-6.632813-4.40625-10.617188v-282.089844c0-8.28125 6.71875-15 15-15h160.851562c8.285157 0 15 6.71875 15 15v281.726563c0 8.269531-6.695312 14.980469-14.964843 15l-160.851563.363281c-.011718 0-.023437 0-.035156 0zm160.851562-15.363281h.011719zm0 0" fill="#ffe645"/><path d="m237.851562 199.910156h-80v311.90625l80.035157-.183594c8.269531-.019531 14.964843-6.726562 14.964843-15v-281.722656c0-8.28125-6.714843-15-15-15zm0 0" fill="#ffcf2c"/><path d="m172.851562 511.78125v-217.140625c0-8.285156-6.714843-15-15-15-8.285156 0-15 6.714844-15 15v217.210937zm0 0" fill="#ffa81c"/><path d="m172.851562 511.78125v-217.140625c0-8.285156-6.714843-15-15-15v232.175781zm0 0" fill="#ff7403"/><path d="m310.679688 74.144531c-.226563-19.871093-8.132813-38.507812-22.265626-52.480469-13.214843-13.0625-30.449218-20.636718-48.882812-21.5625-.550781-.0624995-42.957031-.101562-42.957031-.101562h-.292969c-6.175781 0-11.605469 3.507812-13.855469 9.257812-.089843.207032-8.972656 20.742188-26.144531 20.742188-17.175781 0-26.058594-20.535156-26.105469-20.652344-2.25-5.75-7.722656-9.347656-13.894531-9.347656h-39.109375c-19.875 0-38.601563 7.695312-52.730469 21.664062-14.132812 13.972657-22.039062 32.609376-22.265625 52.480469l-2.175781 190.726563c-.0429688 4.007812 1.515625 7.867187 4.332031 10.71875 2.820313 2.851562 6.660157 4.453125 10.667969 4.453125h47c8.285156 0 15-6.714844 15-15v-35.132813h160.855469v35.132813c0 8.285156 6.714843 15 15 15h45c4.007812 0 7.847656-1.605469 10.667969-4.453125 2.816406-2.851563 4.375-6.710938 4.332031-10.71875zm0 0" fill="#6ad9eb"/><path d="m288.414062 21.664062c-13.214843-13.0625-30.449218-20.636718-48.882812-21.5625-.550781-.0624995-42.957031-.101562-42.957031-.101562h-.292969c-6.175781 0-11.605469 3.507812-13.855469 9.257812-.085937.199219-8.429687 19.488282-24.574219 20.683594v199.96875h80v35.132813c0 8.285156 6.714844 15 15 15h45c4.007813 0 7.851563-1.601563 10.667969-4.453125 2.816407-2.851563 4.378907-6.707032 4.332031-10.71875l-2.171874-190.722656c-.226563-19.875-8.132813-38.511719-22.265626-52.484376zm0 0" fill="#28c1d1"/><path d="m67.425781 139.910156h180v30h-180zm0 0" fill="#ffe645"/><path d="m157.851562 139.910156h89.574219v30h-89.574219zm0 0" fill="#ffc12e"/><path d="m237.851562 229.910156v35.132813c0 8.285156 6.71875 15 15 15h45.003907c4.007812 0 7.847656-1.601563 10.664062-4.453125 2.820313-2.851563 4.378907-6.707032 4.332031-10.71875l-2.171874-190.722656c-.183594-16.039063-5.375-31.273438-14.800782-43.898438l-58.027344 64.101562zm0 0" fill="#00a2b2"/><path d="m17.898438 29.058594c-10.003907 12.855468-15.535157 28.539062-15.722657 45.085937l-2.175781 190.726563c-.0429688 4.007812 1.515625 7.867187 4.332031 10.71875 2.820313 2.851562 6.660157 4.453125 10.667969 4.453125h47c8.285156 0 15-6.714844 15-15v-170.691407zm0 0" fill="#28c1d1"/><path d="m141.617188 24.449219 1.234374 70.929687c.253907 8.121094 6.917969 14.53125 14.984376 14.53125.160156 0 .320312-.003906.480468-.007812 8.277344-.257813 14.78125-7.183594 14.519532-15.460938l-1.226563-70.554687c-4.015625 3.433593-9.128906 6.113281-15.328125 6.113281-5.859375 0-10.753906-2.394531-14.664062-5.550781zm0 0" fill="#28c1d1"/><path d="m157.851562 29.933594v79.976562c.15625 0 .308594-.003906.464844-.007812 8.277344-.257813 14.78125-7.183594 14.519532-15.460938l-1.226563-70.554687c-3.671875 3.136719-8.261719 5.640625-13.757813 6.046875zm0 0" fill="#00a2b2"/></svg>