<svg height="512pt" viewBox="0 0 512 512" width="512pt" xmlns="http://www.w3.org/2000/svg"><path d="m101.609375 15h308.78125v354.078125h-308.78125zm0 0" fill="#845fa6"/><path d="m256.007812 15h154.382813v354.078125h-154.382813zm0 0" fill="#553275"/><path d="m410.390625 0h-308.78125c-8.285156 0-15 6.714844-15 15v354.078125c0 8.285156 6.714844 15 15 15h308.78125c8.285156 0 15-6.714844 15-15v-354.078125c0-8.285156-6.714844-15-15-15zm-15 177.039062h-124.382813v-147.039062h124.382813zm-154.382813-147.039062v147.039062h-124.398437v-147.039062zm-124.398437 177.039062h124.398437v147.039063h-124.398437zm154.398437 147.039063v-147.039063h124.382813v147.039063zm0 0" fill="#a3efff"/><path d="m410.390625 0h-154.382813v384.078125h154.382813c8.285156 0 15-6.714844 15-15v-354.078125c0-8.285156-6.714844-15-15-15zm-15 354.078125h-124.382813v-147.039063h124.382813zm0-177.039063h-124.382813v-147.039062h124.382813zm0 0" fill="#6ad9eb"/><path d="m101.609375 512c-25.488281 0-39.792969-6.238281-52.417969-11.738281-10.582031-4.617188-18.941406-8.261719-34.191406-8.261719-8.285156 0-15-6.714844-15-15v-462c0-8.285156 6.714844-15 15-15h86.609375c8.28125 0 15 6.714844 15 15v482c0 8.285156-6.71875 15-15 15zm0 0" fill="#ffe645"/><path d="m101.609375 0h-43.304687v504.09375c10.699218 4.210938 23.6875 7.90625 43.304687 7.90625 8.28125 0 15-6.714844 15-15v-482c0-8.285156-6.71875-15-15-15zm0 0" fill="#ffc12e"/><path d="m410.390625 512c-8.28125 0-15-6.714844-15-15v-482c0-8.285156 6.71875-15 15-15h86.609375c8.285156 0 15 6.714844 15 15v462c0 8.285156-6.714844 15-15 15-18.996094 0-28.503906 4.203125-39.511719 9.074219-11.578125 5.121093-24.703125 10.925781-47.097656 10.925781zm0 0" fill="#ffb500"/><path d="m497 0h-43.304688v502.738281c1.289063-.558593 2.550782-1.117187 3.792969-1.664062 11.007813-4.871094 20.515625-9.074219 39.511719-9.074219 8.285156 0 15-6.714844 15-15v-462c0-8.285156-6.714844-15-15-15zm0 0" fill="#ff9300"/></svg>