<svg height="512pt" viewBox="0 -43 512.00118 512" width="512pt" xmlns="http://www.w3.org/2000/svg"><path d="m110.128906 425.71875c-1.21875 0-2.457031-.148438-3.679687-.457031-6.09375-1.542969-10.578125-6.71875-11.238281-12.972657l-7.675782-72.863281-30.855468.765625c-4.207032.089844-8.230469-1.550781-11.148438-4.5625-2.914062-3.011718-4.4375-7.105468-4.199219-11.289062l3.386719-59.242188-36.566406-18.75c-4.410156-2.265625-7.421875-6.5625-8.035156-11.484375-.617188-4.921875 1.238281-9.832031 4.960937-13.113281 59.34375-52.34375 133.429687-82.289062 185.128906-98.195312 55.804688-17.164063 97.328125-22.035157 99.070313-22.234376 4.476562-.507812 8.945312 1.015626 12.171875 4.160157l36.71875 35.792969c3.535156 3.445312 5.148437 8.410156 4.316406 13.277343l-9.90625 57.746094c-.917969 5.359375-4.667969 9.804687-9.800781 11.613281-.167969.058594-22.414063 8.289063-58.015625 36.289063-32.964844 25.929687-84.410157 74.5625-142.257813 159-2.839844 4.144531-7.503906 6.519531-12.375 6.519531zm0 0" fill="#ffc12e"/><path d="m453.886719 244.6875c-2.386719 0-4.785157-.570312-6.976563-1.722656l-62.777344-33.003906-62.777343 33.003906c-5.050781 2.65625-11.175781 2.214844-15.796875-1.144532-4.617188-3.355468-6.933594-9.042968-5.964844-14.667968l11.988281-69.902344-50.789062-49.503906c-4.085938-3.988282-5.558594-9.949219-3.792969-15.378906 1.761719-5.429688 6.457031-9.386719 12.109375-10.207032l70.183594-10.199218 31.386719-63.597657c2.527343-5.121093 7.742187-8.363281 13.453124-8.363281 5.707032 0 10.921876 3.242188 13.449219 8.363281l31.390625 63.597657 70.183594 10.199218c5.648438.820313 10.34375 4.777344 12.109375 10.207032 1.765625 5.429687.292969 11.390624-3.796875 15.378906l-50.785156 49.503906 11.988281 69.902344c.964844 5.625-1.347656 11.3125-5.964844 14.667968-2.613281 1.902344-5.710937 2.867188-8.820312 2.867188zm0 0" fill="#ffe645"/><path d="m446.910156 242.964844c2.191406 1.152344 4.589844 1.722656 6.976563 1.722656 3.113281 0 6.207031-.964844 8.820312-2.863281 4.617188-3.355469 6.933594-9.042969 5.964844-14.671875l-11.988281-69.902344 50.789062-49.503906c4.085938-3.984375 5.558594-9.945313 3.792969-15.375-1.761719-5.429688-6.457031-9.390625-12.109375-10.210938l-70.183594-10.195312-31.386718-63.601563c-2.527344-5.121093-7.742188-8.35937475-13.453126-8.35937475v209.95703175zm0 0" fill="#ffcf2c"/></svg>