<svg height="512pt" viewBox="-99 0 512 512" width="512pt" xmlns="http://www.w3.org/2000/svg"><path d="m120.496094 452.003906h-59.996094c-5.304688 0-10.210938-2.800781-12.910156-7.363281l-35.5-60c-1.296875-2.191406-2.015625-4.675781-2.085938-7.222656l-9.99999975-362.003907c-.10937525-4.050781 1.41796875-7.96875 4.24218775-10.875 2.824218-2.902343 6.703125-4.539062 10.753906-4.539062h150.996094c4.050781 0 7.929687 1.636719 10.753906 4.539062 2.824219 2.90625 4.351562 6.824219 4.242188 10.875l-10 362.003907c-.070313 2.546875-.789063 5.03125-2.085938 7.222656l-35.5 60c-2.699219 4.5625-7.605469 7.363281-12.910156 7.363281zm0 0" fill="#6ad9eb"/><path d="m165.996094 0h-75.496094v452.003906h29.996094c5.304687 0 10.210937-2.800781 12.910156-7.363281l35.5-60c1.296875-2.191406 2.015625-4.675781 2.085938-7.222656l10-362.003907c.109374-4.050781-1.417969-7.96875-4.242188-10.875-2.824219-2.902343-6.703125-4.539062-10.753906-4.539062zm0 0" fill="#28c1d1"/><path d="m9.992188 377.003906.011718.414063c.070313 2.546875.789063 5.03125 2.085938 7.222656l35.5 60c2.699218 4.5625 7.605468 7.363281 12.90625 7.363281h60c5.300781 0 10.210937-2.800781 12.910156-7.363281l35.5-60c1.296875-2.191406 2.011719-4.675781 2.082031-7.222656l.011719-.414063zm0 0" fill="#28c1d1"/><path d="m90.5 452.003906h29.996094c5.304687 0 10.210937-2.800781 12.910156-7.363281l35.5-60c1.296875-2.191406 2.015625-4.675781 2.085938-7.222656l.007812-.414063h-80.503906v75zm0 0" fill="#00a2b2"/><path d="m120.496094 512h-59.996094c-8.285156 0-15-6.714844-15-15v-55.894531h89.996094v55.894531c0 8.285156-6.714844 15-15 15zm0 0" fill="#008896"/><path d="m90.5 512h29.996094c8.285156 0 15-6.714844 15-15v-55.894531h-44.996094zm0 0" fill="#006d78"/><path d="m299.851562 157.691406h-70.871093v-157.691406h70.871093c8.28125 0 15 6.714844 15 15v127.691406c0 8.285156-6.71875 15-15 15zm0 0" fill="#ffe645"/><path d="m228.980469 78.847656v78.84375h70.871093c8.28125 0 15-6.714844 15-15v-63.84375zm0 0" fill="#ffcf2c"/><path d="m228.980469 512c-8.28125 0-15-6.714844-15-15v-482c0-8.285156 6.71875-15 15-15h15v497c0 8.285156-6.714844 15-15 15zm0 0" fill="#ff9c9c"/><path d="m213.980469 78.847656v418.152344c0 8.285156 6.71875 15 15 15 8.285156 0 15-6.714844 15-15v-418.152344zm0 0" fill="#ff8088"/></svg>