<svg height="512pt" viewBox="0 -50 512.00253 512" width="512pt" xmlns="http://www.w3.org/2000/svg"><path d="m316.046875 343.8125c-4.746094 0-9.566406-.59375-14.386719-2.15625-13.535156-4.394531-22.53125-14.609375-30.46875-23.625-4.132812-4.695312-8.039062-9.128906-11.886718-11.929688-3.9375-2.867187-9.425782-5.253906-15.234376-7.777343-10.949218-4.761719-23.355468-10.15625-31.621093-21.515625-8.195313-11.261719-9.511719-24.683594-10.675781-36.523438-.625-6.359375-1.210938-12.367187-2.753907-17.109375-1.421875-4.378906-4.382812-9.375-7.515625-14.664062-6.15625-10.378907-13.132812-22.144531-13.132812-36.601563 0-14.457031 6.976562-26.226562 13.132812-36.605468 3.132813-5.289063 6.09375-10.285157 7.515625-14.664063 1.539063-4.738281 2.128907-10.746094 2.753907-17.105469 1.164062-11.84375 2.480468-25.265625 10.675781-36.527344 8.265625-11.355468 20.671875-16.753906 31.621093-21.511718 5.808594-2.527344 11.296876-4.914063 15.238282-7.78125 3.84375-2.800782 7.75-7.234375 11.882812-11.929688 7.9375-9.011718 16.933594-19.226562 30.46875-23.621094 13.039063-4.234374 26.105469-1.367187 37.628906 1.164063 6.355469 1.398437 12.355469 2.714844 17.519532 2.714844 5.167968 0 11.167968-1.316407 17.523437-2.714844 11.527344-2.527344 24.589844-5.398437 37.628907-1.164063 13.535156 4.394532 22.53125 14.609376 30.46875 23.621094 4.132812 4.695313 8.039062 9.128906 11.882812 11.929688 3.941406 2.867187 9.429688 5.253906 15.238281 7.78125 10.945313 4.757812 23.355469 10.15625 31.621094 21.511718 8.195313 11.261719 9.511719 24.683594 10.675781 36.527344l.078125.824219c.589844 5.972656-2.4375 11.714844-7.691406 14.609375-4.535156 2.5-9.195313 4.527344-13.703125 6.484375-8.160156 3.550781-15.867188 6.902344-19.328125 11.660156-3.394531 4.660157-4.210937 12.988281-5.074219 21.804688-.753906 7.671875-1.535156 15.605469-4.078125 23.441406-2.453125 7.546875-6.414062 14.230469-10.246093 20.695313-4.597657 7.753906-8.9375 15.074218-8.9375 21.308593 0 6.230469 4.339843 13.554688 8.9375 21.304688 3.832031 6.464843 7.792968 13.148437 10.246093 20.695312v.003907c2.535157 7.8125 3.34375 16.015624 3.992188 22.601562.589843 5.96875-2.433594 11.714844-7.6875 14.609375-1.589844.875-2.914063 1.703125-4.042969 2.523437-3.847656 2.800782-7.75 7.234376-11.886719 11.929688-7.9375 9.011719-16.933593 19.230469-30.464843 23.625-13.039063 4.230469-26.105469 1.363281-37.632813-1.167969-6.351563-1.394531-12.355469-2.714843-17.519531-2.714843-5.167969 0-11.167969 1.320312-17.523438 2.714843-7.261718 1.59375-15.140625 3.324219-23.238281 3.324219zm0 0" fill="#845fa6"/><path d="m511.847656 103.53125c-1.164062-11.84375-2.480468-25.265625-10.675781-36.527344-8.265625-11.355468-20.671875-16.75-31.621094-21.511718-5.808593-2.527344-11.296875-4.914063-15.234375-7.78125-3.847656-2.796876-7.753906-7.234376-11.886718-11.925782-7.9375-9.015625-16.933594-19.230468-30.46875-23.625-13.039063-4.234375-26.101563-1.363281-37.628907 1.167969-6.324219 1.386719-12.300781 2.699219-17.453125 2.710937v331.734376c5.152344.011718 11.125 1.324218 17.453125 2.714843 11.527344 2.53125 24.589844 5.398438 37.628907 1.164063 13.535156-4.394532 22.53125-14.609375 30.46875-23.621094 4.132812-4.695312 8.039062-9.128906 11.882812-11.929688 1.132812-.824218 2.457031-1.648437 4.046875-2.523437 5.253906-2.894531 8.277344-8.640625 7.6875-14.609375-.648437-6.589844-1.457031-14.792969-3.992187-22.605469-2.453126-7.546875-6.414063-14.230469-10.25-20.695312-4.59375-7.753907-8.933594-15.074219-8.933594-21.308594 0-6.230469 4.339844-13.550781 8.933594-21.304687 3.835937-6.464844 7.796874-13.148438 10.25-20.695313 2.542968-7.835937 3.320312-15.769531 4.074218-23.445313.867188-8.8125 1.683594-17.140624 5.074219-21.800781 3.464844-4.757812 11.171875-8.109375 19.332031-11.660156 4.503906-1.960937 9.164063-3.984375 13.703125-6.484375 5.253907-2.894531 8.28125-8.640625 7.691407-14.609375zm0 0" fill="#735191"/><path d="m356.878906 118.671875c-3.949218 0-7.8125-1.597656-10.601562-4.390625-2.800782-2.789062-4.398438-6.660156-4.398438-10.609375s1.597656-7.808594 4.398438-10.597656c2.789062-2.800781 6.652344-4.402344 10.601562-4.402344 3.949219 0 7.820313 1.601563 10.609375 4.402344 2.789063 2.789062 4.390625 6.648437 4.390625 10.597656s-1.601562 7.820313-4.390625 10.609375c-2.789062 2.792969-6.660156 4.390625-10.609375 4.390625zm0 0" fill="#654285"/><path d="m367.488281 114.28125c2.789063-2.789062 4.390625-6.660156 4.390625-10.609375s-1.601562-7.808594-4.390625-10.597656c-2.789062-2.800781-6.660156-4.402344-10.609375-4.402344v30c3.949219 0 7.820313-1.597656 10.609375-4.390625zm0 0" fill="#553275"/><path d="m317.460938 239.363281c-3.949219 0-7.8125-1.601562-10.609376-4.402343-2.789062-2.789063-4.390624-6.648438-4.390624-10.597657s1.597656-7.820312 4.390624-10.609375c2.789063-2.792968 6.660157-4.390625 10.609376-4.390625 3.949218 0 7.820312 1.597657 10.609374 4.390625 2.789063 2.789063 4.390626 6.660156 4.390626 10.609375s-1.601563 7.808594-4.390626 10.597657c-2.800781 2.800781-6.660156 4.402343-10.609374 4.402343zm0 0" fill="#654285"/><path d="m385.730469 185.582031c-3.949219 0-7.808594-1.601562-10.601563-4.390625-2.800781-2.789062-4.398437-6.660156-4.398437-10.609375 0-3.9375 1.597656-7.808593 4.398437-10.601562 2.792969-2.796875 6.652344-4.398438 10.601563-4.398438s7.820312 1.601563 10.609375 4.398438c2.789062 2.792969 4.390625 6.660156 4.390625 10.601562 0 3.949219-1.601563 7.820313-4.390625 10.609375-2.789063 2.792969-6.660156 4.390625-10.609375 4.390625zm0 0" fill="#553275"/><path d="m273.320312 158.671875c-3.941406 0-7.808593-1.597656-10.601562-4.390625-2.789062-2.789062-4.398438-6.660156-4.398438-10.609375s1.609376-7.808594 4.398438-10.609375c2.792969-2.789062 6.652344-4.390625 10.601562-4.390625 3.949219 0 7.820313 1.601563 10.609376 4.390625 2.789062 2.800781 4.390624 6.660156 4.390624 10.609375s-1.601562 7.8125-4.390624 10.609375c-2.789063 2.792969-6.660157 4.390625-10.609376 4.390625zm0 0" fill="#654285"/><path d="m137.675781 412.046875c-4.746093 0-9.566406-.597656-14.386719-2.160156-13.535156-4.394531-22.53125-14.609375-30.46875-23.625-4.132812-4.695313-8.039062-9.128907-11.886718-11.929688-3.9375-2.863281-9.425782-5.25-15.234375-7.777343-10.949219-4.761719-23.355469-10.15625-31.621094-21.511719-8.195313-11.265625-9.511719-24.6875-10.675781-36.527344-.625-6.359375-1.210938-12.367187-2.753906-17.109375-1.421876-4.378906-4.382813-9.371094-7.515626-14.660156-6.15625-10.382813-13.132812-22.148438-13.132812-36.609375 0-14.453125 6.976562-26.21875 13.128906-36.601563 3.136719-5.289062 6.097656-10.285156 7.519532-14.664062 1.539062-4.742188 2.128906-10.75 2.753906-17.109375 1.164062-11.839844 2.480468-25.261719 10.675781-36.523438 8.265625-11.355469 20.671875-16.753906 31.617187-21.515625 5.8125-2.523437 11.296876-4.914062 15.238282-7.78125 3.847656-2.796875 7.753906-7.230468 11.886718-11.925781 7.9375-9.015625 16.933594-19.230469 30.46875-23.625 13.039063-4.234375 26.105469-1.363281 37.628907 1.167969 6.355469 1.394531 12.355469 2.714844 17.519531 2.714844 5.167969 0 11.167969-1.320313 17.523438-2.714844 11.523437-2.53125 24.585937-5.402344 37.628906-1.167969 13.535156 4.394531 22.53125 14.609375 30.46875 23.625 4.132812 4.691406 8.039062 9.128906 11.882812 11.925781 3.941406 2.867188 9.429688 5.257813 15.242188 7.78125 10.945312 4.761719 23.351562 10.15625 31.617187 21.511719 8.195313 11.265625 9.511719 24.6875 10.675781 36.527344.625 6.359375 1.210938 12.367187 2.753907 17.109375 1.421875 4.378906 4.382812 9.375 7.515625 14.660156 6.15625 10.382812 13.132812 22.148438 13.132812 36.605469s-6.976562 26.222656-13.132812 36.605469c-3.132813 5.289062-6.09375 10.28125-7.515625 14.660156-1.539063 4.742187-2.128907 10.75-2.753907 17.109375-1.164062 11.84375-2.480468 25.265625-10.675781 36.527343-8.265625 11.355469-20.671875 16.753907-31.621093 21.511719-5.808594 2.527344-11.296876 4.914063-15.238282 7.78125-3.84375 2.800781-7.75 7.230469-11.882812 11.925781-7.9375 9.015626-16.933594 19.230469-30.46875 23.625-13.039063 4.238282-26.101563 1.367188-37.628906-1.164062-6.355469-1.398438-12.355469-2.714844-17.519532-2.714844-5.167968 0-11.167968 1.316406-17.523437 2.714844-7.265625 1.597656-15.144531 3.328125-23.242188 3.328125zm0 0" fill="#f58e4e"/><path d="m195.960938 408.71875c11.523437 2.53125 24.589843 5.402344 37.628906 1.167969 13.535156-4.394531 22.53125-14.613281 30.46875-23.625 4.132812-4.695313 8.039062-9.128907 11.882812-11.925781 3.941406-2.867188 9.429688-5.253907 15.238282-7.78125 10.949218-4.761719 23.355468-10.15625 31.621093-21.515626 8.195313-11.261718 9.511719-24.683593 10.675781-36.523437.621094-6.363281 1.210938-12.367187 2.75-17.109375 1.421876-4.378906 4.382813-9.375 7.519532-14.660156 6.15625-10.382813 13.132812-22.148438 13.132812-36.605469s-6.976562-26.226563-13.132812-36.605469c-3.132813-5.289062-6.097656-10.285156-7.519532-14.664062-1.539062-4.738282-2.128906-10.746094-2.75-17.105469-1.164062-11.84375-2.480468-25.265625-10.675781-36.527344-8.265625-11.355469-20.671875-16.75-31.621093-21.511719-5.808594-2.527343-11.296876-4.914062-15.238282-7.78125-3.847656-2.800781-7.75-7.234374-11.886718-11.929687-7.9375-9.011719-16.933594-19.226563-30.464844-23.621094-13.042969-4.234375-26.105469-1.367187-37.628906 1.164063-6.355469 1.398437-12.355469 2.714844-17.523438 2.714844v331.734374c5.167969-.003906 11.167969 1.316407 17.523438 2.710938zm0 0" fill="#db703d"/><path d="m178.96875 186.902344c-3.9375 0-7.808594-1.601563-10.609375-4.390625-2.789063-2.789063-4.390625-6.660157-4.390625-10.609375 0-3.941406 1.601562-7.8125 4.390625-10.601563 2.800781-2.800781 6.660156-4.398437 10.609375-4.398437 3.953125 0 7.820312 1.601562 10.609375 4.398437 2.792969 2.789063 4.390625 6.660157 4.390625 10.601563 0 3.949218-1.597656 7.820312-4.390625 10.609375-2.796875 2.789062-6.65625 4.390625-10.609375 4.390625zm0 0" fill="#654285"/><path d="m178.96875 186.902344c-3.9375 0-7.808594-1.601563-10.609375-4.390625-2.789063-2.789063-4.390625-6.660157-4.390625-10.609375 0-3.941406 1.601562-7.8125 4.390625-10.601563 2.800781-2.800781 6.660156-4.398437 10.609375-4.398437 3.953125 0 7.820312 1.601562 10.609375 4.398437 2.792969 2.789063 4.390625 6.660157 4.390625 10.601563 0 3.949218-1.597656 7.820312-4.390625 10.609375-2.796875 2.789062-6.65625 4.390625-10.609375 4.390625zm0 0" fill="#735191"/><path d="m178.96875 156.902344c-.175781 0-.351562.019531-.53125.027344v29.945312c.179688.007812.355469.027344.53125.027344 3.953125 0 7.8125-1.601563 10.609375-4.390625 2.792969-2.789063 4.390625-6.660157 4.390625-10.609375 0-3.941406-1.597656-7.8125-4.390625-10.601563-2.789063-2.796875-6.65625-4.398437-10.609375-4.398437zm0 0" fill="#553275"/><path d="m246.671875 201.394531c-3.953125 0-7.8125-1.601562-10.613281-4.402343-2.789063-2.789063-4.386719-6.660157-4.386719-10.597657 0-3.953125 1.597656-7.820312 4.386719-10.609375 2.800781-2.792968 6.660156-4.390625 10.613281-4.390625 3.949219 0 7.816406 1.597657 10.609375 4.390625 2.789062 2.789063 4.390625 6.65625 4.390625 10.609375 0 3.9375-1.601563 7.808594-4.390625 10.597657-2.792969 2.800781-6.660156 4.402343-10.609375 4.402343zm0 0" fill="#553275"/><path d="m139.089844 307.59375c-3.949219 0-7.808594-1.601562-10.609375-4.390625-2.789063-2.800781-4.390625-6.660156-4.390625-10.609375s1.601562-7.820312 4.390625-10.609375c2.800781-2.792969 6.660156-4.390625 10.609375-4.390625 3.949218 0 7.808594 1.597656 10.601562 4.390625 2.796875 2.789063 4.398438 6.660156 4.398438 10.609375s-1.601563 7.808594-4.398438 10.609375c-2.792968 2.789063-6.652344 4.390625-10.601562 4.390625zm0 0" fill="#735191"/><path d="m207.359375 253.824219c-3.949219 0-7.808594-1.613281-10.597656-4.402344-2.800781-2.789063-4.402344-6.660156-4.402344-10.609375 0-3.9375 1.601563-7.808594 4.402344-10.597656 2.789062-2.792969 6.648437-4.402344 10.597656-4.402344s7.820313 1.609375 10.609375 4.402344c2.792969 2.789062 4.390625 6.660156 4.390625 10.597656 0 3.949219-1.597656 7.820312-4.390625 10.609375-2.789062 2.789063-6.660156 4.402344-10.609375 4.402344zm0 0" fill="#553275"/><path d="m218.871094 338.621094c-3.949219 0-7.820313-1.597656-10.609375-4.390625-2.792969-2.789063-4.390625-6.65625-4.390625-10.609375 0-3.949219 1.597656-7.808594 4.390625-10.597656 2.789062-2.800782 6.648437-4.402344 10.609375-4.402344 3.9375 0 7.808594 1.601562 10.597656 4.402344 2.792969 2.789062 4.390625 6.648437 4.390625 10.597656 0 3.953125-1.597656 7.820312-4.390625 10.609375-2.789062 2.792969-6.660156 4.390625-10.597656 4.390625zm0 0" fill="#553275"/><path d="m94.949219 226.902344c-3.949219 0-7.808594-1.601563-10.597657-4.390625-2.800781-2.789063-4.402343-6.660157-4.402343-10.609375 0-3.949219 1.601562-7.8125 4.402343-10.609375 2.789063-2.789063 6.648438-4.390625 10.597657-4.390625s7.820312 1.601562 10.609375 4.390625c2.792968 2.800781 4.390625 6.667969 4.390625 10.609375 0 3.949218-1.597657 7.808594-4.390625 10.609375-2.789063 2.789062-6.660156 4.390625-10.609375 4.390625zm0 0" fill="#735191"/></svg>