<svg height="512pt" viewBox="-85 0 512 512" width="512pt" xmlns="http://www.w3.org/2000/svg"><path d="m327.046875 512c-.003906 0-.007813 0-.011719 0l-58.84375-.046875c-.378906.027344-.757812.042969-1.144531.042969h-192.050781l-60-.007813c-8.28125 0-14.996094-6.714843-14.996094-15v-240.023437c0-37.074219 23.714844-69.597656 59.011719-80.929688l41.371093-13.289062c1.480469-.476563 3.027344-.71875 4.585938-.71875h142.109375c1.738281 0 3.460937.304687 5.097656.894531l33.753907 12.195313c33.566406 12.125 56.117187 44.25 56.117187 79.941406v241.941406c0 3.980469-1.582031 7.796875-4.398437 10.609375-2.8125 2.8125-6.625 4.390625-10.601563 4.390625zm0 0" fill="#ffe645"/><path d="m285.929688 175.117188-33.753907-12.195313c-1.636719-.589844-3.359375-.894531-5.097656-.894531h-71.261719v349.96875h91.230469c.386719 0 .765625-.015625 1.144531-.042969l58.84375.046875h.011719c3.976563 0 7.789063-1.578125 10.601563-4.390625 2.816406-2.8125 4.398437-6.628906 4.398437-10.609375v-241.941406c0-35.691406-22.550781-67.816406-56.117187-79.941406zm0 0" fill="#ffc12e"/><path d="m75 302.191406-54.757812-100.378906c-12.777344 14.996094-20.242188 34.355469-20.242188 55.152344v240.023437c0 8.285157 6.714844 15 14.996094 15l60 .007813h.003906zm0 0" fill="#ffc12e"/><path d="m267.046875 302.191406 54.753906-100.378906c12.78125 14.996094 20.246094 34.355469 20.246094 55.152344v240.023437c0 8.285157-6.714844 15-15 15l-60 .007813zm0 0" fill="#ff9300"/><path d="m223.847656 52.730469c-3.839844 0-7.675781-1.464844-10.605468-4.394531-5.859376-5.855469-5.859376-15.351563 0-21.210938l22.730468-22.730469c5.855469-5.859375 15.355469-5.859375 21.210938 0 5.859375 5.855469 5.859375 15.351563 0 21.210938l-22.726563 22.730469c-2.929687 2.929687-6.769531 4.394531-10.609375 4.394531zm0 0" fill="#ff7403"/><path d="m127.582031 52.730469c-3.839843 0-7.679687-1.464844-10.605469-4.394531l-22.730468-22.730469c-5.859375-5.855469-5.859375-15.355469 0-21.210938 5.855468-5.859375 15.355468-5.859375 21.214844 0l22.726562 22.730469c5.859375 5.855469 5.859375 15.355469 0 21.210938-2.929688 2.929687-6.765625 4.394531-10.605469 4.394531zm0 0" fill="#ffa81c"/><path d="m245.148438 128.601562-1.164063-1.730468c-5.128906-7.632813-22.015625-25.386719-67.960937-25.386719-11.992188 0-52.34375 1.839844-68.054688 25.523437l-1.054688 1.582032-.5 2.363281c-3.207031 15.046875.074219 30.863281 9.007813 43.394531l.226563.304688 60.714843 78.679687 58.171875-78.679687c9.820313-12.394532 13.824219-28.417969 10.984375-44zm0 0" fill="#ff9300"/><path d="m245.148438 128.601562-1.164063-1.730468c-5.128906-7.632813-22.015625-25.386719-67.960937-25.386719-.0625 0-.140626 0-.207032 0v151.136719l.546875.710937 58.167969-78.679687c9.824219-12.394532 13.828125-28.417969 10.988281-44zm0 0" fill="#ff7403"/><path d="m264.777344 124.863281-13.960938-65.5c-3.570312-16.742187-12.863281-31.890625-26.167968-42.664062-13.308594-10.769531-30.0625-16.699219-47.183594-16.699219h-2.882813c-17.117187 0-33.875 5.929688-47.183593 16.699219-13.304688 10.769531-22.597657 25.917969-26.167969 42.660156l-14.375 67.417969c-4.378907 20.523437.101562 42.097656 12.28125 59.183594l63.96875 84.105468c.125.183594.253906.359375.386719.539063l21.523437 30.1875v196.203125c0 8.28125 6.714844 15 15 15s15-6.71875 15-15v-201.003906c0-3.121094-.972656-6.164063-2.785156-8.707032l-17.929688-25.144531 55.746094-74.863281c14.0625-17.617188 19.429687-40.367188 14.730469-62.414063zm-38.179688 43.703125-50.40625 68.175782-52.625-68.199219c-7.308594-10.25-9.996094-23.191407-7.371094-35.507813l.105469-.5c2.941407-4.433594 16.832031-21.050781 59.726563-21.050781 42.613281 0 56.59375 16.402344 59.65625 20.964844 2.335937 12.808593-.929688 25.898437-9.085938 36.117187zm0 0" fill="#ffcf2c"/><path d="m250.816406 59.363281c-3.570312-16.742187-12.863281-31.894531-26.167968-42.664062-13.308594-10.769531-30.0625-16.699219-47.183594-16.699219h-1.648438v111.484375h.207032c42.617187 0 56.597656 16.402344 59.660156 20.960937 2.335937 12.8125-.929688 25.902344-9.085938 36.121094l-50.40625 68.175782-.375-.488282v51.636719l9.203125 12.902344v196.203125c0 8.285156 6.714844 15 15 15 8.28125 0 15-6.714844 15-15v-201.003906c0-3.121094-.976562-6.164063-2.789062-8.707032l-17.925781-25.144531 55.742187-74.863281c14.0625-17.617188 19.433594-40.367188 14.730469-62.417969zm0 0" fill="#ffa81c"/><path d="m75 368.644531h192.046875v30h-192.046875zm0 0" fill="#ffa81c"/><path d="m175.816406 368.644531h91.230469v30h-91.230469zm0 0" fill="#ff7403"/></svg>