<svg height="512pt" viewBox="0 0 512 512" width="512pt" xmlns="http://www.w3.org/2000/svg"><path d="m255.988281 273.671875c-.007812 0-.011719 0-.019531 0-47.5-.003906-97.699219-14.855469-157.980469-46.730469-4.914062-2.601562-7.988281-7.703125-7.988281-13.261718v-34.007813c0-5.261719 2.757812-10.136719 7.261719-12.851563 4.507812-2.710937 10.105469-2.867187 14.753906-.40625 55.765625 29.515626 101.503906 43.261719 143.933594 43.261719h.019531c42.4375-.003906 88.203125-13.753906 144.019531-43.265625 4.648438-2.457031 10.246094-2.300781 14.75.414063 4.507813 2.710937 7.261719 7.585937 7.261719 12.847656v34.007813c0 5.558593-3.074219 10.664062-7.988281 13.261718-60.300781 31.878906-110.515625 46.730469-158.023438 46.730469zm0 0" fill="#ff193d"/><path d="m414.738281 166.824219c-4.503906-2.714844-10.101562-2.871094-14.75-.414063-55.804687 29.503906-101.558593 43.253906-143.988281 43.265625v63.996094c47.503906 0 97.714844-14.851563 158.011719-46.730469 4.914062-2.597656 7.988281-7.703125 7.988281-13.261718v-34.007813c0-5.257813-2.753906-10.132813-7.261719-12.847656zm0 0" fill="#be003b"/><path d="m75 499.328125c-24.8125 0-45-20.039063-45-44.671875v-319.984375c0-24.632813 20.1875-44.671875 45-44.671875s45 20.039062 45 44.671875v319.984375c0 24.632812-20.1875 44.671875-45 44.671875zm0 0" fill="#fdbf00"/><path d="m75 90c-24.8125 0-45-20.1875-45-45s20.1875-45 45-45 45 20.1875 45 45-20.1875 45-45 45zm0 0" fill="#fff36c"/><path d="m135 512h-120c-8.285156 0-15-6.714844-15-15 0-28.121094 22.878906-51 51-51h48c28.121094 0 51 22.878906 51 51 0 8.285156-6.714844 15-15 15zm0 0" fill="#00347b"/><path d="m437 499.328125c-24.8125 0-45-20.039063-45-44.671875v-319.984375c0-24.632813 20.1875-44.671875 45-44.671875s45 20.039062 45 44.671875v319.984375c0 24.632812-20.1875 44.671875-45 44.671875zm0 0" fill="#ff9100"/><path d="m437 90c-24.8125 0-45-20.1875-45-45s20.1875-45 45-45 45 20.1875 45 45-20.1875 45-45 45zm0 0" fill="#ffde46"/><path d="m497 512h-120c-8.285156 0-15-6.714844-15-15 0-28.121094 22.878906-51 51-51h48c28.121094 0 51 22.878906 51 51 0 8.285156-6.714844 15-15 15zm0 0" fill="#001737"/></svg>