<svg height="512pt" viewBox="0 0 512 512" width="512pt" xmlns="http://www.w3.org/2000/svg"><path d="m256 512c-141.160156 0-256-114.839844-256-256s114.839844-256 256-256 256 114.839844 256 256-114.839844 256-256 256zm0 0" fill="#00347b"/><path d="m256 437c99.691406 0 181-81.308594 181-181s-81.308594-181-181-181-181 81.308594-181 181 81.308594 181 181 181zm0 0" fill="#00429d" fill-rule="evenodd"/><path d="m256 0h-.003906v512h.003906c141.160156 0 256-114.84375 256-256 0-141.160156-114.839844-256-256-256zm0 0" fill="#001737"/><g fill-rule="evenodd"><path d="m256 75h-.003906v362h.003906c99.691406 0 181-81.308594 181-181s-81.308594-181-181-181zm0 0" fill="#00347b"/><path d="m422 256c0-2.816406-.070312-5.613281-.210938-8.394531l-196.171874 113.394531 87.597656 50.835938c63.425781-23.359376 108.785156-84.398438 108.785156-155.835938zm0 0" fill="#0079c2"/><path d="m345.90625 395.480469-195.792969-113.230469-.132812 101.382812c28.777343 23.945313 65.746093 38.367188 106.019531 38.367188 33.109375 0 63.980469-9.746094 89.90625-26.519531zm0 0" fill="#ebe1dc"/><path d="m180.074219 177.46875-87.691407 50.472656c-1.558593 9.125-2.382812 18.496094-2.382812 28.058594 0 64.125 36.550781 119.867188 89.910156 147.503906zm0 0" fill="#00aadf"/><path d="m256.066406 343.523438v78.476562c33.085938-.015625 63.933594-9.761719 89.839844-26.519531zm0 0" fill="#dcd2cd"/><path d="m259.164062 90.039062c-1.054687-.019531-2.105468-.039062-3.164062-.039062-91.53125 0-166 74.46875-166 166 0 2.808594.070312 5.597656.210938 8.371094l232.660156-134.5625zm0 0" fill="#ebe1dc"/><path d="m165.5625 116.867188 196.359375 112.175781-.132813-100.871094c-28.742187-23.828125-65.621093-38.171875-105.789062-38.171875-33.335938 0-64.402344 9.886719-90.4375 26.867188zm0 0" fill="#00aadf"/><path d="m255.996094 168.53125 105.925781 60.511719-.132813-100.871094c-28.742187-23.828125-65.621093-38.171875-105.789062-38.171875h-.003906zm0 0" fill="#0079c2"/><path d="m332.027344 108.460938.160156 189.957031 89.582031-51.160157c-3.152343-60.445312-38.789062-112.433593-89.742187-138.796874zm0 0" fill="#dcd2cd"/></g><path d="m256 452c-108.074219 0-196-87.925781-196-196s87.925781-196 196-196 196 87.925781 196 196-87.925781 196-196 196zm0-362c-91.53125 0-166 74.46875-166 166s74.46875 166 166 166 166-74.46875 166-166-74.46875-166-166-166zm0 0" fill="#00429d"/><path d="m256 60h-.003906v30h.003906c91.53125 0 166 74.46875 166 166s-74.46875 166-166 166h-.003906v30h.003906c108.074219 0 196-87.925781 196-196s-87.925781-196-196-196zm0 0" fill="#00347b"/></svg>