<svg height="512pt" viewBox="0 0 512 512" width="512pt" xmlns="http://www.w3.org/2000/svg"><path d="m497 344.617188c-2.027344 0-4.0625-.40625-5.976562-1.238282 0 0-108.339844-47.054687-129.996094-56.453125-5.480469-2.378906-9.027344-7.785156-9.027344-13.761719v-36.503906c0-5.972656 3.542969-11.375 9.019531-13.757812 15.257813-6.628906 130.003907-56.46875 130.003907-56.46875 4.636718-2.011719 9.976562-1.554688 14.203124 1.214844 4.226563 2.773437 6.773438 7.488281 6.773438 12.542968v149.429688c0 5.054687-2.546875 9.769531-6.773438 12.542968-2.480468 1.625-5.347656 2.453126-8.226562 2.453126zm0 0" fill="#001737"/><path d="m383 314.902344h-60c-8.285156 0-15-6.714844-15-15v-90c0-8.28125 6.714844-15 15-15h60c8.285156 0 15 6.71875 15 15v90c0 8.285156-6.714844 15-15 15zm0 0" fill="#dcd2cd"/><path d="m83 299.902344h-68c-8.285156 0-15-6.714844-15-15v-60c0-8.28125 6.714844-15 15-15h68c8.285156 0 15 6.71875 15 15v60c0 8.285156-6.714844 15-15 15zm0 0" fill="#ebe1dc"/><path d="m203 446.902344c-33.085938 0-60-26.914063-60-59.996094v-14.003906c0-8.28125 6.714844-15 15-15h90c8.285156 0 15 6.71875 15 15v14.003906c0 33.082031-26.914062 59.996094-60 59.996094zm0 0" fill="#00aadf"/><path d="m248 357.902344h-44.988281v89c33.078125-.003906 59.988281-26.917969 59.988281-59.996094v-14.003906c0-8.28125-6.714844-15-15-15zm0 0" fill="#0079c2"/><path d="m126.636719 168.320312c-34.691407 0-62.914063-28.222656-62.914063-62.914062s28.222656-62.917969 62.914063-62.917969c34.691406 0 62.917969 28.226563 62.917969 62.917969s-28.226563 62.914062-62.917969 62.914062zm0 0" fill="#f5f0eb"/><path d="m282.28125 159.503906c-43.972656 0-79.75-35.777344-79.75-79.753906 0-43.972656 35.777344-79.75 79.75-79.75 43.976562 0 79.753906 35.777344 79.753906 79.75 0 43.976562-35.777344 79.753906-79.753906 79.753906zm0 0" fill="#ebe1dc"/><path d="m323 384.90625h-240c-8.285156 0-15-6.71875-15-15v-205c0-8.285156 6.714844-15 15-15h240c8.285156 0 15 6.714844 15 15v205c0 8.28125-6.714844 15-15 15zm0 0" fill="#00347b"/><path d="m126.636719 130.570312c13.863281 0 25.167969-11.304687 25.167969-25.164062 0-13.863281-11.304688-25.167969-25.167969-25.167969-13.859375 0-25.164063 11.304688-25.164063 25.167969 0 13.859375 11.304688 25.164062 25.164063 25.164062zm0 0" fill="#ebe1dc" fill-rule="evenodd"/><path d="m282.28125 106.335938c14.644531 0 26.585938-11.941407 26.585938-26.585938 0-14.640625-11.941407-26.582031-26.585938-26.582031-14.640625 0-26.582031 11.941406-26.582031 26.582031 0 14.644531 11.941406 26.585938 26.582031 26.585938zm0 0" fill="#dcd2cd" fill-rule="evenodd"/><path d="m118 511.929688c-3.976562 0-7.792969-1.578126-10.605469-4.394532-2.816406-2.8125-4.394531-6.628906-4.394531-10.605468v-39.023438c0-8.285156 6.714844-15 15-15h170c8.285156 0 15 6.714844 15 15v39c0 8.285156-6.714844 15-14.996094 15zm170-15.023438h.011719zm0 0" fill="#00347b"/><path d="m323 149.902344h-119.988281v235h119.988281c8.285156 0 15-6.714844 15-15v-205c0-8.28125-6.714844-15-15-15zm0 0" fill="#001737"/><path d="m288 442.902344h-84.988281v69.015625l84.992187-.011719c8.28125 0 14.996094-6.714844 14.996094-15v-39c0-8.285156-6.714844-15.003906-15-15.003906zm0 0" fill="#001737"/><path d="m283.9375 344.617188c8.261719 0 15-6.734376 15-15 0-8.261719-6.738281-15-15-15s-15 6.738281-15 15c0 8.265624 6.738281 15 15 15zm0 0" fill="#fdbf00" fill-rule="evenodd"/></svg>