<svg height="512pt" viewBox="0 -27 512 512" width="512pt" xmlns="http://www.w3.org/2000/svg"><path d="m243.3125 458h-102.460938c-7.042968 0-12.753906-6.714844-12.753906-15v-428c0-8.285156 5.710938-15 12.753906-15h102.460938c7.042969 0 12.753906 6.714844 12.753906 15v428c0 8.285156-5.710937 15-12.753906 15zm0 0" fill="#ebe1dc"/><path d="m499.246094 458h-102.460938c-7.042968 0-12.753906-6.714844-12.753906-15v-428c0-8.285156 5.710938-15 12.753906-15h102.460938c7.042968 0 12.753906 6.714844 12.753906 15v428c0 8.285156-5.710938 15-12.753906 15zm0 0" fill="#b8abab"/><path d="m115.214844 458h-102.460938c-7.042968 0-12.753906-6.714844-12.753906-15v-428c0-8.285156 5.710938-15 12.753906-15h102.460938c7.042968 0 12.753906 6.714844 12.753906 15v428c0 8.285156-5.710938 15-12.753906 15zm0 0" fill="#f5f0eb"/><path d="m158.199219 283h-60.25c-8.285157 0-15-6.714844-15-15v-268h90.25v268c0 8.285156-6.714844 15-15 15zm0 0" fill="#00347b"/><path d="m371.277344 458h-102.457032c-7.042968 0-12.753906-6.714844-12.753906-15v-428c0-8.285156 5.710938-15 12.753906-15h102.457032c7.046875 0 12.753906 6.714844 12.753906 15v428c0 8.285156-5.710938 15-12.753906 15zm0 0" fill="#dcd2cd"/><path d="m414.359375 283h-60.25c-8.285156 0-15-6.714844-15-15v-268h90.25v268c0 8.285156-6.714844 15-15 15zm0 0" fill="#001737"/><path d="m286.527344 283h-60.25c-8.28125 0-15-6.714844-15-15v-268h90.25v268c0 8.285156-6.714844 15-15 15zm0 0" fill="#00347b"/><path d="m256.0625 0v283h30.464844c8.285156 0 15-6.714844 15-15v-268zm0 0" fill="#001737"/></svg>