<svg height="512pt" viewBox="0 -16 512 512" width="512pt" xmlns="http://www.w3.org/2000/svg"><path d="m467 480.019531h-422c-24.8125 0-45-20.1875-45-45v-289.003906c0-8.28125 6.714844-15 15-15h482c8.285156 0 15 6.71875 15 15v289.003906c0 24.8125-20.1875 45-45 45zm0 0" fill="#00eccf"/><path d="m497 131.015625h-240.953125v349.003906h210.953125c24.8125 0 45-20.1875 45-45v-289.003906c0-8.28125-6.714844-15-15-15zm0 0" fill="#00cab1"/><g fill="#f5f0eb"><path d="m75 221.019531h95.132812v64c0 8.28125 6.714844 15 15 15 8.285157 0 15-6.71875 15-15v-64h145.863282v64c0 8.28125 6.71875 15 15 15 8.285156 0 15-6.71875 15-15v-64h61.003906c8.285156 0 15-6.71875 15-15 0-8.285156-6.714844-15-15-15h-362c-8.285156 0-15 6.714844-15 15 0 8.28125 6.714844 15 15 15zm0 0"/><path d="m437 330.019531h-361.902344c-8.285156 0-15 6.714844-15 15 0 8.28125 6.714844 15 15 15h361.902344c8.28125 0 15-6.71875 15-15 0-8.285156-6.71875-15-15-15zm0 0"/><path d="m437 390.019531h-361.902344c-8.285156 0-15 6.714844-15 15 0 8.28125 6.714844 15 15 15h361.902344c8.28125 0 15-6.71875 15-15 0-8.285156-6.71875-15-15-15zm0 0"/><path d="m512 149.695312-512 .34375v-105.039062c0-24.851562 20.148438-45 45-45h60.898438l24.890624 8 19.234376-8h41.847656l25.726562 8 18.191406-8h44.085938l27.765625 8 16.148437-8h43.648438l25.222656 8 18.695313-8h55.644531c24.851562 0 45 20.148438 45 45zm0 0"/></g><path d="m69.804688 89.871094c8.261718 0 15-6.738282 15-15 0-8.261719-6.738282-15-15-15-8.261719 0-15 6.738281-15 15 0 8.261718 6.738281 15 15 15zm0 0" fill="#00347b" fill-rule="evenodd"/><path d="m467 0h-55.644531l-18.695313 8-25.222656-8h-43.648438l-16.148437 8-27.765625-8h-23.828125v149.867188l255.953125-.171876v-104.695312c0-24.851562-20.148438-45-45-45zm0 0" fill="#ebe1dc"/><path d="m370.820312 149.636719h43.089844l65.972656-63.996094c2.945313-2.859375 4.59375-6.800781 4.554688-10.90625-.035156-4.101563-1.753906-8.011719-4.75-10.816406l-68.332031-63.917969h-43.917969l80.253906 75.070312zm0 0" fill="#001737"/><path d="m280.414062 149.636719h43.808594l67.925782-63.832031c3.019531-2.839844 4.730468-6.804688 4.726562-10.949219s-1.726562-8.105469-4.753906-10.9375l-68.332032-63.917969h-43.917968l80.074218 74.898438zm0 0" fill="#001737"/><path d="m192.414062 149.636719h43.808594l67.925782-63.832031c3.023437-2.839844 4.734374-6.804688 4.730468-10.949219-.007812-4.144531-1.726562-8.105469-4.753906-10.9375l-68.335938-63.917969h-43.917968l80.074218 74.898438zm0 0" fill="#00347b"/><path d="m105.980469 149.636719h43.28125l66.511719-63.953125c2.941406-2.828125 4.605468-6.730469 4.605468-10.8125 0-4.078125-1.664062-7.980469-4.605468-10.808594l-66.597657-64.0625h-43.277343l77.839843 74.867188zm0 0" fill="#00347b"/><path d="m437 191.019531h-180.953125v30h89.949219v64c0 8.28125 6.71875 15 15 15 8.285156 0 15-6.71875 15-15v-64h61.003906c8.285156 0 15-6.71875 15-15 0-8.285156-6.714844-15-15-15zm0 0" fill="#ebe1dc"/><path d="m437 330.019531h-180.953125v30h180.953125c8.28125 0 15-6.71875 15-15 0-8.285156-6.71875-15-15-15zm0 0" fill="#ebe1dc"/><path d="m437 390.019531h-180.953125v30h180.953125c8.28125 0 15-6.71875 15-15 0-8.285156-6.71875-15-15-15zm0 0" fill="#ebe1dc"/><path d="m304.121094 63.917969-48.074219-44.96875v41.078125l15.898437 14.871094-15.898437 14.941406v41.167968l48.101563-45.203124c3.023437-2.839844 4.734374-6.804688 4.730468-10.949219-.007812-4.144531-1.726562-8.105469-4.757812-10.9375zm0 0" fill="#001737"/></svg>