<svg height="512pt" viewBox="0 0 512.001 512" width="512pt" xmlns="http://www.w3.org/2000/svg"><path d="m105.027344 143.070312c-8.285156 0-15.003906-6.71875-15.003906-15.003906v-44.511718c0-8.285157 6.71875-15.003907 15.003906-15.003907s15.003906 6.71875 15.003906 15.003907v44.511718c0 8.285156-6.71875 15.003906-15.003906 15.003906zm0 0" fill="#00347b"/><path d="m180.046875 226.59375h-150.039063c-8.285156 0-15.003906-6.71875-15.003906-15.003906v-8.503906c0-49.636719 40.386719-90.023438 90.023438-90.023438 49.640625 0 90.023437 40.386719 90.023437 90.023438v8.503906c0 8.285156-6.714843 15.003906-15.003906 15.003906zm0 0" fill="#ebe1dc"/><path d="m165.042969 511.667969h-120.03125c-24.820313 0-45.011719-20.191407-45.011719-45.011719v-255.070312c0-8.285157 6.71875-15.003907 15.003906-15.003907h180.046875c8.289063 0 15.003907 6.71875 15.003907 15.003907v255.070312c0 24.820312-20.191407 45.011719-45.011719 45.011719zm0 0" fill="#00eccf"/><path d="m458.46875 65.800781c.261719-2.25.410156-4.535156.410156-6.855469 0-32.554687-26.390625-58.945312-58.945312-58.945312-21.613282 0-40.496094 11.636719-50.757813 28.984375l-184.023437 35.019531c-6.160156 1.175782-10.941406 6.054688-11.988282 12.234375-1.046874 6.183594 1.863282 12.363281 7.292969 15.5l125.269531 72.324219c-2.375 6.394531-3.679687 13.308594-3.679687 20.53125 0 32.554688 26.390625 58.945312 58.945313 58.945312 21.675781 0 40.609374-11.710937 50.847656-29.140624 11.480468 6.164062 24.605468 9.667968 38.546875 9.667968 45.074219 0 81.613281-36.539062 81.613281-81.617187 0-35.203125-22.289062-65.199219-53.53125-76.648438zm0 0" fill="#00cab1" fill-rule="evenodd"/><path d="m105.027344 68.550781v74.519531c8.285156 0 15.003906-6.71875 15.003906-15.003906v-44.511718c0-8.285157-6.71875-15.003907-15.003906-15.003907zm0 0" fill="#001737"/><path d="m105.027344 113.0625v113.53125h75.019531c8.289063 0 15.003906-6.71875 15.003906-15.003906v-8.503906c0-49.636719-40.382812-90.023438-90.023437-90.023438zm0 0" fill="#dcd2cd"/><path d="m195.050781 196.582031h-90.023437v315.085938h60.015625c24.820312 0 45.011719-20.191407 45.011719-45.011719v-255.070312c0-8.285157-6.714844-15.003907-15.003907-15.003907zm0 0" fill="#00cab1"/></svg>