<svg height="511pt" viewBox="0 0 511.99925 511" width="511pt" xmlns="http://www.w3.org/2000/svg"><path d="m208.003906 269.117188h95.976563v93.277343h-95.976563zm0 0" fill="#ffde46" fill-rule="evenodd"/><path d="m51.003906 366.355469c-8.285156 0-15-6.714844-15-15v-245.726563c0-8.285156 6.714844-15 15-15 8.28125 0 15 6.714844 15 15v245.726563c0 8.285156-6.71875 15-15 15zm0 0" fill="#ebe1dc"/><path d="m255.992188 269.117188h47.988281v93.277343h-47.988281zm0 0" fill="#ffcd00" fill-rule="evenodd"/><path d="m460.996094 358.839844c-8.285156 0-15-6.714844-15-15v-238.066406c0-8.285157 6.714844-15 15-15s15 6.714843 15 15v238.066406c0 8.285156-6.714844 15-15 15zm0 0" fill="#dcd2cd"/><path d="m499.882812 95.296875-165.929687-32.535156 165.929687-32.539063c8.128907-1.59375 13.425782-9.476562 11.832032-17.605468-1.59375-8.128907-9.472656-13.425782-17.605469-11.832032l-238.109375 46.691406-238.109375-46.691406c-8.132813-1.597656-16.011719 3.703125-17.609375 11.832032-1.59375 8.128906 3.707031 16.011718 11.835938 17.605468l165.929687 32.539063-165.929687 32.535156c-8.128907 1.59375-13.429688 9.476563-11.835938 17.605469 1.40625 7.15625 7.679688 12.117187 14.703125 12.117187.957031 0 1.929687-.09375 2.90625-.285156l238.109375-46.691406 238.109375 46.691406c.976563.191406 1.945313.285156 2.902344.285156 7.027343 0 13.300781-4.960937 14.703125-12.117187 1.59375-8.128906-3.703125-16.011719-11.832032-17.605469zm0 0" fill="#fdbf00"/><path d="m501.078125 358.789062c-6.027344-10.558593-15.789063-18.101562-27.484375-21.234374-23.964844-6.417969-48.6875 7.855468-55.113281 31.820312l-24.949219 93.136719h-22.933594l6.390625-25.070313c4.621094-18.132812 1.160157-36.355468-9.75-51.304687-11.121093-15.242188-27.394531-23.636719-45.820312-23.636719h-132.824219c-18.429688 0-34.703125 8.394531-45.824219 23.636719-10.90625 14.949219-14.371093 33.171875-9.75 51.304687l6.390625 25.070313h-20.898437l-24.953125-93.136719c-3.105469-11.578125-10.554688-21.269531-20.984375-27.292969-10.429688-6.019531-22.550781-7.628906-34.128907-4.527343-11.691406 3.136718-21.453124 10.675781-27.484374 21.234374-5.964844 10.449219-7.492188 22.53125-4.296876 34.019532l30.242188 108.710937c1.804688 6.488281 7.714844 10.976563 14.453125 10.976563h409.324219c6.734375 0 12.644531-4.488282 14.449218-10.976563l30.246094-108.714843c3.191406-11.484376 1.667969-23.566407-4.300781-34.015626zm0 0" fill="#00aadf"/><path d="m276.175781 312.5h-40.363281c-23.148438 0-42.394531-17.367188-44.765625-40.398438l-6.730469-65.433593c-2.085937-20.253907 4.023438-38.949219 17.664063-54.0625 13.636719-15.113281 31.609375-23.101563 51.96875-23.101563h4.085937c20.363282 0 38.332032 7.988282 51.972656 23.105469 13.640626 15.113281 19.75 33.808594 17.664063 54.0625l-6.730469 65.429687c-2.367187 23.03125-21.613281 40.398438-44.765625 40.398438zm0 0" fill="#fff36c"/><path d="m310.007812 152.609375c-13.640624-15.117187-31.609374-23.105469-51.972656-23.105469h-2.042968v182.996094h20.179687c23.152344 0 42.398437-17.367188 44.765625-40.398438l6.730469-65.429687c2.085937-20.253906-4.019531-38.949219-17.660157-54.0625zm0 0" fill="#ffde46"/><path d="m501.078125 358.789062c-6.027344-10.558593-15.789063-18.101562-27.484375-21.234374-23.964844-6.417969-48.6875 7.855468-55.113281 31.820312l-24.949219 93.136719h-22.933594l6.390625-25.070313c4.621094-18.132812 1.160157-36.355468-9.75-51.304687-11.121093-15.242188-27.394531-23.636719-45.820312-23.636719h-65.425781v149.996094h204.691406c6.734375 0 12.644531-4.488282 14.449218-10.976563l30.246094-108.714843c3.191406-11.484376 1.667969-23.566407-4.300781-34.015626zm0 0" fill="#0079c2"/><path d="m499.882812 95.296875-165.929687-32.535156 165.929687-32.539063c8.128907-1.59375 13.425782-9.476562 11.832032-17.605468-1.59375-8.128907-9.472656-13.425782-17.605469-11.832032l-238.109375 46.691406-.007812-.003906v30.574219h.007812l238.109375 46.691406c.976563.191407 1.945313.28125 2.902344.28125 7.027343 0 13.300781-4.960937 14.703125-12.113281 1.59375-8.132812-3.703125-16.015625-11.832032-17.609375zm0 0" fill="#ff9100"/></svg>