<svg height="512pt" viewBox="-6 0 512 512" width="512pt" xmlns="http://www.w3.org/2000/svg"><path d="m489.886719 482.105469-181.644531-58.5625c-3.34375-1.640625-115.847657-.570313-117.609376.203125l-180.035156 58.359375c-7.171875 2.324219-11.585937 9.519531-10.40625 16.964843 1.175782 7.445313 7.59375 12.929688 15.132813 12.929688h469.835937c7.539063 0 13.957032-5.484375 15.132813-12.929688 1.179687-7.445312-3.234375-14.640624-10.40625-16.964843zm0 0" fill="#00eccf"/><path d="m489.886719 482.105469-181.644531-58.5625c-1.644532-.808594-29.703126-.957031-58-.8125v89.269531h234.917968c7.539063 0 13.957032-5.484375 15.132813-12.929688 1.179687-7.445312-3.234375-14.640624-10.40625-16.964843zm0 0" fill="#00cab1"/><path d="m189.15625 424.5625c17.988281 10.335938 38.847656 16.246094 61.085938 16.246094 22.164062 0 42.953124-5.871094 60.902343-16.140625v-61.03125h-121.988281zm0 0" fill="#fdd1a3" fill-rule="evenodd"/><path d="m250.242188 363.636719v77.171875c22.164062 0 42.953124-5.871094 60.902343-16.144532v-61.027343zm0 0" fill="#ffbb85" fill-rule="evenodd"/><path d="m250.148438 388.246094c-63.933594 0-115.945313-52.464844-115.945313-116.949219v-72.851563c0-8.460937 6.859375-15.320312 15.320313-15.320312h201.253906c8.460937 0 15.320312 6.859375 15.320312 15.320312v72.851563c0 64.484375-52.015625 116.949219-115.949218 116.949219zm0 0" fill="#ffe4c1"/><path d="m350.777344 183.125h-100.535156v205.117188c63.890624-.050782 115.855468-52.492188 115.855468-116.945313v-72.851563c0-8.460937-6.859375-15.320312-15.320312-15.320312zm0 0" fill="#fdd1a3"/><path d="m236.066406 199.222656c-.890625 0-1.785156-.082031-2.675781-.253906l-92.21875-17.730469c-6.195313-1.191406-10.855469-6.332031-11.4375-12.609375-1.792969-19.328125-12.359375-36.347656-28.269531-45.535156-5.339844-3.082031-11.148438-5.238281-17.261719-6.40625-2.125-.410156-4.128906-1.296875-5.859375-2.597656l-28.09375-21.132813c-4.976562-3.742187-6.925781-10.296875-4.804688-16.152343 8.183594-22.601563 22.429688-41.820313 41.199219-55.582032 18.9375-13.882812 41.121094-21.222656 64.144531-21.222656 40.1875 0 77.636719 22.941406 97.730469 59.871094 1.128907 2.082031 1.722657 4.410156 1.722657 6.777344v118.402343c0 4.226563-1.886719 8.234375-5.148438 10.925781-2.558594 2.117188-5.761719 3.246094-9.027344 3.246094zm0 0" fill="#00aadf"/><path d="m52.148438 145.214844c-17.113282 0-31.035157-13.921875-31.035157-31.03125 0-17.113282 13.921875-31.035156 31.035157-31.035156 17.113281 0 31.03125 13.921874 31.03125 31.035156 0 17.109375-13.917969 31.03125-31.03125 31.03125zm0 0" fill="#ffde46"/><path d="m255.390625 195.976562c-3.261719-2.691406-5.148437-6.699218-5.148437-10.925781v-118.402343c0-2.371094.59375-4.695313 1.722656-6.777344 20.09375-36.929688 57.542968-59.871094 97.730468-59.871094 23.023438 0 45.203126 7.339844 64.144532 21.222656 18.769531 13.761719 33.015625 32.980469 41.199218 55.582032 2.121094 5.855468.171876 12.410156-4.808593 16.152343l-28.089844 21.132813c-1.730469 1.300781-3.734375 2.1875-5.859375 2.597656-6.113281 1.167969-11.921875 3.324219-17.261719 6.40625-15.910156 9.1875-26.476562 26.207031-28.269531 45.535156-.582031 6.277344-5.242188 11.417969-11.4375 12.609375l-92.21875 17.730469c-.890625.171875-1.785156.253906-2.675781.253906-3.269531 0-6.46875-1.128906-9.027344-3.246094zm0 0" fill="#be003b"/><path d="m417.300781 114.183594c0-17.113282 13.921875-31.035156 31.035157-31.035156 17.113281 0 31.035156 13.921874 31.035156 31.035156 0 17.109375-13.921875 31.03125-31.035156 31.03125-17.113282 0-31.035157-13.921875-31.035157-31.03125zm0 0" fill="#fdbf00"/><path d="m355.023438 245.164062h-209.5625c-8.800782 0-15.9375-6.859374-15.9375-15.320312v-61.238281c0-8.460938 7.136718-15.320313 15.9375-15.320313h209.5625c8.800781 0 15.9375 6.859375 15.9375 15.320313v61.238281c0 8.460938-7.136719 15.320312-15.9375 15.320312zm0 0" fill="#fdbf00"/><path d="m355.023438 153.285156h-104.78125v91.878906h104.78125c8.800781 0 15.9375-6.859374 15.9375-15.320312v-61.238281c0-8.460938-7.136719-15.320313-15.9375-15.320313zm0 0" fill="#ff9100"/></svg>