<svg height="512pt" viewBox="-79 0 511 512" width="512pt" xmlns="http://www.w3.org/2000/svg"><path d="m342.867188 351.425781c-1.910157-8.0625-9.996094-13.042969-18.058594-11.136719l-42.042969 9.96875-19.832031 26.527344 53.203125 29.296875c2.453125 1.515625 5.171875 2.234375 7.855469 2.234375 5.03125 0 9.949218-2.53125 12.78125-7.128906 4.351562-7.050781 2.160156-16.292969-4.894532-20.640625l-13-8.019531 12.851563-3.046875c8.0625-1.910157 13.046875-9.992188 11.136719-18.054688zm0 0" fill="#97002c"/><path d="m177.144531 176.644531c-23.898437 0-44.058593-16.3125-49.933593-38.386719-22.074219-5.875-38.386719-26.035156-38.386719-49.9375 0-23.898437 16.3125-44.058593 38.386719-49.933593 5.875-22.074219 26.035156-38.386719 49.933593-38.386719 23.902344 0 44.0625 16.3125 49.933594 38.390625 22.078125 5.871094 38.390625 26.03125 38.390625 49.933594 0 23.898437-16.3125 44.0625-38.390625 49.933593-5.871094 22.074219-26.03125 38.386719-49.933594 38.386719zm0 0" fill="#00aadf"/><path d="m227.078125 38.390625c-5.871094-22.078125-26.03125-38.390625-49.933594-38.390625v176.644531c23.902344 0 44.0625-16.3125 49.933594-38.386719 22.078125-5.875 38.390625-26.035156 38.390625-49.9375 0-23.898437-16.3125-44.058593-38.390625-49.929687zm0 0" fill="#0079c2"/><path d="m177.144531 103.324219c8.261719 0 15-6.738281 15-15s-6.738281-15-15-15-15 6.738281-15 15 6.742188 15 15 15zm0 0" fill="#fdbf00" fill-rule="evenodd"/><path d="m88.824219 284.144531c-23.898438 0-44.0625-16.3125-49.933594-38.386719-22.078125-5.875-38.390625-26.035156-38.390625-49.9375 0-23.898437 16.3125-44.058593 38.390625-49.933593 5.871094-22.074219 26.035156-38.386719 49.933594-38.386719 23.898437 0 44.058593 16.3125 49.933593 38.386719 22.074219 5.875 38.390626 26.035156 38.390626 49.933593 0 23.902344-16.3125 44.0625-38.390626 49.9375-5.875 22.074219-26.035156 38.386719-49.933593 38.386719zm0 0" fill="#ffcd00"/><path d="m88.824219 210.820312c8.261719 0 15-6.734374 15-15 0-8.257812-6.738281-15-15-15s-15 6.742188-15 15c0 8.265626 6.738281 15 15 15zm0 0" fill="#fff36c" fill-rule="evenodd"/><path d="m265.46875 284.144531c-23.898438 0-44.0625-16.3125-49.933594-38.386719-22.074218-5.875-38.390625-26.035156-38.390625-49.9375 0-23.898437 16.3125-44.058593 38.390625-49.933593 5.871094-22.074219 26.035156-38.386719 49.933594-38.386719s44.0625 16.3125 49.933594 38.386719c22.078125 5.875 38.390625 26.035156 38.390625 49.933593 0 23.902344-16.3125 44.0625-38.390625 49.9375-5.871094 22.074219-26.035156 38.386719-49.933594 38.386719zm0 0" fill="#be003b"/><path d="m265.46875 210.820312c8.261719 0 15-6.734374 15-15 0-8.257812-6.738281-15-15-15s-15 6.742188-15 15c0 8.265626 6.738281 15 15 15zm0 0" fill="#ff9100" fill-rule="evenodd"/><path d="m192.039062 512h-29.769531c-5.585937 0-10.707031-3.105469-13.292969-8.054688l-64.75-123.933593 7.46875-12.507813-23.140624-17.492187-61.679688-118.066407c-2.429688-4.648437-2.253906-10.230468.46875-14.71875 2.714844-4.484374 7.582031-7.226562 12.828125-7.226562h314c5.246094 0 10.109375 2.738281 12.828125 7.226562 2.71875 4.488282 2.894531 10.070313.464844 14.71875l-61.691406 118.066407-16.839844 15 1.164062 15-64.761718 123.9375c-2.589844 4.945312-7.710938 8.050781-13.296876 8.050781zm0 0" fill="#ebe1dc"/><path d="m347 217.230469c-2.71875-4.488281-7.582031-7.230469-12.828125-7.230469h-157.027344v302h14.894531c5.585938 0 10.707032-3.105469 13.292969-8.054688l64.761719-123.933593-1.160156-15 16.835937-15 61.695313-118.066407c2.429687-4.648437 2.253906-10.230468-.464844-14.714843zm0 0" fill="#dcd2cd"/><path d="m285.769531 350.011719h-217.214843l15.675781 30h185.863281zm0 0" fill="#ff193d"/><path d="m177.144531 350.011719v30h92.949219l15.675781-30zm0 0" fill="#be003b"/><path d="m177.144531 73.320312v30c8.261719 0 15-6.738281 15-15 0-8.257812-6.738281-15-15-15zm0 0" fill="#ff9100" fill-rule="evenodd"/></svg>