<svg height="512pt" viewBox="-27 0 512 512" width="512pt" xmlns="http://www.w3.org/2000/svg"><path d="m413.402344 486.785156v-305.785156c0-8.285156-6.714844-15-15-15h-337.914063c-8.28125 0-15 6.714844-15 15v305.785156zm0 0" fill="#f5f0eb"/><path d="m398.402344 166h-168.957032v320.785156h183.957032v-305.785156c0-8.285156-6.714844-15-15-15zm0 0" fill="#ebe1dc"/><path d="m424.492188 196h-390.003907c-8.28125 0-15-6.714844-15-15v-90c0-8.285156 6.71875-15 15-15h76.769531c4.25-19.4375 16.488282-37.140625 35.476563-50.902344 22.324219-16.183594 51.71875-25.097656 82.757813-25.097656 31.039062 0 60.429687 8.914062 82.753906 25.097656 18.988281 13.761719 31.226562 31.464844 35.476562 50.902344h76.769532c8.28125 0 15 6.714844 15 15v90c0 8.285156-6.714844 15-15 15zm0 0" fill="#00eccf"/><path d="m302.402344 506.910156h-145.910156c-8.285157 0-15-6.71875-15-15v-86.128906c0-48.496094 39.457031-87.953125 87.953124-87.953125 48.5 0 87.957032 39.457031 87.957032 87.953125v86.128906c0 8.28125-6.714844 15-15 15zm0 0" fill="#ebe1dc"/><path d="m443.890625 512h-428.890625c-8.285156 0-15-6.714844-15-15s6.714844-15 15-15h428.890625c8.285156 0 15 6.714844 15 15s-6.714844 15-15 15zm0 0" fill="#00347b"/><path d="m424.492188 76h-76.769532c-4.25-19.4375-16.488281-37.140625-35.476562-50.902344-22.324219-16.183594-51.714844-25.097656-82.753906-25.097656-.015626 0-.03125 0-.046876 0v196h195.046876c8.28125 0 15-6.714844 15-15v-90c0-8.285156-6.714844-15-15-15zm0 0" fill="#00cab1"/><path d="m229.445312 317.828125v189.082031h72.957032c8.285156 0 15-6.71875 15-15v-86.128906c0-48.496094-39.457032-87.953125-87.957032-87.953125zm0 0" fill="#dcd2cd"/><path d="m443.890625 482h-214.445313v30h214.445313c8.285156 0 15-6.714844 15-15s-6.714844-15-15-15zm0 0" fill="#001737"/></svg>