<svg id="Capa_1" enable-background="new 0 0 512 512" height="512" viewBox="0 0 512 512" width="512" xmlns="http://www.w3.org/2000/svg"><path d="m315.17 36.068h-155.31c-13.18 0-23.86 10.69-23.86 23.88v195.6h260v-130.45z" fill="#ffe67b"/><path d="m315.17 36.068h-59.17v219.48h140v-130.45z" fill="#ffd400"/><path d="m512 272.718v80.07l-256 20-256-20v-80.07c0-22.15 18.02-40.17 40.17-40.17h431.66c22.15 0 40.17 18.02 40.17 40.17z" fill="#4de6ff"/><path d="m512 272.718v80.07l-256 20v-140.24h215.83c22.15 0 40.17 18.02 40.17 40.17z" fill="#50b8ff"/><path d="m287.85 131.128c0 8.28-6.72 15-15 15h-81.9c-8.29 0-15-6.72-15-15 0-8.29 6.71-15 15-15h81.9c8.28 0 15 6.71 15 15z" fill="#fff"/><path d="m354.51 183.168c0 8.28-6.72 15-15 15h-148.56c-8.29 0-15-6.72-15-15 0-8.29 6.71-15 15-15h148.56c8.28 0 15 6.71 15 15z" fill="#fff"/><path d="m72.48 277.473h-18.787c-8.284 0-15 6.716-15 15s6.716 15 15 15h18.787c8.284 0 15-6.716 15-15s-6.715-15-15-15z" fill="#ffe67b"/><path d="m142.48 277.473h-18.788c-8.284 0-15 6.716-15 15s6.716 15 15 15h18.788c8.284 0 15-6.716 15-15s-6.715-15-15-15z" fill="#fff"/><path d="m398.09 292.238c0 8.29-6.72 15-15 15h-183.79c-8.29 0-15-6.71-15-15 0-8.28 6.71-15 15-15h183.79c8.28 0 15 6.72 15 15z" fill="#fff"/><path d="m458.087 277.24h-18.788c-8.284 0-15 6.716-15 15s6.716 15 15 15h18.788c8.284 0 15-6.716 15-15s-6.716-15-15-15z" fill="#ffd400"/><path d="m396 125.098h-68.89c-6.59 0-11.94-5.35-11.94-11.94v-77.09c6.88 0 13.43 2.97 17.96 8.15l56.97 65.15c3.8 4.36 5.9 9.95 5.9 15.73z" fill="#ffb600"/><g fill="#f3f4ff"><path d="m272.85 146.128h-16.85v-30h16.85c8.28 0 15 6.71 15 15 0 8.28-6.72 15-15 15z"/><path d="m339.51 198.168h-83.51v-30h83.51c8.28 0 15 6.71 15 15 0 8.28-6.72 15-15 15z"/><path d="m398.09 292.238c0 8.29-6.72 15-15 15h-127.09v-30h127.09c8.28 0 15 6.72 15 15z"/><path d="m458.86 439.362-20-86.57h-73.15l-36.57 10-36.57-10h-73.14l-36.57 10-36.57-10h-73.15l-20 86.57 20 36.57h73.15l36.57-10 36.57 10h73.14l36.57-10 36.57 10h73.15z"/></g><path d="m458.86 439.362-20-86.57h-73.15l-36.57 10-36.57-10h-36.57v123.14h36.57l36.57-10 36.57 10h73.15z" fill="#e3e6ff"/><path d="m73.14 475.932v-123.14h-73.14v86.47c0 20.22 16.45 36.67 36.67 36.67z" fill="#293456"/><path d="m146.286 352.788h73.143v123.143h-73.143z" fill="#293456"/><path d="m292.571 352.788h73.143v123.143h-73.143z" fill="#0e1830"/><path d="m512 439.262v-86.47h-73.14v123.14h36.47c20.22 0 36.67-16.45 36.67-36.67z" fill="#0e1830"/></svg>