<svg id="Capa_1" enable-background="new 0 0 512 512" height="512" viewBox="0 0 512 512" width="512" xmlns="http://www.w3.org/2000/svg"><path d="m314.481 334.43c-13.116 8.576-26.683 17.461-34.384 26.536-5.084 5.997-7.32 17.661-9.917 31.124-5.014 26.277-11.903 62.229-46.075 97.091-14.83 15.143-32.98 22.819-53.937 22.819-56.013 0-111.504-55.932-113.83-58.301-.572-.59-1.153-1.179-1.715-1.789-40.771-43.038-74.072-128.325-29.149-174.202 15.462-15.772 36.85-23.658 57.577-31.294 20.386-7.536 39.638-14.613 53.205-28.466 6.277-6.397 10.95-20.64 15.472-34.443 4.984-15.212 10.118-30.944 18.962-43.248 17.467-24.408 38.375-37.811 58.84-37.811 15.963 0 30.413 8.186 40.631 23.088 13.336 19.41 7.029 35.772 1.474 50.234-2.437 6.337-3.921 15.122-5.064 22.399l15.572 26.956 15.572 26.946c6.468 4.058 12.033 3.678 17.167 2.589 5.395-1.159 10.98-2.359 16.495-2.359 14.329 0 21.719 8.356 25.379 15.352 15.272 29.128-16.635 50.007-42.275 66.779z" fill="#4de6ff"/><path d="m314.481 334.43c-13.116 8.576-26.683 17.461-34.384 26.536-5.084 5.997-7.32 17.661-9.917 31.124-5.014 26.277-11.903 62.229-46.075 97.091-14.83 15.143-32.98 22.819-53.937 22.819-56.013 0-111.504-55.932-113.83-58.301-.572-.59-1.153-1.179-1.715-1.789l227.52-226.785 15.572 26.946c6.468 4.058 12.033 3.678 17.167 2.589 5.395-1.159 10.98-2.359 16.495-2.359 14.329 0 21.719 8.356 25.379 15.352 15.272 29.126-16.635 50.005-42.275 66.777z" fill="#50b8ff"/><path d="m167.11 415.549c-2.938 2.938-6.799 4.408-10.649 4.408s-7.691-1.459-10.619-4.378l-27.425-27.256-26.582-26.417c-5.876-5.847-5.896-15.342-.03-21.209 5.866-5.857 15.392-5.877 21.278-.03l26.602 26.457 27.395 27.226c5.876 5.847 5.896 15.342.03 21.199z" fill="#fff"/><path d="m209.686 373.22c-2.938 2.939-6.788 4.408-10.649 4.408-3.841 0-7.681-1.459-10.619-4.378l-27.475-27.316-26.522-26.357c-5.886-5.857-5.896-15.342-.03-21.209 5.866-5.857 15.382-5.877 21.268-.03l26.552 26.397 27.445 27.286c5.886 5.847 5.896 15.342.03 21.199z" fill="#fff"/><path d="m441.214 109.037-202.523 201.87c-4.216 4.203-11.038 4.196-15.247 0l-27.371-27.283c-4.209-4.196-4.209-10.988 0-15.184l202.53-201.876 35.499 7.083v.014z" fill="#293456"/><path d="m441.214 109.037-202.523 201.87c-4.216 4.203-11.038 4.196-15.247 0l-13.678-13.634 224.336-223.613z" fill="#0e1830"/><path d="m495.126 105.308c-5.877 5.858-15.41 5.866-21.295 0l-71.487-71.257c-5.877-5.858-5.877-15.368 0-21.226s15.418-5.858 21.295 0l71.487 71.257c5.885 5.866 5.878 15.368 0 21.226z" fill="#293456"/><path d="m495.126 105.308c-5.877 5.858-15.41 5.866-21.295 0l-35.74-35.625 21.295-21.226 35.74 35.625c5.885 5.866 5.878 15.368 0 21.226z" fill="#0e1830"/><path d="m499.385 72.252-58.171 36.785-42.611-42.474 36.904-57.983c6.36-9.991 20.372-11.533 28.777-3.17l38.288 38.165c8.391 8.364 6.843 22.331-3.187 28.677z" fill="#ffd400"/><path d="m441.214 109.037-21.302-21.233 63.516-63.311 19.144 19.082c8.39 8.363 6.843 22.33-3.187 28.677z" fill="#ffb600"/><g fill="#f3f4ff"><path d="m167.08 394.349c5.876 5.847 5.896 15.342.03 21.199-2.938 2.938-6.799 4.408-10.649 4.408s-7.691-1.459-10.619-4.378l-27.425-27.256 21.268-21.199z"/><path d="m209.686 373.22c-2.938 2.939-6.788 4.408-10.649 4.408-3.841 0-7.681-1.459-10.619-4.378l-27.475-27.316 21.268-21.199 27.445 27.286c5.886 5.847 5.896 15.342.03 21.199z"/></g></svg>