<svg id="Capa_1" enable-background="new 0 0 512 512" height="512" viewBox="0 0 512 512" width="512" xmlns="http://www.w3.org/2000/svg"><path d="m373 117c0 8.29-6.71 15-15 15-8.28 0-15-6.71-15-15 0-47.97-39.03-87-87-87s-87 39.03-87 87c0 8.29-6.72 15-15 15-8.29 0-15-6.71-15-15 0-64.51 52.48-117 117-117s117 52.49 117 117z" fill="#e3e6ff"/><path d="m256 30v-30c64.52 0 117 52.49 117 117 0 8.29-6.71 15-15 15-8.28 0-15-6.71-15-15 0-47.97-39.03-87-87-87z" fill="#cbd1f4"/><path d="m512 173.87v266.26c0 39.63-32.24 71.87-71.87 71.87h-368.26c-39.63 0-71.87-32.24-71.87-71.87v-266.26c0-39.63 32.24-71.87 71.87-71.87h368.26c39.63 0 71.87 32.24 71.87 71.87z" fill="#293456"/><path d="m512 173.87v266.26c0 39.63-32.24 71.87-71.87 71.87h-184.13v-410h184.13c39.63 0 71.87 32.24 71.87 71.87z" fill="#0e1830"/><path d="m70 186.125h18.788c8.284 0 15-6.716 15-15s-6.716-15-15-15h-18.788c-8.284 0-15 6.716-15 15s6.716 15 15 15z" fill="#ffe67b"/><path d="m138.803 186.125h18.788c8.284 0 15-6.716 15-15s-6.716-15-15-15h-18.788c-8.284 0-15 6.716-15 15s6.716 15 15 15z" fill="#f3f4ff"/><path d="m388.2 170.89c0 8.29-6.72 15-15 15h-163.79c-8.29 0-15-6.71-15-15 0-8.28 6.71-15 15-15h163.79c8.28 0 15 6.72 15 15z" fill="#f3f4ff"/><path d="m423.212 185.891h18.788c8.284 0 15-6.716 15-15s-6.716-15-15-15h-18.788c-8.284 0-15 6.716-15 15s6.716 15 15 15z" fill="#ffd400"/><path d="m312.51 242.82v71.14c0 8.29-6.71 15-15 15h-227.51c-8.28 0-15-6.71-15-15v-71.14c0-8.28 6.72-15 15-15h227.51c8.29 0 15 6.72 15 15z" fill="#4de6ff"/><path d="m187.513 355.697h-117.513c-8.284 0-15 6.716-15 15v71.141c0 8.284 6.716 15 15 15h117.513c8.284 0 15-6.716 15-15v-71.141c0-8.284-6.716-15-15-15z" fill="#4de6ff"/><path d="m457 381.27c0 8.28-6.72 15-15 15h-199.76c-8.29 0-15-6.72-15-15 0-8.29 6.71-15 15-15h199.76c8.28 0 15 6.71 15 15z" fill="#e3e6ff"/><path d="m457 431.27c0 8.28-6.72 15-15 15h-199.76c-8.29 0-15-6.72-15-15 0-8.29 6.71-15 15-15h199.76c8.28 0 15 6.71 15 15z" fill="#e3e6ff"/><path d="m442 239.196h-85.559c-8.284 0-15 6.716-15 15s6.716 15 15 15h85.559c8.284 0 15-6.716 15-15s-6.716-15-15-15z" fill="#cbd1f4"/><path d="m442 289.196h-85.559c-8.284 0-15 6.716-15 15s6.716 15 15 15h85.559c8.284 0 15-6.716 15-15s-6.716-15-15-15z" fill="#cbd1f4"/><path d="m297.51 328.96h-41.51v-101.14h41.51c8.29 0 15 6.72 15 15v71.14c0 8.29-6.71 15-15 15z" fill="#50b8ff"/><g fill="#cbd1f4"><path d="m373.2 185.89h-117.2v-30h117.2c8.28 0 15 6.72 15 15 0 8.29-6.72 15-15 15z"/><path d="m457 431.27c0 8.28-6.72 15-15 15h-186v-30h186c8.28 0 15 6.71 15 15z"/><path d="m442 396.27h-186v-30h186c8.28 0 15 6.71 15 15 0 8.28-6.72 15-15 15z"/></g></svg>