<svg id="Capa_1" enable-background="new 0 0 512 512" height="512" viewBox="0 0 512 512" width="512" xmlns="http://www.w3.org/2000/svg"><path d="m154.066 497.834-69.658-69.697-70.251-70.277c-26.255-26.277-14.241-71.134 21.623-80.75l213.102-56.286 42.49 42.549-56.597 212.822c-9.609 35.893-54.447 47.909-80.709 21.639z" fill="#ffd400"/><path d="m154.066 497.834-69.658-69.697 185.751-186.007 21.213 21.243-56.597 212.822c-9.609 35.893-54.447 47.909-80.709 21.639z" fill="#ffb600"/><path d="m445.396 109.199-211.672 211.875c-4.205 4.209-11.008 4.202-15.206 0l-27.297-27.323c-4.198-4.202-4.198-11.004 0-15.206l211.679-211.883 35.402 7.093v.014z" fill="#e56705"/><path d="m445.396 109.199-211.672 211.875c-4.205 4.209-11.008 4.202-15.206 0l-13.641-13.655 233.425-233.65z" fill="#bc4f04"/><path d="m499.161 105.464c-5.862 5.867-15.369 5.874-21.237 0l-71.293-71.362c-5.861-5.867-5.861-15.391 0-21.258s15.376-5.867 21.237 0l71.293 71.362c5.869 5.875 5.862 15.391 0 21.258z" fill="#293456"/><path d="m499.161 105.464c-5.862 5.867-15.369 5.874-21.237 0l-35.643-35.677 21.237-21.258 35.643 35.677c5.869 5.875 5.862 15.391 0 21.258z" fill="#0e1830"/><path d="m503.409 72.359-58.013 36.84-42.496-42.537 36.804-58.069c6.343-10.005 20.317-11.55 28.699-3.174l38.185 38.221c8.366 8.376 6.823 22.363-3.179 28.719z" fill="#ffd400"/><path d="m445.396 109.199-21.244-21.265 63.344-63.405 19.092 19.111c8.367 8.376 6.824 22.363-3.178 28.719z" fill="#ffb600"/><path d="m172.981 395.495c-7.722 7.718-17.855 11.577-27.995 11.577s-20.266-3.852-27.98-11.577l-.007-.007c-7.481-7.477-11.604-17.426-11.597-28.012-.007-10.586 4.115-20.534 11.59-28.019 15.443-15.436 40.546-15.436 55.982-.007l.007.007c7.474 7.484 11.597 17.433 11.59 28.019.006 10.586-4.116 20.535-11.59 28.019z" fill="#293456"/><path d="m172.981 395.495c-7.722 7.718-17.855 11.577-27.995 11.577s-20.266-3.852-27.98-11.577l55.968-56.045.007.007c7.474 7.484 11.597 17.433 11.59 28.019.006 10.586-4.116 20.535-11.59 28.019z" fill="#0e1830"/></svg>