<svg id="Capa_1" enable-background="new 0 0 512 512" height="512" viewBox="0 0 512 512" width="512" xmlns="http://www.w3.org/2000/svg"><path d="m512 117.88v276.23c0 37.43-30.45 67.89-67.89 67.89h-376.22c-37.43 0-67.89-30.46-67.89-67.89v-276.23c0-37.43 30.46-67.88 67.89-67.88h376.22c37.44 0 67.89 30.45 67.89 67.88z" fill="#293456"/><path d="m512 255.07v139.04c0 37.43-30.45 67.89-67.89 67.89h-376.22c-37.43 0-67.89-30.46-67.89-67.89v-139.04z" fill="#0e1830"/><path d="m58.191 353.808c-8.284 0-15 6.716-15 15v18.788c0 8.284 6.716 15 15 15s15-6.716 15-15v-18.788c0-8.284-6.716-15-15-15z" fill="#ffd400"/><path d="m58.191 285.005c-8.284 0-15 6.716-15 15v18.788c0 8.284 6.716 15 15 15s15-6.716 15-15v-18.788c0-8.284-6.716-15-15-15z" fill="#e3e6ff"/><path d="m73.19 191.61v63.79c0 8.28-6.72 15-15 15s-15-6.72-15-15v-63.79c0-8.28 6.72-15 15-15s15 6.72 15 15z" fill="#f3f4ff"/><path d="m58.191 107.808c-8.284 0-15 6.716-15 15v18.788c0 8.284 6.716 15 15 15s15-6.716 15-15v-18.788c0-8.284-6.716-15-15-15z" fill="#ffe67b"/><path d="m103.191 108.005c-8.284 0-15 6.716-15 15v18.788c0 8.284 6.716 15 15 15s15-6.716 15-15v-18.788c0-8.284-6.716-15-15-15z" fill="#ffe67b"/><path d="m103.191 176.808c-8.284 0-15 6.716-15 15v18.788c0 8.284 6.716 15 15 15s15-6.716 15-15v-18.788c0-8.284-6.716-15-15-15z" fill="#f3f4ff"/><path d="m118.19 255.07v63.92c0 8.28-6.72 15-15 15s-15-6.72-15-15v-63.92c.07-8.22 6.76-14.87 15-14.87s14.93 6.65 15 14.87z" fill="#f3f4ff"/><path d="m103.191 354.005c-8.284 0-15 6.716-15 15v18.788c0 8.284 6.716 15 15 15s15-6.716 15-15v-18.788c0-8.284-6.716-15-15-15z" fill="#ffd400"/><path d="m43.19 255.07h30v.33c0 8.28-6.72 15-15 15s-15-6.72-15-15z" fill="#e3e6ff"/><path d="m88.19 255.07h30v63.92c0 8.28-6.72 15-15 15s-15-6.72-15-15z" fill="#e3e6ff"/><path d="m233.4 122.68v264.78c0 8.29-6.71 15-15 15-8.28 0-15-6.71-15-15v-264.78c0-8.29 6.72-15 15-15 8.29 0 15 6.71 15 15z" fill="#fff"/><path d="m332.4 122.68v264.78c0 8.29-6.71 15-15 15-8.28 0-15-6.71-15-15v-264.78c0-8.29 6.72-15 15-15 8.29 0 15 6.71 15 15z" fill="#fff"/><path d="m433.4 122.68v264.78c0 8.29-6.71 15-15 15-8.28 0-15-6.71-15-15v-264.78c0-8.29 6.72-15 15-15 8.29 0 15 6.71 15 15z" fill="#fff"/><g fill="#e3e6ff"><path d="m203.4 255.07h30v132.39c0 8.29-6.71 15-15 15-8.28 0-15-6.71-15-15z"/><path d="m302.4 255.07h30v132.39c0 8.29-6.71 15-15 15-8.28 0-15-6.71-15-15z"/><path d="m433.4 255.07v132.39c0 8.29-6.71 15-15 15-8.28 0-15-6.71-15-15v-132.39z"/></g><path d="m247.81 327.514h-58.811c-8.284 0-15 6.716-15 15s6.716 15 15 15h58.811c8.284 0 15-6.716 15-15s-6.716-15-15-15z" fill="#ffd400"/><path d="m361.81 255.07c0 8.28-6.72 15-15 15h-58.81c-8.29 0-15-6.72-15-15s6.71-15 15-15h58.81c8.28 0 15 6.72 15 15z" fill="#ffe67b"/><path d="m447.81 154.873h-58.811c-8.284 0-15 6.716-15 15s6.716 15 15 15h58.811c8.284 0 15-6.716 15-15s-6.716-15-15-15z" fill="#ffe67b"/><path d="m361.81 255.07c0 8.28-6.72 15-15 15h-58.81c-8.29 0-15-6.72-15-15z" fill="#ffd400"/></svg>