<svg id="Capa_1" enable-background="new 0 0 512 512" height="512" viewBox="0 0 512 512" width="512" xmlns="http://www.w3.org/2000/svg"><path d="m375 27.52v214.78c0 29.65-23.95 53.68-53.5 53.68h-22.31c-3.2 0-5.8 2.6-5.8 5.81l-16.13 124.91h-42.3l-16.36-124.91c0-3.21-2.59-5.81-5.79-5.81h-22.31c-29.55 0-53.5-24.03-53.5-53.68v-214.78c0-7.6 3.07-14.48 8.03-19.46 4.97-4.98 11.82-8.06 19.39-8.06 15.15 0 27.43 12.32 27.43 27.52v207.61c0 3.21 2.59 5.81 5.79 5.81h116.72c3.2 0 5.79-2.6 5.79-5.81v-207.61c0-7.6 3.07-14.48 8.03-19.46 4.97-4.98 11.82-8.06 19.4-8.06 15.14 0 27.42 12.32 27.42 27.52z" fill="#f3f4ff"/><path d="m375 27.52v214.78c0 29.65-23.95 53.68-53.5 53.68h-22.31c-3.2 0-5.8 2.6-5.8 5.81l-16.13 124.91h-21.46v-185.76h58.56c3.2 0 5.79-2.6 5.79-5.81v-207.61c0-7.6 3.07-14.48 8.03-19.46 4.97-4.98 11.82-8.06 19.4-8.06 15.14 0 27.42 12.32 27.42 27.52z" fill="#e3e6ff"/><path d="m305.12 462.74c0 12.62-4.78 25.23-14.36 34.83-9.28 9.3-21.63 14.43-34.76 14.43h-.2c-13.06-.05-25.33-5.18-34.56-14.43-19.15-19.2-19.15-50.45 0-69.65 9.23-9.26 21.5-14.38 34.56-14.43h.2c13.13 0 25.48 5.12 34.76 14.43 9.58 9.6 14.36 22.21 14.36 34.82z" fill="#e3e6ff"/><path d="m305.12 462.74c0 12.62-4.78 25.23-14.36 34.83-9.28 9.3-21.63 14.43-34.76 14.43h-.2v-98.51h.2c13.13 0 25.48 5.12 34.76 14.43 9.58 9.6 14.36 22.21 14.36 34.82z" fill="#cbd1f4"/></svg>