<svg id="Capa_1" enable-background="new 0 0 512 512" height="512" viewBox="0 0 512 512" width="512" xmlns="http://www.w3.org/2000/svg"><path d="m68.82 117.18h30v50.076h-30z" fill="#f3f4ff"/><path d="m183.82 117.18h30v50.076h-30z" fill="#f3f4ff"/><g fill="#e3e6ff"><path d="m298.82 117.18h30v50.076h-30z"/><path d="m413.82 117.18h30v50.076h-30z"/><path d="m373.01 117.16h-30c0-48.06-39.03-87.16-87.01-87.16-47.97 0-87 39.1-87 87.16h-30c0-64.6 52.49-117.16 117-117.16 64.52 0 117.01 52.56 117.01 117.16z"/></g><path d="m373.01 117.16h-30c0-48.06-39.03-87.16-87.01-87.16v-30c64.52 0 117.01 52.56 117.01 117.16z" fill="#cbd1f4"/><path d="m492 117.16c0 8.28-6.71 15-15 15h-442c-8.28 0-15-6.72-15-15 0-8.29 6.72-15 15-15h442c8.29 0 15 6.71 15 15z" fill="#4de6ff"/><path d="m83.82 159.757c-19.321 0-35.04 15.719-35.04 35.04v282.164c0 19.32 15.719 35.039 35.04 35.039s35.04-15.719 35.04-35.039v-282.164c0-19.321-15.719-35.04-35.04-35.04z" fill="#ffe67b"/><path d="m198.82 159.757c-19.321 0-35.04 15.719-35.04 35.04v242.102c0 19.321 15.719 35.04 35.04 35.04s35.04-15.719 35.04-35.04v-242.102c0-19.321-15.719-35.04-35.04-35.04z" fill="#ffe67b"/><path d="m313.82 159.757c-19.321 0-35.04 15.719-35.04 35.04v192.025c0 19.321 15.719 35.04 35.04 35.04s35.04-15.719 35.04-35.04v-192.025c0-19.321-15.719-35.04-35.04-35.04z" fill="#ffd400"/><path d="m428.82 159.757c-19.321 0-35.04 15.719-35.04 35.04v141.948c0 19.321 15.719 35.04 35.04 35.04s35.04-15.719 35.04-35.04v-141.948c0-19.321-15.719-35.04-35.04-35.04z" fill="#ffd400"/><path d="m492 117.16c0 8.28-6.71 15-15 15h-221v-30h221c8.29 0 15 6.71 15 15z" fill="#50b8ff"/></svg>