<svg id="Capa_1" enable-background="new 0 0 512 512" height="512" viewBox="0 0 512 512" width="512" xmlns="http://www.w3.org/2000/svg"><path d="m317.45 426-26.57 62.87c-5.94 14.05-19.63 23.13-34.88 23.13s-28.94-9.08-34.88-23.13l-26.57-62.87z" fill="#f3f4ff"/><path d="m317.45 426-26.57 62.87c-5.94 14.05-19.63 23.13-34.88 23.13v-86z" fill="#e3e6ff"/><path d="m198.36 27.7h115.28v358.99h-115.28z" fill="#ffe67b"/><path d="m256 27.7h57.64v358.99h-57.64z" fill="#ffd400"/><path d="m336.14 405.8c0 7.65-3.1 14.58-8.12 19.59-5.01 5.01-11.94 8.11-19.59 8.11h-104.86c-15.3 0-27.71-12.4-27.71-27.7 0-7.65 3.1-14.58 8.12-19.59 5.01-5.02 11.94-8.12 19.59-8.12h104.86c15.3 0 27.71 12.41 27.71 27.71z" fill="#ffd400"/><path d="m336.14 332.58c0 8.29-6.72 15-15 15h-130.28c-8.28 0-15-6.71-15-15 0-8.28 6.72-15 15-15h130.28c8.28 0 15 6.72 15 15z" fill="#ffd400"/><path d="m271 109.4v13.11c0 8.29-6.72 15-15 15s-15-6.71-15-15v-13.11c0-8.29 6.72-15 15-15s15 6.71 15 15z" fill="#fff"/><path d="m271 179.4v13.11c0 8.29-6.72 15-15 15s-15-6.71-15-15v-13.11c0-8.29 6.72-15 15-15s15 6.71 15 15z" fill="#fff"/><path d="m271 252.4v13.11c0 8.29-6.72 15-15 15s-15-6.71-15-15v-13.11c0-8.29 6.72-15 15-15s15 6.71 15 15z" fill="#fff"/><path d="m336.14 27.7c0 7.65-3.1 14.58-8.12 19.59-5.01 5.02-11.94 8.12-19.59 8.12h-104.86c-15.3 0-27.71-12.41-27.71-27.71 0-7.65 3.1-14.58 8.12-19.59 5.01-5.01 11.94-8.11 19.59-8.11h104.86c15.3 0 27.71 12.4 27.71 27.7z" fill="#ffd400"/><g fill="#f3f4ff"><path d="m256 137.51v-43.11c8.28 0 15 6.71 15 15v13.11c0 8.29-6.72 15-15 15z"/><path d="m256 207.51v-43.11c8.28 0 15 6.71 15 15v13.11c0 8.29-6.72 15-15 15z"/><path d="m256 280.51v-43.11c8.28 0 15 6.71 15 15v13.11c0 8.29-6.72 15-15 15z"/></g><path d="m336.14 405.8c0 7.65-3.1 14.58-8.12 19.59-5.01 5.01-11.94 8.11-19.59 8.11h-52.43v-55.41h52.43c15.3 0 27.71 12.41 27.71 27.71z" fill="#ffb600"/><path d="m308.43 55.41h-52.43v-55.41h52.43c15.3 0 27.71 12.4 27.71 27.7 0 7.65-3.1 14.58-8.12 19.59-5.01 5.02-11.94 8.12-19.59 8.12z" fill="#ffb600"/><path d="m336.14 332.58c0 8.29-6.72 15-15 15h-65.14v-30h65.14c8.28 0 15 6.72 15 15z" fill="#ffb600"/></svg>