<svg id="Capa_1" enable-background="new 0 0 512 512" height="512" viewBox="0 0 512 512" width="512" xmlns="http://www.w3.org/2000/svg"><path d="m512 155.17v244.15c0 21.93-32.62 41.65-84.51 55.27-4.82 1.27-9.81-7.52-14.96-6.36-4.88 1.1-9.89 12.14-15.04 13.14-36.63 7.07-79.89 11.48-126.49 12.26-4.96.09-9.96-9.87-15-9.87s-10.04 9.96-15 9.87c-46.48-.78-89.63-5.16-126.2-12.2-5.13-.99-10.14-12.03-15-13.12-5.16-1.16-10.17 7.62-15 6.35-52.06-13.62-84.8-33.37-84.8-55.34v-244.15z" fill="#ff8a3c"/><g fill="#e56705"><path d="m512 155.17v244.15c0 21.93-32.62 41.65-84.51 55.27-4.82 1.27-9.81-7.52-14.96-6.36-4.88 1.1-9.89 12.14-15.04 13.14-36.63 7.07-79.89 11.48-126.49 12.26-4.96.09-9.96-9.87-15-9.87v-308.59z"/><path d="m271 112.68v360.95c-4.96.09-9.96.13-15 .13s-10.04-.04-15-.13v-360.95z"/><path d="m114.8 112.68v348.75c-10.58-2.04-20.61-4.3-30-6.77v-341.98z"/></g><path d="m427.49 112.68v341.91c-9.39 2.47-19.42 4.73-30 6.78v-348.69z" fill="#bc4f04"/><path d="m271 112.68v360.95c-4.96.09-9.96.13-15 .13v-361.08z" fill="#bc4f04"/><path d="m512 112.68v42.49c0 41.12-114.62 74.45-256 74.45s-256-33.33-256-74.45v-42.49z" fill="#e3e6ff"/><path d="m512 112.68v42.49c0 41.12-114.62 74.45-256 74.45v-116.94z" fill="#cbd1f4"/><path d="m512 112.69c0 41.11-114.62 74.44-256 74.44-141.39 0-256-33.33-256-74.44 0-41.12 114.61-74.45 256-74.45 141.38 0 256 33.33 256 74.45z" fill="#f3f4ff"/><path d="m291.02 333.64v38.89c0 19.29-15.7 34.98-34.98 34.98h-.04c-19.27-.02-34.95-15.7-34.95-34.98v-38.89c0-19.28 15.68-34.96 34.95-34.98h.04c19.28 0 34.98 15.69 34.98 34.98z" fill="#f3f4ff"/><path d="m99.838 275.655c-19.289 0-34.982 15.692-34.982 34.981v38.892c0 19.289 15.693 34.981 34.982 34.981s34.982-15.692 34.982-34.981v-38.892c0-19.288-15.693-34.981-34.982-34.981z" fill="#f3f4ff"/><path d="m412.528 275.655c-19.289 0-34.982 15.692-34.982 34.981v38.892c0 19.289 15.693 34.981 34.982 34.981s34.982-15.692 34.982-34.981v-38.892c0-19.288-15.693-34.981-34.982-34.981z" fill="#e3e6ff"/><path d="m291.02 333.64v38.89c0 19.29-15.7 34.98-34.98 34.98h-.04v-108.85h.04c19.28 0 34.98 15.69 34.98 34.98z" fill="#e3e6ff"/><path d="m512 112.69c0 41.11-114.62 74.44-256 74.44v-148.89c141.38 0 256 33.33 256 74.45z" fill="#e3e6ff"/></svg>