<svg id="Capa_1" enable-background="new 0 0 512 512" height="512" viewBox="0 0 512 512" width="512" xmlns="http://www.w3.org/2000/svg"><path d="m432.761 149.658h-343.522l18.25-59.716h307.372z" fill="#ffd400"/><path d="m432.761 149.658h-176.761v-59.716h158.861z" fill="#ffb600"/><path d="m271 57.482v333.078c0 8.283-6.72 14.986-15 14.986s-15-6.704-15-14.986v-333.078c0-8.273 6.72-14.986 15-14.986 8.28-.001 15 6.713 15 14.986z" fill="#f3f4ff"/><path d="m192.441 42.496c-8.284 0-15 6.71-15 14.986v325.588c0 8.277 6.716 14.986 15 14.986s15-6.71 15-14.986v-325.588c0-8.276-6.716-14.986-15-14.986z" fill="#f3f4ff"/><path d="m319.735 42.496c-8.284 0-15 6.71-15 14.986v325.588c0 8.277 6.716 14.986 15 14.986s15-6.71 15-14.986v-325.588c0-8.276-6.716-14.986-15-14.986z" fill="#e3e6ff"/><path d="m271 57.482v333.078c0 8.283-6.72 14.986-15 14.986v-363.051c8.28 0 15 6.714 15 14.987z" fill="#e3e6ff"/><path d="m499.281 358.189c-53.13 149.624-243.281 140.193-243.281 140.193s-190.151 9.431-243.281-140.193c-53.13-149.634 79.11-293.364 51.95-280.406-51.95 23.559-72.02-54.201 12.99-63.622s50.77 83.654 20.07 167.298c-30.7 83.654 0 199.109 158.271 199.109s188.971-115.455 158.271-199.109c-30.7-83.644-64.94-176.72 20.07-167.298s64.94 87.181 12.99 63.622c-27.16-12.958 105.081 130.772 51.95 280.406z" fill="#ffe67b"/><path d="m499.281 358.189c-53.13 149.624-243.281 140.193-243.281 140.193v-117.814c158.271 0 188.971-115.455 158.271-199.109-30.7-83.644-64.94-176.72 20.07-167.298s64.94 87.181 12.99 63.622c-27.16-12.958 105.081 130.772 51.95 280.406z" fill="#ffd400"/></svg>