<svg id="Capa_1" enable-background="new 0 0 512 512" height="512" viewBox="0 0 512 512" width="512" xmlns="http://www.w3.org/2000/svg"><path d="m92.693 408.174c-8.284 0-15 6.716-15 15v38.993c0 8.284 6.716 15 15 15s15-6.716 15-15v-38.993c0-8.284-6.715-15-15-15z" fill="#f3f4ff"/><path d="m419.307 408.174c-8.284 0-15 6.716-15 15v38.993c0 8.284 6.716 15 15 15s15-6.716 15-15v-38.993c0-8.284-6.716-15-15-15z" fill="#e3e6ff"/><path d="m115.021 34.833c-8.284 0-15 6.716-15 15v163.342c0 8.284 6.716 15 15 15s15-6.716 15-15v-163.342c0-8.285-6.715-15-15-15z" fill="#f3f4ff"/><path d="m429.344 175.212c0-5.378-4.359-9.737-9.737-9.737h-46.225c-5.378 0-9.737 4.359-9.737 9.737v37.962h65.699z" fill="#0e1830"/><path d="m512 249.822v136.7c0 28.48-23.17 51.65-51.65 51.65h-408.7c-28.48 0-51.65-23.17-51.65-51.65v-136.7c0-28.48 23.17-51.65 51.65-51.65h408.7c28.48 0 51.65 23.17 51.65 51.65z" fill="#ff8a3c"/><path d="m512 249.822v136.7c0 28.48-23.17 51.65-51.65 51.65h-204.35v-240h204.35c28.48 0 51.65 23.17 51.65 51.65z" fill="#e56705"/><path d="m214 343.28c-8.284 0-15 6.716-15 15v18.478c0 8.284 6.716 15 15 15s15-6.716 15-15v-18.478c0-8.284-6.716-15-15-15z" fill="#f3f4ff"/><path d="m298 343.28c-8.284 0-15 6.716-15 15v18.478c0 8.284 6.716 15 15 15s15-6.716 15-15v-18.478c0-8.284-6.716-15-15-15z" fill="#e3e6ff"/><g fill="#f3f4ff"><path d="m310.95 262.802c0 8.28-6.72 15-15 15h-79.9c-8.28 0-15-6.72-15-15 0-8.29 6.72-15 15-15h79.9c8.28 0 15 6.71 15 15z"/><path d="m285 307.802c0 8.28-6.72 15-15 15h-28.48c-8.29 0-15-6.72-15-15 0-8.29 6.71-15 15-15h28.48c8.28 0 15 6.71 15 15z"/><path d="m271 358.282v18.48c0 8.28-6.72 15-15 15s-15-6.72-15-15v-18.48c0-8.29 6.72-15 15-15s15 6.71 15 15z"/></g><path d="m105.021 249.365c-37.941 0-68.809 30.868-68.809 68.81s30.868 68.809 68.809 68.809c37.942 0 68.81-30.867 68.81-68.809s-30.868-68.81-68.81-68.81z" fill="#293456"/><path d="m406.494 249.365c-37.942 0-68.81 30.868-68.81 68.81s30.868 68.809 68.81 68.809c37.941 0 68.809-30.867 68.809-68.809s-30.867-68.81-68.809-68.81z" fill="#0e1830"/><path d="m271 358.282v18.48c0 8.28-6.72 15-15 15v-48.48c8.28 0 15 6.71 15 15z" fill="#e3e6ff"/><path d="m285 307.802c0 8.28-6.72 15-15 15h-14v-30h14c8.28 0 15 6.71 15 15z" fill="#e3e6ff"/><path d="m310.95 262.802c0 8.28-6.72 15-15 15h-39.95v-30h39.95c8.28 0 15 6.71 15 15z" fill="#e3e6ff"/></svg>