<svg height="511pt" viewBox="0 0 511 511.99943" width="511pt" xmlns="http://www.w3.org/2000/svg"><path d="m298.484375 24.023438-76.699219 101.980468h-52.257812c-24.882813-33.820312-74.320313-101.039062-75.109375-102.109375-4.910157-6.679687-3.480469-16.0625 3.1875-20.972656 6.679687-4.910156 16.0625-3.476563 20.972656 3.191406l77.046875 104.757813 78.878906-104.886719c4.980469-6.621094 14.390625-7.949219 21.011719-2.972656 6.621094 4.980469 7.949219 14.390625 2.96875 21.011719zm0 0" fill="#e0f4fe"/><path d="m298.484375 24.023438c-3.15625 4.199218-70.433594 93.644531-76.699219 101.980468h-25.289062v-16.292968l78.007812-103.726563c4.980469-6.621094 14.390625-7.949219 21.011719-2.972656 6.621094 4.980469 7.949219 14.390625 2.96875 21.011719zm0 0" fill="#bcdcfe"/><path d="m442.867188 510.578125c-7.402344 3.484375-16.402344.363281-19.953126-7.210937l-13.296874-28.367188h33.128906l7.328125 15.628906c3.519531 7.5.292969 16.441406-7.207031 19.949219zm0 0" fill="#293939"/><path d="m103.378906 475-13.300781 28.367188c-3.546875 7.570312-12.546875 10.699218-19.949219 7.210937-7.5-3.507813-10.730468-12.449219-7.210937-19.949219l7.332031-15.628906zm0 0" fill="#3e5959"/><path d="m467.496094 121.003906h-421.996094c-24.8125 0-45 20.183594-45 45v268.996094c0 24.8125 20.1875 45 45 45h421.996094c24.8125 0 45-20.1875 45-45v-268.996094c0-24.816406-20.1875-45-45-45zm0 0" fill="#fd6328"/><path d="m512.496094 166.003906v268.996094c0 24.808594-20.191406 45-45 45h-271v-358.996094h271c24.808594 0 45 20.1875 45 45zm0 0" fill="#ee3616"/><path d="m276.496094 181h-159.996094c-30.328125 0-55 24.675781-55 55v130c0 30.328125 24.671875 55 55 55h159.996094c30.328125 0 55-24.671875 55-55v-130c0-30.324219-24.671875-55-55-55zm0 0" fill="#fed941"/><path d="m331.496094 236v130c0 30.328125-24.667969 55-55 55h-80v-240h80c30.332031 0 55 24.671875 55 55zm0 0" fill="#fcbe29"/><g fill="#cb0010"><path d="m376.496094 211h60c8.285156 0 15-6.714844 15-15 0-8.28125-6.714844-15-15-15h-60c-8.285156 0-15 6.71875-15 15 0 8.285156 6.714844 15 15 15zm0 0"/><path d="m436.496094 241h-60c-8.285156 0-15 6.71875-15 15 0 8.285156 6.714844 15 15 15h60c8.285156 0 15-6.714844 15-15 0-8.28125-6.714844-15-15-15zm0 0"/><path d="m406.496094 329c-24.8125 0-45 20.1875-45 45s20.1875 45 45 45 45-20.1875 45-45-20.1875-45-45-45zm0 0"/></g></svg>