<svg height="512pt" viewBox="-1 0 512 512" width="512pt" xmlns="http://www.w3.org/2000/svg"><path d="m105 482c-8.269531 0-15-6.730469-15-15v-30c0-8.285156-6.714844-15-15-15s-15 6.714844-15 15v30c0 24.8125 20.1875 45 45 45 8.285156 0 15-6.714844 15-15s-6.714844-15-15-15zm0 0" fill="#293939"/><path d="m465 61h-420c-24.8125 0-45 20.1875-45 45v301c0 24.8125 20.1875 45 45 45h420c24.8125 0 45-20.1875 45-45v-301c0-24.8125-20.1875-45-45-45zm0 0" fill="#3e5959"/><path d="m135 361c-8.285156 0-15 6.714844-15 15v91c0 8.269531-6.730469 15-15 15-8.285156 0-15 6.714844-15 15s6.714844 15 15 15c24.8125 0 45-20.1875 45-45v-91c0-8.285156-6.714844-15-15-15zm0 0" fill="#293939"/><path d="m510 106v301c0 24.808594-20.191406 45-45 45h-120v-391h120c24.808594 0 45 20.191406 45 45zm0 0" fill="#293939"/><path d="m135 0c-41.421875 0-75 33.578125-75 75v240.042969c0 41.292969 32.972656 75.554687 74.261719 75.953125 41.691406.402344 75.738281-33.394532 75.738281-74.996094v-241c0-41.421875-33.578125-75-75-75zm0 0" fill="#547983"/><path d="m435 121h-180c-8.285156 0-15 6.714844-15 15v60c0 8.285156 6.714844 15 15 15h180c8.285156 0 15-6.714844 15-15v-60c0-8.285156-6.714844-15-15-15zm0 0" fill="#81e885"/><path d="m450 136v60c0 8.28125-6.71875 15-15 15h-90v-90h90c8.28125 0 15 6.71875 15 15zm0 0" fill="#5dc983"/><path d="m270 241h-15c-8.285156 0-15 6.714844-15 15s6.714844 15 15 15h15c8.285156 0 15-6.714844 15-15s-6.714844-15-15-15zm0 0" fill="#fed941"/><path d="m352.5 241h-15c-8.285156 0-15 6.714844-15 15s6.714844 15 15 15h15c8.285156 0 15-6.714844 15-15s-6.714844-15-15-15zm0 0" fill="#fed941"/><path d="m367.5 256c0 8.28125-6.71875 15-15 15h-7.5v-30h7.5c8.28125 0 15 6.71875 15 15zm0 0" fill="#fcbe29"/><path d="m420 271h15c8.285156 0 15-6.714844 15-15s-6.714844-15-15-15h-15c-8.285156 0-15 6.714844-15 15s6.714844 15 15 15zm0 0" fill="#fcbe29"/><path d="m270 301h-15c-8.285156 0-15 6.714844-15 15s6.714844 15 15 15h15c8.285156 0 15-6.714844 15-15s-6.714844-15-15-15zm0 0" fill="#fed941"/><path d="m352.5 301h-15c-8.285156 0-15 6.714844-15 15s6.714844 15 15 15h15c8.285156 0 15-6.714844 15-15s-6.714844-15-15-15zm0 0" fill="#fed941"/><path d="m367.5 316c0 8.28125-6.71875 15-15 15h-7.5v-30h7.5c8.28125 0 15 6.71875 15 15zm0 0" fill="#fcbe29"/><path d="m435 301h-15c-8.285156 0-15 6.714844-15 15s6.714844 15 15 15h15c8.285156 0 15-6.714844 15-15s-6.714844-15-15-15zm0 0" fill="#fcbe29"/><path d="m270 361h-15c-8.285156 0-15 6.714844-15 15s6.714844 15 15 15h15c8.285156 0 15-6.714844 15-15s-6.714844-15-15-15zm0 0" fill="#fed941"/><path d="m352.5 361h-15c-8.285156 0-15 6.714844-15 15s6.714844 15 15 15h15c8.285156 0 15-6.714844 15-15s-6.714844-15-15-15zm0 0" fill="#fed941"/><g fill="#fcbe29"><path d="m367.5 376c0 8.28125-6.71875 15-15 15h-7.5v-30h7.5c8.28125 0 15 6.71875 15 15zm0 0"/><path d="m435 361h-15c-8.285156 0-15 6.714844-15 15s6.714844 15 15 15h15c8.285156 0 15-6.714844 15-15s-6.714844-15-15-15zm0 0"/></g></svg>