<svg height="512pt" viewBox="-1 0 512 512" width="512pt" xmlns="http://www.w3.org/2000/svg"><path d="m390 90h-75c-8.28125 0-15-6.71875-15-15v-75zm0 0" fill="#9bbada"/><path d="m390 90v96h-270v-156c0-16.539062 13.460938-30 30-30h150zm0 0" fill="#e0f4fe"/><path d="m390 90v96h-135v-186h45zm0 0" fill="#bcdcfe"/><path d="m450 181h-390c-33.136719 0-60 26.863281-60 60v135c0 8.285156 6.714844 15 15 15h480c8.285156 0 15-6.714844 15-15v-135c0-33.136719-26.863281-60-60-60zm0 0" fill="#fed941"/><path d="m510 241v135c0 8.28125-6.71875 15-15 15h-240v-210h195c33.140625 0 60 26.859375 60 60zm0 0" fill="#fcbe29"/><path d="m450 316v75h-68v-80l8-10h45c8.28125 0 15 6.71875 15 15zm0 0" fill="#293939"/><path d="m75 301h45l8 10v80h-68v-75c0-8.28125 6.71875-15 15-15zm0 0" fill="#3e5959"/><path d="m390 301h-270v181c0 16.570312 13.429688 30 30 30h210c16.570312 0 30-13.429688 30-30zm0 0" fill="#e0f4fe"/><path d="m390 301v181c0 16.570312-13.429688 30-30 30h-105v-211zm0 0" fill="#bcdcfe"/><path d="m135 241h-60c-8.285156 0-15 6.714844-15 15s6.714844 15 15 15h60c8.285156 0 15-6.714844 15-15s-6.714844-15-15-15zm0 0" fill="#fe9022"/><path d="m450 256c0 8.285156-6.714844 15-15 15s-15-6.714844-15-15 6.714844-15 15-15 15 6.714844 15 15zm0 0" fill="#fd6328"/><path d="m315 421h-120c-8.285156 0-15 6.714844-15 15s6.714844 15 15 15h120c8.285156 0 15-6.714844 15-15s-6.714844-15-15-15zm0 0" fill="#30d9f6"/><path d="m330 436c0 8.28125-6.71875 15-15 15h-60v-30h60c8.28125 0 15 6.71875 15 15zm0 0" fill="#19c0ef"/><path d="m195 391h90c8.285156 0 15-6.714844 15-15s-6.714844-15-15-15h-90c-8.285156 0-15 6.714844-15 15s6.714844 15 15 15zm0 0" fill="#30d9f6"/><path d="m300 376c0 8.28125-6.71875 15-15 15h-30v-30h30c8.28125 0 15 6.71875 15 15zm0 0" fill="#19c0ef"/></svg>