<svg height="512pt" viewBox="-91 0 512 512" width="512pt" xmlns="http://www.w3.org/2000/svg"><path d="m330 225v30c0 85.921875-66.019531 156.710938-150 164.308594v67.691406h-30v-67.691406c-83.980469-7.597656-150-78.386719-150-164.308594v-30c0-8.28125 6.71875-15 15-15h50v30h-35v15c0 74.441406 60.558594 135 135 135s135-60.558594 135-135v-15h-35v-30h50c8.28125 0 15 6.71875 15 15zm0 0" fill="#fcbe29"/><path d="m330 225v30c0 85.921875-66.019531 156.710938-150 164.308594v67.691406h-15v-97c74.441406 0 135-60.558594 135-135v-15h-35v-30h50c8.28125 0 15 6.71875 15 15zm0 0" fill="#fe9022"/><path d="m270 255c0 57.898438-47.101562 105-105 105s-105-47.101562-105-105c0-162.628906-.410156-154.851562 1.078125-165 7.226563-50.667969 51.007813-90 103.921875-90s96.695312 39.332031 103.921875 90c1.488281 10.136719 1.078125 2.207031 1.078125 165zm0 0" fill="#e0f4fe"/><path d="m270 255c0 57.898438-47.101562 105-105 105v-360c52.914062 0 96.695312 39.332031 103.921875 90 1.488281 10.136719 1.078125 2.207031 1.078125 165zm0 0" fill="#bcdcfe"/><path d="m270 195v60c0 57.898438-47.101562 105-105 105s-105-47.101562-105-105v-60zm0 0" fill="#3e5959"/><path d="m270 195v60c0 57.898438-47.101562 105-105 105v-165zm0 0" fill="#293939"/><path d="m285 482h-240c-8.285156 0-15 6.714844-15 15s6.714844 15 15 15h240c8.285156 0 15-6.714844 15-15s-6.714844-15-15-15zm0 0" fill="#3e5959"/><path d="m300 497c0 8.28125-6.71875 15-15 15h-120v-30h120c8.28125 0 15 6.71875 15 15zm0 0" fill="#293939"/><path d="m150 135c0 8.28125-6.71875 15-15 15h-75v-30h75c8.28125 0 15 6.71875 15 15zm0 0" fill="#bcdcfe"/><path d="m150 75c0 8.28125-6.71875 15-15 15h-73.921875c1.511719-10.589844 4.621094-20.679688 9.070313-30h64.851562c8.28125 0 15 6.71875 15 15zm0 0" fill="#bcdcfe"/><g fill="#9bbada"><path d="m268.921875 90h-73.921875c-8.28125 0-15-6.71875-15-15s6.71875-15 15-15h64.851562c4.449219 9.320312 7.558594 19.410156 9.070313 30zm0 0"/><path d="m270 119v30h-75c-8.28125 0-15-6.71875-15-15s6.71875-15 15-15zm0 0"/></g></svg>