<svg height="512pt" viewBox="0 -31 512 512" width="512pt" xmlns="http://www.w3.org/2000/svg"><path d="m15 0c-8.285156 0-15 6.714844-15 15v420c0 8.285156 6.714844 15 15 15h61l10-19v-413.144531l-10-17.855469zm0 0" fill="#293939"/><path d="m497 0h-421v450h421c8.285156 0 15-6.714844 15-15v-420c0-8.285156-6.714844-15-15-15zm0 0" fill="#e0f4fe"/><path d="m512 15v420c0 8.28125-6.71875 15-15 15h-211v-450h211c8.28125 0 15 6.71875 15 15zm0 0" fill="#bcdcfe"/><path d="m286 60.121094c-90.910156 0-164.878906 73.96875-164.878906 164.878906s73.96875 164.878906 164.878906 164.878906 164.878906-73.96875 164.878906-164.878906-73.96875-164.878906-164.878906-164.878906zm0 194.878906c-16.570312 0-30-13.429688-30-30s13.429688-30 30-30 30 13.429688 30 30-13.429688 30-30 30zm0 0" fill="#19c0ef"/><path d="m286 60.121094v134.878906c16.570312 0 30 13.429688 30 30s-13.429688 30-30 30v134.878906c90.910156 0 164.878906-73.96875 164.878906-164.878906s-73.96875-164.878906-164.878906-164.878906zm0 0" fill="#159be1"/><path d="m275.910156 196.75-45.359375-127.015625c-46.445312 16.5-83.296875 53.320313-99.816406 99.8125l127.019531 45.363281c2.972656-8.429687 9.726563-15.183594 18.15625-18.160156zm0 0" fill="#30d9f6"/><path d="m296.089844 253.25 45.359375 127.015625c46.445312-16.5 83.296875-53.320313 99.816406-99.8125l-127.015625-45.363281c-2.976562 8.429687-9.730469 15.183594-18.160156 18.160156zm0 0" fill="#30d9f6"/><path d="m317.820312 193.179688c-17.546874-17.542969-46.09375-17.542969-63.640624 0-28.292969 28.296874-8.078126 76.796874 31.820312 76.796874 39.871094.003907 60.140625-48.472656 31.820312-76.796874zm-21.214843 42.425781c-5.847657 5.847656-15.363281 5.847656-21.210938 0-5.847656-5.847657-5.847656-15.363281 0-21.210938 5.847657-5.847656 15.363281-5.851562 21.210938 0 5.847656 5.847657 5.847656 15.363281 0 21.210938zm0 0" fill="#3e5959"/><path d="m317.820312 193.179688c-8.78125-8.769532-20.300781-13.160157-31.820312-13.160157v29.992188c3.851562 0 7.691406 1.457031 10.609375 4.378906 5.851563 5.847656 5.851563 15.371094 0 21.21875-2.929687 2.929687-6.769531 4.390625-10.609375 4.390625v29.980469c39.871094 0 60.140625-48.480469 31.820312-76.800781zm0 0" fill="#293939"/></svg>