<svg height="512pt" viewBox="-1 0 512 512" width="512pt" xmlns="http://www.w3.org/2000/svg"><path d="m510 45v422c0 24.808594-20.191406 45-45 45h-75l-5-5v-159.890625c0-6.128906-4.488281-11.109375-10-11.109375h-240c-5.511719 0-10 4.980469-10 11.109375v159.28125s-3.359375 4.347656-5 3.878906c-7.261719-2.070312-13.910156-5.96875-19.390625-11.449219l-87.429687-87.429687c-8.5-8.5-13.179688-19.800781-13.179688-31.820313v-334.570312c0-24.808594 20.191406-45 45-45h420c24.808594 0 45 20.191406 45 45zm0 0" fill="#fcbe29"/><path d="m510 45v422c0 24.808594-20.191406 45-45 45h-75l-5-5v-159.890625c0-6.128906-4.488281-11.109375-10-11.109375h-120v-336h210c24.808594 0 45 20.191406 45 45zm0 0" fill="#fe9022"/><path d="m390 346v166h-257.570312c-4.257813 0-8.441407-.589844-12.429688-1.730469v-164.269531c0-8.28125 6.71875-15 15-15h240c8.28125 0 15 6.71875 15 15zm0 0" fill="#3e5959"/><path d="m390 346v166h-135v-181h120c8.28125 0 15 6.71875 15 15zm0 0" fill="#293939"/><path d="m255 61c-66.167969 0-120 53.832031-120 120s53.832031 120 120 120 120-53.832031 120-120-53.832031-120-120-120zm0 0" fill="#3e5959"/><path d="m375 181c0 66.171875-53.828125 120-120 120v-240c66.171875 0 120 53.828125 120 120zm0 0" fill="#293939"/><path d="m255 91c-49.625 0-90 40.375-90 90s40.375 90 90 90 90-40.375 90-90-40.375-90-90-90zm0 105c-8.285156 0-15-6.714844-15-15s6.714844-15 15-15 15 6.714844 15 15-6.714844 15-15 15zm0 0" fill="#e0f4fe"/><path d="m255 91v75c8.28125 0 15 6.71875 15 15s-6.71875 15-15 15v75c49.628906 0 90-40.371094 90-90s-40.371094-90-90-90zm0 0" fill="#bcdcfe"/><path d="m270 406v106h-90v-106c0-8.28125 6.71875-15 15-15h60c8.28125 0 15 6.71875 15 15zm0 0" fill="#fcbe29"/><path d="m270 406v106h-15v-121c8.28125 0 15 6.71875 15 15zm0 0" fill="#fe9022"/></svg>