<svg height="512pt" viewBox="0 -61 512.00121 512" width="512pt" xmlns="http://www.w3.org/2000/svg"><path d="m497 390.003906h-482c-8.285156 0-15-6.714844-15-15v-300c0-8.285156 6.714844-15 15-15h482c8.285156 0 15 6.714844 15 15v300c0 8.285156-6.714844 15-15 15zm0 0" fill="#fcbe29"/><path d="m497 60.003906h-241v330h241c8.28125 0 15-6.71875 15-15v-300c0-8.214844-6.664062-15-15-15zm0 0" fill="#fe9022"/><path d="m497 60.003906h-482c-6.238281 0-11.589844 3.8125-13.851562 9.230469l246.0625 179.363281c5.242187 3.820313 12.347656 3.839844 17.609374.042969l246.570313-177.867187c-1.820313-6.21875-7.582031-10.769532-14.390625-10.769532zm0 0" fill="#fed941"/><path d="m497 60.003906h-241v191.46875c7.058594.023438-10.867188 11.371094 255.390625-180.699218-1.816406-6.222657-7.585937-10.769532-14.390625-10.769532zm0 0" fill="#fcbe29"/><path d="m481.265625 30.945312c-67.296875-67.484374-183.507813-17.097656-179.15625 78.929688 3.558594 78.4375 89.839844 125.160156 157.402344 86.074219 7.171875-4.148438 9.621093-13.324219 5.472656-20.496094-4.144531-7.171875-13.324219-9.621094-20.492187-5.472656-48.539063 28.074219-109.882813-5.679688-112.414063-61.464844-1.964844-43.410156 32.871094-79.28125 76.347656-78.5 39.726563.734375 73.308594 33.664063 73.574219 74.769531.023438 7.113282-3.472656 13.285156-9.585938 16.933594-10.433593 6.226562-18.859374.746094-23.054687-1.53125 10.550781-29.347656-11.394531-60.183594-42.359375-60.183594-24.8125 0-45 20.1875-45 45 0 34.75 37.976562 56.445313 67.863281 38.738282l8.734375 4.742187c33.132813 17.984375 73.507813-6.007813 73.402344-43.816406-.117188-27.160157-10.574219-53.503907-30.734375-73.722657zm-74.265625 89.058594c-8.269531 0-15-6.726562-15-15 0-8.269531 6.730469-15 15-15s15 6.730469 15 15c0 8.273438-6.730469 15-15 15zm0 0" fill="#ee3616"/><path d="m407 .00390625v29.99999975c41.597656 0 75 34.691406 75 74.78125.042969 14.976563-15.921875 24.492188-29.089844 17.328125l-3.550781-1.929687c10.535156-29.367188-11.398437-60.179688-42.359375-60.179688v30c8.269531 0 15 6.730469 15 15 0 8.269532-6.730469 15-15 15v30c8.339844 0 16.160156-2.289062 22.859375-6.257812l8.742187 4.738281c33.105469 17.988281 73.503907-6.003906 73.398438-43.820313 0-56.679687-46.566406-104.66015575-105-104.66015575zm37.488281 169.98046875c-11.347656 6.570313-24.277343 10-37.488281 10.019531v30c18.480469-.007812 36.589844-4.839844 52.511719-14.058594 7.167969-4.152343 9.617187-13.320312 5.476562-20.492187-4.148437-7.167969-13.328125-9.617187-20.5-5.46875zm0 0" fill="#cb0010"/></svg>