<svg height="512pt" viewBox="0 0 512 512" width="512pt" xmlns="http://www.w3.org/2000/svg"><path d="m361 15v62c0 24.808594-20.191406 45-45 45h-30c-8.269531 0-15 6.730469-15 15v49h-30s0-37.75 0-49c0-24.808594 20.191406-45 45-45h30c8.269531 0 15-6.730469 15-15v-62c0-8.28125 6.71875-15 15-15s15 6.71875 15 15zm0 0" fill="#30d9f6"/><path d="m361 15v62c0 24.808594-20.191406 45-45 45h-30c-8.269531 0-15 6.730469-15 15v49h-15v-82.5c7.960938-7.148438 18.488281-11.5 30-11.5h30c8.269531 0 15-6.730469 15-15v-62c0-8.28125 6.71875-15 15-15s15 6.71875 15 15zm0 0" fill="#19c0ef"/><path d="m467 512h-422c-24.8125 0-45-20.1875-45-45v-240c0-24.8125 20.1875-45 45-45h422c24.8125 0 45 20.1875 45 45v240c0 24.8125-20.1875 45-45 45zm0 0" fill="#3e5959"/><path d="m512 227v240c0 24.808594-20.191406 45-45 45h-211v-330h211c24.808594 0 45 20.191406 45 45zm0 0" fill="#293939"/><path d="m436 392h-60c-8.285156 0-15-6.714844-15-15s6.714844-15 15-15h45v-45c0-8.285156 6.714844-15 15-15s15 6.714844 15 15v60c0 8.285156-6.714844 15-15 15zm0 0" fill="#ee3616"/><path d="m376 332h-30c-8.285156 0-15-6.714844-15-15s6.714844-15 15-15h30c8.285156 0 15 6.714844 15 15s-6.714844 15-15 15zm0 0" fill="#bcdcfe"/><path d="m286 332h-30c-8.285156 0-15-6.714844-15-15s6.714844-15 15-15h30c8.285156 0 15 6.714844 15 15s-6.714844 15-15 15zm0 0" fill="#e0f4fe"/><path d="m301 317c0 8.28125-6.71875 15-15 15h-30v-30h30c8.28125 0 15 6.71875 15 15zm0 0" fill="#bcdcfe"/><path d="m196 332h-30c-8.285156 0-15-6.714844-15-15s6.714844-15 15-15h30c8.285156 0 15 6.714844 15 15s-6.714844 15-15 15zm0 0" fill="#e0f4fe"/><path d="m106 332h-30c-8.285156 0-15-6.714844-15-15s6.714844-15 15-15h30c8.285156 0 15 6.714844 15 15s-6.714844 15-15 15zm0 0" fill="#e0f4fe"/><path d="m436 272h-60c-8.285156 0-15-6.714844-15-15s6.714844-15 15-15h60c8.285156 0 15 6.714844 15 15s-6.714844 15-15 15zm0 0" fill="#bcdcfe"/><path d="m316 272h-30c-8.285156 0-15-6.714844-15-15s6.714844-15 15-15h30c8.285156 0 15 6.714844 15 15s-6.714844 15-15 15zm0 0" fill="#bcdcfe"/><path d="m226 272h-30c-8.285156 0-15-6.714844-15-15s6.714844-15 15-15h30c8.285156 0 15 6.714844 15 15s-6.714844 15-15 15zm0 0" fill="#e0f4fe"/><path d="m138 272h-62c-8.285156 0-15-6.714844-15-15s6.714844-15 15-15h62c8.285156 0 15 6.714844 15 15s-6.714844 15-15 15zm0 0" fill="#e0f4fe"/><path d="m436 452h-60c-8.285156 0-15-6.714844-15-15s6.714844-15 15-15h60c8.285156 0 15 6.714844 15 15s-6.714844 15-15 15zm0 0" fill="#bcdcfe"/><path d="m136 392h-60c-8.285156 0-15-6.714844-15-15s6.714844-15 15-15h60c8.285156 0 15 6.714844 15 15s-6.714844 15-15 15zm0 0" fill="#e0f4fe"/><path d="m226 392h-30c-8.285156 0-15-6.714844-15-15s6.714844-15 15-15h30c8.285156 0 15 6.714844 15 15s-6.714844 15-15 15zm0 0" fill="#e0f4fe"/><path d="m316 392h-30c-8.285156 0-15-6.714844-15-15s6.714844-15 15-15h30c8.285156 0 15 6.714844 15 15s-6.714844 15-15 15zm0 0" fill="#bcdcfe"/><path d="m316 452h-150c-8.285156 0-15-6.714844-15-15s6.714844-15 15-15h150c8.285156 0 15 6.714844 15 15s-6.714844 15-15 15zm0 0" fill="#e0f4fe"/><path d="m331 437c0 8.28125-6.71875 15-15 15h-60v-30h60c8.28125 0 15 6.71875 15 15zm0 0" fill="#bcdcfe"/><path d="m106 452h-30c-8.285156 0-15-6.714844-15-15s6.714844-15 15-15h30c8.285156 0 15 6.714844 15 15s-6.714844 15-15 15zm0 0" fill="#e0f4fe"/></svg>