<svg height="512pt" viewBox="0 0 512.00027 512" width="512pt" xmlns="http://www.w3.org/2000/svg"><path d="m505.902344 213.878906-60.226563-45.1875c-5.75-4.320312 20.359375-2.839844-370.273437-5.011718-3.359375-.03125-6.667969 1.109374-9.328125 3.191406l-60.222657 47.199218c-3.179687 2.488282-5.191406 6.121094-5.640624 10.050782 268.464843 134.179687 254.714843 128.382812 258.019531 126.730468l253.566406-126.730468c-.476563-4.039063-2.578125-7.761719-5.894531-10.242188zm0 0" fill="#fcbe29"/><path d="m505.902344 213.878906-54.230469-40.6875-5.996094-4.5c-4.660156-3.5 11.59375-3.191406-189.675781-4.101562v186.621094c1.589844.449218 1.578125-.039063 2.230469-.359376l193.441406-96.679687c.289063-.148437 59.832031-29.914063 60.125-30.050781-.492187-4.089844-2.597656-7.765625-5.894531-10.242188zm0 0" fill="#fe9022"/><path d="m436.679688 407h-361.359376c-8.28125 0-14.992187-6.714844-14.992187-15v-377c0-8.285156 6.710937-15 14.992187-15h361.359376c8.277343 0 14.992187 6.714844 14.992187 15v377c0 8.285156-6.714844 15-14.992187 15zm0 0" fill="#e0f4fe"/><path d="m436.679688 0h-180.679688v407h180.679688c8.273437 0 14.992187-6.71875 14.992187-15v-377c0-8.28125-6.71875-15-14.992187-15zm0 0" fill="#bcdcfe"/><path d="m346.339844 90.25h-210.792969c-8.28125 0-14.992187-6.714844-14.992187-15s6.710937-15 14.992187-15h210.792969c8.28125 0 14.992187 6.714844 14.992187 15s-6.710937 15-14.992187 15zm0 0" fill="#19c0ef"/><path d="m361.335938 75.25c0 8.28125-6.714844 15-14.992188 15h-90.34375v-30h90.34375c8.277344 0 14.992188 6.71875 14.992188 15zm0 0" fill="#159be1"/><path d="m376.453125 150.5h-240.90625c-8.28125 0-14.992187-6.714844-14.992187-15s6.710937-15 14.992187-15h240.90625c8.28125 0 14.992187 6.714844 14.992187 15s-6.710937 15-14.992187 15zm0 0" fill="#19c0ef"/><path d="m391.445312 135.5c0 8.28125-6.714843 15-14.992187 15h-120.453125v-30h120.453125c8.277344 0 14.992187 6.71875 14.992187 15zm0 0" fill="#159be1"/><path d="m256 346.378906c-.011719-.003906-254.339844-127.121094-254.351562-127.128906-2.242188 4.554688-1.546876-13.074219-1.546876 247.625 0 24.882812 20.234376 45.125 45.105469 45.125h421.585938c24.871093 0 45.105469-20.242188 45.105469-45.125 0-260.695312.691406-243.070312-1.542969-247.617188-.007813.003907-254.078125 126.984376-254.355469 127.121094zm0 0" fill="#fed941"/><path d="m511.898438 466.878906c0 24.882813-20.234376 45.121094-45.101563 45.121094h-210.796875v-165.621094c.191406-.097656 120.613281-60.277344 195.671875-97.789062 33.996094-16.988282 58.6875-29.328125 58.6875-29.328125 2.226563 4.457031 1.539063-12.757813 1.539063 247.617187zm0 0" fill="#fcbe29"/><g fill="#fe9022"><path d="m406.566406 391.5h-60.226562c-8.28125 0-14.996094-6.714844-14.996094-15s6.714844-15 14.996094-15h60.226562c8.28125 0 14.992188 6.714844 14.992188 15s-6.710938 15-14.992188 15zm0 0"/><path d="m436.679688 451.75h-90.339844c-8.28125 0-14.996094-6.714844-14.996094-15s6.714844-15 14.996094-15h90.339844c8.277343 0 14.992187 6.714844 14.992187 15s-6.714844 15-14.992187 15zm0 0"/></g></svg>