<svg height="511pt" viewBox="1 0 511 511.99975" width="511pt" xmlns="http://www.w3.org/2000/svg"><path d="m177.179688 356.507812c-.464844.496094-30.949219 30.96875-31.429688 31.449219-5.546875-7.925781-12.648438-15.222656-21.199219-21.21875.488281-.488281 30.9375-30.949219 31.4375-31.417969zm0 0" fill="#e0f4fe"/><path d="m177.179688 356.507812c-.089844.101563-1.441407 1.449219-3.53125 3.539063-6.027344 6.050781-18.25 18.261719-24.316407 24.332031-2.113281 2.109375-3.480469 3.480469-3.582031 3.578125-2.828125-4.039062-6.050781-7.910156-9.667969-11.539062l26.96875-26.96875 3.539063-3.53125zm0 0" fill="#bcdcfe"/><path d="m79.230469 454.378906c-.65625.820313.460937-.363281-23 23.101563-5.859375 5.859375-15.351563 5.859375-21.210938 0-5.859375-5.863281-5.859375-15.351563 0-21.210938 23.40625-23.410156 22.28125-22.347656 23.101563-23zm0 0" fill="#e0f4fe"/><path d="m79.230469 454.378906c-.339844.429688-.191407.308594-3.46875 3.589844-2.890625 2.890625-8.5 8.480469-19.53125 19.511719-5.859375 5.859375-15.351563 5.859375-21.210938 0l30.128907-30.121094 3.53125-3.53125zm0 0" fill="#bcdcfe"/><path d="m118.398438 500.609375-106.507813-106.507813c-5.859375-5.859374-5.859375-15.355468 0-21.210937 35.292969-35.296875 92.421875-35.300781 127.71875 0 35.214844 35.210937 35.214844 92.507813 0 127.71875-5.855469 5.855469-15.355469 5.859375-21.210937 0zm0 0" fill="#3e5959"/><path d="m149.332031 384.378906c-2.863281-4.03125-6.113281-7.878906-9.722656-11.488281l-3.527344 3.527344-67.402343 67.410156-3.53125 3.53125 53.25 53.25c5.863281 5.859375 15.351562 5.859375 21.210937 0 31.601563-31.601563 34.839844-80.992187 9.722656-116.230469zm0 0" fill="#293939"/><path d="m320.734375 341.460938 21.21875-21.222657 38.582031 38.578125-21.222656 21.222656zm0 0" fill="#bcdcfe"/><path d="m132.457031 153.179688 21.222657-21.21875 38.578124 38.578124-21.21875 21.21875zm0 0" fill="#e0f4fe"/><path d="m268.121094 87.621094c-20.652344 20.648437-63.511719 63.5-172.851563 172.839844-5.859375 5.847656-5.859375 15.347656 0 21.207031l135.558594 135.5625c5.863281 5.859375 15.363281 5.847656 21.210937 0 110.160157-110.160157 152.269532-152.273438 172.851563-172.839844l-.390625-6.390625-149.9375-149.9375zm0 0" fill="#fed941"/><path d="m349.5 163c-109.949219 109.9375-108.371094 108.367188-182.910156 182.917969l-3.539063 3.53125 10.597657 10.597656 57.179687 57.183594c5.863281 5.859375 15.363281 5.847656 21.210937 0l172.851563-172.839844-.390625-6.390625zm0 0" fill="#fcbe29"/><path d="m459.808594 121.777344-69.089844-69.089844c-2.820312-2.808594-6.628906-4.386719-10.609375-4.386719h-66.46875c-3.980469 0-7.789063 1.578125-10.609375 4.386719-28.664062 28.675781-21.464844 21.476562-34.910156 34.933594l156.769531 156.769531c13.433594-13.449219 6.207031-6.222656 34.917969-34.921875 2.8125-2.820312 4.390625-6.628906 4.390625-10.609375v-66.46875c0-3.980469-1.578125-7.792969-4.390625-10.613281zm0 0" fill="#fcbe29"/><path d="m459.808594 121.777344-34.539063-34.539063c-31.558593 31.5625-57.339843 57.332031-78.769531 78.761719l78.390625 78.390625 34.917969-34.921875c2.8125-2.820312 4.390625-6.628906 4.390625-10.609375v-66.46875c0-3.980469-1.578125-7.792969-4.390625-10.613281zm0 0" fill="#fe9022"/><path d="m80.207031 191.292969-75.3125-75.3125c-5.859375-5.855469-5.859375-15.355469 0-21.210938l90.375-90.375c5.855469-5.859375 15.355469-5.859375 21.210938 0l75.3125 75.3125c5.859375 5.855469 5.859375 15.355469 0 21.210938l-90.375 90.375c-5.855469 5.859375-15.355469 5.859375-21.210938 0zm0 0" fill="#19c0ef"/><path d="m191.789062 79.710938-37.660156-37.660157-111.578125 111.578125 37.660157 37.660156c5.847656 5.859376 15.347656 5.859376 21.210937 0l90.367187-90.371093c5.859376-5.859375 5.859376-15.359375 0-21.207031zm0 0" fill="#159be1"/><path d="m396.519531 507.605469-75.316406-75.3125c-5.855469-5.859375-5.855469-15.355469 0-21.214844l90.375-90.375c5.859375-5.855469 15.355469-5.855469 21.214844 0l75.3125 75.316406c5.859375 5.855469 5.859375 15.351563 0 21.210938l-90.375 90.375c-5.855469 5.855469-15.355469 5.859375-21.210938 0zm0 0" fill="#19c0ef"/><path d="m508.109375 396.019531-37.660156-37.652343-111.578125 111.582031 37.648437 37.660156c5.859375 5.859375 15.351563 5.847656 21.210938 0l90.378906-90.378906c5.851563-5.863281 5.851563-15.351563 0-21.210938zm0 0" fill="#159be1"/><path d="m271.5625 286.0625c-24.882812 0-45.125-20.242188-45.125-45.125s20.242188-45.125 45.125-45.125 45.125 20.242188 45.125 45.125-20.242188 45.125-45.125 45.125zm0 0" fill="#e0f4fe"/><path d="m316.691406 240.9375c0 24.882812-20.25 45.121094-45.132812 45.121094-12.4375 0-23.71875-5.058594-31.890625-13.230469l63.792969-63.789063c8.167968 8.179688 13.230468 19.460938 13.230468 31.898438zm0 0" fill="#bcdcfe"/></svg>