<svg height="512pt" viewBox="-1 0 512 512" width="512pt" xmlns="http://www.w3.org/2000/svg"><path d="m495 152h-45.667969l-59.332031-32v-73.136719c0-8.28125-6.714844-15-15-15h-47v480.136719h92c49.707031 0 90-40.292969 90-90v-255c0-8.285156-6.714844-15-15-15zm0 0" fill="#9bbada"/><path d="m419.667969 451.894531c-16.386719 0-29.667969-13.28125-29.667969-29.667969v-302.226562h44.332031c8.285157 0 15 6.714844 15 15v287.226562c0 16.382813-13.28125 29.667969-29.664062 29.667969zm0 0" fill="#bcdcfe"/><path d="m330 422c0-8.550781 0-399.757812 0-407 0-8.28125-6.71875-15-15-15h-300c-8.28125 0-15 6.71875-15 15v392c0 57.898438 47.101562 105 105 105h315c-49.707031 0-90-40.292969-90-90zm0 0" fill="#e0f4fe"/><path d="m420 512h-255v-512h150c8.28125 0 15 6.71875 15 15v407c0 49.710938 40.289062 90 90 90zm0 0" fill="#bcdcfe"/><path d="m255 122h-180c-8.285156 0-15 6.714844-15 15v90c0 8.285156 6.714844 15 15 15h180c8.285156 0 15-6.714844 15-15v-90c0-8.285156-6.714844-15-15-15zm0 0" fill="#bcdcfe"/><path d="m270 137v90c0 8.28125-6.71875 15-15 15h-90v-120h90c8.28125 0 15 6.71875 15 15zm0 0" fill="#9bbada"/><path d="m90 152h150v60h-150zm0 0" fill="#e0f4fe"/><path d="m165 152h75v60h-75zm0 0" fill="#bcdcfe"/><path d="m75 92h180c8.285156 0 15-6.714844 15-15s-6.714844-15-15-15h-180c-8.285156 0-15 6.714844-15 15s6.714844 15 15 15zm0 0" fill="#bcdcfe"/><path d="m270 77c0 8.28125-6.71875 15-15 15h-90v-30h90c8.28125 0 15 6.71875 15 15zm0 0" fill="#9bbada"/><path d="m77 272c-8.285156 0-15 6.714844-15 15s6.714844 15 15 15h58c8.285156 0 15-6.714844 15-15s-6.714844-15-15-15zm0 0" fill="#bcdcfe"/><path d="m255 272h-60c-8.285156 0-15 6.714844-15 15s6.714844 15 15 15h60c8.285156 0 15-6.714844 15-15s-6.714844-15-15-15zm0 0" fill="#9bbada"/><path d="m255 332h-180c-8.285156 0-15 6.714844-15 15s6.714844 15 15 15h180c8.285156 0 15-6.714844 15-15s-6.714844-15-15-15zm0 0" fill="#bcdcfe"/><path d="m270 347c0 8.28125-6.71875 15-15 15h-90v-30h90c8.28125 0 15 6.71875 15 15zm0 0" fill="#9bbada"/><path d="m255 392h-180c-8.285156 0-15 6.714844-15 15s6.714844 15 15 15h180c8.285156 0 15-6.714844 15-15s-6.714844-15-15-15zm0 0" fill="#bcdcfe"/><path d="m270 407c0 8.28125-6.71875 15-15 15h-90v-30h90c8.28125 0 15 6.71875 15 15zm0 0" fill="#9bbada"/></svg>