<svg height="511pt" viewBox="-29 0 511 511.99974" width="511pt" xmlns="http://www.w3.org/2000/svg"><path d="m226.78125 0c-125.019531 0-226.28125 101.121094-226.28125 226.195312 0 125.019532 101.207031 226.195313 226.28125 226.195313 125.589844 0 226.28125-101.691406 226.28125-226.195313 0-125.019531-101.207031-226.195312-226.28125-226.195312zm0 0" fill="#19c0ef"/><path d="m453.058594 226.199219c0 124.5-100.6875 226.1875-226.277344 226.1875v-452.386719c125.070312 0 226.277344 101.179688 226.277344 226.199219zm0 0" fill="#159be1"/><path d="m392.839844 330.871094h-71.984375c6.550781-27.921875 10.402343-58.929688 11.277343-90.683594h90.425782c-2.335938 33.125-12.90625 64.054688-29.71875 90.683594zm0 0" fill="#19c0ef"/><path d="m226.78125 422.390625c-19.003906 0-39.160156-22.789063-53.871094-61.519531h107.558594c-14.761719 38.683594-34.902344 61.519531-53.6875 61.519531zm0 0" fill="#30d9f6"/><path d="m280.472656 360.867188c-14.761718 38.679687-34.902344 61.519531-53.691406 61.519531v-61.519531zm0 0" fill="#19c0ef"/><path d="m163.492188 330.871094c-6.679688-26.027344-11.097657-56.675782-12.058594-90.683594h150.691406c-.972656 33.964844-5.445312 64.625-12.183594 90.683594zm0 0" fill="#30d9f6"/><path d="m302.121094 240.1875c-.96875 33.960938-5.441406 64.632812-12.179688 90.679688h-63.160156v-90.679688zm0 0" fill="#19c0ef"/><path d="m31.003906 240.1875h90.425782c.871093 32.0625 4.722656 62.867188 11.253906 90.683594h-71.839844c-16.855469-26.601563-27.488281-57.515625-29.839844-90.683594zm0 0" fill="#30d9f6"/><path d="m62.136719 119.507812h71.023437c-6.679687 27.761719-10.679687 58.570313-11.679687 90.683594h-90.324219c2.699219-33.242187 13.722656-64.167968 30.980469-90.683594zm0 0" fill="#30d9f6"/><path d="m226.78125 30c18.671875 0 38.453125 22.007812 53.089844 59.507812h-106.179688c14.636719-37.5 34.417969-59.507812 53.089844-59.507812zm0 0" fill="#30d9f6"/><path d="m279.871094 89.507812h-53.089844v-59.507812c18.667969 0 38.449219 22.011719 53.089844 59.507812zm0 0" fill="#19c0ef"/><path d="m289.542969 119.507812c6.835937 25.949219 11.425781 56.597657 12.53125 90.683594h-150.585938c1.105469-34.085937 5.695313-64.730468 12.53125-90.683594zm0 0" fill="#30d9f6"/><g fill="#19c0ef"><path d="m302.070312 210.1875h-75.289062v-90.679688h62.757812c6.839844 25.953126 11.429688 56.601563 12.53125 90.679688zm0 0"/><path d="m422.40625 210.1875h-90.328125c-.996094-32.109375-4.996094-62.917969-11.679687-90.683594h71.027343c17.257813 26.519532 28.28125 57.445313 30.980469 90.683594zm0 0"/><path d="m367.4375 89.507812h-55.722656c-5.921875-17.242187-13.636719-34.617187-23.804688-49.753906 30.464844 10.003906 57.660156 27.273438 79.527344 49.753906zm0 0"/></g><path d="m165.652344 39.753906c-10.167969 15.132813-17.882813 32.5-23.804688 49.753906h-55.726562c21.871094-22.480468 49.066406-39.75 79.53125-49.753906zm0 0" fill="#30d9f6"/><path d="m84.183594 360.871094h56.972656c6.011719 17.925781 13.992188 36.132812 24.496094 51.765625-31.371094-10.300781-59.277344-28.300781-81.46875-51.765625zm0 0" fill="#30d9f6"/><path d="m287.785156 412.753906c9.449219-13.992187 17.765625-31.429687 24.617188-51.882812h57.167968c-22.203124 23.539062-50.195312 41.59375-81.785156 51.882812zm0 0" fill="#19c0ef"/><path d="m401.71875 383.140625-146.351562-93.003906c-10.578126-6.71875-24.253907 1.765625-22.964844 14.203125l17.800781 172.03125c1.136719 10.976562 13.371094 17.015625 22.777344 11.234375l25.789062-15.855469 20.371094 33.109375c4.339844 7.054687 13.578125 9.253906 20.632813 4.914063l51.414062-31.617188c7.054688-4.335938 9.261719-13.582031 4.917969-20.636719l-20.359375-33.089843 25.785156-15.851563c9.414062-5.785156 9.546875-19.488281.1875-25.4375zm0 0" fill="#fcbe29"/><path d="m401.53125 408.578125-25.78125 15.851563 20.359375 33.089843c4.339844 7.058594 2.132813 16.296875-4.917969 20.636719l-24.179687 14.871094-128.640625-202.25c4.667968-3.46875 11.289062-4.269532 17-.636719l146.347656 92.996094c9.363281 5.953125 9.222656 19.652343-.1875 25.441406zm0 0" fill="#fe9022"/></svg>