<svg height="512pt" viewBox="0 0 512 512" width="512pt" xmlns="http://www.w3.org/2000/svg"><path d="m181 475v22c0 8.28125-6.71875 15-15 15s-15-6.71875-15-15v-22zm0 0" fill="#3e5959"/><path d="m376 475v22c0 8.28125-6.71875 15-15 15s-15-6.71875-15-15v-22zm0 0" fill="#293939"/><path d="m376 480h-240c-24.8125 0-45-20.1875-45-45v-390c0-24.8125 20.1875-45 45-45h240c24.8125 0 45 20.1875 45 45v390c0 24.8125-20.1875 45-45 45zm0 0" fill="#547983"/><path d="m376 0h-120v480h120c24.808594 0 45-20.191406 45-45v-390c0-24.808594-20.191406-45-45-45zm0 0" fill="#3e5959"/><g fill="#fcbe29"><path d="m43 346h-28c-8.285156 0-15-6.714844-15-15s6.714844-15 15-15h28c8.285156 0 15 6.714844 15 15s-6.714844 15-15 15zm0 0"/><path d="m40.097656 268.808594-16.09375-5.859375c-7.785156-2.832031-11.800781-11.4375-8.96875-19.222657 2.835938-7.785156 11.445313-11.800781 19.226563-8.96875l16.09375 5.859376c7.785156 2.832031 11.800781 11.441406 8.964843 19.226562-2.832031 7.785156-11.4375 11.796875-19.222656 8.964844zm0 0"/><path d="m15.035156 418.273438c-2.832031-7.785157 1.183594-16.390626 8.96875-19.222657l15.796875-5.75c7.785157-2.835937 16.390625 1.179688 19.226563 8.964844 2.832031 7.785156-1.179688 16.390625-8.964844 19.222656l-15.800781 5.75c-7.777344 2.835938-16.390625-1.171875-19.226563-8.964843zm0 0"/></g><path d="m497 346h-28c-8.285156 0-15-6.714844-15-15s6.714844-15 15-15h28c8.285156 0 15 6.714844 15 15s-6.714844 15-15 15zm0 0" fill="#fe9022"/><path d="m477.738281 427.242188-16.09375-5.859376c-7.785156-2.832031-11.800781-11.441406-8.964843-19.226562 2.832031-7.785156 11.441406-11.796875 19.222656-8.964844l16.09375 5.859375c7.785156 2.832031 11.800781 11.4375 8.96875 19.222657-2.835938 7.785156-11.441406 11.800781-19.226563 8.96875zm0 0" fill="#fe9022"/><path d="m452.972656 259.734375c-2.832031-7.785156 1.179688-16.390625 8.964844-19.222656l15.800781-5.75c7.78125-2.835938 16.390625 1.179687 19.226563 8.964843 2.832031 7.785157-1.179688 16.390626-8.964844 19.222657l-15.800781 5.75c-7.777344 2.832031-16.390625-1.175781-19.226563-8.964844zm0 0" fill="#fe9022"/><path d="m256 210c-41.355469 0-75-33.644531-75-75s33.644531-75 75-75 75 33.644531 75 75-33.644531 75-75 75zm0 0" fill="#3e5959"/><path d="m331 135c0 41.351562-33.648438 75-75 75v-150c41.351562 0 75 33.648438 75 75zm0 0" fill="#293939"/><path d="m256 90c-24.8125 0-45 20.1875-45 45s20.1875 45 45 45 45-20.1875 45-45-20.1875-45-45-45zm0 0" fill="#fed941"/><path d="m301 135c0 24.808594-20.191406 45-45 45v-90c24.808594 0 45 20.191406 45 45zm0 0" fill="#fcbe29"/><path d="m256 420c-49.625 0-90-40.375-90-90s40.375-90 90-90 90 40.375 90 90-40.375 90-90 90zm0 0" fill="#3e5959"/><path d="m346 330c0 49.628906-40.371094 90-90 90v-180c49.628906 0 90 40.371094 90 90zm0 0" fill="#293939"/><path d="m256 270c-33.085938 0-60 26.914062-60 60s26.914062 60 60 60 60-26.914062 60-60-26.914062-60-60-60zm0 0" fill="#fed941"/><path d="m316 330c0 33.078125-26.921875 60-60 60v-120c33.078125 0 60 26.921875 60 60zm0 0" fill="#fcbe29"/><path d="m271 135c0 8.285156-6.714844 15-15 15s-15-6.714844-15-15 6.714844-15 15-15 15 6.714844 15 15zm0 0" fill="#fcbe29"/><path d="m271 135c0 8.28125-6.71875 15-15 15v-30c8.28125 0 15 6.71875 15 15zm0 0" fill="#fe9022"/><path d="m271 330c0 8.285156-6.714844 15-15 15s-15-6.714844-15-15 6.714844-15 15-15 15 6.714844 15 15zm0 0" fill="#fcbe29"/><path d="m271 330c0 8.28125-6.71875 15-15 15v-30c8.28125 0 15 6.71875 15 15zm0 0" fill="#fe9022"/></svg>