<svg height="512pt" viewBox="0 -7 512 512" width="512pt" xmlns="http://www.w3.org/2000/svg"><path d="m406.625 360h-301.25c-58.105469 0-105.375-47.101562-105.375-105 0-42.972656 25.714844-79.46875 62.410156-95.882812-15.121094-83.421876 49.578125-159.117188 133.339844-159.117188 46.839844 0 89.570312 23.652344 114.335938 62.5 57.113281-13.738281 112.183593 29.886719 111.53125 88.558594 51.035156 7.277344 90.382812 51.117187 90.382812 103.941406 0 57.898438-47.269531 105-105.375 105zm0 0" fill="#30d9f6"/><path d="m421.621094 151.058594c.648437-58.667969-54.421875-102.296875-111.53125-88.558594-13.46875-21.121094-32.238282-37.75-54.089844-48.519531v346.019531h150.621094c58.109375 0 105.378906-47.101562 105.378906-105 0-52.828125-39.351562-96.671875-90.378906-103.941406zm0 0" fill="#19c0ef"/><path d="m202.96875 416.03125c-5.859375-5.855469-5.859375-15.351562 0-21.210938 5.855469-5.859374 15.351562-5.859374 21.210938 0 17.546874 17.542969 46.09375 17.542969 63.640624 0 5.859376-5.859374 15.355469-5.859374 21.214844 0 5.855469 5.859376 5.855469 15.355469 0 21.210938-29.242187 29.242188-76.824218 29.246094-106.066406 0zm0 0" fill="#fed941"/><path d="m309.03125 416.03125c-14.621094 14.617188-33.832031 21.929688-53.03125 21.929688v-29.980469c11.519531 0 23.039062-4.390625 31.820312-13.160157 5.859376-5.859374 15.359376-5.859374 21.210938 0 5.859375 5.859376 5.859375 15.351563 0 21.210938zm0 0" fill="#fcbe29"/><path d="m160.539062 458.460938c-5.855468-5.859376-5.855468-15.355469 0-21.214844 5.859376-5.855469 15.359376-5.855469 21.214844 0 41.035156 41.035156 107.453125 41.039062 148.492188 0 5.855468-5.855469 15.355468-5.855469 21.214844 0 5.855468 5.859375 5.855468 15.355468 0 21.214844-52.761719 52.757812-138.15625 52.761718-190.921876 0zm0 0" fill="#fed941"/><path d="m351.460938 458.460938c-26.382813 26.378906-60.921876 39.570312-95.460938 39.570312v-30c26.871094 0 53.730469-10.261719 74.25-30.78125 5.851562-5.859375 15.351562-5.859375 21.210938 0 5.859374 5.851562 5.859374 15.351562 0 21.210938zm0 0" fill="#fcbe29"/></svg>