<svg height="512pt" viewBox="0 -31 512 512" width="512pt" xmlns="http://www.w3.org/2000/svg"><path d="m512 435c0 8.28125-6.71875 15-15 15h-272v-5c36.140625 0 70.960938-8.660156 102.070312-25h169.929688c8.28125 0 15 6.71875 15 15zm0 0" fill="#fe9022"/><path d="m225 450c-124.355469 0-225-100.632812-225-225 0-124.355469 100.632812-225 225-225 124.355469 0 225 100.632812 225 225 0 124.355469-100.632812 225-225 225zm0 0" fill="#3e5959"/><path d="m225 0v450c124.371094 0 225-100.640625 225-225 0-124.371094-100.640625-225-225-225zm0 0" fill="#293939"/><path d="m225 150c-24.8125 0-45-20.1875-45-45s20.1875-45 45-45 45 20.1875 45 45-20.1875 45-45 45zm0 0" fill="#fcbe29"/><path d="m225 60v90c24.808594 0 45-20.191406 45-45s-20.191406-45-45-45zm0 0" fill="#fe9022"/><path d="m96.96875 230.714844c-23.65625-7.6875-36.578125-33.046875-28.894531-56.703125 7.6875-23.65625 33.046875-36.578125 56.703125-28.890625 23.601562 7.664062 36.5625 33.101562 28.894531 56.703125-7.652344 23.550781-32.945313 36.613281-56.703125 28.890625zm0 0" fill="#fcbe29"/><path d="m128.015625 358.488281c-20.121094-14.621093-24.574219-42.734375-9.953125-62.855469 14.617188-20.121093 42.734375-24.578124 62.851562-9.957031 20.074219 14.585938 24.542969 42.78125 9.957032 62.855469-14.582032 20.066406-42.773438 24.546875-62.855469 9.957031zm0 0" fill="#fcbe29"/><path d="m259.128906 348.53125c-14.585937-20.074219-10.117187-48.269531 9.957032-62.855469 20.121093-14.621093 48.234374-10.167969 62.855468 9.957031 14.617188 20.121094 10.167969 48.234376-9.957031 62.855469-20.074219 14.582031-48.269531 10.121094-62.855469-9.957031zm0 0" fill="#fe9022"/><path d="m296.328125 201.824219c-7.667969-23.597657 5.292969-49.035157 28.894531-56.703125 23.648438-7.683594 49.015625 5.234375 56.703125 28.890625 7.683594 23.652343-5.234375 49.019531-28.894531 56.703125-23.695312 7.699218-49.03125-5.285156-56.703125-28.890625zm0 0" fill="#fe9022"/><path d="m225 255c-16.542969 0-30-13.457031-30-30s13.457031-30 30-30 30 13.457031 30 30-13.457031 30-30 30zm0 0" fill="#547983"/><path d="m255 225c0 16.539062-13.460938 30-30 30v-60c16.539062 0 30 13.460938 30 30zm0 0" fill="#3e5959"/></svg>