<svg height="512pt" viewBox="0 -61 512 512" width="512pt" xmlns="http://www.w3.org/2000/svg"><path d="m497 0h-482c-8.285156 0-15 6.714844-15 15v360c0 8.285156 6.714844 15 15 15h482c8.285156 0 15-6.714844 15-15v-360c0-8.285156-6.714844-15-15-15zm0 0" fill="#e0f4fe"/><path d="m497 0h-242v390h242c8.28125 0 15-6.71875 15-15v-360c0-8.28125-6.71875-15-15-15zm0 0" fill="#bcdcfe"/><path d="m30 30h452v330h-452zm0 0" fill="#30d9f6"/><path d="m255 30h227v330h-227zm0 0" fill="#19c0ef"/><path d="m431.898438 184.738281c-6.167969-6.578125-16.359376-6.117187-22.058594.191407-.078125.089843-20.089844 22.171874-45.878906 50.628906l116.679687 124.441406h1.359375v-121.808594zm0 0" fill="#0eab61"/><path d="m86.890625 184.730469c-5.902344-6.269531-15.929687-6.332031-21.878906.007812l-35.011719 37.339844v137.921875h1.351562l109.957032-117.320312zm0 0" fill="#5dc983"/><path d="m346 150c-24.8125 0-45-20.1875-45-45s20.1875-45 45-45 45 20.1875 45 45-20.1875 45-45 45zm0 0" fill="#fed941"/><path d="m346 60v90c24.808594 0 45-20.191406 45-45s-20.191406-45-45-45zm0 0" fill="#fcbe29"/><path d="m266.898438 124.738281c-5.96875-6.339843-16-6.289062-21.886719 0l-215.011719 229.390625v5.871094h452v-5.859375zm0 0" fill="#81e885"/><path d="m266.898438 124.738281c-3.21875-3.417969-7.609376-4.976562-11.898438-4.707031v239.96875h227v-5.859375zm0 0" fill="#5dc983"/></svg>