<svg height="512pt" viewBox="-61 0 512 512" width="512pt" xmlns="http://www.w3.org/2000/svg"><path d="m325 161v100h61.667969l3.332031-5v-90l-2.667969-5zm0 0" fill="#19c0ef"/><path d="m325 361h50c8.28125 0 15-6.71875 15-15v-90h-65zm0 0" fill="#159be1"/><path d="m390 76c0-8.28125-6.71875-15-15-15h-50v105h65zm0 0" fill="#ee3616"/><path d="m315 0h-300c-8.285156 0-15 6.714844-15 15v482c0 8.285156 6.714844 15 15 15h300c8.285156 0 15-6.714844 15-15v-482c0-8.285156-6.714844-15-15-15zm0 0" fill="#3e5959"/><path d="m315 0h-150v512h150c8.28125 0 15-6.71875 15-15v-482c0-8.28125-6.71875-15-15-15zm0 0" fill="#293939"/><path d="m90 136h150v240h-150zm0 0" fill="#547983"/><path d="m165 136h75v240h-75zm0 0" fill="#3e5959"/><path d="m120 136h90v240h-90zm0 0" fill="#fed941"/><path d="m165 136h45v240h-45zm0 0" fill="#fcbe29"/><path d="m166 62.007812v147.984376c-.390625.390624-.613281.617187-1.003906 1.007812-41.347656-.003906-74.996094-33.652344-74.996094-75s33.648438-74.996094 74.996094-75c.390625.390625.613281.617188 1.003906 1.007812zm0 0" fill="#547983"/><path d="m240 136c0 41.28125-33.59375 75-75 75v-150c41.351562 0 75 33.648438 75 75zm0 0" fill="#3e5959"/><path d="m165 181c-24.8125 0-45-20.1875-45-45s20.1875-45 45-45 45 20.1875 45 45-20.1875 45-45 45zm0 0" fill="#fed941"/><path d="m210 136c0 24.808594-20.191406 45-45 45v-90c24.808594 0 45 20.191406 45 45zm0 0" fill="#fcbe29"/><path d="m180 136c0 8.285156-6.714844 15-15 15s-15-6.714844-15-15 6.714844-15 15-15 15 6.714844 15 15zm0 0" fill="#3e5959"/><path d="m180 136c0 8.28125-6.71875 15-15 15v-30c8.28125 0 15 6.71875 15 15zm0 0" fill="#293939"/><path d="m166 302.007812v148.980469c0 .003907-.003906.003907-.003906.003907-41.804688.546874-75.996094-33.300782-75.996094-74.992188 0-41.359375 33.648438-74.996094 74.996094-75 .390625.390625.613281.617188 1.003906 1.007812zm0 0" fill="#547983"/><path d="m240 376c0 41.359375-33.648438 75-75 75v-150c16.871094 0 32.449219 5.601562 45 15.039062 18.199219 13.691407 30 35.472657 30 59.960938zm0 0" fill="#3e5959"/><path d="m165 421c-24.8125 0-45-20.1875-45-45s20.1875-45 45-45 45 20.1875 45 45-20.1875 45-45 45zm0 0" fill="#fed941"/><path d="m210 376c0 24.808594-20.191406 45-45 45v-90c24.808594 0 45 20.191406 45 45zm0 0" fill="#fcbe29"/><path d="m180 376c0 8.285156-6.714844 15-15 15s-15-6.714844-15-15 6.714844-15 15-15 15 6.714844 15 15zm0 0" fill="#3e5959"/><path d="m180 376c0 8.28125-6.71875 15-15 15v-30c8.28125 0 15 6.71875 15 15zm0 0" fill="#293939"/></svg>