<svg height="512pt" viewBox="-61 0 512 512" width="512pt" xmlns="http://www.w3.org/2000/svg"><path d="m345 512h-300c-24.8125 0-45-20.1875-45-45v-422c0-24.8125 20.1875-45 45-45h300c24.8125 0 45 20.1875 45 45v422c0 24.8125-20.1875 45-45 45zm0 0" fill="#547983"/><path d="m390 45v422c0 24.808594-20.191406 45-45 45h-150v-512h150c24.808594 0 45 20.191406 45 45zm0 0" fill="#3e5959"/><path d="m45 30c-8.269531 0-15 6.730469-15 15v422c0 8.269531 6.730469 15 15 15h300c8.269531 0 15-6.730469 15-15v-422c0-8.269531-6.730469-15-15-15zm0 0" fill="#3e5959"/><path d="m360 45v422c0 8.269531-6.730469 15-15 15h-150v-452h150c8.269531 0 15 6.730469 15 15zm0 0" fill="#293939"/><path d="m330 196c0 74.558594-60.441406 135-135 135s-135-60.441406-135-135 60.441406-135 135-135 135 60.441406 135 135zm0 0" fill="#e0f4fe"/><path d="m330 196c0 74.558594-60.441406 135-135 135v-270c74.558594 0 135 60.441406 135 135zm0 0" fill="#bcdcfe"/><path d="m90 76c0 8.285156-6.714844 15-15 15s-15-6.714844-15-15 6.714844-15 15-15 15 6.714844 15 15zm0 0" fill="#547983"/><path d="m330 76c0 8.285156-6.714844 15-15 15s-15-6.714844-15-15 6.714844-15 15-15 15 6.714844 15 15zm0 0" fill="#3e5959"/><path d="m330 436c0 8.285156-6.714844 15-15 15s-15-6.714844-15-15 6.714844-15 15-15 15 6.714844 15 15zm0 0" fill="#3e5959"/><path d="m164.589844 274.476562-89.410156 88.492188c-24.5 24.246094-18.867188 65.171875 11.292968 81.890625 30.128906 16.699219 67.785156-.160156 75.414063-33.730469l27.878906-122.664062c3.316406-14.582032-14.550781-24.507813-25.175781-13.988282zm0 0" fill="#fcbe29"/><path d="m195 151c-24.8125 0-45 20.1875-45 45s20.1875 45 45 45 45-20.1875 45-45-20.1875-45-45-45zm0 0" fill="#bcdcfe"/><path d="m240 196c0 24.808594-20.191406 45-45 45v-90c24.808594 0 45 20.191406 45 45zm0 0" fill="#9bbada"/><path d="m195 211c-8.269531 0-15-6.730469-15-15s6.730469-15 15-15 15 6.730469 15 15-6.730469 15-15 15zm0 0" fill="#3e5959"/><path d="m210 196c0 8.269531-6.730469 15-15 15v-30c8.269531 0 15 6.730469 15 15zm0 0" fill="#293939"/></svg>