<svg height="512pt" viewBox="-61 0 512 512" width="512pt" xmlns="http://www.w3.org/2000/svg"><path d="m335 0h-280c-30.328125 0-55 24.671875-55 55v402c0 30.328125 24.671875 55 55 55h280c30.328125 0 55-24.671875 55-55v-402c0-30.328125-24.671875-55-55-55zm0 0" fill="#3e5959"/><path d="m390 55v402c0 30.328125-24.671875 55-55 55h-140v-512h140c30.328125 0 55 24.671875 55 55zm0 0" fill="#293939"/><path d="m30 61h330v330h-330zm0 0" fill="#30d9f6"/><path d="m195 61h165v330h-165zm0 0" fill="#19c0ef"/><path d="m210 451c0 8.285156-6.714844 15-15 15s-15-6.714844-15-15 6.714844-15 15-15 15 6.714844 15 15zm0 0" fill="#547983"/><path d="m210 451c0 8.28125-6.71875 15-15 15v-30c8.28125 0 15 6.71875 15 15zm0 0" fill="#3e5959"/><path d="m300 136h-210c-8.28125 0-15 6.714844-15 15v150c0 8.28125 6.71875 15 15 15h210c8.28125 0 15-6.71875 15-15v-150c0-8.28125-6.714844-15-15-15zm0 0" fill="#fcbe29"/><path d="m300 136h-105v180h105c8.28125 0 15-6.71875 15-15v-150c0-8.28125-6.71875-15-15-15zm0 0" fill="#fe9022"/><path d="m300 136h-210c-4.679688 0-8.851562 2.140625-11.609375 5.5l116.609375 97.5 116.609375-97.5c-2.757813-3.359375-6.929687-5.5-11.609375-5.5zm0 0" fill="#fed941"/><path d="m300 136h-105v103l116.609375-97.5c-2.757813-3.359375-6.929687-5.5-11.609375-5.5zm0 0" fill="#fcbe29"/></svg>