<svg height="512pt" viewBox="-91 0 512 512" width="512pt" xmlns="http://www.w3.org/2000/svg"><path d="m285 512h-240c-24.8125 0-45-20.1875-45-45v-422c0-24.8125 20.1875-45 45-45h240c24.8125 0 45 20.1875 45 45v422c0 24.8125-20.1875 45-45 45zm0 0" fill="#3e5959"/><path d="m330 45v422c0 24.808594-20.191406 45-45 45h-120v-512h120c24.808594 0 45 20.191406 45 45zm0 0" fill="#293939"/><path d="m285 211h-240c-8.285156 0-15-6.714844-15-15v-120c0-8.285156 6.714844-15 15-15h240c8.285156 0 15 6.714844 15 15v120c0 8.285156-6.714844 15-15 15zm0 0" fill="#fed941"/><path d="m300 76v120c0 8.28125-6.71875 15-15 15h-120v-150h120c8.28125 0 15 6.71875 15 15zm0 0" fill="#fcbe29"/><path d="m165 121h-90c-8.285156 0-15 6.714844-15 15s6.714844 15 15 15h90c8.285156 0 15-6.714844 15-15s-6.714844-15-15-15zm0 0" fill="#fcbe29"/><path d="m180 136c0 8.28125-6.71875 15-15 15v-30c8.28125 0 15 6.71875 15 15zm0 0" fill="#fe9022"/><path d="m90 376c0 8.285156-6.714844 15-15 15s-15-6.714844-15-15 6.714844-15 15-15 15 6.714844 15 15zm0 0" fill="#547983"/><path d="m150 376c0 8.285156-6.714844 15-15 15s-15-6.714844-15-15 6.714844-15 15-15 15 6.714844 15 15zm0 0" fill="#547983"/><path d="m210 376c0 8.285156-6.714844 15-15 15s-15-6.714844-15-15 6.714844-15 15-15 15 6.714844 15 15zm0 0" fill="#3e5959"/><path d="m270 376c0 8.285156-6.714844 15-15 15s-15-6.714844-15-15 6.714844-15 15-15 15 6.714844 15 15zm0 0" fill="#3e5959"/><path d="m120 436c0 8.285156-6.714844 15-15 15s-15-6.714844-15-15 6.714844-15 15-15 15 6.714844 15 15zm0 0" fill="#547983"/><path d="m180 436c0 8.285156-6.714844 15-15 15s-15-6.714844-15-15 6.714844-15 15-15 15 6.714844 15 15zm0 0" fill="#547983"/><path d="m180 436c0 8.28125-6.71875 15-15 15v-30c8.28125 0 15 6.71875 15 15zm0 0" fill="#3e5959"/><path d="m240 436c0 8.285156-6.714844 15-15 15s-15-6.714844-15-15 6.714844-15 15-15 15 6.714844 15 15zm0 0" fill="#3e5959"/><path d="m135 331h-60c-8.285156 0-15-6.714844-15-15v-60c0-8.285156 6.714844-15 15-15h60c8.285156 0 15 6.714844 15 15v60c0 8.285156-6.714844 15-15 15zm0 0" fill="#ee3616"/><path d="m180 316v-60c0-11.128906 11.738281-18.402344 21.707031-13.414062l60 30c11.03125 5.511718 11.046875 21.308593 0 26.828124l-60 30c-9.945312 4.976563-21.707031-2.269531-21.707031-13.414062zm0 0" fill="#5dc983"/><path d="m255 121h-30c-8.285156 0-15 6.714844-15 15s6.714844 15 15 15h30c8.285156 0 15-6.714844 15-15s-6.714844-15-15-15zm0 0" fill="#fe9022"/></svg>