<svg height="512pt" viewBox="0 -61 512 512" width="512pt" xmlns="http://www.w3.org/2000/svg"><path d="m61 325v50c0 8.28125 6.71875 15 15 15h60c8.28125 0 15-6.71875 15-15v-50zm0 0" fill="#547983"/><path d="m361 325v50c0 8.28125 6.71875 15 15 15h60c8.28125 0 15-6.71875 15-15v-50zm0 0" fill="#3e5959"/><path d="m482 330h-452c-16.542969 0-30-13.457031-30-30v-150c0-16.542969 13.457031-30 30-30h452c16.542969 0 30 13.457031 30 30v150c0 16.542969-13.457031 30-30 30zm0 0" fill="#3e5959"/><path d="m482 120h-151v210h151c16.539062 0 30-13.460938 30-30v-150c0-16.539062-13.460938-30-30-30zm0 0" fill="#293939"/><path d="m331 330c-66.167969 0-120-53.832031-120-120s53.832031-120 120-120 120 53.832031 120 120-53.832031 120-120 120zm0 0" fill="#547983"/><path d="m451 210c0 66.171875-53.828125 120-120 120v-240c30.351562 0 58.109375 11.328125 79.269531 30 24.960938 21.988281 40.730469 54.191406 40.730469 90zm0 0" fill="#3e5959"/><path d="m331 120c-49.625 0-90 40.375-90 90s40.375 90 90 90 90-40.375 90-90-40.375-90-90-90zm0 0" fill="#19c0ef"/><path d="m421 210c0 49.628906-40.371094 90-90 90v-180c49.628906 0 90 40.371094 90 90zm0 0" fill="#159be1"/><path d="m136 210h-60c-8.285156 0-15-6.714844-15-15s6.714844-15 15-15h60c8.285156 0 15 6.714844 15 15s-6.714844 15-15 15zm0 0" fill="#293939"/><path d="m136 270h-60c-8.285156 0-15-6.714844-15-15s6.714844-15 15-15h60c8.285156 0 15 6.714844 15 15s-6.714844 15-15 15zm0 0" fill="#293939"/><path d="m331 60c-8.285156 0-15-6.714844-15-15v-30c0-8.285156 6.714844-15 15-15s15 6.714844 15 15v30c0 8.285156-6.714844 15-15 15zm0 0" fill="#fed941"/><path d="m346 15v30c0 8.28125-6.71875 15-15 15v-60c8.28125 0 15 6.71875 15 15zm0 0" fill="#fcbe29"/><path d="m235.511719 74.605469-15-25.980469c-4.144531-7.175781-1.6875-16.347656 5.488281-20.488281 7.175781-4.148438 16.347656-1.6875 20.488281 5.488281l15 25.980469c4.144531 7.171875 1.6875 16.347656-5.488281 20.488281-7.167969 4.140625-16.34375 1.691406-20.488281-5.488281zm0 0" fill="#fed941"/><path d="m406 80.097656c-7.175781-4.144531-9.632812-13.316406-5.488281-20.492187l15-25.980469c4.140625-7.175781 13.3125-9.632812 20.488281-5.488281 7.175781 4.140625 9.632812 13.316406 5.488281 20.488281l-15 25.980469c-4.140625 7.175781-13.3125 9.632812-20.488281 5.492187zm0 0" fill="#fcbe29"/><path d="m331 150c-33.085938 0-60 26.914062-60 60s26.914062 60 60 60 60-26.914062 60-60-26.914062-60-60-60zm0 0" fill="#30d9f6"/><path d="m391 210c0 33.078125-26.921875 60-60 60v-120c33.078125 0 60 26.921875 60 60zm0 0" fill="#19c0ef"/><path d="m331 240c-16.542969 0-30-13.457031-30-30s13.457031-30 30-30 30 13.457031 30 30-13.457031 30-30 30zm0 0" fill="#30d9f6"/><path d="m361 210c0 16.539062-13.460938 30-30 30s-30-13.460938-30-30 13.460938-30 30-30 30 13.460938 30 30zm0 0" fill="#e0f4fe"/><path d="m361 210c0 16.539062-13.460938 30-30 30v-60c16.539062 0 30 13.460938 30 30zm0 0" fill="#bcdcfe"/></svg>