<svg height="512pt" viewBox="0 -31 512 512" width="512pt" xmlns="http://www.w3.org/2000/svg"><path d="m441.449219 445.660156c-91.511719-90.546875-85.765625-84.808594-86.472657-85.65625l-142.976562-.003906c-16.542969 0-30-13.457031-30-30v-225c0-8.285156 6.714844-15 15-15h285c16.542969 0 30 13.457031 30 30v210c0 16.542969-13.457031 30-30 30h-15.003906l.003906 75c0 13.375-16.15625 19.957031-25.550781 10.660156zm0 0" fill="#fed941"/><path d="m482 90h-135v270h7.980469c.699219.851562-5.039063-4.878906 86.46875 85.660156 9.390625 9.300782 25.550781 2.71875 25.550781-10.660156v-75h15c16.539062 0 30-13.460938 30-30v-210c0-16.539062-13.460938-30-30-30zm0 0" fill="#fcbe29"/><path d="m45 345 .003906-75h-15.003906c-16.542969 0-30-13.457031-30-30v-210c0-16.542969 13.457031-30 30-30h270c16.542969 0 30 13.457031 30 30v210c0 16.542969-13.457031 30-30 30h-142.976562c-.714844.859375 5.042968-4.894531-86.472657 85.660156-9.441406 9.34375-25.550781 2.675782-25.550781-10.660156zm0 0" fill="#30d9f6"/><path d="m300 0h-135v270h135c16.539062 0 30-13.460938 30-30v-210c0-16.539062-13.460938-30-30-30zm0 0" fill="#19c0ef"/><path d="m195 120h-120c-8.285156 0-15-6.714844-15-15s6.714844-15 15-15h120c8.285156 0 15 6.714844 15 15s-6.714844 15-15 15zm0 0" fill="#19c0ef"/><path d="m210 105c0 8.28125-6.71875 15-15 15h-30v-30h30c8.28125 0 15 6.71875 15 15zm0 0" fill="#159be1"/><path d="m255 180h-180c-8.285156 0-15-6.714844-15-15s6.714844-15 15-15h180c8.285156 0 15 6.714844 15 15s-6.714844 15-15 15zm0 0" fill="#19c0ef"/><g fill="#159be1"><path d="m270 165c0 8.28125-6.71875 15-15 15h-90v-30h90c8.28125 0 15 6.71875 15 15zm0 0"/><path d="m270 105c0 8.285156-6.714844 15-15 15s-15-6.714844-15-15 6.714844-15 15-15 15 6.714844 15 15zm0 0"/></g></svg>