<svg height="512pt" viewBox="0 -91 512 512" width="512pt" xmlns="http://www.w3.org/2000/svg"><path d="m467 330h-422c-24.8125 0-45-20.1875-45-45v-240c0-24.8125 20.1875-45 45-45h422c24.8125 0 45 20.1875 45 45v240c0 24.8125-20.1875 45-45 45zm0 0" fill="#fd6328"/><path d="m467 0h-211v330h211c24.808594 0 45-20.191406 45-45v-240c0-24.808594-20.191406-45-45-45zm0 0" fill="#ee3616"/><path d="m91 75c0 8.285156-6.714844 15-15 15s-15-6.714844-15-15 6.714844-15 15-15 15 6.714844 15 15zm0 0" fill="#3e5959"/><path d="m451 75c0 8.285156-6.714844 15-15 15s-15-6.714844-15-15 6.714844-15 15-15 15 6.714844 15 15zm0 0" fill="#293939"/><path d="m95.191406 0 26.578125 79.738281c2.039063 6.132813 7.769531 10.261719 14.230469 10.261719h240c6.460938 0 12.191406-4.128906 14.230469-10.261719l26.578125-79.738281zm0 0" fill="#3e5959"/><path d="m256 0v90h120c6.460938 0 12.191406-4.128906 14.230469-10.261719l26.578125-79.738281zm0 0" fill="#293939"/><path d="m376 120h-240c-33.085938 0-60 26.914062-60 60s26.914062 60 60 60h240c33.085938 0 60-26.914062 60-60s-26.914062-60-60-60zm0 0" fill="#3e5959"/><path d="m436 180c0 33.078125-26.921875 60-60 60h-120v-120h120c33.078125 0 60 26.921875 60 60zm0 0" fill="#293939"/><path d="m324.070312 150c-5.121093 8.832031-8.070312 19.074219-8.070312 30s2.949219 21.167969 8.070312 30h-136.140624c5.121093-8.832031 8.070312-19.074219 8.070312-30s-2.949219-21.167969-8.070312-30zm0 0" fill="#fed941"/><path d="m316 180c0 10.921875 2.949219 21.171875 8.070312 30h-68.070312v-60h68.070312c-5.121093 8.828125-8.070312 19.078125-8.070312 30zm0 0" fill="#fcbe29"/><path d="m106 180c0-16.542969 13.457031-30 30-30s30 13.457031 30 30-13.457031 30-30 30-30-13.457031-30-30zm0 0" fill="#fed941"/><path d="m376 210c-16.542969 0-30-13.457031-30-30s13.457031-30 30-30 30 13.457031 30 30-13.457031 30-30 30zm0 0" fill="#fcbe29"/></svg>