<svg height="512pt" viewBox="-76 0 512 512" width="512pt" xmlns="http://www.w3.org/2000/svg"><path d="m359 196c0 8.28125-6.71875 15-15 15h-17.5v-30h17.5c8.28125 0 15 6.71875 15 15zm0 0" fill="#3e5959"/><path d="m359 316c0 8.28125-6.71875 15-15 15h-17.5v-30h17.5c8.28125 0 15 6.71875 15 15zm0 0" fill="#3e5959"/><path d="m269.140625 416h-208.28125c-.558594 1.570312-.859375 3.25-.859375 5v76c0 8.28125 6.71875 15 15 15h180c8.28125 0 15-6.71875 15-15v-76c0-1.75-.300781-3.429688-.859375-5zm0 0" fill="#547983"/><path d="m269.140625 416h-104.140625v96h90c8.28125 0 15-6.71875 15-15v-76c0-1.75-.300781-3.429688-.859375-5zm0 0" fill="#3e5959"/><path d="m255 0h-180c-8.28125 0-15 6.71875-15 15v76c0 1.75.300781 3.429688.859375 5h208.28125c.558594-1.570312.859375-3.25.859375-5v-76c0-8.28125-6.71875-15-15-15zm0 0" fill="#547983"/><path d="m255 0h-90v96h104.140625c.558594-1.570312.859375-3.25.859375-5v-76c0-8.28125-6.71875-15-15-15zm0 0" fill="#3e5959"/><path d="m270 421h-210c-33.085938 0-60-26.914062-60-60v-210c0-33.085938 26.914062-60 60-60h210c33.085938 0 60 26.914062 60 60v210c0 33.085938-26.914062 60-60 60zm0 0" fill="#3e5959"/><path d="m330 151v210c0 33.078125-26.921875 60-60 60h-105v-330h105c33.078125 0 60 26.921875 60 60zm0 0" fill="#293939"/><path d="m60 121c-16.542969 0-30 13.457031-30 30v210c0 16.542969 13.457031 30 30 30h210c16.542969 0 30-13.457031 30-30v-210c0-16.542969-13.457031-30-30-30zm0 0" fill="#e0f4fe"/><path d="m300 151v210c0 16.539062-13.460938 30-30 30h-105v-270h105c16.539062 0 30 13.460938 30 30zm0 0" fill="#bcdcfe"/><path d="m150 331v-50.730469l-38.292969 19.148438c-7.40625 3.707031-16.417969.699219-20.125-6.707031-3.703125-7.410157-.699219-16.421876 6.707031-20.125l33.171876-16.585938-33.167969-16.585938c-7.410157-3.703124-10.414063-12.714843-6.707031-20.121093 3.703124-7.410157 12.714843-10.414063 20.125-6.707031l38.289062 19.144531v-50.730469c0-12.335938 14.125-19.40625 24-12l60 45c8.933594 6.699219 7.640625 20.453125-2.289062 25.414062l-33.171876 16.585938 33.167969 16.585938c9.953125 4.972656 11.210938 18.726562 2.292969 25.414062l-60 45c-9.878906 7.410156-24 .328125-24-12zm30-50.730469v20.730469l16.582031-12.4375zm0-69.269531v20.730469l16.582031-8.292969zm0 0" fill="#19c0ef"/><path d="m231.710938 272.578125-33.171876-16.578125 33.171876-16.578125c9.929687-4.972656 11.21875-18.722656 2.289062-25.421875l-60-45c-2.800781-2.101562-5.941406-3.039062-9-3.019531v180.039062c3.058594.019531 6.199219-.917969 9-3.019531l60-45c8.921875-6.691406 7.660156-20.441406-2.289062-25.421875zm-51.710938 28.421875v-20.730469l16.578125 8.289063zm0-69.269531v-20.730469l16.578125 12.441406zm0 0" fill="#159be1"/></svg>