<svg height="512pt" viewBox="0 -46 512 512" width="512pt" xmlns="http://www.w3.org/2000/svg"><path d="m223.148438 66.4375-34.660157-47.851562c-18.523437-25.582032-56.691406-24.414063-73.886719 1.390624l-110.953124 165.007813h124.171874l38.070313-80.628906 15.929687 12.449219c6.828126 5.351562 16.824219 3.785156 21.691407-3.46875l19.949219-29.75c3.5-5.21875 3.367187-12.070313-.3125-17.148438zm0 0" fill="#547983"/><path d="m397.441406 20.027344c-17.320312-25.96875-55.476562-26.921875-73.929687-1.441406l-34.660157 47.851562c-3.679687 5.078125-3.8125 11.929688-.3125 17.148438l19.949219 29.75c4.871094 7.261718 14.875 8.8125 21.691407 3.46875l15.929687-12.449219 38.070313 80.628906h124.171874zm0 0" fill="#3e5959"/><path d="m467 419.984375h-422c-24.8125 0-45-20.1875-45-45v-180c0-8.28125 6.714844-15 15-15h482c8.285156 0 15 6.71875 15 15v180c0 24.8125-20.1875 45-45 45zm0 0" fill="#3e5959"/><path d="m512 194.984375v180c0 24.8125-20.191406 45-45 45h-211v-240h241c8.28125 0 15 6.722656 15 15zm0 0" fill="#293939"/><path d="m226 359.984375h-150c-8.285156 0-15-6.714844-15-15v-90c0-8.28125 6.714844-15 15-15h150c8.285156 0 15 6.71875 15 15v90c0 8.285156-6.714844 15-15 15zm0 0" fill="#ee3616"/><path d="m436 359.984375h-150c-8.285156 0-15-6.714844-15-15v-90c0-8.28125 6.714844-15 15-15h150c8.285156 0 15 6.71875 15 15v90c0 8.285156-6.714844 15-15 15zm0 0" fill="#159be1"/></svg>