<svg height="512pt" viewBox="-91 0 512 512" width="512pt" xmlns="http://www.w3.org/2000/svg"><path d="m285 512h-240c-24.8125 0-45-20.1875-45-45v-422c0-24.8125 20.1875-45 45-45h137.574219c12.019531 0 23.320312 4.679688 31.820312 13.179688l102.425781 102.425781c8.5 8.5 13.179688 19.800781 13.179688 31.820312v319.574219c0 24.8125-20.1875 45-45 45zm0 0" fill="#e0f4fe"/><path d="m316.820312 115.609375-102.429687-102.429687c-8.5-8.5-19.800781-13.179688-31.820313-13.179688h-17.570312v512h120c24.808594 0 45-20.191406 45-45v-319.570312c0-12.019532-4.679688-23.320313-13.179688-31.820313zm0 0" fill="#bcdcfe"/><path d="m240 241h-150c-16.542969 0-30 13.457031-30 30v150c0 16.542969 13.457031 30 30 30h150c16.542969 0 30-13.457031 30-30v-150c0-16.542969-13.457031-30-30-30zm0 0" fill="#fcbe29"/><path d="m270 271v150c0 16.539062-13.460938 30-30 30h-75v-210h75c16.539062 0 30 13.460938 30 30zm0 0" fill="#fe9022"/><path d="m240.011719 361c-.003907 0-.007813 0-.011719 0h-30v-89c0-.339844-.027344-.667969-.050781-1h30.050781zm0 0" fill="#fcbe29"/><path d="m90 331h30v30h-30zm0 0" fill="#fed941"/><path d="m150 272c0-.339844-.027344-.667969-.050781-1h30.101562c-.023437.332031-.050781.660156-.050781 1v149h-30zm0 0" fill="#fed941"/><path d="m180.050781 271c-.019531.328125-.050781.660156-.050781 1v149h-15v-150zm0 0" fill="#fcbe29"/><path d="m90 271h30.050781c-.023437.332031-.050781.660156-.050781 1v29h-30zm0 0" fill="#fed941"/><path d="m90 391h30v30h-30zm0 0" fill="#fed941"/><path d="m240 421h-30v-30h30 .015625l.003906 30s-.007812 0-.019531 0zm0 0" fill="#fcbe29"/></svg>