<svg height="512pt" viewBox="0 -1 512 511" width="512pt" xmlns="http://www.w3.org/2000/svg"><path d="m391 240.5v224c0 8.519531 7.148438 15.410156 15.761719 14.980469 8.046875-.402344 14.238281-7.351563 14.238281-15.421875v-103.558594l5-5h20l5 5v103.199219c0 25.179687-20.601562 46.222656-45.769531 45.789062-24.460938-.410156-44.230469-20.4375-44.230469-44.988281v-419c0-8.28125-6.71875-15-15-15h-60c-8.28125 0-15 6.71875-15 15v20h-30v-20c0-24.851562 20.148438-45 45-45h60c24.851562 0 45 20.148438 45 45v165h30v-60l5-5h20l5 5v75c0 8.28125-6.71875 15-15 15zm0 0" fill="#293939"/><path d="m286 510h-241c-24.8125 0-45-20.1875-45-45v-359.5c0-24.8125 20.1875-45 45-45h241c24.8125 0 45 20.1875 45 45v359.5c0 24.8125-20.1875 45-45 45zm0 0" fill="#547983"/><path d="m286 60.5h-120.5v449.5h120.5c24.808594 0 45-20.191406 45-45v-359.5c0-24.808594-20.191406-45-45-45zm0 0" fill="#3e5959"/><path d="m256 210.5h-180c-8.285156 0-15-6.714844-15-15v-60c0-8.285156 6.714844-15 15-15h180c8.285156 0 15 6.714844 15 15v60c0 8.285156-6.714844 15-15 15zm0 0" fill="#fed941"/><path d="m256 120.5h-90.5v90h90.5c8.28125 0 15-6.71875 15-15v-60c0-8.28125-6.71875-15-15-15zm0 0" fill="#fcbe29"/><path d="m166 450.5c-57.898438 0-105-47.101562-105-105s47.101562-105 105-105 105 47.101562 105 105-47.101562 105-105 105zm0 0" fill="#3e5959"/><path d="m166 240.5c-.171875 0-.328125 0-.5.011719v209.976562c.171875.011719.328125.011719.5.011719 57.898438 0 105-47.101562 105-105s-47.101562-105-105-105zm0 0" fill="#293939"/><path d="m497 360.5c-7.441406 0-68.589844 0-76 0 0-22.902344 0-34.648438 0-45 0-24.8125 20.1875-45 45-45h31c8.285156 0 15 6.714844 15 15v60c0 8.285156-6.714844 15-15 15zm0 0" fill="#fcbe29"/><path d="m421 150.5c0-.851562 0-45.277344 0-45 0-24.851562 20.148438-45 45-45h31c8.285156 0 15 6.714844 15 15v60c0 8.285156-6.714844 15-15 15-64.289062 0-60.269531 0-76 0zm0 0" fill="#fcbe29"/><path d="m196 330.5h-15v-16c0-8.285156-6.714844-15-15-15s-15 6.714844-15 15v16h-15c-8.285156 0-15 6.714844-15 15s6.714844 15 15 15h15v14c0 8.285156 6.714844 15 15 15s15-6.714844 15-15v-14h15c8.285156 0 15-6.714844 15-15s-6.714844-15-15-15zm0 0" fill="#547983"/><path d="m211 345.5c0 8.28125-6.71875 15-15 15h-15v14c0 8.902344-7.707031 15.476562-15.5 14.988281v-89.976562c7.765625-.488281 15.5 6.054687 15.5 14.988281v16h15c8.28125 0 15 6.71875 15 15zm0 0" fill="#3e5959"/></svg>