<svg height="511pt" viewBox="0 -9 511.99966 511" width="511pt" xmlns="http://www.w3.org/2000/svg"><path d="m211 337.992188v53.578124c0 33.082032-26.917969 60-60 60h-121c-1.75 0-3.429688-.300781-5-.859374v-88.28125c1.570312-.558594 3.25-.859376 5-.859376h91v-96.820312zm0 0" fill="#547983"/><path d="m208.972656 407.0625c-6.84375 25.597656-30.242187 44.507812-57.972656 44.507812h-121c-1.75 0-3.429688-.300781-5-.859374v-43.648438zm0 0" fill="#3e5959"/><path d="m15 492.5625c-8.285156 0-15-6.71875-15-15v-140.992188c0-8.285156 6.714844-15 15-15s15 6.714844 15 15v140.992188c0 8.28125-6.714844 15-15 15zm0 0" fill="#3e5959"/><path d="m30 407.0625v70.5c0 8.277344-6.71875 15-15 15s-15-6.722656-15-15v-70.5zm0 0" fill="#293939"/><path d="m506.800781 336.210938-42.777343-36.90625c-40.03125 20.558593-113.90625 58.496093-152.914063 78.53125.113281.101562.222656.203124.34375.300781l86 71c5.964844 4.921875 14.691406 4.503906 20.15625-.960938l90-90c6.15625-6.15625 5.792969-16.265625-.808594-21.964843zm0 0" fill="#3e5959"/><path d="m507.613281 358.179688-43.820312 43.820312-77.082031-62.988281c28.5-14.640625 57.179687-29.371094 77.3125-39.710938l42.777343 36.910157c6.601563 5.699218 6.960938 15.808593.8125 21.96875zm0 0" fill="#293939"/><path d="m495.550781 265.210938-307.96875-254.351563c-17.992187-14.859375-43.980469-13.601563-60.460937 2.921875-15.316406 15.351562-39.921875 40.023438-62.152344 62.308594.121094 2.363281.183594 3.558594.304688 5.921875l319.234374 260.382812c1.976563.207031 3.464844.363281 5.441407.574219 47.820312-24.558594 95.859375-49.230469 102.902343-52.847656 9.550782-4.894532 11.027344-18.019532 2.699219-24.910156zm0 0" fill="#3e5959"/><path d="m50.464844 95.730469c-2.050782.105469-3.3125.171875-5.363282.277343-12.609374 12.640626-22.710937 22.773438-27.191406 27.261719-18.820312 18.886719-17.234375 50.003907 3.460938 66.859375l250.160156 203.5625c4.554688 3.71875 10.960938 4.464844 16.320312 1.710938 2.371094-1.21875 36.167969-18.574219 75.710938-38.882813.226562-2.152343.300781-2.847656.527344-5zm0 0" fill="#81e885"/><path d="m390.941406 342.460938-29.101562 14.941406-318.128906-260.003906 21.289062-21.339844zm0 0" fill="#5dc983"/><path d="m391 256.570312c0 8.285157-6.714844 15-15 15-8.28125 0-15-6.714843-15-15 0-8.285156 6.71875-15 15-15 8.285156 0 15 6.714844 15 15zm0 0" fill="#fd6328"/></svg>