<svg height="512pt" viewBox="0 -10 512 511" width="512pt" xmlns="http://www.w3.org/2000/svg"><path d="m99.738281 455.5h-38.738281c-8.28125 0-15-6.71875-15-15s6.71875-15 15-15h38.738281c-5.382812 9.097656-5.398437 20.875 0 30zm0 0" fill="#3e5959"/><path d="m99.738281 455.5h-38.738281c-8.28125 0-15-6.71875-15-15h49.699219c0 5.21875 1.339843 10.441406 4.039062 15zm0 0" fill="#293939"/><path d="m467 .5h-422c-24.8125 0-45 20.1875-45 45v241c0 24.8125 20.1875 45 45 45h422c24.8125 0 45-20.1875 45-45v-241c0-24.8125-20.1875-45-45-45zm0 0" fill="#547983"/><path d="m512 166v120.5c0 24.808594-20.191406 45-45 45h-422c-24.808594 0-45-20.191406-45-45v-120.5zm0 0" fill="#3e5959"/><path d="m76 150.5c-8.285156 0-15-6.714844-15-15v-60c0-8.285156 6.714844-15 15-15s15 6.714844 15 15v60c0 8.285156-6.714844 15-15 15zm0 0" fill="#3e5959"/><path d="m76 270.5c-8.285156 0-15-6.714844-15-15v-60c0-8.285156 6.714844-15 15-15s15 6.714844 15 15v60c0 8.285156-6.714844 15-15 15zm0 0" fill="#293939"/><path d="m482 45.5v241c0 8.269531-6.730469 15-15 15h-331v-271h331c8.269531 0 15 6.730469 15 15zm0 0" fill="#3e5959"/><path d="m482 166v120.5c0 8.269531-6.730469 15-15 15h-331v-135.5zm0 0" fill="#293939"/><path d="m465.203125 395.5h-236.84375c-.839844-.265625-1.679687-.519531-2.523437-.765625-2.011719 1.519531-2.824219 2.132813-4.835938 3.65625v84.21875c2.011719 1.523437 2.824219 2.136719 4.835938 3.660156.84375-.25 1.683593-.503906 2.523437-.769531h237.640625c24.550781 0 44.578125-19.769531 44.992188-44.226562.429687-25.171876-20.613282-45.773438-45.789063-45.773438zm0 0" fill="#3e5959"/><path d="m221 440.5v42.109375c2 1.511719 2.820312 2.128906 4.808594 3.628906.011718.011719.019531.023438.03125.03125.839844-.25 1.679687-.5 2.519531-.769531h237.640625c24.550781 0 44.578125-19.769531 44.988281-44.230469 0-.257812.011719-.507812.011719-.769531zm0 0" fill="#293939"/><path d="m111.488281 408.972656c-27.753906 11.890625-27.707031 51.183594 0 63.054688 21.550781 9.238281 60.28125 30.136718 114.511719 14.164062v-91.402344c-52.941406-15.589843-90.671875 3.964844-114.511719 14.183594zm0 0" fill="#547983"/><path d="m226 440.5v45.691406c-.058594.019532-.128906.039063-.191406.046875-54.128906 15.871094-92.796875-4.988281-114.320313-14.207031-13.253906-5.683594-20.796875-18.058594-20.796875-31.53125zm0 0" fill="#3e5959"/></svg>