<svg height="512pt" viewBox="-91 0 512 512" width="512pt" xmlns="http://www.w3.org/2000/svg"><path d="m235.449219 223.945312c-7.171875-4.144531-9.625-13.320312-5.476563-20.496093 16.949219-29.324219 12.035156-66.554688-11.949218-90.542969-29.242188-29.246094-76.820313-29.246094-106.0625 0-23.984376 23.988281-28.898438 61.21875-11.949219 90.542969 4.144531 7.175781 1.691406 16.351562-5.480469 20.496093-7.171875 4.148438-16.347656 1.695313-20.492188-5.476562-23.734374-41.070312-16.863281-93.203125 16.707032-126.777344 40.941406-40.945312 107.554687-40.945312 148.492187 0 33.574219 33.574219 40.441407 85.707032 16.707031 126.777344-4.144531 7.167969-13.320312 9.628906-20.496093 5.476562zm0 0" fill="#fcbe29"/><path d="m255.941406 218.464844c-4.140625 7.171875-13.320312 9.632812-20.492187 5.480468-7.167969-4.148437-9.628907-13.320312-5.476563-20.492187 28.753906-49.75-7.210937-112.484375-64.980468-112.484375v-29.996094c80.996093 0 131.179687 87.90625 90.949218 157.492188zm0 0" fill="#fe9022"/><path d="m32.996094 264c-48.867188-64.988281-43.203125-157.210938 15.324218-215.742188 64.332032-64.34375 169.011719-64.34375 233.34375 0 58.375 58.386719 64.316407 150.582032 15.332032 215.730469-4.980469 6.625-14.382813 7.957031-21.003906 2.976563-6.621094-4.980469-7.953126-14.386719-2.972657-21.007813 40.101563-53.335937 34.699219-129.210937-12.570312-176.480469-52.632813-52.644531-138.28125-52.644531-190.917969 0-47.269531 47.277344-52.667969 123.152344-12.558594 176.488282 4.976563 6.621094 3.648438 16.027344-2.972656 21.007812-6.621094 4.980469-16.027344 3.648438-21.003906-2.972656zm0 0" fill="#fed941"/><path d="m296.992188 263.992188c-4.980469 6.621093-14.382813 7.953124-21 2.972656-6.621094-4.984375-7.953126-14.382813-2.972657-21.003906 65.761719-87.46875 4.171875-215.972657-108.027343-215.972657v-29.98437475c135.957031 0 213.359374 155.78906275 132 263.98828175zm0 0" fill="#fcbe29"/><path d="m269.511719 492.226562-77.230469-297.066406c-15.535156 14.5625-39.6875 14.34375-54.960938-.359375-.792968 1.699219 3.617188-14.992187-76.859374 298.464844-2.425782 9.449219 4.699218 18.734375 14.539062 18.734375 6.679688 0 12.78125-4.5 14.519531-11.273438l5.0625-19.730468h141.007813l4.882812 18.773437c2.089844 8.019531 10.277344 12.832031 18.289063 10.75 8.019531-2.089843 12.828125-10.28125 10.75-18.292969zm-72.902344-161.195312 6.832031 26.277344-16.929687-16.453125zm-33.449219-117.136719 2.851563-.550781 21.917969 84.292969-22.9375 22.292969-23.25-22.601563zm-30.019531 116.917969 10.332031 10.042969-17.203125 16.722656zm-30.851563 120.179688 9.671876-37.667969 53.03125-51.546875 53 51.519531 9.796874 37.695313zm0 0" fill="#3e5959"/><path d="m269.511719 492.226562c-.375-1.433593-74.902344-288.105468-77.230469-297.066406-7.691406 7.210938-17.5 10.792969-27.289062 10.792969v7.59375l1.019531-.203125 21.917969 84.292969-22.9375 22.292969v41.847656l53 51.515625 9.796874 37.695312h-62.796874v30.003907h70.597656l4.882812 18.773437c2.089844 8.023437 10.277344 12.832031 18.289063 10.753906 8.019531-2.089843 12.828125-10.28125 10.75-18.292969zm-83-151.371093 10.097656-9.824219 6.832031 26.277344zm0 0" fill="#293939"/><path d="m164.992188 210.953125c-24.8125 0-45-20.1875-45-45.003906 0-24.816407 20.1875-45.007813 45-45.007813s45 20.191406 45 45.007813c0 24.816406-20.1875 45.003906-45 45.003906zm0 0" fill="#fed941"/><path d="m209.992188 165.949219c0 24.828125-20.21875 45.003906-45 45.003906v-90.011719c24.808593 0 45 20.191406 45 45.007813zm0 0" fill="#fcbe29"/></svg>