<svg height="512pt" viewBox="-121 0 512 512" width="512pt" xmlns="http://www.w3.org/2000/svg"><path d="m162.34375 99.257812c-16.101562-12.363281-38.585938-12.363281-54.6875 0-6.570312 5.046876-15.988281 3.808594-21.035156-2.761718-5.042969-6.570313-3.808594-15.984375 2.761718-21.03125 26.859376-20.628906 64.375-20.628906 91.230469 0 6.570313 5.046875 7.808594 14.460937 2.761719 21.03125-5.039062 6.566406-14.457031 7.808594-21.03125 2.761718zm0 0" fill="#19c0ef"/><path d="m183.378906 96.5c-5.050781 6.558594-14.457031 7.808594-21.039062 2.761719-8.050782-6.183594-17.699219-9.28125-27.339844-9.28125v-29.980469c16.101562 0 32.191406 5.148438 45.621094 15.460938 6.570312 5.050781 7.800781 14.46875 2.757812 21.039062zm0 0" fill="#159be1"/><path d="m198.402344 51.265625c-37.332032-28.382813-89.472656-28.382813-126.804688 0-6.59375 5.011719-16.003906 3.730469-21.019531-2.863281s-3.730469-16.003906 2.863281-21.019532c48.019532-36.511718 115.09375-36.511718 163.117188 0 6.59375 5.015626 7.875 14.425782 2.859375 21.019532-5.011719 6.59375-14.421875 7.875-21.015625 2.863281zm0 0" fill="#30d9f6"/><path d="m219.421875 48.398438c-5.011719 6.601562-14.421875 7.882812-21.023437 2.863281-18.660157-14.191407-41.027344-21.28125-63.398438-21.28125v-29.980469c28.78125 0 57.550781 9.121094 81.558594 27.378906 6.589844 5.019532 7.871094 14.429688 2.863281 21.019532zm0 0" fill="#19c0ef"/><path d="m225 512h-180c-24.8125 0-45-20.1875-45-45v-301c0-24.8125 20.1875-45 45-45h180c24.8125 0 45 20.1875 45 45v301c0 24.8125-20.1875 45-45 45zm0 0" fill="#3e5959"/><path d="m225 121h-90v391h90c24.808594 0 45-20.191406 45-45v-301c0-24.808594-20.191406-45-45-45zm0 0" fill="#293939"/><g fill="#e0f4fe"><path d="m90 196c0 8.285156-6.714844 15-15 15s-15-6.714844-15-15 6.714844-15 15-15 15 6.714844 15 15zm0 0"/><path d="m150 196c0 8.285156-6.714844 15-15 15s-15-6.714844-15-15 6.714844-15 15-15 15 6.714844 15 15zm0 0"/><path d="m150 256c0 8.285156-6.714844 15-15 15s-15-6.714844-15-15 6.714844-15 15-15 15 6.714844 15 15zm0 0"/></g><path d="m150 196c0 8.28125-6.71875 15-15 15v-30c8.28125 0 15 6.71875 15 15zm0 0" fill="#bcdcfe"/><path d="m210 196c0 8.285156-6.714844 15-15 15s-15-6.714844-15-15 6.714844-15 15-15 15 6.714844 15 15zm0 0" fill="#bcdcfe"/><path d="m90 256c0 8.285156-6.714844 15-15 15s-15-6.714844-15-15 6.714844-15 15-15 15 6.714844 15 15zm0 0" fill="#e0f4fe"/><path d="m150 256c0 8.28125-6.71875 15-15 15v-30c8.28125 0 15 6.71875 15 15zm0 0" fill="#bcdcfe"/><path d="m210 256c0 8.285156-6.714844 15-15 15s-15-6.714844-15-15 6.714844-15 15-15 15 6.714844 15 15zm0 0" fill="#bcdcfe"/><path d="m135 451c-41.355469 0-75-33.644531-75-75s33.644531-75 75-75 75 33.644531 75 75-33.644531 75-75 75zm0 0" fill="#547983"/><path d="m210 376c0 41.359375-33.648438 75-75 75v-150c41.351562 0 75 33.640625 75 75zm0 0" fill="#3e5959"/><path d="m135 331c-24.8125 0-45 20.1875-45 45s20.1875 45 45 45 45-20.1875 45-45-20.1875-45-45-45zm0 0" fill="#e0f4fe"/><path d="m180 376c0 24.808594-20.191406 45-45 45v-90c24.808594 0 45 20.191406 45 45zm0 0" fill="#bcdcfe"/></svg>