<svg height="512pt" viewBox="0 0 512 512.00025" width="512pt" xmlns="http://www.w3.org/2000/svg"><path d="m391 136.023438c0 178.429687.378906 166.542968-.859375 169.988281h-28.28125c-1.226563-3.421875-.859375 8.523437-.859375-169.988281 0-8.28125 6.71875-15 15-15s15 6.722656 15 15zm0 0" fill="#bcdcfe"/><path d="m391 136.023438c0 178.429687.378906 166.542968-.859375 169.988281h-14.152344v-184.988281c8.320313 0 15.011719 6.746093 15.011719 15zm0 0" fill="#9bbada"/><path d="m91 497c0 8.289062-6.71875 15-15 15s-15-6.710938-15-15c0-17.347656-.253906-17.875.859375-20.996094h28.28125c1.113281 3.117188.859375 3.636719.859375 20.996094zm0 0" fill="#547983"/><path d="m451 497c0 8.292969-6.71875 15-15 15s-15-6.710938-15-15c0-17.347656-.253906-17.875.859375-20.996094h28.28125c1.113281 3.117188.859375 3.636719.859375 20.996094zm0 0" fill="#3e5959"/><path d="m467 481.003906h-422c-24.8125 0-45-20.1875-45-44.996094v-89.996093c0-24.8125 20.1875-44.996094 45-44.996094h422c24.8125 0 45 20.183594 45 44.996094v89.996093c0 24.808594-20.1875 44.996094-45 44.996094zm0 0" fill="#547983"/><path d="m467 301.011719h-91.011719v179.992187h91.011719c24.808594 0 45-20.191406 45-45v-89.992187c0-24.808594-20.191406-45-45-45zm0 0" fill="#3e5959"/><path d="m45 451.003906c-8.269531 0-15-6.726562-15-14.996094v-89.996093c0-8.269531 6.730469-15 15-15h422c8.269531 0 15 6.730469 15 15v89.996093c0 8.269532-6.730469 14.996094-15 14.996094zm0 0" fill="#3e5959"/><path d="m482 346.011719v89.992187c0 8.269532-6.730469 15-15 15h-91.011719v-119.992187h91.011719c8.269531 0 15 6.730469 15 15zm0 0" fill="#293939"/><path d="m91 376.007812c0 8.285157-6.714844 15-15 15s-15-6.714843-15-15c0-8.28125 6.714844-15 15-15s15 6.71875 15 15zm0 0" fill="#30d9f6"/><path d="m331 376.007812c0 8.285157-6.714844 15-15 15s-15-6.714843-15-15c0-8.28125 6.714844-15 15-15s15 6.71875 15 15zm0 0" fill="#81e885"/><path d="m391 376.007812c0 8.285157-6.714844 15-15 15s-15-6.714843-15-15c0-8.28125 6.714844-15 15-15s15 6.71875 15 15zm0 0" fill="#81e885"/><path d="m391 376.007812c0 8.253907-6.691406 15-15.011719 15v-30c8.320313 0 15.011719 6.746094 15.011719 15zm0 0" fill="#5dc983"/><path d="m451 376.007812c0 8.285157-6.714844 15-15 15s-15-6.714843-15-15c0-8.28125 6.714844-15 15-15s15 6.71875 15 15zm0 0" fill="#fe9022"/><path d="m310.433594 172.464844c-16.191406-29.105469-11.039063-65.894532 12.527344-89.472656 29.25-29.234376 76.828124-29.234376 106.074218-.003907 23.339844 23.351563 28.625 59.800781 12.910156 88.769531-2.496093 4.816407-7.527343 8.109376-13.324218 8.109376-11.425782 0-18.613282-12.265626-13.148438-22.222657 9.550782-17.402343 6.40625-39.378906-7.652344-53.445312-17.542968-17.535157-46.097656-17.535157-63.644531.003906-14.140625 14.148437-17.238281 36.222656-7.527343 53.675781 4.027343 7.242188 1.421874 16.375-5.816407 20.398438-7.238281 4.027344-16.371093 1.425781-20.398437-5.8125zm0 0" fill="#e0f4fe"/><path d="m441.949219 171.761719c-2.5 4.808593-7.527344 8.109375-13.328125 8.109375-11.386719 0-18.625-12.230469-13.152344-22.230469 16.171875-29.460937-4.871094-66.59375-39.480469-66.59375v-29.980469c57.296875 0 92.699219 61.390625 65.960938 110.695313zm0 0" fill="#bcdcfe"/><path d="m257.972656 200.605469c-28.226562-50.710938-21.585937-116.886719 22.574219-161.035157 52.75-52.757812 138.148437-52.765624 190.910156.003907 43.605469 43.59375 50.984375 109.296875 22.941407 160.355469-3.988282 7.257812-13.105469 9.914062-20.371094 5.925781-7.257813-3.988281-9.914063-13.105469-5.925782-20.367188 22.304688-40.613281 14.960938-91.894531-17.859374-124.699219-41.027344-41.035156-107.445313-41.050781-148.484376-.003906-33.019531 33.007813-40.242187 84.503906-17.570312 125.226563 4.027344 7.242187 1.425781 16.375-5.8125 20.402343-7.253906 4.035157-16.378906 1.417969-20.402344-5.808593zm0 0" fill="#bcdcfe"/><path d="m494.398438 199.929688c-3.988282 7.257812-13.109376 9.917968-20.367188 5.929687-7.261719-3.988281-9.921875-13.109375-5.929688-20.367187 38.046876-69.273438-12.03125-155.460938-92.113281-155.460938v-30c102.160157 0 167.867188 109.859375 118.410157 199.898438zm0 0" fill="#9bbada"/></svg>