<svg height="512pt" viewBox="0 0 512 512.00025" width="512pt" xmlns="http://www.w3.org/2000/svg"><path d="m406 361h-300c-58.449219 0-106-47.101562-106-105 0-41.480469 25.359375-79.125 63.148438-95.90625-14.949219-82.910156 48.617187-160.09375 132.851562-160.09375 46.792969 0 89.386719 24.84375 113.90625 63.484375 57.027344-13.726563 111.742188 30.0625 111.085938 88.5625 51.378906 7.238281 91.007812 51.097656 91.007812 103.953125 0 57.898438-47.550781 105-106 105zm0 0" fill="#e0f4fe"/><path d="m420.988281 152.050781c.660157-58.5-54.058593-102.289062-111.078125-88.5625-13.351562-21.046875-32.070312-38-53.910156-49.078125v346.589844h150c58.449219 0 106-47.101562 106-105 0-52.851562-39.628906-96.710938-91.011719-103.949219zm0 0" fill="#bcdcfe"/><path d="m246.175781 508.335938-105-91c-10.46875-9.070313-4.023437-26.335938 9.824219-26.335938h45v-135c0-8.285156 6.714844-15 15-15h90c8.285156 0 15 6.714844 15 15v135h45c13.851562 0 20.289062 17.269531 9.824219 26.335938l-105 91c-5.636719 4.886718-14.007813 4.886718-19.648438 0zm0 0" fill="#19c0ef"/><path d="m361 391h-45v-135c0-8.28125-6.71875-15-15-15h-45v271c3.5 0 7-1.21875 9.820312-3.671875l105-91c10.46875-9.058594 4.03125-26.328125-9.820312-26.328125zm0 0" fill="#159be1"/></svg>