<svg height="512pt" viewBox="-31 0 512 512" width="512pt" xmlns="http://www.w3.org/2000/svg"><path d="m405 512h-360c-24.8125 0-45-20.1875-45-45v-422c0-24.8125 20.1875-45 45-45h360c24.8125 0 45 20.1875 45 45v422c0 24.8125-20.1875 45-45 45zm0 0" fill="#3e5959"/><path d="m450 45v422c0 24.808594-20.191406 45-45 45h-180v-512h180c24.808594 0 45 20.191406 45 45zm0 0" fill="#293939"/><path d="m375 391h-300c-8.285156 0-15-6.714844-15-15v-300c0-8.285156 6.714844-15 15-15h300c8.285156 0 15 6.714844 15 15v300c0 8.285156-6.714844 15-15 15zm0 0" fill="#e0f4fe"/><path d="m375 61h-150v330h150c8.28125 0 15-6.71875 15-15v-300c0-8.28125-6.71875-15-15-15zm0 0" fill="#bcdcfe"/><path d="m240 446c0 8.285156-6.714844 15-15 15s-15-6.714844-15-15 6.714844-15 15-15 15 6.714844 15 15zm0 0" fill="#e0f4fe"/><path d="m240 446c0 8.28125-6.71875 15-15 15v-30c8.28125 0 15 6.71875 15 15zm0 0" fill="#bcdcfe"/><path d="m315 151h-180c-8.285156 0-15-6.714844-15-15s6.714844-15 15-15h180c8.285156 0 15 6.714844 15 15s-6.714844 15-15 15zm0 0" fill="#547983"/><path d="m330 136c0 8.28125-6.71875 15-15 15h-90v-30h90c8.28125 0 15 6.71875 15 15zm0 0" fill="#3e5959"/><path d="m285 211h-150c-8.285156 0-15-6.714844-15-15s6.714844-15 15-15h150c8.285156 0 15 6.714844 15 15s-6.714844 15-15 15zm0 0" fill="#547983"/><path d="m300 196c0 8.28125-6.71875 15-15 15h-60v-30h60c8.28125 0 15 6.71875 15 15zm0 0" fill="#3e5959"/><path d="m315 271h-60c-8.285156 0-15-6.714844-15-15s6.714844-15 15-15h60c8.285156 0 15 6.714844 15 15s-6.714844 15-15 15zm0 0" fill="#3e5959"/><path d="m195 271h-60c-8.285156 0-15-6.714844-15-15s6.714844-15 15-15h60c8.285156 0 15 6.714844 15 15s-6.714844 15-15 15zm0 0" fill="#547983"/><path d="m285 331h-150c-8.285156 0-15-6.714844-15-15s6.714844-15 15-15h150c8.285156 0 15 6.714844 15 15s-6.714844 15-15 15zm0 0" fill="#547983"/><path d="m300 316c0 8.28125-6.71875 15-15 15h-60v-30h60c8.28125 0 15 6.71875 15 15zm0 0" fill="#3e5959"/></svg>