<svg height="512pt" viewBox="0 0 512 512.00029" width="512pt" xmlns="http://www.w3.org/2000/svg"><path d="m352.125 28.695312-217.136719 97.308594h-70.167969c3.128907-3.519531-14.984374 5.285156 275.046876-124.6875 7.550781-3.390625 16.429687 0 19.820312 7.558594s0 16.429688-7.5625 19.820312zm0 0" fill="#fed941"/><path d="m352.125 28.695312-217.136719 97.308594h-38.859375l263.269532-117.71875c3.628906 6.269532 1.292968 16.570313-7.273438 20.410156zm0 0" fill="#fcbe29"/><path d="m451.996094 512h-391.996094c-33.085938 0-60-26.914062-60-60v-270.996094c0-33.085937 26.914062-60 60-60h391.996094c33.082031 0 60 26.914063 60 60v270.996094c0 33.085938-26.917969 60-60 60zm0 0" fill="#fd6328"/><path d="m451.996094 121.003906h-196v390.996094h196c33.078125 0 60-26.917969 60-60v-270.996094c0-33.078125-26.921875-60-60-60zm0 0" fill="#ee3616"/><path d="m435.996094 271.003906h-359.996094c-8.285156 0-15-6.71875-15-15v-60c0-8.285156 6.714844-15 15-15h359.996094c8.285156 0 15 6.714844 15 15v60c0 8.28125-6.714844 15-15 15zm0 0" fill="#ee3616"/><path d="m435.996094 181.003906h-180v90h180c8.28125 0 15-6.722656 15-15v-60c0-8.28125-6.71875-15-15-15zm0 0" fill="#cb0010"/><path d="m91 211.003906h329.996094v30h-329.996094zm0 0" fill="#e0f4fe"/><path d="m255.996094 211.003906h165v30h-165zm0 0" fill="#bcdcfe"/><g fill="#cb0010"><path d="m106 451c-8.285156 0-15-6.714844-15-15v-119.996094c0-8.285156 6.714844-15 15-15 8.28125 0 15 6.714844 15 15v119.996094c0 8.285156-6.71875 15-15 15zm0 0"/><path d="m166 451c-8.285156 0-15-6.714844-15-15v-119.996094c0-8.285156 6.714844-15 15-15 8.28125 0 15 6.714844 15 15v119.996094c0 8.285156-6.71875 15-15 15zm0 0"/><path d="m225.996094 451c-8.28125 0-14.996094-6.714844-14.996094-15v-119.996094c0-8.285156 6.714844-15 14.996094-15 8.285156 0 15 6.714844 15 15v119.996094c0 8.285156-6.714844 15-15 15zm0 0"/><path d="m375.996094 301.003906c-41.355469 0-75 33.644532-75 74.996094 0 41.355469 33.644531 75 75 75 41.355468 0 75-33.644531 75-75 0-41.351562-33.644532-74.996094-75-74.996094zm0 0"/></g><path d="m416.675781 395.460938c-.304687-.304688-10.761719-10.761719-11.070312-11.070313-5.859375-5.847656-15.359375-5.847656-21.21875 0-5.851563 5.859375-5.851563 15.359375 0 21.222656l11.058593 11.058594c-29.71875 14.152344-64.449218-7.558594-64.449218-40.671875 0-24.808594 20.191406-44.996094 45-44.996094 32.535156 0 54.890625 33.867188 40.679687 64.457032zm0 0" fill="#ee3616"/><path d="m300.996094 211.003906h30v30h-30zm0 0" fill="#30d9f6"/></svg>