<svg height="512pt" viewBox="0 0 512.0016 512" width="512pt" xmlns="http://www.w3.org/2000/svg"><path d="m331.722656 282.6875c-3.847656 0-7.6875-1.46875-10.609375-4.394531l-43.703125-43.703125c-2.8125-2.8125-4.394531-6.625-4.394531-10.605469 0-3.976563 1.582031-7.792969 4.394531-10.605469l203.824219-203.824218c4.140625-4.144532 10.316406-5.496094 15.8125-3.464844 5.492187 2.035156 9.300781 7.078125 9.75 12.917968l4.972656 64.632813c1.828125 23.742187-7.210937 46.5625-24.792969 62.613281l-145.144531 132.511719c-2.867187 2.621094-6.492187 3.921875-10.109375 3.921875zm0 0" fill="#b0ac9b"/><path d="m331.003906 319.390625c-5.035156-5.035156-10.472656-9.542969-16.277344-13.496094l27.601563-27.601562-64.917969-64.914063-106.011718 106.011719c-21.289063 21.289063-33.011719 49.628906-33.011719 79.804687 0 30.175782 11.722656 58.515626 33.011719 79.800782 22 22.003906 50.902343 33.003906 79.800781 33.003906 28.902343 0 57.804687-11 79.804687-33.003906 21.289063-21.285156 33.011719-49.625 33.011719-79.800782 0-30.175781-11.722656-58.519531-33.011719-79.804687zm-43.703125 115.902344c-9.953125 9.953125-23.027343 14.929687-36.101562 14.929687s-26.144531-4.972656-36.097657-14.929687c-19.90625-19.902344-19.90625-52.292969 0-72.199219 9.640626-9.644531 22.460938-14.953125 36.097657-14.953125 13.640625 0 26.460937 5.308594 36.101562 14.953125 9.644531 9.640625 14.953125 22.464844 14.953125 36.101562 0 13.636719-5.308594 26.457032-14.953125 36.097657zm0 0" fill="#d9260f"/><path d="m277.40625 234.589844 225.039062-225.039063c-2.488281-2.480469-5.816406-4.066406-9.453124-4.347656l-64.632813-4.972656c-23.734375-1.820313-46.558594 7.210937-62.613281 24.796875l-132.511719 145.140625c-5.40625 5.921875-5.199219 15.050781.472656 20.71875zm0 0" fill="#d6d3c5"/><path d="m112.808594 373.613281c10.074218 0 19.949218-1.316406 29.421875-3.851562l145.78125-145.78125-54.304688-54.304688-27.601562 27.597657c-3.953125-5.804688-8.460938-11.242188-13.496094-16.277344-21.285156-21.285156-49.628906-33.011719-79.804687-33.011719-30.171876 0-58.515626 11.726563-79.800782 33.011719-44.003906 44.003906-44.003906 115.605468 0 159.605468 21.285156 21.289063 49.628906 33.011719 79.804688 33.011719zm-36.101563-148.914062c9.644531-9.640625 22.464844-14.953125 36.101563-14.953125 13.636718 0 26.457031 5.3125 36.101562 14.953125 9.640625 9.644531 14.953125 22.464843 14.953125 36.101562s-5.3125 26.457031-14.957031 36.101563c-9.953125 9.953125-23.023438 14.925781-36.097656 14.925781-13.074219 0-26.148438-4.972656-36.101563-14.925781-19.90625-19.90625-19.90625-52.296875 0-72.203125zm0 0" fill="#ff6e57"/></svg>