<svg height="512pt" viewBox="0 0 512.00124 512" width="512pt" xmlns="http://www.w3.org/2000/svg"><path d="m60.691406 511.335938h436.320313c8.277343 0 14.988281-6.710938 14.988281-14.988282v-435.65625c0-6.058594-3.648438-11.527344-9.246094-13.847656s-12.042968-1.042969-16.335937 3.242188l-436.320313 435.652343c-4.289062 4.289063-5.578125 10.738281-3.257812 16.339844 2.320312 5.605469 7.785156 9.257813 13.851562 9.257813zm193.347656-79.964844c-6.066406 0-11.53125-3.652344-13.851562-9.257813-2.316406-5.605469-1.03125-12.054687 3.261719-16.339843l162.882812-162.636719c4.289063-4.28125 10.734375-5.558594 16.332031-3.238281 5.597657 2.320312 9.25 7.785156 9.25 13.847656v162.632812c0 8.28125-6.714843 14.992188-14.992187 14.992188zm0 0" fill="#4dc979"/><path d="m507.609375 506.945312-80.03125-80.027343c2.679687-2.710938 4.335937-6.429688 4.335937-10.535157v-162.636718c0-6.0625-3.652343-11.527344-9.25-13.847656-5.597656-2.320313-12.042968-1.042969-16.332031 3.238281l-81.328125 81.203125-56.585937-56.585938 218-217.667968c4.289062-4.285157 10.734375-5.5625 16.335937-3.242188 5.597656 2.320312 9.246094 7.789062 9.246094 13.847656v435.65625c0 4.136719-1.675781 7.886719-4.390625 10.597656zm0 0" fill="#1e9e60"/><path d="m303.605469 282.050781c2.929687 2.929688 4.394531 6.765625 4.394531 10.605469 0 3.835938-1.464844 7.667969-4.390625 10.597656-5.851563 5.851563-15.34375 5.855469-21.199219.003906l-24.761718-24.75 21.214843-21.183593zm0 0" fill="#787465"/><g fill="#4c4a40"><path d="m308 292.65625c0 3.765625-1.421875 7.527344-4.246094 10.4375l-35.335937-35.339844 10.445312-10.429687 24.742188 24.726562c2.929687 2.929688 4.394531 6.765625 4.394531 10.605469zm0 0"/><path d="m353.15625 232.578125c2.929688 2.925781 4.394531 6.765625 4.394531 10.601563 0 3.835937-1.464843 7.671874-4.386719 10.597656-5.855468 5.851562-15.347656 5.855468-21.199218.003906l-24.765625-24.753906 21.214843-21.179688zm0 0"/><path d="m402.707031 183.101562c2.929688 2.925782 4.394531 6.765626 4.394531 10.601563s-1.464843 7.667969-4.386718 10.597656c-5.855469 5.851563-15.347656 5.855469-21.199219.003907l-24.765625-24.75 21.214844-21.183594zm0 0"/><path d="m452.261719 133.625c2.925781 2.925781 4.390625 6.765625 4.390625 10.601562 0 3.835938-1.460938 7.671876-4.386719 10.597657-5.851563 5.851562-15.34375 5.855469-21.199219.003906l-24.761718-24.75 21.214843-21.183594zm0 0"/></g><path d="m254.054688 331.527344c2.929687 2.929687 4.390624 6.765625 4.390624 10.601562 0 3.835938-1.460937 7.671875-4.386718 10.601563-5.851563 5.851562-15.34375 5.855469-21.199219.003906l-24.761719-24.753906 21.214844-21.183594zm0 0" fill="#787465"/><path d="m204.503906 381.003906c2.929688 2.929688 4.390625 6.765625 4.390625 10.601563 0 3.835937-1.460937 7.671875-4.386719 10.597656-5.851562 5.855469-15.34375 5.859375-21.199218.003906l-24.761719-24.75 21.214844-21.183593zm0 0" fill="#787465"/><path d="m154.949219 430.480469c2.929687 2.929687 4.394531 6.765625 4.394531 10.601562 0 3.835938-1.460938 7.671875-4.386719 10.597657-5.855469 5.855468-15.34375 5.859374-21.199219.007812l-24.765624-24.753906 21.214843-21.183594zm0 0" fill="#787465"/><path d="m14.996094 400.6875c-3.894532 0-7.726563-1.515625-10.597656-4.386719-4.4218755-4.414062-5.640626-11.109375-3.058594-16.800781l45.792968-100.894531c.742188-1.636719 1.773438-3.125 3.042969-4.398438l258.015625-258.410156c10.171875-10.1875 23.695313-15.796875 38.082032-15.796875 14.386718 0 27.914062 5.609375 38.082031 15.796875h.003906c20.980469 21.015625 20.980469 55.203125 0 76.21875l-258.019531 258.410156c-1.269532 1.273438-2.757813 2.308594-4.394532 3.050781l-100.742187 45.863282c-1.992187.90625-4.109375 1.347656-6.207031 1.347656zm0 0" fill="#ffc12e"/><path d="m4.398438 396.300781c2.871093 2.871094 6.703124 4.386719 10.597656 4.386719 2.097656 0 4.214844-.441406 6.207031-1.347656l100.742187-45.863282c1.636719-.746093 3.125-1.777343 4.394532-3.050781l258.019531-258.410156c20.980469-21.015625 20.980469-55.207031 0-76.21875l-380.222656 380.222656c.085937.09375.167969.191407.261719.28125zm0 0" fill="#ed8f00"/><path d="m50.183594 274.199219-.007813.007812c-1.269531 1.273438-2.300781 2.761719-3.042969 4.398438l-45.792968 100.894531c-2.582032 5.691406-1.3632815 12.386719 3.058594 16.800781 2.871093 2.871094 6.703124 4.386719 10.597656 4.386719 2.097656 0 4.214844-.441406 6.207031-1.347656l100.742187-45.863282c1.636719-.746093 3.125-1.777343 4.394532-3.050781l.035156-.035156zm0 0" fill="#ffe9d6"/><path d="m126.339844 350.425781.035156-.035156-38.308594-38.304687-83.929687 83.933593c.085937.09375.167969.191407.261719.28125 2.871093 2.871094 6.703124 4.386719 10.597656 4.386719 2.097656 0 4.214844-.441406 6.207031-1.347656l100.742187-45.863282c1.636719-.742187 3.125-1.777343 4.394532-3.050781zm0 0" fill="#ffd5b8"/><path d="m16.433594 346.25-15.09375 33.25c-2.582032 5.691406-1.3632815 12.386719 3.058594 16.800781 2.871093 2.871094 6.703124 4.386719 10.597656 4.386719 2.097656 0 4.214844-.441406 6.207031-1.347656l33.203125-15.117188zm0 0" fill="#696453"/><path d="m4.398438 396.300781c2.871093 2.871094 6.703124 4.386719 10.597656 4.386719 2.097656 0 4.214844-.441406 6.207031-1.347656l33.203125-15.117188-19.234375-19.238281-31.035156 31.035156c.085937.09375.167969.191407.261719.28125zm0 0" fill="#424038"/><path d="m384.359375 15.796875c-10.171875-10.1875-23.699219-15.796875-38.085937-15.796875-14.386719 0-27.910157 5.609375-38.078126 15.796875l-45.121093 45.1875 76.191406 76.191406 45.09375-45.160156c20.980469-21.015625 20.980469-55.203125 0-76.21875zm0 0" fill="#ff8e7a"/><path d="m339.265625 137.175781 45.09375-45.160156c20.980469-21.015625 20.980469-55.203125 0-76.21875l-83.234375 83.234375zm0 0" fill="#ff5c42"/><path d="m252.472656 71.585938 21.199219-21.199219 76.191406 76.191406-21.199219 21.199219zm0 0" fill="#edeade"/><path d="m328.675781 147.78125 21.183594-21.214844-38.136719-38.132812-21.199218 21.199218zm0 0" fill="#b0ac9b"/></svg>