<svg height="512pt" viewBox="-83 0 512 512" width="512pt" xmlns="http://www.w3.org/2000/svg"><path d="m264.882812 117.429688c-39.65625-63.988282-78.714843-110.203126-80.359374-112.136719-2.828126-3.332031-6.972657-5.2695315-11.347657-5.292969-.03125 0-.058593 0-.085937 0-4.34375 0-8.472656 1.882812-11.324219 5.160156-1.644531 1.894532-40.75 47.097656-80.441406 110.59375-53.960938 86.332032-81.324219 161.410156-81.324219 223.15625 0 95.441406 77.648438 173.089844 173.089844 173.089844s173.089844-77.648438 173.089844-173.089844c0-59.929687-27.355469-134.445312-81.296876-221.480468zm-199.929687 242.648437c-2.789063-2.789063-4.386719-6.65625-4.386719-10.597656 0-3.949219 1.597656-7.820313 4.386719-10.609375 2.792969-2.792969 6.660156-4.390625 10.613281-4.390625 3.949219 0 7.808594 1.597656 10.609375 4.390625 2.789063 2.789062 4.390625 6.660156 4.390625 10.609375 0 3.9375-1.601562 7.808593-4.390625 10.597656-2.800781 2.800781-6.660156 4.402344-10.609375 4.402344-3.953125 0-7.8125-1.601563-10.613281-4.402344zm95.242187 77.238281c-1.902343 6.558594-7.894531 10.824219-14.398437 10.824219-1.382813 0-2.789063-.195313-4.1875-.601563-20.285156-5.886718-38.507813-17.359374-52.699219-33.179687-5.53125-6.167969-5.019531-15.648437 1.148438-21.183594 6.164062-5.53125 15.648437-5.015625 21.179687 1.148438 10.445313 11.644531 23.839844 20.082031 38.730469 24.402343 7.957031 2.3125 12.535156 10.632813 10.226562 18.589844zm0 0"/><path d="m173.089844 512c-95.441406 0-173.089844-77.648438-173.089844-173.089844 0-61.746094 27.363281-136.824218 81.324219-223.15625 39.691406-63.496094 78.796875-108.699218 80.441406-110.59375 2.851563-3.277344 6.980469-5.160156 11.324219-5.160156h.085937c4.375.0234375 8.519531 1.960938 11.347657 5.292969 1.644531 1.933593 40.703124 48.148437 80.359374 112.136719 53.941407 87.035156 81.292969 161.554687 81.292969 221.480468.003907 95.441406-77.644531 173.089844-173.085937 173.089844zm0 0" fill="#787465"/><path d="m173.089844 512c95.441406 0 173.089844-77.648438 173.089844-173.089844 0-59.929687-27.355469-134.445312-81.296876-221.480468-39.65625-63.988282-78.714843-110.203126-80.359374-112.136719-2.828126-3.332031-6.972657-5.2695315-11.347657-5.292969-.03125 0-.058593 0-.085937 0zm0 0" fill="#4c4a40"/></svg>