<svg height="511pt" viewBox="1 0 511.9995 511" width="511pt" xmlns="http://www.w3.org/2000/svg"><path d="m497.035156 325.09375c8.265625 0 14.964844-6.699219 14.964844-14.964844s-6.699219-14.964844-14.964844-14.964844h-309.511718l-25.605469 25.601563c2.703125 2.675781 6.417969 4.328125 10.519531 4.328125zm0 0" fill="#28c1d1"/><path d="m473.78125 393.03125 12.457031-12.460938c5.84375-5.84375 5.84375-15.320312 0-21.164062s-15.316406-5.84375-21.164062 0l-12.457031 12.460938-12.460938-12.460938c-5.84375-5.84375-15.316406-5.84375-21.164062 0-5.84375 5.84375-5.84375 15.320312 0 21.164062l12.460937 12.460938-12.460937 12.460938c-5.84375 5.84375-5.84375 15.316406 0 21.164062 2.921874 2.921875 6.753906 4.382812 10.582031 4.382812 3.832031 0 7.660156-1.460937 10.582031-4.382812l12.460938-12.460938 12.457031 12.460938c2.921875 2.921875 6.753906 4.382812 10.582031 4.382812s7.660156-1.460937 10.582031-4.382812c5.84375-5.84375 5.84375-15.320312 0-21.164062zm0 0" fill="#28c1d1"/><path d="m14.964844 482.566406c-3.832032 0-7.660156-1.460937-10.582032-4.382812-5.84375-5.84375-5.84375-15.320313 0-21.164063l157.476563-157.472656c5.839844-5.84375 15.316406-5.84375 21.160156 0 5.847657 5.84375 5.847657 15.316406 0 21.164063l-157.472656 157.472656c-2.921875 2.921875-6.753906 4.382812-10.582031 4.382812zm0 0" fill="#ff6e6e"/><path d="m165.292969 481.390625h-11.554688l22.464844-23.921875c4.085937-4.347656 5.195313-10.710938 2.828125-16.1875-2.371094-5.476562-7.769531-9.023438-13.738281-9.023438h-46.136719c-8.265625 0-14.964844 6.703126-14.964844 14.96875 0 8.261719 6.699219 14.964844 14.964844 14.964844h11.554688l-22.464844 23.921875c-4.085938 4.351563-5.195313 10.710938-2.824219 16.1875 2.371094 5.476563 7.765625 9.023438 13.734375 9.023438h46.140625c8.261719 0 14.964844-6.699219 14.964844-14.964844s-6.703125-14.96875-14.96875-14.96875zm0 0" fill="#ff6e6e"/><path d="m187.402344 295.164062v-279.699218c0-8.265625-6.699219-14.964844-14.964844-14.964844-8.261719 0-14.964844 6.699219-14.964844 14.964844v294.664062c0 4.164063 1.703125 7.925782 4.445313 10.636719l25.605469-25.601563zm0 0" fill="#4dc979"/><path d="m122.105469 47.59375c-5.84375-5.84375-15.320313-5.84375-21.164063 0l-13.226562 13.226562-13.226563-13.226562c-5.84375-5.84375-15.320312-5.84375-21.164062 0s-5.84375 15.320312 0 21.164062l19.425781 19.425782v25.316406c0 8.265625 6.699219 14.964844 14.964844 14.964844s14.964844-6.699219 14.964844-14.964844v-25.316406l19.425781-19.425782c5.84375-5.84375 5.84375-15.320312 0-21.164062zm0 0" fill="#4dc979"/><path d="m303.832031 193.699219h-185.863281c-6.050781 0-11.507812-3.644531-13.824219-9.238281-2.316406-5.59375-1.035156-12.03125 3.242188-16.308594l54.46875-54.46875c2.808593-2.808594 6.613281-4.382813 10.582031-4.382813h185.863281c6.050781 0 11.507813 3.644531 13.824219 9.238281 2.316406 5.589844 1.035156 12.027344-3.242188 16.308594l-54.46875 54.46875c-2.804687 2.804688-6.613281 4.382813-10.582031 4.382813zm0 0" fill="#ffff95"/><path d="m358.300781 109.300781h-149.753906v84.398438h95.285156c3.96875 0 7.773438-1.574219 10.582031-4.382813l54.46875-54.46875c4.277344-4.28125 5.558594-10.714844 3.242188-16.308594-2.3125-5.59375-7.769531-9.238281-13.824219-9.238281zm0 0" fill="#fff566"/><path d="m288.867188 193.359375v171.238281c0 6.054688 3.648437 11.507813 9.238281 13.828125 1.851562.765625 3.796875 1.136719 5.726562 1.136719 3.894531 0 7.722657-1.519531 10.582031-4.382812l54.46875-54.46875c2.808594-2.808594 4.382813-6.613282 4.382813-10.582032v-185.863281c0-4.128906-1.699219-7.980469-4.554687-10.746094zm0 0" fill="#ffb500"/><path d="m314.085938 168.152344h-206.699219c-2.707031 2.707031-4.382813 6.449218-4.382813 10.582031v185.863281c0 8.265625 6.703125 14.964844 14.96875 14.964844h185.859375c3.972657 0 7.578125-1.558594 10.253907-4.085938zm0 0" fill="#ffe645"/><path d="m208.546875 379.5625h95.285156c3.972657 0 7.574219-1.558594 10.253907-4.085938v-207.324218h-105.539063zm0 0" fill="#ffcf2c"/></svg>