<svg height="512pt" viewBox="-56 0 512 512" width="512pt" xmlns="http://www.w3.org/2000/svg"><path d="m200 512c-8.285156 0-15-6.714844-15-15v-482c0-8.285156 6.714844-15 15-15s15 6.714844 15 15v482c0 8.285156-6.714844 15-15 15zm0 0" fill="#c4c0ad"/><path d="m215 497v-482c0-8.285156-6.714844-15-15-15v512c8.285156 0 15-6.714844 15-15zm0 0" fill="#a19d8d"/><path d="m305 199.542969h-210c-22.089844 0-40-17.910157-40-40v-50c0-22.09375 17.910156-40 40-40h210c22.089844 0 40 17.90625 40 40v50c0 22.089843-17.910156 40-40 40zm0 0" fill="#4dc979"/><path d="m305 69.542969h-105v130h105c22.089844 0 40-17.910157 40-40v-50c0-22.09375-17.910156-40-40-40zm0 0" fill="#21b572"/><path d="m360 438.511719h-320c-22.089844 0-40-17.910157-40-40v-80c0-22.09375 17.910156-40 40-40h320c22.089844 0 40 17.90625 40 40v80c0 22.089843-17.910156 40-40 40zm0 0" fill="#d9260f"/><path d="m360 278.511719h-160.261719v160h160.261719c22.089844 0 40-17.910157 40-40v-80c0-22.09375-17.910156-40-40-40zm0 0" fill="#b80f00"/><g fill="#ff6e57"><path d="m87.308594 278.511719-87.308594 87.308593v32.691407c0 3.007812.34375 5.9375.972656 8.761719l128.761719-128.761719zm0 0"/><path d="m172.914062 278.511719-153.992187 153.992187c6.121094 3.804688 13.339844 6.007813 21.078125 6.007813h15.34375l160-160zm0 0"/><path d="m140.949219 438.511719 160-160h-42.425781l-160 160zm0 0"/><path d="m226.554688 438.511719 154.203124-154.203125c-6.054687-3.679688-13.15625-5.796875-20.757812-5.796875h-15.871094l-160 160zm0 0"/></g><path d="m312.164062 438.511719 87.835938-87.839844v-32.160156c0-3.164063-.378906-6.238281-1.074219-9.191407l-129.1875 129.191407zm0 0" fill="#f2472c"/><path d="m344.128906 278.511719-144.128906 144.128906v15.871094h26.554688l154.203124-154.199219c-6.054687-3.679688-13.15625-5.800781-20.757812-5.800781zm0 0" fill="#f2472c"/><path d="m200 379.460938 100.949219-100.949219h-42.425781l-58.523438 58.523437zm0 0" fill="#f2472c"/><path d="m200 293.851562 15.34375-15.339843h-15.34375zm0 0" fill="#f2472c"/></svg>