<svg height="512pt" viewBox="-19 0 512 512" width="512pt" xmlns="http://www.w3.org/2000/svg"><path d="m458.507812 512h-385.007812c-8.285156 0-15-6.714844-15-15v-482c0-8.285156 6.714844-15 15-15h264.984375l135.023437 135.015625v361.984375c0 8.285156-6.714843 15-15 15zm0 0" fill="#d1f7ff"/><path d="m266.003906 0v512h192.503906c8.285157 0 15-6.714844 15-15v-361.984375l-135.023437-135.015625zm0 0" fill="#a3efff"/><path d="m338.484375 0v120.007812c0 8.285157 6.71875 15 15 15h120.019531zm0 0" fill="#6ad9eb"/><path d="m15 216.089844h332.003906v183.023437h-332.003906zm0 0" fill="#ffe645"/><path d="m183.492188 216.089844h163.511718v183.023437h-163.511718zm0 0" fill="#ffc12e"/><path d="m347.003906 414.113281h-332.003906c-8.285156 0-15-6.714843-15-15v-183.023437c0-8.28125 6.714844-15 15-15h332.003906c8.285156 0 15 6.71875 15 15v183.023437c0 8.285157-6.714844 15-15 15zm-317.003906-30h302.003906v-153.023437h-302.003906zm0 0" fill="#a19d8d"/><path d="m347.003906 201.089844h-163.511718v30h148.511718v153.023437h-148.511718v30h163.511718c8.285156 0 15-6.714843 15-15v-183.023437c0-8.28125-6.714844-15-15-15zm0 0" fill="#696453"/><path d="m60.773438 264.34375c0-3.5 3.21875-6.578125 8.121093-6.578125h28.976563c18.480468 0 33.042968 8.679687 33.042968 32.199219v.699218c0 23.523438-15.121093 32.480469-34.441406 32.480469h-13.859375v30.242188c0 4.476562-5.460937 6.71875-10.917969 6.71875-5.460937 0-10.921874-2.238281-10.921874-6.71875zm21.839843 12.460938v29.542968h13.859375c7.839844 0 12.601563-4.480468 12.601563-14v-1.542968c0-9.519532-4.761719-14-12.601563-14zm0 0" fill="#787465"/><path d="m192.375 354.226562-26.601562-48.441406v47.601563c0 4.480469-5.460938 6.71875-10.921876 6.71875-5.457031 0-10.917968-2.238281-10.917968-6.71875v-88.902344c0-4.621094 5.460937-6.71875 10.917968-6.71875 7.839844 0 10.78125.699219 16.101563 10.917969l22.679687 43.261718v-47.601562c0-4.617188 5.460938-6.578125 10.921876-6.578125 5.460937 0 10.917968 1.960937 10.917968 6.578125v89.042969c0 4.480469-5.457031 6.71875-10.917968 6.71875-5.042969 0-9.519532-.976563-12.179688-5.878907zm0 0" fill="#787465"/><g fill="#4c4a40"><path d="m267.414062 276.804688c-7.980468 0-12.601562 4.480468-12.601562 14v37.101562c0 9.519531 4.621094 14 12.460938 14 7.839843 0 12.601562-4.480469 12.601562-14v-4.761719h-8.261719c-4.199219 0-6.582031-4.058593-6.582031-8.398437 0-4.0625 2.382812-8.398438 6.582031-8.398438h23.519531c4.199219 0 6.582032 3.21875 6.582032 6.859375v14.699219c0 24.078125-15.121094 33.039062-34.441406 33.039062-19.320313 0-34.300782-8.960937-34.300782-33.039062v-37.101562c0-24.078126 15.261719-33.039063 33.601563-33.039063 20.019531 0 35.140625 10.078125 35.140625 27.859375 0 8.398438-3.5 10.359375-10.921875 10.359375-5.878907 0-10.777344-1.539063-10.917969-6.578125s-.5625-12.601562-12.460938-12.601562zm0 0"/><path d="m204.554688 257.765625c-5.460938 0-10.921876 1.960937-10.921876 6.578125v47.601562l-10.140624-19.339843v45.449219l8.882812 16.171874c2.660156 4.898438 7.140625 5.878907 12.179688 5.878907 5.460937 0 10.917968-2.238281 10.917968-6.71875v-89.042969c0-4.617188-5.460937-6.578125-10.917968-6.578125zm0 0"/></g></svg>