<svg id="Capa_1" enable-background="new 0 0 512 512" height="512" viewBox="0 0 512 512" width="512" xmlns="http://www.w3.org/2000/svg"><path d="m256 66.473c-8.8 0-15.934 7.134-15.934 15.934v347.187c0 8.8 7.134 15.934 15.934 15.934s15.934-7.134 15.934-15.934v-347.187c0-8.8-7.134-15.934-15.934-15.934z" fill="#ffa34c"/><path d="m258.439 132.3h-4.878c-19.013 0-34.426-15.413-34.426-34.426v-63.448c0-19.013 15.413-34.426 34.426-34.426h4.878c19.013 0 34.426 15.413 34.426 34.426v63.448c0 19.013-15.413 34.426-34.426 34.426z" fill="#f2f4f7"/><path d="m258.439 0h-2.439v132.3h2.439c19.013 0 34.426-15.413 34.426-34.426v-63.448c0-19.013-15.413-34.426-34.426-34.426z" fill="#c7e7ff"/><path d="m258.439 512h-4.878c-19.013 0-34.426-15.413-34.426-34.426v-63.448c0-19.013 15.413-34.426 34.426-34.426h4.878c19.013 0 34.426 15.413 34.426 34.426v63.448c0 19.013-15.413 34.426-34.426 34.426z" fill="#f2f4f7"/><path d="m258.439 379.7h-2.439v132.3h2.439c19.013 0 34.426-15.413 34.426-34.426v-63.448c0-19.013-15.413-34.426-34.426-34.426z" fill="#c7e7ff"/></svg>