<svg id="Capa_1" enable-background="new 0 0 512 512" height="512" viewBox="0 0 512 512" width="512" xmlns="http://www.w3.org/2000/svg"><path d="m360.995 493.271c-41.685 0-75.599-33.913-75.599-75.598v-45.747c0-6.684-5.438-12.121-12.122-12.121s-12.121 5.438-12.121 12.121v58.12c0 34.863-28.363 63.225-63.226 63.225s-63.225-28.363-63.225-63.225v-179.745c0-8.8 7.134-15.934 15.934-15.934s15.934 7.134 15.934 15.934v179.745c0 17.291 14.067 31.358 31.358 31.358s31.358-14.067 31.358-31.358v-58.12c0-24.255 19.733-43.989 43.989-43.989s43.989 19.733 43.989 43.989v45.747c0 24.113 19.618 43.731 43.731 43.731s43.731-19.618 43.731-43.731v-95.72c0-8.8 7.134-15.934 15.934-15.934s15.934 7.134 15.934 15.934v95.72c-.001 41.684-33.914 75.598-75.599 75.598z" fill="#69a5ff"/><circle cx="420.66" cy="232.613" fill="#c7e7ff" r="91.34"/><path d="m512 232.613c0 50.446-40.894 91.34-91.34 91.34v-182.681c50.446 0 91.34 40.895 91.34 91.341z" fill="#8dc4eb"/><path d="m265.496 88.281c-5.727 0-11.134-1.353-15.934-3.745v42.617c0 54.548-44.378 98.926-98.926 98.926s-98.926-44.377-98.926-98.925v-42.618c-4.799 2.392-10.207 3.745-15.934 3.745s-11.134-1.353-15.934-3.745v42.617c0 72.12 58.674 130.794 130.794 130.794s130.794-58.674 130.794-130.794v-42.617c-4.8 2.392-10.208 3.745-15.934 3.745z" fill="#f2f4f7"/><path d="m265.496 88.281c-5.727 0-11.134-1.353-15.934-3.745v42.617c0 54.548-44.378 98.926-98.926 98.926v31.867c72.12 0 130.794-58.674 130.794-130.794v-42.616c-4.8 2.392-10.208 3.745-15.934 3.745z" fill="#c7e7ff"/><circle cx="420.66" cy="232.613" fill="#f2f4f7" r="35.776"/><path d="m456.436 232.613c0 19.758-16.017 35.776-35.776 35.776v-71.552c19.758 0 35.776 16.017 35.776 35.776z" fill="#c7e7ff"/><circle cx="35.776" cy="54.505" fill="#ffc573" r="35.776"/><path d="m71.552 54.505c0 19.758-16.017 35.776-35.776 35.776v-71.552c19.758 0 35.776 16.018 35.776 35.776z" fill="#ffa34c"/><circle cx="265.496" cy="54.505" fill="#ffc573" r="35.776"/><path d="m301.272 54.505c0 19.758-16.017 35.776-35.776 35.776v-71.552c19.758 0 35.776 16.018 35.776 35.776z" fill="#ffa34c"/></svg>