<svg id="Capa_1" enable-background="new 0 0 512 512" height="512" viewBox="0 0 512 512" width="512" xmlns="http://www.w3.org/2000/svg"><path d="m256 512c-8.284 0-15-6.716-15-15v-65.708c0-8.284 6.716-15 15-15s15 6.716 15 15v65.708c0 8.284-6.716 15-15 15z" fill="#f2f4f7"/><path d="m315.704 512h-119.408c-8.284 0-15-6.716-15-15s6.716-15 15-15h119.408c8.284 0 15 6.716 15 15s-6.716 15-15 15z" fill="#a3d3ff"/><path d="m315.704 482h-59.704v30h59.704c8.284 0 15-6.716 15-15s-6.716-15-15-15z" fill="#69a5ff"/><path d="m256 15v131.623" fill="#f2f4f7"/><path d="m256 157.623c-8.284 0-15-6.716-15-15v-127.623c0-8.284 6.716-15 15-15s15 6.716 15 15v127.623c0 8.284-6.716 15-15 15z" fill="#f2f4f7"/><path d="m288.946 216.514h-65.892c-8.284 0-15-6.716-15-15v-54.891c0-8.284 6.716-15 15-15h65.892c8.284 0 15 6.716 15 15v54.891c0 8.284-6.716 15-15 15z" fill="#a3d3ff"/><path d="m288.946 131.623h-32.946v84.891h32.946c8.284 0 15-6.716 15-15v-54.891c0-8.284-6.716-15-15-15z" fill="#69a5ff"/><path d="m343.343 446.304v-214.79c0-24.813-20.187-45-45-45h-84.687c-24.813 0-45 20.187-45 45v214.79z" fill="#f2f4f7"/><path d="m298.343 186.514h-42.343v259.79h87.343v-214.79c0-24.813-20.187-45-45-45z" fill="#c7e7ff"/><g fill="#8dc4eb"><path d="m279.503 242.202c-8.284 0-15 6.716-15 15s6.716 15 15 15h63.84v-30z"/><path d="m279.503 301.403c-8.284 0-15 6.716-15 15s6.716 15 15 15h63.84v-30z"/><path d="m279.503 360.604c-8.284 0-15 6.716-15 15s6.716 15 15 15h63.84v-30z"/></g><path d="m360.332 356.292c-25.916 0-47 21.084-47 47 0 5.994 1.14 11.724 3.195 17h-121.048c2.052-5.273 3.19-10.998 3.19-16.988 0-25.916-21.084-47-47-47s-47 21.084-47 47 21.084 47 47 47c.161 0 .32-.011.481-.012h208.182c25.916 0 47-21.084 47-47s-21.084-47-47-47zm-208.664 30.012c9.374 0 17 7.626 17 17 0 9.293-7.497 16.857-16.759 16.988h-.241c-.041 0-.08.006-.121.006-9.318-.066-16.879-7.661-16.879-16.994 0-9.374 7.626-17 17-17zm208.664 33.988c-9.374 0-17-7.626-17-17s7.626-17 17-17 17 7.626 17 17-7.626 17-17 17z" fill="#a3d3ff"/><path d="m360.332 356.292c-25.916 0-47 21.084-47 47 0 5.994 1.14 11.724 3.195 17h-60.527v30h104.332c25.916 0 47-21.084 47-47s-21.084-47-47-47zm0 64c-9.374 0-17-7.626-17-17s7.626-17 17-17 17 7.626 17 17-7.626 17-17 17z" fill="#69a5ff"/></svg>