<svg id="Capa_1" enable-background="new 0 0 512 512" height="512" viewBox="0 0 512 512" width="512" xmlns="http://www.w3.org/2000/svg"><path d="m256 71.145c-8.284 0-15-6.716-15-15v-41.145c0-8.284 6.716-15 15-15s15 6.716 15 15v41.145c0 8.284-6.716 15-15 15z" fill="#8dc4eb"/><path d="m69.825 139.554h380.299v372.446h-380.299z" fill="#505459"/><path d="m256 139.554h194.123v372.446h-194.123z" fill="#34373b"/><path d="m480.854 512h-77.356c-8.284 0-15-6.716-15-15v-280.814l-132.498-57.775-132.497 57.775v280.814c0 8.284-6.716 15-15 15h-77.357c-8.284 0-15-6.716-15-15v-315.967c0-21.354 12.648-40.667 32.222-49.204l186.176-81.182c13.636-5.945 29.276-5.945 42.911 0l186.176 81.183c19.575 8.536 32.223 27.85 32.223 49.204v315.966c0 8.284-6.716 15-15 15z" fill="#ff5b6e"/><path d="m463.631 131.829-186.176-81.183c-6.817-2.972-14.136-4.458-21.455-4.458v112.223l132.497 57.775v280.814c0 8.284 6.716 15 15 15h77.356c8.284 0 15-6.716 15-15v-315.967c.001-21.354-12.647-40.668-32.222-49.204z" fill="#db2e43"/><path d="m323.535 180.473h-135.07c-8.284 0-15-6.716-15-15v-120.79c0-8.284 6.716-15 15-15h135.07c8.284 0 15 6.716 15 15v120.79c0 8.284-6.716 15-15 15z" fill="#f2f4f7"/><path d="m323.535 29.683h-67.535v150.79h67.535c8.284 0 15-6.716 15-15v-120.79c0-8.284-6.716-15-15-15z" fill="#c7e7ff"/><path d="m256 84.995v44.473" fill="#fff"/><path d="m278.237 92.231h-7.237v-7.236c0-8.284-6.716-15-15-15s-15 6.716-15 15v7.236h-7.237c-8.284 0-15 6.716-15 15s6.716 15 15 15h7.237v7.237c0 8.284 6.716 15 15 15s15-6.716 15-15v-7.237h7.237c8.284 0 15-6.716 15-15s-6.716-15-15-15z" fill="#ff5b6e"/><path d="m278.237 92.231h-7.237v-7.236c0-8.284-6.716-15-15-15v74.473c8.284 0 15-6.716 15-15v-7.237h7.237c8.284 0 15-6.716 15-15s-6.716-15-15-15z" fill="#db2e43"/></svg>