<svg id="Capa_1" enable-background="new 0 0 512 512" height="512" viewBox="0 0 512 512" width="512" xmlns="http://www.w3.org/2000/svg"><path d="m392.235 375.765h-272.47c-66.038 0-119.765-53.726-119.765-119.765s53.727-119.765 119.765-119.765h272.471c66.037 0 119.764 53.726 119.764 119.765s-53.727 119.765-119.765 119.765z" fill="#f2f4f7"/><path d="m392.235 375.765h-272.47c-66.038 0-119.765-53.726-119.765-119.765h512c0 66.039-53.727 119.765-119.765 119.765z" fill="#c7e7ff"/><path d="m392.235 375.765h-136.235v-239.53h136.235c66.038 0 119.765 53.726 119.765 119.765s-53.727 119.765-119.765 119.765z" fill="#ff5b6e"/><path d="m392.235 375.765h-136.235v-119.765h256c0 66.039-53.727 119.765-119.765 119.765z" fill="#db2e43"/></svg>