<svg id="Capa_1" enable-background="new 0 0 512 512" height="512" viewBox="0 0 512 512" width="512" xmlns="http://www.w3.org/2000/svg"><path d="m426.405 512h-340.81c-8.284 0-15-6.716-15-15v-482c0-8.284 6.716-15 15-15h340.811c8.284 0 15 6.716 15 15v482c-.001 8.284-6.717 15-15.001 15z" fill="#f2f4f7"/><path d="m426.405 0h-170.405v512h170.405c8.284 0 15-6.716 15-15v-482c0-8.284-6.716-15-15-15z" fill="#c7e7ff"/><path d="m359.551 441.407h-87.759c-8.284 0-15-6.716-15-15s6.716-15 15-15h87.759c8.284 0 15 6.716 15 15s-6.716 15-15 15z" fill="#505459"/><path d="m152.449 104.708h207.102c8.284 0 15-6.716 15-15s-6.716-15-15-15h-207.102c-8.284 0-15 6.716-15 15s6.716 15 15 15z" fill="#505459"/><path d="m359.551 74.708h-103.551v30h103.551c8.284 0 15-6.716 15-15s-6.716-15-15-15z" fill="#34373b"/><path d="m152.449 169.023h207.102c8.284 0 15-6.716 15-15s-6.716-15-15-15h-207.102c-8.284 0-15 6.716-15 15s6.716 15 15 15z" fill="#505459"/><path d="m359.551 139.023h-103.551v30h103.551c8.284 0 15-6.716 15-15s-6.716-15-15-15z" fill="#34373b"/><path d="m152.449 233.338h207.102c8.284 0 15-6.716 15-15s-6.716-15-15-15h-207.102c-8.284 0-15 6.716-15 15s6.716 15 15 15z" fill="#505459"/><path d="m359.551 203.338h-103.551v30h103.551c8.284 0 15-6.716 15-15s-6.716-15-15-15z" fill="#34373b"/><path d="m152.449 297.653h207.102c8.284 0 15-6.716 15-15s-6.716-15-15-15h-207.102c-8.284 0-15 6.716-15 15s6.716 15 15 15z" fill="#505459"/><path d="m359.551 267.653h-103.551v30h103.551c8.284 0 15-6.716 15-15s-6.716-15-15-15z" fill="#34373b"/><path d="m152.449 361.968h207.102c8.284 0 15-6.716 15-15s-6.716-15-15-15h-207.102c-8.284 0-15 6.716-15 15s6.716 15 15 15z" fill="#505459"/><path d="m359.551 331.968h-103.551v30h103.551c8.284 0 15-6.716 15-15s-6.716-15-15-15z" fill="#34373b"/></svg>