<svg id="Capa_1" enable-background="new 0 0 512 512" height="512" viewBox="0 0 512 512" width="512" xmlns="http://www.w3.org/2000/svg"><path d="m325.387 141.416h-9.125v-60.412c0-8.284-6.716-15-15-15h-90.523c-8.284 0-15 6.716-15 15v60.412h-9.125c-24.813 0-45 20.187-45 45v46.503l11.001 5.747v173.667l-11.001 8.162v15.397 61.108c0 8.284 6.716 15 15 15h198.774c8.284 0 15-6.716 15-15v-61.108-15.397l-11.001-7.495v-171.5l11.001-8.58v-46.503c-.001-24.814-20.188-45.001-45.001-45.001z" fill="#ffa34c"/><path d="m325.387 141.416h-9.125v-60.412c0-8.284-6.716-15-15-15h-45.262v445.996h99.387c8.284 0 15-6.716 15-15v-76.503l-11.001-9.17v-170.179l11.001-8.228v-46.504c0-24.813-20.187-45-45-45z" fill="#f08546"/><path d="m141.613 232.92h228.774v187.576h-228.774z" fill="#f2f4f7"/><path d="m256 232.92h114.387v187.576h-114.387z" fill="#c7e7ff"/><path d="m334.448 0h-156.896c-8.284 0-15 6.716-15 15v66.004c0 8.284 6.716 15 15 15h156.896c8.284 0 15-6.716 15-15v-66.004c0-8.284-6.716-15-15-15z" fill="#85d7ed"/><path d="m334.448 0h-78.448v96.004h78.448c8.284 0 15-6.716 15-15v-66.004c0-8.284-6.716-15-15-15z" fill="#48b6d4"/></svg>