<svg id="Capa_1" enable-background="new 0 0 512.001 512.001" height="512" viewBox="0 0 512.001 512.001" width="512" xmlns="http://www.w3.org/2000/svg"><path d="m309.72 108.582c0-3.491-1.218-6.873-3.444-9.563l-77.439-93.581c-4.032-4.873-10.687-6.693-16.638-4.55s-9.918 7.788-9.918 14.113v188.466h107.439z" fill="#f2f4f7"/><path d="m306.276 99.019-50.276-60.756v165.203h53.72v-94.885c0-3.49-1.218-6.872-3.444-9.562z" fill="#c7e7ff"/><path d="m202.281 203.466v254.815c0 29.621 24.099 53.72 53.72 53.72s53.72-24.099 53.72-53.72v-254.815z" fill="#ffa34c"/><path d="m256 203.466v308.534c29.621 0 53.72-24.099 53.72-53.72v-254.814z" fill="#f08546"/><path d="m315.412 271.765h-118.823c-8.284 0-15-6.716-15-15v-87.185c0-8.284 6.716-15 15-15h118.822c8.284 0 15 6.716 15 15v87.186c.001 8.284-6.715 14.999-14.999 14.999z" fill="#85d7ed"/><path d="m315.412 154.58h-59.412v117.186h59.411c8.284 0 15-6.716 15-15v-87.186c.001-8.284-6.715-15-14.999-15z" fill="#48b6d4"/></svg>