<svg id="Capa_1" enable-background="new 0 0 512 512" height="512" viewBox="0 0 512 512" width="512" xmlns="http://www.w3.org/2000/svg"><path d="m282.912 236.814v-38.371c0-8.534-6.918-15.453-15.453-15.453h-22.918c-8.534 0-15.453 6.918-15.453 15.453v38.371h-38.371c-8.534 0-15.453 6.918-15.453 15.453v22.918c0 8.534 6.918 15.453 15.453 15.453h38.371v38.371c0 8.534 6.918 15.453 15.453 15.453h22.918c8.534 0 15.453-6.918 15.453-15.453v-38.371h38.371c8.534 0 15.453-6.918 15.453-15.453v-22.918c0-8.534-6.918-15.453-15.453-15.453z" fill="#ff5b6e"/><path d="m321.283 236.814h-38.371v-38.371c0-8.534-6.918-15.453-15.453-15.453h-11.459v161.472h11.459c8.534 0 15.453-6.918 15.453-15.453v-38.371h38.371c8.534 0 15.453-6.918 15.453-15.453v-22.918c0-8.534-6.919-15.453-15.453-15.453z" fill="#db2e43"/><path d="m256 482.357h-55.218c-69.004 0-125.143-56.139-125.143-125.143v-176.853c0-99.452 80.909-180.361 180.361-180.361s180.361 80.909 180.361 180.361v73.07c0 8.534-6.919 15.453-15.453 15.453s-15.453-6.918-15.453-15.453v-73.07c0-82.41-67.046-149.455-149.456-149.455s-149.455 67.045-149.455 149.455v176.854c0 51.963 42.275 94.237 94.237 94.237h55.219c8.534 0 15.453 6.918 15.453 15.453s-6.919 15.452-15.453 15.452z" fill="#f2f4f7"/><path d="m256 0v30.905c82.41 0 149.456 67.045 149.456 149.455v73.07c0 8.534 6.918 15.453 15.453 15.453s15.453-6.918 15.453-15.453v-73.07c-.001-99.451-80.91-180.36-180.362-180.36z" fill="#c7e7ff"/><path d="m435.543 172.79h-14.634c-8.534 0-15.453 6.919-15.453 15.453v140.933c0 8.534 6.918 15.453 15.453 15.453h14.634c39.131 0 70.966-31.836 70.966-70.966v-29.906c0-39.132-31.835-70.967-70.966-70.967z" fill="#4d86db"/><path d="m91.092 172.79h-14.635c-39.131 0-70.966 31.835-70.966 70.966v29.906c0 39.131 31.835 70.966 70.966 70.966h14.634c8.534 0 15.453-6.919 15.453-15.453v-140.933c0-8.534-6.918-15.452-15.452-15.452z" fill="#69a5ff"/><circle cx="282.652" cy="466.904" fill="#505459" r="45.096"/><path d="m327.747 466.904c0 24.906-20.19 45.096-45.096 45.096v-90.191c24.906 0 45.096 20.19 45.096 45.095z" fill="#34373b"/></svg>