<svg id="Capa_1" enable-background="new 0 0 512 512" height="512" viewBox="0 0 512 512" width="512" xmlns="http://www.w3.org/2000/svg"><path d="m261.717 0h-11.435c-8.233 0-15.02 6.454-15.433 14.676l-6.473 128.692h55.247l-6.473-128.692c-.413-8.222-7.2-14.676-15.433-14.676z" fill="#ffa34c"/><path d="m256 143.368h27.624l-6.474-128.692c-.413-8.222-7.2-14.676-15.433-14.676h-5.717z" fill="#f08546"/><path d="m306.135 127.915h-100.27c-8.534 0-15.453 6.919-15.453 15.453v78.856c0 8.534 6.919 15.453 15.453 15.453h100.271c8.534 0 15.453-6.919 15.453-15.453v-78.856c-.001-8.534-6.919-15.453-15.454-15.453z" fill="#85d7ed"/><path d="m306.135 127.915h-50.135v109.762h50.135c8.534 0 15.453-6.919 15.453-15.453v-78.856c0-8.534-6.918-15.453-15.453-15.453z" fill="#48b6d4"/><circle cx="256" cy="348.293" fill="#f2f4f7" r="163.707"/><path d="m419.707 348.293c0 90.413-73.294 163.707-163.707 163.707v-327.415c90.413 0 163.707 73.294 163.707 163.708z" fill="#c7e7ff"/><path d="m416.848 317.798h-321.696c-1.87 9.884-2.86 20.075-2.86 30.494s.99 20.61 2.86 30.494h321.696c1.87-9.884 2.86-20.075 2.86-30.494s-.99-20.61-2.86-30.494z" fill="#69a5ff"/><path d="m416.848 317.798h-160.848v60.988h160.848c1.87-9.884 2.86-20.075 2.86-30.494s-.99-20.61-2.86-30.494z" fill="#4d86db"/></svg>