<svg id="Capa_1" enable-background="new 0 0 512 512" height="512" viewBox="0 0 512 512" width="512" xmlns="http://www.w3.org/2000/svg"><path d="m295.766 145.509v-130.509c0-8.284-6.716-15-15-15h-49.532c-8.284 0-15 6.716-15 15v130.509z" fill="#a3d3ff"/><path d="m280.766 0h-24.766v145.509h39.766v-130.509c0-8.284-6.716-15-15-15z" fill="#4d86db"/><path d="m298.343 97.55h-84.687c-24.813 0-45 20.187-45 45v286.742c0 8.284 6.716 15 15 15h144.687c8.284 0 15-6.716 15-15v-286.742c0-24.813-20.187-45-45-45z" fill="#f2f4f7"/><path d="m298.343 97.55h-42.343v346.742h72.343c8.284 0 15-6.716 15-15v-286.742c0-24.813-20.187-45-45-45z" fill="#c7e7ff"/><path d="m240.547 437.449h30.905v53.46h-30.905z" fill="#f2f4f7"/><path d="m317.506 481.095h-123.012c-8.534 0-15.453 6.919-15.453 15.453s6.919 15.453 15.453 15.453h123.012c8.534 0 15.453-6.919 15.453-15.453 0-8.535-6.919-15.453-15.453-15.453z" fill="#a3d3ff"/><path d="m317.506 481.095h-61.506v30.905h61.506c8.534 0 15.453-6.919 15.453-15.453s-6.919-15.452-15.453-15.452z" fill="#69a5ff"/><g fill="#8dc4eb"><path d="m280.212 219.759c-8.534 0-15.453 6.919-15.453 15.453s6.919 15.453 15.453 15.453h63.131v-30.905h-63.131z"/><path d="m280.212 158.771c-8.534 0-15.453 6.919-15.453 15.453s6.919 15.453 15.453 15.453h63.131v-30.905h-63.131z"/><path d="m280.212 280.747c-8.534 0-15.453 6.919-15.453 15.453s6.919 15.453 15.453 15.453h63.131v-30.905h-63.131z"/><path d="m280.212 341.735c-8.534 0-15.453 6.919-15.453 15.453s6.919 15.453 15.453 15.453h63.131v-30.905h-63.131z"/></g><path d="m362.313 416.292h-212.625c-8.284 0-15 6.716-15 15s6.716 15 15 15h212.625c8.284 0 15-6.716 15-15s-6.716-15-15-15z" fill="#a3d3ff"/><path d="m362.313 416.292h-106.313v30h106.313c8.284 0 15-6.716 15-15s-6.716-15-15-15z" fill="#69a5ff"/></svg>