<svg id="Capa_1" enable-background="new 0 0 512 512" height="512" viewBox="0 0 512 512" width="512" xmlns="http://www.w3.org/2000/svg"><path d="m256 512c-8.284 0-15-6.716-15-15v-83.301c0-8.284 6.716-15 15-15s15 6.716 15 15v83.301c0 8.284-6.716 15-15 15z" fill="#8dc4eb"/><path d="m289.649 0h-67.298c-24.813 0-45 20.187-45 45v305.05c0 43.367 35.282 78.649 78.649 78.649s78.649-35.282 78.649-78.649v-305.05c0-24.813-20.187-45-45-45z" fill="#f2f4f7"/><path d="m289.649 0h-33.649v428.699c43.367 0 78.649-35.282 78.649-78.649v-305.05c0-24.813-20.187-45-45-45z" fill="#c7e7ff"/><path d="m256 367.979c-8.284 0-15-6.716-15-15v-277.258c0-8.284 6.716-15 15-15s15 6.716 15 15v277.258c0 8.284-6.716 15-15 15z" fill="#ff5b6e"/><path d="m256 367.979v-307.258c8.284 0 15 6.716 15 15v277.258c0 8.284-6.716 15-15 15z" fill="#db2e43"/><path d="m268.21 258.95h-24.42c-8.284 0-15-6.716-15-15s6.716-15 15-15h24.42c8.284 0 15 6.716 15 15s-6.716 15-15 15z" fill="#c7e7ff"/><path d="m268.21 318.151h-24.42c-8.284 0-15-6.716-15-15s6.716-15 15-15h24.42c8.284 0 15 6.716 15 15s-6.716 15-15 15z" fill="#c7e7ff"/><path d="m268.21 140.547h-24.42c-8.284 0-15-6.716-15-15s6.716-15 15-15h24.42c8.284 0 15 6.716 15 15s-6.716 15-15 15z" fill="#c7e7ff"/><path d="m268.21 199.749h-24.42c-8.284 0-15-6.716-15-15s6.716-15 15-15h24.42c8.284 0 15 6.716 15 15s-6.716 15-15 15z" fill="#c7e7ff"/><g fill="#8dc4eb"><path d="m268.21 258.95c8.284 0 15-6.716 15-15s-6.716-15-15-15h-12.21v30z"/><path d="m268.21 318.151c8.284 0 15-6.716 15-15s-6.716-15-15-15h-12.21v30z"/><path d="m268.21 140.547c8.284 0 15-6.716 15-15s-6.716-15-15-15h-12.21v30z"/><path d="m268.21 199.749c8.284 0 15-6.716 15-15s-6.716-15-15-15h-12.21v30z"/></g></svg>