<svg id="Capa_1" enable-background="new 0 0 512 512" height="512" viewBox="0 0 512 512" width="512" xmlns="http://www.w3.org/2000/svg"><path d="m301.57 128.912h-50.193v-44.986c0-8.284 6.716-15 15-15h20.193c8.284 0 15 6.716 15 15z" fill="#ff5b6e"/><path d="m286.57 68.926h-10.096v59.986h25.096v-44.986c0-8.284-6.716-15-15-15z" fill="#db2e43"/><path d="m508.053 243.497c-1.457-3.261-3.295-6.356-5.497-9.194l-52.265-67.375-39.97-51.526c-8.587-11.069-21.547-17.417-35.556-17.417h-329.765c-24.813 0-45 20.187-45 45v250.09c0 8.284 6.716 15 15 15h482c8.284 0 15-6.716 15-15v-131.19c0-6.344-1.373-12.628-3.947-18.388z" fill="#f2f4f7"/><path d="m508.053 243.497c-1.457-3.261-3.295-6.356-5.497-9.194l-52.265-67.375-39.97-51.526c-8.587-11.069-21.547-17.417-35.556-17.417h-118.765v310.09h241c8.284 0 15-6.716 15-15v-131.19c0-6.344-1.373-12.628-3.947-18.388z" fill="#c7e7ff"/><path d="m106.732 190.212h-6.865v-6.864c0-8.284-6.716-15-15-15s-15 6.716-15 15v6.864h-6.864c-8.284 0-15 6.716-15 15s6.716 15 15 15h6.864v6.865c0 8.284 6.716 15 15 15s15-6.716 15-15v-6.865h6.865c8.284 0 15-6.716 15-15s-6.715-15-15-15z" fill="#ff5b6e"/><circle cx="118.359" cy="393.074" fill="#505459" r="50"/><path d="m168.359 393.074c0 27.614-22.386 50-50 50v-100c27.615 0 50 22.386 50 50z" fill="#34373b"/><path d="m379.395 243.497h128.658c-1.457-3.261-3.295-6.356-5.497-9.194l-52.265-67.375h-70.896c-8.284 0-15 6.716-15 15v46.569c0 8.284 6.716 15 15 15z" fill="#69a5ff"/><path d="m219.619 243.497h80.471c8.284 0 15-6.716 15-15v-46.569c0-8.284-6.716-15-15-15h-80.471c-8.284 0-15 6.716-15 15v46.569c0 8.284 6.716 15 15 15z" fill="#a3d3ff"/><path d="m300.09 166.928h-44.09v76.569h44.09c8.284 0 15-6.716 15-15v-46.569c0-8.284-6.716-15-15-15z" fill="#69a5ff"/><circle cx="393.641" cy="393.074" fill="#505459" r="50"/><path d="m443.641 393.074c0 27.614-22.386 50-50 50v-100c27.614 0 50 22.386 50 50z" fill="#34373b"/></svg>