<svg id="Capa_1" enable-background="new 0 0 512 512" height="512" viewBox="0 0 512 512" width="512" xmlns="http://www.w3.org/2000/svg"><path d="m414.525 241.96h-69.181c-8.534 0-15.453 6.918-15.453 15.453 0 8.534 6.918 15.453 15.453 15.453h69.181c24.444 0 44.331 19.886 44.331 44.331s-19.886 44.331-44.331 44.331h-158.525v30.906h158.525c41.486 0 75.236-33.75 75.236-75.236s-33.75-75.238-75.236-75.238z" fill="#4d86db"/><path d="m314.259 389.604-30.509-375.818c-.633-7.788-7.138-13.786-14.951-13.786h-25.598c-7.813 0-14.318 5.998-14.951 13.786l-30.509 375.818c-1.502 18.508 5.988 36.807 20.036 48.949 10.616 9.177 24.19 14.23 38.223 14.23s27.607-5.054 38.224-14.23c14.047-12.143 21.537-30.441 20.035-48.949z" fill="#f2f4f7"/><path d="m314.259 389.604-30.509-375.818c-.633-7.788-7.138-13.786-14.951-13.786h-12.799v452.784c14.032 0 27.607-5.054 38.224-14.23 14.047-12.144 21.537-30.442 20.035-48.95z" fill="#c7e7ff"/><path d="m345.344 481.094h-247.869c-24.444 0-44.331-19.886-44.331-44.331s19.886-44.331 44.331-44.331h158.525v-30.906h-158.525c-41.486 0-75.236 33.75-75.236 75.236s33.75 75.238 75.236 75.238h247.87c8.534 0 15.453-6.918 15.453-15.453-.001-8.534-6.92-15.453-15.454-15.453z" fill="#69a5ff"/><path d="m345.344 481.094h-89.344v30.906h89.344c8.534 0 15.453-6.918 15.453-15.453 0-8.534-6.919-15.453-15.453-15.453z" fill="#4d86db"/></svg>