<svg id="Capa_1" enable-background="new 0 0 512 512" height="512" viewBox="0 0 512 512" width="512" xmlns="http://www.w3.org/2000/svg"><path d="m400.714 144.714c61.462 0 111.286 49.825 111.286 111.286s-49.824 111.286-111.286 111.286h-289.428c-61.462 0-111.286-49.825-111.286-111.286s49.824-111.286 111.286-111.286z" fill="#ffc2a3"/><path d="m400.714 144.714c61.462 0 111.286 49.825 111.286 111.286s-49.824 111.286-111.286 111.286h-289.428c-61.462 0-111.286-49.825-111.286-111.286s49.824-111.286 111.286-111.286z" fill="#ffc2a3"/><path d="m400.714 144.714h-144.714v222.571h144.714c61.462.001 111.286-49.824 111.286-111.285s-49.824-111.286-111.286-111.286z" fill="#f5ab98"/><g fill="#f2f4f7"><path d="m325.577 308.475h-139.154c-8.284 0-15-6.716-15-15v-74.949c0-8.284 6.716-15 15-15h139.154c8.284 0 15 6.716 15 15v74.949c0 8.284-6.715 15-15 15z"/><path d="m325.577 308.475h-139.154c-8.284 0-15-6.716-15-15v-74.949c0-8.284 6.716-15 15-15h139.154c8.284 0 15 6.716 15 15v74.949c0 8.284-6.715 15-15 15z"/><path d="m325.577 308.475h-139.154c-8.284 0-15-6.716-15-15v-74.949c0-8.284 6.716-15 15-15h139.154c8.284 0 15 6.716 15 15v74.949c0 8.284-6.715 15-15 15z"/></g><path d="m325.577 203.525h-69.577v104.949h69.577c8.284 0 15-6.716 15-15v-74.949c0-8.284-6.715-15-15-15z" fill="#c7e7ff"/></svg>