<svg id="Capa_1" enable-background="new 0 0 512 512" height="512" viewBox="0 0 512 512" width="512" xmlns="http://www.w3.org/2000/svg"><path d="m219.51 47h72.98v450h-72.98z" fill="#f2f4f7"/><path d="m256 47h36.49v450h-36.49z" fill="#c7e7ff"/><path d="m384.171 0c-8.284 0-15 6.716-15 15s6.716 15 15 15c9.374 0 17 7.626 17 17s-7.626 17-17 17-17-7.626-17-17c0-8.284-6.716-15-15-15h-192.342c-8.284 0-15 6.716-15 15 0 9.374-7.626 17-17 17s-17-7.626-17-17 7.626-17 17-17c8.284 0 15-6.716 15-15s-6.716-15-15-15c-25.916 0-47 21.084-47 47s21.084 47 47 47c20.674 0 38.272-13.416 44.546-32h167.25c6.273 18.584 23.872 32 44.546 32 25.916 0 47-21.084 47-47s-21.084-47-47-47z" fill="#ffa34c"/><path d="m384.171 0c-8.284 0-15 6.716-15 15s6.716 15 15 15c9.374 0 17 7.626 17 17s-7.626 17-17 17-17-7.626-17-17c0-8.284-6.716-15-15-15h-96.171v30h83.625c6.273 18.584 23.872 32 44.546 32 25.916 0 47-21.084 47-47s-21.084-47-47-47z" fill="#f08546"/><path d="m362.312 482h-212.625c-8.284 0-15 6.716-15 15s6.716 15 15 15h212.625c8.284 0 15-6.716 15-15s-6.715-15-15-15z" fill="#505459"/><path d="m362.312 482h-106.312v30h106.312c8.284 0 15-6.716 15-15s-6.715-15-15-15z" fill="#34373b"/></svg>