<svg id="Capa_1" enable-background="new 0 0 512 512" height="512" viewBox="0 0 512 512" width="512" xmlns="http://www.w3.org/2000/svg"><path d="m497 62.111h-482c-8.284 0-15 6.716-15 15v357.777c0 8.284 6.716 15 15 15h482c8.284 0 15-6.716 15-15v-357.777c0-8.284-6.716-15-15-15z" fill="#f2f4f7"/><g fill="#c7e7ff"><path d="m497 62.111h-241v387.777h241c8.284 0 15-6.716 15-15v-357.777c0-8.284-6.716-15-15-15z"/><circle cx="102.144" cy="191.537" r="32"/><circle cx="102.144" cy="334.26" r="32"/></g><circle cx="409.856" cy="191.537" fill="#8dc4eb" r="32"/><circle cx="409.856" cy="334.26" fill="#8dc4eb" r="32"/><path d="m312.43 118.616h-112.86c-8.284 0-15 6.716-15 15v57.921c0 8.284 6.716 15 15 15h112.86c8.284 0 15-6.716 15-15v-57.921c0-8.284-6.716-15-15-15z" fill="#a3d3ff"/><path d="m312.43 118.616h-56.43v87.921h56.43c8.284 0 15-6.716 15-15v-57.921c0-8.284-6.716-15-15-15z" fill="#69a5ff"/></svg>