<svg id="Capa_1" enable-background="new 0 0 512 512" height="512" viewBox="0 0 512 512" width="512" xmlns="http://www.w3.org/2000/svg"><path d="m172.127 406.774c-20.74 0-37.613 16.873-37.613 37.612 0 20.74 16.873 37.613 37.613 37.613s37.613-16.873 37.613-37.613c0-20.739-16.873-37.612-37.613-37.612z" fill="#fff"/><path d="m339.873 406.774c-20.74 0-37.613 16.873-37.613 37.612 0 20.74 16.873 37.613 37.613 37.613s37.613-16.873 37.613-37.613c0-20.739-16.873-37.612-37.613-37.612z" fill="#fff"/><path d="m339.873 376.774c-13.911 0-26.852 4.227-37.613 11.458v-23.508h-30v79.663c0 37.282 30.331 67.613 67.613 67.613s67.613-30.331 67.613-67.613-30.331-67.613-67.613-67.613zm0 105.226c-20.74 0-37.613-16.873-37.613-37.613 0-20.739 16.873-37.612 37.613-37.612s37.613 16.873 37.613 37.612c0 20.74-16.873 37.613-37.613 37.613z" fill="#48b6d4"/><path d="m239.74 364.724h-30v23.508c-10.761-7.231-23.702-11.458-37.613-11.458-37.282 0-67.613 30.331-67.613 67.612 0 37.282 30.331 67.613 67.613 67.613s67.613-30.331 67.613-67.613zm-67.613 117.276c-20.74 0-37.613-16.873-37.613-37.613 0-20.739 16.873-37.612 37.613-37.612s37.613 16.873 37.613 37.612c0 20.74-16.873 37.613-37.613 37.613z" fill="#85d7ed"/><path d="m302.26 387.377v-372.377c0-8.284-6.716-15-15-15h-.104c-42.688 0-77.417 34.729-77.417 77.417v309.96z" fill="#f2f4f7"/><g fill="#c7e7ff"><path d="m302.26 387.377v-372.377c0-8.284-6.716-15-15-15h-.104c-11.26 0-21.956 2.437-31.618 6.778v380.599z"/><circle cx="232.871" cy="292.053" r="15"/></g></svg>