<svg id="Capa_1" enable-background="new 0 0 498.066 498.066" height="512" viewBox="0 0 498.066 498.066" width="512" xmlns="http://www.w3.org/2000/svg"><path d="m498.066 351.546v-178.484c0-8.284-6.716-15-15-15h-45.144l-32.31 81.041-32.31-81.041h-72.315v208.484h182.079c8.284 0 15-6.716 15-15z" fill="#db9889"/><path d="m29.565 82.075h286.421v335.242h-286.421z" fill="#f2f4f7"/><path d="m171.027 82.075h144.959v335.242h-144.959z" fill="#c7e7ff"/><path d="m29.565 144.791h286.421v208.484h-286.421z" fill="#ffc2a3"/><path d="m171.027 144.791h144.959v208.484h-144.959z" fill="#f5ab98"/><path d="m329.855 401.68h-314.855c-8.284 0-15 6.716-15 15s6.716 15 15 15h314.855c8.284 0 15-6.716 15-15s-6.715-15-15-15z" fill="#a3d3ff"/><path d="m15 96.386h314.855c8.284 0 15-6.716 15-15s-6.716-15-15-15h-314.855c-8.284 0-15 6.716-15 15s6.716 15 15 15z" fill="#a3d3ff"/><g fill="#69a5ff"><path d="m329.855 401.68h-158.828v30h158.829c8.284 0 15-6.716 15-15s-6.716-15-15.001-15z"/><path d="m329.855 66.386h-158.828v30h158.829c8.284 0 15-6.716 15-15s-6.716-15-15.001-15z"/></g></svg>