<svg id="Capa_1" enable-background="new 0 0 512 512" height="512" viewBox="0 0 512 512" width="512" xmlns="http://www.w3.org/2000/svg"><path d="m240.038 124.354c-2.706-7.83-11.249-11.981-19.078-9.273l-179.44 62.055c-7.829 2.707-11.981 11.249-9.273 19.078 2.146 6.207 7.957 10.102 14.175 10.102 1.626 0 3.28-.267 4.903-.828l179.44-62.056c7.829-2.707 11.981-11.249 9.273-19.078z" fill="#f2f4f7"/><path d="m470.48 177.136-179.44-62.056c-7.828-2.708-16.372 1.444-19.078 9.273-2.708 7.829 1.444 16.371 9.273 19.078l179.44 62.056c1.623.562 3.277.828 4.903.828 6.217 0 12.029-3.896 14.175-10.102 2.709-7.828-1.443-16.37-9.273-19.077z" fill="#c7e7ff"/><path d="m467 176.312h-422c-24.813 0-45 20.187-45 45v65.718c0 61.05 49.668 110.718 110.718 110.718h49.564c44.282 0 80.308-36.026 80.308-80.309 0-8.497 6.913-15.409 15.41-15.409s15.41 6.913 15.41 15.41c0 44.282 36.025 80.308 80.308 80.308h49.564c61.05 0 110.718-49.668 110.718-110.718v-65.718c0-24.813-20.187-45-45-45z" fill="#a3d3ff"/><path d="m467 176.312h-211v125.718c8.497 0 15.41 6.913 15.41 15.41 0 44.282 36.025 80.308 80.308 80.308h49.564c61.05 0 110.718-49.668 110.718-110.718v-65.718c0-24.813-20.187-45-45-45z" fill="#69a5ff"/></svg>