<svg id="Capa_1" enable-background="new 0 0 512.001 512.001" height="512" viewBox="0 0 512.001 512.001" width="512" xmlns="http://www.w3.org/2000/svg"><path d="m511.266 396.282-22.321-68.684c-26.048-80.145-23.442-167.499 7.336-245.973 1.811-4.616 1.222-9.83-1.572-13.928s-7.434-6.549-12.393-6.549h-225.637-226.994c-4.959 0-9.599 2.451-12.393 6.549s-3.383 9.312-1.572 13.928c30.778 78.474 33.384 165.828 7.336 245.974l-22.321 68.683c-1.484 4.566-.692 9.567 2.13 13.452s7.334 6.184 12.136 6.184h241.679 240.32c4.802 0 9.313-2.299 12.136-6.184s3.614-8.886 2.13-13.452z" fill="#f2f4f7"/><path d="m511.266 396.282-22.321-68.684c-26.048-80.145-23.442-167.499 7.336-245.973 1.811-4.616 1.222-9.83-1.572-13.928s-7.434-6.549-12.393-6.549h-226.316v354.769h241c4.802 0 9.313-2.299 12.136-6.184s3.614-8.885 2.13-13.451z" fill="#c7e7ff"/><path d="m369.526 304.957h-227.051c-8.284 0-15-6.716-15-15v-102.848c0-8.284 6.716-15 15-15h227.051c8.284 0 15 6.716 15 15v102.848c0 8.285-6.716 15-15 15z" fill="#85d7ed"/><path d="m497 350.983h-482c-8.284 0-15 6.716-15 15v69.869c0 8.284 6.716 15 15 15h482c8.284 0 15-6.716 15-15v-69.869c0-8.284-6.715-15-15-15z" fill="#c7e7ff"/><path d="m497 350.983h-241v99.869h241c8.284 0 15-6.716 15-15v-69.869c0-8.284-6.715-15-15-15z" fill="#8dc4eb"/><path d="m369.526 304.957h-113.526v-132.848h113.525c8.284 0 15 6.716 15 15v102.848c.001 8.285-6.715 15-14.999 15z" fill="#48b6d4"/></svg>