<svg id="Capa_1" enable-background="new 0 0 512 512" height="512" viewBox="0 0 512 512" width="512" xmlns="http://www.w3.org/2000/svg"><path d="m408.671 512c-39.584 0-71.789-32.204-71.789-71.789v-43.542c0-6.453-5.25-11.703-11.703-11.703s-11.703 5.25-11.703 11.703v55.319c0 33.091-26.921 60.012-60.012 60.012s-60.012-26.921-60.012-60.012v-146.117c0-8.284 6.716-15 15-15s15 6.716 15 15v146.117c0 16.549 13.463 30.012 30.012 30.012s30.012-13.463 30.012-30.012v-55.319c0-22.995 18.708-41.703 41.703-41.703s41.703 18.708 41.703 41.703v43.542c0 23.043 18.747 41.789 41.789 41.789 8.284 0 15 6.716 15 15s-6.716 15-15 15z" fill="#69a5ff"/><path d="m320.94 110.801-29.857-59.727c-15.749-31.504-47.411-51.074-82.632-51.074s-66.883 19.57-82.631 51.074l-29.857 59.726c-4.994 9.989-7.634 21.173-7.634 32.341v69.028c0 39.881 32.445 72.326 72.326 72.326h95.591c39.881 0 72.326-32.445 72.326-72.326v-69.028c.001-11.168-2.639-22.351-7.632-32.34z" fill="#f2f4f7"/><path d="m320.94 110.801-29.857-59.727c-15.749-31.504-47.411-51.074-82.632-51.074v284.495h47.795c39.881 0 72.326-32.445 72.326-72.326v-69.028c.001-11.168-2.639-22.351-7.632-32.34z" fill="#c7e7ff"/><path d="m237.008 196.406h-57.113c-8.284 0-15 6.716-15 15v94.465c0 8.284 6.716 15 15 15h57.113c8.284 0 15-6.716 15-15v-94.465c0-8.284-6.716-15-15-15z" fill="#ff5b6e"/><path d="m237.008 196.406h-28.557v124.465h28.557c8.284 0 15-6.716 15-15v-94.465c0-8.284-6.716-15-15-15z" fill="#db2e43"/><g fill="#fff"><circle cx="177.731" cy="99.928" r="15"/><circle cx="177.731" cy="159.928" r="15"/><circle cx="239.171" cy="99.928" r="15"/><circle cx="239.171" cy="159.928" r="15"/></g></svg>