<svg id="Capa_1" enable-background="new 0 0 512 512" height="512" viewBox="0 0 512 512" width="512" xmlns="http://www.w3.org/2000/svg"><path d="m286.994 474.945c-37.698 0-68.368-30.67-68.368-68.368v-40.919c0-5.565-4.528-10.094-10.094-10.094s-10.094 4.528-10.094 10.094v51.986c0 31.596-25.705 57.301-57.3 57.301s-57.3-25.705-57.3-57.301v-137.313c0-8.284 6.716-15 15-15s15 6.716 15 15v137.313c0 15.054 12.247 27.301 27.3 27.301s27.3-12.247 27.3-27.301v-51.986c0-22.107 17.986-40.094 40.094-40.094s40.094 17.986 40.094 40.094v40.919c0 21.156 17.212 38.368 38.368 38.368s38.368-17.212 38.368-38.368v-126.246c0-8.284 6.716-15 15-15s15 6.716 15 15v126.246c0 37.698-30.67 68.368-68.368 68.368z" fill="#69a5ff"/><path d="m160.852 73.654h-124.029c-20.304 0-36.823 16.518-36.823 36.823v148.03c0 20.305 16.519 36.823 36.823 36.823h124.029c20.304 0 36.823-16.519 36.823-36.823v-148.03c0-20.305-16.519-36.823-36.823-36.823z" fill="#5a5a5a"/><path d="m160.852 73.654h-62.015v221.677h62.014c20.304 0 36.823-16.519 36.823-36.823v-148.03c.001-20.306-16.518-36.824-36.822-36.824z" fill="#444"/><path d="m497 37.055h-216.679c-8.284 0-15 6.716-15 15v228.275c0 8.284 6.716 15 15 15h216.679c8.284 0 15-6.716 15-15v-228.275c0-8.284-6.716-15-15-15z" fill="#f2f4f7"/><path d="m497 37.055h-108.34v258.275h108.34c8.284 0 15-6.716 15-15v-228.275c0-8.284-6.716-15-15-15z" fill="#c7e7ff"/><circle cx="416.393" cy="222.5" fill="#ffa34c" r="15"/><circle cx="459.574" cy="222.5" fill="#ff5b6e" r="15"/><path d="m91.015 136.989h-91.015v100.826h91.015c27.798 0 50.414-22.615 50.414-50.413s-22.616-50.413-50.414-50.413z" fill="#f2f4f7"/><path d="m98.837 137.599v99.606c24.096-3.77 42.591-24.666 42.591-49.803s-18.494-46.033-42.591-49.803z" fill="#c7e7ff"/><path d="m450.225 181.193h-123.129c-8.284 0-15-6.716-15-15v-67.363c0-8.284 6.716-15 15-15h123.129c8.284 0 15 6.716 15 15v67.363c0 8.284-6.716 15-15 15z" fill="#a3d3ff"/><path d="m450.225 181.193h-61.565v-97.363h61.565c8.284 0 15 6.716 15 15v67.363c0 8.284-6.716 15-15 15z" fill="#69a5ff"/></svg>