<svg id="Capa_1" enable-background="new 0 0 512 512" height="512" viewBox="0 0 512 512" width="512" xmlns="http://www.w3.org/2000/svg"><path d="m332.258 271.686c0-19.516-15.821-35.337-35.337-35.337-19.515 0-35.336 15.82-35.337 35.335v-218.202c0-17.018-13.796-30.814-30.814-30.814-14.177 0-26.11 9.578-29.702 22.613-.72 2.612-1.112 5.36-1.112 8.201v-22.668c0-17.018-13.795-30.814-30.813-30.814-17.018 0-30.814 13.796-30.814 30.814v22.669c0-3.311-.528-6.496-1.494-9.485-4.001-12.375-15.612-21.329-29.319-21.329-17.018 0-30.814 13.796-30.814 30.814v44.388c0-17.018-13.796-30.814-30.814-30.814-17.018 0-30.814 13.796-30.814 30.814v51.21 202.151c0 26.813 13.003 50.581 33.04 65.366v80.402c0 8.284 6.716 15 15 15h158.684c8.284 0 15-6.716 15-15v-60.043h12.063c46.059 0 83.397-37.338 83.397-83.397z" fill="#85d7ed"/><path d="m201.069 45.281-1.112-.317v8.518c-.001-2.841.392-5.588 1.112-8.201z" fill="#fff"/><path d="m138.329 43.571-1.494.426c.966 2.989 1.494 6.175 1.494 9.485z" fill="#fff"/><path d="" fill="none"/><path d="" fill="#85d7ed"/><path d="m201.069 45.281-1.112-.317v8.518c-.001-2.841.392-5.588 1.112-8.201z" fill="#fff"/><path d="m138.329 43.571-1.494.426c.966 2.989 1.494 6.175 1.494 9.485z" fill="#fff"/><path d="" fill="none"/><path d="m332.258 271.686c0-19.516-15.821-35.337-35.337-35.337-19.515 0-35.336 15.82-35.337 35.335v-217.483c0-17.176-14.053-31.755-31.227-31.529-13.995.184-25.732 9.702-29.288 22.61-.72 2.612-1.112 5.36-1.112 8.201v-22.669c-.001-17.018-13.796-30.814-30.814-30.814-17.018 0-30.814 13.796-30.814 30.814v22.669 458.517h83.469c8.284 0 15-6.716 15-15v-60.043h12.063c46.059 0 83.397-37.338 83.397-83.397v-8.428z" fill="#48b6d4"/><path d="m496.926 271.686c0-19.516-15.821-35.337-35.337-35.337-19.515 0-35.336 15.82-35.337 35.335v-218.202c0-17.018-13.796-30.814-30.814-30.814-14.177 0-26.11 9.578-29.702 22.613-.72 2.612-1.112 5.36-1.112 8.201v-22.668c0-17.018-13.796-30.814-30.813-30.814-17.018 0-30.814 13.796-30.814 30.814v22.669c0-3.311-.528-6.496-1.494-9.485-4.001-12.375-15.612-21.329-29.319-21.329-17.018 0-30.814 13.796-30.814 30.814v44.388c0-17.018-13.796-30.814-30.814-30.814-17.018 0-30.814 13.796-30.814 30.814v51.21 202.151c0 26.813 13.003 50.581 33.04 65.366v80.402c0 8.284 6.716 15 15 15h158.684c8.284 0 15-6.716 15-15v-60.043h12.063c46.059 0 83.397-37.338 83.397-83.397z" fill="#85d7ed"/><path d="m365.736 45.281-1.112-.317v8.518c0-2.841.393-5.588 1.112-8.201z" fill="#fff"/><path d="m302.997 43.571-1.494.426c.966 2.989 1.494 6.175 1.494 9.485z" fill="#fff"/><path d="" fill="none"/><path d="" fill="#85d7ed"/><path d="m365.736 45.281-1.112-.317v8.518c0-2.841.393-5.588 1.112-8.201z" fill="#fff"/><path d="m302.997 43.571-1.494.426c.966 2.989 1.494 6.175 1.494 9.485z" fill="#fff"/><path d="" fill="none"/><path d="m496.926 271.686c0-19.516-15.821-35.337-35.337-35.337-19.515 0-35.336 15.82-35.337 35.335v-217.482c0-17.176-14.053-31.755-31.227-31.529-13.995.184-25.732 9.702-29.288 22.61-.72 2.612-1.112 5.36-1.112 8.201v-22.67c-.001-17.018-13.797-30.814-30.814-30.814-17.018 0-30.814 13.796-30.814 30.814v22.669 458.517h83.469c8.284 0 15-6.716 15-15v-60.043h12.063c46.059 0 83.397-37.338 83.397-83.397v-8.428z" fill="#48b6d4"/></svg>