<svg id="Capa_1" enable-background="new 0 0 512 512" height="512" viewBox="0 0 512 512" width="512" xmlns="http://www.w3.org/2000/svg"><path d="m395.809 54.468h-279.618c-24.813 0-45 20.187-45 45v367.532c0 24.813 20.187 45 45 45h279.618c24.813 0 45-20.187 45-45v-367.532c0-24.814-20.187-45-45-45z" fill="#5a5a5a"/><path d="m395.809 54.468h-139.809v457.532h139.809c24.813 0 45-20.187 45-45v-367.532c0-24.814-20.187-45-45-45z" fill="#444"/><path d="m150.475 0c-8.284 0-15 6.716-15 15v43.718c0 8.284 6.716 15 15 15s15-6.716 15-15v-43.718c0-8.284-6.716-15-15-15z" fill="#f2f4f7"/><path d="m361.525 0c-8.284 0-15 6.716-15 15v43.718c0 8.284 6.716 15 15 15s15-6.716 15-15v-43.718c0-8.284-6.716-15-15-15z" fill="#c7e7ff"/><path d="m299.249 352.406v-138.344c16.862-6.03 28.962-22.167 28.962-41.076 0-24.044-19.562-43.605-43.605-43.605-10.935 0-20.943 4.047-28.605 10.72-7.662-6.673-17.671-10.72-28.605-10.72-24.044 0-43.605 19.562-43.605 43.605 0 18.909 12.1 35.046 28.962 41.076v138.345c-16.862 6.03-28.962 22.167-28.962 41.076 0 24.044 19.562 43.605 43.605 43.605 10.935 0 20.943-4.047 28.605-10.72 7.662 6.673 17.671 10.72 28.605 10.72 24.044 0 43.605-19.562 43.605-43.605 0-18.91-12.1-35.046-28.962-41.077z" fill="#f2f4f7"/><path d="m256 426.368c7.662 6.673 17.671 10.72 28.605 10.72 24.044 0 43.605-19.562 43.605-43.605 0-18.909-12.1-35.046-28.962-41.076v-138.345c16.862-6.03 28.962-22.167 28.962-41.076 0-24.044-19.562-43.605-43.605-43.605-10.935 0-20.943 4.047-28.605 10.72z" fill="#c7e7ff"/></svg>