<svg id="Capa_1" enable-background="new 0 0 512 512" height="512" viewBox="0 0 512 512" width="512" xmlns="http://www.w3.org/2000/svg"><path d="m386.84 25.298h-18.928c-8.284 0-15 6.716-15 15v265.176c0 8.284 6.716 15 15 15h68.138c8.284 0 15-6.716 15-15v-215.965c0-35.406-28.804-64.211-64.21-64.211z" fill="#c7e7ff"/><path d="m460.042 486.702h-408.084c-8.284 0-15-6.716-15-15v-147.202c0-8.284 6.716-15 15-15h408.085c8.284 0 15 6.716 15 15v147.202c-.001 8.284-6.716 15-15.001 15z" fill="#f2f4f7"/><path d="m460.042 486.702h-204.042v-177.202h204.042c8.284 0 15 6.716 15 15v147.202c0 8.284-6.715 15-15 15z" fill="#c7e7ff"/><path d="m386.84 25.298h-96.162c-8.284 0-15 6.716-15 15v77.802c0 8.284 6.716 15 15 15h145.372c8.284 0 15-6.716 15-15v-28.591c0-35.406-28.804-64.211-64.21-64.211z" fill="#48b6d4"/><path d="m497 257.467h-482c-8.284 0-15 6.716-15 15v52.033c0 8.284 6.716 15 15 15h482c8.284 0 15-6.716 15-15v-52.033c0-8.284-6.716-15-15-15z" fill="#c7e7ff"/><path d="m497 257.467h-241v82.033h241c8.284 0 15-6.716 15-15v-52.033c0-8.284-6.716-15-15-15z" fill="#8dc4eb"/><path d="m307.139 25.298h-51.6c-8.284 0-15 6.716-15 15v120.413c0 8.284 6.716 15 15 15h51.6c8.284 0 15-6.716 15-15v-120.413c0-8.284-6.716-15-15-15z" fill="#f2f4f7"/><path d="m307.139 25.298h-25.8v150.413h25.8c8.284 0 15-6.716 15-15v-120.413c0-8.284-6.716-15-15-15z" fill="#c7e7ff"/><circle cx="124.706" cy="291.679" fill="#ffa34c" r="109.706"/><path d="m234.412 291.679c0 60.589-49.117 109.706-109.706 109.706v-219.412c60.589 0 109.706 49.117 109.706 109.706z" fill="#f08546"/><path d="m95.241 293.816-20.771 16.82c-6.438 5.214-7.431 14.659-2.217 21.097 2.964 3.661 7.296 5.562 11.667 5.562 3.315 0 6.653-1.095 9.431-3.344l20.771-16.82c6.438-5.214 7.431-14.659 2.217-21.097-5.215-6.439-14.661-7.431-21.098-2.218z" fill="#f2f4f7"/><path d="m174.943 310.637-20.771-16.82c-6.438-5.213-15.884-4.222-21.097 2.218-5.213 6.438-4.221 15.883 2.217 21.097l20.771 16.82c2.778 2.249 6.115 3.344 9.431 3.344 4.37 0 8.703-1.9 11.667-5.562 5.213-6.438 4.22-15.883-2.218-21.097z" fill="#c7e7ff"/><path d="m139.706 271.072v-26.728c0-8.284-6.716-15-15-15s-15 6.716-15 15v26.728c0 8.284 6.716 15 15 15s15-6.716 15-15z" fill="#f2f4f7"/><path d="m139.706 271.072v-26.728c0-8.284-6.716-15-15-15v56.728c8.284 0 15-6.716 15-15z" fill="#c7e7ff"/></svg>