<svg id="Capa_1" enable-background="new 0 0 512.001 512.001" height="512" viewBox="0 0 512.001 512.001" width="512" xmlns="http://www.w3.org/2000/svg"><path d="m322.188 0h-51.848c-8.284 0-15 6.716-15 15v253.001c0 8.284 6.716 15 15 15h51.848c8.284 0 15-6.716 15-15v-253.001c0-8.284-6.716-15-15-15z" fill="#85d7ed"/><path d="m322.188 0h-25.923v283.001h25.923c8.284 0 15-6.716 15-15v-253.001c0-8.284-6.716-15-15-15z" fill="#48b6d4"/><path d="m403.938 351.055h-107.674v30h107.674c8.284 0 15-6.716 15-15s-6.716-15-15-15z" fill="#f08546"/><path d="m403.938 351.055h-237.089c-8.284 0-15 6.716-15 15s6.716 15 15 15h237.089c8.284 0 15-6.716 15-15s-6.716-15-15-15z" fill="#ffa34c"/><path d="m403.938 351.055h-107.673v30h107.673c8.284 0 15-6.716 15-15s-6.716-15-15-15z" fill="#f08546"/><path d="m285.393 98.152h-89.221c-53.029 0-96.172 43.143-96.172 96.172v251.141c0 8.284 6.716 15 15 15h51.849c8.284 0 15-6.716 15-15v-250.464c0-8.271 6.729-15 15-15h88.544c8.284 0 15-6.716 15-15v-51.849c0-8.284-6.716-15-15-15z" fill="#5a5a5a"/><path d="m349.45 39.062h-106.37c-8.284 0-15 6.716-15 15v152.278c0 20.732 16.867 37.6 37.6 37.6h61.17c20.733 0 37.601-16.867 37.601-37.6v-152.278c-.001-8.285-6.717-15-15.001-15z" fill="#f2f4f7"/><path d="m349.45 39.062h-53.185v204.878h30.585c20.733 0 37.601-16.867 37.601-37.6v-152.278c-.001-8.285-6.717-15-15.001-15z" fill="#c7e7ff"/><path d="m446.323 430.153h-380.645c-8.284 0-15 6.716-15 15v51.848c0 8.284 6.716 15 15 15h380.645c8.284 0 15-6.716 15-15v-51.848c0-8.284-6.716-15-15-15z" fill="#f2f4f7"/><path d="m446.323 430.153h-190.323v81.848h190.322c8.284 0 15-6.716 15-15v-51.848c.001-8.284-6.715-15-14.999-15z" fill="#c7e7ff"/></svg>