<?xml version="1.0" encoding="UTF-8" standalone="no"?><!-- Generator: Gravit.io --><svg xmlns="http://www.w3.org/2000/svg" xmlns:xlink="http://www.w3.org/1999/xlink" style="isolation:isolate" viewBox="0 0 512 512" width="512pt" height="512pt"><defs><clipPath id="_clipPath_sOQ7bYtuo0F7ooyiY8FZpYRpkIx7SK34"><rect width="512" height="512"/></clipPath></defs><g clip-path="url(#_clipPath_sOQ7bYtuo0F7ooyiY8FZpYRpkIx7SK34)"><path d=" M 338.146 331.513 C 339.631 331.513 340.983 330.655 341.614 329.309 L 351.567 308.131 L 365.112 302.256 L 381.21 308.131 L 361.857 342.739 C 357.793 350.009 350.113 354.511 341.785 354.511 L 258.491 354.511 L 249.099 331.321 L 338.146 331.513 Z " fill="rgb(135,93,65)"/><path d=" M 148.173 343.777 C 146.687 343.777 145.336 342.919 144.702 341.576 L 134.749 320.397 L 121.846 312.732 L 105.109 320.397 L 124.462 355.003 C 128.529 362.272 136.205 366.775 144.533 366.775 L 253.893 366.775 L 225.912 343.588 L 148.173 343.777 Z " fill="rgb(135,93,65)"/><path d=" M 233.769 392.84 L 192.911 296.535 C 188.225 285.49 188.984 272.889 194.957 262.482 L 245.268 174.843 L 282.83 174.843 L 230.295 271.304 C 227.697 276.075 227.816 281.862 230.609 286.519 L 294.329 392.84 L 294.329 412.005 L 233.897 412.008 L 233.769 392.84 Z " fill="rgb(158,111,79)"/><path d=" M 294.329 392.84 L 294.329 412.005 L 271.33 412.005 L 271.33 392.84 L 207.611 286.522 C 204.82 281.862 204.698 276.072 207.297 271.304 L 259.831 174.846 L 282.83 174.846 L 230.295 271.304 C 227.697 276.072 227.819 281.859 230.609 286.522 L 294.329 392.84 Z " fill="rgb(135,93,65)"/><path d=" M 339.175 427.335 L 339.175 400.506 C 339.175 396.273 335.742 392.84 331.507 392.84 L 195.821 392.84 C 191.588 392.84 188.156 396.27 188.156 400.506 L 188.156 427.335 L 339.175 427.335 Z " fill="rgb(150,188,94)"/><path d=" M 339.175 400.506 L 339.175 412.005 L 316.176 412.005 L 316.176 400.506 C 316.176 396.273 312.743 392.84 308.511 392.84 L 331.507 392.84 C 335.739 392.84 339.175 396.273 339.175 400.506 L 339.175 400.506 Z " fill="rgb(133,153,61)"/><path d=" M 347.07 412.005 C 354.427 412.005 359.892 418.815 358.296 425.998 L 355.741 437.497 C 354.572 442.759 349.904 446.5 344.515 446.5 L 182.816 446.5 C 177.427 446.5 172.758 442.759 171.59 437.497 L 169.035 425.998 C 167.439 418.815 172.904 412.005 180.261 412.005 L 347.07 412.005 Z " fill="rgb(158,127,86)"/><path d=" M 358.293 425.995 L 355.741 437.494 C 354.575 442.759 349.907 446.5 344.518 446.5 L 321.519 446.5 C 326.908 446.5 331.577 442.759 332.742 437.494 L 334.998 427.335 L 335.297 425.995 C 336.899 418.818 331.434 412.005 324.074 412.005 L 347.07 412.005 C 354.43 412.005 359.895 418.818 358.293 425.995 L 358.293 425.995 Z " fill="rgb(135,97,60)"/><path d=" M 380.187 124.151 C 378.635 124.151 377.111 124.27 375.626 124.503 C 376.344 121.954 376.736 119.265 376.736 116.483 C 376.736 100.185 363.525 86.97 347.224 86.97 C 340.759 86.97 334.783 89.057 329.92 92.58 C 325.246 76.924 310.741 65.507 293.562 65.507 C 278.571 65.507 265.613 74.204 259.45 86.825 C 253.285 74.204 240.329 65.507 225.336 65.507 C 208.16 65.507 193.655 76.924 188.978 92.58 C 184.115 89.057 178.142 86.97 171.674 86.97 C 155.376 86.97 142.161 100.185 142.161 116.483 C 142.161 119.265 142.554 121.951 143.275 124.503 C 141.786 124.27 140.263 124.151 138.714 124.151 C 122.413 124.151 109.198 137.365 109.198 153.664 C 109.198 169.962 122.413 183.176 138.714 183.176 C 140.138 183.176 141.539 183.069 142.911 182.874 C 145.908 195.998 157.646 205.791 171.677 205.791 C 178.142 205.791 184.118 203.707 188.981 200.181 C 193.655 215.84 208.16 227.255 225.339 227.255 C 240.329 227.255 253.288 218.561 259.45 205.939 C 265.616 218.561 278.574 227.255 293.564 227.255 C 310.741 227.255 325.246 215.84 329.923 200.181 C 334.786 203.707 340.759 205.791 347.227 205.791 C 361.258 205.791 372.993 195.998 375.989 182.874 C 377.361 183.072 378.762 183.176 380.19 183.176 C 396.488 183.176 409.702 169.962 409.702 153.664 C 409.702 137.365 396.488 124.151 380.187 124.151 L 380.187 124.151 Z " fill="rgb(255,212,212)"/><path d=" M 409.699 153.664 C 409.699 169.962 396.485 183.176 380.187 183.176 C 378.762 183.176 377.359 183.072 375.987 182.88 C 372.99 195.995 361.252 205.791 347.224 205.791 C 343.137 205.791 339.25 204.957 335.719 203.454 C 344.34 199.821 350.866 192.185 352.988 182.88 C 354.36 183.072 355.764 183.176 357.188 183.176 C 373.487 183.176 386.704 169.962 386.704 153.664 C 386.704 137.368 373.487 124.151 357.188 124.151 C 355.642 124.151 354.116 124.273 352.628 124.503 C 353.348 121.951 353.741 119.268 353.741 116.486 C 353.741 104.266 346.311 93.778 335.733 89.302 C 339.259 87.799 343.146 86.97 347.224 86.97 C 363.522 86.97 376.736 100.188 376.736 116.483 C 376.736 119.268 376.347 121.951 375.626 124.503 C 377.111 124.273 378.637 124.151 380.187 124.151 C 396.485 124.151 409.699 137.365 409.699 153.664 L 409.699 153.664 Z " fill="rgb(252,172,172)"/><path d=" M 308.159 119.712 C 308.502 118.224 311.438 104.693 306.924 92.58 C 303.343 80.578 293.983 71.07 282.08 67.283 C 282.946 67.009 283.827 66.762 284.722 66.547 C 287.896 65.815 291.155 65.425 294.413 65.512 C 311.217 65.882 325.321 77.18 329.92 92.58 C 313.095 101.583 308.563 118.093 308.159 119.712 Z " fill="rgb(252,172,172)"/><path d=" M 423.882 272.101 C 418.955 272.101 414.493 274.08 411.24 277.287 C 412.711 273.938 413.534 270.243 413.534 266.351 C 413.534 251.323 401.351 239.138 386.32 239.138 C 376.641 239.138 368.147 244.196 363.322 251.809 C 358.499 244.196 350.006 239.138 340.323 239.138 C 325.295 239.138 313.11 251.323 313.11 266.351 C 313.11 270.243 313.932 273.938 315.403 277.287 C 312.15 274.08 307.689 272.101 302.762 272.101 C 292.812 272.101 284.748 280.167 284.748 290.117 C 284.748 300.067 292.812 308.131 302.762 308.131 L 423.882 308.131 C 433.832 308.131 441.898 300.067 441.898 290.117 C 441.898 280.167 433.832 272.101 423.882 272.101 L 423.882 272.101 Z " fill="rgb(255,212,212)"/><path d=" M 413.534 266.351 C 413.534 269.68 412.935 272.868 411.833 275.813 C 408.795 273.482 405.002 272.101 400.886 272.101 C 395.956 272.101 391.494 274.08 388.244 277.284 C 389.715 273.941 390.535 270.238 390.535 266.351 C 390.535 258.84 387.492 252.032 382.565 247.111 C 380.332 244.879 377.719 243.033 374.83 241.684 C 378.318 240.051 382.21 239.138 386.32 239.138 C 393.831 239.138 400.639 242.181 405.56 247.111 C 410.49 252.032 413.534 258.84 413.534 266.351 L 413.534 266.351 Z " fill="rgb(252,172,172)"/><path d=" M 441.898 290.117 C 441.898 300.067 433.832 308.131 423.882 308.131 L 400.886 308.131 C 410.836 308.131 418.899 300.067 418.899 290.117 C 418.899 284.545 416.371 279.563 412.391 276.249 C 415.51 273.659 419.513 272.101 423.882 272.101 C 433.832 272.101 441.898 280.167 441.898 290.117 L 441.898 290.117 Z " fill="rgb(252,172,172)"/><path d=" M 148.675 282.833 C 147.301 282.833 145.961 282.987 144.67 283.266 C 145.033 281.519 145.228 279.708 145.228 277.851 C 145.228 263.244 133.386 251.405 118.779 251.405 C 104.173 251.405 92.333 263.244 92.333 277.851 C 92.333 279.708 92.525 281.519 92.891 283.266 C 91.598 282.987 90.258 282.833 88.883 282.833 C 78.511 282.833 70.102 291.242 70.102 301.616 C 70.102 311.988 78.511 320.397 88.883 320.397 L 148.678 320.397 C 159.05 320.397 167.459 311.988 167.459 301.616 C 167.459 291.242 159.05 282.833 148.675 282.833 Z " fill="rgb(255,212,212)"/><path d=" M 167.459 301.616 C 167.459 311.988 159.05 320.397 148.678 320.397 L 125.68 320.397 C 136.051 320.397 144.461 311.988 144.461 301.616 C 144.461 291.245 136.051 282.833 125.68 282.833 C 124.308 282.833 122.965 282.987 121.668 283.263 C 122.038 281.516 122.229 279.705 122.229 277.851 C 122.229 270.555 119.27 263.939 114.48 259.154 C 112.393 257.07 109.963 255.329 107.28 254.027 C 110.753 252.346 114.663 251.405 118.779 251.405 C 126.078 251.405 132.694 254.364 137.479 259.154 C 142.269 263.939 145.228 270.555 145.228 277.851 C 145.228 279.705 145.036 281.516 144.667 283.263 C 145.963 282.987 147.306 282.833 148.678 282.833 C 159.05 282.833 167.459 291.245 167.459 301.616 L 167.459 301.616 Z " fill="rgb(252,172,172)"/></g></svg>