<svg height="512" viewBox="0 0 96 96" width="512" xmlns="http://www.w3.org/2000/svg"><path d="m76 60a14 14 0 1 0 14 14 14.017 14.017 0 0 0 -14-14zm0 24a10 10 0 1 1 10-10 10.0093 10.0093 0 0 1 -10 10z"/><path d="m80 72h-2v-2a2 2 0 0 0 -4 0v4a1.9988 1.9988 0 0 0 2 2h4a2 2 0 0 0 0-4z"/><path d="m56 72h-46v-44h68v26a2 2 0 0 0 4 0v-40a1.9988 1.9988 0 0 0 -2-2h-18v-2a2 2 0 0 0 -4 0v2h-28v-2a2 2 0 0 0 -4 0v2h-18a1.9988 1.9988 0 0 0 -2 2v60a1.9988 1.9988 0 0 0 2 2h48a2 2 0 0 0 0-4zm-30-56v2a2 2 0 0 0 4 0v-2h28v2a2 2 0 0 0 4 0v-2h16v8h-68v-8z"/><path d="m26 34a1.9988 1.9988 0 0 0 -2-2h-8a1.9988 1.9988 0 0 0 -2 2v8a1.9988 1.9988 0 0 0 2 2h8a1.9988 1.9988 0 0 0 2-2zm-4 6h-4v-4h4z"/><path d="m42 34a1.9988 1.9988 0 0 0 -2-2h-8a1.9988 1.9988 0 0 0 -2 2v8a1.9988 1.9988 0 0 0 2 2h8a1.9988 1.9988 0 0 0 2-2zm-4 6h-4v-4h4z"/><path d="m56 32h-8a1.9988 1.9988 0 0 0 -2 2v8a1.9988 1.9988 0 0 0 2 2h8a1.9988 1.9988 0 0 0 2-2v-8a1.9988 1.9988 0 0 0 -2-2zm-2 8h-4v-4h4z"/><path d="m74 34a1.9988 1.9988 0 0 0 -2-2h-8a1.9988 1.9988 0 0 0 -2 2v8a1.9988 1.9988 0 0 0 2 2h8a1.9988 1.9988 0 0 0 2-2zm-4 6h-4v-4h4z"/><path d="m24 48h-8a1.9988 1.9988 0 0 0 -2 2v8a1.9988 1.9988 0 0 0 2 2h8a1.9988 1.9988 0 0 0 2-2v-8a1.9988 1.9988 0 0 0 -2-2zm-2 8h-4v-4h4z"/><path d="m40 48h-8a1.9988 1.9988 0 0 0 -2 2v8a1.9988 1.9988 0 0 0 2 2h8a1.9988 1.9988 0 0 0 2-2v-8a1.9988 1.9988 0 0 0 -2-2zm-2 8h-4v-4h4z"/><path d="m56 48h-8a1.9988 1.9988 0 0 0 -2 2v8a1.9988 1.9988 0 0 0 2 2h8a1.9988 1.9988 0 0 0 2-2v-8a1.9988 1.9988 0 0 0 -2-2zm-2 8h-4v-4h4z"/><path d="m72 56a1.9988 1.9988 0 0 0 2-2v-4a1.9988 1.9988 0 0 0 -2-2h-8a1.9988 1.9988 0 0 0 -2 2v8a2 2 0 0 0 4 0v-6h4v2a1.9988 1.9988 0 0 0 2 2z"/></svg>