<svg id="Capa_1" enable-background="new 0 0 512 512" height="512" viewBox="0 0 512 512" width="512" xmlns="http://www.w3.org/2000/svg"><path d="m497 0c8.28 0 15 6.72 15 15v420l-30 2.11-226 15.89-226-15.89-30-2.11v-420c0-8.28 6.72-15 15-15z" fill="#4bb9ec"/><path d="m497 0c8.28 0 15 6.72 15 15v420l-30 2.11-226 15.89v-453z" fill="#0095ff"/><path d="m482 30v407.11l-226 15.89-226-15.89v-407.11z" fill="#a8ebfa"/><path d="m482 30v407.11l-226 15.89v-423z" fill="#76e2f8"/><path d="m271 345v30c0 8.28-6.72 15-15 15s-15-6.72-15-15v-30c0-8.28 6.72-15 15-15s15 6.72 15 15z" fill="#ff641a"/><path d="m271 345v30c0 8.28-6.72 15-15 15v-60c8.28 0 15 6.72 15 15z" fill="#f03800"/><path d="m271 255v30c0 8.28-6.72 15-15 15s-15-6.72-15-15v-30c0-8.28 6.72-15 15-15s15 6.72 15 15z" fill="#e6ffff"/><path d="m271 255v30c0 8.28-6.72 15-15 15v-60c8.28 0 15 6.72 15 15z" fill="#d9f2ff"/><path d="m256 150c8.28 0 15 6.72 15 15v30c0 8.28-6.72 15-15 15s-15-6.72-15-15v-30c0-8.28 6.72-15 15-15z" fill="#ff641a"/><path d="m256 150c8.28 0 15 6.72 15 15v30c0 8.28-6.72 15-15 15z" fill="#f03800"/><path d="m271 75v30c0 8.28-6.72 15-15 15s-15-6.72-15-15v-30c0-8.28 6.72-15 15-15s15 6.72 15 15z" fill="#e6ffff"/><path d="m271 75v30c0 8.28-6.72 15-15 15v-60c8.28 0 15 6.72 15 15z" fill="#d9f2ff"/><path d="m76 390c-8.284 0-15-6.716-15-15v-30c0-8.284 6.716-15 15-15s15 6.716 15 15v30c0 8.284-6.716 15-15 15z" fill="#ff641a"/><path d="m76 300c-8.284 0-15-6.716-15-15v-30c0-8.284 6.716-15 15-15s15 6.716 15 15v30c0 8.284-6.716 15-15 15z" fill="#e6ffff"/><path d="m76 210c-8.284 0-15-6.716-15-15v-30c0-8.284 6.716-15 15-15s15 6.716 15 15v30c0 8.284-6.716 15-15 15z" fill="#ff641a"/><path d="m76 120c-8.284 0-15-6.716-15-15v-30c0-8.284 6.716-15 15-15s15 6.716 15 15v30c0 8.284-6.716 15-15 15z" fill="#e6ffff"/><path d="m436 390c-8.284 0-15-6.716-15-15v-30c0-8.284 6.716-15 15-15s15 6.716 15 15v30c0 8.284-6.716 15-15 15z" fill="#f03800"/><path d="m436 300c-8.284 0-15-6.716-15-15v-30c0-8.284 6.716-15 15-15s15 6.716 15 15v30c0 8.284-6.716 15-15 15z" fill="#d9f2ff"/><path d="m436 210c-8.284 0-15-6.716-15-15v-30c0-8.284 6.716-15 15-15s15 6.716 15 15v30c0 8.284-6.716 15-15 15z" fill="#f03800"/><path d="m436 120c-8.284 0-15-6.716-15-15v-30c0-8.284 6.716-15 15-15s15 6.716 15 15v30c0 8.284-6.716 15-15 15z" fill="#d9f2ff"/><path d="m512 435v62c0 8.28-6.72 15-15 15h-482c-8.28 0-15-6.72-15-15v-62z" fill="#76e2f8"/><path d="m512 435v62c0 8.28-6.72 15-15 15h-241v-77z" fill="#4bb9ec"/><path d="m196 360h-15v-270h15c8.284 0 15-6.716 15-15s-6.716-15-15-15h-60c-8.284 0-15 6.716-15 15s6.716 15 15 15h15v270h-15c-8.284 0-15 6.716-15 15s6.716 15 15 15h60c8.284 0 15-6.716 15-15s-6.716-15-15-15z" fill="#76e2f8"/><path d="m376 360h-15v-270h15c8.284 0 15-6.716 15-15s-6.716-15-15-15h-60c-8.284 0-15 6.716-15 15s6.716 15 15 15h15v270h-15c-8.284 0-15 6.716-15 15s6.716 15 15 15h60c8.284 0 15-6.716 15-15s-6.716-15-15-15z" fill="#4bb9ec"/></svg>