<svg id="Capa_1" enable-background="new 0 0 512 512" height="512" viewBox="0 0 512 512" width="512" xmlns="http://www.w3.org/2000/svg"><path d="m190.454 6.68c-2.782-4.173-7.466-6.68-12.481-6.68h-83.944c-11.954 0-19.122 13.359-12.481 23.32l114.453 171.68 45-38 15-51.99z" fill="#4bb9ec"/><g fill="#fff261"><path d="m196.14 195.024c-.026-.005-.056-.01-.087-.015.025.005.055.01.087.015z"/><path d="m196.32 195.056c-.006-.001-.015-.003-.023-.004.023.004.04.007.048.008-.004-.001-.011-.002-.02-.003-.002-.001-.004-.001-.005-.001z"/><path d="m195.992 194.999c-.017-.004-.014-.003 0 0z"/></g><path d="m417.971 0h-83.93c-5.02 0-9.7 2.51-12.48 6.68-.29.44-33.41 50.11-65.56 98.33-30.4 45.6-59.93 89.89-60 89.99-.004-.001-.006-.001-.009-.001.01.002.029.005.054.009.002 0 .004.001.006.001-.001 0-.001 0-.002 0 .024.004.055.01.095.017.001 0 .003 0 .004.001.004.001.009.002.013.002.061.011.105.018.134.023-.031-.005-.07-.012-.112-.02.038.007.084.015.135.024.002 0 .004.001.005.001.008.001.016.003.024.004-.001 0-.003 0-.004-.001.004.001.005.001.005.001 1.868.326 12.19 2.129 59.652 10.419l60-10.48 114.45-171.68c6.63-9.94-.49-23.32-12.48-23.32z" fill="#a8ebfa"/><path d="m417.971 0h-83.93c-5.02 0-9.7 2.51-12.48 6.68-.29.44-33.41 50.11-65.56 98.33v100.47l60-10.48 114.45-171.68c6.63-9.94-.49-23.32-12.48-23.32z" fill="#76e2f8"/><path d="m196.001 195h120v78.05h-120z" fill="#fdbf00"/><path d="m256.001 195h60v78.05h-60z" fill="#ff9100"/><path d="m256.001 512c-74.439 0-135-60.561-135-135s60.561-135 135-135 135 60.561 135 135-60.561 135-135 135z" fill="#ffda2d"/><path d="m256.001 242v270c74.439 0 135-60.561 135-135s-60.561-135-135-135z" fill="#fdbf00"/><path d="m294.991 369.52-26-45.02c-2.68-4.64-7.63-7.5-12.99-7.5s-10.31 2.86-12.99 7.5l-26 45.02c-3.93 6.81-6.01 14.58-6.01 22.48 0 24.81 20.19 45 45 45s45-20.19 45-45c0-7.9-2.08-15.67-6.01-22.48z" fill="#fdbf00"/><path d="m301.001 392c0 24.81-20.19 45-45 45v-120c5.36 0 10.31 2.86 12.99 7.5l26 45.02c3.93 6.81 6.01 14.58 6.01 22.48z" fill="#ff9100"/></svg>