<svg id="Capa_1" enable-background="new 0 0 512 512" height="512" viewBox="0 0 512 512" width="512" xmlns="http://www.w3.org/2000/svg"><path d="m391.008 255.5v61.5c0 8.28-6.72 15-15 15h-240c-8.28 0-15-6.72-15-15v-61.5c0-8.28 6.72-15 15-15h240c8.28 0 15 6.72 15 15z" fill="#ff641a"/><path d="m391.008 255.5v61.5c0 8.28-6.72 15-15 15h-120v-91.5h120c8.28 0 15 6.72 15 15z" fill="#f03800"/><path d="m406.008 362h-300c-8.28 0-15 6.72-15 15v30c0 8.28 6.72 15 15 15 47.36 0 89.25 30.19 104.23 75.12.62 1 2.48 14.88 15.77 14.88h60c13.23 0 15.19-13.95 15.77-14.88 14.98-44.93 56.87-75.12 104.23-75.12 8.28 0 15-6.72 15-15v-30c0-8.28-6.72-15-15-15z" fill="#ff9100"/><path d="m406.008 362h-150v150h30c13.23 0 15.19-13.95 15.77-14.88 14.98-44.93 56.87-75.12 104.23-75.12 8.28 0 15-6.72 15-15v-30c0-8.28-6.72-15-15-15z" fill="#ff641a"/><path d="m447.948 158.27c-6.07-23.49-21.99-43.7-43.69-55.45-15.71-8.51-30.56-19.5-43.25-31.98v-55.84c0-8.28-6.72-15-15-15s-15 6.72-15 15v92c0 41.36-33.64 75-75 75s-75-33.64-75-75v-92c0-8.28-6.72-15-15-15s-15 6.72-15 15v55.85c-12.7 12.52-27.53 23.59-43.22 32.19-28.86 15.82-46.78 46.08-46.78 78.96 0 49.63 40.37 90 90 90h210c58.55 0 102.12-54.99 86.94-113.73z" fill="#ff9100"/><path d="m447.948 158.27c-6.07-23.49-21.99-43.7-43.69-55.45-15.71-8.51-30.56-19.5-43.25-31.98v-55.84c0-8.28-6.72-15-15-15s-15 6.72-15 15v92c0 41.36-33.64 75-75 75v90h105c58.55 0 102.12-54.99 86.94-113.73z" fill="#ff641a"/></svg>