<svg id="Capa_1" enable-background="new 0 0 512 512" height="512" viewBox="0 0 512 512" width="512" xmlns="http://www.w3.org/2000/svg"><path d="m76 181.001c8.28 0 15 6.72 15 15v60c0 8.28-6.72 15-15 15h-61c-8.28 0-15-6.72-15-15v-60c0-8.28 6.72-15 15-15z" fill="#596c76"/><path d="m91 226.001v30c0 8.28-6.72 15-15 15h-61c-8.28 0-15-6.72-15-15v-30z" fill="#465a61"/><path d="m166 271.001h-60c-8.284 0-15 6.716-15 15v150c0 8.284 6.716 15 15 15h60c8.284 0 15-6.716 15-15v-150c0-8.284-6.716-15-15-15z" fill="#465a61"/><path d="m196 151.001h-90c-24.81 0-45 20.19-45 45v60c0 24.81 20.19 45 45 45h90l11.54-75c-14.991-97.426-10.766-69.972-11.54-75z" fill="#ff9100"/><path d="m207.54 226.001-11.54 75h-90c-24.81 0-45-20.19-45-45v-30z" fill="#ff641a"/><path d="m512 226.001c0 8.284-6.716 15-15 15h-60c-8.284 0-15-6.716-15-15s6.716-15 15-15h60c8.284 0 15 6.716 15 15z" fill="#d9f2ff"/><path d="m422 226.001c0 8.284 6.716 15 15 15h60c8.284 0 15-6.716 15-15z" fill="#cdf"/><path d="m473.68 328.482-45-30c-6.893-4.595-8.756-13.908-4.161-20.801 4.596-6.893 13.911-8.755 20.801-4.16l45 30c6.893 4.595 8.756 13.908 4.161 20.801-4.61 6.914-13.929 8.742-20.801 4.16z" fill="#cdf"/><path d="m424.519 174.322c-4.595-6.893-2.732-16.206 4.161-20.801l45-30c6.892-4.595 16.206-2.733 20.801 4.16s2.732 16.206-4.161 20.801l-45 30c-6.862 4.575-16.185 2.763-20.801-4.16z" fill="#d9f2ff"/><path d="m364.52 67.681c3.67-5.5 10.5-7.95 16.83-6.04 6.32 1.92 10.65 7.75 10.65 14.36v300c0 6.61-4.33 12.44-10.65 14.36-6.48 1.94-13.24-.65-16.83-6.04-12.89-19.34-29.06-35.78-47.52-48.82l-14.1-109.5c16.209-125.879 13.863-107.663 14.1-109.5 18.46-13.04 34.63-29.48 47.52-48.82z" fill="#ff9100"/><path d="m392 226.001v150c0 6.61-4.33 12.44-10.65 14.36-6.48 1.94-13.24-.65-16.83-6.04-12.89-19.34-29.06-35.78-47.52-48.82l-14.1-109.5z" fill="#ff641a"/><path d="m317 116.501v219c-31.35-22.15-69.31-34.5-109.17-34.5h-11.83v-150h11.83c39.86 0 77.82-12.35 109.17-34.5z" fill="#d9f2ff"/><path d="m317 226.001v109.5c-31.35-22.15-69.31-34.5-109.17-34.5h-11.83v-75z" fill="#cdf"/></svg>