<svg id="Capa_1" enable-background="new 0 0 512 512" height="512" viewBox="0 0 512 512" width="512" xmlns="http://www.w3.org/2000/svg"><path d="m316.001 62v11.78c0 33-24.68 63.2-60 63.22h-.03c-33.07 0-59.97-26.92-59.97-60v-15z" fill="#4bb9ec"/><path d="m256.001 62v75c35.32-.02 60-30.22 60-63.22v-11.78z" fill="#0095ff"/><path d="m391.001 115.27v-100.27c0-8.28-6.72-15-15-15h-60c-8.28 0-15 6.72-15 15v58.78c0 24.84-18 48.22-45 48.22-25.25.02-45-20.56-45-45v-62c0-8.28-6.72-15-15-15h-60c-8.28 0-15 6.72-15 15v100.27c-24.93 22.32-36.35 56.92-26.42 92.27 3.38 12.06 9.69 23.55 18.23 33.23 20.61 23.37 31.15 42.12 33.17 58.98 1.81 15.03-3.04 28.98-11.46 46.62-8.97 18.8-13.52 38.37-13.52 58.17v2.46c0 8.28 6.72 15 15 15 41.35 0 75 33.65 75 75 0 8.28 6.72 15 15 15h60c8.28 0 15-6.72 15-15 0-41.35 33.65-75 75-75 8.28 0 15-6.72 15-15v-2.51c0-19.77-4.55-39.32-13.51-58.09-8.42-17.64-13.27-31.59-11.48-46.61 2.02-16.88 12.56-35.64 33.18-59.02 8.55-9.69 14.85-21.18 18.23-33.23 9.95-35.44-1.56-70.01-26.42-92.27z" fill="#76e2f8"/><path d="m417.42 207.54c-3.38 12.05-9.68 23.54-18.23 33.23-20.62 23.38-31.16 42.14-33.18 59.02-1.79 15.02 3.06 28.97 11.48 46.61 8.96 18.77 13.51 38.32 13.51 58.09v2.51c0 8.28-6.72 15-15 15-41.35 0-75 33.65-75 75 0 8.28-6.72 15-15 15h-30v-390c27 0 45-23.38 45-48.22v-58.78c0-8.28 6.72-15 15-15h60c8.28 0 15 6.72 15 15v100.27c24.861 22.26 36.371 56.83 26.42 92.27z" fill="#4bb9ec"/></svg>