<svg id="Capa_1" enable-background="new 0 0 512 512" height="512" viewBox="0 0 512 512" width="512" xmlns="http://www.w3.org/2000/svg"><path d="m256 76 30 186-30 174v21l-32 11-22.18 2.2c-39.06-39.59-95.82-120.65-95.82-214.2s56.76-174.61 95.82-214.2l26.18-8.8 25 7z" fill="#76e2f8"/><path d="m310.18 41.8c39.06 39.59 95.82 120.65 95.82 214.2s-56.76 174.61-95.82 214.2l-54.18-7.2v-27-360l4-48z" fill="#4bb9ec"/><path d="m310.18 41.8c39.06 39.59 65.82 120.65 65.82 214.2s-26.76 174.61-65.82 214.2l-43.18 16.8 48.32 18.13c45.71-10.79 87.66-34.07 121.7-68.11 48.35-48.35 74.98-112.64 74.98-181.02s-26.63-132.67-74.98-181.02c-34.04-34.04-75.98-57.32-121.69-68.11l-24.33 7.13z" fill="#fdbf00"/><path d="m201.82 41.8c-39.06 39.59-65.82 120.65-65.82 214.2s26.76 174.61 65.82 214.2l25.18 20.8-30.32 14.13c-45.71-10.79-87.66-34.07-121.7-68.11-48.35-48.35-74.98-112.64-74.98-181.02s26.63-132.67 74.98-181.02c34.04-34.04 75.99-57.32 121.7-68.11l19.32 10.13z" fill="#ffda2d"/><path d="m315.32 505.13c-19.21 4.54-39.09 6.87-59.32 6.87s-40.11-2.33-59.32-6.87c-1.86-12.59.2-24.58 5.14-34.93 9.65-20.23 30.29-34.2 54.18-34.2 23.9 0 44.54 13.98 54.18 34.2 4.94 10.35 7 22.34 5.14 34.93z" fill="#e6ffff"/><path d="m310.18 41.8c-9.64 20.23-30.28 34.2-54.18 34.2s-44.54-13.97-54.18-34.2c-4.94-10.35-7-22.34-5.14-34.93 19.21-4.54 39.09-6.87 59.32-6.87 20.24 0 40.12 2.33 59.33 6.87 1.85 12.59-.21 24.58-5.15 34.93z" fill="#e6ffff"/><g fill="#d9f2ff"><path d="m315.32 505.13c1.86-12.59-.2-24.58-5.14-34.93-9.64-20.22-30.28-34.2-54.18-34.2v76c20.23 0 40.11-2.33 59.32-6.87z"/><path d="m310.18 41.8c4.94-10.35 7-22.34 5.15-34.93-19.21-4.54-39.09-6.87-59.33-6.87v76c23.9 0 44.54-13.97 54.18-34.2z"/></g></svg>