<svg id="Capa_1" enable-background="new 0 0 512 512" height="512" viewBox="0 0 512 512" width="512" xmlns="http://www.w3.org/2000/svg"><path d="m346 91-10 17 10 13c8.27 0 15 6.73 15 15v30c0 8.28 6.72 15 15 15s15-6.72 15-15v-30c0-24.81-20.19-45-45-45z" fill="#465a61"/><path d="m467 211c8.28 0 15 6.72 15 15v180h-452v-180c0-8.28 6.72-15 15-15z" fill="#d9f2ff"/><path d="m467 211c8.28 0 15 6.72 15 15v180h-226v-195z" fill="#cdf"/><path d="m467 151h-422c-24.81 0-45 20.19-45 45s20.19 45 45 45h422c24.81 0 45-20.19 45-45s-20.19-45-45-45z" fill="#e6ffff"/><path d="m467 151h-211v90h211c24.81 0 45-20.19 45-45s-20.19-45-45-45z" fill="#d9f2ff"/><path d="m346 91c-24.81 0-45 20.19-45 45v15h-30v-15c0-13.3-5.8-25.26-15-33.5-7.96-7.15-18.49-11.5-30-11.5-24.81 0-45 20.19-45 45v270c0 8.28 6.72 15 15 15s15-6.72 15-15v-45h90v45c0 8.28 6.72 15 15 15s15-6.72 15-15v-270c0-8.27 6.73-15 15-15zm-135 45c0-8.27 6.73-15 15-15s15 6.73 15 15v15h-30zm90 195h-90v-30h90zm0-60h-90v-30h90zm0-60h-90v-30h90z" fill="#596c76"/><path d="m346 91v30c-8.27 0-15 6.73-15 15v270c0 8.28-6.72 15-15 15s-15-6.72-15-15v-45h-45v-30h45v-30h-45v-30h45v-30h-45v-30h45v-30h-45v-78.5c9.2 8.24 15 20.2 15 33.5v15h30v-15c0-24.81 20.19-45 45-45z" fill="#465a61"/><path d="m512 406c0 8.28-6.72 15-15 15h-482c-8.28 0-15-6.72-15-15s6.72-15 15-15h482c8.28 0 15 6.72 15 15z" fill="#76e2f8"/><path d="m512 406c0 8.28-6.72 15-15 15h-241v-30h241c8.28 0 15 6.72 15 15z" fill="#4bb9ec"/></svg>