<svg id="Capa_1" enable-background="new 0 0 512.003 512.003" height="512" viewBox="0 0 512.003 512.003" width="512" xmlns="http://www.w3.org/2000/svg"><path d="m512.003 91.002v60l-257 9.92c-268.79-10.456-254.458-9.899-255-9.92v-60c0-8.28 6.72-15 15-15h482c8.28 0 15 6.72 15 15z" fill="#76e2f8"/><path d="m512.003 91.002v60l-257 9.92v-84.92h242c8.28 0 15 6.72 15 15z" fill="#4bb9ec"/><path d="m512.003 151.002v270c0 8.28-6.72 15-15 15h-482c-8.28 0-15-6.72-15-15v-270z" fill="#e6ffff"/><path d="m512.003 151.002v270c0 8.28-6.72 15-15 15h-242v-285z" fill="#d9f2ff"/><path d="m136.003 286.002c-24.813 0-45-20.187-45-45s20.187-45 45-45 45 20.187 45 45-20.187 45-45 45z" fill="#76e2f8"/><path d="m196.003 376.002h-120c-8.284 0-15-6.716-15-15 0-41.355 33.645-75 75-75s75 33.645 75 75c0 8.284-6.715 15-15 15z" fill="#76e2f8"/><g fill="#4a696f"><path d="m451.003 376.002h-180c-8.284 0-15-6.716-15-15s6.716-15 15-15h180c8.284 0 15 6.716 15 15s-6.715 15-15 15z"/><path d="m451.003 316.002h-180c-8.284 0-15-6.716-15-15s6.716-15 15-15h180c8.284 0 15 6.716 15 15s-6.715 15-15 15z"/><circle cx="271.003" cy="241.002" r="15"/><circle cx="331.003" cy="241.002" r="15"/><circle cx="391.003" cy="241.002" r="15"/><circle cx="451.003" cy="241.002" r="15"/></g></svg>