<svg id="Capa_1" enable-background="new 0 0 512 512" height="512" viewBox="0 0 512 512" width="512" xmlns="http://www.w3.org/2000/svg"><path d="m512 15c0-8.28-6.72-15-15-15h-482c-8.28 0-15 6.72-15 15v60l256 12 256-12z" fill="#76e2f8"/><path d="m512 15c0-8.28-6.72-15-15-15h-241v87l256-12z" fill="#4bb9ec"/><g fill="#e6ffff"><path d="m511.906 75.005.006-.001-.005.001z"/><path d="m511.906 75.005c-.002 0-.003 0-.005 0z"/><path d="m511.901 75.005h-.003.004z"/><path d="m511.933 75.003c.004 0 .009 0 .013-.001 0 0 0 0-.001 0-.004.001-.008.001-.012.001z"/><path d="m511.958 75.002c.008 0 .016-.001.023-.001-.001 0-.001 0-.002 0-.008 0-.015.001-.021.001z"/></g><path d="m0 75v407 15c0 8.284 6.716 15 15 15s15-6.716 15-15v-15h211v15c0 8.325 6.77 15 15 15 8.28 0 15-6.72 15-15v-15h211v15c0 8.284 6.716 15 15 15s15-6.716 15-15v-15-407z" fill="#596c76"/><path d="m256 75v377 30 30c8.28 0 15-6.72 15-15v-15h211v15c0 8.284 6.716 15 15 15s15-6.716 15-15v-15-407z" fill="#465a61"/><path d="m196 210h-121c-8.284 0-15-6.716-15-15v-60c0-8.284 6.716-15 15-15h121c8.284 0 15 6.716 15 15v60c0 8.284-6.716 15-15 15z" fill="#76e2f8"/><path d="m437 210h-121c-8.284 0-15-6.716-15-15v-60c0-8.284 6.716-15 15-15h121c8.284 0 15 6.716 15 15v60c0 8.284-6.716 15-15 15z" fill="#4bb9ec"/><circle cx="196" cy="317" fill="#e6ffff" r="15"/><circle cx="437" cy="317" fill="#d9f2ff" r="15"/></svg>