<svg id="Capa_1" enable-background="new 0 0 512 512" height="512" viewBox="0 0 512 512" width="512" xmlns="http://www.w3.org/2000/svg"><path d="m331 512c8.28 0 15-6.72 15-15v-4.35c-16.51-4.91-31.66-13.89-44.21-26.44-19.85-19.86-30.79-46.21-30.79-74.21 0-20.91 6.1-40.89 17.45-57.95-5.6-1.34-11.44-2.05-17.45-2.05h-45v-12.51c32.45-15.43 54.85-46.44 59.22-81.79 17.87-5.97 30.78-22.85 30.78-42.7 0-19.56-12.54-36.24-30-42.43v-17.57l-105-14-105 14v17.57c-17.46 6.19-30 22.87-30 42.43 0 19.85 12.91 36.73 30.78 42.7 4.37 35.35 26.77 66.36 59.22 81.79v12.51h-45c-41.36 0-75 33.65-75 75v90c0 8.28 6.72 15 15 15z" fill="#ffbfab"/><path d="m106 512v-75c0-8.28-6.72-15-15-15s-15 6.72-15 15v75z" fill="#ffa78f"/><path d="m346 492.65v4.35c0 8.28-6.72 15-15 15h-150v-391l105 14v17.57c17.46 6.19 30 22.87 30 42.43 0 19.85-12.91 36.73-30.78 42.7-4.37 35.35-26.77 66.36-59.22 81.79v12.51h45c6.01 0 11.85.71 17.45 2.05-11.35 17.06-17.45 37.04-17.45 57.95 0 28 10.94 54.35 30.79 74.21 12.55 12.55 27.7 21.53 44.21 26.44z" fill="#ffa78f"/><path d="m286 105v47.5h-210v-47.5c0-58.03 46.96-105 105-105 58.03 0 105 46.96 105 105z" fill="#ffda2d"/><path d="m286 105v47.5h-105v-152.5c58.03 0 105 46.96 105 105z" fill="#fdbf00"/><path d="m211 255c0 8.28-6.72 15-15 15h-30c-8.28 0-15-6.72-15-15s6.72-15 15-15h30c8.28 0 15 6.72 15 15z" fill="#ff9100"/><path d="m211 255c0 8.28-6.72 15-15 15h-15v-30h15c8.28 0 15 6.72 15 15z" fill="#ff641a"/><path d="m344.195 360.195-19.195-36.195-33.813-16.813c-21.729 21.729-35.187 51.729-35.187 84.813s13.458 63.084 35.187 84.813l31.813-19.813 21.195-33.195c-8.149-8.148-13.195-19.398-13.195-31.805s5.046-23.657 13.195-31.805z" fill="#d9f2ff"/><path d="m460.813 307.187-29.813 18.813-23.195 34.195c8.149 8.148 13.195 19.398 13.195 31.805s-5.046 23.657-13.195 31.805l15.195 26.195 37.813 26.813c21.729-21.729 35.187-51.729 35.187-84.813s-13.458-63.084-35.187-84.813z" fill="#cdf"/><path d="m460.81 307.19-53 53c-8.15-8.14-19.4-13.19-31.81-13.19s-23.66 5.05-31.81 13.19l-53-53c21.73-21.73 51.73-35.19 84.81-35.19s63.08 13.46 84.81 35.19z" fill="#ff9100"/><path d="m460.81 476.81c-21.73 21.73-51.73 35.19-84.81 35.19s-63.08-13.46-84.81-35.19l53-53c8.15 8.14 19.4 13.19 31.81 13.19s23.66-5.05 31.81-13.19z" fill="#ff9100"/><path d="m407.81 423.81 53 53c-21.73 21.73-51.73 35.19-84.81 35.19v-75c12.41 0 23.66-5.05 31.81-13.19z" fill="#ff641a"/><path d="m407.81 360.19c-8.15-8.14-19.4-13.19-31.81-13.19v-75c33.08 0 63.08 13.46 84.81 35.19z" fill="#ff641a"/><path d="m226 107.5c-18.1 0-34.09 5.73-45 14.95-10.91-9.22-26.9-14.95-45-14.95-33.64 0-60 19.77-60 45s26.36 45 60 45c18.1 0 34.09-5.73 45-14.95 10.91 9.22 26.9 14.95 45 14.95 33.64 0 60-19.77 60-45s-26.36-45-60-45z" fill="#4bb9ec"/><path d="m226 107.5c-18.1 0-34.09 5.73-45 14.95v60.1c10.91 9.22 26.9 14.95 45 14.95 33.64 0 60-19.77 60-45s-26.36-45-60-45z" fill="#0095ff"/><path d="m226 167.5c-18.313 0-30-8.884-30-15s11.687-15 30-15 30 8.884 30 15-11.687 15-30 15z" fill="#4bb9ec"/><path d="m136 167.5c-18.313 0-30-8.884-30-15s11.687-15 30-15 30 8.884 30 15-11.687 15-30 15z" fill="#76e2f8"/></svg>