<svg id="Capa_1" enable-background="new 0 0 512 512" height="512" viewBox="0 0 512 512" width="512" xmlns="http://www.w3.org/2000/svg"><path d="m406 512c8.28 0 15-6.72 15-15v-90c0-41.35-33.64-75-75-75h-45v-12.51c32.45-15.43 54.85-46.44 59.22-81.79 17.87-5.97 30.78-22.85 30.78-42.7 0-19.56-12.54-36.24-30-42.43v-17.57l-105-14-105 14v17.57c-17.46 6.19-30 22.87-30 42.43 0 19.85 12.91 36.73 30.78 42.7 4.37 35.35 26.77 66.36 59.22 81.79v12.51h-45c-41.36 0-75 33.65-75 75v90c0 8.28 6.72 15 15 15z" fill="#ffbfab"/><path d="m406 512c8.28 0 15-6.72 15-15v-90c0-41.35-33.64-75-75-75h-45v-12.51c32.45-15.43 54.85-46.44 59.22-81.79 17.87-5.97 30.78-22.85 30.78-42.7 0-19.56-12.54-36.24-30-42.43v-17.57l-105-14v391z" fill="#ffa78f"/><path d="m361 105v47.5h-210v-47.5c0-58.03 46.96-105 105-105 58.03 0 105 46.96 105 105z" fill="#ffda2d"/><path d="m361 105v47.5h-105v-152.5c58.03 0 105 46.96 105 105z" fill="#fdbf00"/><path d="m301 107.5c-18.1 0-34.09 5.73-45 14.95-10.91-9.22-26.9-14.95-45-14.95-33.64 0-60 19.77-60 45s26.36 45 60 45c18.1 0 34.09-5.73 45-14.95 10.91 9.22 26.9 14.95 45 14.95 33.64 0 60-19.77 60-45s-26.36-45-60-45z" fill="#4bb9ec"/><path d="m301 107.5c-18.1 0-34.09 5.73-45 14.95v60.1c10.91 9.22 26.9 14.95 45 14.95 33.64 0 60-19.77 60-45s-26.36-45-60-45z" fill="#0095ff"/><path d="m301 167.5c-18.313 0-30-8.884-30-15s11.687-15 30-15 30 8.884 30 15-11.687 15-30 15z" fill="#4bb9ec"/><path d="m211 167.5c-18.313 0-30-8.884-30-15s11.687-15 30-15 30 8.884 30 15-11.687 15-30 15z" fill="#76e2f8"/><path d="m286 255c0 8.28-6.72 15-15 15h-30c-8.28 0-15-6.72-15-15s6.72-15 15-15h30c8.28 0 15 6.72 15 15z" fill="#ff9100"/><path d="m286 255c0 8.28-6.72 15-15 15h-15v-30h15c8.28 0 15 6.72 15 15z" fill="#ff641a"/><path d="m181 512v-75c0-8.28-6.72-15-15-15s-15 6.72-15 15v75z" fill="#ffa78f"/><path d="m361 512v-75c0-8.28-6.72-15-15-15s-15 6.72-15 15v75z" fill="#f89580"/></svg>