<svg id="Capa_1" enable-background="new 0 0 512 512" height="512" viewBox="0 0 512 512" width="512" xmlns="http://www.w3.org/2000/svg"><path d="m346 332c41.36 0 75 33.65 75 75v90c0 8.28-6.72 15-15 15h-45c-8.28 0-15-6.72-15-15v-30c0-33.08-26.92-60-60-60-8.2 0-16.22 1.74-23.86 5.16l-6.14 2.76-6.14-2.76c-7.64-3.42-15.66-5.16-23.86-5.16-5.18 0-10.2.66-15 1.9-25.682 6.633-45 30.058-45 58.1l-.01 30c0 8.29-6.71 15-15 15h-44.99c-8.28 0-15-6.72-15-15v-90c0-41.35 33.64-75 75-75h15l19 10 11-10v-12.51c-32.45-15.43-54.85-46.44-59.22-81.79-17.87-5.97-30.78-22.85-30.78-42.7 0-19.56 12.54-36.24 30-42.43v-17.57l105-14 105 14v17.57c17.46 6.19 30 22.87 30 42.43 0 19.85-12.91 36.73-30.78 42.7-4.37 35.35-26.77 66.36-59.22 81.79v12.51l16 7 14-7z" fill="#ffbfab"/><path d="m346 332c41.36 0 75 33.65 75 75v90c0 8.28-6.72 15-15 15h-45c-8.28 0-15-6.72-15-15v-30c0-33.08-26.92-60-60-60-8.2 0-16.22 1.74-23.86 5.16l-6.14 2.76v-293.92l105 14v17.57c17.46 6.19 30 22.87 30 42.43 0 19.85-12.91 36.73-30.78 42.7-4.37 35.35-26.77 66.36-59.22 81.79v12.51l16 7 14-7z" fill="#ffa78f"/><path d="m361 105v47.5h-210v-47.5c0-58.03 46.96-105 105-105 58.03 0 105 46.96 105 105z" fill="#ffda2d"/><path d="m361 105v47.5h-105v-152.5c58.03 0 105 46.96 105 105z" fill="#fdbf00"/><path d="m301 107.5c-18.1 0-34.09 5.73-45 14.95-10.91-9.22-26.9-14.95-45-14.95-33.64 0-60 19.77-60 45s26.36 45 60 45c18.1 0 34.09-5.73 45-14.95 10.91 9.22 26.9 14.95 45 14.95 33.64 0 60-19.77 60-45s-26.36-45-60-45z" fill="#4bb9ec"/><path d="m301 107.5c-18.1 0-34.09 5.73-45 14.95v60.1c10.91 9.22 26.9 14.95 45 14.95 33.64 0 60-19.77 60-45s-26.36-45-60-45z" fill="#0095ff"/><path d="m301 167.5c-18.313 0-30-8.884-30-15s11.687-15 30-15 30 8.884 30 15-11.687 15-30 15z" fill="#4bb9ec"/><path d="m211 167.5c-18.313 0-30-8.884-30-15s11.687-15 30-15 30 8.884 30 15-11.687 15-30 15z" fill="#76e2f8"/><path d="m286 255c0 8.28-6.72 15-15 15h-30c-8.28 0-15-6.72-15-15s6.72-15 15-15h30c8.28 0 15 6.72 15 15z" fill="#ff9100"/><path d="m286 255c0 8.28-6.72 15-15 15h-15v-30h15c8.28 0 15 6.72 15 15z" fill="#ff641a"/><path d="m211 332v83.03c0 8.28-6.72 15-15 15-4.86 0-9.18-2.32-11.92-5.9-1.93-2.53-3.08-5.68-3.08-9.1v-83.03z" fill="#ff641a"/><path d="m331 332v83.03c0 3.42-1.15 6.57-3.08 9.1-2.74 3.58-7.06 5.9-11.92 5.9-8.28 0-15-6.72-15-15v-83.03z" fill="#f03800"/><path d="m286 392c-10.35 0-20.41 2.17-30 6.48-9.59-4.31-19.65-6.48-30-6.48-41.36 0-75 33.64-75 75v45h210v-45c0-41.36-33.64-75-75-75z" fill="#ff9100"/><path d="m286 392c-10.35 0-20.41 2.17-30 6.48v113.52h105v-45c0-41.36-33.64-75-75-75z" fill="#ff641a"/></svg>