<svg id="Capa_1" enable-background="new 0 0 512 512" height="512" viewBox="0 0 512 512" width="512" xmlns="http://www.w3.org/2000/svg"><path d="m360.25 410.7-30 91c-2.03 6.15-7.78 10.3-14.25 10.3h-120c-6.47 0-12.22-4.15-14.25-10.3l-30-91c-.94-2.84-.97-5.77-.27-8.46 4.3 2.4 9.26 3.76 14.52 3.76h180c5.26 0 10.22-1.36 14.52-3.76.7 2.69.67 5.62-.27 8.46z" fill="#76e2f8"/><path d="m360.25 410.7-30 91c-2.03 6.15-7.78 10.3-14.25 10.3h-60v-106h90c5.26 0 10.22-1.36 14.52-3.76.7 2.69.67 5.62-.27 8.46z" fill="#4bb9ec"/><path d="m360.52 109.76c-4.3-2.4-9.26-3.76-14.52-3.76h-180c-5.26 0-10.22 1.36-14.52 3.76-.7-2.69-.67-5.62.27-8.46l30-91c2.03-6.15 7.78-10.3 14.25-10.3h120c6.47 0 12.22 4.15 14.25 10.3l30 91c.94 2.84.97 5.77.27 8.46z" fill="#76e2f8"/><path d="m360.52 109.76c-4.3-2.4-9.26-3.76-14.52-3.76h-90v-106h60c6.47 0 12.22 4.15 14.25 10.3l30 91c.94 2.84.97 5.77.27 8.46z" fill="#4bb9ec"/><path d="m346 91h-180c-24.81 0-45 20.19-45 45v240c0 24.81 20.19 45 45 45h180c24.81 0 45-20.19 45-45v-240c0-24.81-20.19-45-45-45z" fill="#596c76"/><path d="m391 136v240c0 24.81-20.19 45-45 45h-90v-330h90c24.81 0 45 20.19 45 45z" fill="#465a61"/><path d="m294.99 218.52-26-45.02c-2.68-4.64-7.63-7.5-12.99-7.5s-10.31 2.86-12.99 7.5l-26 45.02c-3.93 6.81-6.01 14.58-6.01 22.48 0 24.81 20.19 45 45 45s45-20.19 45-45c0-7.9-2.08-15.67-6.01-22.48z" fill="#76e2f8"/><path d="m301 241c0 24.81-20.19 45-45 45v-120c5.36 0 10.31 2.86 12.99 7.5l26 45.02c3.93 6.81 6.01 14.58 6.01 22.48z" fill="#4bb9ec"/><circle cx="256" cy="346" fill="#e6ffff" r="15"/><path d="m271 346c0 8.28-6.72 15-15 15v-30c8.28 0 15 6.72 15 15z" fill="#d9f2ff"/><circle cx="196" cy="346" fill="#e6ffff" r="15"/><circle cx="316" cy="346" fill="#d9f2ff" r="15"/></svg>