<svg id="Capa_1" enable-background="new 0 0 512 512" height="512" viewBox="0 0 512 512" width="512" xmlns="http://www.w3.org/2000/svg"><path d="m467 31h-422c-8.28 0-15 6.72-15 15v90c0 8.28 6.72 15 15 15h422c8.28 0 15-6.72 15-15v-90c0-8.28-6.72-15-15-15z" fill="#d9f2ff"/><path d="m482 46v90c0 8.28-6.72 15-15 15h-211v-120h211c8.28 0 15 6.72 15 15z" fill="#cdf"/><path d="m117.5 208.5-12.5-72.5h-75.15c-2.201 14.29-10.46 56.954-17.734 120l45.384 12.5c33.137 0 60-26.863 60-60z" fill="#4bb9ec"/><path d="m452 263 49.211-7c-4.752-40.255-11.061-80.314-18.921-120h-75.29l-15 67c0 33.137 26.863 60 60 60z" fill="#0095ff"/><path d="m512 438.97v27.03c0 8.28-6.72 15-15 15h-211c-7.15 0-13.31-5.05-14.71-12.06l-15.29-76.45-15.29 76.45c-1.4 7.01-7.56 12.06-14.71 12.06h-211c-8.28 0-15-6.72-15-15 0-82.3 5.67-154.15 12.12-210h32.88c33.14 0 60-26.86 60-60v-60h302v60c0 33.14 26.86 60 60 60h34.21c7.17 60.74 10.79 121.93 10.79 182.97z" fill="#76e2f8"/><path d="m512 438.97v27.03c0 8.28-6.72 15-15 15h-211c-7.15 0-13.31-5.05-14.71-12.06l-15.29-76.45v-256.49h151v60c0 33.14 26.86 60 60 60h34.21c7.17 60.74 10.79 121.93 10.79 182.97z" fill="#4bb9ec"/><path d="m196 211c-8.284 0-15-6.716-15-15s6.716-15 15-15c8.271 0 15-6.729 15-15v-60c0-8.284 6.716-15 15-15s15 6.716 15 15v60c0 24.813-20.187 45-45 45z" fill="#e6ffff"/><path d="m316 211c-24.813 0-45-20.187-45-45v-60c0-8.284 6.716-15 15-15s15 6.716 15 15v60c0 8.271 6.729 15 15 15 8.284 0 15 6.716 15 15s-6.716 15-15 15z" fill="#d9f2ff"/></svg>