<svg id="Capa_1" enable-background="new 0 0 512 512" height="512" viewBox="0 0 512 512" width="512" xmlns="http://www.w3.org/2000/svg"><path d="m422.069 222.98c-5.86 5.85-15.36 5.85-21.21 0l-148.5-148.5c-5.85-5.85-5.85-15.35 0-21.21 46.91-46.9 122.81-46.9 169.71 0 46.79 46.79 46.79 122.92 0 169.71z" fill="#ffda2d"/><path d="m422.069 222.98c-5.86 5.85-15.36 5.85-21.21 0l-74.25-74.25 95.46-95.46c46.79 46.79 46.79 122.92 0 169.71z" fill="#fdbf00"/><path d="m410.579 190.27-62.75-62.75-62.77-62.77c34.59-24.73 83.76-22.3 115.8 9.73 31.47 31.48 34.71 80.67 9.72 115.79z" fill="#fdbf00"/><path d="m410.579 190.27-62.75-62.75 53.03-53.04c31.47 31.48 34.71 80.67 9.72 115.79z" fill="#ff9100"/><path d="m384.839 107v150l-129 11.3c-33.641-1.134-2.082 1.239-141-11.3v-150c0-8.28 6.72-15 15-15h240c8.28 0 15 6.72 15 15z" fill="#e6ffff"/><path d="m384.839 107v150l-129 11.3v-176.3h114c8.28 0 15 6.72 15 15z" fill="#d9f2ff"/><path d="m234.399 253.39-40.01-161.39-19.55-14-11.37 14 41.81 168.61c2.004 8.106 10.206 12.924 18.17 10.95 8.09-2.001 12.929-10.178 10.95-18.17z" fill="#76e2f8"/><path d="m194.389 92h-30.92l-15.37-62h-78.26c-8.28 0-15-6.72-15-15s6.72-15 15-15h90c6.89 0 12.9 4.7 14.56 11.39z" fill="#4bb9ec"/><path d="m384.839 257v240c0 8.28-6.72 15-15 15h-240c-8.28 0-15-6.72-15-15v-240z" fill="#ffda2d"/><path d="m384.839 257v240c0 8.28-6.72 15-15 15h-114v-255z" fill="#fdbf00"/><path d="m287.869 373.81-32.03 32.03-10.39 10.39c-5.86 5.86-15.36 5.86-21.22 0l-42.42-42.42c-5.86-5.86-5.86-15.36 0-21.22l42.42-42.42c5.86-5.86 15.36-5.86 21.22 0l10.39 10.39 32.03 32.03c5.86 5.86 5.86 15.36 0 21.22z" fill="#e6ffff"/><path d="m287.869 373.81-32.03 32.03v-85.28l32.03 32.03c5.86 5.86 5.86 15.36 0 21.22z" fill="#d9f2ff"/><circle cx="189.839" cy="437" fill="#e6ffff" r="15"/><g fill="#d9f2ff"><circle cx="309.839" cy="437" r="15"/><circle cx="309.839" cy="317" r="15"/></g></svg>