<svg id="Capa_1" enable-background="new 0 0 512 512" height="512" viewBox="0 0 512 512" width="512" xmlns="http://www.w3.org/2000/svg"><path d="m242 166c0-78.76-44.8-166-121-166-75.9 0-121 86.78-121 166 0 66.93 17.79 115.71 33.48 158.75 11.41 31.29 12.26 65.36 11.58 94.57-1.01 44.05 31.15 84.05 75.94 91.45 4.91.82 9.92 1.23 15 1.23 54.83 0 94.73-47.26 90.74-97.91-2.66-33.62-5.4-68.39.54-101.36 7.45-41.39 14.72-86.81 14.72-146.73z" fill="#76e2f8"/><path d="m227.28 312.73c-5.94 32.97-3.2 67.74-.54 101.36 3.99 50.65-35.91 97.91-90.74 97.91-5.08 0-10.09-.41-15-1.23v-510.77c76.2 0 121 87.24 121 166 0 59.92-7.27 105.34-14.72 146.73z" fill="#4bb9ec"/><path d="m512 166c0-78.76-44.8-166-121-166-75.9 0-121 86.78-121 166 0 59.92 7.27 105.34 14.72 146.73 5.94 32.97 3.2 67.74.54 101.36-3.98 50.57 35.83 97.91 90.74 97.91 5.08 0 10.09-.41 15-1.23 44.89-7.42 76.95-47.5 75.94-91.45-.68-29.21.17-63.28 11.58-94.58 15.69-43.03 33.48-91.81 33.48-158.74z" fill="#76e2f8"/><path d="m478.52 324.74c-11.41 31.3-12.26 65.37-11.58 94.58 1.01 43.95-31.05 84.03-75.94 91.45v-510.77c76.2 0 121 87.24 121 166 0 66.93-17.79 115.71-33.48 158.74z" fill="#4bb9ec"/><path d="m181.02 240.88c-8.2 1.05-15.73-4.73-16.79-12.97-6.19-48.14-26.84-76.91-43.23-76.91s-37.04 28.77-43.23 76.91c-1.06 8.22-8.57 14.03-16.79 12.97s-14.02-8.58-12.97-16.79c6.79-52.78 29.26-90.72 57.99-100.57v-32.52c0-8.28 6.72-15 15-15s15 6.72 15 15v32.52c28.73 9.85 51.2 47.79 57.99 100.57 1.05 8.21-4.75 15.73-12.97 16.79z" fill="#e6ffff"/><path d="m181.02 240.88c-8.2 1.05-15.73-4.73-16.79-12.97-6.19-48.14-26.84-76.91-43.23-76.91v-75c8.28 0 15 6.72 15 15v32.52c28.73 9.85 51.2 47.79 57.99 100.57 1.05 8.21-4.75 15.73-12.97 16.79z" fill="#d9f2ff"/><path d="m451.02 240.88c-8.39 1.034-15.743-4.88-16.79-12.97-6.19-48.14-26.84-76.91-43.23-76.91s-37.04 28.77-43.23 76.91c-1.06 8.22-8.57 14.03-16.79 12.97s-14.02-8.58-12.97-16.79c6.79-52.78 29.26-90.72 57.99-100.57v-32.52c0-8.28 6.72-15 15-15s15 6.72 15 15v32.52c28.73 9.85 51.2 47.79 57.99 100.57 1.05 8.21-4.75 15.73-12.97 16.79z" fill="#e6ffff"/><path d="m451.02 240.88c-8.39 1.034-15.743-4.88-16.79-12.97-6.19-48.14-26.84-76.91-43.23-76.91v-75c8.28 0 15 6.72 15 15v32.52c28.73 9.85 51.2 47.79 57.99 100.57 1.05 8.21-4.75 15.73-12.97 16.79z" fill="#d9f2ff"/></svg>