<svg id="Capa_1" enable-background="new 0 0 512 512" height="512" viewBox="0 0 512 512" width="512" xmlns="http://www.w3.org/2000/svg"><path d="m497 0h-482c-8.28 0-15 6.72-15 15v482c0 8.28 6.72 15 15 15h482c8.28 0 15-6.72 15-15v-482c0-8.28-6.72-15-15-15z" fill="#76e2f8"/><path d="m512 15v482c0 8.28-6.72 15-15 15h-241v-512h241c8.28 0 15 6.72 15 15z" fill="#4bb9ec"/><path d="m30 30h452v452h-452z" fill="#a8ebfa"/><g fill="#76e2f8"><path d="m256 30h226v452h-226z"/><path d="m166 77c-8.284 0-15-6.716-15-15v-32c0-8.284 6.716-15 15-15s15 6.716 15 15v32c0 8.284-6.716 15-15 15z"/><path d="m166 227c-8.284 0-15-6.716-15-15v-60c0-8.284 6.716-15 15-15s15 6.716 15 15v60c0 8.284-6.716 15-15 15z"/><path d="m166 377c-8.284 0-15-6.716-15-15v-60c0-8.284 6.716-15 15-15s15 6.716 15 15v60c0 8.284-6.716 15-15 15z"/><path d="m166 497c-8.284 0-15-6.716-15-15v-30c0-8.284 6.716-15 15-15s15 6.716 15 15v30c0 8.284-6.716 15-15 15z"/></g><path d="m346 497c-8.284 0-15-6.716-15-15v-30c0-8.284 6.716-15 15-15s15 6.716 15 15v30c0 8.284-6.716 15-15 15z" fill="#4bb9ec"/><path d="m346 377.002c-8.284 0-15-6.716-15-15v-60.002c0-8.284 6.716-15 15-15s15 6.716 15 15v60.002c0 8.285-6.716 15-15 15z" fill="#4bb9ec"/><path d="m346 227.001c-8.284 0-15-6.716-15-15v-60.001c0-8.284 6.716-15 15-15s15 6.716 15 15v60.001c0 8.285-6.716 15-15 15z" fill="#4bb9ec"/><path d="m346 77c-8.284 0-15-6.716-15-15v-32c0-8.284 6.716-15 15-15s15 6.716 15 15v32c0 8.284-6.716 15-15 15z" fill="#4bb9ec"/><path d="m76 452c-8.284 0-15-6.716-15-15v-60c0-8.284 6.716-15 15-15s15 6.716 15 15v60c0 8.284-6.716 15-15 15z" fill="#76e2f8"/><path d="m76 332c-8.284 0-15-6.716-15-15v-180c0-8.284 6.716-15 15-15s15 6.716 15 15v180c0 8.284-6.716 15-15 15z" fill="#76e2f8"/><path d="m271 77v60c0 8.28-6.72 15-15 15s-15-6.72-15-15v-60c0-8.28 6.72-15 15-15s15 6.72 15 15z" fill="#76e2f8"/><path d="m271 197v180c0 8.28-6.72 15-15 15s-15-6.72-15-15v-180c0-8.28 6.72-15 15-15s15 6.72 15 15z" fill="#76e2f8"/><path d="m436 332c-8.284 0-15-6.716-15-15v-180c0-8.284 6.716-15 15-15s15 6.716 15 15v180c0 8.284-6.716 15-15 15z" fill="#4bb9ec"/><path d="m436 452c-8.284 0-15-6.716-15-15v-60c0-8.284 6.716-15 15-15s15 6.716 15 15v60c0 8.284-6.716 15-15 15z" fill="#4bb9ec"/><circle cx="256" cy="437" fill="#76e2f8" r="15"/><path d="m271 437c0 8.28-6.72 15-15 15v-30c8.28 0 15 6.72 15 15z" fill="#4bb9ec"/><path d="m271 77v60c0 8.28-6.72 15-15 15v-90c8.28 0 15 6.72 15 15z" fill="#4bb9ec"/><path d="m271 197v180c0 8.28-6.72 15-15 15v-210c8.28 0 15 6.72 15 15z" fill="#4bb9ec"/><circle cx="436" cy="77" fill="#4bb9ec" r="15"/><circle cx="76" cy="77" fill="#76e2f8" r="15"/><path d="m166 167c-25.234 0-45-26.355-45-60s19.766-60 45-60 45 26.355 45 60-19.766 60-45 60zm0-90c-6.116 0-15 11.687-15 30s8.884 30 15 30 15-11.687 15-30-8.884-30-15-30z" fill="#e6ffff"/><path d="m166 317c-25.234 0-45-26.355-45-60s19.766-60 45-60 45 26.355 45 60-19.766 60-45 60zm0-90c-6.116 0-15 11.687-15 30s8.884 30 15 30 15-11.687 15-30-8.884-30-15-30z" fill="#ff9100"/><path d="m166 467c-25.234 0-45-26.355-45-60s19.766-60 45-60 45 26.355 45 60-19.766 60-45 60zm0-90c-6.116 0-15 11.687-15 30s8.884 30 15 30 15-11.687 15-30-8.884-30-15-30z" fill="#e6ffff"/><path d="m346 167c-25.234 0-45-26.355-45-60s19.766-60 45-60 45 26.355 45 60-19.766 60-45 60zm0-90c-6.116 0-15 11.687-15 30s8.884 30 15 30 15-11.687 15-30-8.884-30-15-30z" fill="#d9f2ff"/><path d="m346 317c-25.234 0-45-26.355-45-60s19.766-60 45-60 45 26.355 45 60-19.766 60-45 60zm0-90c-6.116 0-15 11.687-15 30s8.884 30 15 30 15-11.687 15-30-8.884-30-15-30z" fill="#ff641a"/><path d="m346 467c-25.234 0-45-26.355-45-60s19.766-60 45-60 45 26.355 45 60-19.766 60-45 60zm0-90c-6.116 0-15 11.687-15 30s8.884 30 15 30 15-11.687 15-30-8.884-30-15-30z" fill="#d9f2ff"/></svg>