<svg id="Capa_1" enable-background="new 0 0 512 512" height="512" viewBox="0 0 512 512" width="512" xmlns="http://www.w3.org/2000/svg"><path d="m271 157.72v279.28c0 8.28-6.72 15-15 15s-15-6.72-15-15v-279.28c0-8.28 6.72-15 15-15s15 6.72 15 15z" fill="#fdbf00"/><path d="m271 157.72v279.28c0 8.28-6.72 15-15 15v-309.28c8.28 0 15 6.72 15 15z" fill="#ff9100"/><path d="m361 497h-210c0-41.35 33.65-75 75-75h60c41.36 0 75 33.65 75 75z" fill="#d9f2ff"/><path d="m361 497h-105v-75h30c41.36 0 75 33.65 75 75z" fill="#cdf"/><path d="m481 497c0 8.28-6.72 15-15 15h-420c-8.28 0-15-6.72-15-15s6.72-15 15-15h420c8.28 0 15 6.72 15 15z" fill="#e6ffff"/><path d="m481 497c0 8.28-6.72 15-15 15h-210v-30h210c8.28 0 15 6.72 15 15z" fill="#d9f2ff"/><path d="m345.14 209.96c-3.66-.21-7.14-1.74-9.75-4.35-21.2-21.21-49.4-32.89-79.39-32.89s-58.19 11.68-79.39 32.89c-2.61 2.61-6.09 4.14-9.75 4.35-2.61-47.19-21.08-87.06-13.06-118.96 14.88-59.26 67.21-91 102.2-91 35.19 0 85.66 32.09 100.46 92 7.83 31.73-8.73 71.26-11.32 117.96z" fill="#76e2f8"/><path d="m345.14 209.96c-3.66-.21-7.14-1.74-9.75-4.35-21.2-21.21-49.4-32.89-79.39-32.89v-172.72c35.19 0 85.66 32.09 100.46 92 7.83 31.73-8.73 71.26-11.32 117.96z" fill="#4bb9ec"/><path d="m256 0c-124.156 0-225 70.364-225 195 0 6.067 3.655 11.537 9.26 13.858s12.057 1.039 16.347-3.252c13.193-13.193 30.735-20.459 49.393-20.459 18.659 0 36.2 7.266 49.394 20.459 2.813 2.813 6.627 4.394 10.606 4.394.289 0 .574-.026.861-.043-7.474-134.856 35.308-209.957 89.139-209.957z" fill="#4bb9ec"/><path d="m256 0c53.832 0 96.618 75.098 89.143 209.958.286.016.57.042.857.042 3.979 0 7.794-1.581 10.606-4.394 13.193-13.193 30.735-20.459 49.394-20.459s36.2 7.266 49.394 20.459c4.29 4.291 10.744 5.573 16.347 3.252 5.605-2.322 9.26-7.792 9.26-13.858-.001-124.657-100.869-195-225.001-195z" fill="#0095ff"/></svg>