<svg id="Capa_1" enable-background="new 0 0 512 512" height="512" viewBox="0 0 512 512" width="512" xmlns="http://www.w3.org/2000/svg"><path d="m330.93 196.44-29.93 300.56c0 8.28-6.72 15-15 15h-180c-7.71 0-14.16-5.84-14.93-13.52l-30-302c-.82-8.24 5.2-15.59 13.45-16.41.05-.01 60.77-.01 121.48-.01 60.7 0 121.4.01 121.45.01 8.24.8 14.28 8.13 13.48 16.37z" fill="#76e2f8"/><path d="m330.93 196.44-29.93 300.56c0 8.28-6.72 15-15 15h-90v-331.94c60.7 0 121.4.01 121.45.01 8.24.8 14.28 8.13 13.48 16.37z" fill="#4bb9ec"/><path d="m331 135c0 8.28-6.72 15-15 15h-240c-8.28 0-15-6.72-15-15 0-29.9 9.77-57.55 26.28-79.95 6.06-8.21 13.02-15.72 20.74-22.36 23.65-20.37 54.4-32.69 87.98-32.69 74.44 0 135 60.56 135 135z" fill="#d9f2ff"/><path d="m331 135c0 8.28-6.72 15-15 15h-120v-150c74.44 0 135 60.56 135 135z" fill="#cdf"/><path d="m175 147c-6.609 4.945-16.002 3.659-21-3l-66.72-88.95c3.106-4.208.16-16.233 3.72-20.05 3.386-3.63 13.257.927 17.02-2.31l69.98 93.31c4.97 6.63 3.63 16.03-3 21z" fill="#76e2f8"/><path d="m482 437c0 41.35-33.64 75-75 75h-120c-41.36 0-75-33.65-75-75 0-8.28 6.72-15 15-15h240c8.28 0 15 6.72 15 15z" fill="#ffda2d"/><path d="m482 437c0 41.35-33.64 75-75 75h-60v-90h120c8.28 0 15 6.72 15 15z" fill="#fdbf00"/><path d="m482 347c0 8.28-6.72 15-15 15h-240c-8.28 0-15-6.72-15-15 0-57.9 47.1-105 105-105h60c57.9 0 105 47.1 105 105z" fill="#ffda2d"/><path d="m482 347c0 8.28-6.72 15-15 15h-120v-120h30c57.9 0 105 47.1 105 105z" fill="#fdbf00"/><path d="m512 392c0 24.81-20.19 45-45 45h-240c-24.81 0-45-20.19-45-45s20.19-45 45-45h240c24.81 0 45 20.19 45 45z" fill="#ff9100"/><path d="m512 392c0 24.81-20.19 45-45 45h-120v-90h120c24.81 0 45 20.19 45 45z" fill="#ff641a"/><path d="m346 120h-300c-8.28 0-15 6.72-15 15v60c0 8.28 6.72 15 15 15h300c8.28 0 15-6.72 15-15v-60c0-8.28-6.72-15-15-15z" fill="#4bb9ec"/><path d="m361 135v60c0 8.28-6.72 15-15 15h-150v-90h150c8.28 0 15 6.72 15 15z" fill="#0095ff"/><path d="m108.02 32.69c-7.72 6.64-14.68 14.15-20.74 22.36l-18.78-25.05h-53.5c-8.28 0-15-6.72-15-15s6.72-15 15-15h61c4.72 0 9.17 2.22 12 6z" fill="#4bb9ec"/></svg>