<svg id="Capa_1" enable-background="new 0 0 512 512" height="512" viewBox="0 0 512 512" width="512" xmlns="http://www.w3.org/2000/svg"><path d="m376 120.91h-30.31c-14.09-18.69-36.24-30-59.69-30-8.28 0-15 6.72-15 15v90c0 8.27-6.73 15-15 15h-120c-8.27 0-15-6.73-15-15 0-8.28-6.72-15-15-15s-15 6.72-15 15c0 20.72 14.08 38.21 33.18 43.41-2.04 5.14-3.18 10.73-3.18 16.59v120c0 8.28 6.72 15 15 15h60c8.28 0 15-6.72 15-15v-30c0-8.27 6.73-15 15-15h30c8.27 0 15 6.73 15 15v30c0 8.28 6.72 15 15 15h60c8.28 0 15-6.72 15-15v-150c0-4.09 1.66-8.07 4.55-10.93 2.67-2.63 6.12-4.07 9.73-4.07h.17c12.14.12 23.55-4.47 32.18-12.99 8.62-8.52 13.37-19.89 13.37-32.01 0-24.81-20.19-45-45-45z" fill="#596c76"/><path d="m376 120.91h-30.31c-14.09-18.69-36.24-30-59.69-30-8.28 0-15 6.72-15 15v90c0 8.27-6.73 15-15 15h-45l150 150v-135c0-4.09 1.66-8.07 4.55-10.93 2.67-2.63 6.12-4.07 9.73-4.07h.17c12.14.12 23.55-4.47 32.18-12.99 8.62-8.52 13.37-19.89 13.37-32.01 0-24.81-20.19-45-45-45z" fill="#465a61"/><path d="m256 0c-70.79 0-134.79 28.61-181.09 74.91h-.01c-46.3 46.31-74.9 110.31-74.9 181.09 0 141.61 114.43 256 256 256 70.79 0 134.79-28.61 181.09-74.91 46.31-46.3 74.91-110.3 74.91-181.09 0-141.61-114.43-256-256-256zm-226 256c0-57.098 21.059-109.182 55.859-148.921l319.08 319.08c-39.73 34.776-91.807 55.841-148.939 55.841-125.09 0-226-100.86-226-226zm396.16 148.94-319.082-319.082c39.729-34.792 91.798-55.858 148.922-55.858 125.09 0 226 100.86 226 226 0 57.125-21.05 109.202-55.84 148.94z" fill="#ff641a"/><path d="m512 256c0-141.61-114.43-256-256-256-70.79 0-134.79 28.61-181.09 74.91l362.18 362.18c46.31-46.3 74.91-110.3 74.91-181.09zm-30 0c0 57.125-21.05 109.202-55.84 148.94l-319.082-319.082c39.729-34.792 91.798-55.858 148.922-55.858 125.09 0 226 100.86 226 226z" fill="#f03800"/></svg>