<svg id="Capa_1" enable-background="new 0 0 512 512" height="512" viewBox="0 0 512 512" width="512" xmlns="http://www.w3.org/2000/svg"><path d="m76 240.91c-8.28 0-15 6.72-15 15v60c0 8.28 6.72 15 15 15h120l6-44-6-46z" fill="#ffda2d"/><path d="m353.021 121.349c-10.519-18.548-30.321-30.439-52.021-30.439-33.084 0-60 26.916-60 60s26.916 60 60 60h74.999c12.021 0 23.321 4.681 31.82 13.18 4.83 4.829 8.427 10.563 10.632 16.82l32.548 15v-27.246c.001-56.119-43.127-102.357-97.978-107.315z" fill="#596c76"/><path d="m451 255.91v60c0 8.28-6.72 15-15 15h-60l-12-44 12-46h60c8.28 0 15 6.72 15 15z" fill="#ff641a"/><path d="m196 240.91h180v90h-180z" fill="#d9f2ff"/><path d="m376 240.91v90h-45l-90-90z" fill="#cdf"/><path d="m256 0c-70.79 0-134.79 28.61-181.09 74.91h-.01c-46.3 46.31-74.9 110.31-74.9 181.09 0 141.61 114.43 256 256 256 70.79 0 134.79-28.61 181.09-74.91 46.31-46.3 74.91-110.3 74.91-181.09 0-141.61-114.43-256-256-256zm-226 256c0-57.098 21.059-109.182 55.859-148.921l319.08 319.08c-39.73 34.776-91.807 55.841-148.939 55.841-125.09 0-226-100.86-226-226zm396.16 148.94-319.082-319.082c39.729-34.792 91.798-55.858 148.922-55.858 125.09 0 226 100.86 226 226 0 57.125-21.05 109.202-55.84 148.94z" fill="#ff641a"/><path d="m512 256c0-141.61-114.43-256-256-256-70.79 0-134.79 28.61-181.09 74.91l362.18 362.18c46.31-46.3 74.91-110.3 74.91-181.09zm-30 0c0 57.125-21.05 109.202-55.84 148.94l-319.082-319.082c39.729-34.792 91.798-55.858 148.922-55.858 125.09 0 226 100.86 226 226z" fill="#f03800"/></svg>