<svg id="Capa_1" enable-background="new 0 0 512 512" height="512" viewBox="0 0 512 512" width="512" xmlns="http://www.w3.org/2000/svg"><path d="m467 0h-422c-24.81 0-45 20.19-45 45v422c0 24.81 20.19 45 45 45h422c24.81 0 45-20.19 45-45v-422c0-24.81-20.19-45-45-45z" fill="#e6ffff"/><path d="m512 45v422c0 24.81-20.19 45-45 45h-211v-512h211c24.81 0 45 20.19 45 45z" fill="#d9f2ff"/><path d="m136 182c-24.813 0-45-20.187-45-45s20.187-45 45-45 45 20.187 45 45-20.187 45-45 45z" fill="#4bb9ec"/><path d="m376 182c-24.813 0-45-20.187-45-45s20.187-45 45-45 45 20.187 45 45-20.187 45-45 45z" fill="#ff641a"/><path d="m256 92c-8.28 0-15 6.72-15 15v300c0 8.28 6.72 15 15 15s15-6.72 15-15v-300c0-8.28-6.72-15-15-15z" fill="#596c76"/><path d="m256 92v330c8.28 0 15-6.72 15-15v-300c0-8.28-6.72-15-15-15z" fill="#465a61"/><path d="m166 422h-60c-8.284 0-15-6.716-15-15v-117.566l-29.23-87.69c-3.234-9.703 3.996-19.744 14.23-19.744h120c10.225 0 17.466 10.033 14.23 19.744l-29.23 87.69v117.566c0 8.284-6.716 15-15 15z" fill="#4bb9ec"/><path d="m406 422h-60c-8.284 0-15-6.716-15-15v-75h-15c-10.096 0-17.337-9.806-14.317-19.474l37.5-120c1.957-6.262 7.756-10.526 14.317-10.526h45c6.561 0 12.36 4.264 14.317 10.526l37.5 120c3.012 9.639-4.19 19.474-14.317 19.474h-15v75c0 8.284-6.716 15-15 15z" fill="#ff641a"/></svg>