<svg id="Capa_1" enable-background="new 0 0 512.003 512.003" height="512" viewBox="0 0 512.003 512.003" width="512" xmlns="http://www.w3.org/2000/svg"><path d="m204.028 392.001h-68.027c-8.284 0-15 6.716-15 15v60c0 8.284 6.716 15 15 15h68.027c8.284 0 15-6.716 15-15v-60c0-8.284-6.716-15-15-15z" fill="#ffda2d"/><path d="m466.001 268.61-60 31.456c-8.284 0-15 6.716-15 15v61.936c0 8.271-6.729 15-15 15h-68.027c-8.284 0-15 6.716-15 15v60c0 8.284 6.716 15 15 15h68.027c57.897 0 105-47.103 105-105v-93.392c0-8.284-6.715-15-15-15z" fill="#fdbf00"/><path d="m466.001.001h-60c-8.284 0-15 6.716-15 15v93.063c0 10.767-.623 7.976 75 45.452 8.284 0 15-6.716 15-15v-123.515c0-8.284-6.715-15-15-15z" fill="#fdbf00"/><path d="m391.001 91.001h-264.06c-64.99 0-123.33 48.82-126.77 114.52-3.66 69.95 51.79 127.48 120.83 127.48h75.62c5.68 0 10.87-3.21 13.41-8.29l16.86-33.72c5.55-11.1 16.7-17.99 29.11-17.99s23.56 6.89 29.11 17.99l16.86 33.72c2.54 5.08 7.73 8.29 13.41 8.29h69.68c64.99 0 123.33-48.82 126.77-114.52 3.66-69.95-51.79-127.48-120.83-127.48z" fill="#76e2f8"/><path d="m391.001 91.001h-135v182c12.41 0 23.56 6.89 29.11 17.99l16.86 33.72c2.54 5.08 7.73 8.29 13.41 8.29h69.68c64.99 0 123.33-48.82 126.77-114.52 3.66-69.95-51.79-127.48-120.83-127.48z" fill="#4bb9ec"/><path d="m481.871 216.921c-2.57 49.09-47.08 86.08-96.81 86.08h-60.41l-12.71-25.43c-10.66-21.32-32.1-34.57-55.94-34.57s-45.28 13.25-55.94 34.57l-12.71 25.43h-66.35c-51.9 0-93.64-43.06-90.87-95.92 2.57-49.09 47.08-86.08 96.81-86.08h264.06c51.9 0 93.64 43.06 90.87 95.92z" fill="#e6ffff"/><path d="m391.001 121.001h-135v122c23.84 0 45.28 13.25 55.94 34.57l12.71 25.43h60.41c49.73 0 94.24-36.99 96.81-86.08 2.77-52.86-38.97-95.92-90.87-95.92z" fill="#d9f2ff"/><path d="m256.001 362.001c-41.35 0-75 33.65-75 75s33.65 75 75 75 75-33.65 75-75-33.65-75-75-75z" fill="#ff9100"/><path d="m331.001 437.001c0 41.35-33.65 75-75 75v-150c41.35 0 75 33.65 75 75z" fill="#ff641a"/><circle cx="256.001" cy="437.001" fill="#ff641a" r="15"/><path d="m271.001 437.001c0 8.28-6.72 15-15 15v-30c8.28 0 15 6.72 15 15z" fill="#f03800"/></svg>