<svg id="Capa_1" enable-background="new 0 0 511.995 511.995" height="512" viewBox="0 0 511.995 511.995" width="512" xmlns="http://www.w3.org/2000/svg"><path d="m507.607 385.492c-5.86-5.86-15.36-5.86-21.22 0-27.51 27.51-72.27 27.51-99.78 0-5.86-5.86-15.36-5.86-21.22 0-27.23 27.23-71.55 27.23-98.78 0-2.93-2.93-6.77-4.4-10.61-4.4s-7.68 1.47-10.61 4.4c-27.23 27.23-71.55 27.23-98.78 0-5.86-5.86-15.36-5.86-21.22 0-27.51 27.51-72.27 27.51-99.78 0-5.86-5.86-15.36-5.86-21.22 0-5.85 5.86-5.85 15.35 0 21.21 36.223 36.223 93.054 38.26 131.61 9.22 35.39 26.64 84.61 26.64 120 0 35.39 26.64 84.61 26.64 120 0 38.553 29.038 95.385 27.005 131.61-9.22 5.85-5.86 5.85-15.351 0-21.21z" fill="#76e2f8"/><path d="m507.607 385.492c-5.86-5.86-15.36-5.86-21.22 0-27.51 27.51-72.27 27.51-99.78 0-5.86-5.86-15.36-5.86-21.22 0-27.23 27.23-71.55 27.23-98.78 0-2.93-2.93-6.77-4.4-10.61-4.4v34.83c35.39 26.64 84.61 26.64 120 0 38.553 29.038 95.385 27.005 131.61-9.22 5.85-5.86 5.85-15.351 0-21.21z" fill="#4bb9ec"/><path d="m507.607 325.492c-5.86-5.86-15.36-5.86-21.22 0-26.534 26.534-69.111 27.466-96.783 2.814-.662-1.189-1.486-2.313-2.497-3.324l-39.54-39.55c19.63 4.73 41.17-.57 56.51-15.91 23.399-23.38 23.401-61.449 0-84.85-23.45-23.45-61.4-23.45-84.85 0-15.31 15.31-20.6 36.9-15.87 56.56l-47.36-47.37-.26-.26.26-.16 56.39-33.82c21.27-12.78 28.19-40.48 15.46-61.7-12.73-21.39-40.48-28.24-61.77-15.48l-10.08 6.05-79.54 47.73c-33.41 20.04-39.16 66.22-11.53 93.86l28.84 28.83-63.213 63.213c-1.882.731-3.648 1.848-5.167 3.367-27.51 27.51-72.27 27.51-99.78 0-5.86-5.86-15.36-5.86-21.22 0-5.85 5.86-5.85 15.35 0 21.21 36.223 36.223 93.054 38.26 131.61 9.22 35.39 26.64 84.61 26.64 120 0 35.39 26.64 84.61 26.64 120 0 38.553 29.038 95.385 27.005 131.61-9.22 5.85-5.86 5.85-15.351 0-21.21z" fill="#76e2f8"/><g fill="#4bb9ec"><path d="m327.848 97.921c-12.73-21.39-40.48-28.24-61.77-15.48l-10.08 6.05v104.95l56.39-33.82c21.269-12.779 28.19-40.48 15.46-61.7z"/><path d="m507.607 325.492c-5.86-5.86-15.36-5.86-21.22 0-26.534 26.534-69.111 27.466-96.783 2.814-.662-1.189-1.486-2.313-2.497-3.324l-39.54-39.55c19.63 4.73 41.17-.57 56.51-15.91 23.399-23.38 23.401-61.449 0-84.85-23.45-23.45-61.4-23.45-84.85 0-15.31 15.31-20.6 36.9-15.87 56.56l-47.36-47.37v127.23 28.14 6.69c35.39 26.64 84.61 26.64 120 0 38.553 29.038 95.385 27.005 131.61-9.22 5.85-5.86 5.85-15.351 0-21.21z"/></g></svg>