<svg id="Capa_1" enable-background="new 0 0 512 512" height="512" viewBox="0 0 512 512" width="512" xmlns="http://www.w3.org/2000/svg"><g fill="#fdbf00"><path d="m225.853 332h-138.682c-8.284 0-15-6.716-15-15s6.716-15 15-15h138.682c8.284 0 15 6.716 15 15s-6.716 15-15 15z"/><path d="m195.853 392c-8.284 0-15-6.716-15-15v-60c0-8.284 6.716-15 15-15s15 6.716 15 15v60c0 8.284-6.716 15-15 15z"/><path d="m301.853 157.72v339.28c0 8.28-6.72 15-15 15s-15-6.72-15-15v-339.28c0-8.28 6.72-15 15-15s15 6.72 15 15z"/></g><path d="m301.853 157.72v339.28c0 8.28-6.72 15-15 15v-369.28c8.28 0 15 6.72 15 15z" fill="#ff9100"/><path d="m375.993 209.96c-3.66-.21-7.14-1.74-9.75-4.35-21.2-21.21-49.4-32.89-79.39-32.89s-58.19 11.68-79.39 32.89c-2.61 2.61-6.09 4.14-9.75 4.35-2.61-47.19-21.08-87.06-13.06-118.96 14.88-59.26 67.21-91 102.2-91 35.19 0 85.66 32.09 100.46 92 7.83 31.73-8.73 71.26-11.32 117.96z" fill="#76e2f8"/><path d="m375.993 209.96c-3.66-.21-7.14-1.74-9.75-4.35-21.2-21.21-49.4-32.89-79.39-32.89v-172.72c35.19 0 85.66 32.09 100.46 92 7.83 31.73-8.73 71.26-11.32 117.96z" fill="#4bb9ec"/><path d="m286.853 0c-124.156 0-225 70.364-225 195 0 6.067 3.655 11.537 9.26 13.858s12.057 1.039 16.347-3.252c13.194-13.193 30.735-20.459 49.394-20.459s36.2 7.266 49.394 20.459c2.813 2.813 6.628 4.394 10.606 4.394.289 0 .574-.026.861-.043-7.475-134.856 35.307-209.957 89.138-209.957z" fill="#4bb9ec"/><path d="m286.853 0c53.832 0 96.618 75.098 89.143 209.958.286.016.57.042.857.042 3.979 0 7.794-1.581 10.606-4.394 13.193-13.193 30.735-20.459 49.394-20.459s36.2 7.266 49.394 20.459c4.29 4.291 10.744 5.573 16.347 3.252 5.605-2.322 9.26-7.792 9.26-13.858-.001-124.657-100.869-195-225.001-195z" fill="#0095ff"/><path d="m105.853 512h-30c-8.284 0-15-6.716-15-15s6.716-15 15-15h20.729l25.854-51.708c3.705-7.41 12.715-10.414 20.125-6.708s10.413 12.715 6.708 20.125l-30 60c-2.54 5.081-7.734 8.291-13.416 8.291z" fill="#fdbf00"/><path d="m466.853 512h-30c-5.682 0-10.876-3.21-13.416-8.292l-30-60c-3.705-7.41-.702-16.419 6.708-20.125 7.411-3.706 16.42-.702 20.124 6.708l25.855 51.709h20.729c8.284 0 15 6.716 15 15s-6.716 15-15 15z" fill="#ff9100"/><path d="m466.853 362h-350.52l-26.18-87.25c-5.87-19.59-23.56-32.75-44.01-32.75-14.68 0-28.12 6.75-36.87 18.52-8.76 11.78-11.37 26.59-7.15 40.64l35.63 118.77c5.76 19.18 23.08 32.07 43.1 32.07h386c24.81 0 45-20.19 45-45s-20.19-45-45-45z" fill="#d9f2ff"/><path d="m511.853 407c0 24.81-20.19 45-45 45h-180v-90h180c24.81 0 45 20.19 45 45z" fill="#cdf"/></svg>