<svg id="Capa_1" enable-background="new 0 0 512 512" height="512" viewBox="0 0 512 512" width="512" xmlns="http://www.w3.org/2000/svg"><path d="m46 452h-31c-8.284 0-15-6.716-15-15s6.716-15 15-15h31c8.284 0 15 6.716 15 15s-6.716 15-15 15z" fill="#ff641a"/><path d="m301 437c0 8.28-6.72 15-15 15h-60c-8.29 0-15-6.72-15-15s6.71-15 15-15h60c8.28 0 15 6.72 15 15z" fill="#ff641a"/><path d="m301 437c0 8.28-6.72 15-15 15h-30v-30h30c8.28 0 15 6.72 15 15z" fill="#f03800"/><path d="m497 452h-31c-8.284 0-15-6.716-15-15s6.716-15 15-15h31c8.284 0 15 6.716 15 15s-6.716 15-15 15z" fill="#f03800"/><path d="m331 11.17c-3.519-1.076-7.339-.419-10.297 1.77-2.958 2.188-4.703 5.65-4.703 9.33v232.73l103 18 93-18c0-114.63-76.32-211.83-181-243.83z" fill="#0095ff"/><path d="m136 512c-49.914 0-105-27.303-105-75 0-47.716 55.118-75 105-75 49.914 0 105 27.303 105 75 0 47.716-55.118 75-105 75z" fill="#ff9100"/><path d="m136 482c-36.22 0-75-18.082-75-45s38.78-45 75-45 75 18.082 75 45-38.78 45-75 45z" fill="#e6ffff"/><path d="m376 362c-49.882 0-105 27.284-105 75 0 47.696 55.086 75 105 75 49.882 0 105-27.284 105-75 0-47.697-55.086-75-105-75z" fill="#ff641a"/><path d="m376 482c-36.22 0-75-18.082-75-45s38.78-45 75-45 75 18.082 75 45-38.78 45-75 45z" fill="#d9f2ff"/><path d="m191.297 12.94c-2.958-2.189-6.778-2.845-10.297-1.77-104.68 32-181 129.2-181 243.83l104 10 92-10v-232.73c0-3.68-1.745-7.142-4.703-9.33z" fill="#4bb9ec"/><path d="m0 315c0 8.28 6.72 15 15 15h166c8.284 0 15-6.716 15-15v-60h-196z" fill="#76e2f8"/><path d="m316 255v60c0 8.284 6.716 15 15 15h166c8.28 0 15-6.72 15-15v-60z" fill="#4bb9ec"/><path d="m331 11.17v318.83h-150v-318.83c23.73-7.26 48.91-11.17 75-11.17s51.27 3.91 75 11.17z" fill="#a8ebfa"/><path d="m331 11.17v318.83h-75v-330c26.09 0 51.27 3.91 75 11.17z" fill="#76e2f8"/></svg>