<svg id="Capa_1" enable-background="new 0 0 513 513" height="512" viewBox="0 0 513 513" width="512" xmlns="http://www.w3.org/2000/svg"><path d="m240 15.5v48.45c0 70.92-8.68 140.83-25.9 208.9l-18.1 3.65 9.29 28.55c-7.56 25.64-16.35 51-26.36 76.02-2.28 5.7-7.8 9.43-13.93 9.43h-90c-6.13 0-11.65-3.73-13.93-9.43-9.8-24.5-18.43-49.32-25.89-74.42l5.82-30.15-14.76-2.29c-17.44-68.5-26.24-138.86-26.24-210.26v-48.45c0-8.28 6.72-15 15-15h30c24.81 0 45 20.19 45 45 0 8.27 6.73 15 15 15h30c8.27 0 15-6.73 15-15 0-24.81 20.19-45 45-45h30c8.28 0 15 6.72 15 15z" fill="#4bb9ec"/><path d="m240 15.5v48.45c0 70.92-8.68 140.83-25.9 208.9l-18.1 3.65 9.29 28.55c-7.56 25.64-16.35 51-26.36 76.02-2.28 5.7-7.8 9.43-13.93 9.43h-44v-330h14c8.27 0 15-6.73 15-15 0-24.81 20.19-45 45-45h30c8.28 0 15 6.72 15 15z" fill="#0095ff"/><path d="m214.1 272.85c-2.71 10.78-5.65 21.52-8.81 32.2-21.96-21.66-51.96-34.55-84.29-34.55-32.84 0-63.55 13.32-85.82 36.15-3.2-10.76-6.18-21.58-8.94-32.44 14.7-12 31.58-21.12 49.76-26.83v-111.88c0-8.28 6.72-15 15-15s15 6.72 15 15v105.75c4.95-.5 9.96-.75 15-.75 5.05 0 10.05.25 15 .74v-105.74c0-8.28 6.72-15 15-15s15 6.72 15 15v111.89c17.55 5.5 33.84 14.17 48.1 25.46z" fill="#76e2f8"/><path d="m214.1 272.85c-2.71 10.78-5.65 21.52-8.81 32.2-21.96-21.66-51.96-34.55-84.29-34.55v-30c5.05 0 10.05.25 15 .74v-105.74c0-8.28 6.72-15 15-15s15 6.72 15 15v111.89c17.55 5.5 33.84 14.17 48.1 25.46z" fill="#4bb9ec"/><path d="m121 512.5c-33.084 0-60-26.916-60-60v-62c0-33.084 26.916-60 60-60s60 26.916 60 60v62c0 33.084-26.916 60-60 60z" fill="#76e2f8"/><path d="m121 330.5v182c33.084 0 60-26.916 60-60v-62c0-33.084-26.916-60-60-60z" fill="#4bb9ec"/><path d="m151 390.5v62c0 16.54-13.46 30-30 30s-30-13.46-30-30v-62c0-16.54 13.46-30 30-30s30 13.46 30 30z" fill="#596c76"/><path d="m151 390.5v62c0 16.54-13.46 30-30 30v-122c16.54 0 30 13.46 30 30z" fill="#465a61"/><path d="m513 15.5v48.45c0 70.92-8.68 140.83-25.9 208.9l-18.1 3.65 9.29 28.55c-7.56 25.64-16.35 51-26.36 76.02-2.28 5.7-7.8 9.43-13.93 9.43h-90c-6.13 0-11.65-3.73-13.93-9.43-9.8-24.5-18.43-49.32-25.89-74.42l5.82-30.15-14.76-2.29c-17.44-68.5-26.24-138.86-26.24-210.26v-48.45c0-8.28 6.72-15 15-15h30c24.81 0 45 20.19 45 45 0 8.27 6.73 15 15 15h30c8.27 0 15-6.73 15-15 0-24.81 20.19-45 45-45h30c8.28 0 15 6.72 15 15z" fill="#4bb9ec"/><path d="m513 15.5v48.45c0 70.92-8.68 140.83-25.9 208.9l-18.1 3.65 9.29 28.55c-7.56 25.64-16.35 51-26.36 76.02-2.28 5.7-7.8 9.43-13.93 9.43h-44v-330h14c8.27 0 15-6.73 15-15 0-24.81 20.19-45 45-45h30c8.28 0 15 6.72 15 15z" fill="#0095ff"/><path d="m487.1 272.85c-2.71 10.78-5.65 21.52-8.81 32.2-21.96-21.66-51.96-34.55-84.29-34.55-32.84 0-63.55 13.32-85.82 36.15-3.2-10.76-6.18-21.58-8.94-32.44 14.7-12 31.58-21.12 49.76-26.83v-111.88c0-8.28 6.72-15 15-15s15 6.72 15 15v105.75c4.95-.5 9.96-.75 15-.75 5.05 0 10.05.25 15 .74v-105.74c0-8.28 6.72-15 15-15s15 6.72 15 15v111.89c17.55 5.5 33.84 14.17 48.1 25.46z" fill="#76e2f8"/><path d="m487.1 272.85c-2.71 10.78-5.65 21.52-8.81 32.2-21.96-21.66-51.96-34.55-84.29-34.55v-30c5.05 0 10.05.25 15 .74v-105.74c0-8.28 6.72-15 15-15s15 6.72 15 15v111.89c17.55 5.5 33.84 14.17 48.1 25.46z" fill="#4bb9ec"/><path d="m394 512.5c-33.084 0-60-26.916-60-60v-62c0-33.084 26.916-60 60-60s60 26.916 60 60v62c0 33.084-26.916 60-60 60z" fill="#76e2f8"/><path d="m394 330.5v182c33.084 0 60-26.916 60-60v-62c0-33.084-26.916-60-60-60z" fill="#4bb9ec"/><path d="m424 390.5v62c0 16.54-13.46 30-30 30s-30-13.46-30-30v-62c0-16.54 13.46-30 30-30s30 13.46 30 30z" fill="#596c76"/><path d="m424 390.5v62c0 16.54-13.46 30-30 30v-122c16.54 0 30 13.46 30 30z" fill="#465a61"/></svg>