<svg id="Capa_1" enable-background="new 0 0 512 512" height="512" viewBox="0 0 512 512" width="512" xmlns="http://www.w3.org/2000/svg"><path d="m166 15h90v60h-90z" fill="#4bb9ec"/><path d="m211 15h45v60h-45z" fill="#0095ff"/><path d="m331 60h-60-120c-8.28 0-15 6.72-15 15v60c0 8.28 6.72 15 15 15h120c8.28 0 15-6.72 15-15v-45h45c24.813 0 45 20.187 45 45s-20.187 45-45 45h-14.999c-8.284 0-15 6.716-15 15s6.716 15 15 15h14.999c41.355 0 75-33.645 75-75s-33.645-75-75-75z" fill="#596c76"/><path d="m211 60v90h60c8.28 0 15-6.72 15-15v-45h45c24.813 0 45 20.187 45 45s-20.187 45-45 45h-14.999c-8.284 0-15 6.716-15 15s6.716 15 15 15h14.999c41.355 0 75-33.645 75-75s-33.645-75-75-75h-60z" fill="#465a61"/><path d="m286 15c0 8.28-6.72 15-15 15h-120c-8.28 0-15-6.72-15-15s6.72-15 15-15h120c8.28 0 15 6.72 15 15z" fill="#76e2f8"/><path d="m286 15c0 8.28-6.72 15-15 15h-60v-30h60c8.28 0 15 6.72 15 15z" fill="#4bb9ec"/><path d="m316 195v242l-105 8-105-8v-242l105-15z" fill="#76e2f8"/><path d="m316 195v242l-105 8v-265z" fill="#4bb9ec"/><path d="m316 165v30h-210v-30c0-24.81 20.19-45 45-45h120c24.81 0 45 20.19 45 45z" fill="#e6ffff"/><path d="m316 165v30h-105v-75h60c24.81 0 45 20.19 45 45z" fill="#d9f2ff"/><path d="m316 437v30c0 24.81-20.19 45-45 45h-120c-24.81 0-45-20.19-45-45v-30z" fill="#e6ffff"/><path d="m316 437v30c0 24.81-20.19 45-45 45h-60v-75z" fill="#d9f2ff"/></svg>