<svg id="Capa_1" enable-background="new 0 0 512 512" height="512" viewBox="0 0 512 512" width="512" xmlns="http://www.w3.org/2000/svg"><path d="m480.995 436v61c0 8.28-6.72 15-15 15h-420c-8.28 0-15-6.72-15-15v-61l225-11.64c242.25 12.532 224.066 11.592 225 11.64z" fill="#596c76"/><path d="m480.995 436v61c0 8.28-6.72 15-15 15h-210v-87.64c242.25 12.532 224.066 11.592 225 11.64z" fill="#465a61"/><path d="m480.995 256v180h-450v-180l223-9 2 .08z" fill="#4bb9ec"/><path d="m480.995 256v180h-225v-188.92z" fill="#0095ff"/><path d="m195.995 331h-90c-8.284 0-15-6.716-15-15s6.716-15 15-15h90c8.284 0 15 6.716 15 15s-6.716 15-15 15z" fill="#596c76"/><path d="m405.995 331h-90c-8.284 0-15-6.716-15-15s6.716-15 15-15h90c8.284 0 15 6.716 15 15s-6.716 15-15 15z" fill="#465a61"/><circle cx="195.995" cy="376" fill="#e6ffff" r="15"/><circle cx="405.995" cy="376" fill="#d9f2ff" r="15"/><path d="m480.995 76v180h-450v-180c.504-.036-12.562.885 225-15.86z" fill="#76e2f8"/><path d="m480.995 76v180h-225v-195.86z" fill="#4bb9ec"/><path d="m480.995 15v61h-450v-61c0-8.28 6.72-15 15-15h420c8.28 0 15 6.72 15 15z" fill="#596c76"/><path d="m480.995 15v61h-225v-76h210c8.28 0 15 6.72 15 15z" fill="#465a61"/><path d="m195.995 151h-90c-8.284 0-15-6.716-15-15s6.716-15 15-15h90c8.284 0 15 6.716 15 15s-6.716 15-15 15z" fill="#596c76"/><path d="m405.995 151h-90c-8.284 0-15-6.716-15-15s6.716-15 15-15h90c8.284 0 15 6.716 15 15s-6.716 15-15 15z" fill="#465a61"/><circle cx="405.995" cy="196" fill="#d9f2ff" r="15"/><circle cx="195.995" cy="196" fill="#e6ffff" r="15"/></svg>