<svg id="Capa_1" enable-background="new 0 0 511 511" height="512" viewBox="0 0 511 511" width="512" xmlns="http://www.w3.org/2000/svg"><path d="m195 30.066h-180c-8.28 0-15 6.72-15 15v300c0 8.28 6.72 15 15 15s15-6.72 15-15v-45h45c8.28 0 15-6.72 15-15s-6.72-15-15-15h-45v-30h45c8.28 0 15-6.72 15-15s-6.72-15-15-15h-45v-30h45c8.28 0 15-6.72 15-15s-6.72-15-15-15h-45v-30h45c8.28 0 15-6.72 15-15v-45h30v45c0 8.28 6.72 15 15 15s15-6.72 15-15v-45h30v45c0 8.28 6.72 15 15 15s15-6.72 15-15v-60c0-8.28-6.72-15-15-15zm-135 60h-30v-30h30z" fill="#596c76"/><path d="m210 45.066v60c0 8.28-6.72 15-15 15s-15-6.72-15-15v-45h-30v45c0 8.28-6.72 15-15 15s-15-6.72-15-15v-45h-30v-30h105c8.28 0 15 6.72 15 15z" fill="#465a61"/><path d="m375.008 460.9c-35.322 26.664-84.58 26.76-120.026-.008-27.048 20.301-63.061 25.754-95.275 13.604-7.751-2.923-11.664-11.577-8.741-19.328 2.925-7.751 11.572-11.667 19.329-8.741 25.641 9.671 54.729 3.405 74.1-15.967 2.813-2.813 6.628-4.394 10.606-4.394s7.794 1.581 10.606 4.394c27.298 27.298 71.485 27.302 98.787 0 2.813-2.813 6.628-4.394 10.606-4.394s7.794 1.581 10.606 4.394c27.255 27.255 72.432 27.355 99.787 0 5.857-5.858 15.355-5.858 21.213 0s5.858 15.355 0 21.213c-36.227 36.228-93.047 38.242-131.598 9.227z" fill="#4bb9ec"/><path d="m375.008 400.9c-35.322 26.664-84.58 26.76-120.026-.008-27.048 20.301-63.061 25.754-95.275 13.604-7.751-2.923-11.664-11.577-8.741-19.328 2.925-7.751 11.572-11.666 19.329-8.741 25.641 9.671 54.729 3.404 74.1-15.967 2.813-2.813 6.628-4.394 10.606-4.394s7.794 1.581 10.606 4.394c27.298 27.298 71.485 27.302 98.787 0 2.813-2.813 6.628-4.394 10.606-4.394s7.794 1.581 10.606 4.394c27.255 27.255 72.432 27.355 99.787 0 5.857-5.858 15.355-5.858 21.213 0s5.858 15.355 0 21.213c-36.227 36.228-93.047 38.242-131.598 9.227z" fill="#4bb9ec"/><path d="m345 90.066h-270c-8.28 0-15 6.72-15 15v240c0 8.28 6.72 15 15 15h90c8.28 0 15-6.72 15-15v-90c0-41.35 33.64-75 75-75h90c8.28 0 15-6.72 15-15v-60c0-8.28-6.72-15-15-15z" fill="#fdbf00"/><path d="m360 105.066v60c0 8.28-6.72 15-15 15h-90c-41.36 0-75 33.65-75 75v90c0 8.28-6.72 15-15 15h-75v-270h255c8.28 0 15 6.72 15 15z" fill="#ff9100"/><path d="m165 330.066h-150c-8.28 0-15 6.72-15 15v120c0 8.28 6.72 15 15 15h150c8.28 0 15-6.72 15-15v-120c0-8.28-6.72-15-15-15z" fill="#d9f2ff"/><path d="m180 345.066v120c0 8.28-6.72 15-15 15h-75v-150h75c8.28 0 15 6.72 15 15z" fill="#cdf"/></svg>