<svg id="Capa_1" enable-background="new 0 0 512 512" height="512" viewBox="0 0 512 512" width="512" xmlns="http://www.w3.org/2000/svg"><path d="m497 241c8.28 0 15-6.72 15-15v-90c0-8.28-6.72-15-15-15h-482c-8.28 0-15 6.72-15 15v240c0 8.28 6.72 15 15 15h482c8.28 0 15-6.72 15-15v-90c0-8.28-6.72-15-15-15-8.27 0-15-6.73-15-15s6.73-15 15-15z" fill="#76e2f8"/><path d="m482 256c0 8.27 6.73 15 15 15 8.28 0 15 6.72 15 15v90c0 8.28-6.72 15-15 15h-241v-270h241c8.28 0 15 6.72 15 15v90c0 8.28-6.72 15-15 15-8.27 0-15 6.73-15 15z" fill="#4bb9ec"/><path d="m452 256c0 19.56 12.54 36.24 30 42.43v62.57h-452v-210h452v62.57c-17.46 6.19-30 22.87-30 42.43z" fill="#4bb9ec"/><path d="m452 256c0 19.56 12.54 36.24 30 42.43v62.57h-226v-210h226v62.57c-17.46 6.19-30 22.87-30 42.43z" fill="#0095ff"/><path d="m136 316c-24.813 0-45-20.187-45-45 0-7.895 2.079-15.668 6.013-22.481l25.998-45.02c2.68-4.641 7.631-7.499 12.99-7.499s10.31 2.858 12.99 7.499l25.997 45.019c3.933 6.814 6.012 14.587 6.012 22.482 0 24.813-20.187 45-45 45z" fill="#a8ebfa"/><path d="m271 142v232c0 8.28-6.72 15-15 15s-15-6.72-15-15v-232c0-8.28 6.72-15 15-15s15 6.72 15 15z" fill="#76e2f8"/><path d="m271 142v232c0 8.28-6.72 15-15 15v-262c8.28 0 15 6.72 15 15z" fill="#4bb9ec"/><g fill="#d9f2ff"><path d="m406 211h-90c-8.284 0-15-6.716-15-15s6.716-15 15-15h90c8.284 0 15 6.716 15 15s-6.716 15-15 15z"/><path d="m406 271h-90c-8.284 0-15-6.716-15-15s6.716-15 15-15h90c8.284 0 15 6.716 15 15s-6.716 15-15 15z"/><path d="m406 331h-90c-8.284 0-15-6.716-15-15s6.716-15 15-15h90c8.284 0 15 6.716 15 15s-6.716 15-15 15z"/></g></svg>