<svg id="Capa_1" enable-background="new 0 0 512 512" height="512" viewBox="0 0 512 512" width="512" xmlns="http://www.w3.org/2000/svg"><path d="m482 75v60c0 13.3-5.8 25.26-15 33.5-7.96 7.15-18.49 11.5-30 11.5h-30c-8.28 0-15-6.72-15-15s6.72-15 15-15h30c8.27 0 15-6.73 15-15v-60c0-8.28 6.72-15 15-15s15 6.72 15 15z" fill="#596c76"/><path d="m482 75v60c0 13.3-5.8 25.26-15 33.5v-108.5c8.28 0 15 6.72 15 15z" fill="#465a61"/><path d="m467 90c-24.813 0-45-20.187-45-45s20.187-45 45-45 45 20.187 45 45-20.187 45-45 45z" fill="#4a696f"/><path d="m467 0v90c24.813 0 45-20.187 45-45s-20.187-45-45-45z" fill="#596c76"/><path d="m30 135v212c0 8.284 6.716 15 15 15h60c8.284 0 15-6.716 15-15l13-218c0-24.853-33.147-39-58-39-24.853 0-45 20.147-45 45z" fill="#4bb9ec"/><path d="m135 180h-120c-8.284 0-15-6.716-15-15s6.716-15 15-15h120c8.284 0 15 6.716 15 15s-6.716 15-15 15z" fill="#4a696f"/><path d="m422 377v60l-151 14.43c-167.546-16.011-149.663-14.302-151-14.43v-60c1.335-.112-16.535 1.386 151-12.66z" fill="#e6ffff"/><path d="m422 377v60l-151 14.43v-87.09z" fill="#d9f2ff"/><path d="m422 150v227h-302v-242c0-24.54-19.65-44.49-44.07-44.99.02-.01.05-.01.07-.01h286c33.08 0 60 26.92 60 60z" fill="#a8ebfa"/><path d="m422 150v227h-151v-287h91c33.08 0 60 26.92 60 60z" fill="#76e2f8"/><path d="m422 437v60c0 8.28-6.72 15-15 15h-272c-8.28 0-15-6.72-15-15v-60z" fill="#a8ebfa"/><path d="m422 437v60c0 8.28-6.72 15-15 15h-136v-75z" fill="#76e2f8"/></svg>