<svg id="Capa_1" enable-background="new 0 0 512 512" height="512" viewBox="0 0 512 512" width="512" xmlns="http://www.w3.org/2000/svg"><path d="m346 0c-8.284 0-15 6.716-15 15 0 31.904-20.23 60.379-50.341 70.856-7.824 2.723-11.96 11.272-9.237 19.097 2.723 7.823 11.269 11.959 19.097 9.237 42.157-14.669 70.481-54.531 70.481-99.19 0-8.284-6.716-15-15-15z" fill="#465a61"/><path d="m231.341 85.856c-30.111-10.477-50.341-38.952-50.341-70.856 0-8.284-6.716-15-15-15s-15 6.716-15 15c0 44.659 28.324 84.521 70.481 99.19 7.808 2.717 16.368-1.397 19.097-9.237 2.723-7.825-1.413-16.374-9.237-19.097z" fill="#596c76"/><path d="m301 105v30c0 8.28-6.72 15-15 15h-60c-8.28 0-15-6.72-15-15v-30c0-24.81 20.19-45 45-45s45 20.19 45 45z" fill="#ff641a"/><path d="m301 105v30c0 8.28-6.72 15-15 15h-30v-90c24.81 0 45 20.19 45 45z" fill="#f03800"/><path d="m121 497c0 8.284 6.716 15 15 15h90c8.284 0 15-6.716 15-15v-60l-61-12-59 12z" fill="#ff641a"/><path d="m256 120c-74.44 0-135 60.56-135 135v15c0 3.98 1.58 7.79 4.39 10.61l25.61 25.6v8.79h-15c-8.28 0-15 6.72-15 15v107h120v-32c0-8.27 6.73-15 15-15 74.44 0 135-60.56 135-135s-60.56-135-135-135z" fill="#ff9100"/><path d="m256 120v270c74.44 0 135-60.56 135-135s-60.56-135-135-135z" fill="#ff641a"/><path d="m256 195c-33.084 0-60 26.916-60 60s26.916 60 60 60 60-26.916 60-60-26.916-60-60-60z" fill="#ff641a"/><path d="m256 195v120c33.084 0 60-26.916 60-60s-26.916-60-60-60z" fill="#f03800"/></svg>