<svg id="Capa_1" enable-background="new 0 0 512 512" height="512" viewBox="0 0 512 512" width="512" xmlns="http://www.w3.org/2000/svg"><path d="m421 15v165c0 8.28-6.72 15-15 15s-15-6.72-15-15v-150h-120v45c0 8.28-6.72 15-15 15s-15-6.72-15-15v-60c0-8.28 6.72-15 15-15h150c8.28 0 15 6.72 15 15z" fill="#76e2f8"/><path d="m421 15v165c0 8.28-6.72 15-15 15s-15-6.72-15-15v-150h-120v45c0 8.28-6.72 15-15 15v-90h150c8.28 0 15 6.72 15 15z" fill="#4bb9ec"/><path d="m315.55 131.36h-119.1l15-60c1.67-6.68 7.67-11.36 14.55-11.36h60c6.88 0 12.88 4.68 14.55 11.36z" fill="#4bb9ec"/><path d="m315.55 131.36h-59.55v-71.36h30c6.88 0 12.88 4.68 14.55 11.36z" fill="#0095ff"/><path d="m346 135c0 8.28-6.72 15-15 15h-150c-8.28 0-15-6.72-15-15s6.72-15 15-15h150c8.28 0 15 6.72 15 15z" fill="#76e2f8"/><path d="m346 135c0 8.28-6.72 15-15 15h-75v-30h75c8.28 0 15 6.72 15 15z" fill="#4bb9ec"/><path d="m331 180c-8.284 0-15 6.716-15 15v45h-.01c-22.04.01-41.97.02-59.99.04-22.985.01-42.838.016-60 .021v-45.061c0-8.284-6.716-15-15-15h-60v-75c0-8.284-6.716-15-15-15s-15 6.716-15 15v75 302 15c0 8.284 6.716 15 15 15s15-6.716 15-15v-15h270v15c0 8.284 6.716 15 15 15s15-6.716 15-15v-15-302z" fill="#596c76"/><path d="m391 482v15c0 8.284 6.716 15 15 15s15-6.716 15-15v-15-302h-90c-8.284 0-15 6.716-15 15v45h-.01c-22.04.01-41.97.02-59.99.04v241.96z" fill="#465a61"/><path d="m271 345v30c0 8.28-6.72 15-15 15s-15-6.72-15-15v-30c0-8.28 6.72-15 15-15s15 6.72 15 15z" fill="#d9f2ff"/><path d="m271 345v30c0 8.28-6.72 15-15 15v-60c8.28 0 15 6.72 15 15z" fill="#cdf"/><path d="m196 390c-8.284 0-15-6.716-15-15v-15c0-8.284 6.716-15 15-15s15 6.716 15 15v15c0 8.284-6.716 15-15 15z" fill="#d9f2ff"/><path d="m316 390c-8.284 0-15-6.716-15-15v-15c0-8.284 6.716-15 15-15s15 6.716 15 15v15c0 8.284-6.716 15-15 15z" fill="#cdf"/><path d="m331 285v75h-150v-75l73-16 2 .42z" fill="#e6ffff"/><path d="m331 285v75h-75v-90.58z" fill="#d9f2ff"/><path d="m181 180h150v105h-150z" fill="#d9f2ff"/><path d="m256 180h75v105h-75z" fill="#cdf"/></svg>