<svg id="Capa_1" enable-background="new 0 0 512 512" height="512" viewBox="0 0 512 512" width="512" xmlns="http://www.w3.org/2000/svg"><path d="m256 0c-107.79 0-195 87.23-195 195v269.25c0 26.33 21.42 47.75 47.75 47.75 20.57 0 38.97-12.85 44.76-31.25 10.71-34.04 53.82-58.75 102.49-58.75s91.78 24.71 102.49 58.75c5.79 18.4 24.19 31.25 44.76 31.25 26.33 0 47.75-21.42 47.75-47.75v-269.25c0-107.75-87.2-195-195-195z" fill="#76e2f8"/><path d="m451 195v269.25c0 26.33-21.42 47.75-47.75 47.75-20.57 0-38.97-12.85-44.76-31.25-10.71-34.04-53.82-58.75-102.49-58.75v-422c107.8 0 195 87.25 195 195z" fill="#4bb9ec"/><path d="m166 300c-24.813 0-45-20.187-45-45v-52.456c0-31.744 9.91-61.892 28.658-87.183 18.283-24.665 43.967-42.595 72.319-50.488 4.518-1.259 9.362-.331 13.096 2.506 3.734 2.836 5.927 7.255 5.927 11.944v115.677c0 8.284-6.716 15-15 15-8.271 0-15 6.729-15 15v30c0 24.813-20.187 45-45 45z" fill="#4bb9ec"/><path d="m346 300c-24.813 0-45-20.187-45-45v-30c0-8.271-6.729-15-15-15-8.284 0-15-6.716-15-15v-115.739c0-4.644 2.151-9.026 5.824-11.866 3.674-2.84 8.458-3.818 12.95-2.651 59.601 15.495 101.226 69.059 101.226 130.256v60c0 24.813-20.187 45-45 45z" fill="#0095ff"/></svg>