<svg id="Capa_1" enable-background="new 0 0 512 512" height="512" viewBox="0 0 512 512" width="512" xmlns="http://www.w3.org/2000/svg"><path d="m361 60c0 33.08-26.92 60-60 60h-15c-8.28 0-15-6.72-15-15s6.72-15 15-15h15c16.54 0 30-13.46 30-30s-13.46-30-30-30h-90c-16.54 0-30 13.46-30 30s13.46 30 30 30h15c8.28 0 15 6.72 15 15s-6.72 15-15 15h-15c-33.08 0-60-26.92-60-60s26.92-60 60-60h90c33.08 0 60 26.92 60 60z" fill="#fdbf00"/><path d="m361 60c0 33.08-26.92 60-60 60h-15c-8.28 0-15-6.72-15-15s6.72-15 15-15h15c16.54 0 30-13.46 30-30s-13.46-30-30-30h-45v-30h45c33.08 0 60 26.92 60 60z" fill="#ff9100"/><path d="m256 60c-24.81 0-45 20.19-45 45v34.5c0 8.28 6.72 15 15 15h60c8.28 0 15-6.72 15-15v-34.5c0-24.81-20.19-45-45-45z" fill="#d9f2ff"/><path d="m256 60v94.5h30c8.28 0 15-6.72 15-15v-34.5c0-24.81-20.19-45-45-45z" fill="#cdf"/><path d="m118.114 200.327-42.426-42.426c-5.858-5.858-5.858-15.355 0-21.213 5.857-5.858 15.355-5.858 21.213 0l42.426 42.426c5.858 5.858 5.858 15.355 0 21.213-5.857 5.858-15.355 5.859-21.213 0z" fill="#4a696f"/><path d="m372.673 200.327c-5.858-5.858-5.858-15.355 0-21.213l42.427-42.426c5.858-5.858 15.356-5.857 21.213 0 5.858 5.858 5.858 15.355 0 21.213l-42.427 42.426c-5.858 5.858-15.356 5.859-21.213 0z" fill="#596c76"/><path d="m256 512c-107.523 0-195-87.477-195-195s87.477-195 195-195 195 87.477 195 195-87.477 195-195 195z" fill="#fdbf00"/><path d="m256 122v390c107.523 0 195-87.477 195-195s-87.477-195-195-195z" fill="#ff9100"/><path d="m256 182c-74.44 0-135 60.56-135 135s60.56 135 135 135 135-60.56 135-135-60.56-135-135-135z" fill="#e6ffff"/><path d="m256 182v270c74.44 0 135-60.56 135-135s-60.56-135-135-135z" fill="#d9f2ff"/><path d="m54.474 179.114c-5.858-5.858-5.858-15.355 0-21.213l42.427-42.427c5.857-5.858 15.355-5.858 21.213 0s5.858 15.355 0 21.213l-42.427 42.427c-5.856 5.858-15.355 5.859-21.213 0z" fill="#fdbf00"/><path d="m436.312 179.114-42.427-42.427c-5.858-5.858-5.858-15.355 0-21.213 5.857-5.858 15.355-5.858 21.213 0l42.427 42.427c5.858 5.858 5.858 15.355 0 21.213-5.856 5.858-15.355 5.859-21.213 0z" fill="#ff9100"/><path d="m301 317c0 8.28-6.72 15-15 15h-30c-8.28 0-15-6.72-15-15v-60c0-8.28 6.72-15 15-15s15 6.72 15 15v45h15c8.28 0 15 6.72 15 15z" fill="#4a696f"/><path d="m301 317c0 8.28-6.72 15-15 15h-30v-90c8.28 0 15 6.72 15 15v45h15c8.28 0 15 6.72 15 15z" fill="#465a61"/></svg>