<svg id="Capa_1" enable-background="new 0 0 512.867 512.867" height="512" viewBox="0 0 512.867 512.867" width="512" xmlns="http://www.w3.org/2000/svg"><path d="m406.434 182-8 15 8 15c8.27 0 15 6.73 15 15v30c0 8.28 6.72 15 15 15s15-6.72 15-15v-30c0-24.81-20.19-45-45-45z" fill="#465a61"/><path d="m135.434 135v122c0 8.28-6.72 15-15 15s-15-6.72-15-15v-122c0-8.28 6.72-15 15-15s15 6.72 15 15z" fill="#fdbf00"/><path d="m135.434 135v122c0 8.28-6.72 15-15 15v-152c8.28 0 15 6.72 15 15z" fill="#ff9100"/><path d="m177.434 90-12 60h-90l-11-60c0-49.71 31.15-90 56-90s57 40.29 57 90z" fill="#a8ebfa"/><path d="m120.434 0c-66.168 0-120 53.832-120 120v15c0 8.284 6.716 15 15 15h60v-60c0-49.706 20.147-90 45-90z" fill="#76e2f8"/><path d="m177.434 90-12 60h-45v-150c24.85 0 57 40.29 57 90z" fill="#76e2f8"/><path d="m120.434 0c24.853 0 45 40.294 45 90v60h60c8.284 0 15-6.716 15-15v-15c0-66.168-53.832-120-120-120z" fill="#4bb9ec"/><path d="m497.434 242h-482c-8.28 0-15 6.72-15 15v154l4.39-2.39c36.153 36.153 92.964 38.297 131.6 9.22 35.453 26.759 84.698 26.663 120.01.01 35.317 26.658 84.563 26.745 120.01-.01 38.64 29.08 95.45 26.93 131.6-9.22l4.39 3.39v-155c0-8.28-6.72-15-15-15z" fill="#e6ffff"/><path d="m512.434 257v155l-4.39-3.39c-36.153 36.153-92.964 38.297-131.6 9.22-35.453 26.759-84.698 26.663-120.01.01v-175.84h241c8.28 0 15 6.72 15 15z" fill="#d9f2ff"/><path d="m361.434 227v15h-30v-15c0-24.81-20.19-45-45-45-11.51 0-22.04 4.35-30 11.5-9.2 8.24-15 20.2-15 33.5v180c0 8.28 6.72 15 15 15s15-6.72 15-15v-15h90v15c0 8.28 6.72 15 15 15s15-6.72 15-15v-180c0-8.27 6.73-15 15-15v-30c-24.81 0-45 20.19-45 45zm-90 0c0-8.27 6.73-15 15-15s15 6.73 15 15v15h-30zm90 135h-90v-30h90zm0-60h-90v-30h90z" fill="#596c76"/><path d="m361.434 227v15h-30v-15c0-24.81-20.19-45-45-45-11.51 0-22.04 4.35-30 11.5v228.5c8.28 0 15-6.72 15-15v-15h90v15c0 8.28 6.72 15 15 15s15-6.72 15-15v-180c0-8.27 6.73-15 15-15v-30c-24.81 0-45 20.19-45 45zm-90 0c0-8.27 6.73-15 15-15s15 6.73 15 15v15h-30zm90 135h-90v-30h90zm0-60h-90v-30h90z" fill="#465a61"/><path d="m508.043 462.39c-5.86-5.85-15.36-5.85-21.22 0-27.295 27.315-72.498 27.302-99.78 0-2.82-2.81-6.63-4.39-10.61-4.39s-7.79 1.58-10.61 4.39c-27.295 27.315-71.512 27.288-98.78 0-2.82-2.81-6.63-4.39-10.61-4.39s-7.79 1.58-10.61 4.39c-27.295 27.315-71.512 27.288-98.78 0-2.82-2.81-6.63-4.39-10.61-4.39s-7.79 1.58-10.61 4.39c-27.295 27.315-72.498 27.302-99.78 0-5.86-5.85-15.36-5.85-21.22 0-5.85 5.86-5.85 15.36 0 21.22 36.15 36.15 92.96 38.3 131.6 9.22 35.447 26.755 84.693 26.667 120.01.01 35.312 26.653 84.557 26.75 120.01-.01 38.635 29.077 95.447 26.933 131.6-9.22 5.851-5.86 5.851-15.36 0-21.22z" fill="#76e2f8"/><path d="m508.043 402.39c-5.86-5.85-15.36-5.85-21.22 0-27.295 27.315-72.498 27.302-99.78 0-2.82-2.81-6.63-4.39-10.61-4.39s-7.79 1.58-10.61 4.39c-27.295 27.315-71.512 27.288-98.78 0-2.82-2.81-6.63-4.39-10.61-4.39s-7.79 1.58-10.61 4.39c-27.295 27.315-71.512 27.288-98.78 0-2.82-2.81-6.63-4.39-10.61-4.39s-7.79 1.58-10.61 4.39c-27.295 27.315-72.498 27.302-99.78 0-5.86-5.85-15.36-5.85-21.22 0-5.85 5.86-5.85 15.36 0 21.22 36.15 36.15 92.96 38.3 131.6 9.22 35.447 26.755 84.693 26.667 120.01.01 35.312 26.653 84.557 26.75 120.01-.01 38.635 29.077 95.447 26.933 131.6-9.22 5.851-5.86 5.851-15.36 0-21.22z" fill="#76e2f8"/><g fill="#4bb9ec"><path d="m508.043 462.39c-5.86-5.85-15.36-5.85-21.22 0-27.295 27.315-72.498 27.302-99.78 0-2.82-2.81-6.63-4.39-10.61-4.39s-7.79 1.58-10.61 4.39c-27.295 27.315-71.512 27.288-98.78 0-2.82-2.81-6.63-4.39-10.61-4.39v34.84c35.312 26.653 84.557 26.75 120.01-.01 38.635 29.077 95.447 26.933 131.6-9.22 5.851-5.86 5.851-15.36 0-21.22z"/><path d="m508.043 402.39c-5.86-5.85-15.36-5.85-21.22 0-27.295 27.315-72.498 27.302-99.78 0-2.82-2.81-6.63-4.39-10.61-4.39s-7.79 1.58-10.61 4.39c-27.295 27.315-71.512 27.288-98.78 0-2.82-2.81-6.63-4.39-10.61-4.39v34.84c35.312 26.653 84.557 26.75 120.01-.01 38.635 29.077 95.447 26.933 131.6-9.22 5.851-5.86 5.851-15.36 0-21.22z"/></g></svg>