<svg id="Capa_1" enable-background="new 0 0 512 512" height="512" viewBox="0 0 512 512" width="512" xmlns="http://www.w3.org/2000/svg"><path d="m195.78 512h-59.78c-74.99 0-136-61.009-136-136v-59.78c0-8.284 6.716-15 15-15s15 6.716 15 15v59.78c0 58.449 47.552 106 106 106h59.78c8.284 0 15 6.716 15 15s-6.716 15-15 15z" fill="#fdbf00"/><path d="m256 31c-123.9 0-225 100.74-225 225 0 124.1 100.94 225 225 225 124.1 0 225-100.94 225-225 0-124.1-100.94-225-225-225zm110.48 271.81c-12.16 28.62-35.13 51.58-63.77 63.72l-46.71 37.66-1 .81-45.71-38.47c-28.64-12.14-51.61-35.1-63.77-63.72l-48.52-40.81 48.52-52.81c12.16-28.62 35.13-51.58 63.77-63.72l46.71-39.47 46.71 39.47c28.64 12.14 51.61 35.1 63.77 63.72l53.52 46.81z" fill="#e6ffff"/><path d="m481 256c0 124.06-100.9 225-225 225v-76.81l46.71-37.66c28.64-12.14 51.61-35.1 63.77-63.72l53.52-46.81-53.52-46.81c-12.16-28.62-35.13-51.58-63.77-63.72l-46.71-39.47v-75c124.06 0 225 100.9 225 225z" fill="#d9f2ff"/><path d="m376 512h-59.78c-8.284 0-15-6.716-15-15s6.716-15 15-15h59.78c58.448 0 106-47.551 106-106v-59.78c0-8.284 6.716-15 15-15s15 6.716 15 15v59.78c0 74.991-61.01 136-136 136z" fill="#ff9100"/><path d="m15 210.78c-8.284 0-15-6.716-15-15v-59.78c0-74.991 61.01-136 136-136h59.78c8.284 0 15 6.716 15 15s-6.716 15-15 15h-59.78c-58.448 0-106 47.551-106 106v59.78c0 8.284-6.716 15-15 15z" fill="#fdbf00"/><path d="m497 210.78c-8.284 0-15-6.716-15-15v-59.78c0-58.449-47.552-106-106-106h-59.78c-8.284 0-15-6.716-15-15s6.716-15 15-15h59.78c74.99 0 136 61.009 136 136v59.78c0 8.284-6.716 15-15 15z" fill="#ff9100"/><path d="m145.42 209.168c-.002-.001-.002-.001 0 0z" fill="#ff9100"/><path d="m145.42 209.168h.001l.004.001z" fill="#ff9100"/><path d="m145.524 209.191c.004.001.008.001.011.002-.003-.001-.006-.001-.011-.002z" fill="#ff9100"/><path d="m145.502 209.186c.001 0 .002 0 .004.001-.02-.004-.036-.008-.048-.011-.007-.001-.014-.003-.021-.005-.003 0-.006-.001-.008-.001-.001 0-.002-.001-.003-.001h.001c-.002 0-.004-.001-.005-.001-1.292-.285-14.817-3.266-127.191-28.038-9.078-2.001-18.231 4.66-18.231 15v119.8c0 10.172 9.001 16.923 18.23 14.94l23.79-5.24 103.5-22.82c-6.13-14.39-9.52-30.21-9.52-46.81s3.39-32.42 9.52-46.81c-.005-.001-.011-.002-.018-.004zm-.008-.002c-.009-.002-.02-.004-.031-.007.009.003.02.005.031.007zm-.038-.008c-.007-.001-.013-.003-.018-.004.005.001.011.002.018.004z" fill="#ff641a"/><g fill="#ff9100"><path d="m145.524 209.191c-.005-.001-.011-.002-.018-.004.005.001.009.002.014.003.001 0 .002 0 .004.001z"/><path d="m145.535 209.193c.01.002.008.002 0 0z"/><path d="m366.461 302.806c.004.001.011.002.021.005h-.001c-.011-.003-.017-.004-.02-.005z"/><path d="m366.461 302.806c-.004-.001-.004-.001 0 0z"/><path d="m366.544 302.824c.021.004.036.008.037.008-.006-.001-.012-.003-.017-.004s-.012-.002-.02-.004z"/></g><path d="m493.77 181.13c-112.647 24.832-125.964 27.768-127.2 28.04-.003.001-.007.001-.011.002-.002 0-.004.001-.006.001-.012.002-.028.006-.049.011-.062.014-.054.012-.025.005 6.131 14.391 9.521 30.211 9.521 46.811s-3.39 32.42-9.52 46.81h.002c.027.006.047.01.063.014-.012-.002-.025-.005-.038-.008.015.003.034.007.058.013.013.003.018.004.017.004 1.304.287 14.875 3.279 127.189 28.038 9.431 2.027 18.23-5.083 18.23-14.65v-120.441c-.001-9.632-8.928-16.703-18.231-14.65zm-127.266 28.055c-.006.001-.011.003-.018.004.005-.001.011-.003.018-.004zm.071-.016c.002 0 .003-.001.004-.001 0 0-.002 0-.004.001z" fill="#f03800"/><path d="m330.87 18.23c-1.92 8.72-25.93 120.89-28.16 127.24-14.36-6.1-30.15-9.47-46.71-9.47s-32.35 3.37-46.71 9.47c-1.74-4.97-17.53-79.02-28.16-127.24-2.05-9.28 4.99-18.23 14.65-18.23h120.44c9.65 0 16.7 8.94 14.65 18.23z" fill="#ff641a"/><path d="m302.71 145.47c-14.36-6.1-30.15-9.47-46.71-9.47v-136h60.22c9.65 0 16.7 8.94 14.65 18.23-1.92 8.72-25.93 120.89-28.16 127.24z" fill="#f03800"/><path d="m330.87 493.77c-21.07-95.6-26.98-123.86-28.16-127.24-14.36 6.1-30.15 9.47-46.71 9.47s-32.35-3.37-46.71-9.47c-2.23 6.35-25.71 116.11-28.16 127.24-2.05 9.29 5 18.23 14.65 18.23h120.44c9.66 0 16.7-8.95 14.65-18.23z" fill="#ff641a"/><path d="m316.22 512h-60.22v-136c16.56 0 32.35-3.37 46.71-9.47 1.18 3.38 7.09 31.64 28.16 127.24 2.05 9.28-4.99 18.23-14.65 18.23z" fill="#f03800"/></svg>