<svg height="512pt" viewBox="-121 0 512 512" width="512pt" xmlns="http://www.w3.org/2000/svg"><path d="m120 512c-3.976562 0-7.792969-1.582031-10.605469-4.394531s-4.394531-6.628907-4.394531-10.605469v-121.996094c0-8.285156 6.71875-15 15-15h30c8.285156 0 15.003906 6.714844 15.003906 15v121.996094c0 8.285156-6.71875 15-15.003906 15zm0 0" fill="#dcd2cd"/><path d="m150 360.003906h-15v151.996094h15c8.285156 0 15.003906-6.714844 15.003906-15v-121.996094c0-8.285156-6.71875-15-15.003906-15zm0 0" fill="#ccbeb9"/><path d="m195.003906 390.003906h-120.003906c-8.28125 0-15-6.71875-15-15v-60.003906c0-8.28125 6.71875-15 15-15h120.003906c8.28125 0 15 6.71875 15 15v60.003906c0 8.28125-6.71875 15-15 15zm0 0" fill="#ebe1dc"/><path d="m195.003906 300h-60.003906v90.003906h60.003906c8.28125 0 15-6.71875 15-15v-60.003906c0-8.285156-6.71875-15-15-15zm0 0" fill="#dcd2cd"/><path d="m198.8125 325.46875-16.808594 4.53125h-94.003906l-13.019531-6.699219c-1.816407 0-15.203125 6.625-16.980469 6.472657-31.324219-2.652344-56.234375-28.183594-57.9101562-59.773438-.0585938-1.121094 6.3789062-15.648438 6.3789062-16.785156l-6.46875-13.214844v-30l4-13.46875-4-16.53125v-29l4-16-4-15v-30l4-14.601562c0-1.140626-3.96875-14.273438-3.9101562-15.398438 1.6757812-31.589844 26.5859372-57.117188 57.9101562-59.769531 1.78125-.152344 14.140625 7.875 15.957031 7.875l14.042969-8.105469h94.003906l14.765625 6.0625c1.816407 0 13.453125-5.984375 15.234375-5.835938 31.324219 2.652344 56.234375 28.183594 57.910156 59.773438.058594 1.125-11.613281 14.113281-11.613281 15.253906l11.703125 14.746094v30l-5 15 5 15v30l-5 15 5 15v30l-6.597656 16c0 1.136719 6.566406 12.875 6.507812 14-1.675781 31.589844-26.585937 57.121094-57.910156 59.773438-1.777344.152343-11.375-4.304688-13.191406-4.304688zm0 0" fill="#f5f0eb"/><path d="m270.003906 90-11.703125-14.746094c0-1.136718 11.671875-14.128906 11.613281-15.253906-1.675781-31.589844-26.585937-57.121094-57.910156-59.773438-1.777344-.148437-13.417968 5.835938-15.234375 5.835938l-14.765625-6.0625h-47.003906v330h47.003906l16.808594-4.53125c1.816406 0 11.414062 4.457031 13.191406 4.304688 31.324219-2.652344 56.234375-28.183594 57.910156-59.773438.058594-1.125-6.507812-12.863281-6.507812-14l6.597656-16v-30l-5-15 5-15v-30l-5-15 5-15zm0 0" fill="#ebe1dc"/><g fill="#dcd2cd"><path d="m63.394531 0c-1.816406 0-3.613281.09375-5.394531.246094v59.753906h-57.90625c-.0585938 1.125-.09375 2.257812-.09375 3.394531v26.605469h73c8.285156 0 15-6.714844 15-15v-75zm0 0"/><path d="m73.003906 120h-72.99999975v30h72.99999975c8.28125 0 15-6.714844 15-15s-6.71875-15-15-15zm0 0"/><path d="m73.003906 180h-72.99999975v30h72.99999975c8.28125 0 15-6.714844 15-15s-6.71875-15-15-15zm0 0"/><path d="m73.003906 240h-72.99999975v26.605469c0 1.140625.03124995 2.269531.08984375 3.394531h57.910156v59.757812c1.777344.148438 3.574219.242188 5.394532.242188h24.605468v-75c0-8.285156-6.71875-15-15-15zm0 0"/></g><path d="m206.609375 0c1.816406 0 3.613281.09375 5.394531.246094v59.753906h57.90625c.058594 1.125.09375 2.257812.09375 3.394531v26.605469h-73c-8.285156 0-15-6.714844-15-15v-75zm0 0" fill="#ccbeb9"/><path d="m197.003906 120h73v30h-73c-8.285156 0-15-6.714844-15-15s6.714844-15 15-15zm0 0" fill="#ccbeb9"/><path d="m197.003906 180h73v30h-73c-8.285156 0-15-6.714844-15-15s6.714844-15 15-15zm0 0" fill="#ccbeb9"/><path d="m197.003906 240h73v26.605469c0 1.140625-.035156 2.269531-.09375 3.394531h-57.90625v59.757812c-1.78125.148438-3.578125.242188-5.398437.242188h-24.601563v-75c0-8.285156 6.714844-15 15-15zm0 0" fill="#ccbeb9"/></svg>