<svg height="512pt" viewBox="-31 0 512 512" width="512pt" xmlns="http://www.w3.org/2000/svg"><path d="m394 420h-188c-8.285156 0-15-6.714844-15-15 0-14.335938-11.664062-26-26-26-8.285156 0-15-6.714844-15-15v-308c0-8.285156 6.714844-15 15-15 14.335938 0 26-11.664062 26-26 0-8.285156 6.714844-15 15-15h188c8.285156 0 15 6.714844 15 15 0 14.335938 11.664062 26 26 26 8.285156 0 15 6.714844 15 15v308c0 8.285156-6.714844 15-15 15-14.335938 0-26 11.664062-26 26 0 8.285156-6.714844 15-15 15zm0 0" fill="#fdbf00"/><path d="m244 512h-188c-8.285156 0-15-6.714844-15-15 0-14.335938-11.664062-26-26-26-8.285156 0-15-6.714844-15-15v-308c0-8.285156 6.714844-15 15-15 14.335938 0 26-11.664062 26-26 0-8.285156 6.714844-15 15-15h188c8.285156 0 15 6.714844 15 15 0 14.335938 11.664062 26 26 26 8.285156 0 15 6.714844 15 15v308c0 8.285156-6.714844 15-15 15-14.335938 0-26 11.664062-26 26 0 8.285156-6.714844 15-15 15zm0 0" fill="#fff36c"/><path d="m285 133c-14.335938 0-26-11.664062-26-26 0-8.285156-6.714844-15-15-15h-94v420h94c8.285156 0 15-6.714844 15-15 0-14.335938 11.664062-26 26-26 8.285156 0 15-6.714844 15-15v-308c0-8.285156-6.714844-15-15-15zm0 0" fill="#ffde46"/><path d="m113.265625 415.699219c-3.128906 0-6.222656-.976563-8.820313-2.863281-3.898437-2.832032-6.199218-7.367188-6.179687-12.1875l.113281-33.738282-19.925781-27.226562c-2.84375-3.890625-3.648437-8.910156-2.160156-13.496094 1.488281-4.582031 5.089843-8.171875 9.679687-9.644531l32.125-10.316407 19.738282-27.363281c2.820312-3.910156 7.34375-6.226562 12.164062-6.226562s9.347656 2.316406 12.167969 6.226562l19.738281 27.363281 32.121094 10.316407c4.589844 1.472656 8.191406 5.0625 9.679687 9.644531 1.492188 4.585938.6875 9.605469-2.160156 13.496094l-19.925781 27.226562.113281 33.738282c.019531 4.820312-2.28125 9.355468-6.179687 12.1875-3.902344 2.832031-8.925782 3.617187-13.503907 2.113281l-32.050781-10.535157-32.050781 10.535157c-1.53125.503906-3.113281.75-4.683594.75zm0 0" fill="#ff193d"/><g fill-rule="evenodd"><path d="m120 215c8.261719 0 15-6.738281 15-15s-6.738281-15-15-15-15 6.738281-15 15 6.738281 15 15 15zm0 0" fill="#00347b"/><path d="m180 215c8.261719 0 15-6.738281 15-15s-6.738281-15-15-15-15 6.738281-15 15 6.738281 15 15 15zm0 0" fill="#001737"/><path d="m240 215c8.261719 0 15-6.738281 15-15s-6.738281-15-15-15-15 6.738281-15 15 6.738281 15 15 15zm0 0" fill="#001737"/><path d="m60 215c8.261719 0 15-6.738281 15-15s-6.738281-15-15-15-15 6.738281-15 15 6.738281 15 15 15zm0 0" fill="#00347b"/></g><path d="m223.707031 326.1875c-1.488281-4.582031-5.089843-8.171875-9.679687-9.644531l-32.125-10.316407-19.738282-27.363281c-2.816406-3.910156-7.34375-6.226562-12.164062-6.226562v131.777343l32.050781 10.535157c4.578125 1.503906 9.601563.71875 13.503907-2.113281 3.898437-2.832032 6.199218-7.367188 6.179687-12.1875l-.113281-33.738282 19.925781-27.230468c2.84375-3.886719 3.648437-8.90625 2.160156-13.492188zm0 0" fill="#be003b"/><path d="m435 41c-14.335938 0-26-11.664062-26-26 0-8.285156-6.714844-15-15-15h-94v420h94c8.285156 0 15-6.714844 15-15 0-14.335938 11.664062-26 26-26 8.285156 0 15-6.714844 15-15v-308c0-8.285156-6.714844-15-15-15zm0 0" fill="#ff9100"/></svg>