<svg height="512pt" viewBox="0 0 512 512" width="512pt" xmlns="http://www.w3.org/2000/svg"><path d="m346.988281 354.003906c-10.671875 0-21.339843-2.421875-31.714843-7.261718l-52.484376-24.492188c-24.695312-11.523438-45.1875-29.300781-59.269531-51.414062-14.082031-22.109376-21.523437-48.199219-21.523437-75.449219v-180.386719c0-8.285156 6.714844-15 15-15h299.988281c8.285156 0 15 6.714844 15 15v180.386719c0 27.25-7.441406 53.339843-21.523437 75.449219-14.082032 22.109374-34.578126 39.890624-59.269532 51.414062l-52.484375 24.492188c-10.375 4.839843-21.046875 7.261718-31.71875 7.261718zm0 0" fill="#00eccf"/><g fill="#00cab1"><path d="m496.984375 0h-149.996094v354.003906c10.671875 0 21.34375-2.421875 31.71875-7.261718l52.484375-24.492188c24.691406-11.523438 45.1875-29.300781 59.269532-51.414062 14.082031-22.109376 21.523437-48.199219 21.523437-75.449219v-180.386719c0-8.285156-6.714844-15-15-15zm0 0"/><path d="m286.992188 128.984375c-24.8125 0-45-20.1875-45-45 0-8.285156 6.714843-15 15-15 8.285156 0 15 6.714844 15 15 0 8.269531 6.730468 15 15 15 8.136718 0 14.863281-6.617187 14.996093-14.753906.136719-8.285157 6.9375-14.878907 15.246094-14.753907 8.28125.136719 14.886719 6.960938 14.75 15.246094-.398437 24.402344-20.582031 44.261719-44.992187 44.261719zm0 0"/><path d="m346.988281 267.605469c30.164063 0 55.773438-20.140625 64.066407-47.660157 2.890624-9.589843-4.382813-19.234374-14.394532-19.234374h-99.339844c-10.015624 0-17.285156 9.644531-14.398437 19.234374 8.296875 27.523438 33.90625 47.660157 64.066406 47.660157zm0 0" fill-rule="evenodd"/></g><path d="m406.992188 128.984375c-24.8125 0-45-20.1875-45-45 0-8.285156 6.71875-15 15-15 8.285156 0 15 6.714844 15 15 0 8.269531 6.730468 15 15 15 8.136718 0 14.863281-6.617187 14.996093-14.753906.136719-8.285157 6.984375-14.878907 15.246094-14.753907 8.28125.136719 14.886719 6.960938 14.75 15.246094-.398437 24.402344-20.585937 44.261719-44.992187 44.261719zm0 0" fill="#00aa95"/><path d="m164.996094 512c-10.671875 0-21.34375-2.421875-31.714844-7.261719l-52.488281-24.496093c-24.691407-11.519532-45.1875-29.300782-59.269531-51.410157-14.078126-22.109375-21.523438-48.199219-21.523438-75.449219v-180.386718c0-8.285156 6.714844-15 15-15h299.992188c8.28125 0 15 6.714844 15 15v180.386718c0 27.25-7.445313 53.339844-21.523438 75.449219-14.082031 22.113281-34.578125 39.890625-59.269531 51.414063l-52.488281 24.492187c-10.375 4.839844-21.046876 7.261719-31.714844 7.261719zm0 0" fill="#ff193d"/><path d="m314.992188 157.996094h-149.996094v354.003906c10.667968 0 21.339844-2.421875 31.714844-7.261719l52.484374-24.496093c24.695313-11.519532 45.1875-29.300782 59.269532-51.410157 14.082031-22.109375 21.523437-48.203125 21.523437-75.449219v-180.386718c.003907-8.285156-6.710937-15-14.996093-15zm0 0" fill="#be003b"/><path d="m74.996094 296.976562c-8.28125 0-14.996094-6.714843-14.996094-15 0-24.8125 20.183594-44.996093 44.996094-44.996093 24.410156 0 44.59375 19.855469 44.992187 44.257812.136719 8.285157-6.46875 15.109375-14.75 15.246094-8.320312.136719-15.109375-6.46875-15.242187-14.753906-.136719-8.132813-6.863282-14.753907-15-14.753907-8.269532 0-15 6.730469-15 15 0 8.285157-6.714844 15-15 15zm0 0" fill="#be003b"/><path d="m195 296.976562c-8.285156 0-15-6.714843-15-15 0-24.8125 20.183594-44.996093 44.996094-44.996093 24.410156 0 44.59375 19.855469 44.992187 44.257812.136719 8.285157-6.46875 15.109375-14.75 15.246094-8.316406.136719-15.105469-6.46875-15.242187-14.753906-.136719-8.132813-6.863282-14.753907-15-14.753907-8.269532 0-15 6.730469-15 15 0 8.285157-6.714844 15-14.996094 15zm0 0" fill="#97002c"/><path d="m164.996094 356.96875c30.164062 0 55.769531 20.144531 64.066406 47.664062 2.890625 9.589844-4.386719 19.234376-14.398438 19.234376h-99.339843c-10.011719 0-17.285157-9.644532-14.394531-19.234376 8.292968-27.523437 33.902343-47.664062 64.066406-47.664062zm0 0" fill="#be003b" fill-rule="evenodd"/><path d="m229.0625 404.632812c-8.289062-27.492187-33.855469-47.621093-63.980469-47.660156v66.894532h49.582031c10.015626 0 17.289063-9.644532 14.398438-19.234376zm0 0" fill="#97002c" fill-rule="evenodd"/><path d="m396.660156 200.710938h-49.671875v66.894531c30.164063 0 55.773438-20.140625 64.066407-47.660157 2.890624-9.589843-4.382813-19.234374-14.394532-19.234374zm0 0" fill="#00aa95" fill-rule="evenodd"/></svg>