<svg height="512pt" viewBox="-46 0 511 512" width="512pt" xmlns="http://www.w3.org/2000/svg"><path d="m419.402344 182.417969v-56.894531c0-16.570313-13.433594-30-30-30-13.867188 0-25.527344 9.40625-28.964844 22.183593v-55.757812c0-16.570313-13.433594-30-30-30-16.570312 0-30 13.429687-30 30v-31.949219c0-16.570312-13.433594-30-30-30-16.570312 0-30 13.429688-30 30v29.226562c0-16.570312-13.433594-30-30-30-16.570312 0-30 13.429688-30 30v100c0-16.570312-13.433594-30-30-30-16.570312 0-30 13.429688-30 30v68.167969.003907 21.5625c0 82.558593 66.925781 149.484374 149.480469 149.484374 82.558593 0 149.484375-66.925781 149.484375-149.484374zm0 0" fill="#ffe4c1"/><path d="m389.402344 95.523438c-13.867188 0-25.527344 9.40625-28.964844 22.1875v-55.761719c0-16.570313-13.433594-30-30-30-16.570312 0-30 13.429687-30 30v-31.949219c0-16.570312-13.433594-30-30-30v398.4375c82.316406-.277344 148.964844-67.089844 148.964844-149.472656v-123.441406c0-16.570313-13.433594-30-30-30zm0 0" fill="#fdd1a3"/><path d="m299.464844 295.972656v-56.894531c0-16.570313-13.433594-30-30-30-13.863282 0-25.527344 9.40625-28.964844 22.183594v-55.757813c0-16.570312-13.433594-30-30-30-16.570312 0-30 13.429688-30 30v-31.949218c0-16.570313-13.433594-30-30-30-16.570312 0-30 13.429687-30 30v29.226562c0-16.570312-13.433594-30-30-30s-30 13.429688-30 30v100c0-16.566406-13.433594-30-30-30-16.570312 0-30 13.429688-30 30v68.167969.003906 21.5625c0 82.558594 66.925781 149.484375 149.480469 149.484375 82.558593 0 149.484375-66.925781 149.484375-149.480469zm0 0" fill="#fdd1a3"/><path d="m269.464844 209.078125c-13.863282 0-25.527344 9.40625-28.964844 22.183594v-55.757813c0-16.570312-13.433594-30-30-30-16.570312 0-30 13.429688-30 30v-31.949218c0-16.570313-13.433594-30-30-30v398.4375c82.316406-.277344 148.964844-67.089844 148.964844-149.472657v-123.441406c0-16.566406-13.433594-30-30-30zm0 0" fill="#ffbb85"/></svg>