<svg height="512pt" viewBox="0 0 512 512" width="512pt" xmlns="http://www.w3.org/2000/svg"><path d="m424.984375 511.984375h-.003906l-260-.125c-6.550781-.003906-12.34375-4.257813-14.304688-10.511719l-89.707031-285.871094c-1.386719-4.421874-.652344-9.234374 1.988281-13.042968 2.640625-3.804688 6.894531-6.179688 11.519531-6.425782l95.234376-5.128906c4.601562-.238281 9.0625 1.632813 12.097656 5.105469l254.472656 291.128906c3.871094 4.429688 4.796875 10.71875 2.359375 16.074219-2.433594 5.355469-7.773437 8.796875-13.65625 8.796875zm0 0" fill="#fff36c"/><path d="m347.359375 512-260.863281-.015625c-5.878906 0-11.21875-3.4375-13.652344-8.792969-2.433594-5.351562-1.515625-11.632812 2.347656-16.066406l253.765625-291.035156c3.03125-3.476563 7.492188-5.371094 12.09375-5.121094l95.535157 5.039062c4.648437.246094 8.917968 2.632813 11.558593 6.464844 2.640625 3.832032 3.355469 8.675782 1.929688 13.105469-14.621094 45.480469-29.164063 93.449219-43.230469 139.84375-14.535156 47.949219-29.566406 97.527344-45.203125 146.167969-1.996094 6.203125-7.765625 10.410156-14.28125 10.410156zm0 0" fill="#ffde46"/><path d="m448.144531 202.472656c-2.640625-3.832031-6.910156-6.222656-11.558593-6.464844l-95.535157-5.039062c-4.601562-.25-9.0625 1.644531-12.09375 5.121094l-72.96875 83.683594v232.21875l91.371094.007812c6.515625 0 12.285156-4.207031 14.28125-10.410156 15.636719-48.640625 30.667969-98.222656 45.203125-146.171875 14.0625-46.390625 28.605469-94.359375 43.230469-139.84375 1.425781-4.429688.710937-9.269531-1.929688-13.101563zm0 0" fill="#ffcd00"/><path d="m17.851562 18.242188v133.136718c0 31.9375 25.890626 57.832032 57.828126 57.832032s57.828124-25.894532 57.828124-57.832032v-133.136718zm0 0" fill="#ff193d"/><path d="m137.914062 18.242188v133.136718c0 31.9375 25.890626 57.832032 57.828126 57.832032s57.832031-25.894532 57.832031-57.832032v-133.136718zm0 0" fill="#ff193d"/><g fill="#be003b"><path d="m258.410156 18.242188v133.136718c0 31.9375 25.890625 57.832032 57.828125 57.832032s57.832031-25.894532 57.832031-57.832032v-133.136718zm0 0"/><path d="m378.90625 18.242188v133.136718c0 31.9375 25.890625 57.832032 57.828125 57.832032s57.832031-25.894532 57.832031-57.832032v-133.136718zm0 0"/><path d="m511.984375 15c0-8.285156-6.71875-15-15-15h-481.984375c-8.285156 0-15 6.714844-15 15v154.300781c3.992188 37.886719 36.445312 67.691407 75.246094 67.691407 24.621094 0 46.511718-11.921876 60.25-30.316407 13.734375 18.394531 35.628906 30.316407 60.246094 30.316407 24.621093 0 46.511718-11.921876 60.25-30.316407 13.734374 18.394531 35.628906 30.316407 60.246093 30.316407 24.621094 0 46.511719-11.921876 60.25-30.316407 13.734375 18.394531 35.628907 30.316407 60.246094 30.316407 41.492187 0 75.25-33.867188 75.25-75.496094zm-436.738281 191.992188c-24.855469 0-45.085938-20.253907-45.238282-45.210938 12.601563 9.542969 28.269532 15.210938 45.238282 15.210938s32.640625-5.667969 45.242187-15.210938c-.152343 24.957031-20.386719 45.210938-45.242187 45.210938zm0-59.996094c-24.855469 0-45.085938-20.257813-45.238282-45.214844 12.601563 9.546875 28.269532 15.214844 45.238282 15.214844s32.640625-5.667969 45.242187-15.214844c-.152343 24.957031-20.386719 45.214844-45.242187 45.214844zm45.25-105.496094c0 25.085938-20.296875 45.496094-45.25 45.496094-24.949219 0-45.246094-20.410156-45.246094-45.496094v-11.5h90.496094zm75.246094 165.492188c-24.851563 0-45.085938-20.253907-45.238282-45.210938 12.601563 9.542969 28.269532 15.210938 45.238282 15.210938 16.972656 0 32.640624-5.667969 45.242187-15.210938-.152344 24.957031-20.386719 45.210938-45.242187 45.210938zm0-59.996094c-24.851563 0-45.085938-20.257813-45.238282-45.214844 12.601563 9.546875 28.269532 15.214844 45.238282 15.214844 16.972656 0 32.640624-5.667969 45.242187-15.214844-.152344 24.957031-20.386719 45.214844-45.242187 45.214844zm45.25-105.496094c0 25.085938-20.296876 45.496094-45.25 45.496094-24.949219 0-45.246094-20.410156-45.246094-45.496094v-11.5h90.496094zm75.246093 165.492188c-24.851562 0-45.085937-20.253907-45.238281-45.210938 12.597656 9.542969 28.269531 15.210938 45.238281 15.210938s32.640625-5.667969 45.242188-15.210938c-.152344 24.957031-20.386719 45.210938-45.242188 45.210938zm0-59.996094c-24.855469 0-45.085937-20.257813-45.242187-45.214844 12.601562 9.546875 28.273437 15.214844 45.242187 15.214844s32.640625-5.667969 45.242188-15.214844c-.152344 24.957031-20.386719 45.214844-45.242188 45.214844zm45.25-105.496094c0 25.085938-20.296875 45.496094-45.25 45.496094-24.949219 0-45.246093-20.410156-45.246093-45.496094v-11.5h90.496093zm30-11.5h90.496094v11.519531c-.011719 25.078125-20.304687 45.476563-45.25 45.476563-24.949219 0-45.246094-20.410156-45.246094-45.496094zm45.246094 176.992188c-24.855469 0-45.085937-20.253907-45.242187-45.210938 12.601562 9.542969 28.273437 15.210938 45.242187 15.210938s32.640625-5.667969 45.242187-15.210938c-.152343 24.957031-20.386718 45.210938-45.242187 45.210938zm0-59.996094c-24.855469 0-45.085937-20.257813-45.242187-45.214844 12.601562 9.546875 28.273437 15.214844 45.242187 15.214844s32.640625-5.667969 45.242187-15.214844c-.152343 24.957031-20.386718 45.214844-45.242187 45.214844zm0 0"/></g><path d="m255.519531 280.3125-128.101562 146.917969 23.257812 74.117187c1.960938 6.253906 7.753907 10.507813 14.304688 10.511719l183.628906.085937c5.992187-.496093 11.164063-4.550781 13.03125-10.355468 7.835937-24.367188 15.515625-48.972656 23.058594-73.488282zm0 0" fill="#fdbf00"/><path d="m496.984375 0h-240.992187v206.675781c13.734374 18.394531 35.628906 30.316407 60.246093 30.316407 24.621094 0 46.511719-11.921876 60.25-30.316407 13.734375 18.394531 35.628907 30.316407 60.246094 30.316407 41.492187 0 75.25-33.867188 75.25-75.496094v-146.496094c0-8.285156-6.71875-15-15-15zm-180.746094 206.992188c-24.851562 0-45.085937-20.253907-45.238281-45.210938 12.597656 9.542969 28.269531 15.210938 45.238281 15.210938s32.640625-5.667969 45.242188-15.210938c-.152344 24.957031-20.386719 45.210938-45.242188 45.210938zm0-59.996094c-24.855469 0-45.085937-20.257813-45.242187-45.214844 12.601562 9.546875 28.273437 15.214844 45.242187 15.214844s32.640625-5.667969 45.242188-15.214844c-.152344 24.957031-20.386719 45.214844-45.242188 45.214844zm45.25-105.496094c0 25.085938-20.296875 45.496094-45.25 45.496094-24.949219 0-45.246093-20.410156-45.246093-45.496094v-11.5h90.496093zm75.246094 165.492188c-24.855469 0-45.085937-20.253907-45.242187-45.210938 12.601562 9.542969 28.273437 15.210938 45.242187 15.210938s32.640625-5.667969 45.242187-15.210938c-.152343 24.957031-20.386718 45.210938-45.242187 45.210938zm0-59.996094c-24.855469 0-45.085937-20.257813-45.242187-45.214844 12.601562 9.546875 28.273437 15.214844 45.242187 15.214844s32.640625-5.667969 45.242187-15.214844c-.152343 24.957031-20.386718 45.214844-45.242187 45.214844zm45.25-105.476563c-.011719 25.078125-20.304687 45.476563-45.25 45.476563-24.949219 0-45.246094-20.410156-45.246094-45.496094v-11.5h90.496094zm0 0" fill="#97002c"/><path d="m255.988281 280.851562v231.050782l92.621094.042968c5.992187-.496093 11.164063-4.550781 13.03125-10.355468 7.832031-24.367188 15.515625-48.972656 23.058594-73.488282zm0 0" fill="#ccc"/><path d="m436.28125 487.113281-180.292969-206.261719v231.050782l168.992188.082031h.003906c5.882813 0 11.222656-3.441406 13.65625-8.796875 2.4375-5.355469 1.511719-11.644531-2.359375-16.074219zm0 0" fill="#ff9100"/></svg>