<svg height="512pt" viewBox="0 0 512 512" width="512pt" xmlns="http://www.w3.org/2000/svg"><path d="m438 152h-364c-8.285156 0-15-6.714844-15-15v-31.6875c0-5.699219 3.230469-10.90625 8.332031-13.4375l181.996094-90.3125c4.203125-2.082031 9.136719-2.082031 13.335937 0l182.003907 90.3125c5.105469 2.535156 8.332031 7.738281 8.332031 13.4375v31.6875c0 8.285156-6.714844 15-15 15zm0 0" fill="#ebe1dc"/><path d="m444.667969 91.875-182.003907-90.3125c-2.078124-1.03125-4.339843-1.546875-6.601562-1.55859375v151.99609375h181.9375c8.285156 0 15-6.714844 15-15v-31.6875c0-5.699219-3.226562-10.90625-8.332031-13.4375zm0 0" fill="#dcd2cd"/><path d="m468 477.128906h-424c-8.285156 0-15-6.714844-15-15v-325.128906c0-8.285156 6.714844-15 15-15h62.042969l30 13 30-13h59.957031l30 13 30-13h59.957031l30 13 30-13h62.042969c8.285156 0 15 6.714844 15 15v325.128906c0 8.285156-6.714844 15-15 15zm0 0" fill="#f5f0eb"/><path d="m468 122h-62.042969l-30 13-30-13h-59.957031l-29.9375 12.972656v342.15625h211.9375c8.285156 0 15-6.714844 15-15v-325.128906c0-8.285156-6.714844-15-15-15zm0 0" fill="#ebe1dc"/><path d="m497 512h-482c-8.285156 0-15-6.714844-15-15v1c0-31.980469 26.019531-58 58-58h396c31.980469 0 58 26.019531 58 58v-1c0 8.285156-6.714844 15-15 15zm0 0" fill="#ebe1dc"/><path d="m256 88.660156c10.277344 0 18.660156-8.382812 18.660156-18.660156s-8.382812-18.660156-18.660156-18.660156-18.660156 8.382812-18.660156 18.660156 8.382812 18.660156 18.660156 18.660156zm0 0" fill="#ffcd00" fill-rule="evenodd"/><path d="m166.042969 410.296875h-60v-258.59375h60zm0 0" fill="#ebe1dc"/><path d="m286 410.296875h-60v-258.59375h60zm0 0" fill="#ebe1dc"/><g fill="#dcd2cd"><path d="m405.957031 410.296875h-60v-258.59375h60zm0 0"/><path d="m106.042969 122h60v59.402344h-60zm0 0"/><path d="m256 151.703125h30v258.59375h-30zm0 0"/><path d="m106.042969 380.597656h60v59.402344h-60zm0 0"/><path d="m226 122h60v59.402344h-60zm0 0"/><path d="m226 380.597656h60v59.402344h-60zm0 0"/></g><path d="m345.957031 122h60v59.402344h-60zm0 0" fill="#ccbeb9"/><path d="m345.957031 380.597656h60v59.402344h-60zm0 0" fill="#ccbeb9"/><path d="m256.078125 51.34375v37.3125c10.242187-.042969 18.582031-8.40625 18.582031-18.65625s-8.339844-18.613281-18.582031-18.65625zm0 0" fill="#fdbf00" fill-rule="evenodd"/><path d="m255.808594 122h30.191406v59.402344h-30.191406zm0 0" fill="#ccbeb9"/><path d="m255.808594 380.597656h30.191406v59.402344h-30.191406zm0 0" fill="#ccbeb9"/><path d="m512 497c0 .113281-.015625.222656-.015625.332031 0 .226563.015625.445313.015625.667969zm0 0" fill="#dcd2cd"/><path d="m454 440h-198.007812v72h241.007812c8.171875 0 14.804688-6.539062 14.984375-14.667969-.359375-31.671875-26.226563-57.332031-57.984375-57.332031zm0 0" fill="#dcd2cd"/></svg>