<svg height="512pt" viewBox="0 0 512 512" width="512pt" xmlns="http://www.w3.org/2000/svg"><path d="m467 274c-8.285156 0-15-6.714844-15-15v-148.996094c0-8.273437-6.730469-15-15-15h-41c-8.285156 0-15-6.71875-15-15 0-8.285156 6.714844-15 15-15h41c24.8125 0 45 20.1875 45 45v148.996094c0 8.285156-6.714844 15-15 15zm0 0" fill="#ffcd00"/><path d="m144.582031 107.753906c-2.140625 0-4.3125-.460937-6.378906-1.433594-7.492187-3.527343-10.710937-12.464843-7.183594-19.957031 12.96875-27.558593 41.027344-45.363281 71.480469-45.363281 29.664062 0 56.554688 16.371094 70.179688 42.722656 3.800781 7.359375.921874 16.410156-6.441407 20.210938-7.355469 3.808594-16.40625.921875-20.210937-6.4375-8.449219-16.34375-25.128906-26.496094-43.527344-26.496094-18.890625 0-36.292969 11.042969-44.335938 28.136719-2.554687 5.429687-7.953124 8.617187-13.582031 8.617187zm0 0" fill="#ffde46"/><path d="m272.679688 83.722656c-13.625-26.351562-40.515626-42.722656-70.179688-42.722656-.175781 0-.351562.007812-.527344.011719v30c.175782-.003907.351563-.011719.527344-.011719 18.398438 0 35.078125 10.152344 43.527344 26.496094 3.804687 7.359375 12.855468 10.242187 20.210937 6.4375 7.363281-3.804688 10.242188-12.851563 6.441407-20.210938zm0 0" fill="#ffcd00"/><path d="m80 145c35.800781 0 65-29.199219 65-65s-29.199219-65-65-65-65 29.199219-65 65 29.199219 65 65 65zm0 0" fill="#f5f0eb" fill-rule="evenodd"/><path d="m80 160c-44.113281 0-80-35.886719-80-80s35.886719-80 80-80 80 35.886719 80 80-35.886719 80-80 80zm0-130c-27.570312 0-50 22.429688-50 50s22.429688 50 50 50 50-22.429688 50-50-22.429688-50-50-50zm0 0" fill="#00347b"/><path d="m325 145c35.800781 0 65-29.199219 65-65s-29.199219-65-65-65-65 29.199219-65 65 29.199219 65 65 65zm0 0" fill="#ebe1dc" fill-rule="evenodd"/><path d="m325 160c-44.113281 0-80-35.886719-80-80s35.886719-80 80-80 80 35.886719 80 80-35.886719 80-80 80zm0-130c-27.570312 0-50 22.429688-50 50s22.429688 50 50 50 50-22.429688 50-50-22.429688-50-50-50zm0 0" fill="#001737"/><path d="m467 512c-24.8125 0-45-20.1875-45-45v-178c0-24.8125 20.1875-45 45-45s45 20.1875 45 45v178c0 24.8125-20.1875 45-45 45zm0 0" fill="#00cab1"/></svg>