<svg height="512pt" viewBox="-59 0 512 512" width="512pt" xmlns="http://www.w3.org/2000/svg"><path d="m366.144531 298.683594c-4.664062-6.851563-13.992187-8.621094-20.84375-3.957032l-148.238281 100.929688-148.238281-100.929688c-6.847657-4.664062-16.179688-2.894531-20.84375 3.957032-4.664063 6.847656-2.894531 16.179687 3.957031 20.84375l138.46875 94.28125-103.964844 70.789062c-6.851562 4.660156-8.621094 13.992188-3.957031 20.839844 2.902344 4.265625 7.617187 6.5625 12.414063 6.5625 2.90625 0 5.84375-.84375 8.429687-2.601562l113.734375-77.441407 113.734375 77.441407c2.585937 1.757812 5.523437 2.601562 8.433594 2.601562 4.796875 0 9.507812-2.296875 12.410156-6.5625 4.664063-6.847656 2.894531-16.179688-3.957031-20.839844l-103.964844-70.789062 138.46875-94.28125c6.847656-4.664063 8.621094-13.996094 3.957031-20.84375zm0 0" fill="#00347b"/><path d="m366.144531 298.683594c-4.664062-6.851563-13.992187-8.621094-20.84375-3.957032l-148.238281 100.929688v36.300781l113.734375 77.441407c2.585937 1.757812 5.523437 2.601562 8.429687 2.601562 4.796876 0 9.511719-2.296875 12.414063-6.5625 4.664063-6.847656 2.894531-16.179688-3.957031-20.839844l-103.964844-70.789062 138.46875-94.28125c6.847656-4.664063 8.621094-13.996094 3.957031-20.84375zm0 0" fill="#001737"/><path d="m340.117188 161.019531h-286.113282c-8.285156 0-15-6.71875-15-15.003906v-97.011719c0-8.285156 6.714844-15 15-15h286.113282c8.285156 0 15.003906 6.714844 15.003906 15v97.011719c0 8.285156-6.714844 15.003906-15.003906 15.003906zm0 0" fill="#00eccf"/><path d="m340.117188 34.003906h-143.054688v127.015625h143.054688c8.285156 0 15.003906-6.71875 15.003906-15.003906v-97.011719c0-8.285156-6.714844-15-15.003906-15zm0 0" fill="#00cab1"/><path d="m54.085938 275.03125c-8.285157 0-15-6.71875-15-15.003906v-245.027344c0-8.285156 6.714843-15 15-15 8.285156 0 15.003906 6.714844 15.003906 15v245.027344c0 8.285156-6.71875 15.003906-15.003906 15.003906zm0 0" fill="#00347b"/><path d="m340.117188 275.03125c-8.285157 0-15-6.71875-15-15.003906v-245.027344c0-8.285156 6.714843-15 15-15 8.285156 0 15.003906 6.714844 15.003906 15v245.027344c0 8.285156-6.714844 15.003906-15.003906 15.003906zm0 0" fill="#001737"/><path d="m312.917969 335.039062h-231.714844c-44.773437 0-81.203125-33.652343-81.203125-75.011718 0-8.285156 6.714844-15 15-15h364.125c8.285156 0 15 6.714844 15 15 0 41.359375-36.429688 75.011718-81.207031 75.011718zm0 0" fill="#00eccf"/><path d="m379.125 245.027344h-182.0625v90.011718h115.855469c44.777343 0 81.207031-33.652343 81.207031-75.011718 0-8.285156-6.714844-15-15-15zm0 0" fill="#00cab1"/></svg>