<svg height="511pt" viewBox="-61 1 511 511.999" width="511pt" xmlns="http://www.w3.org/2000/svg"><path d="m330.460938 372.964844h-269.96875c-8.28125 0-14.996094-6.714844-14.996094-14.996094v-166.960938c0-1.394531.191406-2.78125.578125-4.121093l43.886719-153.496094c5.710937-19.972656 22.746093-33.390625 42.394531-33.390625h128.421875c20.027344 0 37.109375 13.578125 42.5 33.789062l41.679687 156.246094c.335938 1.261719.503907 2.5625.503907 3.867188v164.066406c0 8.28125-6.714844 14.996094-15 14.996094zm0 0" fill="#ff193d"/><path d="m344.957031 190.035156-41.679687-156.246094c-5.390625-20.210937-22.472656-33.789062-42.5-33.789062h-65.300782v372.964844h134.984376c8.285156 0 15-6.714844 15-14.996094v-164.066406c0-1.304688-.167969-2.605469-.503907-3.867188zm0 0" fill="#be003b"/><path d="m292.015625 436.007812h-193.070313c-24.785156 0-44.953124-20.183593-44.953124-44.996093v-41.992188c0-8.285156 6.714843-15 15-15h252.972656c8.28125 0 15 6.714844 15 15v41.992188c0 24.8125-20.164063 44.996093-44.949219 44.996093zm0 0" fill="#be003b"/><path d="m321.964844 334.019531h-126.484375v101.988281h96.535156c24.785156 0 44.949219-20.183593 44.949219-44.996093v-41.992188c0-8.285156-6.71875-15-15-15zm0 0" fill="#97002c"/><path d="m75.492188 482.003906h-15v-55.023437c0-8.28125-6.714844-14.996094-14.996094-14.996094-8.285156 0-15 6.714844-15 14.996094v55.023437h-15c-8.28125 0-14.996094 6.714844-14.996094 14.996094 0 8.285156 6.714844 15 14.996094 15h29.988281.011719.007812 29.988282c8.28125 0 14.996093-6.714844 14.996093-15 0-8.28125-6.714843-14.996094-14.996093-14.996094zm0 0" fill="#f5f0eb"/><path d="m60.992188 435.980469h-30.996094c-8.28125 0-15-6.714844-15-15v-179.953125c0-8.28125 6.71875-14.996094 15-14.996094h30.996094c8.285156 0 15 6.714844 15 14.996094v179.953125c0 8.285156-6.714844 15-15 15zm0 0" fill="#00347b"/><path d="m375.457031 482.003906h-14.996093v-55.023437c0-8.28125-6.714844-14.996094-15-14.996094-8.28125 0-14.996094 6.714844-14.996094 14.996094v55.023437h-15c-8.28125 0-14.996094 6.714844-14.996094 14.996094 0 8.285156 6.714844 15 14.996094 15h29.988281.007813.011718 29.984375c8.285157 0 15-6.714844 15-15 0-8.28125-6.714843-14.996094-15-14.996094zm0 0" fill="#ebe1dc"/><path d="m360.960938 435.980469h-30.996094c-8.285156 0-15-6.714844-15-15v-179.953125c0-8.28125 6.714844-14.996094 15-14.996094h30.996094c8.28125 0 14.996093 6.714844 14.996093 14.996094v179.953125c0 8.285156-6.714843 15-14.996093 15zm0 0" fill="#001737"/></svg>