<svg height="512pt" viewBox="0 -21 512.00033 512" width="512pt" xmlns="http://www.w3.org/2000/svg"><path d="m255.757812 375.175781c-2.976562 0-6.222656-.910156-9.457031-3.238281-.5-.363281-216.527343-176.671875-228.851562-188.988281-11.253907-11.253907-17.449219-26.214844-17.449219-42.125 0-15.914063 6.195312-30.871094 17.449219-42.121094 11.332031-11.335937 26.496093-17.445313 42.046875-17.457031 4.039062-15.015625 13.863281-28.085938 27.746094-36.097656 13.878906-8.015626 30.109374-9.992188 45.132812-5.980469 7.785156-13.457031 20.660156-23.535157 36.140625-27.683594 15.484375-4.152344 31.667969-1.859375 45.140625 5.90625 11.007812-10.988281 26.046875-17.390625 42.078125-17.390625 16.027344 0 31.070313 6.402344 42.074219 17.390625 13.476562-7.765625 29.65625-10.058594 45.144531-5.910156 15.480469 4.152343 28.351563 14.230469 36.140625 27.6875 15.023438-4.007813 31.253906-2.035157 45.132812 5.980469 13.882813 8.015624 23.707032 21.082031 27.742188 36.097656 15.550781.011718 30.714844 6.121094 42.050781 17.457031 12.109375 12.109375 18.644531 28.824219 17.925781 45.855469-.65625 15.59375-7.355468 29.53125-18.855468 39.242187-45.097656 38.070313-208.132813 171.738281-227.828125 187.96875-2.324219 1.910157-5.691407 3.40625-9.503907 3.40625zm0 0" fill="#ff193d"/><path d="m494.019531 98.703125c-11.335937-11.335937-26.496093-17.445313-42.046875-17.457031-4.039062-15.019532-13.863281-28.085938-27.746094-36.097656-13.878906-8.015626-30.109374-9.988282-45.132812-5.980469-7.785156-13.457031-20.65625-23.539063-36.140625-27.6875-15.484375-4.148438-31.667969-1.855469-45.144531 5.90625-10.984375-10.96875-26-17.3671878-42-17.386719v375.175781c3.792968-.015625 7.140625-1.503906 9.453125-3.410156 19.699219-16.230469 182.734375-149.894531 227.828125-187.96875 11.503906-9.710937 18.199218-23.644531 18.855468-39.242187.71875-17.03125-5.816406-33.742188-17.925781-45.851563zm0 0" fill="#be003b"/><path d="m297.546875 470.78125h-83.625c-11.558594 0-21.878906-6.417969-26.941406-16.753906-5.890625-12.027344-3.78125-25.476563 5.25-33.464844l53.574219-47.40625c5.667968-5.015625 14.1875-5.015625 19.859374 0l53.574219 47.40625c9.03125 7.988281 11.136719 21.4375 5.246094 33.464844-5.058594 10.335937-15.382813 16.753906-26.9375 16.753906zm0 0" fill="#ff193d"/><path d="m319.238281 420.558594-53.574219-47.402344c-2.816406-2.492188-6.332031-3.742188-9.855468-3.761719v101.386719h41.738281c11.554687 0 21.878906-6.417969 26.941406-16.753906 5.890625-12.027344 3.78125-25.476563-5.25-33.46875zm0 0" fill="#be003b"/><path d="m361.320312 215.355469c-18.882812-5.058594-38.671874-1.890625-54.789062 8.203125-12.953125-13.921875-31.246094-22.101563-50.800781-22.101563-19.550781 0-37.84375 8.179688-50.796875 22.101563-16.117188-10.09375-35.902344-13.261719-54.789063-8.203125-21.1875 5.679687-38.167969 20.894531-46.292969 40.820312 13.742188 11.351563 141.949219 115.398438 142.449219 115.761719 3.234375 2.328125 6.480469 3.238281 9.453125 3.238281 3.816406 0 7.183594-1.496093 9.507813-3.40625 19.695312-16.230469 116.4375-95.546875 141.953125-116.566406-8.269532-19.453125-25.050782-34.261719-45.894532-39.847656zm0 0" fill="#fdbf00"/><path d="m361.320312 215.355469c-18.882812-5.058594-38.671874-1.890625-54.789062 8.203125-12.933594-13.902344-31.199219-22.078125-50.722656-22.101563v173.71875c3.792968-.015625 7.140625-1.503906 9.453125-3.40625 19.699219-16.230469 116.4375-95.546875 141.957031-116.566406-8.273438-19.453125-25.054688-34.261719-45.898438-39.847656zm0 0" fill="#ff9100"/></svg>