<svg height="512pt" viewBox="-1 0 512 512" width="512pt" xmlns="http://www.w3.org/2000/svg"><path d="m90.015625 186.488281h329.96875v158.128907h-329.96875zm0 0" fill="#f5f0eb"/><path d="m254.4375 186.488281h165.550781v158.128907h-165.550781zm0 0" fill="#ebe1dc"/><path d="m401 240h-292c-24.8125 0-45-20.1875-45-45v-115.25c0-8.285156 6.71875-15 15-15h352c8.285156 0 15 6.714844 15 15v115.253906c0 24.8125-20.183594 44.996094-45 44.996094zm0 0" fill="#ebe1dc"/><path d="m431 64.75h-176.5625v175.25h146.5625c24.816406 0 45-20.1875 45-45v-115.25c0-8.285156-6.714844-15-15-15zm0 0" fill="#dcd2cd"/><path d="m419.988281 0c-.007812 0-.015625 0-.019531 0h-329.96875c-49.625 0-90 40.375-90 90s40.375 90 90 90c47.121094 0 85.894531-36.402344 89.691406-82.5625 24.738282 8.613281 49.683594 12.9375 74.742188 12.9375 25.183594 0 50.480468-4.371094 75.777344-13.074219 3.730468 46.226563 42.570312 82.699219 89.777343 82.699219 49.664063 0 90.070313-40.375 90.070313-90s-40.40625-90-90.070313-90zm0 0" fill="#f5f0eb"/><path d="m419.988281 0c-.007812 0-.015625 0-.019531 0h-165.53125v110.375c25.183594 0 50.480469-4.371094 75.773438-13.074219 3.730468 46.226563 42.570312 82.699219 89.777343 82.699219 49.664063 0 90.070313-40.375 90.070313-90s-40.40625-90-90.070313-90zm0 0" fill="#ebe1dc"/><path d="m90 120c16.523438 0 30-13.476562 30-30s-13.476562-30-30-30-30 13.476562-30 30 13.476562 30 30 30zm0 0" fill="#ebe1dc" fill-rule="evenodd"/><path d="m419.988281 120c16.523438 0 30-13.476562 30-30s-13.476562-30-30-30c-16.527343 0-30 13.476562-30 30s13.472657 30 30 30zm0 0" fill="#dcd2cd" fill-rule="evenodd"/><path d="m90.015625 512v-196.097656c0-18.21875 14.769531-32.988282 32.992187-32.988282 18.21875 0 32.988282 14.769532 32.988282 32.988282v196.097656" fill="#ebe1dc"/><path d="m156.003906 512v-196.097656c0-18.21875 14.769532-32.988282 32.992188-32.988282 18.21875 0 32.988281 14.769532 32.988281 32.988282v196.097656" fill="#dcd2cd"/><path d="m221.988281 512v-196.097656c0-18.21875 14.769531-32.988282 32.988281-32.988282s32.988282 14.769532 32.988282 32.988282v196.097656" fill="#ebe1dc"/><path d="m353.957031 512v-196.097656c0-18.21875 14.769531-32.988282 32.988281-32.988282 18.222657 0 32.992188 14.769532 32.992188 32.988282v196.097656" fill="#b8abab"/><path d="m287.976562 512v-196.097656c0-18.21875 14.769532-32.988282 32.988282-32.988282 18.222656 0 32.992187 14.769532 32.992187 32.988282v196.097656" fill="#ccbeb9"/><path d="m254.976562 282.914062c-.179687 0-.359374.007813-.539062.011719v229.074219h33.53125v-196.097656c0-18.21875-14.769531-32.988282-32.992188-32.988282zm0 0" fill="#dcd2cd"/></svg>