<svg height="512pt" viewBox="0 0 512 512" width="512pt" xmlns="http://www.w3.org/2000/svg"><path d="m467 512c-16.09375 0-30.378906-8.320312-38.355469-21.371094-4.554687.660156-9.5 1.121094-14.644531 1.121094-11.058594 0-21.394531-2.964844-30.511719-5.582031-7.917969-2.273438-15.398437-4.417969-22.238281-4.417969s-14.320312 2.144531-22.238281 4.417969c-9.117188 2.617187-19.453125 5.582031-30.511719 5.582031s-21.394531-2.964844-30.511719-5.582031c-7.917969-2.273438-15.398437-4.417969-22.238281-4.417969s-14.320312 2.144531-22.238281 4.417969c-9.117188 2.617187-19.453125 5.582031-30.511719 5.582031s-21.394531-2.964844-30.511719-5.582031c-7.917969-2.273438-15.398437-4.417969-22.238281-4.417969s-14.320312 2.144531-22.238281 4.417969c-9.117188 2.617187-19.453125 5.582031-30.511719 5.582031-4.53125 0-9.140625-.335938-14.1875-1.058594-7.996094 13.011719-22.265625 21.308594-38.3125 21.308594-24.8125 0-45-20.1875-45-45 0-15.929688 8.222656-30.152344 21.113281-38.179688-.757812-5.203124-1.113281-9.929687-1.113281-14.570312 0-11.058594 2.964844-21.394531 5.582031-30.511719 2.273438-7.917969 4.417969-15.398437 4.417969-22.238281s-2.144531-14.320312-4.417969-22.238281c-2.617187-9.117188-5.582031-19.453125-5.582031-30.511719s2.964844-21.394531 5.582031-30.511719c2.273438-7.917969 4.417969-15.398437 4.417969-22.238281s-2.144531-14.320312-4.417969-22.238281c-2.617187-9.117188-5.582031-19.453125-5.582031-30.511719s2.964844-21.394531 5.582031-30.511719c2.273438-7.917969 4.417969-15.398437 4.417969-22.238281s-2.144531-14.320312-4.417969-22.238281c-2.617187-9.117188-5.582031-19.453125-5.582031-30.511719 0-4.640625.355469-9.367188 1.113281-14.570312-12.890625-8.027344-21.113281-22.25-21.113281-38.179688 0-24.8125 20.1875-45 45-45 16.046875 0 30.316406 8.296875 38.3125 21.308594 5.046875-.722656 9.65625-1.058594 14.1875-1.058594 11.058594 0 21.394531 2.964844 30.511719 5.582031 7.921875 2.273438 15.398437 4.417969 22.238281 4.417969s14.320312-2.144531 22.238281-4.417969c9.121094-2.617187 19.453125-5.582031 30.511719-5.582031s21.394531 2.964844 30.511719 5.582031c7.921875 2.273438 15.398437 4.417969 22.238281 4.417969s14.320312-2.144531 22.238281-4.417969c9.121094-2.617187 19.453125-5.582031 30.511719-5.582031s21.394531 2.964844 30.511719 5.582031c7.921875 2.273438 15.398437 4.417969 22.238281 4.417969s14.320312-2.144531 22.238281-4.417969c9.121094-2.617187 19.453125-5.582031 30.511719-5.582031 5.144531 0 10.089844.460938 14.644531 1.121094 7.976563-13.050782 22.261719-21.371094 38.355469-21.371094 24.8125 0 45 20.1875 45 45 0 15.898438-8.535156 30.367188-21.582031 38.394531.738281 5.117188 1.082031 9.777344 1.082031 14.355469 0 11.058594-2.964844 21.394531-5.582031 30.511719-2.269531 7.917969-4.417969 15.398437-4.417969 22.238281s2.144531 14.320312 4.417969 22.238281c2.617187 9.121094 5.582031 19.453125 5.582031 30.511719s-2.964844 21.394531-5.582031 30.511719c-2.269531 7.917969-4.417969 15.398437-4.417969 22.238281s2.144531 14.320312 4.417969 22.238281c2.617187 9.121094 5.582031 19.453125 5.582031 30.511719s-2.964844 21.394531-5.582031 30.511719c-2.269531 7.917969-4.417969 15.398437-4.417969 22.238281s2.144531 14.320312 4.417969 22.238281c2.617187 9.121094 5.582031 19.453125 5.582031 30.511719 0 4.582031-.34375 9.242188-1.082031 14.355469 13.046875 8.027343 21.582031 22.496093 21.582031 38.394531 0 24.8125-20.1875 45-45 45zm0 0" fill="#fdbf00"/><path d="m490.417969 428.605469c.738281-5.117188 1.082031-9.777344 1.082031-14.355469 0-11.058594-2.964844-21.394531-5.582031-30.511719-2.269531-7.917969-4.417969-15.398437-4.417969-22.238281s2.144531-14.320312 4.417969-22.238281c2.617187-9.117188 5.582031-19.453125 5.582031-30.511719s-2.964844-21.394531-5.582031-30.511719c-2.269531-7.917969-4.417969-15.398437-4.417969-22.238281s2.144531-14.320312 4.417969-22.238281c2.617187-9.117188 5.582031-19.453125 5.582031-30.511719s-2.964844-21.394531-5.582031-30.511719c-2.269531-7.917969-4.417969-15.398437-4.417969-22.238281s2.144531-14.320312 4.417969-22.238281c2.617187-9.117188 5.582031-19.453125 5.582031-30.511719 0-4.578125-.34375-9.238281-1.082031-14.355469 13.046875-8.027343 21.582031-22.496093 21.582031-38.394531 0-24.8125-20.1875-45-45-45-16.09375 0-30.378906 8.320312-38.355469 21.371094-4.554687-.660156-9.5-1.121094-14.644531-1.121094-11.058594 0-21.394531 2.964844-30.511719 5.582031-7.917969 2.273438-15.398437 4.417969-22.238281 4.417969s-14.320312-2.144531-22.238281-4.417969c-9.117188-2.617187-19.453125-5.582031-30.511719-5.582031s-21.394531 2.964844-30.511719 5.582031c-7.765625 2.230469-15.109375 4.324219-21.839843 4.402344v451.53125c6.730468.082031 14.074218 2.175781 21.839843 4.40625 9.117188 2.613281 19.453125 5.582031 30.511719 5.582031s21.394531-2.96875 30.511719-5.582031c7.917969-2.273437 15.398437-4.417969 22.238281-4.417969s14.320312 2.144532 22.238281 4.417969c9.117188 2.613281 19.453125 5.582031 30.511719 5.582031 5.144531 0 10.089844-.460937 14.644531-1.125 7.976563 13.050782 22.261719 21.371094 38.355469 21.371094 24.8125 0 45-20.1875 45-45 0-15.898438-8.535156-30.367188-21.582031-38.394531zm0 0" fill="#ff9100"/><path d="m114.5 107.851562h287.097656v170.808594h-287.097656zm0 0" fill="#f5f0eb"/><path d="m256.148438 107.851562h145.449218v170.808594h-145.449218zm0 0" fill="#ebe1dc"/><path d="m401.339844 172.332031c-.441406.199219-.878906.417969-1.308594.664063l-140.636719 81.199218c-3.386719 1.953126-5.875 5.152344-6.9375 8.917969l-24.191406 85.773438c-1.398437 4.957031-.152344 10.289062 3.296875 14.117187 2.871094 3.183594 6.933594 4.953125 11.136719 4.953125.855469 0 1.714843-.070312 2.570312-.222656l156.070313-27.101563zm0 0" fill="#00aa95"/><path d="m114.679688 347.546875c-3.519532 0-6.957032-1.242187-9.6875-3.550781-3.367188-2.847656-5.3125-7.035156-5.3125-11.449219v-197.546875c0-6.070312 3.660156-11.539062 9.269531-13.859375 5.605469-2.320313 12.066406-1.03125 16.351562 3.265625l168.773438 169.1875c3.960937 3.972656 5.375 9.828125 3.664062 15.171875-1.710937 5.34375-6.265625 9.285156-11.800781 10.214844l-168.769531 28.355469c-.828125.140624-1.660157.210937-2.488281.210937zm0 0" fill="#00eccf"/><path d="m294.074219 293.59375-37.925781-38.015625v68.40625l29.789062-5.003906c5.535156-.929688 10.089844-4.871094 11.800781-10.214844 1.710938-5.34375.296875-11.199219-3.664062-15.171875zm0 0" fill="#00cab1"/><path d="m401.898438 415.296875h-291.796876c-8.058593 0-14.589843-6.53125-14.589843-14.589844v-80.710937c0-6.609375 4.441406-12.390625 10.828125-14.09375 3.457031-.921875 7.066406-2.222656 10.886718-3.59375 8.632813-3.109375 18.417969-6.625 29.347657-6.625 9.148437 0 16.902343 3.15625 23.742187 5.9375 4.78125 1.949218 9.300782 3.789062 12.734375 3.789062 3.4375 0 7.953125-1.839844 12.738281-3.789062 6.839844-2.78125 14.589844-5.9375 23.738282-5.9375 9.148437 0 16.898437 3.15625 23.738281 5.9375 4.785156 1.949218 9.300781 3.789062 12.734375 3.789062 3.4375 0 7.953125-1.839844 12.738281-3.789062 6.839844-2.78125 14.589844-5.9375 23.738281-5.9375 9.148438 0 16.898438 3.15625 23.738282 5.9375 4.78125 1.949218 9.300781 3.789062 12.734375 3.789062 3.4375 0 7.953125-1.839844 12.738281-3.789062 6.839844-2.78125 14.589844-5.9375 23.738281-5.9375 10.933594 0 20.71875 3.519531 29.351563 6.625 3.820312 1.375 7.425781 2.671875 10.882812 3.59375 6.386719 1.703125 10.832032 7.488281 10.832032 14.097656v80.710938c-.003907 8.054687-6.535157 14.585937-14.59375 14.585937zm0 0" fill="#00aadf"/><path d="m405.660156 305.902344c-3.457031-.921875-7.066406-2.222656-10.886718-3.59375-8.632813-3.109375-18.417969-6.625-29.347657-6.625-9.148437 0-16.902343 3.15625-23.742187 5.9375-4.78125 1.949218-9.296875 3.785156-12.734375 3.785156s-7.953125-1.835938-12.738281-3.785156c-6.839844-2.785156-14.589844-5.941406-23.734376-5.941406-9.148437 0-16.902343 3.15625-23.742187 5.941406-4.714844 1.921875-9.167969 3.726562-12.585937 3.777344v109.898437h145.75c8.058593 0 14.589843-6.53125 14.589843-14.589844v-80.710937c0-6.609375-4.441406-12.390625-10.828125-14.09375zm0 0" fill="#0079c2"/><path d="m406 421h-300c-8.285156 0-15-6.714844-15-15v-300c0-8.285156 6.714844-15 15-15h300c8.285156 0 15 6.714844 15 15v300c0 8.285156-6.714844 15-15 15zm-285-30h270v-270h-270zm0 0" fill="#fff36c"/><path d="m406 91h-149.851562v30h134.851562v270h-134.851562v30h149.851562c8.285156 0 15-6.714844 15-15v-300c0-8.285156-6.714844-15-15-15zm0 0" fill="#ffde46"/></svg>