<svg height="512pt" viewBox="0 0 512 512" width="512pt" xmlns="http://www.w3.org/2000/svg"><path d="m83.136719 269.183594c-6.703125 0-12.589844-4.441406-14.425781-10.890625l-68.132813-239.183594c-1.289063-4.527344-.382813-9.390625 2.453125-13.148437 2.835938-3.753907 7.269531-5.960938 11.972656-5.960938h113c4.242188 0 8.285156 1.796875 11.128906 4.945312l216.003907 239.171876c3.976562 4.398437 4.984375 10.726562 2.578125 16.140624-2.410156 5.417969-7.78125 8.910157-13.707032 8.910157zm0 0" fill="#fff36c"/><path d="m428.867188 269.183594c-.003907 0-.003907 0 0 0l-260.871094-.015625c-5.929688 0-11.300782-3.492188-13.707032-8.910157-2.40625-5.417968-1.398437-11.746093 2.574219-16.144531l216.003907-239.167969c2.84375-3.148437 6.890624-4.945312 11.132812-4.945312h113c4.703125 0 9.136719 2.207031 11.972656 5.960938 2.832032 3.757812 3.742188 8.621093 2.453125 13.148437l-68.132812 239.1875c-1.835938 6.445313-7.726563 10.886719-14.425781 10.886719zm0 0" fill="#ffcd00"/><path d="m357.714844 260.257812c2.40625-5.417968 1.394531-11.746093-2.578125-16.144531l-99.136719-109.769531-99.132812 109.769531c-3.976563 4.398438-4.984376 10.726563-2.578126 16.144531 2.40625 5.417969 7.78125 8.910157 13.707032 8.910157l88.003906.007812 88.007812-.007812c5.925782 0 11.296876-3.492188 13.707032-8.910157zm0 0" fill="#fdbf00"/><path d="m355.136719 244.113281-99.070313-109.695312v134.753906l87.941406-.003906c5.929688 0 11.300782-3.492188 13.707032-8.910157 2.40625-5.417968 1.394531-11.742187-2.578125-16.144531zm0 0" fill="#ff9100"/><path d="m497 479.359375h-482c-8.285156 0-15-6.71875-15-15v-210.363281c0-8.285156 6.714844-15 15-15h482c8.285156 0 15 6.714844 15 15v210.363281c0 8.285156-6.714844 15-15 15zm0 0" fill="#00347b"/><path d="m497 238.996094h-240.933594v240.363281h240.933594c8.285156 0 15-6.714844 15-15v-210.363281c0-8.285156-6.714844-15-15-15zm0 0" fill="#001737"/><path d="m192 415.804688v-54.59375c0-35.34375-28.652344-63.996094-64-63.996094-35.34375 0-63.996094 28.652344-63.996094 63.996094v54.597656c0 8.28125 6.714844 15 15 15h97.996094c8.28125-.003906 15-6.71875 15-15.003906zm0 0" fill="#ff637b"/><path d="m320 415.804688v-54.59375c0-35.34375-28.652344-63.996094-63.996094-63.996094s-64 28.652344-64 63.996094v54.597656c0 8.28125 6.71875 15 15 15h97.996094c8.285156-.003906 15-6.71875 15-15.003906zm0 0" fill="#ff193d"/><path d="m447.996094 415.804688v-54.59375c0-35.34375-28.652344-63.996094-63.996094-63.996094s-64 28.652344-64 63.996094v54.597656c0 8.28125 6.71875 15 15 15h97.996094c8.285156-.003906 15-6.71875 15-15.003906zm0 0" fill="#801926"/><path d="m256.066406 297.214844v133.589844h48.933594c8.285156 0 15-6.714844 15-15v-54.59375c0-35.324219-28.617188-63.960938-63.933594-63.996094zm0 0" fill="#be003b"/><path d="m128 496.996094v-54.59375c0-35.34375-28.652344-63.996094-64-63.996094-35.34375 0-63.99609375 28.652344-63.99609375 63.996094v54.597656c0 8.28125 6.71484375 14.996094 14.99999975 14.996094h97.996094c8.28125 0 15-6.714844 15-15zm0 0" fill="#ff3f5c"/><path d="m255.996094 496.996094v-54.59375c0-35.34375-28.65625-63.996094-64-63.996094s-63.996094 28.652344-63.996094 63.996094v54.597656c0 8.28125 6.714844 14.996094 15 14.996094h97.996094c8.28125 0 15-6.714844 15-15zm0 0" fill="#ff193d"/><path d="m383.996094 496.996094v-54.59375c0-35.34375-28.652344-63.996094-63.996094-63.996094-35.347656 0-64 28.652344-64 63.996094v54.597656c0 8.28125 6.714844 14.996094 15 14.996094h97.996094c8.285156 0 15-6.714844 15-15zm0 0" fill="#ea0016"/><path d="m511.992188 496.996094v-54.59375c0-35.34375-28.652344-63.996094-63.996094-63.996094-35.347656 0-64 28.652344-64 63.996094v54.597656c0 8.28125 6.714844 14.996094 15 14.996094h97.996094c8.285156 0 15-6.714844 15-15zm0 0" fill="#c30010"/></svg>