<svg height="512pt" viewBox="0 0 512.0007 512" width="512pt" xmlns="http://www.w3.org/2000/svg"><path d="m211.792969 511.503906h-196.808594c-4.488281 0-8.742187-2.011718-11.589844-5.484375-2.84375-3.472656-3.984375-8.039062-3.101562-12.4375l50.949219-254.753906c1.339843-6.703125 7.046874-11.648437 13.871093-12.023437l90.910157-4.996094c7.363281-.402344 13.957031 4.628906 15.484374 11.859375l54.949219 259.75c.933594 4.421875-.175781 9.027343-3.019531 12.539062-2.847656 3.507813-7.125 5.546875-11.644531 5.546875zm0 0" fill="#ffde46"/><path d="m496.511719 89.914062h-54.800781l44.460937-59.941406h10.339844c8.277343 0 14.988281-6.710937 14.988281-14.988281 0-8.273437-6.710938-14.984375-14.988281-14.984375h-481.527344c-8.273437 0-14.984375 6.710938-14.984375 14.984375 0 8.277344 6.710938 14.988281 14.984375 14.988281h56.75l-44.460937 59.941406h-12.289063c-8.273437 0-14.984375 6.707032-14.984375 14.984376 0 8.277343 6.710938 14.984374 14.984375 14.984374h481.527344c8.277343 0 14.984375-6.707031 14.984375-14.984374 0-8.277344-6.707032-14.984376-14.984375-14.984376zm-237.113281 0h-70.226563l35.273437-47.554687zm-6.863282-59.941406h69.425782l-34.871094 47.011719zm97.554688 12.386719 34.953125 47.554687h-70.226563zm63.265625 35.472656-35.175781-47.859375h70.675781zm-217.039063-47.859375-34.335937 46.292969-34.027344-46.292969zm-96.453125 12.386719 34.953125 47.554687h-70.226562zm0 0" fill="#f5f0eb"/><path d="m156.847656 251.257812h-89.914062c-8.273438 0-14.984375-6.710937-14.984375-14.988281v-59.441406c0-33.050781 26.890625-59.941406 59.941406-59.941406s59.941406 26.890625 59.941406 59.941406v59.441406c0 8.277344-6.707031 14.988281-14.984375 14.988281zm0 0" fill="#00347b"/><path d="m111.890625 296.710938c-33.050781 0-59.941406-26.886719-59.941406-59.941407 0-33.050781 26.890625-59.941406 59.941406-59.941406 33.054687 0 59.941406 26.890625 59.941406 59.941406 0 33.054688-26.886719 59.941407-59.941406 59.941407zm0 0" fill="#fff36c"/><path d="m497.015625 511.503906h-196.808594c-4.492187 0-8.742187-2.011718-11.589843-5.484375-2.847657-3.472656-3.984376-8.039062-3.105469-12.4375l50.949219-254.753906c1.339843-6.703125 7.046874-11.648437 13.871093-12.023437l90.914063-4.996094c7.363281-.402344 13.953125 4.628906 15.480468 11.859375l54.949219 259.75c.9375 4.421875-.175781 9.027343-3.019531 12.539062-2.84375 3.507813-7.121094 5.546875-11.640625 5.546875zm0 0" fill="#ffcd00"/><path d="m442.066406 251.257812h-89.910156c-8.277344 0-14.988281-6.710937-14.988281-14.988281v-59.441406c0-33.050781 26.890625-59.941406 59.941406-59.941406 33.054687 0 59.941406 26.890625 59.941406 59.941406v59.441406c0 8.277344-6.707031 14.988281-14.984375 14.988281zm0 0" fill="#001737"/><path d="m397.109375 296.710938c-33.050781 0-59.941406-26.886719-59.941406-59.941407 0-33.050781 26.890625-59.941406 59.941406-59.941406 33.054687 0 59.945313 26.890625 59.945313 59.941406 0 33.054688-26.890626 59.941407-59.945313 59.941407zm0 0" fill="#ffde46"/><path d="m496.511719 89.914062h-54.800781l44.460937-59.941406h10.339844c8.277343 0 14.988281-6.710937 14.988281-14.988281 0-8.273437-6.710938-14.984375-14.988281-14.984375h-240.445313v29.972656h65.894532l-34.871094 47.011719-31.019532-42.203125v50.601562l3.328126 4.527344h-3.328126v29.972656h240.441407c8.277343 0 14.988281-6.710937 14.988281-14.984374 0-8.277344-6.710938-14.984376-14.988281-14.984376zm-181.695313 0 35.273438-47.554687 34.953125 47.554687zm63.363282-59.941406h70.675781l-35.5 47.859375zm0 0" fill="#ebe1dc"/></svg>