<svg height="512pt" viewBox="0 0 512 512" width="512pt" xmlns="http://www.w3.org/2000/svg"><g fill-rule="evenodd"><path d="m437 512h-45l-130.257812-17-141.742188 17h-45v-511.894531h45l136.003906 24.53125 135.996094-24.53125h45zm0 0" fill="#00347b"/><path d="m392 .105469-135.933594 24.519531v471.054688l5.675782-.679688 130.257812 17h45v-511.894531zm0 0" fill="#001737"/><path d="m15.136719 15.089844h55.480469v482.035156h-55.480469zm0 0" fill="#00aadf"/><path d="m439.257812 15.089844h55.480469v482.035156h-55.480469zm0 0" fill="#0079c2"/></g><path d="m362 376.054688h-212c-16.570312 0-30-13.433594-30-30v-180c0-16.570313 13.429688-30 30-30h212c16.566406 0 30 13.429687 30 30v180c0 16.566406-13.433594 30-30 30zm0 0" fill="#f5f0eb"/><path d="m90 .105469h-75c-8.285156 0-15 6.714843-15 15v481.894531c0 8.285156 6.714844 15 15 15h75zm-30 121h-30v-30h30zm0 60h-30v-30h30zm0 60h-30v-30h30zm0 60h-30v-30h30zm0 60h-30v-30h30zm-30 30h30v30h-30zm30-361v31h-30v-31zm0 451.894531h-30v-30.894531h30zm0 0" fill="#00429d"/><path d="m497 .105469h-75v511.894531h75c8.28125 0 15-6.714844 15-15v-481.894531c0-8.285157-6.71875-15-15-15zm-15 121h-30v-30h30zm0 60h-30v-30h30zm0 60h-30v-30h30zm0 60h-30v-30h30zm0 60h-30v-30h30zm-30 30h30v30h-30zm30-361v31h-30v-31zm0 451.894531h-30v-30.894531h30zm0 0" fill="#00347b"/><path d="m392 512h-272v-75.894531c0-16.570313 13.429688-30 30-30h212c16.566406 0 30 13.429687 30 30zm0 0" fill="#f5f0eb"/><path d="m362 106.105469h-212c-16.570312 0-30-13.429688-30-30v-76.105469h272v76.105469c0 16.570312-13.433594 30-30 30zm0 0" fill="#f5f0eb"/><path d="m256.066406 0v106.105469h105.933594c16.566406 0 30-13.429688 30-30v-76.105469zm0 0" fill="#ebe1dc"/><path d="m362 136.054688h-105.933594v240h105.933594c16.566406 0 30-13.433594 30-30v-180c0-16.570313-13.433594-30-30-30zm0 0" fill="#ebe1dc"/><path d="m363.019531 406.105469h-105.933593v105.894531h135.933593v-75.894531c0-16.570313-13.429687-30-30-30zm0 0" fill="#ebe1dc"/></svg>