<svg height="512pt" viewBox="-41 0 512 512.001" width="512pt" xmlns="http://www.w3.org/2000/svg"><path d="m144.375 87.992188c-8.285156 0-15-6.714844-15-14.996094v-57.996094c0-8.285156 6.714844-15 15-15s15 6.714844 15 15v57.996094c0 8.285156-6.714844 14.996094-15 14.996094zm0 0" fill="#be003b"/><path d="m286.367188 87.992188c-8.285157 0-15-6.714844-15-14.996094v-57.996094c0-8.285156 6.714843-15 15-15 8.28125 0 14.996093 6.714844 14.996093 15v57.996094c0 8.285156-6.714843 14.996094-14.996093 14.996094zm0 0" fill="#97002c"/><path d="m288.371094 214.984375h-145.984375c-6.988281 0-13.054688-4.828125-14.617188-11.636719-3.0625-13.3125-21.101562-92.042968-21.101562-92.042968-3.539063-15.425782 1.910156-31.179688 14.214843-41.121094 12.316407-9.949219 28.867188-11.941406 43.1875-5.199219 9.417969 4.433594 17.082032 9.195313 23.839844 13.394531 12.117188 7.527344 18.839844 11.453125 27.457032 11.453125 8.621093 0 15.34375-3.925781 27.460937-11.453125 6.761719-4.199218 14.425781-8.957031 23.84375-13.390625 14.328125-6.742187 30.878906-4.746093 43.195313 5.210938 12.304687 9.941406 17.746093 25.707031 14.199218 41.132812l-21.078125 92c-1.558593 6.820313-7.625 11.652344-14.617187 11.652344zm0 0" fill="#ff193d"/><path d="m309.867188 70.199219c-12.316407-9.957031-28.867188-11.949219-43.191407-5.210938-9.421875 4.433594-17.085937 9.195313-23.84375 13.394531-12.121093 7.523438-18.84375 11.453126-27.464843 11.453126v125.148437h73.003906c6.996094 0 13.058594-4.832031 14.621094-11.648437l21.078124-92.003907c3.542969-15.425781-1.898437-31.1875-14.203124-41.132812zm0 0" fill="#be003b"/><path d="m245.082031 512c-11.628906 0-22.917969-3.820312-32.117187-10.863281-10.613282 8.03125-23.949219 11.800781-37.351563 10.421875-13.433593-1.382813-25.75-7.808594-34.511719-17.863282-12.496093 5.835938-26.792968 6.5625-39.984374 1.894532-12.867188-4.554688-23.328126-13.753906-29.457032-25.703125-7.039062 2.667969-14.597656 3.804687-22.179687 3.3125-29.117188-1.898438-51.261719-27.128907-49.367188-56.246094.515625-7.914063 2.726563-15.425781 6.574219-22.324219.066406-.113281.128906-.222656.195312-.335937l121.0625-171.949219c2.703126-4.5625 7.609376-7.359375 12.90625-7.359375h.003907l150.046875 1.5625c5.351562 0 10.300781 2.851563 12.980468 7.484375l119.085938 175.046875c5.722656 9.347656 8.371094 20.074219 7.65625 31.039063-1.824219 27.953124-25.148438 49.480468-52.769531 49.480468-1.152344 0-2.308594-.039062-3.476563-.113281-6.292968-.410156-12.492187-1.957031-18.226562-4.523437-10.035156 17.007812-29 27.257812-49.042969 25.953124-7.917969-.515624-15.574219-2.789062-22.429687-6.628906-8.796876 9.875-21.058594 16.152344-34.40625 17.460938-1.734376.167968-3.464844.253906-5.191407.253906zm0 0" fill="#ff193d"/><path d="m422.972656 399.078125-119.085937-175.046875c-2.683594-4.632812-7.628907-7.484375-12.980469-7.484375l-75.539062-.785156v287.097656c8.730468 5.9375 19.078124 9.140625 29.714843 9.140625 1.726563 0 3.457031-.082031 5.195313-.253906 13.347656-1.308594 25.609375-7.585938 34.40625-17.460938 6.851562 3.839844 14.507812 6.113282 22.425781 6.628906 20.042969 1.304688 39.007813-8.941406 49.042969-25.949218 5.734375 2.566406 11.933594 4.113281 18.230468 4.519531 1.164063.078125 2.320313.113281 3.472657.113281 27.621093 0 50.949219-21.527344 52.769531-49.476562.714844-10.96875-1.929688-21.695313-7.652344-31.042969zm0 0" fill="#be003b"/><path d="m158.058594 506.589844c5.460937 2.625 11.386718 4.335937 17.554687 4.96875 9.855469 1.015625 19.671875-.765625 28.398438-4.96875zm0 0" fill="#be003b"/><path d="m125.925781 195.25h178.882813v30h-178.882813zm0 0" fill="#fdbf00"/><path d="m215.449219 195.25h89.359375v30h-89.359375zm0 0" fill="#ff9100"/></svg>