<svg height="512pt" viewBox="0 0 512 512" width="512pt" xmlns="http://www.w3.org/2000/svg"><path d="m466 512h-420c-8.285156 0-15-6.714844-15-15v-114c0-8.285156 6.714844-15 15-15h420c8.285156 0 15 6.714844 15 15v114c0 8.285156-6.714844 15-15 15zm0 0" fill="#fff4f4"/><path d="m466 368h-210.019531v144h210.019531c8.285156 0 15-6.714844 15-15v-114c0-8.285156-6.714844-15-15-15zm0 0" fill="#ebe1dc"/><g fill="#00347b"><path d="m106 465.910156c-8.285156 0-15-6.714844-15-15v-56.5c0-8.285156 6.714844-15 15-15s15 6.714844 15 15v56.5c0 8.285156-6.714844 15-15 15zm0 0"/><path d="m166 465.910156c-8.285156 0-15-6.714844-15-15v-56.5c0-8.285156 6.714844-15 15-15s15 6.714844 15 15v56.5c0 8.285156-6.714844 15-15 15zm0 0"/><path d="m226 465.910156c-8.28125 0-15-6.714844-15-15v-56.5c0-8.285156 6.71875-15 15-15 8.285156 0 15 6.714844 15 15v56.5c0 8.285156-6.714844 15-15 15zm0 0"/></g><path d="m286 465.910156c-8.28125 0-15-6.714844-15-15v-56.5c0-8.285156 6.71875-15 15-15 8.285156 0 15 6.714844 15 15v56.5c0 8.285156-6.714844 15-15 15zm0 0" fill="#001737"/><path d="m346 465.910156c-8.28125 0-15-6.714844-15-15v-56.5c0-8.285156 6.71875-15 15-15 8.285156 0 15 6.714844 15 15v56.5c0 8.285156-6.714844 15-15 15zm0 0" fill="#001737"/><path d="m406 465.910156c-8.28125 0-15-6.714844-15-15v-56.5c0-8.285156 6.71875-15 15-15 8.285156 0 15 6.714844 15 15v56.5c0 8.285156-6.714844 15-15 15zm0 0" fill="#001737"/><path d="m497 398h-482c-8.285156 0-15-6.714844-15-15v-216.5c0-44.304688 17.363281-86.070312 48.894531-117.601562s73.296875-48.898438 117.605469-48.898438c39.382812 0 77.660156 14.140625 107.777344 39.820312 29.761718 25.375 49.765625 60.371094 56.328125 98.546876 6.039062 35.132812 36.296875 60.632812 71.941406 60.632812h12.453125c53.484375 0 97 43.515625 97 97v87c0 8.285156-6.714844 15-15 15zm0 0" fill="#00429d"/><path d="m415 199h-12.453125c-35.644531 0-65.898437-25.5-71.941406-60.632812-6.5625-38.175782-26.566407-73.171876-56.328125-98.546876-5.808594-4.953124-11.929688-9.472656-18.296875-13.550781v371.730469h241.019531c8.285156 0 15-6.714844 15-15v-87c0-53.484375-43.515625-97-97-97zm0 0" fill="#00347b"/></svg>