<svg height="512pt" viewBox="0 -56 512 512" width="512pt" xmlns="http://www.w3.org/2000/svg"><g fill="#ebe1dc"><path d="m497.003906 187.117188h-481.929687c-8.28125 0-14.996094-6.714844-14.996094-15 0-8.28125 6.714844-14.996094 14.996094-14.996094h481.929687c8.28125 0 14.996094 6.714844 14.996094 14.996094 0 8.285156-6.714844 15-14.996094 15zm0 0"/><path d="m497.003906 307.097656h-481.929687c-8.28125 0-14.996094-6.714844-14.996094-14.996094 0-8.285156 6.714844-15 14.996094-15h481.929687c8.28125 0 14.996094 6.714844 14.996094 15 0 8.28125-6.714844 14.996094-14.996094 14.996094zm0 0"/><path d="m496.925781 127.125h-481.929687c-8.28125 0-14.996094-6.714844-14.996094-15 0-8.28125 6.714844-14.996094 14.996094-14.996094h481.929687c8.28125 0 14.996094 6.714844 14.996094 14.996094 0 8.285156-6.714844 15-14.996094 15zm0 0"/><path d="m496.925781 247.105469h-481.929687c-8.28125 0-14.996094-6.714844-14.996094-14.996094s6.714844-14.996094 14.996094-14.996094h481.929687c8.28125 0 14.996094 6.714844 14.996094 14.996094s-6.714844 14.996094-14.996094 14.996094zm0 0"/></g><path d="m496.925781 97.128906h-240.964843v29.996094h240.964843c8.28125 0 14.996094-6.714844 14.996094-15 0-8.28125-6.714844-14.996094-14.996094-14.996094zm0 0" fill="#dcd2cd"/><path d="m497.003906 157.121094h-241.042968v29.996094h241.042968c8.28125 0 14.996094-6.714844 14.996094-15 0-8.28125-6.714844-14.996094-14.996094-14.996094zm0 0" fill="#dcd2cd"/><path d="m496.925781 217.113281h-240.964843v29.992188h240.964843c8.28125 0 14.996094-6.714844 14.996094-14.996094s-6.714844-14.996094-14.996094-14.996094zm0 0" fill="#dcd2cd"/><path d="m497.003906 277.101562h-241.042968v29.996094h241.042968c8.28125 0 14.996094-6.714844 14.996094-14.996094 0-8.285156-6.714844-15-14.996094-15zm0 0" fill="#dcd2cd"/><path d="m321.832031 374.613281c-8.285156 0-15-6.714843-15-15v-161c0-6.785156 4.554688-12.722656 11.109375-14.484375l135.832032-36.492187c4.503906-1.210938 9.316406-.257813 13.019531 2.582031s5.871093 7.238281 5.871093 11.902344v156.320312c0 8.285156-6.714843 15-14.996093 15-8.285157 0-15-6.714844-15-15v-136.761718l-105.839844 28.433593v149.5c0 8.285157-6.714844 15-14.996094 15zm0 0" fill="#97002c"/><path d="m146.238281 173.042969c-8.28125 0-14.996093-6.714844-14.996093-15v-143.042969c0-5.347656 2.84375-10.289062 7.46875-12.972656s10.328124-2.703125 14.96875-.050782l45.308593 25.890626c7.191407 4.109374 9.691407 13.269531 5.582031 20.460937-4.109374 7.191406-13.269531 9.691406-20.464843 5.582031l-22.867188-13.070312v117.203125c0 8.285156-6.71875 15-15 15zm0 0" fill="#00cab1"/><path d="m112.496094 211.878906c-26.878906 0-48.742188-21.867187-48.742188-48.742187 0-26.878907 21.863282-48.742188 48.742188-48.742188 26.875 0 48.742187 21.863281 48.742187 48.742188 0 26.875-21.867187 48.742187-48.742187 48.742187zm0 0" fill="#00eccf"/><path d="m297.679688 400.648438c-21.585938 0-39.148438-17.5625-39.148438-39.148438 0-21.589844 17.5625-39.152344 39.148438-39.152344 21.585937 0 39.148437 17.5625 39.148437 39.152344 0 21.585938-17.5625 39.148438-39.148437 39.148438zm0 0" fill="#be003b"/><path d="m433.515625 359.800781c-21.585937 0-39.148437-17.558593-39.148437-39.148437 0-21.585938 17.5625-39.148438 39.148437-39.148438s39.148437 17.5625 39.148437 39.148438c0 21.589844-17.5625 39.148437-39.148437 39.148437zm0 0" fill="#be003b"/></svg>