<svg height="512pt" viewBox="0 -14 512.00037 512" width="512pt" xmlns="http://www.w3.org/2000/svg"><path d="m450.921875 270.238281c-8.320313 0-15.066406-6.742187-15.066406-15.0625v-83.925781c0-4.652344 2.152343-9.046875 5.832031-11.898438 3.675781-2.855468 8.464844-3.847656 12.972656-2.691406l46.011719 11.796875c8.058594 2.066407 12.917969 10.273438 10.851563 18.332031-2.066407 8.0625-10.273438 12.921876-18.332032 10.851563l-27.207031-6.976563v64.511719c0 8.320313-6.746094 15.0625-15.0625 15.0625zm0 0" fill="#97002c"/><path d="m376.601562 114.054688c-8.316406 0-15.0625-6.746094-15.0625-15.066407v-83.921875c0-4.65625 2.152344-9.046875 5.832032-11.902344 3.675781-2.855468 8.464844-3.847656 12.972656-2.691406l46.011719 11.800782c8.058593 2.066406 12.917969 10.273437 10.851562 18.332031-2.066406 8.058593-10.273437 12.917969-18.332031 10.847656l-27.207031-6.972656v64.507812c0 8.320313-6.746094 15.066407-15.066407 15.066407zm0 0" fill="#00aa95"/><path d="m241.027344 483.582031h-210.898438c-16.640625 0-30.128906-13.488281-30.128906-30.128906v-391.667969c0-16.640625 13.488281-30.128906 30.128906-30.128906h210.898438c16.640625 0 30.128906 13.488281 30.128906 30.128906v391.667969c0 16.640625-13.488281 30.128906-30.128906 30.128906zm0 0" fill="#00aadf"/><path d="m241.027344 31.65625h-105.449219v451.925781h105.449219c16.640625 0 30.128906-13.488281 30.128906-30.128906v-391.667969c0-16.640625-13.488281-30.128906-30.128906-30.128906zm0 0" fill="#0079c2"/><path d="m351.429688 143.902344c-22.1875 0-40.238282-18.050782-40.238282-40.242188 0-22.1875 18.050782-40.238281 40.238282-40.238281s40.238281 18.050781 40.238281 40.238281c0 22.191406-18.050781 40.242188-40.238281 40.242188zm0 0" fill="#00cab1"/><path d="m425.746094 295.59375c-22.1875 0-40.238282-18.050781-40.238282-40.238281s18.050782-40.242188 40.238282-40.242188 40.238281 18.054688 40.238281 40.242188-18.050781 40.238281-40.238281 40.238281zm0 0" fill="#be003b"/><path d="m135.578125 171.285156c19.089844 0 34.664063-15.570312 34.664063-34.664062s-15.574219-34.664063-34.664063-34.664063c-19.09375 0-34.664063 15.570313-34.664063 34.664063s15.570313 34.664062 34.664063 34.664062zm0 0" fill="#f5f0eb" fill-rule="evenodd"/><path d="m135.578125 186.351562c-27.421875 0-49.730469-22.308593-49.730469-49.730468s22.308594-49.730469 49.730469-49.730469c27.417969 0 49.730469 22.308594 49.730469 49.730469s-22.3125 49.730468-49.730469 49.730468zm0-69.332031c-10.808594 0-19.601563 8.792969-19.601563 19.601563s8.792969 19.601562 19.601563 19.601562 19.601563-8.792968 19.601563-19.601562-8.792969-19.601563-19.601563-19.601563zm0 0" fill="#ffde46"/><path d="m135.578125 429.703125c38.183594 0 69.328125-31.144531 69.328125-69.328125s-31.144531-69.328125-69.328125-69.328125c-38.1875 0-69.328125 31.144531-69.328125 69.328125 0 38.1875 31.140625 69.328125 69.328125 69.328125zm0 0" fill="#f5f0eb" fill-rule="evenodd"/><path d="m135.578125 444.769531c-46.535156 0-84.394531-37.859375-84.394531-84.394531s37.859375-84.394531 84.394531-84.394531 84.390625 37.859375 84.390625 84.394531-37.855469 84.394531-84.390625 84.394531zm0-138.660156c-29.921875 0-54.265625 24.34375-54.265625 54.265625s24.34375 54.265625 54.265625 54.265625 54.265625-24.34375 54.265625-54.265625-24.34375-54.265625-54.265625-54.265625zm0 0" fill="#ffde46"/><g fill-rule="evenodd"><path d="m135.578125 291.046875v138.65625c38.183594 0 69.328125-31.144531 69.328125-69.328125s-31.144531-69.328125-69.328125-69.328125zm0 0" fill="#ebe1dc"/><path d="m135.578125 377.707031c9.546875 0 17.332031-7.785156 17.332031-17.332031s-7.785156-17.332031-17.332031-17.332031-17.332031 7.785156-17.332031 17.332031 7.785156 17.332031 17.332031 17.332031zm0 0" fill="#fdbf00"/><path d="m135.578125 101.957031v69.328125c19.089844 0 34.664063-15.570312 34.664063-34.664062s-15.570313-34.664063-34.664063-34.664063zm0 0" fill="#ebe1dc"/></g><path d="m135.578125 86.890625v30.128906c10.804687 0 19.597656 8.792969 19.597656 19.601563s-8.792969 19.601562-19.597656 19.601562v30.128906c27.417969 0 49.726563-22.3125 49.726563-49.730468 0-27.417969-22.308594-49.730469-49.726563-49.730469zm0 0" fill="#ffcd00"/><path d="m135.578125 343.042969v34.664062c9.546875 0 17.332031-7.785156 17.332031-17.332031s-7.785156-17.332031-17.332031-17.332031zm0 0" fill="#ff9100" fill-rule="evenodd"/><path d="m135.578125 275.980469v30.128906c29.921875 0 54.265625 24.34375 54.265625 54.265625s-24.34375 54.265625-54.265625 54.265625v30.128906c46.535156 0 84.390625-37.859375 84.390625-84.394531s-37.855469-84.394531-84.390625-84.394531zm0 0" fill="#ffcd00"/></svg>