<svg height="511pt" viewBox="0 -16 511.99931 511" width="511pt" xmlns="http://www.w3.org/2000/svg"><path d="m479.410156 74.890625c-24.734375-26.167969-63.234375-47.808594-108.414062-60.941406-43.746094-12.714844-90.1875-16.582031-130.765625-10.886719-64.144531 9.003906-123.453125 36.070312-167 76.214844-48.894531 45.082031-74.207031 102.664062-73.2031252 166.519531 1.0273442 65.238281 28.1484372 124.976563 76.3632812 168.214844 47.285156 42.398437 111.128906 65.75 179.773437 65.75 42.976563 0 81.296876-9.175781 110.820313-26.535157 29.414063-17.296874 49.054687-42.507812 55.304687-70.980468 7.859376-35.816406-11.308593-63.128906-26.710937-85.074219-14.214844-20.253906-19.882813-30.050781-14.519531-38.902344 5.3125-8.769531 24.835937-14.921875 43.714844-20.871093 34.191406-10.777344 76.742187-24.1875 85.238281-67.03125 6.765625-34.125-3.816407-67.136719-30.601563-95.476563zm-216.804687 346.570313c-.320313.003906-.644531.007812-.96875.007812-22.992188 0-43.917969-7.792969-57.53125-21.453125-9.582031-9.613281-14.769531-21.734375-14.609375-34.128906.40625-31.179688 32.859375-55.910157 73.886718-56.300781 23.386719-.195313 44.699219 7.597656 58.503907 21.449218 9.578125 9.613282 14.769531 21.734375 14.605469 34.128906-.402344 31.179688-32.859376 55.90625-73.886719 56.296876zm0 0" fill="#f5f0eb"/><path d="m479.410156 74.890625c-24.734375-26.167969-63.234375-47.808594-108.414062-60.941406-38.175782-11.097657-78.402344-15.449219-114.996094-12.59375v308.570312c2.425781-.199219 4.886719-.316406 7.382812-.339843 23.386719-.195313 44.699219 7.597656 58.503907 21.449218 9.578125 9.613282 14.765625 21.734375 14.605469 34.128906-.40625 31.179688-32.859376 55.90625-73.886719 56.296876-.324219.003906-.648438.007812-.96875.007812-1.898438 0-3.773438-.074219-5.636719-.179688v58.472657h.160156c42.980469 0 81.300782-9.175781 110.820313-26.535157 29.414062-17.296874 49.054687-42.507812 55.304687-70.980468 7.863282-35.816406-11.308594-63.128906-26.710937-85.074219-14.214844-20.253906-19.882813-30.050781-14.519531-38.902344 5.316406-8.769531 24.835937-14.921875 43.71875-20.871093 34.191406-10.777344 76.742187-24.1875 85.234374-67.03125 6.769532-34.125-3.8125-67.136719-30.597656-95.476563zm0 0" fill="#ebe1dc"/><path d="m379.605469 177.140625c-24.828125 0-45.023438-20.199219-45.023438-45.023437 0-24.828126 20.195313-45.023438 45.023438-45.023438 24.824219 0 45.023437 20.195312 45.023437 45.023438 0 24.824218-20.199218 45.023437-45.023437 45.023437zm0 0" fill="#0079c2"/><path d="m265.453125 141.433594c-24.824219 0-45.023437-20.199219-45.023437-45.027344 0-24.824219 20.199218-45.023438 45.023437-45.023438 24.828125 0 45.023437 20.199219 45.023437 45.023438 0 24.828125-20.195312 45.027344-45.023437 45.027344zm0 0" fill="#00eccf"/><path d="m150.652344 179.582031c-24.824219 0-45.023438-20.195312-45.023438-45.023437 0-24.824219 20.199219-45.023438 45.023438-45.023438 24.828125 0 45.027344 20.199219 45.027344 45.023438 0 24.828125-20.199219 45.023437-45.027344 45.023437zm0 0" fill="#ff193d"/><path d="m99.078125 288.363281c-24.824219 0-45.023437-20.199219-45.023437-45.027343 0-24.824219 20.199218-45.023438 45.023437-45.023438 24.828125 0 45.027344 20.199219 45.027344 45.023438 0 24.828124-20.199219 45.027343-45.027344 45.027343zm0 0" fill="#ffcd00"/><path d="m265.453125 51.382812c-3.242187 0-6.402344.351563-9.453125 1.007813v88.035156c3.050781.652344 6.210938 1.007813 9.453125 1.007813 24.828125 0 45.023437-20.199219 45.023437-45.027344 0-24.824219-20.195312-45.023438-45.023437-45.023438zm0 0" fill="#00cab1"/></svg>