<svg height="512pt" viewBox="0 0 512 512.00068" width="512pt" xmlns="http://www.w3.org/2000/svg"><path d="m31.578125 426.210938c-2.957031 0-5.875-.875-8.375-2.554688-3.511719-2.363281-5.863281-6.101562-6.472656-10.289062-5.714844-39.339844-4.941407-79.019532 2.296875-117.933594 7.492187-40.265625 21.769531-78.828125 42.429687-114.613282 39.746094-68.84375 99.375-121.507812 172.441407-152.300781 35.136718-14.804687 72.207031-23.957031 110.183593-27.199219 38.519531-3.292968 77.046875-.417968 114.511719 8.546876 4.046875.96875 7.511719 3.578124 9.5625 7.199218 2.050781 3.625 2.503906 7.9375 1.25 11.90625-18.796875 59.492188-49.605469 116.910156-91.570312 170.664063-3.238282 4.144531-8.410157 6.300781-13.636719 5.660156l-32.8125-3.996094 13.9375 18.554688c4.347656 5.789062 3.941406 13.859375-.96875 19.179687-22.421875 24.300782-47.128907 47.265625-73.445313 68.257813-71.582031 57.097656-153.097656 98.070312-235.738281 118.480469-1.1875.292968-2.394531.4375-3.59375.4375zm0 0" fill="#f5f0eb"/><path d="m468.15625 17.070312c-2.050781-3.625-5.515625-6.234374-9.5625-7.203124-37.464844-8.960938-75.992188-11.839844-114.511719-8.546876-34.789062 2.972657-68.8125 10.917969-101.292969 23.609376v303.597656c9.527344-6.808594 18.90625-13.886719 28.121094-21.234375 26.3125-20.992188 51.023438-43.957031 73.445313-68.257813 4.910156-5.320312 5.316406-13.390625.96875-19.179687l-13.9375-18.554688 32.8125 3.996094c5.226562.640625 10.398437-1.515625 13.636719-5.660156 41.964843-53.753907 72.773437-111.171875 91.570312-170.664063 1.253906-3.96875.800781-8.28125-1.25-11.902344zm0 0" fill="#ebe1dc"/><path d="m15.019531 511.925781c-.941406 0-1.894531-.089843-2.851562-.273437-8.136719-1.566406-13.460938-9.429688-11.894531-17.566406 12.867187-66.820313 37.320312-131.753907 72.679687-193 40.941406-70.914063 95.1875-133.398438 156.871094-180.703126 62.035156-47.574218 130.625-79.050781 198.351562-91.019531 8.160157-1.445312 15.9375 4.003907 17.382813 12.160157 1.441406 8.15625-4.003906 15.9375-12.160156 17.382812-129.6875 22.921875-254.722657 119.0625-334.464844 257.179688-33.210938 57.523437-57.140625 121.035156-69.199219 183.671874-1.382813 7.175782-7.667969 12.167969-14.714844 12.167969zm0 0" fill="#ebe1dc"/><path d="m497 512h-67c-8.28125 0-15-6.714844-15-15 0-8.28125 6.71875-15 15-15h67c8.285156 0 15 6.71875 15 15 0 8.285156-6.714844 15-15 15zm0 0" fill="#0079c2"/><path d="m370 512h-294.992188c-8.285156 0-15-6.714844-15-15 0-8.28125 6.714844-15 15-15h294.992188c8.285156 0 15 6.71875 15 15 0 8.285156-6.714844 15-15 15zm0 0" fill="#00aadf"/><path d="m445.558594 41.523438c-1.441406-8.15625-9.21875-13.605469-17.382813-12.160157-63.042969 11.140625-126.828125 39.191407-185.386719 81.386719v37.167969c58.640626-46.15625 124.007813-77.242188 190.609376-89.011719 8.15625-1.445312 13.601562-9.226562 12.160156-17.382812zm0 0" fill="#dcd2cd"/><path d="m370 482h-127.210938v30h127.210938c8.285156 0 15-6.714844 15-15 0-8.28125-6.714844-15-15-15zm0 0" fill="#0079c2"/></svg>