<svg height="512pt" viewBox="-65 0 512 512" width="512pt" xmlns="http://www.w3.org/2000/svg"><path d="m191 480c-8.28125 0-15-6.71875-15-15v-114.933594c0-8.285156 6.71875-15 15-15 8.285156 0 15 6.714844 15 15v114.933594c0 8.28125-6.714844 15-15 15zm0 0" fill="#fdbf00"/><path d="m14.988281 512c-2.546875 0-5.125-.648438-7.484375-2.011719-7.175781-4.140625-9.632812-13.316406-5.492187-20.488281l86.953125-150.609375c4.144531-7.175781 13.316406-9.636719 20.492187-5.492187 7.171875 4.140624 9.632813 13.316406 5.488281 20.488281l-86.953124 150.609375c-2.777344 4.8125-7.820313 7.503906-13.003907 7.503906zm0 0" fill="#fdbf00"/><path d="m367.011719 512c-5.183594 0-10.222657-2.6875-13.003907-7.503906l-86.953124-150.609375c-4.144532-7.171875-1.683594-16.347657 5.492187-20.488281 7.171875-4.144532 16.347656-1.6875 20.488281 5.492187l86.953125 150.609375c4.144531 7.171875 1.6875 16.347656-5.488281 20.488281-2.363281 1.363281-4.941406 2.011719-7.488281 2.011719zm0 0" fill="#ff9100"/><path d="m191 73c-8.28125 0-15-6.714844-15-15v-43c0-8.285156 6.71875-15 15-15 8.285156 0 15 6.714844 15 15v43c0 8.285156-6.714844 15-15 15zm0 0" fill="#fdbf00"/><path d="m191 0v73c8.285156 0 15-6.714844 15-15v-43c0-8.285156-6.714844-15-15-15zm0 0" fill="#ff9100"/><path d="m332 359h-282c-8.28125 0-15-6.71875-15-15v-279c0-8.285156 6.71875-15 15-15h282c8.285156 0 15 6.714844 15 15v279c0 8.28125-6.714844 15-15 15zm0 0" fill="#f5f0eb"/><path d="m332 50h-141v309h141c8.285156 0 15-6.71875 15-15v-279c0-8.285156-6.714844-15-15-15zm0 0" fill="#ebe1dc"/><path d="m332 352.382812h-282c-8.28125 0-15-6.71875-15-15v-71.382812c0-6.710938 4.453125-12.601562 10.90625-14.433594 3.273438-.925781 6.734375-2.25 10.394531-3.648437 8.472657-3.242188 18.070313-6.917969 28.949219-6.917969 9.191406 0 16.839844 3.3125 23.585938 6.234375 4.472656 1.9375 8.695312 3.765625 11.664062 3.765625 2.972656 0 7.195312-1.828125 11.664062-3.765625 6.75-2.921875 14.398438-6.234375 23.585938-6.234375 9.191406 0 16.839844 3.3125 23.585938 6.234375 4.472656 1.9375 8.695312 3.765625 11.664062 3.765625 2.972656 0 7.195312-1.828125 11.664062-3.765625 6.75-2.921875 14.398438-6.234375 23.585938-6.234375 9.191406 0 16.839844 3.3125 23.585938 6.234375 4.472656 1.9375 8.691406 3.765625 11.664062 3.765625s7.195312-1.828125 11.664062-3.765625c6.75-2.921875 14.398438-6.234375 23.585938-6.234375 10.882812 0 20.480469 3.675781 28.953125 6.917969 3.660156 1.398437 7.117187 2.722656 10.390625 3.648437 6.453125 1.832032 10.90625 7.722656 10.90625 14.433594v71.382812c0 8.28125-6.714844 15-15 15zm0 0" fill="#00aadf"/><path d="m357.300781 358.996094h-332.601562c-8.28125 0-15-6.714844-15-15 0-8.28125 6.71875-15 15-15h332.601562c8.285157 0 15 6.71875 15 15 0 8.285156-6.714843 15-15 15zm0 0" fill="#ffde46"/><path d="m96.269531 144.488281c-16.542969 0-30-13.457031-30-30s13.457031-30 30-30c16.539063 0 30 13.457031 30 30s-13.457031 30-30 30zm0 0" fill="#ffde46"/><path d="m336.09375 251.566406c-3.273438-.925781-6.730469-2.25-10.390625-3.648437-8.472656-3.242188-18.070313-6.917969-28.953125-6.917969-9.1875 0-16.835938 3.3125-23.585938 6.234375-4.46875 1.9375-8.691406 3.765625-11.664062 3.765625s-7.191406-1.828125-11.664062-3.765625c-6.746094-2.921875-14.394532-6.234375-23.585938-6.234375-9.1875 0-16.835938 3.3125-23.585938 6.234375-4.46875 1.9375-8.691406 3.761719-11.664062 3.765625v101.382812h141c8.285156 0 15-6.71875 15-15v-71.382812c0-6.710938-4.453125-12.601562-10.90625-14.433594zm0 0" fill="#00aadf"/><path d="m191 335.066406v144.933594c8.285156 0 15-6.71875 15-15v-114.933594c0-8.285156-6.714844-15-15-15zm0 0" fill="#ff9100"/><path d="m357.300781 328.996094h-166.300781v30h166.300781c8.285157 0 15-6.714844 15-15 0-8.28125-6.714843-15-15-15zm0 0" fill="#ffcd00"/></svg>