<svg height="512pt" viewBox="-77 0 512 512" width="512pt" xmlns="http://www.w3.org/2000/svg"><path d="m209 512-60-.003906c-8.285156 0-15-6.714844-15-15v-153.996094c0-8.285156 6.714844-15 15-15h60c8.285156 0 15 6.714844 15 15v154c0 3.980469-1.578125 7.792969-4.394531 10.605469-2.8125 2.816406-6.628907 4.394531-10.605469 4.394531zm0 0" fill="#00347b"/><path d="m209 328h-30v184h30c3.976562 0 7.792969-1.578125 10.605469-4.394531 2.816406-2.8125 4.394531-6.625 4.394531-10.605469v-154c0-8.285156-6.714844-15-15-15zm0 0" fill="#001737"/><path d="m227.957031 110.40625h-97.933593c-5.851563 0-11.171876-3.40625-13.621094-8.722656-4.84375-10.511719-32.660156-70.941406-37.015625-80.421875-2.132813-4.644531-1.753907-10.058594 1.003906-14.359375 2.757813-4.300782 7.519531-6.902344 12.628906-6.902344h171.960938c5.117187 0 9.878906 2.605469 12.636719 6.917969 2.753906 4.308593 3.125 9.726562.980468 14.371093-6.1875 13.398438-30.855468 66.988282-37.011718 80.382813-2.445313 5.324219-7.769532 8.734375-13.628907 8.734375zm0 0" fill="#00aadf"/><path d="m264.980469 358h-171.960938c-5.109375 0-9.867187-2.601562-12.625-6.90625-2.761719-4.300781-3.136719-9.710938-1.003906-14.355469 4.382813-9.542969 32.371094-70.351562 37.011719-80.421875 2.449218-5.320312 7.769531-8.722656 13.625-8.722656h97.929687c5.859375 0 11.183594 3.410156 13.632813 8.734375 6.152344 13.394531 30.820312 66.984375 37.011718 80.382813 2.144532 4.644531 1.773438 10.0625-.984374 14.371093-2.753907 4.308594-7.519532 6.917969-12.636719 6.917969zm0 0" fill="#00aadf"/><g fill="#0079c2"><path d="m277.617188 6.917969c-2.757813-4.3125-7.519532-6.917969-12.636719-6.917969h-85.980469v110.40625h48.957031c5.859375 0 11.183594-3.410156 13.628907-8.734375 6.15625-13.394531 30.824218-66.984375 37.011718-80.382813 2.144532-4.644531 1.773438-10.0625-.980468-14.371093zm0 0"/><path d="m278.597656 336.710938c-6.1875-13.398438-30.855468-66.988282-37.011718-80.382813-2.445313-5.324219-7.769532-8.734375-13.628907-8.734375h-48.957031v110.40625h85.980469c5.117187 0 9.878906-2.609375 12.636719-6.917969 2.753906-4.308593 3.125-9.726562.980468-14.371093zm0 0"/><path d="m343 279.980469c-2.128906 0-4.265625-.453125-6.261719-1.371094-9.542969-4.382813-68.96875-31.734375-80.425781-37.011719-5.316406-2.453125-8.722656-7.773437-8.722656-13.625v-97.933594c0-5.855468 3.414062-11.179687 8.738281-13.628906 13.394531-6.152344 66.980469-30.820312 80.382813-37.011718 4.644531-2.144532 10.0625-1.773438 14.371093.984374 4.308594 2.753907 6.917969 7.519532 6.917969 12.632813v171.960937c0 5.113282-2.601562 9.871094-6.90625 12.628907-2.453125 1.574219-5.265625 2.375-8.09375 2.375zm0 0"/></g><path d="m15 279.980469c-2.828125 0-5.640625-.800781-8.097656-2.375-4.300782-2.757813-6.902344-7.515625-6.902344-12.625v-171.960938c0-5.117187 2.605469-9.878906 6.917969-12.636719 4.308593-2.757812 9.726562-3.128906 14.371093-.980468 13.398438 6.1875 66.988282 30.855468 80.382813 37.011718 5.324219 2.445313 8.734375 7.769532 8.734375 13.628907v97.933593c0 5.851563-3.402344 11.171876-8.71875 13.621094-11.457031 5.28125-70.886719 32.632813-80.425781 37.015625-1.996094.914063-4.132813 1.367188-6.261719 1.367188zm80.40625-52.007813h.011719zm0 0" fill="#00aadf"/><path d="m238.710938 277.59375h-119.421876c-3.976562 0-7.792968-1.582031-10.605468-4.394531l-23.882813-23.886719c-2.8125-2.8125-4.394531-6.625-4.394531-10.605469v-119.417969c0-3.976562 1.582031-7.792968 4.394531-10.605468l23.882813-23.882813c2.8125-2.8125 6.628906-4.394531 10.605468-4.394531h119.421876c3.976562 0 7.792968 1.582031 10.605468 4.394531l23.882813 23.882813c2.8125 2.8125 4.394531 6.628906 4.394531 10.605468v119.417969c0 3.980469-1.582031 7.792969-4.394531 10.605469l-23.882813 23.886719c-2.8125 2.8125-6.628906 4.394531-10.605468 4.394531zm0 0" fill="#00347b"/><path d="m273.199219 108.683594-23.882813-23.882813c-2.8125-2.8125-6.628906-4.394531-10.605468-4.394531h-59.710938v197.1875h59.710938c3.976562 0 7.792968-1.582031 10.605468-4.394531l23.882813-23.886719c2.8125-2.8125 4.394531-6.625 4.394531-10.605469v-119.417969c0-3.976562-1.582031-7.792968-4.394531-10.605468zm0 0" fill="#001737"/><path d="m179 242.042969c-34.761719 0-63.042969-28.28125-63.042969-63.042969 0-34.765625 28.28125-63.042969 63.042969-63.042969s63.042969 28.277344 63.042969 63.042969c0 34.761719-28.28125 63.042969-63.042969 63.042969zm0 0" fill="#fdbf00"/><path d="m179 115.957031v126.082031c34.761719 0 63.042969-28.277343 63.042969-63.042968 0-34.761719-28.28125-63.039063-63.042969-63.039063zm0 0" fill="#ff9100"/></svg>