<svg height="512pt" viewBox="-142 0 512 512" width="512pt" xmlns="http://www.w3.org/2000/svg"><path d="m80.914062 417.585938c-4.777343 0-9.34375-2.285157-12.195312-6.269532-29.289062-40.898437-49.464844-97.753906-60.101562-169.253906-.621094-4.1875 6.101562-15.152344 6.101562-15.152344s-9.898438-14.6875-10.136719-16.992187c-.316406-3.070313-.617187-6.164063-.902343-9.28125-.515626-5.6875-.980469-11.457031-1.386719-17.292969-.394531-5.609375-.734375-11.285156-1.027344-17.015625-1.882813-36.992187-1.664063-76.324219.664063-115.664063.304687-5.1875 10.746093-15.5625 10.746093-15.5625s-8.960937-9.84375-8.53125-14.75c.195313-2.25.398438-4.5.609375-6.746093.71875-7.710938 7.1875-13.605469 14.933594-13.605469l121.636719.00390625c4.214843 0 8.234375 1.77343775 11.078125 4.88671875 2.839844 3.113281 4.242187 7.277344 3.859375 11.476563-1.148438 12.640624-2.246094 25.894531-3.304688 39.417968-.574219 7.320313-10.199219 22.140625-10.199219 22.140625s7.40625 14.792969 6.867188 22.167969c-.242188 3.3125-.484375 6.621094-.722656 9.917969-1.484375 20.316406-3.015625 41.328125-4.578125 60.722656-.046875.621094-.136719 1.238281-.265625 1.851563l-48.460938 233.054687c-1.210937 5.832031-5.757812 10.394531-11.585937 11.625-1.03125.214844-2.070313.320313-3.097657.320313zm0 0" fill="#ffe4c1"/><path d="m152.402344 4.890625c-2.84375-3.113281-6.863282-4.88671875-11.078125-4.88671875h-63.160157v417.30468775c.902344.167968 1.820313.277344 2.75.277344 1.027344 0 2.066407-.105469 3.101563-.324219 5.824219-1.230469 10.375-5.792969 11.585937-11.621094l48.460938-233.058594c.125-.609375.214844-1.226562.265625-1.851562 1.5625-19.394531 3.09375-40.402344 4.574219-60.722657.242187-3.296874.484375-6.601562.726562-9.917968.539063-7.375-6.867187-22.167969-6.867187-22.167969s9.621093-14.816406 10.195312-22.140625c1.058594-13.519531 2.15625-26.773438 3.308594-39.417969.378906-4.195312-1.023437-8.359375-3.863281-11.472656zm0 0" fill="#fdd1a3"/><path d="m105.695312 267.542969c6.625 0 12.6875-4.417969 14.480469-11.121094 2.144531-8.003906-2.605469-16.230469-10.605469-18.375l-104.984374-28.128906c.238281 2.304687.480468 4.597656.738281 6.875.96875 8.621093 2.074219 17.035156 3.300781 25.269531l93.179688 24.96875c1.300781.347656 2.605468.511719 3.890624.511719zm0 0" fill="#ff193d"/><path d="m3.730469 201.121094 145.898437-101.03125c1.078125-14.78125 2.179688-29.699219 3.328125-44.308594l-148.816406-35.429688c-.875 10.078126-1.609375 20.199219-2.210937 30.316407l123.800781 29.476562-124.460938 86.1875c.605469 11.863281 1.421875 23.484375 2.460938 34.789063zm0 0" fill="#ff193d"/><path d="m78.164062 37.976562v30.839844l47.566407 11.328125-47.566407 32.941407v36.492187l71.464844-49.488281c1.082032-14.78125 2.183594-29.695313 3.328125-44.304688zm0 0" fill="#be003b"/><path d="m109.570312 238.046875-31.40625-8.414063v31.0625l23.640626 6.335938c1.300781.347656 2.605468.511719 3.890624.511719 6.625 0 12.6875-4.417969 14.484376-11.121094 2.140624-8.003906-2.609376-16.230469-10.609376-18.375zm0 0" fill="#be003b"/><path d="m181.074219 512h-35.019531c-12.332032 0-23.359376-6.390625-29.496094-17.089844l-48.660156-84.863281c-9.960938-17.378906-12.25-35.914063-6.800782-55.09375l53.84375-189.523437c4.253906-14.972657 14.113282-26.382813 28.507813-32.996094 14.238281-6.546875 29.382812-6.75 43.804687-.597656l8.269532 3.53125c14.195312 6.058593 24.257812 16.851562 29.109374 31.210937 4.671876 13.832031 3.191407 28.304687-4.292968 41.851563l-24.722656 44.773437c-17.351563 31.421875-21.636719 62.632813-13.101563 95.40625l31.386719 120.53125c2.734375 10.503906.691406 20.960937-5.765625 29.441406-6.578125 8.652344-16.191407 13.417969-27.0625 13.417969zm0 0" fill="#97002c"/></svg>