<svg height="512pt" viewBox="-52 0 512 512" width="512pt" xmlns="http://www.w3.org/2000/svg"><path d="m115.3125 243.945312h-80.632812l-14.644532 209.210938c-1.09375 15.609375 3.96875 29.90625 14.636719 41.351562 10.671875 11.441407 24.582031 17.492188 40.226563 17.492188h.199218c15.648438 0 29.558594-6.050781 40.226563-17.492188 10.671875-11.441406 15.734375-25.742187 14.640625-41.351562zm0 0" fill="#00aadf"/><path d="m129.964844 453.15625-14.652344-209.214844h-40.316406v268.058594h.101562c15.644532 0 29.554688-6.050781 40.226563-17.492188 10.671875-11.445312 15.734375-25.742187 14.640625-41.351562zm0 0" fill="#0079c2"/><path d="m148.195312 107.851562c-3.175781-17.046874-10.355468-37.757812-20.046874-57.019531-11.664063-23.1875-30.355469-50.832031-53.148438-50.832031s-41.484375 27.644531-53.148438 50.832031c-9.691406 19.261719-16.875 39.972657-20.046874 57.019531zm0 0" fill="#ff193d"/><path d="m42.027344 138.953125-9.214844 131.621094h84.367188l-9.21875-131.625c-.363282-5.214844-3.375-9.640625-7.65625-12.035157h-50.621094c-4.28125 2.394532-7.292969 6.824219-7.65625 12.039063zm0 0" fill="#f5f0eb"/><path d="m150 125c0-12.296875-3.722656-29.128906-10.058594-46.722656-19.390625-9.003906-41.5-16.945313-71.074218 4.957031-17.578126 13.023437-24.769532 9.621094-36.683594 3.984375-6.511719-3.082031-13.789063-6.519531-22.710938-7.296875-5.976562 16.996094-9.472656 33.164063-9.472656 45.078125 0 41.355469 33.644531 75 75 75s75-33.644531 75-75zm0 0" fill="#ffcd00"/><path d="m74.996094 270.574219h42.183594l-9.21875-131.625c-.363282-5.214844-3.375-9.640625-7.65625-12.035157h-25.308594zm0 0" fill="#ebe1dc"/><path d="m389.488281 190.855469h-157c-5.171875 0-9.980469-2.667969-12.722656-7.054688-2.738281-4.386719-3.027344-9.875-.757813-14.527343l78.5-160.851563c2.515626-5.152344 7.746094-8.421875 13.480469-8.421875s10.964844 3.269531 13.480469 8.421875l78.5 160.851563c2.269531 4.652343 1.980469 10.140624-.757812 14.527343-2.742188 4.386719-7.550782 7.054688-12.722657 7.054688zm0 0" fill="#f5f0eb"/><path d="m402.96875 169.273438-78.5-160.851563c-2.515625-5.152344-7.746094-8.421875-13.480469-8.421875v190.855469h78.5c5.171875 0 9.980469-2.667969 12.722657-7.054688 2.738281-4.386719 3.027343-9.875.757812-14.527343zm0 0" fill="#ebe1dc"/><path d="m346.675781 53.925781-22.207031-45.503906c-2.515625-5.152344-7.746094-8.421875-13.480469-8.421875s-10.964843 3.269531-13.480469 8.421875l-22.207031 45.503906zm0 0" fill="#00eccf"/><path d="m310.988281 512h-66.988281c-16.570312 0-30-13.429688-30-30v-291.695312c0-26.785157 21.710938-48.496094 48.496094-48.496094 26.78125 0 48.492187 21.710937 48.492187 48.496094zm0 0" fill="#00eccf"/><path d="m377.976562 512h-66.988281v-321.695312c0-26.785157 21.710938-48.496094 48.496094-48.496094 26.78125 0 48.496094 21.710937 48.496094 48.496094v291.695312c-.003907 16.570312-13.433594 30-30.003907 30zm0 0" fill="#00cab1"/><path d="m74.996094 107.851562h73.199218c-3.175781-17.046874-10.355468-37.757812-20.046874-57.019531-11.664063-23.1875-30.355469-50.832031-53.148438-50.832031h-.003906zm0 0" fill="#be003b"/><path d="m139.941406 78.277344c-18.027344-8.371094-38.40625-15.808594-64.945312.785156v120.9375h.003906c41.355469 0 75-33.644531 75-75 0-12.296875-3.722656-29.128906-10.058594-46.722656zm0 0" fill="#fdbf00"/><path d="m310.988281 53.925781h35.6875l-22.207031-45.503906c-2.515625-5.152344-7.746094-8.421875-13.480469-8.421875zm0 0" fill="#00cab1"/></svg>