<svg height="512pt" viewBox="-62 0 512 512" width="512pt" xmlns="http://www.w3.org/2000/svg"><path d="m43.679688 471.945312h300v-56.945312l-28.828126-94.054688 28.828126-72.945312v-103.449219c0-8.09375-6.714844-14.65625-15-14.65625h-270c-8.28125 0-15 6.5625-15 14.65625v48.449219l14.148437 59.191406-14.148437 73.988282zm0 0" fill="#f5f0eb"/><path d="m343.679688 144.550781c0-8.09375-6.714844-14.65625-15-14.65625h-135v342.050781h150v-56.945312l-28.828126-94.054688 28.828126-72.945312zm0 0" fill="#ebe1dc"/><path d="m342.191406 129c-4.886718-34.503906-21.746094-66.292969-47.867187-90.007812-27.699219-25.144532-63.441407-38.992188-100.644531-38.992188-37.203126 0-72.941407 13.847656-100.640626 38.992188-26.125 23.714843-42.980468 55.503906-47.871093 90.007812zm0 0" fill="#fff36c"/><path d="m371.222656 512h-355.082031c-8.914063 0-16.140625-6.714844-16.140625-15v1c0-26.46875 23.167969-48 51.648438-48h284.066406c28.476562 0 51.648437 21.53125 51.648437 48v-1c0 8.285156-7.226562 15-16.140625 15zm0 0" fill="#00347b"/><path d="m193.679688 129h148.511718c-4.886718-34.503906-21.746094-66.292969-47.867187-90.007812-27.699219-25.144532-63.441407-38.992188-100.644531-38.992188zm0 0" fill="#ffde46"/><path d="m163.722656 326.179688h-119.761718v-133.179688h119.761718c8.285156 0 15 6.714844 15 15v103.179688c0 8.285156-6.714844 15-15 15zm0 0" fill="#00eccf"/><path d="m343.722656 415h-119.957031c-8.285156 0-15-6.714844-15-15v-137c0-8.285156 6.714844-15 15-15h119.957031zm0 0" fill="#be003b"/><path d="m260.402344 129c-1.894532-32.265625-8.160156-62.171875-17.820313-84.792969-15.601562-36.535156-35.203125-44.207031-48.902343-44.207031-13.695313 0-33.296876 7.671875-48.898438 44.207031-9.660156 22.621094-15.925781 52.527344-17.820312 84.792969zm0 0" fill="#ffde46"/><path d="m356.722656 151h-325.355468c-8.28125 0-15-6.714844-15-15s6.71875-15 15-15h325.355468c8.285156 0 15 6.714844 15 15s-6.714844 15-15 15zm0 0" fill="#fdbf00"/><path d="m260.402344 129c-1.894532-32.265625-8.160156-62.171875-17.820313-84.792969-15.601562-36.535156-35.203125-44.207031-48.902343-44.207031v129zm0 0" fill="#ffcd00"/><path d="m356.722656 121h-163.042968v30h163.042968c8.285156 0 15-6.714844 15-15s-6.714844-15-15-15zm0 0" fill="#ff9100"/><g fill="#001737"><path d="m335.714844 450h-142.035156v62h177.542968c8.792969 0 15.929688-6.539062 16.121094-14.664062-.386719-26.160157-23.390625-47.335938-51.628906-47.335938zm0 0"/><path d="m387.363281 497c0 .113281-.015625.222656-.019531.335938.003906.21875.019531.441406.019531.664062zm0 0"/></g></svg>