<svg height="512pt" viewBox="-61 0 512 512" width="512pt" xmlns="http://www.w3.org/2000/svg"><path d="m311 431.890625h-101v-198.890625c0-8.285156-6.714844-15-15-15s-15 6.714844-15 15v198.890625h-101c-8.285156 0-15 6.71875-15 15v50.109375c0 8.285156 6.714844 15 15 15s15-6.714844 15-15v-35.109375h86v35.109375c0 8.285156 6.714844 15 15 15s15-6.714844 15-15v-35.109375h86v35.109375c0 8.285156 6.714844 15 15 15s15-6.714844 15-15v-50.109375c0-8.285156-6.714844-15-15-15zm0 0" fill="#ffcd00"/><path d="m311 431.890625h-101v-198.890625c0-8.285156-6.714844-15-15-15v294c8.285156 0 15-6.714844 15-15v-35.109375h86v35.109375c0 8.285156 6.714844 15 15 15s15-6.714844 15-15v-50.109375c0-8.285156-6.714844-15-15-15zm0 0" fill="#fdbf00"/><path d="m375 240h-360c-8.285156 0-15-6.714844-15-15v-171.046875c0-8.28125 6.714844-15 15-15h360c8.285156 0 15 6.71875 15 15v171.046875c0 8.285156-6.714844 15-15 15zm0 0" fill="#fdbf00"/><path d="m375 38.953125h-180v201.046875h180c8.285156 0 15-6.714844 15-15v-171.046875c0-8.28125-6.714844-15-15-15zm0 0" fill="#ff9100"/><path d="m180 240h-104c-8.285156 0-15-6.714844-15-15v-210c0-8.285156 6.714844-15 15-15h104c8.285156 0 15 6.714844 15 15v210c0 8.285156-6.714844 15-15 15zm0 0" fill="#f5f0eb"/><path d="m314 240h-104c-8.285156 0-15-6.714844-15-15v-210c0-8.285156 6.714844-15 15-15h104c8.285156 0 15 6.714844 15 15v210c0 8.285156-6.714844 15-15 15zm0 0" fill="#ebe1dc"/></svg>