<svg height="512pt" viewBox="-69 0 512 512" width="512pt" xmlns="http://www.w3.org/2000/svg"><path d="m232.367188 390h-90c-8.285157 0-15-6.714844-15-15v-60c0-8.285156 6.714843-15 15-15h90c8.285156 0 15 6.714844 15 15v60c0 8.285156-6.714844 15-15 15zm0 0" fill="#f5f0eb"/><path d="m232.367188 300h-45v90h45c8.285156 0 15-6.714844 15-15v-60c0-8.285156-6.714844-15-15-15zm0 0" fill="#ebe1dc"/><path d="m235.445312 330h-96.15625c-26.976562 0-49.855468-17.492188-56.933593-43.527344-4.175781-15.378906-18.199219-26.441406-34.09375-26.898437-11.941407-.347657-22.441407-4.636719-31.210938-12.746094l-3.800781-3.515625c-9.875-9.136719-14.585938-21.785156-12.921875-34.710938 1.703125-13.230468 9.707031-24.574218 21.960937-31.117187l91.207032-48.714844c2.171875-1.160156 4.601562-1.769531 7.066406-1.769531h133.609375c2.464844 0 4.894531.605469 7.066406 1.769531l91.207031 48.710938c12.253907 6.546875 20.257813 17.890625 21.960938 31.121093 1.664062 12.925782-3.046875 25.574219-12.921875 34.710938l-3.800781 3.515625c-8.765625 8.109375-19.265625 12.398437-31.207032 12.742187-15.898437.460938-29.917968 11.523438-34.097656 26.902344-7.078125 26.035156-29.957031 43.527344-56.933594 43.527344zm0 0" fill="#ebe1dc"/><path d="m374.40625 208.601562c-1.699219-13.230468-9.707031-24.574218-21.960938-31.121093l-91.203124-48.710938c-2.175782-1.160156-4.601563-1.769531-7.066407-1.769531h-66.808593v203h48.078124c26.976563 0 49.855469-17.492188 56.933594-43.527344 4.179688-15.378906 18.199219-26.441406 34.097656-26.902344 11.941407-.34375 22.441407-4.632812 31.207032-12.742187l3.800781-3.515625c9.875-9.136719 14.585937-21.789062 12.921875-34.710938zm0 0" fill="#dcd2cd"/><path d="m282.363281 512h-189.992187c-24.816406 0-45.003906-20.1875-45.003906-45.003906 0-24.082032 18.8125-43.855469 42.832031-45.015625 9.066406-.4375 16.167969-7.898438 16.167969-16.984375v-11.996094c0-8.285156 6.714843-15 15-15h132c8.285156 0 15 6.714844 15 15v11.996094c0 9.085937 7.101562 16.546875 16.167968 16.984375 24.019532 1.160156 42.832032 20.902343 42.832032 44.949219 0 24.851562-20.1875 45.070312-45.003907 45.070312zm0 0" fill="#fdbf00"/><path d="m187.367188 211.296875c-25.519532 0-88-36.773437-88-84.964844v-51.332031c0-41.355469 33.644531-75 75-75h26c41.355468 0 75 33.644531 75 75v51.332031c0 48.191407-62.480469 84.964844-88 84.964844zm0 0" fill="#f5f0eb"/><path d="m200.367188 0h-13v211.296875c25.519531 0 88-36.773437 88-84.964844v-51.332031c0-41.355469-33.644532-75-75-75zm0 0" fill="#ebe1dc"/><path d="m200.367188 0h-26c-2.015626 0-4.007813.101562-5.980469.261719-.40625 3.039062-.636719 6.136719-.636719 9.292969 0 38.550781 31.253906 69.804687 69.808594 69.804687 13.808594 0 26.667968-4.023437 37.503906-10.941406-3.347656-38.28125-35.558594-68.417969-74.695312-68.417969zm0 0" fill="#b8abab"/><path d="m174.367188 0c-41.355469 0-75 33.644531-75 75v18.035156c7.136718 1.878906 14.625 2.886719 22.351562 2.886719 48.316406 0 87.488281-39.167969 87.488281-87.484375 0-2.679688-.128906-5.328125-.363281-7.945312-2.785156-.316407-5.609375-.492188-8.476562-.492188zm0 0" fill="#ebe1dc"/><path d="m187.367188 66.257812c13.589843-15.417968 21.835937-35.65625 21.835937-57.820312 0-2.679688-.125-5.328125-.363281-7.945312-2.78125-.316407-5.605469-.492188-8.472656-.492188h-13zm0 0" fill="#dcd2cd"/><path d="m284.535156 421.980469c-9.066406-.4375-16.167968-7.898438-16.167968-16.984375v-11.996094c0-8.285156-6.714844-15-15-15h-66v134h94.996093c24.816407 0 45.003907-20.21875 45.003907-45.070312 0-24.046876-18.8125-43.789063-42.832032-44.949219zm0 0" fill="#ff9100"/></svg>