<svg height="512pt" viewBox="0 0 512 512" width="512pt" xmlns="http://www.w3.org/2000/svg"><path d="m511.964844 504.664062c0-34.589843-22.476563-63.734374-55.925782-72.53125l-137.246093-36.09375c-1.246094-.328124-2.527344-.496093-3.816407-.496093h-117.992187c-1.285156 0-2.566406.167969-3.8125.496093l-137.25 36.09375c-33.449219 8.796876-55.921875 37.941407-55.921875 72.53125.238281 4.121094 3.648438 7.335938 7.773438 7.335938h496.417968c4.121094 0 7.535156-3.21875 7.773438-7.335938zm0 0" fill="#00aadf"/><path d="m456.039062 432.132812-137.246093-36.09375c-1.246094-.328124-2.527344-.496093-3.816407-.496093h-58.996093v116.457031h248.210937c4.121094 0 7.535156-3.21875 7.773438-7.335938 0-34.589843-22.472656-63.734374-55.925782-72.53125zm0 0" fill="#0079c2"/><path d="m400.972656 356.976562h-289.980468c-8.285157 0-15-6.71875-15-15v-121.992187c0-42.574219 16.683593-82.707031 46.984374-113.003906 30.296876-30.296875 70.429688-46.984375 113.003907-46.984375s82.707031 16.6875 113.007812 46.984375c30.296875 30.300781 46.980469 70.433593 46.980469 113.003906v121.992187c0 8.28125-6.714844 15-14.996094 15zm0 0" fill="#ffcd00"/><path d="m368.984375 106.980469c-30.296875-30.296875-70.429687-46.984375-113.003906-46.984375v296.980468h144.992187c8.28125 0 14.996094-6.71875 14.996094-15v-121.992187c0-42.570313-16.683594-82.703125-46.984375-113.003906zm0 0" fill="#fdbf00"/><path d="m196.078125 395.421875c17.171875 11.386719 37.761719 18.019531 59.902344 18.019531 22.144531 0 42.734375-6.632812 59.90625-18.019531v-86.054687h-119.808594zm0 0" fill="#fdd1a3"/><path d="m255.980469 309.367188v104.074218c22.144531 0 42.734375-6.632812 59.90625-18.019531v-86.054687zm0 0" fill="#ffbb85"/><path d="m255.980469 371.976562c-15.933594 0-41.828125-11.765624-62.96875-28.605468-27.101563-21.589844-42.023438-47.390625-42.023438-72.648438v-91.855468c0-8.28125 6.714844-14.996094 15-14.996094h179.988281c8.285157 0 15 6.714844 15 14.996094v91.855468c0 25.257813-14.925781 51.058594-42.027343 72.648438-21.140625 16.839844-47.035157 28.605468-62.96875 28.605468zm0 0" fill="#ffe4c1"/><path d="m385.683594 64.996094c-3.238282 0-6.496094-1.042969-9.242188-3.195313-6.523437-5.109375-7.664062-14.535156-2.554687-21.054687l19.910156-25.402344c5.109375-6.519531 14.539063-7.664062 21.058594-2.554688 6.519531 5.109376 7.660156 14.539063 2.550781 21.058594l-19.910156 25.402344c-2.957032 3.773438-7.363282 5.746094-11.8125 5.746094zm0 0" fill="#97002c"/><path d="m443.15625 89.304688c-20.8125-44.40625-74.09375-89.242188-146.214844-89.304688-.023437 0-.046875 0-.066406 0-37.441406 0-69.023438 27.117188-74.785156 63.613281 11.019531-2.382812 22.363281-3.617187 33.890625-3.617187 42.574219 0 82.707031 16.6875 113.007812 46.984375 19.035157 19.039062 32.695313 41.960937 40.222657 66.929687 17.007812-.878906 27.234374-8.175781 33.242187-15.40625 13.265625-15.960937 13.527344-41.832031.703125-69.199218zm0 0" fill="#ff193d"/><path d="m345.976562 163.867188h-89.992187v208.109374c15.933594 0 41.824219-11.765624 62.96875-28.605468 27.101563-21.59375 42.023437-47.394532 42.023437-72.648438v-91.855468c0-8.28125-6.714843-15-15-15zm0 0" fill="#fdd1a3"/><path d="m443.15625 89.304688c-20.8125-44.40625-74.09375-89.242188-146.214844-89.304688-.023437 0-.046875 0-.066406 0-15.003906 0-29.058594 4.363281-40.894531 11.925781v48.070313c42.574219 0 82.707031 16.6875 113.003906 46.984375 19.039063 19.039062 32.699219 41.960937 40.222656 66.929687 17.011719-.878906 27.238281-8.175781 33.246094-15.40625 13.265625-15.960937 13.527344-41.832031.703125-69.199218zm0 0" fill="#be003b"/></svg>