<svg height="511pt" viewBox="0 0 511.99974 511" width="511pt" xmlns="http://www.w3.org/2000/svg"><path d="m454.921875 512.183594c-8.285156 0-15-6.714844-15-15v-200.972656c0-8.285157 6.714844-15 15-15 8.28125 0 15 6.714843 15 15v200.972656c0 8.285156-6.71875 15-15 15zm0 0" fill="#001737"/><path d="m496.984375 325.558594c-2.546875 0-5.125-.648438-7.488281-2.015625l-76.21875-44.003907c-7.175782-4.144531-9.632813-13.316406-5.492188-20.492187 4.140625-7.171875 13.316406-9.632813 20.492188-5.488281l76.21875 44.003906c7.175781 4.144531 9.632812 13.316406 5.492187 20.492188-2.777343 4.8125-7.820312 7.503906-13.003906 7.503906zm0 0" fill="#00347b"/><path d="m397.460938 511.855469-382.460938-.003907c-8.285156 0-15-6.714843-15-15v-72.6875c0-28.421874 17.78125-52.65625 46.410156-63.246093l6.734375-2.488281 308.179688.742187 4.726562 1.75c28.625 10.589844 46.410157 34.820313 46.410157 63.242187v72.695313c0 3.976563-1.582032 7.792969-4.394532 10.605469s-6.625 4.390625-10.605468 4.390625zm0 0" fill="#ff193d"/><path d="m366.050781 360.917969-4.726562-1.75-155.09375-.371094v153.054687l191.230469.003907c3.980468 0 7.792968-1.582031 10.605468-4.394531s4.394532-6.628907 4.394532-10.605469v-72.695313c0-28.417968-17.78125-52.652344-46.410157-63.242187zm0 0" fill="#be003b"/><path d="m119.222656 428.910156c26.925782 20.65625 64.269532 42.726563 88.332032 42.726563 28.621093 0 72.136718-31.1875 84.792968-40.746094 30.460938-23.011719 55.003906-48.617187 68.976563-71.71875l-97.800781-36.179687v-47.613282c0-8.285156-6.714844-15-15-15h-84.585938c-8.285156 0-15 6.714844-15 15v47.613282l-95.792969 35.4375c18.292969 31.664062 51.195313 59.0625 66.078125 70.480468zm0 0" fill="#fdd1a3"/><path d="m263.523438 322.988281v-47.609375c0-8.285156-6.714844-15-15-15h-42.292969v211.222656c.441406.011719.890625.035157 1.324219.035157 28.621093 0 72.136718-31.1875 84.789062-40.746094 30.464844-23.011719 55.007812-48.617187 68.980469-71.71875zm0 0" fill="#ffbb85"/><path d="m267.261719 102.953125c-.191407 0-.378907-.003906-.570313-.011719l-122.675781-4.601562c-7.492187-.28125-13.625-6.050782-14.367187-13.511719-.246094-2.5-.371094-5.039063-.371094-7.546875 0-42.339844 34.519531-76.78125 76.953125-76.78125 42.433593 0 76.957031 34.441406 76.957031 76.78125 0 4.4375-.390625 8.902344-1.160156 13.269531-1.265625 7.195313-7.519532 12.402344-14.765625 12.402344zm0 0" fill="#fdbf00"/><path d="m206.230469.5v100.175781l60.460937 2.265625c.1875.007813.378906.011719.566406.011719 7.25 0 13.5-5.207031 14.765626-12.398437.773437-4.371094 1.160156-8.835938 1.160156-13.273438 0-42.335938-34.519532-76.78125-76.953125-76.78125zm0 0" fill="#ff9100"/><path d="m206.230469 304.859375c-25.566407 0-52.660157-18.03125-74.332031-49.46875-19.996094-29.007813-31.933594-64.859375-31.933594-95.902344 0-26.773437 8.617187-49.464843 24.921875-65.617187 18.53125-18.363282 45.898437-27.675782 81.34375-27.675782 35.445312 0 62.816406 9.3125 81.347656 27.675782 16.300781 16.152344 24.921875 38.84375 24.921875 65.617187 0 31.042969-11.941406 66.894531-31.9375 95.902344-21.671875 31.4375-48.765625 49.46875-74.332031 49.46875zm0 0" fill="#ffe4c1"/><path d="m287.574219 93.871094c-18.53125-18.363282-45.898438-27.675782-81.34375-27.675782v238.664063c25.566406 0 52.660156-18.03125 74.332031-49.46875 19.996094-29.007813 31.933594-64.859375 31.933594-95.902344 0-26.773437-8.617188-49.464843-24.921875-65.617187zm0 0" fill="#fdd1a3"/><path d="m394.035156 294.53125c-24.8125 0-45-20.1875-45-45s20.1875-45 45-45 45 20.1875 45 45-20.1875 45-45 45zm0 0" fill="#0079c2"/><path d="m124.886719 93.871094c-16.304688 16.152344-24.921875 38.84375-24.921875 65.617187 0 7.15625.640625 14.570313 1.863281 22.097657 58.300781-1.964844 104.960937-49.835938 104.960937-108.613282 0-2.273437-.078124-4.53125-.214843-6.769531-.117188 0-.226563-.007813-.34375-.007813-35.445313 0-62.8125 9.3125-81.34375 27.675782zm0 0" fill="#ffde46"/><path d="m206.445312 66.199219c-.136718 2.242187-.214843 4.5-.214843 6.773437 0 58.589844 46.367187 106.34375 104.40625 108.59375 1.21875-7.519531 1.859375-14.929687 1.859375-22.078125 0-26.773437-8.617188-49.464843-24.921875-65.617187-18.492188-18.328125-45.789063-27.632813-81.128907-27.671875zm0 0" fill="#ffcd00"/></svg>