<svg height="512pt" viewBox="0 0 512 512.002" width="512pt" xmlns="http://www.w3.org/2000/svg"><path d="m149.015625 225.679688h114.066406v88.15625h-114.066406zm0 0" fill="#fdd1a3"/><path d="m206.046875 225.679688h57.035156v88.15625h-57.035156zm0 0" fill="#ffbb85"/><path d="m206.046875 248.753906c-51.664063 0-93.695313-41.128906-93.695313-91.683594v-65.386718c0-50.554688 42.03125-91.683594 93.695313-91.683594 51.667969 0 93.699219 41.128906 93.699219 91.683594v65.386718c0 50.554688-42.03125 91.683594-93.699219 91.683594zm0 0" fill="#ffe4c1"/><path d="m206.046875 0v248.753906c51.667969 0 93.699219-41.128906 93.699219-91.683594v-65.386718c0-50.554688-42.03125-91.683594-93.699219-91.683594zm0 0" fill="#fdd1a3"/><path d="m15.007812 512c-3.980468 0-7.796874-1.578125-10.609374-4.394531-2.816407-2.8125-4.398438-6.632813-4.398438-10.613281v-119.441407c0-27.488281 17.675781-50.875 46.125-61.039062l81.953125-23.917969c2.960937-1.058594 6.179687-1.15625 9.195313-.289062l68.554687 24.019531 68.5625-25.335938c3.132813-.996093 6.507813-.9375 9.601563.167969l81.980468 25.355469c28.449219 10.164062 46.125 33.550781 46.125 61.039062v119.300781c0 8.285157-6.714844 15.003907-15.003906 15.007813l-382.078125.144531c-.003906-.003906-.003906-.003906-.007813-.003906zm382.082032-15.152344h.007812zm0 0" fill="#00347b"/><path d="m206.046875 0c-51.664063 0-93.695313 41.128906-93.695313 91.683594v17.984375c5.628907.734375 11.335938 1.109375 17.074219 1.109375 29.199219 0 56.792969-9.621094 76.617188-26.265625 19.808593 16.652343 47.34375 26.265625 76.628906 26.265625 5.738281 0 11.445313-.375 17.074219-1.113282v-17.980468c0-50.554688-42.03125-91.683594-93.699219-91.683594zm0 0" fill="#b34f03"/><path d="m365.972656 316.511719-81.980468-25.355469c-3.09375-1.105469-6.46875-1.164062-9.601563-.167969l-68.34375 25.253907v195.6875l191.046875-.074219c8.289062-.003907 15.003906-6.722657 15.003906-15.007813v-119.296875c0-27.488281-17.675781-50.875-46.125-61.039062zm0 0" fill="#001737"/><g fill-rule="evenodd"><path d="m221.054688 365.277344c0 8.289062-6.71875 15.007812-15.007813 15.007812-8.285156 0-15.003906-6.71875-15.003906-15.007812 0-8.289063 6.71875-15.007813 15.003906-15.007813 8.289063 0 15.007813 6.71875 15.007813 15.007813zm0 0" fill="#fff36c"/><path d="m221.054688 485.335938c0 8.289062-6.71875 15.007812-15.007813 15.007812-8.285156 0-15.003906-6.71875-15.003906-15.007812 0-8.285157 6.71875-15.003907 15.003906-15.003907 8.289063 0 15.007813 6.71875 15.007813 15.003907zm0 0" fill="#fff36c"/><path d="m221.054688 425.308594c0 8.289062-6.71875 15.007812-15.007813 15.007812-8.285156 0-15.003906-6.71875-15.003906-15.007812 0-8.289063 6.71875-15.007813 15.003906-15.007813 8.289063 0 15.007813 6.71875 15.007813 15.007813zm0 0" fill="#fff36c"/></g><path d="m149.171875 358.039062c-3.226563 0-6.476563-.773437-9.542969-2.339843-7.105468-3.632813-11.351562-10.566407-11.351562-18.550781v-42.5625c0-7.980469 4.242187-14.917969 11.351562-18.550782 7.109375-3.628906 15.214844-3.007812 21.683594 1.667969l41.117188 29.722656c2.707031 1.960938 4.3125 5.101563 4.3125 8.441407 0 3.34375-1.605469 6.484374-4.3125 8.441406l-41.117188 29.722656c-3.679688 2.660156-7.886719 4.007812-12.140625 4.007812zm-.15625-20.949218" fill="#ff193d"/><path d="m262.925781 358.039062c-4.253906 0-8.460937-1.347656-12.140625-4.007812l-41.117187-29.722656c-2.707031-1.957032-4.3125-5.097656-4.3125-8.441406s1.605469-6.480469 4.3125-8.441407l41.117187-29.722656c6.46875-4.675781 14.574219-5.300781 21.683594-1.667969 7.109375 3.632813 11.351562 10.566406 11.351562 18.550782v42.5625c0 7.984374-4.242187 14.917968-11.351562 18.550781-3.066406 1.566406-6.316406 2.339843-9.542969 2.339843zm.15625-63.394531" fill="#be003b"/><path d="m454.667969 511.871094c-8.289063 0-15.007813-6.71875-15.007813-15.007813v-201.070312c0-8.289063 6.71875-15.007813 15.007813-15.007813 8.285156 0 15.007812 6.71875 15.007812 15.007813v201.074219c0 8.285156-6.722656 15.003906-15.007812 15.003906zm0 0" fill="#001737"/><path d="m496.75 325.152344c-2.542969 0-5.125-.648438-7.488281-2.015625l-76.261719-44.027344c-7.175781-4.144531-9.636719-13.324219-5.492188-20.5 4.144532-7.179687 13.324219-9.640625 20.5-5.492187l76.261719 44.027343c7.179688 4.144531 9.636719 13.320313 5.492188 20.5-2.78125 4.816407-7.824219 7.507813-13.011719 7.507813zm0 0" fill="#00347b"/><path d="m393.75 294.109375c-24.824219 0-45.019531-20.195313-45.019531-45.023437 0-24.824219 20.195312-45.019532 45.019531-45.019532 24.828125 0 45.023438 20.195313 45.023438 45.019532 0 24.828124-20.195313 45.023437-45.023438 45.023437zm0 0" fill="#0079c2"/><path d="m206.046875 0v84.515625c19.8125 16.652344 47.34375 26.261719 76.625 26.261719 5.738281 0 11.445313-.375 17.074219-1.113282v-17.980468c0-50.554688-42.03125-91.683594-93.699219-91.683594zm0 0" fill="#a24603"/><path d="m206.046875 350.269531c-.230469 0-.460937.023438-.691406.035157v29.945312c.230469.011719.460937.035156.691406.035156 8.289063 0 15.007813-6.71875 15.007813-15.007812 0-8.289063-6.71875-15.007813-15.007813-15.007813zm0 0" fill="#ffde46" fill-rule="evenodd"/><path d="m206.046875 410.300781c-.230469 0-.460937.023438-.691406.035157v29.945312c.230469.007812.460937.035156.691406.035156 8.289063 0 15.007813-6.71875 15.007813-15.007812 0-8.289063-6.71875-15.007813-15.007813-15.007813zm0 0" fill="#ffde46" fill-rule="evenodd"/><path d="m206.046875 470.332031c-.230469 0-.460937.023438-.691406.035157v29.941406c.230469.011718.460937.035156.691406.035156 8.289063 0 15.007813-6.71875 15.007813-15.007812 0-8.285157-6.71875-15.003907-15.007813-15.003907zm0 0" fill="#ffde46" fill-rule="evenodd"/></svg>