<svg height="512pt" viewBox="-29 0 512 512" width="512pt" xmlns="http://www.w3.org/2000/svg"><g fill="#ebe1dc"><path d="m172 449c-8.285156 0-15-6.714844-15-15v-370c0-8.285156 6.714844-15 15-15s15 6.714844 15 15v370c0 8.285156-6.714844 15-15 15zm0 0"/><path d="m232 449c-8.285156 0-15-6.714844-15-15v-320c0-8.285156 6.714844-15 15-15s15 6.714844 15 15v320c0 8.285156-6.714844 15-15 15zm0 0"/><path d="m292 381c-8.285156 0-15-6.714844-15-15v-212c0-8.285156 6.714844-15 15-15s15 6.714844 15 15v212c0 8.285156-6.714844 15-15 15zm0 0"/><path d="m352 301.015625c-8.285156 0-15-6.714844-15-15v-116.25c0-8.285156 6.714844-15 15-15s15 6.714844 15 15v116.25c0 8.285156-6.714844 15-15 15zm0 0"/></g><path d="m226.988281 470c-3.101562 0-6.226562-.957031-8.910156-2.941406-6.660156-4.925782-8.066406-14.320313-3.140625-20.980469l208.226562-281.484375c.867188-1.175781.863282-2.414062-.007812-3.585938-.667969-.890624-1.835938-1.660156-2.816406-1.25-48.257813 20.203126-90.972656 22.796876-130.59375 7.925782-33.953125-12.742188-59.804688-36.117188-82.613282-56.738282-35.53125-32.125-55.433593-48.238281-84.71875-34.386718-7.488281 3.546875-16.429687.347656-19.972656-7.144532-3.542968-7.484374-.34375-16.429687 7.144532-19.972656 48.746093-23.0625 83.78125 8.613282 117.664062 39.25 44.371094 40.117188 90.253906 81.597656 181.503906 43.394532 13.5625-5.679688 29.367188-1.167969 38.433594 10.964843 8.785156 11.757813 8.824219 27.585938.09375 39.382813l-208.222656 281.488281c-2.941406 3.976563-7.476563 6.078125-12.070313 6.078125zm0 0" fill="#fdbf00"/><path d="m447.1875 143.050781c-9.066406-12.136719-24.871094-16.644531-38.433594-10.964843-91.25 38.203124-137.132812-3.277344-181.503906-43.398438-24.53125-22.175781-49.667969-44.898438-80.175781-47v30.152344c18.074219 2.078125 35.261719 16.683594 60.058593 39.101562 22.808594 20.625 48.660157 43.996094 82.613282 56.742188 39.621094 14.867187 82.339844 12.277344 130.59375-7.929688.984375-.410156 2.148437.359375 2.816406 1.253906.875 1.167969.875 2.40625.007812 3.582032l-208.222656 281.488281c-4.929687 6.660156-3.523437 16.054687 3.136719 20.980469 2.683594 1.984375 5.808594 2.941406 8.910156 2.941406 4.59375 0 9.128907-2.105469 12.070313-6.078125l208.222656-281.488281c8.730469-11.800782 8.691406-27.625-.09375-39.382813zm0 0" fill="#ff9100"/><path d="m104.339844 500h-30c-8.285156 0-15-6.714844-15-15v-124.996094l5-15-5-15v-182l5-15-5-15v-103.003906c0-8.285156 6.714844-15 15-15h30c8.285156 0 15 6.714844 15 15v103.070312l-6.902344 14.933594 6.902344 14.933594v182.132812l-7 14.933594 7 14.933594v125.0625c0 8.285156-6.714844 15-15 15zm0 0" fill="#ffde46"/><path d="m279 512h-264c-8.285156 0-15-6.714844-15-15v-.996094c0-42.460937 34.542969-77.003906 77.003906-77.003906h139.992188c42.460937 0 77.003906 34.542969 77.003906 77.003906v.996094c0 8.285156-6.714844 15-15 15zm0 0" fill="#00347b"/><path d="m119.304688 118.070312c-.433594-.035156-.863282-.066406-1.304688-.066406h-58.660156v30h58.660156c.4375 0 .871094-.027344 1.304688-.066406zm0 0" fill="#ffcd00"/><path d="m119.304688 330.070312c-.433594-.035156-.863282-.066406-1.304688-.066406h-58.660156v30h58.660156c.4375 0 .871094-.027344 1.304688-.066406zm0 0" fill="#ffcd00"/><path d="m216.996094 419h-69.921875v93h131.925781c8.285156 0 15-6.714844 15-15v-.996094c0-42.460937-34.542969-77.003906-77.003906-77.003906zm0 0" fill="#001737"/></svg>