<svg height="512pt" viewBox="0 0 512 512" width="512pt" xmlns="http://www.w3.org/2000/svg"><path d="m198.164062 150h-154.328124c-5.363282 0-10.316407-2.863281-12.996094-7.507812-2.679688-4.644532-2.671875-10.367188.015625-15.007813 5.789062-10 31.617187-54.589844 34.757812-60.011719 2.6875-4.625 7.628907-7.472656 12.976563-7.472656h84.804687c5.347657 0 10.289063 2.847656 12.972657 7.472656 3.441406 5.925782 28.988281 50.015625 34.777343 60.011719 2.6875 4.640625 2.691407 10.363281.015625 15.007813-2.679687 4.648437-7.632812 7.507812-12.996094 7.507812zm0 0" fill="#f5f0eb"/><path d="m211.144531 127.484375c-5.789062-10-31.339843-54.085937-34.777343-60.011719-2.683594-4.625-7.625-7.472656-12.972657-7.472656h-42.394531v90h77.164062c5.363282 0 10.316407-2.863281 12.996094-7.507812 2.679688-4.644532 2.671875-10.367188-.015625-15.007813zm0 0" fill="#ebe1dc"/><path d="m239.261719 461.46875c-6.761719-86.207031-24.023438-306.339844-25.695313-327.640625-.609375-7.804687-7.121094-13.828125-14.953125-13.828125h-155.25c-7.828125 0-14.339843 6.019531-14.953125 13.824219-2.398437 30.496093-19.066406 243.269531-25.675781 327.644531zm0 0" fill="#00eccf"/><path d="m120.996094 461.46875h118.265625c-6.761719-86.207031-24.023438-306.339844-25.695313-327.640625-.609375-7.804687-7.121094-13.828125-14.953125-13.828125h-77.613281v341.46875zm0 0" fill="#00cab1"/><path d="m121 346c-24.8125 0-45-20.1875-45-45 0-12.355469 6.257812-30.101562 12.113281-42.585938 10.371094-22.113281 20.820313-32.414062 32.886719-32.414062s22.515625 10.300781 32.890625 32.414062c5.851563 12.484376 12.109375 30.230469 12.109375 42.585938 0 24.8125-20.1875 45-45 45zm0 0" fill="#f5f0eb"/><path d="m175 74h-108c-8.285156 0-15-6.714844-15-15v-44c0-8.285156 6.714844-15 15-15h108c8.285156 0 15 6.714844 15 15v44c0 8.285156-6.714844 15-15 15zm0 0" fill="#00eccf"/><path d="m.046875 495.828125c-.328125 4.167969 1.101563 8.285156 3.941406 11.355469 2.835938 3.070312 6.828125 4.816406 11.011719 4.816406h212c4.183594 0 8.175781-1.746094 11.011719-4.816406 2.839843-3.070313 4.269531-7.1875 3.941406-11.355469 0 0-1.390625-17.726563-3.554687-45.339844h-234.800782c-2.164062 27.625-3.550781 45.339844-3.550781 45.339844zm0 0" fill="#00cab1"/><path d="m175 0h-54.003906v74h54.003906c8.285156 0 15-6.714844 15-15v-44c0-8.285156-6.714844-15-15-15zm0 0" fill="#00cab1"/><path d="m153.890625 258.414062c-10.375-22.113281-20.824219-32.414062-32.890625-32.414062 0 0 0 0-.003906 0v120h.003906c24.8125 0 45-20.1875 45-45 0-12.355469-6.257812-30.101562-12.109375-42.585938zm0 0" fill="#ebe1dc"/><path d="m241.953125 495.828125s-1.390625-17.726563-3.554687-45.339844h-117.402344v61.511719h106.003906c4.183594 0 8.175781-1.746094 11.011719-4.816406 2.839843-3.070313 4.269531-7.1875 3.941406-11.355469zm0 0" fill="#00aa95"/><path d="m468.164062 150h-154.328124c-5.363282 0-10.316407-2.863281-12.996094-7.507812-2.679688-4.644532-2.671875-10.367188.015625-15.007813 5.789062-10 31.617187-54.589844 34.757812-60.011719 2.6875-4.625 7.628907-7.472656 12.976563-7.472656h84.804687c5.347657 0 10.289063 2.847656 12.972657 7.472656 3.441406 5.925782 28.988281 50.015625 34.777343 60.011719 2.6875 4.640625 2.691407 10.363281.015625 15.007813-2.679687 4.648437-7.632812 7.507812-12.996094 7.507812zm0 0" fill="#f5f0eb"/><path d="m481.144531 127.484375c-5.789062-10-31.339843-54.085937-34.777343-60.011719-2.683594-4.625-7.625-7.472656-12.972657-7.472656h-42.394531v90h77.164062c5.363282 0 10.316407-2.863281 12.996094-7.507812 2.679688-4.644532 2.671875-10.367188-.015625-15.007813zm0 0" fill="#ebe1dc"/><path d="m509.261719 461.46875c-6.761719-86.207031-24.023438-306.339844-25.695313-327.640625-.609375-7.804687-7.121094-13.828125-14.953125-13.828125h-155.25c-7.828125 0-14.339843 6.019531-14.953125 13.824219-2.398437 30.496093-19.066406 243.269531-25.675781 327.644531zm0 0" fill="#ff193d"/><path d="m390.996094 461.46875h118.265625c-6.761719-86.207031-24.023438-306.339844-25.695313-327.640625-.609375-7.804687-7.121094-13.828125-14.953125-13.828125h-77.613281v341.46875zm0 0" fill="#be003b"/><path d="m391 346c-24.8125 0-45-20.1875-45-45 0-12.355469 6.257812-30.101562 12.113281-42.585938 10.371094-22.113281 20.820313-32.414062 32.886719-32.414062s22.515625 10.300781 32.890625 32.414062c5.851563 12.484376 12.109375 30.230469 12.109375 42.585938 0 24.8125-20.1875 45-45 45zm0 0" fill="#f5f0eb"/><path d="m445 74h-108c-8.285156 0-15-6.714844-15-15v-44c0-8.285156 6.714844-15 15-15h108c8.285156 0 15 6.714844 15 15v44c0 8.285156-6.714844 15-15 15zm0 0" fill="#ff193d"/><path d="m270.046875 495.828125c-.328125 4.167969 1.101563 8.285156 3.941406 11.355469 2.835938 3.070312 6.828125 4.816406 11.011719 4.816406h212c4.183594 0 8.175781-1.746094 11.011719-4.816406 2.839843-3.070313 4.269531-7.1875 3.941406-11.355469 0 0-1.390625-17.726563-3.554687-45.339844h-234.800782c-2.164062 27.625-3.550781 45.339844-3.550781 45.339844zm0 0" fill="#be003b"/><path d="m445 0h-54.003906v74h54.003906c8.285156 0 15-6.714844 15-15v-44c0-8.285156-6.714844-15-15-15zm0 0" fill="#be003b"/><path d="m423.890625 258.414062c-10.375-22.113281-20.824219-32.414062-32.890625-32.414062 0 0 0 0-.003906 0v120h.003906c24.8125 0 45-20.1875 45-45 0-12.355469-6.257812-30.101562-12.109375-42.585938zm0 0" fill="#ebe1dc"/><path d="m511.953125 495.828125s-1.390625-17.726563-3.554687-45.339844h-117.402344v61.511719h106.003906c4.183594 0 8.175781-1.746094 11.011719-4.816406 2.839843-3.070313 4.269531-7.1875 3.941406-11.355469zm0 0" fill="#97002c"/></svg>