<svg height="512pt" viewBox="-64 0 512 512" width="512pt" xmlns="http://www.w3.org/2000/svg"><path d="m342.109375 144.972656c-5.582031-12.9375-10.855469-25.15625-15.128906-36.242187-10.507813-27.246094-8.445313-42.46875-3.488281-47.226563 2.875-2.753906 7.355468-2.230468 10.316406-.945312 2.195312.953125 7.292968 3.90625 7.203125 10.730468-.105469 8.28125 6.519531 15.085938 14.804687 15.191407 8.285156.089843 15.085938-6.519531 15.191406-14.804688.222657-16.972656-9.457031-31.777343-25.253906-38.636719-15.027344-6.519531-31.917968-3.847656-43.03125 6.816407-4.820312 4.625-10.578125 12.777343-12.527344 26.144531h-22.714843v-28c0-8.285156-6.714844-15-15-15-8.28125 0-15 6.714844-15 15v28h-30v-51c0-8.285156-6.714844-15-15-15-8.285157 0-15 6.714844-15 15v51h-30v-28c0-8.285156-6.714844-15-15-15-8.285157 0-15 6.714844-15 15v28h-22.714844c-1.945313-13.363281-7.703125-21.519531-12.527344-26.144531-11.113281-10.664063-28.003906-13.335938-43.03125-6.816407-15.796875 6.859376-25.472656 21.664063-25.253906 38.636719.105469 8.285157 6.910156 14.863281 15.195313 14.804688 8.28125-.105469 14.910156-6.910157 14.800781-15.191407-.085938-6.820312 5.007812-9.773437 7.203125-10.730468 2.964844-1.285156 7.445312-1.8125 10.316406.945312 4.960938 4.757813 7.023438 19.980469-3.484375 47.226563-4.277344 11.085937-9.550781 23.308593-15.132813 36.246093-23.316406 54.039063-52.332031 121.292969-39.851562 179.359376 6.371094 29.644531 20.984375 49.460937 43.433594 58.902343 18.726562 7.875 39.816406 7.375 58.417968 6.925781 17.882813-.425781 34.773438-.828124 42.175782 6.398438 4.59375 4.484375 6.925781 13.207031 6.925781 25.917969 0 8.285156 6.714844 15 15 15 8.28125 0 15-6.714844 15-15 0-12.914063-1.917969-23.664063-5.789063-32.476563h28.636719c-3.871093 8.8125-5.789062 19.5625-5.789062 32.476563 0 8.285156 6.714843 15 15 15 8.285156 0 15-6.714844 15-15 0-12.710938 2.328125-21.433594 6.921875-25.917969 5.144531-5.023438 14.875-6.355469 26.335937-6.5625 0 0 13.066407.097656 15.84375.164062 18.601563.445313 39.6875.949219 58.417969-6.925781 22.449219-9.441406 37.0625-29.257812 43.433594-58.902343 12.476562-58.066407-16.539063-125.320313-39.855469-179.363282zm-104.628906-48.972656v264h-30v-264zm-60 0v264h-30v-264zm-73.347657 264.175781c-39.867187.953125-62.859374-.535156-71.804687-42.144531-10.460937-48.683594 16.445313-111.054688 38.066406-161.171875 5.703125-13.214844 11.089844-25.699219 15.578125-37.335937 3.335938-8.65625 5.648438-16.464844 7.15625-23.523438h24.351563v263.96875c-4.4375-.007812-8.90625.097656-13.347657.207031zm248.5-42.144531c-8.941406 41.609375-31.941406 43.101562-71.804687 42.144531-1.746094-.042969-11.734375-.207031-13.347656-.207031v-263.96875h24.347656c1.511719 7.058594 3.820313 14.867188 7.160156 23.523438 4.484375 11.636718 9.871094 24.117187 15.574219 37.332031 21.625 50.117187 48.53125 112.488281 38.070312 161.175781zm0 0" fill="#ffde46"/><path d="m342.109375 144.972656c-5.582031-12.9375-10.855469-25.15625-15.128906-36.242187-10.507813-27.246094-8.445313-42.46875-3.488281-47.226563 2.875-2.753906 7.355468-2.230468 10.316406-.945312 2.195312.953125 7.292968 3.90625 7.203125 10.730468-.105469 8.28125 6.519531 15.085938 14.804687 15.191407 8.285156.089843 15.085938-6.519531 15.191406-14.804688.222657-16.972656-9.457031-31.777343-25.253906-38.636719-15.027344-6.519531-31.917968-3.847656-43.03125 6.816407-4.820312 4.625-10.578125 12.777343-12.527344 26.144531h-22.714843v-28c0-8.285156-6.714844-15-15-15-8.28125 0-15 6.714844-15 15v28h-30v-51c0-8.277344-6.703125-14.9882812-14.980469-15v390h14.296875c-3.871094 8.8125-5.785156 19.566406-5.785156 32.480469 0 8.285156 6.714843 15 15 15 8.28125 0 15-6.714844 15-15 0-12.714844 2.328125-21.433594 6.921875-25.921875 5.144531-5.019532 14.875-6.351563 26.332031-6.558594 0 0 13.070313.097656 15.84375.164062 18.605469.445313 39.691406.949219 58.421875-6.925781 22.449219-9.441406 37.058594-29.261719 43.429688-58.902343 12.480468-58.066407-16.535157-125.320313-39.851563-179.363282zm-104.628906 215.027344h-30v-264h30zm115.152343-41.96875c-8.941406 41.609375-31.941406 43.101562-71.804687 42.144531-1.746094-.042969-11.734375-.207031-13.347656-.207031v-263.96875h24.347656c1.511719 7.058594 3.820313 14.867188 7.160156 23.523438 4.484375 11.636718 9.871094 24.117187 15.574219 37.332031 21.625 50.117187 48.53125 112.488281 38.070312 161.175781zm0 0" fill="#ffcd00"/><path d="m318.480469 512h-252c-8.285157 0-15-6.714844-15-15v.4375c0-40.492188 35.441406-73.4375 79.003906-73.4375h123.992187c43.5625 0 79.003907 32.945312 79.003907 73.4375v-.4375c0 8.285156-6.714844 15-15 15zm0 0" fill="#fdbf00"/><g fill="#ff9100"><path d="m333.480469 497c0 .050781-.007813.101562-.007813.152344 0 .09375.007813.191406.007813.285156zm0 0"/><path d="m254.476562 424h-61.976562v88h125.980469c8.230469 0 14.910156-6.632812 14.992187-14.847656-.167968-40.363282-35.535156-73.152344-78.996094-73.152344zm0 0"/></g></svg>