<svg height="512pt" viewBox="0 0 512 512" width="512pt" xmlns="http://www.w3.org/2000/svg"><g fill-rule="evenodd"><path d="m256 497c132.738281 0 241-108.261719 241-241s-108.261719-241-241-241-241 108.261719-241 241 108.261719 241 241 241zm0 0" fill="#f5f0eb"/><path d="m256 15v482c132.738281 0 241-108.261719 241-241s-108.261719-241-241-241zm0 0" fill="#ebe1dc"/><path d="m198 124.074219h116c16.5 0 30 13.5 30 30v203.851562c0 16.5-13.5 30-30 30h-116c-16.5 0-30-13.5-30-30v-203.851562c0-16.5 13.5-30 30-30zm0 0" fill="#00aadf"/><path d="m314 124.074219h-58v263.851562h58c16.5 0 30-13.5 30-30v-203.851562c0-16.5-13.5-30-30-30zm0 0" fill="#0079c2"/></g><path d="m314 109.074219h-116c-24.8125 0-45 20.1875-45 45v203.851562c0 24.8125 20.1875 45 45 45h116c24.8125 0 45-20.1875 45-45v-203.851562c0-24.8125-20.1875-45-45-45zm15 38.691406v192.289063h-146v-192.289063zm0 0" fill="#00347b"/><path d="m314 109.074219h-58v38.691406h73v192.289063h-73v62.871093h58c24.8125 0 45-20.1875 45-45v-203.851562c0-24.8125-20.1875-45-45-45zm0 0" fill="#001737"/><path d="m256 0c-141.160156 0-256 114.839844-256 256s114.839844 256 256 256 256-114.839844 256-256-114.839844-256-256-256zm-226 256c0-58.945312 22.691406-112.683594 59.789062-152.960938l319.171876 319.171876c-40.277344 37.097656-94.015626 59.789062-152.960938 59.789062-124.617188 0-226-101.382812-226-226zm399.652344 144.476562-318.128906-318.128906c39.199218-32.664062 89.582031-52.347656 144.476562-52.347656 124.617188 0 226 101.382812 226 226 0 54.894531-19.683594 105.277344-52.347656 144.476562zm0 0" fill="#ff193d"/><path d="m271 371.171875c0 8.28125-6.714844 15-15 15s-15-6.71875-15-15c0-8.285156 6.714844-15 15-15s15 6.714844 15 15zm0 0" fill="#00429d"/><path d="m256 356.171875v30c8.285156 0 15-6.71875 15-15 0-8.285156-6.714844-15-15-15zm0 0" fill="#00347b"/><path d="m256 0v30c124.617188 0 226 101.382812 226 226 0 54.894531-19.683594 105.277344-52.347656 144.476562l-173.652344-173.652343v42.425781l152.960938 152.960938c-40.277344 37.097656-94.015626 59.789062-152.960938 59.789062v30c141.160156 0 256-114.839844 256-256s-114.839844-256-256-256zm0 0" fill="#be003b"/></svg>