<svg height="512pt" viewBox="-33 0 512 512" width="512pt" xmlns="http://www.w3.org/2000/svg"><path d="m303.976562 512h-168.0625c-5.828124 0-10.832031-4.148438-11.910156-9.878906-1.078125-5.730469 2.074219-11.414063 7.507813-13.53125 16.855469-6.574219 30.488281-12.128906 39.773437-18.765625 6.28125-4.484375 8.566406-9.589844 9.375-13.082031 1.273438-5.492188 6.167969-9.378907 11.804688-9.378907h54.941406c5.625 0 10.515625 3.871094 11.796875 9.351563.824219 3.503906 3.121094 8.625 9.398437 13.109375 9.285157 6.636719 22.917969 12.191406 39.773438 18.765625 5.433594 2.117187 8.585938 7.800781 7.507812 13.53125-1.074218 5.730468-6.078124 9.878906-11.90625 9.878906zm0 0" fill="#fdbf00"/><path d="m308.378906 488.589844c-16.855468-6.574219-30.488281-12.128906-39.777344-18.765625-6.277343-4.484375-8.574218-9.605469-9.394531-13.109375-1.285156-5.480469-6.171875-9.351563-11.800781-9.351563h-27.460938v64.636719h84.03125c5.828126 0 10.832032-4.148438 11.910157-9.878906 1.078125-5.730469-2.078125-11.414063-7.507813-13.53125zm0 0" fill="#ff9100"/><path d="m389.960938 221.539062c-5.1875 0-10.226563-2.6875-13.007813-7.5-4.140625-7.175781-1.683594-16.347656 5.492187-20.492187l40.769532-23.535156c7.171875-4.144531 16.347656-1.6875 20.488281 5.488281 4.144531 7.175781 1.6875 16.347656-5.488281 20.488281l-40.769532 23.539063c-2.363281 1.363281-4.941406 2.011718-7.484374 2.011718zm0 0" fill="#ff9100"/><path d="m55.757812 221.539062c-2.546874 0-5.125-.644531-7.488281-2.011718l-40.765625-23.539063c-7.175781-4.140625-9.632812-13.3125-5.492187-20.488281s13.316406-9.636719 20.492187-5.488281l40.765625 23.535156c7.175781 4.144531 9.632813 13.316406 5.492188 20.492187-2.78125 4.8125-7.820313 7.5-13.003907 7.5zm0 0" fill="#fdbf00"/><path d="m382.851562 178.53125-74.40625-42.960938c-4.90625-2.832031-7.5-7.324218-7.5-12.988281l-.023437-120.679687h-161.976563v120.679687c0 5.664063-2.59375 10.15625-7.5 12.988281l-74.40625 42.960938c-15.101562 8.71875-23.484374 24.3125-22.417968 41.722656.484375 7.933594 1.261718 15.859375 2.3125 23.746094.898437 6.730469 21.816406 16.617188 21.816406 16.617188s-17.179688 10.089843-16.433594 13.382812c2.296875 10.164062 5.050782 20.191406 8.242188 30.003906 2.230468 6.851563 16.191406 14.316406 16.191406 14.316406s-6.183594 12.457032-4.765625 15.683594c5.335937 12.144532 11.378906 23.789063 18.078125 34.773438 27.5 45.082031 64.214844 75.464844 103.378906 85.542968 1.222656.316407 2.480469.476563 3.738282.476563h65.53125c1.261718 0 2.519531-.160156 3.738281-.476563 39.164062-10.078124 75.878906-40.460937 103.378906-85.542968 6.699219-10.984375 12.742187-22.628906 18.082031-34.773438 2.160156-4.921875-16.179687-15.003906-16.179687-15.003906s25.953125-9.9375 27.601562-14.996094c3.191407-9.8125 5.949219-19.839844 8.246094-30.003906 1.121094-4.96875-16.101563-15-16.101563-15s20.8125-9.980469 21.480469-15c1.054688-7.886719 1.828125-15.816406 2.3125-23.75 1.066407-17.402344-7.316406-33-22.417969-41.71875zm0 0" fill="#ffde46"/><path d="m382.851562 178.53125-74.40625-42.960938c-4.90625-2.832031-7.5-7.324218-7.5-12.988281l-.023437-120.679687h-80.980469v452.894531h32.769532c1.261718 0 2.519531-.160156 3.738281-.476563 39.164062-10.078124 75.878906-40.460937 103.378906-85.542968 6.699219-10.984375 12.742187-22.628906 18.082031-34.773438 2.160156-4.921875-16.179687-15.003906-16.179687-15.003906s25.953125-9.9375 27.601562-14.996094c3.191407-9.8125 5.949219-19.839844 8.246094-30.003906 1.121094-4.96875-16.101563-15-16.101563-15s20.8125-9.980469 21.480469-15c1.054688-7.886719 1.828125-15.816406 2.3125-23.75 1.066407-17.402344-7.316406-33-22.417969-41.71875zm0 0" fill="#ffcd00"/><g fill="#ff193d"><path d="m313.769531 30h-187.648437c-8.285156 0-15-6.714844-15-15s6.714844-15 15-15h187.648437c8.285157 0 15 6.714844 15 15s-6.714843 15-15 15zm0 0"/><path d="m36.941406 244c1.34375 10.085938 3.140625 20.109375 5.375 30h355.257813c2.234375-9.890625 4.03125-19.914062 5.375-30zm0 0"/><path d="m389.324219 304h-338.757813c3.339844 10.265625 7.15625 20.289062 11.421875 30h315.914063c4.269531-9.710938 8.082031-19.734375 11.421875-30zm0 0"/></g><path d="m313.769531 0h-93.828125v30h93.828125c8.285157 0 15-6.714844 15-15s-6.714843-15-15-15zm0 0" fill="#be003b"/><path d="m219.941406 244v30h177.632813c2.234375-9.890625 4.03125-19.914062 5.375-30zm0 0" fill="#be003b"/><path d="m219.941406 304v30h157.960938c4.269531-9.710938 8.082031-19.734375 11.421875-30zm0 0" fill="#be003b"/></svg>