<svg height="512pt" viewBox="0 0 512 512" width="512pt" xmlns="http://www.w3.org/2000/svg"><path d="m89 328.835938h-60c-8.285156 0-15-6.71875-15-15v-181c0-8.285157 6.714844-15 15-15h60c8.285156 0 15 6.714843 15 15v181c0 8.28125-6.714844 15-15 15zm0 0" fill="#ebe1dc"/><path d="m59 117.835938c-25.363281 0-46-20.636719-46-46 0-12.992188 6.496094-30.519532 12.0625-41.578126 10.097656-20.078124 21.515625-30.257812 33.9375-30.257812s23.839844 10.179688 33.9375 30.257812c5.566406 11.058594 12.0625 28.585938 12.0625 41.578126 0 25.363281-20.636719 46-46 46zm0 0" fill="#fdbf00"/><path d="m212.503906 444h-96.503906c-39.699219 0-72-32.300781-72-72v-12c0-8.285156 6.714844-15 15-15s15 6.714844 15 15v12c0 23.160156 18.839844 42 42 42h96.503906c8.28125 0 15 6.714844 15 15s-6.71875 15-15 15zm0 0" fill="#ffcd00"/><path d="m65 372.089844h-12c-29.226562 0-53-23.773438-53-53v-10c0-8.285156 6.714844-15 15-15h88c8.285156 0 15 6.714844 15 15v10c0 29.222656-23.773438 53-53 53zm0 0" fill="#fdbf00"/><path d="m408 313.835938v-181c0-8.285157 6.714844-15 15-15h60c8.285156 0 15 6.714843 15 15v181c0 8.28125-6.714844 15-15 15h-60c-8.285156 0-15-6.71875-15-15zm0 0" fill="#dcd2cd"/><path d="m407 71.835938c0-12.992188 6.496094-30.519532 12.0625-41.578126 10.097656-20.078124 21.515625-30.257812 33.9375-30.257812s23.839844 10.179688 33.9375 30.257812c5.566406 11.058594 12.0625 28.585938 12.0625 41.578126 0 25.363281-20.636719 46-46 46s-46-20.636719-46-46zm0 0" fill="#ff9100"/><path d="m299.496094 444h96.503906c39.699219 0 72-32.300781 72-72v-12c0-8.285156-6.714844-15-15-15s-15 6.714844-15 15v12c0 23.160156-18.839844 42-42 42h-96.503906c-8.28125 0-15 6.714844-15 15s6.71875 15 15 15zm0 0" fill="#fdbf00"/><path d="m394 319.089844v-10c0-8.285156 6.714844-15 15-15h88c8.285156 0 15 6.714844 15 15v10c0 29.226562-23.773438 53-53 53h-12c-29.226562 0-53-23.777344-53-53zm0 0" fill="#ff9100"/><path d="m256 512c-23.578125 0-44.988281-16.152344-60.285156-45.480469-13.679688-26.230469-21.214844-60.683593-21.214844-97.019531s7.535156-70.789062 21.214844-97.019531c15.296875-29.328125 36.707031-45.480469 60.285156-45.480469s44.988281 16.152344 60.285156 45.480469c13.679688 26.226562 21.214844 60.683593 21.214844 97.019531s-7.535156 70.789062-21.214844 97.019531c-15.296875 29.328125-36.707031 45.480469-60.285156 45.480469zm0 0" fill="#ffde46"/><path d="m316.285156 272.480469c-15.296875-29.328125-36.707031-45.480469-60.285156-45.480469v285c23.578125 0 44.988281-16.152344 60.285156-45.480469 13.679688-26.226562 21.214844-60.683593 21.214844-97.019531s-7.535156-70.789062-21.214844-97.019531zm0 0" fill="#ffcd00"/></svg>