<svg height="512pt" viewBox="0 0 512 512" width="512pt" xmlns="http://www.w3.org/2000/svg"><path d="m352.988281 474.761719h-237.988281c-4.039062 0-7.910156-1.628907-10.730469-4.519531-2.824219-2.890626-4.359375-6.796876-4.265625-10.835938l-2-335.765625c.152344-6.449219 4.417969-12.082031 10.585938-13.976563 6.171875-1.902343 12.859375.363282 16.613281 5.613282l239.988281 335.761718c3.269532 4.574219 3.707032 10.589844 1.136719 15.585938s-7.722656 8.136719-13.339844 8.136719zm0 0" fill="#ffde46"/><path d="m147.023438 466.625c-2.570313-4.996094-2.132813-11.011719 1.136718-15.585938l239.988282-335.761718c3.75-5.25 10.441406-7.515625 16.609374-5.613282 6.171876 1.894532 10.433594 7.527344 10.589844 13.976563l-2 335.765625c.09375 4.039062-1.441406 7.945312-4.265625 10.835938-2.824219 2.890624-6.691406 4.519531-10.730469 4.519531h-237.992187c-5.617187 0-10.765625-3.140625-13.335937-8.136719zm0 0" fill="#ffcd00"/><path d="m366.328125 466.625c2.570313-4.996094 2.132813-11.011719-1.136719-15.585938l-108.515625-151.820312-108.519531 151.820312c-3.265625 4.574219-3.703125 10.589844-1.132812 15.585938 2.570312 4.996094 7.71875 8.136719 13.335937 8.136719h192.628906c5.617188 0 10.769531-3.140625 13.339844-8.136719zm0 0" fill="#fdbf00"/><path d="m365.191406 451.039062-108.515625-151.820312v175.542969h96.3125c5.617188 0 10.769531-3.140625 13.339844-8.136719s2.132813-11.011719-1.136719-15.585938zm0 0" fill="#ff9100"/><path d="m105 442.28125h302v69.71875h-302zm0 0" fill="#00347b"/><path d="m256.339844 442.28125h150.660156v69.71875h-150.660156zm0 0" fill="#001737"/><path d="m105 112.007812c-8.285156 0-15 6.714844-15 15v45.800782l-60-44.503906v-11.296876c0-8.285156-6.714844-15-15-15s-15 6.714844-15 15v379.992188c0 8.285156 6.714844 15 15 15s15-6.714844 15-15v-80.871094l60 44.503906v36.367188c0 8.285156 6.714844 15 15 15s15-6.714844 15-15v-369.992188c0-8.285156-6.714844-15-15-15zm-15 185.503907-46.339844-34.371094 46.339844-34.0625zm-60-7.148438 47.597656 35.304688-47.597656 34.984375zm47.597656-89.398437-47.597656 34.984375v-70.292969zm-34.65625 187.410156 47.058594-34.589844v69.496094zm0 0" fill="#ebe1dc"/><path d="m496 112.007812c-8.285156 0-15 6.714844-15 15v45.800782l-60-44.503906v-11.296876c0-8.285156-6.714844-15-15-15s-15 6.714844-15 15v379.992188c0 8.285156 6.714844 15 15 15s15-6.714844 15-15v-80.871094l60 44.503906v36.367188c0 8.285156 6.714844 15 15 15s15-6.714844 15-15v-369.992188c0-8.285156-6.714844-15-15-15zm-15 185.503907-46.339844-34.371094 46.339844-34.0625zm-60-7.148438 47.597656 35.304688-47.597656 34.984375zm47.597656-89.398437-47.597656 34.984375v-70.292969zm-34.65625 187.410156 47.058594-34.589844v69.496094zm0 0" fill="#dcd2cd"/><path d="m496.929688 134.78125h-481.859376c-4.066406 0-7.957031-1.648438-10.785156-4.570312-2.824218-2.921876-4.3437498-6.867188-4.207031-10.929688 1.074219-31.984375 14.410156-61.957031 37.558594-84.398438 23.207031-22.492187 53.675781-34.882812 85.804687-34.882812h265.117188c32.125 0 62.597656 12.390625 85.804687 34.886719 23.144531 22.4375 36.484375 52.410156 37.558594 84.394531.136719 4.0625-1.382813 8.007812-4.207031 10.929688-2.828125 2.921874-6.71875 4.570312-10.785156 4.570312zm0 0" fill="#00aadf"/><path d="m474.363281 34.886719c-23.207031-22.496094-53.679687-34.886719-85.804687-34.886719h-132.21875v134.78125h240.589844c4.066406 0 7.957031-1.648438 10.785156-4.570312 2.824218-2.921876 4.34375-6.867188 4.207031-10.929688-1.074219-31.984375-14.410156-61.957031-37.558594-84.394531zm0 0" fill="#0079c2"/></svg>