<svg height="511pt" viewBox="0 0 511.99979 511" width="511pt" xmlns="http://www.w3.org/2000/svg"><path d="m497.484375 15.015625c-19.359375-19.355469-50.738281-19.355469-70.09375 0l-35.050781 35.046875 70.097656 70.09375 35.046875-35.046875c19.355469-19.355469 19.355469-50.738281 0-70.09375zm0 0" fill="#ffe100"/><path d="m462.4375 120.15625 35.046875-35.046875c19.355469-19.355469 19.355469-50.738281 0-70.09375l-70.09375 70.09375zm0 0" fill="#ecb402"/><path d="m400.601562 16.570312h-40.980468c-19.023438 0-36.910156 7.410157-50.363282 20.863282l-112.058593 112.058594c-2.71875 2.714843-4.398438 6.46875-4.398438 10.613281 0 8.28125 6.714844 15 15 15 4.144531 0 7.894531-1.683594 10.609375-4.398438l112.0625-112.0625c7.785156-7.785156 18.140625-12.074219 29.148438-12.074219h40.980468c8.28125 0 15-6.714843 15-15 0-8.285156-6.71875-15-15-15zm0 0" fill="#ffe100"/><path d="m4.394531 508.109375c-4.160156-4.160156-5.503906-10.367187-3.4375-15.875l48.199219-128.53125c.75-2.003906 1.921875-3.824219 3.4375-5.339844l337.398438-337.398437c5.855468-5.859375 15.363281-5.855469 21.214843 0l77.9375 77.9375c5.828125 5.828125 5.863281 15.269531.074219 21.136718l-335.003906 339.796876c-1.527344 1.550781-3.375 2.746093-5.414063 3.511718l-128.535156 48.203125c-5.125 1.921875-11.433594 1-15.871094-3.441406zm0 0" fill="#00e1c8"/><path d="m489.148438 98.898438-37.769532-37.769532-10.609375 10.609375-326.800781 326.792969-109.578125 109.578125c4.460937 4.460937 10.769531 5.351563 15.878906 3.441406l128.53125-48.199219c2.039063-.773437 3.890625-1.960937 5.417969-3.523437l10.449219-10.597656 324.550781-329.191407c5.792969-5.871093 5.75-15.308593-.070312-21.140624zm0 0" fill="#009b91"/><path d="m63.199219 347.757812-10.605469 10.605469c-1.511719 1.515625-2.6875 3.335938-3.4375 5.339844l-48.199219 128.53125c-2.066406 5.507813-.722656 11.714844 3.4375 15.875 4.460938 4.460937 10.765625 5.355469 15.875 3.4375l128.53125-48.199219c2.039063-.765625 3.886719-1.960937 5.414063-3.515625l10.457031-10.605469zm0 0" fill="#ffe100"/><path d="m164.667969 449.230469-10.449219 10.597656c-1.527344 1.5625-3.378906 2.75-5.417969 3.523437l-128.53125 48.199219c-5.109375 1.910157-11.417969 1.019531-15.878906-3.441406l109.578125-109.578125zm0 0" fill="#ecb402"/></svg>