<svg height="512pt" viewBox="0 0 512 512.00032" width="512pt" xmlns="http://www.w3.org/2000/svg"><path d="m153.625 411.699219-53.324219-53.320313s249.484375-274.4375 308.792969-339.675781c10.800781-11.886719 26.214844-18.703125 42.285156-18.703125 33.484375 0 60.621094 27.078125 60.621094 60.613281 0 16.082031-6.816406 31.492188-18.707031 42.292969zm0 0" fill="#eff6fe"/><path d="m512 60.609375c0 16.082031-6.820312 31.5-18.710938 42.300781l-336.390624 305.808594-3.277344 2.980469-26.660156-26.660157 367.289062-367.289062c10.980469 10.960938 17.75 26.101562 17.75 42.859375zm0 0" fill="#d2dce7"/><path d="m4.394531 507.613281c-3.726562-3.722656-5.222656-9.128906-3.945312-14.242187l22.179687-88.730469c7.53125-30.125 34.484375-51.164063 65.539063-51.164063 38.808593 0 70.367187 31.558594 70.367187 70.347657 0 31.074219-21.039062 58.023437-51.167968 65.558593-37.75 9.4375-88.730469 22.179688-88.730469 22.179688-.167969.042969-7.972657 2.324219-14.242188-3.949219zm0 0" fill="#ff7d00"/><path d="m156.902344 408.730469c-2.929688-13.351563-9.660156-25.28125-19-34.621094l-133.511719 133.507813c6.269531 6.273437 14.082031 3.980468 14.25 3.941406 0 0 50.980469-12.738282 88.730469-22.179688 30.121094-7.53125 51.160156-34.480468 51.160156-65.550781 0-5.179687-.558594-10.238281-1.628906-15.097656zm0 0" fill="#f13800"/><path d="m451.378906 0c-16.070312 0-31.484375 6.816406-42.285156 18.703125-32.832031 36.117187-123.945312 136.34375-198.75 218.628906l64.324219 64.328125 218.625-198.75c11.890625-10.804687 18.707031-26.214844 18.707031-42.296875 0-33.535156-27.136719-60.613281-60.621094-60.613281zm0 0" fill="#5258e3"/><path d="m242.511719 269.5 32.15625 32.15625 218.625-198.75c11.890625-10.800781 18.707031-26.210938 18.707031-42.292969 0-16.753906-6.773438-31.898437-17.730469-42.855469l-43.058593 43.058594zm0 0" fill="#1827c6"/></svg>