<svg height="512pt" viewBox="0 -32 512 512" width="512pt" xmlns="http://www.w3.org/2000/svg"><path d="m288.132812 447.734375h-160.664062c-3.980469 0-7.796875-1.582031-10.609375-4.394531l-101.105469-101.109375c-10.160156-10.15625-15.753906-23.664063-15.753906-38.03125 0-14.367188 5.59375-27.875 15.753906-38.03125l250.414063-250.414063c10.15625-10.160156 23.664062-15.753906 38.03125-15.753906 14.367187 0 27.875 5.59375 38.03125 15.753906l154.015625 154.011719c10.15625 10.160156 15.753906 23.667969 15.753906 38.035156 0 14.367188-5.597656 27.871094-15.753906 38.03125l-197.507813 197.507813c-2.8125 2.8125-6.625 4.394531-10.605469 4.394531zm0 0" fill="#eff6fe"/><path d="m512 207.800781c0-14.367187-5.601562-27.875-15.753906-38.027343l-77.011719-77.011719-326.476563 326.476562 24.097657 24.101563c2.8125 2.8125 6.632812 4.394531 10.613281 4.390625l160.660156.003906c3.980469-.003906 7.792969-1.582031 10.609375-4.394531l197.507813-197.511719c10.152344-10.152344 15.753906-23.660156 15.753906-38.027344zm0 0" fill="#d2dce7"/><path d="m342.230469 15.753906c-10.15625-10.160156-23.664063-15.753906-38.03125-15.753906-14.367188 0-27.875 5.59375-38.03125 15.753906l-125.207031 125.207032 230.078124 230.078124 125.207032-125.207031c10.160156-10.15625 15.753906-23.664062 15.753906-38.03125 0-14.367187-5.59375-27.875-15.753906-38.035156zm0 0" fill="#00e1c8"/><path d="m496.246094 245.828125-125.207032 125.207031-115.039062-115.039062 163.234375-163.234375 77.011719 77.011719c10.152344 10.152343 15.753906 23.660156 15.753906 38.027343 0 14.367188-5.601562 27.875-15.753906 38.027344zm0 0" fill="#009b91"/><path d="m448.800781 447.734375h-385.601562c-8.285157 0-15-6.714844-15-15 0-8.28125 6.714843-15 15-15h385.601562c8.285157 0 15 6.71875 15 15 0 8.285156-6.714843 15-15 15zm0 0" fill="#a1aebc"/></svg>