<svg height="512pt" viewBox="0 0 512.0005 512" width="512pt" xmlns="http://www.w3.org/2000/svg"><path d="m282.671875 389.992188-160.667969-160.667969c-5.894531-5.894531-15.410156-5.804688-21.214844 0l-96.390624 96.40625c-5.863282 5.863281-5.863282 15.351562 0 21.210937l160.660156 160.664063c5.863281 5.863281 15.359375 5.855469 21.214844 0l96.398437-96.398438c5.855469-5.855469 5.863281-15.355469 0-21.214843zm0 0" fill="#5258e3"/><path d="m282.671875 389.988281-80.332031-80.328125-117.609375 117.609375 80.328125 80.339844c5.863281 5.859375 15.363281 5.851563 21.210937 0l96.402344-96.398437c5.859375-5.863282 5.859375-15.363282 0-21.222657zm0 0" fill="#1827c6"/><path d="m187.984375 412.921875-58.804687 58.804687-21.210938-21.214843 58.800781-58.800781c5.863281-5.863282 15.359375-5.855469 21.214844 0 5.859375 5.859374 5.859375 15.351562 0 21.210937zm0 0" fill="#000e5c"/><path d="m120.285156 345.222656-58.804687 58.804688-21.210938-21.214844 58.800781-58.800781c5.863282-5.863281 15.359376-5.855469 21.214844 0 5.863282 5.863281 5.863282 15.351562 0 21.210937zm0 0" fill="#1827c6"/><path d="m412.105469 0c-22.042969 0-42.945313 10.644531-55.921875 28.476562l-107.820313 148.257813h-50.835937c-27.125 0-54.289063 6.410156-78.570313 18.546875l-10.402343 5.203125c-8.902344 4.460937-15.171876 12.988281-16.761719 22.808594-1.597657 9.828125 1.65625 19.898437 8.699219 26.941406l167.035156 167.035156c.253906.253907 8.183594 8.976563 21.40625 7.65625 7.96875-.777343 15.085937-5.046875 19.53125-11.714843 17.535156-26.300782 26.804687-56.910157 26.804687-88.519532v-61.054687l148.257813-107.824219c17.828125-12.972656 28.472656-33.875 28.472656-55.933594 0-55.074218-44.804688-99.878906-99.894531-99.878906zm4.5625 110.332031c-8.28125 0-15-6.71875-15-15 0-8.277343 6.71875-15 15-15s15 6.722657 15 15c0 8.28125-6.71875 15-15 15zm0 0" fill="#ffe100"/><path d="m482.710938 29.289062-55.4375 55.4375c2.714843 2.714844 4.394531 6.464844 4.394531 10.605469 0 8.28125-6.71875 15-15 15-4.140625 0-7.890625-1.679687-10.605469-4.394531l-224.933594 224.933594 86.402344 86.398437c.109375.109375 1.890625 2.070313 5.089844 3.992188 3.679687 2.199219 9.238281 4.378906 16.308594 3.667969 7.972656-.78125 15.089843-5.050782 19.53125-11.71875 17.539062-26.300782 26.808593-56.910157 26.808593-88.519532v-61.050781l148.25-107.832031c17.832031-12.96875 28.480469-33.867188 28.480469-55.929688 0-27.539062-11.199219-52.5-29.289062-70.589844zm0 0" fill="#ecb402"/></svg>