<svg height="512pt" viewBox="0 -3 512.00098 512" width="512pt" xmlns="http://www.w3.org/2000/svg"><path d="m45.238281 503.066406-38.5625-25.707031c-7.878906-5.253906-8.96875-16.40625-2.285156-23.085937l48.199219-48.199219c.3125-.3125 4.125-4.394531 10.605468-4.394531 3.980469 0 7.796876 1.582031 10.609376 4.394531l32.132812 32.132812c5.855469 5.859375 5.855469 15.355469 0 21.210938l-41.773438 41.773437c-7.089843 7.09375-15.785156 3.972656-18.925781 1.875zm0 0" fill="#ff7d00"/><path d="m105.9375 438.203125-16.066406-16.066406-66.410156 66.410156 21.777343 14.523437c3.140625 2.09375 11.832031 5.210938 18.921875-1.878906l41.777344-41.777344c5.851562-5.851562 5.859375-15.351562 0-21.210937zm0 0" fill="#f13800"/><path d="m89.421875 464.125-41.546875-41.546875c-12.066406-12.0625-12.160156-31.769531 0-43.929687l22.21875-22.222657c6.5-6.5 10.226562-15.496093 10.226562-24.691406 0-21.753906 8.472657-42.207031 23.851563-57.585937l258.382813-258.382813c21.003906-21 55.027343-21.039063 76.066406 0l57.613281 57.617187c21.003906 21.003907 21.035156 55.027344 0 76.0625l-258.382813 258.382813c-15.378906 15.382813-35.832031 23.851563-57.585937 23.851563-9.191406 0-18.191406 3.726562-24.691406 10.226562l-22.21875 22.21875c-12.089844 12.09375-31.796875 12.136719-43.933594 0zm0 0" fill="#eff6fe"/><path d="m496.234375 73.382812-28.804687-28.808593-398.777344 398.78125 20.769531 20.769531c12.136719 12.136719 31.84375 12.09375 43.933594 0l22.21875-22.21875c6.5-6.5 15.5-10.226562 24.691406-10.226562 21.757813 0 42.207031-8.46875 57.585937-23.851563l258.382813-258.382813c21.039063-21.035156 21.007813-55.058593 0-76.0625zm0 0" fill="#d2dce7"/><path d="m341.78125 36.535156 133.574219 133.574219-240.996094 240.992187-133.570313-133.570312zm0 0" fill="#ff7d00"/><path d="m408.625 103.378906 66.726562 66.730469-240.992187 240.992187-66.726563-66.730468zm0 0" fill="#f13800"/></svg>