<svg height="512pt" viewBox="0 0 512 512.00047" width="512pt" xmlns="http://www.w3.org/2000/svg"><path d="m.207031 494.527344 16.066407-96.402344c1.207031-7.230469 7.464843-12.53125 14.796874-12.53125 16.714844 0 32.429688-6.507812 44.246094-18.328125l9.414063-9.414063c5.855469-5.859374 15.355469-5.859374 21.210937 0l48.203125 48.199219c5.855469 5.859375 5.851563 15.363281 0 21.214844l-9.417969 9.414063c-11.8125 11.816406-18.324218 27.53125-18.324218 44.246093 0 7.332031-5.300782 13.589844-12.53125 14.796875l-96.402344 16.066406c-10.269531 1.714844-18.933594-7.234374-17.261719-17.261718zm0 0" fill="#eff6fe"/><path d="m154.140625 406.050781-24.089844-24.089843-21.21875 21.210937-104.433593 104.429687c3.242187 3.25 7.960937 5.039063 13.070312 4.1875l96.402344-16.070312c7.230468-1.199219 12.527344-7.457031 12.527344-14.796875 0-16.710937 6.511718-32.421875 18.332031-44.242187l.449219-.449219 8.960937-8.96875c5.859375-5.851563 5.859375-15.351563 0-21.210938zm0 0" fill="#d2dce7"/><path d="m181.128906 379.074219-48.203125-48.203125c-5.597656-5.597656-5.878906-14.589844-.640625-20.527344l241-273.132812c.207032-.234376.421875-.464844.640625-.683594 23.554688-23.554688 54.871094-36.527344 88.179688-36.527344h34.894531c8.285156 0 15 6.714844 15 15v34.898438c0 33.304687-12.972656 64.621093-36.527344 88.175781-.21875.21875-.449218.433593-.683594.640625l-273.132812 241c-8.097656 7.144531-17.28125 2.605468-20.527344-.640625zm0 0" fill="#5258e3"/><path d="m507.601562 4.398438-350.570312 350.570312 24.097656 24.101562c3.242188 3.25 12.429688 7.789063 20.53125.640626l10.019532-8.839844 263.109374-232.160156c.230469-.199219.460938-.421876.679688-.640626 23.5625-23.550781 36.53125-54.871093 36.53125-88.171874v-34.898438c0-4.140625-1.679688-7.890625-4.398438-10.601562zm0 0" fill="#1827c6"/><path d="m132.925781 427.273438-48.199219-48.199219c-19.171874-19.175781-19.203124-50.214844 0-69.414063 19.171876-19.171875 50.210938-19.203125 69.414063 0l48.199219 48.199219c19.171875 19.171875 19.203125 50.210937 0 69.414063-19.171875 19.171874-50.210938 19.203124-69.414063 0zm0 0" fill="#ff7d00"/><path d="m211.679688 370.871094c-2.320313-4.699219-5.429688-9.101563-9.339844-13.011719l-24.101563-24.097656-21.207031 21.207031-26.980469 26.992188-21.21875 21.210937 24.097657 24.097656c3.699218 3.699219 7.839843 6.691407 12.25 8.960938 7.03125 3.621093 14.742187 5.429687 22.460937 5.429687 12.558594 0 25.109375-4.800781 34.699219-14.390625 15.28125-15.28125 18.378906-38.070312 9.339844-56.398437zm0 0" fill="#f13800"/></svg>