<svg height="512pt" viewBox="-96 0 512 512" width="512pt" xmlns="http://www.w3.org/2000/svg"><path d="m191.734375 142.46875h-64.269531c-8.28125 0-15-6.71875-15-15v-80.335938c.003906-25.988281 21.144531-47.132812 47.136718-47.132812 25.988282 0 47.132813 21.144531 47.132813 47.132812v80.332032c0 8.285156-6.71875 15.003906-15 15.003906zm0 0" fill="#5258e3"/><path d="m206.730469 47.128906v80.339844c0 8.28125-6.710938 15-15 15h-32.128907v-142.46875c25.988282 0 47.128907 21.140625 47.128907 47.128906zm0 0" fill="#1827c6"/><path d="m304.199219 512h-289.199219c-8.285156 0-15-6.714844-15-15v-128.765625c0-55.121094 14.988281-109.238281 43.347656-156.503906 26.191406-43.652344 55.191406-91.980469 55.191406-91.980469 2.710938-4.519531 7.59375-7.28125 12.859376-7.28125h96.402343c5.269531 0 10.148438 2.761719 12.859375 7.28125 0 0 29 48.328125 55.191406 91.980469 28.359376 47.265625 43.347657 101.382812 43.347657 156.503906v128.765625c0 8.285156-6.714844 15-15 15zm0 0" fill="#eff6fe"/><path d="m220.660156 119.75c-2.710937-4.519531-7.589844-7.28125-12.859375-7.28125h-48.199219v399.53125h144.597657c8.285156 0 15-6.714844 15-15v-128.765625c0-55.121094-14.988281-109.238281-43.347657-156.503906-26.1875-43.652344-55.191406-91.980469-55.191406-91.980469zm0 0" fill="#d2dce7"/><path d="m0 368.234375v128.765625c0 8.285156 6.714844 15 15 15h289.199219c8.285156 0 15-6.714844 15-15v-128.765625c0-4.933594-.125-9.855469-.363281-14.765625h-318.472657c-.238281 4.910156-.363281 9.832031-.363281 14.765625zm0 0" fill="#00e1c8"/><path d="m319.199219 368.230469v128.769531c0 8.28125-6.71875 15-15 15h-144.597657v-158.53125h159.238282c.230468 4.910156.359375 9.832031.359375 14.761719zm0 0" fill="#009b91"/></svg>