<svg height="511pt" viewBox="0 -72 511.99938 511" width="511pt" xmlns="http://www.w3.org/2000/svg"><path d="m384.53125 239.359375h-257.066406c-11.714844 0-18.917969-12.878906-12.773438-22.863281l128.53125-208.867188c5.847656-9.5 19.699219-9.511718 25.550782 0l128.535156 208.867188c6.140625 9.980468-1.054688 22.863281-12.777344 22.863281zm0 0" fill="#5258e3"/><path d="m397.308594 216.503906-4.390625-7.140625-124.148438-201.730469c-2.921875-4.761718-7.828125-7.128906-12.761719-7.128906v238.859375h128.523438c11.71875 0 18.917969-12.890625 12.777344-22.859375zm0 0" fill="#1827c6"/><path d="m241 239.359375h30v-228.113281l-2.226562-3.617188c-5.851563-9.511718-19.703126-9.5-25.550782 0l-2.222656 3.617188zm0 0" fill="#1827c6"/><path d="m256.007812.5v238.859375h14.992188v-228.113281l-2.226562-3.617188c-2.925782-4.75-7.84375-7.125-12.765626-7.128906zm0 0" fill="#000e5c"/><path d="m400.589844 367.890625h-289.179688c-4.722656 0-9.167968-2.222656-12-6l-96.394531-128.53125c-7.398437-9.867187-.347656-24 12-24h481.964844c12.332031 0 19.40625 14.121094 12 24l-96.394531 128.53125c-2.832032 3.777344-7.277344 6-11.996094 6zm0 0" fill="#00e1c8"/><path d="m496.980469 209.363281h-240.972657v158.527344h144.582032c4.71875 0 9.167968-2.21875 12-6l96.390625-128.527344c7.410156-9.882812.328125-24-12-24zm0 0" fill="#009b91"/></svg>