<svg height="512pt" viewBox="0 0 512 512" width="512pt" xmlns="http://www.w3.org/2000/svg"><path d="m256 512c-136.273438 0-256-109.605469-256-256 0-141.433594 114.433594-256 256-256 137.457031 0 256 110.753906 256 256 0 43.707031-35.558594 79.265625-79.265625 79.265625-9.953125 0-42.785156-2.285156-71.269531 26.199219-28.476563 28.472656-26.199219 61.417968-26.199219 71.269531 0 43.707031-35.558594 79.265625-79.265625 79.265625zm0 0" fill="#eff6fe"/><path d="m335.265625 432.734375c0-9.851563-2.277344-42.796875 26.199219-71.269531 28.484375-28.488282 61.316406-26.199219 71.269531-26.199219 43.707031 0 79.265625-35.558594 79.265625-79.265625 0-145.246094-118.542969-256-256-256v512c43.707031 0 79.265625-35.558594 79.265625-79.265625zm0 0" fill="#d2dce7"/><path d="m300.472656 159.183594c-24.523437 0-44.472656-19.953125-44.472656-44.472656 0-24.523438 19.949219-44.472657 44.472656-44.472657 24.523438 0 44.472656 19.949219 44.472656 44.472657 0 24.519531-19.949218 44.472656-44.472656 44.472656zm0 0" fill="#5258e3"/><path d="m400.601562 268.339844c-24.523437 0-44.472656-19.949219-44.472656-44.472656 0-24.523438 19.949219-44.472657 44.472656-44.472657 24.519532 0 44.472657 19.949219 44.472657 44.472657 0 24.523437-19.953125 44.472656-44.472657 44.472656zm0 0" fill="#1827c6"/><path d="m211.527344 441.761719c-24.519532 0-44.472656-19.949219-44.472656-44.472657 0-24.519531 19.953124-44.46875 44.472656-44.46875 24.523437 0 44.472656 19.949219 44.472656 44.46875 0 24.523438-19.949219 44.472657-44.472656 44.472657zm0 0" fill="#ff7d00"/><path d="m111.398438 332.605469c-24.519532 0-44.472657-19.949219-44.472657-44.472657 0-24.519531 19.953125-44.472656 44.472657-44.472656 24.523437 0 44.472656 19.953125 44.472656 44.472656 0 24.523438-19.949219 44.472657-44.472656 44.472657zm0 0" fill="#ffe100"/><path d="m155.871094 191.316406c-24.519532 0-44.472656-19.953125-44.472656-44.472656 0-24.523438 19.953124-44.472656 44.472656-44.472656 24.523437 0 44.472656 19.949218 44.472656 44.472656 0 24.519531-19.949219 44.472656-44.472656 44.472656zm0 0" fill="#00e1c8"/></svg>