<svg height="512pt" viewBox="-112 0 512 512" width="512pt" xmlns="http://www.w3.org/2000/svg"><path d="m175.667969 94.265625h-64.269531c-8.285157 0-15-6.714844-15-15v-64.265625c0-8.285156 6.714843-15 15-15h64.269531c8.28125 0 15 6.714844 15 15v64.265625c0 8.285156-6.71875 15-15 15zm0 0" fill="#ff7d00"/><path d="m175.667969 0h-32.136719v94.265625h32.136719c8.28125 0 15-6.714844 15-15v-64.265625c0-8.285156-6.71875-15-15-15zm0 0" fill="#f13800"/><path d="m280.386719 66.785156-29.480469-19.648437 29.480469-19.652344c6.894531-4.597656 8.757812-13.910156 4.160156-20.800781-4.59375-6.894532-13.910156-8.757813-20.800781-4.164063l-48.199219 32.132813c-4.332031 2.890625-6.675781 7.640625-6.679687 12.484375.003906 4.839843 2.347656 9.589843 6.679687 12.480469l48.199219 32.132812c6.890625 4.59375 16.207031 2.730469 20.800781-4.160156 4.597656-6.894532 2.734375-16.207032-4.160156-20.804688zm0 0" fill="#009b91"/><path d="m256 512h-224.933594c-8.285156 0-15-6.714844-15-15v-305.28125c0-70.277344 57.171875-127.453125 127.449219-127.453125 70.308594 0 127.484375 57.175781 127.484375 127.453125v305.28125c0 8.285156-6.714844 15-15 15zm0 0" fill="#eff6fe"/><path d="m143.53125 64.269531v447.730469h112.472656c8.277344 0 15-6.71875 15-15v-305.28125c0-70.269531-57.171875-127.4375-127.472656-127.449219zm0 0" fill="#d2dce7"/><path d="m16.066406 191.734375h254.933594v241h-254.933594zm0 0" fill="#00e1c8"/><path d="m143.53125 191.730469h127.472656v241h-127.472656zm0 0" fill="#009b91"/><path d="m16.066406 417.734375h254.933594v30h-254.933594zm0 0" fill="#5258e3"/><path d="m143.53125 417.730469h127.472656v30h-127.472656zm0 0" fill="#1827c6"/><path d="m272.066406 206.734375h-257.066406c-8.285156 0-15-6.71875-15-15 0-8.285156 6.714844-15 15-15h257.066406c8.285156 0 15 6.714844 15 15 0 8.28125-6.714844 15-15 15zm0 0" fill="#d2dce7"/><path d="m272.066406 176.734375h-128.535156v30h128.535156c8.285156 0 15-6.71875 15-15 0-8.285156-6.714844-15-15-15zm0 0" fill="#a1aebc"/></svg>