<svg height="512pt" viewBox="-80 0 512 512" width="512pt" xmlns="http://www.w3.org/2000/svg"><path d="m215.832031 512h-80.332031c-74.84375 0-135.5-60.539062-135.5-135.5v-241c0-74.84375 60.535156-135.5 135.5-135.5h80.332031c74.847657 0 135.5 60.539062 135.5 135.5v241c0 74.84375-60.535156 135.5-135.5 135.5zm0 0" fill="#d2dce7"/><path d="m215.835938 0h-40.171876v512h40.171876c74.960937 0 135.5-60.660156 135.5-135.5v-241c0-74.960938-60.660157-135.5-135.5-135.5zm0 0" fill="#a1aebc"/><path d="m160.664062 0v239.933594c0 8.285156 6.71875 15 15 15 8.285157 0 15-6.714844 15-15v-239.933594zm0 0" fill="#1827c6"/><path d="m175.664062 254.933594c8.285157 0 15-6.714844 15-15v-239.933594h-15zm0 0" fill="#000e5c"/><path d="m175.664062 206.734375c-25.988281 0-47.132812-21.144531-47.132812-47.136719v-48.199218c0-25.988282 21.144531-47.132813 47.132812-47.132813 25.992188 0 47.136719 21.144531 47.136719 47.132813v48.203124c0 25.988282-21.144531 47.132813-47.136719 47.132813zm0 0" fill="#5258e3"/><path d="m175.664062 64.269531v142.460938c25.992188 0 47.132813-21.140625 47.132813-47.128907v-48.203124c0-25.988282-21.140625-47.128907-47.132813-47.128907zm0 0" fill="#1827c6"/></svg>