<svg height="512pt" viewBox="0 -80 512 512" width="512pt" xmlns="http://www.w3.org/2000/svg"><path d="m432.734375 287.066406h-353.46875c-8.28125 0-15-6.714844-15-15v-224.933594c0-25.742187 20.792969-47.132812 47.132813-47.132812h289.203124c25.804688 0 47.132813 20.855469 47.132813 47.132812v224.933594c0 8.285156-6.714844 15-15 15zm0 0" fill="#5258e3"/><path d="m254.933594 287.066406h177.800781c8.28125 0 15-6.714844 15-15v-224.933594c0-26.277343-21.328125-47.132812-47.132813-47.132812h-145.667968zm0 0" fill="#1827c6"/><path d="m94.265625 287.066406h323.46875v-239.933594c0-9.574218-7.785156-17.132812-17.132813-17.132812h-289.203124c-9.578126 0-17.132813 7.785156-17.132813 17.132812zm0 0" fill="#eff6fe"/><path d="m254.933594 287.066406h162.800781v-239.933594c0-9.574218-7.789063-17.132812-17.132813-17.132812h-145.667968zm0 0" fill="#d2dce7"/><g fill="#ff7d00"><path d="m352.398438 94.265625h-192.796876c-8.285156 0-15-6.714844-15-15 0-8.28125 6.714844-15 15-15h192.796876c8.285156 0 15 6.71875 15 15 0 8.285156-6.714844 15-15 15zm0 0"/><path d="m352.398438 158.535156h-192.796876c-8.285156 0-15-6.71875-15-15 0-8.285156 6.714844-15 15-15h192.796876c8.285156 0 15 6.714844 15 15 0 8.28125-6.714844 15-15 15zm0 0"/><path d="m239.933594 222.800781h-80.332032c-8.285156 0-15-6.714843-15-15 0-8.285156 6.714844-15 15-15h80.332032c8.285156 0 15 6.714844 15 15 0 8.285157-6.714844 15-15 15zm0 0"/></g><path d="m464.867188 351.335938h-417.734376c-25.808593 0-47.132812-20.855469-47.132812-47.136719 0-25.742188 20.796875-47.132813 47.132812-47.132813h417.734376c25.808593 0 47.132812 20.855469 47.132812 47.132813 0 25.742187-20.792969 47.136719-47.132812 47.136719zm0 0" fill="#1827c6"/><path d="m367.398438 79.265625c0 8.28125-6.71875 15-15 15h-97.46875v-30h97.46875c8.28125 0 15 6.722656 15 15zm0 0" fill="#f13800"/><path d="m367.398438 143.535156c0 8.28125-6.71875 15-15 15h-97.46875v-30h97.46875c8.28125 0 15 6.710938 15 15zm0 0" fill="#f13800"/><path d="m464.871094 257.066406h-209.941406v94.269532h209.941406c26.339844 0 47.128906-21.398438 47.128906-47.140626 0-26.265624-21.328125-47.128906-47.128906-47.128906zm0 0" fill="#000e5c"/></svg>