<svg height="512pt" viewBox="-32 0 512 512" width="512pt" xmlns="http://www.w3.org/2000/svg"><path d="m223.867188 94.265625c-8.285157 0-15-6.714844-15-15v-64.265625c0-8.285156 6.714843-15 15-15 8.28125 0 15 6.714844 15 15v64.265625c0 8.285156-6.714844 15-15 15zm0 0" fill="#e56700"/><path d="m238.867188 15v64.269531c0 8.28125-6.722657 15-15 15v-94.269531c8.277343 0 15 6.71875 15 15zm0 0" fill="#c91800"/><path d="m400.601562 303.132812h-353.46875c-8.285156 0-15-6.714843-15-15v-176.734374c0-25.742188 20.792969-47.132813 47.132813-47.132813h289.199219c25.746094 0 47.136718 20.796875 47.136718 47.132813v176.734374c0 8.285157-6.71875 15-15 15zm0 0" fill="#eff6fe"/><path d="m368.464844 64.265625h-144.597656v238.867187h176.730468c8.285156 0 15-6.714843 15-15v-176.734374c.003906-26.335938-21.386718-47.132813-47.132812-47.132813zm0 0" fill="#d2dce7"/><path d="m304.199219 463.796875h-160.667969c-8.28125 0-15-6.71875-15-15 0-8.285156 6.71875-15 15-15h160.667969c8.285156 0 15 6.714844 15 15 0 8.28125-6.714844 15-15 15zm0 0" fill="#e56700"/><path d="m319.195312 448.796875c0 8.277344-6.710937 15-15 15h-80.328124v-30h80.328124c8.289063 0 15 6.71875 15 15zm0 0" fill="#c91800"/><path d="m127.46875 512c-10.976562 0-17.238281-10.726562-14.234375-19.746094l48.203125-144.601562c2.617188-7.855469 11.113281-12.105469 18.972656-9.488282 7.859375 2.621094 12.105469 11.117188 9.488282 18.976563l-48.203126 144.597656c-2.09375 6.285157-7.945312 10.261719-14.226562 10.261719zm0 0" fill="#ff7d00"/><path d="m320.265625 512c-6.28125 0-12.132813-3.976562-14.230469-10.261719l-48.199218-144.597656c-2.617188-7.859375 1.628906-16.355469 9.488281-18.976563 7.855469-2.621093 16.351562 1.628907 18.972656 9.488282l48.199219 144.601562c3.136718 9.410156-3.6875 19.746094-14.230469 19.746094zm0 0" fill="#f13800"/><path d="m400.601562 367.398438h-353.46875c-25.988281 0-47.132812-21.144532-47.132812-47.132813s21.144531-47.132813 47.132812-47.132813h353.46875c25.988282 0 47.132813 21.144532 47.132813 47.132813s-21.144531 47.132813-47.132813 47.132813zm0 0" fill="#ffe100"/><path d="m400.597656 273.128906h-176.730468v94.269532h176.730468c25.988282 0 47.136719-21.136719 47.136719-47.128907 0-25.988281-21.148437-47.140625-47.136719-47.140625zm0 0" fill="#ecb402"/></svg>