<svg height="512pt" viewBox="0 -48 512 512" width="512pt" xmlns="http://www.w3.org/2000/svg"><path d="m432.734375 415.601562h-353.46875c-43.777344 0-79.265625-35.417968-79.265625-79.269531v-257.066406c0-43.773437 35.414062-79.265625 79.265625-79.265625h353.46875c43.777344 0 79.265625 35.414062 79.265625 79.265625v257.066406c0 43.773438-35.414062 79.269531-79.265625 79.269531zm0 0" fill="#ffe100"/><path d="m432.730469 0h-224.929688v415.601562h224.929688c43.859375 0 79.269531-35.492187 79.269531-79.273437v-257.058594c0-43.859375-35.488281-79.269531-79.269531-79.269531zm0 0" fill="#ecb402"/><path d="m207.800781 367.398438c-88.003906 0-159.601562-71.59375-159.601562-159.597657 0-88.003906 71.597656-159.601562 159.601562-159.601562 88.003907 0 159.597657 71.597656 159.597657 159.601562 0 88.003907-71.59375 159.597657-159.597657 159.597657zm0 0" fill="#5258e3"/><path d="m207.800781 48.199219v319.199219c88 0 159.597657-71.597657 159.597657-159.597657s-71.597657-159.601562-159.597657-159.601562zm0 0" fill="#1827c6"/><path d="m207.800781 271c-34.851562 0-63.199219-28.351562-63.199219-63.199219 0-34.847656 28.347657-63.199219 63.199219-63.199219 34.847657 0 63.199219 28.347657 63.199219 63.199219 0 34.847657-28.351562 63.199219-63.199219 63.199219zm0 0" fill="#00e1c8"/><path d="m207.800781 144.601562v126.398438c34.847657 0 63.199219-28.351562 63.199219-63.199219 0-34.851562-28.351562-63.199219-63.199219-63.199219zm0 0" fill="#009b91"/><path d="m222.800781 207.800781c0 8.285157-6.714843 15-15 15-8.285156 0-15-6.714843-15-15 0-8.285156 6.714844-15 15-15 8.285157 0 15 6.714844 15 15zm0 0" fill="#1827c6" fill-rule="evenodd"/><path d="m368.46875 351.332031c-8.285156 0-15-6.714843-15-15 0-8.28125 6.714844-15 15-15 18.304688 0 33.199219-14.894531 33.199219-33.199219v-192.800781c0-8.28125 6.714843-15 15-15 8.28125 0 15 6.71875 15 15v192.800781c0 34.847657-28.351563 63.199219-63.199219 63.199219zm0 0" fill="#f13800"/><path d="m207.800781 192.800781v30c8.269531 0 15-6.730469 15-15 0-8.273437-6.730469-15-15-15zm0 0" fill="#000e5c"/></svg>