<svg height="512pt" viewBox="0 -16 512 512" width="512pt" xmlns="http://www.w3.org/2000/svg"><path d="m488.679688 461.28125-96.398438-64.265625c-4.175781-2.78125-6.679688-7.464844-6.679688-12.480469v-96.402344c0-5.015624 2.503907-9.699218 6.679688-12.480468l96.398438-64.265625c9.945312-6.632813 23.320312.507812 23.320312 12.480469v224.933593c0 11.953125-13.363281 19.121094-23.320312 12.480469zm0 0" fill="#000e5c"/><path d="m304.199219 0c-41.117188 0-77.097657 22.394531-96.398438 55.621094-19.300781-33.226563-55.285156-55.621094-96.402343-55.621094-61.425782 0-111.398438 49.972656-111.398438 111.402344 0 61.425781 49.972656 111.398437 111.398438 111.398437 41.117187 0 77.097656-22.394531 96.402343-55.621093 19.300781 33.226562 55.28125 55.621093 96.398438 55.621093 61.425781 0 111.398437-49.976562 111.398437-111.398437.003906-61.429688-49.972656-111.402344-111.398437-111.402344zm-192.800781 128.535156c-9.445313 0-17.132813-7.6875-17.132813-17.132812 0-9.449219 7.6875-17.136719 17.132813-17.136719 9.449218 0 17.132812 7.6875 17.132812 17.136719 0 9.445312-7.683594 17.132812-17.132812 17.132812zm192.800781 0c-9.445313 0-17.132813-7.6875-17.132813-17.132812 0-9.449219 7.6875-17.136719 17.132813-17.136719 9.449219 0 17.132812 7.6875 17.132812 17.136719 0 9.445312-7.683593 17.132812-17.132812 17.132812zm0 0" fill="#1827c6"/><path d="m304.199219 222.800781c61.425781 0 111.398437-49.976562 111.398437-111.398437 0-61.429688-49.972656-111.402344-111.398437-111.402344-41.117188 0-77.097657 22.394531-96.398438 55.625v111.554688c19.300781 33.226562 55.28125 55.621093 96.398438 55.621093zm0-128.535156c9.449219 0 17.132812 7.6875 17.132812 17.136719 0 9.445312-7.683593 17.132812-17.132812 17.132812-9.445313 0-17.132813-7.6875-17.132813-17.132812 0-9.449219 7.6875-17.136719 17.132813-17.136719zm0 0" fill="#000e5c"/><path d="m111.398438 30c-44.882813 0-81.398438 36.515625-81.398438 81.398438 0 44.886718 36.515625 81.402343 81.398438 81.402343 44.886718 0 81.402343-36.519531 81.402343-81.402343 0-44.882813-36.515625-81.398438-81.402343-81.398438zm0 98.535156c-9.445313 0-17.132813-7.6875-17.132813-17.132812 0-9.449219 7.6875-17.136719 17.132813-17.136719 9.449218 0 17.132812 7.6875 17.132812 17.136719 0 9.445312-7.683594 17.132812-17.132812 17.132812zm0 0" fill="#00e1c8"/><path d="m111.398438 64.265625c-25.988282 0-47.132813 21.144531-47.132813 47.136719 0 25.988281 21.144531 47.132812 47.132813 47.132812 25.992187 0 47.132812-21.144531 47.132812-47.132812 0-25.992188-21.140625-47.136719-47.132812-47.136719zm0 64.269531c-9.445313 0-17.132813-7.6875-17.132813-17.132812 0-9.449219 7.6875-17.136719 17.132813-17.136719 9.449218 0 17.132812 7.6875 17.132812 17.136719 0 9.445312-7.683594 17.132812-17.132812 17.132812zm0 0" fill="#1827c6"/><path d="m304.199219 30c-44.882813 0-81.398438 36.515625-81.398438 81.398438 0 44.886718 36.515625 81.402343 81.398438 81.402343 44.886719 0 81.398437-36.519531 81.398437-81.402343.003906-44.882813-36.511718-81.398438-81.398437-81.398438zm0 98.535156c-9.445313 0-17.132813-7.6875-17.132813-17.132812 0-9.449219 7.6875-17.136719 17.132813-17.136719 9.449219 0 17.132812 7.6875 17.132812 17.136719 0 9.445312-7.683593 17.132812-17.132812 17.132812zm0 0" fill="#009b91"/><path d="m352.398438 479.867188h-289.199219c-34.910157 0-63.199219-28.242188-63.199219-63.199219v-160.667969c0-34.914062 28.246094-63.199219 63.199219-63.199219h289.199219c34.910156 0 63.199218 28.242188 63.199218 63.199219v160.667969c.003906 34.910156-28.238281 63.199219-63.199218 63.199219zm0 0" fill="#5258e3"/><path d="m304.199219 64.265625c-25.988281 0-47.132813 21.144531-47.132813 47.136719 0 25.988281 21.144532 47.132812 47.132813 47.132812s47.132812-21.144531 47.132812-47.132812c0-25.992188-21.144531-47.136719-47.132812-47.136719zm0 64.269531c-9.445313 0-17.132813-7.6875-17.132813-17.132812 0-9.449219 7.6875-17.136719 17.132813-17.136719 9.449219 0 17.132812 7.6875 17.132812 17.136719 0 9.445312-7.683593 17.132812-17.132812 17.132812zm0 0" fill="#000e5c"/><path d="m352.398438 192.800781h-144.597657v287.066407h144.597657c34.960937 0 63.199218-28.289063 63.199218-63.199219v-160.667969c.003906-34.957031-28.289062-63.199219-63.199218-63.199219zm0 0" fill="#1827c6"/><path d="m192.800781 415.601562h-114.601562c-8.285157 0-15-6.714843-15-15 0-8.285156 6.714843-15 15-15h114.601562c8.285157 0 15 6.714844 15 15 0 8.285157-6.714843 15-15 15zm0 0" fill="#9aa2f7"/><g fill="#000e5c" fill-rule="evenodd"><path d="m335.265625 272.066406c0 8.285156-6.714844 15-15 15-8.28125 0-15-6.714844-15-15s6.71875-15 15-15c8.285156 0 15 6.714844 15 15zm0 0"/><path d="m335.265625 336.335938c0 8.28125-6.714844 15-15 15-8.28125 0-15-6.71875-15-15 0-8.285157 6.71875-15 15-15 8.285156 0 15 6.714843 15 15zm0 0"/><path d="m335.265625 400.601562c0 8.285157-6.714844 15-15 15-8.28125 0-15-6.714843-15-15 0-8.285156 6.71875-15 15-15 8.285156 0 15 6.714844 15 15zm0 0"/></g><path d="m160.664062 257.066406h-50.332031c-26.277343 0-47.132812 21.324219-47.132812 47.132813 0 26.335937 21.390625 47.136719 47.132812 47.136719h50.332031c26.339844 0 47.136719-21.394532 47.136719-47.136719 0-26.277344-21.328125-47.132813-47.136719-47.132813zm0 64.269532h-50.332031c-9.324219 0-17.132812-7.539063-17.132812-17.136719 0-9.324219 7.539062-17.132813 17.132812-17.132813h50.332031c9.332032 0 17.136719 7.539063 17.136719 17.132813 0 9.328125-7.539062 17.136719-17.136719 17.136719zm0 0" fill="#9aa2f7"/></svg>