<svg height="512pt" viewBox="-48 0 512 512" width="512pt" xmlns="http://www.w3.org/2000/svg"><path d="m207.800781 512c-8.285156 0-15-6.714844-15-15v-208.867188c0-8.28125 6.714844-15 15-15 8.285157 0 15 6.71875 15 15v208.867188c0 8.285156-6.714843 15-15 15zm0 0" fill="#5258e3"/><path d="m222.800781 497v-208.867188c0-8.28125-6.714843-15-15-15v238.867188c8.285157 0 15-6.714844 15-15zm0 0" fill="#1827c6"/><path d="m336.332031 303.132812h-257.066406c-8.28125 0-15-6.714843-15-15v-34.265624c0-8.285157 6.71875-15 15-15h257.066406c8.285157 0 15 6.714843 15 15v34.265624c0 8.285157-6.714843 15-15 15zm0 0" fill="#ff7d00"/><path d="m288.132812 479.867188h-160.664062c-8.285156 0-15-6.71875-15-15v-34.269532c0-8.285156 6.714844-15 15-15h160.664062c8.285157 0 15 6.714844 15 15v34.269532c0 8.28125-6.714843 15-15 15zm0 0" fill="#ff7d00"/><path d="m239.933594 238.867188h-64.269532c-3.976562 0-7.792968-1.582032-10.605468-4.394532l-27.847656-27.851562c-25.566407-25.5625-36.863282-73.246094-6.621094-103.492188l29.800781-29.800781c-1.355469-14.472656-7.644531-27.898437-18.046875-38.308594l-9.417969-9.414062c-9.429687-9.429688-2.730469-25.605469 10.605469-25.605469h128.535156c13.335938 0 20.035156 16.175781 10.605469 25.605469l-9.414063 9.414062c-10.40625 10.410157-16.695312 23.835938-18.046874 38.308594l29.800781 29.804687c30.210937 30.210938 19.007812 77.859376-6.621094 103.488282l-27.851563 27.851562c-2.8125 2.8125-6.628906 4.394532-10.605468 4.394532zm0 0" fill="#ffe100"/><path d="m400.601562 512c-8.285156 0-15-6.714844-15-15v-145.667969h-355.601562v145.667969c0 8.285156-6.714844 15-15 15s-15-6.714844-15-15v-160.667969c0-8.28125 6.714844-15 15-15h385.601562c8.28125 0 15 6.71875 15 15v160.667969c0 8.285156-6.71875 15-15 15zm0 0" fill="#ffe100"/><path d="m336.328125 238.871094h-128.527344v64.257812h128.527344c8.292969 0 15-6.707031 15-15v-34.257812c0-8.292969-6.707031-15-15-15zm0 0" fill="#f13800"/><path d="m288.128906 415.601562h-80.328125v64.269532h80.328125c8.292969 0 15-6.722656 15-15v-34.269532c0-8.292968-6.707031-15-15-15zm0 0" fill="#f13800"/><g fill="#ecb402"><path d="m285.011719 103.128906-29.800781-29.800781c1.347656-14.46875 7.640624-27.898437 18.050781-38.308594l9.410156-9.410156c9.429687-9.429687 2.726563-25.609375-10.601563-25.609375h-64.269531v238.871094h32.128907c3.980468 0 7.800781-1.582032 10.609374-4.402344l27.851563-27.847656c25.628906-25.632813 36.828125-73.28125 6.621094-103.492188zm0 0"/><path d="m400.601562 321.332031h-192.800781v30h177.800781v145.667969c0 8.285156 6.714844 15 15 15 8.28125 0 15-6.714844 15-15v-160.667969c0-8.28125-6.71875-15-15-15zm0 0"/></g></svg>