<svg height="512pt" viewBox="0 0 512 512.00039" width="512pt" xmlns="http://www.w3.org/2000/svg"><path d="m207.820312.00390625h-160.667968c-26.335938 0-47.1328128 21.39062475-47.1328128 47.13281275v337.042969h63.8945308c0-26.179688 21.300782-47.480469 47.484376-47.480469 26.1875 0 47.488281 21.300781 47.488281 47.480469h96.066406v-337.042969c0-26.339844-21.390625-47.13281275-47.132813-47.13281275zm0 0" fill="#006566"/><path d="m254.953125 152.097656v152.097656h-254.9335938v-152.097656zm0 0" fill="#009b91"/><path d="m.0195312 47.132812v104.964844h254.9335938v-104.964844c0-26.339843-21.390625-47.132812-47.132813-47.132812h-160.667968c-26.335938 0-47.1328128 21.390625-47.1328128 47.132812zm0 0" fill="#00e1c8"/><path d="m127.132812 152.101562h127.820313v152.097657h-127.820313zm0 0" fill="#006566"/><path d="m127.132812.00390625h80.691407c25.738281 0 47.128906 20.78906275 47.128906 47.12890575v104.96875h-127.820313zm0 0" fill="#009b91"/><path d="m452.457031 174.179688-114.933593-114.933594c-18.433594-18.433594-48.253907-18.398438-66.648438 0l-217.089844 217.089844c13.574219 13.574218 32.011719 21.160156 51.210938 21.074218l277.019531-1.277344c9.09375-.039062 17.820313-3.613281 24.332031-9.960937l45.6875-44.914063c18.726563-18.261718 19.023438-48.484374.421875-67.078124zm0 0" fill="#c91800"/><path d="m270.875 59.246094-74.226562 74.226562 162.769531 162.765625 22.597656-.105469c9.09375-.039062 17.820313-3.613281 24.332031-9.960937l45.6875-44.914063c18.722656-18.261718 19.023438-48.484374.421875-67.078124l-114.933593-114.933594c-18.433594-18.433594-48.253907-18.398438-66.648438 0zm0 0" fill="#ff7d00"/><path d="m89.097656 241.023438 56.203125 56.203124 214.117188-.988281-162.769531-162.765625zm0 0" fill="#e56700"/><path d="m452.03125 241.261719-45.679688 44.910156c-6.519531 6.347656-15.242187 9.917969-24.332031 9.957031l-22.597656.109375-71.832031-71.828125 107.550781-107.550781 57.320313 57.320313c18.597656 18.589843 18.300781 48.820312-.429688 67.082031zm0 0" fill="#f13800"/><path d="m359.421875 296.238281-144.320313.660157 72.488282-72.488282zm0 0" fill="#c91800"/><path d="m464.867188 257.066406h-377.269532c-9.242187 0-18.292968 3.746094-24.824218 10.28125l-26.222657 26.222656c-23.570312 23.570313-36.550781 54.90625-36.550781 88.246094 0 36.925782 15.417969 72.617188 42.292969 97.917969 0 0 24.980469 23.535156 24.976562 23.53125 0 0 0 .003906.003907.003906 5.976562 5.628907 13.792968 8.730469 22.003906 8.730469h375.589844c26.339843 0 47.132812-21.390625 47.132812-47.132812v-160.667969c0-26.335938-21.390625-47.132813-47.132812-47.132813zm-353.46875 174.601563c-26.183594 0-47.484376-21.304688-47.484376-47.488281 0-26.179688 21.300782-47.480469 47.484376-47.480469 26.1875 0 47.488281 21.300781 47.488281 47.480469 0 26.183593-21.300781 47.488281-47.488281 47.488281zm0 0" fill="#bb8901"/><path d="m358.832031 512h-152.097656v-254.933594h152.097656zm0 0" fill="#ecb402"/><path d="m464.867188 257.066406h-106.035157v254.933594h106.035157c26.339843 0 47.132812-21.390625 47.132812-47.132812v-160.667969c0-26.335938-21.390625-47.132813-47.132812-47.132813zm0 0" fill="#ffe100"/><path d="m158.890625 384.179688c0 26.179687-21.308594 47.492187-47.492187 47.492187-26.179688 0-47.488282-21.3125-47.488282-47.492187h-63.8906248c.6406248 36.082031 15.9687498 70.789062 42.2695308 95.550781l24.980469 23.539062c2.992188 2.808594 6.441407 5 10.171875 6.480469 3.730469 1.46875 7.738282 2.25 11.839844 2.25h375.589844c26.339844 0 47.128906-21.390625 47.128906-47.128906v-80.691406zm0 0" fill="#8a5e00"/><path d="m206.730469 384.179688h152.101562v127.820312h-152.101562zm0 0" fill="#bb8901"/><path d="m512 384.179688v80.691406c0 25.738281-20.789062 47.128906-47.128906 47.128906h-106.039063v-127.820312zm0 0" fill="#ecb402"/></svg>