<svg height="512pt" viewBox="0 0 512 512" width="512pt" xmlns="http://www.w3.org/2000/svg"><path d="m256 351.332031c-96.863281 0-175.667969-78.804687-175.667969-175.664062 0-96.863281 78.804688-175.667969 175.667969-175.667969s175.667969 78.804688 175.667969 175.667969c0 96.859375-78.804688 175.664062-175.667969 175.664062zm0 0" fill="#00e1c8"/><path d="m256 0v351.332031c96.863281 0 175.667969-78.804687 175.667969-175.664062 0-96.863281-78.804688-175.667969-175.667969-175.667969zm0 0" fill="#009b91"/><path d="m167.632812 512c-92.433593 0-167.632812-75.199219-167.632812-167.632812 0-92.433594 75.199219-167.632813 167.632812-167.632813 92.433594 0 167.632813 75.199219 167.632813 167.632813 0 92.433593-75.199219 167.632812-167.632813 167.632812zm0 0" fill="#ff7d00"/><path d="m344.367188 512c-92.433594 0-167.632813-75.199219-167.632813-167.632812 0-92.433594 75.199219-167.632813 167.632813-167.632813 92.433593 0 167.632812 75.199219 167.632812 167.632813 0 92.433593-75.199219 167.632812-167.632812 167.632812zm0 0" fill="#ffe100"/><path d="m176.734375 344.367188c0 60.023437 31.714844 112.769531 79.265625 142.386718 47.550781-29.617187 79.265625-82.363281 79.265625-142.386718 0-60.023438-31.714844-112.773438-79.265625-142.386719-47.550781 29.617187-79.265625 82.363281-79.265625 142.386719zm0 0" fill="#ecb402"/><path d="m256 201.980469v284.773437c47.550781-29.617187 79.265625-82.363281 79.265625-142.386718 0-60.023438-31.714844-112.769532-79.265625-142.386719zm0 0" fill="#bb8901"/><path d="m177.152344 332.613281c23.726562 11.964844 50.511718 18.71875 78.847656 18.71875 88.511719 0 161.929688-65.804687 173.933594-151.058593-25.0625-14.941407-54.328125-23.539063-85.566406-23.539063-88.480469 0-161.160157 68.910156-167.214844 155.878906zm0 0" fill="#006566"/><path d="m82.066406 200.273438c12.003906 85.253906 85.421875 151.058593 173.933594 151.058593 28.335938 0 55.121094-6.753906 78.847656-18.71875-6.054687-86.96875-78.734375-155.878906-167.214844-155.878906-31.238281 0-60.503906 8.597656-85.566406 23.539063zm0 0" fill="#c91800"/><path d="m334.859375 332.628906c-23.730469 11.980469-50.519531 18.71875-78.859375 18.71875s-55.128906-6.738281-78.859375-18.71875c3.839844-55.121094 34.4375-102.988281 78.859375-130.648437 44.421875 27.660156 75.019531 75.527343 78.859375 130.648437zm0 0" fill="#5258e3"/><path d="m256 201.980469v149.367187c28.339844 0 55.128906-6.738281 78.859375-18.71875-3.839844-55.121094-34.4375-102.988281-78.859375-130.648437zm0 0" fill="#1827c6"/></svg>