<svg height="512pt" viewBox="0 -8 512 511" width="512pt" xmlns="http://www.w3.org/2000/svg"><path d="m497 129.03125h-482c-8.285156 0-15 6.71875-15 15v273.207031c.03125 43.675781 35.570312 79.195313 79.25 79.195313h353.484375c43.707031 0 79.265625-35.558594 79.265625-79.269532v-273.132812c0-8.28125-6.714844-15-15-15zm0 0" fill="#5258e3"/><path d="m497 129.03125h-241v367.402344h176.734375c43.707031 0 79.265625-35.558594 79.265625-79.269532v-273.132812c0-8.28125-6.714844-15-15-15zm0 0" fill="#1827c6"/><path d="m368.46875 193.300781h-224.9375c-8.28125 0-15 6.714844-15 15v192.800781c0 8.285157 6.71875 15 15 15h41.988281l27.742188 27.738282c2.925781 2.929687 6.765625 4.394531 10.605469 4.394531 3.835937 0 7.675781-1.464844 10.605468-4.394531 5.855469-5.855469 5.855469-15.355469 0-21.210938l-32.132812-32.136718c-2.8125-2.8125-6.628906-4.390626-10.605469-4.390626h-33.199219v-66.402343h113.53125c8.285156 0 15-6.714844 15-15 0-8.285157-6.714844-15-15-15h-15.871094v-66.398438h97.273438v66.398438h-17.132812c-8.285157 0-15 6.714843-15 15 0 8.285156 6.714843 15 15 15h17.132812v66.402343h-81.402344c-8.28125 0-15 6.714844-15 15 0 8.28125 6.71875 15 15 15h96.402344c8.285156 0 15-6.71875 15-15v-192.800781c0-8.285156-6.71875-15-15-15zm-142.273438 96.398438h-67.664062v-66.398438h67.664062zm0 0" fill="#ffe100"/><path d="m432.75.5h-.015625c-8.285156 0-15 6.714844-15 15v293.429688c0 7.480468 5.511719 13.832031 12.921875 14.847656 45.949219 6.300781 81.34375 45.710937 81.34375 93.390625v-337.417969c0-43.769531-35.480469-79.25-79.25-79.25zm0 0" fill="#009b91"/><path d="m79.25.5h.015625c8.285156 0 15 6.714844 15 15v293.429688c0 7.480468-5.511719 13.832031-12.921875 14.847656-45.949219 6.300781-81.34375 45.710937-81.34375 93.390625v-337.417969c0-43.769531 35.480469-79.25 79.25-79.25zm0 0" fill="#00e1c8"/><path d="m368.46875 193.300781h-112.46875v126.398438h16.066406c8.285156 0 15-6.714844 15-15 0-8.285157-6.714844-15-15-15h-15.871094v-66.398438h97.273438v66.398438h-17.132812c-8.285157 0-15 6.714843-15 15 0 8.285156 6.714843 15 15 15h17.132812v66.402343h-81.402344c-8.285156 0-15 6.714844-15 15 0 8.28125 6.714844 15 15 15h96.402344c8.28125 0 15-6.71875 15-15v-192.800781c0-8.285156-6.71875-15-15-15zm0 0" fill="#ecb402"/></svg>