<svg height="512pt" viewBox="0 0 512 512" width="512pt" xmlns="http://www.w3.org/2000/svg"><path d="m464.867188 399.53125h-385.601563c-25.742187 0-47.132813-20.792969-47.132813-47.132812v-305.265626c0-25.742187 20.796876-47.132812 47.132813-47.132812h385.601563c25.742187 0 47.132812 20.796875 47.132812 47.132812v305.265626c0 25.804687-20.847656 47.132812-47.132812 47.132812zm0 0" fill="#ffe100"/><g fill="#ff7d00"><path d="m79.964844 94.265625h-64.964844c-8.285156 0-15-6.714844-15-15 0-8.28125 6.714844-15 15-15h64.964844c8.285156 0 15 6.71875 15 15 0 8.285156-6.714844 15-15 15zm0 0"/><path d="m79.964844 174.601562h-64.964844c-8.285156 0-15-6.71875-15-15 0-8.285156 6.714844-15 15-15h64.964844c8.285156 0 15 6.714844 15 15 0 8.28125-6.714844 15-15 15zm0 0"/><path d="m79.964844 254.933594h-64.964844c-8.285156 0-15-6.714844-15-15s6.714844-15 15-15h64.964844c8.285156 0 15 6.714844 15 15s-6.714844 15-15 15zm0 0"/><path d="m79.964844 335.265625h-64.964844c-8.285156 0-15-6.714844-15-15 0-8.28125 6.714844-15 15-15h64.964844c8.285156 0 15 6.71875 15 15 0 8.285156-6.714844 15-15 15zm0 0"/></g><path d="m392.917969 512h-233.667969c-3.242188 0-6.402344-1.054688-9-3l-32.132812-24.101562c-3.796876-2.847657-6.023438-7.328126-6-12.074219.023437-4.75 2.296874-9.207031 6.125-12.015625l32.832031-24.101563c2.574219-1.890625 5.683593-2.90625 8.875-2.90625h232.96875c21.550781 0 39.097656 17.421875 39.097656 39.097657 0 21.5625-17.539063 39.101562-39.097656 39.101562zm0 0" fill="#00e1c8"/><path d="m464.867188 0h-192.800782v399.53125h192.800782c26.285156 0 47.132812-21.328125 47.132812-47.132812v-305.265626c0-26.335937-21.390625-47.132812-47.132812-47.132812zm0 0" fill="#ecb402"/><path d="m392.917969 433.800781h-120.851563v78.199219h120.851563c21.558593 0 39.097656-17.539062 39.097656-39.101562 0-21.671876-17.546875-39.097657-39.097656-39.097657zm0 0" fill="#009b91"/></svg>