<svg height="512pt" viewBox="-41 0 512 512" width="512pt" xmlns="http://www.w3.org/2000/svg"><path d="m128.261719 512c-70.722657 0-128.261719-57.539062-128.261719-128.261719 0-70.726562 57.539062-128.265625 128.261719-128.265625 70.726562 0 128.265625 57.539063 128.265625 128.265625 0 70.722657-57.539063 128.261719-128.265625 128.261719zm0-226.289062c-54.050781 0-98.027344 43.972656-98.027344 98.027343 0 54.050781 43.976563 98.027344 98.027344 98.027344 54.054687 0 98.027343-43.976563 98.027343-98.027344 0-54.054687-43.972656-98.027343-98.027343-98.027343zm0 0" fill="#f2f6fc"/><path d="m128.261719 255.472656v30.238282c54.054687 0 98.027343 43.972656 98.027343 98.027343 0 54.050781-43.972656 98.027344-98.027343 98.027344v30.234375c70.726562 0 128.265625-57.539062 128.265625-128.261719 0-70.726562-57.539063-128.265625-128.265625-128.265625zm0 0" fill="#e5eaf5"/><path d="m155.207031 0h-53.890625c-8.351562 0-15.117187 6.769531-15.117187 15.117188v210.121093c0 8.351563 6.765625 30.238281 15.117187 30.238281h53.890625c8.347657 0 15.117188-21.886718 15.117188-30.238281v-210.121093c0-8.347657-6.769531-15.117188-15.117188-15.117188zm0 0" fill="#fffd78"/><path d="m155.207031 0h-26.945312v255.476562h26.945312c8.347657 0 15.117188-21.886718 15.117188-30.238281v-210.121093c0-8.347657-6.769531-15.117188-15.117188-15.117188zm0 0" fill="#ffe733"/><path d="m170.324219 225.238281h-84.125v85.671875c0 8.347656 6.765625 15.117188 15.117187 15.117188h53.890625c8.347657 0 15.117188-6.769532 15.117188-15.117188zm0 0" fill="#0076fe"/><path d="m128.261719 326.027344h26.945312c8.347657 0 15.117188-6.769532 15.117188-15.117188v-85.671875h-42.0625zm0 0" fill="#0058be"/><path d="m302.53125 460.214844c-70.726562 0-128.265625-57.539063-128.265625-128.261719 0-70.726563 57.539063-128.265625 128.265625-128.265625 70.722656 0 128.261719 57.539062 128.261719 128.265625 0 70.722656-57.539063 128.261719-128.261719 128.261719zm0-226.289063c-54.054688 0-98.027344 43.972657-98.027344 98.027344 0 54.050781 43.972656 98.027344 98.027344 98.027344 54.050781 0 98.027344-43.976563 98.027344-98.027344 0-54.054687-43.976563-98.027344-98.027344-98.027344zm0 0" fill="#f2f6fc"/><path d="m302.53125 203.6875v30.238281c54.050781 0 98.027344 43.972657 98.027344 98.027344 0 54.050781-43.976563 98.023437-98.027344 98.027344v30.234375c70.726562 0 128.261719-57.539063 128.261719-128.261719 0-70.726563-57.535157-128.265625-128.261719-128.265625zm0 0" fill="#e5eaf5"/><path d="m329.476562 203.691406h-53.890624c-8.347657 0-15.117188-21.886718-15.117188-30.234375v-158.339843c0-8.347657 6.769531-15.117188 15.117188-15.117188h53.890624c8.351563 0 15.121094 6.769531 15.121094 15.117188v158.339843c0 8.347657-6.769531 30.234375-15.121094 30.234375zm0 0" fill="#fffd78"/><path d="m329.476562 0h-26.945312v203.691406h26.945312c8.351563 0 15.121094-21.886718 15.121094-30.234375v-158.339843c0-8.347657-6.769531-15.117188-15.121094-15.117188zm0 0" fill="#ffe733"/><path d="m344.597656 173.457031h-84.128906v85.667969c0 8.347656 6.769531 15.117188 15.117188 15.117188h53.890624c8.351563 0 15.121094-6.769532 15.121094-15.117188zm0 0" fill="#0076fe"/><path d="m302.53125 274.242188h26.945312c8.351563 0 15.121094-6.769532 15.121094-15.117188v-85.667969h-42.066406zm0 0" fill="#0058be"/></svg>