<svg height="512pt" viewBox="-149 0 511 512" width="512pt" xmlns="http://www.w3.org/2000/svg"><path d="m156.367188 159.597656-49.292969-72.53125-49.289063 72.53125-24.921875-16.9375 61.753907-90.863281c2.804687-4.128906 7.46875-6.601563 12.460937-6.601563 4.988281 0 9.65625 2.472657 12.460937 6.601563l61.75 90.863281zm0 0" fill="#f2f6fc"/><path d="m156.367188 159.597656 24.921874-16.9375-61.75-90.863281c-2.804687-4.128906-7.472656-6.601563-12.460937-6.601563v41.871094zm0 0" fill="#e5eaf5"/><path d="m107.078125 86.257812c-8.320313 0-15.066406-6.742187-15.066406-15.0625v-56.128906c0-8.320312 6.746093-15.066406 15.066406-15.066406s15.066406 6.746094 15.066406 15.066406v56.128906c0 8.320313-6.746093 15.0625-15.066406 15.0625zm0 0" fill="#555a66"/><path d="m122.144531 71.195312v-56.128906c0-8.320312-6.746093-15.066406-15.066406-15.066406v86.257812c8.320313 0 15.066406-6.742187 15.066406-15.0625zm0 0" fill="#353535"/><path d="m168.828125 512h-123.503906c-24.714844 0-44.824219-20.109375-44.824219-44.824219v-286.289062c0-24.714844 20.109375-44.824219 44.824219-44.824219h123.503906c24.71875 0 44.824219 20.109375 44.824219 44.824219v286.285156c0 24.71875-20.105469 44.828125-44.824219 44.828125zm0 0" fill="#64e1dc"/><path d="m168.828125 136.0625h-61.75v375.9375h61.75c24.71875 0 44.824219-20.109375 44.824219-44.824219v-286.289062c0-24.714844-20.105469-44.824219-44.824219-44.824219zm0 0" fill="#00c8c8"/><path d="m213.652344 428.21875h-213.152344v-208.375h213.15625v208.375zm0 0" fill="#fffd78"/><path d="m107.078125 219.84375h106.574219v208.375h-106.574219zm0 0" fill="#ffe733"/></svg>