<svg height="512pt" viewBox="0 -83 512.00201 512" width="512pt" xmlns="http://www.w3.org/2000/svg"><path d="m455.398438 345.511719h-398.796876c-31.210937 0-56.601562-25.390625-56.601562-56.601563v-159.835937c0-31.210938 25.390625-56.601563 56.601562-56.601563h33.933594l165.464844 10.054688 165.464844-10.054688h33.9375c31.207031 0 56.601562 25.390625 56.601562 56.601563v159.835937c-.003906 31.210938-25.394531 56.601563-56.605468 56.601563zm0 0" fill="#0076fe"/><path d="m455.398438 72.472656h-33.933594l-165.464844 10.054688v262.984375h199.398438c31.210937 0 56.601562-25.390625 56.601562-56.601563v-159.835937c0-31.210938-25.390625-56.601563-56.601562-56.601563zm0 0" fill="#0076fe"/><path d="m332.777344 87.550781h-30.15625v-41.621093c0-8.695313-7.074219-15.773438-15.769532-15.773438h-61.703124c-8.691407 0-15.769532 7.078125-15.769532 15.773438v41.621093h-30.15625v-41.621093c0-25.324219 20.605469-45.929688 45.925782-45.929688h61.703124c25.324219 0 45.925782 20.605469 45.925782 45.929688zm0 0" fill="#555a66"/><path d="m286.851562 0h-30.851562v30.15625h30.851562c8.691407 0 15.769532 7.078125 15.769532 15.773438v41.621093h30.15625v-41.621093c0-25.324219-20.601563-45.929688-45.925782-45.929688zm0 0" fill="#353535"/><path d="m512 288.910156v-79.800781h-512v79.800781c0 31.210938 25.390625 56.601563 56.601562 56.601563h33.933594l165.464844-10.054688 165.464844 10.054688h33.9375c31.207031 0 56.597656-25.390625 56.597656-56.601563zm0 0" fill="#0058be"/><path d="m256 335.457031 165.464844 10.054688h33.933594c31.210937 0 56.601562-25.390625 56.601562-56.601563v-79.800781h-256zm0 0" fill="#0058be"/><path d="m421.464844 345.511719h-330.929688v-273.039063h330.929688zm0 0" fill="#69d3ff"/><path d="m256 72.472656h165.464844v273.039063h-165.464844zm0 0" fill="#00b9fc"/><path d="m256 268.140625c-42.335938 0-76.777344-34.441406-76.777344-76.777344v-26.441406c0-8.328125 6.75-15.078125 15.078125-15.078125h123.398438c8.328125 0 15.078125 6.75 15.078125 15.078125v26.441406c0 42.335938-34.441406 76.777344-76.777344 76.777344zm0 0" fill="#fffd78"/><path d="m317.699219 149.84375h-61.699219v118.296875c42.335938 0 76.777344-34.441406 76.777344-76.777344v-26.441406c0-8.328125-6.75-15.078125-15.078125-15.078125zm0 0" fill="#ffe733"/></svg>