<svg height="512pt" viewBox="0 -40 512 511" width="512pt" xmlns="http://www.w3.org/2000/svg"><path d="m281.097656 141.050781h165.648438v30.117188h-165.648438zm0 0" fill="#555a66"/><path d="m65.253906 70.773438h165.648438v30.117187h-165.648438zm0 0" fill="#555a66"/><g fill="#64e1dc"><path d="m496.941406 431.183594h-50.195312c-8.316406 0-15.058594-6.742188-15.058594-15.058594v-305.195312c0-22.140626 18.011719-40.15625 40.15625-40.15625 22.140625 0 40.15625 18.015624 40.15625 40.15625v305.195312c0 8.316406-6.742188 15.058594-15.058594 15.058594zm0 0"/><path d="m65.253906 431.183594h-50.195312c-8.316406 0-15.058594-6.742188-15.058594-15.058594v-375.46875c0-22.140625 18.015625-40.15625 40.15625-40.15625 22.144531 0 40.15625 18.015625 40.15625 40.15625v375.46875c0 8.316406-6.742188 15.058594-15.058594 15.058594zm0 0"/><path d="m281.097656 431.183594h-50.195312c-8.316406 0-15.058594-6.742188-15.058594-15.058594v-375.46875c0-22.140625 18.015625-40.15625 40.15625-40.15625s40.15625 18.015625 40.15625 40.15625v375.46875c0 8.316406-6.742188 15.058594-15.058594 15.058594zm0 0"/></g><path d="m65.253906 431.183594c8.316406 0 15.058594-6.742188 15.058594-15.058594v-375.46875c0-22.140625-18.011719-40.15625-40.15625-40.15625v430.683594zm0 0" fill="#00c8c8"/><path d="m281.097656 431.183594c8.316406 0 15.058594-6.742188 15.058594-15.058594v-375.46875c0-22.140625-18.015625-40.15625-40.15625-40.15625v430.683594zm0 0" fill="#00c8c8"/><path d="m496.941406 431.183594c8.316406 0 15.058594-6.742188 15.058594-15.058594v-305.195312c0-22.140626-18.015625-40.15625-40.15625-40.15625v360.410156zm0 0" fill="#00c8c8"/></svg>