<svg height="512pt" viewBox="-158 0 512 512" width="512pt" xmlns="http://www.w3.org/2000/svg"><path d="m97.816406 460.097656c-8.347656 0-15.117187-6.769531-15.117187-15.117187v-229.972657c0-8.347656 6.769531-15.117187 15.117187-15.117187s15.117188 6.769531 15.117188 15.117187v229.972657c0 8.347656-6.769532 15.117187-15.117188 15.117187zm0 0" fill="#555a66"/><path d="m112.933594 444.980469v-229.972657c0-8.347656-6.769532-15.117187-15.117188-15.117187v260.207031c8.347656 0 15.117188-6.769531 15.117188-15.117187zm0 0" fill="#353535"/><path d="m122.449219 230.128906h-49.265625c-4.808594 0-9.328125-2.289062-12.179688-6.160156-31.683594-43.0625-61.003906-88.148438-61.003906-126.152344 0-53.9375 43.878906-97.816406 97.816406-97.816406s97.816406 43.878906 97.816406 97.816406c0 38-29.320312 83.089844-61.003906 126.152344-2.851562 3.875-7.371094 6.160156-12.179687 6.160156zm0 0" fill="#fa732d"/><path d="m180.515625 512h-165.398437c-8.347657 0-15.117188-6.769531-15.117188-15.117188v-29.886718c0-20.476563 16.65625-37.132813 37.132812-37.132813h121.367188c20.472656 0 37.132812 16.65625 37.132812 37.132813v29.886718c0 8.347657-6.769531 15.117188-15.117187 15.117188zm0 0" fill="#0076fe"/><path d="m77.144531 230.128906c-12.589843-45.308594-25.195312-93.742187-25.195312-132.3125 0-47.109375 14.355469-97.816406 45.867187-97.816406 31.511719 0 45.867188 50.707031 45.867188 97.816406 0 35.425782-24.703125 132.3125-24.703125 132.3125zm0 0" fill="#f2f6fc"/><path d="m158.5 429.863281h-60.683594v82.136719h82.699219c8.347656 0 15.117187-6.769531 15.117187-15.117188v-29.886718c0-20.476563-16.660156-37.132813-37.132812-37.132813zm0 0" fill="#0058be"/><path d="m122.449219 230.128906c4.808593 0 9.328125-2.289062 12.175781-6.160156 31.6875-43.0625 61.007812-88.152344 61.007812-126.152344 0-53.9375-43.882812-97.816406-97.816406-97.816406v230.128906zm0 0" fill="#f03049"/><path d="m118.980469 230.128906s24.703125-96.886718 24.703125-132.3125c0-47.109375-14.355469-97.816406-45.867188-97.816406v230.128906zm0 0" fill="#e5eaf5"/></svg>