<svg height="512pt" viewBox="-7 0 512 512" width="512pt" xmlns="http://www.w3.org/2000/svg"><path d="m460.296875 220.128906-195.445313-73.140625v-29.828125c25.410157-6.8125 44.171876-30.039062 44.171876-57.566406 0-32.859375-26.734376-59.59375-59.59375-59.59375-32.859376 0-59.59375 26.734375-59.59375 59.59375 0 8.515625 6.90625 15.421875 15.421874 15.421875 8.519532 0 15.421876-6.90625 15.421876-15.421875 0-15.855469 12.898437-28.75 28.75-28.75 15.851562 0 28.75 12.894531 28.75 28.75 0 15.851562-12.898438 28.746094-28.75 28.746094-8.515626 0-15.421876 6.90625-15.421876 15.421875v43.226562l-195.445312 73.140625c-23.066406 8.632813-38.5625 30.976563-38.5625 55.605469 0 32.734375 26.632812 59.367187 59.371094 59.367187h380.117187c32.734375 0 59.371094-26.632812 59.371094-59.367187 0-24.628906-15.5-46.972656-38.5625-55.605469zm-20.808594 84.128906h-380.117187c-15.730469 0-28.527344-12.796874-28.527344-28.523437 0-11.835937 7.445312-22.570313 18.527344-26.71875l200.058594-74.863281 200.054687 74.863281c11.085937 4.148437 18.53125 14.882813 18.53125 26.71875 0 15.726563-12.796875 28.523437-28.527344 28.523437zm0 0" fill="#e5eaf5"/><path d="m460.296875 220.128906-195.445313-73.140625v-29.828125c25.410157-6.8125 44.171876-30.039062 44.171876-57.566406 0-32.859375-26.734376-59.59375-59.59375-59.59375-.050782 0-.101563.00390625-.148438.00390625v30.84374975c.050781 0 .097656-.003906.148438-.003906 15.851562 0 28.75 12.894531 28.75 28.75 0 15.851562-12.898438 28.746094-28.75 28.746094-.050782 0-.097657.007812-.148438.007812v85.859375l.148438-.054687 200.054687 74.863281c11.085937 4.148437 18.53125 14.882813 18.53125 26.71875 0 15.726563-12.796875 28.523437-28.527344 28.523437h-190.207031v30.84375h190.207031c32.738281 0 59.371094-26.632812 59.371094-59.367187 0-24.628906-15.5-46.972656-38.5625-55.605469zm0 0" fill="#cdd2e1"/><path d="m347.601562 249.664062h-196.34375c-21.394531 0-38.792968 17.402344-38.792968 38.792969v208.121094c0 8.515625 6.902344 15.421875 15.421875 15.421875h243.089843c8.515626 0 15.421876-6.90625 15.421876-15.421875v-208.121094c0-21.390625-17.40625-38.792969-38.796876-38.792969zm0 0" fill="#e3fbff"/><path d="m347.601562 249.664062h-98.324218v262.335938h121.695312c8.519532 0 15.421875-6.90625 15.421875-15.421875v-208.121094c.003907-21.390625-17.402343-38.792969-38.792969-38.792969zm0 0" fill="#bff7ff"/><path d="m174.824219 249.664062h149.210937v262.335938h-149.210937zm0 0" fill="#69d3ff"/><path d="m249.28125 249.664062h74.753906v262.335938h-74.753906zm0 0" fill="#00b9fc"/></svg>