<svg height="511pt" viewBox="0 0 511 511.9998" width="511pt" xmlns="http://www.w3.org/2000/svg"><path d="m290.445312 314.402344 172.347657-172.347656 21.488281 21.488281-172.347656 172.347656zm0 0" fill="#353535"/><path d="m484.289062 28.023438c-37.363281-37.363282-98.160156-37.363282-135.523437 0l-172.347656 172.347656 21.488281 21.488281 122.894531-122.894531c.773438 23.46875 10.089844 46.703125 27.964844 64.578125 37.363281 37.363281 98.15625 37.363281 135.519531 0 37.363282-37.363281 37.363282-98.15625.003906-135.519531zm-114.035156 114.03125c-25.515625-25.515626-25.515625-67.027344 0-92.542969s67.03125-25.515625 92.542969 0c25.515625 25.511719 25.515625 67.027343 0 92.542969-25.515625 25.511718-67.027344 25.511718-92.542969 0zm0 0" fill="#707789"/><path d="m484.289062 28.023438-21.492187 21.488281c25.515625 25.511719 25.515625 67.027343 0 92.542969-25.515625 25.511718-67.027344 25.511718-92.542969 0l-21.488281 21.488281c37.363281 37.363281 98.15625 37.363281 135.523437 0 37.359376-37.363281 37.359376-98.15625 0-135.519531zm0 0" fill="#555a66"/><path d="m348.769531 163.539062 21.496094-21.496093c-25.09375-25.546875-24.964844-66.738281.40625-92.113281l-49.453125 49.453124c.769531 23.285157 9.953125 46.335938 27.550781 64.15625zm0 0" fill="#353535"/><path d="m266.027344 416.589844-56.269532-56.269532c-5.933593-5.9375-5.933593-15.554687 0-21.492187l41.378907-41.378906c12.089843-12.089844 31.761719-12.089844 43.851562 0l33.910157 33.910156c12.089843 12.089844 12.089843 31.761719 0 43.851563l-41.382813 41.378906c-5.933594 5.933594-15.554687 5.933594-21.488281 0zm0 0" fill="#f2f6fc"/><path d="m151.992188 302.554688-56.269532-56.269532c-5.933594-5.933594-5.933594-15.554687 0-21.488281l41.378906-41.382813c12.089844-12.085937 31.761719-12.085937 43.851563 0l33.910156 33.910157c12.089844 12.089843 12.089844 31.761719 0 43.851562l-41.378906 41.382813c-5.933594 5.929687-15.554687 5.929687-21.492187-.003906zm0 0" fill="#f2f6fc"/><path d="m129.828125 495.308594c-21.007813-21.65625-20.148437-56.402344 1.1875-77.742188l89.484375-89.480468 77.761719 77.757812-90.082031 90.082031c-21.632813 21.636719-56.96875 21.429688-78.351563-.617187zm0 0" fill="#64e1dc"/><path d="m15.792969 381.277344c-21.007813-21.660156-20.144531-56.40625 1.191406-77.742188l89.484375-89.484375 77.757812 77.761719-90.078124 90.082031c-21.636719 21.632813-56.972657 21.429688-78.355469-.617187zm0 0" fill="#64e1dc"/><path d="m328.894531 331.359375-16.957031-16.957031-74.050781 74.046875 28.140625 28.140625c5.933594 5.933594 15.554687 5.933594 21.488281 0l41.378906-41.378906c12.09375-12.089844 12.089844-31.761719 0-43.851563zm0 0" fill="#e5eaf5"/><path d="m130.433594 495.90625c21.441406 21.4375 56.3125 21.453125 77.746094.019531l90.082031-90.082031-38.882813-38.882812zm0 0" fill="#00c8c8"/><path d="m214.863281 217.324219-16.953125-16.953125-74.050781 74.050781 28.132813 28.136719c5.9375 5.933594 15.554687 5.933594 21.492187 0l41.378906-41.382813c12.089844-12.089843 12.089844-31.761719 0-43.851562zm0 0" fill="#e5eaf5"/><path d="m16.402344 381.875c21.441406 21.4375 56.308594 21.453125 77.742187.015625l90.082031-90.078125-38.878906-38.882812zm0 0" fill="#00c8c8"/></svg>