<svg height="512pt" viewBox="0 0 511 512" width="512pt" xmlns="http://www.w3.org/2000/svg"><path d="m256.007812 512c-8.464843 0-15.328124-6.863281-15.328124-15.332031v-93.160157c0-8.46875 6.863281-15.332031 15.328124-15.332031 8.46875 0 15.332032 6.863281 15.332032 15.332031v93.160157c0 8.46875-6.863282 15.332031-15.332032 15.332031zm0 0" fill="#f2f6fc"/><path d="m271.339844 496.667969v-93.160157c0-8.46875-6.863282-15.332031-15.332032-15.332031v123.824219c8.46875 0 15.332032-6.863281 15.332032-15.332031zm0 0" fill="#e5eaf5"/><path d="m310.175781 418.835938h-108.335937c-8.464844 0-15.328125-6.863282-15.328125-15.328126v-19.871093c0-23.792969 19.355469-43.148438 43.148437-43.148438h52.699219c23.792969 0 43.148437 19.355469 43.148437 43.148438v19.871093c0 8.464844-6.863281 15.328126-15.332031 15.328126zm0 0" fill="#0076fe"/><path d="m417.339844 102.996094h-322.660156c-8.46875 0-15.332032-6.867188-15.332032-15.332032 0-8.464843 6.863282-15.332031 15.332032-15.332031h322.660156c8.464844 0 15.328125 6.867188 15.328125 15.332031 0 8.464844-6.859375 15.332032-15.328125 15.332032zm0 0" fill="#f2f6fc"/><path d="m417.339844 72.332031h-161.332032v30.664063h161.332032c8.46875 0 15.332031-6.867188 15.332031-15.332032 0-8.464843-6.863281-15.332031-15.332031-15.332031zm0 0" fill="#e5eaf5"/><path d="m496.1875 103.273438h-31.054688c-8.464843 0-15.328124-6.863282-15.328124-15.332032 0-8.464844 6.863281-15.328125 15.328124-15.328125h31.054688c8.46875 0 15.332031 6.863281 15.332031 15.328125 0 8.46875-6.863281 15.332032-15.332031 15.332032zm0 0" fill="#e5eaf5"/><path d="m46.886719 103.273438h-31.054688c-8.46875 0-15.332031-6.863282-15.332031-15.332032 0-8.464844 6.863281-15.328125 15.332031-15.328125h31.054688c8.464843 0 15.328125 6.863281 15.328125 15.328125 0 8.46875-6.863282 15.332032-15.328125 15.332032zm0 0" fill="#f2f6fc"/><path d="m69.835938 175.316406c-21.414063-.507812-38.28125-18.53125-38.28125-39.953125v-95.398437c0-20.820313 15.929687-38.578125 36.707031-39.886719 22.765625-1.429687 41.746093 16.6875 41.746093 39.152344v96.871093c0 21.941407-18.109374 39.738282-40.171874 39.214844zm0 0" fill="#555a66"/><path d="m441.238281 175.328125c-21.632812 0-39.230469-17.597656-39.230469-39.226563v-96.875c0-21.628906 17.597657-39.226562 39.230469-39.226562 21.628907 0 39.226563 17.597656 39.226563 39.226562v96.875c0 21.628907-17.597656 39.226563-39.226563 39.226563zm0 0" fill="#555a66"/><path d="m98.660156 512h-54.722656c-8.464844 0-15.332031-6.863281-15.332031-15.332031 0-8.464844 6.867187-15.328125 15.332031-15.328125h54.722656c21.304688 0 38.636719-17.332032 38.636719-38.636719v-385.421875c0-8.464844 6.863281-15.332031 15.332031-15.332031 8.464844 0 15.328125 6.867187 15.328125 15.332031v385.421875c0 38.210937-31.085937 69.296875-69.296875 69.296875zm0 0" fill="#707789"/><path d="m468.082031 512h-54.722656c-38.210937 0-69.296875-31.085938-69.296875-69.296875v-385.421875c0-8.464844 6.863281-15.332031 15.328125-15.332031 8.46875 0 15.332031 6.867187 15.332031 15.332031v385.421875c0 21.304687 17.332032 38.636719 38.636719 38.636719h54.722656c8.464844 0 15.328125 6.863281 15.328125 15.328125 0 8.46875-6.863281 15.332031-15.328125 15.332031zm0 0" fill="#555a66"/><path d="m310.175781 512h-108.335937c-8.464844 0-15.328125-6.863281-15.328125-15.332031 0-8.464844 6.863281-15.328125 15.328125-15.328125h108.335937c8.46875 0 15.332031 6.863281 15.332031 15.328125 0 8.46875-6.863281 15.332031-15.332031 15.332031zm0 0" fill="#555a66"/><g fill="#353535"><path d="m110.007812 136.101562v-96.875c0-21.628906-17.59375-39.226562-39.226562-39.226562v175.328125c21.632812 0 39.226562-17.597656 39.226562-39.226563zm0 0"/><path d="m480.464844 136.101562v-96.875c0-21.628906-17.597656-39.226562-39.226563-39.226562v175.328125c21.628907 0 39.226563-17.597656 39.226563-39.226563zm0 0"/><path d="m310.175781 481.339844h-54.167969v30.660156h54.167969c8.46875 0 15.332031-6.863281 15.332031-15.332031 0-8.464844-6.863281-15.328125-15.332031-15.328125zm0 0"/></g><path d="m282.359375 340.488281h-26.351563v78.347657h54.167969c8.46875 0 15.332031-6.863282 15.332031-15.328126v-19.871093c0-23.792969-19.355468-43.148438-43.148437-43.148438zm0 0" fill="#0058be"/></svg>