<svg height="512pt" viewBox="-129 0 512 512" width="512pt" xmlns="http://www.w3.org/2000/svg"><path d="m90.394531 135.476562h-22.65625c-37.351562 0-67.738281-30.386718-67.738281-67.738281 0-37.351562 30.386719-67.738281 67.738281-67.738281h72.925781c8.371094 0 15.160157 6.785156 15.160157 15.15625s-6.789063 15.160156-15.160157 15.160156h-72.925781c-20.636719 0-37.421875 16.789063-37.421875 37.421875 0 20.632813 16.785156 37.421875 37.421875 37.421875h22.65625c8.371094 0 15.15625 6.785156 15.15625 15.15625s-6.785156 15.160156-15.15625 15.160156zm0 0" fill="#707789"/><path d="m164.492188 84.519531h-47.652344c-8.371094 0-15.15625-6.785156-15.15625-15.15625v-30.378906c0-21.496094 17.488281-38.984375 38.980468-38.984375 21.496094 0 38.984376 17.488281 38.984376 38.984375v30.378906c0 8.371094-6.785157 15.15625-15.15625 15.15625zm0 0" fill="#f2f6fc"/><path d="m190.9375 135.476562h-100.542969c-8.371093 0-15.160156-6.789062-15.160156-15.160156v-29.75c0-20.050781 16.3125-36.363281 36.363281-36.363281h58.136719c20.046875 0 36.359375 16.3125 36.359375 36.363281v29.75c0 8.371094-6.785156 15.160156-15.15625 15.160156zm0 0" fill="#555a66"/><path d="m201.082031 512h-120.832031c-29.222656 0-53-23.777344-53-53v-253.582031c0-17.132813 5.683594-34.097657 16-47.777344l31.988281-42.398437h130.855469l31.988281 42.398437c10.316407 13.679687 16 30.644531 16 47.777344v253.582031c0 29.222656-23.777343 53-53 53zm0 0" fill="#69d3ff"/><path d="m140.667969 0v84.519531h23.824219c8.371093 0 15.15625-6.785156 15.15625-15.15625v-30.378906c0-21.496094-17.488282-38.984375-38.980469-38.984375zm0 0" fill="#e5eaf5"/><path d="m169.734375 54.203125h-29.066406v81.273437h50.269531c8.371094 0 15.15625-6.789062 15.15625-15.160156v-29.75c0-20.050781-16.308594-36.363281-36.359375-36.363281zm0 0" fill="#353535"/><path d="m206.09375 115.242188h-65.429688v396.757812h60.414063c29.226563 0 53.003906-23.777344 53.003906-53v-253.582031c0-17.132813-5.683593-34.097657-16-47.777344zm0 0" fill="#00b9fc"/><g fill="#0076fe"><path d="m85.265625 214.9375h-58.015625v30.316406h58.015625c8.371094 0 15.15625-6.789062 15.15625-15.160156s-6.785156-15.15625-15.15625-15.15625zm0 0"/><path d="m85.265625 275.3125h-58.015625v30.316406h58.015625c8.371094 0 15.15625-6.785156 15.15625-15.15625s-6.785156-15.160156-15.15625-15.160156zm0 0"/><path d="m85.265625 335.691406h-58.015625v30.3125h58.015625c8.371094 0 15.15625-6.785156 15.15625-15.15625s-6.785156-15.15625-15.15625-15.15625zm0 0"/><path d="m85.265625 396.066406h-58.015625v30.316406h58.015625c8.371094 0 15.15625-6.789062 15.15625-15.160156s-6.785156-15.15625-15.15625-15.15625zm0 0"/></g><path d="m254.082031 214.9375h-93.207031c-8.371094 0-15.15625 6.785156-15.15625 15.15625s6.785156 15.160156 15.15625 15.160156h93.207031zm0 0" fill="#0058be"/><path d="m254.082031 275.3125h-93.207031c-8.371094 0-15.15625 6.789062-15.15625 15.160156s6.785156 15.15625 15.15625 15.15625h93.207031zm0 0" fill="#0058be"/><path d="m254.082031 335.691406h-93.207031c-8.371094 0-15.15625 6.785156-15.15625 15.15625s6.785156 15.15625 15.15625 15.15625h93.207031zm0 0" fill="#0058be"/><path d="m254.082031 396.066406h-93.207031c-8.371094 0-15.15625 6.785156-15.15625 15.15625s6.785156 15.160156 15.15625 15.160156h93.207031zm0 0" fill="#0058be"/></svg>