<svg height="512pt" viewBox="-85 0 512 512" width="512pt" xmlns="http://www.w3.org/2000/svg"><path d="m296.46875 512h-250.472656c-25.363282 0-45.996094-20.632812-45.996094-45.996094v-52.203125l20.320312-157.800781-20.320312-186.242188v-23.761718c0-25.363282 20.632812-45.996094 45.996094-45.996094h250.472656c25.363281 0 45.996094 20.632812 45.996094 45.996094v420.007812c0 25.363282-20.632813 45.996094-45.996094 45.996094zm0 0" fill="#555a66"/><path d="m296.46875 0h-125.234375v512h125.234375c25.363281 0 45.996094-20.632812 45.996094-45.996094v-52.203125l-20.316406-157.800781 20.316406-186.242188v-23.761718c0-25.363282-20.632813-45.996094-45.996094-45.996094zm0 0" fill="#353535"/><path d="m192.566406 474.074219h-42.667968c-8.414063 0-15.238282-6.824219-15.238282-15.238281 0-8.414063 6.824219-15.238282 15.238282-15.238282h42.667968c8.414063 0 15.238282 6.824219 15.238282 15.238282 0 8.414062-6.824219 15.238281-15.238282 15.238281zm0 0" fill="#707789"/><path d="m192.566406 443.597656h-21.332031v30.476563h21.332031c8.414063 0 15.238282-6.824219 15.238282-15.238281 0-8.414063-6.824219-15.238282-15.238282-15.238282zm0 0" fill="#555a66"/><path d="m342.464844 413.796875h-342.464844v-344.039063h342.464844zm0 0" fill="#e3fbff"/><path d="m171.234375 69.757812h171.230469v344.042969h-171.230469zm0 0" fill="#bff7ff"/><path d="m213.4375 334.222656c-5.585938 0-10.738281-3.0625-13.402344-7.996094l-58.375-108.046874-29.328125 46.011718c-2.800781 4.390625-7.644531 7.046875-12.851562 7.046875h-99.480469v-30.476562h91.121094l38.769531-60.824219c2.902344-4.554688 8.007813-7.226562 13.398437-7.039062 5.398438.195312 10.292969 3.234374 12.859376 7.984374l56.328124 104.265626 16.710938-35.621094c2.511719-5.347656 7.886719-8.765625 13.796875-8.765625h99.480469v30.476562h-89.800782l-25.429687 54.21875c-2.445313 5.207031-7.613281 8.59375-13.363281 8.757813-.144532.003906-.289063.007812-.433594.007812zm0 0" fill="#fa732d"/><path d="m229.1875 249.527344-16.707031 35.621094-41.246094-76.347657v64.117188l28.800781 53.308593c2.664063 4.933594 7.816406 7.996094 13.402344 7.996094.144531 0 .289062-.003906.433594-.007812 5.753906-.164063 10.921875-3.550782 13.363281-8.757813l25.433594-54.21875h89.796875v-30.476562h-99.480469c-5.910156 0-11.285156 3.417969-13.796875 8.765625zm0 0" fill="#f03049"/></svg>